<svg data-name="Layer 1" xmlns="http://www.w3.org/2000/svg" viewBox="0 0 512 512"><path d="M239.79 61.18c-.06.06-4.51.3-9.91.53s-11.1.47-12.76.59c-6.65.47-12.59.95-14.54 1.19-1.13.12-3.68.42-5.64.59-4.39.42-12.94 1.42-15.79 1.84-1.19.12-3.21.36-4.45.53-1.25.12-3.15.36-4.16.53-1.07.18-3.09.47-4.45.65-1.42.18-4.87.71-7.66 1.19s-6.11 1.01-7.42 1.25c-1.31.18-7.72 1.42-14.25 2.73-14.6 2.85-13.18 2.61-19.59 4.04-2.91.65-5.88 1.37-6.53 1.48C100 81.11 74.23 88.41 53.45 95.06l-5.22 1.66v9.02c0 8.25.12 9.08 1.07 9.14 1.42.06 3.27.36 12.88 2.08 10.15 1.78 9.44 1.66 16.33 3.15 3.09.65 7.66 1.6 10.09 2.14 21.07 4.45 58.65 14.13 76.88 19.83 17.28 5.4 25.29 8.01 27.9 8.96 1.66.65 5.64 2.08 8.9 3.21 37.93 13.06 80.56 32.71 113.98 52.48 7.42 4.45 24.82 15.55 28.73 18.4 1.42 1.07 2.79 1.9 3.03 1.9 1.37 0 26.54-24.52 35.68-34.73 20.48-22.92 37.64-46.07 50.94-68.86 5.05-8.61 13.12-24.1 13.12-25.17 0-1.01-27.55-11.1-42.68-15.61-10.03-2.97-23.87-6.71-27.37-7.36-.83-.18-2.97-.65-4.75-1.13-7.42-1.9-31.94-6.53-40.96-7.66-1.48-.24-3.62-.47-4.75-.65s-3.27-.42-4.75-.59-3.32-.47-4.16-.59-3.21-.42-5.34-.59c-2.14-.24-4.63-.47-5.64-.59-.95-.12-4.16-.36-7.12-.59-2.91-.24-6.29-.47-7.42-.59-7.84-.71-52.36-1.72-53.01-1.13ZM48.57 268.01c0 77.53.24 124.25.59 124.61.3.3 2.43 1.6 4.69 2.91 31.05 17.39 58.42 28.85 94.1 39.6 7.84 2.32 28.61 7.18 38.29 8.9 5.4.95 12.23 2.08 14.54 2.37 1.48.18 4.16.59 5.94.89s4.87.71 6.83.89 4.45.47 5.52.59c1.07.18 3.92.47 6.23.65 2.37.18 5.22.42 6.35.53 12.82 1.37 45.89 1.37 64.41.06 6.35-.47 12.64-1.01 13.95-1.25.83-.12 3.09-.42 5.05-.59s4.39-.47 5.34-.59c1.01-.18 4.04-.59 6.83-.95s5.7-.77 6.53-.89c1.54-.18 13.83-2.32 16.92-2.91 29.5-5.7 68.33-17.33 90.53-27.13 1.78-.83 4.45-1.96 5.94-2.61 1.48-.59 5.82-2.67 9.62-4.51l7.01-3.38-.71-1.66c-.42-.89-2.85-5.76-5.34-10.75-22.56-44.41-54.02-83.47-94.27-117.01-7.66-6.41-7.96-6.65-9.02-7.48-36.33-28.67-72.84-50.05-120.69-70.76-20.6-8.96-52.78-20.78-72.43-26.6-18.76-5.64-30.51-8.96-35.32-10.15-.47-.12-5.7-1.42-11.58-2.91-12.76-3.27-20.24-4.99-41.26-9.5-3.15-.71-13.71-2.73-15.44-3.03-1.13-.18-3.03-.53-4.16-.89-1.13-.3-2.73-.53-3.56-.53h-1.48l.06 124.08Z"/></svg>