<svg xmlns="http://www.w3.org/2000/svg" viewBox="0 0 640 512"><!--! Font Awesome Pro 6.1.1 by @fontawesome - https://fontawesome.com License - https://fontawesome.com/license (Commercial License) Copyright 2022 Fonticons, Inc.--><path d="M288 176v160c0 79.5-64.5 144-144 144C64.47 480 0 415.5 0 336V176C0 96.47 64.47 32 144 32c79.5 0 144 64.47 144 144zM48 336c0 53 42.98 96 96 96 53 0 96-43 96-96V176c0-53.9-43-96-96-96-53.02 0-96 42.1-96 96v160zm592-160v160c0 79.5-64.5 144-144 144s-144-64.5-144-144V176c0-79.53 64.5-144 144-144s144 64.47 144 144zM400 336c0 53 42.1 96 96 96 53 0 96-43 96-96V176c0-53.9-43-96-96-96-53.9 0-96 42.1-96 96v160z"/></svg>