<svg xmlns="http://www.w3.org/2000/svg" viewBox="0 0 320 512"><!--! Font Awesome Pro 6.1.1 by @fontawesome - https://fontawesome.com License - https://fontawesome.com/license (Commercial License) Copyright 2022 Fonticons, Inc.--><path d="M296 480H24c-9.922 0-18.81-6.109-22.39-15.36s-1.078-19.75 6.266-26.42l205.8-186.7c41.23-35.58 46-95.23 11.3-136.2-17.31-20.45-41.73-32.88-68.75-35.02-27.2-2.172-53.39 6.391-73.84 24L43.34 139c-9.906 8.812-25.12 7.891-33.88-2-8.812-9.906-7.906-25.08 2-33.88L50.8 68.15C81.32 41.87 120.1 29.13 160 32.43c39.88 3.141 75.97 21.55 101.6 51.83 51.08 60.31 43.84 151.5-16.12 203.2L86.19 432H296c13.25 0 24 10.75 24 24s-10.7 24-24 24z"/></svg>