<svg xmlns="http://www.w3.org/2000/svg" viewBox="0 0 640 512"><!--! Font Awesome Pro 6.1.1 by @fontawesome - https://fontawesome.com License - https://fontawesome.com/license (Commercial License) Copyright 2022 Fonticons, Inc.--><path d="M496 64c-44.13 0-79.1 35.89-79.1 80v224c0 44.11 35.87 80 79.1 80s79.1-35.89 79.1-80V144c.9-44.11-35-80-79.1-80zm32 304c0 17.64-14.34 32-32 32s-32-14.36-32-32V144c0-17.64 14.34-32 32-32s32 14.36 32 32v224zM304 192c-11.4 0-22.2 2.5-32 6.8v-2.1c0-36.77 23.19-70.05 60.5-86.84 12.09-5.453 17.47-19.66 12.03-31.73-5.438-12.09-19.75-17.44-31.72-12.05C258 90.77 224 140.8 224 196.7V368c0 44.11 35.87 80 79.1 80s79.1-35.89 79.1-80v-96c1.8-44.1-34.1-80-78.2-80zm32 176c0 17.64-14.34 32-32 32s-32-14.36-32-32v-96c0-17.64 14.34-32 32-32s32 14.36 32 32v96zM608 0c-17.67 0-31.1 14.33-31.1 32s14.33 32 31.1 32 32-14.33 32-32-14.3-32-32-32zM98.75 208.1l65.72-107.6c4.53-7.39 4.73-16.67.43-24.23C160.7 68.69 152.7 64 144 64H24C10.75 64 0 74.75 0 88s10.75 24 24 24h77.22L35.53 219.5c-4.53 7.4-4.72 16.7-.47 24.2C39.31 251.3 47.31 256 56 256h39.03C122 256 144 277.1 144 304.1v46.09C144 378 122 400 95.03 400c-16.41 0-31.62-8.156-40.72-21.8l-10.34-15.52c-7.344-11.03-22.22-14.02-33.28-6.656-11.03 7.359-14 22.25-6.656 33.28l10.34 15.52C32.41 431.9 62.56 448 95.03 448c53.47 0 96.97-43.5 96.97-97v-46.9c0-51.4-41.5-94.1-93.25-96z"/></svg>