<svg xmlns="http://www.w3.org/2000/svg" viewBox="0 0 384 512"><!--! Font Awesome Pro 6.1.1 by @fontawesome - https://fontawesome.com License - https://fontawesome.com/license (Commercial License) Copyright 2022 Fonticons, Inc.--><path d="M384 328c0 13.25-10.75 24-24 24l-39.1.001L320 456c0 13.25-10.75 24-24 24s-24-10.75-24-24V352H24a23.983 23.983 0 0 1-20.56-11.62 23.958 23.958 0 0 1-.64-23.61l144-272c6.2-11.69 20.8-16.15 32.4-9.97 11.7 6.188 16.17 20.72 9.969 32.44L63.86 304H272V152c0-13.2 10.8-24 24-24s24 10.8 24 24v152h40c13.3 0 24 10.8 24 24z"/></svg>