<svg xmlns="http://www.w3.org/2000/svg" viewBox="0 0 320 512"><!--! Font Awesome Pro 6.1.1 by @fontawesome - https://fontawesome.com License - https://fontawesome.com/license (Commercial License) Copyright 2022 Fonticons, Inc.--><path d="M187.7 480h-82c-47.47 0-89.47-30.27-104.5-75.31-4.203-12.58 2.594-26.17 15.17-30.36 12.56-4.219 26.17 2.609 30.36 15.17 8.52 25.4 32.21 42.5 58.97 42.5h81.95c46.55 0 84.35-37.8 84.35-84.3s-37.8-84.3-84.3-84.3H24a23.986 23.986 0 0 1-18.38-8.562A23.93 23.93 0 0 1 .36 235.3l32-183.4C34.36 40.39 44.35 32 56 32h208c13.3 0 24 10.75 24 24s-10.7 24-24 24H76.17L52.55 215.4h135.1C260.6 215.4 320 274.7 320 347.7S260.6 480 187.7 480z"/></svg>