<svg xmlns="http://www.w3.org/2000/svg" viewBox="0 0 320 512"><!--! Font Awesome Pro 6.1.1 by @fontawesome - https://fontawesome.com License - https://fontawesome.com/license (Commercial License) Copyright 2022 Fonticons, Inc.--><path d="M0 320c0 88.22 71.78 160 160 160s160-71.78 160-160-71.8-160-160-160c-5.5 0-10.8 1.1-16.1 1.6l74.64-90.35c8.438-10.22 7-25.34-3.219-33.78C210.8 33.8 205.4 32 200 32c-6.906 0-13.75 2.969-18.5 8.719C37.81 214.7 0 244.4 0 320zm272 0c0 61.75-50.25 112-112 112S48 381.8 48 320s50.25-112 112-112 112 50.3 112 112z"/></svg>