<svg xmlns="http://www.w3.org/2000/svg" viewBox="0 0 320 512"><!--! Font Awesome Pro 6.1.1 by @fontawesome - https://fontawesome.com License - https://fontawesome.com/license (Commercial License) Copyright 2022 Fonticons, Inc.--><path d="M259.7 250.2c26.9-22.8 44.3-56.3 44.3-94.2 0-68.37-55.6-124-124-124h-40C71.63 32 16 87.63 16 156c0 37.88 17.43 71.42 44.28 94.18C24.33 271.9 0 311 0 356c0 68.4 55.63 124 124 124h72c68.4 0 124-55.6 124-124 0-45-24.3-84.1-60.3-105.8zM140 80h40c41.9 0 76 34.1 76 76s-34.1 76-76 76h-40c-41.91 0-76-34.1-76-76s34.09-76 76-76zm56 352h-72c-41.91 0-76-34.09-76-76s34.09-76 76-76h72c41.91 0 76 34.09 76 76s-34.1 76-76 76z"/></svg>