<svg xmlns="http://www.w3.org/2000/svg" viewBox="0 0 320 512"><!--! Font Awesome Pro 6.1.1 by @fontawesome - https://fontawesome.com License - https://fontawesome.com/license (Commercial License) Copyright 2022 Fonticons, Inc.--><path d="M320 192c0-88.22-71.78-160-160-160S0 103.78 0 192s71.78 160 160 160c5.525 0 10.75-1.082 16.14-1.631L101.5 440.7c-8.438 10.22-7 25.34 3.219 33.78A23.797 23.797 0 0 0 120 480c6.906 0 13.75-2.969 18.5-8.719C282.2 297.3 320 267.6 320 192zm-272 0c0-61.75 50.25-112 112-112s112 50.25 112 112-50.2 112-112 112S48 253.8 48 192z"/></svg>