<svg xmlns="http://www.w3.org/2000/svg" viewBox="0 0 576 512"><!--! Font Awesome Pro 6.1.1 by @fontawesome - https://fontawesome.com License - https://fontawesome.com/license (Commercial License) Copyright 2022 Fonticons, Inc.--><path d="M512 32H64C28.65 32 0 60.65 0 96v320c0 35.35 28.65 64 64 64h448c35.35 0 64-28.65 64-64V96c0-35.35-28.7-64-64-64zM128 264h-16c-8.8 0-16 7.2-16 16v16c0 8.836 7.164 16 16 16h16v24h-16c-8.8 0-16 7.2-16 16v16c0 8.836 7.164 16 16 16h16v48H64c-8.837 0-16-7.163-16-16V240h80v24zm0-136h-16c-8.8 0-16 7.2-16 16v16c0 8.836 7.164 16 16 16h16v32H48V96c0-8.837 7.163-16 16-16h64v48zm128 136h-16c-8.8 0-16 7.2-16 16v16c0 8.836 7.164 16 16 16h16v24h-16c-8.8 0-16 7.2-16 16v16c0 8.836 7.164 16 16 16h16v48h-96v-48h16c8.836 0 16-7.164 16-16v-16c0-8.836-7.164-16-16-16h-16v-24h16c8.836 0 16-7.164 16-16v-16c0-8.836-7.164-16-16-16h-16v-24h96v24zm0-136h-16c-8.8 0-16 7.2-16 16v16c0 8.836 7.164 16 16 16h16v32h-96v-32h16c8.8 0 16-7.2 16-16v-16c0-8.836-7.164-15.1-16-15.1l-16-.9V80h96v48zm160 208h-16c-8.836 0-16 7.164-16 16v16c0 8.836 7.164 16 16 16h16v48H288v-48h16c8.836 0 16-7.164 16-16v-16c0-8.836-7.164-16-16-16h-16v-24h16c8.836 0 16-7.164 16-16v-16c0-8.836-7.164-16-16-16h-16v-24h128v96zm0-208h-16c-8.8 0-16 7.2-16 16v16c0 8.836 7.164 16 16 16h16v32H288v-32h16c8.8 0 16-7.2 16-16v-16c0-8.836-7.164-15.1-16-15.1l-16-.9V80h128v48zm96 304h-64v-48h16c8.836 0 16-7.164 16-16v-16c0-8.836-7.164-16-16-16h-16v-96h80v176c0 8.8-7.2 16-16 16zm16-224h-80v-32h16c8.8 0 16-7.2 16-16v-16c0-8.836-7.164-15.1-16-15.1l-16-.9V80h64c8.837 0 16 7.163 16 16v112z"/></svg>