<svg xmlns="http://www.w3.org/2000/svg" viewBox="0 0 192 512"><!--! Font Awesome Pro 6.1.1 by @fontawesome - https://fontawesome.com License - https://fontawesome.com/license (Commercial License) Copyright 2022 Fonticons, Inc.--><path d="m40.3 90.61 67.69 115.4c6.688 11.43 18.84 18.03 31.51 18.03a36.51 36.51 0 0 0 12.48-2.2c16.59-6.018 26.48-22.99 23.49-40.31L152.9 49.83c-3.045-17.81-13.79-33.2-29.45-42.25-8.891-5.154-18.84-7.542-28.8-7.544-25.06-.002-50.22 15.12-58.1 39.39C29.5 56.36 31.18 75.03 40.3 90.61zm40.47-34.84C82.28 51.61 88.75 48 94.65 48c1.316.002 3.203.188 4.73 1.072 3.385 1.955 5.57 5.074 6.209 8.809l11.9 69.42L81.71 66.32c-1.89-3.23-2.23-6.99-.94-10.55z"/></svg>