<svg xmlns="http://www.w3.org/2000/svg" viewBox="0 0 576 512"><!--! Font Awesome Pro 6.1.1 by @fontawesome - https://fontawesome.com License - https://fontawesome.com/license (Commercial License) Copyright 2022 Fonticons, Inc.--><path d="M464 128H112c-8.8 0-16 7.2-16 16v16c0 8.836 7.164 16 16 16h352c8.8 0 16-7.2 16-16v-16c0-8.8-7.2-16-16-16zM512 0H64C28.8 0 0 28.8 0 64v128c0 35.2 28.8 64 64 64h448c35.2 0 64-28.8 64-64V64c0-35.2-28.8-64-64-64zm16 192c0 8.672-7.326 16-16 16H64c-8.67 0-16-7.3-16-16V64c0-8.672 7.328-16 16-16h448c8.674 0 16 7.328 16 16v128zM208 424c0 22.06-17.94 40-40 40s-40-17.9-40-40c0-16.38 9.812-30.94 25.02-37.09 12.28-4.969 18.2-18.97 13.23-31.25-4.984-12.28-18.92-18.16-31.27-13.25C101.6 355.9 80 387.1 80 424c0 48.53 39.47 88 88 88s88-39.47 88-88V288h-48v136zm233-113.6c-12.34-4.906-26.28.969-31.27 13.25-4.969 12.28.953 26.28 13.23 31.25C438.2 361.1 448 375.6 448 392c0 22.06-17.94 40-40 40s-40-17.94-40-40V288h-48v104c0 48.53 39.47 88 88 88s88-39.47 88-88c0-36.9-21.6-68.1-55-81.6z"/></svg>