<svg xmlns="http://www.w3.org/2000/svg" viewBox="0 0 576 512"><!--! Font Awesome Pro 6.1.1 by @fontawesome - https://fontawesome.com License - https://fontawesome.com/license (Commercial License) Copyright 2022 Fonticons, Inc.--><path d="M48 96v320c0 8.8 7.16 16 16 16h203.1c7.7 17.5 17.3 33.7 29.1 48H64c-35.35 0-64-28.7-64-64V96c0-35.35 28.65-64 64-64h320c35.3 0 64 28.65 64 64v96.7c-5.3-.5-10.6-.7-16-.7-10.9 0-21.6.1-32 2.9V96c0-8.84-7.2-16-16-16H64c-8.84 0-16 7.16-16 16zm176 16c62.5 0 115.7 39.8 135.6 95.5C298.5 235.1 256 296.6 256 368c0 9.5.8 18.8 2.2 27.9-11 2.7-22.4 4.1-34.2 4.1-79.5 0-144-64.5-144-144s64.5-144 144-144zm0 112c-17.7 0-32 14.3-32 32s14.3 32 32 32 32-14.3 32-32-14.3-32-32-32zm352 144c0 79.5-64.5 144-144 144s-144-64.5-144-144 64.5-144 144-144 144 64.5 144 144zm-111.4 48h-65.2c-21 0-38.9 13.7-45.1 32.7 20.2 19.4 47.5 31.3 77.7 31.3 30.2 0 57.5-11.9 77.7-31.3-6.2-19-24.1-32.7-45.1-32.7zM432 288c-26.5 0-48 21.5-48 48s21.5 48 48 48 48-21.5 48-48-21.5-48-48-48z"/></svg>