<svg xmlns="http://www.w3.org/2000/svg" viewBox="0 0 640 512"><!--! Font Awesome Pro 6.1.1 by @fontawesome - https://fontawesome.com License - https://fontawesome.com/license (Commercial License) Copyright 2022 Fonticons, Inc.--><path d="M456 0c13.3 0 24 10.75 24 24s-10.7 24-24 24H56c-13.25 0-24-10.75-24-24S42.75 0 56 0h400zM6.155 232.3C1.111 194 30.95 160 69.61 160H442.4c23.9 0 44.4 13 55.4 32H496c-26.2 0-51.1 5.7-73.4 16H69.61c-9.67 0-17.13 8.5-15.87 18.1l29.48 224c1.05 7.9 7.83 13.9 15.86 13.9H348.5c12.2 18.8 28 35.1 46.3 48H99.08c-32.12 0-59.26-23.8-63.45-55.7l-29.475-224zM260 232c37.8 0 72.2 9.9 98.4 26.3-24 30.1-38.4 68.2-38.4 109.7 0 20.9 3.6 40.9 10.3 59.5-20.9 8-44.8 12.5-71.2 12.5-80.8 0-148-46.6-148-104s67.2-104 148-104h.9zm-4 136c17.7 0 32-10.7 32-24s-14.3-24-32-24-32 10.7-32 24 14.3 24 32 24zM16 104c0-13.25 10.75-24 24-24h432c13.3 0 24 10.75 24 24 0 13.3-10.7 24-24 24H40c-13.25 0-24-10.7-24-24zm624 264c0 79.5-64.5 144-144 144s-144-64.5-144-144 64.5-144 144-144 144 64.5 144 144zm-111.4 48h-65.2c-21 0-38.9 13.7-45.1 32.7 20.2 19.4 47.5 31.3 77.7 31.3 30.2 0 57.5-11.9 77.7-31.3-6.2-19-24.1-32.7-45.1-32.7zM496 288c-26.5 0-48 21.5-48 48s21.5 48 48 48 48-21.5 48-48-21.5-48-48-48z"/></svg>