<svg xmlns="http://www.w3.org/2000/svg" viewBox="0 0 576 512"><!--! Font Awesome Pro 6.1.1 by @fontawesome - https://fontawesome.com License - https://fontawesome.com/license (Commercial License) Copyright 2022 Fonticons, Inc.--><path d="M48 96v320c0 8.8 7.16 16 16 16h203.1c7.7 17.5 17.3 33.7 29.1 48H64c-35.35 0-64-28.7-64-64V96c0-35.35 28.65-64 64-64h320c35.3 0 64 28.65 64 64v96.7c-5.3-.5-10.6-.7-16-.7-10.9 0-21.6.1-32 2.9V96c0-8.84-7.2-16-16-16H64c-8.84 0-16 7.16-16 16zm176 16c62.5 0 115.7 39.8 135.6 95.5C298.5 235.1 256 296.6 256 368c0 9.5.8 18.8 2.2 27.9-11 2.7-22.4 4.1-34.2 4.1-79.5 0-144-64.5-144-144s64.5-144 144-144zm0 112c-17.7 0-32 14.3-32 32s14.3 32 32 32 32-14.3 32-32-14.3-32-32-32zm64 144c0-79.5 64.5-144 144-144s144 64.5 144 144-64.5 144-144 144-144-64.5-144-144zm160-64.9c0-7.9-7.2-16-16-16s-16 8.1-16 16v48h-48c-8.8 0-16 8.1-16 16 0 9.7 7.2 16 16 16h48v48c0 9.7 7.2 16 16 16s16-6.3 16-16v-48h48c8.8 0 16-6.3 16-16 0-7.9-7.2-16-16-16h-48v-48z"/></svg>