<svg xmlns="http://www.w3.org/2000/svg" viewBox="0 0 576 512"><!--! Font Awesome Pro 6.1.1 by @fontawesome - https://fontawesome.com License - https://fontawesome.com/license (Commercial License) Copyright 2022 Fonticons, Inc.--><path d="M560 128h-16c-8.875 0-16 7.125-16 16v96h-48v-64c0-8.875-7.125-16-16-16h-32V96h32c8.9 0 16-7.12 16-16V48c0-8.88-7.1-16-16-16h-16c-8.875 0-16 7.125-16 15.1V64h-32c-8.9 0-16 7.12-16 16v48H192V80c0-8.88-7.1-16-16-16h-32V48c0-8.875-7.125-15.1-16-15.1l-16-.9c-8.9 0-16 7.12-16 16v32c0 8.88 7.1 16 16 16h32v64h-32c-8.875 0-16 7.125-16 16v64H48v-96c0-8.9-7.12-16-16-16H16c-8.875 0-16 7.125-16 15.1v128c0 8.875 7.125 16 16 16h48v80c0 8.875 7.125 16 16 16h48v80c0 8.875 7.125 16 16 16h96c8.875 0 16-7.125 16-15.1v-16c0-8.875-7.125-15.1-16-15.1h-64v-48h224v48h-64c-8.875 0-16 7.125-16 15.1v16c0 8.875 7.125 15.1 16 15.1h96c8.875 0 16-7.125 16-16v-80h48c8.875 0 16-7.125 16-16v-80h48c8.875 0 16-7.125 16-16v-128c0-8-7.1-15.1-16-15.1zm-96 208H112v-48h32v-80h48v-32h192v32h48v80h32v48zM240 224h-32c-8.9 0-16 7.1-16 16v48c0 8.875 7.125 16 16 16h32c8.9 0 16-7.1 16-16v-48c0-8.9-7.1-16-16-16zm128 0h-32c-8.9 0-16 7.1-16 16v48c0 8.875 7.125 16 16 16h32c8.9 0 16-7.1 16-16v-48c0-8.9-7.1-16-16-16z"/></svg>