<svg xmlns="http://www.w3.org/2000/svg" viewBox="0 0 448 512"><!--! Font Awesome Pro 6.1.1 by @fontawesome - https://fontawesome.com License - https://fontawesome.com/license (Commercial License) Copyright 2022 Fonticons, Inc.--><path d="M424 40c13.3 0 24 10.75 24 24s-10.7 24-24 24H184c-13.3 0-24-10.75-24-24s10.7-24 24-24h240zm0 128c13.3 0 24 10.7 24 24s-10.7 24-24 24H24c-13.25 0-24-10.7-24-24s10.75-24 24-24h400zm0 176H184c-13.3 0-24-10.7-24-24s10.7-24 24-24h240c13.3 0 24 10.7 24 24s-10.7 24-24 24zm0 80c13.3 0 24 10.7 24 24s-10.7 24-24 24H24c-13.25 0-24-10.7-24-24s10.75-24 24-24h400z"/></svg>