<svg xmlns="http://www.w3.org/2000/svg" viewBox="0 0 640 512"><!--! Font Awesome Pro 6.1.1 by @fontawesome - https://fontawesome.com License - https://fontawesome.com/license (Commercial License) Copyright 2022 Fonticons, Inc.--><path d="M99.03 52.32C103.1 44.97 110.1 40 119.1 40H520c13.3 0 24 10.75 24 24s-10.7 24-24 24H144.6l102 80H520c13.3 0 24 10.7 24 24s-10.7 24-24 24H307.9l102 80H520c13.3 0 24 10.7 24 24s-10.7 24-24 24h-48.8l159.6 125.1c10.4 8.2 12.3 23.3 4.1 33.7-8.2 10.4-23.3 12.3-33.7 4.1L9.196 42.89C-1.236 34.71-3.065 19.63 5.112 9.196 13.29-1.236 28.37-3.065 38.81 5.112L99.03 52.32zM119.1 215.1c-12.4 0-24-9.8-24-24 0-6 3.11-10.6 6.8-14.8l50.4 38.8h-33.2zm0 128.9c-12.4 0-24-10.7-24-24.9 0-12.4 11.6-24 24-24h134.7l61 48.9H119.1zm0 80h297.2l60.9 48H119.1c-12.4 0-24-10.7-24-24s11.6-24 24-24z"/></svg>