<svg xmlns="http://www.w3.org/2000/svg" viewBox="0 0 512 512"><!--! Font Awesome Pro 6.1.1 by @fontawesome - https://fontawesome.com License - https://fontawesome.com/license (Commercial License) Copyright 2022 Fonticons, Inc.--><path d="M384 336c8.875 0 16-7.125 16-16s-7.1-16-16-16-16 7.125-16 16 7.1 16 16 16zm-64 0c8.875 0 16-7.125 16-16s-7.1-16-16-16-16 7.125-16 16 7.1 16 16 16zm96 48c8.875 0 16-7.125 16-16s-7.1-16-16-16-16 7.125-16 16 7.1 16 16 16zm-64 0c8.875 0 16-7.125 16-16s-7.1-16-16-16-16 7.125-16 16 7.1 16 16 16zm-224 16c-8.875 0-16 7.125-16 16s7.125 16 16 16 16-7.125 16-16-7.1-16-16-16zm64 0c-8.875 0-16 7.125-16 16s7.125 16 16 16 16-7.125 16-16-7.1-16-16-16zm96-16c8.875 0 16-7.125 16-16s-7.1-16-16-16-16 7.125-16 16 7.1 16 16 16zm96 16c-8.875 0-16 7.125-16 16s7.125 16 16 16 16-7.125 16-16-7.1-16-16-16zm-64 0c-8.875 0-16 7.125-16 16s7.125 16 16 16 16-7.125 16-16-7.1-16-16-16zm-64 0c-8.875 0-16 7.125-16 16s7.125 16 16 16 16-7.125 16-16-7.1-16-16-16zm0-64c8.875 0 16-7.125 16-16s-7.1-16-16-16-16 7.1-16 16 7.1 16 16 16zm-64-184c-13.25 0-24 10.75-24 24s10.8 24 24 24 24-10.7 24-24-10.7-24-24-24zm-80 0c-13.25 0-24 10.75-24 24s10.75 24 24 24 24-10.7 24-24-10.7-24-24-24zm336-72h-45.5C377.8 52.75 321.5 0 256 0S134.3 52.75 109.5 80H64c-35.35 0-64 28.65-64 64v304c0 35.35 28.65 64 64 64h384c35.35 0 64-28.65 64-64V144c0-35.3-28.7-64-64-64zM256 48c26.88 0 53.1 14.75 76.25 32h-152.5C201.1 62.75 229.1 48 256 48zm208 400c0 8.836-7.164 16-16 16H64c-8.836 0-16-7.164-16-16V272h416v176zm0-224H48v-80c0-8.8 7.16-16 16-16h384c8.836 0 16 7.162 16 16v80zM96 384c8.875 0 16-7.125 16-16s-7.1-16-16-16-16 7.125-16 16 7.13 16 16 16zm96-48c8.875 0 16-7.125 16-16s-7.1-16-16-16-16 7.1-16 16 7.1 16 16 16zm32 48c8.875 0 16-7.125 16-16s-7.1-16-16-16-16 7.125-16 16 7.1 16 16 16zm-96-48c8.875 0 16-7.125 16-16s-7.1-16-16-16-16 7.1-16 16 7.1 16 16 16zm32 48c8.875 0 16-7.125 16-16s-7.1-16-16-16-16 7.125-16 16 7.1 16 16 16zm160-232c-13.25 0-24 10.75-24 24s10.8 24 24 24 24-10.75 24-24-10.7-24-24-24zm80 0c-13.25 0-24 10.75-24 24s10.75 24 24 24 24-10.75 24-24-10.7-24-24-24z"/></svg>