<svg xmlns="http://www.w3.org/2000/svg" viewBox="0 0 384 512"><!--! Font Awesome Pro 6.1.1 by @fontawesome - https://fontawesome.com License - https://fontawesome.com/license (Commercial License) Copyright 2022 Fonticons, Inc.--><path d="M360 480c-6.25 0-12.5-2.422-17.19-7.266l-60.47-62.14-14.69 22.48c-19.19 29.38-51.44 46.93-86.56 46.93L103.7 480C46.55 480 0 433.5 0 376.4c0-32.88 15.81-64.11 42.34-83.56l73.19-53.67-36.31-37.37C59.09 181.2 48 153.9 48 125c0-51.27 41.72-93 93-93h53.94C246.3 32 288 73.73 288 125c0 29.55-14.22 57.59-38.03 75.03L188.4 245.2l86.56 88.98 64.94-99.33c7.281-11.06 22.19-14.19 33.22-6.953 11.09 7.266 14.22 22.14 6.969 33.23l-70.84 108.3 67.94 69.83c9.25 9.5 9.062 24.69-.438 33.94A24.156 24.156 0 0 1 360 480zM149.3 273.9l-78.58 57.6C56.5 341.9 48 358.7 48 376.4 48 407 72.97 432 103.7 432h77.25c18.88 0 36.28-9.406 46.56-25.19l20.59-31.47-98.8-101.44zM141 80c-24.8 0-45 20.2-45 45 0 16.28 6.25 31.66 17.59 43.3l41 42.14 67-49.13C233.1 152.9 240 139.3 240 125c0-24.8-20.2-45-45.9-45H141z"/></svg>