<svg xmlns="http://www.w3.org/2000/svg" viewBox="0 0 640 512"><!--! Font Awesome Pro 6.1.1 by @fontawesome - https://fontawesome.com License - https://fontawesome.com/license (Commercial License) Copyright 2022 Fonticons, Inc.--><path d="M368 80c0 35.9-23.7 66.3-56.3 76.4.2 1.2.3 2.4.3 3.6v32h48c13.3 0 24 10.7 24 24s-10.7 24-24 24h-48v224h24c4.1 0 8.1-.2 12.1-.5 10.3 15.8 23 29.9 37.6 41.7-15.8 4.4-32.5 6.8-49.7 6.8h-96c-100.2 0-181.75-80.2-183.95-179.9l-16.43 14.1c-10.06 8.6-25.22 7.5-33.842-2.6-8.626-10-7.46-25.2 2.604-33.8l55.998-48c8.99-7.7 22.25-7.7 31.24 0l55.98 48c10.1 8.6 11.2 23.8 2.6 33.8-8.6 10.1-23.8 11.2-33.8 2.6l-16.3-14C106.3 405.4 166.3 464 240 464h24V240h-48c-13.3 0-24-10.7-24-24s10.7-24 24-24h48v-32c0-1.2.1-2.4.3-3.6C231.7 146.3 208 115.9 208 80c0-44.18 35.8-80 80-80s80 35.82 80 80zm-80 32c17.7 0 32-14.33 32-32s-14.3-32-32-32-32 14.33-32 32 14.3 32 32 32zm352 256c0 79.5-64.5 144-144 144s-144-64.5-144-144 64.5-144 144-144 144 64.5 144 144zm-99.3-43.3L480 385.4l-28.7-28.7c-6.2-6.3-16.4-6.3-22.6 0-6.3 6.2-6.3 16.4 0 22.6l40 40c6.2 6.3 16.4 6.3 22.6 0l72-72c6.3-6.2 6.3-16.4 0-22.6-6.2-6.3-16.4-6.3-22.6 0z"/></svg>