<svg xmlns="http://www.w3.org/2000/svg" viewBox="0 0 640 512"><!--! Font Awesome Pro 6.1.1 by @fontawesome - https://fontawesome.com License - https://fontawesome.com/license (Commercial License) Copyright 2022 Fonticons, Inc.--><path d="M368 80c0 35.9-23.7 66.3-56.3 76.4.2 1.2.3 2.4.3 3.6v32h48c13.3 0 24 10.7 24 24s-10.7 24-24 24h-48v224h24c16.9 0 33.1-3.1 48-8.7V480c0 8.6 1.7 16.8 4.8 24.3-16.7 5-34.5 7.7-52.8 7.7h-96c-100.2 0-181.75-80.2-183.95-179.9l-16.43 14.1c-10.06 8.6-25.22 7.5-33.842-2.6-8.626-10-7.46-25.2 2.604-33.8l55.998-48c8.99-7.7 22.25-7.7 31.24 0l55.98 48c10.1 8.6 11.2 23.8 2.6 33.8-8.6 10.1-23.8 11.2-33.8 2.6l-16.3-14C106.3 405.4 166.3 464 240 464h24V240h-48c-13.3 0-24-10.7-24-24s10.7-24 24-24h48v-32c0-1.2.1-2.4.3-3.6C231.7 146.3 208 115.9 208 80c0-44.18 35.8-80 80-80s80 35.82 80 80zm-80 32c17.7 0 32-14.33 32-32s-14.3-32-32-32-32 14.33-32 32 14.3 32 32 32zm240 80c44.2 0 80 35.8 80 80v48c17.7 0 32 14.3 32 32v128c0 17.7-14.3 32-32 32H448c-17.7 0-32-14.3-32-32V352c0-17.7 14.3-32 32-32v-48c0-44.2 35.8-80 80-80zm0 48c-17.7 0-32 14.3-32 32v48h64v-48c0-17.7-14.3-32-32-32z"/></svg>