<svg xmlns="http://www.w3.org/2000/svg" viewBox="0 0 640 512"><!--! Font Awesome Pro 6.1.1 by @fontawesome - https://fontawesome.com License - https://fontawesome.com/license (Commercial License) Copyright 2022 Fonticons, Inc.--><path d="m603.7 453.1-38.16-78.63c-6.625-13.5-6.625-29.62 0-43.13 16.25-33.37 26.37-37.59 26.37-75.34 0-51.13-46.87-96-100.4-96-25.12 0-48.84 10-66.34 28.12L352.6 261.5c-10.25-3.375-21.33-5.453-32.58-5.453s-22.18 2.042-32.43 5.417L214.1 188.3c-17.62-18-41.31-28.19-66.44-28.19-53.5 0-100.3 45.06-100.3 96.19 0 37.88 10.12 42 26.37 75.25 6.625 13.5 6.625 29.62 0 43.13l-38.34 78.5C21.79 482.9 45.57 512 72.57 512h494.1c28.53 0 51.03-29.9 37.03-58.9zM84.32 464l33.37-68.63c12.1-26.62 12.1-58.5 0-85.13-5.375-11.12-9.875-18.87-13.5-25-7.12-12.44-8.06-14.04-8.06-29.24 0-24.75 25.5-48 52.37-48 12.12 0 23.56 4.938 32.19 13.81l65.11 65.69c-7.2 7.5-13.7 16.1-18.4 25.7L152.1 464H84.32zm121.48 0 64.62-129.2c9.48-19 28.48-30.8 49.68-30.8 21.12 0 40.12 11.75 49.62 30.75L434.3 464H205.8zm282.1 0-75.3-150.8c-4.9-9.7-11.1-18.2-18.4-25.7l65.19-65.75C468.1 212.8 479.4 208 491.6 208c26.1 0 52.37 23.25 52.37 48 0 15.25-.875 16.75-8.125 29.25-3.5 6.125-7.1 13.88-13.5 25-12.87 26.63-12.87 58.5 0 85.13L555.7 464h-67.8zM240 144c0 44.25 35.75 80 79.1 80s79.1-35.75 79.1-80-34-80-78.2-80-80 35.75-80 80zm112 0c0 17.62-14.37 32-31.1 32s-31.1-14.38-31.1-32 14.37-32 31.1-32 31.1 14.4 31.1 32zm-143.2-6.8c.875-13 3.872-25.23 8.872-36.61C206.6 94.64 200.1 87.62 200.1 80c0-22.12 53.62-40 119.1-40 66.25 0 119.1 17.88 119.1 40 0 7.625-6.75 14.64-17.63 20.64 4.875 11.38 8 23.61 8.75 36.61C461 122.8 479.1 102.5 479.1 80c0-44.25-71.63-80-159.1-80S160 35.75 160 80c0 22.5 18.8 42.8 48.8 57.2z"/></svg>