<svg xmlns="http://www.w3.org/2000/svg" viewBox="0 0 384 512"><!--! Font Awesome Pro 6.1.1 by @fontawesome - https://fontawesome.com License - https://fontawesome.com/license (Commercial License) Copyright 2022 Fonticons, Inc.--><path d="M55.1 241.9 192 120.2l136 121.6a23.88 23.88 0 0 0 16 6.125c6.594 0 13.16-2.687 17.88-7.1 8.844-9.874 8-25.06-1.875-33.87L208 70.14a23.916 23.916 0 0 0-32 0L23.99 206.1c-9.87 8.8-10.71 24-1.87 33.9 8.81 9.9 24.03 10.7 32.98 1.9zM208 262.1a23.916 23.916 0 0 0-32 0L24 397.2c-9.875 8.812-10.72 23.1-1.875 33.87 8.813 9.906 24.03 10.72 33.88 1.875L192 312.2l136 121.6a23.88 23.88 0 0 0 16 6.125c6.594 0 13.16-2.687 17.88-7.1 8.844-9.874 8-25.06-1.875-33.87L208 262.1z"/></svg>