<svg xmlns="http://www.w3.org/2000/svg" viewBox="0 0 448 512"><!--! Font Awesome Pro 6.1.1 by @fontawesome - https://fontawesome.com License - https://fontawesome.com/license (Commercial License) Copyright 2022 Fonticons, Inc.--><path d="M213.9 388 92.23 252l121.6-136a23.88 23.88 0 0 0 6.125-16c0-6.594-2.687-13.16-7.1-17.88-10.755-8.84-25.955-8-34.755 1.87L42.14 235.1a23.916 23.916 0 0 0 0 32l135.1 152c8.812 9.875 23.1 10.72 33.87 1.875C221.9 413.1 222.7 397.8 213.9 388zm20.2-152.9a23.916 23.916 0 0 0 0 32l135.1 152c8.812 9.875 23.1 10.72 33.87 1.875 9.906-8.813 10.72-24.03 1.875-33.88L284.2 252l121.6-136a23.88 23.88 0 0 0 6.125-16c0-6.594-2.687-13.16-7.1-17.88-9.874-8.844-25.06-8-33.87 1.875L234.1 235.1z"/></svg>