<svg xmlns="http://www.w3.org/2000/svg" viewBox="0 0 384 512"><!--! Font Awesome Pro 6.1.1 by @fontawesome - https://fontawesome.com License - https://fontawesome.com/license (Commercial License) Copyright 2022 Fonticons, Inc.--><path d="M328 270.1 192 391.8 55.1 270.1a23.88 23.88 0 0 0-16-6.125c-6.594 0-13.16 2.687-17.88 7.1-7.94 10.825-7.1 26.025 2.77 34.825l152 135.1a23.916 23.916 0 0 0 32 0l152-135.1c9.875-8.812 10.72-23.1 1.875-33.87C353.1 262.1 337.8 261.3 328 270.1zm-152.9-20.2a23.916 23.916 0 0 0 32 0l152-135.1c9.875-8.812 10.72-23.1 1.875-33.87-8.813-9.906-24.03-10.72-33.88-1.875L192 199.8 55.1 78.13a23.88 23.88 0 0 0-16-6.125c-6.594 0-13.16 2.687-17.88 7.1-7.94 10.775-7.1 25.995 2.77 34.795l151.11 136z"/></svg>