<svg xmlns="http://www.w3.org/2000/svg" viewBox="0 0 448 512"><!--! Font Awesome Pro 6.1.1 by @fontawesome - https://fontawesome.com License - https://fontawesome.com/license (Commercial License) Copyright 2022 Fonticons, Inc.--><path d="M238.1 115.1 359.8 252 238.2 388a23.88 23.88 0 0 0-6.125 16c0 6.594 2.687 13.16 7.1 17.88 9.874 8.844 25.06 8 33.87-1.875l135.1-152a23.916 23.916 0 0 0 0-32l-135.1-152c-8.812-9.875-23.1-10.72-33.87-1.875-9.075 8.8-9.875 24.07-1.075 32.97zM217.9 268a23.916 23.916 0 0 0 0-32L81.88 83.99c-8.81-9.87-24-10.71-33.88-1.87-9.9 8.81-10.71 24.08-1.87 32.98L167.8 252 46.2 388a23.88 23.88 0 0 0-6.125 16c0 6.594 2.687 13.16 7.1 17.88 9.874 8.844 25.06 8 33.87-1.875L217.9 268z"/></svg>