<svg xmlns="http://www.w3.org/2000/svg" viewBox="0 0 448 512"><!--! Font Awesome Pro 6.1.1 by @fontawesome - https://fontawesome.com License - https://fontawesome.com/license (Commercial License) Copyright 2022 Fonticons, Inc.--><path d="M315.5 400h48.89c-6.318-43.29-20.84-83.96-42.02-120.3l-41.1 24.66C298.1 333.4 309.6 365.7 315.5 400zm-51.9-122.4 41.31-24.79a338.43 338.43 0 0 0-77.72-77.72L202.4 216.4c23.4 17.2 44 37.8 61.2 61.2zM424 432H48V56c0-13.25-10.75-24-24-24S0 42.75 0 56v400c0 13.3 10.75 24 24 24h400c13.25 0 24-10.75 24-24s-10.7-24-24-24zM200.3 157.7c-37.2-21.2-77-36.6-120.3-42v48.89c34.26 5.869 66.62 17.41 95.68 34.23l24.62-41.12z"/></svg>