<svg xmlns="http://www.w3.org/2000/svg" viewBox="0 0 576 512"><!--! Font Awesome Pro 6.1.1 by @fontawesome - https://fontawesome.com License - https://fontawesome.com/license (Commercial License) Copyright 2022 Fonticons, Inc.--><path d="M320 336c-8.8 0-16-7.2-16-16v-32c0-8.8 7.2-16 16-16h32c8.8 0 16 7.2 16 16v32c0 8.8-7.2 16-16 16h-32zm176 80c0 8.8-7.2 16-16 16h-32c-8.8 0-16-7.2-16-16v-32c0-8.8 7.2-16 16-16h32c8.8 0 16 7.2 16 16v32zM96 336c-8.84 0-16-7.2-16-16v-32c0-8.8 7.16-16 16-16h32c8.8 0 16 7.2 16 16v32c0 8.8-7.2 16-16 16H96zm48 80c0 8.8-7.2 16-16 16H96c-8.84 0-16-7.2-16-16v-32c0-8.8 7.16-16 16-16h32c8.8 0 16 7.2 16 16v32zm80-80c-8.8 0-16-7.2-16-16v-32c0-8.8 7.2-16 16-16h32c8.8 0 16 7.2 16 16v32c0 8.8-7.2 16-16 16h-32zm144-208c0 8.8-7.2 16-16 16h-32c-8.8 0-16-7.2-16-16V96c0-8.84 7.2-16 16-16h32c8.8 0 16 7.16 16 16v32zM256 80c8.8 0 16 7.16 16 16v32c0 8.8-7.2 16-16 16h-32c-8.8 0-16-7.2-16-16V96c0-8.84 7.2-16 16-16h32zm112 144c0 8.8-7.2 16-16 16h-32c-8.8 0-16-7.2-16-16v-32c0-8.8 7.2-16 16-16h32c8.8 0 16 7.2 16 16v32zm80 112c-8.8 0-16-7.2-16-16v-32c0-8.8 7.2-16 16-16h32c8.8 0 16 7.2 16 16v32c0 8.8-7.2 16-16 16h-32zM144 224c0 8.8-7.2 16-16 16H96c-8.84 0-16-7.2-16-16v-32c0-8.8 7.16-16 16-16h32c8.8 0 16 7.2 16 16v32zm80 16c-8.8 0-16-7.2-16-16v-32c0-8.8 7.2-16 16-16h32c8.8 0 16 7.2 16 16v32c0 8.8-7.2 16-16 16h-32zM64 512c-35.35 0-64-28.7-64-64V160c0-35.3 28.65-64 64-64h64V64c0-35.35 28.7-64 64-64h192c35.3 0 64 28.65 64 64v128h64c35.3 0 64 28.7 64 64v192c0 35.3-28.7 64-64 64H64zm112-368H64c-8.84 0-16 7.2-16 16v288c0 8.8 7.16 16 16 16h192v-48c0-17.7 14.3-32 32-32s32 14.3 32 32v48h192c8.8 0 16-7.2 16-16V256c0-8.8-7.2-16-16-16H400V64c0-8.84-7.2-16-16-16H192c-8.8 0-16 7.16-16 16v80z"/></svg>