<svg xmlns="http://www.w3.org/2000/svg" viewBox="0 0 512 512"><!--! Font Awesome Pro 6.1.1 by @fontawesome - https://fontawesome.com License - https://fontawesome.com/license (Commercial License) Copyright 2022 Fonticons, Inc.--><path d="M256 0C114.6 0 0 114.6 0 256s114.6 256 256 256 256-114.6 256-256S397.4 0 256 0zm179.9 152H251.4l56.16-97.27C362.2 68.74 408.2 104.3 435.9 152zM320.7 256l-32.33 56H223.7l-32.4-56 32.33-56h64.67l32.4 56zM256 48l-92.4 160-56.2-97.3C145.2 72.07 197.8 48 256 48zM76 152.2 168.2 312H55.88C50.87 294.2 48 275.4 48 256c0-37.8 10.3-73.2 28-103.8zm.14 207.8h184.5l-56.16 97.27C149.8 443.3 103.8 407.7 76.14 360zM256 464l92.38-160 56.19 97.31C366.8 439.9 314.2 464 256 464zm179.1-104.2L343.8 200h112.4c4.9 17.8 7.8 36.6 7.8 56 0 37.8-10.3 73.2-28.9 103.8z"/></svg>