<svg xmlns="http://www.w3.org/2000/svg" viewBox="0 0 384 512"><!--! Font Awesome Pro 6.1.1 by @fontawesome - https://fontawesome.com License - https://fontawesome.com/license (Commercial License) Copyright 2022 Fonticons, Inc.--><path d="M190.4 112c18.75 0 52.13-3.25 73.26-24.38 30.51-30.62 23.75-87 23.75-87S281.9 0 273.6 0c-18.75 0-52.13 3.25-73.26 24.38-30.5 30.62-23.75 87-23.75 87s4.51.62 13.81.62zm96.7 192c0-60.89 30.92-114.5 77.93-146.1-15.96-14.96-35-24.79-56.29-28.48-5.32-.926-11.05-1.348-17.04-1.348-32.9 0-73.95 12.73-100.6 25.1C165.3 140.8 124.4 128 91.43 128c-6.008-.002-11.74.422-17.09 1.348-21.3 3.684-40.29 13.53-56.27 28.49C65.06 189.5 95.1 243.1 95.1 304c0 60.87-30.92 114.5-77.88 146.1C45.24 486.5 83.68 512 135.2 512c13.38 0 27.63-4 42.26-12a30.457 30.457 0 0 1 14.5-3.656c4.1 0 10 1.219 14.5 3.656 14.63 8 28.88 12 42.26 12 51.55 0 89.99-25.46 117.1-61.89C318.9 418.5 287.1 364.9 287.1 304zm-38.4 160c-3.67 0-9.984-1.061-19.39-6.207-11.41-6.182-24.33-9.449-37.36-9.449S166 451.6 154.5 457.9c-9.3 5-15.6 6.1-19.3 6.1-17.2 0-32.66-4.131-46.63-12.53C123.9 411.1 143.1 358.1 143.1 304c0-46.13-14.13-90.28-39.55-127.1 22.71 2.703 49.5 11.51 67.34 19.8l20.21 9.383 20.21-9.383c17.84-8.281 44.62-17.09 67.34-19.8-24.55 36.8-39.55 81-39.55 127.1 0 54.96 20.06 107.1 55.39 147.5-13.09 8.4-28.59 12.5-45.79 12.5z"/></svg>