<svg xmlns="http://www.w3.org/2000/svg" viewBox="0 0 448 512"><!--! Font Awesome Pro 6.1.1 by @fontawesome - https://fontawesome.com License - https://fontawesome.com/license (Commercial License) Copyright 2022 Fonticons, Inc.--><path d="M415.3 177.6c-18.5-26.5-44.01-43.12-73.64-48.25-34.51-6-86.14 9.125-117.6 23.75-31.56-14.6-83.96-29.7-117.66-23.7-29.67 5.1-55.05 21.7-73.68 48.2C4.841 217.5-6.536 280.1 3.716 337.1 18.97 421.8 69.98 512 167.2 512c13.38 0 27.63-4 42.26-12 9.001-4.875 20-4.875 29 0 14.64 8 28.94 12 42.34 12 97.27 0 148.3-90.25 163.5-174.9 10.2-57-1.1-119.6-29-159.5zm-18.3 151C393 351.2 368.3 464 280.8 464c-5.251 0-11.88-2.125-19.25-6.125-11.63-6.25-24.5-9.5-37.51-9.5s-25.88 3.25-37.51 9.5C179.1 461.9 172.5 464 167.2 464 79.69 464 54.9 351.2 50.9 328.6c-7.93-44.4.57-94 21.2-123.5 11.13-16 25.38-25.5 42.38-28.5 12.63-2.125 53.88 0 109.5 30.75 55.63-30.75 97.02-32.88 109.5-30.75 17 3 31.25 12.5 42.38 28.5C396.5 234.6 405 284.2 397 328.6zM222.4 112c18.75 0 52.13-3.25 73.26-24.38 30.5-30.62 23.75-86.1 23.75-86.1S313.9 0 305.6 0c-18.75 0-52.13 3.25-73.26 24.38-30.5 30.62-23.75 87-23.75 87s4.51.62 13.81.62z"/></svg>