<svg xmlns="http://www.w3.org/2000/svg" viewBox="0 0 512 512"><!--! Font Awesome Pro 6.1.1 by @fontawesome - https://fontawesome.com License - https://fontawesome.com/license (Commercial License) Copyright 2022 Fonticons, Inc.--><path d="M477.5 189.1 406.4 45c-8.123-16.32-34.81-16.32-42.94 0l-71.1 144.1c-5.938 11.86-1.125 26.27 10.75 32.21a23.924 23.924 0 0 0 32.19-10.76l5.359-10.73h90.34l5.359 10.73c4.219 8.441 12.69 13.29 21.5 13.29 3.594 0 7.25-.813 10.69-2.535C478.6 215.3 483.4 200.9 477.5 189.1zm-114.7-37.3 21.17-42.38 21.17 42.38H362.8zm76.3 279.3h-62l81.87-105.3c5.625-7.258 6.656-17.08 2.625-25.3a24.004 24.004 0 0 0-21.56-13.48h-111.1c-13.25 0-23.1 10.76-23.1 24.02s10.75 24.02 23.1 24.02h62.94L309.1 441.2c-5.623 7.258-6.654 17.08-2.625 25.3C310.5 474.8 318.8 480 327.1 480h111.1c13.25 0 23.1-10.76 23.1-24.02s-8.1-24.88-22.2-24.88zM145.6 39.37c-9.062-9.82-26.19-9.82-35.25 0L14.38 143.4c-9 9.758-8.406 24.96 1.344 33.94C20.35 181.7 26.19 183.8 32 183.8c6.469 0 12.91-2.594 17.62-7.719L104 117.1V456c0 13.2 10.8 24 24 24s24-10.8 24-24.9v-338l54.37 58.95c8.93 9.75 24.13 10.45 33.93 1.35 9.7-9 10.3-24.2 1.3-34l-96-104.03z"/></svg>