<svg xmlns="http://www.w3.org/2000/svg" viewBox="0 0 576 512"><!--! Font Awesome Pro 6.1.1 by @fontawesome - https://fontawesome.com License - https://fontawesome.com/license (Commercial License) Copyright 2022 Fonticons, Inc.--><path d="M352 120c0-13.3 10.7-24 24-24h176c13.3 0 24 10.7 24 24v176c0 13.3-10.7 24-24 24s-24-10.7-24-24V177.9L336.1 368.1c-8.5 10.2-23.7 10.2-33.1 0L192 257.9 40.97 408.1c-9.37 10.2-24.57 10.2-33.941 0-9.372-8.5-9.372-23.7 0-33.1L175 207c9.4-9.3 24.6-9.3 33.1 0L320 318.1 494.1 144H376c-13.3 0-24-10.7-24-24z"/></svg>