<svg xmlns="http://www.w3.org/2000/svg" viewBox="0 0 640 512"><!--! Font Awesome Pro 6.1.1 by @fontawesome - https://fontawesome.com License - https://fontawesome.com/license (Commercial License) Copyright 2022 Fonticons, Inc.--><path d="m111 504.1-95.97-96c-9.373-8.5-9.373-23.7 0-33.1 9.37-9.3 24.57-9.3 33.94 0L104 430.1V280H24c-13.25 0-24-10.7-24-24s10.75-24 24-24h272V81.94l-55.9 54.16c-8.5 10.2-23.7 10.2-33.1 0-9.3-8.5-9.3-23.7 0-33.1l96-95.971A24.01 24.01 0 0 1 320 0c6.4 0 12.5 2.529 16.1 7.029l96 95.971c10.2 9.4 10.2 24.6 0 33.1-8.5 10.2-23.7 10.2-33.1 0l-55-54.16V232h79.4c-4.8 12.4-7.4 25.9-7.4 40v8H152v150.1l55-55.1c9.4-9.3 24.6-9.3 33.1 0 10.2 9.4 10.2 24.6 0 33.1l-96 96c-8.5 10.2-23.7 10.2-33.1 0zM104 192V56c0-13.25 10.7-24 24-24s24 10.75 24 24v136h-48zm240 128v136c0 13.3-10.7 24-24 24s-24-10.7-24-24V320h48zm184-128c44.2 0 80 35.8 80 80v48c17.7 0 32 14.3 32 32v128c0 17.7-14.3 32-32 32H448c-17.7 0-32-14.3-32-32V352c0-17.7 14.3-32 32-32v-48c0-44.2 35.8-80 80-80zm0 48c-17.7 0-32 14.3-32 32v48h64v-48c0-17.7-14.3-32-32-32z"/></svg>