<svg xmlns="http://www.w3.org/2000/svg" viewBox="0 0 448 512"><!--! Font Awesome Pro 6.1.1 by @fontawesome - https://fontawesome.com License - https://fontawesome.com/license (Commercial License) Copyright 2022 Fonticons, Inc.--><path d="M48.03 424V88c0-13.25-10.76-24-24.02-24S0 74.75 0 88v336c0 13.25 10.76 24 24.02 24s24.01-10.7 24.01-24zM271.7 145.5l92 86.5H120.1c-13.3 0-24.07 10.8-24.07 24s10.77 24 24.07 24h243.6l-91.98 86.53c-5.02 4.77-7.52 11.07-7.52 17.47 0 5.906 2.158 11.81 6.536 16.44 9.069 9.656 24.27 10.12 33.93 1.031l136.1-128c9.694-9.062 9.694-25.88 0-34.94l-136.1-128c-9.663-9.094-24.86-8.625-33.93 1.031C261.6 121.2 262 136.4 271.7 145.5z"/></svg>