<svg xmlns="http://www.w3.org/2000/svg" viewBox="0 0 640 512"><!--! Font Awesome Pro 6.1.1 by @fontawesome - https://fontawesome.com License - https://fontawesome.com/license (Commercial License) Copyright 2022 Fonticons, Inc.--><path d="M24 64c13.25 0 24 10.75 24 24v336c0 13.3-10.75 24-24 24S0 437.3 0 424V88c0-13.25 10.75-24 24-24zm216.1 71c10.2 9.4 10.2 24.6 0 33.1L177.9 232h284.2L399 168.1c-9.3-8.5-9.3-23.7 0-33.1 9.4-9.3 24.6-9.3 33.1 0l104 104c10.2 9.4 10.2 24.6 0 33.1l-104 104c-8.5 10.2-23.7 10.2-33.1 0-9.3-8.5-9.3-23.7 0-33.1l63.1-63H177.9l62.2 63c10.2 9.4 10.2 24.6 0 33.1-8.5 10.2-23.7 10.2-33.1 0l-104-104c-9.34-8.5-9.34-23.7 0-33.1l104-104c9.4-9.3 24.6-9.3 33.1 0zM640 424c0 13.3-10.7 24-24 24s-24-10.7-24-24V88c0-13.25 10.7-24 24-24s24 10.75 24 24v336z"/></svg>