<svg xmlns="http://www.w3.org/2000/svg" viewBox="0 0 448 512"><!--! Font Awesome Pro 6.1.1 by @fontawesome - https://fontawesome.com License - https://fontawesome.com/license (Commercial License) Copyright 2022 Fonticons, Inc.--><path d="M224 95.1c17.67 0 32-14.33 32-32s-14.33-32-32-32-32 14.33-32 32 14.3 32 32 32zm192 0c17.67 0 32-14.33 32-32s-14.33-32-32-32-32 14.33-32 32 14.3 32 32 32zm-96 0c17.67 0 32-14.33 32-32s-14.33-32-32-32-32 14.33-32 32 14.3 32 32 32zm-192 0c17.67 0 32-14.33 32-32s-14.33-32-32-32-32 14.33-32 32 14.3 32 32 32zm-96 0c17.67 0 32-14.33 32-32s-14.33-32-32-32-32 14.33-32 32 14.33 32 32 32zm209.5 56.2c-9.062-9.699-25.88-9.699-34.94 0l-128 136.2c-9.094 9.672-8.625 24.88 1.031 33.96 9.625 9.109 24.81 8.672 33.91-1.031L200 228.4V440c0 13.2 10.8 24 24 24s24-10.77 24-24.04v-211.6l86.53 92.05c4.77 4.99 11.07 6.69 17.47 6.69 5.906 0 11.81-2.16 16.44-6.543 9.656-9.074 10.12-24.29 1.031-33.96L241.5 151.3z"/></svg>