<svg xmlns="http://www.w3.org/2000/svg" viewBox="0 0 512 512"><!--! Font Awesome Pro 6.1.1 by @fontawesome - https://fontawesome.com License - https://fontawesome.com/license (Commercial License) Copyright 2022 Fonticons, Inc.--><path d="M464 256c0-114.9-93.1-208-208.9-208-12.4 0-24-10.75-24-24s11.6-24 24-24C397.4 0 512 114.6 512 256S397.4 512 255.1 512c-12.4 0-24-10.7-24-24s11.6-24 24-24C370.9 464 464 370.9 464 256zm-119.7-17.6c4.9 3.7 7.7 10.9 7.7 17.6 0 6.7-2.8 13-7.7 17.6l-112 104c-9.7 9-24.9 8.4-33.9-1.3-9-9.7-9.3-24.9 1.3-33.9l67.2-63.3H24c-13.25 0-24-9.8-24-24 0-12.4 10.75-24 24-24h242.9l-67.2-61.5c-10.6-9-10.3-24.2-1.3-33.9 9-10.6 24.2-10.3 33.9-1.3l112 104z"/></svg>