<svg xmlns="http://www.w3.org/2000/svg" viewBox="0 0 512 512"><!--! Font Awesome Pro 6.1.1 by @fontawesome - https://fontawesome.com License - https://fontawesome.com/license (Commercial License) Copyright 2022 Fonticons, Inc.--><path d="M512 128v256c0 53.02-42.98 96-96 96h-72c-13.3 0-24-10.7-24-24 0-13.26 10.75-24 24-24h72c26.4 0 48-21.6 48-48V128c0-26.4-21.6-48-48-48h-72c-13.3 0-24-10.75-24-24 0-13.26 10.7-24 24-24h72c53 0 96 42.98 96 96zM345.5 239.6l-128-136c-9.1-9.72-24.3-10.16-33.9-1.1-9.7 9.1-10.2 24.3-1.1 33.9l89.9 95.6H24c-13.25 0-24 10.8-24 24s10.75 24 24 24h248.4l-89.92 95.56c-9.094 9.656-8.625 24.84 1.031 33.91C188.2 413.8 194.1 416 200 416c6.375 0 12.75-2.531 17.47-7.562l128-136c8.73-9.238 8.73-23.638.03-32.838z"/></svg>