<svg xmlns="http://www.w3.org/2000/svg" viewBox="0 0 576 512"><!--! Font Awesome Pro 6.1.1 by @fontawesome - https://fontawesome.com License - https://fontawesome.com/license (Commercial License) Copyright 2022 Fonticons, Inc.--><path d="M360 432h-48c-13.25 0-24 10.75-24 24s10.8 24 24 24h48c13.25 0 23.1-10.75 23.1-24s-9.9-24-23.1-24zm63.1-128H312c-13.2 0-24 10.8-24 24s10.8 24 24 24h111.1c13.25 0 24-10.75 24-24s-9.9-24-24-24zm64-128H312c-13.2 0-24 10.8-24 24s10.8 24 24 24h175.1c13.25 0 24-10.75 24-24s-9.9-24-24-24zm64-128H312c-13.2 0-24 10.75-24 24s10.8 24 24 24h239.1c13.25 0 24-10.75 24-24s-9.9-24-24-24zM206.4 335.1 152 394.9V56.02C152 42.76 141.3 32 128 32s-24 10.76-24 24.02v338.9l-54.37-58.95c-4.719-5.125-11.16-7.719-17.62-7.719-5.812 0-11.66 2.094-16.28 6.375-9.75 8.977-10.34 24.18-1.344 33.94l95.1 104.1c9.062 9.82 26.19 9.82 35.25 0l95.1-104.1c9-9.758 8.406-24.96-1.344-33.94-7.992-9.126-23.192-8.426-32.092.474z"/></svg>