<svg xmlns="http://www.w3.org/2000/svg" viewBox="0 0 448 512"><!--! Font Awesome Pro 6.1.1 by @fontawesome - https://fontawesome.com License - https://fontawesome.com/license (Commercial License) Copyright 2022 Fonticons, Inc.--><path d="M280 80c-13.3 0-24-10.75-24-24s10.7-24 24-24h144c13.3 0 24 10.75 24 24v144c0 13.3-10.7 24-24 24s-24-10.7-24-24v-86.1L200.1 312.1c-8.5 10.2-23.7 10.2-33.1 0-9.3-8.5-9.3-23.7 0-33.1L366.1 80H280zM0 120c0-30.93 25.07-56 56-56h112c13.3 0 24 10.75 24 24 0 13.3-10.7 24-24 24H56c-4.42 0-8 3.6-8 8v304c0 4.4 3.58 8 8 8h304c4.4 0 8-3.6 8-8V312c0-13.3 10.7-24 24-24s24 10.7 24 24v112c0 30.9-25.1 56-56 56H56c-30.93 0-56-25.1-56-56V120z"/></svg>