<svg xmlns="http://www.w3.org/2000/svg" viewBox="0 0 512 512"><!--! Font Awesome Pro 6.1.1 by @fontawesome - https://fontawesome.com License - https://fontawesome.com/license (Commercial License) Copyright 2022 Fonticons, Inc.--><path d="M240.1 136.1c-8.5 10.2-23.7 10.2-33.1 0-9.3-8.5-9.3-23.7 0-33.1l96-95.971c9.4-9.372 24.6-9.372 33.1 0l96 95.971c10.2 9.4 10.2 24.6 0 33.1-8.5 10.2-23.7 10.2-33.1 0l-55-54.16V392c0 39.8 32.2 72 72 72h72c13.3 0 24 10.7 24 24s-10.7 24-24 24h-72c-66.3 0-120-53.7-120-120v-8c0-39.8-32.2-72-72-72H81.94l54.16 55c10.2 9.4 10.2 24.6 0 33.1-8.5 10.2-23.7 10.2-33.1 0l-95.971-96C2.529 300.5 0 294.4 0 288c0-6.4 2.529-12.5 7.029-17L103 175c9.4-9.3 24.6-9.3 33.1 0 10.2 9.4 10.2 24.6 0 33.1L81.94 264H224c27 0 51.9 8.9 72 23.1V81.94l-55.9 54.16z"/></svg>