<svg xmlns="http://www.w3.org/2000/svg" viewBox="0 0 448 512"><!--! Font Awesome Pro 6.1.1 by @fontawesome - https://fontawesome.com License - https://fontawesome.com/license (Commercial License) Copyright 2022 Fonticons, Inc.--><path d="M294.4 7.669c9-9.713 24.2-10.275 33.9-1.256l112 103.987c4.9 3.7 7.7 10.9 7.7 17.6 0 6.7-2.8 13-7.7 17.6l-112 104c-9.7 9-24.9 8.4-33.9-1.3-9-9.7-9.3-24.9 1.3-33.9l67.2-62.4H120c-39.76 0-72 32.2-72 72v40c0 13.3-10.75 24-24 24S0 277.3 0 264v-40c0-66.3 53.73-120 120-120h242.9l-67.2-62.41c-10.6-9.02-10.3-24.21-1.3-33.921zm-96 256.031c9-10.6 24.2-10.3 33.9-1.3l112 104c4.9 3.7 7.7 10.9 7.7 17.6 0 6.7-2.8 13-7.7 17.6l-112 104c-9.7 9-24.9 8.4-33.9-1.3-9-9.7-9.3-24.9 1.3-33.9l67.2-62.4H88c-22.09 0-40 17.9-40 40v40c0 13.3-10.75 24-24 24S0 501.3 0 488v-40c0-48.6 39.4-88 88-88h178.9l-67.2-62.4c-10.6-9-10.3-24.2-1.3-33.9z"/></svg>