<svg xmlns="http://www.w3.org/2000/svg" viewBox="0 0 576 512"><!--! Font Awesome Pro 6.1.1 by @fontawesome - https://fontawesome.com License - https://fontawesome.com/license (Commercial License) Copyright 2022 Fonticons, Inc.--><path d="M552 432c13.3 0 24 10.7 24 24s-10.7 24-24 24H24c-13.25 0-24-10.7-24-24s10.75-24 24-24h528zm-87.9-55.9c-3.6 5.4-9.7 7.9-16.1 7.9-6.4 0-12.5-2.5-17-7.9l-104-104c-9.3-8.5-9.3-23.7 0-33.1 9.4-9.3 24.6-9.3 33.1 0l63.9 63.1V56c0-13.25 10.7-24 24-24s24 10.75 24 24v246.1l63-63.1c9.4-9.3 24.6-9.3 33.1 0 10.2 9.4 10.2 24.6 0 33.1l-104 104zm-216-104-104 104c-8.5 10.2-23.7 10.2-33.1 0L7.029 272.1c-9.372-8.5-9.372-23.7 0-33.1 9.371-9.3 24.571-9.3 33.941 0l62.13 63.1L104 56c0-13.25 10.7-24 24-24s24 10.75 24 24v246.1l63-63.1c9.4-9.3 24.6-9.3 33.1 0 10.2 9.4 10.2 24.6 0 33.1z"/></svg>