<svg xmlns="http://www.w3.org/2000/svg" viewBox="0 0 448 512"><!--! Font Awesome Pro 6.1.1 by @fontawesome - https://fontawesome.com License - https://fontawesome.com/license (Commercial License) Copyright 2022 Fonticons, Inc.--><path d="M399.1 88v336c0 13.25 10.76 24 24.02 24S448 437.3 448 424V88c0-13.25-10.8-24-24.9-24s-24 10.75-24 24zM176.3 366.5 84.28 280h243.6c13.26 0 24.05-10.75 24.05-24s-10.73-24-24.03-24H84.3l91.98-86.53c5.02-4.67 7.52-11.07 7.52-17.47 0-5.906-2.158-11.81-6.536-16.44C168.2 101.9 153 101.4 143.4 110.5L7.3 238.5c-9.694 9.062-9.694 25.88 0 34.94l136.1 128c9.663 9.094 24.86 8.625 33.93-1.031 9.07-9.609 7.77-24.809-1.03-33.909z"/></svg>