<svg xmlns="http://www.w3.org/2000/svg" viewBox="0 0 512 512"><!--! Font Awesome Pro 6.1.1 by @fontawesome - https://fontawesome.com License - https://fontawesome.com/license (Commercial License) Copyright 2022 Fonticons, Inc.--><path d="M416 128h-40c-13.3 0-24 10.7-24 24 0 13.25 10.75 24 24 24h40c8.836 0 16 7.164 16 16v256c0 8.836-7.164 16-16 16H96c-8.836 0-16-7.164-16-16V192c0-8.836 7.164-16 16-16h40c13.3 0 24-10.7 24-24s-10.7-24-24-24H96c-35.35 0-64 28.7-64 64v256c0 35.34 28.65 64 64 64h320c35.35 0 64-28.66 64-64V192c0-35.3-28.7-64-64-64zM143.7 238.6c-10.6 9-10.3 24.2-1.3 34l96 104.1c9.062 9.82 26.19 9.82 35.25 0l96-104.1c9-9.758 8.406-24.95-1.344-33.93-9.781-9.07-24.97-8.414-33.91 1.344L280 298.9V24.02C280 10.76 269.3 0 256 0s-24 10.76-24 24.02v274.9l-54.38-58.95c-4.72-5.17-11.12-7.67-17.62-7.67-5.8 0-11.7 2-16.3 6.3z"/></svg>