<svg xmlns="http://www.w3.org/2000/svg" viewBox="0 0 512 512"><!--! Font Awesome Pro 6.1.1 by @fontawesome - https://fontawesome.com License - https://fontawesome.com/license (Commercial License) Copyright 2022 Fonticons, Inc.--><path d="M255 31.03c9.4-9.37 24.6-9.37 33.1 0 10.2 9.37 10.2 24.57 0 33.94L249.9 104H424c48.6 0 88 39.4 88 88v40c0 13.3-10.7 24-24 24s-24-10.7-24-24v-40c0-22.1-17.9-40-40-40H249.9l38.2 39c10.2 9.4 10.2 24.6 0 33.1-8.5 10.2-23.7 10.2-33.1 0l-80-80c-9.3-8.5-9.3-23.7 0-33.1l80-79.97zM336.1 367c10.2 9.4 10.2 24.6 0 33.1l-80 80c-8.5 10.2-23.7 10.2-33.1 0-9.3-8.5-9.3-23.7 0-33.1l39.1-39H88c-22.09 0-40 17.9-40 40v40c0 13.3-10.75 24-24 24S0 501.3 0 488v-40c0-48.6 39.4-88 88-88h174.1L223 320.1c-9.3-8.5-9.3-23.7 0-33.1 9.4-9.3 24.6-9.3 33.1 0l80 80zM512 384c0 35.3-28.7 64-64 64s-64-28.7-64-64 28.7-64 64-64 64 28.7 64 64zM128 128c0 35.3-28.65 64-64 64S0 163.3 0 128c0-35.35 28.65-64 64-64s64 28.65 64 64z"/></svg>