<svg xmlns="http://www.w3.org/2000/svg" viewBox="0 0 448 512"><!--! Font Awesome Pro 6.1.1 by @fontawesome - https://fontawesome.com License - https://fontawesome.com/license (Commercial License) Copyright 2022 Fonticons, Inc.--><path d="M224 416c-17.67 0-32 14.33-32 32s14.33 32 32 32 32-14.33 32-32-14.3-32-32-32zm-192 0c-17.67 0-32 14.33-32 32s14.33 32 32 32 32-14.33 32-32-14.33-32-32-32zm96 0c-17.67 0-32 14.33-32 32s14.33 32 32 32 32-14.33 32-32-14.3-32-32-32zm192 0c-17.67 0-32 14.33-32 32s14.33 32 32 32 32-14.33 32-32-14.3-32-32-32zm96 0c-17.67 0-32 14.33-32 32s14.33 32 32 32 32-14.33 32-32-14.3-32-32-32zm-209.5-55.3c9.062 9.699 25.88 9.699 34.94 0l128-136.2c9.094-9.672 8.625-24.88-1.031-33.96-9.625-9.109-24.81-8.672-33.91 1.031L248 283.6V72c0-13.27-10.75-24.04-24-24.04s-24 10.8-24 24.08v211.6l-86.53-92.05A23.947 23.947 0 0 0 96 184c-5.906 0-11.81 2.16-16.44 6.543-9.65 9.057-10.12 24.257-1.03 33.957L206.5 360.7z"/></svg>