<svg xmlns="http://www.w3.org/2000/svg" viewBox="0 0 576 512"><!--! Font Awesome Pro 6.1.1 by @fontawesome - https://fontawesome.com License - https://fontawesome.com/license (Commercial License) Copyright 2022 Fonticons, Inc.--><path d="M24 80C10.75 80 0 69.25 0 56s10.75-24 24-24h528c13.3 0 24 10.75 24 24s-10.7 24-24 24H24zm87 55c4.5-4.5 10.6-7 17-7s12.5 2.5 16.1 7l104 104c10.2 9.4 10.2 24.6 0 33.1-8.5 10.2-23.7 10.2-33.1 0l-63-62.2V456c0 13.3-10.7 24-24 24s-24-10.7-24-24V209.9l-63.03 62.2c-9.37 10.2-24.57 10.2-33.941 0-9.372-8.5-9.372-23.7 0-33.1L111 135zm216 104 104-104c9.4-9.3 24.6-9.3 33.1 0l104 104c10.2 9.4 10.2 24.6 0 33.1-8.5 10.2-23.7 10.2-33.1 0l-63-62.2V456c0 13.3-10.7 24-24 24s-24-10.7-24-24V209.9l-63.9 62.2c-8.5 10.2-23.7 10.2-33.1 0-9.3-8.5-9.3-23.7 0-33.1z"/></svg>