<svg xmlns="http://www.w3.org/2000/svg" viewBox="0 0 640 512"><!--! Font Awesome Pro 6.1.1 by @fontawesome - https://fontawesome.com License - https://fontawesome.com/license (Commercial License) Copyright 2022 Fonticons, Inc.--><path d="M0 88c0-13.25 10.75-24 24-24s24 10.75 24 24v336c0 13.3-10.75 24-24 24S0 437.3 0 424V88zm296 304c0 6.2-2.3 12.3-7.9 16.1-8.5 10.2-23.7 10.2-33.1 0l-136-136c-9.3-8.5-9.3-23.7 0-33.1l136-136c9.4-9.34 24.6-9.34 33.1 0 10.2 9.4 10.2 24.6 0 33.1L193.9 232H616c13.3 0 24 10.8 24 24s-10.7 24-24 24H193.9l94.2 95c5.6 4.7 7.9 10.8 7.9 17z"/></svg>