<svg xmlns="http://www.w3.org/2000/svg" viewBox="0 0 512 512"><!--! Font Awesome Pro 6.1.1 by @fontawesome - https://fontawesome.com License - https://fontawesome.com/license (Commercial License) Copyright 2022 Fonticons, Inc.--><path d="M488 344H79.24l74.29-79.63c9.07-9.67 8.57-24.87-1.13-33.87-9.7-9.1-24.9-8.6-33.9 1.1l-112 120c-8.625 9.219-8.625 23.53 0 32.75l112 120c4.7 5.05 11.1 7.65 17.5 7.65 5.875 0 11.75-2.125 16.38-6.469 9.688-9.031 10.22-24.22 1.156-33.91L79.24 392H488c13.25 0 24-10.75 24-24s-10.7-24-24-24zM24 168h408.8l-74.29 79.63c-9.062 9.688-8.531 24.88 1.156 33.91 9.656 9.094 24.88 8.562 33.91-1.156l112-120c8.625-9.219 8.625-23.53 0-32.75l-112-120C388.8 2.562 382.4 0 376 0c-5.875 0-11.75 2.125-16.38 6.469-9.688 9.031-10.22 24.22-1.156 33.91L432.8 120H24c-13.25 0-24 10.8-24 24s10.75 24 24 24z"/></svg>