<svg xmlns="http://www.w3.org/2000/svg" viewBox="0 0 512 512"><!--! Font Awesome Pro 6.1.1 by @fontawesome - https://fontawesome.com License - https://fontawesome.com/license (Commercial License) Copyright 2022 Fonticons, Inc.--><path d="M135 432.1 7 304.1c-4.656-3.8-7-9.9-7-16.1s2.344-12.28 7.031-16.97l128-128c9.375-9.375 24.56-9.375 33.94 0s9.375 24.56 0 33.94L81.94 264H464V56c0-13.25 10.8-24 24-24s24 10.75 24 24v232c0 13.25-10.75 24-24 24H81.94l87.03 87.03c9.375 9.375 9.375 24.56 0 33.94s-24.57 9.33-33.97-.87z"/></svg>