<svg xmlns="http://www.w3.org/2000/svg" viewBox="0 0 640 512"><!--! Font Awesome Pro 6.1.1 by @fontawesome - https://fontawesome.com License - https://fontawesome.com/license (Commercial License) Copyright 2022 Fonticons, Inc.--><path d="M328 368H152V145.9l63.03 63.03C219.7 213.7 225.8 216 232 216s12.28-2.344 16.97-7.031c9.375-9.375 9.375-24.56 0-33.94l-104-104c-9.375-9.375-24.56-9.375-33.94 0l-104 104c-9.375 9.375-9.375 24.56 0 33.94s24.56 9.375 33.94 0L104 145.9V392c0 13.3 10.8 24 24 24h200c13.25 0 24-10.75 24-24s-10.7-24-24-24zm304.1-65c-9.375-9.375-24.56-9.375-33.94 0L536 366.1V120c0-13.2-10.7-24-24-24H312c-13.2 0-24 10.8-24 24s10.8 24 24 24h176v222.1l-63.03-63.03C420.3 298.3 414.2 296 408 296s-12.28 2.344-16.97 7.031c-9.375 9.375-9.375 24.56 0 33.94l104 104c9.375 9.375 24.56 9.375 33.94 0l104-104c9.33-9.371 9.33-24.571-.87-33.971z"/></svg>