<svg xmlns="http://www.w3.org/2000/svg" viewBox="0 0 640 512"><!--! Font Awesome Pro 6.1.1 by @fontawesome - https://fontawesome.com License - https://fontawesome.com/license (Commercial License) Copyright 2022 Fonticons, Inc.--><path d="M336 488c0 13.3-10.7 24-24 24s-24-10.7-24-24V56c0-30.93 25.1-56 56-56h112c30.9 0 56 25.07 56 56v136h32v-72c0-13.3 10.7-24 24-24s24 10.7 24 24v72.6c27.1 3.8 48 27.2 48 55.4v240c0 13.3-10.7 24-24 24s-24-10.7-24-24V248c0-4.4-3.6-8-8-8H464V56c0-4.42-3.6-8-8-8H344c-4.4 0-8 3.58-8 8v432zm32-392c0-8.84 7.2-16 16-16h32c8.8 0 16 7.16 16 16v32c0 8.8-7.2 16-16 16h-32c-8.8 0-16-7.2-16-16V96zm48 80c8.8 0 16 7.2 16 16v32c0 8.8-7.2 16-16 16h-32c-8.8 0-16-7.2-16-16v-32c0-8.8 7.2-16 16-16h32zm-48 112c0-8.8 7.2-16 16-16h32c8.8 0 16 7.2 16 16v32c0 8.8-7.2 16-16 16h-32c-8.8 0-16-7.2-16-16v-32zm176-16c8.8 0 16 7.2 16 16v32c0 8.8-7.2 16-16 16h-32c-8.8 0-16-7.2-16-16v-32c0-8.8 7.2-16 16-16h32zm-48 112c0-8.8 7.2-16 16-16h32c8.8 0 16 7.2 16 16v32c0 8.8-7.2 16-16 16h-32c-8.8 0-16-7.2-16-16v-32zM248.1 238.2c5 4.6 7.9 11 7.9 17.8 0 6.8-2.9 13.2-7.9 17.8l-88 80c-9.8 8.9-24.9 7.3-33.9-1.7-8.9-9.8-8.2-24.9 1.7-33.9l42-38.2H24c-13.25 0-24-10.7-24-24s10.75-24 24-24h145.9l-42-38.2c-9.9-9-10.6-24.1-1.7-33.9 9-9.9 24.1-10.6 33.9-1.7l88 80z"/></svg>