<svg xmlns="http://www.w3.org/2000/svg" viewBox="0 0 512 512"><!--! Font Awesome Pro 6.1.1 by @fontawesome - https://fontawesome.com License - https://fontawesome.com/license (Commercial License) Copyright 2022 Fonticons, Inc.--><path d="M257.1 87.53c-11.3 0-22.4 1.13-34 3.27V42.06c11.7-1.67 22.8-2.53 34-2.53 56 0 107 21.3 145.4 56.24l35.1-35.08c10.1-10.08 27.3-2.94 27.3 11.31v105.4c0 8.8-7.2 16-16 16H343.5c-14.2 0-21.4-17.3-11.3-27.3l36.3-36.3c-29.6-26.3-68.6-42.27-111.4-42.27zM89.14 255.5c0 11.1 1.08 22 3.13 32.5H43.56c-1.6-10.6-2.42-21.4-2.42-32.5 0-55.1 20.68-105.5 54.71-143.6L60.69 76.69C50.61 66.61 57.74 49.38 71.1 49.38h106.3c8.8 0 16 7.16 16 16V170.7c0 14.3-17.3 21.4-27.3 11.4l-36.2-36.2c-25.4 29.4-40.76 67.7-40.76 109.6zm92.96 92.7-34.6 34.6c29.4 25.4 67.7 40.7 109.6 40.7 10.6 0 20-.9 30.9-2.8v48.6c-10.1 1.5-20.4 2.2-30.9 2.2-56 0-105.5-20.6-143.6-54.7l-36.81 36.8c-10.08 10.1-27.32 2.9-27.32-11.3V336.9c0-8.8 7.17-16 16-16H170.7c13.4 0 21.4 17.2 11.4 27.3zm166.1-16 34.7 34.7c26.3-29.6 42.2-68.6 42.2-111.4 0-10.7-1-21.3-2.9-31.5h48.7c1.5 10.3 2.2 20.8 2.2 31.5 0 56-21.3 107-56.2 145.4l36.7 36.7c10.1 10.1 2.9 27.3-11.3 27.3H336.9c-8.8 0-16-7.2-16-16V343.5c0-14.2 17.2-21.4 27.3-11.3z"/></svg>