<svg xmlns="http://www.w3.org/2000/svg" viewBox="0 0 448 512"><!--! Font Awesome Pro 6.1.1 by @fontawesome - https://fontawesome.com License - https://fontawesome.com/license (Commercial License) Copyright 2022 Fonticons, Inc.--><path d="M224 95.1c17.67 0 32-14.33 32-32s-14.33-32-32-32-32 14.33-32 32 14.3 32 32 32zm192 0c17.67 0 32-14.33 32-32s-14.33-32-32-32-32 14.33-32 32 14.3 32 32 32zm-96 0c17.67 0 32-14.33 32-32s-14.33-32-32-32-32 14.33-32 32 14.3 32 32 32zm-192 0c17.67 0 32-14.33 32-32s-14.33-32-32-32-32 14.33-32 32 14.3 32 32 32zm-96 0c17.67 0 32-14.33 32-32s-14.33-32-32-32-32 14.33-32 32 14.33 32 32 32zm174.5 377.6c9.062 9.699 25.88 9.699 34.94 0l128-136.2c9.094-9.672 8.625-24.88-1.031-33.96-9.625-9.109-24.81-8.672-33.91 1.031L248 395.6V184c0-13.27-10.75-24.04-24-24.04S200 170.8 200 184v211.6l-86.53-92.05A24.06 24.06 0 0 0 96 296c-5.906 0-11.81 2.16-16.44 6.543-9.656 9.074-10.12 24.29-1.031 33.96L206.5 472.7z"/></svg>