<svg xmlns="http://www.w3.org/2000/svg" viewBox="0 0 448 512"><!--! Font Awesome Pro 6.1.1 by @fontawesome - https://fontawesome.com License - https://fontawesome.com/license (Commercial License) Copyright 2022 Fonticons, Inc.--><path d="M424 320c13.25 0 24 10.75 24 24v72c0 53.02-42.98 96-96 96H96c-53.02 0-96-42.98-96-96v-72c0-13.3 10.74-24 24-24 13.25 0 24 10.75 24 24v72c0 26.4 21.6 48 48 48h256c26.4 0 48-21.6 48-48v-72c0-13.3 10.7-24 24-24zM207.6 6.539l-136 127.1C61.88 143.6 61.44 158.8 70.53 168.4c9.062 9.656 24.25 10.12 33.91 1.031L200 79.56v248.4c0 13.34 10.8 24.04 24 24.04s24-10.75 24-23.1V79.56l95.56 89.92c9.656 9.094 24.84 8.625 33.91-1.031C381.8 163.8 384 157.9 384 152c0-6.375-2.531-12.75-7.562-17.47l-136-127.1C231.2-2.18 216.8-2.18 207.6 6.539z"/></svg>