<svg xmlns="http://www.w3.org/2000/svg" viewBox="0 0 512 512"><!--! Font Awesome Pro 6.1.1 by @fontawesome - https://fontawesome.com License - https://fontawesome.com/license (Commercial License) Copyright 2022 Fonticons, Inc.--><path d="M327.1 80h62.94L309.1 185.2c-5.623 7.25-6.654 17.06-2.625 25.28a24.008 24.008 0 0 0 21.56 13.47h111.1c13.25 0 23.1-10.75 23.1-24s-10.75-24-23.1-24H377.1l81.87-105.2c5.625-7.25 6.656-17.06 2.625-25.28C457.5 37.22 449.1 32 439.1 32H328c-13.25 0-23.1 10.75-23.1 24s9.8 24 22.2 24zm150.4 365.3-71.1-144c-8.123-16.3-34.81-16.3-42.94 0l-71.1 144c-5.938 11.84-1.125 26.25 10.75 32.19 11.9 5.938 26.25 1.156 32.19-10.75l5.359-10.72h90.34l5.359 10.72c4.219 8.438 12.69 13.28 21.5 13.28 3.594 0 7.25-.813 10.69-2.531C478.6 471.5 483.4 457.1 477.5 445.3zm-114.7-38.2 21.17-42.34 21.17 42.34H362.8zm-156.4-72L152 394.9V56.02C152 42.75 141.25 32 128 32s-24 10.76-24 24.02v338.9l-54.37-58.95c-4.719-5.125-11.16-7.719-17.62-7.719-5.812 0-11.66 2.094-16.28 6.375-9.75 8.977-10.34 24.18-1.344 33.94l95.1 104.1c9.062 9.82 26.19 9.82 35.25 0l95.1-104.1c9-9.758 8.406-24.96-1.344-33.94-7.992-9.126-23.192-8.426-32.092.474z"/></svg>