<svg xmlns="http://www.w3.org/2000/svg" viewBox="0 0 448 512"><!--! Font Awesome Pro 6.1.1 by @fontawesome - https://fontawesome.com License - https://fontawesome.com/license (Commercial License) Copyright 2022 Fonticons, Inc.--><path d="M424 32H280.9C266.8 32 256 42.75 256 56s10.75 24 24 24h86.06L7.031 439c-9.375 9.375-9.375 24.56 0 33.94s24.56 9.375 33.94 0L400 113.9V200c0 13.3 10.8 24 24 24s24-10.8 24-24.9V56c0-13.16-10.8-24-24-24zM167.4 233.4l33.94-33.94L40.97 39.03c-9.375-9.375-24.56-9.375-33.94 0s-9.375 24.56 0 33.94L167.4 233.4zM424 288c-13.25 0-24 10.75-24 24v86.06l-119.4-119.4-33.94 33.94L366.1 432H280c-13.25 0-24 10.75-24 24s10.8 24 24 24h144c13.16 0 24-10.81 24-24V312c0-13.2-10.7-24-24-24z"/></svg>