<svg xmlns="http://www.w3.org/2000/svg" viewBox="0 0 512 512"><!--! Font Awesome Pro 6.1.1 by @fontawesome - https://fontawesome.com License - https://fontawesome.com/license (Commercial License) Copyright 2022 Fonticons, Inc.--><path d="M512 255.1c0 6.755-2.844 13.09-7.844 17.62l-88 80.05C411.5 357.8 405.8 359.9 400 359.9c-13.27 0-24-10.76-24-24 0-6.534 2.647-13.04 7.844-17.78l42.07-38.28H280v146l38.25-42.1c4.715-5.2 11.21-7.849 17.74-7.849 13.23 0 24.01 10.71 24.01 24.03 0 5.765-2.061 11.55-6.25 16.15l-80 88.06C269.2 509.2 262.8 512 256 512s-13.22-2.846-17.75-7.849l-80-88.06a23.92 23.92 0 0 1-6.25-16.15c0-13.38 10.83-24.03 23.1-24.03 6.526 0 13.02 2.649 17.75 7.849L232 425.9V279.8H86.09l42.07 38.28c5.196 4.735 7.844 11.24 7.844 17.78 0 13.22-10.71 24-24 24-5.781 0-11.53-2.064-16.16-6.254l-88-80.05C2.844 269.1 0 262.7 0 255.1c0-6.755 2.844-13.37 7.844-17.9l88-80.05C100.5 153.8 106.2 151.8 112 151.8c13.26 0 23.99 10.74 23.99 23.99 0 6.534-2.647 13.04-7.844 17.78L86.09 231.8H232v-146l-38.2 42.1c-4.8 5.2-11.3 7.8-18.7 7.8-13.16 0-23.1-10.66-23.1-24.03 0-5.765 2.061-11.55 6.25-16.15l80-88.06C242.8 2.502 249.4 0 256 0s13.22 2.502 17.75 7.505l80 88.06a23.92 23.92 0 0 1 6.25 16.15c0 13.35-10.81 24.03-24 24.03a23.933 23.933 0 0 1-17.75-7.849L280 85.8v146h145.9l-42.07-38.28c-5.196-4.735-7.844-11.24-7.844-17.78 0-13.25 10.74-23.99 23.98-23.99 5.759 0 11.55 2.061 16.18 6.242l88 80.05C509.2 242.6 512 249.2 512 255.1z"/></svg>