<svg xmlns="http://www.w3.org/2000/svg" viewBox="0 0 512 512"><!--! Font Awesome Pro 6.1.1 by @fontawesome - https://fontawesome.com License - https://fontawesome.com/license (Commercial License) Copyright 2022 Fonticons, Inc.--><path d="m280 110.1 31-31.07c9.4-9.37 24.6-9.37 33.1 0 10.2 9.37 10.2 24.57 0 33.07l-72 72c-8.5 10.2-23.7 10.2-33.1 0l-72-72c-9.3-8.5-9.3-23.7 0-33.07 9.4-9.37 24.6-9.37 33.1 0L232 110.1V24c0-13.25 10.7-24 24-24s24 10.75 24 24v86.1zm152.1 234c-8.5 10.2-23.7 10.2-33.1 0l-72-72c-9.3-8.5-9.3-23.7 0-33.1l72-72c9.4-9.3 24.6-9.3 33.1 0 10.2 9.4 10.2 24.6 0 33.1L401.9 232H488c13.3 0 24 10.7 24 24s-10.7 24-24 24h-86.1l30.2 31c10.2 9.4 10.2 24.6 0 33.1zM288 256c0 17.7-14.3 32-32 32s-32-14.3-32-32 14.3-32 32-32 32 14.3 32 32zm-103.9-17c10.2 9.4 10.2 24.6 0 33.1l-72 72c-8.5 10.2-23.7 10.2-33.07 0-9.37-8.5-9.37-23.7 0-33.1l31.07-31H24c-13.25 0-24-10.7-24-24s10.75-24 24-24h86.1l-31.07-31.9c-9.37-8.5-9.37-23.7 0-33.1 9.37-9.3 24.57-9.3 33.07 0l72 72zM167 432.1c-9.3-8.5-9.3-23.7 0-33.1l72-72c9.4-9.3 24.6-9.3 33.1 0l72 72c10.2 9.4 10.2 24.6 0 33.1-8.5 10.2-23.7 10.2-33.1 0l-31-30.2V488c0 13.3-10.7 24-24 24s-24-10.7-24-24v-86.1l-31.9 30.2c-8.5 10.2-23.7 10.2-33.1 0z"/></svg>