<svg xmlns="http://www.w3.org/2000/svg" viewBox="0 0 576 512"><!--! Font Awesome Pro 6.1.1 by @fontawesome - https://fontawesome.com License - https://fontawesome.com/license (Commercial License) Copyright 2022 Fonticons, Inc.--><path d="M47.03 408.1c-9.37-8.5-9.37-23.7 0-33.1 9.37-9.3 24.57-9.3 33.94 0L136 430.1V280H24c-13.25 0-24-10.7-24-24s10.75-24 24-24h368V81.94l-55.9 54.16c-8.5 10.2-23.7 10.2-33.1 0-9.3-8.5-9.3-23.7 0-33.1l96-95.971c9.4-9.372 24.6-9.372 33.1 0l96 95.971c10.2 9.4 10.2 24.6 0 33.1-8.5 10.2-23.7 10.2-33.1 0l-55-54.16V232h112c13.3 0 24 10.7 24 24s-10.7 24-24 24H184v150.1l55-55.1c9.4-9.3 24.6-9.3 33.1 0 10.2 9.4 10.2 24.6 0 33.1l-96 96c-8.5 10.2-23.7 10.2-33.1 0l-95.97-96zM136 56c0-13.25 10.7-24.9 24-24.9s24 11.65 24 24.9v136h-48V56zm304 264v136c0 13.3-10.7 24-24 24s-24-10.7-24-24V320h48z"/></svg>