<svg xmlns="http://www.w3.org/2000/svg" viewBox="0 0 448 512"><!--! Font Awesome Pro 6.1.1 by @fontawesome - https://fontawesome.com License - https://fontawesome.com/license (Commercial License) Copyright 2022 Fonticons, Inc.--><path d="M400 200v-86.1L257.9 256 400 398.1V312c0-13.2 10.8-24 24-24s24 10.8 24 24v144c0 3.125-.639 6.238-1.854 9.172a24.021 24.021 0 0 1-12.96 12.97A23.55 23.55 0 0 1 424 480H280c-13.2 0-24-10.7-24-24s10.75-24 24-24h86.06L224 289.9 81.94 432H168c13.3 0 24 10.8 24 24s-10.7 24-24 24H24c-3.125 0-6.238-.64-9.172-1.852a24.016 24.016 0 0 1-12.97-12.97A23.856 23.856 0 0 1 0 456V312c0-13.2 10.75-24 24-24s24 10.8 24 24v86.06L190.1 256 48 113.9V200c0 13.3-10.75 24-24 24S0 213.3 0 200V56c0-3.125.639-6.238 1.854-9.172a24.021 24.021 0 0 1 12.96-12.97C17.75 32.64 20.87 32 24 32h144c13.3 0 24 10.75 24 24s-10.7 24-24 24H81.94L224 222.1 366.1 80H280c-13.2 0-24-10.75-24-24s10.8-24 24-24h144c3.125 0 6.238.64 9.172 1.852a24.016 24.016 0 0 1 12.97 12.97C447.4 49.75 448 52.87 448 56v144c0 13.3-10.7 24-24 24s-24-10.7-24-24z"/></svg>