<svg xmlns="http://www.w3.org/2000/svg" viewBox="0 0 512 512"><!--! Font Awesome Pro 6.1.1 by @fontawesome - https://fontawesome.com License - https://fontawesome.com/license (Commercial License) Copyright 2022 Fonticons, Inc.--><path d="M352 175.1c-13.25 0-24 10.75-24 24s10.75 24.01 23.1 24.01l80.9-.01c13.25 0 24-10.75 24-24s-10.75-24-24-24h-16v-120c0-8.656-4.656-16.62-12.19-20.88-7.531-4.312-16.78-4.094-24.16.281l-40 24c-11.38 6.844-15.06 21.56-8.25 32.94 6.812 11.34 21.5 15.06 32.94 8.25l3.656-2.219v77.63H352zm40 80.9c-48.6 0-88 39.4-88 88 0 42.05 29.55 77.1 68.98 85.81l-15.54 19c-8.406 10.25-6.906 25.38 3.375 33.75C365.3 486.2 370.6 488 376 488c6.938 0 13.84-3 18.56-8.812C465.1 392.1 480 382.5 480 344c0-48.6-39.4-88-88-88zm29.3 114.8-1.443 1.762C412.6 379.6 402.8 384 392 384c-22.06 0-40-17.95-40-40s17.9-40 40-40 40 17.95 40 40c0 10.4-4.2 19.7-10.7 26.8zM145.6 39.37c-9.062-9.82-26.19-9.82-35.25 0L14.38 143.4c-9 9.758-8.406 24.96 1.344 33.93C20.35 181.7 26.19 183.8 32 183.8c6.469 0 12.91-2.598 17.62-7.723L104 117.1V456c0 13.26 10.75 24.02 24 24.02s24-10.82 24-24.92v-338l54.37 58.95c8.93 9.75 24.13 10.45 33.93 1.35 9.75-8.977 10.34-24.18 1.344-33.93L145.6 39.37z"/></svg>