<svg xmlns="http://www.w3.org/2000/svg" viewBox="0 0 512 512"><!--! Font Awesome Pro 6.1.1 by @fontawesome - https://fontawesome.com License - https://fontawesome.com/license (Commercial License) Copyright 2022 Fonticons, Inc.--><path d="M343 432.1c-9.3-8.5-9.3-23.7 0-33.1l87.1-87H24c-13.25 0-24-10.8-24-24V56c0-13.25 10.75-24 24-24s24 10.75 24 24v208h382.1L343 176.1c-9.3-8.5-9.3-23.7 0-33.1 9.4-9.3 24.6-9.3 33.1 0l128 128c5.6 4.7 7.9 10.8 7.9 16.1 0 7.1-2.3 13.2-7.9 17l-128 128c-8.5 10.2-23.7 10.2-33.1 0z"/></svg>