<svg xmlns="http://www.w3.org/2000/svg" viewBox="0 0 640 512"><!--! Font Awesome Pro 6.1.1 by @fontawesome - https://fontawesome.com License - https://fontawesome.com/license (Commercial License) Copyright 2022 Fonticons, Inc.--><path d="M640 424c0 13.3-10.7 24-24 24s-24-10.7-24-24V88c0-13.25 10.7-24 24-24s24 10.75 24 24v336zm-289-49 95.1-95H24c-13.25 0-24-10.8-24-24s10.75-24 24-24h422.1L351 136.1c-9.3-8.5-9.3-23.7 0-33.1 9.4-9.34 24.6-9.34 33.1 0l136 136c10.2 9.4 10.2 24.6 0 33.1l-136 136c-8.5 10.2-23.7 10.2-33.1 0-4.7-3.8-7-9.9-7-16.1 0-6.2 2.3-12.3 7-17z"/></svg>