<svg xmlns="http://www.w3.org/2000/svg" viewBox="0 0 576 512"><!--! Font Awesome Pro 6.1.1 by @fontawesome - https://fontawesome.com License - https://fontawesome.com/license (Commercial License) Copyright 2022 Fonticons, Inc.--><path d="M240 0c26.5 0 48 21.49 48 48v208h136V81.94l-39.9 38.16c-8.5 10.2-23.7 10.2-33.1 0-9.3-8.5-9.3-23.7 0-33.07l80-80c9.4-9.373 24.6-9.373 33.1 0l80 80c10.2 9.37 10.2 24.57 0 33.07-8.5 10.2-23.7 10.2-33.1 0l-39-38.16V256h40c35.3 0 64 28.7 64 64v105c-5.3-3.1-11.2-5.4-17.5-6.9-10.4-2.4-21.2-7.2-30.5-13.5v-85.5c0-7.9-7.2-16-16-16H64c-8.84 0-16 8.1-16 16v85.5c-9.31 6.3-20.06 11.1-30.51 13.5-6.3 1.5-12.164 3.8-17.49 6.9V320c0-35.3 28.65-64 64-64V48c0-26.51 21.49-48 48-48h128zm-48.9 464c29.7 0 59.4-15.3 80.9-33.9 9.1-9 22.8-9 31.1 0 22.4 18.6 52 33.9 80 33.9 29.7 0 59.4-15.3 80.9-33.9 9.1-9 22.8-9 31.9 0 17 15 39.3 26.8 61.3 31.7 12.9 2.9 21.1 15.7 18.2 28.7-2.9 12.9-15.8 21-28.7 18.1-28.7-6.4-52.3-20.4-67.6-30.4-27.2 19.5-60.5 33.8-96 33.8-33.7 0-67-14.3-96-33.8-27.2 19.5-60.5 33.8-96 33.8-33.7 0-67-14.3-95.12-33.8-14.37 10-37.99 24-66.68 30.4-12.93 2.9-25.765-5.2-28.667-18.1-2.901-13 5.232-25.8 18.167-28.7 22.2-5 43.96-17.7 60.3-31.7 9.99-9 23.7-9 32.8 0 21.6 18.6 51.2 33.9 79.2 33.9z"/></svg>