<svg xmlns="http://www.w3.org/2000/svg" viewBox="0 0 640 512"><!--! Font Awesome Pro 6.1.1 by @fontawesome - https://fontawesome.com License - https://fontawesome.com/license (Commercial License) Copyright 2022 Fonticons, Inc.--><path d="M120 24c0-13.25 10.7-24 24-24s24 10.75 24 24v118.1l23-23.1c9.4-9.3 24.6-9.3 33.1 0 10.2 9.4 10.2 24.6 0 33.1l-64 64c-8.5 10.2-23.7 10.2-33.1 0l-63.97-64c-9.37-8.5-9.37-23.7 0-33.1 9.37-9.3 24.57-9.3 33.94 0L120 142.1V24zm328.1 95 23.9 23.1V24c0-13.25 10.7-24 24-24s24 10.75 24 24v118.1l23-23.1c9.4-9.3 24.6-9.3 33.1 0 10.2 9.4 10.2 24.6 0 33.1l-64 64c-8.5 10.2-23.7 10.2-33.1 0l-64-64c-9.3-8.5-9.3-23.7 0-33.1 9.4-9.3 24.6-9.3 33.1 0zm7.9 177c0-22.1 17.9-40 40-40s40 17.9 40 40-17.9 40-40 40-40-17.9-40-40zm122.9 195.4L560 456.3V480c0 17.7-14.3 32-32 32h-64c-17.7 0-32-14.3-32-32v-23.7l-18.9 35.1c-6.2 11.6-20.8 16-32.5 9.7-12.5-6.3-16-20.8-9.7-32.5l36.3-67.5c-1.7-1.6-3.1-3.5-4.3-5.7L384 360.3V400c0 17.7-14.3 32-32 32h-64c-17.7 0-32-14.3-32-32v-39.7l-18.9 35.1c-2 2.2-2.6 4.1-4.3 5.7l36.3 67.5c6.3 11.7 2 26.2-9.7 32.5-11.7 6.3-26.2 1.9-32.5-9.7L208 456.3V480c0 17.7-14.3 32-32 32h-64c-17.67 0-32-14.3-32-32v-23.7l-18.86 35.1c-6.29 11.6-20.84 16-32.51 9.7-11.67-6.3-16.04-20.8-9.76-32.5l37.88-70.3C72.1 369.8 101.9 352 134.2 352h19.6c16.3 0 31.9 4.5 45.4 12.6l33.6-62.3c15.3-28.5 45.1-46.3 77.4-46.3h19.6c32.4 0 62.1 17.8 77.5 46.3l33.5 62.3c13.5-8.1 29.1-12.6 45.4-12.6h19.6c32.4 0 62.1 17.8 77.5 46.3l37.8 70.3c6.3 11.7 2 26.2-9.7 32.5-11.7 6.3-26.2 1.9-32.5-9.7zM512 464v-63.5c-2.9-.3-4.1-.5-6.2-.5h-19.6c-2.1 0-4.2.2-6.2.5V464h32zM304 304.5V384h32v-79.5c-2.9-.3-4.1-.5-6.2-.5h-19.6c-2.1 0-4.2.2-6.2.5zM160 464v-63.5c-2.9-.3-4.1-.5-6.2-.5h-19.6c-2.1 0-4.2.2-6.2.5V464h32zm200-264c0 22.1-17.9 40-40 40s-40-17.9-40-40 17.9-40 40-40 40 17.9 40 40zm-256 96c0-22.1 17.9-40 40-40s40 17.9 40 40-17.9 40-40 40-40-17.9-40-40z"/></svg>