<svg xmlns="http://www.w3.org/2000/svg" viewBox="0 0 512 512"><!--! Font Awesome Pro 6.1.1 by @fontawesome - https://fontawesome.com License - https://fontawesome.com/license (Commercial License) Copyright 2022 Fonticons, Inc.--><path d="M327.1 80h62.94L309.1 185.2c-5.623 7.25-6.654 17.06-2.625 25.28a24.008 24.008 0 0 0 21.56 13.47h111.1c13.25 0 23.1-10.75 23.1-24s-10.75-24-23.1-24H377.1l81.87-105.2c5.625-7.25 6.656-17.06 2.625-25.28C457.5 37.22 449.1 32 439.1 32H328c-13.25 0-23.1 10.75-23.1 24s9.8 24 22.2 24zm150.4 365.3-71.1-143.1c-8.123-16.31-34.81-16.31-42.94 0l-71.1 143.1c-5.938 11.84-1.125 26.25 10.75 32.19 11.9 5.938 26.25 1.156 32.19-10.75l5.359-10.72h90.34l5.359 10.72c4.219 8.438 12.69 13.28 21.5 13.28 3.594 0 7.25-.812 10.69-2.531C478.6 471.5 483.4 457.1 477.5 445.3zm-114.7-38.2 21.17-42.34 21.17 42.34H362.8zM145.6 39.37c-9.062-9.82-26.19-9.82-35.25 0L14.38 143.4c-9 9.758-8.406 24.96 1.344 33.94C20.35 181.7 26.19 183.8 32 183.8c6.469 0 12.91-2.594 17.62-7.719L104 117.1V456c0 13.2 10.8 24 24 24s24-10.8 24-24.9v-338l54.37 58.95c8.93 9.75 24.13 10.45 33.93 1.35 9.7-9 10.3-24.2 1.3-34l-96-104.03z"/></svg>