<svg xmlns="http://www.w3.org/2000/svg" viewBox="0 0 512 512"><!--! Font Awesome Pro 6.1.1 by @fontawesome - https://fontawesome.com License - https://fontawesome.com/license (Commercial License) Copyright 2022 Fonticons, Inc.--><path d="M416 320h-96c-17.6 0-32 14.4-32 32v96c0 17.6 14.4 32 32 32h96c17.6 0 32-14.4 32-32v-96c0-17.6-14.4-32-32-32zm-16 112h-64v-64h64v64zm80-400H320c-17.67 0-32 14.33-32 32v160c0 17.67 14.33 32 32 32h160c17.67 0 32-14.33 32-32V64c0-17.67-14.3-32-32-32zm-16 176H336V80h128v128zM145.6 39.37c-9.062-9.82-26.19-9.82-35.25 0L14.38 143.4c-9 9.758-8.406 24.96 1.344 33.94C20.35 181.7 26.19 183.8 32 183.8c6.469 0 12.91-2.594 17.62-7.719L104 117.1V456c0 13.2 10.8 24 24 24s24-10.76 24-24.02V117.1l54.37 58.95c8.93 9.75 24.13 10.45 33.93 1.35 9.7-9 10.3-24.2 1.3-34l-96-104.03z"/></svg>