<svg xmlns="http://www.w3.org/2000/svg" viewBox="0 0 448 512"><!--! Font Awesome Pro 6.1.1 by @fontawesome - https://fontawesome.com License - https://fontawesome.com/license (Commercial License) Copyright 2022 Fonticons, Inc.--><path d="M352 512H96c-53.02 0-96-42.98-96-96v-72c0-13.3 10.75-24 24-24 13.26 0 24 10.75 24 24v72c0 26.4 21.6 48 48 48h256c26.4 0 48-21.6 48-48v-72c0-13.25 10.75-24 24-24 13.26 0 24 10.75 24 24v72c0 53-43 96-96 96zM240.4 345.5l136-128c9.688-9.094 10.12-24.28 1.031-33.91-9.062-9.656-24.25-10.12-33.91-1.031L248 272.4V24c0-13.25-10.7-24-24-24s-24 10.75-24 24v248.4l-95.6-89.9c-9.62-9.1-24.81-8.6-33.87 1.1C66.16 188.2 64 194.1 64 200c0 6.375 2.531 12.75 7.562 17.47l136 128c9.238 8.73 23.638 8.73 32.838.03z"/></svg>