<svg xmlns="http://www.w3.org/2000/svg" viewBox="0 0 576 512"><!--! Font Awesome Pro 6.1.1 by @fontawesome - https://fontawesome.com License - https://fontawesome.com/license (Commercial License) Copyright 2022 Fonticons, Inc.--><path d="M551.1 47.67H312c-13.25 0-24 10.76-24 24.02s10.75 24.02 24 24.02h239.1c13.25 0 24-10.76 24-24.02s-9.9-24.02-24-24.02zM360 431.1h-48c-13.25 0-24 10.76-24 24.02S298.8 480 312 480h48c13.25 0 23.1-10.76 23.1-24.02s-9.9-24.88-23.1-24.88zm63.1-127.2H312c-13.25 0-24 10.76-24 24.02s10.75 24.02 24 24.02h111.1c13.25 0 24-10.76 24-24.02s-9.9-24.02-24-24.02zm64-128.1H312c-13.25 0-24 10.76-24 24.02s10.75 24.02 24 24.02h175.1c13.25 0 24-10.76 24-24.02s-9.9-24.02-24-24.02zM145.6 39.37c-9.062-9.82-26.19-9.82-35.25 0L14.38 143.4c-9 9.758-8.406 24.96 1.344 33.94C20.35 181.7 26.19 183.8 32 183.8c6.469 0 12.91-2.594 17.62-7.719L104 117.1V456c0 13.2 10.8 24 24 24s24-10.8 24-24.9v-338l54.37 58.95c8.93 9.75 24.13 10.45 33.93 1.35 9.7-9 10.3-24.2 1.3-34l-96-104.03z"/></svg>