<svg xmlns="http://www.w3.org/2000/svg" viewBox="0 0 512 512"><!--! Font Awesome Pro 6.1.1 by @fontawesome - https://fontawesome.com License - https://fontawesome.com/license (Commercial License) Copyright 2022 Fonticons, Inc.--><path d="M488 232c-13.25 0-24 10.75-24 24 0 57.34-46.66 104-104 104H88c-13.33 0-23.99 10.88-23.99 24 0 3.649.978 10.93 7.021 16.97l104 104C179.7 509.7 185.8 512 191.1 512c19.7 0 24.9-17.2 24.9-24a23.93 23.93 0 0 0-7.031-16.97L145.9 408H360c83.81 0 152-68.19 152-152 0-13.3-10.7-24-24-24zm-336-80h272c13.33 0 23.99-10.88 23.99-24 0-3.649-.978-10.93-7.021-16.97l-104-104C332.3 2.344 326.1 0 320 0c-13.7 0-24 11.21-24 24a23.93 23.93 0 0 0 7.031 16.97L366.1 104H152C68.19 104 0 172.2 0 255.1 0 269.2 10.75 280 24 280s24-10.7 24-24c0-57.3 46.66-104 104-104zm112 176c13.25 0 24-10.75 24-24v-88c0-9.132-7.215-24.01-24.01-24.01-3.67 0-7.335.828-10.71 2.539l-32 16C212.9 214.7 207.1 223.2 207.1 232c0 12.52 10.1 24.01 23.97 24.01 2.681 0 5.399-.455 8.047-1.403V304C240 317.3 250.8 328 264 328z"/></svg>