<svg xmlns="http://www.w3.org/2000/svg" viewBox="0 0 640 512"><!--! Font Awesome Pro 6.1.1 by @fontawesome - https://fontawesome.com License - https://fontawesome.com/license (Commercial License) Copyright 2022 Fonticons, Inc.--><path d="M112 78.06V40c0-13.25 10.7-24.9 24-24.9s24 11.65 24 24.9v96c0 13.3-10.7 24-24 24H40c-13.25 0-24.9-10.7-24.9-24s11.65-24 24.9-24h38.06L15.03 48.97c-9.373-9.37-9.373-24.57 0-33.94 9.37-9.373 24.57-9.373 33.94 0L112 78.06zM256 256c0-35.3 28.7-64 64-64s64 28.7 64 64-28.7 64-64 64-64-28.7-64-64zm250.5-12.1c3.8 7.7 3.8 16.5 0 24.2C481.4 318.4 417.3 400 320 400s-161.4-81.6-186.5-131.9c-3.8-7.7-3.8-16.5 0-24.2C158.6 193.6 222.7 112 320 112s161.4 81.6 186.5 131.9zm-48 12.1c-24.7-43.9-74-96-138.5-96s-113.8 52.1-138.5 96c24.7 43.9 74 96 138.5 96s113.8-52.1 138.5-96zM624.1 48.97 561.9 112H600c13.3 0 24 10.7 24 24s-10.7 24-24 24h-96c-13.3 0-24-10.7-24-24V40c0-13.25 10.7-24.9 24-24.9s24 11.65 24 24.9v38.06l63-63.03c9.4-9.373 24.6-9.373 33.1 0 10.2 9.37 10.2 24.57 0 33.94zM48.97 496.1c-9.37 10.2-24.57 10.2-33.94 0-9.373-8.5-9.373-23.7 0-33.1l63.03-63H40c-13.25 0-24.9-10.7-24.9-24s11.65-24 24.9-24h96c13.3 0 24 10.7 24 24v96c0 13.3-10.7 24-24 24s-24-10.7-24-24v-38.1l-63.03 62.2zm575.13 0c-8.5 10.2-23.7 10.2-33.1 0l-63-62.2V472c0 13.3-10.7 24-24 24s-24-10.7-24-24v-96c0-13.3 10.7-24 24-24h96c13.3 0 24 10.7 24 24s-10.7 24-24 24h-38.1l62.2 63c10.2 9.4 10.2 24.6 0 33.1z"/></svg>