<svg xmlns="http://www.w3.org/2000/svg" viewBox="0 0 640 512"><!--! Font Awesome Pro 6.1.1 by @fontawesome - https://fontawesome.com License - https://fontawesome.com/license (Commercial License) Copyright 2022 Fonticons, Inc.--><path d="M7.029 7.029c9.371-9.372 24.571-9.372 33.941 0L160 126.1V88c0-13.25 10.7-24 24-24s24 10.75 24 24v96c0 13.3-10.7 24-24 24H88c-13.25 0-24-10.7-24-24s10.75-24 24-24h38.1L7.029 40.97c-9.372-9.37-9.372-24.57 0-33.941zM632.1 40.97 513.9 160H552c13.3 0 24 10.7 24 24s-10.7 24-24 24h-96c-13.3 0-24-10.7-24-24V88c0-13.25 10.7-24 24-24s24 10.75 24 24v38.1L599 7.029c9.4-9.372 24.6-9.372 33.1 0 10.2 9.371 10.2 24.571 0 33.941zM384 256c0 35.3-28.7 64-64 64s-64-28.7-64-64 28.7-64 64-64 64 28.7 64 64zm48 72c0-13.3 10.7-24 24-24h96c13.3 0 24 10.7 24 24s-10.7 24-24 24h-38.1l118.2 119c10.2 9.4 10.2 24.6 0 33.1-8.5 10.2-23.7 10.2-33.1 0L480 385.9V424c0 13.3-10.7 24-24 24s-24-10.7-24-24v-96zm-224 96c0 13.3-10.7 24-24 24s-24-10.7-24-24v-38.1L40.97 504.1c-9.37 10.2-24.57 10.2-33.941 0-9.372-8.5-9.372-23.7 0-33.1L126.1 352H88c-13.25 0-24-10.7-24-24s10.75-24 24-24h96c13.3 0 24 10.7 24 24v96z"/></svg>