<svg xmlns="http://www.w3.org/2000/svg" viewBox="0 0 448 512"><!--! Font Awesome Pro 6.1.1 by @fontawesome - https://fontawesome.com License - https://fontawesome.com/license (Commercial License) Copyright 2022 Fonticons, Inc.--><path d="M207 184.1c2.6 3.4 8.5 7.9 17 7.9s14.4-4.461 16.97-7.031l72-72C317.7 108.3 320 102.1 320 96c0-13.71-11.21-24-24-24a23.93 23.93 0 0 0-16.97 7.031L248 110.1V24c0-13.25-10.7-24-24-24s-24 10.75-24 24v86.06l-31.9-31.03c-3.8-4.69-10-7.03-16.1-7.03-13.7 0-24 11.21-24 24a23.93 23.93 0 0 0 7.031 16.97L207 184.1zM240.1 327c-5.2-6-12.4-7-16.1-7-3.682 0-10.94.99-16.97 7.022l-72 72C130.3 403.7 128 409.9 128 416c0 13.71 11.21 24 24 24a23.93 23.93 0 0 0 16.97-7.031L200 401.9V488c0 13.3 10.8 24 24 24s24-10.75 24-24v-86.06l31.03 31.03C283.7 437.7 289.8 440 296 440c18.79 0 24-17.2 24-24a23.93 23.93 0 0 0-7.031-16.97L240.1 327zM424 232H24c-13.25 0-24 10.7-24 23.1S10.75 280 24 280h400c13.25 0 24-10.76 24-24.01S437.3 232 424 232z"/></svg>