<svg xmlns="http://www.w3.org/2000/svg" viewBox="0 0 448 512"><!--! Font Awesome Pro 6.1.1 by @fontawesome - https://fontawesome.com License - https://fontawesome.com/license (Commercial License) Copyright 2022 Fonticons, Inc.--><path d="M417.1 368c-4.437 7.688-12.5 12-20.81 12a23.835 23.835 0 0 1-11.97-3.219L248 297.6V456c0 13.25-10.75 24-23.1 24S200 469.3 200 456V297.6L62.8 376.82C59 378.1 54.88 380 50.81 380c-8.312 0-16.37-4.312-20.81-12-6.625-11.47-2.687-26.16 8.781-32.78L176 256 38.8 176.78C27.31 170.2 23.38 155.5 29.1 144c7.49-11.4 22.18-15.5 33.68-8.8L200 214.4V56c0-13.25 10.8-24 24-24s24 10.75 24 24v158.4l137.2-79.22c11.6-6.68 26.2-2.58 31.9 8.82 6.625 11.47 2.688 26.16-8.781 32.78L271.1 256l137.2 79.22c12.4 6.58 16.3 21.28 8.8 32.78z"/></svg>