<svg xmlns="http://www.w3.org/2000/svg" viewBox="0 0 448 512"><!--! Font Awesome Pro 6.1.1 by @fontawesome - https://fontawesome.com License - https://fontawesome.com/license (Commercial License) Copyright 2022 Fonticons, Inc.--><path d="M397.9 255.9c53.63 83.37 66.75 161.2 27.13 200.7-61.13 60.1-182.8-15.25-201-26.1-18.12 11.62-140 87.99-201 26.1-39.5-39.5-26.5-117.4 27.12-200.7C-3.52 172.4-16.52 94.66 22.98 55.03c39.63-39.5 117.5-26.5 201 27.12 83.5-53.62 161.4-66.75 201-27.12S451.5 172.4 397.9 255.9zM80.73 213.3c29.5-37.25 63.37-70.99 100.7-100.6C139.6 88.66 79.36 66.78 56.98 89.03 40.23 105.8 46.36 153.7 80.73 213.3zM181.5 398.9c-37.38-29.37-71.25-63.12-100.7-100.5C46.42 358.02 40.3 406 57.05 422.6c16.68 16.8 64.65 10.7 124.45-23.7zm156.6-143c-32.5-43.1-71.25-82.87-115-115.4a546.35 546.35 0 0 0-115 115.4c34 45.62 70 81.37 115 114.7 46.3-33.6 82.1-69.5 115-114.7zm-83-.8c0 17.62-14.25 32-32 32s-32-14.38-32-32c0-17.75 14.25-32.03 32-32.03 18.6.83 32 15.13 32 32.03zm112.1 43.3c-29.5 37.37-63.37 71.12-100.7 100.5 59.75 34.37 107.7 40.5 124.5 23.75C407.7 406 401.6 358 367.2 298.4zM266.5 112.7a611.981 611.981 0 0 1 100.7 100.6c34.38-59.62 40.5-107.5 23.75-124.2-22.25-22.32-82.35-.57-124.45 23.6z"/></svg>