<svg xmlns="http://www.w3.org/2000/svg" viewBox="0 0 576 512"><!--! Font Awesome Pro 6.1.1 by @fontawesome - https://fontawesome.com License - https://fontawesome.com/license (Commercial License) Copyright 2022 Fonticons, Inc.--><path d="M512 32H64C28.65 32 0 60.65 0 96v320c0 35.35 28.65 64 64 64h448c35.35 0 64-28.65 64-64V96c0-35.35-28.7-64-64-64zm16 384c0 8.822-7.178 16-16 16H64c-8.822 0-16-7.178-16-16V96c0-8.822 7.178-16 16-16h448c8.822 0 16 7.178 16 16v320zM213.5 173.3c-8.125-16.25-34.81-16.25-42.94 0l-72 144c-5.938 11.86-1.125 26.27 10.75 32.2 11.88 5.969 26.28 1.125 32.19-10.73l9.3-18.77h82.4l9.367 18.73C246.8 347.1 255.2 352 264 352c3.594 0 7.25-.813 10.69-2.531 11.88-5.938 16.69-20.34 10.75-32.2L213.5 173.3zM170.8 280l21.2-42.3 21.2 42.3h-42.4zM384 160h-56c-13.25 0-24 10.75-24 24v144c0 13.25 10.75 24 24 24h56c52.94 0 96-43.06 96-96s-43.1-96-96-96zm0 144h-32v-96h32c26.47 0 48 21.53 48 48s-21.5 48-48 48z"/></svg>