<svg xmlns="http://www.w3.org/2000/svg" viewBox="0 0 448 512"><!--! Font Awesome Pro 6.1.1 by @fontawesome - https://fontawesome.com License - https://fontawesome.com/license (Commercial License) Copyright 2022 Fonticons, Inc.--><path d="M320.6 224H424c13.3 0 24 10.7 24 24s-10.7 24-24 24h-83.2l20.1 48H424c13.3 0 24 10.7 24 24s-10.7 24-24 24h-42.9l33 78.7c5.2 12.2-.6 25.4-12.8 31.4-12.2 5.2-26.3-.6-31.4-12.8L329 368H118.1l-39.97 97.3c-5.14 12.2-19.2 18-31.42 12.8-12.22-6-17.97-19.2-12.84-31.4L66.93 368H24c-13.25 0-24-10.7-24-24s10.75-24 24-24h63.09l20.11-48H24c-13.25 0-24-10.7-24-24s10.75-24 24-24h103.4l74.5-177.29C205.6 37.8 214.3 32 224 32c9.7 0 18.4 5.8 22.1 14.71L320.6 224zm-52.1 0L224 117.1 179.5 224h89zm-109.2 48-20.1 48h169.6l-20.1-48H159.3z"/></svg>