<svg xmlns="http://www.w3.org/2000/svg" viewBox="0 0 512 512"><!--! Font Awesome Pro 6.1.1 by @fontawesome - https://fontawesome.com License - https://fontawesome.com/license (Commercial License) Copyright 2022 Fonticons, Inc.--><path d="M512 142.3C512 70.25 455.56 0 371.5 0c-39.21 0-78.71 15.73-108.1 45.17-31 31.14-71.3 52.13-112.8 63.73C115.4 118.6 0 170.8 0 306.7 0 420.5 92.76 512 205.1 512c52.37 0 104.7-20.04 144.7-60.13 67.65-67.87 42.56-130 115.1-203.7l4.357-4.371C498 215.8 512 179.1 512 142.3zm-48.9 0c0 25.29-10.03 49.74-27.9 67.67l-4.357 4.371C334.2 312.2 366.7 464 205.1 464 136.59 464 48 408.84 48 306.7c0-73.22 50.04-133.6 115.3-151.5C295.8 118.9 291.1 48 371.5 48c58.3 0 91.6 49.93 91.6 94.3zM247 191.1c-60.51 0-119.1 58.66-119.1 119.3 0 28.31 17.39 72.66 72.49 72.66 60.51 0 119.1-58.66 119.1-119.3.01-27.46-17.39-72.66-72.49-72.66z"/></svg>