<svg xmlns="http://www.w3.org/2000/svg" viewBox="0 0 384 512"><!--! Font Awesome Pro 6.1.1 by @fontawesome - https://fontawesome.com License - https://fontawesome.com/license (Commercial License) Copyright 2022 Fonticons, Inc.--><path d="M384 192c0-21.5-10.27-37.09-16.4-46.41-.154-.236-.31-.47-.467-.703.028-.408.055-.815.076-1.223.614-11.01 1.66-29.42-8.91-47.69-10.63-18.38-27.22-26.73-37.12-31.71-.314-.158-.63-.313-.945-.469a208.83 208.83 0 0 0-.47-.949c-4.972-9.898-13.31-26.48-31.7-37.13-10.8-6.25-23.07-9.271-37.54-9.271-3.32 0-6.73.164-10.14.353-.413.022-.827.047-1.24.07a92.227 92.227 0 0 0-.712-.472C229.1 10.27 213.5 0 192 0c-21.5 0-37.1 10.27-46.4 16.4-.2.16-.5.31-.7.47-.4-.03-.8-.05-1.2-.08-3.5-.18-6.9-.35-10.2-.35-14.47 0-26.72 3.016-37.52 9.266-18.39 10.64-26.74 27.22-31.71 37.12-.158.315-.313.629-.467.943-.314.155-.63.309-.945.467C52.96 69.21 36.37 77.55 25.73 95.95c-10.58 18.25-9.54 36.65-8.92 47.65.021.408.049.818.076 1.225-.166.275-.316.475-.476.775C10.27 154.9 0 170.5 0 192s10.27 37.09 16.41 46.41c.15.19.31.49.46.69-.02.4-.05.8-.07 1.2-.62 11-1.67 29.5 8.91 47.7 10.65 18.39 27.23 26.74 37.12 31.71.316.158.633.315.95.469.153.318.31.635.468.95 4.97 9.897 13.32 26.48 31.7 37.12.81.47 1.758.595 2.587 1.029l-27.79 133.4c-2.727 13.09 10.86 23.55 22.82 17.57L192 461.1l98.44 49.22c11.96 5.98 25.54-4.48 22.82-17.57l-27.79-133.4c.814-.428 1.756-.553 2.555-1.016 18.4-10.64 26.74-27.23 31.72-37.13l.465-.938c.312-.154.627-.308.941-.466 9.898-4.973 26.49-13.32 37.13-31.71 10.58-18.27 9.531-36.68 8.92-47.69-.023-.41-.05-.819-.078-1.23.16-.236.319-.474.477-.712C373.7 229.1 384 213.5 384 192zm-64.9 34.3c-3.154 11.81 2.711 27.37-3.275 37.71-6.07 10.49-22.54 13.14-31.05 21.66-8.508 8.51-11.17 24.97-21.66 31.04-3.916 2.266-8.58 2.832-13.51 2.832-4.916 0-10.09-.564-15.04-.564-3.188 0-6.283.234-9.156 1.002C214.9 323 204.4 336 192 336c-12.38 0-22.9-12.95-34.32-16.01-2.88-.79-5.98-1.89-9.18-1.89-4.945 0-10.11.56-15.02.56-4.932 0-9.602-.566-13.52-2.834C109.5 310.6 106.8 294.2 98.31 285.7c-8.51-8.5-24.97-11.2-31.04-21.7-5.98-10.3-.11-25.9-3.26-37.7C60.96 214.9 48 204.4 48 192c0-12.38 12.96-22.9 16.01-34.32 3.154-11.81-2.711-27.37 3.277-37.71C73.36 109.5 89.82 106.8 98.34 98.31c8.51-8.508 11.17-24.97 21.66-31.04 3.916-2.266 8.58-2.832 13.51-2.832 4.916 0 10.09.565 15.04.565 3.188 0 6.283-.235 9.156-1.002C169.1 60.95 179.6 48 192 48c12.39 0 22.9 12.95 34.32 16.01 2.877.77 5.977 1.004 9.17 1.004 4.945 0 10.11-.56 15.02-.56 4.932 0 9.604.566 13.52 2.834 10.49 6.068 13.14 22.54 21.66 31.05 8.508 8.512 24.97 11.17 31.04 21.66 5.982 10.34.115 25.9 3.27 37.71C323.1 169.1 336 179.6 336 192c0 12.4-13 22.9-16.9 34.3zM192 128c-35.3 0-64 28.6-64 64 0 35.33 28.65 64 64 64s64-28.67 64-64c0-35.4-28.7-64-64-64z"/></svg>