<svg xmlns="http://www.w3.org/2000/svg" viewBox="0 0 384 512"><!--! Font Awesome Pro 6.1.1 by @fontawesome - https://fontawesome.com License - https://fontawesome.com/license (Commercial License) Copyright 2022 Fonticons, Inc.--><path d="M334.6 312c8.174-5.266 17.02-12.56 23.64-23.1 10.58-18.27 9.528-36.67 8.917-47.69-.023-.41-.05-.818-.078-1.229.16-.236.318-.475.476-.713C373.7 229.1 383.1 213.5 383.1 192s-10.27-37.09-16.4-46.41c-.154-.236-.31-.47-.467-.703.028-.408.055-.815.076-1.223.614-11.01 1.663-29.42-8.907-47.68-10.63-18.38-27.22-26.74-37.12-31.71-.314-.158-.63-.313-.945-.469a208.83 208.83 0 0 0-.47-.949c-4.972-9.898-13.32-26.49-31.71-37.13-10.8-6.25-23.06-9.267-37.54-9.267-3.32 0-6.73.164-10.14.353-.413.022-.827.047-1.24.07a92.227 92.227 0 0 0-.711-.472C229.1 10.27 213.5 0 192 0c-21.5 0-37.1 10.27-46.4 16.4-.2.16-.5.31-.7.47-.4-.03-.8-.05-1.2-.08-3.5-.18-6.9-.35-10.2-.35-14.47 0-26.72 3.012-37.52 9.262C77.59 36.34 69.24 52.93 64.27 62.83c-.158.315-.313.629-.467.943-.314.155-.63.309-.945.467C52.96 69.21 36.37 77.56 25.72 95.95c-10.57 18.25-9.53 36.65-8.91 47.65.021.408.049.818.076 1.225-.166.275-.316.475-.476.775C10.27 154.9 0 170.5 0 192s10.27 37.09 16.41 46.41c.15.19.31.49.46.69-.02.4-.05.8-.07 1.2-.62 11-1.67 29.4 8.9 47.7 6.84 11.81 16.05 19.24 24.44 24.52L1.72 433.22a23.982 23.982 0 0 0 3.875 24.25c4.619 5.512 11.39 8.621 18.39 8.621a23.69 23.69 0 0 0 4.732-.473l45.19-9.035 21.43 42.27C99.46 507 107.6 512 116.7 512c.344 0 .664-.012 1.008-.027 9.5-.375 17.65-6.082 21.24-14.88L184.6 384h15.65l44.8 113.1c3.594 8.797 11.74 14.5 21.24 14.88.31-.88-.19.02 1.01.02 9.094 0 17.23-4.973 21.35-13.14l21.43-42.28 45.19 9.035c1.576.32 3.16.473 4.732.473 7.008 0 13.77-3.11 18.39-8.621a23.98 23.98 0 0 0 3.875-24.25L334.6 312zm-17.9-48c-6.07 10.49-22.54 13.14-31.05 21.66-8.508 8.51-11.17 24.97-21.66 31.04-3.916 2.266-8.58 2.832-13.51 2.832-4.916 0-10.09-.564-15.04-.564-3.188 0-6.283.234-9.156 1.002C214.9 323 204.4 336 192 336c-12.38 0-22.9-12.95-34.32-16.01-2.88-.79-5.98-1.89-9.18-1.89-4.945 0-10.11.56-15.02.56-4.932 0-9.602-.566-13.52-2.834C109.5 310.6 106.8 294.2 98.31 285.7c-8.51-8.5-24.97-11.2-31.04-21.7-5.98-10.3-.11-25.9-3.26-37.7C60.96 214.9 48 204.4 48 192c0-12.38 12.96-22.9 16.01-34.32 3.154-11.81-2.711-27.37 3.277-37.71C73.36 109.5 89.82 106.8 98.34 98.31c8.51-8.508 11.17-24.97 21.66-31.04 3.916-2.266 8.58-2.832 13.51-2.832 4.916 0 10.09.565 15.04.565 3.188 0 6.283-.235 9.156-1.002C169.1 60.95 179.6 48 192 48c12.39 0 22.9 12.95 34.32 16.01 2.877.77 5.977 1.004 9.17 1.004 4.945 0 10.11-.56 15.02-.56 4.932 0 9.604.566 13.52 2.834 10.49 6.068 13.14 22.54 21.66 31.05 8.508 8.512 24.97 11.17 31.04 21.66 5.982 10.34.115 25.9 3.27 37.71C323.1 169.1 336 179.6 336 192c0 12.38-12.95 22.9-16.01 34.32-3.19 11.78 2.71 27.38-3.29 37.68zM192 128c-35.3 0-64 28.6-64 64 0 35.33 28.65 64 64 64s64-28.67 64-64c0-35.4-28.7-64-64-64z"/></svg>