<svg xmlns="http://www.w3.org/2000/svg" viewBox="0 0 640 512"><!--! Font Awesome Pro 6.1.1 by @fontawesome - https://fontawesome.com License - https://fontawesome.com/license (Commercial License) Copyright 2022 Fonticons, Inc.--><path d="M9.373 434.7c-12.5 12.5-12.5 32.76 0 45.26l22.63 22.63C38.26 508.9 46.45 512 54.64 512s16.38-3.125 22.63-9.375l231.2-231.2L240.6 203.6 9.373 434.7zM525.7 160l-52.94-52.94 29.82-29.82c12.5-12.5 12.5-32.76 0-45.26L479.96 9.36C473.8 3.124 465.6 0 457.4 0s-16.38 3.124-22.63 9.374l-29.82 29.82-29.81-29.81C368.89 3.134 360.7.009 352.51.009s-16.38 3.125-22.63 9.375L233.4 105.9c-12.5 12.5-12.5 32.7 0 45.2L384 301.7V416l31.1-.003C539.7 416 640 315.7 640 192v-32H525.7zM432 367.3v-85.4L278.6 128.5l73.87-73.85L505.9 208h85.41C583.7 292.3 516.3 359.6 432 367.3z"/></svg>