<svg xmlns="http://www.w3.org/2000/svg" viewBox="0 0 448 512"><!--! Font Awesome Pro 6.1.1 by @fontawesome - https://fontawesome.com License - https://fontawesome.com/license (Commercial License) Copyright 2022 Fonticons, Inc.--><path d="m359.7 216.2 42.8-30c14.5-10.1 18-30.1 7.799-44.6-10.1-14.5-30.1-18-44.6-7.801l-42.8 30C264 205.1 184 205.1 125.1 163.8l-42.8-30c-14.5-10.2-34.5-6.6-44.6 7.801C27.5 156.1 31 176 45.5 186.2l42.8 30c17.4 12.2 36.2 21.4 55.6 28.5v86.26L95.1 396c-9.102 11.4-9.301 27.5-.602 39.2l48 64C148.8 507.6 158.4 512 168.1 512c6.701 0 13.4-2.1 19.2-6.4 14.2-10.6 17-30.7 6.4-44.8l-33.1-44.2 18.3-22.9c11.3 9 25.2 14.2 39.8 14.2h10.1c14.6 0 28.5-5.201 39.8-14.2l18.3 22.9-33.1 44.2c-10.6 14.1-7.799 34.2 6.4 44.8 6.7 4.3 13.4 6.4 20.1 6.4 9.799 0 19.3-4.4 25.6-12.8l48-64c8.799-11.7 8.5-27.8-.602-39.2l-48.1-65.25V244.7c18.402-7.1 37.102-16.3 54.502-28.5zM272.1 333l-29.06 29.08c-3.84 3.82-8.84 5.92-14.14 5.92h-9.6c-5.359 0-10.36-2.078-14.11-5.875l-29.08-29.08V312h96v21zM224 159.1c44.2 0 79.99-35.8 79.99-79.1C303.1 35.8 268.2 0 224 0c-44.2 0-80 35.8-80 79.1 0 45.1 35.8 80 80 80z"/></svg>