<svg xmlns="http://www.w3.org/2000/svg" viewBox="0 0 512 512"><!--! Font Awesome Pro 6.1.1 by @fontawesome - https://fontawesome.com License - https://fontawesome.com/license (Commercial License) Copyright 2022 Fonticons, Inc.--><path d="M138.9 22.92 256 192h144v-40c0-30.9 25.1-56 56-56h32c13.3 0 24 10.7 24 24s-10.7 24-24 24h-32c-4.4 0-8 3.6-8 8v72c0 27.1-6.1 55.6-17.7 81.1-11.7 25.6-28.6 48.5-49.6 67.6-20.9 19-45.6 33.9-72.4 44-26.9 10.1-55.5 15.3-84.3 15.3-28.8 0-57.4-5.2-84.3-15.3-26.8-10.1-51.46-25-72.44-44-20.98-19.1-37.9-42-49.54-67.6C6.07 279.6 0 251.1 0 224v-32h.14c2.602-74.1 41.2-139.05 98.85-177.9 13.21-8.925 30.81-4.316 39.91 8.82zM61.4 285.2c8.84 19.4 21.81 37.1 38.15 51.9 16.35 14 35.75 26.7 57.05 34.7C178 379.9 200.9 384 224 384c23.1 0 46-4.1 67.4-12.2 21.3-8 40.7-20.7 57.1-34.7 16.3-14.8 29.3-32.5 38.1-51.9 2-4.3 3.7-8.7 5.3-13.2 3.6-10.4 6-21.1 7.2-32H48.88c1.2 10.9 3.62 21.6 7.23 32 1.54 4.5 3.31 8.9 5.29 13.2zM32 464c0-26.5 21.49-48 48-48 26.5 0 48 21.5 48 48s-21.5 48-48 48c-26.51 0-48-21.5-48-48zm384 0c0 26.5-21.5 48-48 48s-48-21.5-48-48 21.5-48 48-48 48 21.5 48 48z"/></svg>