<svg xmlns="http://www.w3.org/2000/svg" viewBox="0 0 448 512"><!--! Font Awesome Pro 6.1.1 by @fontawesome - https://fontawesome.com License - https://fontawesome.com/license (Commercial License) Copyright 2022 Fonticons, Inc.--><path d="M320 80h-8V56c0-30.88-25.1-56-56-56h-64c-30.9 0-56 25.12-56 56v24h-8C57.25 80 0 137.25 0 208v240c0 35.38 28.62 64 64 64h320c35.38 0 64-28.62 64-64V208c0-70.8-57.2-128-128-128zM184 56c0-4.38 3.6-8 8-8h64c4.375 0 8 3.625 8 8v24h-80V56zm136 408H128v-64h192v64zm0-112H128v-32c0-17.62 14.38-32 32-32h128c17.62 0 32 14.38 32 32v32zm80 96c0 8.875-7.125 16-16 16h-16V320c0-44.13-35.88-80-80-80H160c-44.12 0-80 35.88-80 80v144H64c-8.875 0-16-7.125-16-16V208c0-44.1 35.88-80 80-80h192c44.13 0 80 35.88 80 80v240zm-96-288H143.1c-8 0-15.1 7.1-15.1 15.1V192c0 8.875 7.125 16 16 16h160c8.9 0 16-7.1 16-16v-16c0-8.9-7.1-16-16-16z"/></svg>