<svg xmlns="http://www.w3.org/2000/svg" viewBox="0 0 512 512"><!--! Font Awesome Pro 6.1.1 by @fontawesome - https://fontawesome.com License - https://fontawesome.com/license (Commercial License) Copyright 2022 Fonticons, Inc.--><path d="M479.8 64c-7 0-14.14 2.307-20.29 7.406L288 227.9V96.03C288 76.81 272.3 64 255.8 64c-7 0-14.14 2.307-20.29 7.406L64 227.9V88.03c0-13.25-10.74-24-24-24-13.25 0-24 10.74-24 23.1v335.9c0 13.26 10.75 24 24 24 13.26 0 24-10.74 24-24V285.2l171.5 155.3c6.1 5.2 13.3 7.5 20.3 7.5 16.5 0 32.2-12.8 32.2-32.9V285.2l171.5 155.3c6.1 5.2 13.3 7.5 20.3 7.5 16.5 0 32.2-12.8 32.2-32.9V96.03C512 76.81 496.3 64 479.8 64zM240 379.9 103.8 256.5 240 132.3v247.6zm224 0L327.8 256.5 464 132.3v247.6z"/></svg>