<svg xmlns="http://www.w3.org/2000/svg" viewBox="0 0 576 512"><!--! Font Awesome Pro 6.1.1 by @fontawesome - https://fontawesome.com License - https://fontawesome.com/license (Commercial License) Copyright 2022 Fonticons, Inc.--><path d="m564.7 99.68-77.83-86.8C479.4 4.459 469 0 458.5 0c-5.193 0-10.42 1.1-15.34 3.36l-92.75 42.99c-51.13 23.69-93.34 64.03-122.1 116.6L207.7 200.7c-27.11 49.56-66.8 87.5-114.8 109.8l-68.88 31.94C12.16 347.926 3.74 358.96.93 372.67c-2.938 14.35.906 29.18 10.31 39.65l77.83 86.8C96.64 507.5 106.1 512 117.5 512a36.61 36.61 0 0 0 15.33-3.375l92.75-42.99c51.13-23.69 93.34-64.03 122.1-116.6l20.66-37.76c27.11-49.56 66.8-87.5 114.8-109.8l68.88-31.94c11.86-5.484 20.28-16.52 23.09-30.23C577.1 124.1 574.1 110.1 564.7 99.68zM113.1 354c57.34-26.61 104.6-71.65 136.7-130.3l20.66-37.76c23.81-43.53 58.46-76.77 100.2-96.1l85.36-39.57 22.27 24.84-70.09 32.49c-52.6 24.4-96.1 65.9-125.7 120l-20.6 37.8c-26.28 48.05-64.7 84.81-111.2 106.3l-78.69 36.46-22.21-24.77L113.1 354zm349.8-196.9c-57.34 26.61-104.6 71.65-136.7 130.3l-20.66 37.76c-23.81 43.54-58.46 76.77-100.2 96.11l-85.36 39.57-25.62-28.57 69.81-32.35c52.7-24.42 96.19-65.92 125.8-120l20.66-37.75c26.28-48.03 64.7-84.8 111.1-106.3l78.9-36.59 25.56 28.5-63.29 29.32z"/></svg>