<svg xmlns="http://www.w3.org/2000/svg" viewBox="0 0 576 512"><!--! Font Awesome Pro 6.1.1 by @fontawesome - https://fontawesome.com License - https://fontawesome.com/license (Commercial License) Copyright 2022 Fonticons, Inc.--><path d="M543 102.9c-3.711-12.51-16.92-19.61-29.53-15.92l-18.1 5.362c-10.82-19.36-27.01-34.81-46.47-44.69l4.729-18.08c3.309-12.64-4.299-25.55-16.99-28.83-12.76-3.309-25.67 4.295-28.96 16.92L403 35.44a110.76 110.76 0 0 0-22.38 1.457c-14.47 2.4-28.54 5.869-42.41 9.828l-5.295-14.82c-4.406-12.3-17.1-18.81-30.34-14.34-12.35 4.371-18.8 17.88-14.41 30.2l5.211 14.59C273 71.05 253.6 81.62 235.3 93.57l-9.4-12.56c-8.8-10.45-22.8-12.59-33.3-4.8-10.5 7.82-12.7 22.62-4.8 33.09l9.324 12.43C180.3 135.9 164.8 151.7 150.7 168.6l-12.7-9.3c-10.5-7.7-25.4-5.4-33.2 5.2-7.748 10.54-5.428 25.33 5.164 33.03l12.64 9.198C110.8 225.1 100.5 244.5 92.01 264.9l-14.76-5c-12.45-4.3-25.92 2.3-30.19 14.6-4.28 12.4 2.32 25.8 14.72 30.1l14.91 5.1c-3.502 12.62-6.604 25.41-8.801 38.54-1.477 8.812-1.555 17.48-.941 26.01l-17.95 5.308c-12.59 3.709-19.74 16.87-16 29.38 3.062 10.28 12.51 16.91 22.75 16.91 2.242 0 4.514-.307 6.77-.984l18.13-5.36c10.55 18.97 26.51 34.53 46.35 44.63l-4.771 18.28c-3.293 12.63 4.33 25.53 17.02 28.83 1.953.556 3.953.756 5.953.756 10.56 0 20.19-7.049 22.98-17.7l4.72-18c1.482.059 2.99.371 4.465.371 21.06 0 41.01-6.182 58.15-16.77l12.98 13.31c4.654 4.771 10.84 7.172 17.04 7.172 5.969 0 11.92-2.217 16.54-6.68 9.416-9.096 9.633-24.06.494-33.43l-13.09-13.43c8.29-12.5 14.44-26.66 17.07-42.38 1.09-6.512 2.89-12.75 4.744-18.96l12.4 5.803a23.777 23.777 0 0 0 10.08 2.246c8.922 0 17.46-5.018 21.51-13.59 5.582-11.8.479-25.89-11.4-31.45l-12.36-5.78c12.27-18.23 28.19-33.6 46.82-45.38l5.481 12.37c3.928 8.833 12.63 14.1 21.75 14.1 3.201 0 6.45-.647 9.572-2 11.1-5.28 17.44-19.22 12.15-31.18L401.9 258.5c5.053-1.361 9.956-3.085 15.2-3.958 17.15-2.84 32.44-9.771 45.71-19.17l13.95 12.58c4.547 4.109 10.25 6.125 15.94 6.125 6.463 0 12.91-2.617 17.6-7.773 8.814-9.68 8.072-24.62-1.654-33.38l-14.02-12.64c10.67-18.53 15.89-40.05 14.23-62.57l18.17-5.381C539.6 128.6 546.7 115.4 543 102.9zm-90.9 78.3c-9.934 13.91-24.69 23.11-41.56 25.92C322.7 221.8 253.8 290.7 239.1 378.5c-5.164 30.1-31.65 53.5-62.98 53.5-3.539 0-7.104-.297-10.67-.894-16.86-2.807-31.62-12.01-41.55-25.92-9.936-13.91-13.86-30.85-11.05-47.72 23.63-141.8 134.8-252.1 276.7-276.6a64.145 64.145 0 0 1 10.62-.891c30.8 0 57.86 23 62.95 53.51C465.9 150.4 462 167.3 452.1 181.2zM192 288c-17.67 0-31.1 14.33-31.1 31.1s14.33 31.1 31.1 31.1 31.1-14.33 31.1-31.1S209.7 288 192 288zm80-104c-13.25 0-23.92 10.74-23.92 23.1 0 13.25 10.67 24 23.92 24 13.26 0 23.1-10.75 23.1-23.1 0-13.3-9.8-24-23.1-24z"/></svg>