<svg xmlns="http://www.w3.org/2000/svg" viewBox="0 0 640 512"><!--! Font Awesome Pro 6.1.1 by @fontawesome - https://fontawesome.com License - https://fontawesome.com/license (Commercial License) Copyright 2022 Fonticons, Inc.--><path d="m511.1 399.1.9 32h96l-.003-32.02c0-26.51-21.49-48.01-48-48.01S511.1 373.5 511.1 399.1zm32.9 96c0 8.844 7.153 16 15.1 16s16-7.159 16-16l.118-47.97-32.23.027L544 495.1zm31.1-339.2C575.1 37.1 472.3 0 414.5 0 314.4 0 184.9 85.81 184.9 220.1c0 29.23 7.266 57.54 22.34 82.25l-68.01 54.45c-7.625-6.672-17.24-10.24-26.88-10.24-8.396 0-16.81 2.704-23.94 8.416l-68.21 54.44c-.892.71-21.09 15.4-21.09 43.88 0 12.64 4.221 24.8 12.25 34.9l2.219 2.781C25.53 504.8 41.83 512 58.32 512c12.21 0 24.52-3.969 34.82-12.19l68.21-54.44c14.59-11.66 15.05-27.68 15.05-30.28 0-.172-.002-.286-.002-.335 0-7.332-2.37-14.32-6.115-20.65l69.11-55.34c.092-.074.127-.186.217-.26 29.54 24.69 67.72 37.32 108.3 37.32C438.6 375.8 575.1 297.5 575.1 155.9zM62.75 462.3a7.765 7.765 0 0 1-4.94 1.764c-2.377 0-4.749-1.07-6.372-3.108l-2.219-2.75a8.037 8.037 0 0 1-1.762-5.072c0-3.418 2.121-5.492 3.012-6.209l62.03-49.47 12.25 15.38L62.75 462.3zm465.55-306c0 45.36-24.35 94.99-68.73 130.4-34.59 27.56-74.85 41.37-111.8 41.37-38.56 0-114.2-22.5-114.2-108.3 0-81.44 81.94-171.7 180.4-171.7h1.904C484.2 48.86 528.3 95.64 528.3 156.3zM624 495.1c0-1.671-.263-3.371-.819-5.043l-14.31-42.94-32.75.033c0 .01 0 0 0 0s0 .001 0 0c0-.007 0 0 0 0s0-.01 0 0c0 1.637.152 3.394.696 5.03l15.1 48.01c2.25 6.689 8.5 10.94 15.19 10.94C616.1 511.1 624 504.7 624 495.1zm-127.2-4.2a15.98 15.98 0 0 0-.819 5.043c0 8.709 7.03 16.02 16 16.02 6.689 0 12.94-4.251 15.19-10.94l16-48.01c.544-1.636.696-3.366.696-5.003 0-.01 0 0 0 0s0-.007 0 0c0 .002 0 0 0 0s0 .01 0 0l-32.75-.06L496.8 490.9z"/></svg>