<svg xmlns="http://www.w3.org/2000/svg" viewBox="0 0 448 512"><!--! Font Awesome Pro 6.1.1 by @fontawesome - https://fontawesome.com License - https://fontawesome.com/license (Commercial License) Copyright 2022 Fonticons, Inc.--><path d="M112 160v-48C112 50.14 162.1 0 224 0s112 50.14 112 112v48h64c26.5 0 48 21.5 48 48v208c0 53-43 96-96 96H96c-53.02 0-96-43-96-96V208c0-26.5 21.49-48 48-48h64zm48 0h128v-48c0-35.35-28.7-64-64-64s-64 28.65-64 64v48zM48 208v208c0 26.5 21.49 48 48 48h256c26.5 0 48-21.5 48-48V208h-64v56c0 13.3-10.7 24-24 24s-24-10.7-24-24v-56H160v56c0 13.3-10.7 24-24 24s-24-10.7-24-24v-56H48z"/></svg>