<svg xmlns="http://www.w3.org/2000/svg" viewBox="0 0 640 512"><!--! Font Awesome Pro 6.1.1 by @fontawesome - https://fontawesome.com License - https://fontawesome.com/license (Commercial License) Copyright 2022 Fonticons, Inc.--><path d="M208 240c-35.29 0-64 28.71-64 64s28.71 64 64 64 64-28.71 64-64c0-35.3-28.7-64-64-64zm0 80c-8.8 0-16-7.2-16-16s7.2-16 16-16 16 7.2 16 16-7.2 16-16 16zm0-224C93.13 96 0 189.1 0 304s93.13 208 208 208 208-93.1 208-208S322.9 96 208 96zm0 368c-88.22 0-160-71.78-160-160s71.78-160 160-160 160 71.78 160 160-71.8 160-160 160zm-48-240c8.836 0 16-7.164 16-16 0-8.8-7.2-16-16-16s-16 7.2-16 16 7.2 16 16 16zm-64 32c-8.84 0-16 7.2-16 16s7.16 16 16 16 16-7.164 16-16c0-8.8-7.2-16-16-16zm144 144c-8.8 0-16 7.2-16 16 0 8.836 7.164 16 16 16s16-7.2 16-16-7.2-16-16-16zm64-32c-8.8 0-16 7.2-16 16 0 8.836 7.164 16 16 16s16-7.2 16-16-7.2-16-16-16zm0-144c-8.8 0-16 7.2-16 16s7.2 16 16 16 16-7.2 16-16-7.2-16-16-16zM128 368c-8.836 0-16 7.162-16 16 0 8.836 7.164 16 16 16s16-7.164 16-16c0-8.8-7.2-16-16-16zm305.9-144.4c5.346 15.02 9.21 30.7 11.48 46.92C474.3 264.4 495.1 238.7 495.1 208c0-35.3-28.69-64-64-64-13.33 0-25.76 4.163-36.02 11.16a239.996 239.996 0 0 1 26.05 40.63C424.8 193.5 428.2 192 432 192c8.8 0 16 7.2 16 16 0 8.2-6.2 14.6-14.1 15.6zM432 0c-63.46 0-120.2 28.52-158.4 73.33 17.2 4.887 33.68 11.48 49.07 19.88 2.895-5.711 6.201-11.07 11.27-14.62 13.42-9.377 34.64-5.072 50.77-10.1C400.3 63.63 414.8 48 431.1 48s31.68 15.63 47.25 20.5c16.11 5.039 37.34.719 50.75 10.1 13.55 9.473 15.79 30.24 25.66 43.23 9.777 12.89 29.73 21.28 35.01 36.72 5.93 14.95-4.87 32.95-4.87 49.45 0 16.51 10.8 34.51 5.76 49.44-5.279 15.47-25.23 23.86-35.01 36.72-9.871 13.01-12.11 33.78-25.66 43.25-13.41 9.359-34.67 5.055-50.75 10.1-13.24 4.131-25.76 15.49-39.76 18.98-4.617 17.13-10.95 33.54-19.04 48.93 3.86.18 7.66.58 11.56.58 114.9 0 208-93.13 208-208S546.9 0 432 0z"/></svg>