<svg xmlns="http://www.w3.org/2000/svg" viewBox="0 0 576 512"><!--! Font Awesome Pro 6.1.1 by @fontawesome - https://fontawesome.com License - https://fontawesome.com/license (Commercial License) Copyright 2022 Fonticons, Inc.--><path d="M128 96c0-53.02 42.1-96 96-96 53 0 96 42.98 96 96v64h64c35.3 0 64 28.7 64 64h-48c0-8.8-7.2-16-16-16H64c-8.84 0-16 7.2-16 16v192c0 8.8 7.16 16 16 16h96v48H64c-35.35 0-64-28.7-64-64V224c0-35.3 28.65-64 64-64h64V96zm48 64h96V96c0-26.51-21.5-48-48-48s-48 21.49-48 48v64zm336 96c35.3 0 64 28.7 64 64v128c0 35.3-28.7 64-64 64H256c-35.3 0-64-28.7-64-64V320c0-35.3 28.7-64 64-64h256zm-192 80c0-8.8-7.2-16-16-16s-16 7.2-16 16v16c0 53 42.1 96 96 96 53 0 96-43 96-96v-16c0-8.8-7.2-16-16-16s-16 7.2-16 16v16c0 35.3-28.7 64-64 64s-64-28.7-64-64v-16z"/></svg>