<svg xmlns="http://www.w3.org/2000/svg" viewBox="0 0 512 512"><!--! Font Awesome Pro 6.1.1 by @fontawesome - https://fontawesome.com License - https://fontawesome.com/license (Commercial License) Copyright 2022 Fonticons, Inc.--><path d="m496.3 202.5-110-15.38 41.88-104.4c5.251-13.13-4.936-25.54-16.94-25.54-3.125 0-6.565.912-9.69 2.912L307.5 120 273.37 12.9C270.6 4.25 263.4 0 255.1 0c-6.5 0-13.7 4.25-16.5 12.88L204.5 120l-94-59.88c-3.125-2-6.524-2.887-9.649-2.887-12 0-22.32 12.39-16.95 25.51l41.85 104.4L15.71 202.5c-17.502 2.5-21.627 26.3-6 34.7l98.14 52.63-74.51 83.5c-10.88 12.25-1.657 31 13.35 31 1.375 0 2.657-.25 4.032-.5l108.6-23.63-4.126 112.5C154.7 504.4 164.1 512 173.6 512c5.126 0 10.38-2.25 14.25-7.25l68.13-88.88 68.23 88.88c3.89 5.05 8.99 7.25 14.19 7.25 9.501 0 18.88-7.625 18.38-19.25l-4.032-112.5 108.5 23.63c1.375.25 2.733.47 4.108.47 15 0 24.15-18.72 13.27-30.97l-74.51-83.5 98.14-52.72C517.9 228.7 513.8 205 496.3 202.5zM369 322l14 15.75-79.89-17.38 3 82.75L256 337.8l-50.13 65.37 3-82.75-79.89 17.38 54.76-61.5-72.14-38.8 80.89-11.38-30.79-76.72 69.14 44.12L256 114.6l25.13 78.88 69.14-44.12-30.75 76.75 80.89 11.38-72.14 38.75L369 322z"/></svg>