<svg xmlns="http://www.w3.org/2000/svg" viewBox="0 0 448 512"><!--! Font Awesome Pro 6.1.1 by @fontawesome - https://fontawesome.com License - https://fontawesome.com/license (Commercial License) Copyright 2022 Fonticons, Inc.--><path d="M128 352H96c-8.836 0-16 7.164-16 16v32c0 8.8 7.16 16 16 16h32c8.836 0 16-7.164 16-16v-32c0-8.8-7.2-16-16-16zm0-128H96c-8.84 0-16 7.2-16 16v32c0 8.8 7.16 16 16 16h32c8.836 0 16-7.164 16-16v-32c0-8.8-7.2-16-16-16zm0-128H96c-8.84 0-16 7.2-16 16v32c0 8.8 7.16 16 16 16h32c8.836 0 16-7.164 16-16v-32c0-8.8-7.2-16-16-16zM384 0H64C28.65 0 0 28.65 0 64v384c0 35.35 28.65 64 64 64h320c35.35 0 64-28.65 64-64V64c0-35.35-28.7-64-64-64zm16 448c0 8.824-7.178 16-16 16H64c-8.822 0-16-7.176-16-16V64c0-8.824 7.178-16 16-16h320c8.822 0 16 7.176 16 16v384zm-56-344H200c-13.2 0-24 10.8-24 24s10.75 24 24 24h144c13.25 0 24-10.75 24-24s-10.7-24-24-24zm0 128H200c-13.2 0-24 10.8-24 24s10.75 24 24 24h144c13.25 0 24-10.75 24-24s-10.7-24-24-24zm0 128H200c-13.25 0-24 10.75-24 24s10.75 24 24 24h144c13.25 0 24-10.75 24-24s-10.7-24-24-24z"/></svg>