<svg xmlns="http://www.w3.org/2000/svg" viewBox="0 0 384 512"><!--! Font Awesome Pro 6.1.1 by @fontawesome - https://fontawesome.com License - https://fontawesome.com/license (Commercial License) Copyright 2022 Fonticons, Inc.--><path d="M184 80c-57.3 0-104 46.7-104 104 0 13.25 10.75 24 24 24s24-10.7 24-24c0-30.9 25.1-56 56-56 13.25 0 24-10.75 24-24s-10.7-24-24-24zm200 112C384 86.1 297.87 0 192 0S0 86.13 0 192c0 77.22 86.33 182.1 147.1 226.6L115 476.38a23.904 23.904 0 0 0 .281 23.81C119.6 507.5 127.5 512 136 512h112c8.5 0 16.38-4.5 20.69-11.84a23.903 23.903 0 0 0 .281-23.81l-32.1-57.78C297.7 374.1 384 269.2 384 192zM192 391.3C162.3 378 48 266.8 48 192c0-79.41 64.59-144 144-144s144 64.59 144 144c0 74.8-114.3 186-144 199.3z"/></svg>