<svg xmlns="http://www.w3.org/2000/svg" viewBox="0 0 576 512"><!--! Font Awesome Pro 6.1.1 by @fontawesome - https://fontawesome.com License - https://fontawesome.com/license (Commercial License) Copyright 2022 Fonticons, Inc.--><path d="M480 320c-10.41 0-20.3 2.081-29.68 5.174C468.5 307.7 480 283.3 480 256c0-53-43-96-96-96-10.41 0-20.3 2.081-29.68 5.174C372.6 147.7 384 123.2 384 96c0-53-43-96-96-96s-96 43-96 96c0 27.19 11.4 51.67 29.68 69.17C212.3 162.1 202.5 160 192 160c-53 0-96 43-96 96 0 27.19 11.4 51.67 29.68 69.17C116.3 322.1 106.5 320 96 320c-53 0-96 43-96 96s43 96 96 96 96-43 96-96c0-27.19-11.4-51.67-29.68-69.17C171.7 349.9 181.5 352 192 352s20.3-2.081 29.68-5.174C203.4 364.3 192 388.8 192 416c0 53 43 96 96 96s96-43 96-96c0-27.19-11.4-51.67-29.68-69.17C363.7 349.9 373.5 352 384 352s20.3-2.081 29.68-5.174C395.4 364.3 384 388.8 384 416c0 53 43 96 96 96s96-43 96-96-43-96-96-96zM288 48c26.5 0 48 21.5 48 48s-21.5 48-48 48-48-21.5-48-48 21.5-48 48-48zm29.7 277.2c-9.4-3.1-19.2-5.2-29.7-5.2s-20.3 2.081-29.68 5.174C276.5 307.7 288 283.3 288 256s-11.4-51.7-29.7-69.2c9.4 3.1 19.2 5.2 29.7 5.2s20.3-2.081 29.68-5.174C299.4 204.3 288 228.8 288 256s11.4 51.7 29.7 69.2zM96 464c-26.5 0-48-21.5-48-48s21.5-48 48-48 48 21.5 48 48-21.5 48-48 48zm96-160c-26.5 0-48-21.5-48-48s21.5-48 48-48 48 21.5 48 48-21.5 48-48 48zm96 160c-26.5 0-48-21.5-48-48s21.5-48 48-48 48 21.5 48 48-21.5 48-48 48zm96-160c-26.5 0-48-21.5-48-48s21.5-48 48-48 48 21.5 48 48-21.5 48-48 48zm96 160c-26.5 0-48-21.5-48-48s21.5-48 48-48 48 21.5 48 48-21.5 48-48 48z"/></svg>