<svg xmlns="http://www.w3.org/2000/svg" viewBox="0 0 640 512"><!--! Font Awesome Pro 6.1.1 by @fontawesome - https://fontawesome.com License - https://fontawesome.com/license (Commercial License) Copyright 2022 Fonticons, Inc.--><path d="M521.6 428.9C572.4 388.1 640 299.8 640 232.8 640 139.7 568.2 64 480 64c-54.09 0-101.8 28.63-130.8 72.11 1.7 10.69 2.8 21.59 2.8 32.69 0 30.95-11.31 63.97-27.87 95.5 2.67 10.8 6.67 22 11.87 33.6C355.9 341.94 400.79 398 438.4 429l-25.01 47.9c-3.875 7.438-3.594 16.34.75 23.53S426.3 512 434.7 512h90.69c8.406 0 16.19-4.375 20.53-11.56s4.625-16.09.75-23.53L521.6 428.9zM480 400.5c-19.31-11.69-74.5-65.31-100.3-122.4-7.8-17.2-11.7-32.5-11.7-45.3 0-66.6 50.3-120.8 112-120.8s112 54.19 112 120.8c0 61.8-85.3 151.8-112 167.7zm0-248.5c-39.69 0-72 32.31-72 72 0 13.25 10.75 24 24 24s24-10.7 24-24c0-13.22 10.78-24 24-24 13.25 0 24-10.75 24-24s-10.7-24-24-24zM160 88c-39.7 0-72 32.3-72 72 0 13.25 10.75 24 24 24s24-10.7 24-24c0-13.22 10.78-24 24-24 13.25 0 24-10.75 24-24s-10.7-24-24-24zm160 80.8C320 75.72 248.2 0 160 0S0 75.72 0 168.8c0 67.03 67.64 156.1 118.4 196.1l-25.04 47.96c-3.875 7.438-3.594 16.34.75 23.53S106.3 448 114.7 448h90.69c8.406 0 16.19-4.375 20.53-11.56s4.625-16.09.75-23.53l-25.04-47.96C252.4 324.1 320 235.8 320 168.8zM160 336.5C133.34 320.66 48 230.6 48 168.8 48 102.2 98.25 48 160 48s112 54.19 112 120.8c0 61.9-85.3 151.9-112 167.7z"/></svg>