<svg xmlns="http://www.w3.org/2000/svg" viewBox="0 0 512 512"><!--! Font Awesome Pro 6.1.1 by @fontawesome - https://fontawesome.com License - https://fontawesome.com/license (Commercial License) Copyright 2022 Fonticons, Inc.--><path d="m140.9 272.3 33.2-6.8 101.1 100.2c-6.2 1.5-12.6 2.3-20.1 2.3-18.9 0-37-7.2-50.9-19.9l-28 17.6c-7.5 4.6-17.4 2.1-21.9-5.5-4.6-7.5-2.1-17.4 5.5-21.9l24.5-14.7c-3.9-8-6.6-17.5-7.7-25.8l-29.5 5.9c-8.6 1.7-17.1-3.9-18.8-12.6-1.7-8.6 3.9-17.1 12.6-18.8zM0 256C0 114.6 114.6 0 256 0s256 114.6 256 256-114.6 256-256 256S0 397.4 0 256zm256 208c48.8 0 93.7-16.8 129.1-44.9L92.93 126.9C64.8 162.3 48 207.2 48 256c0 114.9 93.1 208 208 208zm78.9-163 84.2 84.1C447.2 349.7 464 304.8 464 256c0-114.9-93.1-208-208-208-48.8 0-93.7 16.8-129.1 44.93l73.5 73.57c14.4-13.9 34-22.5 54.7-22.5 20.7 0 38.8 7.2 52.7 19l28-16.7c7.5-4.6 17.4-2.1 21.9 5.5 4.6 7.5 2.1 17.4-5.5 21.9l-24.5 14.7c3.9 8 6.6 16.7 7.7 25.8l29.5-5.9c8.6-1.7 16.2 3.9 18.8 12.6 1.7 8.6-3.9 16.2-12.6 18.8l-35.1 7v18.6l35.1 7c8.7 1.7 14.3 10.2 12.6 18.8-2.6 8.7-10.2 14.3-18.8 12.6l-29.5-5.9c-.1 1.1-.3 2.1-.5 3.2z"/></svg>