<svg xmlns="http://www.w3.org/2000/svg" viewBox="0 0 512 512"><!--! Font Awesome Pro 6.1.1 by @fontawesome - https://fontawesome.com License - https://fontawesome.com/license (Commercial License) Copyright 2022 Fonticons, Inc.--><path d="m168 265.9 54.1 54.1H216v40c0 13.3-10.7 24-24 24s-24-10.7-24-24v-94.1zM0 256C0 114.6 114.6 0 256 0s256 114.6 256 256-114.6 256-256 256S0 397.4 0 256zm256 208c48.8 0 93.7-16.8 129.1-44.9L92.93 126.9C64.8 162.3 48 207.2 48 256c0 114.9 93.1 208 208 208zm79.1-162 84 83.1C447.2 349.7 464 304.8 464 256c0-114.9-93.1-208-208.9-208-47.9 0-92.8 16.8-128.2 44.93l47.6 47.67c5.9-7.7 15.1-12.6 24.6-12.6H280c53 0 96 42.1 96 96 0 32.1-15.8 60.6-40.9 78zm-34-34.9C317 259.3 328 242.9 328 224c0-26.5-21.5-48-48-48h-64v6.1l85.1 85z"/></svg>