<svg xmlns="http://www.w3.org/2000/svg" viewBox="0 0 640 512"><!--! Font Awesome Pro 6.1.1 by @fontawesome - https://fontawesome.com License - https://fontawesome.com/license (Commercial License) Copyright 2022 Fonticons, Inc.--><path d="M560 96c44.2 0 80 35.8 80 80v160c0 44.2-35.8 80-80 80H80c-44.18 0-80-35.8-80-80V176c0-44.2 35.82-80 80-80h480zM448 368h112c17.7 0 32-14.3 32-32V176c0-17.7-14.3-32-32-32H448v224zM192 144H80c-17.67 0-32 14.3-32 32v160c0 17.7 14.33 32 32 32h112V144zm80 88c13.3 0 24-10.7 24-24s-10.7-24-24-24-24 10.7-24 24 10.7 24 24 24zm96-48c-13.3 0-24 10.7-24 24s10.7 24 24 24 24-10.7 24-24-10.7-24-24-24zm-96 144c13.3 0 24-10.7 24-24s-10.7-24-24-24-24 10.7-24 24 10.7 24 24 24zm96-48c-13.3 0-24 10.7-24 24s10.7 24 24 24 24-10.7 24-24-10.7-24-24-24z"/></svg>