<svg xmlns="http://www.w3.org/2000/svg" viewBox="0 0 384 512"><!--! Font Awesome Pro 6.1.1 by @fontawesome - https://fontawesome.com License - https://fontawesome.com/license (Commercial License) Copyright 2022 Fonticons, Inc.--><path d="M48.75 34.35c44.99 4.5 78.35 42.36 78.35 87.55v53.2h40c14.2 0 24 11.6 24 24 0 14.2-9.8 24-24 24h-40v168c0 23 18.8 40 40 40h32c76 0 136-60 136-136v-32c0-21.2-17-40-40-40h-16c-12.4 0-24-9.8-24-24 0-12.4 11.6-24 24-24h16c49.5 0 88 40.3 88 88v32c0 102.5-81.5 184-184 184h-32c-47.7 0-88-38.5-88-88v-168h-56c-12.36 0-23.102-9.8-23.102-24 0-12.4 10.742-24 23.102-24h56v-53.2c0-20.5-14.67-37.74-35.12-39.78l-22.37-2.24C8.421 78.56-1.202 66.8.117 53.61 1.436 40.42 13.2 30.8 26.39 32.12l22.36 2.23z"/></svg>