<svg xmlns="http://www.w3.org/2000/svg" viewBox="0 0 512 512"><!--! Font Awesome Pro 6.1.1 by @fontawesome - https://fontawesome.com License - https://fontawesome.com/license (Commercial License) Copyright 2022 Fonticons, Inc.--><path d="M502.6 38.1 472.97 8.48c-12.5-12.5-32.75-12.5-45.25 0l-46.25 46.38a34.896 34.896 0 0 0-8.5 13.75L355.2 123l-62.88 62.88C270.6 169.6 245.4 159 218.8 154.6l-.638-.5C218.1 139.8 206.5 128 192 128c-14.5 0-26.2 11.8-26.2 26.1l-.1.5c-26.25 4-50.87 14.23-72.24 29.86-10.22-9.56-26.58-9.56-36.58.44-9.876 10-10.25 26-.625 36.37C40.75 242.6 30.76 267.6 26.64 293.7l-.39.1C11.75 293.8 0 305.5 0 320c0 14.38 11.75 26.12 26.25 26.12l.38.02c4.124 26.12 14.36 50.99 29.86 72.36-7.002 6.5-10.12 16.62-7.744 25.87a26.235 26.235 0 0 0 18.88 18.87c9.251 2.375 19.13-.5 25.63-7.5 21.38 15.5 46.37 25.54 72.63 29.54v.462C165.9 500.2 177.5 512 192 512s26.13-11.75 26.13-26.25v-.462c26.25-4 51.01-14.28 72.38-29.78 6.501 7 16.62 10.12 25.87 7.743a26.266 26.266 0 0 0 18.88-18.87c2.375-9.25-.5-19.13-7.5-25.62 15.5-21.38 25.49-46.48 29.62-72.61l.382-.02c14.5 0 26.25-11.75 26.25-26.12 0-14.5-11.75-26.25-26.25-26.25l-.388-.05C353.1 266.8 342.4 241.5 326.2 219.8l63.01-63 53.35-17.75c5.125-1.75 9.875-4.625 13.75-8.5l46.29-46.38c12.4-12.5 12.5-32.67 0-46.07zM192 440c-66.26 0-120-53.75-120-120s53.75-120 120-120 120 53.75 120 120c-.1 66.2-53.7 119.9-120 120zm-41.4-131.2c-6.251-6.25-16.38-6.25-22.63 0L116.6 320c-6.251 6.25-6.251 16.38 0 22.62l52.75 52.62c6.251 6.25 16.38 6.25 22.63 0L203.3 384c6.251-6.25 6.251-16.38 0-22.62l-52.7-52.58z"/></svg>