<svg xmlns="http://www.w3.org/2000/svg" viewBox="0 0 512 512"><!--! Font Awesome Pro 6.1.1 by @fontawesome - https://fontawesome.com License - https://fontawesome.com/license (Commercial License) Copyright 2022 Fonticons, Inc.--><path d="M48 55.1v400c0 14.2-10.75 24-24 24s-24-9.8-24-24v-400c0-12.36 10.75-24 24-24s24 11.64 24 24zm80-8v416c0 9.7-7.2 16-16 16s-16-6.3-16-16v-416c0-7.94 7.2-16 16-16s16 8.06 16 16zm80 8v400c0 14.2-10.7 24-24 24s-24-9.8-24-24v-400c0-12.36 10.7-24 24-24s24 11.64 24 24zm112 0v400c0 14.2-10.7 24-24 24s-24-9.8-24-24v-400c0-12.36 10.7-24 24-24s24 11.64 24 24zm144 0c0-12.36 10.7-24 24-24s24 11.64 24 24v400c0 14.2-10.7 24-24 24s-24-9.8-24-24v-400zm-64-8c0-7.94 7.2-16 16-16s16 8.06 16 16v416c0 9.7-7.2 16-16 16s-16-6.3-16-16v-416z"/></svg>