<svg xmlns="http://www.w3.org/2000/svg" viewBox="0 0 576 512"><!--! Font Awesome Pro 6.1.1 by @fontawesome - https://fontawesome.com License - https://fontawesome.com/license (Commercial License) Copyright 2022 Fonticons, Inc.--><path d="M56 47.1c-4.42 0-8 4.48-8 8v80c0 14.2-10.75 24-24 24s-24-9.8-24-24v-80C0 25.07 25.07-.002 56-.002h80c13.3 0 24 10.742 24 23.102 0 14.15-10.7 24-24 24H56zm88 104v208c0 14.2-10.7 24-24 24s-24-9.8-24-24v-208c0-12.4 10.7-24 24-24s24 11.6 24 24zm32-8c0-7.9 7.2-16 16-16s16 8.1 16 16v224c0 9.7-7.2 16-16 16s-16-6.3-16-16v-224zm272 0c0-7.9 7.2-16 16-16s16 8.1 16 16v224c0 9.7-7.2 16-16 16s-16-6.3-16-16v-224zm-208 8c0-12.4 10.7-24 24-24s24 11.6 24 24v208c0 14.2-10.7 24-24 24s-24-9.8-24-24v-208zm176 0v208c0 14.2-10.7 24-24 24s-24-9.8-24-24v-208c0-12.4 10.7-24 24-24s24 11.6 24 24zm112-96c0-3.52-3.6-8-8-8h-80c-13.3 0-24-9.85-24-24 0-12.36 10.7-23.102 24-23.102h80c30.9 0 56 25.072 56 55.102v80c0 14.2-10.7 24-24 24s-24-9.8-24-24v-80zm-392 408c13.3 0 24 11.6 24 24 0 14.2-10.7 24-24 24H56c-30.93 0-56-24.2-56-56v-80c0-12.4 10.75-24 24-24s24 11.6 24 24v80c0 5.3 3.58 8 8 8h80zm392-88c0-12.4 10.7-24 24-24s24 11.6 24 24v80c0 31.8-25.1 56-56 56h-80c-13.3 0-24-9.8-24-24 0-12.4 10.7-24 24-24h80c4.4 0 8-2.7 8-8v-80z"/></svg>