<svg xmlns="http://www.w3.org/2000/svg" viewBox="0 0 640 512"><!--! Font Awesome Pro 6.1.1 by @fontawesome - https://fontawesome.com License - https://fontawesome.com/license (Commercial License) Copyright 2022 Fonticons, Inc.--><path d="M512 320c-52.88 0-96 43.13-96 96s43.13 96 96 96 96-43.13 96-96-43.1-96-96-96zm-.9 144c-26.51 0-48.02-21.51-48.02-48.02s21.51-48.03 48.02-48.03 48.02 21.52 48.02 48.03S538.5 464 511.1 464zM640 98.65c0-15.41-4.592-30.84-14.41-44.24l-16.79-22C592.85 10.65 568.82 0 544.69 0c-16.91 0-33.87 5.23-48.14 15.53L308.7 152.2c-48 34.63-92 73.27-130.1 117.8-54.75 62.64-106 101.3-135.5 122.5-4.816-5.524-11.56-8.4-18.36-8.4-5.205 0-10.45 1.683-14.89 5.15-5.882 4.735-8.965 11.73-8.965 18.78 0 5.23 1.7 10.48 5.215 14.85l64 80.02c4.592 5.758 11.65 9.008 18.89 9.008 5.178 0 10.45-1.662 14.99-5.258 5.74-4.654 8.641-11.38 8.641-18.21 0-4.173-1.084-8.382-3.266-12.18 29.12-21 81.88-56.63 155.1-88.02 54.75-23 106.5-52.13 154.6-86.89l185.9-135.4C627.3 149.8 640 124.2 640 98.65zm-50.8 2.65c0 9.955-4.579 19.95-13.27 26.98l-185.1 135.6c-75 52.76-136.4 76.02-161.6 87.64L202.1 314.5c18.88-20.25 59.75-69.26 134.8-123.4L524.8 54.8c5.76-4.16 12.84-6.386 19.94-6.386 9.538 0 19.11 4.018 25.56 12.76l13 21.51c4 5.626 5.9 12.126 5.9 18.616z"/></svg>