<svg xmlns="http://www.w3.org/2000/svg" viewBox="0 0 512 512"><!--! Font Awesome Pro 6.1.1 by @fontawesome - https://fontawesome.com License - https://fontawesome.com/license (Commercial License) Copyright 2022 Fonticons, Inc.--><path d="M256 0C114.6 0 0 114.6 0 256s114.6 256 256 256 256-114.6 256-256S397.4 0 256 0zm40.2 460c.257-10.46.478-9.2.478-11.59 0-9.1-7.065-23.92-23.93-23.92-12.19 0-22.93 9.427-23.97 21.99-.482 5.68-.709 11.39-.724 17.09-108.3-4.133-195.5-91.28-199.6-199.6.057 0 2.753.014 4.242.014 13.51 0 36.8-1.172 36.8-24.77 0-20.41-19.61-24.03-24.02-24.03-2.217 0-2.762.3-7.163.3-1.8 0-6.237-.048-6.242-.048 16.33-82.37 81.41-147.3 163.8-163.5-.28 11.19-.537 10.04-.537 12.56 0 9.258 7.257 23.97 24.03 23.97 12.34 0 22.81-9.469 23.88-21.97.515-6.031.771-12.06.787-18.12C372.5 52.56 459.7 140 463.6 248.5H456c-4.246 0-8.501.12-12.77.545-12.38 1.203-21.65 11.63-21.65 23.82 0 9.07 6.946 24.1 23.5 24.1 2.526 0 3.033-.398 8.46-.398 1.867 0 6.401.044 6.405.044C443.6 378.9 378.6 443.8 296.2 460zm-50-331.1c0-6.546-5.204-24-23.93-24-9.054 0-17.78 5.135-21.86 13.91-38.11 82.29-94.79 70.25-94.79 103 0 18.71 17.12 24 24.04 24C161.7 245.8 246.2 163.6 246.2 128.9zm135.3 137.7c-32.27 0-116.1 82.71-116.1 117.5 0 6.58 5.254 24 24 24 9.094 0 17.78-5.188 21.81-14.03 37.75-82.56 94.25-70.68 94.25-103.4.04-18.77-17.06-24.07-23.96-24.07z"/></svg>