<svg xmlns="http://www.w3.org/2000/svg" viewBox="0 0 640 512"><!--! Font Awesome Pro 6.1.1 by @fontawesome - https://fontawesome.com License - https://fontawesome.com/license (Commercial License) Copyright 2022 Fonticons, Inc.--><path d="M320 0C102.1 0 0 169.8 0 208.1v118c0 25.43 15.05 48.44 38.35 58.63l84.6 37.01-6.441-55.21-58.92-25.78C51.76 338.3 48 332.5 48 326.1v-118C48 182.4 145.9 48 320 48c175.9 0 272 135.1 272 160.1v118c0 6.357-3.764 12.11-9.586 14.66l-58.92 25.78-6.441 55.21 84.6-37.01C624.9 374.6 640 351.6 640 326.1v-118C640 167.8 534.1 0 320 0zm208 264c0-13.3-10.7-24-24-24H135.1c-12.4 0-23.1 10.7-23.1 23.1s10.7 24.9 23.1 24.9h7.67l24.46 206.6c.314 2.636 3.943 17.43 19.87 17.43 5.375 0 10.66-2.152 14.5-6.125l51.5-53.42 51.5 53.42C309.3 509.8 314.5 512 320 512s10.72-2.217 14.5-6.129l51.5-53.42 51.5 53.42C441.3 509.8 446.6 512 452 512c15.93 0 19.56-14.79 19.88-17.43L496.3 288h7.67c13.33 0 24.03-10.7 24.03-24zm-170.7 24L320 326.7 282.7 288h74.6zm-170.2 26.1-4-26.1h35.15l-31.15 26.1zm15.8 134.1-6.6-55.6 30.08 31.2-23.48 24.4zm50.2-53-45-46.7 42.34-35.76 41.09 42.63-38.43 39.83zm66.9 68.5-38.4-39.9 38.4-40.7 38.41 39.85L320 463.7zm27.6-108.3 41.09-42.63 42.34 35.76-45.02 46.71-38.41-39.84zm89.5 92.8-23.5-24.38 30.08-31.2-6.58 55.58zm15.8-134.1-32-26.1h35.15l-3.15 26.1zM480 208v-40c0-22.1-17.9-40-40-40H200c-22.1 0-40 17.9-40 40v40h48v-32h224v32h48z"/></svg>