<svg xmlns="http://www.w3.org/2000/svg" viewBox="0 0 576 512"><!--! Font Awesome Pro 6.1.1 by @fontawesome - https://fontawesome.com License - https://fontawesome.com/license (Commercial License) Copyright 2022 Fonticons, Inc.--><path d="M192 296c0 13.3-10.7 24-24 24s-24-10.7-24-24 10.7-24 24-24 24 10.7 24 24zm192 0c0-13.3 10.7-24 24-24s24 10.7 24 24-10.7 24-24 24-24-10.7-24-24zM243.1 2.71c11.7 6.115 16.3 20.61 10.2 32.37L171.7 192h232.6L322.7 35.08c-6.1-11.76-1.5-26.255 10.2-32.37 11.8-6.115 26.3-1.539 32.4 10.22L458.4 192H552c13.3 0 24 10.7 24 24s-10.7 24-24 24h-20l-55.9 223.5c-8 28.5-32.7 48.5-62.1 48.5H161.1c-28.5 0-54.1-20-61.22-48.5L44 240H24c-13.25 0-24-10.7-24-24s10.75-24 24-24h93.6l93.1-179.07c6.1-11.759 20.6-16.335 32.4-10.22zM482.5 240H93.48l52.92 211.9c1.8 7.1 8.2 12.1 14.7 12.1H414c7.4 0 13.8-5 15.6-12.1L482.5 240z"/></svg>