<svg xmlns="http://www.w3.org/2000/svg" viewBox="0 0 640 512"><!--! Font Awesome Pro 6.1.1 by @fontawesome - https://fontawesome.com License - https://fontawesome.com/license (Commercial License) Copyright 2022 Fonticons, Inc.--><path d="M154.8 96H496c44.2 0 80 35.8 80 80v16c17.7 0 32 14.3 32 32v64c0 17.7-14.3 32-32 32v16c0 26.5-12.9 49.1-32.7 64.5l87.5 68.6c10.4 8.2 12.3 23.3 4.1 33.7-8.2 10.4-23.3 12.3-33.7 4.1L9.196 42.89C-1.236 34.71-3.065 19.63 5.112 9.196 13.29-1.236 28.37-3.065 38.81 5.112L154.8 96zm61.2 48 285.3 223.6c15.1-2.5 26.7-15.7 26.7-31.6V176c0-17.7-14.3-32-32-32H216zm129.2 224 61 48H112c-44.18 0-80-35.8-80-80V176c0-16.4 4.92-31.6 13.35-44.3l38.02 30C81.21 165.1 80 170.9 80 176v160c0 17.7 14.33 32 32 32h233.2z"/></svg>