<svg xmlns="http://www.w3.org/2000/svg" viewBox="0 0 576 512"><!--! Font Awesome Pro 6.1.1 by @fontawesome - https://fontawesome.com License - https://fontawesome.com/license (Commercial License) Copyright 2022 Fonticons, Inc.--><path d="M368 144c-.9-17.2-8-34-22.4-44.8-1.5-1.16-3.1-2.22-4.8-3.2H464c44.2 0 80 35.8 80 80v16c17.7 0 32 14.3 32 32v64c0 17.7-14.3 32-32 32v16c0 44.2-35.8 80-80 80H244.9c2.3-1.4 4.5-3 6.7-4.8l52.5-43.2H464c17.7 0 32-14.3 32-32V176c0-17.7-14.3-32-32-32h-96zM0 336V176c0-44.2 35.82-80 80-80h203.1c-2.3 1.41-4.5 2.1-6.7 4.8L223.9 144H80c-17.67 0-32 14.3-32 32v160c0 17.7 14.33 32 32 32h79.1c.9 17.2 8 33.1 23.3 44.8 1.5.3 3.1 2.2 4.8 3.2H80c-44.18 0-80-35.8-80-80zm321.6-204.8c5.9 4.4 8 12.3 5.1 19.1L288.3 240H352c6.8 0 12.8 4.2 15.1 10.6 2.2 5.5.3 13.5-4.9 17.8l-136 112c-5.7 4.6-13.9 4.8-19.8.4-5.9-4.4-8-12.3-5.1-19.1l38.4-90.6H176c-6.8 0-12.8-3.3-15.1-9.7-2.2-6.4-.3-13.5 4.9-17.8l136-112c5.7-5.5 13.9-4.8 19.8-.4z"/></svg>