<svg xmlns="http://www.w3.org/2000/svg" viewBox="0 0 576 512"><!--! Font Awesome Pro 6.1.1 by @fontawesome - https://fontawesome.com License - https://fontawesome.com/license (Commercial License) Copyright 2022 Fonticons, Inc.--><path d="M352 320H96V192h256v128zM0 176c0-44.2 35.82-80 80-80h384c44.2 0 80 35.8 80 80v16c17.7 0 32 14.3 32 32v64c0 17.7-14.3 32-32 32v16c0 44.2-35.8 80-80 80H80c-44.18 0-80-35.8-80-80V176zm80-32c-17.67 0-32 14.3-32 32v160c0 17.7 14.33 32 32 32h384c17.7 0 32-14.3 32-32V176c0-17.7-14.3-32-32-32H80z"/></svg>