<svg xmlns="http://www.w3.org/2000/svg" viewBox="0 0 640 512"><!--! Font Awesome Pro 6.1.1 by @fontawesome - https://fontawesome.com License - https://fontawesome.com/license (Commercial License) Copyright 2022 Fonticons, Inc.--><path d="M216 95.98h121.8l41.19 75.51C383.1 179.2 391.2 184 400 184h.7a24.022 24.022 0 0 0 21-13.78l49.45-105.1 23.86 23.85A24.035 24.035 0 0 0 512 95.98h104c13.25 0 24-10.74 24-23.99s-10.75-24.02-24-24.02h-94.06L480.97 6.99c-5.516-5.532-13.38-7.908-21.09-6.689-7.703 1.344-14.27 6.405-17.59 13.47l-43.86 93.21-25.36-46.51C368.9 52.79 360.8 47.98 352 47.98H216c-13.25 0-24 10.76-24 24.02s10.8 23.98 24 23.98zM168 336c48.5 0 88-39.5 88-88s-39.5-88-88-88-88 39.5-88 88 39.5 88 88 88zm0-128c21.1 0 40 18 40 40s-18.9 40-40 40c-22.9 0-40-18-40-40s17.1-40 40-40zm360-48h-40c-13.25 0-24 10.74-24 24 0 13.25 10.75 24 24 24h40c35.2 0 64 28.8 64 64v96H336V184c0-13.3-10.7-24-24-24s-24 10.7-24 24v184H48V88c0-13.26-10.75-24-24-24S0 74.74 0 88v400c0 13.3 10.75 24 24 24s24-10.75 24-24v-72h544v72c0 13.25 10.75 24 24 24s24-10.7 24-24V272c0-61.9-50.1-112-112-112z"/></svg>