<svg xmlns="http://www.w3.org/2000/svg" viewBox="0 0 576 512"><!--! Font Awesome Pro 6.1.1 by @fontawesome - https://fontawesome.com License - https://fontawesome.com/license (Commercial License) Copyright 2022 Fonticons, Inc.--><path d="M448 95.1c-27.73 0-55.34 9.451-80.73 22.73.23-1.43.73-3.53.73-6.73 0-20.4-7.832-38.84-20.4-52.97l31.71-31.71c6.25-6.25 6.25-16.38 0-22.62s-16.38-6.25-22.62 0L321.7 38.79c-10.3-3.91-21.6-7.69-33.7-7.69s-23.4 3.78-33.7 8.58l-35-34.992c-6.25-6.25-16.38-6.25-22.62 0s-6.25 16.38 0 22.62L228.4 58.99C215.8 73.12 208 91.6 208 111.1c0 2.342.48 4.438.678 6.727C183.3 105.4 155.7 95.1 128 95.1c-70.66 0-128 51-128 112C0 269.8 57.28 320 127.1 320c7.7 0 14.7-.8 21.6-1.8C162.5 417.7 288 512 288 512s125.5-94.34 139.3-193.8c6.9 1 13.8 1.8 20.7 1.8 70.66 0 128-50.13 128-111.1 0-62.7-57.3-112.91-128-113.8zM195.6 304h184.8c-.438 10.4-3.008 21.14-7.146 32H202.7c-4.1-10.9-6.7-21.6-7.1-32zm11.6-48c4.152-7.475 8.984-14.61 15.2-20.82C239.9 217.7 263.2 208 287.9 208s48.18 9.652 65.7 27.18c6.3 6.22 11.1 13.32 15.2 20.82H207.2zm-56 12.6c-7.8 2-15.6 3.4-24.1 3.4-43.23 0-79.1-28.7-79.1-64.9 0-34.4 35.87-63.1 79.1-63.1 29.16 0 61.19 16.16 89.06 35.83C184.3 199 160.1 230.7 151.2 268.6zM288 449.1c-18.6-17.2-40.6-40.2-58.5-65.1h116.9c-17.8 24.9-39.8 47.9-58.4 65.1zM448 272c-7.586 0-15.38-1.363-23.23-3.367-8.891-37.93-33.12-69.59-65.79-88.8C386.9 160.2 418.8 144 448 144c44.08 0 80 28.69 80 64.04 0 35.26-35.9 63.96-80 63.96z"/></svg>