<svg xmlns="http://www.w3.org/2000/svg" viewBox="0 0 512 512"><!--! Font Awesome Pro 6.1.1 by @fontawesome - https://fontawesome.com License - https://fontawesome.com/license (Commercial License) Copyright 2022 Fonticons, Inc.--><path d="M423.1 156.7h-40v-12.6c13.61-18.82 19.01-42.45 14.25-65.9-6.141-30.26-28.99-54.6-58.18-62.04-21.27-5.447-43.1-2.119-61.4 9.354-3.735 2.371-5.641.533-6.36-.156C237.3-8.461 178.6-8.43 143.7 25.32c-1.6.7-2.6 2.52-6.4.17-18.4-11.46-40.15-14.79-61.4-9.34-29.21 7.44-52.06 31.78-58.2 62.04-4.76 23.41.64 47.11 14.25 65.91V432c0 44.18 35.82 80 80.01 80h192c39.44 0 72.03-28.59 78.61-66.14l76.66-34.39C491.3 397.5 512 365.8 512 330.8v-86.1c0-48.6-39.4-88-88.9-88zm-88 275.3c0 17.67-14.33 32-32 32h-192c-17.68 0-32-14.33-32-32V174.1c20.49 4.258 42.44 1.004 60.16-11.18.656.078 2.094.611 3.516 1.994C161.1 182.7 183.1 192 207.1 192c24.02 0 46.84-9.309 64.3-26.23 1.641-1.57 3.25-2.041 3.25-2.182 17.78 12.33 39.85 15.64 60.44 11.37V432zm9.2-314.5c-10.13 12.46-28.6 15.33-41.48 6.404-19.36-13.47-45.6-10.52-63.84 7.141-16.97 16.42-45.06 16.42-62.06 0C166.4 120.8 153.1 115.5 139.1 115.5c-9.438 0-18.77 2.762-26.88 8.381-12.86 8.914-31.33 6.027-41.48-6.404-5.77-8.177-8.22-18.707-6-29.647 2.41-11.87 11.84-22.12 22.96-24.94 10.89-2.73 19.18.408 24.18 3.531 21.29 13.28 47.43 10.75 65.09-6.357 16.94-16.38 45.04-16.42 62.04.031 17.71 17.09 43.84 19.56 65.04 6.326 5.047-3.123 13.35-6.277 24.21-3.53 11.1 2.823 20.54 13.07 22.94 24.94 2.2 10.939-1.1 21.469-6.9 29.669zm118.8 213.3c0 15.89-9.407 30.28-23.97 36.66L383.1 392V204.7h40c22.06 0 40 17.94 40 40v86.1zm-304-90.8-.027 168c0 8.844-7.157 16-16 16s-16-7.156-16-16l.027-168c0-8.844 7.157-16 16-16 9.7 0 16 7.2 16 16zm64 0-.022 168c0 8.844-7.157 16-16 16s-16-7.156-16-16l.022-168c0-8.844 7.157-16 16-16s16 7.2 16 16zm64 0-.017 168c0 8.844-7.157 16-16 16s-16-7.156-16-16l.017-168c0-8.844 7.157-16 16-16s16 7.2 16 16z"/></svg>