<svg xmlns="http://www.w3.org/2000/svg" viewBox="0 0 512 512"><!--! Font Awesome Pro 6.1.1 by @fontawesome - https://fontawesome.com License - https://fontawesome.com/license (Commercial License) Copyright 2022 Fonticons, Inc.--><path d="M424 96h-40V64c0-17.67-14.33-32-32-32H64c-17.67 0-32 14.33-32 32v336c0 44.2 35.82 80 80 80h192c44.18 0 80-35.82 80-80v-16.08l75.26-33.15C491.3 336.8 512 305.1 512 270.1V184c0-48.6-39.4-88-88-88zm-88 304c0 17.67-14.33 32-32 32H112c-17.67 0-32-14.33-32-32V80h256v320zm128-129.9c0 15.89-9.406 30.28-23.97 36.66L384 331.3V144h40c22.06 0 40 17.94 40 40v86.1zM128 368V144c0-8.8 7.2-16 16-16s16 7.2 16 16v224c0 8.8-7.2 16-16 16s-16-7.2-16-16zm64 0V144c0-8.8 7.2-16 16-16s16 7.2 16 16v224c0 8.8-7.2 16-16 16s-16-7.2-16-16zm64 0V144c0-8.8 7.2-16 16-16s16 7.2 16 16v224c0 8.844-7.156 16-16 16s-16-7.2-16-16z"/></svg>