<svg xmlns="http://www.w3.org/2000/svg" viewBox="0 0 640 512"><!--! Font Awesome Pro 6.1.1 by @fontawesome - https://fontawesome.com License - https://fontawesome.com/license (Commercial License) Copyright 2022 Fonticons, Inc.--><path d="M118.5 67.6C156.6 26.05 211.2 0 271.1 0 386.9 0 480 93.12 480 208c0 42.7-12.9 82.5-35 115.5l51.5 40.3c8.4-7.3 19.4-11.8 31.5-11.8 26.5 0 48 21.5 48 48 0 7.9-1.9 15.4-5.3 21.1l60.1 48c10.4 8.2 12.3 23.3 4.1 33.7-8.2 10.4-23.3 12.3-33.7 4.1L9.196 42.89C-1.236 34.71-3.065 19.63 5.112 9.196 13.29-1.236 28.37-3.065 38.81 5.112L118.5 67.6zm38 29.72 50.7 39.78c17.1-15.6 39.8-25.1 63.9-25.1 53.9 0 96.9 42.1 96.9 96 0 16.7-4.2 32.3-11.7 45.1l50.8 40.7c15.8-25.7 24.9-54.2 24.9-86.7 0-87.5-71.6-160-160.9-160-44.5 0-85.5 19.83-114.6 50.22zM317.4 223.5c1.7-4.9 1.7-10.1 1.7-15.5 0-26.5-20.6-48-48-48-8.6 0-17.5 2.8-25 7.6l71.3 55.9zM416 423.8V448c0 5.5-.7 10.9-2.9 16h54l48.8 38.4c-10.6 6.1-22.8 9.6-35.9 9.6H191.1c-34.4 0-64-28.7-64-64v-89.9c-38.55-37.9-64-92-64-150.1 0-19.3 3.52-37.9 8.43-55.6l42.07 33.1c-1.1 7.3-2.5 14.9-2.5 21.6 0 89.3 72.5 160.9 160 160.9 21.7 0 41.6-4 59-11.2l85.9 67zM352 464c8.8 0 16-7.2 16-16v-55.4c-28.7 14.9-61.4 23.4-96.9 23.4-33.7 0-66.4-8.5-96-23.4V448c0 8.8 8.1 16 16 16H352z"/></svg>