<svg xmlns="http://www.w3.org/2000/svg" viewBox="0 0 512 512"><!--! Font Awesome Pro 6.1.1 by @fontawesome - https://fontawesome.com License - https://fontawesome.com/license (Commercial License) Copyright 2022 Fonticons, Inc.--><path d="M112 208c0-53.9 42.1-96 96-96 53 0 96 42.1 96 96 0 53-43 96-96 96-53.9 0-96-43-96-96zm96 48c26.5 0 48-21.5 48-48s-21.5-48-48-48-48 21.5-48 48 21.5 48 48 48zm144 192c0 5.5-.7 10.9-2.9 16H416c12.7 0 23.2-9.9 23.1-22.5-13.5-8.3-23.1-23.8-23.1-41.5 0-26.5 21.5-48 48-48s48 21.5 48 48c0 17.8-9.7 33.3-24.9 41.6 0 39-31.9 70.4-71.1 70.4H128c-35.35 0-64-28.7-64-64v-89.9C24.55 320.2 0 266.1 0 208 0 93.12 93.12 0 208 0c114.9 0 208 93.12 208 208 0 58.1-24.6 112.2-64 150.1V448zm-144-80c88.4 0 160-71.6 160-160S296.4 48 208 48 48 119.6 48 208s71.6 160 160 160zm96 80v-55.4c-28.7 14.9-61.4 23.4-96 23.4s-67.3-8.5-96-23.4V448c0 8.8 7.2 16 16 16h160c8.8 0 16-7.2 16-16z"/></svg>