<svg xmlns="http://www.w3.org/2000/svg" viewBox="0 0 640 512"><!--! Font Awesome Pro 6.1.1 by @fontawesome - https://fontawesome.com License - https://fontawesome.com/license (Commercial License) Copyright 2022 Fonticons, Inc.--><path d="M249.5 296.7c11.7 31.8 12.9 66.5 3.6 99.1l-1.2 3.9-230.5-83.9C10.03 311.7 1.976 301.5.593 289.5-.79 277.5 4.73 265.7 14.86 259l8.18-5.3c34.57-23.6 60.91-55.9 75.12-94.7l14.64-40c24.3-68.56 100.3-103.91 169.8-78.92 4.8 1.74 9.5 3.74 13.9 5.96-64.1 42.16-93.3 124.26-65.7 199.46l18.7 51.2zm30.1-10.9-18.8-51.2c-26.1-71.3 10.6-150.19 82-176.17 71.3-25.97 150.4 10.78 176.5 82.07l18.7 51.2c14 38.2 39.8 71 73.6 93.6l13.8 9.2c10 6.7 15.4 17.6 14 30.4-1.5 12-9.5 21.2-20.8 26.2L321.1 459.4c-11.3 4.1-24 1.5-32.8-6.7-8.8-8.2-12.3-20.7-9-32.2l4.6-15.9c11.2-39 9.7-81.5-4.3-118.8zm45.1-16.4c15.8 43.1 18.9 89.7 9 134.3L573 316.6c-36.4-27.7-64.2-65.3-80.1-108.5l-18.7-51.2c-17-46.4-68.5-70.31-114.9-53.4-46.5 16.9-70.4 68.2-54.2 114.7l19.6 51.2zM480.8 480c-21.2 0-40-10.1-51.7-25.9l116.1-42.2c.1 1.3.1 2.6.1 3.9 0 35.5-28.9 64.2-64.5 64.2zM94.34 376.2l117.56 43.3c-11.6 17.2-31.2 28.4-53.5 28.4-35.6 0-64.49-28.7-64.49-64.2 0-2.6.14-5.1.43-7.5z"/></svg>