<svg xmlns="http://www.w3.org/2000/svg" viewBox="0 0 640 512"><!--! Font Awesome Pro 6.1.1 by @fontawesome - https://fontawesome.com License - https://fontawesome.com/license (Commercial License) Copyright 2022 Fonticons, Inc.--><path d="M352 32v17.88C424.5 61.39 480 124.2 480 200v33.4c0 45.4 15.5 89.5 43.8 125l14.9 18.6c5.8 7.2 6.9 17.1 2.9 25.4-4 8.3-12.4 13.6-21.6 13.6H120c-9.2 0-17.6-5.3-21.63-13.6-4-8.3-2.87-18.2 2.93-25.4l14.9-18.6c28.3-35.5 43.8-79.6 43.8-125V200c0-75.8 55.5-138.61 128-150.12V32c0-17.67 14.3-32 32-32s32 14.33 32 32zm-40 64c-57.4 0-104 46.6-104 104v33.4c0 47.9-13.9 94.6-39.7 134.6h303.4c-25.8-40-39.7-86.7-39.7-134.6V200c0-57.4-46.6-104-104-104h-16zm72 352c0 16.1-6.7 33.3-18.7 45.3S336.1 512 320 512c-17 0-33.3-6.7-45.3-18.7S256 464.1 256 448h128zM0 200c0-13.3 10.75-24 24-24h80c13.3 0 24 10.7 24 24s-10.7 24-24 24H24c-13.25 0-24-10.7-24-24zm616-24c13.3 0 24 10.7 24 24s-10.7 24-24 24h-80c-13.3 0-24-10.7-24-24s10.7-24 24-24h80zM597.5 21.27c5.9 11.85 1.1 26.27-10.8 32.2l-64 32c-11.8 5.92-26.2 1.12-32.2-10.74-5.9-11.85-1.1-26.27 10.8-32.2l64-32c11.8-5.924 26.2-1.118 32.2 10.74zM53.27 53.47c-11.86-5.93-16.66-20.35-10.74-32.2 5.93-11.858 20.35-16.664 32.2-10.74l63.97 32c11.9 5.93 16.7 20.35 10.8 32.2-6 11.86-20.4 16.66-32.2 10.74l-64.03-32z"/></svg>