<svg xmlns="http://www.w3.org/2000/svg" viewBox="0 0 640 512"><!--! Font Awesome Pro 6.1.1 by @fontawesome - https://fontawesome.com License - https://fontawesome.com/license (Commercial License) Copyright 2022 Fonticons, Inc.--><path d="M360 352h-32v-33.6c13.7-3.6 24-15.6 24-30.4v-64c0-17.67-14.33-32-32-32H64c-17.67 0-32 14.3-32 32v64c0 14.83 10.3 26.76 24 30.38V352H24c-13.25 0-24 10.8-24 24s10.75 24 24 24h8v88c0 13.3 10.75 24 24 24s24-10.75 24-24v-88h224v88c0 13.25 10.75 24 24 24s24-10.7 24-24v-88h8c13.25 0 24-10.75 24-24s-10.7-24-24-24zm-80 0H104v-32h176v32zm24-80H80v-32h224v32zm302.5-160.9c.8-4.9 1.5-9.9 1.5-15.1 0-53.02-42.98-96-96-96s-96 42.98-96 96c0 5.174.736 10.15 1.523 15.11C397.3 125.6 384 149.2 384 176c0 44.2 35.8 80 80 80h24v232c0 13.25 10.75 24 24 24s24-10.75 24-24V256h24c44.2 0 80-35.8 80-80 0-26.8-13.3-50.4-33.5-64.9zM560 208h-96c-17.64 0-32-14.36-32-32 0-10.3 4.924-19.74 13.51-25.9 14.75-10.59 22.27-28.6 19.42-46.53-.33-2.37-.93-5.84-.93-7.57 0-26.47 21.53-48 48-48s48 21.53 48 48c0 1.729-.559 5.244-.928 7.572a47.997 47.997 0 0 0 19.42 46.53C587.1 156.3 592 165.7 592 176c0 17.6-14.4 32-32 32z"/></svg>