<svg xmlns="http://www.w3.org/2000/svg" viewBox="0 0 640 512"><!--! Font Awesome Pro 6.1.1 by @fontawesome - https://fontawesome.com License - https://fontawesome.com/license (Commercial License) Copyright 2022 Fonticons, Inc.--><path d="M352 32c26.5 0 48 21.49 48 48v8h116.7c9.4-23.45 32.4-40 59.3-40 35.3 0 64 28.65 64 64 0 35.3-28.7 64-64 64-26.9 0-49.9-16.5-59.3-40h-79.1c64.2 37.8 108.5 105.5 113.9 184h8.5c26.5 0 48 21.5 48 48v64c0 26.5-21.5 48-48 48h-64c-26.5 0-48-21.5-48-48v-64c0-26.5 21.5-48 48-48h7.3c-5.9-68.4-49.2-126.1-109.4-152.6-8.2 14.7-24.8 24.6-41.9 24.6h-64c-18 0-33.7-9.9-41.9-24.6-60.2 26.5-103.5 84.2-109.4 152.6h7.3c26.5 0 48 21.5 48 48v64c0 26.5-21.5 48-48 48H80c-26.51 0-48-21.5-48-48v-64c0-26.5 21.49-48 48-48h8.54c5.35-78.5 49.66-146.2 113.86-184h-79.1c-9.4 23.5-32.44 40-59.3 40-35.35 0-64-28.7-64-64 0-35.35 28.65-64 64-64 26.86 0 49.9 16.55 59.3 40H240v-8c0-26.51 21.5-48 48-48h64zm0 48h-64v64h64V80zM64 96c-8.84 0-16 7.2-16 16s7.16 16 16 16 16-7.2 16-16-7.16-16-16-16zm512 0c-8.8 0-16 7.2-16 16s7.2 16 16 16 16-7.2 16-16-7.2-16-16-16zM144 368H80v64h64v-64zm352 64h64v-64h-64v64z"/></svg>