<svg xmlns="http://www.w3.org/2000/svg" viewBox="0 0 640 512"><!--! Font Awesome Pro 6.1.1 by @fontawesome - https://fontawesome.com License - https://fontawesome.com/license (Commercial License) Copyright 2022 Fonticons, Inc.--><path d="M328 176h32c13.3 0 24 10.7 24 24s-10.7 24-24 24H248c-13.3 0-24-10.7-24-24s10.7-24 24-24h32V57.3l-16.4 5.47c-12.6 4.19-26.2-2.61-30.4-15.18-4.2-12.58 2.6-26.17 15.2-30.36l48-15.998C303.7-1.208 311.8.02 318 4.53c6.3 4.511 10 11.76 10 19.47v152zM104 464h32c13.3 0 24 10.7 24 24s-10.7 24-24 24H24c-13.25 0-24-10.7-24-24s10.75-24 24-24h32V345.3l-16.41 5.5c-12.58 3.3-26.17-2.6-30.358-15.2C5.04 323 11.84 309.4 24.41 305.2l48-16c7.32-2.4 15.36-1.2 21.62 3.3C100.3 297 104 304.3 104 312v152zM0 72C0 32.24 32.24 0 72 0h48c39.8 0 72 32.24 72 72v80c0 39.8-32.2 72-72 72H72c-39.76 0-72-32.2-72-72V72zm72-24c-13.25 0-24 10.75-24 24v80c0 13.3 10.75 24 24 24h48c13.3 0 24-10.7 24-24V72c0-13.25-10.7-24-24-24H72zm240 240c5.1 0 11.7.7 17.3 2.1-6.8 14.4-11.7 29-14.6 46.1-.9-.1-1.8-.2-2.7-.2h-48c-13.3 0-24 10.7-24 24v80c0 13.3 10.7 24 24 24h48c8.7 0 16.3-4.6 20.5-11.5 7.6 14.7 17.2 28.3 28.4 40.4-12.9 11.8-30 19.1-48.9 19.1h-48c-39.8 0-72-32.2-72-72v-80c0-39.8 32.2-72 72-72h48zm328 80c0 79.5-64.5 144-144 144s-144-64.5-144-144 64.5-144.9 144-144.9S640 288.5 640 368zm-99.3-43.3L480 385.4l-28.7-28.7c-6.2-6.3-16.4-6.3-22.6 0-6.3 6.2-6.3 16.4 0 22.6l40 40c6.2 6.3 16.4 6.3 22.6 0l72-72c6.3-6.2 6.3-16.4 0-22.6-6.2-6.3-16.4-6.3-22.6 0z"/></svg>