<svg xmlns="http://www.w3.org/2000/svg" viewBox="0 0 640 512"><!--! Font Awesome Pro 6.1.1 by @fontawesome - https://fontawesome.com License - https://fontawesome.com/license (Commercial License) Copyright 2022 Fonticons, Inc.--><path d="M128 75.02V72C128 32.24 160.2.001 200 .001h48c39.8 0 72 32.239 72 71.999v80c0 21.6-9.5 41-24.6 54.2L399.7 288H440c39.8 0 72 32.2 72 72v15.1l118.8 94c10.4 8.2 12.3 23.3 4.1 33.7-8.2 10.4-23.3 12.3-33.7 4.1L9.196 42.89C-1.236 34.71-3.065 19.63 5.112 9.196 13.29-1.236 28.37-3.065 38.81 5.112L128 75.02zm48 37.58 79.4 62.2c9.6-3.1 16.6-12.1 16.6-22.8V72c0-13.25-10.7-24-24-24h-48c-13.3 0-24 10.75-24 24v40.6zM456 176h32c13.3 0 24 10.7 24 24s-10.7 24-24 24H376c-13.3 0-24-10.7-24-24s10.7-24 24-24h32V57.3l-16.4 5.47c-12.6 4.19-26.2-2.6-30.4-15.18-4.2-12.57 2.6-26.17 15.2-30.36l48-15.997c7.3-2.44 15.4-1.212 21.6 3.299 6.3 4.51 10 11.758 10 19.468v152zM232 464h32c13.3 0 24 10.7 24 24s-10.7 24-24 24H152c-13.3 0-24-10.7-24-24s10.7-24 24-24h32V345.3l-16.4 5.5c-12.6 3.3-26.2-2.6-30.4-15.2-4.2-12.6 2.6-26.2 15.2-30.4l48-16c7.3-2.4 15.4-1.2 21.6 3.3 6.3 4.5 10 11.8 10 19.5v152zm88-104c0-3.8.3-7.5.9-11.2l47.1 37.1V440c0 13.3 10.7 24 24 24h48c6.9 0 13.1-2.9 17.5-7.6l37.7 29.8C482 501.1 462.2 512 440 512h-48c-39.8 0-72-32.2-72-72v-80z"/></svg>