<svg xmlns="http://www.w3.org/2000/svg" viewBox="0 0 512 512"><!--! Font Awesome Pro 6.1.1 by @fontawesome - https://fontawesome.com License - https://fontawesome.com/license (Commercial License) Copyright 2022 Fonticons, Inc.--><path d="M416 80h-96V48c0-8.8 7.2-16 16-16h64c8.8 0 16 7.2 16 16v32zM192 48c0-8.8-7.2-16-16-16h-64c-8.8 0-16 7.2-16 16v32h96V48zm320 384c.225 26.44-21.15 48-47.59 48H336c-26.51 0-48-21.49-48-48V288h-64v144c0 26.5-21.5 48-48 48H47.59C21.15 480-.225 458.4 0 432l.375-44c3.374-129.7 60.96-150.1 63.5-243.9.477-17.61 14.38-32.1 32-32.1H191.1c18.6 0 32.9 14.3 32.9 32v16h64v-16c0-17.67 14.33-32 32-32h96.12c17.62 0 31.53 14.49 32 32.1 2.58 93.8 60.18 114.2 63.48 243.9l.4 44zM176 160h-64.9c-3.7 45-18.35 76.6-31.35 104.8-15.38 33-29.88 64.25-31.5 124.5L48 432.4l128-.4V160zm288 272-.375-43.63c-1.5-59.38-16-90.63-31.38-123.6C419.3 236.6 404.6 205 400.9 160H336v272h128z"/></svg>