<svg xmlns="http://www.w3.org/2000/svg" viewBox="0 0 576 512"><!--! Font Awesome Pro 6.1.1 by @fontawesome - https://fontawesome.com License - https://fontawesome.com/license (Commercial License) Copyright 2022 Fonticons, Inc.--><path d="M287.1 112c18.63 0 36.25 3.748 52.88 9.621 13.25-10.37 23.44-24.42 29.44-40.8C345 69.98 317.3 63.94 288.1 63.94c-29.13 0-56.91 5.962-82.16 16.84a89.396 89.396 0 0 0 29.57 40.75C251.1 115.8 269.5 112 287.1 112zm100.7 284.1c4.125 15.1 12.39 30.53 24.39 42.4 47.5-35.49 79.23-90.62 83.1-153.4-7.125-2-14.61-3.02-22.11-3.02-9.25 0-18 1.875-26.63 4.623C442.5 330.1 420.6 369.7 387.8 396.1zm-224 42.4c12-11.87 20.28-26.34 24.4-42.34-32.88-26.37-54.88-65.23-58.88-109.5-8.52-2.76-17.22-4.56-26.52-4.56-7.5 0-15.12 1-22.5 3.125 4.15 61.875 36 117.875 83.5 153.275zm411.7-155c-13.13-39.12-39.5-71.98-74.13-92.35-17.5-10.37-36.25-16.62-55.25-19.87 6-17.74 10-36.49 10-56.24 0-40.99-14.5-80.73-41-112.2-2.5-3-6.625-3.625-10-1.75-3.25 1.875-4.75 5.998-3.625 9.748 4.5 13.75 6.625 26.24 6.625 38.49 0 67.73-53.76 122.8-120 122.8s-120-55.11-120-122.8c0-12.12 2.25-24.74 6.625-38.49 1.125-3.75-.375-7.873-3.625-9.748-3.375-1.875-7.502-1.25-10 1.75C134.7 34.3 120.1 74.04 120.1 115c0 19.75 3.875 38.49 10 56.24-18.9 3.26-37.78 9.56-55.28 19.86-34.63 20.49-61.01 53.23-74.38 92.35-1.25 3.748.25 7.748 3.5 9.748 3.375 1.998 7.5 1.373 10-1.5 9.377-10.87 19-19.12 29.25-25.12 57.25-33.87 130.8-13.75 163.9 44.99 33.13 58.61 13.38 133.1-43.88 167.8-10.25 6.123-22 10.37-35.88 13.37-3.627.875-6.377 4.248-6.377 8.123.125 3.998 2.75 7.248 6.502 7.998 39.75 7.748 80.63.751 115.3-19.74 18-10.5 32.88-24.49 45.25-39.99 12.38 15.5 27.38 29.49 45.38 39.99 34.5 20.5 75.51 27.49 115.1 19.74 3.875-.75 6.375-4 6.5-7.998 0-3.875-2.625-7.248-6.375-8.123-13.88-2.875-25.63-7.248-35.75-13.37-57.38-33.87-77.01-109.2-44-167.8 33.13-58.73 106.6-78.85 164-44.99 10.12 6.123 19.75 14.24 29.13 25.12 2.5 2.873 6.752 3.498 10 1.5 3.41-1.998 4.91-5.998 3.51-9.698zm-288.4 36.6c-26.5 0-48-21.49-48-47.99 0-26.49 21.5-47.99 48-47.99s48.01 21.5 48.01 47.99c-.01 26.49-20.61 47.99-48.01 47.99z"/></svg>