<svg xmlns="http://www.w3.org/2000/svg" viewBox="0 0 512 512"><!--! Font Awesome Pro 6.1.1 by @fontawesome - https://fontawesome.com License - https://fontawesome.com/license (Commercial License) Copyright 2022 Fonticons, Inc.--><path d="M312 120c0-13.3 10.7-24 24-24s24 10.7 24 24-10.7 24-24 24-24-10.7-24-24zM28.44 160H192c17.7 0 32-14.3 32-32v-16C224 50.14 274.1 0 336 0c49.7 0 91.9 32.4 106.5 77.24l61.7 37.06c4.9 2.9 7.8 8.1 7.8 13.7s-2.9 10.8-7.8 13.7L448 175.5V192c0 93.9-57.7 174.3-139.7 207.6l40.9 77.2c6.2 11.7 1.7 26.2-10 32.4-11.7 6.2-27.1 1.7-32.4-10l-45.7-86.3c-12.1 1.2-24.5 3.1-37.1 3.1-1 0-2-.9-3-.9l32.2 61.7c6.2 11.7 1.7 26.2-10 32.4-11.7 6.2-27.1 1.7-32.4-10l-48.7-91.8C68.52 380.5 0 294.3 0 192v-3.6C0 172.7 12.74 160 28.44 160zm20.28 48C56.8 297.7 132.2 368 224 368c97.2 0 176-78.8 176-176v-80c0-35.35-28.7-64-64-64s-64 28.65-64 64v16c0 44.2-35.8 80-80 80H48.72z"/></svg>