<svg xmlns="http://www.w3.org/2000/svg" viewBox="0 0 640 512"><!--! Font Awesome Pro 6.1.1 by @fontawesome - https://fontawesome.com License - https://fontawesome.com/license (Commercial License) Copyright 2022 Fonticons, Inc.--><path d="M96 328c0 13.2 10.9 24 24 24h168v-1.92c0-14.98 2.9-30.58 8-46.08H120c-13.1 0-24 10.8-24 24zm229.1-85.3c7.039-11.55 15.04-23.17 24-34.72H120c-26.88 0-51.84 8.928-72 24v-144c0-22.08 17.92-40 40-40h272c22.08 0 40 17.92 40 40v63.39c4.16-3.904 8.32-7.744 12.48-11.52C422.4 130.9 435.5 127 448 128.2V88c0-48.61-39.4-88-88-88H88C39.36 0 0 39.39 0 88v240c0 66.3 53.76 120 120 120h194.2a195.294 195.294 0 0 1-19.84-48H120c-39.68 0-72-32.22-72-72s32.32-72 72-72h197.4c2.6-4.5 5.2-8.9 7.7-13.3zM616 273.2c-15.04-28.48-35.84-58.46-60.48-81.15-5.72-5.15-14.42-5.15-20.12-.05-9.598 8.768-18.56 19.62-26.24 29.5a546.06 546.06 0 0 0-55.68-57.73c-5.48-4.97-14.08-4.97-19.58-.07-33.28 29.7-61.44 63.42-81.6 95.78C332.8 291.5 320 323.7 320 350.1c0 87.8 70.4 161.9 160 161.9 88.64 0 160-74.11 160-161.9 0-20.2-9.6-48.9-24-76.9zm-86.1 158.9c-15 10.9-31 15.9-49.8 15.9-44.3 0-80.1-29-80.1-78.9 0-24 15.04-44.99 45.12-81.98 3.84 4.992 61.76 79.01 61.76 79.01l36.16-42.02c2.883 4 4.801 8 7.039 12C568 369.1 560 412 529.9 432.1z"/></svg>