<svg xmlns="http://www.w3.org/2000/svg" viewBox="0 0 448 512"><!--! Font Awesome Pro 6.1.1 by @fontawesome - https://fontawesome.com License - https://fontawesome.com/license (Commercial License) Copyright 2022 Fonticons, Inc.--><path d="M448 120c0-48.53-39.5-88-88-88H88C39.47 32 0 71.47 0 120v248c0 61.8 50.25 112 112 112h312c13.25 0 24-10.75 24-24s-10.75-24-24-24H112c-35.3 0-64-28.72-64-64s28.7-64 64-64h268c11.03 0 20 8.969 20 20s-8.969 20-20 20H120c-13.2 0-24 10.8-24 24s10.75 24 24 24h260c37.5 0 68-30.5 68-68 0-.912-.234-1.762-.27-2.666.07-.434.27-.834.27-1.334V120zm-68 136H112c-23.82 0-45.83 7.604-64 20.33V120c0-22.06 17.94-40 40-40h272c22.06 0 40 17.94 40 40v139.3c-6.4-1.9-13-3.3-20-3.3z"/></svg>