<svg xmlns="http://www.w3.org/2000/svg" viewBox="0 0 576 512"><!--! Font Awesome Pro 6.1.1 by @fontawesome - https://fontawesome.com License - https://fontawesome.com/license (Commercial License) Copyright 2022 Fonticons, Inc.--><path d="M351.1 392c-13.25 0-24 10.75-24 24s10.75 24 24 24 24-10.75 24-24-9.9-24-24-24zM115.7 122.6c7.5.75 14.5-3.499 17.25-10.25L158.7 49.1c3.127-7.375.25-15.87-6.625-20.12L112.9 4.887C98.49-3.863 80.11-.489 68.99 12.01c-92.63 103.59-92 259.49 2 362.49 9.875 10.75 29.13 12.5 41.75 4.75l39.38-24.12c6.875-4.25 9.627-12.75 6.625-20.12L132.1 271.7c-1.9-7.6-8.9-11-16.4-10.2l-45 4.374c-17.25-46.88-17.63-99.74 0-147.6l45 4.326zM489.9 330 576 .008 191.1.006l28.37 326.1c-35.38 14.12-60.38 48.62-60.38 88.1l.007 63.1c0 17.62 14.37 31.1 31.1 31.1L511.1 512c17.62 0 32-14.37 32-31.1l.9-64.9c0-37.9-22.1-70.4-54.1-86zm24-281.99-12.5 48-133.4-.005c-8.801 0-16 7.2-16 16s7.199 15.1 16 15.1l125 .004-16.75 64-108.3-.004c-8.801 0-16 7.2-16 15.1 0 8.801 7.199 16 16 16l100 .003-25.12 95.1H267.1L244.4 48.01h269.5zM495.1 464h-288v-47.1c0-26.5 21.5-48 48-48h192c26.5 0 48 21.5 48 48V464z"/></svg>