<svg xmlns="http://www.w3.org/2000/svg" viewBox="0 0 512 512"><!--! Font Awesome Pro 6.1.1 by @fontawesome - https://fontawesome.com License - https://fontawesome.com/license (Commercial License) Copyright 2022 Fonticons, Inc.--><path d="M425.9 330 512 0H48C21.5 0 0 21.5 0 48v160c0 26.5 21.5 48 48 48h102.3l6.125 71C121 341.1 96 375.6 96 416v64c0 17.62 14.38 32 32 32h320c17.62 0 32-14.38 32-32v-64c0-37.9-22.1-70.4-54.1-86zM48 208V48h84.12l14 160H48zM449.9 48l-12.5 48H304c-8.8 0-16 7.2-16 15.1s7.2 16.9 16 16.9h125l-16.75 64H304c-8.8 0-16 7.2-16 15.1 0 9.7 7.2 16.9 16 16.9h100l-25.12 96H204L180.4 48h269.5zM432 464H144v-48c0-26.5 21.5-48 48-48h192c26.5 0 48 21.5 48 48v48zm-144-72c-13.25 0-24 10.75-24 24s10.75 24 24 24 24-10.75 24-24-10.8-24-24-24z"/></svg>