<svg xmlns="http://www.w3.org/2000/svg" viewBox="0 0 512 512"><!--! Font Awesome Pro 6.1.1 by @fontawesome - https://fontawesome.com License - https://fontawesome.com/license (Commercial License) Copyright 2022 Fonticons, Inc.--><path d="M488 464H24c-13.25 0-24 10.8-24 24s10.75 24 24 24h464c13.25 0 24-10.75 24-24s-10.7-24-24-24zm0-304H224v48h264c13.3 0 24-10.7 24-24s-10.7-24-24-24zm-464 0c-13.25 0-24 10.8-24 24s10.75 24 24 24h120v32c0 1.471.584 2.75.838 4.148C116.5 253.8 96 280.4 96 312c0 39.8 32.2 72 72 72s72-32.2 72-72c0-31.61-20.51-58.17-48.84-67.85.24-1.35.84-2.65.84-4.15V48h296c13.3 0 24-10.75 24-24S501.3 0 488 0H24C10.75 0 0 10.75 0 24s10.75 24 24 24h120v112H24zm144 128c13.2 0 24 10.8 24 24s-10.8 24-24 24-24-10.8-24-24 10.8-24 24-24zm320 32H271.2c-1.359 17.58-6.773 33.96-15.79 48H488c13.25 0 24-10.75 24-24s-10.7-24-24-24zM24 368h56.6c-9.02-14.9-14.43-30.4-15.79-48H24c-13.25 0-24 10.8-24 24s10.75 24 24 24z"/></svg>