<svg xmlns="http://www.w3.org/2000/svg" viewBox="0 0 512 512"><!--! Font Awesome Pro 6.1.1 by @fontawesome - https://fontawesome.com License - https://fontawesome.com/license (Commercial License) Copyright 2022 Fonticons, Inc.--><path d="M494.8 432.4c-4.219-12.56-17.72-19.31-30.37-15.19-12.56 4.219-19.38 17.78-15.19 30.38L454.7 464H57.32l5.469-16.41c4.188-12.59-2.625-26.16-15.19-30.38-12.69-4.125-26.15 2.625-30.37 15.19l-16 48c-2.438 7.312-1.188 15.38 3.312 21.62S16.29 512 24.01 512h463.1c7.719 0 14.97-3.719 19.47-9.969s5.75-14.31 3.312-21.62L494.8 432.4zm0-128c-4.2-12.6-17.7-19.3-30.4-15.2-12.56 4.219-19.38 17.78-15.19 30.38L454.7 336H57.32l5.469-16.41C66.97 307 60.16 293.4 47.6 289.2c-12.69-4.1-26.16 2.6-30.38 15.2l-16 48c-2.438 7.312-1.188 15.38 3.312 21.62S16.29 384 24.01 384h463.1c7.719 0 14.97-3.719 19.47-9.969s5.75-14.31 3.312-21.62L494.8 304.4zm-.6-257.66c10.2-2.79 16.9-11.7 16.9-22.74 0-13.25-10.75-24-24-24H24.01c-13.25 0-24 10.75-24 24 0 11.04 7.619 19.95 17.77 22.74L1.23 96.4c-2.443 7.3-1.193 15.4 3.307 21.6s11.753 10 19.473 10H144v36.41C116.1 174.3 96 200.7 96 232c0 39.76 32.24 72 71.1 72 40.7 0 72.9-32.2 72.9-72 0-31.3-20.1-57.67-47.1-67.59V48h252l10.67 32H224v48h263.1c7.719 0 14.97-3.719 19.47-9.969s5.75-14.31 3.312-21.62L494.2 46.74zM57.32 80l10.67-32H144v32H57.32zM168 256c-13.23 0-24-10.77-24-24s10.77-24 24-24 24 10.77 24 24-10.8 24-24 24zm326.8-79.6c-4.2-12.6-17.7-19.3-30.4-15.2-12.56 4.219-19.38 17.78-15.19 30.38L454.7 208H268.9c1.9 7.7 3.1 15.7 3.1 24s-1.2 16.3-3.1 24h219c7.719 0 14.97-3.719 19.47-9.969s5.75-14.31 3.312-21.62L494.8 176.4zM47.6 161.2c-12.69-4-26.16 2.6-30.38 15.2l-16 48c-2.433 7.3-1.183 15.4 3.317 21.6s11.753 10 19.473 10h43.01c-1.836-7.736-3.016-15.7-3.016-24s1.221-16.26 3.057-24H57.32l5.469-16.41C66.97 179 60.16 165.4 47.6 161.2z"/></svg>