<svg xmlns="http://www.w3.org/2000/svg" viewBox="0 0 640 512"><!--! Font Awesome Pro 6.1.1 by @fontawesome - https://fontawesome.com License - https://fontawesome.com/license (Commercial License) Copyright 2022 Fonticons, Inc.--><path d="M176 336h112.8c-.5 4.7-.8 9.4-.8 14.1 0 11.5 1 22.8 2.1 33.9H256v48h50.1c8.1 17.5 18.7 33.7 31.5 48H96c-35.35 0-64-28.7-64-64V96c0-35.35 28.65-64 64-64h320c35.3 0 64 28.65 64 64v48.6c-1.7-1.6-3.3-3.1-5.9-5.5-16.8-15.1-43.9-16-61.6.8-13 11.5-25.2 23.6-36.6 36.1H256v56h76c-2.4 3.6-4.6 7.2-6.8 10.7-7.4 12-15.1 24.5-20 37.3H176v56zm0-208h160V80H176v48zm-48 0V80H96c-8.84 0-16 7.16-16 16v32h48zm-48 48v56h128v-56H80zm48 160v-56H80v56h48zm-48 48v32c0 8.8 7.16 16 16 16h112v-48H80zm352-256V96c0-8.84-7.2-16-16-16h-32v48h48zm77 93.5c7.9-9.9 16.8-20.7 26.5-30.4 5.6-4.2 14.4-4.2 20 .9 24.7 22.7 45.6 52.7 60.3 81.2 14.6 28 24.2 56.7 24.2 76.9 0 87.8-71.3 161.9-160 161.9-89.7 0-160-74.2-160-161.9 0-26.4 12.7-58.6 32.4-90.6 20-32.3 48.1-66.1 81.4-95.8 5.6-5 13.3-4.9 19.7.1 19.8 17.8 38.3 36.9 55.5 57.7zm41 114.6c-2-4-4-8-7-12L507 367s-58.9-74-62.9-79C415 324.1 400 346 400 370c0 49 36 78 80.1 78 18.9 0 34.9-5 49.9-15.9 30-20.1 38-62.1 20-96z"/></svg>