<svg xmlns="http://www.w3.org/2000/svg" viewBox="0 0 448 512"><!--! Font Awesome Pro 6.1.1 by @fontawesome - https://fontawesome.com License - https://fontawesome.com/license (Commercial License) Copyright 2022 Fonticons, Inc.--><path d="M200 176c-8.8 0-16 7.2-16 16v8c0 13.3-10.7 24-24 24s-24-10.7-24-24v-8c0-35.3 28.7-64 64-64h58c38.7 0 70 31.3 70 69.1 0 25.4-12.9 48.2-34 60l-46 28.5v2.4c0 13.3-10.7 24-24 24s-24-10.7-24-24v-16c0-8.4 4.4-16.2 11.7-20.6l57.6-34.6c5.8-4 10.7-11.1 10.7-19.7 0-11.3-9.8-21.1-22-21.1h-58zm-8 192c0-17.7 14.3-32 32-32s32 14.3 32 32-14.3 32-32 32-32-14.3-32-32zm-80-248c0 13.3-10.7 24-24 24-13.25 0-24-10.7-24-24s10.75-24 24-24c13.3 0 24 10.7 24 24zm224 0c0-13.3 10.7-24 24-24s24 10.7 24 24-10.7 24-24 24-24-10.7-24-24zM112 392c0 13.3-10.7 24-24 24-13.25 0-24-10.7-24-24s10.75-24 24-24c13.3 0 24 10.7 24 24zm224 0c0-13.3 10.7-24 24-24s24 10.7 24 24-10.7 24-24 24-24-10.7-24-24zm48-360c35.3 0 64 28.65 64 64v320c0 35.3-28.7 64-64 64H64c-35.35 0-64-28.7-64-64V96c0-35.35 28.65-64 64-64h320zm0 48H64c-8.84 0-16 7.16-16 16v320c0 8.8 7.16 16 16 16h320c8.8 0 16-7.2 16-16V96c0-8.84-7.2-16-16-16z"/></svg>