<svg xmlns="http://www.w3.org/2000/svg" viewBox="0 0 512 512"><!--! Font Awesome Pro 6.1.1 by @fontawesome - https://fontawesome.com License - https://fontawesome.com/license (Commercial License) Copyright 2022 Fonticons, Inc.--><path d="M216.1.08C204-1.045 192.6 9.798 192 23.05c-.5 13.25 9.7 24.43 22.1 24.96 131.8 5.531 243.5 117.2 249 249 .547 12.91 11.17 22.1 23.97 22.1.328 0 .672 0 1.016-.031 13.25-.531 23.53-11.72 22.98-24.97C505.4 138.9 373.1 6.61 216.1.08zm1.5 96.02c-12.95-.625-24.66 9.157-25.52 22.37-.88 13.23 9.12 24.63 22.32 24.63 79.53 5.187 148.4 74.09 153.6 153.6.828 12.69 11.39 22.43 23.94 22.43a26.5 26.5 0 0 0 1.578-.063c13.22-.843 23.25-12.28 22.39-25.5C409.3 191.7 320.3 102.8 217.6 96.1zM143.1 224h-24c-13.25 0-23.1 10.75-23.1 23.1 0 13.25 10.75 23.1 23.1 23.1h23.1c52.94 0 95.1 43.06 95.1 95.99S196.9 464 143.1 464 48 420.94 48 368.01V120c0-13.25-10.75-24.01-23.1-24.01S0 106.8 0 120v247.1C0 447.4 64.59 512 143.1 512s143.1-64.59 143.1-143.1S223.4 224 143.1 224z"/></svg>