<svg xmlns="http://www.w3.org/2000/svg" viewBox="0 0 512 512"><!--! Font Awesome Pro 6.1.1 by @fontawesome - https://fontawesome.com License - https://fontawesome.com/license (Commercial License) Copyright 2022 Fonticons, Inc.--><path d="M208 284h-28v-28c0-11.05-8.969-20-20-20s-20 8.1-20 20v28h-28c-11.03 0-20 8.953-20 20s8.969 20 20 20h28v28c0 11.05 8.969 20 20 20s20-9 20-20v-28h28c11.03 0 20-8.953 20-20s-9-20-20-20zM336 0c-92 0-166.8 70.78-174.6 160.7C71.05 168.2 0 243.7 0 336c0 97.2 78.8 176 176 176 92.28 0 167.8-71.05 175.3-161.4C441.2 342.8 512 267.1 512 176 512 78.8 433.2 0 336 0zM176 464c-70.58 0-128-57.42-128-128s57.42-128 128-128 128 57.42 128 128-57.4 128-128 128zm240-336h-32v32c0 8.844-7.156 16-16 16s-16-7.2-16-16v-32h-32c-8.844 0-16-7.156-16-16s7.2-16 16-16h32V64c0-8.844 7.156-16 16-16s16 7.16 16 16v32h32c8.844 0 16 7.156 16 16s-7.2 16-16 16z"/></svg>