<svg xmlns="http://www.w3.org/2000/svg" viewBox="0 0 640 512"><!--! Font Awesome Pro 6.1.1 by @fontawesome - https://fontawesome.com License - https://fontawesome.com/license (Commercial License) Copyright 2022 Fonticons, Inc.--><path d="M227.9 153.3 399.1 6.894A28.63 28.63 0 0 1 417.7 0c19.1 0 32.9 18.26 27.7 36.61L391.8 224h85.3c19.3 0 34.9 15.6 34.9 34.9 0 10.3-4.5 20-12.3 26.7l-49.5 42 180.6 141.5c10.4 8.2 12.3 23.3 4.1 33.7-8.2 10.4-23.3 12.3-33.7 4.1L9.196 42.89C-1.236 34.71-3.065 19.63 5.112 9.196 13.29-1.236 28.37-3.065 38.81 5.112L227.9 153.3zm38.5 30.2 71.1 55.8 44.1-154.31-115.2 98.51zM379.3 272l32.3 25.3 29.9-25.3h-62.2zm-42.8 89.1 38.4 30.3-134 113.8c-5.2 4.4-11.8 6.8-18.6 6.8-19.1 0-32.9-18.3-27.7-36.6l52.8-184.5 40.7 31.2-29.8 105.4 78.2-66.4zm-183-144.2 90.2 71.1h-82c-18.6 0-33.7-15.1-33.7-33.7 0-9.9 4.3-19.3 11.8-25.7l13.7-11.7z"/></svg>