<svg xmlns="http://www.w3.org/2000/svg" viewBox="0 0 512 512"><!--! Font Awesome Pro 6.1.1 by @fontawesome - https://fontawesome.com License - https://fontawesome.com/license (Commercial License) Copyright 2022 Fonticons, Inc.--><path d="M440.8 4.994C441.9 1.99 444.8 0 448 0s6.1 1.99 7.2 4.994l14.1 37.676L507 56.79c3 1.13 5 4 5 7.21s-2 6.08-5 7.21l-37.7 14.12L455.2 123c-1.1 3-4 5-7.2 5s-6.1-2-7.2-5l-14.1-37.67-38.6-14.12c-3-1.13-4.1-4-4.1-7.21s1.1-6.08 4.1-7.21l38.6-14.12 14.1-37.676zM111.1 320c0 8.8-6.3 16-16 16-7.94 0-16-7.2-16-16v-8c0-75.1 61.8-136 136-136h8c9.7 0 16 7.2 16 16s-6.3 16-16 16h-8c-56.5 0-104 46.6-104 104v8zM334.6 97.37l28.7 28.73 17.4-17.4c6.2-6.3 16.4-6.3 22.6 0 6.3 6.2 6.3 16.4 0 22.6l-17.4 17.4 28.7 28.7c12.5 12.5 12.5 32.7 0 45.2l-10.8 10.9c7.9 22 12.2 45.8 12.2 70.5 0 114.9-93.1 208-208 208C93.12 512 0 418.9 0 304S93.12 96 208 96c24.7 0 48.5 4.3 70.5 12.3l10.9-10.93c12.5-12.49 32.7-12.49 45.2 0zM207.1 144c-87.5 0-160 71.6-160 160s72.5 160 160 160c89.3 0 160.9-71.6 160.9-160 0-19.1-3.3-37.4-9.4-54.2-6.2-17.3-2-36.7 10.8-49.8l-58.3-57.4c-12.2 12.8-31.6 17-48.9 10.8-16.8-6.1-35.1-9.4-55.1-9.4z"/></svg>