<svg xmlns="http://www.w3.org/2000/svg" viewBox="0 0 640 512"><!--! Font Awesome Pro 6.1.1 by @fontawesome - https://fontawesome.com License - https://fontawesome.com/license (Commercial License) Copyright 2022 Fonticons, Inc.--><path d="M407.1 159.1c6.156 0 12.28-2.344 16.97-7.031l47.1-47.1c9.374-9.374 9.374-24.56 0-33.94s-24.56-9.374-33.94 0l-47.1 47.1c-9.374 9.374-9.374 24.56 0 33.94 5.57 5.631 11.67 7.031 16.97 7.031zm-88-32c13.25 0 23.1-10.75 23.1-24v-80c.9-12.35-9-23.1-23.1-23.1s-24 10.75-24 23.1v79.1c0 15 11.6 24.9 24 24.9zm-104.1 25c4.7 5.6 10.8 7 16.1 7s12.28-2.344 16.97-7.031c9.374-9.374 9.374-24.56 0-33.94L200.1 71.03c-9.374-9.374-24.56-9.374-33.94 0-9.374 9.374-9.374 24.56 0 33.94L215 152.1zm367.5 46.3c-43.65-16.5-93.56.25-116.3 39.18-2.937 5.062-9.406 7.655-14.41 7.093l-78.49-17.56c-12.97-3.031-25.75 5.218-28.65 18.15s5.218 25.78 18.15 28.65l79.87 17.84c25.81 4.187 52.15-7.843 65.15-30.25 10.94-18.72 35.65-26.5 57.75-18.25 18.62 7.062 29.47 26.31 25.78 45.68l-.719 3.781c-2.844 14.94-14.69 26.93-31.06 31.37-13.44 3.781-23.19 14.5-25.47 27.1-2.25 13.31 3.312 26.43 14.75 34.37 13.06 8.874 19.47 23.4 16.69 37.1l-.656 3.593c-3.843 20.06-21.72 35.12-42.56 35.87-22.22.125-42.72-13.44-46.43-33.31l-.187-1.312c-3.1-25.53-24.5-45.59-49.12-49.53l-106.5-26.22-104.6 25.84c-26.53 4.312-47.03 24.37-50.97 49.65l-.313 1.781c-3.812 19.75-23.65 34.28-46.4 33.06-20.81-.719-38.68-15.78-42.5-35.72l-.719-3.812c-2.75-14.5 3.656-29.03 16.91-38.03 11.25-7.812 16.81-20.94 14.56-34.25-2.28-13.5-12.03-24.22-25.62-28.03-16.22-4.406-28.06-16.4-30.9-31.4L48.73 289c-3.718-19.47 7.124-38.71 25.78-45.78 21.97-8.218 46.78-.469 57.78 18.37 12.91 22.31 39.01 34.61 66.41 29.91l78.49-17.56c12.94-2.875 21.06-15.72 18.15-28.65-2.875-12.94-15.75-21.15-28.65-18.15L189.6 244.4c-6.7 1.1-12.9-1.8-15.9-7.1-22.6-38.7-72.6-55.4-116.16-38.9-40.5 15.28-64.03 57.15-55.96 99.68l.719 3.656c4.937 25.93 21.4 47.71 44.68 60.37-16.94 19.53-24.5 45.62-19.65 71.12l.718 3.843c7.968 41.84 44.97 73.3 87.93 74.8 46.75 2.625 88.59-30.28 95.71-74.52l.22-1.219c1.03-4.687 5.53-8.437 13.06-9.718l95.02-23.4 96.93 23.78c5.686.937 10.09 4.625 11.22 9.686l.155.875c6.937 43.09 46.15 74.62 92.02 74.62 1.22 0 2.437-.031 3.656-.063 42.1-1.53 79.99-32.1 87.99-74.96l.657-3.625c4.875-25.59-2.687-51.74-19.59-71.24 23.28-12.65 39.75-34.4 44.65-60.28l.75-3.812C646.5 255.5 622.9 213.7 582.5 198.4z"/></svg>