<svg xmlns="http://www.w3.org/2000/svg" viewBox="0 0 448 512"><!--! Font Awesome Pro 6.1.1 by @fontawesome - https://fontawesome.com License - https://fontawesome.com/license (Commercial License) Copyright 2022 Fonticons, Inc.--><path d="M448 352V48c0-26.47-21.5-48-48-48H80C35.82 0 0 35.82 0 80v352c0 44.2 35.82 80 80 80h72c13.25 0 24-10.75 24-24 0-13.26-10.75-24-24-24H80c-17.64 0-32-14.34-32-32s14.36-32 32-32h72c13.25 0 24-10.75 24-24 0-13.3-10.7-24-24-24H80c-11.38 0-22.2 2.375-32 6.688V80c0-17.67 14.33-32 32-32h320v304h-72c-13.25 0-24 10.74-24 24 0 13.25 10.75 24 24 24h40v64h-40c-13.25 0-24 10.74-24 24 0 13.25 10.75 24 24 24h96c13.25 0 24-10.75 24-24s-10.75-24-24-24h-8v-66.95c18.6-6.65 32-24.25 32-45.05zM336.1 248.1c9.375-9.375 9.375-24.56 0-33.94l-80-80c-9.375-9.375-24.56-9.375-33.94 0l-80 80c-9.375 9.375-9.375 24.56 0 33.94s24.56 9.375 33.94 0l39.9-38.2V488c0 13.25 10.75 24 24 24s24-10.75 24-24V209.9l39.03 39.03C307.7 253.7 313.8 256 320 256s12.3-2.3 16.1-7.9z"/></svg>