<svg xmlns="http://www.w3.org/2000/svg" viewBox="0 0 448 512"><!--! Font Awesome Pro 6.1.1 by @fontawesome - https://fontawesome.com License - https://fontawesome.com/license (Commercial License) Copyright 2022 Fonticons, Inc.--><path d="M448 352V48c0-26.47-21.5-48-48-48H80C35.89 0 0 35.88 0 80v352c0 44.1 35.89 80 80 80h344c13.25 0 24-10.75 24-24s-10.75-24-24-24h-8v-66.95c18.6-6.65 32-24.25 32-45.05zm-80 112H80c-17.64 0-32-14.34-32-32s14.36-32 32-32h288v64zm32-112H80c-11.38 0-22.2 2.375-32 6.688V80c0-17.66 14.36-32 32-32h320v304zM159.1 144l12.42 29.78C173 175 174.6 176 175.1 176s2.965-.992 3.574-2.219L191.1 144l30.7-12.4c.3-1.5 1.3-2.2 1.3-3.6 0-1.367-1-2.969-2.217-3.578L191.1 112l-11.5-29.78c-1.5-1.23-2.2-2.22-4.5-2.22s-2.1.99-2.7 2.22L159.1 112l-28.9 12.4c-2.1.6-2.2 2.2-2.2 3.6 0 1.359.992 2.969 2.211 3.578L159.1 144zm48.9 95.1c.012 2.266 1.67 4.965 3.693 5.973l49.38 20.59.4.45 20.56 49.3c1.012 2.034 3.672 3.68 5.944 3.694 2.28 0 4.965-1.652 5.98-3.695l20.7-49.64 49.64-20.7C366.3 244.9 368 242.3 368 240c0-2.281-1.652-4.945-3.682-5.961L314.7 213.3 294 163.66c-1.016-2.043-3.698-3.693-5.977-3.693-2.271.016-4.935 1.662-5.947 3.693l-20.72 49.63L211.7 234c-2 1-3.7 3.7-3.7 5.1z"/></svg>