<svg xmlns="http://www.w3.org/2000/svg" viewBox="0 0 448 512"><!--! Font Awesome Pro 6.1.1 by @fontawesome - https://fontawesome.com License - https://fontawesome.com/license (Commercial License) Copyright 2022 Fonticons, Inc.--><path d="M368 0H48C21.53 0 0 21.53 0 48v304c0 20.83 13.42 38.43 32 45.05V464h-8c-13.25 0-24 10.8-24 24s10.75 24 24 24h344c44.11 0 80-35.88 80-80V80c0-44.12-35.9-80-80-80zm0 464H80v-64h288c17.64 0 32 14.34 32 32s-14.4 32-32 32zm32-105.3c-9.8-4.3-20.6-6.7-32-6.7H48V48h320c17.64 0 32 14.34 32 32v278.7zM304.1 172l-12.75-25.88c-1.376-2.75-5.376-2.75-6.75 0L271.9 172l-28.62 4.25c-3.125.375-4.375 4.125-2.125 6.375l20.75 20.12L257 231.3c-.5 3 2.625 5.375 5.375 4L288 221.8l25.62 13.5c2.75 1.375 5.875-.875 5.375-4l-4.875-28.5 20.75-20.12c2.25-2.25 1-6-2.125-6.375L304.1 172zm-55.7 98.9-3.5.1c-39.13 0-71-31.88-71-71s31.88-71 71-71l3.5.125c6.375 0 12-4.625 13.38-10.88 1.25-6.625-2.25-13.12-8.625-15.62C241.3 98.25 229 96 216.6 96c-57.25 0-104 46.63-104 104s46.63 104 104 104c12.38 0 24.62-2.25 36.13-6.5 5.5-1.875 9.249-7.125 9.249-13-.879-7.5-6.079-13.6-13.579-13.6z"/></svg>