<svg xmlns="http://www.w3.org/2000/svg" viewBox="0 0 448 512"><!--! Font Awesome Pro 6.1.1 by @fontawesome - https://fontawesome.com License - https://fontawesome.com/license (Commercial License) Copyright 2022 Fonticons, Inc.--><path d="M448 352V48c0-26.47-21.5-48-48-48H80C35.89 0 0 35.88 0 80v352c0 44.1 35.89 80 80 80h344c13.25 0 24-10.75 24-24s-10.75-24-24-24h-8v-66.95c18.6-6.65 32-24.25 32-45.05zm-80 112H80c-17.64 0-32-14.34-32-32s14.36-32 32-32h288v64zm32-112H80c-11.38 0-22.2 2.375-32 6.688V80c0-17.66 14.36-32 32-32h320v304zM149.3 230.5c2.2 1.9 3.1 4.8 2.6 7.6-.5 2.75-2.625 5.125-5.25 6-2.75.9-5.75.4-7.85-1.6l-20-17.5c11.7 54.3 61.6 95 121.2 95s109.5-40.75 121.3-95l-20 17.5c-3.25 3-8.375 2.625-11.25-.75-1.25-1.45-1.95-3.25-2.05-5.25.125-2.25 1.125-4.375 2.75-6l33.13-29c0-.375.125-.75.125-1.125 0-10.75-1.625-21.5-4.625-31.88l-17.75 17.75c-3.125 3-8.188 3.125-11.31 0s-3.02-8.245.08-11.345l22.6-22.8c-11.12-23.75-29.62-43.25-52.88-55.63-1.52-.84-3.52-.47-4.72.78-.6.88-1 1.75-1.1 2.75.125.75.25 1.5.625 2.125C301.1 111.8 304.5 123 304.5 134.4c0 14.38-5.125 27.88-15 39.13-1.125 1.375-1.25 3.5-.25 5 11.5 16.38 13.88 37.5 6.5 56.13-7.25 18.62-23.5 32.38-43.13 36.5H252V243.4l6.375 6.25c2 2.125 4.875 2.875 7.75 2.125C268.9 251 271 248.9 271.8 246.1s-.125-5.75-2.125-7.75L259.3 228H272c4.375 0 8-3.625 8-8s-3.625-8-8-8h-12.75l10.38-10.38c3.125-3.125 3.125-8.125 0-11.25s-8.125-3.125-11.25 0L252 196.8V100c0-6.625-5.375-12-12-12s-12 5.375-12 12v96.75l-6.4-6.35c-3.125-3.125-8.125-3.125-11.25 0s-3.125 8.125 0 11.25L220.6 212H208c-4.375 0-8 3.625-8 8s3.625 8 8 8h12.62l-10.22 10.4c-3.125 3.125-3.125 8.125 0 11.25s8.125 3.125 11.25 0l6.35-6.35v27.88h-.625C207.8 267 191.6 253.3 184.3 234.6s-5-39.75 6.5-56.13c1-1.625.875-3.625-.25-5-9.875-11.25-15-24.75-15-39.13 0-11.38 3.375-22.62 9.625-32.25.875-1.5.75-3.5-.5-4.875S181.4 95.63 179.8 96.5c-23.2 12.4-41.7 31.9-52.8 55.6l22.62 22.75c3.125 3.125 3.125 8.25 0 11.38s-8.125 3-11.25-.125L120.6 168.5c-3 10.4-4.6 21.1-4.6 31.9 0 .375.125.75.125 1.125L149.3 230.5z"/></svg>