<svg xmlns="http://www.w3.org/2000/svg" viewBox="0 0 640 512"><!--! Font Awesome Pro 6.1.1 by @fontawesome - https://fontawesome.com License - https://fontawesome.com/license (Commercial License) Copyright 2022 Fonticons, Inc.--><path d="m630.8 469.1-118.8-94V48c0-26.51-21.5-48-48-48H176c-26.5 0-48 21.49-48 48v27.01L38.81 5.111C28.35-3.061 13.32-1.249 5.121 9.189-3.051 19.63-1.233 34.72 9.189 42.89L601.2 506.9c4.4 3.4 9.6 5.1 13.9 5.1 7.125 0 14.16-3.161 18.89-9.193 9.11-10.407 7.21-25.507-3.19-33.707zM464 338.4 176 112.7V54c0-3.37 2.6-6 5.1-6h276c4.3 0 6.9 2.63 6.9 6v284.4zM320 368l-144 84V234.2l-48-37.6V480c0 24.7 26.79 40.08 48.12 27.64L320 423.6l143.9 83.93c16.62 9.695 36.39 2.383 44.38-12.96l-83.71-65.6L320 368z"/></svg>