<svg xmlns="http://www.w3.org/2000/svg" viewBox="0 0 576 512"><!--! Font Awesome Pro 6.1.1 by @fontawesome - https://fontawesome.com License - https://fontawesome.com/license (Commercial License) Copyright 2022 Fonticons, Inc.--><path d="M79.1 352h31.1c8.836 0 16-7.164 16-16l.9-48h47.1c8.836 0 16-7.165 16-16v-32c0-8.836-7.165-15.1-16-15.1h-47.1v-47.1c0-8.836-7.164-15.1-16-15.1h-32c-8.836 0-15.1 7.163-15.1 15.1l-.9 46.2H16c-8.836 0-16 7.163-16 15.1v32c0 8.836 7.164 16 16 16h47.1V336c0 8.8 8.06 16 16 16zm495.3 83.4L466.7 35.5C460.9 14.08 441.5 0 420.4 0c-4.111 0-8.294.531-12.46 1.641l-61.82 16.48c-5.885 1.57-11.14 4.258-15.78 7.633C322.3 10.51 306.4 0 288 0h-64c-8.8 0-16.9 2.531-24 6.656C192.9 2.531 184.8 0 176 0h-64C85.49 0 64 21.49 64 48v56c0 13.3 10.75 24 24 24s24-10.7 24-24V48h64v120c0 13.3 10.7 24 24 24s24-10.7 24-24v-24h64v224h-64v-24c0-13.3-10.7-24-24-24s-24 10.7-24 24v120h-64v-56c0-13.3-10.7-24-24-24s-24 10.7-24 24v56c0 26.5 21.49 48 48 48h64c8.787 0 16.92-2.531 24-6.656 7.1 4.156 15.2 6.656 24 6.656h64c26.51 0 48-21.49 48-48V165.3l83.8 311.3c5.8 21.3 25.1 35.4 46.3 35.4 4.111 0 8.293-.531 12.46-1.641l61.91-16.51C565.1 487.1 581.2 460.8 574.4 435.4zM288 464h-64v-48h64v48zm0-368h-64V48h64v48zm70.4-31.5 61.83-16.48 12.47 45.91-61.9 16.47-12.4-45.9zm24.9 92.1 61.91-16.51 58.04 215.3-61.91 16.51-58.04-215.3zm82.9 307.5-12.41-46.04 61.91-16.51 12.38 45.94-61.88 16.61z"/></svg>