<svg xmlns="http://www.w3.org/2000/svg" viewBox="0 0 448 512"><!--! Font Awesome Pro 6.1.1 by @fontawesome - https://fontawesome.com License - https://fontawesome.com/license (Commercial License) Copyright 2022 Fonticons, Inc.--><path d="M448 352V48c0-26.47-21.5-48-48-48H80C35.89 0 0 35.88 0 80v352c0 44.1 35.89 80 80 80h344c13.25 0 24-10.75 24-24s-10.75-24-24-24h-8v-66.95c18.6-6.65 32-24.25 32-45.05zm-80 112H80c-17.64 0-32-14.34-32-32s14.36-32 32-32h288v64zm32-112H80c-11.38 0-22.2 2.375-32 6.688V80c0-17.66 14.36-32 32-32h320v304zm-171.1-65.1c-9.5-1.2-20.8-5.8-30.8-8.2l-5.2-1.7c-8.6-2.7-17.4 1.9-20.1 10.3-2.7 8.5 1.9 17.5 10.3 20.2l5.1 1.6c11.28 3.688 24.09 7.875 36.34 9.531 6.594.922 12.91 1.375 18.91 1.375 34.5 0 58.75-15 63.66-40.7 3.766-19.76-3.5-32.58-14.96-41.59 7.691-6.637 13-15.07 14.96-25.27 8.188-42.97-34.73-53.92-63.11-61.27l-6.734-1.906C204.3 140.5 202.8 134.7 204.4 126.7c2.188-11.41 21.81-17.11 46.63-13.64 7.969 1.125 17.09 3.812 23.22 5.734a16.021 16.021 0 0 0 20.06-10.52c2.625-8.438-2.094-17.41-10.5-20.05-11.5-3.578-20.47-5.75-28.28-6.859C211 75.11 178.7 90.52 172.9 120.7c-3.781 19.83 3.82 32.73 14.94 41.61-7.64 6.59-12.94 15.09-14.94 25.19-8.094 42.48 35.22 54 56.06 59.55l6.938 1.812c36.44 9.422 41.66 14.12 39.69 24.42C273.5 284.8 253.8 290.5 228.9 286.9zm46.7-80.4c-1.859 9.682-14.38 12.88-22.17 13.98-3.25-.896-16.23-4.295-16.23-4.295-32.9-8.785-34.4-14.685-32.8-22.685 1.859-9.701 14.44-12.9 22.22-13.99.77.207 9.328 2.602 9.328 2.602C272.4 191.6 277.6 196.2 275.6 206.5z"/></svg>