<svg xmlns="http://www.w3.org/2000/svg" viewBox="0 0 640 512"><!--! Font Awesome Pro 6.1.1 by @fontawesome - https://fontawesome.com License - https://fontawesome.com/license (Commercial License) Copyright 2022 Fonticons, Inc.--><path d="M348.6 464H80c-17.64 0-32-14.34-32-32s14.36-32 32-32h243c-1.9-10.4-3-21.1-3-32 0-5.4.328-10.72.805-16H80c-11.38 0-22.2 2.375-32 6.688V80c0-17.66 14.36-32 32-32h320v172.6c14.63-9.553 30.78-16.93 48-21.8V48c0-26.47-21.5-48-48-48H80C35.89 0 0 35.88 0 80v352c0 44.1 35.89 80 80 80h315c-18.4-12.9-34.1-29.2-46.4-48zM496 224c-79.5 0-144 64.5-144 143.1S416.5 512 496 512s144-64.46 144-144-64.5-144-144-144zm67.3 147.3c-6.25 6.25-16.38 6.25-22.62 0L512 342.6V432c0 8.836-7.164 15.1-16 15.1s-16-6.3-16-15.1v-89.38l-28.69 28.69c-6.25 6.25-16.38 6.25-22.62 0s-6.25-16.38 0-22.62l56-56c6.25-6.25 16.38-6.25 22.62 0l56 56C566.4 351.8 568 355.9 568 360s-1.6 8.2-4.7 11.3z"/></svg>