<svg xmlns="http://www.w3.org/2000/svg" viewBox="0 0 448 512"><!--! Font Awesome Pro 6.1.1 by @fontawesome - https://fontawesome.com License - https://fontawesome.com/license (Commercial License) Copyright 2022 Fonticons, Inc.--><path d="M448 352V48c0-26.47-21.5-48-48-48H80C35.89 0 0 35.88 0 80v352c0 44.1 35.89 80 80 80h344c13.25 0 24-10.75 24-24s-10.75-24-24-24h-8v-66.95c18.6-6.65 32-24.25 32-45.05zm-80 112H80c-17.64 0-32-14.34-32-32s14.36-32 32-32h288v64zm32-112H80c-11.38 0-22.2 2.375-32 6.688V80c0-17.66 14.36-32 32-32h320v304zm-169.9-52.1c5.496 5.504 14.24 5.504 19.74 0l84.72-85.56c24.62-25.02 23.12-66.17-4.502-89.19C306.2 105.1 270.5 108.7 248.5 130.9l-8.623 8.762-8.619-8.762c-21.858-22.2-57.458-25.8-81.458-5.8-27.5 23-29 64.2-4.4 89.2l84.7 85.6z"/></svg>