<svg xmlns="http://www.w3.org/2000/svg" viewBox="0 0 448 512"><!--! Font Awesome Pro 6.1.1 by @fontawesome - https://fontawesome.com License - https://fontawesome.com/license (Commercial License) Copyright 2022 Fonticons, Inc.--><path d="M448 352V48c0-26.47-21.5-48-48-48H80C35.89 0 0 35.88 0 80v352c0 44.1 35.89 80 80 80h344c13.25 0 24-10.75 24-24s-10.75-24-24-24h-8v-66.95c18.6-6.65 32-24.25 32-45.05zm-80 112H80c-17.64 0-32-14.34-32-32s14.36-32 32-32h288v64zm32-112H80c-11.38 0-22.2 2.375-32 6.688V80c0-17.66 14.36-32 32-32h320v304zM160 223.1l48-.002v48C208 280.8 215.2 288 224 288l32-.003c8.801 0 16-7.198 16-15.1v-48l48-.002c8.801 0 16-7.2 16-15.1V175.1c0-8.801-7.199-15.1-16-15.1h-48v-48.9c0-8.801-7.199-16-16-16l-32 .9c-8.8 0-16 7.2-16 15.1V160h-48c-8.8 0-16 7.2-16 15.1V208c0 8.8 7.2 15.1 16 15.1z"/></svg>