<svg xmlns="http://www.w3.org/2000/svg" viewBox="0 0 640 512"><!--! Font Awesome Pro 6.1.1 by @fontawesome - https://fontawesome.com License - https://fontawesome.com/license (Commercial License) Copyright 2022 Fonticons, Inc.--><path d="M348.6 464H80c-17.64 0-32-14.34-32-32s14.36-32 32-32h243c-1.9-10.4-3-21.1-3-32 0-5.4.328-10.72.805-16H80c-11.38 0-22.2 2.375-32 6.688V80c0-17.66 14.36-32 32-32h320v172.6c14.63-9.553 30.78-16.93 48-21.8V48c0-26.47-21.5-48-48-48H80C35.89 0 0 35.88 0 80v352c0 44.1 35.89 80 80 80h315c-18.4-12.9-34.1-29.2-46.4-48zM496 224c-79.5 0-144 64.5-144 144s64.46 144 144 144 144-64.46 144-144-64.5-144-144-144zm75.3 155.3-56 56c-3.1 3.1-7.2 4.7-11.3 4.7s-8.188-1.562-11.31-4.688c-6.25-6.25-6.25-16.38 0-22.62L521.4 384H432c-8.836 0-15.1-7.164-15.1-16s6.3-16 15.1-16h89.38l-28.69-28.69c-6.25-6.25-6.25-16.38 0-22.62s16.38-6.25 22.62 0l56 56c6.29 6.21 6.29 16.41-.01 22.61z"/></svg>