<svg xmlns="http://www.w3.org/2000/svg" viewBox="0 0 576 512"><!--! Font Awesome Pro 6.1.1 by @fontawesome - https://fontawesome.com License - https://fontawesome.com/license (Commercial License) Copyright 2022 Fonticons, Inc.--><path d="M576 256V48c0-26.47-21.5-48-48-48H272c-44.1 0-80 35.88-80 80v256c0 44.1 35.9 80 80 80h280c13.25 0 24-10.75 24-24s-10.75-24-24-24h-8v-66.9c18.6-6.7 32-24.3 32-45.1zm-80 112H272c-17.64 0-32-14.34-32-32s14.36-32 32-32h224v64zm32-112H272c-11.38 0-22.2 2.375-32 6.688V80c0-17.66 14.36-32 32-32h256v208zM360 464h-8v-16h-48v16H80c-17.64 0-32-14.34-32-32s14.36-32 32-32h100.3c-9.805-13.99-16.16-30.36-18.72-48H80c-11.38 0-22.2 2.375-32 6.688V176c0-17.66 14.36-32 32-32h80V96H80c-44.11 0-80 35.9-80 80v256c0 44.1 35.89 80 80 80h280c13.25 0 24-10.75 24-24s-10.7-24-24-24z"/></svg>