<svg xmlns="http://www.w3.org/2000/svg" viewBox="0 0 448 512"><!--! Font Awesome Pro 6.1.1 by @fontawesome - https://fontawesome.com License - https://fontawesome.com/license (Commercial License) Copyright 2022 Fonticons, Inc.--><path d="M448 352V48c0-26.47-21.5-48-48-48H80C35.89 0 0 35.88 0 80v352c0 44.1 35.89 80 80 80h344c13.25 0 24-10.75 24-24s-10.75-24-24-24h-8v-66.95c18.6-6.65 32-24.25 32-45.05zm-80 112H80c-17.64 0-32-14.34-32-32s14.36-32 32-32h288v64zm32-112H80c-11.38 0-22.2 2.375-32 6.688V80c0-17.66 14.36-32 32-32h320v304zM232 80c-66.2 0-120 53.8-120 120s53.8 120 120 120 120-53.7 120-120S298.3 80 232 80zm-86.4 136h34.63c1.37 23.6 4.87 45 12.27 62.3-24-12.3-41.9-34.9-46.9-62.3zm34.7-32h-34.7c5-27.38 22.75-50 46.88-62.25C185.1 139 181.6 160.4 180.3 184zM232 285.8c-6.9-8.4-17.5-32.4-20-69.8h40c-2.5 37.4-13.1 61.4-20 69.8zM212 184c2.5-37.38 13.12-61.38 20-69.75 6.9 8.35 17.5 32.35 20 69.75h-40zm59.5 94.3c5.6-17.3 10.9-38.7 12.3-62.3h34.63c-5.03 27.4-22.93 50-46.93 62.3zm12.3-94.3c-1.375-23.62-5.75-45-12.25-62.25C295.6 134 313.4 156.6 318.4 184h-34.6z"/></svg>