<svg xmlns="http://www.w3.org/2000/svg" viewBox="0 0 576 512"><!--! Font Awesome Pro 6.1.1 by @fontawesome - https://fontawesome.com License - https://fontawesome.com/license (Commercial License) Copyright 2022 Fonticons, Inc.--><path d="M540.9 56.77c-47.1-17.03-91.3-25.19-130-24.75C352.2 32.96 308.3 50 288 59.74c-20.3-9.74-64.1-26.76-122.8-27.7-39.4-.69-83.02 7.68-130.1 24.73C14.02 64.41 0 84.67 0 107.2v292.1c0 16.61 7.594 31.95 20.84 42.08 13.73 10.53 31.34 13.91 48.2 9.344 118.1-32 202 22.92 205.5 25.2C278.6 478.6 283.3 480 287.1 480s9.37-1.359 13.43-4.078c3.516-2.328 87.59-57.21 205.5-25.25 16.92 4.563 34.5 1.188 48.22-9.344C568.4 431.2 576 415.9 576 399.2v-292c0-22.53-14.9-42.79-35.1-50.43zM264 416.8c-27.86-11.61-69.84-24.13-121.4-24.13-26.39 0-55.28 3.281-86.08 11.61-3.33 1.02-5.68-.38-6.52-1.08-2-1.5-2-3.4-2-4v-292c0-2.297 1.516-4.531 3.594-5.282 40.95-14.8 79.61-22.36 112.8-21.84C211.3 80.78 246.8 93.75 264 101.5v315.3zm264-17.6c0 .594 0 2.422-2 3.969-.844.64-3.141 2.063-6.516 1.109-90.98-24.6-165.4-5.032-207.5 12.53v-315.3c17.2-7.782 52.69-20.74 99.59-21.47 32.69-.516 71.88 7.047 112.8 21.84C526.5 102.6 528 104.9 528 107.2v292z"/></svg>