<svg xmlns="http://www.w3.org/2000/svg" viewBox="0 0 448 512"><!--! Font Awesome Pro 6.1.1 by @fontawesome - https://fontawesome.com License - https://fontawesome.com/license (Commercial License) Copyright 2022 Fonticons, Inc.--><path d="m306.6 200 27.62-46.38c3.78-6.12 3.78-13.82.28-20.12s-10.25-10.12-17.38-10.12h-56.38L233 77.13c-3.5-6-10-9.63-17-9.63s-13.6 3.63-17.2 9.75l-27.7 46.25h-56.2c-7.3-.1-13.9 3.8-17.52 10.1-3.625 6.125-3.5 13.88.25 20L125.4 200l-27.65 46.4c-3.75 6.1-3.75 13.9-.25 20.1s10.25 10.12 17.38 10.12h56.38L199 322.9c3.5 6 10 9.625 17 9.625 7.125 0 13.62-3.75 17.25-9.75l27.62-46.25h56.25c7.25.125 13.88-3.75 17.5-10.12 3.625-6.125 3.5-13.88-.25-20L306.6 200zm3.4-52.6-17.38 29.25-17.5-29.12 34.88-.13zm-94-52.02 16.75 28.12H199.1L216 95.38zm-94 52.12h34.88l-17.5 29.12L122 147.5zm0 105 17.5-29.12L157 252.5h-35zm94 52.1-16.7-28.1h33.5L216 304.6zm31.1-52.1h-62.2L153.4 200l31.5-52.5h62.25L278.6 200l-31.5 52.5zm28 0 17.5-29.12L310 252.5h-34.9zM368 0H48C21.53 0 0 21.53 0 48v304c0 20.83 13.42 38.43 32 45.05V464h-8c-13.25 0-24 10.8-24 24s10.75 24 24 24h344c44.11 0 80-35.88 80-80V80c0-44.12-35.9-80-80-80zm0 464H80v-64h288c17.64 0 32 14.34 32 32s-14.4 32-32 32zm32-105.3c-9.8-4.3-20.6-6.7-32-6.7H48V48h320c17.64 0 32 14.34 32 32v278.7z"/></svg>