<svg xmlns="http://www.w3.org/2000/svg" viewBox="0 0 640 512"><!--! Font Awesome Pro 6.1.1 by @fontawesome - https://fontawesome.com License - https://fontawesome.com/license (Commercial License) Copyright 2022 Fonticons, Inc.--><path d="m600.2 32.97-8.2 2.06v368.1L320 463.6 48 403.15V35.03l-8.24-2.06C19.56 27.92 0 43.19 0 64.01v351.1c0 15 10.42 27.98 25.06 31.24l288 63.1a31.984 31.984 0 0 0 13.88 0l288-63.1C629.6 443.1 640 431 640 416V64.01c0-20.82-19.6-36.09-39.8-31.04zM97.97 375.2l216 56c1.93.6 3.13.8 6.03.8s4.062-.25 6.031-.781l216-56C552.6 372.5 560 362.9 560 352V24c0-7.125-3.156-13.91-8.656-18.44-5.5-4.562-12.66-6.469-19.72-5.156L320 39.59 108.4.406C101.3-.906 94.16 1 88.66 5.562 83.16 10.09 80 16.88 80 24v328c0 10.9 7.41 20.5 17.97 23.2zM344 83.96l168-31.12v280.6L344 377V83.96zM128 52.84l168 31.12v293L128 333.4V52.84z"/></svg>