<svg xmlns="http://www.w3.org/2000/svg" viewBox="0 0 640 512"><!--! Font Awesome Pro 6.1.1 by @fontawesome - https://fontawesome.com License - https://fontawesome.com/license (Commercial License) Copyright 2022 Fonticons, Inc.--><path d="M592 162.3V88c0-48.53-39.5-88-88-88H136C87.47 0 48 39.47 48 88v74.26C20.44 169.4 0 194.2 0 224v224c0 35.35 28.65 64 64 64h512c35.35 0 64-28.65 64-64V224c0-29.8-20.4-54.6-48-61.7zM96 88c0-22.06 17.9-40 40-40h368c22.1 0 40 17.94 40 40v72h-96v-16c0-8.8-7.2-16-16-16h-32c-8.8 0-16 7.2-16 16v16h-32v-16c0-8.8-7.2-16-16-16h-32c-8.8 0-16 7.2-16 16v16h-32v-16c0-8.8-7.2-16-16-16h-32c-8.8 0-16 7.2-16 16v16H96V88zm496 360c0 8.822-7.178 16-16 16H64c-8.822 0-16-7.178-16-16V224c0-8.822 7.178-16 16-16h512c8.822 0 16 7.178 16 16v224zM176 240c-53.02 0-96 42.98-96 96s42.98 96 96 96 96-42.98 96-96-43-96-96-96zm0 144c-26.5 0-48-21.5-48-48s21.5-48 48-48 48 21.5 48 48-21.5 48-48 48zm288-144c-53.02 0-96 42.98-96 96s42.98 96 96 96 96-42.98 96-96-43-96-96-96zm0 144c-26.47 0-48-21.53-48-48s21.5-48 48-48 48 21.5 48 48-21.5 48-48 48z"/></svg>