<svg xmlns="http://www.w3.org/2000/svg" viewBox="0 0 512 512"><!--! Font Awesome Pro 6.1.1 by @fontawesome - https://fontawesome.com License - https://fontawesome.com/license (Commercial License) Copyright 2022 Fonticons, Inc.--><path d="M456 464v-56.45a64 64 0 0 0-35.38-57.24l-121.2-60.62C277.7 278.8 264 256.7 264 232.4V32c0-17.67-14.33-32-32-32H40.01C20.76 0 5.865 16.87 8.252 35.97l24.43 161.5C37.5 235.1 33.63 275.1 21.35 311.1 12.51 338.5 8 366.3 8 394.2V488c0 13.3 10.75 24 24 24h80c13.25 0 24-10.75 24-24v-8c0-2.875-.5-5.625-1.438-8.156l112.5 33.72C261.3 509.8 275.9 512 290.8 512H456c13.25 0 24-10.75 24-24s-10.7-24-24-24zm-195.1-4.4-134.8-40.41c-7-2.09-14.2-3.19-21.6-3.19H56v-21.8c0-22.84 3.662-45.4 10.88-67.06 14.46-43.37 19.1-90.27 13.43-135.6L58.13 48H104v184c0 13.3 10.8 24 24 24s24-10.75 24-24V48h64v184.4c0 42.7 23.72 81.08 61.91 100.2l121.2 60.62c5.49 1.88 8.89 8.28 8.89 14.38V464H290.8c-10.2 0-20.2-1.5-29.9-4.4z"/></svg>