<svg xmlns="http://www.w3.org/2000/svg" viewBox="0 0 512 512"><!--! Font Awesome Pro 6.1.1 by @fontawesome - https://fontawesome.com License - https://fontawesome.com/license (Commercial License) Copyright 2022 Fonticons, Inc.--><path d="M0 56v432c0 13.3 10.75 24 24 24s24-10.75 24-24V56c0-4.406 3.594-8 8-8h56V0H56C25.13 0 0 25.12 0 56zM456 0H144v400c0 35.28 28.7 64 64 64 15.21 0 29.01-5.555 40-14.45 10.1 8.85 24.8 14.45 40 14.45s29.01-5.555 40-14.45c10.1 8.85 24.8 14.45 40 14.45s29.01-5.555 40-14.45c10.1 8.85 24.8 14.45 40 14.45 5.557 0 10.86-.934 16-2.271V488c0 13.25 10.75 24 24 24s24-10.7 24-24V56c0-30.88-25.1-56-56-56zM224 400c0 8.8-7.2 16-16 16s-16-7.2-16-16V48h32v352zm80 0c0 8.812-7.172 16-16 16s-16-7.188-16-16V48h32v352zm80 0c0 8.812-7.172 16-16 16s-16-7.2-16-16V48h32v352zm80 0c0 8.812-7.172 16-16 16s-16-7.188-16-16V48h24c4.406 0 8 3.594 8 8v344z"/></svg>