<svg xmlns="http://www.w3.org/2000/svg" viewBox="0 0 448 512"><!--! Font Awesome Pro 6.1.1 by @fontawesome - https://fontawesome.com License - https://fontawesome.com/license (Commercial License) Copyright 2022 Fonticons, Inc.--><path d="M448 456c0 13.3-10.7 24-24 24H24c-13.25 0-24-10.7-24-24s10.75-24 24-24h400c13.3 0 24 10.7 24 24zm0-104c0 17.7-14.3 32-32 32s-32-14.3-32-32 14.3-32 32-32 32 14.3 32 32zM32 320c17.67 0 32 14.3 32 32s-14.33 32-32 32-32-14.3-32-32 14.33-32 32-32zm224 32c0 17.7-14.3 32-32 32s-32-14.3-32-32 14.3-32 32-32 32 14.3 32 32zm160-224c17.7 0 32 14.3 32 32s-14.3 32-32 32-32-14.3-32-32 14.3-32 32-32zM64 160c0 17.7-14.33 32-32 32S0 177.7 0 160s14.33-32 32-32 32 14.3 32 32zm160-32c17.7 0 32 14.3 32 32s-14.3 32-32 32-32-14.3-32-32 14.3-32 32-32zm224 128c0 17.7-14.3 32-32 32s-32-14.3-32-32 14.3-32 32-32 32 14.3 32 32zM32 224c17.67 0 32 14.3 32 32s-14.33 32-32 32-32-14.3-32-32 14.33-32 32-32zm224 32c0 17.7-14.3 32-32 32s-32-14.3-32-32 14.3-32 32-32 32 14.3 32 32zM416 32c17.7 0 32 14.33 32 32s-14.3 32-32 32-32-14.33-32-32 14.3-32 32-32zM64 64c0 17.67-14.33 32-32 32S0 81.67 0 64s14.33-32 32-32 32 14.33 32 32zm160-32c17.7 0 32 14.33 32 32s-14.3 32-32 32-32-14.33-32-32 14.3-32 32-32zm128 224c0 17.7-14.3 32-32 32s-32-14.3-32-32 14.3-32 32-32 32 14.3 32 32zM320 32c17.7 0 32 14.33 32 32s-14.3 32-32 32-32-14.33-32-32 14.3-32 32-32zM160 64c0 17.67-14.3 32-32 32S96 81.67 96 64s14.3-32 32-32 32 14.33 32 32zm-32 160c17.7 0 32 14.3 32 32s-14.3 32-32 32-32-14.3-32-32 14.3-32 32-32z"/></svg>