<svg xmlns="http://www.w3.org/2000/svg" viewBox="0 0 448 512"><!--! Font Awesome Pro 6.1.1 by @fontawesome - https://fontawesome.com License - https://fontawesome.com/license (Commercial License) Copyright 2022 Fonticons, Inc.--><path d="M384 448c0-17.7 14.3-32 32-32s32 14.3 32 32-14.3 32-32 32-32-14.3-32-32zm0-96c0-17.7 14.3-32 32-32s32 14.3 32 32-14.3 32-32 32-32-14.3-32-32zM0 352c0-17.7 14.33-32 32-32s32 14.3 32 32-14.33 32-32 32-32-14.3-32-32zm448-192c0 17.7-14.3 32-32 32s-32-14.3-32-32 14.3-32 32-32 32 14.3 32 32zM0 160c0-17.7 14.33-32 32-32s32 14.3 32 32-14.33 32-32 32-32-14.3-32-32zm448-96c0 17.67-14.3 32-32 32s-32-14.33-32-32 14.3-32 32-32 32 14.33 32 32zM64 64c0 17.67-14.33 32-32 32S0 81.67 0 64s14.33-32 32-32 32 14.33 32 32zM0 448c0-17.7 14.33-32 32-32s32 14.3 32 32-14.33 32-32 32-32-14.3-32-32zM352 64c0 17.67-14.3 32-32 32s-32-14.33-32-32 14.3-32 32-32 32 14.33 32 32zm-64 384c0-17.7 14.3-32 32-32s32 14.3 32 32-14.3 32-32 32-32-14.3-32-32zM160 64c0 17.67-14.3 32-32 32S96 81.67 96 64s14.3-32 32-32 32 14.33 32 32zM96 448c0-17.7 14.3-32 32-32s32 14.3 32 32-14.3 32-32 32-32-14.3-32-32zm128 32c-13.3 0-24-10.7-24-24V280H24c-13.25 0-24-10.7-24-24s10.75-24 24-24h176V56c0-13.25 10.7-24 24-24s24 10.75 24 24v176h176c13.3 0 24 10.7 24 24s-10.7 24-24 24H248v176c0 13.3-10.7 24-24 24z"/></svg>