<svg xmlns="http://www.w3.org/2000/svg" viewBox="0 0 448 512"><!--! Font Awesome Pro 6.1.1 by @fontawesome - https://fontawesome.com License - https://fontawesome.com/license (Commercial License) Copyright 2022 Fonticons, Inc.--><path d="M424 32c13.3 0 24 10.75 24 24v400c0 13.3-10.7 24-24 24s-24-10.7-24-24V56c0-13.25 10.7-24 24-24zm-104 0c17.7 0 32 14.33 32 32s-14.3 32-32 32-32-14.33-32-32 14.3-32 32-32zm-32 416c0-17.7 14.3-32 32-32s32 14.3 32 32-14.3 32-32 32-32-14.3-32-32zm32-224c17.7 0 32 14.3 32 32s-14.3 32-32 32-32-14.3-32-32 14.3-32 32-32zM96 64c0-17.67 14.3-32 32-32s32 14.33 32 32-14.3 32-32 32-32-14.33-32-32zm32 352c17.7 0 32 14.3 32 32s-14.3 32-32 32-32-14.3-32-32 14.3-32 32-32zM96 256c0-17.7 14.3-32 32-32s32 14.3 32 32-14.3 32-32 32-32-14.3-32-32zM224 32c17.7 0 32 14.33 32 32s-14.3 32-32 32-32-14.33-32-32 14.3-32 32-32zm-32 416c0-17.7 14.3-32 32-32s32 14.3 32 32-14.3 32-32 32-32-14.3-32-32zm32-224c17.7 0 32 14.3 32 32s-14.3 32-32 32-32-14.3-32-32 14.3-32 32-32zM0 64c0-17.67 14.33-32 32-32s32 14.33 32 32-14.33 32-32 32S0 81.67 0 64zm32 352c17.67 0 32 14.3 32 32s-14.33 32-32 32-32-14.3-32-32 14.33-32 32-32zM0 256c0-17.7 14.33-32 32-32s32 14.3 32 32-14.33 32-32 32-32-14.3-32-32zm224-128c17.7 0 32 14.3 32 32s-14.3 32-32 32-32-14.3-32-32 14.3-32 32-32zM0 160c0-17.7 14.33-32 32-32s32 14.3 32 32-14.33 32-32 32-32-14.3-32-32zm32 160c17.67 0 32 14.3 32 32s-14.33 32-32 32-32-14.3-32-32 14.33-32 32-32zm160 32c0-17.7 14.3-32 32-32s32 14.3 32 32-14.3 32-32 32-32-14.3-32-32z"/></svg>