<svg xmlns="http://www.w3.org/2000/svg" viewBox="0 0 448 512"><!--! Font Awesome Pro 6.1.1 by @fontawesome - https://fontawesome.com License - https://fontawesome.com/license (Commercial License) Copyright 2022 Fonticons, Inc.--><path d="M448 448c0 17.7-14.3 32-32 32s-32-14.3-32-32 14.3-32 32-32 32 14.3 32 32zm0-96c0 17.7-14.3 32-32 32s-32-14.3-32-32 14.3-32 32-32 32 14.3 32 32zm-384 0c0 17.7-14.33 32-32 32S0 369.7 0 352s14.33-32 32-32 32 14.3 32 32zm352-224c17.7 0 32 14.3 32 32s-14.3 32-32 32-32-14.3-32-32 14.3-32 32-32zM64 160c0 17.7-14.33 32-32 32S0 177.7 0 160s14.33-32 32-32 32 14.3 32 32zm352 64c17.7 0 32 14.3 32 32s-14.3 32-32 32-32-14.3-32-32 14.3-32 32-32zM64 256c0 17.7-14.33 32-32 32S0 273.7 0 256s14.33-32 32-32 32 14.3 32 32zM416 32c17.7 0 32 14.33 32 32s-14.3 32-32 32-32-14.33-32-32 14.3-32 32-32zM32 32c17.67 0 32 14.33 32 32S49.67 96 32 96 0 81.67 0 64s14.33-32 32-32zm32 416c0 17.7-14.33 32-32 32S0 465.7 0 448s14.33-32 32-32 32 14.3 32 32zm256-224c17.7 0 32 14.3 32 32s-14.3 32-32 32-32-14.3-32-32 14.3-32 32-32zm32-160c0 17.67-14.3 32-32 32s-32-14.33-32-32 14.3-32 32-32 32 14.33 32 32zm-32 352c17.7 0 32 14.3 32 32s-14.3 32-32 32-32-14.3-32-32 14.3-32 32-32zM160 64c0 17.67-14.3 32-32 32S96 81.67 96 64s14.3-32 32-32 32 14.33 32 32zm-32 352c17.7 0 32 14.3 32 32s-14.3 32-32 32-32-14.3-32-32 14.3-32 32-32zm32-160c0 17.7-14.3 32-32 32s-32-14.3-32-32 14.3-32 32-32 32 14.3 32 32zm40-200c0-13.25 10.7-24 24-24s24 10.75 24 24v400c0 13.3-10.7 24-24 24s-24-10.7-24-24V56z"/></svg>