<svg xmlns="http://www.w3.org/2000/svg" viewBox="0 0 448 512"><!--! Font Awesome Pro 6.1.1 by @fontawesome - https://fontawesome.com License - https://fontawesome.com/license (Commercial License) Copyright 2022 Fonticons, Inc.--><path d="M32 480c-17.67 0-32-14.3-32-32s14.33-32 32-32 32 14.3 32 32-14.33 32-32 32zm96 0c-17.7 0-32-14.3-32-32s14.3-32 32-32 32 14.3 32 32-14.3 32-32 32zm0-384c-17.7 0-32-14.33-32-32s14.3-32 32-32 32 14.33 32 32-14.3 32-32 32zm224 352c0 17.7-14.3 32-32 32s-32-14.3-32-32 14.3-32 32-32 32 14.3 32 32zM320 96c-17.7 0-32-14.33-32-32s14.3-32 32-32 32 14.33 32 32-14.3 32-32 32zm-64 352c0 17.7-14.3 32-32 32s-32-14.3-32-32 14.3-32 32-32 32 14.3 32 32zM224 96c-17.7 0-32-14.33-32-32s14.3-32 32-32 32 14.33 32 32-14.3 32-32 32zm224 352c0 17.7-14.3 32-32 32s-32-14.3-32-32 14.3-32 32-32 32 14.3 32 32zm0-384c0 17.67-14.3 32-32 32s-32-14.33-32-32 14.3-32 32-32 32 14.33 32 32zM32 96C14.33 96 0 81.67 0 64s14.33-32 32-32 32 14.33 32 32-14.33 32-32 32zm224 256c0 17.7-14.3 32-32 32s-32-14.3-32-32 14.3-32 32-32 32 14.3 32 32zm160 32c-17.7 0-32-14.3-32-32s14.3-32 32-32 32 14.3 32 32-14.3 32-32 32zM64 352c0 17.7-14.33 32-32 32S0 369.7 0 352s14.33-32 32-32 32 14.3 32 32zm352-160c-17.7 0-32-14.3-32-32s14.3-32 32-32 32 14.3 32 32-14.3 32-32 32zM64 160c0 17.7-14.33 32-32 32S0 177.7 0 160s14.33-32 32-32 32 14.3 32 32zm160 32c-17.7 0-32-14.3-32-32s14.3-32 32-32 32 14.3 32 32-14.3 32-32 32zm200 40c13.3 0 24 10.7 24 24s-10.7 24-24 24H24c-13.25 0-24-10.7-24-24s10.75-24 24-24h400z"/></svg>