<svg xmlns="http://www.w3.org/2000/svg" viewBox="0 0 512 512"><!--! Font Awesome Pro 6.1.1 by @fontawesome - https://fontawesome.com License - https://fontawesome.com/license (Commercial License) Copyright 2022 Fonticons, Inc.--><path d="M280 228.7c23.5 9.4 40 32.4 40 59.3 0 35.3-28.7 64-64 64s-64-28.7-64-64c0-26.9 16.5-49.9 40-59.3V24c0-13.25 10.7-24 24-24s24 10.75 24 24v204.7zM256 304c8.8 0 16-7.2 16-16s-7.2-16-16-16-16 7.2-16 16 7.2 16 16 16zm-96-176v160c0 53 42.1 96 96 96 53 0 96-43 96-96V128h80c44.2 0 80 35.8 80 80v224c0 44.2-35.8 80-80 80H80c-44.18 0-80-35.8-80-80V208c0-44.2 35.82-80 80-80h80zm272 48h-32v112c0 79.5-64.5 144-144 144s-144-64.5-144-144V176H80c-17.67 0-32 14.3-32 32v224c0 17.7 14.33 32 32 32h352c17.7 0 32-14.3 32-32V208c0-17.7-14.3-32-32-32z"/></svg>