<svg xmlns="http://www.w3.org/2000/svg" viewBox="0 0 320 512"><!--! Font Awesome Pro 6.1.1 by @fontawesome - https://fontawesome.com License - https://fontawesome.com/license (Commercial License) Copyright 2022 Fonticons, Inc.--><path d="M200 0c13.3 0 24 10.75 24 24v54c10.7 3.75 20.9 9.2 29.1 16.21l6 4.58C282.7 116.2 296 143.2 296 171.9c0 12.5-2.5 24.4-7.9 35.3 5.4 10 7.9 21.1 7.9 32.8 0 11.4-2.4 22.2-6.7 32 4.3 9.8 6.7 20.6 6.7 32 0 11.4-2.4 22.2-6.7 32 4.3 9.8 6.7 20.6 6.7 32 0 11.4-2.4 22.2-6.7 32 4.3 9.8 6.7 20.6 6.7 32 0 44.2-35.8 80-80 80H104c-44.18 0-80-35.8-80-80 0-11.4 2.38-22.2 6.66-32-4.28-9.8-6.66-20.6-6.66-32 0-11.4 2.38-22.2 6.66-32-4.28-9.8-6.66-20.6-6.66-32 0-11.4 2.38-22.2 6.66-32-4.28-9.8-6.66-20.6-6.66-32 0-11.7 2.51-22.8 7.02-32.8A91.865 91.865 0 0 1 24 171.9c0-28.7 13.32-55.7 36.03-73.11l5.98-4.58C75.14 87.2 85.28 81.75 96 78V24c0-13.25 10.7-24 24-24h80zm24.8 132.3c-10.4-8-23.1-12.3-36.2-12.3h-57.2c-13.1 0-25.8 4.3-36.16 12.3l-5.98 4.6c-9.46 7.2-15.51 17.9-16.94 29.6-.21 1.8-.32 3.6-.32 5.4 0 14.9 7.42 28.1 18.78 36.1H229.2c11.4-8 18.8-21.2 18.8-36.1 0-1.8-.1-3.6-.3-5.4-1.5-11.7-7.5-22.4-17-29.6l-5.9-4.6zM73.6 378c4.21 12.8 16.23 22 30.4 22-17.67 0-32 14.3-32 32 0 3.5.56 6.9 1.6 10 4.21 12.8 16.23 22 30.4 22h112c14.2 0 26.2-9.2 30.4-22 1-3.1 1.6-6.5 1.6-10 0-17.7-14.3-32-32-32 14.2 0 26.2-9.2 30.4-22 1-3.1 1.6-6.5 1.6-10s-.6-6.9-1.6-10.9c-4.2-11.9-16.2-21.1-30.4-21.1H104c-14.17 0-26.19 9.2-30.4 21.1-1.04 4-1.6 7.4-1.6 10.9s.56 6.9 1.6 10zm21.64-245.7L66.01 94.21l29.23 38.09zm135.46 4.6 28.4-38.11z"/></svg>