<svg xmlns="http://www.w3.org/2000/svg" viewBox="0 0 512 512"><!--! Font Awesome Pro 6.1.1 by @fontawesome - https://fontawesome.com License - https://fontawesome.com/license (Commercial License) Copyright 2022 Fonticons, Inc.--><path d="m145.7 286.9 34.01-34.08-99.6-99.42c33.88-24.5 74.38-37.88 116.9-37.88 34 0 66.75 8.5 95.75 24.38l35-34.88c-38.88-24.25-83.75-37.5-130.8-37.5-55.38 0-107.9 18.25-151.1 51.63l-7.26-7.25c-3.125-3.125-7.219-4.688-11.31-4.688s-8.188 1.563-11.31 4.688L4.708 123.3a15.975 15.975 0 0 0-4.685 11.33c0 4.112 1.565 8.225 4.692 11.35L145.7 286.9zM512 15.64C512 6.679 504.503 0 496.28 0c-.983 0-2.065.097-3.053.29l-128.6 25.75c-7.885 1.529-12.61 8.417-12.61 15.47 0 3.907 1.449 7.875 4.612 10.99l34.5 34.5L140.5 337.2l-49.76-16.26c-.9-.34-3.24-1.04-6.51-1.04-4.147 0-9.677 1.181-14.5 6.006l-63.75 63.39C1.902 393.4 0 398.6 0 403.7c0 8.368 5.1 16.57 14.1 19.52l55.63 18.63 18.5 55.5c3 9 11.25 14.13 19.63 14.13 5.125 0 10.38-2 14.38-6l62.86-63.68c3.93-3.931 6.01-9.201 6.01-14.58 0-2.149-.332-4.315-1.01-6.42l-15.7-49.4L425 120.9l34.5 34.47c3.161 3.205 7.113 4.639 11.01 4.639 7.039 0 13.88-4.751 15.49-12.64l25.72-128.6c.18-1.109.28-2.059.28-3.129zM116.2 454.9l-14.88-44.75-44.88-14.88 33-32.88 44.75 14.88 15 44.75-32.99 32.88zM455.6 94.92l-38.63-38.63 48.25-9.625-9.62 48.255zm-48.5 88.98-35 34.88c16.1 29.32 24 62.12 24 96.52 0 42.5-13.38 82.88-37.88 116.6l-100.3-100-33.82 33.9 141.7 141.5c3.125 3.125 7.22 4.687 11.31 4.687s8.188-1.562 11.31-4.687l11.26-11.25c3.125-3.125 4.688-7.219 4.688-11.31s-1.563-8.188-4.688-11.31l-7.25-7.25c33.38-43.13 51.63-95.5 51.63-150.9.04-47.18-12.46-92.38-36.96-131.38z"/></svg>