<svg xmlns="http://www.w3.org/2000/svg" viewBox="0 0 576 512"><!--! Font Awesome Pro 6.1.1 by @fontawesome - https://fontawesome.com License - https://fontawesome.com/license (Commercial License) Copyright 2022 Fonticons, Inc.--><path d="M122.7 224c-14.8 0-26.7 11.9-26.7 26.7 0 14.8 11.9 26.6 26.7 26.6 14.75 0 26.67-11.88 26.67-26.67C149.3 235.9 137.4 224 122.7 224zm74.6 42.7c-14.75 0-26.67 11.88-26.67 26.67S182.6 320 197.3 320c14.8 0 26.7-11.9 26.7-26.7s-11.9-26.6-26.7-26.6zm0-88c-14.75 0-26.67 11.88-26.67 26.67S182.6 232 197.3 232c14.8 0 26.7-11.9 26.7-26.7s-11.9-26.6-26.7-26.6zm332 7.3c0-18.47 20-43.1 20-90.99 0-62.29-42.89-94.96-85.26-95.05-42.36 0-85.4 32.65-85.4 95.05 0 46.97 20 72.66 20 90.99 0 8.293-1.801 17.1-4.25 26.12C360.5 143.4 289.9 96 208 96 93.13 96 0 189.1 0 304s93.13 208 208 208c64.5 0 122.1-29.36 160.3-75.45C383.7 477.3 398.1 512 439.7 512h48.76C560.8 512 576 372.3 576 354c0-63.5-46.7-121.4-46.7-168zM208 464c-88.22 0-160-71.78-160-160s71.78-160 160-160 160 71.78 160 160-71.8 160-160 160zM463.9 47.86c18.71 0 37.46 15.8 37.46 47.19 0 26.54-8.686 41.75-15.62 64.98H442.3c-6.928-23.22-15.62-38.44-15.62-64.98.02-31.53 18.62-47.19 37.22-47.19zm33.8 409.94c-1.9 3.9-5.4 6.2-9.3 6.2h-48.76c-3.922 0-7.395-2.293-9.814-7.195-10.66-21.57-22.98-47.63-27.62-78.84C410.1 354.1 416 330.1 416 304c0-3.875-.371-7.652-.58-11.47 12.08-30.12 24.35-55.83 29.21-84.5h38.73C492.2 260.2 528 308.8 528 354c0 42.2-16.4 75.6-30.3 103.8z"/></svg>