<svg xmlns="http://www.w3.org/2000/svg" viewBox="0 0 576 512"><!--! Font Awesome Pro 6.1.1 by @fontawesome - https://fontawesome.com License - https://fontawesome.com/license (Commercial License) Copyright 2022 Fonticons, Inc.--><path d="M208 72c0-13.25 10.7-24 24-24h16c13.3 0 24 10.75 24 24s-10.7 24-24 24h-16c-13.3 0-24-10.75-24-24zm0 80c0-13.3 10.7-24 24-24h16c13.3 0 24 10.7 24 24s-10.7 24-24 24h-16c-13.3 0-24-10.7-24-24zM16 232c0-13.3 10.75-24 24-24h16c13.26 0 24 10.7 24 24s-10.74 24-24 24H40c-13.25 0-24-10.7-24-24zm0 83.4c0-15.1 12.28-27.4 27.43-27.4H532.6c15.1 0 27.4 12.3 27.4 27.4 0 72.9-47.4 134.8-113.1 156.4.7 2.6 1.1 5.4 1.1 8.2 0 17.7-14.3 32-32 32H160c-17.7 0-32-14.3-32-32 0-2.8.4-5.6 1.1-8.2C63.4 450.2 16 388.3 16 315.4zM176.4 464h223.2c2.8-17.1 14.8-32.1 32.3-37.8 40.3-13.3 70.7-47.8 78.3-90.2H65.81c7.55 42.4 37.99 76.9 78.29 90.2 17.5 5.7 29.5 20.7 32.3 37.8zM248 208c13.3 0 24 10.7 24 24s-10.7 24-24 24h-16c-13.3 0-24-10.7-24-24s10.7-24 24-24h16zm-96 0c13.3 0 24 10.7 24 24s-10.7 24-24 24h-16c-13.3 0-24-10.7-24-24s10.7-24 24-24h16zm-40-56c0-13.3 10.7-24 24-24h16c13.3 0 24 10.7 24 24s-10.7 24-24 24h-16c-13.3 0-24-10.7-24-24zm232 56c13.3 0 24 10.7 24 24s-10.7 24-24 24h-16c-13.3 0-24-10.7-24-24s10.7-24 24-24h16zm-40-56c0-13.3 10.7-24 24-24h16c13.3 0 24 10.7 24 24s-10.7 24-24 24h-16c-13.3 0-24-10.7-24-24zm136 56c13.3 0 24 10.7 24 24s-10.7 24-24 24h-16c-13.3 0-24-10.7-24-24s10.7-24 24-24h16zm-40-56c0-13.3 10.7-24 24-24h16c13.3 0 24 10.7 24 24s-10.7 24-24 24h-16c-13.3 0-24-10.7-24-24zm136 56c13.3 0 24 10.7 24 24s-10.7 24-24 24h-16c-13.3 0-24-10.7-24-24s10.7-24 24-24h16zM344 48c13.3 0 24 10.75 24 24s-10.7 24-24 24h-16c-13.3 0-24-10.75-24-24s10.7-24 24-24h16z"/></svg>