<svg xmlns="http://www.w3.org/2000/svg" viewBox="0 0 448 512"><!--! Font Awesome Pro 6.1.1 by @fontawesome - https://fontawesome.com License - https://fontawesome.com/license (Commercial License) Copyright 2022 Fonticons, Inc.--><path d="M178.9 81.28c-17.5-9.24-36.7-14.75-56.4-16.19 8.9-19.43 23.2-35.88 41.1-47.42 18-11.543 38.9-17.678 60.3-17.678 21.3 0 42.2 6.135 60.2 17.678 18 11.54 32.3 27.99 41.2 47.42-19.7 1.52-38.8 7.07-56.3 16.3-17.4 9.24-32.7 21.91-45 37.31-12.3-15.4-27.7-28.19-45.1-37.42zm77.9 47.52c21-21 49.5-33.7 79.2-33.7 29.7 0 58.2 12.7 79.2 33.7 21 21 32.8 49.5 32.8 78.3-.2 6.3-.7 11.6-1.6 16H225.6c-.9-4.4-1.4-9.7-1.6-16 0-28.8 11.8-57.3 32.8-78.3zM1.603 223.1c-.907-4.4-1.442-9.7-1.6-16 .057-23.2 7.901-46.7 22.367-66 14.46-19.3 34.78-33.4 57.91-40.3 23.12-6.78 47.82-5.96 70.52 2.4 22.6 8.3 41.9 22.9 55.1 44-9.1 19-13.8 38.9-13.9 59.9-.9 6.2.3 11.6.1 16H1.603zM438.7 257.5c2.1.9 4 2.3 5.5 4.1 1.5 1.7 2.6 3.8 3.3 6 .6 2.2.8 4.5.5 6.8-4.7 39.1-23.6 75.1-53.1 101.2-29.5 26.1-67.5 40.5-106.9 39.5l59.9 70.2c1.2 2.3 3.4 5.1 3.9 8.2.5 3 .1 6.2-1.2 9-1.2 2.8-3.3 5.2-5.9 6.9-2.6 1.7-5.6 2.6-8.7 1.7H112c-3.1.9-6.1 0-8.7-1.7-2.6-1.7-4.68-4.1-5.94-6.9-1.26-2.8-1.67-6-1.19-9 .49-3.1 1.85-5.9 3.93-8.2l59.9-70.2c-39.4 1-77.39-13.4-106.88-39.5A161.025 161.025 0 0 1 .003 274.4c-.315-2.3-.137-4.6.522-6.8s1.784-4.3 3.299-6c1.515-1.8 3.385-3.2 5.485-4.1 2.101-1 4.381-1.5 6.691-2.4h416c2.3.9 4.6 1.4 6.7 2.4zM266.1 463.1 224 415.3l-42.9 47.8h85zm123.2-160H58.75c9.11 20 23.46 36.2 41.35 47.5 17.9 10.5 38.7 16.5 59.9 16.5h128c14.7.9 29.3-1.9 42.9-7.6 13.6-5.6 25.9-13.9 36.3-24.3 9.1-9.1 16.5-19.6 22.1-32.1z"/></svg>