<svg xmlns="http://www.w3.org/2000/svg" viewBox="0 0 512 512"><!--! Font Awesome Pro 6.1.1 by @fontawesome - https://fontawesome.com License - https://fontawesome.com/license (Commercial License) Copyright 2022 Fonticons, Inc.--><path d="M480 192H32c-17.62 0-32 14.37-32 31.1 0 94.75 51.5 177.1 128 221.5v34.5c0 17.62 14.38 31.1 32 31.1h192c17.62 0 32-14.37 32-31.1v-34.5c76.5-44.38 128-126.7 128-221.5 0-16.7-14.4-31.1-32-31.1zM336 417.8v46.25H176V417.8c-67.5-39.13-120.3-87-127.4-177.8h414.8c-7 88.9-58 137.6-127.4 177.8zM171.9 100.7c12.4 6.4 20.1 20.7 20.1 35.3 0 13.25 10.75 23.89 24 23.89s24-11.79 24-24.19c0-31.34-16.81-60.64-43.91-76.45C183.7 52.03 176 38.63 176 24.28 176 11.03 165.25.14 152 .14s-24 10.89-24 24.14c0 31.35 16.8 60.64 43.9 76.42zm112 0c12.4 6.4 20.1 20.7 20.1 35.3 0 13.25 10.75 23.86 24 23.86s24-11.76 24-24.16c0-31.34-16.81-60.64-43.91-76.45C295.7 52.03 288 38.63 288 24.28 288 11.03 277.25.1 264 .1s-24 10.93-24 24.18c0 31.35 16.8 60.64 43.9 76.42z"/></svg>