<svg xmlns="http://www.w3.org/2000/svg" viewBox="0 0 448 512"><!--! Font Awesome Pro 6.1.1 by @fontawesome - https://fontawesome.com License - https://fontawesome.com/license (Commercial License) Copyright 2022 Fonticons, Inc.--><path d="M359.8 88.24C395.8 124.2 416 173.1 416 224H32c0-50.9 20.23-99.8 56.24-135.76C124.2 52.23 173.1 32 224 32c50.9 0 99.8 20.23 135.8 56.24zm35.1 287.36c-29.5 26.1-67.5 40.5-106.9 40.4l59.9 69.3c1.2 2.3 3.4 5.1 3.9 8.2.5 3 .1 6.2-1.2 9-1.2 2.8-3.3 5.2-5.9 6.9-2.6 1.7-5.6 2.6-8.7 2.6H112c-3.1 0-6.1-.9-8.7-2.6-2.6-1.7-4.68-4.1-5.94-6.9-1.26-2.8-1.67-6-1.19-9 .49-3.1 1.85-5.9 3.93-8.2L160 416c-39.4.1-77.39-14.3-106.88-40.4A161.025 161.025 0 0 1 .003 274.4c-.315-2.3-.137-4.6.522-6.8s1.784-4.3 3.299-6c1.515-1.8 3.385-3.2 5.485-4.1 2.101-1 4.381-1.5 6.691-1.5h416c2.3 0 4.6.5 6.7 1.5 2.1.9 4 2.3 5.5 4.1 1.5 1.7 2.6 3.8 3.3 6 .6 2.2.8 4.5.5 6.8-4.7 39.1-23.6 75.1-53.1 101.2zM266.1 464 224 415.3 181.1 464h85zm123.2-160H58.75c9.11 19.1 23.46 35.3 41.35 46.6 17.9 10.5 38.7 16.5 59.9 17.4h128c14.7 0 29.3-2.8 42.9-8.5 13.6-5.6 25.9-13.9 36.3-24.3 9.1-9.1 16.5-19.6 22.1-31.2z"/></svg>