<svg xmlns="http://www.w3.org/2000/svg" viewBox="0 0 512 512"><!--! Font Awesome Pro 6.1.1 by @fontawesome - https://fontawesome.com License - https://fontawesome.com/license (Commercial License) Copyright 2022 Fonticons, Inc.--><path d="M449.3 186c0-18.45 20-43.99 20-90.99 0-62.29-43.01-94.96-85.38-95.05-42.36 0-85.28 32.65-85.28 95.05 0 46.98 20 72.66 20 90.99 0 46.74-46.67 104-46.67 167.1C272 372.4 287.3 512 359.7 512h48.76C480.8 512 496 372.3 496 354c0-63.5-46.7-121.4-46.7-168zM383.9 47.86c18.71 0 37.46 15.8 37.46 47.19 0 26.54-8.699 41.8-15.62 64.98H362.3c-6.921-23.2-15.62-38.44-15.62-64.98.02-31.53 18.62-47.19 37.22-47.19zm33.8 409.94c-1.9 3.9-5.4 6.2-9.3 6.2h-48.76c-3.922 0-7.395-2.293-9.814-7.195C336.5 429.9 320 396.4 320 354c0-45.15 35.77-93.76 44.63-145.1h38.73C412.2 260.2 448 308.8 448 354c0 42.2-16.4 75.6-30.3 103.8zM193.3 186c0-18.45 20-43.99 20-90.99 0-62.29-43.01-94.96-85.38-95.05-42.36 0-85.28 32.65-85.28 95.05 0 46.98 20 72.66 20 90.99C62.67 232.8 16 290.1 16 354c0 18.4 15.31 158 87.7 158h48.76C224.8 512 240 372.3 240 354c0-63.5-46.7-121.4-46.7-168zM127.9 47.86c18.71 0 37.46 15.8 37.46 47.19 0 26.54-8.699 41.8-15.62 64.98H106.3c-6.94-23.23-15.63-38.43-15.63-64.98 0-31.53 18.63-47.19 37.23-47.19zm33.8 409.94c-1.9 3.9-5.4 6.2-9.3 6.2h-48.7c-3.922 0-7.395-2.293-9.814-7.195C80.55 429.9 64 396.4 64 354c0-45.15 35.77-93.76 44.63-145.1h38.73C156.2 260.2 192 308.8 192 354c0 42.2-16.4 75.6-30.3 103.8z"/></svg>