<svg xmlns="http://www.w3.org/2000/svg" viewBox="0 0 512 512"><!--! Font Awesome Pro 6.1.1 by @fontawesome - https://fontawesome.com License - https://fontawesome.com/license (Commercial License) Copyright 2022 Fonticons, Inc.--><path d="M280 0c75.1 0 136 60.89 136 136 0 6.1-.7 11.1-2 17.6 46.7 8.5 82 49.3 82 98.4 0 28.1-12.3 55.1-32 73.3V344c0 57.4-46.6 104-104 104h-30.1l20.4 40.8c1.1 2.3 1.7 4.8 1.7 7.2 0 2.9-.8 5.8-2.4 8.4-2.9 4.7-8.1 7.6-13.6 7.6H175.1c-4.6 0-9.8-2.9-12.7-7.6-1.6-2.6-3.3-5.5-3.3-8.4 0-2.4 1.5-4.9 2.6-7.2l20.4-40.8H152c-57.44 0-104-46.6-104-104v-18.7c-19.68-18.2-32-45.2-32-73.3 0-48.8 34.98-89.5 81.24-98.2-.81-4.5-1.24-9.1-1.24-13.8 0-41.97 34-76 76-76h69.3c2.8 0 6.7-3.9 6.7-6.7 0-1.33-.4-2.62-1.1-3.72L236 37.31c-4.9-7.36-5.3-16.83-1.2-24.63A24.028 24.028 0 0 1 256 0h24zm116 304c28.7 0 52-23.3 52-52s-23.3-52-52-52H280c-13.3 0-24.9-10.7-24.9-24s11.6-24 24.9-24h83.7c2.8-4.7 4.3-10.2 4.3-16 0-43.34-31.3-79.36-72.6-86.65.4 2.62.6 5.27.6 7.95 0 30.21-24.5 54.7-54.7 54.7h-70.2c-14.6 0-28 12.5-28 28 0 4.3 1 8.4 3.6 12h20.4c14.2 0 24 10.7 24 24s-9.8 24-24 24h-52c-27.82 0-52 23.3-52 52s24.18 52 52 52H396z"/></svg>