<svg xmlns="http://www.w3.org/2000/svg" viewBox="0 0 512 512"><!--! Font Awesome Pro 6.1.1 by @fontawesome - https://fontawesome.com License - https://fontawesome.com/license (Commercial License) Copyright 2022 Fonticons, Inc.--><path d="M479.1 223.1H32c-17.62 0-32 14.39-32 32.19 0 95.69 51.5 179 127.1 223.8 0 17.67 14.33 32 32 32h191.1c17.67 0 32-14.33 32-32 76.5-44.81 127.1-128.1 127.1-223.8 1.8-16.89-11.7-32.19-30.2-32.19zM359.7 438.6a47.97 47.97 0 0 0-20.99 25.42H173.3a48.033 48.033 0 0 0-20.99-25.42c-59.76-35-98.48-97.83-103.7-166.6h414.8c-5.21 68.8-43.91 131.6-103.71 166.6zM127 192c59.13 0 87.19-30.67 94.64-72H488c13.3 0 24-10.7 24-24s-10.75-24-24-24H221.7C214.2 30.67 186.2 0 127 0 56.88 0 0 42.98 0 96s56.88 96 127 96zm0-144c35.7 0 49 13.01 49 48s-13.3 48-49 48c-45.2 0-79-25.3-79-48s33.8-48 79-48z"/></svg>