<svg xmlns="http://www.w3.org/2000/svg" viewBox="0 0 448 512"><!--! Font Awesome Pro 6.1.1 by @fontawesome - https://fontawesome.com License - https://fontawesome.com/license (Commercial License) Copyright 2022 Fonticons, Inc.--><path d="m212.7 404.7-77.3-77.3c-20.5-20.5-20.5-53.7 0-74.3 20.5-20.5 53.8-20.5 74.3 0l14.3 14.3 14.3-14.3c20.5-20.5 53.8-20.5 74.3 0 20.5 20.6 20.5 53.8 0 74.3l-77.3 77.3c-6.2 6.2-16.4 6.2-22.6 0zm229.8-241.1c3.6 8.2 5.5 17 5.5 26V416c0 35.3-28.7 64-64 64H64c-35.35 0-64-28.7-64-64V189.6c0-9 1.879-17.8 5.516-26L47.11 70.01C57.38 46.89 80.3 32 105.6 32h236.8c25.3 0 48.2 14.9 58.5 38.01l41.6 93.59zM248 160h140.4L357 89.5c-2.5-5.78-8.3-9.5-14.6-9.5H248v80zM48 416c0 8.8 7.16 16 16 16h320c8.8 0 16-7.2 16-16V208H48v208zM200 80h-94.4c-6.33 0-12.06 3.72-14.63 9.5L59.64 160H200V80z"/></svg>