<svg xmlns="http://www.w3.org/2000/svg" viewBox="0 0 576 512"><!--! Font Awesome Pro 6.1.1 by @fontawesome - https://fontawesome.com License - https://fontawesome.com/license (Commercial License) Copyright 2022 Fonticons, Inc.--><path d="M48 416c0 8.8 7.16 16 16 16h203.1c7.7 17.5 17.3 33.7 29.1 48H64c-35.35 0-64-28.7-64-64V189.6c0-9 1.879-17.8 5.516-26L47.11 70.01C57.38 46.89 80.3 32 105.6 32h236.8c25.3 0 48.2 14.9 58.5 38.01l41.6 93.59c3.6 8.2 5.5 17 5.5 26v3.1c-5.3-.5-10.6-.7-16-.7-26.2 0-51.1 5.7-73.4 16H48v208zM342.4 80H248v80h140.4L357 89.5c-2.5-5.78-8.3-9.5-14.6-9.5zM59.64 160H200V80h-94.4c-6.33 0-12.06 3.72-14.63 9.5L59.64 160zM576 368c0 79.5-64.5 144-144 144s-144-64.5-144-144 64.5-144 144-144 144 64.5 144 144zm-99.3-43.3L416 385.4l-28.7-28.7c-6.2-6.3-16.4-6.3-22.6 0-6.3 6.2-6.3 16.4 0 22.6l40 40c6.2 6.3 16.4 6.3 22.6 0l72-72c6.3-6.2 6.3-16.4 0-22.6-6.2-6.3-16.4-6.3-22.6 0z"/></svg>