<svg xmlns="http://www.w3.org/2000/svg" viewBox="0 0 448 512"><!--! Font Awesome Pro 6.1.1 by @fontawesome - https://fontawesome.com License - https://fontawesome.com/license (Commercial License) Copyright 2022 Fonticons, Inc.--><path d="M442.5 163.6c3.6 8.2 5.5 17 5.5 26V416c0 35.3-28.7 64-64 64H64c-35.35 0-64-28.7-64-64V189.6c0-9 1.879-17.8 5.516-26L47.11 70.01C57.38 46.89 80.3 32 105.6 32h236.8c25.3 0 48.2 14.9 58.5 38.01l41.6 93.59zM248 160h140.4L357 89.5c-2.5-5.78-8.3-9.5-14.6-9.5H248v80zm-3.9 64v6.3c6.6 1.2 16.6 3.2 21 4.4 10.7 2.8 17.1 13.8 14.2 24.4-2.8 10.7-13.8 17.1-24.4 14.2-3.9-1-17.4-3.6-21.8-5.2-12.2-1-23 .6-28.6 3.5-6.3 2.8-7.8 6.1-8.2 8.1-.6 3.4 0 4.6.2 5 .2.5 1 1.7 3.6 3.5 6.1 4.2 15.7 7.2 29 11.5l1.7.2c12.1 3.7 28.3 8.5 40.4 17.4 6.7 4.8 13 11.4 16.9 20.4 4 9.1 4.8 19.1 3 29.5-3.3 19-15.9 32-31.7 38.7-4.8 1.2-10 3.6-15.3 4.6v5.5c0 6.5-4 12.3-7.9 16H384c8.8 0 16-7.2 16-16V207.1H236.2c3.9 4.6 7.9 10.4 7.9 16v.9zm-32.3-16H48v208c0 8.8 7.16 16 16 16h147.8c-4.8-3.7-7.9-9.5-7.9-16v-6.4c-9.5-2.2-22.8-6.4-29.8-9.1-1.7-.6-3.2-1.1-4.4-2.4-10.5-2.6-16.2-13.9-12.7-24.4 3.5-10.5 14.8-16.2 25.3-12.7 2 .7 4.2 1.4 6.4 2.2 9.5 3.2 20.2 6.8 26.2 7.8 12.8 2 22.7.7 28.8-1.9 5.5-2.3 7.4-5.3 8-8.8.7-4 .1-5.8-.3-6.6-.3-.9-1.2-2.3-3.7-4.1-5.9-4.3-15.3-7.4-29.3-11.7l-2.2-.6c-11.7-3.5-27-8.1-38.6-16-6.6-4.5-13.1-10.7-17.3-19.5-4.2-8.9-5.2-18.8-3.4-29 3.2-18.3 16.2-30.9 31.1-37.7 4.1-2.2 10.3-3.9 15.9-5.1v-6.9c0-5.6 3.1-11.4 7.9-16v.9zM200 80h-94.4c-6.33 0-12.06 3.72-14.63 9.5L59.64 160H200V80z"/></svg>