<svg xmlns="http://www.w3.org/2000/svg" viewBox="0 0 640 512"><!--! Font Awesome Pro 6.1.1 by @fontawesome - https://fontawesome.com License - https://fontawesome.com/license (Commercial License) Copyright 2022 Fonticons, Inc.--><path d="M480.9 3.069c24.8 9.311 37.4 36.971 28 61.801l-27.5 73.43-162.3 20.2-6.3-.9c4.6-8.9 6.3-18.9 6.3-29.6 0-35.33-27.8-63.99-64-63.99-34.4 0-64 28.66-64 63.99 0 5.1 1.5 9.1 2.6 14.7l-65.5-8.2c-.1-2.1-1.1-4.3-1.1-6.5C127.1 57.32 185.3.013 255.1.013c70.5 0 127.1 55.557 128 124.787l36-93.64C428.4 6.337 456-6.239 480.9 3.069zM75.23 161.4l243.87 29.7-82.5 139c-7.4 13.3-22.3 19.1-36.2 15.2L37.07 298.6c-19.27-5.5-28.791-27.2-19.83-45.1l41.69-83.4c3.04-6 9.57-9.5 16.3-8.7zM576 410.5c0 22-15 41.2-36.4 46.6l-204.1 51c-10.2 2.6-20.8 2.6-31 0l-204.1-51c-21.41-5.4-37.3-24.6-37.3-46.6v-70.9l48 13.7v57.2l184 46V311.1c0-12.4 11.6-24 24-24 14.2 0 24.9 11.6 24.9 24v145.4l184-46v-57.2l48-13.7v70.9zm26.9-111.9-163.3 46.7c-13.9 3.9-28.8-1.9-36.2-15.2l-84.3-139 245.7-29.7c6.7-.8 13.2 2.7 16.3 8.7l41.7 83.4c8.9 17.9-.6 39.6-19.9 45.1z"/></svg>