<svg xmlns="http://www.w3.org/2000/svg" viewBox="0 0 512 512"><!--! Font Awesome Pro 6.1.1 by @fontawesome - https://fontawesome.com License - https://fontawesome.com/license (Commercial License) Copyright 2022 Fonticons, Inc.--><path d="M133.3 320h245.3c10.44 0 19.69-6.75 22.86-16.69l61.33-192c2.41-7.31 1.11-15.28-3.39-21.47C454.9 83.66 447.7 80 440 80H335.2c-18.7 0-35.22-11.66-41.09-29.03C286.2 27.72 264.8 0 207.5 0H72c-7.3 0-14.19 3.312-18.75 9-4.55 5.72-6.27 13.16-4.66 20.28l61.33 272C112.4 312.2 122.1 320 133.3 320zm74.2-272c34.88 0 39.22 12.84 41.08 18.34C261.1 103.2 295.8 128 335.2 128h71.98l-46 144H152.5L102 48h105.5zm252.8 176.4L445.1 272H456c4.406 0 8 3.594 8 8v88H48v-88c0-4.406 3.594-8 8-8h14.52l-10.83-48H56c-30.87 0-56 25.1-56 56v176c0 30.9 25.13 56 56 56h400c30.88 0 56-25.12 56-56V280c0-29.4-22.8-53.3-51.7-55.6zM464 456c0 4.406-3.594 8-8 8H56c-4.406 0-8-3.594-8-8v-40h416v40z"/></svg>