<svg xmlns="http://www.w3.org/2000/svg" viewBox="0 0 640 512"><!--! Font Awesome Pro 6.1.1 by @fontawesome - https://fontawesome.com License - https://fontawesome.com/license (Commercial License) Copyright 2022 Fonticons, Inc.--><path d="M592 48H304v80h-48V48c0-26.51 21.5-48 48-48h288c26.5 0 48 21.49 48 48v416c0 26.5-21.5 48-48 48H381.3c1.7-5.9 2.7-10.4 2.7-16v-32h208V48zm-31.9 263c10.2 9.4 10.2 24.6 0 33.1-8.5 10.2-23.7 10.2-33.1 0l-23-22.2V392c0 13.3-10.7 24-24 24s-24-10.7-24-24v-70.1l-23.9 22.2c-8.5 10.2-23.7 10.2-33.1 0-9.3-8.5-9.3-23.7 0-33.1l64-64c9.4-9.3 24.6-9.3 33.1 0l64 64zM232 336c13.3 0 24 10.7 24 24s-10.7 24-24 24h-80c-13.3 0-24-10.7-24-24s10.7-24 24-24h80zM0 192c0-17.7 14.33-32 32-32h320c17.7 0 32 14.3 32 32v80c0 17.7-14.3 32-32 32v176c0 17.7-14.3 32-32 32H64c-17.67 0-32-14.3-32-32V304c-17.67 0-32-14.3-32-32v-80zm48 16v48h288v-48H48zm32 256h224V304H80v160z"/></svg>