<svg xmlns="http://www.w3.org/2000/svg" viewBox="0 0 576 512"><!--! Font Awesome Pro 6.1.1 by @fontawesome - https://fontawesome.com License - https://fontawesome.com/license (Commercial License) Copyright 2022 Fonticons, Inc.--><path d="M360 0c30.9 0 56 25.07 56 56v128c0 30.9-25.1 56-56 56H200c-30.9 0-56-25.1-56-56V56c0-30.93 25.1-56 56-56h160zm0 48h-40v64c0 8.8-7.2 16-16 16h-48c-8.8 0-16-7.2-16-16V48h-40c-4.4 0-8 3.58-8 8v128c0 4.4 3.6 8 8 8h160c4.4 0 8-3.6 8-8V56c0-4.42-3.6-8-8-8zM0 328c0-30.9 25.07-56 56-56h160c30.9 0 56 25.1 56 56v128c0 30.9-25.1 56-56 56H56c-30.93 0-56-25.1-56-56V328zm176 56c0 8.8-7.2 16-16 16h-48c-8.8 0-16-7.2-16-16v-64H56c-4.42 0-8 3.6-8 8v128c0 4.4 3.58 8 8 8h160c4.4 0 8-3.6 8-8V328c0-4.4-3.6-8-8-8h-40v64zm128-56c0-30.9 25.1-56 56-56h160c30.9 0 56 25.1 56 56v128c0 30.9-25.1 56-56 56H360c-30.9 0-56-25.1-56-56V328zm176 56c0 8.8-7.2 16-16 16h-48c-8.8 0-16-7.2-16-16v-64h-40c-4.4 0-8 3.6-8 8v128c0 4.4 3.6 8 8 8h160c4.4 0 8-3.6 8-8V328c0-4.4-3.6-8-8-8h-40v64z"/></svg>