<svg xmlns="http://www.w3.org/2000/svg" viewBox="0 0 512 512"><!--! Font Awesome Pro 6.1.1 by @fontawesome - https://fontawesome.com License - https://fontawesome.com/license (Commercial License) Copyright 2022 Fonticons, Inc.--><path d="M417.6 130.1c-.467-.207-1.096-.287-1.577-.467-.003 0 0 0 0 0s.09.015 0 0c.04.006 0 0 0 0s.018.003 0 0c.009.001-.003 0 0 0L415.1 96c0-52.94-43.06-96-95.1-96H127.1C75.06 0 32.01 43.06 32.01 96L32 288c0 27.41 11.56 52.87 31.1 71.14L64 448c0 35.3 28.7 64 64 64h192c35.3 0 64-28.7 64-64v-57.38l63.19-63.19C468.3 306.3 480 278.2 480 248.2V208c0-38.1-26.8-69.9-62.4-77.9zM432 248.2c0 16.98-6.746 33.27-18.75 45.28L336 370.7V448c0 8.837-7.163 16-16 16H128c-8.837 0-16-7.163-16-16V337.7l-16.01-14.31A47.876 47.876 0 0 1 80 287.7V96c0-26.51 21.49-48 48-48h192c26.51 0 48 21.49 48 48v32h-24c-37.22 0-68.92 23.29-81.77 56l-35.13-.9c-52.1 0-82.2-31.1-99.1-31.1-13.45 0-24.03 10.87-24.03 23.96C104 206.4 182.8 232 233.7 232h23.93c7.57 40.9 43.27 72 86.37 72 13.25 0 24-10.75 24-24s-10.7-24-24-24c-22.06 0-40-17.94-40-40s17.94-40 40-40h56c17.67 0 32 14.33 32 32v40.2zM288 359.1c0-8.791-7.17-15.98-16.03-15.98-3.056 0-6.137.875-8.85 2.691L224 372.8l-39.13-26.09a15.842 15.842 0 0 0-8.838-2.683c-8.862 0-16.04 7.164-16.04 15.97 0 5.172 2.505 10.25 7.126 13.34L195.2 392l-28.03 18.69c-4.621 3.087-7.126 8.167-7.126 13.34C159.1 432.8 167.1 440 176 440c3.062 0 6.156-.875 8.875-2.688L224 411.2l39.13 26.09A15.79 15.79 0 0 0 272 440c8.876 0 16-7.224 16-15.97 0-5.172-2.505-10.25-7.126-13.34L252.8 392l28.03-18.69c4.67-3.11 7.17-8.21 7.17-14.21z"/></svg>