<svg xmlns="http://www.w3.org/2000/svg" viewBox="0 0 256 512"><!--! Font Awesome Pro 6.1.1 by @fontawesome - https://fontawesome.com License - https://fontawesome.com/license (Commercial License) Copyright 2022 Fonticons, Inc.--><path d="M32 55.1C32 69.25 42.75 80 55.1 80H136c4.4 0 8 3.6 8 8v77.5c0 23.44 9.337 45.91 25.95 62.45L198.1 256l-28.18 28.05C153.3 300.6 144 323.1 144 346.5V424c0 4.4-3.6 8-8 8H55.1C42.75 432 32 442.7 32 455.1S42.75 480 55.1 480H136c30.93 0 56-25.07 56-56v-77.5a39.84 39.84 0 0 1 11.67-28.17L249 273c4.5-4.5 7-10.6 7-17 0-6.375-2.5-12.5-7-17l-45.33-45.33A39.783 39.783 0 0 1 192 165.5V88c0-30.93-25.1-56-56-56H55.1C42.75 32 32 42.75 32 55.1z"/></svg>