<svg xmlns="http://www.w3.org/2000/svg" viewBox="0 0 512 512"><!--! Font Awesome Pro 6.1.1 by @fontawesome - https://fontawesome.com License - https://fontawesome.com/license (Commercial License) Copyright 2022 Fonticons, Inc.--><path d="M148.3 76.62c11.38-6.813 15.12-21.53 8.344-32.91-6.781-11.34-21.5-15.13-32.91-8.344C118.7 38.37 0 110.7 0 256s118.7 217.6 123.7 220.6a23.894 23.894 0 0 0 12.22 3.375c8.156 0 16.12-4.188 20.62-11.69 6.781-11.34 3.094-26.06-8.219-32.91C144.3 432.9 48 373.5 48 255.1c0-116.2 95.7-175.66 100.3-178.48zm240-41.25c-11.38-6.781-26.03-3-32.84 8.313-6.781 11.34-3.094 26.06 8.219 32.91C367.8 79.06 464 138.5 464 255.1S367.75 432 363.7 434.5c-11.38 6.781-15.12 21.5-8.344 32.91 4.5 7.531 12.47 11.72 20.66 11.72 4.156 0 8.406-1.094 12.25-3.375C393.3 473.6 512 401.3 512 256S393.3 38.37 388.3 35.37z"/></svg>