<svg xmlns="http://www.w3.org/2000/svg" viewBox="0 0 512 512"><!--! Font Awesome Pro 6.1.1 by @fontawesome - https://fontawesome.com License - https://fontawesome.com/license (Commercial License) Copyright 2022 Fonticons, Inc.--><path d="M32 376c0-.5 0-1.1.01-1.6C12.24 354.2 0 326.6 0 295.1c0-26.9 10.12-52.3 26.84-71.8C24.99 215.8 24 208 24 199.1c0-31.7 16.26-60.5 41.13-77.9 4.46-28.86 21.78-53.46 45.97-67.79C124.5 22 155.7 0 192 0c25.2 0 47.1 10.61 64 27.6C272 10.61 294.8 0 320 0c36.3 0 67.5 22 80.9 53.41 24.2 14.33 41.5 38.93 46 67.79 24.8 17.4 41.1 46.2 41.1 77.9 0 8.9-1 16.7-2.8 24.2 16.7 19.5 26.8 44.9 26.8 71.8 0 31.5-12.2 59.1-32.9 79.3v.8c.9.3.9.5.9.8 0 47.3-34.1 86.5-79.1 94.5-16.4 25-44.7 41.5-76.9 41.5-27 0-51.2-11.6-68-30.9-16.8 19.3-41.9 30.9-68 30.9-32.2 0-60.5-16.5-76.9-41.5-44.96-8-79.1-47.2-79.1-94.5zm200-88.9h-40c-8.8 0-16 8.1-16 16v12.2c14.1 6.2 24 20.3 24 36.7 0 22.1-17.9 40-40 40s-40-17.9-40-40c0-16.4 9.9-30.5 24-36.7v-12.2c0-25.6 21.5-48 48-48h40v-96h-19.3c-6.2 15-20.3 24-36.7 24-22.1 0-40-17-40-40 0-21.2 17.9-40 40-40 16.4 0 30.5 10.8 36.7 24H232v-40c0-21.19-17.9-40-40-40s-40 18.81-40 40v1.56c-20.7 3.47-36.8 20.14-39.6 41.04-.3 2.1-.4 4.2-.4 5.4 0 6.6.1 12.1 2.8 17.2-7.8.8-15.03 3.5-21.27 7.6-11.54 7.7-19.58 20.2-21.22 34.6-.21 1.8-.31 3.7-.31 4.6 0 15.4 6.47 28.5 16.69 37.3-15.51 6-28.07 18-34.95 33.1-3.69 8.1-6.64 17-6.64 26.5 0 23.9 14.02 44.8 33.45 55.8 1.53.8 3.1 1.6 4.7 2.4-.6 1.1-1.15 2.3-1.66 3.5C81.28 363.4 80 369.5 80 376c0 21.8 14.59 40.3 34.6 46.1 4.2 1.2 8.7 1.9 13.4 1.9 5.6 0 11-1 16-2.7.3 9.5 3.6 18.3 9 25.4 8.1 10.5 20.7 17.3 35 17.3 22.1 0 41.8-17.6 43.8-40h.2V287.1zm88-240c-22.1 0-40 18.81-40 40v40h40c26.5 0 48 22.4 48 48v12.2c14.1 6.2 24 20.3 24 35.8 0 23-17.9 40-40 40s-40-17-40-40c0-15.5 9.9-29.6 24-35.8v-12.2c0-7.9-7.2-16-16-16h-40v160h51.3c6.2-13.2 20.3-24 36.7-24 22.1 0 40 18.8 40 40.9 0 22.1-17.9 40-40 40-16.4 0-30.5-9.9-36.7-24H280v72h.2c2 22.4 20.8 40 43.8 40 14.3 0 26.9-6.8 34.1-17.3 6.3-7.1 9.6-15.9 9-25.4 5 1.7 11.3 2.7 16.9 2.7 4.7 0 9.2-.7 13.4-1.9 20-5.8 34.6-24.3 34.6-46.1 0-6.5-1.3-12.6-3.6-18.3-.5-1.2-1-2.4-1.6-3.5 1.6-.8 3.1-1.6 4.6-2.4 19.5-11 32.6-31.9 32.6-55.8 0-9.5-2.1-18.4-5.7-26.5-6.9-15.1-19.5-27.1-35-33.1 10.2-8.8 16.7-21.9 16.7-37.3 0-.9-.1-2.8-.3-4.6-1.6-14.4-9.7-26.9-21.2-34.6-6.3-4.1-14.4-6.8-21.3-7.6 1.8-5.1 2.8-10.6 2.8-17.2 0-1.2-.1-3.3-.4-5.4-2.8-20.9-18.9-37.57-40.5-41.04l.9-.66c0-22.09-17.9-40-40-40v-.9zm-144 112c8.8 0 16-6.3 16-16 0-7.9-7.2-16-16-16s-16 8.1-16 16c0 9.7 7.2 16 16 16zM160 368c8.8 0 16-7.2 16-16s-7.2-16-16-16-16 7.2-16 16 7.2 16 16 16zm208-144.9c0-7.9-7.2-16-16-16s-16 8.1-16 16c0 9.7 7.2 16 16 16s16-6.3 16-16zm0 128.9c8.8 0 16-7.2 16-16s-7.2-16.9-16-16.9-16 8.1-16 16.9c0 8.8 7.2 16 16 16z"/></svg>