<svg xmlns="http://www.w3.org/2000/svg" viewBox="0 0 640 512"><!--! Font Awesome Pro 6.1.1 by @fontawesome - https://fontawesome.com License - https://fontawesome.com/license (Commercial License) Copyright 2022 Fonticons, Inc.--><path d="M128 96c0 35.3-28.65 64-64 64S0 131.3 0 96c0-35.35 28.65-64 64-64s64 28.65 64 64zm32 160c0-35.3 28.7-64 64-64s64 28.7 64 64-28.7 64-64 64-64-28.7-64-64zm64 24c13.3 0 24-10.7 24-24s-10.7-24-24-24-24 10.7-24 24 10.7 24 24 24zm-96 136c0 35.3-28.65 64-64 64S0 451.3 0 416s28.65-64 64-64 64 28.7 64 64zm-64-24c-13.25 0-24 10.7-24 24s10.75 24 24 24 24-10.7 24-24-10.75-24-24-24zm224 24c0 35.3-28.7 64-64 64s-64-28.7-64-64 28.7-64 64-64 64 28.7 64 64zm-64-24c-13.3 0-24 10.7-24 24s10.7 24 24 24 24-10.7 24-24-10.7-24-24-24zM0 256c0-35.3 28.65-64 64-64s64 28.7 64 64-28.65 64-64 64-64-28.7-64-64zM160 96c0-35.35 28.7-64 64-64s64 28.65 64 64c0 35.3-28.7 64-64 64s-64-28.7-64-64zm320 0c0 35.3-28.7 64-64 64s-64-28.7-64-64c0-35.35 28.7-64 64-64s64 28.65 64 64zm160 0c0 35.3-28.7 64-64 64s-64-28.7-64-64c0-35.35 28.7-64 64-64s64 28.65 64 64zm-64-24c-13.3 0-24 10.75-24 24 0 13.3 10.7 24 24 24s24-10.7 24-24c0-13.25-10.7-24-24-24zm-64 184c0-35.3 28.7-64 64-64s64 28.7 64 64-28.7 64-64 64-64-28.7-64-64zm64 24c13.3 0 24-10.7 24-24s-10.7-24-24-24-24 10.7-24 24 10.7 24 24 24zm64 136c0 35.3-28.7 64-64 64s-64-28.7-64-64 28.7-64 64-64 64 28.7 64 64zm-64-24c-13.3 0-24 10.7-24 24s10.7 24 24 24 24-10.7 24-24-10.7-24-24-24zM352 256c0-35.3 28.7-64 64-64s64 28.7 64 64-28.7 64-64 64-64-28.7-64-64zm64 24c13.3 0 24-10.7 24-24s-10.7-24-24-24-24 10.7-24 24 10.7 24 24 24zm64 136c0 35.3-28.7 64-64 64s-64-28.7-64-64 28.7-64 64-64 64 28.7 64 64zm-64-24c-13.3 0-24 10.7-24 24s10.7 24 24 24 24-10.7 24-24-10.7-24-24-24z"/></svg>