<svg xmlns="http://www.w3.org/2000/svg" viewBox="0 0 640 512"><!--! Font Awesome Pro 6.1.1 by @fontawesome - https://fontawesome.com License - https://fontawesome.com/license (Commercial License) Copyright 2022 Fonticons, Inc.--><path d="m634.9 339.8-96-95.2c-10.12-10-26.1-2.625-26.1 12.13V304h-79.87c-5.624 0-11.25-.125-16.1.75-47.12 7-85.61 44.5-93.36 91.5-7.874 46.75 13.25 89.5 48.24 113 9.749 6.5 21.62-3.25 17.75-14.5-8.999-26.5-5.499-94.63 60.37-94.63h63.99v47.12c0 14.88 16.87 22.25 26.1 12.25l95.99-95.25c5.79-6.64 5.79-17.84-1.01-24.44zM289.1 391c1.25-8 3.375-15.75 6.125-23.25V82C296.1 63.25 311.3 48 330.2 48c15.5 0 29.12 10.5 32.1 25.62l4.749 18.88 22.87-1.25c16.5.125 31.87 15.5 31.87 34.13 0 4.375-.375 5.375-5.499 27.25l18.1 7.625c13.62 5.625 42.62 30.25 24.1 66l-9.874 20 19.5 11.25c3.5 2 6.249 4.5 8.874 6.875l.146-7.727c0-22 14.35-40.4 34.1-46.52C514.1 208.4 514.7 206.8 514.7 205c0-33-16.75-62.1-43.74-80.62-.375-39.62-29.37-72.75-67.49-79.75C389.8 17.75 361.7 0 330.2 0c-22.7 0-43.4 9.25-59.1 24.12C256.5 8.625 235.6 0 213.7 0c-31.5 0-59.6 17.75-73.3 44.88-38.2 7-67.16 40.12-67.53 79.92-27.13 17.4-43.62 47.4-43.62 80.4 0 7.75 1 15.5 2.875 23C11.87 246.2 0 272.2 0 299.5c0 33 16.75 63 43.74 80.63.5 47.5 38.5 86.12 85.74 88.25C145.4 495.1 174.4 512 206.2 512c25.1 0 49.24-11.25 65.62-28.75 13.37 14.38 31.5 24 51.87 27.25-27.99-32.3-40.99-75.9-34.59-119.5zm-41.4 31.8c0 22.8-18.5 41.2-41.4 41.2-32.87 0-39.5-29.5-45.62-47.63l-20.25 3.375c-23.1 4-48.49-15.25-48.49-40.5 0-2.75 4.749-27.37 4.749-27.37l-18.25-7.5C41.62 329.2 37.25 278.2 72.99 257.8l19.5-11.13-9.88-20.17c-17.62-35.7 11.38-60.5 25.09-66.1l18.9-7.6c-4.999-22-5.499-22.88-5.499-27.25 0-18.75 15.25-34 31.87-34.12l22.87 1.25 4.874-18.87c3.874-15.13 17.37-25.63 32.87-25.63 18.87 0 34.12 15.12 34.12 34V422.8z"/></svg>