<svg xmlns="http://www.w3.org/2000/svg" viewBox="0 0 640 512"><!--! Font Awesome Pro 6.1.1 by @fontawesome - https://fontawesome.com License - https://fontawesome.com/license (Commercial License) Copyright 2022 Fonticons, Inc.--><path d="M320 128c13.3 0 24 10.7 24 24v112c0 13.3-10.7 24-24 24s-24-10.7-24-24V152c0-13.3 10.7-24 24-24zm32 224c0 17.7-14.3 32-32 32s-32-14.3-32-32 14.3-32 32-32 32 14.3 32 32zM96 256C96 132.3 196.3 32 320 32s224 100.3 224 224-100.3 224-224 224S96 379.7 96 256zm224 176c97.2 0 176-78.8 176-176S417.2 80 320 80s-176 78.8-176 176 78.8 176 176 176zM83.92 75.82c11.14 7.17 14.36 22.03 7.19 32.28C63.83 151.4 48 201.8 48 255.1c0 55.1 15.83 105.5 43.11 147.9 7.17 11.2 3.95 26-7.19 33.2-11.15 7.2-26 3.9-33.17-8.1C18.63 379.1 0 319.7 0 255.1c0-62.8 18.63-122.2 50.75-172.09 7.17-11.15 22.02-14.36 33.17-7.19zm472.18 0c11.1-7.17 26-3.96 33.2 7.19C621.4 132.9 640 192.3 640 255.1c0 64.6-18.6 124-50.7 173-7.2 12-22.1 15.3-33.2 8.1-11.2-7.2-14.4-22-7.2-33.2 27.3-42.4 43.1-92.8 43.1-147.9 0-53.3-15.8-103.7-43.1-147-7.2-10.25-4-25.11 7.2-32.28z"/></svg>