<svg xmlns="http://www.w3.org/2000/svg" viewBox="0 0 512 512"><!--! Font Awesome Pro 6.1.1 by @fontawesome - https://fontawesome.com License - https://fontawesome.com/license (Commercial License) Copyright 2022 Fonticons, Inc.--><path d="M400 0c13.3 0 24 10.75 24 24v41.16c14.6 1.73 28.1 5.37 42.7 10.86l14.2 5.7c12.3 4.92 18.3 18.88 13.4 31.18s-18.9 18.3-31.2 13.4l-14.3-5.7c-14.1-5.7-29.3-8.6-44.5-8.6h-13.2c-30 0-55.1 25.1-55.1 55.1 0 24.4 14.7 45.4 36.8 53.5l70.8 25.7c41 14.9 68.4 54 68.4 97.7 0 52-38.2 95.1-88 102.8V488c0 13.3-10.7 24-24 24s-24-10.7-24-24v-42.2c-17.1-2.9-33.7-8.9-48.9-17.6l-27-15.4c-11.5-6.5-15.5-21.2-8.9-32.7 6.5-11.5 21.2-15.5 32.7-8.9l27 15.4c15.4 8.8 32.8 13.4 50.5 13.4h6.6c30.9 0 56-25.1 56-56 0-23.5-14.7-44.5-36.9-52.6l-70.7-25.7c-41-14.9-68.4-54-68.4-98.6 0-52 38.2-94.19 88-101.88V24c0-13.25 10.7-24 24-24zM0 56c0-13.25 10.75-24 24-24h96c75.1 0 136 60.89 136 136 0 59.4-38.1 109.9-91.1 128.4l57.5 151.1c4.7 12.3-1.5 26.2-13.9 30.9-12.3 4.7-26.2-1.5-30.9-13.9L116.4 304H48v152c0 13.3-10.75 24-24 24S0 469.3 0 456V56zm48 200h72c48.6 0 88-39.4 88-88s-39.4-88-88-88H48v176z"/></svg>