<svg xmlns="http://www.w3.org/2000/svg" viewBox="0 0 512 512"><!--! Font Awesome Pro 6.1.1 by @fontawesome - https://fontawesome.com License - https://fontawesome.com/license (Commercial License) Copyright 2022 Fonticons, Inc.--><path d="M323.9 265.4c6 6 9.3 14.1 9.3 22.6 0 8.5-3.3 16.6-9.3 22.6l-45.3 45.3c-6 6-14.1 9.3-23.5 9.3-7.6 0-15.7-3.3-21.7-9.3l-45.3-45.3c-6-6-9.3-14.1-9.3-22.6 0-8.5 3.3-16.6 9.3-22.6l45.3-45.3c6-6 14.1-9.3 21.7-9.3 9.4 0 17.5 3.3 23.5 9.3l45.3 45.3zM511.1 192c1.4 16.4-4.6 32.4-15.9 44.4-12.1 12-26.8 19-44.1 19.6h-4v176c0 12.7-4.2 24.9-13.2 33.9S412.7 480 399.1 480h-288c-11.83 0-24.04-5.1-33.04-14.1-9.01-9-14.96-21.2-14.96-33.9V256h-4c-15.53-.6-31.07-7.6-42.31-19.6A62.257 62.257 0 0 1-.003 192C-.003 96.29 132.4 32 255.1 32c124.5 0 256 64.29 256 160zm-49.9 10.4c2.2-3 3.2-6.7 1.9-10.4 0-59.6-104.9-112-208-112-101.3 0-208 52.4-208 112 .48 3.7 1.48 7.4 3.72 10.4 2.23 3 5.51 5 8.28 5.6h52v224h288V208h52c4.6-.6 7.8-2.6 10.1-5.6z"/></svg>