<svg xmlns="http://www.w3.org/2000/svg" viewBox="0 0 576 512"><!--! Font Awesome Pro 6.1.1 by @fontawesome - https://fontawesome.com License - https://fontawesome.com/license (Commercial License) Copyright 2022 Fonticons, Inc.--><path d="M544 32c13.3 0 24 10.75 24 24s-10.7 24-24 24h-40v64h48c13.3 0 24 10.7 24 24s-10.7 24-24 24H24c-13.25 0-24-10.7-24-24s10.75-24 24-24h48V80H24C10.75 80 0 69.25 0 56s10.75-24 24-24h520zm-88 48h-80v64h80V80zm-208 0v64h80V80h-80zm-48 0h-80v64h80V80zm-80 256v96h48v-88c0-57.4 46.6-104 104-104h32c57.4 0 104 46.6 104 104v88h48v-96c0-53.9 42.1-96 96-96 13.3 0 24 10.7 24 24s-10.7 24-24 24c-26.5 0-48 21.5-48 48v104c0 22.1-17.9 40-40 40h-64c-22.1 0-40-17.9-40-40v-96c0-30.9-25.1-56-56-56h-32c-30.9 0-56 25.1-56 56v96c0 22.1-17.9 40-40 40h-64c-22.09 0-40-17.9-40-40V336c0-26.5-21.49-48-48-48-13.25 0-24-10.7-24-24s10.75-24 24-24c53.02 0 96 42.1 96 96z"/></svg>