<svg xmlns="http://www.w3.org/2000/svg" viewBox="0 0 576 512"><!--! Font Awesome Pro 6.1.1 by @fontawesome - https://fontawesome.com License - https://fontawesome.com/license (Commercial License) Copyright 2022 Fonticons, Inc.--><path d="M48 112v50.8c45.88 11 80 52.3 80 101.5V361c-14.8-8.5-32.04-10.6-48-6.5v-90.2c0-31.1-25.2-56.3-56.3-56.3C10.61 208 0 197.4 0 184.3V96c0-17.67 14.33-32 32-32h512c17.7 0 32 14.33 32 32v88.3c0 13.1-10.6 23.7-23.7 23.7-31.1 0-56.3 25.2-56.3 56.3v90.2c-16-4.1-33.2-2-48 6.5v-96.7c0-49.2 34.1-90.5 80-101.5V112H48zm144 272.5c-5.1 0-10.5-.6-16-1.7V272c0-61.9 50.1-112 112-112s112 50.1 112 112v110.8c-5.5 1.1-10.8 1.7-16 1.7-10.4 0-21.3-2.2-32-6.2V272c0-35.3-28.7-64-64-64s-64 28.7-64 64v106.4c-10.3 3.8-21.1 6.1-32 6.1zm-.9 47.5c29.7 0 59.4-15.3 80.9-33.9 9.1-9 22.8-9 31.1 0 22.4 18.6 52 33.9 80 33.9 29.7 0 59.4-15.3 80.9-33.9 9.1-9 22.8-9 31.9 0 17 15 39.3 26.8 61.3 31.7 12.9 2.9 21.1 15.7 18.2 28.7-2.9 12.9-15.8 21-28.7 18.1-28.7-6.4-52.3-20.4-67.6-30.4-27.2 19.5-60.5 33.8-96 33.8-33.7 0-67-14.3-96-33.8-27.2 19.5-60.5 33.8-96 33.8-33.7 0-67-14.3-95.12-33.8-14.37 10-37.99 24-66.68 30.4-12.93 2.9-25.765-5.2-28.667-18.1-2.901-13 5.232-25.8 18.167-28.7 22.2-5 43.96-17.7 60.3-31.7 9.99-9 23.7-9 32.8 0 21.6 18.6 51.2 33.9 79.2 33.9z"/></svg>