<svg xmlns="http://www.w3.org/2000/svg" viewBox="0 0 640 512"><!--! Font Awesome Pro 6.1.1 by @fontawesome - https://fontawesome.com License - https://fontawesome.com/license (Commercial License) Copyright 2022 Fonticons, Inc.--><path d="M576 32c13.3 0 24 10.75 24 24s-10.7 24-24 24h-40v64h48c13.3 0 24 10.7 24 24 0 7.2-3.2 13.7-8.2 18.1-19.4-16.3-44.5-26.1-71.8-26.1-30.5 0-58.2 12.2-78.4 32H56c-13.25 0-24-10.7-24-24s10.75-24 24-24h48V80H56c-13.25 0-24-10.75-24-24s10.75-24 24-24h520zm-88 48h-80v64h80V80zm-208 0v64h80V80h-80zm-48 0h-80v64h80V80zm104 160c32.2 0 60.9 14.6 80 37.5v19.1c-11.8 6.8-21.3 17.3-26.8 30-7.3-22.4-28.3-38.6-53.2-38.6h-32c-30.9 0-56 25.1-56 56v96c0 22.1-17.9 40-40 40h-64c-22.1 0-40-17.9-40-40V336c0-26.5-21.49-48-48-48-13.25 0-24-10.7-24-24s10.75-24 24-24c53 0 96 42.1 96 96v96h48v-88c0-57.4 46.6-104 104-104h32zm192-48c44.2 0 80 35.8 80 80v48c17.7 0 32 14.3 32 32v128c0 17.7-14.3 32-32 32H448c-17.7 0-32-14.3-32-32V352c0-17.7 14.3-32 32-32v-48c0-44.2 35.8-80 80-80zm0 48c-17.7 0-32 14.3-32 32v48h64v-48c0-17.7-14.3-32-32-32z"/></svg>