<svg xmlns="http://www.w3.org/2000/svg" viewBox="0 0 640 512"><!--! Font Awesome Pro 6.1.1 by @fontawesome - https://fontawesome.com License - https://fontawesome.com/license (Commercial License) Copyright 2022 Fonticons, Inc.--><path d="M576 32c13.3 0 24 10.75 24 24s-10.7 24-24 24h-40v64h48c13.3 0 24 10.7 24 24s-10.7 24-24 24H56c-13.25 0-24-10.7-24-24s10.75-24 24-24h48V80H56c-13.25 0-24-10.75-24-24s10.75-24 24-24h520zm-88 48h-80v64h80V80zm-208 0v64h80V80h-80zm-48 0h-80v64h80V80zm104 208h-32c-30.9 0-56 25.1-56 56v96c0 22.1-17.9 40-40 40h-64c-22.1 0-40-17.9-40-40V336c0-26.5-21.49-48-48-48-13.25 0-24-10.7-24-24s10.75-24 24-24c53 0 96 42.1 96 96v96h48v-88c0-57.4 46.6-104 104-104h32c11.8 0 23 1.9 33.6 5.5-12.2 12.6-22.4 26.9-30.5 42.6-1-.1-2-1-3.1-1v.9zm16 80c0-79.5 64.5-144 144-144s144 64.5 144 144-64.5 144-144 144-144-64.5-144-144zm144 96c13.3 0 24-10.7 24-24s-10.7-24-24-24-24 10.7-24 24 10.7 24 24 24zm-16.9-176v80c0 8.8 8.1 16 16 16 9.7 0 16-7.2 16-16v-80c0-8.8-6.3-16-16-16-7.9 0-16 7.2-16 16z"/></svg>