<svg xmlns="http://www.w3.org/2000/svg" viewBox="0 0 640 512"><!--! Font Awesome Pro 6.1.1 by @fontawesome - https://fontawesome.com License - https://fontawesome.com/license (Commercial License) Copyright 2022 Fonticons, Inc.--><path d="M576 32c13.3 0 24 10.75 24 24s-10.7 24-24 24h-40v64h48c13.3 0 24 10.7 24 24s-10.7 24-24 24H56c-13.25 0-24-10.7-24-24s10.75-24 24-24h48V80H56c-13.25 0-24-10.75-24-24s10.75-24 24-24h520zm-88 48h-80v64h80V80zm-208 0v64h80V80h-80zm-48 0h-80v64h80V80zm104 208h-32c-30.9 0-56 25.1-56 56v96c0 22.1-17.9 40-40 40h-64c-22.1 0-40-17.9-40-40V336c0-26.5-21.49-48-48-48-13.25 0-24-10.7-24-24s10.75-24 24-24c53 0 96 42.1 96 96v96h48v-88c0-57.4 46.6-104 104-104h32c11.8 0 23 1.9 33.6 5.5-12.2 12.6-22.4 26.9-30.5 42.6-1-.1-2-1-3.1-1v.9zm16 80c0-79.5 64.5-144 144-144s144 64.5 144 144-64.5 144-144 144-144-64.5-144-144zm203.3-36.7c6.3-6.2 6.3-16.4 0-22.6-6.2-6.3-16.4-6.3-22.6 0L496 345.4l-36.7-36.7c-6.2-6.3-16.4-6.3-22.6 0-6.3 6.2-6.3 16.4 0 22.6l36.7 36.7-36.7 36.7c-6.3 6.2-6.3 16.4 0 22.6 6.2 6.3 16.4 6.3 22.6 0l36.7-36.7 36.7 36.7c6.2 6.3 16.4 6.3 22.6 0 6.3-6.2 6.3-16.4 0-22.6L518.6 368l36.7-36.7z"/></svg>