<svg xmlns="http://www.w3.org/2000/svg" viewBox="0 0 640 512"><!--! Font Awesome Pro 6.1.1 by @fontawesome - https://fontawesome.com License - https://fontawesome.com/license (Commercial License) Copyright 2022 Fonticons, Inc.--><path d="M320 112c70.3 0 135.8-38.4 170.9-99.53C495 5.04 502.9 0 512 0c8.8 0 16.5 4.728 20.7 11.78 13 21.2 26.6 42.16 42 59.76 15.5 17.67 31.7 30.56 49.4 36.96 12.5 3.6 19 18.2 14.5 30.7s-18.3 18.9-30.7 14.4c-28.2-10.1-50.8-29.4-69.3-50.4-.9-1-1.7-2-2.6-3V240h80c13.3 0 24 10.7 24 24s-10.7 24-24 24H24c-13.25 0-24-10.7-24-24s10.75-24 24-24h80V100.2c-.9 1-1.7 2-2.6 3-18.46 21-41.07 40.3-69.26 50.4-12.47 4.5-26.219-1.9-30.716-14.4s1.966-27.1 14.436-30.7c17.71-6.4 33.93-19.29 49.44-36.96 15.43-17.6 28.99-38.56 42-59.76C111.5 4.729 119.2 0 128 0c9.1 0 16.1 5.04 21.1 12.47C184.2 73.6 249.7 112 320 112zm-120 16.3c-17.3-9.8-33.5-21.7-48-35.45V240h48V128.3zm96 30.5c-16.4-1.6-32.5-4.9-48-9.8v91h48v-81.2zm96-9.8c-15.5 4.9-31.6 8.2-48 9.8V240h48v-91zm96-56.15c-14.5 13.75-30.7 25.65-48 35.45V240h48V92.85zM.001 360c0-13.3 10.749-24 23.999-24h16c57.44 0 104 46.6 104 104v24h48c0-70.7 57.3-128 128-128s128 57.3 128 128h48v-24c0-57.4 46.6-104 104-104h16c13.3 0 24 10.7 24 24s-10.7 24-24 24h-16c-30.9 0-56 25.1-56 56v24c0 26.5-21.5 48-48 48h-49.4c-25.7 0-46.6-20.9-46.6-46.6V464c0-44.2-35.8-80-80-80s-80 35.8-80 80v1.4c0 25.7-20.9 46.6-46.6 46.6H144c-26.5 0-48-21.5-48-48v-24c0-30.9-25.07-56-56-56H24C10.75 384 .001 373.3.001 360z"/></svg>