<svg xmlns="http://www.w3.org/2000/svg" viewBox="0 0 512 512"><!--! Font Awesome Pro 6.1.1 by @fontawesome - https://fontawesome.com License - https://fontawesome.com/license (Commercial License) Copyright 2022 Fonticons, Inc.--><path d="M296.1 191c-9.375-9.375-24.56-9.375-33.94 0s-9.375 24.56 0 33.94L302.1 264H152c-13.2 0-24 10.8-24 24s10.75 24 24 24h150.1l-39.03 39.03C258.3 355.7 256 361.8 256 368s2.344 12.28 7.031 16.97c9.375 9.375 24.56 9.375 33.94 0l80-80c9.375-9.375 9.375-24.56 0-33.94L296.1 191zM448 96h-64V64c0-35.35-28.65-64-64-64H192c-35.3 0-64 28.65-64 64v32H64c-35.35 0-64 28.7-64 64v256c0 35.35 28.65 64 64 64h384c35.35 0 64-28.65 64-64V160c0-35.3-28.7-64-64-64zM176 64c0-8.838 7.164-16 16-16h128c8.836 0 16 7.162 16 16v32H176V64zm288 352c0 8.799-7.199 16-16 16H64c-8.801 0-16-7.201-16-16V160c0-8.801 7.199-16 16-16h384c8.801 0 16 7.199 16 16v256z"/></svg>