<svg xmlns="http://www.w3.org/2000/svg" viewBox="0 0 512 512"><!--! Font Awesome Pro 6.1.1 by @fontawesome - https://fontawesome.com License - https://fontawesome.com/license (Commercial License) Copyright 2022 Fonticons, Inc.--><path d="M232 24c0-13.25 10.7-24 24-24s24 10.75 24 24v64c0 13.3-10.7 24-24 24s-24-10.7-24-24V24zm-72 232c0-53.9 42.1-96 96-96 53 0 96 42.1 96 96 0 53-43 96-96 96-53.9 0-96-43-96-96zm96 48c26.5 0 48-21.5 48-48s-21.5-48-48-48-48 21.5-48 48 21.5 48 48 48zM0 256c0-13.3 10.75-24 24-24h64c13.3 0 24 10.7 24 24s-10.7 24-24 24H24c-13.25 0-24-10.7-24-24zm488-24c13.3 0 24 10.7 24 24s-10.7 24-24 24h-64c-13.3 0-24-10.7-24-24s10.7-24 24-24h64zM256 512c-13.3 0-24-10.7-24-24v-64c0-13.3 10.7-24 24-24s24 10.7 24 24v64c0 13.3-10.7 24-24 24zM74.98 74.98c9.37-9.37 24.57-9.37 33.92 0l45.3 45.22c9.3 9.4 9.3 24.6 0 34-9.4 9.3-24.6 9.3-34 0l-45.22-45.3c-9.37-9.35-9.37-24.55 0-33.92zM437 403.1c9.4 9.3 9.4 24.5 0 33.9-9.4 9.4-24.6 9.4-33.9 0l-45.3-45.2c-9.3-9.4-9.3-24.6 0-34 9.4-9.3 24.6-9.3 34 0l45.2 45.3zM74.98 437c-9.37-9.4-9.37-24.5 0-33.9l45.22-45.3c9.4-9.3 24.6-9.3 34 0 9.3 9.4 9.3 24.6 0 34L108.9 437c-9.35 9.4-24.55 9.4-33.92 0zM403.1 74.98c9.3-9.37 24.5-9.37 33.9 0 9.4 9.37 9.4 24.57 0 33.92l-45.2 45.3c-9.4 9.4-24.6 9.4-34 0-9.3-9.4-9.3-24.6 0-34l45.3-45.22z"/></svg>