<svg xmlns="http://www.w3.org/2000/svg" viewBox="0 0 512 512"><!--! Font Awesome Pro 6.1.1 by @fontawesome - https://fontawesome.com License - https://fontawesome.com/license (Commercial License) Copyright 2022 Fonticons, Inc.--><path d="M455.4 146.5c.4-3.2.6-6.5.6-9.8 0-46.52-39.48-84.36-88-84.36-4.316 0-8.611.307-12.85.912C334.7 20.79 297.6 0 256 0s-78.7 20.79-99.2 53.28c-4.2-.61-8.5-.92-12.8-.92-48.52 0-88 37.85-88 84.36 0 3.295.201 6.568.6 9.812C22.1 165.1 0 201.4 0 241.5 0 302.4 52.04 352 116 352h17.92c73.02 102.6 46.7 160 93.32 160h57.73c46.32 0 20.05-56.33 93.17-160H396c63.1 0 116-49.6 116-110.5 0-40.1-22.1-76.4-56.6-95zM256 412.7c-9.1-23.3-18.9-43.7-28.2-60.7h56.42c-9.32 17-19.12 37.4-28.22 60.7zM396 304H116c-37.5 0-68-28.1-68-62.5 0-29.06 21.56-54.03 52.42-60.72a16.006 16.006 0 0 0 12.61-15.64C113 155.4 104 152.4 104 136.7c0-20.05 17.94-36.36 40-36.36 17.99 0 20.76 8.449 30.34 8.449 7.324 0 13.76-4.987 15.53-12.15C196.1 68.01 224.2 48 256 48s59.03 20.01 66.13 48.66c1.774 7.166 8.207 12.15 15.53 12.15 9.542 0 12.42-8.449 30.34-8.449 22.06 0 40 16.31 40 36.36 0 15.59-9.035 18.64-9.035 28.37 0 7.536 5.262 14.04 12.61 15.64C442.4 187.4 464 212.4 464 241.5c0 34.4-30.5 62.5-68 62.5z"/></svg>