<svg xmlns="http://www.w3.org/2000/svg" viewBox="0 0 640 512"><!--! Font Awesome Pro 6.1.1 by @fontawesome - https://fontawesome.com License - https://fontawesome.com/license (Commercial License) Copyright 2022 Fonticons, Inc.--><path d="M512 319.8c-52.86 0-95.98 42.1-95.98 95.75S459.14 511.3 512 511.3c52.87 0 95.98-42.1 95.98-95.75S564.9 319.8 512 319.8zm0 143.7c-26.49 0-47.99-21.5-47.99-47.87 0-26.37 21.5-47.87 47.99-47.87 26.49 0 47.99 21.5 47.99 47.87C560 442 538.4 463.5 512 463.5zM640 23.1C640 11.22 629.7 0 615.1 0a23.738 23.738 0 0 0-14.74 5.115L368.1 187.3l-39.39-49.48a12.03 12.03 0 0 0-9.381-4.484c-3.517 0-7.04 1.531-9.49 4.609l-57.61 73.12C221.1 211.8 148.2 217.6 100.2 255.8 38.24 305 0 511.3 0 511.3c3.767.1 18.84.7 40.27.7 64.59 0 186.1-5.08 231.9-40.74 47.62-37.1 69.99-107.5 77.73-137.6l84.23-39.5c4.446-2.144 6.925-6.557 6.925-11.03a11.77 11.77 0 0 0-2.55-7.346l-40.57-50.96 232.8-181.9C636.8 38.2 640 31.13 640 23.1zM59.49 463.9c4.748-19.12 10.12-38.12 15.75-56.37l45.37-35.1c1.599-1.24 2.291-2.901 2.291-4.547 0-3.133-2.504-6.209-6.017-6.209-.411 0-.836.042-1.272.131l-26.12 5.5C110.1 312.1 123.9 267.1 239.8 259.5l59.86 74.1C269.4 435.3 238.1 461.2 59.49 463.9zM369.1 267.7a6.162 6.162 0 0 1-3.418 5.523l-35.49 16.5L290.4 239.9l24.25-30.75a6.041 6.041 0 0 1 4.74-2.297 5.76 5.76 0 0 1 4.633 2.297L367.8 264c.9 1.1 1.3 2.4 1.3 3.7z"/></svg>