<svg xmlns="http://www.w3.org/2000/svg" viewBox="0 0 640 512"><!--! Font Awesome Pro 6.1.1 by @fontawesome - https://fontawesome.com License - https://fontawesome.com/license (Commercial License) Copyright 2022 Fonticons, Inc.--><path d="M634.9 9.24C626.728-1.2 611.65-3.1 601.21 5.115L368.1 187.3l-39.39-49.48a12.107 12.107 0 0 0-18.91.08l-57.61 73.12c-31.09.78-103.99 6.58-151.99 44.78C38.24 305 0 511.3 0 511.3c15.12.75 212.3 7.5 272.2-39.1 47.62-37.1 69.99-107.5 77.73-137.6l84.23-39.5c6.1-3.375 9.123-12.37 4.375-18.37l-40.57-50.96 232.8-181.9C641.2 34.77 643.1 19.68 634.9 9.24zM242.2 433.8c-16.5 13.12-74.23 28.5-182.7 30.12 4.748-19.12 10.12-38.12 15.75-56.37l45.37-35.1c4.1-3.875 1.125-11.87-4.998-10.62l-26.12 5.5c13.37-35.25 27.74-62.1 40.74-73.37 26.99-21.5 71.24-30.1 109.6-33.5l59.86 74.1C290.3 365.8 271.7 410.4 242.2 433.8zm123.5-160.5-35.49 16.5-39.81-49.9 24.25-30.75c2.375-2.1 6.998-3.125 9.373 0L367.8 264c2.4 3 1.4 7.5-2.1 9.3z"/></svg>