<svg xmlns="http://www.w3.org/2000/svg" viewBox="0 0 640 512"><!--! Font Awesome Pro 6.1.1 by @fontawesome - https://fontawesome.com License - https://fontawesome.com/license (Commercial License) Copyright 2022 Fonticons, Inc.--><path d="M239.1 162.8c8.6-2.7 16.6-2.8 24.9-2.8h112c20 0 38.7 5.7 54.6 15.5L503 103c9.4-9.34 24.6-9.34 33.1 0 10.2 9.4 10.2 24.6 0 33.1l-71.6 73.3c9.8 15.9 15.5 33.7 15.5 54.6h72c13.3 0 24 10.7 24 24s-10.7 24-24 24h-72v8c0 9.9-.9 19.5-2.6 28.9l153.4 120.2c10.4 8.2 12.3 23.3 4.1 33.7-8.2 10.4-23.3 12.3-33.7 4.1L9.196 42.89C-1.236 34.71-3.065 19.63 5.112 9.196 13.29-1.236 28.37-3.065 38.81 5.112L239.1 162.8zm58.6 45.2L432 313.3V264c0-30.9-25.1-56-56-56h-78.3zM416 96v3.56c0 15.74-12.7 28.44-28.4 28.44H252.4c-15.7 0-28.4-12.7-28.4-28.44V96C224 42.98 266.1.001 320 .001c53 0 96 42.979 96 95.999zM160 264c0-12.9 2.4-25.3 6.7-36.7l41.4 31.8c-.1 2.2-.1 3.6-.1 4.9v56c0 53.6 37.7 98.4 88 109.4V329.2l48 37.8v62.4c18.3-4 34.8-12.4 48.6-24.1l38.2 30.1C402.1 463 363 480 320 480c-43.7 0-83.3-17.5-112.2-45.9l-71.7 70c-8.5 10.2-23.7 10.2-33.1 0-9.34-8.5-9.34-23.7 0-33.1l75.8-75.7c-12-22.5-18.8-48.1-18.8-75.3v-8H88c-13.25 0-24-10.7-24-24s10.75-24 24-24h72z"/></svg>