<svg xmlns="http://www.w3.org/2000/svg" viewBox="0 0 512 512"><!--! Font Awesome Pro 6.1.1 by @fontawesome - https://fontawesome.com License - https://fontawesome.com/license (Commercial License) Copyright 2022 Fonticons, Inc.--><path d="M352 96v3.56c0 15.74-12.7 28.44-28.4 28.44H188.4c-15.7 0-28.4-12.7-28.4-28.44V96c0-53.02 42.1-96 96-96 53 0 96 42.98 96 96zm-312.97 7c9.37-9.34 24.57-9.34 33.94 0l72.43 72.5c15.9-9.8 33.7-15.5 54.6-15.5h112c20 0 38.7 5.7 54.6 15.5L439 103c9.4-9.34 24.6-9.34 33.1 0 10.2 9.4 10.2 24.6 0 33.1l-71.6 73.3c9.8 15.9 15.5 33.7 15.5 54.6h72c13.3 0 24 10.7 24 24s-10.7 24-24 24h-72v8c0 27.2-6.8 52.8-18.8 75.3l74.9 75.7c10.2 9.4 10.2 24.6 0 33.1-8.5 10.2-23.7 10.2-33.1 0l-70.8-70C339.3 462.5 299.7 480 256 480s-83.3-17.5-112.2-45.9l-70.83 70c-9.37 10.2-24.57 10.2-33.94 0-9.37-8.5-9.37-23.7 0-33.1l75.77-75.7C102.8 372.8 96 347.2 96 320v-8H24c-13.25 0-24-10.7-24-24s10.75-24 24-24h72c0-20.9 5.7-38.7 15.5-54.6l-72.47-73.3c-9.37-8.5-9.37-23.7 0-33.1zM144 320c0 53.6 37.7 98.4 88 109.4V280c0-13.3 10.7-24 24-24s24 10.7 24 24v149.4c50.3-11 88-55.8 88-109.4v-56c0-30.9-25.1-56-56-56H200c-30.9 0-56 25.1-56 56v56z"/></svg>