<svg xmlns="http://www.w3.org/2000/svg" viewBox="0 0 576 512"><!--! Font Awesome Pro 6.1.1 by @fontawesome - https://fontawesome.com License - https://fontawesome.com/license (Commercial License) Copyright 2022 Fonticons, Inc.--><path d="M187.4 135.1h16.9l4.2-19.8c2.6-13 15.2-21.44 28.2-18.84 13 2.6 21.4 15.24 18.8 28.24l-8 40c-2.2 11.2-12.1 18.4-23.5 18.4h-32v24.2l37.8 9.4c9.5 2.4 16.6 10.2 18 19.9l8 56c1.8 13.1-7.3 25.3-20.4 27.2-13.1 1.8-25.3-7.3-27.2-20.4l-5.7-40-18.4-4.6c-10.8 19.8-31.9 32.3-56.1 32.3-24.2 0-45.25-12.5-56.13-32.3l-18.39 4.6-5.72 40c-1.87 13.1-14.03 22.2-27.15 20.4C7.489 317.9-1.628 305.7.246 292.6l8-56c1.38-9.7 8.474-17.5 17.934-19.9L64 207.3v-24.2H32c-11.44 0-21.29-7.2-23.529-18.4l-8-40c-2.6-13 5.829-25.64 18.829-28.24 13-2.6 25.64 5.84 28.24 18.84l4.14 19.8h16.98c4.7-10.7 12.71-20.6 22.86-27.7L58.15 33.92c-5.48-12.07-.14-26.295 11.93-31.775 12.07-5.48 26.3-.138 31.82 11.935L128 71.66l26.2-57.58c5.4-12.073 19.7-17.415 31.7-11.935 11.2 5.48 17.4 19.705 12 31.775l-33.4 73.48c10.1 7.1 18.2 17 22.9 27.7zM144 224v-64c0-8.8-7.2-16-16-16s-16 7.2-16 16v64c0 8.8 7.2 16 16 16s16-7.2 16-16zm357.5 98.7 14.7 8.5 13.9-15.9c8.8-10 23.9-10.9 33-2.2 10.8 8.8 11.8 23.9 3.1 33l-27 31.5c-7.5 8.6-20.1 10.7-30 5l-27.7-16-11.6 20.1 28 27.1c7 6.8 9.2 17.1 5.6 26.2l-21.1 52.5c-4.9 12.3-18.9 18.3-31.2 13.3-12.3-4.9-18.3-18.9-13.3-31.2l15-37.5-13.6-13.2c-20.2 11.7-44.3 12.8-65.2.7-21-12.1-32.5-34.2-32-56.8l-18.3-5.2-24.9 31.8c-8.2 10.4-23.3 12.2-33.7 4-10.4-8.1-12.3-23.2-4.1-33.7l35-44.5c6-7.6 16.1-10.9 25.4-9.1l37.5 11.6 11.6-20.1-27.7-16c-9.9-5.8-14.4-17.7-10.7-28.5l13.1-38.7c4.2-12.5 17.8-19.2 30.4-15 12.6 4.3 18.4 17.9 15 30.4l-7.6 20 15.6 8.5c9.9-7.7 21.8-12.3 34.1-14.2l7.8-79.4c1.3-13.2 13-22.9 26.2-21.6 13.2 1.3 22.9 13 21.6 26.2l-6.2 63 51.5-36.8c10.8-7.7 25.7-5.2 33.5 5.5 7.7 10.8 5.2 25.8-5.6 33.5l-66.5 47c6.1 11.2 8.1 23.8 6.4 36.2zm-55.4-22.8c-7.7-4.4-17.5-1.8-21.9 5.9l-32 55.4c-4.4 7.7-1.8 17.4 5.9 21.9 7.6 4.4 17.4 1.8 21.8-5.9l32-55.4c4.4-7.7 1.8-17.5-5.8-21.9z"/></svg>