<svg xmlns="http://www.w3.org/2000/svg" viewBox="0 0 640 512"><!--! Font Awesome Pro 6.1.1 by @fontawesome - https://fontawesome.com License - https://fontawesome.com/license (Commercial License) Copyright 2022 Fonticons, Inc.--><path d="M48 64v384c0 8.8 7.16 16 16 16h80v-64c0-26.5 21.5-48 48-48s48 21.5 48 48v64h80c.2 0 .4-.9.7-.9-.5 5.1-.7 9.5-.7 13.8 0 12.6 3.5 24.4 9.5 34.4-3.1.5-6.3.7-9.5.7H64c-35.35 0-64-28.7-64-64V64C0 28.65 28.65 0 64 0h256c35.3 0 64 28.65 64 64v303.8c-20.1 11.2-36.7 27.8-48 47.9V64c0-8.84-7.2-16-16-16H64c-8.84 0-16 7.16-16 16zm40 40c0-8.84 7.16-16 16-16h48c8.8 0 16 7.16 16 16v48c0 8.8-7.2 16-16 16h-48c-8.84 0-16-7.2-16-16v-48zm192-16c8.8 0 16 7.16 16 16v48c0 8.8-7.2 16-16 16h-48c-8.8 0-16-7.2-16-16v-48c0-8.84 7.2-16 16-16h48zM88 232c0-8.8 7.16-16 16-16h48c8.8 0 16 7.2 16 16v48c0 8.8-7.2 16-16 16h-48c-8.84 0-16-7.2-16-16v-48zm192-16c8.8 0 16 7.2 16 16v48c0 8.8-7.2 16-16 16h-48c-8.8 0-16-7.2-16-16v-48c0-8.8 7.2-16 16-16h48zm296 56c0 44.2-35.8 80-80 80s-80-35.8-80-80 35.8-80 80-80 80 35.8 80 80zM352 477.1c0-51.4 41.7-93.1 93.1-93.1h101.8c51.4 0 93.1 41.7 93.1 93.1 0 19.3-15.6 34.9-34.9 34.9H386.9c-19.3 0-34.9-15.6-34.9-34.9z"/></svg>