<svg xmlns="http://www.w3.org/2000/svg" viewBox="0 0 640 512"><!--! Font Awesome Pro 6.1.1 by @fontawesome - https://fontawesome.com License - https://fontawesome.com/license (Commercial License) Copyright 2022 Fonticons, Inc.--><path d="M48 64v384c0 8.8 7.16 16 16 16h80v-64c0-26.5 21.5-48 48-48s48 21.5 48 48v64h80c8.8 0 16-7.2 16-16v-6.6c8.2 17.9 19.3 34.1 32.7 48.1-12.6 13.8-29.2 22.5-48.7 22.5H64c-35.35 0-64-28.7-64-64V64C0 28.65 28.65 0 64 0h256c35.3 0 64 28.65 64 64v168.2c-20.3 16.8-36.9 38.1-48 62.4V64c0-8.84-7.2-16-16-16H64c-8.84 0-16 7.16-16 16zm40 40c0-8.84 7.16-16 16-16h48c8.8 0 16 7.16 16 16v48c0 8.8-7.2 16-16 16h-48c-8.84 0-16-7.2-16-16v-48zm192-16c8.8 0 16 7.16 16 16v48c0 8.8-7.2 16-16 16h-48c-8.8 0-16-7.2-16-16v-48c0-8.84 7.2-16 16-16h48zM88 232c0-8.8 7.16-16 16-16h48c8.8 0 16 7.2 16 16v48c0 8.8-7.2 16-16 16h-48c-8.84 0-16-7.2-16-16v-48zm192-16c8.8 0 16 7.2 16 16v48c0 8.8-7.2 16-16 16h-48c-8.8 0-16-7.2-16-16v-48c0-8.8 7.2-16 16-16h48zm72 152c0-79.5 64.5-144 144-144s144 64.5 144 144-64.5 144-144 144-144-64.5-144-144zm203.3-36.7c6.3-6.2 6.3-16.4 0-22.6-6.2-6.3-16.4-6.3-22.6 0L496 345.4l-36.7-36.7c-6.2-6.3-16.4-6.3-22.6 0-6.3 6.2-6.3 16.4 0 22.6l36.7 36.7-36.7 36.7c-6.3 6.2-6.3 16.4 0 22.6 6.2 6.3 16.4 6.3 22.6 0l36.7-36.7 36.7 36.7c6.2 6.3 16.4 6.3 22.6 0 6.3-6.2 6.3-16.4 0-22.6L518.6 368l36.7-36.7z"/></svg>