<svg xmlns="http://www.w3.org/2000/svg" viewBox="0 0 640 512"><!--! Font Awesome Pro 6.1.1 by @fontawesome - https://fontawesome.com License - https://fontawesome.com/license (Commercial License) Copyright 2022 Fonticons, Inc.--><path d="M152 88c8.8 0 16 7.16 16 16v48c0 8.8-7.2 16-16 16h-48c-8.84 0-16-7.2-16-16v-48c0-8.84 7.16-16 16-16h48zm64 16c0-8.84 7.2-16 16-16h48c8.8 0 16 7.16 16 16v48c0 8.8-7.2 16-16 16h-48c-8.8 0-16-7.2-16-16v-48zm-64 112c8.8 0 16 7.2 16 16v48c0 8.8-7.2 16-16 16h-48c-8.84 0-16-7.2-16-16v-48c0-8.8 7.16-16 16-16h48zm64 16c0-8.8 7.2-16 16-16h48c8.8 0 16 7.2 16 16v48c0 8.8-7.2 16-16 16h-48c-8.8 0-16-7.2-16-16v-48zM320 0c35.3 0 64 28.65 64 64v384c0 35.3-28.7 64-64 64H64c-35.35 0-64-28.7-64-64V64C0 28.65 28.65 0 64 0h256zm0 48H64c-8.84 0-16 7.16-16 16v384c0 8.8 7.16 16 16 16h80v-64c0-26.5 21.5-48 48-48s48 21.5 48 48v64h80c8.8 0 16-7.2 16-16V64c0-8.84-7.2-16-16-16zm320 144v16c0 44.2-35.8 80-80 80h-16v-16c0-44.2 35.8-80 80-80h16zm-80 208h-16v-16c0-44.2 35.8-80 80-80h16v16c0 44.2-35.8 80-80 80zm0 112h-16v-16c0-44.2 35.8-80 80-80h16v16c0 44.2-35.8 80-80 80zm-48-16v16h-16c-44.2 0-80-35.8-80-80v-16h16c44.2 0 80 35.8 80 80zm-16-96c-44.2 0-80-35.8-80-80v-16h16c44.2 0 80 35.8 80 80v16h-16zm16-128v16h-16c-44.2 0-80-35.8-80-80v-16h16c44.2 0 80 35.8 80 80zm16-240c13.3 0 24 10.75 24 24v104c0 13.3-10.7 24-24 24s-24-10.7-24-24V56c0-13.25 10.7-24 24-24zm96 96c0 13.3-10.7 24-24 24s-24-10.7-24-24V96c0-13.25 10.7-24 24-24s24 10.75 24 24v32zM456 72c13.3 0 24 10.75 24 24v32c0 13.3-10.7 24-24 24s-24-10.7-24-24V96c0-13.25 10.7-24 24-24z"/></svg>