<svg xmlns="http://www.w3.org/2000/svg" viewBox="0 0 384 512"><!--! Font Awesome Pro 6.1.1 by @fontawesome - https://fontawesome.com License - https://fontawesome.com/license (Commercial License) Copyright 2022 Fonticons, Inc.--><path d="M2.016 48C9.121 20.4 34.18 0 64 0h256c29.8 0 54.9 20.4 61.1 48H2.016zM336 240h48v208c0 35.3-28.7 64-64 64H64c-35.35 0-64-28.7-64-64V240h48v208c0 8.8 7.16 16 16 16h80v-64c0-26.5 21.5-48 48-48s48 21.5 48 48v64h80c8.8 0 16-7.2 16-16V240zM216 80c8.8 0 16 7.16 16 16 0 8.8-7.2 16-16 16h-32v64h16v-16c0-8.8 7.2-16 16-16s16 7.2 16 16v24c0 13.3-10.7 24-24 24h-32c-13.3 0-24-10.7-24-24V96c0-8.84 7.2-16 16-16h48zm40 48c0-26.5 21.5-48 48-48s48 21.5 48 48v32c0 26.5-21.5 48-48 48s-48-21.5-48-48v-32zm48-16c-8.8 0-16 7.2-16 16v32c0 8.8 7.2 16 16 16s16-7.2 16-16v-32c0-8.8-7.2-16-16-16zM96 139.2V96c0-8.84 7.2-16 16-16s16 7.16 16 16v96c0 7.1-4.6 13.3-11.4 15.3-6.7 2.1-14-.6-17.91-6.4L64 148.8V192c0 8.8-7.16 16-16 16s-16-7.2-16-16V96a16 16 0 0 1 11.36-15.31c6.75-2.05 14.04.57 17.95 6.43L96 139.2zM88 264c0-8.8 7.16-16 16-16h48c8.8 0 16 7.2 16 16v48c0 8.8-7.2 16-16 16h-48c-8.84 0-16-7.2-16-16v-48zm192-16c8.8 0 16 7.2 16 16v48c0 8.8-7.2 16-16 16h-48c-8.8 0-16-7.2-16-16v-48c0-8.8 7.2-16 16-16h48z"/></svg>