<svg xmlns="http://www.w3.org/2000/svg" viewBox="0 0 576 512"><!--! Font Awesome Pro 6.1.1 by @fontawesome - https://fontawesome.com License - https://fontawesome.com/license (Commercial License) Copyright 2022 Fonticons, Inc.--><path d="M48 64v384c0 8.8 7.16 16 16 16h80v-64c0-26.5 21.5-48 48-48s48 21.5 48 48v64h80v16c0 11.4 3 22.2 8.3 31.5-2.7.3-5.5.5-8.3.5H64c-35.35 0-64-28.7-64-64V64C0 28.65 28.65 0 64 0h256c35.3 0 64 28.65 64 64v129.6c-19.8 20.2-32 47.9-32 78.4v24.6c-6.9 3.4-11.4 7.9-16 13.1V63.1c0-7.94-7.2-16-16-16H64c-8.84 0-16 8.06-16 16v.9zm40 40c0-8.84 7.16-16 16-16h48c8.8 0 16 7.16 16 16v48c0 8.8-7.2 16-16 16h-48c-8.84 0-16-7.2-16-16v-48zm192-16c8.8 0 16 7.16 16 16v48c0 8.8-7.2 16-16 16h-48c-8.8 0-16-7.2-16-16v-48c0-8.84 7.2-16 16-16h48zM88 232c0-8.8 7.16-16 16-16h48c8.8 0 16 7.2 16 16v48c0 8.8-7.2 16-16 16h-48c-8.84 0-16-7.2-16-16v-48zm192-16c8.8 0 16 7.2 16 16v48c0 8.8-7.2 16-16 16h-48c-8.8 0-16-7.2-16-16v-48c0-8.8 7.2-16 16-16h48zm184-24c44.2 0 80 35.8 80 80v48c17.7 0 32 14.3 32 32v128c0 17.7-14.3 32-32 32H384c-17.7 0-32-14.3-32-32V352c0-17.7 14.3-32 32-32v-48c0-44.2 35.8-80 80-80zm0 48c-17.7 0-32 14.3-32 32v48h64v-48c0-17.7-14.3-32-32-32z"/></svg>