<svg xmlns="http://www.w3.org/2000/svg" viewBox="0 0 384 512"><!--! Font Awesome Pro 6.1.1 by @fontawesome - https://fontawesome.com License - https://fontawesome.com/license (Commercial License) Copyright 2022 Fonticons, Inc.--><path d="M152 248c8.8 0 16 7.2 16 16v48c0 8.8-7.2 16-16 16h-48c-8.84 0-16-7.2-16-16v-48c0-8.8 7.16-16 16-16h48zm64 16c0-8.8 7.2-16 16-16h48c8.8 0 16 7.2 16 16v48c0 8.8-7.2 16-16 16h-48c-8.8 0-16-7.2-16-16v-48zm56-124.8V96c0-8.84 7.2-16 16-16s16 7.16 16 16v96c0 7.1-4.6 13.3-11.4 15.3-6.7 2.1-14-.6-17.9-6.4L240 148.8V192c0 8.8-7.2 16-16 16s-16-7.2-16-16V96c0-7.05 4.6-13.27 11.4-15.31 6.7-2.05 14 .57 17.9 6.43L272 139.2zM112 160c0 8.8 7.2 16 16 16s16-7.2 16-16V96c0-8.84 7.2-16 16-16s16 7.16 16 16v64c0 26.5-21.5 48-48 48s-48-21.5-48-48V96c0-8.84 7.16-16 16-16 8.8 0 16 7.16 16 16v64zM0 64C0 28.65 28.65 0 64 0h256c35.3 0 64 28.65 64 64v384c0 35.3-28.7 64-64 64H64c-35.35 0-64-28.7-64-64V64zm48 0v384c0 8.8 7.16 16 16 16h80v-64c0-26.5 21.5-48 48-48s48 21.5 48 48v64h80c8.8 0 16-7.2 16-16V64c0-8.84-7.2-16-16-16H64c-8.84 0-16 7.16-16 16z"/></svg>