<svg xmlns="http://www.w3.org/2000/svg" viewBox="0 0 576 512"><!--! Font Awesome Pro 6.1.1 by @fontawesome - https://fontawesome.com License - https://fontawesome.com/license (Commercial License) Copyright 2022 Fonticons, Inc.--><path d="M47.1 64v384c0 8.8 8.06 16 16 16h80v-64c0-26.5 22.4-48 48-48 27.4 0 48 21.5 48 48v64h71.6c11 14.4 24.1 28.1 39.5 40.4-9 4.9-19.3 7.6-30.2 7.6H64c-35.35 0-64-28.7-64-64V64C0 28.65 28.65 0 64 0h256c35.3 0 64 28.65 64 64v143l-48 19.2V64c0-8.84-7.2-16-16-16H64c-8.84 0-16 7.16-16 16h-.9zM296 232v10.2l-4.8 2c-22.1 8.4-35.1 29-35.2 50.9h-24.9c-7.9 0-16-6.3-16-16v-48c0-7.9 8.1-16 16-16h48c9.7 0 16.9 8.1 16.9 16v.9zM87.1 104c0-8.84 8.06-16 16-16h48c9.7 0 16 7.16 16 16v48c0 8.8-6.3 16-16 16h-48c-7.94 0-16-7.2-16-16v-48zm192-16c9.7 0 16.9 7.16 16.9 16v48c0 8.8-7.2 16-16.9 16h-48c-7.9 0-16-7.2-16-16v-48c0-8.84 8.1-16 16-16h48zm-192 144c0-8.8 8.06-16 16-16h48c9.7 0 16 7.2 16 16v48c0 8.8-6.3 16-16 16h-48c-7.94 0-16-7.2-16-16v-48zm336-6.3c5.7-2.3 12.1-2.3 17.8 0l120 48c9.1 3.7 15.1 12.5 15.1 22.3 0 63.3-25.9 168.8-134.8 214.2-5.9 2.4-12.5 2.4-18.4 0C313.9 464.8 288 359.3 288 296c0-9.8 5.1-18.6 15.1-22.3l120-48zm8.9 48.1v187.9c68.2-33 91.4-99 95.4-150.6L432 273.8z"/></svg>