<svg xmlns="http://www.w3.org/2000/svg" viewBox="0 0 512 512"><!--! Font Awesome Pro 6.1.1 by @fontawesome - https://fontawesome.com License - https://fontawesome.com/license (Commercial License) Copyright 2022 Fonticons, Inc.--><path d="M336 304c0-8.8 7.2-16 16-16h32c8.8 0 16 7.2 16 16v32c0 8.8-7.2 16-16 16h-32c-8.8 0-16-7.2-16-16v-32zm0-192c0-8.8 7.2-16 16-16h32c8.8 0 16 7.2 16 16v32c0 8.8-7.2 16-16 16h-32c-8.8 0-16-7.2-16-16v-32zm16 144c-8.8 0-16-7.2-16-16v-32c0-8.8 7.2-16 16-16h32c8.8 0 16 7.2 16 16v32c0 8.8-7.2 16-16 16h-32zM448 0c35.3 0 64 28.65 64 64v384c0 35.3-28.7 64-64 64H288c-35.3 0-64-28.7-64-64V64c0-35.35 28.7-64 64-64h160zm0 48H288c-8.8 0-16 7.16-16 16v384c0 8.8 7.2 16 16 16h160c8.8 0 16-7.2 16-16V64c0-8.84-7.2-16-16-16zM192 176H72c-13.25 0-24 10.7-24 24v240c0 13.3 10.75 24 24 24h121.3a95.98 95.98 0 0 0 23.1 48H72c-39.76 0-72-32.2-72-72V200c0-39.8 32.24-72 72-72h120v48zm-48 144c8.8 0 16 7.2 16 16v32c0 8.8-7.2 16-16 16h-32c-8.8 0-16-7.2-16-16v-32c0-8.8 7.2-16 16-16h32zm0-96c8.8 0 16 7.2 16 16v32c0 8.8-7.2 16-16 16h-32c-8.8 0-16-7.2-16-16v-32c0-8.8 7.2-16 16-16h32z"/></svg>