<svg xmlns="http://www.w3.org/2000/svg" viewBox="0 0 512 512"><!--! Font Awesome Pro 6.1.1 by @fontawesome - https://fontawesome.com License - https://fontawesome.com/license (Commercial License) Copyright 2022 Fonticons, Inc.--><path d="M200.7 128c70 0 137.2-27.8 186.7-77.32l38-37.99C445.5-7.472 480 6.805 480 35.31V179.6c18.6 8.8 32 32.5 32 60.4s-13.4 51.6-32 60.4v144.3c0 28.5-34.5 42.8-54.6 22.6l-38-38c-47.8-47.8-112-76.2-179.4-77.2V456c0 30.9-25.1 56-56 56h-32c-30.93 0-56-25.1-56-56V352c-35.35 0-64-28.7-64-64v-96c0-35.3 28.65-64 64-64h136.7zM432 73.94l-10.7 10.68C364.5 141.4 288.1 174 208 175.9v128.2c80.1 1 156.5 34.5 213.3 91.3l10.7 10.7V73.94zM112 456c0 4.4 3.6 8 8 8h32c4.4 0 8-3.6 8-8V352h-48v104zM48 192v96c0 8.8 7.16 15.1 16 15.1h96V176H64c-8.84 0-16 7.2-16 16z"/></svg>