<svg xmlns="http://www.w3.org/2000/svg" viewBox="0 0 640 512"><!--! Font Awesome Pro 6.1.1 by @fontawesome - https://fontawesome.com License - https://fontawesome.com/license (Commercial License) Copyright 2022 Fonticons, Inc.--><path d="M238.3 463.1c5.9 19.1 16.3 35.6 30.1 48H85.73c-7.29.9-14.37-1.5-20.06-6.1-5.7-4.5-10.57-10.9-11.27-18L.385 243.5c-.523-2.4-.513-4.8.028-7.1.542-2.4 1.602-4.5 3.101-7.3 1.499-1 3.4-2.5 5.561-3.5 2.165-1.1 4.525-2.5 6.925-2.5h33.98c3.41.7 6.77 1.7 9.54 3.7 2.77 2 4.79 4.9 5.73 7.3 8.64 39 62.15 69 126.75 69 13.8 0 27.7-.6 41.2-3.6-1.7 12.9-1 25.9 2.1 38.4-2 3.6-3.7 7.3-5.1 11.2-12.7 1-25.4 2-38.2 2-45.2 2.1-89.6-11.2-126.75-37l33.25 149h139.8zM101.1 237.7 64.29 40.61c-.56-2.94-.28-5.98.8-8.77 1.08-2.78 2.92-5.21 5.31-7.01L98.88 3.197C101.1 1.553 103.6.494 106.3.12c2.7-.374 5.5-.05 8 .941 2.6.991 4.8 2.616 6.6 4.72 1.7 2.105 2.9 4.619 3.4 7.309l3.7 20V258.5c-10.6-4.6-19.8-11.7-26.9-20.8zm-84.59-46.6L.257 98.72c-.453-2.69-.214-5.44.695-8.01A15.99 15.99 0 0 1 12.61 80.43c2.66-.59 5.42-.48 8.03.3l19.74 5.86 20 107.21c-3.38-1-6.85-1.6-10.36-2.7H16.51zM160 268.8V15.1c0-1.82.7-4.5 2-6.872 1.4-2.375 3.3-4.371 5.6-5.799 2.3-1.43 5-2.244 7.7-2.367 1.8-.122 5.4.45 7.8 1.663l32 16.005c2.7 1.29 5 3.32 6.5 5.85 1.6 2.53 2.4 5.44 2.4 7.52v237.7c-21.1 4.4-42.9 4.4-64 0zm211.2-97.3c-14.8 4.3-29.2 10-43 16.8l17.9-102.38 17.3-5.12c1.7-.78 5.4-.88 8-.3 2.7.59 5.1 1.84 7.2 3.64 2 1.8 3.5 4.09 4.4 6.65.1 2.56 1.2 5.31.7 7.99l-12.5 72.72zM256 245.9V51.2c.9-1.9 2.2-3.61 3.7-5.01 1.6-1.4 3.4-2.47 5.4-3.15l34.3-10.24c1.7-.78 5.4-.88 8-.3 2.7.59 5.1 1.84 7.2 3.64 2 1.8 3.5 4.09 4.4 6.65.1 2.56 1.2 5.31.7 7.99L291.8 210.8c-13.4 10.1-25.5 21.9-35.8 35.1zm180.7 13.4c-3-3-4.7-7.1-4.7-12.2 0-2.3.9-5.4 2.7-8 1.8-2.6 3.4-4.7 7.2-5.9 2.9-1.2 6.1-1.5 9.2-.9 3.1.6 6 2.1 8.2 4.4 2.3 2.2 3.8 5.1 4.4 8.2.6 2.2-.6 6.3-.9 9.2-1.2 2.9-3.3 5.4-5.9 7.2-2.6 1.8-5.7 1.8-8.9 1.8-4.2 0-8.3-.8-11.3-3.8zm80 16c-3-3-4.7-7.1-4.7-12.2 0-2.3.9-5.4 2.7-8 1.8-2.6 3.4-4.7 7.2-5.9 2.9-1.2 6.1-1.5 9.2-.9 3.1.6 6 2.1 8.2 4.4 2.3 2.2 3.8 5.1 4.4 8.2.6 2.2-.6 6.3-.9 9.2-1.2 2.9-3.3 5.4-5.9 7.2-2.6 1.8-5.7 1.8-8.9 1.8-4.2 0-8.3-.8-11.3-3.8zm-160 0c-3-3-4.7-7.1-4.7-12.2 0-2.3.9-5.4 2.7-8 1.8-2.6 3.4-4.7 7.2-5.9 2.9-1.2 6.1-1.5 9.2-.9 3.1.6 6 2.1 8.2 4.4 2.3 2.2 3.8 5.1 4.4 8.2.6 2.2-.6 6.3-.9 9.2-1.2 2.9-3.3 5.4-5.9 7.2-2.6 1.8-5.7 1.8-8.9 1.8-4.2 0-8.3-.8-11.3-3.8zm280 116.5c-2.2 4.9-5.4 9.4-9.3 13.1 3 7.3 3.7 15.2 4.6 22.2-.9 23.2-8.9 44.5-24.6 60.3-15.8 15.7-37.1 23.7-59.4 23.7H348c-22.3 0-43.6-8-59.4-23.7-15.7-15.8-24.6-37.1-24.6-60.3 0-7 1.6-14.9 4.6-22.2-4.2-4.8-7.6-8.7-9.7-14.1-2.2-5.3-3.2-11.1-2.8-17.7.3-4.9 1-10.5 4.6-15.5 2.8-5.1 6.6-9.5 11.3-12.9-6.9-11.6-8.7-25.6-7.8-37.8.9-13.1 5.4-25.7 12.9-36.4 20.5-25.4 46.6-45.7 76.3-59.3 28.7-13.6 62-20.2 94.6-20.1 32.6-1 65 6.5 94.7 20.1 29.6 13.6 55.7 33.9 76.2 59.3 7.5 10.7 12 23.3 12.9 36.4.9 12.2-1.8 26.2-7.8 37.8 4.9 3.7 8.9 8.4 11.7 13.8 2.7 5.4 4.2 11.4 4.3 16.6 0 6.3-1.1 11.7-3.3 16.7zm-320.3-94.7c-2.6 4.5-4.1 8.7-5.3 13.1.6 4.4 1.5 8.8 3.5 11.9 2 4.8 5.1 8.1 8.9 10.4 3.7 2.3 8.1 3.5 12.5 2.6h223.9c4.4.9 8.7-.3 12.5-2.6 3.8-2.3 6.9-5.6 8.9-9.5 2-3.9 2.9-8.3 2.6-12.7-.3-4.4-1.7-8.7-4.3-13.2-16-18.2-36.2-33.3-59.1-43.4-22.8-10-47.6-15.6-72.5-14.6-24.9-1-49.7 4.6-72.5 14.6-22.8 10.1-43 25.2-59 43.4h-.1zm257.1 156.4c6.7-6.8 10.5-16 10.5-26.4 0-2.3-1.3-5.3-3.5-7.6-2.3-2.2-5.3-4.4-8.5-4.4H324c-3.2 0-6.2 2.2-8.5 4.4-2.2 2.3-3.5 5.3-3.5 7.6 0 10.4 3.8 19.6 10.5 26.4 6.8 6.7 16 9.6 25.5 9.6h200c9.5 0 18.7-2.9 25.5-9.6z"/></svg>