<svg xmlns="http://www.w3.org/2000/svg" viewBox="0 0 512 512"><!--! Font Awesome Pro 6.1.1 by @fontawesome - https://fontawesome.com License - https://fontawesome.com/license (Commercial License) Copyright 2022 Fonticons, Inc.--><path d="M176 336c0 17.7-14.3 32-32 32s-32-14.3-32-32 14.3-32 32-32 32 14.3 32 32zm224 0c0 17.7-14.3 32-32 32s-32-14.3-32-32 14.3-32 32-32 32 14.3 32 32zm64-241.02V128h16c17.7 0 32 14.3 32 32v64c0 17.7-14.3 32-32 32h-13c17.1 18.7 29 44.1 29 72v56c0 29.8-20.4 54.9-48 61.1V488c0 13.3-10.7 24-24 24s-24-10.7-24-24v-40H112v40c0 13.3-10.7 24-24 24-13.25 0-24-10.7-24-24v-42.9c-27.6-6.2-48-31.3-48-61.1v-56c0-27.9 11.02-53.3 28.95-72H32c-17.67 0-32-14.3-32-32v-64c0-17.7 14.33-32 32-32h16V94.98c0-8.8 2.01-20.55 10.41-30.56C82.89 35.23 145.9 0 256 0c117.7 0 174.9 35.09 198.3 64.96 6.8 9.84 9.7 21.14 9.7 30.02zM96 96h84.3c5.5-9.56 15.9-16 27.7-16h96c11.8 0 22.2 6.44 27.7 16H416v-1.02c0-.44-.9-.79-.1-1.05v-.06C404.2 79.44 363.5 48 255.1 48c-98.2 0-145.5 31.11-159.08 46.3-.01.18-.92.41-.92.68L96 96zm0 48v82.8c7.7-2.7 15.7-2.8 24-2.8h112v-80H96zm320 0H280v80h112c8.3 0 16.3.1 24 2.8V144zM120 272c-30.93 0-56 25.1-56 56v56c0 8.8 7.16 16 16 16h352c8.8 0 16-7.2 16-16v-56c0-30.9-25.1-56-56-56H120z"/></svg>