<svg xmlns="http://www.w3.org/2000/svg" viewBox="0 0 448 512"><!--! Font Awesome Pro 6.1.1 by @fontawesome - https://fontawesome.com License - https://fontawesome.com/license (Commercial License) Copyright 2022 Fonticons, Inc.--><path d="M80 336c0-17.7 14.33-32 32-32 17.7 0 32 14.3 32 32s-14.3 32-32 32c-17.67 0-32-14.3-32-32zm224 0c0-17.7 14.3-32 32-32s32 14.3 32 32-14.3 32-32 32-32-14.3-32-32zM10.2 70.03C35.86 38.75 103.8 0 224 0c128.6 0 190 38.63 214.4 70.55 7.5 9.77 9.6 20.93 9.6 29.85V376c0 24.1-12.7 46.1-32 59.9V488c0 13.3-10.7 24-24 24s-24-10.7-24-24v-40H80v40c0 13.3-10.75 24-24 24s-24-10.7-24-24v-52.1C12.7 422.1 0 400.1 0 376V100.4c0-8.82 2.045-20.43 10.2-30.37zM51.47 96H397.2c-15.8-17.11-62-48-173.2-48C121.8 48 69.82 78.27 51.47 96zM400 144H48v80h352v-80zm0 128H48v104c0 13.3 10.75 24 24 24h304c13.3 0 24-10.7 24-24V272z"/></svg>