<svg xmlns="http://www.w3.org/2000/svg" viewBox="0 0 576 512"><!--! Font Awesome Pro 6.1.1 by @fontawesome - https://fontawesome.com License - https://fontawesome.com/license (Commercial License) Copyright 2022 Fonticons, Inc.--><path d="M144 336c0-17.7 14.3-32 32-32s32 14.3 32 32-14.3 32-32 32-32-14.3-32-32zm224 0c0-17.7 14.3-32 32-32s32 14.3 32 32-14.3 32-32 32-32-14.3-32-32zM74.2 70.03C99.86 38.75 167.8 0 288 0c128.6 0 190 38.63 214.4 70.55 7.5 9.77 9.6 20.93 9.6 29.85V128c17.7 0 32 14.3 32 32v64c0 17.7-14.3 32-32 32v120c0 24.1-12.7 46.1-32 59.9V488c0 13.3-10.7 24-24 24s-24-10.7-24-24v-40H144v40c0 13.3-10.7 24-24 24s-24-10.7-24-24v-52.1c-19.3-13.8-32-35.8-32-59.9V256c-17.67 0-32-14.3-32-32v-64c0-17.7 14.33-32 32-32v-27.6c0-8.82 2.05-20.43 10.2-30.37zM363.7 96h97.5c-15.8-17.11-62-48-173.2-48-102.2 0-154.2 30.27-172.5 48h96.8c5.5-9.56 15.9-16 27.7-16h96c11.8 0 22.2 6.44 27.7 16zM464 144H312v80h152v-80zm-352 80h152v-80H112v80zm0 48v104c0 13.3 10.7 24 24 24h304c13.3 0 24-10.7 24-24V272H112z"/></svg>