<svg xmlns="http://www.w3.org/2000/svg" viewBox="0 0 640 512"><!--! Font Awesome Pro 6.1.1 by @fontawesome - https://fontawesome.com License - https://fontawesome.com/license (Commercial License) Copyright 2022 Fonticons, Inc.--><path d="M496 224c-79.5 0-144 64.5-144 144s64.47 144 144 144 144-64.47 144-144-64.5-144-144-144zm48 160h-48c-8.844 0-16-7.156-16-16v-64c0-8.8 7.2-16 16-16s16 7.2 16 16v48h32c8.844 0 16 7.156 16 16s-7.2 16-16 16zM64 432c-8.801 0-16-7.201-16-16V304h144v16c0 17.67 14.33 32 32 32h64c17.67 0 32-14.33 32-32v-16h12.18c6.85-17.52 16.27-33.74 28.05-48H48v-96c0-8.801 7.199-16 16-16h384c8.801 0 16 7.199 16 16v35.05c10.4-1.95 21.1-3.05 32-3.05 5.402 0 10.72.33 16 .807V160c0-35.35-28.65-64-64-64h-64V64c0-35.35-28.65-64-64-64H192c-35.3 0-64 28.65-64 64v32H64c-35.35 0-64 28.7-64 64v256c0 35.35 28.65 64 64 64h296.2c-11.78-14.26-21.2-30.48-28.05-48H64zM176 64c0-8.838 7.164-16 16-16h128c8.836 0 16 7.162 16 16v32H176V64z"/></svg>