<svg xmlns="http://www.w3.org/2000/svg" viewBox="0 0 576 512"><!--! Font Awesome Pro 6.1.1 by @fontawesome - https://fontawesome.com License - https://fontawesome.com/license (Commercial License) Copyright 2022 Fonticons, Inc.--><path d="M320 128c0 17.7-14.3 32-32 32s-32-14.3-32-32 14.3-32 32-32 32 14.3 32 32zM263.8 12.22c14.3-10.848 34.1-10.848 48.4 0L464 127.4V56c0-13.25 10.7-24.9 24-24.9s24 11.65 24 24.9v107.8l22.5 17.1c8.2 6.2 11.5 17 8.2 26.8-3.2 9.7-12.4 16.3-22.7 16.3H55.1c-9.41 0-18.56-6.6-21.85-16.3-3.28-9.8.03-20.6 8.24-26.8L263.8 12.22zm24.2 41.9L127.3 176h321.4L288 54.12zM63.1 296c0-13.3 11.64-24 24-24h112c14.2 0 24 10.7 24 24s-9.8 24-24 24h-112c-12.36 0-24-10.7-24-24zm0 192c0-13.3 11.64-24 24-24h112c14.2 0 24 10.7 24 24s-9.8 24-24 24h-112c-12.36 0-24-10.7-24-24zm136-120c14.2 0 24 10.7 24 24s-9.8 24-24 24h-112c-12.36 0-24-10.7-24-24s11.64-24 24-24h112zM352 296c0-13.3 10.7-24 24-24h112c13.3 0 24 10.7 24 24s-10.7 24-24 24H376c-13.3 0-24-10.7-24-24zm136 168c13.3 0 24 10.7 24 24s-10.7 24-24 24H376c-13.3 0-24-10.7-24-24s10.7-24 24-24h112zm-136-72c0-13.3 10.7-24 24-24h112c13.3 0 24 10.7 24 24s-10.7 24-24 24H376c-13.3 0-24-10.7-24-24z"/></svg>