<svg xmlns="http://www.w3.org/2000/svg" viewBox="0 0 448 512"><!--! Font Awesome Pro 6.1.1 by @fontawesome - https://fontawesome.com License - https://fontawesome.com/license (Commercial License) Copyright 2022 Fonticons, Inc.--><path d="M384 0H64C28.65 0 0 28.65 0 64v384c0 35.35 28.65 64 64 64h320c35.35 0 64-28.65 64-64V64c0-35.35-28.7-64-64-64zm0 464H64c-8.837 0-16-7.163-16-16V280h352v168c0 8.8-7.2 16-16 16zm16-232H48V64c0-8.837 7.163-16 16-16h320c8.837 0 16 7.163 16 16v168zm-272-64h16c8.875 0 16-7.125 16-16v-8h128v8c0 8.875 7.125 16 16 16h16c8.875 0 16-7.125 16-16v-24c0-17.62-14.38-32-32-32H144c-17.62 0-32 14.38-32 32v24c0 8.9 7.1 16 16 16zm0 240h16c8.875 0 16-7.125 16-16v-8h128v8c0 8.875 7.125 16 16 16h16c8.875 0 16-7.125 16-16v-24c0-17.62-14.38-32-32-32H144c-17.62 0-32 14.38-32 32v24c0 8.9 7.1 16 16 16z"/></svg>