<svg xmlns="http://www.w3.org/2000/svg" viewBox="0 0 448 512"><!--! Font Awesome Pro 6.1.1 by @fontawesome - https://fontawesome.com License - https://fontawesome.com/license (Commercial License) Copyright 2022 Fonticons, Inc.--><path d="m383.1 223.1-7.1.9v-56c0-13.25-10.75-24-24-24s-24 10.75-24 24v56h-80v-56c0-13.25-10.75-24-24-24s-24 10.8-24 24v56h-80v-56c0-13.2-10.7-24-24-24s-24 10.8-24 24v56l-8-.9c-35.35 0-64 28.65-64 63.1v192C0 497.7 14.33 512 32 512h384c17.67 0 32-14.33 32-32V287.1c0-34.5-28.7-64-64.9-64zM400 464H48v-71.57c18.12-2.906 34.43-10.33 48-19.1 17.34 11.19 39.64 21.37 64 21.37s46.66-10.19 64-21.37c17.34 11.19 39.64 21.37 64 21.37s46.66-10.19 64-21.37c13.46 8.68 29.94 16.68 48 19.82V464zm0-120.2c-13.47-4.363-25.79-12.82-33.05-18.58-8.75-6.969-21.16-6.969-29.91 0C326.1 333.2 307.2 346.7 288 346.7s-38.97-13.47-49.05-21.48c-8.75-6.969-21.16-6.969-29.91 0C198.1 333.2 179.2 346.7 160 346.7s-38.97-13.47-49.05-21.48c-8.75-6.969-21.16-6.969-29.91 0C73.79 330.1 61.47 339.4 48 343.8V288c0-8.822 7.178-16 16-16h320c8.822 0 16 7.178 16 16v55.8zm-48-232.7c22.09 0 40-17.88 40-39.97S352 0 352 0s-40 49.91-40 72 17.9 39.1 40 39.1zm-128 0c22.09 0 40-17.88 40-39.97S224 0 224 0s-40 49.91-40 72 17.9 39.1 40 39.1zm-128 0c22.09 0 40-17.88 40-39.97S96 0 96 0 56 49.91 56 72s17.91 39.1 40 39.1z"/></svg>