<svg xmlns="http://www.w3.org/2000/svg" viewBox="0 0 448 512"><!--! Font Awesome Pro 6.1.1 by @fontawesome - https://fontawesome.com License - https://fontawesome.com/license (Commercial License) Copyright 2022 Fonticons, Inc.--><path d="m308.8 296.4-14.9 14.9-53.3-54.2 14.9-14.1c14.7-14.7 38.6-14.7 53.3 0 14.7 14.8 14.7 38.6 0 53.4zm-162.7 56.1 71-71.9 54.2 53.3-71.9 72c-4.1 3.2-9.3 7-14.9 8.4l-36.6 9.1c-5.5 1.4-11.2-.2-15.2-4.2-4-3.9-5.6-9.7-4.2-15.2l9.1-36.6c1.4-5.6 3.5-10.8 8.5-14.9zM128 0c13.3 0 24 10.75 24 24v40h144V24c0-13.25 10.7-24 24-24s24 10.75 24 24v40h40c35.3 0 64 28.65 64 64v320c0 35.3-28.7 64-64 64H64c-35.35 0-64-28.7-64-64V128c0-35.35 28.65-64 64-64h40V24c0-13.25 10.7-24 24-24zm272 192H48v256c0 8.8 7.16 16 16 16h320c8.8 0 16-7.2 16-16V192z"/></svg>