<svg xmlns="http://www.w3.org/2000/svg" viewBox="0 0 576 512"><!--! Font Awesome Pro 6.1.1 by @fontawesome - https://fontawesome.com License - https://fontawesome.com/license (Commercial License) Copyright 2022 Fonticons, Inc.--><path d="M128 0c13.3 0 24 10.75 24 24v40h144V24c0-13.25 10.7-24 24-24s24 10.75 24 24v40h40c35.3 0 64 28.65 64 64v64H48v256c0 8.8 7.16 16 16 16h198.5l-5.1 20.2c-2.3 9.4-1.7 19 1.4 27.8H64c-35.35 0-64-28.7-64-64V128c0-35.35 28.65-64 64-64h40V24c0-13.25 10.7-24 24-24zm168 256c13.3 0 24 10.7 24 24s-10.7 24-24 24H120c-13.3 0-24-10.7-24-24s10.7-24 24-24h176zM96 376c0-13.3 10.7-24 24-24h112c13.3 0 24 10.7 24 24s-10.7 24-24 24H120c-13.3 0-24-10.7-24-24zm468.1-125.9c15.7 15.6 15.7 40.9 0 56.6l-29.4 29.4-70.9-71 29.4-29.4c15.6-15.6 40.9-15.6 56.6 0l14.3 14.4zm-252.2 166 129.2-128.3 71 70.9-129.2 129.2c-4.1 4.1-9.3 7-14.9 8.4l-60.1 15.1c-5.5 1.3-11.2-.3-15.2-4.2-4-4-5.6-9.8-4.2-16.1l15-59.3c1.4-5.6 4.3-10.7 8.4-15.7z"/></svg>