<svg xmlns="http://www.w3.org/2000/svg" viewBox="0 0 576 512"><!--! Font Awesome Pro 6.1.1 by @fontawesome - https://fontawesome.com License - https://fontawesome.com/license (Commercial License) Copyright 2022 Fonticons, Inc.--><path d="M151.1 64H296V24c0-13.25 10.7-24 24-24s24 10.75 24 24v40h40c35.3 0 64 28.65 64 64v64H47.1v256c0 8.8 8.06 16 16 16h221.4c12.2 18.8 28 35.1 46.3 48H64c-35.35 0-64-28.7-64-64V128c0-35.35 28.65-64 64-64h40V24c0-13.25 10.7-24 24-24s24 10.75 24 24l-.9 40zm136 304c0-79.5 65.4-144 144.9-144s144 64.5 144 144-64.5 144-144 144-144.9-64.5-144.9-144zM432 480c30.2 0 57.5-11.9 77.7-31.3-6.2-19-24.1-32.7-45.1-32.7h-65.2c-21 0-38.9 13.7-45.1 32.7 20.2 19.4 47.5 31.3 77.7 31.3zm0-96c26.5 0 48-21.5 48-48s-21.5-48-48-48-48 21.5-48 48 21.5 48 48 48z"/></svg>