<svg xmlns="http://www.w3.org/2000/svg" viewBox="0 0 448 512"><!--! Font Awesome Pro 6.1.1 by @fontawesome - https://fontawesome.com License - https://fontawesome.com/license (Commercial License) Copyright 2022 Fonticons, Inc.--><path d="M208 256c8.8 0 16 7.2 16 16v96c0 8.8-7.2 16-16 16h-96c-8.8 0-16-7.2-16-16v-96c0-8.8 7.2-16 16-16h96zM128 0c13.3 0 24 10.75 24 24v40h144V24c0-13.25 10.7-24 24-24s24 10.75 24 24v40h40c35.3 0 64 28.65 64 64v320c0 35.3-28.7 64-64 64H64c-35.35 0-64-28.7-64-64V128c0-35.35 28.65-64 64-64h40V24c0-13.25 10.7-24 24-24zm272 192H48v256c0 8.8 7.16 16 16 16h320c8.8 0 16-7.2 16-16V192z"/></svg>