<svg xmlns="http://www.w3.org/2000/svg" viewBox="0 0 576 512"><!--! Font Awesome Pro 6.1.1 by @fontawesome - https://fontawesome.com License - https://fontawesome.com/license (Commercial License) Copyright 2022 Fonticons, Inc.--><path d="M312 240H104c-13.25 0-24 10.8-24 24s10.75 24 24 24h208c13.25 0 24-10.75 24-24s-10.7-24-24-24zm245.6-57.7c-11.53-7.406-25.88-8.391-38.28-2.688L416 227v-3c0-35.35-28.65-64-64-64l-256-.9V120c0-22.06 17.9-40 40-40h160c13.3 0 24-10.75 24-24s-10.7-24-24-24H136c-48.53 0-88 39.47-88 88v42.26C20.44 169.4 0 194.2 0 223.1v191.1c0 35.35 28.65 63.1 64 63.1l288 2.7c35.35 0 64-28.65 64-64v-3.016l103.3 47.36a39.972 39.972 0 0 0 16.69 3.672c7.531 0 15.02-2.141 21.59-6.359C569.1 450.3 576 437.7 576 423.1V216c0-13.7-6.9-26.2-18.4-33.7zM368 416c0 8.822-7.178 16-16 16H64c-8.822 0-16-7.178-16-16V224c0-8.822 7.178-16 16-16h288c8.822 0 16 7.178 16 16v192zm160-4.5-112-51.33V279.8l112-51.33V411.5z"/></svg>