<svg xmlns="http://www.w3.org/2000/svg" viewBox="0 0 640 512"><!--! Font Awesome Pro 6.1.1 by @fontawesome - https://fontawesome.com License - https://fontawesome.com/license (Commercial License) Copyright 2022 Fonticons, Inc.--><path d="M630.8 469.1 485.1 354.9C516.8 317.4 536 268.1 536 216 536 96.7 439.29.9 320 .9c-71.71 0-134.8 35.3-174 89.09L38.9 6.02C28.35-3.058 13.33-1.246 5.122 9.191c-8.172 10.44-6.354 25.53 4.068 33.7l591.1 463.1C605.6 510.3 610.8 512 615.1 512c7.125 0 14.16-3.161 18.9-9.193 9.1-10.407 7.2-25.507-3.2-33.707zm-259.1-204-112.5-87.3c12.7-20.2 35.1-34.7 60.7-34.7 39.7 0 72.1 33.2 72.1 72.9 0 19.4-7.8 37.1-20.3 49.1zm37.8 30.5c18.9-21.1 30.5-48.9 30.5-79.6 0-66.28-53.73-120-120-120-41.05 0-76.86 20.89-98.45 52.34L184 118.9C214.3 76.16 263.7 48 320 48c92.64 0 168 75.36 168 168 0 41.77-15.62 79.7-40.99 109l-37.51-29.4zM201.4 464l37.61-47.84C264 426.3 291.3 432 320 432c30.47 0 59.43-6.383 85.72-17.77l-45.48-35.65c-12.96 3.215-26.3 5.412-40.24 5.412C227.4 383.1 152 308.6 152 216c0-.201.059-.385.059-.586L107.2 180.3c-1.9 11.6-3.2 23.5-3.2 35.7 0 73.22 36.52 137.8 92.25 176.9l-63.13 80.29a24.061 24.061 0 0 0-2.719 25.31C134.4 506.8 142.8 512 152 512h378.5l-61.24-48H201.4z"/></svg>