<svg xmlns="http://www.w3.org/2000/svg" viewBox="0 0 448 512"><!--! Font Awesome Pro 6.1.1 by @fontawesome - https://fontawesome.com License - https://fontawesome.com/license (Commercial License) Copyright 2022 Fonticons, Inc.--><path d="M384 0H64C28.65 0 0 28.65 0 64v288c0 35.35 28.65 64 64 64h41.37l-37.62 59.11a24.002 24.002 0 0 0-.781 24.44A24.048 24.048 0 0 0 88.02 512h271.1c8.766 0 16.84-4.766 21.05-12.45a24 24 0 0 0-.781-24.44L342.6 416h41.37c35.35 0 64-28.65 64-64V64C448 28.65 419.3 0 384 0zM131.7 464l30.6-48h123.5l30.55 48H131.7zM400 352c0 8.822-7.178 16-16 16H64c-8.822 0-16-7.178-16-16V64c0-8.822 7.178-16 16-16h320c8.822 0 16 7.178 16 16v288zM224 96c-61.86 0-112 50.14-112 112s50.14 112 112 112 112-50.14 112-112S285.9 96 224 96zm0 176c-35.29 0-64-28.71-64-64s28.71-64 64-64 64 28.71 64 64-28.7 64-64 64z"/></svg>