<svg xmlns="http://www.w3.org/2000/svg" viewBox="0 0 640 512"><!--! Font Awesome Pro 6.1.1 by @fontawesome - https://fontawesome.com License - https://fontawesome.com/license (Commercial License) Copyright 2022 Fonticons, Inc.--><path d="M154.8 96h47.9l10.4-31.18C219.6 45.22 237.9 32 258.6 32h122.8c20.7 0 39 13.22 45.5 32.82L437.3 96H512c35.3 0 64 28.7 64 64v256c0 3.3-.2 6.5-.7 9.6l55.5 43.5c10.4 8.2 12.3 23.3 4.1 33.7-8.2 10.4-23.3 12.3-33.7 4.1L9.196 42.89C-1.236 34.71-3.065 19.63 5.112 9.196 13.29-1.236 28.37-3.065 38.81 5.112L154.8 96zm61.2 48 55.1 43.2C285.9 180 302.5 176 320 176c61.9 0 112 50.1 112 112 0 8-.8 15.8-2.4 23.4l98.4 77.1V160c0-8.8-7.2-16-16-16H402.7l-21.3-64H258.6l-21.3 64H216zm166.6 130.6c-6.2-28.9-31.9-50.6-62.6-50.6h-1.9l64.5 50.6zM320 400c-61.9 0-112-50.1-112-112 0-8.9 1-17.5 2.1-25.8l46.7 36.2c5 30.4 31.4 53.6 63.2 53.6 1.6 0 3.2-.1 4.7-.2l45.9 35.3c-15.2 8.6-32.4 12.9-50.6 12.9zm-192 32h298.5l60.9 48H128c-35.34 0-64-28.7-64-64V160c0-4.3.43-8.5 1.24-12.6L112 184.2V416c0 8.8 7.2 16 16 16z"/></svg>