<svg xmlns="http://www.w3.org/2000/svg" viewBox="0 0 512 512"><!--! Font Awesome Pro 6.1.1 by @fontawesome - https://fontawesome.com License - https://fontawesome.com/license (Commercial License) Copyright 2022 Fonticons, Inc.--><path d="M0 24C0 10.75 10.75 0 24 0h112c13.3 0 24 10.75 24 24s-10.7 24-24 24H48v88c0 13.3-10.75 24-24 24S0 149.3 0 136V24zm200 232c0-30.9 25.1-56 56-56s56 25.1 56 56-25.1 56-56 56-56-25.1-56-56zM301.4 96c16 0 30.5 9.5 36.8 24.2l3.3 7.8H352c35.3 0 64 28.7 64 64v128c0 35.3-28.7 64-64 64H160c-35.3 0-64-28.7-64-64V192c0-35.3 28.7-64 64-64h10.5l3.3-7.8c6.3-14.7 20.7-24.2 36.8-24.2h90.8zm-99.3 80H160c-8.8 0-16 7.2-16 16v128c0 8.8 7.2 16 16 16h192c8.8 0 16-7.2 16-16V192c0-8.8-7.2-16-16-16h-42.1l-13.7-32h-80.4l-13.7 32zM488 0c13.3 0 24 10.75 24 24v112c0 13.3-10.7 24-24 24s-24-10.7-24-24V48h-88c-13.3 0-24-10.75-24-24s10.7-24 24-24h112zM0 376c0-13.3 10.75-24 24-24s24 10.7 24 24v88h88c13.3 0 24 10.7 24 24s-10.7 24-24 24H24c-13.25 0-24-10.7-24-24V376zm376 136c-13.3 0-24-10.7-24-24s10.7-24 24-24h88v-88c0-13.3 10.7-24 24-24s24 10.7 24 24v112c0 13.3-10.7 24-24 24H376z"/></svg>