<svg xmlns="http://www.w3.org/2000/svg" viewBox="0 0 576 512"><!--! Font Awesome Pro 6.1.1 by @fontawesome - https://fontawesome.com License - https://fontawesome.com/license (Commercial License) Copyright 2022 Fonticons, Inc.--><path d="M288 128c-44.1 0-80 35.9-80 80s35.9 80 80 80 80-35.88 80-80c-.1-44.1-35.9-79.9-80-80zm0 112c-17.62 0-32-14.38-32-32s14.38-32 32-32 32 14.38 32 32-14.4 32-32 32zm277.3 95.1L512 256V96c0-35.35-28.65-64-64-64H128c-35.35 0-64 28.65-64 64v160l-53.26 79.95C3.736 346.5 0 358.8 0 371.4V416c0 35.2 28.8 64 64 64h448c35.2 0 64-28.8 64-64v-44.57c0-12.63-3.7-24.93-10.7-36.33zM112 270.5V96c0-8.837 7.163-16 16-16h320c8.837 0 16 7.163 16 16v174.5l43.6 65.5H68.38L112 270.5zM512 432H64c-8.837 0-16-7.163-16-16v-32h480v32c0 8.8-7.2 16-16 16zm-88-320h-32c-4.4 0-8 3.6-8 8v32c0 4.4 3.6 8 8 8h32c4.375 0 8-3.625 8-8v-32c0-4.4-3.6-8-8-8z"/></svg>