<svg xmlns="http://www.w3.org/2000/svg" viewBox="0 0 512 512"><!--! Font Awesome Pro 6.1.1 by @fontawesome - https://fontawesome.com License - https://fontawesome.com/license (Commercial License) Copyright 2022 Fonticons, Inc.--><path d="M448 96h-72l-8.457-22.51C358.2 48.51 334.3 32 307.6 32H204.4c-26.7 0-50.5 16.51-59.9 41.45L136 96H64c-35.35 0-64 28.7-64 64v256c0 35.35 28.65 64 64 64h384c35.35 0 64-28.65 64-64V160c0-35.3-28.7-64-64-64zm16 320c0 8.822-7.178 16-16 16H64c-8.822 0-16-7.178-16-16V160c0-8.822 7.178-16 16-16h105.2l20.19-53.64C191.7 84.16 197.8 80 204.4 80h103.3c6.631 0 12.65 4.172 14.98 10.38L342.7 144H448c8.822 0 16 7.178 16 16v256zM346.9 187.7l-14.76 14.77C311.2 183.8 284.6 173 256 173c-35.64 0-68.69 16.12-90.64 44.22-8.16 10.48-6.36 25.58 4.14 33.68 10.4 8.2 25.5 6.3 33.7-4.1 22.5-28.79 67.17-32.26 95.08-10.48l-14.61 14.62c-7.77 7.66-2.37 20.76 8.43 21.06h67.36c4.74-.1 8.54-4 8.54-8.7v-66.9c0-11-13.3-16.5-21.1-8.7zm-38.1 141.5c-22.5 28.79-67.17 32.26-95.08 10.48l14.61-14.62c7.77-7.66 2.37-20.76-8.43-21.06h-67.3c-4.8.1-8.6 3.1-8.6 8.7v66.87c0 11.02 13.33 16.54 21.12 8.74l14.76-14.77C200.8 392.2 227.4 403 256 403c35.64 0 68.69-16.12 90.64-44.22 8.172-10.45 6.312-25.53-4.125-33.69C332.1 316.9 317 318.8 308.8 329.2z"/></svg>