<svg xmlns="http://www.w3.org/2000/svg" viewBox="0 0 576 512"><!--! Font Awesome Pro 6.1.1 by @fontawesome - https://fontawesome.com License - https://fontawesome.com/license (Commercial License) Copyright 2022 Fonticons, Inc.--><path d="M517.5 168.6 139.2 2.266C135.4.732 131.3 0 127.4 0c-11.2 0-22 5.882-27.78 16.14L4.25 183.04C-.5 191.3-1.25 201 1.999 209.9 5.25 218.8 12.25 225.8 21.12 229l164.3 67.98L143.4 408H48v-32c0-13.3-10.75-24-24-24S0 362.7 0 376v112c0 13.3 10.75 24 24 24s24-10.75 24-24v-32h112c9.1 0 19-6.25 22.5-15.5l47.2-125.2 75.67 31.31a32.232 32.232 0 0 0 11.05 1.96c5.871 0 11.7-1.62 16.83-4.835l189.2-118.4C544.7 211.5 541.7 178.3 517.5 168.6zm-202.6 130L54.94 191.1l79.21-138.6 337.2 148.3-156.45 97.8zm260-15.5c-1.625-4.25-4.875-7.5-8.1-9.375l-35.37-15.5-138.4 86.5 119.5 52.51c8.5 3.748 18.46-.132 22.21-8.632l40.74-92.62c.92-4.083 1.02-8.683-.58-12.883z"/></svg>