<svg xmlns="http://www.w3.org/2000/svg" viewBox="0 0 512 512"><!--! Font Awesome Pro 6.1.1 by @fontawesome - https://fontawesome.com License - https://fontawesome.com/license (Commercial License) Copyright 2022 Fonticons, Inc.--><path d="M144 288c0-61.9 50.1-112 112-112s112 50.1 112 112-50.1 112-112 112-112-50.1-112-112zm112-64c-35.3 0-64 28.7-64 64s28.7 64 64 64 64-28.7 64-64-28.7-64-64-64zM362.9 64.82 373.3 96H448c35.3 0 64 28.7 64 64v256c0 35.3-28.7 64-64 64H64c-35.35 0-64-28.7-64-64V160c0-35.3 28.65-64 64-64h74.7l10.4-31.18C155.6 45.22 173.9 32 194.6 32h122.8c20.7 0 39 13.22 45.5 32.82zM64 144c-8.84 0-16 7.2-16 16v256c0 8.8 7.16 16 16 16h384c8.8 0 16-7.2 16-16V160c0-8.8-7.2-16-16-16H338.7l-21.3-64H194.6l-21.3 64H64z"/></svg>