<svg xmlns="http://www.w3.org/2000/svg" viewBox="0 0 576 512"><!--! Font Awesome Pro 6.1.1 by @fontawesome - https://fontawesome.com License - https://fontawesome.com/license (Commercial License) Copyright 2022 Fonticons, Inc.--><path d="M557.6 262.4c-11.53-7.41-25.88-8.396-38.28-2.689l-83.95 38.5C423.7 282.4 405.1 272 384 272H24c-13.25 0-24 10.7-24 24s10.75 24 24 24h42.26c-1.33 5.1-2.26 10.4-2.26 16v111.1c0 35.35 28.65 63.1 64 63.1l256 1.8c26.38 0 49.01-15.98 58.8-38.77l76.53 35.1A39.907 39.907 0 0 0 536 512c7.531 0 15.02-2.143 21.59-6.363C569.1 498.2 576 485.6 576 471.9V296.1c0-13.7-6.9-26.3-18.4-33.7zM400 448c0 8.822-7.178 16-16 16H128c-8.822 0-16-7.178-16-16V336c0-8.8 7.2-16 16-16l256-.007c8.822 0 16 7.185 16 16.01V448zm128 11.5-80-36.7v-77.56l80-36.69V459.5zM152 240h192c66.28 0 120-53.73 120-120C464 53.72 410.3 0 344 0c-39.44 0-74.13 19.28-96 48.66C226.1 19.28 191.4 0 152 0 85.73 0 32 53.72 32 120c0 66.3 53.73 120 120 120zM344 48c39.7 0 72 32.3 72 72s-32.3 72-72 72-72-32.3-72-72 32.3-72 72-72zm-192 0c39.7 0 72 32.3 72 72s-32.3 72-72 72-72-32.3-72-72 32.3-72 72-72z"/></svg>