<svg xmlns="http://www.w3.org/2000/svg" viewBox="0 0 512 512"><!--! Font Awesome Pro 6.1.1 by @fontawesome - https://fontawesome.com License - https://fontawesome.com/license (Commercial License) Copyright 2022 Fonticons, Inc.--><path d="M256 320c79.5 0 144-64.5 144-144 0-33.25-33.38-102-80-144-13.38 12-25.5 24.75-36.13 37.5C266.4 46 244.6 22.25 220 0c-63.12 57-108 131.3-108 176 0 79.5 64.5 144 144 144zM220.2 67.88c9.125 10 17.62 20.25 25.12 30.38l36.25 48.5 36.87-43.88C339.9 133.3 351.1 165.1 351.1 176c0 52.88-42.1 96-95.1 96-52.87 0-95.1-43.13-95.1-96-1.8-19.4 19.8-63.4 59.3-108.12zM496.1 465.4 326.5 404l169.7-61.44c12.47-4.5 18.94-18.28 14.41-30.72-4.5-12.5-18.28-18.88-30.72-14.41L256 378.5 32.16 297.4c-12.4-5.3-26.213 1.9-30.713 14.4-4.531 12.44 1.938 26.22 14.41 30.72L185.5 404 15.8 465.44c-12.47 4.5-18.94 18.28-14.41 30.72C4.979 505.9 14.2 512 24.01 512c2.719 0 5.469-.469 8.156-1.438L256 429.5l223.8 81.05c2.7.95 5.5 1.45 7.3 1.45 9.811 0 19.03-6.062 22.56-15.84 5.44-12.46-1.06-26.26-13.56-30.76z"/></svg>