<svg xmlns="http://www.w3.org/2000/svg" viewBox="0 0 576 512"><!--! Font Awesome Pro 6.1.1 by @fontawesome - https://fontawesome.com License - https://fontawesome.com/license (Commercial License) Copyright 2022 Fonticons, Inc.--><path d="M375.4 5.587c10.2 8.503 11.5 23.633 3 33.803l-59.1 70.71 234.8 282c9.3 10 13.9 22.7 13.9 35V456c0 30.9-25.1 56-56 56H64c-30.93 0-56-25.1-56-56v-28.9c0-12.3 4.61-25 13.04-35l235.66-282-59.1-70.71c-8.5-10.17-7.2-25.3 3-33.803 10.2-8.501 25.3-7.149 33.8 3.021L288 72.71l53.6-64.102c8.5-10.17 23.6-11.522 33.8-3.021zM56 427.1V456c0 4.4 3.58 8 8 8h62l143.1-182.8c4.5-5.8 11.5-9.2 18.9-9.2 7.4 0 14.4 3.4 18.9 9.2L449.1 464H512c4.4 0 8-3.6 8-8v-28.9c0-1-.7-2.8-1.9-4.3L288 147.5 57.86 422.8c-1.2 1.5-1.86 3.3-1.86 4.3zM186.1 464H389L288 334.9 186.1 464z"/></svg>