<svg xmlns="http://www.w3.org/2000/svg" viewBox="0 0 384 512"><!--! Font Awesome Pro 6.1.1 by @fontawesome - https://fontawesome.com License - https://fontawesome.com/license (Commercial License) Copyright 2022 Fonticons, Inc.--><path d="M192 0C94.8 0 16 32.75 16 73.14v365.7C16 479.3 94.8 512 192 512s176-32.75 176-73.14V73.14C368 32.75 289.2 0 192 0zm128 433.7c-10.1 9.5-52.5 30.3-128 30.3S74.1 443.22 64 433.7V288c13.98 6.168 31.11 10.88 49.49 14.73C120.4 339.8 152.9 368 192 368c39.06 0 71.56-28.19 78.51-65.27C288.9 298.9 306 294.2 320 288v145.7zM144 288c0-26.51 21.49-48 48-48s48 21.49 48 48-21.49 48-48 48-48-21.5-48-48zm48-184c-70.69 0-128-13.07-128-29.2s57.31-29.2 128-29.2 128 13.07 128 29.2S262.7 104 192 104z"/></svg>