<svg xmlns="http://www.w3.org/2000/svg" viewBox="0 0 640 512"><!--! Font Awesome Pro 6.1.1 by @fontawesome - https://fontawesome.com License - https://fontawesome.com/license (Commercial License) Copyright 2022 Fonticons, Inc.--><path d="M479.1 0C313.3 1.625 314.6 39.5 321.2 72.5 351.58 224 415.21 416 479 416c63.75-.125 127.6-191.9 158-343.5 7.5-33 8.8-70.875-157.9-72.5zm.8 365.6c-12-10.25-29.25-39.63-47.5-84.13 31.25-1.875 64-1.875 95.26 0C509.3 326.1 492 355.4 479.9 365.6zM591 63c-3.25 16.25-6.75 31.88-10.25 47.13-63.75-8-137.8-8-201.5 0-3.5-15.25-7-30.88-10.25-47.13-.125-.625-.25-1.25-.375-1.75C378.9 57 407.6 48.75 479.1 48c72.38.75 101.1 9 111.4 13.25.8.5.6 1.13.5 1.75zM84.97 205.8C-31.13 324.3-3.38 350.2 24.5 367.9 153.1 453.53 334 544.3 379 499.2c44.88-45.25-45.39-225.9-131.1-354.6-18.7-27.1-44.5-54.83-162.93 61.2zm6.64 149.1c-13.25-8.25-26.75-16.75-40.63-26-.5-.375-1-.75-1.502-1 4.252-10.25 18.75-36.38 69.38-88.13C170.6 189.1 196.7 174.6 206.1 170.4c.25.5.625 1 1 1.5 9.25 13.88 17.75 27.38 26 40.63-49.9 39.37-103 91.57-141.49 142.37zm225.99 16.4c18.62 44.5 27.12 77.38 25.75 93.13-15.75 1.25-48.63-7.25-93.13-25.75C271.1 415.3 294.2 392 317.6 371.3z"/></svg>