<svg xmlns="http://www.w3.org/2000/svg" viewBox="0 0 640 512"><!--! Font Awesome Pro 6.1.1 by @fontawesome - https://fontawesome.com License - https://fontawesome.com/license (Commercial License) Copyright 2022 Fonticons, Inc.--><path d="M624.1 319c4.2 3.4 6.5 7.7 7.4 12.3.9 3.8-.4 9.5-1.3 13.9-1.9 4.4-4.9 8.1-8.9 10.7-3.9 2.7-8.6 3.2-13.3 4.1-3.7 0-7.4-.9-10.7-2.5L504 310.8c-11.8 39.6-36.1 74.4-69.2 99.1-33.2 24.7-73.4 37.2-114.8 37.2-41.3 0-81.6-12.5-114.7-37.2a191.82 191.82 0 0 1-69.3-99.1l-93.28 46.7C39.4 359.2 35.73 360 32 360c-4.74-.9-9.38-1.4-13.32-4.1-3.94-2.6-7.02-6.3-8.83-10.7-1.815-4.4-2.29-10.1-1.366-13.9.925-4.6 3.206-8.9 6.556-12.3l30.53-30.7-29.15-9.6c-4.77-1.6-8.926-5.6-11.866-8.8-2.941-4.1-4.523-9-4.523-14 0-5.1 1.582-10 4.523-14.1 2.94-4 7.096-7.1 11.866-8.7l29.15-9.6-30.53-31.4c-4.01-3.2-6.464-8.5-6.917-14.2-.452-5.6 1.124-11.3 4.447-16.8 3.33-3.7 8.18-7 13.71-8.4 5.52-1.3 11.35-1.6 16.44 1.8l92.38 46.7c12.7-39.6 37-74.4 70.1-99.1 33.2-24.72 73.4-38.07 113.9-38.07 42.2 0 82.5 13.35 115.6 38.07 33.2 24.7 57.5 59.5 68.4 99.1l94.2-46.4c5.1-2.5 10.9-3.1 16.4-1.7 5.5 1.3 10.3 4.6 13.7 9.2 3.3 4.6 4.9 10.2 4.4 15.9-.4 5.7-3.7 11-7.7 15l-29.7 30.5 29.2 9.6c4.8 1.6 8.9 4.7 11.9 8.8 2.9 4.1 3.6 9 3.6 14 0 5.1-.7 10-3.6 14.1-3 4.1-7.1 7.1-11.9 8.7l-29.2 9.6 29.7 30.5zm-217.7 51.5L280.3 118.4c-16.9 4.8-32.7 12.6-46.7 23.1l126.1 252.1c16.9-4.8 32.7-13.5 46.7-23.1zm-192.1-17.1c24.6 26.5 58.3 42.8 94.3 44.7L198.7 179.2c-15.6 22.9-22.6 49.6-22.7 76.8.1 36.1 13.8 70.9 38.3 97.4zm249.4-90.1c1.3-24.8-3.8-49.4-14.9-71.6-11.1-22.1-27.7-41-48.3-54.8-20.6-13.8-44.4-22-69.1-23.7l109.9 219.6c13.4-21.7 21.1-45.7 22.4-69.5z"/></svg>