<svg xmlns="http://www.w3.org/2000/svg" viewBox="0 0 448 512"><!--! Font Awesome Pro 6.1.1 by @fontawesome - https://fontawesome.com License - https://fontawesome.com/license (Commercial License) Copyright 2022 Fonticons, Inc.--><path d="M372 368.1c-23.54 1.27-44.8 16.06-57.18 36.13C300.9 426.8 302.3 446.7 308.4 464H272V272c0-26.4-21.6-48-48-48H96c-26.4 0-48 21.6-48 48v192H24c-13.25 0-24 10.7-24 24s10.75 24 24 24h348.7c34.79 0 67.07-23.22 73.8-57.35 9.4-47.55-28.1-89.05-74.5-86.55zM224 464H96V272h32v56c0 13.3 10.8 24 24 24s24-10.75 24-24v-56h48v192zm152 0c-13.25 0-24-10.75-24-24s10.8-24 24-24 24 10.75 24 24-10.7 24-24 24zM160 191.1c45.88 0 77.1-32.62 77.1-79.25 0-29.1-31.7-73.97-77.1-111.85-45.6 38-78.9 82.88-78.9 112.8 0 46.6 33 78.3 78.9 78.3zm0-124.97c20 22.12 29.8 39.97 29.1 46.67 1.3 11.6-3 31.2-29.1 31.2s-30.9-19.6-30.9-31c1.4-6.7 10.9-24.75 30.9-46.87z"/></svg>