<svg xmlns="http://www.w3.org/2000/svg" viewBox="0 0 576 512"><!--! Font Awesome Pro 6.1.1 by @fontawesome - https://fontawesome.com License - https://fontawesome.com/license (Commercial License) Copyright 2022 Fonticons, Inc.--><path d="M523.4 326.9c-2.25-1.156-16.91-8.625-39.5-15.94 44.47-64.09 58.53-126.1 59.19-130 2.781-12.66-1-25.81-10.78-35.84-9.375-8.844-24.75-12.06-34.44-9.969-.656.125-57.41 11.66-119.4 50.53-10.06-87.56-49.16-153.9-58.25-168.3C305.9-4.438 270.5-5.062 255.3 18c-8.7 13.91-47.8 80.19-57.8 167.8-60-37.47-115.1-49.88-118.3-50.34l-8.7-1.06c-9.969 0-19.5 3.812-27.28 11.19-9.281 9.281-13.12 22.5-10.31 35.34C33.56 184 47.63 246.9 92.09 311c-22.59 7.3-37.28 14.8-39.59 15.1-12.66 7.5-20.5 20.6-20.5 34.8 0 14.38 7.906 27.41 20.16 33.78.53.32 47.94 25.92 111.84 30.82-.781 2.188-1.25 3.656-1.406 4.188-4.562 13.78-1 28.75 9.156 38.94 10.03 10.16 24.81 13.94 38.59 9.75C215.5 476.8 240.1 463.4 264 449.1v39.86c0 13.25 10.75 24 24 24s24-10.75 24-24V449.1c23.85 14.27 48.45 27.69 53.63 29.24 3.77 1.16 7.57 1.66 10.47 1.66 10.12 0 19.88-3.906 26.84-11 10.41-10.06 14.19-25.5 9.938-38.25-.25-.875-.844-2.688-1.781-5.281 63.94-4.875 111.3-30.47 111.4-30.53C536.1 388.3 544 375.3 544 360.9c0-14.2-7.8-27.3-20.6-34zm-132.1 51.4c-5.344 0-10.47-.125-15.28-.25l-40.47-1s21 40.88 22.09 43.19c-11.78-6.656-26.38-15.22-40.72-24.41L312 392.6v-81.5c0-12.4-10.7-23.1-24-23.1s-24 10.7-24 23.1v80.62l-4.938 3.16c-14.47 9.281-29.25 17.91-40.78 24.47 1.094-2.281 2.281-4.719 3.594-7.219L240.5 377s-50.5 1.25-55.84 1.25c-37.53 0-70.38-9.719-90.16-17.28 10.94-4.094 25.88-8.906 43.38-12.38l40.41-8-26.89-31.19c-39.6-46-59.27-97.6-67.21-122.9 24.72 7.562 74.59 26.09 119.8 62.69l39.09 31.62V226.6c0-76.41 29.94-141.5 44.88-169.3 15.03 27.97 44.88 93 44.88 169.3v54.22l39.09-31.62c46.09-37.28 96.34-55.69 119.9-62.94C484 211.5 464.3 263.2 424.6 309.4l-26.88 31.19 40.41 8c17.53 3.5 32.47 8.281 43.41 12.41-19.74 7.5-52.64 17.3-90.24 17.3z"/></svg>