<svg xmlns="http://www.w3.org/2000/svg" viewBox="0 0 576 512"><!--! Font Awesome Pro 6.1.1 by @fontawesome - https://fontawesome.com License - https://fontawesome.com/license (Commercial License) Copyright 2022 Fonticons, Inc.--><path d="M553.8 301 420.7 121.5c-37-49.59-107.2-59.79-156.7-22.79-19.9 14.09-33 33.09-40 53.89l-.1-8.7C223.9 82.07 173.8 32 111.1 32S-.002 82.08-.002 143.1V368c0 61.88 50.13 112 112 112s112-50.13 112-112L224 223c3.688 11.31 8.75 22.34 16.26 32.4l133.1 179.5c37 49.59 107.2 59.79 156.7 22.79C580.6 420.7 590.8 350.6 553.8 301zM176 256H48V144c0-84.75 128-84.75 128 0v112zm169.7 60.5-67-89.8c-50.68-67.92 51.91-144.5 102.6-76.55l67 89.75-102.6 76.6z"/></svg>