<svg xmlns="http://www.w3.org/2000/svg" viewBox="0 0 448 512"><!--! Font Awesome Pro 6.1.1 by @fontawesome - https://fontawesome.com License - https://fontawesome.com/license (Commercial License) Copyright 2022 Fonticons, Inc.--><path d="M248 104c0 13.3-10.7 24-24 24s-24-10.7-24-24V24c0-13.25 10.7-24 24-24s24 10.75 24 24v80zM104 360c0-13.3 10.7-24 24-24s24 10.7 24 24-10.7 24-24 24-24-10.7-24-24zm240 0c0 13.3-10.7 24-24 24s-24-10.7-24-24 10.7-24 24-24 24 10.7 24 24zM86.02 207.8C96.26 179.1 123.4 160 153.8 160h140.4c30.4 0 57.5 19.1 66.9 47.8l29.5 80.1c.2.5.3 1 .5 1.4 24.7 17.4 40.9 46.2 40.9 78.7v120c0 13.3-10.7 24-24 24s-24-10.7-24-24v-40H64v40c0 13.3-10.75 24-24 24s-24-10.7-24-24V368c0-32.5 16.18-61.3 40.94-78.7.14-.4.29-.9.46-1.4l28.62-80.1zm67.78.2c-10.1 0-19.2 6.4-22.6 15.9L114.1 272h219.8l-17.1-48.1c-3.4-9.5-12.5-15.9-22.6-15.9H153.8zM384 368c0-26.5-21.5-48-48-48H112c-26.51 0-48 21.5-48 48v32h320v-32zM7.029 39.03c9.371-9.37 24.571-9.37 33.941 0l48 48c9.37 9.37 9.37 24.57 0 33.07-9.37 10.2-24.57 10.2-33.94 0L7.029 72.97c-9.372-9.37-9.372-24.57 0-33.94zm399.971 0c9.4-9.37 24.6-9.37 33.1 0 10.2 9.37 10.2 24.57 0 33.94l-48 47.13c-8.5 10.2-23.7 10.2-33.1 0-9.3-8.5-9.3-23.7 0-33.07l48-48z"/></svg>