<svg xmlns="http://www.w3.org/2000/svg" viewBox="0 0 448 512"><!--! Font Awesome Pro 6.1.1 by @fontawesome - https://fontawesome.com License - https://fontawesome.com/license (Commercial License) Copyright 2022 Fonticons, Inc.--><path d="M176 80c0-32 48-80 48-80s48 48 48 80-21.5 48-48 48-48-21.5-48-48zm-72 280c0-13.3 10.7-24 24-24s24 10.7 24 24-10.7 24-24 24-24-10.7-24-24zm240 0c0 13.3-10.7 24-24 24s-24-10.7-24-24 10.7-24 24-24 24 10.7 24 24zM86.02 207.8C96.26 179.1 123.4 160 153.8 160h140.4c30.4 0 57.5 19.1 66.9 47.8l29.5 80.1c.2.5.3 1 .5 1.4 24.7 17.4 40.9 46.2 40.9 78.7v120c0 13.3-10.7 24-24 24s-24-10.7-24-24v-40H64v40c0 13.3-10.75 24-24 24s-24-10.7-24-24V368c0-32.5 16.18-61.3 40.94-78.7.14-.4.29-.9.46-1.4l28.62-80.1zm67.78.2c-10.1 0-19.2 6.4-22.6 15.9L114.1 272h219.8l-17.1-48.1c-3.4-9.5-12.5-15.9-22.6-15.9H153.8zM384 368c0-26.5-21.5-48-48-48H112c-26.51 0-48 21.5-48 48v32h320v-32zM112 80c0 32-21.49 48-48 48s-48-21.5-48-48C16 48 64 0 64 0s48 48 48 80zm224 0c0-32 48-80 48-80s48 48 48 80-21.5 48-48 48-48-21.5-48-48z"/></svg>