<svg xmlns="http://www.w3.org/2000/svg" viewBox="0 0 640 512"><!--! Font Awesome Pro 6.1.1 by @fontawesome - https://fontawesome.com License - https://fontawesome.com/license (Commercial License) Copyright 2022 Fonticons, Inc.--><path d="M331.2 100.6c5.3 5.2 6.3 13.3 2.5 19.6L300.3 176H352c7.1 0 13.4 4.7 15.4 11.6 2 6.9-.9 14.2-6.9 18l-128 80c-6.3 3.9-14.4 3-19.7-2.2-5.3-5.2-6.3-13.3-2.5-19.6l33.4-55.8H192c-7.1 0-13.4-4.7-15.4-11.6-1.9-6.8.9-14.2 6.9-18l128-79.97c6.3-3.92 14.4-3.03 19.7 2.17zM46.82 194.3l42.8-106.98C102.1 53.91 135.3 32 171.3 32h181.9c25.9 0 52.1 12.15 67.9 33.03l102 127.57c66 6 116.9 60.7 116.9 127.4v48c0 17.7-14.3 32-32 32h-33.3c-7.6 45.4-47.1 80-94.7 80s-87.1-34.6-94.7-80H254.7c-7.6 45.4-47.1 80-94.7 80s-87.06-34.6-94.67-80H32c-17.67 0-32-14.3-32-32V256c0-29.4 19.82-54.2 46.82-61.7zm52.63-2.3H128v48H64c-8.84 0-16 7.2-16 16v96h21.46c13.18-37.3 48.74-64 90.54-64 41.8 0 77.4 26.7 90.5 64h139c13.1-37.3 48.7-64 90.5-64s77.4 26.7 90.5 64H592v-32c0-44.2-35.8-80-80-80h-96v-48h46.1l-77.6-96.99A40.064 40.064 0 0 0 353.2 80H171.3c-17.2 0-31 9.96-37.1 25.1L99.45 192zM434.7 400c6.6 18.6 24.4 32 45.3 32s38.7-13.4 45.3-32c1.7-5.9 2.7-10.4 2.7-16s-1-11-2.7-16c-6.6-18.6-24.4-32-45.3-32s-38.7 13.4-45.3 32c-2.6 5-2.7 10.4-2.7 16s.1 10.1 2.7 16zm-229.4-32c-6.6-18.6-24.4-32-45.3-32s-38.7 13.4-45.3 32c-2.6 5-2.7 10.4-2.7 16s.1 10.1 2.7 16c6.6 18.6 24.4 32 45.3 32s38.7-13.4 45.3-32c1.7-5.9 2.7-10.4 2.7-16s-1-11-2.7-16z"/></svg>