<svg xmlns="http://www.w3.org/2000/svg" viewBox="0 0 640 512"><!--! Font Awesome Pro 6.1.1 by @fontawesome - https://fontawesome.com License - https://fontawesome.com/license (Commercial License) Copyright 2022 Fonticons, Inc.--><path d="M48 256v96c0 13.3 10.75 24 24 24h120v48H80v32c0 13.3-10.75 24-24 24s-24-10.7-24-24v-44.1C12.7 398.1 0 376.1 0 352V118.2c0-22.02 4.597-51.92 28.76-71.39C58.65 22.73 111.5 0 192 0c84.9 0 135.8 22.09 164.5 46.62 23.4 20 27.5 49.87 27.5 71.58v9.8h-35.8c-4.1 0-8.2.3-12.2.8v-.8H216v80h36.9l-13.7 48H48zM321.4 80C302.1 65.3 263.5 48 192 48 126.6 48 86.16 64.83 64.46 80H321.4zM48 128v80h120v-80H48zm32 184c0-13.3 10.75-24 24-24 13.3 0 24 10.7 24 24s-10.7 24-24 24c-13.25 0-24-10.7-24-24zm232 48c0-13.3 10.7-24 24-24s24 10.7 24 24-10.7 24-24 24-24-10.7-24-24zm240 0c0 13.3-10.7 24-24 24s-24-10.7-24-24 10.7-24 24-24 24 10.7 24 24zM294 207.8c10.3-28.7 37.4-47.8 67.8-47.8h140.4c30.4 0 57.5 19.1 66.9 47.8l29.5 80.1c.2.5.3 1 .5 1.4 24.7 17.4 40.9 46.2 40.9 78.7v120c0 13.3-10.7 24-24 24s-24-10.7-24-24v-40H272v40c0 13.3-10.7 24-24 24s-24-10.7-24-24V368c0-32.5 16.2-61.3 40.9-78.7.2-.4.3-.9.5-1.4l28.6-80.1zm67.8.2c-10.1 0-19.2 6.4-22.6 15.9L322.1 272h219.8l-17.1-48.1c-3.4-9.5-12.5-15.9-22.6-15.9H361.8zM544 320H320c-26.5 0-48 21.5-48 48v32h320v-32c0-26.5-21.5-48-48-48z"/></svg>