<svg xmlns="http://www.w3.org/2000/svg" viewBox="0 0 640 512"><!--! Font Awesome Pro 6.1.1 by @fontawesome - https://fontawesome.com License - https://fontawesome.com/license (Commercial License) Copyright 2022 Fonticons, Inc.--><path d="M288 48H64c-8.84 0-16 7.16-16 16v352c0 8.8 7.16 16 16 16h128v48H64c-35.35 0-64-28.7-64-64V64C0 28.65 28.65 0 64 0h224c35.3 0 64 28.65 64 64v64.5c-17.5 1.6-33.9 7.6-48 17.1V63.1c0-7.94-7.2-16-16-16v.9zm-45.1 207.7c-1.8.2-2.8.3-2.9.3h-32c-8.8 0-16-7.2-16-16v-32c0-8.8 7.2-16 16-16h32c8.8 0 16 7.2 16 16v11.1l-13.1 36.6zM96 112c0-8.8 7.2-16 16-16h32c8.8 0 16 7.2 16 16v32c0 8.8-7.2 16-16 16h-32c-8.8 0-16-7.2-16-16v-32zm144-16c8.8 0 16 7.2 16 16v32c0 8.8-7.2 16-16 16h-32c-8.8 0-16-7.2-16-16v-32c0-8.8 7.2-16 16-16h32zM96 208c0-8.8 7.2-16 16-16h32c8.8 0 16 7.2 16 16v32c0 8.8-7.2 16-16 16h-32c-8.8 0-16-7.2-16-16v-32zm0 96c0-8.8 7.2-16 16-16h32c8.8 0 16 7.2 16 16v32c0 8.8-7.2 16-16 16h-32c-8.8 0-16-7.2-16-16v-32zm216 56c0-13.3 10.7-24 24-24s24 10.7 24 24-10.7 24-24 24-24-10.7-24-24zm240 0c0 13.3-10.7 24-24 24s-24-10.7-24-24 10.7-24 24-24 24 10.7 24 24zM294 207.8c10.3-28.7 37.4-47.8 67.8-47.8h140.4c30.4 0 57.5 19.1 66.9 47.8l29.5 80.1c.2.5.3 1 .5 1.4 24.7 17.4 40.9 46.2 40.9 78.7v120c0 13.3-10.7 24-24 24s-24-10.7-24-24v-40H272v40c0 13.3-10.7 24-24 24s-24-10.7-24-24V368c0-32.5 16.2-61.3 40.9-78.7.2-.4.3-.9.5-1.4l28.6-80.1zm67.8.2c-10.1 0-19.2 6.4-22.6 15.9L322.1 272h219.8l-17.1-48.1c-3.4-9.5-12.5-15.9-22.6-15.9H361.8zM544 320H320c-26.5 0-48 21.5-48 48v32h320v-32c0-26.5-21.5-48-48-48z"/></svg>