<svg xmlns="http://www.w3.org/2000/svg" viewBox="0 0 640 512"><!--! Font Awesome Pro 6.1.1 by @fontawesome - https://fontawesome.com License - https://fontawesome.com/license (Commercial License) Copyright 2022 Fonticons, Inc.--><path d="m227.3 77.46 63.1-11.82c1.1-.19 2.1-.32 3.1-.38-3.6 4.08-7 8.43-10.1 13.03L254 121.3l-35.2 6.6c-10.3 1.9-20.7-3.1-25.6-12.3l-18.1-32.42-16.3 32.42c-4.9 9.2-15.3 14.2-25.6 12.3l-36.02-6.8 14.62 33.7c4.1 9.6 1.6 20.8-6.4 27.7l-27.69 23.9 35.39 8.7c10.1 3.6 17.3 12.6 17.7 23.1l1.5 36.6 29.5-21.7c1.8-1.3 3.9-2.4 6-3.2l-19.5 72.7-24 17.7c-7.2 5.2-16.7 6.1-24.66 2.3-8-3.9-13.22-11.8-13.57-20.7l-2.52-64.2-61.99-17.6c-8.58-1.4-15.172-8.3-17.148-16.9-1.976-8.7.99-17.7 7.708-23.5l48.59-42-25.56-58.91a23.98 23.98 0 0 1 3.25-24.52 23.987 23.987 0 0 1 23.18-8.63l63.12 11.82 30.1-56.71C158.1 12.9 167.1 8 176 8c8.9 0 17 4.9 21.2 12.75l30.1 56.71zM548.9 304.1c14.6 3 23.3 18.9 19.4 33.5-4 14.6-19 23.3-33.6 18.5-14.6-3.1-23.2-18.1-19.3-32.7 3.9-14.6 18.9-23.2 33.5-19.3zm-252.1-10.9c-14.6-3.9-23.3-18.9-19.4-33.5 3.9-14.6 18.9-23.3 33.5-19.4 14.6 3.9 23.3 18.9 19.4 33.5-3.9 14.6-18.9 23.3-33.5 19.4zm317.1-112.7 7.2 96.4c15.1 22.3 20.7 50.6 13.2 78.6l-37.1 138.6c-3 11-15.1 17.5-25.2 14.5-10.9-2.9-17.4-14.1-14.5-25.1l12.4-46.3-343.7-92.1-12.4 46.3c-3 11-14.2 17.5-25.2 14.5-10.9-3.8-17.4-14.2-14.5-25.1l37.2-138.7c7.4-27.9 26.5-49.7 49.8-61.4l55.3-79.9c21.1-30.87 59.4-45.08 95.5-35.4l137 36.7c36.1 9.7 62.2 41.1 65 78.4zm-214.4-68.7c-16.4-4.4-33.8 2-43.4 16.1l-31 45.4c1.2.3 2.5.6 3.7 1l237.6 63.6c1.3.4 2.5.7 3.8 1.1l-4.2-54.9c-1.2-16.9-13.1-31.2-29.5-35.6l-137-36.7zM554 284.3l-237.6-63.7c-25.6-6.8-51.9 7.5-58.8 34l-12.3 46 330.3 88.5 12.3-46c6.9-25.6-8.3-51.9-33.9-58.8z"/></svg>