<svg xmlns="http://www.w3.org/2000/svg" viewBox="0 0 640 512"><!--! Font Awesome Pro 6.1.1 by @fontawesome - https://fontawesome.com License - https://fontawesome.com/license (Commercial License) Copyright 2022 Fonticons, Inc.--><path d="m48.1 188.8 34.25-97.87C94.7 55.63 128 32 165.4 32h181.2c36.5 0 70.7 23.63 83.1 58.93l34.2 97.87c2.6 1.5 5.2 3.1 7.6 4.9-28.3 3.9-54.4 14.6-76.7 30.3H96c-26.51 0-48 21.5-48 48v80h272.7c-.5 5.3-.7 10.6-.7 16 0 10.9.1 21.6 2.9 32H48v56c0 13.3-10.75 24-24 24S0 469.3 0 456V272c0-35.6 19.35-66.6 48.1-83.2zm55.3-12.8h305.2l-24.3-69.2C378.7 90.74 363.6 80 346.6 80H165.4c-17 0-32.1 10.74-37.7 26.8L103.4 176zM80 288c0-17.7 14.33-32 32-32 17.7 0 32 14.3 32 32s-14.3 32-32 32c-17.67 0-32-14.3-32-32zm272 80c0-79.5 64.5-144 144-144s144 64.5 144 144-64.5 144-144 144-144-64.5-144-144zm176.8-81.6-96 72c-4.1 3.1-6.7 8.5-4.2 13.4 1.6 4.9 6.2 8.2 11.4 8.2h35.6l-30.1 54.2c-2.7 4.9-1.7 11.1 2.6 14.8 4.3 3.8 10.6 3.1 15.1.6l96-72c4.1-3.1 5.8-8.5 4.2-13.4-1.6-4.9-6.2-8.2-11.4-8.2h-35.6l30.1-54.2c2.7-4.9 1.7-11.1-2.6-15.7-4.3-2.9-10.6-3.1-15.1.3z"/></svg>