<svg xmlns="http://www.w3.org/2000/svg" viewBox="0 0 512 512"><!--! Font Awesome Pro 6.1.1 by @fontawesome - https://fontawesome.com License - https://fontawesome.com/license (Commercial License) Copyright 2022 Fonticons, Inc.--><path d="M165.4 32h181.2c36.5 0 70.7 23.63 83.1 58.93l34.2 97.87c28.7 16.6 48.1 47.6 48.1 83.2v64c0 23.7-12.9 44.4-32 55.4V456c0 13.3-10.7 24-24 24s-24-10.7-24-24v-56H80v56c0 13.3-10.75 24-24 24s-24-10.7-24-24v-64.6c-19.13-11-32-31.7-32-55.4v-64c0-35.6 19.35-66.6 48.1-83.2l34.25-97.87C94.7 55.63 128 32 165.4 32zm0 48c-17 0-32.1 10.74-37.7 26.8L103.4 176h305.2l-24.3-69.2C378.7 90.74 363.6 80 346.6 80H165.4zM50.73 256H104c13.3 0 24 10.7 24 24s-10.7 24-24 24H48v32c0 8.8 7.16 16 16 16h128v-32c0-17.7 14.3-32 32-32h64c17.7 0 32 14.3 32 32v32h128c8.8 0 16-7.2 16-16v-32h-56c-13.3 0-24-10.7-24-24s10.7-24 24-24h53.3c-6.6-18.6-24.4-32-45.3-32H96c-20.9 0-38.68 13.4-45.27 32z"/></svg>