<svg xmlns="http://www.w3.org/2000/svg" viewBox="0 0 640 512"><!--! Font Awesome Pro 6.1.1 by @fontawesome - https://fontawesome.com License - https://fontawesome.com/license (Commercial License) Copyright 2022 Fonticons, Inc.--><path d="M172.2 299.9c4.4 16.4-5.3 33.3-21.8 37.7-17.3 3.5-33.3-5.4-37.7-21.8-4.4-16.4 5.4-33.3 21.8-37.7 16.4-4.4 33.3 5.3 37.7 21.8zm208.2-55.8c-4.4-16.5 5.4-33.3 21.8-37.7 16.4-5.3 33.3 5.3 37.7 21.7 4.4 16.5-5.3 33.3-21.8 37.7-16.4 4.4-33.3-5.3-37.7-21.7zM129.8 55.25 294.9 11c35.2-9.674 74.4 4.53 95.5 35.43l57 83.67c30.2 9.6 55 33 63.8 66.7l44.9 167.6c3.3 12.3-4 25-16.3 28.3-12.3 2.4-25-4.1-28.3-16.4l-13.9-52-386.7 103.6 13.9 52c3.3 12.4-4 25-16.3 28.3-12.34 3.3-25.01-4-28.31-16.3l-44.9-167.6c-8.8-32.8.55-66.2 21.91-89.6l7.58-101c2.79-37.32 28.85-68.77 65.02-78.45zm12.4 46.35c-16.4 4.4-28.3 18.7-29.6 35.7l-5.1 68.3 281.8-75.5-38.6-56.63c-9.6-14.04-27-20.5-43.4-16.1L142.2 101.6zM81.66 311.9l18.54 69.2 383.2-102.7-18.5-69.2c-6.9-25.6-33.2-40.8-58.8-33.9l-290.5 77.8c-25.61 6.9-40.8 33.2-33.94 58.8zM436.9 512c-19.5 0-34.7-17.7-25.8-35.9 18.6-35.3 56.3-60.1 99.8-60.1 43.4 0 81.1 24.8 99.7 60.1 8.9 18.2-6.3 35.9-25.8 35.9H436.9z"/></svg>