<svg xmlns="http://www.w3.org/2000/svg" viewBox="0 0 512 512"><!--! Font Awesome Pro 6.1.1 by @fontawesome - https://fontawesome.com License - https://fontawesome.com/license (Commercial License) Copyright 2022 Fonticons, Inc.--><path d="M256 48C141.1 48 48 141.1 48 256v232c0 13.3-10.75 24-24 24S0 501.3 0 488V256C0 114.6 114.6 0 256 0s256 114.6 256 256v232c0 13.3-10.7 24-24 24s-24-10.7-24-24V256c0-114.9-93.1-208-208-208zm-48 352c0 13.3-10.7 24-24 24s-24-10.7-24-24 10.7-24 24-24 24 10.7 24 24zm96 0c0-13.3 10.7-24 24-24s24 10.7 24 24-10.7 24-24 24-24-10.7-24-24zm-181.3-68 22.4-69.3c7.5-23.1 29-38.7 53.3-38.7h115.2c24.3 0 45.8 15.6 53.3 38.7l22.4 69.3c16.2 11.6 26.7 30.6 26.7 52v104c0 13.3-10.7 24-24 24s-24-10.7-24-24v-8H144v8c0 13.3-10.7 24-24 24s-24-10.7-24-24V384c0-21.4 10.5-40.4 26.7-52zm54.3-12h157.1l-12.9-42.5c-1-3.3-4.1-5.5-7.6-5.5H198.4c-3.5 0-6.6 2.2-7.6 5.5L177 320zm-33 112h224v-48c0-8.8-7.2-16-16-16H160c-8.8 0-16 7.2-16 16v48z"/></svg>