<svg xmlns="http://www.w3.org/2000/svg" viewBox="0 0 640 512"><!--! Font Awesome Pro 6.1.1 by @fontawesome - https://fontawesome.com License - https://fontawesome.com/license (Commercial License) Copyright 2022 Fonticons, Inc.--><path d="M640 320v48c0 17.7-14.3 32-32 32h-33.3c-7.6 45.4-47.1 80-94.7 80s-87.1-34.6-94.7-80H254.7c-7.6 45.4-47.1 80-94.7 80s-87.06-34.6-94.67-80H32c-17.67 0-32-14.3-32-32V256c0-29.4 19.82-54.2 46.82-61.7l42.8-106.98C102.1 53.91 135.3 32 171.3 32h181.9c25.9 0 52.1 12.15 67.9 33.03l102 127.57c66 6 116.9 60.7 116.9 127.4zM171.3 80c-17.2 0-31 9.96-37.1 25.1L99.45 192H224V80h-52.7zM272 192h190.1l-77.6-96.99A40.064 40.064 0 0 0 353.2 80h-82.1l.9 112zm253.3 208c1.7-5.9 2.7-10.4 2.7-16s-1-11-2.7-16c-6.6-18.6-24.4-32-45.3-32s-38.7 13.4-45.3 32c-2.6 5-2.7 10.4-2.7 16s.1 10.1 2.7 16c6.6 18.6 24.4 32 45.3 32s38.7-13.4 45.3-32zm45.2-48H592v-32c0-44.2-35.8-80-80-80H64c-8.84 0-16 7.2-16 16v96h21.46c13.18-37.3 48.74-64 90.54-64 41.8 0 77.4 26.7 90.5 64h139c13.1-37.3 48.7-64 90.5-64s77.4 26.7 90.5 64zm-365.2 48c1.7-5.9 2.7-10.4 2.7-16s-1-11-2.7-16c-6.6-18.6-24.4-32-45.3-32s-38.7 13.4-45.3 32c-2.6 5-2.7 10.4-2.7 16s.1 10.1 2.7 16c6.6 18.6 24.4 32 45.3 32s38.7-13.4 45.3-32z"/></svg>