<svg xmlns="http://www.w3.org/2000/svg" viewBox="0 0 576 512"><!--! Font Awesome Pro 6.1.1 by @fontawesome - https://fontawesome.com License - https://fontawesome.com/license (Commercial License) Copyright 2022 Fonticons, Inc.--><path d="M534.5 104c10.8 0 17.6 10.6 12.6 19.6-3.6 5.5-7.8 10.5-12.6 14.9-4.2 3.9-8.8 7.4-13.8 10.4-1.9.2-3.8 2.1-5.8 3.1-10.5 5.1-22.4 8-34.9 8-29.1 0-54.5-15.5-68.5-38.7-3.3-5.5-9-9.3-15.3-9.3H179.8c-6.3 0-12 3.8-15.3 9.3-14 23.2-39.4 38.7-68.5 38.7a80.01 80.01 0 0 1-34.91-8c-1.99-1-3.93-2.9-5.82-3.1-4.98-3-9.61-6.5-13.81-10.4a78.3 78.3 0 0 1-12.52-14.9c-5.9-9 1.71-19.6 12.52-19.6H72l.51-.9c.73 0 1.44.8 2.15.8C86.66 102.5 96 92.36 96 80s-9.34-22.53-21.34-23.85c-.71-.08-1.42-.13-2.15-.14L72 56H41.46c-10.81 0-18.42-10.6-12.52-19.65a80.724 80.724 0 0 1 12.52-14.88A79.986 79.986 0 0 1 61.09 8C71.64 2.875 83.48 0 96 0c29.1 0 54.5 15.51 68.5 38.71 3.3 5.44 9 9.29 15.3 9.29h216.4c6.3 0 12-3.85 15.3-9.29C425.5 15.51 450.9 0 480 0c12.5 0 24.4 2.875 34.9 8 2 .965 3.9 2.01 5.8 3.13 5 2.95 9.6 6.42 13.8 10.34 4.8 4.43 9 9.43 12.6 14.88 5 9.05-1.8 19.65-12.6 19.65H504l-.5.01c-.7.01-1.5.06-2.2.14C489.3 57.47 480 67.64 480 80c0 12.36 9.3 22.5 21.3 23.9.7 0 1.5-.8 2.2-.8l.5.9h30.5zM168 360c0-13.3 10.7-24 24-24s24 10.7 24 24-10.7 24-24 24-24-10.7-24-24zm240 0c0 13.3-10.7 24-24 24s-24-10.7-24-24 10.7-24 24-24 24 10.7 24 24zM150 207.8c10.3-28.7 37.4-47.8 67.8-47.8h140.4c30.4 0 57.5 19.1 66.9 47.8l29.5 80.1c.2.5.3 1 .5 1.4 24.7 17.4 40.9 46.2 40.9 78.7v120c0 13.3-10.7 24-24 24s-24-10.7-24-24v-40H128v40c0 13.3-10.7 24-24 24-13.25 0-24-10.7-24-24V368c0-32.5 16.18-61.3 40.9-78.7.2-.4.3-.9.5-1.4l28.6-80.1zm67.8.2c-10.1 0-19.2 6.4-22.6 15.9L178.1 272h219.8l-17.1-48.1c-3.4-9.5-12.5-15.9-22.6-15.9H217.8zM400 320H176c-26.5 0-48 21.5-48 48v32h320v-32c0-26.5-21.5-48-48-48z"/></svg>