<svg xmlns="http://www.w3.org/2000/svg" viewBox="0 0 640 512"><!--! Font Awesome Pro 6.1.1 by @fontawesome - https://fontawesome.com License - https://fontawesome.com/license (Commercial License) Copyright 2022 Fonticons, Inc.--><path d="M627.4 162.9c11.7 6.3 16 20.9 9.7 32.5-6.3 11.7-20.9 16-32.5 9.7L319.1 51.28 35.41 205.1c-11.66 6.3-26.22 2-32.523-9.7-6.303-11.6-1.96-26.2 9.703-32.5L308.6 2.887c7.1-3.85 15.7-3.85 22.8 0l296 160.013zM200 360c0-13.3 10.7-24 24-24s24 10.7 24 24-10.7 24-24 24-24-10.7-24-24zm240 0c0 13.3-10.7 24-24 24s-24-10.7-24-24 10.7-24 24-24 24 10.7 24 24zM182 207.8c10.3-28.7 37.4-47.8 67.8-47.8h140.4c30.4 0 57.5 19.1 66.9 47.8l29.5 80.1c.2.5.3 1 .5 1.4 24.7 17.4 40.9 46.2 40.9 78.7v120c0 13.3-10.7 24-24 24s-24-10.7-24-24v-40H160v40c0 13.3-10.7 24-24 24s-24-10.7-24-24V368c0-32.5 16.2-61.3 40.9-78.7.2-.4.3-.9.5-1.4l28.6-80.1zm67.8.2c-10.1 0-19.2 6.4-22.6 15.9L210.1 272h219.8l-17.1-48.1c-3.4-9.5-12.5-15.9-22.6-15.9H249.8zM432 320H208c-26.5 0-48 21.5-48 48v32h320v-32c0-26.5-21.5-48-48-48z"/></svg>