<svg xmlns="http://www.w3.org/2000/svg" viewBox="0 0 640 512"><!--! Font Awesome Pro 6.1.1 by @fontawesome - https://fontawesome.com License - https://fontawesome.com/license (Commercial License) Copyright 2022 Fonticons, Inc.--><path d="M256 128c17.7 0 32 14.3 32 32v64c0 17.7-14.3 32-32 32H128c-17.7 0-32-14.3-32-32v-64c0-17.7 14.3-32 32-32h128zM0 336V112c0-44.18 35.82-80 80-80h336c88.4 0 160 71.6 160 160v176h40c13.3 0 24 10.7 24 24s-10.7 24-24 24H288c0 53-43 96-96 96-53.9 0-96-43-96-96H80c-44.18 0-80-35.8-80-80zM416 80H80c-17.67 0-32 14.33-32 32v224c0 17.7 14.33 32 32 32h28.8c16.6-28.7 47.7-48 83.2-48s66.6 19.3 83.2 48H320V168c0-22.1 17.9-40 40-40h80c22.1 0 40 17.9 40 40v200h48V192c0-61.9-50.1-112-112-112zm16 144v-48h-64v192h64v-96h-16c-13.3 0-24-10.7-24-24s10.7-24 24-24h16zM192 464c26.5 0 48-21.5 48-48s-21.5-48-48-48-48 21.5-48 48 21.5 48 48 48z"/></svg>