<svg xmlns="http://www.w3.org/2000/svg" viewBox="0 0 640 512"><!--! Font Awesome Pro 6.1.1 by @fontawesome - https://fontawesome.com License - https://fontawesome.com/license (Commercial License) Copyright 2022 Fonticons, Inc.--><path d="M96 160c0-17.7 14.3-32 32-32h128c17.7 0 32 14.3 32 32v64c0 17.7-14.3 32-32 32H128c-17.7 0-32-14.3-32-32v-64zm320-32c17.7 0 32 14.3 32 32v64c0 17.7-14.3 32-32 32h-64c-17.7 0-32-14.3-32-32v-64c0-17.7 14.3-32 32-32h64zM96 416H80c-44.18 0-80-35.8-80-80V112c0-44.18 35.82-80 80-80h336c88.4 0 160 71.6 160 160v176h40c13.3 0 24 10.7 24 24s-10.7 24-24 24H288c0 53-43 96-96 96-53.9 0-96-43-96-96zM48 112v224c0 17.7 14.33 32 32 32h28.8c16.6-28.7 47.7-48 83.2-48s66.6 19.3 83.2 48H528V192c0-61.9-50.1-112-112-112H80c-17.67 0-32 14.33-32 32zm144 256c-26.5 0-48 21.5-48 48s21.5 48 48 48 48-21.5 48-48-21.5-48-48-48z"/></svg>