<svg xmlns="http://www.w3.org/2000/svg" viewBox="0 0 512 512"><!--! Font Awesome Pro 6.1.1 by @fontawesome - https://fontawesome.com License - https://fontawesome.com/license (Commercial License) Copyright 2022 Fonticons, Inc.--><path d="M369.7 142.3C392.4 94.77 380.6 38.38 334.3 0c-44.49 36.88-56.61 90.02-37.37 136.2-13.1-4.876-28.26-8.05-42.51-8.05-47.99 0-94.11 26.75-116.6 72.76L2.42 478.41c-2.999 6.252-3.287 13.9-.038 20.53A23.364 23.364 0 0 0 23.34 512c3.374 0 6.85-.775 10.35-2.401l277.5-135.5c24.1-12.25 46.43-32.63 59.55-59.63 15.75-32.13 16.89-67.64 6.142-98.89C422.8 234.3 475.3 221.8 512 177.7c-38.6-46.4-94.9-58.2-142.3-35.4zm-42 151.1c-8.124 16.5-20.1 29.51-37.49 37.51l-57.36 28.01-23.87-23.88c-9.373-9.377-24.62-9.377-33.87 0-9.373 9.377-9.373 24.63 0 33.88l12.12 12.25-110.4 54.01 96.11-196.9 33.99 34.76c4.749 4.751 10.75 7.002 16.1 7.002 6.249 0 12.25-2.251 16.1-7.002 9.373-9.377 9.373-24.63 0-33.88L199.3 198.3c14.9-13.8 34-22.1 55.1-22.1 12.37 0 24.37 2.751 35.74 8.252 19.5 9.627 34.24 26.26 41.37 46.89 6.99 20.458 5.69 42.558-3.81 62.058z"/></svg>