<svg xmlns="http://www.w3.org/2000/svg" viewBox="0 0 640 512"><!--! Font Awesome Pro 6.1.1 by @fontawesome - https://fontawesome.com License - https://fontawesome.com/license (Commercial License) Copyright 2022 Fonticons, Inc.--><path d="M70.02 47.78C80.26 19.13 107.4 0 137.8 0h140.4c30.4 0 57.5 19.13 66.9 47.78l29.5 80.12v-.8h-12.8c-28.9 0-56.7 12-75 32H96c-26.51 0-48 22.4-48 48v32h200.5l-10.6 30.7c-6.5 5.5-12.5 11.6-17.8 17.3H48V328c0 13.3-10.75 24-24 24S0 341.3 0 328V207.1c0-31.6 16.18-60.4 40.94-77.8.14-.4.29-.9.46-1.4l28.62-80.12zm67.78.22c-10.1 0-19.2 6.38-22.6 15.93L98.06 112H317.9l-17.1-48.07C297.4 54.38 288.3 48 278.2 48H137.8zM88 200c0-13.3 10.75-24 24-24 13.3 0 24 10.7 24 24s-10.7 24-24 24c-13.25 0-24-10.7-24-24zm224 160c0-13.3 10.7-24 24-24s24 10.7 24 24-10.7 24-24 24-24-10.7-24-24zm240 0c0 13.3-10.7 24-24 24s-24-10.7-24-24 10.7-24 24-24 24 10.7 24 24zM294 207.8c10.3-28.7 37.4-47.8 67.8-47.8h140.4c30.4 0 57.5 19.1 66.9 47.8l29.5 80.1c.2.5.3 1 .5 1.4 24.7 17.4 40.9 46.2 40.9 78.7v120c0 13.3-10.7 24-24 24s-24-10.7-24-24v-40H272v40c0 13.3-10.7 24-24 24s-24-10.7-24-24V368c0-32.5 16.2-61.3 40.9-78.7.2-.4.3-.9.5-1.4l28.6-80.1zm67.8.2c-10.1 0-19.2 6.4-22.6 15.9L322.1 272h219.8l-17.1-48.1c-3.4-9.5-12.5-15.9-22.6-15.9H361.8zM544 320H320c-26.5 0-48 21.5-48 48v32h320v-32c0-26.5-21.5-48-48-48z"/></svg>