<svg xmlns="http://www.w3.org/2000/svg" viewBox="0 0 576 512"><!--! Font Awesome Pro 6.1.1 by @fontawesome - https://fontawesome.com License - https://fontawesome.com/license (Commercial License) Copyright 2022 Fonticons, Inc.--><path d="M0 24C0 10.75 10.75 0 24 0h72c11.5 0 21.4 8.19 23.6 19.51l42 220.49h316l43.1-160H472c-13.3 0-24-10.75-24-24s10.7-24 24-24h80c7.5 0 14.5 3.47 19 9.4 4.6 5.93 6.1 13.63 4.2 20.84l-56 207.96c-2.8 10.5-12.3 17.8-23.2 17.8H170.7l9.2 48H488c13.3 0 24 10.7 24 24s-10.7 24-24 24H159.1c-10.6 0-20.5-8.2-22.7-19.5L76.14 48H24C10.75 48 0 37.25 0 24zm224 440c0 26.5-21.5 48-48 48s-48-21.5-48-48 21.5-48 48-48 48 21.5 48 48zm192 0c0-26.5 21.5-48 48-48s48 21.5 48 48-21.5 48-48 48-48-21.5-48-48zm-32-360c13.3 0 24 10.7 24 24s-10.7 24-24 24H256c-13.3 0-24-10.7-24-24s10.7-24 24-24h128z"/></svg>