<svg xmlns="http://www.w3.org/2000/svg" viewBox="0 0 640 512"><!--! Font Awesome Pro 6.1.1 by @fontawesome - https://fontawesome.com License - https://fontawesome.com/license (Commercial License) Copyright 2022 Fonticons, Inc.--><path d="M256 352h288c35.2 0 64-28.8 64-64V160c0-35.2-28.8-64-64-64h-48V64c0-35.35-28.65-64-64-64h-64c-35.35 0-64 28.65-64 64v32h-48c-35.2 0-64 28.8-64 64v128c0 35.2 28.8 64 64 64zm256-208h32c8.836 0 16 7.162 16 16v128c0 8.836-7.164 16-16 16h-32V144zM352 64c0-8.838 7.164-16 16-16h64c8.8 0 16 7.16 16 16v32h-96V64zm-16 80h128v160H336V144zm-96 16c0-8.838 7.164-16 16-16h32v160h-32c-8.8 0-16-7.2-16-16V160zm376 239.1H144V64c0-35.2-28.8-64-64-64H24C10.8 0 0 10.8 0 24s10.8 24 24 24h48c13.25 0 24 10.74 24 24v343.1c0 17.6 14.4 32 32 32l34.9.003C161.1 453 160 458.4 160 464c0 26.5 21.5 48 48 48s48-21.5 48-48c0-5.643-1.114-10.97-2.903-16h197.9c-1.797 5-2.897 10.4-2.897 16 0 26.51 21.48 48 47.99 48s48.01-21.49 48.01-48c0-5.643-1.1-10.97-2.889-16l74.789-.9c13.2 0 24-10.8 24-23.1 0-13.2-10.8-24.9-24-24.9z"/></svg>