<svg xmlns="http://www.w3.org/2000/svg" viewBox="0 0 576 512"><!--! Font Awesome Pro 6.1.1 by @fontawesome - https://fontawesome.com License - https://fontawesome.com/license (Commercial License) Copyright 2022 Fonticons, Inc.--><path d="M121.1 32H280v32.57c-16.7-2.39-34.3 2.75-47.2 15.43H131.1l30.5 160h314l45-160h-81.4c-12.9-12.68-30.5-17.82-47.2-15.43V32h149.8c20.3 0 36.5 20.25 30.8 40.66l-54 192.04c-3.9 13.8-16.5 23.3-30.8 23.3H170.7l9.2 48H488c13.3 0 24 10.7 24 24s-10.7 24-24 24H159.1c-10.6 0-20.5-8.2-22.7-19.5L76.14 48H24C10.75 48 0 37.25 0 24S10.75 0 24 0h72c11.5 0 21.4 8.19 23.6 19.51L121.1 32zm6.9 432c0-26.5 21.5-48 48-48s48 21.5 48 48-21.5 48-48 48-48-21.5-48-48zm384 0c0 26.5-21.5 48-48 48s-48-21.5-48-48 21.5-48 48-48 48 21.5 48 48zM360 126.1l23-23.1c9.4-9.34 24.6-9.34 33.1 0 10.2 9.4 10.2 24.6 0 33.1l-64 64c-8.5 10.2-23.7 10.2-33.1 0l-64-64c-9.3-8.5-9.3-23.7 0-33.1 9.4-9.34 24.6-9.34 33.1 0l23.9 23.1V24c0-13.25 10.7-24 24-24s24 10.75 24 24v102.1z"/></svg>