<svg xmlns="http://www.w3.org/2000/svg" viewBox="0 0 640 512"><!--! Font Awesome Pro 6.1.1 by @fontawesome - https://fontawesome.com License - https://fontawesome.com/license (Commercial License) Copyright 2022 Fonticons, Inc.--><path d="M616 399.1H144V64c0-35.2-28.8-64-64-64H24C10.8 0 0 10.8 0 24s10.8 24 24 24h48c13.25 0 24 10.74 24 24v343.1c0 17.6 14.4 32 32 32l34.92.003C161.1 453 160 458.4 160 464c0 26.5 21.5 48 48 48s48-21.5 48-48c0-5.643-1.128-10.97-2.917-16h197.9c-1.789 5.029-2.928 10.36-2.928 16 0 26.51 21.48 48 47.99 48s48.01-21.49 48.01-48c0-5.643-1.118-10.97-2.907-16l74.852-.9c13.2 0 24-10.8 24-23.1 0-13.2-10.8-24.9-24-24.9zM256 352h112c15.12 0 29.04-5.271 40-14.07 10.1 8.77 24.9 14.07 40 14.07h96c35.29 0 64-28.71 64-64v-48c0-30.63-21.63-56.3-50.42-62.55C559.2 171.9 560 166 560 160v-48c0-35.29-28.71-64-64-64h-48a63.641 63.641 0 0 0-30.35 7.662C405.9 41.23 388 32 368 32H256c-35.3 0-64 28.71-64 64v192c0 35.3 28.7 64 64 64zm176-240c0-8.8 7.2-16 16-16h48c8.8 0 16 7.2 16 16v48c0 8.822-7.178 16-16 16h-48c-8.822 0-16-7.178-16-16v-48zm0 128c0-8.8 7.2-16 16-16h96c8.822 0 16 7.178 16 16v48c0 8.822-7.178 16-16 16h-96c-8.822 0-16-7.178-16-16v-48zM240 96c0-8.822 7.178-16 16-16h112c8.8 0 16 7.18 16 16v192c0 8.822-7.178 16-16 16H256c-8.8 0-16-7.2-16-16V96z"/></svg>