<svg xmlns="http://www.w3.org/2000/svg" viewBox="0 0 576 512"><!--! Font Awesome Pro 6.1.1 by @fontawesome - https://fontawesome.com License - https://fontawesome.com/license (Commercial License) Copyright 2022 Fonticons, Inc.--><path d="m312 81.94-23.9 22.16c-8.5 10.2-23.7 10.2-33.1 0-9.3-8.5-9.3-23.7 0-33.07l64-64.001c9.4-9.372 24.6-9.372 33.1 0l64 64.001c10.2 9.37 10.2 24.57 0 33.07-8.5 10.2-23.7 10.2-33.1 0l-23-22.16V184c0 13.3-10.7 24-24 24s-24-10.7-24-24V81.94zm-82.4-36.37c-9.7 9.68-15.4 21.84-17.1 34.43h-81.4l30.5 160h314l45-160h-61.1c-1.7-12.59-7.4-24.75-17.1-34.43L428.9 32h112.9c20.3 0 36.5 20.25 30.8 40.66l-54 192.04c-3.9 13.8-16.5 23.3-30.8 23.3H170.7l9.2 48H488c13.3 0 24 10.7 24 24s-10.7 24-24 24H159.1c-10.6 0-20.5-8.2-22.7-19.5L76.14 48H24C10.75 48 0 37.26 0 24 0 10.75 10.75 0 24 0h72c11.5 0 21.4 8.19 23.6 19.51L121.1 32h122l-13.5 13.57zM128 464c0-26.5 21.5-48 48-48s48 21.5 48 48-21.5 48-48 48-48-21.5-48-48zm384 0c0 26.5-21.5 48-48 48s-48-21.5-48-48 21.5-48 48-48 48 21.5 48 48z"/></svg>