<svg xmlns="http://www.w3.org/2000/svg" viewBox="0 0 576 512"><!--! Font Awesome Pro 6.1.1 by @fontawesome - https://fontawesome.com License - https://fontawesome.com/license (Commercial License) Copyright 2022 Fonticons, Inc.--><path d="M352 384h112c17.62 0 32-14.38 32-32V240c0-17.62-14.38-32-32-32H352c-17.62 0-32 14.38-32 32v112c0 17.6 14.4 32 32 32zm16-128h80v80h-80v-80zM512 32H64C28.65 32 0 60.65 0 96v320c0 35.35 28.65 64 64 64h448c35.35 0 64-28.65 64-64V96c0-35.35-28.7-64-64-64zm16 384c0 8.822-7.178 16-16 16H64c-8.822 0-16-7.178-16-16V160h480v256zm-344-16c57.44 0 104-46.56 104-104s-46.6-104-104-104S80 238.6 80 296s46.6 104 104 104zm0-160c30.88 0 56 25.12 56 56s-25.1 56-56 56-56-25.1-56-56 25.1-56 56-56zm0 80c13.3 0 24-10.7 24-24 0-13.26-10.74-24-24-24-13.3 0-24 10.7-24 24s10.7 24 24 24z"/></svg>