<svg xmlns="http://www.w3.org/2000/svg" viewBox="0 0 576 512"><!--! Font Awesome Pro 6.1.1 by @fontawesome - https://fontawesome.com License - https://fontawesome.com/license (Commercial License) Copyright 2022 Fonticons, Inc.--><path d="M512 32H64C28.65 32 0 60.65 0 96v320c0 35.35 28.65 64 64 64h448c35.35 0 64-28.65 64-64V96c0-35.35-28.7-64-64-64zM157 432l19.3-48h223.5l19.21 48H157zm371-16c0 8.822-7.178 16-16 16h-43.99l2.268-.906-32-80C434.6 341.1 425.8 336 416 336H160c-9.812 0-18.62 5.969-22.28 15.09l-32 80 1.38.91H64c-8.822 0-16-7.178-16-16V96c0-8.822 7.178-16 16-16h448c8.822 0 16 7.178 16 16v320zM400 160H176c-35.35 0-64 28.65-64 64s28.65 64 64 64h224c35.35 0 64-28.65 64-64 0-35.3-28.7-64-64-64zm-224 80c-8.8 0-16-7.2-16-16s7.178-16 16-16 16 7.2 16 16-7.2 16-16 16zm162.3 0H237.7c1.4-5.1 2.3-10.4 2.3-16s-.9-10.9-2.3-16h100.5c-1.3 5.1-2.2 10.4-2.2 16s.9 10.9 2.3 16zm61.7 0c-8.8 0-16-7.2-16-16s7.178-16 16-16 16 7.2 16 16-7.2 16-16 16z"/></svg>