<svg xmlns="http://www.w3.org/2000/svg" viewBox="0 0 576 512"><!--! Font Awesome Pro 6.1.1 by @fontawesome - https://fontawesome.com License - https://fontawesome.com/license (Commercial License) Copyright 2022 Fonticons, Inc.--><path d="M184 384h208c48.6 0 88-39.4 88-88s-39.4-88-88-88H184c-48.6 0-88 39.4-88 88s39.4 88 88 88zm216-120c17.62 0 32 14.38 32 32s-14.38 32-32 32v-64zm-176-8h128v80H224v-80zm-48 8v64c-17.62 0-32-14.38-32-32s14.4-32 32-32zM512 32H64C28.65 32 0 60.65 0 96v320c0 35.35 28.65 64 64 64h448c35.35 0 64-28.65 64-64V96c0-35.35-28.7-64-64-64zm16 384c0 8.822-7.178 16-16 16H64c-8.822 0-16-7.178-16-16V160h480v256z"/></svg>