<svg xmlns="http://www.w3.org/2000/svg" viewBox="0 0 640 512"><!--! Font Awesome Pro 6.1.1 by @fontawesome - https://fontawesome.com License - https://fontawesome.com/license (Commercial License) Copyright 2022 Fonticons, Inc.--><path d="m202.6 85.36 16.6 39.65c.875 1.875 2.763 2.986 4.763 2.986s3.875-1.111 4.75-2.986L245.3 85.36l39.65-16.6c1.875-.875 2.992-2.756 2.992-4.756s-1.117-3.882-2.992-4.757L245.3 42.64 228.7 2.986C227.9 1.111 225.1 0 223.1 0s-3 1.111-3.9 2.986L202.6 42.64l-40.5 16.6c-1.875.875-2.98 2.757-2.98 4.757s1.98 3.883 2.98 4.763l40.5 16.6zM463.1 0c-97.25 0-176 78.75-176 176 0 1.375.125 2.625.25 3.875C221.6 190.6 165.2 226.4 127.1 277v-93c0-48.63-39.38-88-88-88-7.75 0-15.75 4.6-20 12.3a23.77 23.77 0 0 0 .37 24.1c4.38 7.4 12.5 11.9 21.13 11.6 22.38-.625 39.38 20.5 39.38 42.88v212.4c0 73.5 39.38 112.8 88 112.8h184c4.25 0 8.375-1.625 11.38-4.625S367.1 500.3 367.1 496c0-17.62-14.38-32-32-32h-15.3c-.125-7.25-.75-14.62-1.875-21.88l82-48.13V464c0 26.4 21.6 48 48 48h32c26.4 0 48-21.6 48-48V339.9c65.5-25.62 112-89.25 112-163.9C639.1 78.75 561.2 0 463.1 0zm0 48c26.12 0 51.63 8.125 73 23l-41 41h-64l-41-41c22.2-14.87 47.7-23 73-23zm56 128c0 8.9-6.3 16-16 16s-15.99-7.125-15.99-16 7.13-15.1 16-15.1c4.25 0 8.355 1.625 11.36 4.625S519.1 171.8 519.1 176zm-80 0c0 8.9-6.3 16-16 16s-15.99-7.125-15.99-16 7.13-15.1 16-15.1c4.25 0 8.355 1.625 11.36 4.625S439.1 171.8 439.1 176zM303.3 395.1c-12-25.38-30.5-47-53.38-63.13-7.5-5.25-18.12-2.25-22.5 5.75l-7.5 13.38c-4 7.125-2.5 16.5 4.125 21.38C253.3 393.9 270.1 427.8 271.7 464H167.1c-22.12 0-40-17.88-40-40 0-98.63 70.38-181 167.6-196.6 15.62 50.88 53.38 92 102.8 111.9l-94.2 55.8zM479.1 464h-32l-.015-98c0-5.375-1.375-10.5-4-15.25 12 1.5 24 1.625 36 .5L479.1 464zm-16-160c-70.63-.125-127.9-57.38-128-128 0-32.13 12.38-61.25 32-83.75V176c0 53 43 96 96 96s96.01-42.1 96.01-95.1l-.015-83.75c19.62 22.5 32 51.63 32 83.75.705 69.7-56.495 127-127.995 127.1z"/></svg>