<svg xmlns="http://www.w3.org/2000/svg" viewBox="0 0 448 512"><!--! Font Awesome Pro 6.1.1 by @fontawesome - https://fontawesome.com License - https://fontawesome.com/license (Commercial License) Copyright 2022 Fonticons, Inc.--><path d="M128 32c0-17.67 14.3-32 32-32s32 14.33 32 32-14.3 32-32 32-32-14.33-32-32zm96 48c0-26.51 21.5-48 48-48s48 21.49 48 48c0 26.5-21.5 48-48 48s-48-21.5-48-48zM24 208c-13.25 0-24-10.7-24-24s10.75-24 24-24h400c13.3 0 24 10.7 24 24s-10.7 24-24 24h-20.6c22.1 35.4 44.6 82.8 44.6 126.4 0 37.4-11.9 69.4-32 95.5V488c0 13.3-10.7 24-24 24s-24-10.7-24-24v-15c-40.4 25.5-91.8 39-144 39s-103.6-13.5-144-39v15c0 13.3-10.75 24-24 24s-24-10.7-24-24v-58.1c-20.07-26.1-32-58.1-32-95.5 0-43.6 22.46-91 44.64-126.4H24zm50.17 44.5C58.26 281.8 48 311.1 48 334.4c0 39.2 18.28 70 49.44 92.5C129.7 450.2 175.4 464 224 464c48.6 0 94.3-13.8 126.6-37.1 31.1-22.5 49.4-53.3 49.4-92.5 0-23.3-10.3-52.6-26.2-81.9-9.6-17.6-20.1-33.1-28.6-44.5H102.8c-8.53 11.4-19.02 26.9-28.63 44.5z"/></svg>