<svg xmlns="http://www.w3.org/2000/svg" viewBox="0 0 320 512"><!--! Font Awesome Pro 6.1.1 by @fontawesome - https://fontawesome.com License - https://fontawesome.com/license (Commercial License) Copyright 2022 Fonticons, Inc.--><path d="M184 0c13.3 0 24 10.75 24 24v48.47c37.9 2.57 72.1 15.5 101.9 35.93 10.8 7.7 13.3 22.6 5.7 33.5-7.7 10.8-23.5 13.3-33.5 5.7-24.4-17.3-54.9-27.6-89-27.6-82 0-145.1 62.2-145.1 136s63.1 136 145.1 136c34.1 0 64.6-10.3 89-27.6 10-7.6 25.8-5.1 33.5 5.7 7.6 10 5.1 25.8-5.7 33.5-29.8 20.4-64 32.5-101.9 35.9V488c0 13.3-10.7 24-24 24s-24-10.7-24-24v-50.8C69.99 422 0 347.7 0 256 0 164.3 69.99 89.99 160 74.83V24c0-13.25 10.7-24 24-24z"/></svg>