<svg xmlns="http://www.w3.org/2000/svg" viewBox="0 0 512 512"><!--! Font Awesome Pro 6.1.1 by @fontawesome - https://fontawesome.com License - https://fontawesome.com/license (Commercial License) Copyright 2022 Fonticons, Inc.--><path d="m256 53.46 44.1-46.199c6.9-6.227 15-8.692 24.3-6.442 8.4 2.249 14.9 8.86 17 17.281l15.9 62.5 62-17.53c8.4-2.36 17.4-.02 23.5 6.12 5.3 6.15 8.5 15.14 6.1 23.5l-17.5 62.01 62.5 15.9c8.4 2.1 15 8.6 17.3 17 2.2 8.4-1.1 16.5-6.5 23.4l-46.2 45 46.2 44.1c5.4 6.9 8.7 15 6.5 24.3-2.3 8.4-8.9 14.9-17.3 17l-62.5 15.9 17.5 62c2.4 8.4-.8 17.4-6.1 23.5-6.1 5.3-15.1 8.5-23.5 6.1l-62-17.5-15.9 62.5c-2.1 8.4-8.6 15-17 17.3-9.3 2.2-17.4-1.1-24.3-6.5L256 458.5l-45 46.2c-6.9 5.4-15 8.7-23.4 6.5-8.4-2.3-14.9-8.9-17-17.3l-15.9-62.5-62.01 17.5c-8.36 2.4-17.35-.8-23.5-6.1-6.14-6.1-8.48-15.1-6.12-23.5l17.53-62-62.5-15.9a23.864 23.864 0 0 1-17.281-17c-2.25-9.3.215-17.4 6.442-24.3L53.46 256 7.261 211c-6.227-6.9-8.692-15-6.442-23.4 2.249-8.4 8.86-14.9 17.281-17l62.5-15.9-17.53-62.01a24.028 24.028 0 0 1 6.12-23.5 24.028 24.028 0 0 1 23.5-6.12L154.7 80.6l15.9-62.5a23.865 23.865 0 0 1 17-17.282c8.4-2.249 16.5.216 23.4 6.443l45 46.199zm-77.3 68.74c-11.2 6.4-24.6 8.1-37 4.6l-20.8-5.9 5.9 20.8c3.5 12.4 1.8 25.8-4.6 37-6.5 10.4-18.1 19.4-29.81 22.6l-20.91 5.3 15.46 15c9.28 9 14.56 21.4 14.56 34.4 0 12.1-5.28 25.4-14.56 34.4l-15.46 15 20.91 5.3c11.71 3.2 23.31 11.4 29.81 22.6 6.4 11.2 8.1 24.6 4.6 37l-5.9 20.8 20.8-5.9c12.4-3.5 25.8-1.8 37 4.6 10.4 6.5 19.4 17.2 22.6 29.8l5.3 20.9 15-15.4c9-9.3 21.4-14.6 34.4-14.6 12.1 0 25.4 5.3 34.4 14.6l15 15.4 5.3-20.9c3.2-12.6 11.4-23.3 22.6-29.8 11.2-6.4 24.6-8.1 37-4.6l20.8 5.9-5.9-20.8c-3.5-12.4-1.8-25.8 4.6-37 6.5-11.3 17.3-19.4 29.8-22.6l20.9-5.3-15.4-15c-9.3-9-14.6-22.3-14.6-34.4 0-13 5.3-25.4 14.6-34.4l15.4-15-20.9-5.3c-12.5-3.2-23.3-12.2-29.8-22.6-6.4-11.2-8.1-24.6-4.6-37l5.9-20.8-20.8 5.9c-12.4 3.5-25.8 1.8-37-4.6-11.2-6.5-19.4-17.3-22.6-29.81l-5.3-20.91-15 15.46c-9 9.28-22.3 14.56-34.4 14.56-13 0-25.4-5.28-34.4-14.56l-15-15.46-5.3 20.91c-3.2 12.51-12.2 23.31-22.6 29.81z"/></svg>