<svg xmlns="http://www.w3.org/2000/svg" viewBox="0 0 448 512"><!--! Font Awesome Pro 6.1.1 by @fontawesome - https://fontawesome.com License - https://fontawesome.com/license (Commercial License) Copyright 2022 Fonticons, Inc.--><path d="M402.5 294.3c-7.375-22-27.5-36.75-50.5-37.88L351.1 64c0-35.38-28.62-64-64-64h-128c-34.5 0-63.12 28.62-63.12 64l-.03 192.4c-23 1.125-43.13 15.88-50.38 37.88l-10.75 32c-5.625 17.12-2.75 36 7.75 50.5S69.95 400 87.95 400h112v64H152c-13.3 0-24 10.7-24 24s10.7 24 24 24h144c13.25 0 24-10.75 24-24 0-13.26-10.75-24-24-24h-48.04v-64h112c17.1 0 35-8.75 45.5-23.25 10.5-14.62 13.38-33.38 7.625-50.5L402.5 294.3zM143.1 64c0-8.875 7.125-16 16-16h128c8.875 0 16 7.125 16 16v192h-160V64zm216 288H87.95c-5.375 0-9.375-5.25-7.625-10.5l10.75-32c1.005-3.4 4.125-5.5 7.505-5.5h250.8c3.375 0 6.5 2.25 7.625 5.5l10.63 32c1.665 5.3-2.335 10.5-8.535 10.5zM64 232v-80c0-13.2-10.75-24-24-24s-24 10.8-24 24v80c0 13.3 10.75 24 24 24s24-10.7 24-24zm344-104c-13.2 0-24 10.8-24 24v80c0 13.3 10.8 24 24 24s24-10.75 24-24v-80c0-13.2-10.7-24-24-24z"/></svg>