<svg xmlns="http://www.w3.org/2000/svg" viewBox="0 0 448 512"><!--! Font Awesome Pro 6.1.1 by @fontawesome - https://fontawesome.com License - https://fontawesome.com/license (Commercial License) Copyright 2022 Fonticons, Inc.--><path d="m445.1 326.2-10.63-32c-7.375-22-27.5-36.75-50.5-37.87L383.1 128c0-70.69-57.31-128-128-128h-64C121.3 0 63.98 57.31 63.98 128l-.03 128.4c-23 1.125-43.13 15.87-50.5 37.87l-10.63 32c-5.625 17.13-2.75 36 7.75 50.5 5.5 7.75 13 13.62 21.38 17.62v93.63c0 13.28 10.77 23.98 24.02 23.98s23.98-10.75 23.98-23.1V400h288v88c-.85 13.3 10.75 24 23.15 24s23.98-10.75 23.98-23.1v-93.63c8.375-4 15.88-9.875 21.5-17.62 10.52-15.45 14.22-34.25 8.52-51.45zm-150-267.07c24.6 13.87 40 39.37 40 68.87l-.01 128h-40l.01-196.87zM199.1 48h48v208h-48V48zm-48 11.13V256h-40l.009-128C111.1 98.5 128.2 73 151.1 59.13zM48.32 341.5l10.75-32c1-3.4 4.13-5.5 7.5-5.5h314.8c3.375 0 6.5 2.25 7.625 5.5l10.62 32c1.685 5.3-2.315 10.5-7.715 10.5h-336c-5.33 0-9.33-5.2-7.58-10.5z"/></svg>