<svg xmlns="http://www.w3.org/2000/svg" viewBox="0 0 256 512"><!--! Font Awesome Pro 6.1.1 by @fontawesome - https://fontawesome.com License - https://fontawesome.com/license (Commercial License) Copyright 2022 Fonticons, Inc.--><path d="M216 464h-64.01V349.5c64.98-12 111.6-71.08 102.1-137.2L227.1 27.4C225.7 11.75 212.2 0 196.2 0H59.77c-15.1 0-29.49 11.75-31.74 27.38L1.033 212.3c-8.746 66.25 38.01 125.3 102.1 137.1V464H40c-13.25 0-23.99 10.74-23.99 24 0 13.25 10.74 24 23.99 24h176c13.25 0 23.99-10.75 23.99-24 .01-13.3-10.69-24-23.99-24zM182.5 48l11.71 80H61.81l11.71-80H182.5zM48.55 219.2l6.3-43.2h146.3l6.213 42.58C211.5 250.2 186.2 304 128 304c-57.75 0-83.63-53.3-79.45-84.8z"/></svg>