<svg xmlns="http://www.w3.org/2000/svg" viewBox="0 0 640 512"><!--! Font Awesome Pro 6.1.1 by @fontawesome - https://fontawesome.com License - https://fontawesome.com/license (Commercial License) Copyright 2022 Fonticons, Inc.--><path d="M638.2 422.9a23.909 23.909 0 0 0-22.13-14.88c-3.055 0-6.17.588-9.193 1.828l-44.59 18.36-42.35-105.5c51.71-33.5 71.1-100.1 40.81-154.2L475.4 16.5C469.6 6.123 458.6 0 447 0c-3.928 0-7.984.75-11.79 2.25L320 46.84 204.7 2.25C200.9.75 196.9 0 192.1 0c-11.53 0-22.56 6.123-28.39 16.5l-84.43 152c-30.29 54.12-10.9 120.7 40.81 154.2L77.74 428.2l-44.59-18.36a24.175 24.175 0 0 0-9.193-1.828 23.895 23.895 0 0 0-22.13 14.88c-5.047 12.27.797 26.28 13.05 31.33l136 56C153.9 511.4 156.1 512 159.1 512c9.438 0 18.39-5.594 22.2-14.86 5.047-12.27-.797-26.28-13.05-31.33l-46.59-19.19 42.52-105.7c8.111 1.625 16.22 2.5 24.08 2.5 53.36 0 102.3-34.25 115.8-87.37l14.96-59.62 15.08 59.62c13.56 53.12 62.48 87.37 115.8 87.37 7.857 0 15.97-.875 24.08-2.5l42.52 105.7-46.59 19.19c-12.25 5.047-18.09 19.06-13.05 31.33C461.6 506.4 470.6 512 480 512c3.031 0 6.125-.578 9.123-1.812l136-56C637.4 449.1 643.2 435.1 638.2 422.9zM121.1 191.1l26.21-46.71L270.11 197l-11.61 47.2C232.7 345 70.54 282.4 121.1 191.1zm160.8-40.4-110.1-47.55 28.82-51.36 97.49 37.72-16.21 61.19zm60.8-61.17 97.5-37.72 28.82 51.36L358 150.7l-15.3-61.17zm38.9 154.87-11.68-46.54 122.8-52.61 26.19 46.66C569.5 282.5 407.2 344.8 381.6 244.4z"/></svg>