<svg xmlns="http://www.w3.org/2000/svg" viewBox="0 0 512 512"><!--! Font Awesome Pro 6.1.1 by @fontawesome - https://fontawesome.com License - https://fontawesome.com/license (Commercial License) Copyright 2022 Fonticons, Inc.--><path d="M24 32c13.25 0 24 10.75 24 24v352c0 13.3 10.75 24 24 24h416c13.3 0 24 10.7 24 24s-10.7 24-24 24H72c-39.76 0-72-32.2-72-72V56c0-13.25 10.75-24 24-24zm144 192c13.3 0 24 10.7 24 24v80c0 13.3-10.7 24-24 24s-24-10.7-24-24v-80c0-13.3 10.7-24 24-24zm120 8c0 13.3-10.7 24-24 24s-24-10.7-24-24v-80c0-13.3 10.7-24 24-24s24 10.7 24 24v80zm72-168c13.3 0 24 10.75 24 24v80c0 13.3-10.7 24-24 24s-24-10.7-24-24V88c0-13.25 10.7-24 24-24zm120 264c0 13.3-10.7 24-24 24s-24-10.7-24-24V88c0-13.25 10.7-24 24-24s24 10.75 24 24v240z"/></svg>