<svg xmlns="http://www.w3.org/2000/svg" viewBox="0 0 512 512"><!--! Font Awesome Pro 6.1.1 by @fontawesome - https://fontawesome.com License - https://fontawesome.com/license (Commercial License) Copyright 2022 Fonticons, Inc.--><path d="M48 408c0 13.3 10.75 24 24 24h416c13.3 0 24 10.7 24 24s-10.7 24-24 24H72c-39.76 0-72-32.2-72-72V56c0-13.25 10.75-24 24-24s24 10.75 24 24v352zM320 96c17.7 0 32 14.3 32 32v96c0 17.7-14.3 32-32 32v48c0 8.8-7.2 16-16 16s-16-7.2-16-16v-48c-17.7 0-32-14.3-32-32v-96c0-17.7 14.3-32 32-32V48c0-8.84 7.2-16 16-16s16 7.16 16 16v48zm64 128c0-17.7 14.3-32 32-32v-48c0-8.8 7.2-16 16-16s16 7.2 16 16v48c17.7 0 32 14.3 32 32v64c0 17.7-14.3 32-32 32v48c0 8.8-7.2 16-16 16s-16-7.2-16-16v-48c-17.7 0-32-14.3-32-32v-64zM160 80c0-8.84 7.2-16 16-16s16 7.16 16 16v48c17.7 0 32 14.3 32 32v128c0 17.7-14.3 32-32 32v48c0 8.8-7.2 16-16 16s-16-7.2-16-16v-48c-17.7 0-32-14.3-32-32V160c0-17.7 14.3-32 32-32V80z"/></svg>