<svg xmlns="http://www.w3.org/2000/svg" viewBox="0 0 512 512"><!--! Font Awesome Pro 6.1.1 by @fontawesome - https://fontawesome.com License - https://fontawesome.com/license (Commercial License) Copyright 2022 Fonticons, Inc.--><path d="M330.4 281.4c17 4.5 29.6 20.1 29.6 38.6 0 22.1-17.9 40-40 40-15.9 0-29.7-9.3-36.1-22.7l-97.2-19.5c-7.1 6.3-16.5 10.2-26.7 10.2-22.1 0-40-17.9-40-40s17.9-40 40-40l57.6-76.8c-1-3.5-1.6-7.3-1.6-11.2 0-22.1 17.9-40 40-40s40 17.9 40 40c0 7.6-2.1 14.7-5.8 20.8l40.2 100.6zM202 271.9l79.3 15.9-31.7-79.2-47.6 63.3zm-92.9-212C120 42.63 138.5 32 158.4 32h195.2c19.9 0 37.5 10.63 48.4 27.9l97.4 168c10.1 17.4 10.1 38.8 0 56.2l-97.4 168c-10.9 17.3-28.5 27.9-48.4 27.9H158.4c-19.9 0-38.4-10.6-49.3-27.9l-96.55-168a56.022 56.022 0 0 1 0-56.2l96.55-168zM158.4 80c-2.8 0-5.5 1.52-6.9 3.99L54.07 251.1c-1.44 3.4-1.44 6.4 0 8.9l97.43 168c1.4 2.5 4.1 4 6.9 4h195.2c2.8 0 5.5-1.5 6.9-4l97.4-168c1.5-2.5 1.5-5.5 0-8.9L360.5 83.99c-1.4-2.47-4.1-3.99-6.9-3.99H158.4z"/></svg>