<svg xmlns="http://www.w3.org/2000/svg" viewBox="0 0 448 512"><!--! Font Awesome Pro 6.1.1 by @fontawesome - https://fontawesome.com License - https://fontawesome.com/license (Commercial License) Copyright 2022 Fonticons, Inc.--><path d="M176.1 240.1c-8.5 10.2-23.7 10.2-33.1 0l-79.97-80c-9.37-8.5-9.37-23.7 0-33.1 9.37-9.3 24.57-9.3 33.94 0L160 190.1 303 47.03c9.4-9.37 24.6-9.37 33.1 0 10.2 9.37 10.2 24.57 0 33.94l-160 159.13zm0 224c-8.5 10.2-23.7 10.2-33.1 0L7.029 328.1c-9.372-8.5-9.372-23.7 0-33.1 9.371-9.3 24.571-9.3 33.941 0L160 414.1 407 167c9.4-9.3 24.6-9.3 33.1 0 10.2 9.4 10.2 24.6 0 33.1l-264 264z"/></svg>