<svg xmlns="http://www.w3.org/2000/svg" viewBox="0 0 640 512"><!--! Font Awesome Pro 6.1.1 by @fontawesome - https://fontawesome.com License - https://fontawesome.com/license (Commercial License) Copyright 2022 Fonticons, Inc.--><path d="M539.3 224.1c-20.45 0-44.27 4.555-71.23 14.38C434.6 109.9 313.6 0 287.9 0c-11.19 0-21.47 7.998-23.63 19.68-25.78 140.1-73.11 202.6-89.55 219.9-12.51-4.698-43.26-15.48-74.13-15.48-92.32 0-100.6 82.48-100.6 105.7 0 82.16 67.03 182.2 191.1 182.2 53.65 0 96.47-18.54 128-46.11C350.63 493.42 393.4 512 446.99 512c125 0 192.1-100.1 192.1-182.2.91-23.3-7.39-105.7-99.79-105.7zM303.4 67.38c33.89 30.3 88.24 88.81 113.6 167.4-26.62-8.542-46.49-10.8-60.5-10.8-13.72 0-25.53 2.499-36.34 6.143-10.96-3.623-23.06-6.023-36.86-6.023-12.69 0-26.63 1.762-41.81 5.393C260.1 197.1 285.3 145.2 303.4 67.38zM48.02 329.8c0-23.24 6.353-57.79 52.57-57.79 30.45 0 59.48 12.81 91.34 26.82 33.63-14.79 60.76-26.82 91.32-26.82 46.22 0 52.59 34.54 52.59 57.79 0 19.76-19.1 134.2-143.9 134.2C66.58 464 48.02 349.1 48.02 329.8zm543.08 0c0 19.62-19.03 134.2-144.1 134.2-45.82 0-76.86-17.05-96.34-33.88 21.22-31.24 32.31-67.2 32.31-100.4 0-29.51-9.051-48.89-13.16-56.73 28.8 3.611 53.32 15.29 77.19 25.78 33.55-14.74 60.84-26.81 91.4-26.81 47.3.04 52.7 34.74 52.7 57.84z"/></svg>