<svg xmlns="http://www.w3.org/2000/svg" viewBox="0 0 256 512"><!--! Font Awesome Pro 6.1.1 by @fontawesome - https://fontawesome.com License - https://fontawesome.com/license (Commercial License) Copyright 2022 Fonticons, Inc.--><path d="M249.6 435.2 224 416v-24c0-12.12-9.125-21.62-20.75-23.38C201.4 352.5 200.2 336.2 200 320h8c8.875 0 16-7.125 16-16v-16c-.125-7.875-5.875-14.5-13.62-15.5C224 261.6 232 243.4 232 211.4c0-41.63-25.88-100.6-58-132.6C184.2 76 192 67 192 56c0-13.25-10.8-24-24-24H88c-13.25 0-24 10.75-24 24 0 11 7.75 20 17.1 22.75C49.88 110.8 24 169.8 24 211.4c0 32 8 50.25 21.62 61.12-7.74.98-13.5 7.58-13.62 15.48v16c0 8.9 7.12 16 16 16h8c-.25 16.25-1.375 32.5-3.25 48.63C41.12 370.2 32 379.9 32 392v24L6.38 435.25C2.375 438.2 0 443 0 448v48c0 8.9 7.125 16 16 16h224c8.875 0 16-7.125 16-16v-48c0-5-2.4-9.8-6.4-12.8zM115.2 110.4c3-3.9 7.8-6.2 12.8-6.2 8.129 0 13.59 3.458 30.62 32.38L121 174.2c-1.5 1.6-2.4 3.7-2.4 5.8s.9 4.1 2.4 5.6l13.5 13.4c1.5 1.5 2.6 2.4 5.6 2.4 2.125 0 4.125-.875 5.625-2.375l28.62-28.62C180.2 185.6 184 200.2 184 211.4v.5c-.1 13.2-5.5 25.9-15 35.1l-9 9v16H96v-16l-9-9c-9.5-9.2-14.87-21.9-15-35.1v-.7c0-25.6 17.75-68.8 43.2-100.8zM154.9 368h-53.8c1.5-16 2.8-32 2.9-48h48c.1 16 1.4 32 2.9 48zM48 464l32-24v-24h96v24l32 24H48z"/></svg>