<svg xmlns="http://www.w3.org/2000/svg" viewBox="0 0 256 512"><!--! Font Awesome Pro 6.1.1 by @fontawesome - https://fontawesome.com License - https://fontawesome.com/license (Commercial License) Copyright 2022 Fonticons, Inc.--><path d="M223.6 416v-24c0-11.25-7.874-20.25-18.25-22.88-3.125-22.25-5.25-44.63-5.25-67.12v-46h23.1c8.749 0 15.1-7.125 15.1-16v-16c0-8.875-7.249-16-15.1-16h-7.499l38.5-105c1.499-1.2 1.799-2.4 1.799-3.69a7.924 7.924 0 0 0-3.649-6.689l-12.12-8.125a7.68 7.68 0 0 0-4.294-1.306c-8.735 0-9.064 13.41-26.12 13.41-12.47 0-24.7-9.738-24.7-25.85 0-1.75-.625-3.5-1.1-4.75-2.117-1.25-3.917-2-5.617-2l-20.01-.005c-3.009 0-5.509 2.089-6.238 5.005-2.375 11.25-12.37 19.38-23.87 19.38-11.62 0-21.62-8.125-23.1-19.38-.607-2.916-3.353-5.003-6.369-5.003-.087 0 .088-.004 0 0L77.99 64c-3.749 0-6.749 3-6.749 6.875 0 16.14-12.25 25.74-24.72 25.74-7.039 0-14.15-3.062-19.15-9.739C25.81 84.66 23.23 83.2 20.47 83.2c-1.443 0-2.934.4-4.35 1.302L4 92.627a8.175 8.175 0 0 0-3.623 6.775c0 1.222.28 2.454.873 3.6L39.87 208h-7.5c-8.874 0-15.1 7.125-15.1 16v16c0 8.875 7.124 16 15.1 16h23.1v46c0 22.5-2.25 44.75-5.375 66.1C40.25 371.4 31.1 380.5 31.1 392v24L5.48 435.25C2.375 438.2 0 443 0 448v48c0 8.9 7.125 16 15.1 16h223.6c8.874 0 15.1-7.125 15.1-16v-48c0-5-2.375-9.75-6.374-12.75L223.6 416zM93.24 127.4a71.328 71.328 0 0 0 34.92 9.109c11.98 0 23.98-2.1 34.83-8.984 7.749 6.625 16.87 11.5 26.75 14.38L166.9 208H89.49l-22.87-66.25C76.37 139 85.49 134 93.24 127.4zM156.9 368H99.49c2.75-21.88 4.75-43.88 4.75-65.1V256h47.87v46c-.01 22.1 1.99 44.1 4.79 66zM47.87 464l31.1-24v-24h95.87v24l31.87 24H47.87zM128.2 56c15.37 0 27.1-12.5 27.1-28S143.4 0 128 0c-15.5 0-27.81 12.5-27.81 28s12.51 28 28.01 28z"/></svg>