<svg xmlns="http://www.w3.org/2000/svg" viewBox="0 0 320 512"><!--! Font Awesome Pro 6.1.1 by @fontawesome - https://fontawesome.com License - https://fontawesome.com/license (Commercial License) Copyright 2022 Fonticons, Inc.--><path d="M313.6 435.2 288 416v-24c0-11.12-7.75-20.12-18.12-22.75L264.5 251.5l26.75-20.12c8-6 12.75-15.5 12.75-25.5V96c0-17.62-14.38-32-32-32H48c-17.62 0-32 14.38-32 32v110c0 10 4.75 19.5 12.75 25.6l26.75 20-5.375 117.6C39.75 371.9 32 380.9 32 392v24L6.38 435.25C2.375 438.2 0 443 0 448v48c0 8.9 7.125 16 16 16h288c8.875 0 16-7.125 16-16v-48c0-5-2.4-9.8-6.4-12.8zM64 112h40v32h32v-32h48v32h32v-32h40v85.88l-40.5 30.62 6 139.5h-123l6-139.6L64 198v-86zM48 464l32-24v-24h160v24l32 24H48zm136-216.4c0-13.1-10.5-23.6-23.6-23.6-13 0-23.5 10.5-23.5 23.62V288H184v-40.4z"/></svg>