<svg xmlns="http://www.w3.org/2000/svg" viewBox="0 0 320 512"><!--! Font Awesome Pro 6.1.1 by @fontawesome - https://fontawesome.com License - https://fontawesome.com/license (Commercial License) Copyright 2022 Fonticons, Inc.--><path d="M89.75 195.2c7.849 0 13.87-6.619 13.87-13.97 0-3.581-1.416-7.122-3.991-9.78a14.535 14.535 0 0 0-9.929-3.95c-7.556 0-13.83 6.145-13.83 13.9.01 7.6 5.23 13.7 13.88 13.8zm223.85 240L288 416v-30.12c10.25-13.63 15.88-30.12 16-47.12V232.6c0-93-75.6-168.6-168.6-168.6H55.38C25.02 64-.043 88.92-.043 119.6c0 6.22 1.043 12.48 3.168 18.5C1 144.5 0 151.1 0 157.8v84.75C0 268 14.38 291.4 37 303c-21.32 29.94-20.88 61.54-20.88 62.21 0 16.67 5.481 33.03 15.88 46.42V416L6.38 435.25C2.375 438.2 0 443 0 448v48c0 8.9 7.125 16 16 16h288c8.875 0 16-7.125 16-16v-48c0-5-2.4-9.8-6.4-12.8zM48.01 119.6c0-4.4 3.46-7.6 7.37-7.6h80C201.8 112 256 166.2 256 232.6v106.1c0 8.5-3.375 16.62-9.375 22.62L240 368H64.75c-.097-1.645-.493-3.291-.493-4.936 0-1.975 1.253-38.11 46.24-58.44l34.88-10.87C154.3 289.8 160 280.9 160 271.2v-48.3l-27.1 4.7c-3.875 2-6.625 5.5-7.75 9.625L119.5 256.2c-4.4 14.6-24.83 17.3-27 17.3-2.625 0-5.25-.625-7.75-1.75l-25-11.13C52.62 257.5 48 250.4 48 242.5v-84.7c0-7.375 4.375-10.63 9.875-16l-8.755-17.7c-.77-1.6-1.11-3.1-1.11-4.5zM48 464l32-24v-24h160v24l32 24H48z"/></svg>