<svg xmlns="http://www.w3.org/2000/svg" viewBox="0 0 640 512"><!--! Font Awesome Pro 6.1.1 by @fontawesome - https://fontawesome.com License - https://fontawesome.com/license (Commercial License) Copyright 2022 Fonticons, Inc.--><path d="M440 192c-57.44 0-104 46.56-104 104s46.56 104 104 104 104-46.6 104-104-46.6-104-104-104zm16 96c0 8.844-7.156 16-16 16s-16-7.156-16-16v-48c0-8.844 7.156-16 16-16s16 7.156 16 16v48zM0 207.1v176.1C0 437 42.96 480 95.96 480h448.1C597 480 640 437 640 384V207.1c0-53-43-95.1-96-95.1h-56l-.166-32H520c13.3 0 24-10.75 24-24s-10.7-24-24-24H408c-13.3 0-24 10.75-24 24s10.74 24 24 24h31.83l.17 32H255.1l.9-8c0-13.25-10.7-24-24-24H120c-13.3 0-24 10.75-24 24l-.03 8C42.98 112 0 154.1 0 207.1zm48 .9c0-26.5 21.49-48 48-48h448c26.51 0 48 21.49 48 48v176c0 26.51-21.49 48-48 48H96c-26.51 0-48-21.49-48-48V208zm152-16.9c-59.49 0-104 48.64-104 103.1 0 55.64 44.81 103.1 104 103.1 59.49 0 104-48.62 104-103.1 0-53.8-44.7-103.1-104-103.1zm55.6 65.3c0 4.093-1.563 8.187-4.69 11.31L216.1 301.7a15.948 15.948 0 0 1-11.31 4.69c-8.569 0-16-6.921-16-16 0-4.093 1.563-8.187 4.69-11.31l33.94-33.94a15.943 15.943 0 0 1 11.31-4.69c9.97-.05 16.87 7.45 16.87 15.95z"/></svg>