<svg xmlns="http://www.w3.org/2000/svg" viewBox="0 0 256 512"><!--! Font Awesome Pro 6.1.1 by @fontawesome - https://fontawesome.com License - https://fontawesome.com/license (Commercial License) Copyright 2022 Fonticons, Inc.--><path d="M249.6 435.4 224 416.2v-23.96c0-13.23-10.75-23.96-24-23.96h2.625C201.1 352.3 200 336.3 200 320.3v-31.9h8c8.875 0 16-7.112 16-15.97V256.5c-.125-7.861-5.875-14.35-13.62-15.47 5.34-8.784 13.63-25.79 13.63-49.01C224 138.7 180.8 96 127.1 96 77.19 96 32 136.1 32 191.8c0 16.94 4.491 33.95 13.62 49.17C37.88 242.1 32 248.6 32 256.5v15.97c0 8.859 7.125 15.97 16 15.97h8v31.94c0 15.97-1.125 31.94-2.625 47.92H56c-13.25 0-24 10.73-24 23.96v23.96L6.38 435.44A15.748 15.748 0 0 0 0 448.1V496c0 8.9 7.125 16 16 16h224c8.875 0 16-7.126 16-15.99v-47.9c0-5.01-2.4-9.71-6.4-12.71zm-97.6-147v29.95c0 16.72 1 33.32 2.5 49.91h-53c1.5-16.56 2.5-33.16 2.5-49.96v-29.9h48zm-24-143.7c26.5 0 48 21.46 48 47.92s-21.5 47.88-48 47.88-48-21.5-48-47.9 21.5-47.9 48-47.9zM48 464.1l32-23.96v-23.96h96v23.96l32 23.96H48z"/></svg>