<svg xmlns="http://www.w3.org/2000/svg" viewBox="0 0 640 512"><!--! Font Awesome Pro 6.1.1 by @fontawesome - https://fontawesome.com License - https://fontawesome.com/license (Commercial License) Copyright 2022 Fonticons, Inc.--><path d="M544 112v-8c0-13.25-10.74-24-24-24H408c-13.3 0-24 10.75-24 24v8H200l.166-32H232c13.3 0 24-10.75 24-24s-10.7-24-24-24H120c-13.3 0-24 10.75-24 24s10.7 24 24 24h32.17l-.17 32H96c-53.02 0-96 42.98-96 96v176c0 53.02 42.98 96 96 96h448c53.02 0 96-42.98 96-96V207.1c0-53-43-95.1-96-95.1zm48 272c0 26.51-21.49 48-48 48H96c-26.51 0-48-21.49-48-48V208c0-26.5 21.49-48 48-48h448c26.51 0 48 21.49 48 48v176zM200 192c-57.4 0-104 46.6-104 104s46.56 104 104 104 104-46.6 104-104-46.6-104-104-104zm16 96c0 8.844-7.156 16-16 16s-16-7.2-16-16v-48c0-8.844 7.156-16 16-16s16 7.156 16 16v48zm224-96.9c-59.49 0-104 48.64-104 103.1 0 55.64 44.81 103.1 104 103.1 59.49 0 104-48.62 104-103.1 0-53.8-44.7-103.1-104-103.1zm55.6 65.3c0 4.093-1.563 8.187-4.69 11.31l-33.94 33.94a15.947 15.947 0 0 1-11.31 4.69c-8.552 0-16-6.904-16-16 0-4.093 1.563-8.187 4.69-11.31l33.94-33.94a15.943 15.943 0 0 1 11.31-4.69c9.1 0 16 7.5 16 16z"/></svg>