<svg xmlns="http://www.w3.org/2000/svg" viewBox="0 0 448 512"><!--! Font Awesome Pro 6.1.1 by @fontawesome - https://fontawesome.com License - https://fontawesome.com/license (Commercial License) Copyright 2022 Fonticons, Inc.--><path d="M207.4 265.3c9.313 8.875 23.88 8.875 33.19 0l184-176c9.563-9.156 9.906-24.34.75-33.94A24.094 24.094 0 0 0 408 48a23.966 23.966 0 0 0-16.59 6.656L224 214.8 56.59 54.66c-10.49-9.13-24.78-8.85-33.94.75s-8.81 24.78.75 33.93l184 175.96zM408 240a23.966 23.966 0 0 0-16.59 6.656L224 406.8 56.59 246.7c-10.49-9.2-24.78-8.9-33.94.7s-8.81 24.8.75 33.9l184 176c9.313 8.875 23.88 8.875 33.19 0l184-176c9.563-9.156 9.906-24.34.75-33.94C420.6 242.5 414.3 240 408 240z"/></svg>