<svg xmlns="http://www.w3.org/2000/svg" viewBox="0 0 448 512"><!--! Font Awesome Pro 6.1.1 by @fontawesome - https://fontawesome.com License - https://fontawesome.com/license (Commercial License) Copyright 2022 Fonticons, Inc.--><path d="M56.59 265.3 224 105.2l167.4 160.1c4.7 4.5 10.6 6.7 16.6 6.7 6.312 0 12.62-2.469 17.34-7.406 9.156-9.594 8.812-24.78-.75-33.94l-184-176c-9.312-8.875-23.88-8.875-33.19 0l-184 176C13.84 239.8 13.49 255 22.65 264.6s23.45 9.9 33.94.7zm184.01-18.6c-9.312-8.875-23.88-8.875-33.19 0l-184 176c-9.562 9.156-9.906 24.34-.75 33.94s24.35 9.875 33.94.75L224 297.2l167.4 160.1c4.7 4.5 10.6 6.7 16.6 6.7 6.312 0 12.62-2.469 17.34-7.406 9.156-9.594 8.812-24.78-.75-33.94L240.6 246.7z"/></svg>