<svg xmlns="http://www.w3.org/2000/svg" viewBox="0 0 320 512"><!--! Font Awesome Pro 6.1.1 by @fontawesome - https://fontawesome.com License - https://fontawesome.com/license (Commercial License) Copyright 2022 Fonticons, Inc.--><path d="M231.1 72c0 39.8-31.3 72-72 72-38.9 0-72-32.2-72-72 0-39.76 33.1-72 72-72 40.7 0 72 32.24 72 72zm-72-24c-12.4 0-24 10.75-24 24s11.6 24 24 24c14.2 0 24-10.75 24-24s-9.8-24-24-24zM70.95 201.8c21.32-25.7 52.65-40.9 85.95-41.8h6.2c33.3.9 64.6 16.1 86 41.8l65.4 78.9c8.4 10.2 7 25.3-3.2 33.8-10.2 8.4-26.2 7-33.8-3.2l-43.1-51.9 36.4 109c2.4 7.3.3 15.4-3.3 21.6-5.4 6.3-11.8 10-19.5 10h-24v88c0 13.3-10.7 24-24 24s-24-10.7-24-24v-88h-32v88c0 13.3-10.7 24-24 24s-24-10.7-24-24v-88H71.1c-6.82 0-14.06-3.7-18.57-10-4.51-6.2-5.74-14.3-3.3-21.6l36.35-109-43.11 51.9c-8.46 10.2-23.59 11.6-33.794 3.2-10.201-8.5-11.609-23.6-3.146-33.8l65.42-78.9zM160 208h-1.4c-3.3.2-6.1 2.4-7.1 5.5L105.3 352h109.4l-46.2-138.5c-1-3.1-3.8-5.3-7.1-5.5H160z"/></svg>