<svg xmlns="http://www.w3.org/2000/svg" viewBox="0 0 640 512"><!--! Font Awesome Pro 6.1.1 by @fontawesome - https://fontawesome.com License - https://fontawesome.com/license (Commercial License) Copyright 2022 Fonticons, Inc.--><path d="M87.1 72c0-39.76 33.1-72 72-72 40.7 0 72 32.24 72 72 0 39.8-31.3 72-72 72-38.9 0-72-32.2-72-72zm72 24c14.2 0 24-10.75 24-24s-9.8-24-24-24c-12.4 0-24 10.75-24 24s11.6 24 24 24zm89.1 107.8 58.9 77.7c8 10.6 6 25.6-4.6 33.6s-25.6 6-33.6-4.6l-45.4-59.8 39.3 117.7c2.4 7.3.3 15.4-3.3 21.6-5.4 6.3-11.8 10-19.5 10h-16v88c0 13.3-10.7 24-24 24-13.2 0-24-10.7-24-24v-88h-32v88c0 13.3-10.7 24-24 24-13.2 0-23.99-10.7-23.99-24v-88H80c-7.71 0-14.96-3.7-19.47-10-4.51-6.2-5.74-14.3-3.3-21.6l39.24-117.7-45.34 59.8c-8.01 10.6-23.06 12.6-33.63 4.6-10.557-8-12.627-23-4.62-33.6l58.9-77.7C92.71 176.2 125.4 160 160 160c34.7 0 67.3 16.2 88.2 43.8zM206.7 352 160 211.9 113.3 352h93.4zM552 72c0 39.8-32.2 72-72 72s-72-32.2-72-72c0-39.76 32.2-72 72-72s72 32.24 72 72zm-72-24c-13.3 0-24 10.75-24 24s10.7 24 24 24 24-10.75 24-24-10.7-24-24-24zm-40 464c-13.3 0-24-10.7-24-24V264.8l-27.7 44c-7 11.2-21.9 14.6-33.1 7.5-11.2-7-14.6-21.9-7.5-33.1l48.4-76.9c18.1-28.8 49.8-46.3 83.9-46.3 34.1 0 65.8 17.5 83.9 46.3l48.4 76.9c7.1 11.2 3.7 26.1-7.5 33.1-11.2 7.1-26 3.7-33.1-7.5l-27.7-44V488c0 13.3-10.7 24-24 24s-24-10.7-24-24V384h-32v104c0 13.3-10.7 24-24 24zm40-304c-5.5 0-10.9.9-16 2.6V336h32V210.6a50.6 50.6 0 0 0-16-2.6z"/></svg>