<svg xmlns="http://www.w3.org/2000/svg" viewBox="0 0 384 512"><!--! Font Awesome Pro 6.1.1 by @fontawesome - https://fontawesome.com License - https://fontawesome.com/license (Commercial License) Copyright 2022 Fonticons, Inc.--><path d="M119.1 72c0-39.76 33.1-72 72-72C231.8 0 264 32.24 264 72c0 39.8-32.2 72-72.9 72-38.9 0-72-32.2-72-72zm72 24c14.2 0 24.9-10.75 24.9-24s-10.7-24-24.9-24c-12.4 0-24 10.75-24 24s11.6 24 24 24zm100.6 22.6 15.6-26.69c5.8-11.45 21.3-15.32 32.8-8.64 11.4 6.68 15.3 21.33 8.6 32.83l-15.6 26.7c-14.9 25.6-37 45.3-61.1 59.3V488c0 13.3-10.7 24-24 24s-24-10.7-24-24V384h-64v104c0 13.3-10.7 24-24 24s-24-10.7-24-24V203.2c-25.68-14.3-47.47-35.6-62.5-62l-14.37-25.4c-6.54-11.5-2.5-26.13 9.02-32.67 11.53-6.55 26.18-2.51 32.72 9.02l14.37 25.35C111.8 153.6 150.2 176 191.8 176c41.1 0 78.3-21.8 99.9-57.4zM224 336V220.8c-10.5 2.1-21.3 3.2-32.2 3.2-10.8 0-21.4-1.1-31.8-3.1V336h64z"/></svg>