<svg xmlns="http://www.w3.org/2000/svg" viewBox="0 0 512 512"><!--! Font Awesome Pro 6.1.1 by @fontawesome - https://fontawesome.com License - https://fontawesome.com/license (Commercial License) Copyright 2022 Fonticons, Inc.--><path d="M207.1 64c0 35.35-27.8 64-64 64-34.4 0-64-28.65-64-64s29.6-64 64-64c36.2 0 64 28.65 64 64zm-64-16c-7.9 0-16 7.16-16 16s8.1 16 16 16c9.7 0 16-7.16 16-16s-6.3-16-16-16zM104 512c-13.25 0-24-10.7-24-24V264.8l-27.69 44c-7.06 11.2-21.87 14.6-33.09 7.5-11.22-7-14.589-21.9-7.53-33.1l48.39-76.9A99.197 99.197 0 0 1 144 160c34.1 0 65.8 17.5 83.9 46.3l48.4 76.9c7.1 11.2 3.7 26.1-7.5 33.1-11.2 7.1-26 3.7-33.1-7.5l-27.7-44V488c0 13.3-10.7 24-24 24s-24-10.7-24-24V384h-32v104c0 13.3-10.7 24-24 24zm40-304c-5.5 0-10.9.9-16 2.6V336h32V210.6a50.6 50.6 0 0 0-16-2.6zM416 0c8.8 0 16 7.164 16 16v116.3c9.6 5.5 16 15.9 16 27.7v109.3l16-5.3v-56c0-8.8 7.2-16 16-16h16c8.8 0 16 7.2 16 16v84.5c0 6.9-4.4 13-10.9 15.1L448 325.3V352h48c8.8 0 16 7.2 16 16v16c0 8.8-7.2 16-16 16h-44l23 92.1c2.6 10.1-5.1 19.9-15.5 19.9H400c-8.8 0-16-7.2-16-16V384h-32c-17.7 0-32-14.3-32-32V224c0-17.7 14.3-32 32-32h16v-32c0-11.8 6.4-22.2 16-27.7V32c-8.8 0-16-7.16-16-16 0-8.836 7.2-16 16-16h32zm-16 240h-32v96h32v-96z"/></svg>