<svg xmlns="http://www.w3.org/2000/svg" viewBox="0 0 640 512"><!--! Font Awesome Pro 6.1.1 by @fontawesome - https://fontawesome.com License - https://fontawesome.com/license (Commercial License) Copyright 2022 Fonticons, Inc.--><path d="M637.3 110.6c2.5 8.5 3.3 17.5 2.2 26.3-1 8.8-3.8 17.3-8.2 25-4.4 7.6-10.3 14.4-17.4 19.7L191.1 504c-8 6.2-19 9-28.2 7.9-10-1.1-19.3-6-25.8-13.8-6.5-7.8-9.7-17.7-9-27.8.7-10.1 5.2-19.6 12.7-26.4L530.3 81.31c6.5-6.01 14.1-10.64 22.5-13.6 8.4-2.96 17.2-4.19 26.1-3.61 8.8.57 17.4 2.94 25.3 6.96 8 4.01 15 9.59 20.6 16.4 5.7 6.81 9.9 14.74 12.5 23.14zm-53.2 32.8c2.8-1.4 4.4-3.2 5.6-5.2 1.2-2.1 1.9-4.3 2.2-6.7.3-2.3.1-4.7-.6-7-.6-2.3-1.8-4.4-3.3-6.2-1.5-1.8-3.3-3.3-5.5-4.4-2.1-1-4.4-1.7-6.7-1.8-2.4-.2-4.7.1-6.9.9s-4.2 2-6.8 3.6L303.8 357.7l281.1-214.4-.8.1zM412.5 86.35c-2.8 8.38-7.3 16.05-13.2 22.65L68.89 497.5c-3.75 4.2-8.34 7.6-13.48 9.9-5.14 2.3-10.7 3.5-16.34 3.5-8.95 0-17.63-3.1-24.54-8.8-7.827-6.3-12.913-15.4-14.205-25.4a39.146 39.146 0 0 1 7.257-28.2L297.9 26.72a65.564 65.564 0 0 1 31.5-23.215 65.27 65.27 0 0 1 39.1-1.046c12.9 3.657 24.3 11.161 32.7 21.501 8.5 10.34 13.5 23.02 14.6 36.33.7 8.82-.5 17.68-3.3 26.06zm-46.4-15.11c1.7-2.32 2.1-4.78 1-7.24.7-2.36.1-4.65-1.1-6.75-1.1-2.09-2.6-3.93-4.4-5.41-1.8-1.53-3.9-2.65-6.2-3.29-2.3-.64-4.7-.79-7-.42-2.3.28-4.5 1.02-6.5 2.18-2 1.16-3.7 2.72-5.1 4.57L143.6 335.6 363.1 77.44c1.7-1.77 3.1-3.89 3-6.2z"/></svg>