<svg xmlns="http://www.w3.org/2000/svg" viewBox="0 0 512 512"><!--! Font Awesome Pro 6.1.1 by @fontawesome - https://fontawesome.com License - https://fontawesome.com/license (Commercial License) Copyright 2022 Fonticons, Inc.--><path d="M248.3 142.4c-7-6.5-17.2-8.2-25.9-4.4-8.7 3.8-14.4 12.5-14.4 22v192c0 9.531 5.656 18.16 14.38 22 8.719 3.812 18.91 2.094 25.91-4.375l104-96C357.2 269.1 360 262.7 360 256s-2.812-13.09-7.719-17.62L248.3 142.4zM256 0C114.6 0 0 114.6 0 256s114.6 256 256 256 256-114.6 256-256S397.4 0 256 0zm0 464c-114.7 0-208-93.31-208-208S141.3 48 256 48s208 93.31 208 208-93.3 208-208 208z"/></svg>