<svg xmlns="http://www.w3.org/2000/svg" viewBox="0 0 512 512"><!--! Font Awesome Pro 6.1.1 by @fontawesome - https://fontawesome.com License - https://fontawesome.com/license (Commercial License) Copyright 2022 Fonticons, Inc.--><path d="M375.2 172.8c-21.23-8.648-41.63-12.94-59.14-12.79-19.96.29-34.16 4.89-44.06 8.09v183c11.81-6.961 50.9-25.71 101.4-3.73 5 3.03 10.6-.47 10.6-5.47V185.6c0-5.5-3.4-10.6-8.8-12.8zm-238.4 0c-5.4 1.3-8.8 7.3-8.8 12.7v156.3c0 5.047 5.643 8.545 10.56 6.405C189.1 326.3 228.2 345 240 352V168.1c-9.9-3.2-25-7.8-44.1-8.1-17.6-.3-38.8 4.1-59.1 12.8zM256 0C114.6 0 0 114.6 0 256s114.6 256 256 256 256-114.6 256-256S397.4 0 256 0zm0 464c-114.7 0-208-93.31-208-208S141.3 48 256 48s208 93.31 208 208-93.3 208-208 208z"/></svg>