<svg xmlns="http://www.w3.org/2000/svg" viewBox="0 0 512 512"><!--! Font Awesome Pro 6.1.1 by @fontawesome - https://fontawesome.com License - https://fontawesome.com/license (Commercial License) Copyright 2022 Fonticons, Inc.--><path d="M304.1 127c-9.375-9.375-24.56-9.375-33.94 0l-112 112c-3.86 4.7-6.16 10.8-6.16 17s2.344 12.28 7.031 16.97l112 112c9.375 9.375 24.56 9.375 33.94 0s9.375-24.56 0-33.94L209.9 256l95.03-95.03c9.37-9.37 9.37-24.57-.83-33.97zM256 0C114.6 0 0 114.6 0 256s114.6 256 256 256 256-114.6 256-256S397.4 0 256 0zm0 464c-114.7 0-208-93.31-208-208S141.3 48 256 48s208 93.31 208 208-93.3 208-208 208z"/></svg>