<svg xmlns="http://www.w3.org/2000/svg" viewBox="0 0 512 512"><!--! Font Awesome Pro 6.1.1 by @fontawesome - https://fontawesome.com License - https://fontawesome.com/license (Commercial License) Copyright 2022 Fonticons, Inc.--><path d="M256 0C114.6 0 0 114.6 0 256s114.6 256 256 256 256-114.6 256-256S397.4 0 256 0zm0 464c-114.7 0-208-93.31-208-208S141.3 48 256 48s208 93.31 208 208-93.3 208-208 208zm89.1-328.8c-9.266-9.422-24.48-9.547-33.94-.25L208 236.5V152c0-13.2-10.7-24-24-24s-24 10.8-24 24v208c0 13.3 10.8 24 24 24s24-10.75 24-24v-56.1l30.89-30.42 69.38 100.2C312.9 380.4 320.4 384 328 384a23.8 23.8 0 0 0 13.64-4.266c10.91-7.547 13.62-22.5 6.078-33.39l-72-104c-.732-1.057-1.805-1.662-2.666-2.564l71.78-70.69c9.468-9.29 9.568-24.49.268-33.89z"/></svg>