<svg xmlns="http://www.w3.org/2000/svg" viewBox="0 0 512 512"><!--! Font Awesome Pro 6.1.1 by @fontawesome - https://fontawesome.com License - https://fontawesome.com/license (Commercial License) Copyright 2022 Fonticons, Inc.--><path d="M373.3 361.2c25.4 13.4 42.7 40.1 42.7 70.8 0 44.2-35.8 80-80 80s-80.9-35.8-80.9-80c0-11.5 3.3-22.4 7.6-32.2L121.6 276.3A79.512 79.512 0 0 1 80 288c-44.18 0-80-35.8-80-80s35.82-80 80-80c24.1 0 47.3 11.4 61.9 29.4l178.3-71.34c-.1-2-.2-4.02-.2-6.06 0-44.18 35.8-80 80-80s80 35.82 80 80c0 40.8-30.6 74.5-70.9 79.4l-35.8 201.8zM400 48c-17.7 0-32 14.33-32 32s14.3 32 32 32 32-14.33 32-32-14.3-32-32-32zM159.8 201.9c.1 2-.7 3.2-.7 6.1 0 11.5-1.5 22.4-5.8 32.2l141.1 123.5c9.4-5.8 20.1-9.7 31.6-11.1l36.7-201.8c-9.5-5-17.9-11.9-24.6-20.2l-178.3 71.3zM336 400c-17.7 0-32 14.3-32 32s14.3 32 32 32 32-14.3 32-32-14.3-32-32-32zM79.1 240c18.57 0 32-14.3 32-32s-13.43-32-32-32c-16.77 0-32 14.3-32 32s15.23 32 32 32z"/></svg>