<svg xmlns="http://www.w3.org/2000/svg" viewBox="0 0 512 512"><!--! Font Awesome Pro 6.1.1 by @fontawesome - https://fontawesome.com License - https://fontawesome.com/license (Commercial License) Copyright 2022 Fonticons, Inc.--><path d="M256 0C114.6 0 0 114.6 0 256s114.6 256 256 256 256-114.6 256-256S397.4 0 256 0zm0 464c-114.7 0-208-93.31-208-208S141.3 48 256 48s208 93.31 208 208-93.3 208-208 208zm72-336c-13.25 0-24 10.75-24 24v131.2L203.7 138.3c-5.953-8.641-16.88-12.31-26.89-9.25C166.8 132.2 160 141.5 160 152v208c0 13.3 10.8 24 24 24s24-10.75 24-24V228.8l100.3 144.8c4.5 6.7 12 10.4 19.7 10.4 2.391 0 4.797-.36 7.156-1.094C345.2 379.8 352 370.5 352 360V152c0-13.2-10.7-24-24-24z"/></svg>