<svg xmlns="http://www.w3.org/2000/svg" viewBox="0 0 512 512"><!--! Font Awesome Pro 6.1.1 by @fontawesome - https://fontawesome.com License - https://fontawesome.com/license (Commercial License) Copyright 2022 Fonticons, Inc.--><path d="M269.1 117.4c-3.5-3.4-8.2-5.4-13.1-5.4s-9.5 2-13 5.4l-91.6 91.2c-11.5 11.5-3.4 31.4 13.1 31.4h183c16.5 0 24.62-19.88 13.12-31.38L269.1 117.4zM347.5 272h-183c-16.5 0-24.6 19.9-13.1 31.4l91.6 91.2c3.5 3.4 8.1 5.4 13 5.4s9.625-2 13.12-5.375l91.5-91.25C372.1 291.9 364 272 347.5 272zm-91.4 90.5L197.3 304h117.3l-58.5 58.5zM256 0C114.6 0 0 114.6 0 256s114.6 256 256 256 256-114.6 256-256S397.4 0 256 0zm0 464c-114.7 0-208-93.31-208-208S141.3 48 256 48s208 93.31 208 208-93.3 208-208 208z"/></svg>