<svg xmlns="http://www.w3.org/2000/svg" viewBox="0 0 512 512"><!--! Font Awesome Pro 6.1.1 by @fontawesome - https://fontawesome.com License - https://fontawesome.com/license (Commercial License) Copyright 2022 Fonticons, Inc.--><path d="M417.7 236.7c-89.1-89.2-234.3-89.2-323.45 0-5.188 5.188-6.088 13.14-2.205 19.33l27.41 43.85c3.965 6.354 12.03 9.05 19.06 6.253l54.82-21.92c6.475-2.562 10.46-9.18 9.717-16.06L199.6 233.6c36.5-12.46 76.31-12.46 112.8 0l-3.446 34.61c-.697 6.904 3.275 13.47 9.717 16.06l54.82 21.92c7.07 2.762 15.08.143 19.06-6.253l27.41-43.85A15.67 15.67 0 0 0 417.7 236.7zM256 0C114.6 0 0 114.6 0 256s114.6 256 256 256 256-114.6 256-256S397.4 0 256 0zm0 464c-114.7 0-208-93.31-208-208S141.3 48 256 48s208 93.31 208 208-93.3 208-208 208z"/></svg>