<svg xmlns="http://www.w3.org/2000/svg" viewBox="0 0 512 512"><!--! Font Awesome Pro 6.1.1 by @fontawesome - https://fontawesome.com License - https://fontawesome.com/license (Commercial License) Copyright 2022 Fonticons, Inc.--><path d="M256 0C114.6 0 0 114.6 0 256s114.6 256 256 256 256-114.6 256-256S397.4 0 256 0zm0 464c-114.7 0-208-93.31-208-208S141.3 48 256 48s208 93.31 208 208-93.3 208-208 208zm72-336H184c-13.2 0-24 10.8-24 24v208c0 13.3 10.8 24 24 24s24-10.75 24-24v-72h88c13.3 0 24-10.7 24-24s-10.7-24-24-24h-88v-64h120c13.3 0 24-10.7 24-24s-10.7-24-24-24z"/></svg>