<svg xmlns="http://www.w3.org/2000/svg" viewBox="0 0 512 512"><!--! Font Awesome Pro 6.1.1 by @fontawesome - https://fontawesome.com License - https://fontawesome.com/license (Commercial License) Copyright 2022 Fonticons, Inc.--><path d="M256 121c6.1 0 11.7 3.5 14.3 8.9l31.3 63.3 69.9 10.2c6 .9 11 5.1 12.9 10.9 1.9 5.8.3 12.1-4.1 16.4l-50.5 48.4 11.9 70.5c1 6-1.4 12-6.3 15.6-5 3.6-11.5 4.1-16.9 1.2L256 333.6l-62.5 32.8c-5.4 2.9-11.9 2.4-16.9-1.2-4.9-3.6-7.3-9.6-6.3-15.6l11.9-70.5-50.5-48.4c-4.4-4.3-6-10.6-4.1-16.4 1.9-5.8 6.9-10 12.9-10.9l69.9-10.2 31.3-63.3c2.6-5.4 8.2-8.9 14.3-8.9zm256 135c0 141.4-114.6 256-256 256S0 397.4 0 256 114.6 0 256 0s256 114.6 256 256zM256 48C141.1 48 48 141.1 48 256s93.1 208 208 208 208-93.1 208-208S370.9 48 256 48z"/></svg>