<svg xmlns="http://www.w3.org/2000/svg" viewBox="0 0 640 512"><!--! Font Awesome Pro 6.1.1 by @fontawesome - https://fontawesome.com License - https://fontawesome.com/license (Commercial License) Copyright 2022 Fonticons, Inc.--><path d="M256 464c59.3 0 112.7-24.8 150.6-64.6 9.2-9.6 23.5-9.9 34-.8 9.6 9.2 9.9 23.5.8 34C394.8 481.5 328.9 512 256 512 114.6 512 0 397.4 0 256S114.6 0 256 0c103.6 0 192.8 61.59 233.1 150.1 5.5 12 .2 26.3-11.9 31.7-12.1 5.5-26.3.2-31.8-11.9C412.7 97.96 340.1 48 255.1 48c-114 0-208 93.1-208 208s94 208 208 208h.9zm24-200.9c0 14.2-10.7 24-24 24s-24-9.8-24-24v-112c0-12.4 10.7-24 24-24s24 11.6 24 24v112zM224 352c0-17.7 14.3-32.9 32-32.9s32 15.2 32 32.9-14.3 32-32 32-32-14.3-32-32zm403.8-179.8c10.9 10.9 10.9 28.7 0 39.6l-128 128c-10.9 10.9-28.7 10.9-39.6 0l-64-64c-10.9-10.9-10.9-28.7 0-39.6 10.9-10.9 28.7-10.9 39.6 0l44.2 44.2 108.2-108.2c10.9-10.9 28.7-10.9 39.6 0z"/></svg>