<svg xmlns="http://www.w3.org/2000/svg" viewBox="0 0 512 512"><!--! Font Awesome Pro 6.1.1 by @fontawesome - https://fontawesome.com License - https://fontawesome.com/license (Commercial License) Copyright 2022 Fonticons, Inc.--><path d="M256 0C114.6 0 0 114.6 0 256s114.6 256 256 256 256-114.6 256-256S397.4 0 256 0zm0 464c-114.7 0-208-93.31-208-208S141.3 48 256 48s208 93.31 208 208-93.3 208-208 208zm0-336c-52.9 0-96 43.1-96 96v64c0 52.94 43.06 96 96 96s96-43.06 96-96v-64c0-52.9-43.1-96-96-96zm48 160c0 26.47-21.53 48-48 48s-48-21.5-48-48v-64c0-26.47 21.53-48 48-48s48 21.53 48 48v64z"/></svg>