<svg xmlns="http://www.w3.org/2000/svg" viewBox="0 0 512 512"><!--! Font Awesome Pro 6.1.1 by @fontawesome - https://fontawesome.com License - https://fontawesome.com/license (Commercial License) Copyright 2022 Fonticons, Inc.--><path d="M360 232c-13.25 0-24 10.75-24 24 0 44.11-35.89 80-80 80s-80-35.9-80-80c0-13.25-10.75-24-24-24s-24 10.8-24 24c0 62.36 44.88 114.3 104 125.6V392c0 13.3 10.8 24 24 24s24-10.75 24-24v-10.43C339.1 370.3 384 318.4 384 256c0-13.2-10.7-24-24-24zm-104 72c26.52 0 48-21.48 48-48v-32h-24a8 8 0 0 1 0-16h24v-32h-24c-4.418 0-8-3.582-8-8s3.6-8 8-8h24v-16c0-26.5-21.5-48-48-48s-48 21.5-48 48v112c0 26.5 21.5 48 48 48zm0-304C114.6 0 0 114.6 0 256s114.6 256 256 256 256-114.6 256-256S397.4 0 256 0zm0 464c-114.7 0-208-93.31-208-208S141.3 48 256 48s208 93.31 208 208-93.3 208-208 208z"/></svg>