<svg xmlns="http://www.w3.org/2000/svg" viewBox="0 0 512 512"><!--! Font Awesome Pro 6.1.1 by @fontawesome - https://fontawesome.com License - https://fontawesome.com/license (Commercial License) Copyright 2022 Fonticons, Inc.--><path d="M256 0C114.6 0 0 114.6 0 256s114.6 256 256 256 256-114.6 256-256S397.4 0 256 0zm0 464c-114.7 0-208-93.31-208-208S141.3 48 256 48s208 93.31 208 208-93.3 208-208 208zm26.2-237.6-61.8-7.2 8.2-43.2H312c13.25 0 24-10.75 24-24s-10.7-24-24-24H208.7c-11.5 0-21.4 8.2-23.5 19.5l-16.73 88c-1.27 6.6.23 13.3 4.13 18.7a24.05 24.05 0 0 0 16.56 9.656l87.39 10.28C292.2 275.9 304 289.2 304 304.9c0 17.2-13.9 31.1-31.9 31.1h-48.7c-7.547 0-14.2-4.812-16.59-11.97-4.21-12.53-18.71-19.23-30.41-15.23-12.58 4.188-19.38 17.78-15.19 30.38C170.2 366 195.1 384 223.4 384h49.59c43.51 0 79.01-35.5 79.01-79.1 0-40.1-30.9-73.8-69.8-78.5z"/></svg>