<svg xmlns="http://www.w3.org/2000/svg" viewBox="0 0 512 512"><!--! Font Awesome Pro 6.1.1 by @fontawesome - https://fontawesome.com License - https://fontawesome.com/license (Commercial License) Copyright 2022 Fonticons, Inc.--><path d="M256 0C114.6 0 0 114.6 0 256s114.6 256 256 256 256-114.6 256-256S397.4 0 256 0zm0 464c-114.7 0-208-93.31-208-208S141.3 48 256 48s208 93.31 208 208-93.3 208-208 208zm112-256c0-44.1-35.9-80-80-80H184c-13.2 0-24 10.8-24 24v208c0 13.3 10.8 24 24 24s24-10.75 24-24v-72h45.97l62.63 86.11c4.7 6.49 12 9.89 19.4 9.89 4.875 0 9.812-1.484 14.09-4.594 10.72-7.797 13.09-22.8 5.281-33.52l-44.77-61.55C343.7 274.5 368 244.2 368 208zm-80 32h-80v-64h80c17.66 0 32 14.36 32 32s-14.3 32-32 32z"/></svg>