<svg xmlns="http://www.w3.org/2000/svg" viewBox="0 0 512 512"><!--! Font Awesome Pro 6.1.1 by @fontawesome - https://fontawesome.com License - https://fontawesome.com/license (Commercial License) Copyright 2022 Fonticons, Inc.--><path d="M344 164.7c-13.25 0-24 10.75-24 24v97.34L184.1 151c-9.375-9.375-24.56-9.375-33.94 0s-9.375 24.56 0 33.94L286.1 320h-97.4c-13.25 0-24 10.75-24 24s10.75 24 24 24H344c13.25 0 24-10.75 24-24V188.7c0-13.2-10.7-24-24-24zM256 0C114.6 0 0 114.6 0 256s114.6 256 256 256 256-114.6 256-256S397.4 0 256 0zm0 464c-114.7 0-208-93.31-208-208S141.3 48 256 48s208 93.31 208 208-93.3 208-208 208z"/></svg>