<svg xmlns="http://www.w3.org/2000/svg" viewBox="0 0 512 512"><!--! Font Awesome Pro 6.1.1 by @fontawesome - https://fontawesome.com License - https://fontawesome.com/license (Commercial License) Copyright 2022 Fonticons, Inc.--><path d="M337.2 177.8c-3-1.2-6.1-1.8-9.2-1.8a23.995 23.995 0 0 0-16.97 7.031l-41.37 41.38L205.1 159.8c-9.4-9.3-24.6-9.3-34 0l-11.3 11.3c-9.369 9.367-9.369 24.57 0 33.94l64.57 64.57L183 311c-6.859 6.875-8.922 17.19-5.203 26.16S190.3 352 200 352h128c13.25 0 24-10.75 24-24V200c0-9.7-5.8-18.5-14.8-22.2zM256 0C114.6 0 0 114.6 0 256s114.6 256 256 256 256-114.6 256-256S397.4 0 256 0zm0 464c-114.7 0-208-93.31-208-208S141.3 48 256 48s208 93.31 208 208-93.3 208-208 208z"/></svg>