<svg xmlns="http://www.w3.org/2000/svg" viewBox="0 0 512 512"><!--! Font Awesome Pro 6.1.1 by @fontawesome - https://fontawesome.com License - https://fontawesome.com/license (Commercial License) Copyright 2022 Fonticons, Inc.--><path d="M256 0C114.6 0 0 114.6 0 256s114.6 256 256 256 256-114.6 256-256S397.4 0 256 0zm0 464c-114.7 0-208-93.31-208-208S141.3 48 256 48s208 93.31 208 208-93.3 208-208 208zm21.2-247.5 51.06-46.81a24 24 0 0 0 6.156-26.38C330.8 134.1 321.9 128 312 128H184c-13.2 0-24 10.8-24 24s10.8 24 24 24h66.3l-50.5 46.3c-7.3 6.7-9.8 17.2-6.2 26.4 3.6 9.2 12.5 15.3 22.4 15.3h52c19.84 0 36 16.16 36 36s-16.2 36-36 36h-44.6c-7.547 0-14.2-4.812-16.59-11.97C202.6 311.5 189 304.8 176.4 308.8c-12.58 4.188-19.38 17.78-15.19 30.38C170.2 366 195.1 384 223.4 384H268c46.3 0 84-37.7 84-84 0-43.2-32.8-78.9-74.8-83.5z"/></svg>