<svg xmlns="http://www.w3.org/2000/svg" viewBox="0 0 512 512"><!--! Font Awesome Pro 6.1.1 by @fontawesome - https://fontawesome.com License - https://fontawesome.com/license (Commercial License) Copyright 2022 Fonticons, Inc.--><path d="M256 0C114.6 0 0 114.6 0 256s114.6 256 256 256 256-114.6 256-256S397.4 0 256 0zm0 464c-114.7 0-208-93.31-208-208S141.3 48 256 48s208 93.31 208 208-93.3 208-208 208zm54.1-264.6c9.359 9.438 24.55 9.445 33.94.133 9.422-9.344 9.484-24.53.156-33.94-48.05-48.47-131.9-48.47-179.9 0-49.44 49.88-49.44 131 0 180.9C189.2 370.7 221.1 384 255.1 384c.016 0 0 0 0 0 33.98 0 65.95-13.34 89.96-37.56 9.328-9.438 9.266-24.62-.156-33.94-9.391-9.375-24.61-9.25-33.94.125C296 327.7 276.2 336 255.1 336c-21.09 0-40.92-8.312-55.84-23.38-30.97-31.22-30.97-82.03 0-113.3 29.84-30.02 81.84-30.12 110.84.08z"/></svg>