<svg xmlns="http://www.w3.org/2000/svg" viewBox="0 0 512 512"><!--! Font Awesome Pro 6.1.1 by @fontawesome - https://fontawesome.com License - https://fontawesome.com/license (Commercial License) Copyright 2022 Fonticons, Inc.--><path d="M328 160H200c-9.7 0-18.5 5.8-22.2 14.8s-1.6 19.3 5.2 25.3l41.37 41.38-64.57 65.42c-9.369 9.371-9.369 24.57 0 33.94l11.31 11.31c9.369 9.371 24.57 9.371 33.94 0l64.57-64.57 41.37 41.38C315.6 333.6 321.8 336 328 336c3.094 0 6.219-.594 9.188-1.812C346.2 330.5 352 321.7 352 312V184c0-13.2-10.7-24-24-24zM256 0C114.6 0 0 114.6 0 256s114.6 256 256 256 256-114.6 256-256S397.4 0 256 0zm0 464c-114.7 0-208-93.31-208-208S141.3 48 256 48s208 93.31 208 208-93.3 208-208 208z"/></svg>