<svg xmlns="http://www.w3.org/2000/svg" viewBox="0 0 512 512"><!--! Font Awesome Pro 6.1.1 by @fontawesome - https://fontawesome.com License - https://fontawesome.com/license (Commercial License) Copyright 2022 Fonticons, Inc.--><path d="M340.9 159.8c-9.369-9.371-24.57-9.373-33.94-.002L242.3 224.4 200.1 183c-3.7-4.6-9.9-7-16.1-7-3.094 0-6.219.594-9.188 1.812C165.8 181.5 160 190.3 160 200v128c0 13.3 10.8 24 24 24h128c9.703 0 18.45-5.844 22.17-14.81s1.656-19.28-5.203-26.16l-41.37-41.38 64.57-64.57c9.369-9.371 9.369-24.57 0-33.94L340.9 159.8zM256 0C114.6 0 0 114.6 0 256s114.6 256 256 256 256-114.6 256-256S397.4 0 256 0zm0 464c-114.7 0-208-93.31-208-208S141.3 48 256 48s208 93.31 208 208-93.3 208-208 208z"/></svg>