<svg xmlns="http://www.w3.org/2000/svg" viewBox="0 0 512 512"><!--! Font Awesome Pro 6.1.1 by @fontawesome - https://fontawesome.com License - https://fontawesome.com/license (Commercial License) Copyright 2022 Fonticons, Inc.--><path d="M256 0C114.6 0 0 114.6 0 256s114.6 256 256 256 256-114.6 256-256S397.4 0 256 0zm0 464c-114.7 0-208-93.31-208-208S141.3 48 256 48s208 93.31 208 208-93.3 208-208 208zm72-192h-8v-50.7c0-13.25-10.75-24-24-24s-24 10.75-24 24V272h-65.5l47.58-110.5c5.234-12.19-.375-26.31-12.56-31.53-12.22-5.27-26.32.33-32.42 12.53l-62 144c-3.188 7.438-2.438 15.94 2 22.69s12.8 10.81 20 10.81H272v40c0 13.25 10.75 24 24 24s24-10.7 24-24v-40h8c13.3 0 24-10.7 24-24s-10.7-24-24-24z"/></svg>