<svg xmlns="http://www.w3.org/2000/svg" viewBox="0 0 512 512"><!--! Font Awesome Pro 6.1.1 by @fontawesome - https://fontawesome.com License - https://fontawesome.com/license (Commercial License) Copyright 2022 Fonticons, Inc.--><path d="M256 0C114.6 0 0 114.6 0 256s114.6 256 256 256 256-114.6 256-256S397.4 0 256 0zm0 464c-114.7 0-208-93.31-208-208S141.3 48 256 48s208 93.31 208 208-93.3 208-208 208zm111.4-334.8c-9.953-3.25-20.75.313-26.84 8.781L256 255l-84.5-117.9c-6.1-7.6-17-11.2-26.9-7.9-9.9 3.2-16.6 12.4-16.6 22.8v208c0 13.3 10.8 24 24 24s24-10.75 24-24V226.2l60.55 83.83c9.031 12.5 29.88 12.5 38.91 0L336 226.2V360c0 13.25 10.75 24 24 24s24-10.7 24-24V152c0-10.4-6.7-19.6-16.6-22.8z"/></svg>