<svg xmlns="http://www.w3.org/2000/svg" viewBox="0 0 512 512"><!--! Font Awesome Pro 6.1.1 by @fontawesome - https://fontawesome.com License - https://fontawesome.com/license (Commercial License) Copyright 2022 Fonticons, Inc.--><path d="m374.5 303.6-54.24-23.25c-6.391-2.766-13.9-.906-18.24 4.484L280 311.744c-34.63-17-62.77-45.14-79.77-79.75L227.2 209.1a15.643 15.643 0 0 0 4.492-18.22L208.4 137.5c-3-7-10.6-10.8-17.9-9.1L140.1 140c-8 1.7-13 7.9-13 15.2 0 126.1 102.6 228.8 228.7 228.8 7.336 0 13.6-4.984 15.24-12.11l11.62-50.39c2.64-7.3-1.16-14.9-8.16-17.9zM256 0C114.6 0 0 114.6 0 256s114.6 256 256 256 256-114.6 256-256S397.4 0 256 0zm0 464c-114.7 0-208-93.31-208-208S141.3 48 256 48s208 93.31 208 208-93.3 208-208 208z"/></svg>