<svg xmlns="http://www.w3.org/2000/svg" viewBox="0 0 512 512"><!--! Font Awesome Pro 6.1.1 by @fontawesome - https://fontawesome.com License - https://fontawesome.com/license (Commercial License) Copyright 2022 Fonticons, Inc.--><path d="m371.9 140-50.38-11.62c-7.344-1.703-14.88 2.109-17.93 9.062L280.3 191.7a15.642 15.642 0 0 0 4.492 18.22l26.91 22.05c-16.99 34.61-45.14 62.75-79.77 79.75L209.9 284.9c-4.3-5.4-11.8-7.3-18.2-4.5l-54.2 23.2c-6.953 3-10.74 10.58-9.055 17.88l11.62 50.39c1.633 7.125 7.9 12.11 15.24 12.11 126.1 0 228.7-102.6 228.7-228.8C384 147.9 379 141.7 371.9 140zM256 0C114.6 0 0 114.6 0 256s114.6 256 256 256 256-114.6 256-256S397.4 0 256 0zm0 464c-114.7 0-208-93.31-208-208S141.3 48 256 48s208 93.31 208 208-93.3 208-208 208z"/></svg>