<svg xmlns="http://www.w3.org/2000/svg" viewBox="0 0 512 512"><!--! Font Awesome Pro 6.1.1 by @fontawesome - https://fontawesome.com License - https://fontawesome.com/license (Commercial License) Copyright 2022 Fonticons, Inc.--><path d="M276.1 118.3c6.6 1.2 16.6 3.2 21 4.4 10.7 2.8 17.1 13.8 14.2 24.4-2.8 10.7-13.8 17.1-24.4 14.2-3.9-1-17.4-3.6-21.8-5.2-12.2-1-23 .6-28.6 3.5-6.3 2.8-7.8 6.1-8.2 8.1-.6 3.4 0 4.6.2 5 .2.5 1 1.7 3.6 3.5 6.1 4.2 15.7 7.2 29 11.5l1.7.2c12.1 3.7 28.3 8.5 40.4 17.4 6.7 4.8 13 11.4 16.9 20.4 4 9.1 4.8 19.1 3 29.5-3.3 19-15.9 32-31.7 38.7-4.8 1.2-10 3.6-15.3 4.6v4.6c0 12-9 21-21 21-10.2 0-19.2-9-19.2-21v-5.5c-9.5-2.2-22.8-6.4-29.8-9.1-1.7-.6-3.2-1.1-4.4-2.4-10.5-2.6-16.2-13.9-12.7-24.4 3.5-10.5 14.8-16.2 25.3-12.7 2 .7 4.2 1.4 6.4 2.2 9.5 3.2 20.2 6.8 26.2 7.8 12.8 2 22.7.7 28.8-1.9 5.5-2.3 7.4-5.3 8-8.8.7-4 .1-5.8-.3-6.6-.3-.9-1.2-2.3-3.7-4.1-5.9-4.3-15.3-7.4-29.3-11.7l-2.2-.6c-11.7-3.5-27-8.1-38.6-16-6.6-4.5-13.1-10.7-17.3-19.5-4.2-8.9-5.2-18.8-3.4-29 3.2-18.3 16.2-30.9 31.1-37.7 4.1-2.2 10.3-3.9 15.9-5.1v-6.9c0-10.2 9-19.2 20.1-19.2 11.1 0 20.1 9 20.1 19.2v7.2zM48 208C48 93.12 141.1 0 256 0s208 93.12 208 208c0 114.9-93.1 208-208 208S48 322.9 48 208zm208 160c88.4 0 160-71.6 160-160S344.4 48 256 48 96 119.6 96 208s71.6 160 160 160zm-144.9 32H64c-8.84 0-16 7.2-16 16v32c0 8.8 7.16 16 16 16h384c8.8 0 16-7.2 16-16v-32c0-8.8-7.2-16-16-16h-48c18.2-13.7 34.4-29.8 48-48 35.4 0 64 28.7 64 64v32c0 35.3-28.7 64-64 64H64c-35.35 0-64-28.7-64-64v-32c0-35.3 28.64-64 63.98-64 13.65 18.2 29.82 34.3 47.12 48z"/></svg>