<svg xmlns="http://www.w3.org/2000/svg" viewBox="0 0 512 512"><!--! Font Awesome Pro 6.1.1 by @fontawesome - https://fontawesome.com License - https://fontawesome.com/license (Commercial License) Copyright 2022 Fonticons, Inc.--><path d="M276.8 147.8c9.7 1.2 19.4 3.9 29 6.6 1.8.5 3.7 1.1 5.5.7 11.5 4.1 18.3 16 15.1 27.5-3.2 11.5-15.1 18.2-26.6 15-1.5-.4-3.1-.8-4.6-1.3-7-1.9-14-3.9-21.1-5.3-13.2-2.5-28.5-1.3-40.9 4-11 4.8-20.1 16.4-7.6 24.4 9.9 6.3 21.8 9.5 33.2 11.7 2.3 1.5 4.7 2.2 7 2.8 15.6 4.5 35.5 10.1 50.4 20.3 19.4 13.3 28.5 35 24.3 58.2-4.2 22.4-19.7 37.1-38.5 44.6-7.8 3.2-16.3 5.2-25.2 6.2v15.2c0 11.9-9.7 21.6-21.6 21.6-11.9 0-21.6-9.7-21.6-21.6V361c-14.5-3.2-28.7-7.9-42.8-12.5-11.3-3.7-17.5-16-13.7-27.3 3.7-11.3 16-17.5 27.3-13.7 2.5.8 5 1.7 7.5 2.5 11.3 3.8 22.9 7.8 34.5 9.6 17 2.5 29.7 1 39.5-3.5 12-4 17.6-18.2 5.9-26.2-10.1-7.8-22.6-10.3-34.5-13.5-3.2-.7-4.6-1.3-6.8-1.9-15.1-4.3-33.9-9.6-48.1-18.7-19.5-12.5-29.5-33.3-25.3-56.4 4-21.8 21-36.3 39-44 5.5-3.3 11.4-4.3 17.5-5.7v-16.1c0-11.9 9.7-22.5 21.6-22.5 11.9 0 21.6 10.6 21.6 22.5v14.2zM512 256c0 141.4-114.6 256-256 256S0 397.4 0 256 114.6 0 256 0s256 114.6 256 256zM256 48C141.1 48 48 141.1 48 256s93.1 208 208 208 208-93.1 208-208S370.9 48 256 48z"/></svg>