<svg xmlns="http://www.w3.org/2000/svg" viewBox="0 0 512 512"><!--! Font Awesome Pro 6.1.1 by @fontawesome - https://fontawesome.com License - https://fontawesome.com/license (Commercial License) Copyright 2022 Fonticons, Inc.--><path d="M27.73 232c-14.28 0-25.577-12.3-22.783-26.3 6.643-33.3 19.743-64.3 37.953-91.6 7.93-11.9 24.63-12.6 34.74-2.5 8.71 8.7 9.37 22.5 2.75 32.9-12.73 20-22.13 42.3-27.44 66.2-2.67 12-12.89 21.3-25.22 21.3zM144.5 80.39c-10.4 6.62-24.2 5.96-32.9-2.75-10.1-10.11-9.4-26.81 2.5-34.74 27.3-18.21 58.3-31.31 91.6-37.953 14-2.794 26.3 8.503 26.3 22.783 0 12.33-9.3 22.55-21.3 25.22-23.9 5.31-46.2 14.71-66.2 27.44zM280 484.3c0-12.4 9.3-22.6 21.3-25.3 23.9-5.3 46.2-14.7 66.2-27.4 10.4-7.5 24.2-6 32.9 2.8 10.1 10.1 9.4 26.8-2.5 34.7-27.3 18.2-58.3 31.3-91.6 38-14 2.7-26.3-8.5-26.3-22.8zm179-183c2.7-12 12.9-21.3 25.3-21.3 14.3 0 25.5 12.3 22.8 26.3-6.7 33.3-19.8 64.3-38 91.6-7.9 11.9-24.6 12.6-34.7 2.5-8.8-8.7-10.3-22.5-2.8-32.9 12.7-20 22.1-42.3 27.4-66.2zM144.5 431.6c20 12.7 42.3 22.1 66.2 27.4 12 2.7 21.3 12.9 21.3 25.3 0 14.3-12.3 25.5-26.3 22.8-33.3-6.7-64.3-19.8-91.6-38-11.9-7.9-12.6-24.6-2.5-34.7 8.7-8.8 22.5-10.3 32.9-2.8zM4.947 306.3C2.153 292.3 13.45 280 27.73 280c12.33 0 22.55 9.3 25.22 21.3 5.31 23.9 14.71 46.2 27.44 66.2 6.62 10.4 5.96 24.2-2.75 32.9-10.11 10.1-26.81 9.4-34.74-2.5-18.21-27.3-31.31-58.3-37.953-91.6zM367.5 80.39c-20-12.73-42.3-22.13-66.2-27.44-12-2.67-21.3-12.89-21.3-25.22 0-14.28 12.3-25.577 26.3-22.783 33.3 6.643 64.3 19.743 91.6 37.953 11.9 7.93 12.6 24.63 2.5 34.74-8.7 8.71-22.5 9.37-32.9 2.75zm64.1 64.11c-7.5-10.4-6-24.2 2.8-32.9 10.1-10.1 26.8-9.4 34.7 2.5 18.2 27.3 31.3 58.3 38 91.6 2.7 14-8.5 26.3-22.8 26.3-12.4 0-22.6-9.3-25.3-21.3-5.3-23.9-14.7-46.2-27.4-66.2z"/></svg>