<svg xmlns="http://www.w3.org/2000/svg" viewBox="0 0 512 512"><!--! Font Awesome Pro 6.1.1 by @fontawesome - https://fontawesome.com License - https://fontawesome.com/license (Commercial License) Copyright 2022 Fonticons, Inc.--><path d="M425.3 7.031c-9.375-9.375-24.56-9.375-33.94 0L7.037 391.4c-10.56 10.56-8.143 25.79 0 33.94C62.91 481.2 137.2 512 216.2 512c79.03 0 153.3-30.77 209.2-86.64C481.2 369.5 512 295.2 512 216.2S481.2 62.89 425.3 7.031zM239.1 261.7l83.3 83.3c-30 24.8-66.8 39-106.2 39-2.8 0-5.4-.5-8.2-.7V269.1c10.8 1 21.5-1.8 31.1-7.4zm106 60.7-83.3-83.3c5.5-9.6 8.3-20.3 7.3-31.1h113.4c.133 2.748.654 5.418.654 8.188C384 255.6 369.8 292.4 345.1 322.4zM378.6 176h-88.3l60.29-60.3c13.61 18 22.71 38.6 28.01 60.3zM176 290.3v88.28c-21.71-5.34-42.25-14.47-60.28-28L176 290.3zm215.4 101.1c-46.8 46.8-109 72.6-175.2 72.6-58.12 0-113.2-19.9-157.4-56.45l22.81-22.81C119.7 415.3 166.6 432 216.2 432c57.63 0 111.8-22.45 152.6-63.22 40.77-40.76 63.22-94.95 63.22-152.6 0-49.55-16.69-96.5-47.25-134.6l22.81-22.81c36.54 44.26 56.44 99.31 56.44 157.4C464 282.4 438.2 344.6 391.4 391.4z"/></svg>