<svg xmlns="http://www.w3.org/2000/svg" viewBox="0 0 512 512"><!--! Font Awesome Pro 6.1.1 by @fontawesome - https://fontawesome.com License - https://fontawesome.com/license (Commercial License) Copyright 2022 Fonticons, Inc.--><path d="M496 271.1C496 404.3 388.3 512 256 512S16 404.3 16 272 123.7 31.1 256 31.1c17.55 0 34.8 2.515 51.75 6.255C325.3 15.14 352.7 0 384 0h80c8.8 0 16 7.162 16 16v16c0 53.02-42.98 96-96 96h-80c-8.8 0-16-7.2-16-16V96c0-4.396.723-8.596 1.295-12.84C278.3 81.25 267.2 80 256 80 150.1 80 64 166.13 64 272s86.13 192 192 192 192-86.13 192-192c0-31.06-7.156-60.67-21.31-88-6.094-11.78-1.5-26.25 10.28-32.34 11.81-6.172 26.28-1.484 32.34 10.28C486.8 195.7 496 233.7 496 271.1z"/></svg>