<svg xmlns="http://www.w3.org/2000/svg" viewBox="0 0 640 512"><!--! Font Awesome Pro 6.1.1 by @fontawesome - https://fontawesome.com License - https://fontawesome.com/license (Commercial License) Copyright 2022 Fonticons, Inc.--><path d="M104 0c13.3 0 24 10.75 24 24v40h48V24c0-13.25 10.7-24 24-24s24 10.75 24 24v88H72c-13.25 0-24 10.7-24 24v304c0 13.3 10.75 24 24 24h152c0 18 5.1 34.6 15.1 48H72c-39.76 0-72-32.2-72-72V136c0-39.76 32.24-72 72-72h8V24c0-13.25 10.75-24 24-24zm248 304c0-8.8 7.2-16 16-16h32c8.8 0 16 7.2 16 16v32c0 8.8-7.2 16-16 16h-32c-8.8 0-16-7.2-16-16v-32zm48-208c8.8 0 16 7.2 16 16v32c0 8.8-7.2 16-16 16h-32c-8.8 0-16-7.2-16-16v-32c0-8.8 7.2-16 16-16h32zm-48 112c0-8.8 7.2-16 16-16h32c8.8 0 16 7.2 16 16v32c0 8.8-7.2 16-16 16h-32c-8.8 0-16-7.2-16-16v-32zm144 208c-8.8 0-16-7.2-16-16v-32c0-8.8 7.2-16 16-16h32c8.8 0 16 7.2 16 16v32c0 8.8-7.2 16-16 16h-32zm-16-144c0-8.8 7.2-16 16-16h32c8.8 0 16 7.2 16 16v32c0 8.8-7.2 16-16 16h-32c-8.8 0-16-7.2-16-16v-32zm32-112h64c35.3 0 64 28.7 64 64v224c0 35.3-28.7 64-64 64H320c-35.3 0-64-28.7-64-64V64c0-35.35 28.7-64 64-64h128c35.3 0 64 28.65 64 64v96zm-48-96c0-8.84-7.2-16-16-16H320c-8.8 0-16 7.16-16 16v384c0 8.8 7.2 16 16 16h256c8.8 0 16-7.2 16-16V224c0-8.8-7.2-16-16-16H464V64zM112 320c-8.8 0-16-7.2-16-16v-32c0-8.8 7.2-16 16-16h32c8.8 0 16 7.2 16 16v32c0 8.8-7.2 16-16 16h-32zm-16 48c0-8.8 7.2-16 16-16h32c8.8 0 16 7.2 16 16v32c0 8.8-7.2 16-16 16h-32c-8.8 0-16-7.2-16-16v-32zm16-144c-8.8 0-16-7.2-16-16v-32c0-8.8 7.2-16 16-16h32c8.8 0 16 7.2 16 16v32c0 8.8-7.2 16-16 16h-32z"/></svg>