<svg xmlns="http://www.w3.org/2000/svg" viewBox="0 0 512 512"><!--! Font Awesome Pro 6.1.1 by @fontawesome - https://fontawesome.com License - https://fontawesome.com/license (Commercial License) Copyright 2022 Fonticons, Inc.--><path d="M448 32H64C28.65 32 0 60.65 0 96v320c0 35.35 28.65 64 64 64h384c35.35 0 64-28.65 64-64V96c0-35.35-28.7-64-64-64zM254.1 80h67.88l-80 80H174.1l80-80zM48 126.1 94.06 80h67.88l-80 80H48v-33.9zM464 416c0 8.822-7.178 16-16 16H64c-8.822 0-16-7.178-16-16V208h416v208zm0-318.06L401.9 160h-67.88l80-80H448c8.822 0 16 7.178 16 16v1.94zM218.7 400a10.3 10.3 0 0 0 5.646-1.682l106.7-68.97C334.1 327.3 336 323.8 336 319.1s-1.896-7.34-5.021-9.354l-106.7-68.97c-3.179-1.276-7.379-1.276-10.779.624-3.4 1.9-5.5 5.6-5.5 9.6v137.9c0 4.008 2.104 7.705 5.5 9.656 1.6.944 3.4 1.444 5.2 1.444z"/></svg>