<svg xmlns="http://www.w3.org/2000/svg" viewBox="0 0 640 512"><!--! Font Awesome Pro 6.1.1 by @fontawesome - https://fontawesome.com License - https://fontawesome.com/license (Commercial License) Copyright 2022 Fonticons, Inc.--><path d="M272 231.1c-13.25 0-24 10.75-24 23.1 0 13.25 10.75 23.1 24 23.1s24-8.1 24-22.2c0-12.4-10.7-24-24-24zm96 0c-13.25 0-24 10.75-24 23.1 0 13.25 10.75 23.1 24 23.1s24-10.75 24-23.1c0-11.5-10.7-23.1-24-23.1zm248-120c-4.75 0-9.375 1.375-13.25 3.1l-66 43.1-56.75 1.8v-32h16c8.8 0 16-7.2 16-15.1s-7.2-16-16-16H240c-8.8 0-16 7.2-16 15.1s7.2 15.1 16 15.1h16v31.1l-149.6-.001a63.976 63.976 0 0 0-20.27 3.295L21.82 184.8C8.754 189.1 0 201.3 0 215.1v81.82c0 13.77 8.81 26 21.87 30.37l64.25 21.45a64.009 64.009 0 0 0 20.27 3.295h430.4l66 43.1c7.375 4.875 16.75 5.375 24.62 1.125C635.1 392.1 640 384.9 640 375.1v-240c0-12.4-10.7-24-24-24zm-232 16h64v31.1h-64v-31.1zm-96 0h64v31.1l-64 .9v-32zm304 204-40.75-27.12H103.8L48 285.4v-58.8l55.75-18.62h447.5L592 180.9v150.2zm-128-100c-13.25 0-24 10.75-24 23.1 0 13.25 10.75 23.1 24 23.1s24-10.75 24-23.1c0-11.5-10.7-23.1-24-23.1z"/></svg>