<svg xmlns="http://www.w3.org/2000/svg" viewBox="0 0 512 512"><!--! Font Awesome Pro 6.1.1 by @fontawesome - https://fontawesome.com License - https://fontawesome.com/license (Commercial License) Copyright 2022 Fonticons, Inc.--><path d="M7.057 224.5c-.74-.3-1.467-1.4-2.154-1.4-2.714 0-4.83 2.446-4.83 5.048 0 1.194.446 2.422 1.485 3.46l85.12 85.12c5.1 5.1 9.375 14.13 9.375 22.62l-.013 43.75 43.76-.003c8.5 0 16.62 3.375 22.62 9.375l117.1 117.1c1.04 1.039 2.272 1.485 3.453 1.485 2.563 0 5.016-2.121 5.016-4.82C288 502.6 208.7 320.2 7.057 224.5zM246.7 29.63c5.1 5.1 9.333 14.13 9.333 22.62V96l43.75-.005c8.498 0 16.62 3.375 22.62 9.375l52.25 52.25c5.1 5.1 9.374 14.13 9.374 22.62v43.75l43.75-.004c8.5 0 16.62 3.375 22.62 9.375l53.12 53.12c1.04 1.039 2.267 1.485 3.46 1.485 2.603 0 5.049-2.116 5.049-4.83a5 5 0 0 0-.509-2.154c-92.97-196.1-276.6-281-282.6-281-2.714 0-4.83 2.446-4.83 5.048 0 1.194.446 2.422 1.485 3.46L246.7 29.63zM511.1 479.1c0-4.538-.97-9.128-2.984-13.47l-1.5-2.1C363.3 155.2 67.57.061 32.08.061 21.05.061 0 8.603 0 32.6c0 7.778 2.739 15.19 7.772 20.15l144.4 179.7v63.5h61.1l65.87 65.1v61.1h64.5l114.1 80.5C465.1 509.3 472.4 512 479.1 512c6.375 0 12.75-1.1 18.37-5.875C507.2 499.9 511.1 490.1 511.1 479.1zM359.6 376h-31.62v-33.1L234 248h-33.9v-32.5L92.89 82.13c184.1 106.7 289.9 253.2 342.1 347.2L359.6 376z"/></svg>