<svg xmlns="http://www.w3.org/2000/svg" viewBox="0 0 384 512"><!--! Font Awesome Pro 6.1.1 by @fontawesome - https://fontawesome.com License - https://fontawesome.com/license (Commercial License) Copyright 2022 Fonticons, Inc.--><path d="M320 64h-49.61C262.1 27.48 230.7 0 192 0s-71 27.48-78.4 64H64C28.65 64 0 92.66 0 128v320c0 35.34 28.65 64 64 64h256c35.35 0 64-28.66 64-64V128c0-35.34-28.7-64-64-64zM192 48c13.23 0 24 10.77 24 24s-10.8 24-24 24-24-10.77-24-24 10.8-24 24-24zm144 400c0 8.82-7.178 16-16 16H64c-8.822 0-16-7.18-16-16V128c0-8.82 7.178-16 16-16h18.26c-1.33 5.1-2.26 10.4-2.26 16v16c0 8.8 7.16 16 16 16h192c8.836 0 16-7.164 16-16v-16c0-5.559-.932-10.86-2.264-16H320c8.822 0 16 7.18 16 16v320zm-41.8-126.2c-7.812-7.812-20.5-7.812-28.31 0L240 347.7l-32.72-32.72C224.4 304.4 236 285.6 236 264c0-33.09-26.91-60-60-60h-72c-11.03 0-20 8.1-20 20v144c0 11.03 8.969 20 20 20s20-8.969 20-20v-44h35.69l52 52-25.84 25.84c-7.781 7.812-7.781 20.5 0 28.31C189.8 434.1 194.9 436 200 436s10.25-1.938 14.16-5.844L240 404.3l25.84 25.84C269.8 434.1 274.9 436 280 436s10.25-1.938 14.16-5.844c7.781-7.812 7.781-20.5 0-28.31L268.3 376l25.84-25.84c7.76-7.86 7.76-20.46.06-28.36zM176 284h-52v-40h52c11.03 0 20 8.969 20 20s-9 20-20 20z"/></svg>