<svg xmlns="http://www.w3.org/2000/svg" viewBox="0 0 384 512"><!--! Font Awesome Pro 6.1.1 by @fontawesome - https://fontawesome.com License - https://fontawesome.com/license (Commercial License) Copyright 2022 Fonticons, Inc.--><path d="M105.8 229.3c8-22.4 29.1-37.3 52.8-37.3h58.3c34.8 0 63.1 28.3 63.1 63.1 0 22.7-12.1 43.6-31.7 54.8l-33.2 18.5c.7 13.1-10 23.6-23.1 23.6-13.3 0-24-10.7-24-24v-13.5c0-8.6 4.6-16.5 12.1-20.8l44.3-25.4c4.7-2.7 7.6-7.7 7.6-13.2 0-8.3-6.8-16-15.1-16h-58.3c-3.4 0-6.4 3-7.5 6.2l-.5 1.3c-4.4 12.5-18.1 19-31.5 14.6-11.6-4.5-18.2-18.2-13.7-30.7l.4-1.2zM224 416c0 17.7-14.3 32-32 32s-32-14.3-32-32 14.3-32 32-32 32 14.3 32 32zm160-288v320c0 35.3-28.7 64-64 64H64c-35.35 0-64-28.7-64-64V128c0-35.35 28.65-64 64-64h49.6C121 27.48 153.3 0 192 0s70.1 27.48 78.4 64H320c35.3 0 64 28.65 64 64zM80 112H64c-8.84 0-16 7.2-16 16v320c0 8.8 7.16 16 16 16h256c8.8 0 16-7.2 16-16V128c0-8.8-7.2-16-16-16h-16v24c0 13.3-10.7 24-24 24H104c-13.25 0-24-10.7-24-24v-24zm112-56c-13.3 0-24 10.75-24 24s10.7 24 24 24 24-10.75 24-24-10.7-24-24-24z"/></svg>