<svg xmlns="http://www.w3.org/2000/svg" viewBox="0 0 384 512"><!--! Font Awesome Pro 6.1.1 by @fontawesome - https://fontawesome.com License - https://fontawesome.com/license (Commercial License) Copyright 2022 Fonticons, Inc.--><path d="M104 248c-13.25 0-24 10.7-24 24s10.75 24 24 24c13.3 0 24-10.7 24-24s-10.7-24-24-24zm0 96c-13.25 0-24 10.75-24 24s10.75 24 24 24c13.3 0 24-10.7 24-24s-10.7-24-24-24zm184 8H176c-8.8 0-16 7.2-16 16s7.2 16 16 16h112c8.844 0 16-7.156 16-16s-7.2-16-16-16zm32-288h-49.61C262.1 27.48 230.7 0 192 0s-71 27.48-78.4 64H64C28.65 64 0 92.66 0 128v320c0 35.34 28.65 64 64 64h256c35.35 0 64-28.66 64-64V128c0-35.34-28.7-64-64-64zM192 48c13.23 0 24 10.77 24 24s-10.8 24-24 24-24-10.77-24-24 10.8-24 24-24zm144 400c0 8.82-7.178 16-16 16H64c-8.822 0-16-7.18-16-16V128c0-8.82 7.178-16 16-16h18.26c-1.33 5.1-2.26 10.4-2.26 16v16c0 8.8 7.16 16 16 16h192c8.836 0 16-7.164 16-16v-16c0-5.559-.932-10.86-2.264-16H320c8.822 0 16 7.18 16 16v320zm-48-192H176c-8.8 0-16 7.2-16 16s7.2 16 16 16h112c8.844 0 16-7.156 16-16s-7.2-16-16-16z"/></svg>