<svg xmlns="http://www.w3.org/2000/svg" viewBox="0 0 384 512"><!--! Font Awesome Pro 6.1.1 by @fontawesome - https://fontawesome.com License - https://fontawesome.com/license (Commercial License) Copyright 2022 Fonticons, Inc.--><path d="m245.1 233.2-72.5 92.3-37-31.7c-10.1-8.6-25.2-7.5-33.8 2.6-8.625 10.06-7.469 25.22 2.594 33.84l56 48C164.8 381.1 170.3 384 176 384c.781 0 1.562-.031 2.344-.125a23.93 23.93 0 0 0 16.53-9.062l88-112c8.188-10.41 6.375-25.5-4.047-33.69C268.4 220.1 253.3 222.8 245.1 233.2zM320 64h-49.61C262.1 27.48 230.7 0 192 0s-71 27.48-78.4 64H64C28.65 64 0 92.66 0 128v320c0 35.34 28.65 64 64 64h256c35.35 0 64-28.66 64-64V128c0-35.34-28.7-64-64-64zM192 48c13.23 0 24 10.77 24 24s-10.8 24-24 24-24-10.77-24-24 10.8-24 24-24zm144 400c0 8.82-7.178 16-16 16H64c-8.822 0-16-7.18-16-16V128c0-8.82 7.178-16 16-16h18.26c-1.33 5.1-2.26 10.4-2.26 16v16c0 8.8 7.16 16 16 16h192c8.836 0 16-7.164 16-16v-16c0-5.559-.932-10.86-2.264-16H320c8.822 0 16 7.18 16 16v320z"/></svg>