<svg xmlns="http://www.w3.org/2000/svg" viewBox="0 0 512 512"><!--! Font Awesome Pro 6.1.1 by @fontawesome - https://fontawesome.com License - https://fontawesome.com/license (Commercial License) Copyright 2022 Fonticons, Inc.--><path d="m232 263.3-60-90c-7.3-11-4.3-25.9 6.7-33.3 11-7.3 25.9-4.3 32.4 6.7l64 96c3.5 3.9 4.9 8.6 4.9 13.3v136c0 13.3-10.7 24-24.9 24-12.4 0-24-10.7-24-24l.9-128.7zM0 256C0 114.6 114.6 0 256 0s256 114.6 256 256-114.6 256-256 256S0 397.4 0 256zm256 208c114.9 0 208-93.1 208-208S370.9 48 256 48 48 141.1 48 256s93.1 208 208 208z"/></svg>