<svg xmlns="http://www.w3.org/2000/svg" viewBox="0 0 512 512"><!--! Font Awesome Pro 6.1.1 by @fontawesome - https://fontawesome.com License - https://fontawesome.com/license (Commercial License) Copyright 2022 Fonticons, Inc.--><path d="m232 300.8-58.7 38.3c-11 8.2-25.9 5.2-33.3-5.8-7.3-11-4.3-25.9 6.7-33.3l96-64c7.4-4.9 16.8-5.3 24.6-1.2 7.8 4.2 12.7 12.3 12.7 21.2v136c0 13.3-10.7 24-24 24s-24-10.7-24-24v-91.2zM0 256C0 114.6 114.6 0 256 0s256 114.6 256 256-114.6 256-256 256S0 397.4 0 256zm256 208c114.9 0 208-93.1 208-208S370.9 48 256 48 48 141.1 48 256s93.1 208 208 208z"/></svg>