<svg xmlns="http://www.w3.org/2000/svg" viewBox="0 0 512 512"><!--! Font Awesome Pro 6.1.1 by @fontawesome - https://fontawesome.com License - https://fontawesome.com/license (Commercial License) Copyright 2022 Fonticons, Inc.--><path d="M256 0c141.4 0 256 114.6 256 256S397.4 512 256 512c-52.2 0-100.8-15.6-141.3-42.5-11-7.3-14-22.2-7.6-33.2 8.2-11.1 23.1-14.1 34.2-6.8C174.1 451.3 213.5 464 256 464c114.9 0 208-93.1 208-208S370.9 48 256 48c-73.6 0-138.3 38.24-175.31 96H136c13.3 0 24 10.7 24 24s-10.7 24-24 24H24c-13.25 0-24-10.7-24-24V56c0-13.25 10.75-24 24-24s24 10.75 24 24v50.7C94.45 42.12 170.3 0 256 0zm0 128c13.3 0 24 10.7 24 24v94.1l64.1 64.9c10.2 9.4 10.2 24.6 0 33.1-8.5 10.2-23.7 10.2-33.1 0l-72-72c-4.5-3.6-7-9.7-7-16.1V152c0-13.3 10.7-24 24-24z"/></svg>