<svg xmlns="http://www.w3.org/2000/svg" viewBox="0 0 512 512"><!--! Font Awesome Pro 6.1.1 by @fontawesome - https://fontawesome.com License - https://fontawesome.com/license (Commercial License) Copyright 2022 Fonticons, Inc.--><path d="M280 392c0 13.3-10.7 24-24 24s-24-10.7-24-24V268.8l-85.3-57.7c-11-6.5-14-21.4-6.7-32.4 7.4-11 22.3-14 33.3-6.7l96 64c5.8 4.5 10.7 11.1 10.7 20v136zm-24 120C114.6 512 0 397.4 0 256S114.6 0 256 0s256 114.6 256 256-114.6 256-256 256zm208-256c0-114.9-93.1-208-208-208S48 141.1 48 256s93.1 208 208 208 208-93.1 208-208z"/></svg>