<svg xmlns="http://www.w3.org/2000/svg" viewBox="0 0 512 512"><!--! Font Awesome Pro 6.1.1 by @fontawesome - https://fontawesome.com License - https://fontawesome.com/license (Commercial License) Copyright 2022 Fonticons, Inc.--><path d="m232 335.3-20.9 30c-6.5 11-21.4 14-32.4 5.8-11-6.5-14-21.4-6.7-32.4l64-96c5.9-8.8 16.8-13.6 26.1-9.7 11 3.1 17.9 12.4 17.9 23v136c0 13.3-10.7 24-24 24s-24-10.7-24-24v-56.7zM0 256C0 114.6 114.6 0 256 0s256 114.6 256 256-114.6 256-256 256S0 397.4 0 256zm256 208c114.9 0 208-93.1 208-208S370.9 48 256 48 48 141.1 48 256s93.1 208 208 208z"/></svg>