<svg xmlns="http://www.w3.org/2000/svg" viewBox="0 0 640 512"><!--! Font Awesome Pro 6.1.1 by @fontawesome - https://fontawesome.com License - https://fontawesome.com/license (Commercial License) Copyright 2022 Fonticons, Inc.--><path d="M96 432c-8.822 0-16-7.178-16-16V159.4l-48-37.6V416c0 35.35 28.65 64 64 64h393.1l-61.3-48H96zm534.8 37.1-30.73-24.09C604.7 436.2 608 426.7 608 416V95.1c0-35.35-28.65-64-64-64H96c-6.646 0-12.96 1.176-18.96 3.073L38.81 5.111C28.34-3.061 13.32-1.248 5.12 9.189-3.051 19.63-1.233 34.72 9.189 42.89l591.1 463.1C605.6 510.3 610.8 512 615.1 512c7.125 0 14.16-3.162 18.89-9.193 9.11-10.407 7.21-25.507-3.19-33.707zM560 413.6l-91.51-71.73c9.318-4.539 18.2-10.27 25.93-18.01 9.375-9.375 9.375-24.56 0-33.94s-24.56-9.375-33.94 0c-11.55 11.57-27.47 15.11-42.47 12.38l-35.89-28.13a47.878 47.878 0 0 1-3.577-18.19c0-12.81 5-24.88 14.06-33.94 18.69-18.72 49.19-18.72 67.88 0 9.375 9.375 24.56 9.375 33.94 0s9.375-24.56 0-33.94c-37.44-37.44-98.31-37.44-135.8 0-13.2 13.2-21.95 29.62-25.81 47.45L306.9 215.3c4.213-8.904 2.85-19.77-4.517-27.14C284.3 170 260.8 161 237 160.5L134.4 80H544c8.822 0 16 7.178 16 16v317.6zM148.9 213.4c-6.5 13.1-10.4 27.5-10.4 42.6 0 25.64 10 49.75 28.12 67.88 18.72 18.72 43.28 28.08 67.88 28.08 22.08 0 43.9-7.969 61.72-23.06l-39.62-31.1c-18.11 9.52-40.82 7.335-56.01-7.88-9.09-9.02-14.09-21.12-14.09-33.92 0-4.053.673-7.98 1.644-11.81L148.9 213.4z"/></svg>