<svg xmlns="http://www.w3.org/2000/svg" viewBox="0 0 640 512"><!--! Font Awesome Pro 6.1.1 by @fontawesome - https://fontawesome.com License - https://fontawesome.com/license (Commercial License) Copyright 2022 Fonticons, Inc.--><path d="m607.8 382.1-248.2-161 22.5-15c31.2-20.8 49.9-55.7 49.9-94.1C432 50.25 381.8 0 320 0S208 50.25 208 112c0 13.25 10.75 24 24 24s24-10.7 24-24c0-35.28 28.72-64 64-64s64 28.72 64 64.91c0 21.44-10.66 41.34-28.5 53.25L31.47 382.2C11.78 395.3 0 417.3 0 441.3c0 39 31.69 70.7 70.66 70.7h498.7c38.94 0 70.64-31.7 70.64-70.7 0-24-12.9-46.1-32.2-59.2zM569.3 464H70.66C58.16 464 48 453.8 48 440.1c0-7.594 3.781-14.62 10.09-18.84l258-172 265.6 172.3C588.2 426.5 592 433.6 592 441.3c0 12.5-10.2 22.7-22.7 22.7z"/></svg>