<svg xmlns="http://www.w3.org/2000/svg" viewBox="0 0 576 512"><!--! Font Awesome Pro 6.1.1 by @fontawesome - https://fontawesome.com License - https://fontawesome.com/license (Commercial License) Copyright 2022 Fonticons, Inc.--><path d="M566.5 261.1c-82.5 15.5-158.3-47-158.3-129.3 0-47.39 25.68-90.97 67.44-114.5 6.436-3.609 4.816-13.25-2.492-14.58C464.7 1.25 450.7 0 442.1 0 348.2 0 272 75.14 272 168c0 .57.164 1.094.17 1.662 3.479 2.164 7.135 4.008 10.46 6.432C284.4 176 286.2 176 288 176c61.69 0 115.7 42.47 131.3 100.1 20.34 14.92 36.18 34.78 46.64 57.19 42.93-5.99 81.37-27.71 108.2-60.36 4.76-4.83-.34-13.23-7.64-11.83zm-175.7 35.3C383.3 246.4 340 208 288 208c-5.125 0-10.25.375-15.25 1.125C248.5 188 217.3 176 184 176c-64 0-118.3 45.25-132.4 105.3C19.63 305.1 0 343 0 384c0 70.63 57.38 128 128 128h204c64 0 116-52 116-116 0-41.7-22.7-79.2-57.2-99.6zM332 464H128c-44.25 0-80-35.75-80-80 0-32.75 19.75-61 48.13-73.25C96.75 262.8 135.8 224 184 224c31.25 0 58.38 16.25 74.13 40.75C266.755 259.25 277 256 288 256c30.9-.9 56 25.1 56 56 0 5.875-1.25 11.5-2.875 16.88C374.3 333.4 400 361.5 400 396c0 37.6-30.5 68-68 68z"/></svg>