<svg xmlns="http://www.w3.org/2000/svg" viewBox="0 0 640 512"><!--! Font Awesome Pro 6.1.1 by @fontawesome - https://fontawesome.com License - https://fontawesome.com/license (Commercial License) Copyright 2022 Fonticons, Inc.--><path d="M630.1 248.7c-78.58 14.79-150.8-44.79-150.8-123.2 0-45.14 24.46-86.64 64.22-109 6.129-3.438 4.588-12.62-2.373-13.89C533.1 1.191 520.5 0 512.3 0c-69.37 0-127.1 43.29-151.1 103.9 31.84 24.83 52.24 63.54 52.24 107.3 0 12.28-1.719 24.34-5.094 36.09 37.04 11.93 67.07 37.73 85.35 70.79C499.1 318.9 506 320 512.5 320c49.97 0 95.57-22.47 125.8-59.25 4.4-5.45-.4-13.35-8.2-12.05zm-247.3 25.2c-3.75-5.75-8.5-10.62-13.12-15.62 7.375-14 11.88-29.88 11.88-47 0-56-44.38-102-99.75-103.9-23.62-29.62-60-48.13-99-48.13-40 0-77.13 19-100.9 50.38C35.13 119.5 0 161.4 0 211.3c0 37 19.5 69.13 48.63 87.5-27.25 22-44.38 55.5-44.38 93.25 0 66.25 53.5 120 119.1 120h238.4c65.75 0 119.3-53.75 119.3-120C481 333 438.6 283.8 382.8 273.9zM47.75 211.3c0-30.88 24.88-56 55.5-56H110c12.25-28.12 40.25-48 72.75-48 34.25 0 63 21.88 74.38 52.25 6.5-2.75 13.62-4.25 21.12-4.25 30.62 0 55.5 25.12 55.5 56 0 7.5-1.75 14.25-4.375 20.75C317.1 227.3 304.3 224 290.4 224c-9.625 0-19 1.25-28.12 3.625C242.3 214.9 219 208 195.1 208c-43.5 0-82.88 22.38-105.9 57.25-23.95-6.35-41.45-27.95-41.45-53.95zM361.8 464H123.4c-39.5 0-71.5-32.25-71.5-72 0-37.63 28.75-68 65.13-71.25C124.1 283.9 156.3 256 194.9 256c23.75 0 44.88 10.75 59.38 27.25C264.5 276.3 276.9 272 290.3 272c30 0 55 20.88 61.63 49 3.37-.5 6.47-1 9.87-1 39.5 0 71.5 32.25 71.5 72 .1 39.8-32 72-71.5 72z"/></svg>