<svg xmlns="http://www.w3.org/2000/svg" viewBox="0 0 640 512"><!--! Font Awesome Pro 6.1.1 by @fontawesome - https://fontawesome.com License - https://fontawesome.com/license (Commercial License) Copyright 2022 Fonticons, Inc.--><path d="M162.5 250.1C85.58 203.28 120.55 88 208.02 88c23.74 0 45.19 9.513 61.02 24.8 10.82-11.24 23.32-20.62 36.88-28.22l-5.52-1-13.5-74.943C285.945 3.347 281.363 0 276.55 0c-2.027 0-4.097.592-5.955 1.881l-62.57 43.42L145.4 1.882C143.6.592 141.5 0 139.5 0c-4.817 0-9.399 3.346-10.35 8.636l-13.54 74.95L40.64 97.13c-5.29.95-9.54 5.57-9.54 10.37 0 2.026.592 4.094 1.881 5.951l43.41 62.57L33.88 238.6c-1.29 1.8-1.88 3.9-1.88 5.9 0 4.818 3.347 9.398 8.636 10.35l74.95 13.54 13.54 74.95c.955 5.29 5.537 8.636 10.35 8.636a10.38 10.38 0 0 0 5.954-1.882l26.31-18.27C164.3 314.7 160 295.9 160 276c0-8.5 1-16.9 2.5-25.9zm8.3-27.4c13.54-32.94 39.09-60.06 72.66-74.8 2.424-4.523 5.293-8.709 8.109-12.93C240.6 123.4 225.2 116 208 116c-56.1 0-82.9 70.1-37.2 106.7zm384.6-39.3c-12-36.8-46.6-63.4-87.4-63.4-3.125 0-6.125.25-9.125.5C437.3 104.8 411.3 96 384 96c-52.38 0-97.63 31.25-117.3 77.25C223.4 187.3 192 228 192 276c0 59.6 48.4 108 108 108h200c59.6 0 108-48.4 108-108 0-38.7-20.7-73.6-52.6-92.6zM500 336H300c-33.1 0-60-26.9-60-60s26.9-60 60-60c1.625 0 3.25.375 4.75.5C308.6 175.9 342.4 144 384 144c25.25 0 47.38 11.88 62.13 30.12C452.6 170.3 460 168 468 168c24.3 0 44 19.8 44 44 0 1.75-.25 3.375-.5 5.25C539.1 222.6 560 246.8 560 276c0 33.1-26.9 60-60 60zm52 79.1c-7.753 0-15.35 3.752-19.97 10.69l-32 48a23.884 23.884 0 0 0-4.037 13.29C496 501.4 506.9 512 520 512c7.75 0 15.36-3.75 19.98-10.69l32-48a23.876 23.876 0 0 0 4.037-13.29C576 426.6 565.1 415.1 552 415.1zm-96 0c-7.75 0-15.34 3.752-19.98 10.69l-32 48a23.884 23.884 0 0 0-4.037 13.29C400 501.4 410.9 512 423.1 512c7.75 0 15.36-3.75 19.98-10.69l32-48a23.884 23.884 0 0 0 4.037-13.29C480 426.6 469.1 415.1 456 415.1zm-96 0c-7.753 0-15.34 3.752-19.97 10.69l-32 48a23.884 23.884 0 0 0-4.037 13.29C304 501.4 314.9 512 327.1 512c7.75 0 15.36-3.75 19.99-10.69l32-48a23.884 23.884 0 0 0 4.037-13.29C384 426.6 373.1 415.1 360 415.1zm-96 0c-7.755 0-15.35 3.752-19.97 10.69l-32 48a23.884 23.884 0 0 0-4.037 13.29C208 501.4 218.9 512 231.1 512c7.75 0 15.36-3.75 19.98-10.69l32-48a23.884 23.884 0 0 0 4.037-13.29C288 426.6 277.1 415.1 264 415.1z"/></svg>