<svg xmlns="http://www.w3.org/2000/svg" viewBox="0 0 576 512"><!--! Font Awesome Pro 6.1.1 by @fontawesome - https://fontawesome.com License - https://fontawesome.com/license (Commercial License) Copyright 2022 Fonticons, Inc.--><path d="M544.8 212c0-57.25-44.88-104.3-101.3-107.8C430 61.75 390.8 32 344.8 32c-13.5 0-26.75 2.625-39.25 7.75C283 14.5 251.1 0 216.8 0 152.8 0 100.4 50.25 97 113.4c-38.62 17-64.24 55.1-64.24 98.6 0 59.5 48.38 108 108 108h296c59.64 0 108.04-48.5 108.04-108zm-464.04 0c0-28 19.12-52 46.38-58.25l20.75-4.875L145.1 124c-.1-1.2-.3-2.6-.3-4 0-39.75 32.25-72 72-72 25.25 0 48.25 13.12 61.38 35.13l13.38 22.12 21-15C322.1 83.63 333.3 80 344.8 80c28.62 0 52.38 21.75 55.25 50.38L402.3 152h34.5c33.13 0 60 26.88 60 60s-26.88 60-60 60h-296c-33.2 0-60.04-26.9-60.04-60zm32.74 141.9c-12.19-5.219-26.3.406-31.52 12.59l-47.1 112c-5.219 12.19.422 26.31 12.61 31.53 2.14 1.38 5.34 1.98 8.5 1.98 9.312 0 18.17-5.438 22.08-14.53l47.1-112c6.13-12.17.43-26.27-11.67-31.57zm272 0c-12.22-5.219-26.28.406-31.52 12.59l-47.1 112c-5.219 12.19.422 26.31 12.61 31.53 2.11 1.38 5.31 1.98 7.61 1.98 9.312 0 18.17-5.438 22.08-14.53l47.1-112c7.02-12.17 1.32-26.27-10.78-31.57zM520 392h-15.1v-16c0-13.25-10.75-24-23.1-24s-23.1 10.75-23.1 24v16h-15.1c-13.25 0-23.1 10.75-23.1 24s10.75 24 23.1 24h15.1v16c0 13.25 10.75 24 23.1 24s23.1-10.75 23.1-24v-16H520c13.3 0 24-10.7 24-24s-10.7-24-24-24zm-256 0h-16v-16c0-13.25-10.75-24-23.1-24-13.25 0-23.1 10.75-23.1 24v16H184c-13.25 0-23.1 10.75-23.1 24s10.75 24 23.1 24h16v16c0 13.25 10.75 24 23.1 24 13.25 0 23.1-10.75 23.1-24v-16h15.1c13.25 0 23.1-10.75 23.1-24s-7.1-24-20.4-24z"/></svg>