<svg xmlns="http://www.w3.org/2000/svg" viewBox="0 0 640 512"><!--! Font Awesome Pro 6.1.1 by @fontawesome - https://fontawesome.com License - https://fontawesome.com/license (Commercial License) Copyright 2022 Fonticons, Inc.--><path d="M141.2 85.36C171.9 52.53 215.5 32 264 32c50.9 0 96.4 22.6 127.3 58.31C406.2 83.69 422.6 80 440 80c66.3 0 120 53.7 120 120 0 6.6-.5 13-1.5 19.3 48 21 81.5 69 81.5 124.7 0 38.1-16.4 74.1-42.6 98.9l33.4 26.2c10.4 8.2 12.3 23.3 4.1 33.7-8.2 10.4-23.3 12.3-33.7 4.1L9.196 42.89C-1.236 34.71-3.065 19.63 5.112 9.196 13.29-1.236 28.37-3.065 38.81 5.112L141.2 85.36zm38 29.74 379.7 297.7c20.2-16.2 33.1-41 33.1-68.8 0-36-21.6-67.1-52.8-80.7l-34.1-14.9 6-36.7c.6-3.8.9-7.7.9-11.7 0-39.8-32.2-72-72-72-10.5 0-20.4 2.2-29.2 6.2l-32.6 14.5-23.3-27C332.8 96.08 300.3 80 263.1 80c-32.2 0-62.2 13.42-83.9 35.1zM426.5 432l60.9 48H144C64.47 480 0 415.5 0 336c0-62.7 40.07-116.9 96-135.8v-.2c0-9.1.72-18.9 2.11-26.7L144 209.5v24.6l-32.9 11.4c-36.46 13.2-64 48.8-64 90.5 0 53 43.88 96 96 96h283.4z"/></svg>