<svg xmlns="http://www.w3.org/2000/svg" viewBox="0 0 640 512"><!--! Font Awesome Pro 6.1.1 by @fontawesome - https://fontawesome.com License - https://fontawesome.com/license (Commercial License) Copyright 2022 Fonticons, Inc.--><path d="M95.1 208c.016-61.85 50.15-111.1 111.1-111.1 36.89 0 69.35 18.08 89.76 45.61 7.939-7.496 16.5-14.34 26.21-19.67 3.967-6.971 8.594-13.37 13.52-19.49l-20.26-3.668L301.2 10.21c-1.605-8.883-11.86-13.13-19.27-7.983l-73.94 51.31-73.94-51.32c-7.45-5.139-17.65-.893-19.25 7.993L98.79 98.79 10.21 114.8c-8.884 1.6-13.132 11.8-7.987 19.3l51.3 73.94-51.3 73.94c-5.145 7.414-.898 17.67 7.983 19.27l88.57 15.99 16.01 88.58c1.354 7.488 8.797 11.3 15.56 9.348C129.2 407.5 128 399.9 128 392c0-31.74 9.822-61.36 26.8-86.03C119.9 286.1 96.01 250.5 95.1 208zm32 0c.014 32.79 19.79 60.88 48.03 73.23C187.1 270.9 199.7 262 213.9 255.3c11.6-19.6 27.2-36.5 45.2-49.8 3.357-13.62 9.428-26.13 16.73-37.84C262.8 144 237.4 128 207.1 128c-43.3 0-79.1 35.8-80 80zM640 236.8c0-50.75-38.5-92.88-87.75-98.5C532 103.4 494.4 80 452 80c-46 0-85.88 26.38-104.5 66-31.7 13.8-54.4 43.6-58.6 79-22.3 12.8-40.6 31.8-52.1 55.3C191.4 297.6 160 341.1 160 392c0 66.3 53.8 120 120 120h240c66.25 0 120-53.75 120-120 0-32-12.75-60.75-33.25-82.25C626.8 291.6 640 266 640 236.8zM520 464H280c-39.75 0-72-32.25-72-72 0-37.63 28.88-68 65.5-71.25C280.8 283.9 313 256 352 256c23.88 0 45.13 10.75 59.75 27.25C422.1 276.3 434.6 272 448 272c30.25 0 55.25 20.88 61.1 49 4.2-.5 7.4-1 10.9-1 39.75 0 72 32.25 72 72s-32.2 72-72 72zm45.6-182.7c-7.875-3.125-15.88-6-24.5-7.5-20.3-30.5-54.7-49.8-93.1-49.8-9.625 0-19.25 1.25-28.25 3.625C399.5 214.9 376.1 208 352 208c-2.25 0-4.25.375-6.375.5 8.75-12.88 22.75-21.88 39.38-22.62 4.875-32.63 32.88-57.75 67-57.75 35.75 0 64.75 27.75 67.5 62.88 6.5-3.125 13.62-5.25 21.25-5.25C569.1 185.8 592 208.6 592 236.9c0 19.1-10.7 35.7-26.4 44.4z"/></svg>