<svg xmlns="http://www.w3.org/2000/svg" viewBox="0 0 512 512"><!--! Font Awesome Pro 6.1.1 by @fontawesome - https://fontawesome.com License - https://fontawesome.com/license (Commercial License) Copyright 2022 Fonticons, Inc.--><path d="M384 352c-17.75 0-32 14.25-32 32s14.25 32 32 32 32-14.25 32-32-14.2-32-32-32zm-192 96c-17.75 0-32 14.25-32 32s14.25 32 32 32 32-14.25 32-32-14.2-32-32-32zm128 0c-17.75 0-32 14.25-32 32s14.25 32 32 32 32-14.25 32-32-14.2-32-32-32zm-64-96c-17.75 0-32 14.25-32 32s14.25 32 32 32 32-14.25 32-32-14.2-32-32-32zM64 448c-17.75 0-32 14.25-32 32s14.25 32 32 32 32-14.25 32-32-14.25-32-32-32zm64-96c-17.75 0-32 14.25-32 32s14.25 32 32 32 32-14.25 32-32-14.2-32-32-32zm282.8-247.8C397.2 61.75 357.1 32 312 32c-13.5 0-26.75 2.625-39.25 7.75C250.2 14.5 218.4 0 184 0 120 0 67.6 50.25 64.2 113.4 25.62 130.4 0 168.5 0 212c0 59.5 48.38 108 108 108h296c59.6 0 108-48.5 108-108 0-57.2-44.9-104.2-101.2-107.8zM404 272H108c-33.12 0-60-26.9-60-60 0-28 19.12-52 46.38-58.2l20.82-4.9-2.8-24.9c-.2-1.2-.4-2.6-.4-4 0-39.75 32.25-72 72-72 25.25 0 48.25 13.12 61.38 35.12l13.38 22.12 21-15C289.4 83.62 300.5 80 312 80c28.62 0 52.38 21.75 55.25 50.38L369.5 152H404c33.13 0 60 26.88 60 60s-26.9 60-60 60z"/></svg>