<svg xmlns="http://www.w3.org/2000/svg" viewBox="0 0 512 512"><!--! Font Awesome Pro 6.1.1 by @fontawesome - https://fontawesome.com License - https://fontawesome.com/license (Commercial License) Copyright 2022 Fonticons, Inc.--><path d="M108 320h296c59.6 0 108-48.5 108-108 0-57.25-44.88-104.3-101.3-107.8C397.3 61.75 357.1 32 312 32c-13.5 0-26.75 2.625-39.25 7.75C250.3 14.5 218.4 0 184 0 120 0 67.6 50.25 64.2 113.4 25.63 130.4 0 168.5 0 212c0 59.5 48.38 108 108 108zM94.38 153.8l20.75-4.875L112.4 124c-.1-1.2-.4-2.6-.4-4 0-39.75 32.25-72 72-72 25.25 0 48.25 13.12 61.38 35.13l13.38 22.12 21-15C289.4 83.63 300.5 80 312 80c28.62 0 52.38 21.75 55.25 50.38L369.5 152H404c33.13 0 60 26.88 60 60s-26.9 60-60 60H108c-33.12 0-60-26.9-60-60 0-28 19.13-52 46.38-58.2zM104 392H88v-16c0-13.2-10.75-24-24-24s-24 10.75-24 24v16H24c-13.25 0-24 10.8-24 24s10.75 24 24 24h16v16c0 13.3 10.75 24 24 24s24-10.75 24-24v-16h16c13.3 0 24-10.7 24-24s-10.7-24-24-24zm384 0h-16v-16c0-13.25-10.75-24-24-24s-24 10.75-24 24v16h-16c-13.2 0-24 10.8-24 24s10.75 24 24 24h16v16c0 13.25 10.75 24 24 24s24-10.75 24-24v-16h16c13.25 0 24-10.75 24-24s-10.7-24-24-24zm-192 32h-16v-16c0-13.25-10.75-24-24-24s-24 10.75-24 24v16h-16c-13.2 0-24 10.8-24 24s10.75 24 24 24h16v16c0 13.3 10.8 24 24 24s24-10.75 24-24v-16h16c13.25 0 24-10.75 24-24s-10.7-24-24-24z"/></svg>