<svg xmlns="http://www.w3.org/2000/svg" viewBox="0 0 576 512"><!--! Font Awesome Pro 6.1.1 by @fontawesome - https://fontawesome.com License - https://fontawesome.com/license (Commercial License) Copyright 2022 Fonticons, Inc.--><path d="M331.1 36.87c9-3.15 18.8-4.87 28.9-4.87 35.2 0 65.6 20.68 79.6 50.55 40.6 3.31 72.4 37.25 72.4 78.55 0 43.6-35.3 78-78.9 78H142.9c-43.59 0-78.9-34.4-78.9-78 0-42.5 33.76-77.25 75.1-78.76C152.1 34.87 196.4 0 248 0c32.1 0 62.6 14.25 83.1 36.87zM182.7 130.3h-39.8c-17.1 0-30.9 13.8-30.9 30.8 0 17.1 13.8 30 30.9 30h290.2c17.1 0 30.9-12.9 30.9-30 0-17-13.8-30.8-30.9-30.8h-29.9l-4.1-18.9C395.2 93.44 379.1 80 360 80c-8.4 0-16.2 2.58-22.6 7.01l-21.2 14.59-13.1-22.14C291.9 60.57 271.4 48 248 48c-33.9 0-61.7 26.43-63.9 59.8l-1.4 22.5zm-98.12 258c-6.82 11.4-21.56 15.1-32.93 8.3-11.36-6.8-15.05-21.6-8.23-32.9l48-80c6.82-11.4 20.68-15.1 32.88-8.3 11.4 6.8 15.1 20.7 8.3 32.9l-48.02 80zM460.3 275.4c11.4 6.8 15.1 20.7 8.3 32.9l-48 80c-6.8 11.4-21.6 15.1-32.9 8.3-11.4-6.8-15.1-21.6-8.3-32.9l48-80c6.8-11.4 20.7-15.1 32.9-8.3zM196.6 388.3c-6.8 11.4-21.6 15.1-32.9 8.3-11.4-6.8-15.1-21.6-8.3-32.9l48-80c6.8-11.4 20.7-15.1 32.9-8.3 11.4 6.8 15.1 20.7 8.3 32.9l-48 80zm151.7-112.9c11.4 6.8 15.1 20.7 8.3 32.9l-48 80c-6.8 11.4-21.6 15.1-32.9 8.3-11.4-6.8-15.1-21.6-8.3-32.9l48-80c6.8-11.4 20.7-15.1 32.9-8.3zM191.1 464c29.7 0 59.4-15.3 80.9-33.9 9.1-9 22.9-9 31.1 0 22.4 18.6 52 33.9 80 33.9 29.7 0 59.4-15.3 80.9-33.9 9.1-9 22.8-9 31.9 0 17 15 39.3 26.8 61.3 31.7 12.9 2.9 21.1 15.7 18.2 28.7-2.9 12.9-15.8 21-28.7 18.1-28.7-6.4-52.3-20.4-67.6-30.4-27.2 19.5-60.5 33.8-96 33.8-33.7 0-67-14.3-96-33.8-27.2 19.5-60.5 33.8-96 33.8-33.7 0-67-14.3-95.12-33.8-14.37 10-37.99 24-66.67 30.4-12.94 2.9-25.775-5.2-28.676-18.1-2.901-13 5.231-25.8 18.166-28.7 22.2-5 43.96-17.7 60.3-31.7 9.99-9 23.7-9 32.8 0 21.6 18.6 51.2 33.9 79.2 33.9z"/></svg>