<svg xmlns="http://www.w3.org/2000/svg" viewBox="0 0 576 512"><!--! Font Awesome Pro 6.1.1 by @fontawesome - https://fontawesome.com License - https://fontawesome.com/license (Commercial License) Copyright 2022 Fonticons, Inc.--><path d="m148 426.7-32 48c-7.344 11.03-4.375 25.94 6.657 33.28C126.8 510.7 131.4 512 135.1 512c7.75 0 15.38-3.75 20-10.69l32-48c7.344-11.03 4.375-25.94-6.657-33.28C170.3 412.7 155.4 415.7 148 426.7zm96 0-32 48c-7.344 11.03-4.375 25.94 6.657 33.28C222.8 510.7 227.4 512 231.1 512c7.75 0 15.38-3.75 20-10.69l32-48c7.344-11.03 4.375-25.94-6.657-33.28C266.3 412.7 251.4 415.7 244 426.7zm96.1 0-32 48c-7.344 11.03-4.375 25.94 6.657 33.28C318.8 510.7 323.4 512 327.1 512c7.75 0 15.38-3.75 20-10.69l32-48c7.344-11.03 4.375-25.94-6.657-33.28-10.143-7.33-25.043-4.33-32.343 6.67zm23.3-243.3c-12-36.8-46.6-63.4-87.4-63.4-3.125 0-6.125.25-9.125.5C245.3 104.8 219.3 96 192 96c-52.4 0-97.62 31.3-117.25 77.3C31.38 187.3 0 228 0 276c0 59.6 48.38 108 108 108h200c59.6 0 108-48.4 108-108 0-38.7-20.7-73.6-52.6-92.6zM308 336H108c-33.12 0-60-26.9-60-60s26.88-60 60-60c1.625 0 3.25.375 4.75.5C116.6 175.9 150.4 144 192 144c25.25 0 47.38 11.88 62.13 30.12C260.6 170.3 268 168 276 168c24.3 0 44 19.8 44 44 0 1.75-.25 3.375-.5 5.25C347.1 222.6 368 246.8 368 276c0 33.1-26.9 60-60 60zm259.9-112.2c-70.3 13.3-135-40.3-135-110.8 0-40.63 21.88-78 57.5-98.13 5.5-3.125 4.077-11.37-2.173-12.5C479.6.754 470.8 0 461.8 0c-63.82 0-117.2 41.42-136.4 98.44 28.26 12.28 51.46 34.72 64.13 63.87C425.9 188.4 448 230.9 448 276c0 3.541-.41 6.977-.67 10.45 4.844.52 9.533 1.446 14.52 1.446 44.63 0 85.46-20.15 112.5-53.27 4.25-4.826-.15-12.026-6.45-10.826zM52.03 426.7l-32 48c-7.344 11.03-4.375 25.94 6.657 33.28A23.948 23.948 0 0 0 39.97 512c7.75 0 15.38-3.75 20-10.69l32-48c7.344-11.03 4.375-25.94-6.657-33.28-11.053-7.33-25.903-4.33-33.283 6.67z"/></svg>