<svg xmlns="http://www.w3.org/2000/svg" viewBox="0 0 640 512"><!--! Font Awesome Pro 6.1.1 by @fontawesome - https://fontawesome.com License - https://fontawesome.com/license (Commercial License) Copyright 2022 Fonticons, Inc.--><path d="M233.8 197.3c8-22.4 29.1-37.3 52.8-37.3h58.3c34.8 0 63.1 28.3 63.1 63.1 0 22.7-12.1 43.6-31.7 54.8l-33.2 18.5c.7 13.1-10 22.7-23.1 22.7-13.3 0-24-9.8-24-24v-12.6c0-8.6 4.6-16.5 12.1-20.8l44.3-25.4c4.7-2.7 7.6-7.7 7.6-13.2 0-8.3-6.8-16-15.1-16h-58.3c-3.4 0-6.4 3-7.5 6.2l-.5 1.3c-4.4 12.5-18.1 19-31.5 14.6-11.6-4.5-18.2-18.2-13.7-30.7l.4-1.2zM352 384c0 17.7-14.3 32-32 32s-32-14.3-32-32 14.3-32 32-32 32 14.3 32 32zm-208 96C64.47 480 0 415.5 0 336c0-62.7 40.07-116.9 96-135.8v-.2c0-92.8 75.2-168 168-168 50.9 0 96.4 22.6 127.3 58.31C406.2 83.68 422.6 80 440 80c66.3 0 120 53.7 120 120 0 6.6-.5 13-1.5 19.3 48 21 81.5 69 81.5 124.7 0 72.4-56.6 131.6-128 135.8v.2H144zM264 80c-66.3 0-120 53.7-120 120v34.1l-32.9 11.4C74.64 258.7 48 294.3 48 336c0 53 42.98 96 96 96h362.6l2.6-.2c46.2-2.6 82.8-41 82.8-87.8 0-36-21.6-67.1-52.8-80.7l-34.1-14.9 6-36.7c.6-3.8.9-7.7.9-11.7 0-39.8-32.2-72-72-72-10.5 0-20.4 2.2-29.2 6.2l-32.6 14.5-23.3-27C332.8 96.08 300.3 80 263.1 80h.9z"/></svg>