<svg xmlns="http://www.w3.org/2000/svg" viewBox="0 0 640 512"><!--! Font Awesome Pro 6.1.1 by @fontawesome - https://fontawesome.com License - https://fontawesome.com/license (Commercial License) Copyright 2022 Fonticons, Inc.--><path d="M128 208c0 39.2 28.2 71.6 65.3 78.5 6.6-9.4 14-17.4 22.2-23.7 11.3-36.3 34.8-66.9 65-88.1-12.6-27.5-40.2-46.7-72.5-46.7-44.2 0-80 35.8-80 80zm-32 0c.02-61.9 50.2-111.99 112-111.99 44.25 0 82.14 25.89 100.3 63.14 21-9.45 43.9-15.15 67.7-15.15 9.805 0 19.48 1.035 29.01 2.709l8.767-12.65c5.145-7.414.896-17.67-7.984-19.27L317.2 98.78l-16-88.57c-1.6-8.885-11.8-13.131-19.3-7.984L208 53.54 134.1 2.225c-7.5-5.147-17.7-.901-19.3 7.985L98.78 98.78 10.21 114.8c-8.884 1.6-13.132 11.8-7.987 19.3l51.3 73.94L2.224 281.9c-5.145 7.414-.897 17.67 7.983 19.27L98.78 317.2l16.01 88.58c1.605 8.883 11.86 13.13 19.27 7.982l27.06-18.78C160.9 391.3 160 387.8 160 384c0-24.19 5.697-47.81 15.1-69.22C129.9 300.9 96.02 258.7 96 208zm486.8 88.4C575.3 246.4 532 208 480 208c-5.125 0-10.25.375-15.25 1.125C440.5 188 409.3 176 376 176c-64 0-118.3 45.25-132.4 105.3C211.6 305.1 192 343 192 384c0 70.63 57.38 128 128 128h204c64 0 116-52 116-116 0-41.7-22.7-79.2-57.2-99.6zM524 464H320c-44.25 0-80-35.75-80-80 0-32.75 19.75-61 48.13-73.25C288.8 262.8 327.8 224 376 224c31.25 0 58.38 16.25 74.13 40.75C458.8 259.3 469 256 480 256c30.88 0 56 25.12 56 56 0 5.875-1.25 11.5-2.875 16.88C566.3 333.4 592 361.5 592 396c0 37.6-30.4 68-68 68z"/></svg>