<svg xmlns="http://www.w3.org/2000/svg" viewBox="0 0 512 512"><!--! Font Awesome Pro 6.1.1 by @fontawesome - https://fontawesome.com License - https://fontawesome.com/license (Commercial License) Copyright 2022 Fonticons, Inc.--><path d="M410.8 104.3C397.3 61.75 357.1 32 312 32c-13.5 0-26.75 2.625-39.25 7.75C250.3 14.5 218.4 0 184 0 120 0 67.6 50.25 64.2 113.4 25.63 130.4 0 168.5 0 212c0 59.5 48.53 108 108.2 108h41.31l52.79-48H108c-33.12 0-60-26.9-60-60 0-28 19.13-52 46.38-58.2l20.75-4.875L112.4 124c-.1-1.2-.4-2.6-.4-4 0-39.75 32.25-72 72-72 25.25 0 48.25 13.12 61.38 35.13l13.38 22.12 21-15C289.4 83.63 300.5 80 312 80c28.62 0 52.38 21.75 55.25 50.38L369.5 152H404c33.13 0 60 26.88 60 60s-26.9 60-60 60h-56.48l-19.82 48h76.18C463.5 320 512 271.5 512 212c0-57.2-44.9-104.2-101.2-107.7zM344 352h-64.09l43.69-105.9c2.875-6.906.531-14.88-5.594-19.19-6.093-4.25-14.37-3.781-19.94 1.25l-140.8 128c-4.906 4.438-6.562 11.44-4.188 17.62C155.5 379.9 161.4 384 168 384h64.09L188.4 489.9c-2.875 6.906-.531 14.88 5.593 19.19C196.8 511 199.1 512 203.2 512c3.875 0 7.719-1.406 10.75-4.156l140.8-128c4.906-4.438 6.562-11.44 4.188-17.62C356.5 356.1 350.6 352 344 352z"/></svg>