<svg xmlns="http://www.w3.org/2000/svg" viewBox="0 0 512 512"><!--! Font Awesome Pro 6.1.1 by @fontawesome - https://fontawesome.com License - https://fontawesome.com/license (Commercial License) Copyright 2022 Fonticons, Inc.--><path d="M32 448c-17.75 0-32 14.25-32 32s14.25 32 32 32 32-14.25 32-32-14.25-32-32-32zm378.8-343.7C397.3 61.75 357.1 32 312 32c-13.5 0-26.75 2.625-39.25 7.75C250.3 14.5 218.4 0 184 0 120 0 67.6 50.25 64.2 113.4 25.63 130.4 0 168.5 0 212c0 59.5 48.38 108 108 108h296c59.6 0 108-48.5 108-108 0-57.2-44.9-104.2-101.2-107.7zM404 272H108c-33.12 0-60-26.9-60-60 0-28 19.13-52 46.38-58.2l20.88-4.875L112.4 124c-.1-1.2-.4-2.6-.4-4 0-39.75 32.25-72 72-72 25.25 0 48.25 13.12 61.38 35.13l13.38 22.12 21-15C289.4 83.63 300.5 80 312 80c28.62 0 52.38 21.75 55.25 50.38L369.5 152H404c33.13 0 60 26.88 60 60s-26.9 60-60 60zM256 448c-17.75 0-32 14.25-32 32s14.25 32 32 32 32-14.25 32-32-14.2-32-32-32zm-57.2-94.1c-12.17-5.219-26.3.406-31.52 12.59l-48 112c-5.219 12.19.422 26.31 12.61 31.53 2.21 1.38 6.31 1.98 9.41 1.98 9.312 0 18.17-5.438 22.08-14.53l48-112c5.22-12.17-1.28-26.27-12.58-31.57zm-117.35 0c-12.19-5.219-26.3.406-31.52 12.59l-8 18.66c-5.219 12.19.422 26.31 12.61 31.53a24.022 24.022 0 0 0 9.438 1.938c9.312 0 18.17-5.438 22.08-14.53l8-18.66C99.28 373.3 93.64 359.2 81.45 353.9zm224.05 0c-12.19-5.219-26.3.406-31.52 12.59l-8 18.66c-5.219 12.19.422 26.31 12.61 31.53a24.022 24.022 0 0 0 9.438 1.938c9.312 0 18.17-5.438 22.08-14.53l8-18.66C323.3 373.3 317.6 359.2 305.5 353.9zm128 0c-12.16-5.219-26.28.406-31.52 12.59l-48 112c-5.219 12.19.422 26.31 12.61 31.53 3.01 1.38 6.21 1.98 8.51 1.98 9.312 0 18.17-5.438 22.08-14.53l48-112c6.12-12.17.42-26.27-11.68-31.57z"/></svg>