<svg xmlns="http://www.w3.org/2000/svg" viewBox="0 0 576 512"><!--! Font Awesome Pro 6.1.1 by @fontawesome - https://fontawesome.com License - https://fontawesome.com/license (Commercial License) Copyright 2022 Fonticons, Inc.--><path d="m384.5 375.6-16.75-8.748 5.75-17.1c6.125-19.12-7.501-35.87-25.25-35.87-6 0-8.5 1.25-27.12 7.124l-8.75-16.75c-10.75-20.62-38.13-20.62-48.75 0l-8.75 16.75C237.2 314.4 234.1 312.9 227.8 312.9c-17.75 0-31.38 16.75-25.25 35.87l5.75 17.1-16.75 8.748c-20.5 10.62-20.75 37.99 0 48.74l16.75 8.748-5.75 17.1c-6.25 19.87 8.625 36.37 26.12 36.37 3.625 0 12.5-3.249 26.25-7.624l8.75 16.75c10.75 20.62 38.13 20.62 48.75 0l8.75-16.75c13.88 4.374 22.63 7.624 26.25 7.624 17.62 0 32.38-16.37 26.12-36.37l-5.75-17.1 16.75-8.748c20.66-9.858 20.56-37.158-.04-47.758zM576 255.1c0-59.24-41.5-110.1-97.63-123.7-9.5-56.86-59-100.2-118.4-100.2-12.75 0-25.62 2.247-38 6.496C293.6 13.5 257.1 0 220 0 137.8 0 70.12 64.11 64.38 144.1 24.75 167.6 0 209.6 0 255.1c0 70.61 57.38 127.1 128 127.1h18.5c3.75-13.12 12-24.75 23.75-32.74-1-5.124-1.125-10.25-.875-15.25H128c-44.12 0-80-35.87-80-79.99 0-32.49 19.38-61.49 49.62-73.86l15.58-4.66-.8-17c-.2-1.4-.2-3.6-.4-3.6C112 95.61 160.38 48 220 48c30.12 0 58.25 12.37 79.13 34.99l12.25 13.25 16.25-8.124c49-24.87 103.5 12.62 104.4 62.49L429.2 174.7l24.88 1.875C495.6 179.7 528 214.6 528 255.8c0 44.12-35.88 79.99-80 79.99h-41.38c.25 4.999.125 10.12-.75 15.25 11.75 7.999 19.88 19.62 23.75 32.74H448c70.6.12 128-57.18 128-128.68zM64 415.9a31.9 31.9 0 0 0-32 31.99c0 17.75 14.25 31.99 32 31.99s32-14.25 32-31.99c0-17.69-14.25-31.99-32-31.99zm448 0a31.9 31.9 0 0 0-32 31.99c0 17.75 14.25 31.99 32 31.99s32-14.25 32-31.99a31.9 31.9 0 0 0-32-31.99z"/></svg>