<svg xmlns="http://www.w3.org/2000/svg" viewBox="0 0 576 512"><!--! Font Awesome Pro 6.1.1 by @fontawesome - https://fontawesome.com License - https://fontawesome.com/license (Commercial License) Copyright 2022 Fonticons, Inc.--><path d="M560.6 48.01c8.7-.37 15.4-7.12 15.4-15.75V16.13c0-8.1-7.625-16.49-16.62-16.12-140.1 5.1-260.9 87.25-323.5 204.2C220 196.4 202.4 192 184 192c-64 0-116.4 50.25-119.8 113.4C25.62 322.4 0 360.5 0 404c0 59.5 48.38 108 108 108h296c59.6 0 108-48.5 108-108 0-38.5-20.38-71.87-50.75-91.12 23.63-30.62 59-51.1 99.63-56.12 8.42-.96 15.12-7.46 15.12-15.96v-16c0-9.25-7.75-16.1-16.75-16.12-61 5.25-113.9 39.12-145.5 87.87-1-.125-2-.375-3-.5-5.625-17.75-16-33.12-29.38-45.25 41.25-55.1 105.8-93.87 179.4-98.5 8.53-.5 15.23-7.2 15.23-15.8v-16c0-9.125-7.625-16.75-16.75-16.25-91 5.25-170.6 52.1-220 123.5-8.75-2.45-17.85-3.95-27.25-3.95-12 0-23.75 2.5-35 6.5C331.2 126.5 436.9 53.64 560.6 48.01zM312 272c28.62 0 52.38 21.75 55.25 50.37l2.25 21.62H404c33.13 0 60 26.87 60 59.1s-26.88 59.1-60 59.1H108c-33.12 0-60-26.87-60-59.1 0-27.1 19.12-51.1 46.38-58.25l20.87-4.875L112.4 316c-.2-1.2-.4-2.6-.4-4 0-39.75 32.25-71.1 72-71.1 25.25 0 48.25 13.12 61.38 35.12l13.38 22.12 21-14.1C289.4 275.6 300.5 272 312 272z"/></svg>