<svg xmlns="http://www.w3.org/2000/svg" viewBox="0 0 640 512"><!--! Font Awesome Pro 6.1.1 by @fontawesome - https://fontawesome.com License - https://fontawesome.com/license (Commercial License) Copyright 2022 Fonticons, Inc.--><path d="M148 176c.01 18.99 9.012 35.72 22.79 46.71 13.54-32.94 39.09-60.06 72.66-74.8 2.424-4.523 5.293-8.709 8.109-12.93C240.6 123.4 225.2 116 208 116c-33.1 0-60 26.9-60 60zm14.5 74.1C137.1 235.5 120 207.9 120 176c0-48.6 39.4-87.99 88-87.99 23.74 0 45.2 9.502 61.03 24.79 10.82-11.24 23.32-20.62 36.88-28.22l-5.51-.99-13.5-74.953c-1.357-7.516-10.04-11.11-16.31-6.754L208 45.31 145.4 1.883c-6.2-4.356-14.9-.762-16.3 6.754L115.6 83.59 40.66 97.14c-7.54 1.36-11.13 10.06-6.78 16.26l43.4 62.6-43.4 62.6c-4.35 6.2-.76 14.9 6.76 16.3l74.94 13.55 13.54 74.96c1.357 7.516 10.04 11.11 16.31 6.754l26.59-18.46C164.5 314.5 160 295.8 160 276c0-8.5 1-16.9 2.5-25.9zm392.9-66.7c-12-36.8-46.6-63.4-87.4-63.4-3.125 0-6.125.25-9.125.5C437.3 104.8 411.3 96 384 96c-52.38 0-97.63 31.25-117.3 77.25C223.4 187.3 192 228 192 276c0 47.52 30.93 87.45 73.6 101.9-3.434-16.45 1.475-33.93 14.14-45.41C256.5 324.2 240 302 240 276c0-33.13 26.88-60 60-60 1.625 0 3.25.375 4.75.5C308.6 175.9 342.4 144 384 144c25.25 0 47.38 11.88 62.13 30.12C452.6 170.3 460 168 468 168c24.3 0 44 19.8 44 44 0 1.75-.25 3.375-.5 5.25C539.1 222.6 560 246.8 560 276c0 26.27-17.02 48.38-40.54 56.49 5.658 4.988 10.51 10.93 13.32 18.2 3.387 8.775 3.84 18.18 1.979 27.08C577.2 363.2 608 323.4 608 276c0-38.7-20.7-73.6-52.6-92.6zM488 352h-64.09l43.69-105.9c2.844-6.906.516-14.88-5.609-19.19-6.094-4.281-14.39-3.75-19.95 1.25l-140.8 128a15.994 15.994 0 0 0-4.156 17.62C299.5 379.9 305.4 384 312 384h64.09L332.4 489.9c-2.844 6.906-.516 14.88 5.609 19.19C340.8 511 344 512 347.2 512c3.875 0 7.734-1.406 10.77-4.156l140.8-128a15.994 15.994 0 0 0 4.156-17.62C500.5 356.1 494.6 352 488 352z"/></svg>