<svg xmlns="http://www.w3.org/2000/svg" viewBox="0 0 512 512"><!--! Font Awesome Pro 6.1.1 by @fontawesome - https://fontawesome.com License - https://fontawesome.com/license (Commercial License) Copyright 2022 Fonticons, Inc.--><path d="M500.3 255.7c7.406-12.47 11.34-26.78 11.34-41.72 0-45.16-36.75-81.91-81.91-81.91-18 0-38.94 4.281-62.59 12.75 8.469-23.66 12.75-44.59 12.75-62.59C379.9 36.91 343.2 0 297.1 0c-14.1 0-28.7 4.125-41.4 11.69C243.3 4.281 228.9.344 213.1.344c-45.16 0-81.91 36.75-81.91 81.91 0 18 4.281 38.94 12.75 62.59C121.2 136.4 100.3 132.1 82.25 132.1 36.91 132.1 0 168.8 0 214c0 15 4.125 29.62 11.69 42.28C4.281 268.8.344 283.1.344 298c0 45.16 36.75 81.91 81.91 81.91 18 0 38.94-4.281 62.59-12.75-8.47 23.66-12.75 44.59-12.75 62.59C132.1 475.1 168.8 512 213.1 512c15 0 29.63-4.125 42.28-11.69 12.47 7.406 26.78 11.34 41.72 11.34 45.16 0 81.91-36.75 81.91-81.91 0-18-4.281-38.94-12.75-62.59 23.66 8.469 44.59 12.75 62.59 12.75 46.25 0 83.15-36.7 83.15-81.9 0-15-4.1-29.6-11.7-42.3zm-70.5 76.2c-23.25 0-58.59-12.16-99.56-34.22-9.281-5.031-20.81-3.344-28.34 4.156-7.5 7.5-9.188 19.03-4.156 28.34 22.06 40.97 34.22 76.31 34.22 99.56 0 18.69-15.22 33.91-33.91 33.91-9.312 0-18.03-3.719-24.5-10.44a24.013 24.013 0 0 0-17.28-7.344c-6.562.031-12.94 2.75-17.44 7.531C232.3 460.3 223.5 464 213.1 464c-18.69 0-33.91-15.38-33.91-34.25 0-23.25 12.16-58.59 34.22-99.56 5.031-9.312 3.344-20.84-4.156-28.34-3.754-4.65-9.854-7.05-16.054-7.05a23.87 23.87 0 0 0-11.38 2.875c-40.97 22.06-76.31 34.22-99.56 34.22-18.69 0-33.91-15.22-33.91-33.91 0-9.312 3.719-18.03 10.44-24.5 4.71-5.385 7.37-10.785 7.34-17.385s-2.75-12.8-7.54-17.3C51.75 232.3 48 223.5 48 214c0-18.69 15.38-33.91 34.25-33.91 23.25 0 58.59 12.16 99.56 34.22 9.312 5.031 20.84 3.344 28.34-4.156s9.188-19.03 4.156-28.34C192.3 140.8 180.1 105.5 180.1 82.25c0-18.69 15.22-33.91 33.91-33.91 9.313 0 18.03 3.719 24.5 10.44a24.013 24.013 0 0 0 17.28 7.344c7.094 1.25 12.91-2.75 17.44-7.531C279.7 51.75 288.5 48 297.1 48c18.69 0 33.91 15.38 33.91 34.25 0 23.25-12.16 58.59-34.22 99.56-5.031 9.312-3.344 20.84 4.156 28.34 7.531 7.5 19.09 9.219 28.34 4.156 40.97-22.06 76.31-34.22 99.56-34.22 18.69 0 33.91 15.22 33.91 33.91 0 9.312-3.719 18.03-10.44 24.5-4.719 4.531-7.375 10.84-7.344 17.41s2.75 12.81 7.531 17.31C460.3 279.7 464 288.5 464 298c0 18.7-15.4 33.9-34.2 33.9z"/></svg>