<svg xmlns="http://www.w3.org/2000/svg" viewBox="0 0 512 512"><!--! Font Awesome Pro 6.1.1 by @fontawesome - https://fontawesome.com License - https://fontawesome.com/license (Commercial License) Copyright 2022 Fonticons, Inc.--><path d="M368 432c-27.9 0-53.9-7.9-76.9-21.7-3.3-2.5-7.3-6.2-11.1-9.2V464h48c13.3 0 24 10.7 24 24s-10.7 24-24 24H184c-13.3 0-24-10.7-24-24s10.7-24 24-24h48v-62.9c-3.8 3-7.8 6.7-12 9.2-22.1 13.8-48.1 21.7-76 21.7C64.47 432 0 367.5 0 288c0-68.5 47.89-125.9 112-140.4V144C112 64.47 176.5 0 256 0s144 64.47 144 144c0 1.2-.9 2.4-.9 3.6C464.1 162.1 512 219.5 512 288c0 79.5-64.5 144-144 144zm-16-288c0-53.02-43-96-96-96-53.9 0-96 42.98-96 96v2.4c.6 22.8-15.1 42.9-37.3 48-42.81 9.7-74.7 48-74.7 93.6 0 53 42.98 96 96 96 30.1 0 57-13.8 74.7-35.7 9.1-11.2 22.8-17.8 37.3-17.8 14.5 0 28.2 6.6 37.3 17.8 16.8 21.9 44.6 35.7 74.7 35.7 53 0 96-43 96-96 0-45.6-31.9-83.9-74.6-93.6-22.3-5.1-38-25.2-38.3-48 0-.8.9-1.6.9-2.4z"/></svg>