<svg xmlns="http://www.w3.org/2000/svg" viewBox="0 0 512 512"><!--! Font Awesome Pro 6.1.1 by @fontawesome - https://fontawesome.com License - https://fontawesome.com/license (Commercial License) Copyright 2022 Fonticons, Inc.--><path d="M323.3 101.3c-20.5-20.4-86.7 12.9-147.9 74.3-61.3 61.3-94.33 127.6-73.9 148 19.6 19.5 86.7-12.9 147.9-74.3 61.3-61.4 94.3-127.7 73.9-148zm114.1-34.09c-43.56-43.57-42.33-42.77-46.7-45.27C372.8 7.393 349.7 0 322.9 0c-63.44 0-145.3 38.98-214.6 108.3C6.1 210.5-30.2 340.1 27.31 397.6l39.89 39.89C116.9 487.2 182.1 512 247.2 512c218.7 0 357.9-276.2 190.2-444.79zM60.95 363.5c-4.393-4.393-7.709-10.01-9.92-16.79-2.213-6.781-3.326-14.74-3.326-23.81 0-52.45 36.98-123.3 94.22-180.6 14.33-14.33 29.51-27.39 45.05-38.92C233.6 68.83 283.4 48 322.9 48c18.34 0 32.13 4.494 40.1 13.36 8.783 8.785 13.24 22.45 13.24 40.6 0 52.45-36.98 123.3-94.22 180.6C225.6 339.9 154.6 376.9 101.9 376.9c-18.29 0-32.08-4.5-40.95-13.4zm354.85 16.3-35.38-35.26c-9.404-9.375-24.59-9.312-33.93.063-9.342 9.39-9.342 24.58.063 33.94l35.41 35.28c-24.18 20.88-52.42 35.57-82.88 43.42l-34.17-34.17c-9.376-9.375-24.56-9.375-33.93 0-9.374 9.375-9.374 24.56 0 33.94l6.565 6.566c-41.41-1.878-80.53-15.85-113.4-40.28 59.61-7.711 130.9-45.14 192.4-106.6 61.56-61.56 98.97-132.1 106.6-192.6 24.68 32.98 38.78 72.3 40.62 113.9l-6.862-6.864c-9.373-9.375-24.56-9.375-33.93 0s-9.373 24.56 0 33.94l34.37 34.38C449.7 328.8 435.7 356.2 415.8 379.8z"/></svg>