<svg xmlns="http://www.w3.org/2000/svg" viewBox="0 0 640 512"><!--! Font Awesome Pro 6.1.1 by @fontawesome - https://fontawesome.com License - https://fontawesome.com/license (Commercial License) Copyright 2022 Fonticons, Inc.--><path d="M478.2 280c-11.6 76.1-78 136-158.2 136-80.2 0-146.6-59.9-158.2-136H24c-13.25 0-24-10.7-24-24s10.75-24 24-24h137.8c11.6-77 78-136 158.2-136 80.2 0 146.6 59 158.2 136H616c13.3 0 24 10.7 24 24s-10.7 24-24 24H478.2zM320 368c61.9 0 112-50.1 112-112s-50.1-112-112-112-112 50.1-112 112 50.1 112 112 112z"/></svg>