<svg xmlns="http://www.w3.org/2000/svg" viewBox="0 0 448 512"><!--! Font Awesome Pro 6.1.1 by @fontawesome - https://fontawesome.com License - https://fontawesome.com/license (Commercial License) Copyright 2022 Fonticons, Inc.--><path d="M160 80c0 35.8-23.5 66.1-56 76.3v98.8c20.1-14.2 44.1-23.1 72-23.1h96c39.8 0 72-32.2 72-72v-3.7c-32.5-10.2-56-40.5-56-76.3 0-44.18 35.8-80 80-80s80 35.82 80 80c0 35.8-23.5 66.1-56 76.3v3.7c0 66.3-53.7 120-120 120h-96c-39.8 0-72 32.2-72 72v3.7c32.5 10.2 56 40.5 56 76.3 0 44.2-35.8 80-80 80-44.18 0-80-35.8-80-80 0-35.8 23.54-66.1 56-76.3V156.3C23.54 146.1 0 115.8 0 80 0 35.82 35.82 0 80 0c44.2 0 80 35.82 80 80zm-80 32c17.67 0 32-14.33 32-32S97.67 48 80 48 48 62.33 48 80s14.33 32 32 32zm288-64c-17.7 0-32 14.33-32 32s14.3 32 32 32 32-14.33 32-32-14.3-32-32-32zM80 464c17.67 0 32-14.3 32-32s-14.33-32-32-32-32 14.3-32 32 14.33 32 32 32z"/></svg>