<svg xmlns="http://www.w3.org/2000/svg" viewBox="0 0 512 512"><!--! Font Awesome Pro 6.1.1 by @fontawesome - https://fontawesome.com License - https://fontawesome.com/license (Commercial License) Copyright 2022 Fonticons, Inc.--><path d="M305.8 2.076C314.4 5.932 320 14.52 320 24v48h16c66.3 0 120 53.7 120 120v163.7c32.5 10.2 56 40.5 56 76.3 0 44.2-35.8 80-80 80s-80-35.8-80-80c0-35.8 23.5-66.1 56-76.3V192c0-39.8-32.2-72-72-72h-16v48c0 9.5-5.6 18.1-14.2 21.9-8.7 3.9-19.7 2.3-25.9-4.1l-80-72c-5-4.5-7.9-11-7.9-17.8 0-6.8 2.9-13.29 7.9-17.84l80-71.999c6.2-6.34 17.2-7.94 25.9-4.084v-.001zM432 464c17.7 0 32-14.3 32-32s-14.3-32-32-32-32 14.3-32 32 14.3 32 32 32zM104 355.7c32.5 10.2 56 40.5 56 76.3 0 44.2-35.8 80-80 80-44.18 0-80-35.8-80-80 0-35.8 23.54-66.1 56-76.3V156.3C23.54 146.1 0 115.8 0 80 0 35.82 35.82 0 80 0c44.2 0 80 35.82 80 80 0 35.8-23.5 66.1-56 76.3v199.4zM80 48c-17.67 0-32 14.33-32 32s14.33 32 32 32 32-14.33 32-32-14.33-32-32-32zm0 352c-17.67 0-32 14.3-32 32s14.33 32 32 32 32-14.3 32-32-14.33-32-32-32z"/></svg>