<svg xmlns="http://www.w3.org/2000/svg" viewBox="0 0 448 512"><!--! Font Awesome Pro 6.1.1 by @fontawesome - https://fontawesome.com License - https://fontawesome.com/license (Commercial License) Copyright 2022 Fonticons, Inc.--><path d="M160 80c0 35.8-23.5 66.1-56 76.3v199.4c32.5 10.2 56 40.5 56 76.3 0 44.2-35.8 80-80 80-44.18 0-80-35.8-80-80 0-35.8 23.54-66.1 56-76.3V156.3C23.54 146.1 0 115.8 0 80 0 35.82 35.82 0 80 0c44.2 0 80 35.82 80 80zM80 48c-17.67 0-32 14.33-32 32s14.33 32 32 32 32-14.33 32-32-14.33-32-32-32zm0 416c17.67 0 32-14.3 32-32s-14.33-32-32-32-32 14.3-32 32 14.33 32 32 32zm208-32c0-35.8 23.5-66.1 56-76.3V224c0-13.3 10.7-24 24-24s24 10.7 24 24v131.7c32.5 10.2 56 40.5 56 76.3 0 44.2-35.8 80-80 80s-80-35.8-80-80zm80 32c17.7 0 32-14.3 32-32s-14.3-32-32-32-32 14.3-32 32 14.3 32 32 32zM295 7.029c9.4-9.372 24.6-9.372 33.1 0L368 46.06l39-39.031c9.4-9.372 24.6-9.372 33.1 0 10.2 9.371 10.2 24.571 0 33.941L401.9 80l38.2 39c10.2 9.4 10.2 24.6 0 33.1-8.5 10.2-23.7 10.2-33.1 0l-39-38.2-39.9 38.2c-8.5 10.2-23.7 10.2-33.1 0-9.3-8.5-9.3-23.7 0-33.1l39.1-39L295 40.97c-9.3-9.37-9.3-24.57 0-33.941z"/></svg>