<svg xmlns="http://www.w3.org/2000/svg" viewBox="0 0 448 512"><!--! Font Awesome Pro 6.1.1 by @fontawesome - https://fontawesome.com License - https://fontawesome.com/license (Commercial License) Copyright 2022 Fonticons, Inc.--><path d="M104 355.7c32.5 10.2 56 40.5 56 76.3 0 44.2-35.8 80-80 80-44.18 0-80-35.8-80-80 0-35.8 23.54-66.1 56-76.3V156.3C23.54 146.1 0 115.8 0 80 0 35.82 35.82 0 80 0c44.2 0 80 35.82 80 80 0 35.8-23.5 66.1-56 76.3v199.4zM80 48c-17.67 0-32 14.33-32 32s14.33 32 32 32 32-14.33 32-32-14.33-32-32-32zm0 352c-17.67 0-32 14.3-32 32s14.33 32 32 32 32-14.3 32-32-14.33-32-32-32zm208 32c0-44.2 35.8-80 80-80s80 35.8 80 80-35.8 80-80 80-80-35.8-80-80zm80 32c17.7 0 32-14.3 32-32s-14.3-32-32-32-32 14.3-32 32 14.3 32 32 32zm48-384c0 26.5-21.5 48-48 48s-48-21.5-48-48c0-26.51 21.5-48 48-48s48 21.49 48 48zm-96 160c0-26.5 21.5-48 48-48s48 21.5 48 48-21.5 48-48 48-48-21.5-48-48z"/></svg>