<svg xmlns="http://www.w3.org/2000/svg" viewBox="0 0 512 512"><!--! Font Awesome Pro 6.1.1 by @fontawesome - https://fontawesome.com License - https://fontawesome.com/license (Commercial License) Copyright 2022 Fonticons, Inc.--><path d="M320 488c0 9.5-5.6 18.1-14.2 21.9-8.7 3.9-19.7 2.3-25.9-4.1l-80-72c-5-4.5-7.9-11-7.9-17.8 0-6.8 2.9-13.3 7.9-17.8l80-72c6.2-6.4 17.2-8 25.9-4.1 8.6 3.8 14.2 12.4 14.2 21.9v48h16c39.8 0 72-32.2 72-72V156.3c-32.5-10.2-56-40.5-56-76.3 0-44.18 35.8-80 80-80s80 35.82 80 80c0 35.8-23.5 66.1-56 76.3V320c0 66.3-53.7 120-120 120h-16v48zM464 79.1c0-16.77-14.3-32-32-32s-32 15.23-32 32c0 18.57 14.3 32 32 32s32-13.43 32-32zM192 24c0-9.48 5.6-18.068 14.2-21.924a24.14 24.14 0 0 1 25.9 4.085l80 71.999c5 4.55 7.9 11.04 7.9 17.84 0 6.8-2.9 13.3-7.9 17.8l-80 72c-7.1 6.4-17.2 8-25.9 4.1-8.6-3.8-14.2-12.4-14.2-21.9v-48h-16c-39.8 0-72 32.2-72 72v163.7c32.5 10.2 56 40.5 56 76.3 0 44.2-35.8 80-80 80-44.18 0-80-35.8-80-80 0-35.8 23.54-66.1 56-76.3V192c0-66.3 53.7-120 120-120h16V24zM48 432c0 17.7 14.33 32 32 32s32-14.3 32-32-14.33-32-32-32-32 14.3-32 32z"/></svg>