<svg xmlns="http://www.w3.org/2000/svg" viewBox="0 0 448 512"><!--! Font Awesome Pro 6.1.1 by @fontawesome - https://fontawesome.com License - https://fontawesome.com/license (Commercial License) Copyright 2022 Fonticons, Inc.--><path d="M208 248h83.7c10.2-32.5 40.5-56 76.3-56 44.2 0 80 35.8 80 80s-35.8 80-80 80c-35.8 0-66.1-23.5-76.3-56H208c-40.2 0-76.8-15.6-104-41.1v100.8c32.5 10.2 56 40.5 56 76.3 0 44.2-35.8 80-80 80-44.18 0-80-35.8-80-80 0-35.8 23.54-66.1 56-76.3V156.3C23.54 146.1 0 115.8 0 80 0 35.82 35.82 0 80 0c44.2 0 80 35.82 80 80 0 35.6-23.2 65.7-55.3 76.1 6 51.7 50 91.9 103.3 91.9zM80 112c17.67 0 32-14.33 32-32S97.67 48 80 48 48 62.33 48 80s14.33 32 32 32zm0 352c17.67 0 32-14.3 32-32s-14.33-32-32-32-32 14.3-32 32 14.33 32 32 32zm288-224c-17.7 0-32 14.3-32 32s14.3 32 32 32 32-14.3 32-32-14.3-32-32-32z"/></svg>