<svg xmlns="http://www.w3.org/2000/svg" viewBox="0 0 448 512"><!--! Font Awesome Pro 6.1.1 by @fontawesome - https://fontawesome.com License - https://fontawesome.com/license (Commercial License) Copyright 2022 Fonticons, Inc.--><path d="M160 80c0 35.8-23.5 66.1-56 76.3V192c0 22.1 17.9 40 40 40h160c22.1 0 40-17.9 40-40v-35.7c-32.5-10.2-56-40.5-56-76.3 0-44.18 35.8-80 80-80s80 35.82 80 80c0 35.8-23.5 66.1-56 76.3V192c0 48.6-39.4 88-88 88h-56v75.7c32.5 10.2 56 40.5 56 76.3 0 44.2-35.8 80-80 80s-80-35.8-80-80c0-35.8 23.5-66.1 56-76.3V280h-56c-48.6 0-88-39.4-88-88v-35.7C23.54 146.1 0 115.8 0 80 0 35.82 35.82 0 80 0c44.2 0 80 35.82 80 80zm-80 32c17.67 0 32-14.33 32-32S97.67 48 80 48 48 62.33 48 80s14.33 32 32 32zm288 0c17.7 0 32-14.33 32-32s-14.3-32-32-32-32 14.33-32 32 14.3 32 32 32zM224 400c-17.7 0-32 14.3-32 32s14.3 32 32 32 32-14.3 32-32-14.3-32-32-32z"/></svg>