<svg xmlns="http://www.w3.org/2000/svg" viewBox="0 0 576 512"><!--! Font Awesome Pro 6.1.1 by @fontawesome - https://fontawesome.com License - https://fontawesome.com/license (Commercial License) Copyright 2022 Fonticons, Inc.--><path d="M58.76 256 216.6 406.6c9.6 9.2 9.9 23.5.8 34-9.2 9.6-24.4 9.9-34 .8L7.428 273.4C2.684 268.8 0 262.6 0 256c0-6.6 2.684-12.8 7.428-17.4L183.4 70.64c9.6-9.15 24.8-8.8 34 .79 9.1 9.59 8.8 24.78-.8 33.97L58.76 256zM359.4 105.4c-9.6-9.19-9.9-24.38-.8-33.97 9.2-9.59 23.5-9.94 34-.79l176 167.96c4.7 4.6 7.4 10.8 7.4 17.4 0 6.6-2.7 12.8-7.4 17.4l-176 168c-10.5 9.1-24.8 8.8-34-.8-9.1-10.5-8.8-24.8.8-34L517.2 256 359.4 105.4z"/></svg>