<svg xmlns="http://www.w3.org/2000/svg" viewBox="0 0 512 512"><!--! Font Awesome Pro 6.1.1 by @fontawesome - https://fontawesome.com License - https://fontawesome.com/license (Commercial License) Copyright 2022 Fonticons, Inc.--><path d="M170.2 196.4c-8.2-3.1-25.8-4.4-42.9-4.4-16.83 0-33.06 1.297-39.01 3.449C29.4 216.8-.047 283.8 0 351.6c.045 66.77 28.7 134.1 85.8 155.9 8.17 3.2 25.8 4.5 42.9 4.5 16.83 0 33.06-1.297 39.01-3.451 58.92-21.33 88.37-88.34 88.32-156.2C255.1 285.6 227.3 218.2 170.2 196.4zm-59 267c-4.756-.37-7.926-.815-9.361-1.102-37.13-14.1-53.8-66.21-53.83-110.7C47.97 311 62.39 265.3 93.84 246.2c-16.13 43.87-11.81 87.11 13.72 124.4 20.44 30.1 21.54 61.3 3.64 92.8zm55.5-8.2c11.04-37.78 4.574-76.39-19.48-111.7-20.75-30.32-20.02-64.84 1.797-102.5 2.35.258 4.256.516 5.191.703 37.13 14.1 53.79 66.21 53.82 110.7C208 391.1 195.1 434.7 166.7 455.2zM455.6 56.93C421.8 23.23 377.1 0 334.4 0c-14.98 0-29.73 2.852-43.69 9.106-15.31 6.859-51.31 44.04-56.53 55.17C208.5 119 234.1 184.8 280.4 231c33.74 33.7 78.42 56.93 121.2 56.93 14.98 0 29.73-2.852 43.69-9.106 15.31-6.859 51.31-44.04 56.53-55.17C527.5 168.1 501.9 103.2 455.6 56.93zm-31 178.57c-6.99 2.947-14.71 4.439-22.98 4.439-27.33 0-60.77-16.44-87.26-42.89-24.65-24.61-44.18-59.9-41.79-91.41 21.45 35.34 53.63 58.46 94.51 66.15 33.6 6.328 56.2 25.03 68.68 54.34-4.36 4.071-8.46 7.671-11.16 9.371zm-49.5-110.9c-34.92-6.57-59.39-28.59-73.04-65.35 3.328-2.967 6.328-5.439 8.471-6.832 6.99-2.947 14.71-4.439 22.98-4.439 27.33 0 60.77 16.44 87.26 42.89 23.36 23.33 42.15 56.25 42.04 86.46C443.2 149.9 413.4 131.7 375.1 124.6z"/></svg>