<svg xmlns="http://www.w3.org/2000/svg" viewBox="0 0 448 512"><!--! Font Awesome Pro 6.1.1 by @fontawesome - https://fontawesome.com License - https://fontawesome.com/license (Commercial License) Copyright 2022 Fonticons, Inc.--><path d="M435.8 130.5c-9.9-23.33-65.71-77.27-82.65-84.81C332.1 36.3 309.9 32 287.2 32c-67.4 0-138.8 37.66-193.76 92.7-72.35 72.44-116.1 174.8-81.27 256.8 9.9 23.33 65.7 77.27 82.65 84.81C115.9 475.7 138.1 480 160.9 480c67.34 0 138.7-37.67 193.6-92.7 72.4-72.4 116.1-174.8 81.3-256.8zm-308.3 28.1C176.6 109.4 236.3 80 287.1 80c16.24 0 31.5 3.027 45.37 8.998 5.111 3.217 13.72 10.62 22.84 19.31-23.39 75.84-69.77 121.2-138.7 134.2-74.55 14.06-129.5 56.87-159.4 121.7-.242-.412-.703-.994-.894-1.365C29 298.3 72.36 213.8 127.5 158.6zm193 194.8C271.4 402.6 211.7 432 160.9 432c-16.24 0-31.5-3.027-45.37-9-5.086-3.199-13.63-10.55-22.7-19.18 20.95-62.9 65.34-101.5 132.7-114.2 78.09-14.67 134.6-63.12 166.1-140.5.008.016-.008-.016 0 0C418.1 213.7 375.6 298.2 320.5 353.4z"/></svg>