<svg xmlns="http://www.w3.org/2000/svg" viewBox="0 0 512 512"><!--! Font Awesome Pro 6.1.1 by @fontawesome - https://fontawesome.com License - https://fontawesome.com/license (Commercial License) Copyright 2022 Fonticons, Inc.--><path d="M176.6 89.54c.6 1.21 2 3.11 4.7 5.54.3.33.7.67 1.1 1.01-18.6.36-36.9 1.75-54.4 4.11V87.1c0-17.12 9.7-31.52 21.1-41.84 11.5-10.34 26.8-18.54 43.6-24.94C226.4 7.454 271.5 0 320 0s93.6 7.454 127.3 20.32c16.8 6.4 32.1 14.6 43.6 24.94C502.3 55.58 512 69.98 512 87.1v208c0 18.9-9.7 33.3-21.1 43.6-11.5 10.4-26.8 18.6-43.6 25-9.6 3.6-20.1 6.9-31.3 9.6v-49.7c5.1-1.5 9.8-3.1 14.2-4.8 13.7-5.2 23-10.7 28.5-15.7 2.7-2.4 4.1-4.4 4.7-5.6.6-1 .6-1.5.6-2.4v-42.7c-5.3 2.7-10.9 5.1-16.7 7.3-9.6 3.6-20.1 6.9-31.3 9.6v-49.7c5.1-1.5 9.8-3.1 14.2-4.8 13.7-5.2 23-10.7 28.5-15.7 2.7-2.4 4.1-4.4 4.7-5.6.5-.9-.3-1.4.6-2.4v-42.7c-5.3 2.7-10.9 5.1-16.7 7.3-13.7 5.2-30.2 9.6-46.3 12.9-5.1-7.6-11-13.9-16.7-19.1-10.1-9.1-21.9-17.4-34.1-22.6 31.7-2.3 59.4-8.2 80-16.1 13.7-5.2 23-10.7 28.5-15.72 2.7-2.43 4.1-4.33 4.7-5.54.5-.93-.3-1.43.6-2.44 0 .88 0 .43-.6-.64-.6-1.21-2-3.12-4.7-5.54-5.5-4.98-14.8-10.57-28.5-15.75-27-10.3-66-18.07-110.2-18.07s-83.2 7.77-110.3 18.07c-13.6 5.18-22.9 10.77-28.4 15.75-2.7 2.42-4.1 4.33-4.7 5.54-1.5 1.07-1.5 1.52-1.5.64.9 1.02 1 1.51 1.5 2.44zM0 215.1c0-18 9.674-31.5 21.14-41.8 11.47-10.4 26.72-18.6 43.52-25C98.43 135.5 143.5 128 192 128s93.6 7.5 127.3 20.3c16.8 6.4 32.1 14.6 43.6 25 11.4 10.3 21.1 23.8 21.1 41.8V424c0 18-9.7 32.4-21.1 42.7-11.5 10.4-26.8 18.6-43.6 25C285.6 504.5 240.5 512 192 512s-93.57-7.5-127.34-20.3c-16.8-6.4-32.05-14.6-43.52-25C9.674 456.4 0 442 0 424V215.1zm48.56 2.4c.64 1.2 2.01 3.2 4.7 5.6 5.53 5 14.89 10.5 28.49 15.7 27.05 10.3 66.05 16.3 110.25 16.3s83.2-6 110.2-16.3c13.7-5.2 23-10.7 28.5-15.7 2.7-2.4 4.1-4.4 4.7-5.6.5-.9-.3-1.4.6-2.4 0 0 0 .4-.6-.6-.6-1.2-2-3.2-4.7-5.6-5.5-5-14.8-10.5-28.5-15.7-27-10.3-66-17.2-110.2-17.2s-83.2 6.9-110.25 17.2c-13.6 5.2-22.96 10.7-28.49 15.7-2.69 2.4-4.06 4.4-4.7 5.6-.58 1-1.46.6-.56.6 0 1 .05 1.5.56 2.4zM336 276.4c-5.3 2.7-10.9 5.1-16.7 7.3-33.7 12.8-78.8 19.4-127.3 19.4s-93.57-6.6-127.34-19.4c-5.76-2.2-11.35-4.6-16.66-7.3V320c0 .1.05.6.56 1.5.64 1.2 2.01 3.2 4.7 5.6 5.53 5 14.89 10.5 28.49 15.7C108.8 353.1 147.8 360 192 360s83.2-6.9 110.2-17.2c13.7-5.2 23-10.7 28.5-15.7 2.7-2.4 4.1-4.4 4.7-5.6.5-.9-.3-1.4.6-1.5v-43.6zM64.66 387.7c-5.76-2.2-11.35-4.6-16.66-7.3V424c-.9 0-.02.5.56 1.5.64 1.2 2.01 3.2 4.7 5.6 5.53 5 14.89 10.5 28.49 15.7C108.8 457.1 147.8 464 192 464s83.2-6.9 110.2-17.2c13.7-5.2 23-10.7 28.5-15.7 2.7-2.4 4.1-4.4 4.7-5.6.6-1 .6-1.5.6-1.5v-43.6c-5.3 2.7-10.9 5.1-16.7 7.3-33.7 12.8-78.8 20.3-128.2 20.3-47.6 0-92.67-7.5-126.44-20.3z"/></svg>