<svg xmlns="http://www.w3.org/2000/svg" viewBox="0 0 384 512"><!--! Font Awesome Pro 6.1.1 by @fontawesome - https://fontawesome.com License - https://fontawesome.com/license (Commercial License) Copyright 2022 Fonticons, Inc.--><path d="M181.9 101.6c8 10.7 14.2 24.6 18.9 39.7 9.6 30.4 15.2 71 15.2 114.7s-5.6 84.3-15.2 114.7c-4.7 15.1-10.9 29-18.9 39.7-7.6 10.3-20.2 21.6-37.9 21.6s-30.3-11.3-37.9-21.6c-8-10.7-14.17-24.6-18.93-39.7C77.56 340.3 72 299.7 72 256s5.56-84.3 15.17-114.7c4.76-15.1 10.93-29 18.93-39.7C113.7 91.33 126.3 80 144 80s30.3 11.33 37.9 21.6zm-49 254.7c3.8 11.7 7.7 19.8 11.1 24.6 3.4-4.8 7.3-12.9 11.1-24.6 7.7-24.6 12.9-60.1 12.9-100.3 0-40.2-5.2-75.7-12.9-100.3-3.8-12.6-7.7-19.8-11.1-24.6-3.4 4.8-7.3 12-11.1 24.6-7.7 24.6-12.9 60.1-12.9 100.3 0 40.2 5.2 75.7 12.9 100.3zM144 0h112c70.7 0 128 114.6 128 256s-57.3 256-128 256H144C64.47 512 0 397.4 0 256S64.47 0 144 0zm59.1 413.5C225.3 375.6 240 320 240 256c0-64.9-14.7-119.6-36.9-157.49C181.8 59.11 158.7 48 144 48c-14.7 0-37.8 11.11-59.99 50.51C62.7 136.4 48 191.1 48 256c0 64 14.7 119.6 36.01 157.5C106.2 452.9 129.3 464 144 464c14.7 0 37.8-11.1 59.1-50.5zM334.3 296a471.705 471.705 0 0 0 0-80h-48c1.1 13 1.7 26.4 1.7 40 0 13.6-.6 26.1-1.7 40h48zm-52.1 32c-3.7 22.8-10.1 44.3-16.2 64h47.7c7-18.7 12.7-40.3 16.6-64h-48.1zM256 464c6.8 0 24.2-6.2 43.1-40h-46.4c-7.4 14.1-15.7 28.4-25.6 40H256zm57.7-344H266c6.1 19.7 12.5 41.2 16.2 64h48.1c-3.9-23.7-9.6-45.3-16.6-64zm-14.6-32c-18.9-33.79-36.3-40-43.1-40h-28.9c9.9 11.6 18.2 25.04 25.6 40h46.4zm-151.9 39.3c.1 0 .2-.1.2-.1l-.2.1zm-6.6-.1s.1.1.2.1l-.2-.1zm.2 257.5c-.1 0-.2.1-.2.1l.2-.1zm6.6.1s-.1-.1-.2-.1z"/></svg>