<svg xmlns="http://www.w3.org/2000/svg" viewBox="0 0 128 512"><!--! Font Awesome Pro 6.1.1 by @fontawesome - https://fontawesome.com License - https://fontawesome.com/license (Commercial License) Copyright 2022 Fonticons, Inc.--><path d="M64 192c35.35 0 64-28.65 64-64S99.35 64 64 64 0 92.65 0 128c0 35.3 28.66 64 64 64zm0-80c8.822 0 16 7.178 16 16s-7.18 16-16 16-16-7.2-16-16 7.18-16 16-16zm0 208c-35.35 0-64 28.65-64 64s28.65 64 64 64 64-28.65 64-64c0-35.3-28.65-64-64-64zm0 80c-8.822 0-16-7.178-16-16s7.178-16 16-16 16 7.178 16 16-7.18 16-16 16z"/></svg>