<svg xmlns="http://www.w3.org/2000/svg" viewBox="0 0 320 512"><!--! Font Awesome Pro 6.1.1 by @fontawesome - https://fontawesome.com License - https://fontawesome.com/license (Commercial License) Copyright 2022 Fonticons, Inc.--><path d="M212.9 72.86c10 .92 19.9 2.58 29.4 4.9l14.4-59.39c3.1-12.889 16-20.812 28.9-17.702 12.9 3.11 20.8 16.072 17.7 28.962L287.6 94.8c7.8 4.06 15.2 8.6 22.3 13.6 10.8 7.7 13.3 22.6 5.7 33.5-7.7 10.8-23.5 13.3-33.5 5.7-2-1.5-4.1-2.9-6.2-4.2l-59.7 247c24.6-3.5 47.1-12.7 65.9-26 10-7.7 25.8-5.1 33.5 5.7 7.6 10 5.1 25.8-5.7 33.5-29.9 21.1-66.2 34.2-105.6 36.1l-13 53.9c-3.1 12.9-16 20.8-28.9 17.7-12.9-3.1-20.8-16-17.7-28.9l11.1-46c-9.9-1.9-19.5-4.5-28.8-7.7l-15.7 64.9c-3.1 12.9-16.05 20.8-28.93 17.7-12.89-3.1-20.81-16-17.7-28.9l18.23-75.6C33.04 373.8 0 319 0 255.1 0 163.2 71.63 88.26 163.2 74.32l13.5-55.95c3.1-12.888 16-20.812 28.9-17.702 12.9 3.11 20.8 16.072 17.7 28.962l-10.4 43.23zM150.7 126C90.52 143.4 48 195.9 48 255.1c0 40 18 75.9 47.15 101L150.7 126zM167 389.7l64.1-265.3c-9.5-2.3-19.4-3.7-29.6-4.2l-63.2 261.6c9.1 3.5 18.7 5.3 28.7 7.9z"/></svg>