<svg xmlns="http://www.w3.org/2000/svg" viewBox="0 0 512 512"><!--! Font Awesome Pro 6.1.1 by @fontawesome - https://fontawesome.com License - https://fontawesome.com/license (Commercial License) Copyright 2022 Fonticons, Inc.--><path d="m308.4 263.1-61.01-9-27.38-55.5c-2.25-4.625-7.001-7.5-12-7.5-5.125 0-9.751 2.875-12 7.5l-27.38 55.5-61.13 9c-5.2 1.5-9.28 5.1-10.91 10-1.5 4.7-.25 10.1 3.51 13.6l44.25 43.25-10.5 61c-.875 5 1.125 10.12 5.25 13.12s9.626 3.375 14.13 1l54.75-29.02 54.64 29.02c4.5 2.375 10 2 14.13-1 4.125-3 6.126-8.125 5.375-13.12l-10.5-61 44.25-43.25c3.625-3.5 5-8.875 3.375-13.75-1.65-4.75-5.75-8.35-10.85-9.85zm194-253.378c-8.626-8.75-21.38-11.88-33.13-8.25-28.38 8.5-95.01 29.12-153.3 52.25-4-10.25-12.13-18.38-22.38-22.25s-21.75-3.125-31.5 1.1c-42.25 22-146.3 79.13-203.5 136.3-78.13 78.13-78.13 205.4 0 283.5 78.38 78.38 205.3 78.38 283.7 0 57.01-57 114.4-161.2 136.4-203.4 5.125-9.75 5.75-21.12 1.875-31.5-3.875-10.25-12-18.38-22.38-22.38 23.25-58.5 43.88-124.9 52.38-153.1C514.1 31.1 511 18.35 502.4 9.722zM430.7 237.7c-23.88 44.75-74.01 133.1-122.5 181.5-28.5 28.63-67.38 44.75-107.8 44.75-40.5 0-79.26-16.12-107.9-44.75-59.38-59.37-59.38-156.1 0-215.6 49.13-49.12 141.8-101.1 181.6-122.4 2.5 8 4.375 14.38 11 37.38l25-10.62c47.5-20.5 107.4-40.25 146.3-52.5-12.25 38.88-31.88 98.5-52.38 146.4l-10.75 24.88c28.33 8.36 31.43 9.36 37.43 10.96z"/></svg>