<svg xmlns="http://www.w3.org/2000/svg" viewBox="0 0 512 512"><!--! Font Awesome Pro 6.1.1 by @fontawesome - https://fontawesome.com License - https://fontawesome.com/license (Commercial License) Copyright 2022 Fonticons, Inc.--><path d="M256 32C114.6 32 .027 125.1.027 240c0 47.63 19.91 91.25 52.91 126.3-14.88 39.5-45.87 72.88-46.37 73.25-6.625 7-8.374 17.25-4.624 26C5.818 474.3 14.38 480 24 480c61.5 0 109.1-25.75 139.1-46.25 28 9.05 60.2 14.25 92.9 14.25 141.4 0 255.1-93.13 255.1-208S397.4 32 256 32zm.1 368c-26.75 0-53.13-4.125-78.38-12.12l-22.82-7.08-19.5 13.7c-14.25 10.12-33.88 21.38-57.5 29 7.375-12.12 14.38-25.75 19.88-40.25l10.62-28-20.62-21.88C69.82 314.1 48.07 282.3 48.07 240c0-88.25 93.25-160 208-160s208 71.75 208 160S370.8 400 256.1 400zm-40-241c-9.375-9.375-24.56-9.375-33.94 0l-64 64c-9.375 9.375-9.375 24.56 0 33.94l64 64C187.7 325.7 193.9 328 200 328s12.28-2.344 16.97-7.031c9.375-9.375 9.375-24.56 0-33.94L169.9 240l47.03-47.03c9.37-9.37 9.37-24.57-.83-33.97zm112 0c-9.375-9.375-24.56-9.375-33.94 0s-9.375 24.56 0 33.94L342.1 240l-47.03 47.03c-9.375 9.375-9.375 24.56 0 33.94C299.7 325.7 305.9 328 312 328s12.28-2.344 16.97-7.031l64-64c9.375-9.375 9.375-24.56 0-33.94L328.1 159z"/></svg>