<svg xmlns="http://www.w3.org/2000/svg" viewBox="0 0 512 512"><!--! Font Awesome Pro 6.1.1 by @fontawesome - https://fontawesome.com License - https://fontawesome.com/license (Commercial License) Copyright 2022 Fonticons, Inc.--><path d="M302.1 185.1c-5.623-1.793-11.93.055-15.54 4.863L256 230.7l-30.6-40.8c-3.613-4.809-9.889-6.684-15.54-4.863-5.66 1.063-9.46 7.263-9.46 13.263v83.46c0 7.689 6.223 13.91 13.91 13.91 7.689 0 13.91-6.221 13.91-13.91V239.1l16.68 22.25c5.271 7.01 17.01 7.01 22.28 0l16.68-22.25v41.73c0 7.689 6.221 13.91 13.91 13.91s13.91-6.221 13.91-13.91V198.3c-.08-6-3.88-12.2-9.58-13.2zm-160.5 41.5c-9.4-2.7-18.5-4.7-17.6-10.5.7-3 8.1-4.8 18.7-3.4 3.613.57 7.607 1.82 11.38 3.125 7.32 2.575 15.22-1.325 17.72-8.625 2.498-7.254-1.359-15.19-8.613-17.69C157.8 187.7 152.1 186 147 185.2c-26.7-4.2-46.9 6.7-50.42 27.1-4.92 27.8 23.02 36.9 33.62 40 11.93 3.432 22.27 5.59 21.35 10.73-.75 3.87-8.85 5.77-18.75 4.27-5.5-.9-12.1-3.5-18.2-5.6-7.3-2.6-13.9 1.6-16.47 8.8-2.59 7.3 2.37 15.7 9.67 18.3 6.357 2.309 13.58 4.916 20.76 6.004 3.775.598 7.443.87 10.95.87 21.11 0 36.46-10.46 39.45-27.93C183.1 238.7 156.4 230.8 141.6 226.6zm236.5 0c-9.385-2.68-18.47-4.719-17.58-9.617.68-3.912 8.967-5.705 18.69-4.266 3.613.57 7.607 1.82 11.38 3.125 7.309 2.527 15.19-1.357 17.69-8.611 2.5-7.254-1.357-15.19-8.611-17.69-5.354-1.848-11.03-3.531-16.17-4.32-26.73-4.184-46.92 6.711-50.42 27.03-4.918 28.72 23.04 36.92 33.58 39.99 11.93 3.432 22.27 5.59 21.35 10.73-.678 3.967-8.803 5.787-18.75 4.293-5.514-.86-12.08-3.426-18.15-5.598-7.279-2.58-13.91 1.631-16.49 8.857s2.406 15.52 9.633 18.13c6.357 2.309 13.6 5.018 20.77 6.105 3.777.598 7.445.87 10.95.87 21.11 0 36.46-10.46 39.45-27.93C420.4 238.7 392.9 230.8 378.1 226.6zM256 32C114.7 32 .014 125.1.014 240c0 47.63 19.9 91.25 52.89 126.3-14.87 39.5-45.87 72.88-46.37 73.25-6.623 7-8.374 17.25-4.624 26C5.782 474.3 14.35 480 23.97 480c61.49 0 109.1-25.75 139.1-46.25C191.1 442.8 223.3 448 256 448c141.4 0 256-93.1 256-208S397.4 32 256 32zm0 368c-26.75 0-53.12-4.125-78.36-12.12l-22.75-7.125L135.4 394.5c-14.25 10.12-33.87 21.38-57.49 29 7.373-12.12 14.37-25.75 19.87-40.25l10.62-28-20.62-21.88C69.81 314.1 48.06 282.3 48.06 240c0-88.25 93.24-160 207.1-160 114.7 0 207.1 71.75 207.1 160S370.8 400 256 400z"/></svg>