<svg xmlns="http://www.w3.org/2000/svg" viewBox="0 0 512 512"><!--! Font Awesome Pro 6.1.1 by @fontawesome - https://fontawesome.com License - https://fontawesome.com/license (Commercial License) Copyright 2022 Fonticons, Inc.--><path d="m323.2 103.5-48.89-93.39C270.8 3.361 263.4 0 256 0s-14.8 3.361-18.3 10.08l-48.89 93.39C80.08 127.5 0 208 0 304c0 114.9 114.6 208 256 208s256-93.09 256-208c0-96-80.1-176.5-188.8-200.5zM256 464c-114.7 0-208-71.78-208-160 0-70.83 62.17-134 151.2-153.7l21.8-4.8 35-66.83 35 66.86 21.82 4.814C401.8 169.1 464 233.2 464 304c0 88.2-93.3 160-208 160z"/></svg>