<svg xmlns="http://www.w3.org/2000/svg" viewBox="0 0 640 512"><!--! Font Awesome Pro 6.1.1 by @fontawesome - https://fontawesome.com License - https://fontawesome.com/license (Commercial License) Copyright 2022 Fonticons, Inc.--><path d="m630.8 469.1-118.1-92.59C552 340 576 292.4 576 240c0-114.9-114.6-207.1-255.1-207.1-67.74 0-129.1 21.53-174.9 56.47L38.81 5.117C28.34-3.055 13.32-1.248 5.11 9.19c-8.167 10.44-6.344 25.53 4.078 33.7l591.1 463.1C605.6 510.3 610.8 512 615.1 512c7.125 0 14.17-3.159 18.9-9.191 9.1-10.409 7.2-25.509-3.2-33.709zM474.6 346.6 184.3 119.1C220.8 94.85 268.1 80 320.1 80c114.8 0 208 71.75 208 160 0 41-20.4 78.3-53.5 106.6zM320.1 400c-26.75 0-53.13-4.125-78.38-12.12l-22.82-7.08-19.5 13.7c-14.25 10.12-33.88 21.38-57.5 29 7.375-12.12 14.38-25.75 19.88-40.25l10.62-28-20.62-21.88C133.8 314.1 112.1 282.3 112.1 240c0-16.84 3.438-33.05 9.727-48.3L83.13 161.4c-12.21 24.3-19.1 50.8-19.1 77.7 0 47.63 19.91 91.25 52.91 126.3-14.88 39.5-45.87 72.88-46.37 73.25-6.625 7-8.374 17.25-4.624 26C69.82 474.3 78.38 480 88 480c61.5 0 109.1-25.75 139.1-46.25 28.88 9 60.15 14.25 92.9 14.25 37.51 0 73.08-6.715 105.2-18.5l-46.13-36.15A265.844 265.844 0 0 1 320.1 400z"/></svg>