<svg xmlns="http://www.w3.org/2000/svg" viewBox="0 0 512 512"><!--! Font Awesome Pro 6.1.1 by @fontawesome - https://fontawesome.com License - https://fontawesome.com/license (Commercial License) Copyright 2022 Fonticons, Inc.--><path d="M256 31.1C114.6 31.1.9 124.22.9 239.1c0 47.62 19.93 91.25 52.93 126.3-14.88 39.5-45.87 72.88-46.37 73.25-6.625 7-8.374 17.25-4.624 26C5.722 474.2 14.47 480 23.97 480c61.5 0 109.1-25.75 139.1-46.25 30 9.375 61.42 14.25 92.92 14.25 141.4 0 255.1-93.13 255.1-207.1S397.4 31.1 256 31.1zm0 368.9c-26.62 0-53-4.125-78.38-12.12L155 380.8l-19.5 13.7c-17.62 12.5-37 22.25-57.5 29 7.876-12.75 14.5-26.25 19.88-40.25l10.62-28-20.62-21.87C69.75 314.1 48 282.2 48 240c0-88.25 93.38-160 208-160 114.8 0 208 71.75 208 160s-93.2 160-208 160zm75.2-271.2-128 47.25c-6.7 2.05-11.2 8.15-11.2 15.15v98.72c-5.25-1.25-10.63-1.996-16-1.996-26.5 0-48 14.38-48 32s21.5 32 48 32 47.1-14.38 47.1-32l.9-84.824 96-37.5v60.34c-5.25-1.25-10.63-1.996-16-1.996-26.5 0-48 14.38-48 32s21.5 32 48 32 48-14.38 48-32V144c0-5.125-2.375-9.875-6.5-12.88s-9.4-3.92-14.3-2.32z"/></svg>