<svg xmlns="http://www.w3.org/2000/svg" viewBox="0 0 512 512"><!--! Font Awesome Pro 6.1.1 by @fontawesome - https://fontawesome.com License - https://fontawesome.com/license (Commercial License) Copyright 2022 Fonticons, Inc.--><path d="m309.8 168.4-79.1 92.3-30.6-29.7c-9.375-9.375-24.56-9.375-33.94 0s-9.375 24.56 0 33.94l48 48c5.34 4.56 11.54 6.16 17.84 6.16.313 0 .625 0 .906-.031 6.694.631 12.994-2.369 17.294-7.469l96-112c8.625-10.06 7.469-25.22-2.594-33.84-10.006-8.56-25.206-7.46-33.806 2.64zM256 31.1C114.6 31.1.9 124.23.9 239.1c0 47.62 19.91 91.25 52.91 126.3-14.87 39.5-45.87 72.88-46.37 73.25-6.623 7-8.374 17.25-4.624 26C5.815 474.3 14.38 480 24 480c61.49 0 109.1-25.75 139.1-46.25 28.87 9 60.16 14.25 92.9 14.25 141.4 0 255.1-93.13 255.1-207.1S397.4 31.1 256 31.1zm0 368.9c-26.75 0-53.12-4.125-78.36-12.12l-22.75-7.125L135.4 394.5c-14.25 10.12-33.87 21.38-57.49 29 7.373-12.12 14.37-25.75 19.87-40.25l10.62-28-20.62-21.88C69.81 314.1 48.06 282.3 48.06 240c0-88.25 93.24-160 207.1-160 114.7 0 207.1 71.75 207.1 160S370.8 400 256 400z"/></svg>