<svg xmlns="http://www.w3.org/2000/svg" viewBox="0 0 512 512"><!--! Font Awesome Pro 6.1.1 by @fontawesome - https://fontawesome.com License - https://fontawesome.com/license (Commercial License) Copyright 2022 Fonticons, Inc.--><path d="M256 31.1C114.6 31.1.9 124.23.9 239.1c0 47.62 19.91 91.25 52.91 126.3-14.87 39.5-45.87 72.88-46.37 73.25-6.623 7-8.373 17.25-4.623 26C5.816 474.3 14.38 480 24 480c61.49 0 109.1-25.75 139.1-46.25 28.87 9 60.16 14.25 92.9 14.25 141.4 0 255.1-93.13 255.1-207.1S397.4 31.1 256 31.1zm0 368.9c-26.75 0-53.12-4.125-78.36-12.12l-22.75-7.125L135.4 394.5c-14.25 10.12-33.87 21.38-57.49 29 7.373-12.12 14.37-25.75 19.87-40.25l10.62-28-20.62-21.88C69.81 314.1 48.06 282.3 48.06 240c0-88.25 93.24-160 207.1-160 114.7 0 207.1 71.75 207.1 160S370.8 400 256 400zm63.1-192.9c17.75 0 31.99-14.25 31.99-31.1s-14.25-32-31.1-32-31.1 14.25-31.1 32 13.31 31.1 30.21 31.1zm-128 0c17.75 0 31.99-14.25 31.99-31.1s-14.25-32-31.1-32-31.1 14.25-31.1 32 13.31 31.1 30.21 31.1zm134.6 65.2c-17.2 20.1-42.6 31.7-70.6 31.7-27.12 0-52.49-11.62-69.74-31.75-7.76-10.15-22.96-11.25-32.96-2.75-10.2 8.6-11.2 23.8-2.7 33.8 26.5 31 65.12 48.75 106.2 48.75 41.12 0 79.73-17.75 106.2-48.75 8.5-10 7.375-25.12-2.75-33.75-9.85-8.65-25.05-7.45-33.65 2.75z"/></svg>