<svg xmlns="http://www.w3.org/2000/svg" viewBox="0 0 448 512"><!--! Font Awesome Pro 6.1.1 by @fontawesome - https://fontawesome.com License - https://fontawesome.com/license (Commercial License) Copyright 2022 Fonticons, Inc.--><path d="M352 288h-48v-64h48c53.02 0 96-42.98 96-96s-42.98-96-96-96-96 42.98-96 96v48h-64v-48c0-53.02-42.98-96-96-96S0 74.98 0 128s42.98 96 96 96h48v64H96c-53.02 0-96 42.98-96 96s42.98 96 96 96 96-42.98 96-96v-48h64v48c0 53.02 42.98 96 96 96s96-42.98 96-96-43-96-96-96zm-48-160c0-26.47 21.53-48 48-48s48 21.53 48 48-21.5 48-48 48h-48v-48zM144 384c0 26.47-21.53 48-48 48s-48-21.5-48-48 21.53-48 48-48h48v48zm0-208H96c-26.47 0-48-21.5-48-48s21.53-48 48-48 48 21.5 48 48v48zm112 112h-64v-64h64v64zm96 144c-26.47 0-48-21.53-48-48v-48h48c26.47 0 48 21.53 48 48s-21.5 48-48 48z"/></svg>