<svg xmlns="http://www.w3.org/2000/svg" viewBox="0 0 192 512"><!--! Font Awesome Pro 6.1.1 by @fontawesome - https://fontawesome.com License - https://fontawesome.com/license (Commercial License) Copyright 2022 Fonticons, Inc.--><path d="M156.4 327.4c-8.775-24.27-33.94-39.39-58.1-39.39-9.959.002-19.91 2.39-28.8 7.544-15.66 9.051-26.41 24.44-29.45 42.25l-22.57 131.7c-2.986 17.32 6.9 34.29 23.49 40.31 3.15 1.486 7.37 1.286 11.54 1.286 12.67 0 24.82-6.604 31.51-18.03l67.69-115.4c9.09-14.67 10.79-33.27 4.69-50.27zm-46.1 26.9-35.78 60.99 11.9-69.42c.639-3.734 2.824-6.854 6.209-8.809C94.15 336.2 96.04 336 97.36 335.1c5.896.002 12.37 3.605 13.88 7.768 1.26 4.432.96 8.232-.94 11.432z"/></svg>