<svg xmlns="http://www.w3.org/2000/svg" viewBox="0 0 512 512"><!--! Font Awesome Pro 6.1.1 by @fontawesome - https://fontawesome.com License - https://fontawesome.com/license (Commercial License) Copyright 2022 Fonticons, Inc.--><path d="m319 223-39 39.1V160c0-13.25-10.75-24-24-24s-24 10.8-24 24v102.1L192.1 223c-3.8-4.7-9.9-7-16.1-7s-12.3 2.3-17 7c-9.375 9.375-9.375 24.56 0 33.94l80 80c9.375 9.375 24.56 9.375 33.94 0l80-80c9.375-9.375 9.375-24.56 0-33.94s-24.54-9.3-33.94 0zM256 32C114.7 32 .027 125.1.027 240c0 47.63 19.91 91.25 52.91 126.3-14.87 39.5-45.87 72.88-46.37 73.25-6.623 7-8.373 17.25-4.623 26C5.816 474.3 14.38 480 24 480c61.49 0 109.1-25.75 139.1-46.25 28 9.05 60.2 14.25 92.9 14.25 141.4 0 256-93.1 256-208S397.4 32 256 32zm0 368c-26.75 0-53.12-4.125-78.36-12.12l-22.75-7.125L135.4 394.5c-14.25 10.12-33.87 21.38-57.49 29 7.373-12.12 14.37-25.75 19.87-40.25l10.62-28-20.62-21.88C69.81 314.1 48.06 282.3 48.06 240c0-88.25 93.24-160 207.1-160 114.7 0 207.1 71.75 207.1 160S370.8 400 256 400z"/></svg>