<svg xmlns="http://www.w3.org/2000/svg" viewBox="0 0 512 512"><!--! Font Awesome Pro 6.1.1 by @fontawesome - https://fontawesome.com License - https://fontawesome.com/license (Commercial License) Copyright 2022 Fonticons, Inc.--><path d="M277.7 128h-43.4c-32.5 0-58.3 25.6-58.3 57.8 0 10.74 9.166 19.83 20 19.83s20-9.03 20-19.83c0-9.914 8.334-18.17 18.33-18.17h43.33c10 0 18.33 8.26 18.33 18.17 0 6.607-3.334 12.39-9.166 15.7L239.3 229.6c-6.668 4.131-10 10.74-10 17.35v13.22c0 10.74 9.166 19.83 20 19.83 10.83 0 20-9.088 20-19.83v-1.67l38.33-23.13C325.2 224.7 336 205.7 336 185.8c0-32.2-25.8-57.8-58.3-57.8zm-28.6 172c-13.7 0-25.1 11.4-25.1 26s11.4 26 25.1 26c14.63 0 26-11.38 26-26s-10.5-26-26-26zM256 31.1C114.6 31.1.9 124.23.9 239.1c0 47.63 19.91 91.25 52.91 126.3-14.87 39.5-45.87 72.88-46.37 73.25-6.623 7-8.373 17.25-4.623 26C5.816 474.3 14.38 480 24 480c61.49 0 109.1-25.75 139.1-46.25 28.87 9 60.16 14.25 92.9 14.25 141.4 0 255.1-93.13 255.1-208S397.4 31.1 256 31.1zm0 368.9c-26.75 0-53.12-4.125-78.36-12.12l-22.75-7.125L135.4 394.5c-14.25 10.12-33.87 21.38-57.49 29 7.373-12.12 14.37-25.75 19.87-40.25l10.62-28-20.62-21.88C69.81 314.1 48.06 282.3 48.06 240c0-88.25 93.24-160 207.1-160 114.7 0 207.1 71.75 207.1 160S370.8 400 256 400z"/></svg>