<svg xmlns="http://www.w3.org/2000/svg" viewBox="0 0 640 512"><!--! Font Awesome Pro 6.1.1 by @fontawesome - https://fontawesome.com License - https://fontawesome.com/license (Commercial License) Copyright 2022 Fonticons, Inc.--><path d="m207.1 158.1 5.6 1.4c19.1 4.6 54.7 15.7 47.4 52.8-2.2 17.9-15.8 28.8-35 33.8v8.8c0 9.4-7.6 17.1-17.1 17.1-9.5 0-17.1-7.7-17.1-17.1v-9.3c-7.5-2.5-14.9-4-21.5-6.4l-3.7-1.3c-8.9-3.2-13.6-13-10.4-21.9 3.1-8.9 12.9-13.5 21.8-10.5l3 1.4.9-.8c6.7 3.3 14.3 6 20.2 6 10.9 2.7 24.8 1 26-5.7-.1-4.3 1.2-6.7-23.9-13.9l-5-1.5c-14.9-4.3-49.6-14.6-43.3-51.3 3.1-17.9 16.6-29.9 35.9-34v-8.56c0-9.45 7.6-18.04 17.1-18.04 9.5 0 17.1 8.59 17.1 18.04v9.16c4.7 1 9.8 2.3 16 4.5 8.9 3.1 13.6 12.9 10.5 21.8-3.1 8.9-12.9 13.7-21.8 10.6-5-1.8-10.3-3.4-15.1-4.2-11.7-1.8-25.6-.1-25.9 6.6-.7 3.8-1.1 6.6 18.3 12.5zM208 352c-18.7 0-36.8-2.3-54.1-6.2-30.6 19-74.77 38.2-128.95 38.2-9.98 0-19.02-5.9-22.932-15.1-3.914-9.2-2.025-19.8 4.721-27 .521-.4 22.641-24.5 38.991-56C17.18 255.8 0 217.6 0 176 0 78.8 93.13 0 208 0c114.9 0 208 78.8 208 176s-93.1 176-208 176zm160-176c0-70.6-71.8-128-160-128S48 105.4 48 176c0 35.2 17.71 61.2 32.57 76.9l23.53 24.9-15.79 30.3c-3.57 6-7.58 13.8-11.76 20.4 17.71-5.1 35.15-13 52.15-24.4l16.7-9.5 19.2 3.5c14.6 4.2 29.2 5.9 42.5 5.9 89.1 0 160.9-57.4 160.9-128zm80 .6v-.6c0-16.5-2.2-32.5-6.4-47.8C552 132.4 640 209.5 640 304c0 41.6-17.2 79.8-45.7 109.9 16.3 31.5 38.4 55.6 39 56 6.7 7.2 8.6 17.8 3.8 27-3 9.2-12.1 15.1-22.1 15.1-54.1 0-98.3-19.2-128.9-38.2-17.3 3.9-35.4 6.2-54.1 6.2-82 0-152.9-40.2-186.8-98.5 17.3-2.3 33.9-6.2 49.7-11.6 28 37.2 79 62.1 137.1 62.1 14.2 0 28.8-1.7 43.4-5.9l19.2-3.5 16.7 9.5c17 11.4 34.4 19.3 52.2 24.4-4.2-6.6-8.2-14.4-11.8-20.4l-15.8-30.3 23.5-24.9c14.9-15.6 32.6-41.7 32.6-76.9 0-66.3-63.3-120.9-144.9-127.4h.9z"/></svg>