<svg xmlns="http://www.w3.org/2000/svg" viewBox="0 0 512 512"><!--! Font Awesome Pro 6.1.1 by @fontawesome - https://fontawesome.com License - https://fontawesome.com/license (Commercial License) Copyright 2022 Fonticons, Inc.--><path d="M183.1 143.1c-30.93 0-56 25.07-56 56s25.07 56 56 56c2.74 0 5.365-.426 8-.806V264c.9 13.2-9.9 24-23.1 24-13.2 0-24 10.8-24 24s10.75 23.1 23.1 23.1c39.7 0 71.1-32.3 71.1-72V200c.9-30.9-23.3-56.9-55.1-56.9zm72.9-112C114.6 31.1.9 124.23.9 239.1c0 47.62 19.91 91.25 52.91 126.3-14.87 39.5-45.87 72.88-46.37 73.25-6.623 7-8.373 17.25-4.623 26C5.816 474.3 14.38 480 24 480c61.49 0 109.1-25.75 139.1-46.25 28.87 9 60.16 14.25 92.9 14.25 141.4 0 255.1-93.13 255.1-207.1S397.4 31.1 256 31.1zm0 368.9c-26.75 0-53.12-4.125-78.36-12.12l-22.75-7.125L135.4 394.5c-14.25 10.12-33.87 21.38-57.49 29 7.373-12.12 14.37-25.75 19.87-40.25l10.62-28-20.62-21.88C69.81 314.1 48.06 282.3 48.06 240c0-88.25 93.24-160 207.1-160 114.7 0 207.1 71.75 207.1 160S370.8 400 256 400zm71.1-256.9c-30.93 0-56 25.07-56 56s25.07 56 56 56c2.74 0 5.365-.426 8-.806V264c.9 13.2-9.9 24-23.1 24-13.2 0-24 10.8-24 24s10.75 23.1 23.1 23.1c39.7 0 72-32.3 72-72V200c0-30.9-24.2-56.9-56-56.9z"/></svg>