<svg xmlns="http://www.w3.org/2000/svg" viewBox="0 0 512 512"><!--! Font Awesome Pro 6.1.1 by @fontawesome - https://fontawesome.com License - https://fontawesome.com/license (Commercial License) Copyright 2022 Fonticons, Inc.--><path d="M256 31.1C114.6 31.1.9 124.23.9 239.1c0 47.62 19.91 91.25 52.9 126.3-14.87 39.5-45.87 72.88-46.37 73.25-6.623 7-8.374 17.25-4.624 26C5.816 474.3 14.4 480 24.02 480c61.49 0 109.1-25.75 139.1-46.25 28.87 9 60.14 14.25 92.89 14.25 141.4 0 255.1-93.13 255.1-207.1S397.4 31.1 256 31.1zm0 368.9c-26.75 0-53.12-4.125-78.36-12.12l-22.75-7.125L135.4 394.5c-14.25 10.12-33.87 21.38-57.49 29 7.373-12.12 14.37-25.75 19.87-40.25l10.62-28-20.62-21.88C69.81 314.1 48.06 282.3 48.06 240c0-88.25 93.24-160 207.1-160 114.7 0 207.1 71.75 207.1 160S370.8 400 256 400zm5.5-179.2-6.4-1.6c-22.8-7-22.3-11.1-21.5-14.7 1.375-7.812 16.59-9.719 30.27-7.625 5.594.844 11.73 2.812 17.59 4.844 10.39 3.594 21.83-1.938 25.45-12.34 3.625-10.44-1.891-21.84-12.33-25.47-7.219-2.484-13.11-4.078-18.56-5.273V148c0-11.03-8.946-20-19.99-20S236 136.1 236 148v9.992c-22.4 4.808-38.2 18.808-41.8 39.708-7.4 42.8 33.2 54.7 50.5 59.8l5.8 1.7c29.28 8.375 28.8 11.19 27.92 16.28-1.375 7.812-16.59 9.75-30.31 7.625-6.91-1.005-15.81-4.205-23.61-7.005l-5.4-1.6c-9.5-3.6-20.9 1.8-24.6 12.2-3.7 10.4 1.8 21.8 12.2 25.5l4.266 1.5c7.758 2.789 16.38 5.59 25.06 7.512V332c0 11.03 8.961 20 20.01 20s19.99-8.969 19.99-20v-10.25c22.36-4.793 38.21-18.53 41.83-39.43C325.3 239 283.8 227.1 261.5 220.8z"/></svg>