<svg xmlns="http://www.w3.org/2000/svg" viewBox="0 0 640 512"><!--! Font Awesome Pro 6.1.1 by @fontawesome - https://fontawesome.com License - https://fontawesome.com/license (Commercial License) Copyright 2022 Fonticons, Inc.--><path d="M134.2 79.88C180.9 30.69 246.8.001 319.1.001 461.4.001 576 114.6 576 256c0 50.1-14.9 98.5-40.6 138.4l95.4 74.7c10.4 8.2 12.3 23.3 4.1 33.7-8.2 10.4-23.3 12.3-33.7 4.1L9.196 42.89C-1.236 34.71-3.065 19.63 5.112 9.196 13.29-1.236 28.37-3.065 38.81 5.112L134.2 79.88zm38 29.82 98.1 76.8 143.3-55.1c19.4-7.5 38.5 10.7 31 31l-47.5 123.5 100.3 78.7C516.8 332.1 528 295.8 528 256c0-114.9-93.1-208-208.9-208-56.9 0-109.2 23.58-146.9 61.7zM319.1 464c40.6 0 77.7-11.1 109.3-30.5l39.7 31.3c-41.8 29.7-92.9 47.2-149 47.2-140.5 0-256-114.6-256-256 0-33.6 7.39-65.8 19.18-95.2l38.82 31.3c-5.6 20.1-10 41.6-10 63.9 0 114.9 94 208 208 208zm-92.7-83.4c-20.3 7.5-38.5-11.6-31-31l29.4-76.5 92.2 72.7-90.6 34.8z"/></svg>