<svg xmlns="http://www.w3.org/2000/svg" viewBox="0 0 640 512"><!--! Font Awesome Pro 6.1.1 by @fontawesome - https://fontawesome.com License - https://fontawesome.com/license (Commercial License) Copyright 2022 Fonticons, Inc.--><path d="M576 32H384c-35.35 0-64 28.65-64 64v320c0 35.35 28.65 64 64 64h192c35.35 0 64-28.65 64-64V96c0-35.35-28.7-64-64-64zm16 384c0 8.822-7.178 16-16 16H384c-8.822 0-16-7.178-16-16V96c0-8.822 7.178-16 16-16h192c8.822 0 16 7.178 16 16v320zM0 96v224c0 35.35 28.65 64 64 64h224v-48H64c-8.822 0-16-7.178-16-16V96c0-8.822 7.178-16 16-16h225.6c3.1-18.33 11.4-34.76 22.5-48H64C28.65 32 0 60.65 0 96zm120 336c-13.3 0-24 10.7-24 24s10.7 24 24 24h192.1c-11.94-13.24-20.25-29.67-23.35-48H120zm359.1-192c-44.18 0-80 35.82-80 80s35.82 80 80 80 79.1-35.82 79.1-80c.9-44.2-34-80-79.1-80zm0 112c-17.64 0-32-14.36-32-32s14.36-32 32-32 32 14.36 32 32-13.5 32-32 32zm.9-176c17.67 0 32-14.33 32-32s-14.33-32-32-32c-17.7 0-32 14.3-32 32s14.3 32 32 32z"/></svg>