<svg xmlns="http://www.w3.org/2000/svg" viewBox="0 0 448 512"><!--! Font Awesome Pro 6.1.1 by @fontawesome - https://fontawesome.com License - https://fontawesome.com/license (Commercial License) Copyright 2022 Fonticons, Inc.--><path d="M384 0H64C28.65 0 0 28.65 0 64v304c0 23.63 12.95 44.04 32 55.12V480c0 17.67 14.33 32 32 32h320c17.67 0 32-14.33 32-32v-56.88c19.05-11.09 32-31.49 32-55.12V64c0-35.35-28.7-64-64-64zm-16 464H80v-32h288v32zm32-96c0 8.822-7.178 16-16 16H64c-8.822 0-16-7.178-16-16V64c0-8.822 7.178-16 16-16h320c8.822 0 16 7.178 16 16v304zM336 80H112c-17.67 0-32 14.33-32 32v96c0 17.67 14.33 32 32 32h224c17.67 0 31.1-14.33 31.1-32l.9-96c0-17.67-14.3-32-32-32zM120 304c-13.3 0-24 10.7-24 24s10.7 24 24 24 24-10.75 24-24c0-13.3-10.7-24-24-24zm232 0H224c-8.844 0-16 7.156-16 16s7.156 16 16 16h128c8.844 0 16-7.156 16-16s-7.2-16-16-16z"/></svg>