<svg xmlns="http://www.w3.org/2000/svg" viewBox="0 0 512 512"><!--! Font Awesome Pro 6.1.1 by @fontawesome - https://fontawesome.com License - https://fontawesome.com/license (Commercial License) Copyright 2022 Fonticons, Inc.--><path d="M284.4 187.7c-9 2.8-18.5 3.4-28.4 3.4-9.9 0-19.4-.6-28.4-3.4l-69.5 118.7C187.9 320.3 221 328 256 328c85.8 0 160.8-46.6 200.1-116.9 7.5-10.6 22.2-14.5 33.7-7.9 11.4 6.7 15.4 21.3 8.7 32.8-48.3 83.6-138.8 140-242.5 140-43.8 0-85.3-10.1-122.2-28.9l-89.09 153c-6.69 11.5-21.39 15.3-32.83 8.6C.437 502-3.408 487.3 3.288 475.9L92.56 323.4c-32.15-23.2-59.18-53-79.09-87.4-6.634-11.5-2.71-26.1 8.76-32.8 11.47-6.6 26.16-2.7 32.79 7.9 15.76 28.1 36.88 51.8 61.88 70.6l69.8-119.2C170.2 145.2 160 121.8 160 96c0-53.02 42.1-96 96-96 53 0 96 42.98 96 96 0 25.8-10.2 49.2-26.7 66.5l53.5 91.4c-12.6 9.8-26.4 18.1-41.2 24.7l-53.2-90.9zM256 47.1c-26.5 0-48 22.39-48 48 0 27.4 21.5 48 48 48s48-20.6 48-48c0-25.61-21.5-48-48-48zm244.1 461.6c-11.4 6.7-27 2.9-32.8-8.6l-72.9-124.4c14.5-7.2 28.2-15.4 41.3-24.6l73 124.8c6.7 11.4 2.9 26.1-8.6 32.8z"/></svg>