<svg xmlns="http://www.w3.org/2000/svg" viewBox="0 0 448 512"><!--! Font Awesome Pro 6.1.1 by @fontawesome - https://fontawesome.com License - https://fontawesome.com/license (Commercial License) Copyright 2022 Fonticons, Inc.--><path d="M136 320H24c-13.25 0-24 10.7-24 24 0 13.25 10.75 24 24 24h88v88c0 13.3 10.7 24 24 24s24-10.7 24-24V344c0-13.3-10.7-24-24-24zm176-128h112c13.3 0 24-10.7 24-24 0-13.26-10.75-24-24-24h-88V56c0-13.26-10.7-24-24-24s-24 10.74-24 24v112c0 13.3 10.7 24 24 24zM136 32c-13.3 0-24 10.74-24 24v88H24c-13.25 0-24 10.7-24 24s10.75 24 24 24h112c13.3 0 24-10.7 24-24V56c0-13.26-10.7-24-24-24zm288 288H312c-13.3 0-24 10.7-24 24v112c0 13.25 10.75 24 24 24s24-10.75 24-24v-88h88c13.25 0 24-10.75 24-24 0-13.3-10.7-24-24-24z"/></svg>