<svg xmlns="http://www.w3.org/2000/svg" viewBox="0 0 512 512"><!--! Font Awesome Pro 6.1.1 by @fontawesome - https://fontawesome.com License - https://fontawesome.com/license (Commercial License) Copyright 2022 Fonticons, Inc.--><path d="M227.5 131.2c8.609-1.953 14.03-10.52 12.08-19.14-1.953-8.609-10.55-13.95-19.14-12.08-59.7 13.5-107 60.81-120.5 120.5-2.84 8.62 3.46 17.22 12.06 19.12 1.2.3 2.4.4 3.6.4 7.312 0 13.91-5.047 15.59-12.47 9.91-47.73 48.61-86.43 96.31-96.33zm28.5 27.9c-53.08 0-96 42.92-96 96s42.92 95.1 96 95.1 96-42.92 96-95.1c0-52.2-42.9-96-96-96zm0 120.9c-13.2 0-24-10.7-24-24s10.8-24 24-24 24 10.8 24 24-10.7 24-24 24zm0-280C114.6 0 0 114.6 0 256s114.6 256 256 256 256-114.6 256-256S397.4 0 256 0zm0 464c-114.7 0-208-93.31-208-208S141.3 48 256 48s208 93.31 208 208-93.3 208-208 208z"/></svg>