<svg xmlns="http://www.w3.org/2000/svg" viewBox="0 0 384 512"><!--! Font Awesome Pro 6.1.1 by @fontawesome - https://fontawesome.com License - https://fontawesome.com/license (Commercial License) Copyright 2022 Fonticons, Inc.--><path d="M224 0h-64C71.62 0 0 71.62 0 160v192c0 88.38 71.62 160 160 160h64c88.38 0 160-71.63 160-160V160C384 71.62 312.4 0 224 0zm112 352c-.125 61.88-50.13 111.9-112 112h-64c-61.88-.125-111.9-50.13-112-112V160c.12-61.88 50.12-111.88 112-112h64c61.88.125 111.9 50.12 112 112v192zM192 95.1c-17.62 0-32 14.38-32 32v31.1c0 19.4 14.4 33.8 32 33.8 17.62 0 32-14.38 32-32v-32.9c0-16.7-14.4-32-32-32z"/></svg>