<svg xmlns="http://www.w3.org/2000/svg" viewBox="0 0 640 512"><!--! Font Awesome Pro 6.1.1 by @fontawesome - https://fontawesome.com License - https://fontawesome.com/license (Commercial License) Copyright 2022 Fonticons, Inc.--><path d="M128 368c-17.75 0-32 14.25-32 32s14.25 32 32 32 32-14.25 32-32-14.2-32-32-32zm32-112h144c15.22 0 29.02-5.535 40-14.41 10.1 8.91 24.8 14.41 40 14.41h96c35.35 0 64-28.65 64-64v-64c0-35.35-28.65-64-64-64h-96c-5.559 0-10.86.932-16 2.264V64c0-35.35-28.65-64-64-64H160c-35.3 0-64 28.65-64 64v128c0 35.3 28.7 64 64 64zm208-128c0-8.822 7.178-16 16-16h96c8.822 0 16 7.178 16 16v64c0 8.822-7.178 16-16 16h-96c-8.822 0-16-7.178-16-16v-64zM144 64c0-8.822 7.178-16 16-16h144c8.8 0 16 7.18 16 16v128c0 8.822-7.178 16-16 16H160c-8.8 0-16-7.2-16-16V64zm368 304c-17.75 0-32 14.25-32 32s14.25 32 32 32 32-14.25 32-32-14.2-32-32-32zm-192 0c-17.75 0-32 14.25-32 32s14.25 32 32 32 32-14.25 32-32-14.2-32-32-32zm208-80H112C50.14 288 0 338.1 0 400s50.14 112 112 112h416c61.86 0 112-50.14 112-112s-50.1-112-112-112zm0 176H112c-35.29 0-64-28.71-64-64s28.71-64 64-64h416c35.29 0 64 28.71 64 64 0 35.3-28.7 64-64 64z"/></svg>