<svg xmlns="http://www.w3.org/2000/svg" viewBox="0 0 640 512"><!--! Font Awesome Pro 6.1.1 by @fontawesome - https://fontawesome.com License - https://fontawesome.com/license (Commercial License) Copyright 2022 Fonticons, Inc.--><path d="M128 368c-17.75 0-32 14.25-32 32s14.25 32 32 32 32-14.25 32-32-14.2-32-32-32zm400-80H112C50.14 288 0 338.1 0 400s50.14 112 112 112h416c61.86 0 112-50.14 112-112s-50.1-112-112-112zm-.9 176h-416C76.71 464 48 435.3 48 400c0-35.29 28.71-64 64-64h416c35.29 0 64 28.71 64 64 0 35.3-28.7 64-64.9 64zM512 368c-17.75 0-32 14.25-32 32s14.25 32 32 32 32-14.25 32-32-14.2-32-32-32zm-192.9 0c-16.9 0-31.1 14.3-31.1 32s14.25 32 32 32 32-14.25 32-32-14.3-32-32.9-32zM192 256h256c35.35 0 64-28.65 64-64V64c0-35.35-28.65-64-64-64H192c-35.3 0-64 28.65-64 64v128c0 35.3 28.7 64 64 64zM176 64c0-8.822 7.178-16 16-16h64v80l64-32 64 32V48h64c8.822 0 16 7.178 16 16v128c0 8.822-7.178 16-16 16H192c-8.8 0-16-7.2-16-16V64z"/></svg>