<svg xmlns="http://www.w3.org/2000/svg" viewBox="0 0 640 512"><!--! Font Awesome Pro 6.1.1 by @fontawesome - https://fontawesome.com License - https://fontawesome.com/license (Commercial License) Copyright 2022 Fonticons, Inc.--><path d="M128 368c-17.75 0-32 14.25-32 32s14.25 32 32 32 32-14.25 32-32-14.2-32-32-32zm384 0c-17.75 0-32 14.25-32 32s14.25 32 32 32 32-14.25 32-32-14.2-32-32-32zm-192 0c-17.75 0-32 14.25-32 32s14.25 32 32 32 32-14.25 32-32-14.2-32-32-32zm208-80H112C50.14 288 0 338.1 0 400s50.14 112 112 112h416c61.86 0 112-50.14 112-112s-50.1-112-112-112zm0 176H112c-35.29 0-64-28.71-64-64s28.71-64 64-64h416c35.29 0 64 28.71 64 64 0 35.3-28.7 64-64 64z"/></svg>