<svg xmlns="http://www.w3.org/2000/svg" viewBox="0 0 512 512"><!--! Font Awesome Pro 6.1.1 by @fontawesome - https://fontawesome.com License - https://fontawesome.com/license (Commercial License) Copyright 2022 Fonticons, Inc.--><path d="M352 320c-17.62 0-32 14.38-32 32s14.38 32 32 32 32-14.38 32-32-14.4-32-32-32zm-32-160c17.62 0 32-14.38 32-32s-14.38-32-32-32-32 14.38-32 32 14.4 32 32 32zm-128 32c0-17.62-14.38-32-32-32s-32 14.38-32 32 14.38 32 32 32 32-14.4 32-32zm0 128c-17.62 0-32 14.38-32 32s14.38 32 32 32c17.62 0 32-14.38 32-32s-14.4-32-32-32zm96-96c-17.62 0-32 14.38-32 32s14.38 32 32 32 32-14.38 32-32-14.4-32-32-32zm222.4 30.8-12.13-76.25a132.37 132.37 0 0 0-37.12-72.88L406.4 50.92c-19.75-19.75-45.13-32.75-72.75-37.12L257.02 1.67C250.1.5 243.3 0 236.4 0c-20.8 0-41.3 4.875-59.9 14.38l-69.1 35.24C82.5 62.25 62.25 82.5 49.5 107.4l-35 68.87C1.752 201.2-2.748 229.5 1.627 257.2l12.13 76.25a132.336 132.336 0 0 0 37.12 72.88l54.75 54.75c19.75 19.75 45.13 32.75 72.75 37.12l76.63 12.13C261.9 511.5 268.8 512 275.6 512c20.75 0 41.25-4.875 59.88-14.38l69.13-35.25c24.88-12.62 45.13-32.88 57.88-57.75l35-68.87c12.81-24.95 17.31-53.25 12.91-80.95zM454.8 314l-35.13 68.87c-8.125 15.88-20.75 28.62-36.75 36.75l-69.12 35.25C302 460.9 288.9 464 275.6 464c-4.375 0-8.75-.375-13.12-1l-76.63-12.12C168.3 448 152.3 439.9 139.6 427.2l-54.85-54.7c-12.63-12.75-20.88-28.75-23.63-46.5L49 249.8c-2.75-17.75 0-35.63 8.25-51.75l35.13-68.88c8.12-15.97 20.72-28.67 36.72-36.79l69.13-35.25C210 51.12 223.1 48 236.4 48c4.375 0 8.75.375 13.12 1l76.63 12.12c17.65 2.88 33.65 11 46.35 23.63l54.75 54.75c12.63 12.75 20.88 28.75 23.63 46.5L463 262.25c2.8 17.75 0 35.65-8.2 51.75z"/></svg>