<svg xmlns="http://www.w3.org/2000/svg" viewBox="0 0 512 512"><!--! Font Awesome Pro 6.1.1 by @fontawesome - https://fontawesome.com License - https://fontawesome.com/license (Commercial License) Copyright 2022 Fonticons, Inc.--><path d="M352 320c-17.62 0-32 14.38-32 32s14.38 32 32 32 32-14.38 32-32-14.4-32-32-32zM192 192c0-17.62-14.38-32-32-32s-32 14.38-32 32 14.38 32 32 32 32-14.4 32-32zm0 128c-17.62 0-32 14.38-32 32s14.38 32 32 32c17.62 0 32-14.38 32-32s-14.4-32-32-32zm96-96c-17.62 0-32 14.38-32 32s14.38 32 32 32 32-14.38 32-32-14.4-32-32-32zm222.5 31.9C440.5 255 384 198.1 384 128c-70.13 0-127-56.5-127.8-126.5-6.6-1-13.3-1.5-19.9-1.5-20.62 0-41.13 4.875-59.75 14.38L107.4 49.5a133.41 133.41 0 0 0-57.88 57.88l-35 68.87C1.752 201.2-2.748 229.5 1.627 257.2l12.13 76.25a132.336 132.336 0 0 0 37.12 72.88l54.75 54.87c19.75 19.63 45.13 32.63 72.75 37l76.63 12.13C261.9 511.5 268.9 512 275.8 512c20.62 0 41.25-4.875 59.87-14.38l69.13-35.25a131.64 131.64 0 0 0 57.75-57.75l35.13-68.87c12.42-24.65 16.92-52.65 12.82-79.85zm-55.6 58-35.12 68.88c-8.125 16-20.88 28.75-36.88 36.87l-69.12 35.25c-11.78 6-24.88 9.1-37.98 9.1-4.375 0-8.875-.375-13.13-1l-76.75-12.12C168.3 448 152.3 439.9 139.6 427.2l-54.85-54.7c-12.63-12.75-20.88-28.75-23.63-46.5L49 249.8c-2.75-17.88 0-35.63 8.25-51.75l35.13-68.88c8.12-15.97 20.92-28.67 36.72-36.79l69.13-35.25c5.5-2.875 11.38-5 17.38-6.5 17.88 58.88 65.88 104.9 125.8 120.1 15.12 59.75 61.13 107.7 120.1 125.6-1.61 6.17-3.71 12.07-6.61 17.57z"/></svg>