<svg xmlns="http://www.w3.org/2000/svg" viewBox="0 0 640 512"><!--! Font Awesome Pro 6.1.1 by @fontawesome - https://fontawesome.com License - https://fontawesome.com/license (Commercial License) Copyright 2022 Fonticons, Inc.--><path d="M576 224c-35.35 0-64 28.65-64 64H128c0-35.35-28.65-64-64-64S0 252.65 0 288v160c0 17.67 14.33 32 32 32h64c17.67 0 32-14.33 32-32h384c0 17.67 14.33 32 32 32h64c17.67 0 32-14.33 32-32V288c0-35.3-28.7-64-64-64zM80 432H48V288c0-8.822 7.178-16 16-16s16 7.2 16 16v144zm432-32H128v-64h384v64zm80 32h-32V288c0-8.822 7.178-16 16-16s16 7.178 16 16v144zM88 192c13.3 0 24-10.7 24-24v-16c0-39.69 32.3-72 72-72h272c39.7 0 72 32.31 72 72v16c0 13.3 10.8 24 24 24s24-10.7 24-24v-16c0-66.16-53.8-120-120-120H184C117.8 32 64 85.84 64 152v16c0 13.3 10.75 24 24 24z"/></svg>