<svg xmlns="http://www.w3.org/2000/svg" viewBox="0 0 640 512"><!--! Font Awesome Pro 6.1.1 by @fontawesome - https://fontawesome.com License - https://fontawesome.com/license (Commercial License) Copyright 2022 Fonticons, Inc.--><path d="M624.5 238 608 218.9V176c0-11.88-12.5-19.62-23.12-14.25-6.125 3-11.38 7-16.12 11.5l-59.1-69.54C490.6 78.71 461.8 64 431 64H112c-48.62 0-88 39.38-88 88v86.38C9.5 250.1 0 267.9 0 288v32c39.75 0 72-32.25 72-72v-96c0-16.88 10.63-31.12 25.38-37-.88 4.1-1.38 8.5-1.38 13v288c0 17.62 14.38 32 32 32h64c17.75 0 32-14.38 32-32v-40c2.625.875 5.375 1.375 8.125 2.125L232.1 392c0 8.875 7.125 16 16 16 8.75 0 16-7.125 16-16l.063-8.625c2.625.125 13.25.125 16-.125L280.1 392c0 8.875 7.125 16 16 16 8.75 0 16-7.125 16-16l.063-14c2.637-.8 5.337-1.1 7.837-2v40c0 17.62 14.38 32 32 32h64c17.6 0 32-14.4 32-32V272l16 16v42c0 12.25 3.5 24.38 10.25 34.75l35.38 54.87C521.1 437.2 540.8 448 561.8 448H576c35.38 0 64-28.62 64-64V279.8c0-15.3-5.5-30.2-15.5-41.8zm-414.4 82.6c6.9-27.8 32-48.6 61.9-48.6s54.88 20.75 61.88 48.5c-61.28 21-62.08 21-123.78.1zM592 384c0 8.875-7.125 16-16 16h-14.25c-4.75 0-9.125-2.375-11.75-6.5l-35.5-54.88c-.9-2.82-1.6-6.52-2.5-9.52v-61l-75.75-75.75C422.9 179 400 188.5 400 207.4V400h-32v-64c0-45.63-38.13-96-96-96-58.12 0-95.1 50.75-95.1 96l-.9 64h-32V128c0-8.875 7.25-16 16-16h4.375c.725 1.5 25.425 34.9 25.425 34.9 21.7 28.9 51.3 45.1 82.2 45.1s60.5-16.25 82.38-45.12c0 0 24.5-33.38 25.38-34.88H431c15.25 0 29.88 7.375 38.88 19.88l118.3 137.5C590.6 272.2 592 276 592 279.8V384zm-32-80c-8.9 0-16 7.1-16 16s7.126 16 16 16 16-7.125 16-16-7.1-16-16-16z"/></svg>