<svg xmlns="http://www.w3.org/2000/svg" viewBox="0 0 576 512"><!--! Font Awesome Pro 6.1.1 by @fontawesome - https://fontawesome.com License - https://fontawesome.com/license (Commercial License) Copyright 2022 Fonticons, Inc.--><path d="M284.6 464H51.11l57.5-320h230.8l12.15 67.61c14.28-7.365 29.65-12.92 45.88-16.16l-10.79-59.94C382.5 112.6 362.6 96 339.3 96h-18.76V48c0-26.51-21.49-48-48-48H176.1c-26.51 0-48 21.49-48 48v48h-19.5c-23.22 0-43.12 16.6-47.23 39.5L.48 474.4C-2.85 493.3 11.49 512 32.11 512h298.9c-18.41-12.9-34.11-29.2-46.41-48zM175.1 48h96v48h-96V48zM432 224c-79.5 0-144 64.5-144 144s64.46 144 144 144c79.5 0 144-64.5 144-144s-64.5-144-144-144zm64 160h-48v48c0 8.836-7.163 16-15.1 16s-16.9-7.2-16.9-16v-48h-48c-8.836 0-15.1-7.164-15.1-16s6.3-16 15.1-16h48v-48c0-8.8 7.2-16 16-16s16 7.2 16 16v48h48c8.836 0 16 7.164 16 16s-7.2 16-16 16z"/></svg>