<svg xmlns="http://www.w3.org/2000/svg" viewBox="0 0 512 512"><!--! Font Awesome Pro 6.1.1 by @fontawesome - https://fontawesome.com License - https://fontawesome.com/license (Commercial License) Copyright 2022 Fonticons, Inc.--><path d="M511.1 192v-64C511.1 57.31 453.79 0 384 0h-63.1L384 64h-63.1c0 35.35 28.65 64 63.1 64h79.1v48.77l-81.87 38.53c-17.94-12.4-39.23-19.97-62.13-22.13V151.1c0-12.4-9.8-23.1-24-23.1S272 138.7 272 151.1V192h-32v-40.9c0-12.4-10.7-23.1-24-23.1s-23.1 10.74-23.1 23.1l-.9 42.1c-22.9 2.1-44.2 9.7-62.1 22.1L48 176.8V128h79.1c36.2 0 64.9-28.65 64.9-64h-63.1L192 0h-63.1C58.21 0 1.8 57.31 1.8 128v64c0 9.297 5.375 17.75 13.78 21.72l80.73 37.99c-4.33 3.89-6.34 8.09-8.46 12.29H61.67l-26.94-13.5c-11.84-5.9-26.25-1.1-32.187 10.8-5.938 11.8-1.125 26.2 10.747 32.2l31.1 16c4.21 1.6 7.9 2.5 11.62 2.5h18.26c-.318 3.732-1.11 7.322-1.11 11.14 0 .168.082.318.084.486l-16.83 5.611a23.789 23.789 0 0 0-9.375 5.797l-31.1 32c-9.375 9.375-9.375 24.56 0 33.94C19.73 405.7 25.86 408 32.01 408c6.156 0 12.28-2.344 16.97-7.031l27.1-27.98 23.15-7.721 18.05 18.05-29.76 9.922a23.789 23.789 0 0 0-9.375 5.797l-31.1 32c-9.375 9.375-9.375 24.56 0 33.94C51.73 469.7 57.85 472 64.01 472c6.154 0 12.28-2.344 16.97-7.031l28-27.98 47.15-15.72 2.676 2.676-19.14 11.48C132.4 439.8 128 447.6 128 456v32c0 13.25 10.75 24 24 24s23.1-10.75 23.1-24v-18.41l36-21.59h88.04l35.98 21.59V488c0 13.25 10.75 24 23.1 24 13.25 0 24-10.75 24-24v-32c0-8.438-4.438-16.25-11.66-20.58l-19.14-11.48 2.676-2.676 47.15 15.72 28 27.98C435.7 469.7 441.8 472 447.1 472c6.156 0 12.28-2.344 16.97-7.031 9.375-9.375 9.375-24.56 0-33.94l-31.1-32a23.789 23.789 0 0 0-9.375-5.797l-29.76-9.922 18.05-18.05 23.15 7.721 27.1 27.98C467.7 405.7 473.8 408 479.1 408c6.154 0 12.28-2.344 16.97-7.031 9.375-9.375 9.375-24.56 0-33.94l-31.1-32a23.789 23.789 0 0 0-9.375-5.797l-16.83-5.611c.002-.168.104-.318.104-.486 0-3.787-.536-7.432-.85-11.14h17.98c3.719 0 7.406-.875 10.72-2.531l31.1-16c11.88-5.938 16.69-20.34 10.75-32.2-5.938-11.83-20.31-16.64-32.19-10.73L450.3 264h-25.73a131.287 131.287 0 0 0-7.104-12.3l80.71-37.98C506.6 209.8 511.1 201.3 511.1 192zM309.3 400H202.7l-81.4-81.5c2.4-43.7 37.8-78.5 83-78.5h103.4c44.3 0 80.61 34.82 83.01 78.53L309.3 400z"/></svg>