<svg xmlns="http://www.w3.org/2000/svg" viewBox="0 0 512 512"><!--! Font Awesome Pro 6.1.1 by @fontawesome - https://fontawesome.com License - https://fontawesome.com/license (Commercial License) Copyright 2022 Fonticons, Inc.--><path d="M210.5 50.5c11.38-12.25 14.5-32 13.25-50.25-12.88-.875-35.63-.125-50 13.25C157.3 30.13 160 59.88 160.5 63.75c18.5 1.25 37.8-1.87 50-13.25zm191.8 0c11.25-12.25 14.38-32 13.25-50.25-13-.875-35.75-.125-50.13 13.25-16.5 16.62-13.75 46.38-13.12 50.25 18.3 1.25 36.8-1.87 50-13.25zM82.5 192c-.25-1.5-.87-2.6-1.12-4.1-3.125-17-1-43 9.125-57.63 5.25-7.625 11-9.5 14.38-10.12C112 119.3 133.4 123.5 148.3 131.9l11.7 6.5 11.75-6.5c14.75-8.3 36.15-12.9 43.25-11.8 6 1.125 10.62 4.375 14.62 10.12 10.12 14.62 12.25 40.63 9 58-.22 1.38-.72 2.38-1.02 3.78h48.66c2.625-18 1.462-40-4.413-60.38.25-.375.375-1 .625-1.375 5.25-7.625 10.88-9.5 14.5-10.12 6.75-1.125 28.5 3.375 43.38 11.75L352 138.4l11.75-6.5c14.75-8.3 36.15-12.9 43.25-11.8 3.75.75 9.375 2.625 14.62 10.12 10.12 14.62 12.25 40.63 9 58-.22 1.38-.72 2.38-1.02 3.78h48.7c4-27 .425-63.5-17.2-89-11.25-16.38-27.13-26.75-45.88-30.12-18.22-3.13-43.72 3-63.22 11.37-19.5-8.375-44.88-14.38-63.25-11.38-12.35 2.26-23.35 7.88-32.75 15.88-9.375-8-20.38-13.62-32.75-15.88C205 69.75 179.5 75.88 160 84.25c-19.5-8.37-45-14.37-63.25-11.37-18.62 3.375-34.5 13.75-45.75 30C33.25 128.6 29.71 165.4 33.71 192H82.5zM480 223.8H32c-17.67 0-32 14.33-32 32V480c0 17.7 14.33 32 32 32h448c17.67 0 32-14.33 32-32V255.8c0-17.6-14.3-32-32-32zM464 464H48v-72h416v72zm0-120H48v-72.3h416V344zM96 320c8.836 0 16-7.164 16-16s-7.2-16-16-16-16 7.2-16 16 7.16 16 16 16zm320 0c8.836 0 16-7.164 16-16s-7.2-16-16-16-16 7.164-16 16 7.2 16 16 16zM96 448c8.836 0 16-7.164 16-16s-7.2-16-16-16-16 7.164-16 16 7.16 16 16 16zm320 0c8.836 0 16-7.164 16-16s-7.2-16-16-16-16 7.164-16 16 7.2 16 16 16z"/></svg>