<svg xmlns="http://www.w3.org/2000/svg" viewBox="0 0 512 512"><!--! Font Awesome Pro 6.1.1 by @fontawesome - https://fontawesome.com License - https://fontawesome.com/license (Commercial License) Copyright 2022 Fonticons, Inc.--><path d="M415.1 237.6a27.56 27.56 0 0 0-8.092-19.54l-34.35-34.35 129.1-129.1a31.902 31.902 0 0 0 9.374-22.62C511.1 14.94 498.3 0 480 0c-8.188 0-16.38 3.128-22.62 9.374l-129.1 129.1-34.35-34.35c-5.395-5.395-12.46-8.09-19.54-8.09S260.3 98.69 254.9 104.1L9.6 349.4C3.739 355.261.008 363.2.008 371.42c0 102.8 108.9 140.6 140.6 140.6 8.219 0 16.16-3.727 22.03-9.594l245.3-245.3C413.3 251.7 415.1 244.6 415.1 237.6zm-188.5 133-92.39 92.39c-43.41-7.586-77.55-41.73-85.15-85.14L176 250.9V336h85.13l-34.53 34.6zm82.5-82.6-85.1-.9v-84.2l50.42-50.42 85.14 85.14L309.1 288zm122 64c-44.25 0-80 35.75-80 79.1 0 44.25 35.75 79.1 80 79.1s80-35.75 80-79.1c0-43.3-34.9-79.1-80-79.1zm0 112c-17.64 0-32-14.36-32-32s14.36-31.99 32-31.99 32 14.35 32 31.99c0 17.6-13.5 32-32 32z"/></svg>