<svg xmlns="http://www.w3.org/2000/svg" viewBox="0 0 512 512"><!--! Font Awesome Pro 6.1.1 by @fontawesome - https://fontawesome.com License - https://fontawesome.com/license (Commercial License) Copyright 2022 Fonticons, Inc.--><path d="M507.7 167.1c-13.75-35.87-39.75-65.62-73.5-83.1-3.375-16.87-12.62-31.1-26.25-42.5C372.8 14.75 329.7.125 285.5 0c-15.5.125-30.1 2-46.12 5.75-14.48-6.125-30.78-7.375-45.98-3.5C99.12 25.62 25.62 99.12 2.123 193.4c-3.75 15.1-2.5 31.1 3.499 45.5-13.87 58.62-.75 120.4 35.75 168.4 10.25 13.25 24.1 22.5 41.5 25.1 18.5 34.25 48.62 60.62 84.99 74.5 46.87 17.62 95.37-21.1 87.12-71.5L239.1 341.2c1.625-1.875 2.1-3.75 4.375-5.75 18.12-.75 35.37-8.25 48.25-21.12l22.62-22.62c12.1-12.1 19.75-29.1 20.87-47.62 2.25-1.375 4.5-2.1 6.625-4.75l94.37 15.75c49.89 8.31 89.09-40.69 71.49-87.99zm-396 215.1c-11.5 8.1-25.75 4.375-32.25-4.125-21.87-28.62-31.87-63.25-30.75-97.87 1 .375 1.1.1 3.125 1.25l135.2 41.62L111.7 382.2zm72.4 80.7c-20.12-7.75-37.62-20.1-50.5-38.25 2.375-1.375 4.75-2.1 6.1-4.625l54.1-43.12 11.12 67.37c1 5.875-1.25 11.1-5.1 15.87-3.72 3.755-9.22 3.955-15.72 2.755zm96.3-205.2-22.62 22.75c-6.68 6.65-16.58 9.15-25.58 6.45L65.99 235.6c-13-4-20.62-17.4-17.25-31.5 19.13-77 78.36-136.23 155.36-155.35C217.22 45.5 230.72 53 234.72 66l51.12 166.1c3.76 9.1 1.26 19-5.44 25.6zm43-70.6L281.53 52c-.375-1.25-1-2.375-1.375-3.625 1.75-.125 3.625-.375 5.375-.375 33.75 0 66.62 11.12 93.49 31.62 8.499 6.5 12.1 20.87 3.1 32.25L323.4 187.1zm120.8 20.6-66.75-11.12 43.37-55.12c1.5-2.125 2.1-4.25 4.25-6.5 16.1 12.75 30.12 30.12 37.75 49.1 2.125 5.625 1 11.1-2.75 16.75-3.87 5.59-9.87 7.89-15.87 6.89z"/></svg>