<svg xmlns="http://www.w3.org/2000/svg" viewBox="0 0 512 512"><!--! Font Awesome Pro 6.1.1 by @fontawesome - https://fontawesome.com License - https://fontawesome.com/license (Commercial License) Copyright 2022 Fonticons, Inc.--><path d="M224 256c0-17.7 14.3-32 32-32s32 14.3 32 32-14.3 32-32 32-32-14.3-32-32zM256 0c13.3 0 24 10.75 24 24v17.32C380.1 52.39 459.6 131.9 470.7 232H488c13.3 0 24 10.7 24 24s-10.7 24-24 24h-17.3C459.6 380.1 380.1 459.6 280 470.7V488c0 13.3-10.7 24-24 24s-24-10.7-24-24v-17.3C131.9 459.6 52.39 380.1 41.32 280H24c-13.25 0-24-10.7-24-24s10.75-24 24-24h17.32C52.39 131.9 131.9 52.39 232 41.32V24c0-13.25 10.7-24 24-24zm-24 422.3V392c0-13.3 10.7-24 24-24s24 10.7 24 24v30.3c73.6-10.5 131.8-68.7 142.3-142.3H392c-13.3 0-24-10.7-24-24s10.7-24 24-24h30.3C411.8 158.4 353.6 100.2 280 89.7V120c0 13.3-10.7 24-24 24s-24-10.7-24-24V89.7C158.4 100.2 100.2 158.4 89.7 232H120c13.3 0 24 10.7 24 24s-10.7 24-24 24H89.7c10.5 73.6 68.7 131.8 142.3 142.3z"/></svg>