<svg xmlns="http://www.w3.org/2000/svg" viewBox="0 0 640 512"><!--! Font Awesome Pro 6.1.1 by @fontawesome - https://fontawesome.com License - https://fontawesome.com/license (Commercial License) Copyright 2022 Fonticons, Inc.--><path d="m456.5 262.8-79.13-79.13 71.38-71.38-33.88-33.88-121.1 121c-11.75 11.62-19.88 26.38-23.5 42.38l-28.38 122.5-106.8 106.7C130.3 475.7 128 481.9 128 488c0 6.9 5.4 24 24 24 6.156 0 12.28-2.344 16.97-7.031l106.9-106.8 122.5-28.25c16-3.625 30.75-11.88 42.38-23.5l121.2-121L528 191.4l-71.5 71.4zm-49.7 49.8c-5.25 5.25-11.88 9-19.25 10.62l-91.75 21.25L317 252.7c1.625-7.375 5.375-14 10.75-19.25l15.75-15.88 79.13 79.25-15.83 15.78zM640 200c0 6.9-5.4 24-24 24a23.905 23.905 0 0 1-16.97-7.031l-123.5-123.5c-.04-.04.04.04 0 0l-52.49-52.5C418.3 36.28 416 30.14 416 24c0-13.71 11.2-24 24-24a23.93 23.93 0 0 1 16.97 7.031l123.5 123.5c.04.04-.04-.04 0 0l52.49 52.5C637.7 187.7 640 193.9 640 200zm-584.74 2.7-14.29 13.4C36.28 221.7 30.16 224 24 224c-18.795 0-24-17.2-24-24a23.93 23.93 0 0 1 7.031-16.97l52.49-52.5c.04-.04-.04.04 0 0l123.5-123.5C187.7 2.344 193.9 0 200 0c13.7 0 24 11.21 24 24a23.93 23.93 0 0 1-7.031 16.97L202.3 55.62l95.05 94.98-26.25 26.2c-2.609 2.582-4.879 5.447-7.225 8.248L168.4 89.5l-3.9 3.96c-.04.04.04-.04 0 0l-75.22 75.22 134.1 133.9-10.54 45.52-4.84 4.834c-2.869-2.234-6.098-3.969-8.68-6.551L55.26 202.7zM504.1 471c5.6 4.7 7.9 10.9 7.9 17 0 6.861-5.368 24-24 24a23.905 23.905 0 0 1-16.97-7.031l-96.75-96.63 31.28-7.215c7.553-1.711 14.79-4.422 21.83-7.57L504.1 471z"/></svg>