<svg xmlns="http://www.w3.org/2000/svg" viewBox="0 0 384 512"><!--! Font Awesome Pro 6.1.1 by @fontawesome - https://fontawesome.com License - https://fontawesome.com/license (Commercial License) Copyright 2022 Fonticons, Inc.--><path d="M160 419.6V247.1c0-12.4 10.7-24 24-24 10.1 0 20.2 8.2 23.1 18.3 11.7-6 25-10.3 39.1-10.3 22.9 0 44.8 10 61 26.2l4.9 5.7c10.2 9.4 10.2 24.6 0 33.1-8.5 10.2-23.7 10.2-33.1 0l-5.7-4.9c-7.2-7.2-16.9-12.1-27.1-12.1-21.1 0-38.2 18-38.2 39.1V424c0 2.5-.4 4.8-1.9 7 7 .7 13.2 1 19.5 1 45.6 0 87-17 118.5-44.9 9-8.8 25-7.9 33.8 2 8.8 9.9 7.9 25.1-2 33.9-39.9 35.5-92.6 57-150.3 57C101.2 480 0 379.9 0 256S101.2 32 225.6 32c57.7 0 110.4 21.55 150.3 56.98 9.9 8.8 10.8 23.92 2 33.92-8.8 9.9-24.8 10.8-33.8 2C312.6 96.97 271.2 80 225.6 80 127.3 80 48 158.1 48 256c0 74.1 46.31 137.7 112 163.6z"/></svg>