<svg xmlns="http://www.w3.org/2000/svg" viewBox="0 0 448 512"><!--! Font Awesome Pro 6.1.1 by @fontawesome - https://fontawesome.com License - https://fontawesome.com/license (Commercial License) Copyright 2022 Fonticons, Inc.--><path d="M363.2 398.6c51.5-40.2 84.8-104.4 84.8-174.7C448 99.63 347.7 0 223.1 0 100.3 0 0 98.72 0 222.1c0 70.34 33.25 134.5 84.76 174.7l-46.35 62.09c-4.426 6.221-6.424 13.03-6.424 19.68C31.99 496.5 45.07 512 64.04 512h320c18.97 0 32.05-15.55 32.05-32.22 0-6.512-1.998-13.14-6.424-19.09L363.2 398.6zm-66.3-15.1H151.1C90.37 355.59 48 294.18 48 222.9c0-97.34 79.01-176.6 176-176.6s176 79.28 176 176.6c.1 71.3-42.4 132.7-103.1 160.6zm67.5-166.1-49.66-20.87-20.73-50.08c-1.002-2.082-3.69-3.72-5.973-3.72-2.315 0-4.909 1.639-5.911 3.72l-20.61 49.76-.406.378L211.6 217.4c-2.002 1.009-3.596 3.848-3.596 6.055 0 2.27 1.656 4.982 3.659 5.992l49.66 20.87 20.73 50.14c1.002 2.017 3.596 2.775 5.911 2.838 2.284 0 4.971-1.703 5.973-3.722l20.73-50.07 49.66-20.94c2.033-.188 3.69-2.901 3.69-6.055.083-1.408-1.617-4.108-3.617-5.108zm-158.6-78.3-30-12.5-12.6-29.88c-.6-1.19-.4-2.2-2.7-2.2-2.334 0-3.028 1.004-3.627 2.195L144.3 126.6l-30 12.5c-1.3.6-2.3 2.2-2.3 3.6s1.01 2.948 2.241 3.575L144.3 158.7l12.53 29.92c.631 1.254 3.123 2.258 3.627 2.258.506 0 2.114-1.004 3.598-3.136l12.56-29.92 29.19-11.54C207 145.6 208 144 208 142.7c0-1.4-1-3-2.2-3.6z"/></svg>