<svg xmlns="http://www.w3.org/2000/svg" viewBox="0 0 448 512"><!--! Font Awesome Pro 6.1.1 by @fontawesome - https://fontawesome.com License - https://fontawesome.com/license (Commercial License) Copyright 2022 Fonticons, Inc.--><path d="M288 32c17.7 0 32 14.33 32 32v64c0 17.7-14.3 32-32 32h-64c-17.7 0-32-14.3-32-32V64c0-17.67 14.3-32 32-32h64zm-48 48v32h32V80h-32zM70.96 250.7c-8.84-15.3-3.59-34.9 11.71-44.6l55.43-32c15.3-8 34-2.7 43.7 12.6l32 55.4c8.8 15.3 3.6 34-11.7 43.7l-55.4 32c-15.3 8.8-34.9 3.6-44.6-11.7l-31.14-55.4zm93.24 1.5-16-27.7-27.7 16 16 27.7 27.7-16zM256 224c0-17.7 14.3-32 32-32h64c17.7 0 32 14.3 32 32v64c0 17.7-14.3 32-32 32h-64c-17.7 0-32-14.3-32-32v-64zm80 48v-32h-32v32h32zm-16 112c0-17.7 14.3-32 32-32h64c17.7 0 32 14.3 32 32v64c0 17.7-14.3 32-32 32h-64c-17.7 0-32-14.3-32-32v-64zm80 48v-32h-32v32h32zm-144-80c17.7 0 32 14.3 32 32v64c0 17.7-14.3 32-32 32h-64c-17.7 0-32-14.3-32-32v-64c0-17.7 14.3-32 32-32h64zm-48 48v32h32v-32h-32zM0 384c0-17.7 14.33-32 32-32h64c17.7 0 32 14.3 32 32v64c0 17.7-14.3 32-32 32H32c-17.67 0-32-14.3-32-32v-64zm80 48v-32H48v32h32z"/></svg>