<svg xmlns="http://www.w3.org/2000/svg" viewBox="0 0 512 512"><!--! Font Awesome Pro 6.1.1 by @fontawesome - https://fontawesome.com License - https://fontawesome.com/license (Commercial License) Copyright 2022 Fonticons, Inc.--><path d="M236.1 5.865a56.21 56.21 0 0 1 39.8 0l200 75.865c21.7 8.25 36.1 29.07 36.1 52.37v243.8c0 23.3-14.4 44.1-36.1 52.4l-200 75.8c-12.8 4-27 4-39.8 0L36.14 430.3C14.39 422 0 401.2 0 377.9V134.1c0-23.3 14.39-44.12 36.14-52.37L236.1 5.865zm22.7 44.875c-1.8-.69-4.7-.69-5.6 0L63.62 122.6 256 198.2l192.4-75.6-189.6-71.86zM53.16 385.4 232 453.2V240.4L48 168.1v209.8c0 3.3 2.06 6.3 5.16 7.5zM280 453.2l178.8-67.8c3.1-1.2 5.2-4.2 5.2-7.5V168.1l-184 72.3v212.8z"/></svg>