<svg xmlns="http://www.w3.org/2000/svg" viewBox="0 0 576 512"><!--! Font Awesome Pro 6.1.1 by @fontawesome - https://fontawesome.com License - https://fontawesome.com/license (Commercial License) Copyright 2022 Fonticons, Inc.--><path d="M448 92.99V207.5l91.9 34.9c21.7 8.2 36.1 29.1 36.1 52.3v119.2c0 22.2-13.1 42.3-33.5 51.2l-96.3 42.4c-14 6.2-29.9 6.3-44-.4L288 460.7l-114.2 46.4c-14.1 6.7-30 6.6-44 .4l-96.34-42.4C13.13 456.2 0 436.1 0 413.9V294.7c0-23.2 14.39-44.1 36.15-52.3L128 207.5V92.99c0-23.67 14.9-44.79 37.2-52.75l104-37.106a55.883 55.883 0 0 1 37.6 0l104 37.106C433.1 48.2 448 69.32 448 92.99zM290.7 48.34c-2.6-.62-3.6-.62-5.4 0l-81.2 28.98L288 109.5l83.9-32.18-81.2-28.98zM264 238.6v-86.9l-88-33.8v89.3l88 31.4zm48 0 88-31.4v-89.3l-88 33.8v86.9zM176 353.9v101.2l88-36.4v-98.5l-88 33.7zM52.78 421.2 128 454.3V353.9l-80-30.7v90.7c0 3.2 1.88 6 4.78 7.3zM400 353.9l-88-33.7v98.5l88 36.4V353.9zm48 100.4 75.2-33.1c2.9-1.3 4.8-4.1 4.8-7.3v-90.7l-80 30.7v100.4zM155 250.7c-1.8-.7-3.7-.6-5.5 0l-78.69 29.9L152 311.7l83.9-32.2-80.9-28.8zm185.1 28.8 83.9 32.2 81.2-31.1-78.7-29.9c-1.8-.6-3.7-.7-6.4 0l-80 28.8z"/></svg>