<svg xmlns="http://www.w3.org/2000/svg" viewBox="0 0 512 512"><!--! Font Awesome Pro 6.1.1 by @fontawesome - https://fontawesome.com License - https://fontawesome.com/license (Commercial License) Copyright 2022 Fonticons, Inc.--><path d="M474.7 37.48C449.7 12.49 416.9 0 384.2 0s-65.56 12.49-90.54 37.48L169.2 161.8c-2.9-.9-5.9-2.7-9.1-2.7-17.68 0-32.01 14.33-32.01 32 0 3.242.948 6.191 1.844 9.141L37.51 293.5c-50.02 50-50.02 131 0 181 24.98 25 57.78 37.5 90.59 37.5 31.01 0 61.83-11.59 86.24-33.98 3.132 1.023 6.321 1.977 9.797 1.977 17.68 0 32.01-14.33 32.01-32 0-3.242-.948-6.191-1.844-9.141l184.8-184.7c2.95.896 5.899 1.846 9.142 1.846 17.68 0 32.01-14.33 32.01-32 0-3.475-.954-6.662-1.977-9.795C524.3 163.1 523.4 86.13 474.7 37.48zm-34 147.12-63.16 63.14c-4.385-4.689-10.51-7.713-17.43-7.713-13.24 0-24.01 10.76-24.01 24 0 6.912 3.025 13.04 7.716 17.42l-159.2 159.2C169.5 455.7 149.4 464 128.1 464s-41.48-8.316-56.58-23.43c-31.21-31.2-31.21-81.96 0-113.2l256.1-256C342.7 56.31 362.8 48 384.2 48c21.39 0 41.48 8.312 56.58 23.42 31.12 31.18 31.12 81.98-.08 113.18zM160.1 295.1c-13.24 0-24.01 10.76-24.01 24s10.77 24 24.01 24c13.24 0 24.01-10.76 24.01-24-.01-12.3-10.81-24-24.01-24zm192-192c-13.24 0-24.01 10.76-24.01 24s10.77 24 24.01 24c13.24 0 24.01-10.76 24.01-24 .09-12.3-10.71-24-24.01-24z"/></svg>