<svg xmlns="http://www.w3.org/2000/svg" viewBox="0 0 384 512"><!--! Font Awesome Pro 6.1.1 by @fontawesome - https://fontawesome.com License - https://fontawesome.com/license (Commercial License) Copyright 2022 Fonticons, Inc.--><path d="m360 128-153.3-.002 20-80L264 48c13.3 0 24-10.75 24-24 0-13.26-10.7-24-24-24l-43.5-.002c-18.32 0-34.29 12.47-38.75 30.24L157.3 127.1 24 128c-13.25 0-24 10.7-24 24s10.75 24 24 24h8l30.5 306.3c1.25 16.88 15.12 29.88 32 29.75h195c16.88.125 30.75-12.88 32-29.75L352 176h8c13.3 0 24-10.7 24-24s-10.7-24-24-24zm-85 336H109L80.25 176h223.5L275 464z"/></svg>