<svg xmlns="http://www.w3.org/2000/svg" viewBox="0 0 448 512"><!--! Font Awesome Pro 6.1.1 by @fontawesome - https://fontawesome.com License - https://fontawesome.com/license (Commercial License) Copyright 2022 Fonticons, Inc.--><path d="M424 80h-9.789c-.324-.904-.3-1.854-.742-2.734l-32-64A24.007 24.007 0 0 0 360 0H88c-9.09 0-17.41 5.141-21.47 13.27l-32 64c-.44.88-.42 1.83-.74 2.73H24C10.75 80 0 90.74 0 104c0 13.3 10.75 24 24 24h400c13.3 0 24-10.7 24-24 0-13.26-10.7-24-24-24zM86.84 80l16.01-32h242.3l16.01 32H86.84zm300.96 80.3c-13.19-2-25.38 6.859-27.47 19.95L353.4 224H94.62l-6.9-43.7c-2.06-13.1-14.38-22-27.47-20-13.09 2.1-22.03 14.4-19.97 27.5l48 304C90.13 503.4 100.2 512 112 512h223.9c11.81 0 21.92-8.594 23.77-20.25l48-304c2.13-13.05-6.87-25.35-19.87-27.45zM315.5 464h-183l-12.6-80h208.3l-12.7 80z"/></svg>