<svg xmlns="http://www.w3.org/2000/svg" viewBox="0 0 384 512"><!--! Font Awesome Pro 6.1.1 by @fontawesome - https://fontawesome.com License - https://fontawesome.com/license (Commercial License) Copyright 2022 Fonticons, Inc.--><path d="m360 128-153.3-.002 20-80L264 48c13.3 0 24-10.75 24-24 0-13.26-10.7-24-24-24l-43.5-.002c-18.32 0-34.29 12.47-38.75 30.24L157.3 127.1 24 128c-13.25 0-24 10.7-24 24s10.75 24 24 24h8l30.5 306.3c1.25 16.88 15.12 29.88 32 29.75h195c16.88.125 30.75-12.88 32-29.75L352 176h8c13.3 0 24-10.7 24-24s-10.7-24-24-24zm-56.2 48-5.707 57.17C253.7 238.7 211.7 264.3 180.8 305.6c-22.76 30.38-51.67 48.05-82.37 52.49L80.25 176H303.8zM275 464H109l-5.719-57.29c43.83-5.83 85.28-31.45 115.9-72.31 20.66-27.57 46.35-44.97 73.86-51.35L275 464z"/></svg>