<svg xmlns="http://www.w3.org/2000/svg" viewBox="0 0 448 512"><!--! Font Awesome Pro 6.1.1 by @fontawesome - https://fontawesome.com License - https://fontawesome.com/license (Commercial License) Copyright 2022 Fonticons, Inc.--><path d="M431.9 178c10.9 15.7 16.5 34.4 15.2 53.5.4 19.1-6.1 37.5-17.7 52.7-11.6 15.1-27.7 26.2-46 31.6l-27 169.4c-1.2 7.5-5 14.3-10.8 19.2-5.8 4.9-13.1 6.7-20.7 7.6h-24.8l24-192h-32.2l-24 192h-87.8l-24-192h-32.2l24 192h-24.8c-7.5 0-14.9-2.7-20.6-7.5-5.8-4.9-9.67-11.6-10.95-19.1L64.61 315.8c-18.31-5.4-34.43-16.5-46.04-31.6C6.963 269 .465 250.6.017 231.5A90.098 90.098 0 0 1 16.08 178c10.88-15.6 26.46-27.5 44.5-33.7l20.06-10.4c2.45-19.3 11.87-37.05 26.46-49.93A79.971 79.971 0 0 1 160 64h37.5c4.3.06 8.4-1.18 12-3.55 3.5-2.37 6.3-5.77 7.8-9.73 1.7-3.91 2.2-8.25 1.3-12.42-.8-4.18-2.9-8.01-5.9-10.97-2.3-2.24-3.8-5.09-4.4-8.2-.6-3.11-1.2-6.33.9-9.257 1.2-2.927 3.3-5.428 5.9-7.186 2.6-1.757 5.7-2.693 8-2.687 37.4.04 72.5 13.9 99.1 38.77 26.7 24.88 42.9 58.94 45.4 95.33l19.8 10.2c18.1 6.2 33.6 18.1 44.5 33.7zm-46.8 83.9c7.7-6.5 12.8-15.5 14.4-25.5 1.6-9.9-.3-20.1-5.6-28.7-5.2-8.7-13.3-15.1-22.9-18.3-1.5-.5-3.1-1.2-4.5-1.9l-29.2-15.1c-5.2-2.6-9.6-6.7-12.6-11.7-3.1-5.1-5.6-10.8-4.7-16.7-.9-18.1-5.1-35.9-14.8-51.2-9.7-15.33-23.5-27.61-39.8-35.42-.9 4-2.1 7.92-3.7 11.71a68.53 68.53 0 0 1-25.6 31.21c-11.4 6.8-24.8 11.7-38.6 11.7H160c-8.5 0-16.6 3.4-22.6 9.4S128 135.5 128 144c0 5.9-1.6 11.6-4.7 16.7-3 5-7.4 9.1-12.6 11.7l-29.16 15.1c-1.48.7-2.99 1.4-4.55 1.9-9.57 3.2-17.69 9.6-22.92 18.3-5.22 8.6-7.21 18.8-5.59 28.7 1.61 10 6.72 19 14.4 25.5 7.69 6.6 17.44 10.1 27.52 10.1h267.2c10.1 0 19.8-3.5 27.5-10.1z"/></svg>