<svg xmlns="http://www.w3.org/2000/svg" viewBox="0 0 576 512"><!--! Font Awesome Pro 6.1.1 by @fontawesome - https://fontawesome.com License - https://fontawesome.com/license (Commercial License) Copyright 2022 Fonticons, Inc.--><path d="M568.1 407c5.4 4.5 7.9 10.6 7.9 16.1 0 7.3-2.5 13.4-7.9 17-3.6 5.4-9.7 7-16.1 7H24c-6.37 0-12.47-1.6-16.971-7-4.5-3.6-7.029-9.7-7.029-17 0-5.5 2.529-11.6 7.029-16.1 4.501-4.5 10.601-7.9 16.971-7.9h528c6.4 0 12.5 3.4 16.1 7.9zM66.45 356.7c-3.37-5.4-5.35-11.9-3.03-18.1l51.78-223.5c3.6-14.1 12.1-27.37 24.3-36.82 12.1-9.45 27.1-14.49 42.5-15.18h211.1c16.3.69 31.3 5.73 43.4 15.18 12.2 9.45 20.7 22.72 24.3 36.82l51.8 223.5c1.4 6.2.3 12.7-3 18.1-3.4 5.4-8.8 9.2-15 10.7-1.8.4-4.5.6-5.4-.3-5.5 0-10.7-.9-14.9-4.3-4.3-3.4-7.3-8.1-8.5-13.4l-27.2-117.2-1.9-1.5c-11-9.5-25-14.8-39.5-14.8s-28.6 5.3-39.5 14.8c-19.6 16.3-44.2 24.4-69.7 24.4s-50.1-8.1-69.7-24.4c-10.9-9.5-25-14.8-39.5-14.8s-28.6 5.3-39.5 14.8l-1.9 1.5-27.2 117.2c-.7 3.1-2 6-3.9 7.7-1.8 3.4-4.1 5.6-6.79 7.3-2.68 1.7-5.66 2.8-8.77 3.3-3.11.5-6.3.4-9.36-.3-6.2-1.5-11.57-5.3-14.93-10.7zm84.95-184.6c16.7-4.5 34.2-4.9 51.1-1.2s32.7 11.4 46 22.4c11 9.3 25 14.4 39.5 14.4s28.5-5.1 39.5-14.4c13.4-11 29.1-18.7 46-23.2 16.9-2.8 34.4-2.4 51.1 2l-10.5-45.3c-1.2-4.3-3.9-8.2-7.5-10.9-4.5-2.6-8.1-4-13.5-4.8H182c-4.5.8-9 2.2-12.6 4.8-3.6 2.7-6.3 6.6-7.5 10.9l-10.5 45.3z"/></svg>