<svg xmlns="http://www.w3.org/2000/svg" viewBox="0 0 448 512"><!--! Font Awesome Pro 6.1.1 by @fontawesome - https://fontawesome.com License - https://fontawesome.com/license (Commercial License) Copyright 2022 Fonticons, Inc.--><path d="M224 512C100.3 512 0 476.2 0 432V80C0 35.82 100.3 0 224 0s224 35.82 224 80v352c0 44.2-100.3 80-224 80zM400 86.03l-.6-.49c-5.3-4.51-15.9-10.74-33.2-16.9C332.1 56.45 281.8 48 224 48c-57.8 0-108.1 8.45-142.25 20.64-17.26 6.16-27.84 12.39-33.18 16.9l-.57.49v88.67c13.28 6.4 31.64 14.2 54.8 19.9 33.9 7.5 75.7 13.4 121.2 13.4s87.3-5.9 121.2-13.4c23.2-5.7 41.5-13.5 54.8-19.9V86.03zm0 141.57c-13.3 5.3-27.9 9.8-43.3 13.6-38.2 9.4-83.9 14.8-132.7 14.8-48.8 0-94.5-5.4-132.69-14.8-15.38-3.8-29.99-8.3-43.31-13.6v75.1c13.28 6.4 31.64 14.2 54.8 19.9 33.9 7.5 75.7 13.4 121.2 13.4s87.3-5.9 121.2-13.4c23.2-5.7 41.5-13.5 54.8-19.9v-75.1zM48.57 426.5c5.34 3.6 15.91 10.7 33.18 16.9C115.9 455.5 166.2 464 223.1 464c58.7 0 109-8.5 143.1-20.6 17.3-6.2 27.9-13.3 33.2-16.9l.6-1.4v-69.5c-13.3 5.3-27.9 9.8-43.3 13.6-38.2 9.4-83.9 14.8-133.6 14.8-47.9 0-93.6-5.4-131.79-14.8-15.38-3.8-29.99-8.3-44.21-13.6v69.5l1.47 1.4zM402 423.9l-.1.2c.1-1 .2-.2.2-.2h-.1zm-355.9.2c-.1-1-.15-.2-.16-.2l.16.2zm0-336.2c-.12.14-.16.21-.16.21l.16-.21zm356 .21s-.1-.07-.2-.21z"/></svg>