<svg xmlns="http://www.w3.org/2000/svg" viewBox="0 0 576 512"><!--! Font Awesome Pro 6.1.1 by @fontawesome - https://fontawesome.com License - https://fontawesome.com/license (Commercial License) Copyright 2022 Fonticons, Inc.--><path d="M400 159.1c-8.75 0-16 7.248-16 15.1 0 8.748 7.25 15.1 16 15.1s16-4.6 16-14.2c0-7.9-7.2-16-16-16zm136-63.12c-15.5 0-28.5 9.123-35.25 21.99-5.75-4.124-12.25-7.373-19.38-9.373l-68.62-19.37c3-3.374 6.125-6.373 8.625-9.998l18.12-27.24c4.875-7.373 2.875-17.25-4.375-22.24l-13.37-8.873c-7.375-4.874-17.25-2.874-22.13 4.374L381.5 52.49c-3.875 5.749-9.25 10.5-15.38 13.62L316 91.1l-9-2.499.75-.875C315.6 77.73 320 65.36 320 52.74V15.1C320 6.352 312.75 0 304 0h-16c-8.75 0-16 7.248-16 15.1v36.74c0 1.875-.625 3.624-1.75 4.999L256.9 74.61l-10.1-3.124c-4.3-1.006-6.7-4.126-6.7-7.756V15.1c0-8.748-7.25-15.1-16-15.1h-16c-8.875 0-16 7.248-16 15.1v47.74c0 24.99 16.75 47.24 40.88 53.99l63.75 17.87-14.53 24.4H88c-48.5 0-88 39.49-88 87.98v63.98h48v7.248l-10.38 27.74c-6.25 16.75-7.375 34.87-2.625 53.24l24.5 81.48C64 499.5 79.87 511.1 98.25 511.1h63.88c12.38 0 23.87-5.624 31.5-15.37 7.625-9.748 10.25-22.24 7-35.37l-24-80.61 10.62-28.62H256v119.1c0 22.12 17.88 39.99 40 39.99h64c22.12 0 40-17.87 40-39.99V302.3l21.88-38.37H464c35.25 0 64-28.74 64-63.98V174.3c2.75.625 5.25 1.625 8 1.625 22.12 0 40-17.87 40-39.99S558.1 95.98 536 95.98zM480 199.1c0 8.748-7.25 15.1-16 15.1h-69.88L352 289.6v174.3h-48v-160H153.1l-28.12 74.73 25.37 85.23h-47l-23.12-76.48c-2-7.873-1.5-16.12 1.25-23.74L95.6 331.9l.4-68-48.9-.8.9-15.2c0-22.12 17.88-39.99 40-39.99h221.8l34.5-58.74c7.5-14.1 24.5-22.49 40.75-17.1l83.25 23.49c6.9 1.04 11.7 6.54 11.7 14.54v29z"/></svg>