<svg xmlns="http://www.w3.org/2000/svg" viewBox="0 0 512 512"><!--! Font Awesome Pro 6.1.1 by @fontawesome - https://fontawesome.com License - https://fontawesome.com/license (Commercial License) Copyright 2022 Fonticons, Inc.--><path d="M384 159.1c-8.75 0-16 7.248-16 15.1 0 8.748 7.25 15.1 16 15.1s16-7.248 16-15.1c0-7-7.2-15.1-16-15.1zm81.4-50.6-68.62-19.37c3-3.374 6.125-6.373 8.625-9.998l18.12-27.12c4.875-7.248 2.875-17.25-4.375-22.24l-13.37-8.873c-7.375-4.874-17.25-2.874-22.13 4.374L365.5 52.49c-3.875 5.749-9.25 10.5-15.38 13.62l-48.88 24.37-9.5-2.749c8-9.998 12.37-22.37 12.37-34.99l-.063-36.74c0-8.748-7.188-15.1-15.94-15.1h-16C263.2 0 256 7.25 256 15.1l.125 36.74c0 1.875-.625 3.624-1.75 4.999L241 74.61l-11.9-3.13c-2.5-1-4.9-4.12-4.9-7.75V15.1c0-8.748-7.25-15.1-16-15.1h-16c-8.875 0-15.1 7.248-15.1 15.1v47.74c0 24.99 16.75 47.24 40.87 53.99l63.75 17.87-14.63 24.37H88c-48.5 0-88 39.49-88 87.98v63.98h48v7.248l-10.38 27.74c-6.25 16.75-7.375 34.87-2.625 53.24l24.5 81.48C64 499.5 79.88 512 98.25 512h63.88c12.38 0 23.87-5.624 31.5-15.37 7.625-9.748 10.25-22.24 7-35.37l-23.1-80.61 10.62-28.62H240v119.1c0 22.12 17.88 39.99 40 39.99h64c22.12 0 40-17.87 40-39.99V295.2l20.75-31.24H448c35.25 0 64-28.74 64-63.98V170.1c0-28.5-19.2-53.9-46.6-61.6zm-1.4 90.6c0 8.748-7.25 15.1-16 15.1h-68.75L336 280.7v183.2h-48v-160H153.1l-28.12 74.73 25.37 85.23h-47l-23.12-76.48c-2-7.873-1.5-16.12 1.25-23.74L95.6 331.9l.4-68H48v-16c0-22.12 17.88-39.99 40-39.99h205.8l34.5-58.74c7.5-14.1 24.5-22.49 40.75-17.1l83.25 23.49c7 1.04 11.7 6.54 11.7 14.54v29z"/></svg>