<svg xmlns="http://www.w3.org/2000/svg" viewBox="0 0 576 512"><!--! Font Awesome Pro 6.1.1 by @fontawesome - https://fontawesome.com License - https://fontawesome.com/license (Commercial License) Copyright 2022 Fonticons, Inc.--><path d="M432.1 208.1 385.9 256l46.2 47c10.2 9.4 10.2 24.6 0 33.1-8.5 10.2-23.7 10.2-33.1 0l-47-46.2-47.9 46.2c-8.5 10.2-23.7 10.2-33.1 0-9.3-8.5-9.3-23.7 0-33.1l47.1-47-47.1-47.9c-9.3-8.5-9.3-23.7 0-33.1 9.4-9.3 24.6-9.3 33.1 0l47.9 47.1 47-47.1c9.4-9.3 24.6-9.3 33.1 0 10.2 9.4 10.2 24.6 0 33.1zM512 64c35.3 0 64 28.65 64 64v256c0 35.3-28.7 64-64 64H205.3c-17 0-33.3-6.7-45.3-18.7L9.372 278.6C3.371 272.6 0 264.5 0 256c0-8.5 3.372-16.6 9.372-22.6L160 82.75C172 70.74 188.3 64 205.3 64H512zm16 64c0-8.8-7.2-16-16-16H205.3c-4.3 0-8.4 1.7-11.4 4.7L54.63 256 193.9 395.3c3 3 7.1 4.7 11.4 4.7H512c8.8 0 16-7.2 16-16V128z"/></svg>