<svg xmlns="http://www.w3.org/2000/svg" viewBox="0 0 576 512"><!--! Font Awesome Pro 6.1.1 by @fontawesome - https://fontawesome.com License - https://fontawesome.com/license (Commercial License) Copyright 2022 Fonticons, Inc.--><path d="M143 175c9.4-9.3 24.6-9.3 33.1 0l47 47.1L271 175c9.4-9.3 24.6-9.3 33.1 0 10.2 9.4 10.2 24.6 0 33.1l-46.2 47 46.2 47.9c10.2 9.4 10.2 24.6 0 33.1-8.5 10.2-23.7 10.2-33.1 0l-47.9-46.2-47 46.2c-8.5 10.2-23.7 10.2-33.1 0-9.3-8.5-9.3-23.7 0-33.1l47.1-47.9-47.1-47c-9.3-8.5-9.3-23.7 0-33.1zM370.7 64c17 0 32.4 6.74 45.3 18.75L566.6 233.4c6 6 9.4 14.1 9.4 22.6 0 8.5-3.4 16.6-9.4 22.6L416 429.3c-12.9 12-28.3 18.7-45.3 18.7H64c-35.35 0-64-28.7-64-64V128c0-35.35 28.65-64 64-64h306.7zM48 384c0 8.8 7.16 16 16 16h306.7c3.4 0 8.4-1.7 11.4-4.7L521.4 256 382.1 116.7c-3-3-8-4.7-11.4-4.7H64c-8.84 0-16 7.2-16 16v256z"/></svg>