<svg xmlns="http://www.w3.org/2000/svg" viewBox="0 0 640 512"><!--! Font Awesome Pro 6.1.1 by @fontawesome - https://fontawesome.com License - https://fontawesome.com/license (Commercial License) Copyright 2022 Fonticons, Inc.--><path d="m638.7 221.2-19.75-29.5c-25.25-37.88-66.51-61.25-111.6-63.75H288.3l-73.7-61.2c11.4-19.13 11.5-43-.8-61.88-3.376-5.125-10.75-5.875-15.13-1.5L157.6 44.25 115.72 2.37c-3.62-3.625-9.62-3-12.32 1.25-12.3 17.13-9.9 39.63 3.1 56L13.48 168.2c-14.75 17.13-17.63 41.38-7.501 61.5l13.63 27.38c9.627 19.13 28.88 30.88 50.13 30.88h31.01c14.88 0 29.25-6 38.26-15.13l10.25-8.625 26.38 68.25v139.5C175.6 494.1 193.6 512 215.6 512h72.01c22.13 0 40.01-17.88 40.01-40v-40h96.14v40c.04 22.1 18.04 40 40.04 40h72.14c22.13 0 40.01-17.88 40.01-40V214.8c.973 1.227 2.2 2.195 3.125 3.586l19.63 29.38c1.125 1.875 3 3 5.001 3.5 2.25.5 4.251 0 6.001-1.25l26.75-17.75C640.1 229.7 641.1 224.7 638.7 221.2zM527.8 463.1h-56.13v-64c0-8.75-7.126-16-16-16H295.7c-8.876 0-16 7.25-16 16v64h-56.2v-112h304.3v112zm0-160H214.6l-37.01-98.75c-3.876-10.5-16.88-13.88-25.38-6.625L106.2 237.7c-1.5 1.5-3.6 1.4-5.6 1.4H69.62a8.174 8.174 0 0 1-7.251-4.375L48.62 208.2c-1.38-2.8-1-7.1 1.12-8.7L138.5 96h36.26l96.14 80h216.9c22.13 0 40.01 17.88 40.01 40v87.1zm-244.1-76.4-8.3-16.5c-1.5-3-5.751-3-7.251 0L260 226.7l-18.4 2.8c-3.251.5-4.501 4.5-2.125 6.75L252.6 249.2l-3 18.2c-.6 3.3 2.9 5.8 5.8 4.2l16.25-8.625 16.38 8.625c2.875 1.5 6.376-.875 5.751-4.25L290.7 249.2l13.25-13c2.375-2.25 1.125-6.25-2.25-6.75l-18-2.75zm95.7 0-8.2-16.5c-1.5-3-5.626-3-7.126 0l-8.274 16.5-18.25 2.75c-3.376.5-4.626 4.5-2.25 6.75l13.2 13-3.126 18.13c-.625 3.375 2.875 5.875 5.751 4.25l16.38-8.625 16.25 8.625c2.875 1.5 6.376-.875 5.876-4.25L386.5 249.2l13.13-13c2.5-2.25 1.125-6.25-2.125-6.75L379.4 226.7zm96.3 0-8.251-16.5c-1.5-3-5.751-3-7.251 0l-8.126 16.5-18.38 2.75c-3.251.5-4.501 4.5-2.125 6.75l13.13 13-3 18.13c-.625 3.375 2.875 5.875 5.751 4.25l16.25-8.625 16.38 8.625c2.875 1.5 6.376-.875 5.751-4.25L482.7 249.2l13.25-13c2.375-2.25 1.125-6.25-2.25-6.75l-18-2.75z"/></svg>