<svg xmlns="http://www.w3.org/2000/svg" viewBox="0 0 512 512"><!--! Font Awesome Pro 6.1.1 by @fontawesome - https://fontawesome.com License - https://fontawesome.com/license (Commercial License) Copyright 2022 Fonticons, Inc.--><path d="m499.3 232-20.5.625C474.1 188.2 456.6 147.9 429.1 115l15-14c5.125-4.75 5.25-12.75.375-17.75l-16.62-16.62c-5-4.875-13-4.75-17.75.375l-14 15C364.1 55.38 323.8 37.88 279.4 33.25l.6-20.5c.2-7-5.2-12.75-12.2-12.75h-23.5c-7 0-12.5 5.75-12.3 12.75l.625 20.5C188.2 37.88 147.9 55.38 115 82l-14-15c-4.75-5.12-12.75-5.25-17.75-.38L66.63 83.25c-4.88 5-4.75 13 .37 17.75l14.1 14c-26.62 32.88-44.12 73.25-48.75 117.6l-19.6-.6c-7-.2-12.75 5.2-12.75 12.2v23.5c0 7.1 5.75 12.5 12.75 12.3l20.5-.625c4.625 44.38 22.13 84.75 48.75 117.6l-14.1 14c-5.125 4.75-5.25 12.75-.375 17.75l16.62 16.62c5 4.875 13 4.75 17.75-.375l14-14.1c32.88 26.62 73.25 44.12 117.6 48.75L232 499.2c-.2 7 5.3 12.8 12.3 12.8h23.5c7 0 12.5-5.75 12.25-12.75l-.625-20.5c44.38-4.625 84.75-22.13 117.6-48.75l14 14.1c4.75 5.125 12.75 5.25 17.75.375l16.62-16.62c4.875-5 4.75-13-.375-17.75l-15-14c26.63-32.88 44.13-73.25 48.75-117.6L499.3 280c7 .2 12.7-5.2 12.7-12.2v-23.6c0-7-5.7-12.4-12.7-12.2zm-68.8 2.1-80.5 2.5c-2.5-12.12-7.375-23.25-13.87-33.25l58.63-55.25c19.04 24.4 31.74 53.9 35.74 86zM256 304c-26.5 0-48-21.5-48-48s21.5-48 48-48 48 21.5 48 48-21.5 48-48 48zm107.9-186.8-55.25 58.63c-9.875-6.5-21.12-11.38-33.13-13.87l2.375-80.5C309.1 85.5 339.5 98.25 363.9 117.2zM234.1 81.5l2.5 80.5c-12.1 2.5-23.2 7.4-33.2 13.9l-55.3-58.7c24.4-18.95 53-31.7 86-35.7zm-116.9 66.6 58.63 55.25c-6.43 9.85-11.33 21.15-14.73 33.15l-79.6-2.4c4-32.1 16.75-61.6 35.7-86zM81.5 277.9l80.5-2.5c2.5 12.1 7.4 23.2 13.9 33.2l-58.7 55.3c-18.95-24.4-31.7-53.9-35.7-86zm66.6 116.9 55.25-58.63c9.875 6.5 21.12 11.38 33.13 13.88l-2.38 80.45c-33-4-61.6-16.7-86-35.7zm129.8 35.7-2.5-80.5c12.12-2.5 23.25-7.375 33.25-13.88l55.25 58.63c-24.4 19.05-54.8 31.75-86 35.75zm116.9-66.6-58.63-55.25c6.5-9.875 11.38-21.12 13.87-33.13l80.5 2.375C426.5 310 413.8 339.5 394.8 363.9z"/></svg>