<svg xmlns="http://www.w3.org/2000/svg" viewBox="0 0 512 512"><!--! Font Awesome Pro 6.1.1 by @fontawesome - https://fontawesome.com License - https://fontawesome.com/license (Commercial License) Copyright 2022 Fonticons, Inc.--><path d="M512 416c0 35.3-28.7 64-64 64H64c-35.35 0-64-28.7-64-64v-64c0-35.3 28.65-64 64-64h168v-86.1l-23.9 22.2c-8.5 10.2-23.7 10.2-33.1 0-9.3-8.5-9.3-23.7 0-33.1l64-64c9.4-9.3 24.6-9.3 33.1 0l64 64c10.2 9.4 10.2 24.6 0 33.1-8.5 10.2-23.7 10.2-33.1 0l-23-22.2V288h168c35.3 0 64 28.7 64 64v64zm-48 0v-64c0-8.8-7.2-16-16-16H64c-8.84 0-16 7.2-16 16v64c0 8.8 7.16 16 16 16h384c8.8 0 16-7.2 16-16zM0 160V96c0-35.35 28.65-64 64-64h384c35.3 0 64 28.65 64 64v64c0 35.3-28.7 64-64 64h-66.9c6.3-21.2.8-44.7-15.8-61.3l-64-63.95c-25-25-65.6-25-90.6 0l-64 63.95c-16.6 16.6-22.1 40.1-16.7 61.3H64c-35.35 0-64-28.7-64-64z"/></svg>