<svg xmlns="http://www.w3.org/2000/svg" viewBox="0 0 512 512"><!--! Font Awesome Pro 6.1.1 by @fontawesome - https://fontawesome.com License - https://fontawesome.com/license (Commercial License) Copyright 2022 Fonticons, Inc.--><path d="M280 224v86.1l23-23.1c9.4-9.3 24.6-9.3 33.1 0 10.2 9.4 10.2 24.6 0 33.1l-64 64c-8.5 10.2-23.7 10.2-33.1 0l-64-64c-9.3-8.5-9.3-23.7 0-33.1 9.4-9.3 24.6-9.3 33.1 0l23.9 23.1V224H64c-35.35 0-64-28.7-64-64V96c0-35.35 28.65-64 64-64h384c35.3 0 64 28.65 64 64v64c0 35.3-28.7 64-64 64H280zM64 288h66c-4.1 16-1.9 33.3 6.6 48H64c-8.84 0-16 7.2-16 16v64c0 8.8 7.16 16 16 16h384c8.8 0 16-7.2 16-16v-64c0-8.8-7.2-16-16-16h-72.6c8.5-14.7 10.7-32 5.7-48H448c35.3 0 64 28.7 64 64v64c0 35.3-28.7 64-64 64H64c-35.35 0-64-28.7-64-64v-64c0-35.3 28.65-64 64-64z"/></svg>