<svg xmlns="http://www.w3.org/2000/svg" viewBox="0 0 512 512"><!--! Font Awesome Pro 6.1.1 by @fontawesome - https://fontawesome.com License - https://fontawesome.com/license (Commercial License) Copyright 2022 Fonticons, Inc.--><path d="M64 480c-35.35 0-64-28.7-64-64v-64c0-35.3 28.65-64 64-64h384c35.3 0 64 28.7 64 64v64c0 35.3-28.7 64-64 64H64zm400-64v-64c0-8.8-7.2-16-16-16H64c-8.84 0-16 7.2-16 16v64c0 8.8 7.16 16 16 16h384c8.8 0 16-7.2 16-16zM288 160c0 35.3-28.7 64-64 64H64c-35.35 0-64-28.7-64-64V96c0-35.35 28.65-64 64-64h304c39.8 0 72 32.24 72 72v38.1l23-23.1c9.4-9.3 24.6-9.3 33.1 0 10.2 9.4 10.2 24.6 0 33.1l-64 64c-8.5 10.2-23.7 10.2-33.1 0l-64-64c-9.3-8.5-9.3-23.7 0-33.1 9.4-9.3 24.6-9.3 33.1 0l23.9 23.1V104c0-13.25-10.7-24-24-24h-82.9c2.2 5.11 2.9 10.48 2.9 16v64z"/></svg>