<svg xmlns="http://www.w3.org/2000/svg" viewBox="0 0 640 512"><!--! Font Awesome Pro 6.1.1 by @fontawesome - https://fontawesome.com License - https://fontawesome.com/license (Commercial License) Copyright 2022 Fonticons, Inc.--><path d="M320 458.4c-29.1 13.9-61.6 21.6-96 21.6C100.3 480 0 379.7 0 256S100.3 32 224 32c34.4 0 66.9 7.73 96 21.56C349.1 39.73 381.6 32 416 32c123.7 0 224 100.3 224 224S539.7 480 416 480c-34.4 0-66.9-7.7-96-21.6zM192 256c0-68 30.3-128.8 78-169.92-14.6-3.96-30.1-6.08-46-6.08-97.2 0-176 78.8-176 176s78.8 176 176 176c15.9 0 31.4-2.1 46-6.1-47.7-41.1-78-102.8-78-169.9zm196 64c5.9-15.1 9.8-31.2 11.3-48H240.7c1.5 16.8 5.4 32.9 10.4 48H388zm-119.5 32c13.4 20.6 30.9 38.1 51.5 51.5 20.6-13.4 38.1-30.9 51.5-51.5h-103zm-17.4-160c-5 15.1-8.9 31.2-10.4 48h158.6c-1.5-16.8-5.4-32.9-11.3-48H251.1zm120.4-32a175.56 175.56 0 0 0-51.5-51.5 175.56 175.56 0 0 0-51.5 51.5h103z"/></svg>