<svg xmlns="http://www.w3.org/2000/svg" viewBox="0 0 576 512"><!--! Font Awesome Pro 6.1.1 by @fontawesome - https://fontawesome.com License - https://fontawesome.com/license (Commercial License) Copyright 2022 Fonticons, Inc.--><path d="M256 32c0-17.67 14.3-32 32-32s32 14.33 32 32-14.3 32-32 32-32-14.33-32-32zM128 288c0-88.4 71.6-160 160-160s160 71.6 160 160-71.6 160-160 160-160-71.6-160-160zm160-24c13.3 0 24 10.7 24 24v109.4c50.3-11 88-55.8 88-109.4 0-61.9-50.1-112-112-112s-112 50.1-112 112c0 53.6 37.7 98.4 88 109.4V288c0-13.3 10.7-24 24-24zm288 24c0 17.7-14.3 32-32 32s-32-14.3-32-32 14.3-32 32-32 32 14.3 32 32zM0 288c0-17.7 14.33-32 32-32s32 14.3 32 32-14.33 32-32 32-32-14.3-32-32zM128 96c0 17.7-14.3 32-32 32-17.67 0-32-14.3-32-32 0-17.67 14.33-32 32-32 17.7 0 32 14.33 32 32zm320 0c0-17.67 14.3-32 32-32s32 14.33 32 32c0 17.7-14.3 32-32 32s-32-14.3-32-32zM128 480c0 17.7-14.3 32-32 32-17.67 0-32-14.3-32-32s14.33-32 32-32c17.7 0 32 14.3 32 32zm320 0c0-17.7 14.3-32 32-32s32 14.3 32 32-14.3 32-32 32-32-14.3-32-32z"/></svg>