<svg xmlns="http://www.w3.org/2000/svg" viewBox="0 0 576 512"><!--! Font Awesome Pro 6.1.1 by @fontawesome - https://fontawesome.com License - https://fontawesome.com/license (Commercial License) Copyright 2022 Fonticons, Inc.--><path d="M256 32c0-17.67 14.3-32 32-32s32 14.33 32 32-14.3 32-32 32-32-14.33-32-32zm-81.1 142.9c62.4-62.5 163.8-62.5 226.2 0 62.5 62.4 62.5 163.8 0 226.2-62.4 62.5-163.8 62.5-226.2 0-62.5-62.4-62.5-163.8 0-226.2zM304.1 271c10.2 9.4 10.2 24.6 0 33.1l-76.5 78.2c43.3 27.9 101.7 22.8 139.6-15.1 43.7-43.7 43.7-114.7 0-158.4s-114.7-43.7-158.4 0c-37.9 37.9-43 96.3-15.1 139.6L271 271c9.4-9.3 24.6-9.3 33.1 0zM576 288c0 17.7-14.3 32-32 32s-32-14.3-32-32 14.3-32 32-32 32 14.3 32 32zM0 288c0-17.7 14.33-32 32-32s32 14.3 32 32-14.33 32-32 32-32-14.3-32-32zM128 96c0 17.7-14.3 32-32 32-17.67 0-32-14.3-32-32 0-17.67 14.33-32 32-32 17.7 0 32 14.33 32 32zm320 0c0-17.67 14.3-32 32-32s32 14.33 32 32c0 17.7-14.3 32-32 32s-32-14.3-32-32zM128 480c0 17.7-14.3 32-32 32-17.67 0-32-14.3-32-32s14.33-32 32-32c17.7 0 32 14.3 32 32zm320 0c0-17.7 14.3-32 32-32s32 14.3 32 32-14.3 32-32 32-32-14.3-32-32z"/></svg>