<svg xmlns="http://www.w3.org/2000/svg" viewBox="0 0 576 512"><!--! Font Awesome Pro 6.1.1 by @fontawesome - https://fontawesome.com License - https://fontawesome.com/license (Commercial License) Copyright 2022 Fonticons, Inc.--><path d="M256 32c0-17.67 14.3-32 32-32s32 14.33 32 32-14.3 32-32 32-32-14.33-32-32zm32 96c88.4 0 160 71.6 160 160s-71.6 160-160 160-160-71.6-160-160 71.6-160 160-160zm112 160c0-61.9-50.1-112-112-112-53.6 0-98.4 37.7-109.4 88H288c13.3 0 24 10.7 24 24s-10.7 24-24 24H178.6c11 50.3 55.8 88 109.4 88 61.9 0 112-50.1 112-112zm176 0c0 17.7-14.3 32-32 32s-32-14.3-32-32 14.3-32 32-32 32 14.3 32 32zM0 288c0-17.7 14.33-32 32-32s32 14.3 32 32-14.33 32-32 32-32-14.3-32-32zM128 96c0 17.7-14.3 32-32 32-17.67 0-32-14.3-32-32 0-17.67 14.33-32 32-32 17.7 0 32 14.33 32 32zm320 0c0-17.67 14.3-32 32-32s32 14.33 32 32c0 17.7-14.3 32-32 32s-32-14.3-32-32zM128 480c0 17.7-14.3 32-32 32-17.67 0-32-14.3-32-32s14.33-32 32-32c17.7 0 32 14.3 32 32zm320 0c0-17.7 14.3-32 32-32s32 14.3 32 32-14.3 32-32 32-32-14.3-32-32z"/></svg>