<svg xmlns="http://www.w3.org/2000/svg" viewBox="0 0 576 512"><!--! Font Awesome Pro 6.1.1 by @fontawesome - https://fontawesome.com License - https://fontawesome.com/license (Commercial License) Copyright 2022 Fonticons, Inc.--><path d="M256 32c0-17.67 14.3-32 32-32s32 14.33 32 32-14.3 32-32 32-32-14.33-32-32zm32 416c-88.4 0-160-71.6-160-160s71.6-160 160-160 160 71.6 160 160-71.6 160-160 160zm-24-160c0-13.3 10.7-24 24-24h109.4c-11-50.3-55.8-88-109.4-88-61.9 0-112 50.1-112 112s50.1 112 112 112c53.6 0 98.4-37.7 109.4-88H288c-13.3 0-24-10.7-24-24zm312 0c0 17.7-14.3 32-32 32s-32-14.3-32-32 14.3-32 32-32 32 14.3 32 32zM0 288c0-17.7 14.33-32 32-32s32 14.3 32 32-14.33 32-32 32-32-14.3-32-32zM128 96c0 17.7-14.3 32-32 32-17.67 0-32-14.3-32-32 0-17.67 14.33-32 32-32 17.7 0 32 14.33 32 32zm320 0c0-17.67 14.3-32 32-32s32 14.33 32 32c0 17.7-14.3 32-32 32s-32-14.3-32-32zM128 480c0 17.7-14.3 32-32 32-17.67 0-32-14.3-32-32s14.33-32 32-32c17.7 0 32 14.3 32 32zm320 0c0-17.7 14.3-32 32-32s32 14.3 32 32-14.3 32-32 32-32-14.3-32-32z"/></svg>