<svg xmlns="http://www.w3.org/2000/svg" viewBox="0 0 576 512"><!--! Font Awesome Pro 6.1.1 by @fontawesome - https://fontawesome.com License - https://fontawesome.com/license (Commercial License) Copyright 2022 Fonticons, Inc.--><path d="M256 32c0-17.67 14.3-32 32-32s32 14.33 32 32-14.3 32-32 32-32-14.33-32-32zm-81.1 369.1c-62.5-62.4-62.5-163.8 0-226.2 62.4-62.5 163.8-62.5 226.2 0 62.5 62.4 62.5 163.8 0 226.2-62.4 62.5-163.8 62.5-226.2 0zM271 271c9.4-9.3 24.6-9.3 33.1 0l78.2 77.4c27.9-43.3 22.8-101.7-15.1-139.6-43.7-43.7-114.7-43.7-158.4 0s-43.7 114.7 0 158.4c37.9 37.9 96.2 43 139.6 15.1L271 304.1c-9.3-8.5-9.3-23.7 0-33.1zm305 17c0 17.7-14.3 32-32 32s-32-14.3-32-32 14.3-32 32-32 32 14.3 32 32zM0 288c0-17.7 14.33-32 32-32s32 14.3 32 32-14.33 32-32 32-32-14.3-32-32zM128 96c0 17.7-14.3 32-32 32-17.67 0-32-14.3-32-32 0-17.67 14.33-32 32-32 17.7 0 32 14.33 32 32zm320 0c0-17.67 14.3-32 32-32s32 14.33 32 32c0 17.7-14.3 32-32 32s-32-14.3-32-32zM128 480c0 17.7-14.3 32-32 32-17.67 0-32-14.3-32-32s14.33-32 32-32c17.7 0 32 14.3 32 32zm320 0c0-17.7 14.3-32 32-32s32 14.3 32 32-14.3 32-32 32-32-14.3-32-32z"/></svg>