<svg xmlns="http://www.w3.org/2000/svg" viewBox="0 0 512 512"><!--! Font Awesome Pro 6.1.1 by @fontawesome - https://fontawesome.com License - https://fontawesome.com/license (Commercial License) Copyright 2022 Fonticons, Inc.--><path d="M508.6 185.2 452.73 73.5a32.73 32.73 0 0 0-14.25-14.25L326.78 3.38C322.4 1.125 317.4 0 312.5 0h-113c-4.9 0-9.9 1.125-14.3 3.375L73.5 59.25A32.808 32.808 0 0 0 59.25 73.5L3.375 185.2C1.125 189.6 0 194.6 0 199.5v113c0 4.875 1.125 9.75 3.375 14.25l55.87 111.7a32.73 32.73 0 0 0 14.25 14.25l111.7 55.87C189.6 510.9 194.6 512 199.5 512h113c4.875 0 9.75-1.125 14.25-3.375l111.7-55.87a32.73 32.73 0 0 0 14.25-14.25l55.87-111.7C510.9 322.2 512 317.4 512 312.5v-113c0-4.9-1.1-9.7-3.4-14.3zm-53.6.2-78.13 104.2L280 241.1v-93.5l140.8-28.12-1-4.625L455 185.4zM300.5 464h-89l-53-132.4 97.5-48.7 97.5 48.75-53 132.35zM203.4 48h105.3L373 80.12 256 103.5 139 80.12 203.4 48zM92.25 114.9l-1 4.625L232 147.6v93.5l-96.9 48.5L57 185.4l35.25-70.5zM48 308.6v-55.25l58.88 78.5 42 104.9-49.13-24.55L48 308.6zm364.2 103.6-49.12 24.5 42-104.9L464 253.4v55.25L412.2 412.2z"/></svg>