<svg xmlns="http://www.w3.org/2000/svg" viewBox="0 0 640 512"><!--! Font Awesome Pro 6.1.1 by @fontawesome - https://fontawesome.com License - https://fontawesome.com/license (Commercial License) Copyright 2022 Fonticons, Inc.--><path d="M575.1 192H472.9c3.551 10.11 5.748 20.73 5.748 31.77 0 25.64-9.984 49.75-28.12 67.89L320 423.2v24.84c0 35.26 28.7 63.96 63.1 63.96h191.1c35.35 0 63.1-28.65 63.1-63.1V257.8c1.8-37.1-26-65.8-62.2-65.8zm-96 184c-13.25 0-23.1-10.75-23.1-23.1 0-13.26 10.75-23.1 23.1-23.1s23.1 10.74 23.1 23.1c.9 12.4-8.9 23.1-23.1 23.1zm-31.6-152.2c0-16.38-6.249-32.76-18.75-45.26L269 18.73C256.5 6.238 240.3 0 223.1 0S191 6.238 178.5 18.73L18.7 178.53C6.235 191-.001 207.6-.001 223.1s6.236 32.57 18.73 45.06l159.8 159.8c12.5 12.5 28.88 18.74 45.26 18.74s32.76-6.248 45.25-18.74l159.8-159.8C441.3 256.5 447.5 240.1 447.5 223.8zm-52.6 11.3L235.1 394.9c-4.076 4.076-8.838 4.686-11.31 4.686-2.477 0-7.238-.61-11.31-4.686L52.67 235.1c-4.08-4.1-4.68-8.9-4.68-11.3s.607-7.236 4.686-11.31l159.8-159.8c4.082-4.08 8.844-4.689 11.32-4.689s7.234.61 11.31 4.687l159.8 159.8c4.078 4.078 4.687 8.84 4.687 11.31S398.9 231 394.9 235.1zm-171.1 66.5c-12.79 0-23.1 10.29-23.1 23.1 0 13.76 11.25 23.1 23.1 23.1 13.73 0 24-11.22 24-23.1 0-11.9-10.3-23.1-24-23.1zm0-101.8c-13.76 0-23.1 11.25-23.1 23.1 0 12.84 10.34 23.1 23.1 23.1 13.71 0 24-11.21 24-23.1 0-12.8-10.3-23.1-24-23.1zm-101.9 0c-13.76 0-24 11.25-24 23.1 0 12.79 10.29 23.1 24 23.1s23.1-11.2 23.1-23.1c.9-12.8-9.3-23.1-23.1-23.1zm203.7 0c-13.76 0-24 11.25-24 23.1 0 12.79 10.29 23.1 24 23.1s24-11.21 24-23.1c0-12.8-10.3-23.1-24-23.1zM223.8 97.94c-12.79 0-23.1 10.29-23.1 23.1 0 13.76 11.25 23.1 23.1 23.1 13.73 0 24-11.22 24-23.1 0-11.94-10.3-23.1-24-23.1z"/></svg>