<svg xmlns="http://www.w3.org/2000/svg" viewBox="0 0 512 512"><!--! Font Awesome Pro 6.1.1 by @fontawesome - https://fontawesome.com License - https://fontawesome.com/license (Commercial License) Copyright 2022 Fonticons, Inc.--><path d="M463.9 116.1 271.9 4.2C267 1.438 261.5 0 255.1 0s-10.1 1.438-15 4.25l-192 111.9C38.12 121.1 32 132.7 32 144.5v223c0 11.75 6.125 22.48 16.12 28.36l192 111.9C245 510.6 250.5 512 256 512s11-1.438 15.88-4.25l192-111.9C473.9 390 480 379.3 480 367.5v-223c0-11.8-6.1-23.4-16.1-28.4zM256 87.85l72.5 96.14h-145L256 87.85zm0 251.45-68.2-108.2h136.5L256 339.3zm-110.9-84.8 63.38 99.51-83.38-19.38 20-80.13zm221.8 0 20 80.13-83.38 19.38 63.38-99.51zm16.6-77.3-70.38-93.39 106 61.76-35.62 31.63zm-255 0-35.62-31.6 106-61.76-70.38 93.36zm-24.3 42.7L80 317V198.4l24.2 21.5zM232 408.8v38.63l-110.2-64.26L232 408.8zm48 0 110.2-25.63L280 447.4v-38.6zM432 317l-24.25-97.14L432 198.4V317z"/></svg>