<svg xmlns="http://www.w3.org/2000/svg" viewBox="0 0 512 512"><!--! Font Awesome Pro 6.1.1 by @fontawesome - https://fontawesome.com License - https://fontawesome.com/license (Commercial License) Copyright 2022 Fonticons, Inc.--><path d="M512 282.6c0-7.59-2.683-15.19-8.118-21.32l-224.1-250.6C273.5 3.5 264.8 0 256 0s-17.5 3.5-23.8 10.62L8.151 261.3C2.671 267.4 0 274.1 0 282.5c0 8.9 3.662 17.7 10.8 24L234.9 504c6 5.4 13.6 8 21.1 8 7.5 0 15.12-2.615 21.12-7.99l224.1-197.5C508.4 300.2 512 291.4 512 282.6zm-256 5.3-66.1-44.1 66.12-154.1 66.12 154.1L256 287.9zm-113.3-55.7-56.91 14.3 97.49-109.1-40.58 94.8zm12.8 46.3 76.5 51v108L74.6 298.8l80.9-20.3zm124.5 51 76.5-51 80.87 20.25-157.4 138.7V329.5zm89.4-97.3-40.62-94.87 97.49 109.1-56.87-14.23z"/></svg>