<svg xmlns="http://www.w3.org/2000/svg" viewBox="0 0 640 512"><!--! Font Awesome Pro 6.1.1 by @fontawesome - https://fontawesome.com License - https://fontawesome.com/license (Commercial License) Copyright 2022 Fonticons, Inc.--><path d="M539.3 144h-66.1c4.3-9.8 6.8-20.6 6.8-32 0-43.85-35.7-80-79.5-80-32.8 0-55 15.09-80.5 46.95C294.5 47.09 272.3 32 239.5 32c-43.8 0-79.5 36.15-79.5 80 0 11.4 2.506 22.19 6.844 32H96c-53.02 0-96 48.47-96 128s42.98 144 96 144l160-34.29v82.26c0 2.98.955 5.52 2.266 7.805.367.644.78 1.156 1.227 1.734a15.631 15.631 0 0 0 4.438 3.953c.508.3.902.676 1.438.922C267.5 479.4 269.7 480 272.1 480c.238 0 .477-.102.715-.117.344-.016.652-.117.996-.156 2.688-.297 5.38-1.121 7.826-2.957L320 447.1l38.4 28.78c2.445 1.836 5.139 2.66 7.826 2.957.344.04.652.14.996.156.278.907.478 1.007.678 1.007 2.35 0 4.592-.64 6.693-1.613.537-.246.935-.621 1.443-.926a15.621 15.621 0 0 0 4.439-3.953c.445-.578.853-1.086 1.219-1.727C383 469.5 384 466.1 384 463.1v-81.96L539.3 416c55.6 0 100.7-64.5 100.7-144s-45.1-128-100.7-128zM400.5 80.47c17.4 0 31.5 14.12 31.5 31.53s-14.11 31.53-31.53 31.53H332.6c40.6-60.46 52.2-63.06 67.9-63.06zm-161 0c15.69 0 27.27 2.6 67.86 63.06H239.5C222.1 143.5 208 129.4 208 112s14.1-31.53 31.5-31.53zm6.4 254.33L92.5 367.66C73.29 363.7 48 327.3 48 272c0-47.1 19.74-80 48-80h144.6l-.3-.5H256v141.1l-10.1 2.2zM543 367.7l-159-34.8V191.5h15.65l-.25.5h139.8c31.6 0 52.8 32.1 52.8 80 0 52.2-25.1 91.8-49 95.7z"/></svg>