<svg xmlns="http://www.w3.org/2000/svg" viewBox="0 0 512 512"><!--! Font Awesome Pro 6.1.1 by @fontawesome - https://fontawesome.com License - https://fontawesome.com/license (Commercial License) Copyright 2022 Fonticons, Inc.--><path d="m459.6 179.6-60.74-20.5c-9.748-3.25-16.87-9.875-18.1-17.62l-14.5-54c-6.874-25.5-27.62-45-55.74-52.5-30.87-7.1-63.12.25-84.24 21.62L183.6 99.25c-6.999 7.125-18.62 11-30.12 10.13l-65.11-5c-33.74-2.5-65.11 13.25-79.99 40.25-12.87 23.38-10.87 50.25 5.374 72l34.87 46.88c4.624 6.125 5.374 13.12 1.1 19.62l-25.62 50.88c-11.87 23.38-9.249 49.88 6.874 70.88 19.25 24.88 52.99 36.37 86.11 29.37l63.37-13.75c11.37-2.375 23.87 0 32.37 6.375l49.24 36.37c15.12 11 33.24 16.88 51.87 16.75 12.87 0 25.5-2.75 37.24-8 25.37-11.62 41.74-33.75 43.74-59.38l4.249-55.25c.5-7.375 5.999-14.38 14.62-18.75l56.24-28.38c27.25-13.75 42.89-39.65 40.89-67.52C509.7 213.1 489.7 189.8 459.6 179.6zm-10.3 87.8-56.24 28.38c-23.75 12-38.99 33.62-40.87 58l-4.249 55.12c-.875 11.37-11.37 17.37-15.75 19.37-10.25 4.75-26.1 6.5-40.74-3.5l-49.12-36.5c-14.75-10.87-33.24-16.62-51.99-16.62-6.374 0-12.75.625-18.1 2l-63.37 13.62c-16.1 3.75-31.5-3.25-37.99-11.75-4.874-6.375-5.624-13-2.125-19.88l25.75-50.87c11.37-22.5 8.999-49.38-6.374-70L52.28 187.9c-5-6.5-5.5-13.4-1.75-20.1 4.374-8 16.37-16.88 34.12-15.5l65.11 5c25.25 2 51.12-7.125 68.11-24.37l41.74-42.63c8.874-9 23.87-12.5 37.87-8.75 11.12 2.875 19.25 9.75 21.5 18.38l14.5 54c6.249 23.37 24.1 42.25 50.12 50.75l60.74 20.5c11.62 3.875 18.87 11.75 19.62 21 .64 8.42-4.76 16.22-14.66 21.22zM159.1 192c-17.62 0-31.1 14.37-31.1 31.1s14.4 32.9 31.1 32.9 31.1-14.37 31.1-31.1-12.6-32.9-31.1-32.9zm128 96c-17.62 0-31.1 14.37-31.1 31.1s14.38 31.1 31.1 31.1 31.1-14.37 31.1-31.1-12.6-31.1-31.1-31.1zm16-96c-8.874 0-15.1 7.124-15.1 15.1s7.126 15.1 15.1 15.1 15.1-7.124 15.1-15.1-5.3-15.1-15.1-15.1z"/></svg>