<svg xmlns="http://www.w3.org/2000/svg" viewBox="0 0 576 512"><!--! Font Awesome Pro 6.1.1 by @fontawesome - https://fontawesome.com License - https://fontawesome.com/license (Commercial License) Copyright 2022 Fonticons, Inc.--><path d="M512 0H64C28.65 0 0 28.65 0 64v288c0 35.35 28.65 64 64 64h148.3l-9.6 48H152c-13.2 0-24 10.8-24 24s10.8 24 24 24h272c13.25 0 24-10.75 24-24s-10.75-24-24-24h-50.73l-9.57-48H512c35.35 0 64-28.65 64-64V64c0-35.35-28.7-64-64-64zM251.7 464l9.6-48h53.46l9.6 48H251.7zM528 352c0 8.822-7.178 16-16 16H64c-8.822 0-16-7.178-16-16V64c0-8.822 7.178-16 16-16h448c8.822 0 16 7.178 16 16v288zM362.1 137.9c-7.812-7.812-20.47-7.812-28.28 0s-7.812 20.5 0 28.31l33.86 33.84-33.86 33.84c-7.812 7.812-7.812 20.5 0 28.31 3.98 3.9 9.08 5.8 14.18 5.8s10.23-1.938 14.14-5.844l48-48c7.812-7.812 7.812-20.5 0-28.31L362.1 137.9zm-120 0c-7.812-7.812-20.47-7.812-28.28 0l-48 48c-7.812 7.812-7.812 20.5 0 28.31l48 48C217.8 266.1 222.9 268 228 268s10.2-1.9 14.1-5.8c7.812-7.812 7.812-20.5 0-28.31L208.3 200l33.8-33.8c7-7.8 7-20.5 0-28.3z"/></svg>