<svg xmlns="http://www.w3.org/2000/svg" viewBox="0 0 640 512"><!--! Font Awesome Pro 6.1.1 by @fontawesome - https://fontawesome.com License - https://fontawesome.com/license (Commercial License) Copyright 2022 Fonticons, Inc.--><path d="m630.8 469.1-70.69-55.41C587.6 406.5 608 381.7 608 352V64c0-35.35-28.65-64-64-64H96C79.54 0 64.69 6.334 53.41 16.55L38.81 5.113C28.34-3.059 13.32-1.246 5.12 9.191-3.051 19.63-1.234 34.72 9.188 42.89L601.2 506.9c4.4 3.4 9.6 5.1 13.9 5.1 7.125 0 14.17-3.159 18.9-9.19 9.1-10.41 7.2-25.51-3.2-33.71zM560 352c0 8.822-7.178 16-16 16h-42.19L94.04 48.4c.67-.09 1.26-.4 1.96-.4h448c8.822 0 16 7.178 16 16v288zM455.1 464h-50.73l-8.67-48h12.31l-61.25-48H96c-8.822 0-16-7.178-16-16V158.9l-48-37.63V352c0 35.35 28.65 64 64 64h148.3l-9.6 48h-51.6c-13.25 0-24 10.75-24 24s10.75 24 24 24h271.1c13.25 0 24-10.75 24-24s-9-24-23.1-24zm-171.4 0 9.6-48h53.46l9.6 48H283.7z"/></svg>