<svg xmlns="http://www.w3.org/2000/svg" viewBox="0 0 448 512"><!--! Font Awesome Pro 6.1.1 by @fontawesome - https://fontawesome.com License - https://fontawesome.com/license (Commercial License) Copyright 2022 Fonticons, Inc.--><path d="M424 0c13.3 0 24 10.75 24 24v464c0 13.3-10.7 24-24 24s-24-10.7-24-24V24c0-13.25 10.7-24 24-24zM320 368c0 26.5-21.5 48-48 48h-96c-26.5 0-48-21.5-48-48V144c0-26.5 21.5-48 48-48h96c26.5 0 48 21.5 48 48v224zm-48 0V144h-96v224h96zM48 488c0 13.3-10.75 24-24 24S0 501.3 0 488V24C0 10.75 10.75 0 24 0s24 10.75 24 24v464z"/></svg>