<svg xmlns="http://www.w3.org/2000/svg" viewBox="0 0 576 512"><!--! Font Awesome Pro 6.1.1 by @fontawesome - https://fontawesome.com License - https://fontawesome.com/license (Commercial License) Copyright 2022 Fonticons, Inc.--><path d="M574.6 304c-4.391-12.5-18.11-19.06-30.59-14.69l-16.29 5.725-70.73-188.6c-4.969-13.28-14.81-23.83-27.72-29.69-12.89-5.875-27.34-6.391-40.58-1.375l-194.8 73.06L150.8 16.55C147.6 6.672 138.4 0 127.1 0H24C10.75 0 0 10.75 0 24s10.75 24 24 24h86.59l93.8 287.3C177.8 352.3 160 382 160 416c0 53.02 42.98 96 96 96s96-42.98 96-96c0-2.744-.584-5.326-.81-8.012l208.8-73.35C572.5 330.2 579 316.5 574.6 304zM256 464c-26.47 0-48-21.53-48-48s21.53-48 48-48 48 21.53 48 48-21.5 48-48 48zm79.7-101.4C318.5 336.9 289.2 320 256 320c-2.023 0-3.917.473-5.909.596L208.8 194.1l89.75-33.65 26.98 71.96C329.1 242.1 338.3 248 348 248c2.797 0 5.656-.484 8.422-1.531 12.42-4.656 18.7-18.48 14.05-30.89L343.5 143.6l62.1-23.28c2.203-.797 5.641.719 6.484 2.953l70.4 187.7L335.7 362.6z"/></svg>