<svg xmlns="http://www.w3.org/2000/svg" viewBox="0 0 512 512"><!--! Font Awesome Pro 6.1.1 by @fontawesome - https://fontawesome.com License - https://fontawesome.com/license (Commercial License) Copyright 2022 Fonticons, Inc.--><path d="m434.1 138.8-4.7-4c9.318-19.63 23.7-42.8 42.81-68.99 10.8-14.93 10.46-33.99-.861-48.59C462.7 6.119 450.2 0 435.1 0c-2.523 0-5.094.197-7.699.602-41.18 6.473-80.86 18.58-118 36.01C278.4 14.77 249.2 1.166 206.1.32c-85.27 1.752-157.3 60.3-171.6 139.2-4.34 23.48-3.31 47.18 2.96 70.58l-12.67 8.445C4.256 232.2-4.727 257.2 2.438 280.7c7.197 23.84 28.17 39.26 53.42 39.26h336.1c13.24 0 24.01-10.77 24.01-24s-10.77-24-24.01-24H55.85c-4.912 0-6.768-2.783-7.459-5.117-.611-1.943-1.021-5.643 3.029-8.343 44.37-29.6 36.74-24.5 43.89-29.2-10.04-25.8-19.78-47.4-13.64-81.2 10.03-55.26 63.49-98.16 124.4-99.79 28.89.666 45.37 4.709 99.84 44.16 36.65-18.77 68.93-33.29 118.6-42.54-40.29 57.64-48.2 87.63-52.41 98.97 51.64 44.19 91.88 71.78 91.88 147.1 0 71.84-60.29 103.1-120 103.1H293l-28.8-44.41c-9.254-12.42-23.91-19.58-39.51-19.58H163.9c-13.96 0-26.4 7.514-32.45 19.61-5.746 11.49-4.494 25.03 3.268 35.33l24.78 33.06-24.76 33.02c-7.756 10.38-8.986 23.94-3.215 35.4C137.6 504.5 149.1 512 163.9 512h60.74c15.84 0 30.36-7.303 39.84-20.04L292.1 448h50.96C441.3 448 512 384.1 512 296c0-91.8-52.6-136-77.9-157.2zm-209 325.8-35.72-.412L219.5 424l-29.98-39.1h35.15c.297.053.606.06.745.06.098 0-.035.025 0 0L251.3 424l-26.2 40.6zM135.9 160c0 13.26 10.75 24 24.01 24s23.99-10.7 23.99-24-10.75-24-24.01-24-23.99 10.7-23.99 24z"/></svg>