<svg xmlns="http://www.w3.org/2000/svg" viewBox="0 0 384 512"><!--! Font Awesome Pro 6.1.1 by @fontawesome - https://fontawesome.com License - https://fontawesome.com/license (Commercial License) Copyright 2022 Fonticons, Inc.--><path d="M320 56v8h8c13.3 0 24 10.75 24 24 0 13.3-10.7 24-24 24h-8v280c0 13.3-10.7 24-24 24s-24-10.7-24-24v-4.1c-21.9 17.6-49.7 28.1-80 28.1-70.7 0-128-57.3-128-128s57.3-128 128-128c30.3 0 58.1 10.5 80 28.1V112h-56c-13.3 0-24-10.7-24-24 0-13.25 10.7-24 24-24h56v-8c0-13.25 10.7-24 24-24s24 10.75 24 24zm-48 232c0-44.2-35.8-80-80-80s-80 35.8-80 80 35.8 80 80 80 80-35.8 80-80zm88 160c13.3 0 24 10.7 24 24s-10.7 24-24 24H24c-13.25 0-24-10.7-24-24s10.75-24 24-24h336z"/></svg>