<svg xmlns="http://www.w3.org/2000/svg" viewBox="0 0 512 512"><!--! Font Awesome Pro 6.1.1 by @fontawesome - https://fontawesome.com License - https://fontawesome.com/license (Commercial License) Copyright 2022 Fonticons, Inc.--><path d="M512 208v96c0 88.4-114.6 160-256 160S0 392.4 0 304v-96C0 119.6 114.6 48 256 48s256 71.6 256 160zm-142.8-70.1c-.8 1.9-2.1 4-2.1 6.1 0 2.1 1.3 4.2 2.1 6.1.8 2 2 3.7 3.5 5.2l32 32c3 3 7.1 4.7 11.3 4.7 4.2 0 8.3-1.7 11.3-4.7s4.7-7.1 4.7-11.3c0-4.2-1.7-8.3-4.7-11.3l-32-32c-1.5-1.5-3.2-3.6-5.2-3.5-1.9-.8-4-2.1-6.1-2.1-2.1 0-4.2 1.3-6.1 2.1-2 .8-3.7 2-5.2 3.5s-2.7 3.2-3.5 5.2zm0 96c-.8 1.9-2.1 4-2.1 6.1 0 2.1 1.3 4.2 2.1 6.1.8 2 2 3.7 3.5 5.2l32 32c3 3 7.1 4.7 11.3 4.7 4.2 0 8.3-1.7 11.3-4.7s4.7-7.1 4.7-11.3c0-4.2-1.7-8.3-4.7-11.3l-32-32c-1.5-1.5-3.2-3.6-5.2-3.5-1.9-.8-4-2.1-6.1-2.1-2.1 0-4.2 1.3-6.1 2.1-2 .8-3.7 2-5.2 3.5s-2.7 3.2-3.5 5.2zm-34.4 44.2c.8-1.9 1.2-4 1.2-6.1 0-2.1-.4-4.2-1.2-6.1-1.7-2-2-3.7-3.5-5.2s-3.2-2.7-5.2-3.5c-1.9-.8-4-2.1-6.1-2.1-2.1 0-4.2 1.3-6.1 2.1-2 .8-3.7 2-5.2 3.5l-32 32c-1.5 1.5-2.7 3.2-3.5 5.2-.8 1.9-2.1 4-2.1 6.1 0 2.1 1.3 4.2 2.1 6.1.8 2 2 3.7 3.5 5.2s3.2 1.8 5.2 3.5c1.9.8 4 1.2 6.1 1.2 2.1 0 4.2-.4 6.1-1.2 2-1.7 3.7-2 5.2-3.5l32-32c1.5-1.5 1.8-3.2 3.5-5.2zm-93.6-172.2c-.8 1.9-2.1 4-2.1 6.1 0 2.1 1.3 4.2 2.1 6.1.8 2 2 3.7 3.5 5.2s3.2 1.8 5.2 3.5c1.9.8 4 1.2 6.1 1.2 2.1 0 4.2-.4 6.1-1.2 2-1.7 3.7-2 5.2-3.5l16-16c3-3 4.7-7.1 4.7-11.3 0-4.25-1.7-8.32-4.7-11.33-3-3-7.1-4.69-11.3-4.69-4.2 0-8.3 1.69-11.3 4.69l-16 16.03c-1.5 1.5-2.7 3.2-3.5 5.2zM192 192c0 18.2 27.5 32 64 32s64-13.8 64-32-27.5-32-64-32-64 13.8-64 32zm-1.2 102.1c.8-1.9 1.2-4 1.2-6.1 0-2.1-.4-4.2-1.2-6.1-.8-2-2-3.7-3.5-5.2l-32-32c-3-3-7.1-5.6-11.3-5.6-4.2 0-8.3 2.6-11.3 5.6-3 3-5.6 7.1-5.6 11.3 0 4.2 2.6 8.3 5.6 11.3l32 32c1.5 1.5 3.2 2.7 5.2 3.5 1.9.8 4 1.2 6.1 1.2 2.1 0 4.2-.4 6.1-1.2 2-.8 3.7-2 5.2-3.5s2.7-3.2 3.5-5.2zM111.1 144c0 4.2 2.6 8.3 5.6 11.3 3 3 7.1 4.7 11.3 4.7 4.2 0 8.3-1.7 11.3-4.7l32-32c3-3 4.7-7.1 4.7-11.3 0-4.2-1.7-8.3-4.7-11.3-3-3.03-7.1-4.72-11.3-4.72-4.2 0-8.3 1.69-11.3 4.72l-32 32c-3 3-5.6 7.1-5.6 11.3zm-58.41 52.7c-3 3-4.69 7.1-4.69 11.3 0 4.2 1.69 8.3 4.69 11.3 3 3 7.07 4.7 11.31 4.7h32c4.2 0 8.3-1.7 11.3-4.7s4.7-7.1 4.7-11.3c0-4.2-1.7-8.3-4.7-11.3S100.2 192 96 192H64c-4.24 0-8.31 1.7-11.31 4.7zM464 290.3c-8.5 5-15.5 12-20.4 20.5a94.97 94.97 0 0 1-37.3 29.1c-14.6 6.4-30.6 8.2-46.6 7.7-17.8-.1-35.4 3.3-51.9 10.2-33.2 13.6-70.4 13.6-103.6 0-16.5-6.9-34.1-10.3-51.9-10.2-16 .5-32-1.3-46.6-7.7-15.6-6.4-27.51-16.4-37.28-29.1-4.94-8.5-11.97-15.5-20.42-20.5V304c0 52.1 85.4 112 208 112s208-59.9 208-112v-13.7z"/></svg>