<svg xmlns="http://www.w3.org/2000/svg" viewBox="0 0 512 512"><!--! Font Awesome Pro 6.1.1 by @fontawesome - https://fontawesome.com License - https://fontawesome.com/license (Commercial License) Copyright 2022 Fonticons, Inc.--><path d="M368 160.3c0 8.751 7.25 16 16 16s16.01-7.427 16.01-16.18c0-8.876-7.259-16.01-16.01-16.01-8.9-.01-16 7.29-16 16.19zm15.1-96.32c-46.25 0-84.73 32.81-93.86 76.44-29-36.63-49.01-79.75-56.26-126.5C231.7.655 215.1-5.145 206.1 5.481c-25.12 29.63-44.35 65.17-55.1 105.2-1.6 5.719-2.4 11.619-3.4 17.519-25.38-24.38-46.4-53.53-60.65-86.4-5.5-12.5-23.34-13.04-29.21-.663C41.64 75.22 32.57 113.1 31.94 153.1c-1.25 96.13 54.81 163.2 95.93 199.4L13.77 391c-12.13 3.25-17.63 18.25-10.75 29.25 19.75 32.38 68.84 87.02 174.7 91.64 13.5.625 17.66-4.632 25.29-9.383l76.38-54.13h40.63c88.38 0 159.1-71.77 159.1-160.3l-.002-128.2 32-95.95-128.018.053zM197.4 123c2.625-9.751 5.875-19.13 9.625-28.25 15.88 38.5 39.88 73.01 69.25 102.5-30.12-6.876-58.5-18.25-84-34.13C192.6 149.4 194 135.9 197.4 123zM432 152.2v136.1c0 61.76-50.25 111.6-112 111.6h-55.88l-89.38 63.76c-52.38-3.375-86-21.38-107-40.25l154-52.01c-55.88-46.5-143.1-110.3-141.8-217.6.125-9.001.75-17 1.875-25.75 92.75 121.1 238.1 128 254.1 128V160.3c0-26.63 21.5-48.13 48-48.13h61.38L432 152.2z"/></svg>