<svg xmlns="http://www.w3.org/2000/svg" viewBox="0 0 512 512"><!--! Font Awesome Pro 6.1.1 by @fontawesome - https://fontawesome.com License - https://fontawesome.com/license (Commercial License) Copyright 2022 Fonticons, Inc.--><path d="M448 304h-53.5l-48 48H448c8.822 0 16 7.178 16 16v80c0 8.822-7.178 16-16 16H64c-8.822 0-16-7.178-16-16v-80c0-8.8 7.18-16 16-16h101.5l-48-48H64c-35.35 0-64 28.65-64 64v80c0 35.35 28.65 64 64 64h384c35.35 0 64-28.65 64-64v-80c0-35.3-28.7-64-64-64zm-16 104c0-13.26-10.75-24-24-24s-24 10.7-24 24c0 13.25 10.75 24 24 24s24-10.7 24-24zm-193-39.9c4.7 5.6 10.8 7.9 17 7.9s12.28-2.344 16.97-7.031l136-136c9.375-9.375 9.375-24.56 0-33.94s-24.56-9.375-33.94 0L280 294.1V24c0-13.25-10.7-24-24-24s-24 10.75-24 24v270.1L136.1 199c-9.375-9.375-24.56-9.375-33.94 0s-9.375 24.56 0 33.94L239 368.1z"/></svg>