<svg xmlns="http://www.w3.org/2000/svg" viewBox="0 0 448 512"><!--! Font Awesome Pro 6.1.1 by @fontawesome - https://fontawesome.com License - https://fontawesome.com/license (Commercial License) Copyright 2022 Fonticons, Inc.--><path d="m188.1 367.9-127.98-144c-12.55-14.1-15.65-34.3-7.91-51.6C59.96 155.1 77.1 144 96 144h48V88c0-30.93 25.1-56 56-56h48c30.9 0 56 25.07 56 56v56h48c18.9 0 36 11.1 43.8 28.3 7.7 17.3 4.6 37.5-7.9 51.6l-128 144c-9.1 10.2-22.2 16.1-35.9 16.1s-26.8-5.9-35.9-16.1zM352 192h-96V88c0-4.42-3.6-8-8-8h-48c-4.4 0-8 3.58-8 8v104H96l128 144 128-144zM0 448c0-17.7 14.33-32 32-32s32 14.3 32 32-14.33 32-32 32-32-14.3-32-32zm160 0c0 17.7-14.3 32-32 32s-32-14.3-32-32 14.3-32 32-32 32 14.3 32 32zm32 0c0-17.7 14.3-32 32-32s32 14.3 32 32-14.3 32-32 32-32-14.3-32-32zm160 0c0 17.7-14.3 32-32 32s-32-14.3-32-32 14.3-32 32-32 32 14.3 32 32zm32 0c0-17.7 14.3-32 32-32s32 14.3 32 32-14.3 32-32 32-32-14.3-32-32z"/></svg>