<svg xmlns="http://www.w3.org/2000/svg" viewBox="0 0 512 512"><!--! Font Awesome Pro 6.1.1 by @fontawesome - https://fontawesome.com License - https://fontawesome.com/license (Commercial License) Copyright 2022 Fonticons, Inc.--><path d="M488.1 23.03c-9.375-9.375-24.56-9.375-33.94 0l-81.38 81.38-47.03-47.03a31.986 31.986 0 0 0-22.63-9.35 32.33 32.33 0 0 0-12.24 2.413 31.985 31.985 0 0 0-19.75 29.56v135.1c0 13.25 10.74 23.1 24 23.1h136c12.94 0 24.63-7.797 29.56-19.75a31.952 31.952 0 0 0-6.938-34.87l-47.04-47.03 81.38-81.38C498.3 47.59 498.3 32.41 488.1 23.03zM215.1 272h-136c-12.94 0-24.63 7.797-29.56 19.75-4.07 11.95-1.32 25.75 7.83 34.85l47.04 47.03-81.38 81.38c-9.375 9.375-9.375 24.56 0 33.94s24.56 9.375 33.94 0l81.38-81.38 47.03 47.03a31.986 31.986 0 0 0 22.63 9.367c4.117 0 8.279-.809 12.25-2.43a31.985 31.985 0 0 0 19.75-29.56V296c-.91-13.3-10.71-24-24.91-24z"/></svg>