<svg xmlns="http://www.w3.org/2000/svg" viewBox="0 0 448 512"><!--! Font Awesome Pro 6.1.1 by @fontawesome - https://fontawesome.com License - https://fontawesome.com/license (Commercial License) Copyright 2022 Fonticons, Inc.--><path d="M352 512H96c-53.02 0-96-43-96-96v-72c0-13.3 10.75-24 24-24 13.26 0 24 10.7 24 24v72c0 26.4 21.6 48 48 48h256c26.4 0 48-21.6 48-48v-72c0-13.3 10.7-24 24-24s24 10.7 24 24v72c0 53-43 96-96 96zM206.1 367.9 72.44 215.5c-5.53-6.2-8.44-14.2-8.44-22.2 0-4.7.97-9.5 2.97-13.9 5.31-11.8 16.97-19.4 29.72-19.4H152V40c0-22.06 17.9-40 40-40h64c22.1 0 40 17.94 40 40v120h55.3c12.8 0 24.4 7.6 29.7 19.4 5.4 12.1 3.3 26.3-5.4 36.1L241.9 367.9c-4.5 5.2-11 8.1-17.9 8.1-6.9 0-13.4-2.9-17.9-8.1zm17.9-52.1L318 208h-70V48h-48v160h-70.9L224 315.8z"/></svg>