<svg xmlns="http://www.w3.org/2000/svg" viewBox="0 0 384 512"><!--! Font Awesome Pro 6.1.1 by @fontawesome - https://fontawesome.com License - https://fontawesome.com/license (Commercial License) Copyright 2022 Fonticons, Inc.--><path d="m290.7 112 45.28 45.25L179.3 313.9l70.1 70.1H63.1V198.6l70.06 70.05L290.7 112c0-.9 0 0 0 0zm0-48c-12.28 0-24.57 4.684-33.94 14.06L134.1 200.8l-63.48-63.4c-6.12-6.2-14.29-10.3-22.61-10.3-4.131 0-8.295.809-12.26 2.48C23.8 135.4 15.1 147.1 15.1 160v240c0 17.7 15.23 32 32 32h240c12.94 0 24.61-7.781 29.56-19.75s2.219-25.72-6.938-34.88L247.2 313.9l122.7-122.8c18.74-18.74 18.75-49.14 0-67.88l-45.25-45.25C315.3 68.68 303 64 290.7 64z"/></svg>