<svg xmlns="http://www.w3.org/2000/svg" viewBox="0 0 448 512"><!--! Font Awesome Pro 6.1.1 by @fontawesome - https://fontawesome.com License - https://fontawesome.com/license (Commercial License) Copyright 2022 Fonticons, Inc.--><path d="m188.1 463.9-127.98-144c-12.55-14.1-15.65-34.3-7.91-51.6 7.75-17.2 24.89-29.2 42.89-29.2h48v-56c0-30 26-56 56-56H248c30.9 0 56 26 56 56v56h48c18.9 0 36 12 43.8 29.2 7.7 17.3 4.6 37.5-7.9 51.6l-128 144c-9.1 10.2-22.2 16.1-36.8 16.1-12.8 0-25.9-5.9-35-16.1zM352 288h-96V184c0-4.4-3.6-8-8-8h-48.9c-3.5 0-8 3.6-8 8v104h-96l128 144L352 288zm96-224c0 17.67-14.3 32-32 32s-32-14.33-32-32 14.3-32 32-32 32 14.33 32 32zm-160 0c0-17.67 14.3-32 32-32s32 14.33 32 32-14.3 32-32 32-32-14.33-32-32zm-32 0c0 17.67-14.3 32-32 32s-32-14.33-32-32 14.3-32 32-32 32 14.33 32 32zM96 64c0-17.67 14.3-32 32-32s32 14.33 32 32-14.3 32-32 32-32-14.33-32-32zm-32 0c0 17.67-14.33 32-32 32S0 81.67 0 64s14.33-32 32-32 32 14.33 32 32z"/></svg>