<svg xmlns="http://www.w3.org/2000/svg" viewBox="0 0 384 512"><!--! Font Awesome Pro 6.1.1 by @fontawesome - https://fontawesome.com License - https://fontawesome.com/license (Commercial License) Copyright 2022 Fonticons, Inc.--><path d="m93.23 112 156.7 156.7 70.06-70.05V384h-185.4l70.06-70.05-156.7-156.7L93.23 112c.01-.9 0 0 0 0zm.02-48c-12.28 0-24.56 4.68-33.94 14.06L14.06 123.3c-18.75 18.75-18.74 49.14 0 67.88L136.8 313.9l-63.43 63.43a32.003 32.003 0 0 0-6.938 34.88C71.39 424.2 83.06 432 96 432h240c17.67 0 31.1-14.31 31.1-31.1L368 160c0-12.94-7.797-24.62-19.75-29.56a31.53 31.53 0 0 0-12.26-2.48c-8.313 0-16.48 3.281-22.61 9.418l-63.43 63.43L127.2 78.06A47.945 47.945 0 0 0 93.25 64z"/></svg>