<svg xmlns="http://www.w3.org/2000/svg" viewBox="0 0 640 512"><!--! Font Awesome Pro 6.1.1 by @fontawesome - https://fontawesome.com License - https://fontawesome.com/license (Commercial License) Copyright 2022 Fonticons, Inc.--><path d="m568.8 265.6-78.07-45.94c-6.609-3.312-10.72-10-10.72-17.5L479.1 192h10.66l17.89 16.47C518.5 218.5 531.8 224 545.1 224h28.09c19.92 0 38.51-11.56 47.57-29.94l12.8-27.47c8.905-18.03 6.984-39.22-5.031-55.38l-67.65-90.25C551.7 7.844 535.9 0 519.5 0H304.3c-12.67 0-23.98 7.562-28.82 19.25-4.88 11.72-2.18 25.09 8.52 35.69l24.9 20.31-18.8 7.81C279.6 88.44 273 99.13 273 110.1c0 11.81 6.546 22.5 19.44 28.94l43.59 16.62v48.66L200.3 106.8c-23.8-15.92-55.3-14.05-77 4.4L5.8 227.6C-6.561 238 2.437 258 18.43 255.8L192 224l-91.2 68.6c-10.13 10.2-3 27.4 11.2 27.4h240.2c8.688 21.67 20.39 42.05 35.52 59.97C219.6 391 80.49 421.8 31.48 432.7 13.23 436.7 0 453.1 0 471.9 0 494 17.98 512 40.07 512h464.3c72.24 0 131.7-54.06 135.4-123.1 2.73-51.6-25.07-99.9-70.97-123.3zM504.4 464H116.3c78.27-15.16 198.5-34.41 331.6-39l74.52-2.594-62.04-41.38c-47.78-31.84-76.29-85.16-76.29-142.6V123.5l-34.61-13.16 51.81-21.53L351.3 48h168.2c1.547 0 3.14.813 4.015 1.969l67.46 90c1.156 1.531 1.328 3.594.219 5.844l-12.8 27.47C577.6 174.9 575.9 176 574.1 176h-28.09c-1.312 0-2.593-.531-4.234-2.156L509.4 144h-77.33v58.19c0 25.81 14.3 48.97 35.82 59.66l78.69 46.31c29.73 14.91 47.1 44.88 45.34 78.19C589.6 429.2 550.4 464 504.4 464zm-1.9-354.4c11.62.625 21.37-7.25 24.12-18.25L480.8 80c-4.2 17.13 8.7 29 21.7 29.6z"/></svg>