<svg xmlns="http://www.w3.org/2000/svg" viewBox="0 0 448 512"><!--! Font Awesome Pro 6.1.1 by @fontawesome - https://fontawesome.com License - https://fontawesome.com/license (Commercial License) Copyright 2022 Fonticons, Inc.--><path d="M374.1 352.8c3.2-.5 6.5-.8 9.9-.8 35.3 0 64 28.7 64 64s-28.7 64-64 64c-26.9 0-49.9-16.5-59.3-40H123.3c-9.4 23.5-32.44 40-59.3 40-35.35 0-64-28.7-64-64 0-26.9 16.55-49.9 40-59.3V155.3C16.55 145.9 0 122.9 0 96c0-35.35 28.65-64 64-64 26.86 0 49.9 16.55 59.3 40h201.4c9.4-23.45 32.4-40 59.3-40 35.3 0 64 28.65 64 64 0 35.3-28.7 64-64 64-3.4 0-6.7-.3-9.9-.8l-35 58.3c8.1 10.7 12.9 24 12.9 38.5s-4.8 27.8-12.9 38.5l35 58.3zM64 80c-8.84 0-16 7.16-16 16 0 8.8 7.16 16 16 16s16-7.2 16-16c0-8.84-7.16-16-16-16zm24 276.7c16 6.4 28.9 18.4 35.3 35.3h201.4c2.1-5.2 4.8-10.1 8.2-14.5l-35-58.3c-3.2.5-6.5.8-9.9.8-35.3 0-64-28.7-64-64s28.7-64 64-64c3.4 0 6.7.3 9.9.8l35-58.3c-3.4-4.4-6.1-9.3-8.2-14.5H123.3c-6.4 16-19.3 28.9-35.3 35.3v201.4zM384 80c-8.8 0-16 7.16-16 16 0 8.8 7.2 16 16 16s16-7.2 16-16c0-8.84-7.2-16-16-16zM64 432c8.84 0 16-7.2 16-16s-7.16-16-16-16-16 7.2-16 16 7.16 16 16 16zm320-32c-8.8 0-16 7.2-16 16s7.2 16 16 16 16-7.2 16-16-7.2-16-16-16zm-96-128c8.8 0 16-7.2 16-16s-7.2-16-16-16-16 7.2-16 16 7.2 16 16 16z"/></svg>