<svg xmlns="http://www.w3.org/2000/svg" viewBox="0 0 448 512"><!--! Font Awesome Pro 6.1.1 by @fontawesome - https://fontawesome.com License - https://fontawesome.com/license (Commercial License) Copyright 2022 Fonticons, Inc.--><path d="M448 56c0-13.71-11.2-24-24-24a23.93 23.93 0 0 0-16.97 7.031l-112.3 112.3-77.52-77.63c-6.5-6.5-15.18-9.737-23.68-9.737-8.625 0-17.15 3.237-23.65 9.737L19.62 223.1C6.999 236.5 0 253.5 0 271.3v141.9C0 450.1 29.87 480 66.87 480h141.9c17.62 0 34.63-7.002 47.26-19.63l150.2-150.1c6.5-6.562 9.813-15.13 9.813-23.69 0-8.564-3.313-17.13-9.813-23.69l-77.57-77.57 112.3-112.3C445.7 68.28 448 62.14 448 56zM222.1 426.5c-3.6 3.6-8.3 5.5-13.3 5.5H66.88C56.5 432 48 423.5 48 413.1V271.3c0-5 1.1-9.75 5.5-13.25l53.25-53.25 168.5 168.5-53.15 53.2zm87.2-87.2L140.8 170.8l52.63-52.63 168.6 168.5-52.73 52.63z"/></svg>