<svg xmlns="http://www.w3.org/2000/svg" viewBox="0 0 512 512"><!--! Font Awesome Pro 6.1.1 by @fontawesome - https://fontawesome.com License - https://fontawesome.com/license (Commercial License) Copyright 2022 Fonticons, Inc.--><path d="M224 112c0 5.2-.3 10.3-1.9 15.2l-50.5-38.47C162.3 64.89 139.1 48 112 48c-35.35 0-64 28.65-64 64 0 27.1 16.89 50.3 40.73 59.6l38.47 50.5c-5 1.6-10 1.9-15.2 1.9C50.14 224 0 173.9 0 112 0 50.14 50.14 0 112 0c61.9 0 112 50.14 112 112zm-10.7 48h85.4l69.6-52.2c2-15.69 15.5-27.8 31.7-27.8 17.7 0 32 14.33 32 32 0 16.2-12.1 29.7-27.8 31.7L352 213.3v85.4l52.2 69.6c15.7 2 27.8 15.5 27.8 31.7 0 17.7-14.3 32-32 32-16.2 0-29.7-12.1-31.7-27.8L298.7 352h-85.4l-69.6 52.2c-2 15.7-15.5 27.8-31.7 27.8-17.67 0-32-14.3-32-32 0-16.2 12.11-29.7 27.8-31.7l52.2-69.6v-85.4l-52.2-69.6C92.11 141.7 80 128.2 80 112c0-17.67 14.33-32 32-32 16.2 0 29.7 12.11 31.7 27.8l69.6 52.2zm10.7 48c-8.8 0-16 7.2-16 16v64c0 8.8 7.2 16 16 16h64c8.8 0 16-7.2 16-16v-64c0-8.8-7.2-16-16-16h-64zm-1.9 176.8c1.6 5 1.9 10 1.9 15.2 0 61.9-50.1 112-112 112C50.14 512 0 461.9 0 400s50.14-112 112-112c5.2 0 10.3.4 15.2 1l-38.47 51.4C64.89 349.7 48 372.9 48 400c0 35.3 28.65 64 64 64 27.1 0 50.3-16.9 59.6-40.7l50.5-38.5zM400 0c61.9 0 112 50.14 112 112 0 61.9-50.1 112-112 112-5.2 0-10.2-.3-15.2-1.9l38.5-50.5c23.8-9.3 40.7-32.5 40.7-59.6 0-35.35-28.7-64-64-64-27.1 0-50.3 16.89-59.6 40.73L289 127.2c-.7-5-1-10-1-15.2C288 50.14 338.1 0 400 0zm-59.6 423.3c9.3 23.8 32.5 40.7 59.6 40.7 35.3 0 64-28.7 64-64 0-27.1-16.9-50.3-40.7-59.6L384.8 289c5-.7 10-1 15.2-1 61.9 0 112 50.1 112 112s-50.1 112-112 112-112-50.1-112-112c0-5.2.3-10.2 1-15.2l51.4 38.5z"/></svg>