<svg xmlns="http://www.w3.org/2000/svg" viewBox="0 0 640 512"><!--! Font Awesome Pro 6.1.1 by @fontawesome - https://fontawesome.com License - https://fontawesome.com/license (Commercial License) Copyright 2022 Fonticons, Inc.--><path d="M136 96c10.4 0 19.3 6.7 22.6 16H264c13.3 0 24 10.7 24 24s-10.7 24-24 24H24c-13.25 0-24-10.7-24-24s10.75-24 24-24h89.4c3.3-9.3 12.2-16 22.6-16zm368 0c10.5 0 19.3 6.7 22.6 16H616c13.3 0 24 10.7 24 24s-10.7 24-24 24H376c-13.3 0-24-10.7-24-24s10.7-24 24-24h105.4c3.3-9.3 12.1-16 22.6-16zM112 256v-64h48v49.6l10.8 5.7 47.6-27.8c30.9-18 65.9-27.5 101.6-27.5 35.7 0 70.7 9.5 101.6 27.5l47.6 27.8 10.8-5.7V192h48v64c0 8.9-4.9 17.1-12.8 21.2l-51.5 27.3 4.5 5.4c18 21.6 27.8 48.8 27.8 76.9v5.2c0 13.3-10.7 24-24 24s-24-10.7-24-24v-5.2c0-16.9-5.9-33.2-16.7-46.1l-11-13.2-41.1 21.7c-3.4 1.8-7.3 2.8-11.2 2.8h-96c-3.9 0-7.8-1-11.2-2.8l-41.1-21.7-11 13.2c-10.8 12.9-16.7 29.2-16.7 46.1v5.2c0 13.3-10.7 24-24 24s-24-10.7-24-24v-5.2c0-28.1 9.8-55.3 27.8-76.9l4.5-5.4-51.5-27.3c-7.9-4.1-12.8-12.3-12.8-21.2zm307.3 17.7-21.9-12.8A153.64 153.64 0 0 0 320 240c-27.2 0-53.9 7.2-77.4 20.9l-21.9 12.8 56.4 30.3H362l57.3-30.3z"/></svg>