<svg xmlns="http://www.w3.org/2000/svg" viewBox="0 0 384 512"><!--! Font Awesome Pro 6.1.1 by @fontawesome - https://fontawesome.com License - https://fontawesome.com/license (Commercial License) Copyright 2022 Fonticons, Inc.--><path d="M200 368c13.3 0 24 10.7 24 24s-10.7 24-24 24c-57.4 0-104-46.6-104-104.9 0-12.4 10.7-24 24-24s24 11.6 24 24c0 31.8 25.1 56.9 56 56.9zm168-48.9c0 98.1-78.8 176.9-176 176.9S16 417.2 16 319.1c0-73.2 102.3-229.67 150.9-299.8 12.3-17.715 37.9-17.715 50.2 0C265.7 89.43 368 245.9 368 319.1zm-61.4-49.8c-9.3-23.6-22.5-51.2-37.8-77.9-24.9-45-54-89.9-76.8-123.73-22.8 33.83-51.9 78.73-76.8 123.73-15.25 26.7-28.5 54.3-37.81 77.9C67.65 293.9 64 310.7 64 319.1 64 390.7 121.3 448 192 448s128-57.3 128-128.9c0-8.4-3.7-25.2-13.4-49.8z"/></svg>