<svg xmlns="http://www.w3.org/2000/svg" viewBox="0 0 640 512"><!--! Font Awesome Pro 6.1.1 by @fontawesome - https://fontawesome.com License - https://fontawesome.com/license (Commercial License) Copyright 2022 Fonticons, Inc.--><path d="M215.3 143.4c28.2-48.33 58.9-94.11 79.6-124.1 12.3-17.715 37.9-17.715 50.2 0C393.7 89.43 496 245.9 496 319.1c0 14.6-1.6 28-4.5 40.8l139.3 109.2c10.4 8.2 12.3 23.3 4.1 33.7-8.2 10.4-23.3 12.3-33.7 4.1L9.196 42.89C-1.236 34.71-3.065 19.63 5.112 9.196 13.29-1.236 28.37-3.065 38.81 5.112L215.3 143.4zm38.2 29.9 194.4 152.4c-.8-1.9.1-3.8.1-6.6 0-8.4-3.7-25.2-13.4-49.8-9.3-23.6-22.5-51.2-37.8-77.9-24.9-45-54-89.9-77.7-123.73-18.9 29.26-43.3 66.93-65.6 105.63zm17.6 137.8c0 31.8 26 56.9 56.9 56.9 13.3 0 24 10.7 24 24s-10.7 24-24 24c-57.4 0-104.9-46.6-104.9-104.9 0-11 9.6-20.9 21-22.8l27.8 22c-.8.5-.8 1.1-.8.8zm-80 8c0 71.6 58.2 128.9 128 128.9 33.7 0 63.6-12.3 86.3-32.6l38.1 30c-31.8 31.3-75.4 50.6-124.4 50.6-96.3 0-176-78.8-176-176.9 0-22.6 11.2-54.5 26-89.2l39.8 30.7c-1.2 2.9-2.4 5.8-3.5 8.7-9.7 24.6-14.3 41.4-14.3 49.8z"/></svg>