<svg xmlns="http://www.w3.org/2000/svg" viewBox="0 0 320 512"><!--! Font Awesome Pro 6.1.1 by @fontawesome - https://fontawesome.com License - https://fontawesome.com/license (Commercial License) Copyright 2022 Fonticons, Inc.--><path d="M186.6 51.36C182.969 38.59 171.52 32 160.03 32c-11.25 0-22.53 6.32-26.55 19.36C90.94 189.3 0 226.9 0 324.1 0 410.18 71.56 480 160 480s160-69.78 160-155.9c0-97.7-90.7-134.1-133.4-272.74zM160 432c-61.76 0-112-48.38-112-107.9 0-33.94 15.76-57.26 45.97-98.93 20.85-28.76 45.5-62.76 66.02-108.4 20.61 45.93 45.33 79.92 66.23 108.7C256.3 266.8 272 289.1 272 324.1c0 59.5-50.2 107.9-112 107.9zm-40-128c13.31 0 24-10.69 24-24s-10.7-24-24-24-24 10.7-24 24 10.7 24 24 24zm76.7-43.3-96 95.1c-6.25 6.25-6.25 16.37 0 22.62 3.1 3.98 7.2 4.68 11.3 4.68s8.188-1.562 11.31-4.688l96-95.1c6.25-6.25 6.25-16.37 0-22.62-6.21-6.292-16.41-6.292-22.61.008zM200 336c-13.31 0-24 10.69-24 24s10.7 24 24 24 24-10.7 24-24-10.7-24-24-24z"/></svg>