<svg xmlns="http://www.w3.org/2000/svg" viewBox="0 0 448 512"><!--! Font Awesome Pro 6.1.1 by @fontawesome - https://fontawesome.com License - https://fontawesome.com/license (Commercial License) Copyright 2022 Fonticons, Inc.--><path d="M368 32c-44.06 0-79.1 35.94-79.1 80s35 80 79.1 80 79.1-35.94 79.1-80-35-80-79.1-80zm0 112c-17.64 0-31.1-14.36-31.1-32s14.36-32 31.1-32 31.1 14.36 31.1 32-13.5 32-31.1 32zM159.1 32c-10.4 0-21.6 6.32-25.7 19.36C90.9 189.26 0 226.86 0 324.16 0 410.2 71.56 480 159.1 480s159.1-69.78 159.1-155.9c0-97.78-90.73-134.1-133.4-272.8-1.9-12.7-13.3-19.3-25.7-19.3zM272 324.1c0 59.5-50.2 107.9-112 107.9S48 383.61 48 324.1c0-33.94 15.76-57.27 45.97-98.93 20.85-28.76 45.5-62.75 66.02-108.4 20.61 45.93 45.33 79.92 66.23 108.7C256.3 266.8 272 289.1 272 324.1z"/></svg>