<svg xmlns="http://www.w3.org/2000/svg" viewBox="0 0 576 512"><!--! Font Awesome Pro 6.1.1 by @fontawesome - https://fontawesome.com License - https://fontawesome.com/license (Commercial License) Copyright 2022 Fonticons, Inc.--><path d="M288 32C129 32 0 89.25 0 160v192c0 70.75 129 128 288 128s288-57.25 288-128V160c0-70.75-129-128-288-128zm0 48c24.25 0 47.75 1.25 69.88 3.5l-11.5 44.62C341.9 145.8 315.6 160 288 160s-53.9-14.2-58.4-31.9l-11.5-44.6c22.1-2.25 45.7-3.5 69.9-3.5zm-58.4 95.5c15.5 10.4 37 16.5 58.4 16.5 21 0 41.5-5.875 57.63-16 2.875 21.75 11.5 42 24.75 59-25.78 3.2-53.38 5-82.38 5-29.38 0-57.25-1.875-83.25-5 13.15-17.4 22.05-37.6 24.85-59.5zm-55.1-86 13 46.12c9.9 34.78-3.4 70.48-30.3 91.38C91.5 212.8 48 188.1 48 160c0-30.5 51.25-57 126.5-70.5zM528 352c0 27.5-93.5 80-240 80S48 379.5 48 352V230.8C99.62 265.2 187.8 288 288 288s188.4-22.75 240-57.25V352zM418.1 227.1c-8.3-6.1-15.6-13.9-21.2-22.9-11.75-18.87-15.5-41.13-10.38-62.75l12.12-52.5C475.5 102.4 528 129.1 528 160c0 28.1-43.7 52.9-109.9 67.1z"/></svg>