<svg xmlns="http://www.w3.org/2000/svg" viewBox="0 0 512 512"><!--! Font Awesome Pro 6.1.1 by @fontawesome - https://fontawesome.com License - https://fontawesome.com/license (Commercial License) Copyright 2022 Fonticons, Inc.--><path d="M511.1 165.4c0-40.03-14.06-77.61-40.87-107.8C421.83 2.61 360.13-.03 341.93-.03c-45.19 0-88.72 17.86-120.9 49.71C195.4 76.13 160.2 119.3 160 189.2l.05 88.67-40.55 40.43c-6.024 6.103-13.93 8.918-22.11 8.918-13.76 0-18.3-7.244-37.06-7.244-19.8 0-38.89 9.78-50.32 27.19a59.626 59.626 0 0 0-9.99 33.09c0 22.44 16.85 59.58 59.13 59.58 4.923 0 9.876-.573 14.72-1.683a65.997 65.997 0 0 0-1.682 14.71c0 15.01 5.319 29.84 16.81 41.42 11.66 11.67 27.12 17.69 42.7 17.69 32.88 0 60.36-26.58 60.36-60.3 0-19.02-7.243-23.02-7.243-37.02 0-8.157 2.815-16.04 8.917-22.14l40.48-40.58 88.82-.05c38.76 0 72.77-10.12 104-31.12C480.8 284.9 511.1 226.2 511.1 165.4zm-46.5-1.2c0 61.18-52.3 139.7-141.6 139.7h-83.9c-17.67 0-32-14.33-32-32v-82.2c0-40.99 14.25-72.61 47.76-105.1 25.52-25.35 55.8-35.86 85.07-35.86 55.67-.9 124.67 41 124.67 115.46z"/></svg>