<svg xmlns="http://www.w3.org/2000/svg" viewBox="0 0 512 512"><!--! Font Awesome Pro 6.1.1 by @fontawesome - https://fontawesome.com License - https://fontawesome.com/license (Commercial License) Copyright 2022 Fonticons, Inc.--><path d="M471.2 57.62C422.9 2.74 361.3 0 343 0c-45.18 0-88.83 17.86-121 49.71-26.6 26.39-61.7 69.49-62 139.19l.06 88.93-40.56 40.47c-6.104 6.103-13.98 8.914-22.14 8.914-13.75 0-18.21-7.219-36.96-7.219-33.29 0-60.39 26.97-60.39 60.34 0 22.31 16.74 59.5 59.13 59.5a66 66 0 0 0 14.72-1.681 65.624 65.624 0 0 0-1.695 14.75c0 14.94 5.265 29.8 16.82 41.26A60.07 60.07 0 0 0 131.7 512c32.95 0 60.37-26.61 60.37-60.33 0-19.32-7.244-22.92-7.244-37.03 0-8.163 2.817-16.07 8.921-22.17l40.59-40.49 88.65-.064c17.13 0 34.25-2.375 50.76-7 7.906-2.08 17.72-9.92 17.72-23.04 0-14.05-15.03-22.75-15.03-56.05 0-31.12 22.64-81.6 81.04-81.6 17.38 0 23.13 4.202 30.54 4.202 17.55 0 23.1-15.73 23.1-23.85C511.1 117.4 492.1 81.09 471.2 57.62zM457 136.3c-34.1 0-66.8 13.42-91.04 37.54-24.69 24.68-37.5 57.93-37.5 91.9 0 9.712 1.047 19.48 3.161 29.13l-7.018 9.068H246.1c-24.66 0-39.03-14.4-39.03-32V189.7c0-40.99 14.25-72.61 47.76-105.1 25.52-25.35 55.82-35.86 85.11-35.86 36.99 0 72.36 16.77 94.41 41.61 12 13.37 20.5 29.5 25 46.87-.15-.92-1.25-.92-2.35-.92z"/></svg>