<svg xmlns="http://www.w3.org/2000/svg" viewBox="0 0 448 512"><!--! Font Awesome Pro 6.1.1 by @fontawesome - https://fontawesome.com License - https://fontawesome.com/license (Commercial License) Copyright 2022 Fonticons, Inc.--><path d="M368 0H80C35.82 0 0 35.82 0 80v368c0 35.35 28.65 64 64 64h320c35.35 0 64-28.65 64-64V80c0-44.18-35.8-80-80-80zm32 448c0 8.824-7.178 16-16 16H64c-8.822 0-16-7.176-16-16V80c0-17.64 14.36-32 32-32h288c17.64 0 32 14.36 32 32v368zM128.1 104c0-13.25-10.83-24-24.02-24-13.31 0-24.02 10.75-24.02 24s10.66 24 23.94 24c13.2 0 24.1-10.7 24.1-24zm56 24c13.19 0 23.89-10.75 23.89-24S197.2 80 184.1 80c-13.31 0-24.02 10.75-24.02 24s10.62 24 24.02 24zm39.9 32c-75.2 0-136.02 60.9-136.02 136S148.8 432 224 432s136-60.88 136-136-60.8-136-136-136zm-4.7 211.3c-3.1 3.1-7.2 4.7-11.3 4.7s-8.172-1.562-11.3-4.688l-6.703-6.688a65.541 65.541 0 0 1-12.31-75.78C184.2 275.9 181.6 260.3 171.4 250l-6.7-6.7c-6.3-6.2-6.3-17.2 0-22.6 6.25-6.25 16.38-6.25 22.62 0l6.703 6.688a65.541 65.541 0 0 1 12.31 75.78C199.8 316.1 202.4 331.8 212.6 342l6.688 6.688C225.6 354.9 225.6 365 219.3 371.3zm64 0c-3.1 3.1-7.2 4.7-11.3 4.7s-8.172-1.562-11.3-4.688l-6.703-6.688a65.541 65.541 0 0 1-12.31-75.78C248.2 275.9 245.6 260.3 235.4 250l-6.688-6.688c-6.266-6.219-6.266-16.34-.031-22.62 6.25-6.25 16.38-6.25 22.62 0l6.703 6.688a65.541 65.541 0 0 1 12.31 75.78A33.619 33.619 0 0 0 276.61 342l6.688 6.688C289.6 354.9 289.6 365 283.3 371.3z"/></svg>