<svg xmlns="http://www.w3.org/2000/svg" viewBox="0 0 448 512"><!--! Font Awesome Pro 6.1.1 by @fontawesome - https://fontawesome.com License - https://fontawesome.com/license (Commercial License) Copyright 2022 Fonticons, Inc.--><path d="M368 0H80C35.82 0 0 35.82 0 80v368c0 35.35 28.65 64 64 64h320c35.35 0 64-28.65 64-64V80c0-44.18-35.8-80-80-80zm32 448c0 8.824-7.178 16-16 16H64c-8.822 0-16-7.176-16-16V80c0-17.64 14.36-32 32-32h288c17.64 0 32 14.36 32 32v368zM128.1 104c0-13.25-10.83-24-24.02-24-13.31 0-24.02 10.75-24.02 24s10.66 24 23.94 24c13.2 0 24.1-10.7 24.1-24zm56 24c13.19 0 23.89-10.75 23.89-24S197.2 80 184.1 80c-13.31 0-24.02 10.75-24.02 24s10.62 24 24.02 24zm39.9 32c-75.2 0-136.02 60.9-136.02 136S148.8 432 224 432s136-60.88 136-136-60.8-136-136-136zm0 224c-40.16 0-73.74-27.18-84.27-64H176c13.25 0 24-10.75 24-24s-10.7-24-24-24h-36.3c10.6-36.8 44.1-64 84.3-64 48.53 0 88.02 39.48 88.02 88S272.5 384 224 384z"/></svg>