<svg xmlns="http://www.w3.org/2000/svg" viewBox="0 0 640 512"><!--! Font Awesome Pro 6.1.1 by @fontawesome - https://fontawesome.com License - https://fontawesome.com/license (Commercial License) Copyright 2022 Fonticons, Inc.--><path d="M496 240c61.9 0 112-50.1 112-112h-65.62c-.375-3.375-.5-6.625-1.25-10-9.25-40.5-41.1-73.63-82.62-83-9.01-2-17.91-3-26.51-3-61.87 0-111.1 50.13-111.1 112l-1.8 88h-58.9c-24.11 0-61.15-10.66-74.64-24.84-10.97-11.62-27.61-15.31-42.37-9.375C128.4 203.6 118.9 217.6 118.9 233.3c0 90.4 73.8 166.7 161 166.7 13.25 0 23.1-10.75 23.1-24s-9.9-24-23.1-24c-54.3 0-101.2-42.8-111-97.3 26.4 16.5 63.7 25.3 91.3 25.3H344c13.25 0 23.1-10.75 23.1-24l.043-112c0-35.25 28.75-64 63.1-64 5.25 0 10.5.625 15.75 1.875 22.75 5.125 41.37 24 46.5 46.75 7.875 35-11.87 61.88-34.87 72.88l-27.37 13 .847 80.395c22.68 16.17 34.49 42.11 31.55 69.41C459.4 401.6 425.4 432 387.6 432H258.4c-93.18 0-171.6-71.53-178.5-162.8-.1-13.22-12.45-22.56-25.75-22.12C40.91 248 31 259.6 32 272.8 40.78 388.1 140.2 480 258.4 480h129.3c62.5 0 116.8-48.5 123.6-110.5 3.853-35.71-7.74-69.77-31.22-95.54V240H496zm-48-96c0-8.875-7.122-15.1-15.1-15.1S416 135.1 416 144s7.1 16 16 16 16-7.1 16-16z"/></svg>