<svg xmlns="http://www.w3.org/2000/svg" viewBox="0 0 640 512"><!--! Font Awesome Pro 6.1.1 by @fontawesome - https://fontawesome.com License - https://fontawesome.com/license (Commercial License) Copyright 2022 Fonticons, Inc.--><path d="M608 224v-72c0-30.9-25.1-56-56-56h-32c-2.7 0-5.4.38-8 .75V88c0-30.93-25.1-56-56-56h-32c-30.93 0-56 25.07-56 56v136h-96V88c0-30.93-25.1-56-56-56h-32c-30.9 0-56 25.07-56 56v8.75c-2.6-.37-5.2-.75-8-.75H88c-30.93 0-56 25.1-56 56v72c-17.6 0-32 14.4-32 32s14.4 32 31.1 32l.9 72c0 30.9 25.07 56 56 56h32c2.75 0 5.375-.375 8-.75V424c0 30.9 25.1 56 56 56h32c30.93 0 56-25.07 56-56V288h96v136c0 30.93 25.07 56 56 56h32c30.93 0 56-25.07 56-56v-8.75c2.6.35 5.3.75 8 .75h32c30.93 0 56-25.07 56-56v-72c17.6 0 32-14.4 32-32s-14.4-32-32-32zM120 368H88c-4.375 0-8-3.625-8-8V152c0-4.375 3.625-8 8-8h32c4.4 0 8 3.6 8 8v208c0 4.4-3.6 8-8 8zm104 56c0 4.375-3.625 8-8 8h-32c-4.375 0-8-3.625-8-8V88c0-4.375 3.625-8 8-8h32c4.4 0 8 3.62 8 8v336zm240 0c0 4.375-3.625 8-8 8h-32c-4.375 0-8-3.625-8-8V88c0-4.375 3.625-8 8-8h32c4.375 0 8 3.625 8 8v336zm96-64c0 4.375-3.625 8-8 8h-32c-4.375 0-8-3.625-8-8V152c0-4.375 3.625-8 8-8h32c4.375 0 8 3.625 8 8v208z"/></svg>