<svg xmlns="http://www.w3.org/2000/svg" viewBox="0 0 640 512"><!--! Font Awesome Pro 6.1.1 by @fontawesome - https://fontawesome.com License - https://fontawesome.com/license (Commercial License) Copyright 2022 Fonticons, Inc.--><path d="M418.8 104.2 404.6 32H304.1l-.1 127.1h60.77c16.33-18.4 34.33-37.3 54.03-54.9zm42.5 0c18.25 16.25 35.51 33.62 51.14 51.49 5.751-5.623 11.38-11.12 17.38-16.37l21.26-18.98 21.25 18.98c1.125 1 2.125 2.124 3.126 3.124-.125-.75.25-1.5 0-2.249l-24-95.97c-1.625-7.123-8.127-12.12-15.38-12.12H437.2l12.25 61.5L461.3 104.2zM272.1 32.12H171.5L145.9 160.1H272l.1-127.98zM106.4 400 86.39 240.1h225.4c7.876-15.75 17.45-31.89 28.83-48.01l-308.61.01 4.001 31.99L24 224.1c-13.2 0-24 10.8-24 24s10.8 23.99 24 23.99h18l22 175.9.003 8C64.01 469.2 74.81 480 88.02 480s24-10.8 24-23.99v-7.998l224.8-.003c-12.75-14.25-23.47-30.36-31.47-47.98H106.4zM16 160.1l97.26-.022 25.64-127.9H40.01c-7.251 0-13.75 4.999-15.5 12.12L.5 140.2C-2 150.3 5.626 160.1 16 160.1zm535.2 3.2c-14.88 13.25-28.38 27.12-40.26 41.12-19.5-25.74-43.63-51.99-71.01-76.36-70.14 62.73-120 144.2-120 193.6C319.1 409.1 391.6 480 479.1 480s160-70.87 160-158.3c1-36.7-37-112.3-87.9-158.4zM480.1 432c-61.76 0-112-49.49-112-110.3 0-22.62 24.88-74.73 72.26-126.3 22.38 23.62 30.51 35.62 68.51 85.98 40.51-47.74 39.01-45.99 41.01-48.36 26.51 35.37 42.26 73.98 42.26 88.85C592.1 382.5 541.9 432 480.1 432z"/></svg>