<svg xmlns="http://www.w3.org/2000/svg" viewBox="0 0 512 512"><!--! Font Awesome Pro 6.1.1 by @fontawesome - https://fontawesome.com License - https://fontawesome.com/license (Commercial License) Copyright 2022 Fonticons, Inc.--><path d="M64 512c-35.35 0-64-28.7-64-64v-40c0-11.7 3.116-22.6 8.562-32C3.117 366.6 0 355.7 0 344v-40.9c0-10.8 3.125-21.7 8.584-32-5.81-9.3-8.854-21.4-7.841-34.7 2.175-28.6 9.066-56 19.907-81.3 6.13-14.2 16.2-24.4 27.99-30.6.58-13.3 5.51-26.72 15.75-38.28a257.825 257.825 0 0 1 58.11-48.68c13.2-8.1 27.3-10.59 40.5-8.81 8.2-10.54 20-18.65 35.1-22.148C216.8 2.269 236.1 0 256 0s39.2 2.269 57.9 6.582c14.2 3.498 26.9 11.608 34.2 22.148 14.1-1.78 28.2.71 41.4 8.81 21.7 13.3 41.3 29.74 58.1 48.68 10.2 11.56 15.2 24.98 15.8 38.28 11.8 6.2 21.8 16.4 28 30.6 10.8 25.3 17.7 52.7 19.9 81.3 1 13.3-2.1 25.4-7.9 34.7 5.5 10.3 8.6 21.2 8.6 32V344c0 11.7-3.1 22.6-8.6 32 5.5 9.4 8.6 20.3 8.6 32v40c0 35.3-28.7 64-64 64H64zm212.4-382.6.2.1c7.8 1 15.6-3 18.5-10.3l18.1-45.36c3.1-7.62-.1-16.16-7.2-19.48-.9-.43-1.9-.77-2.9-1.01-15.2-3.5-30.9-6.25-47.1-6.25-16.2 0-31.9 2.75-47.1 6.25-1 .24-2 .58-3.8 1.01-6.2 3.32-9.4 11.86-6.3 19.48l18.1 45.36c2.9 7.3 10.7 11.3 18.5 10.3l.2-.1c6.7-.9 13.5-2.3 20.4-2.3 6.9 0 13.7 1.4 20.4 2.3zm131.9 11.2c6.8-4.5 9-13.3 5.2-20-.5-.9-1.1-1.7-1.8-2.5-13.7-15.4-29.6-28.82-47.3-39.63-.9-.55-1.8-.99-2.7-1.33-7.3-2.56-15.5 1.18-19.6 8.59l.7.46-17.3 43.11-.6 1.8c-2.8 7.1 1.4 14.8 7.7 19l.3.1c6.2 4 11.2 8.3 17.6 13.1l.2.2c5.9 5 14.3 5.9 20.7 1.7l36.9-24.6zm-11.5 101.3c.1.3-.7.6.3.9 2 7.5 8.5 13.2 16.3 13.2H448c8.2 0 15-6.2 15.4-14.1V240c-1.8-23.2-7.4-45.4-16.2-65.9-.4-1-.9-1.9-1.5-2.7-4.3-6.2-12.8-7.9-19.6-4.2-.4.3-.8.5-1.2.7l-32.6 21.8c-1.1.7-2 1.6-2.9 2.5-4.6 5-5.6 12.5-2.8 19l.2.4c4.4 9.6 7.8 19.7 10 30.3zM400 344c0 .7 0 1.3.1 1.1 1 8.8 7.7 14.9 15.9 14.9h32c8.2 0 14.9-6.1 15.9-14.9-.8.2.1-.4.1-1.1v-40.9c0 .2-.9-.5-.1-2-1-7-7.8-14-15.9-14h-32c-.9 0-1.7 1-2.6 1.1-7.1 1.2-12.7 7.1-13.3 14.4-.1.5-.1.9-.1.5V344zm0 104c0 8.8 7.2 16 16 16h32c8.8 0 16-7.2 16-16v-40c0-.7-.9-1.3-.1-2-1-7.9-7.7-14-15.9-14h-32c-8.2 0-14.9 6.1-15.9 14-.1.7-.1 1.3-.1 2v40zM100.3 118.1c-.71.8-1.31 1.6-1.81 2.5-3.77 6.7-1.55 15.5 5.21 20l36.9 24.6c5.5 4.2 14.8 3.3 20.7-1.7l.2-.2c5.5-4.8 11.4-9.1 17.6-13.1l.3-.1c6.3-4.2 9.6-11.9 7.7-19l-.6-1.8-17.3-43.11-.2-.46c-3.2-7.41-11.4-11.15-18.7-8.59-.9.34-1.8.78-2.7 1.33-17.7 10.81-34.5 24.23-47.3 39.63zM48.61 240c-.05.6-.06 1.3-.03 1.9.39 7.9 7.21 13.2 15.42 13.2h34.55c7.85 0 14.35-4.8 16.35-12.3l.3-.9c2.2-10.6 5.6-20.7 10-30.3l.2-.4c2.8-6.5 1.8-14-2.8-19-.9-.9-1.8-1.8-2.9-2.5l-32.62-21.8c-.38-.2-.78-.4-1.17-.7-6.82-3.7-15.31-2-19.65 4.2-.58.8-1.08 1.7-1.5 2.7-8.79 20.5-14.39 42.7-16.15 65.9zM48 344c0 .7.04 1.3.12 1.1.98 8.8 7.72 14.9 15.88 14.9h32c8.2 0 14.9-6.1 15.9-14.9-.8.2.1-.4.1-1.1v-40.9c0 .4-.9 0-.1-.5-.6-7.3-6.2-13.2-13.35-14.4-.83-.1-1.68-1.1-2.55-1.1H64c-8.14 0-14.87 7-15.87 14-.09 1.5-.13 2.2-.13 2V344zm0 104c0 8.8 7.16 16 16 16h32c8.8 0 16-7.2 16-16v-40c0-.7-.9-1.3-.1-2-1-7.9-7.7-14-15.9-14H64c-8.16 0-14.9 6.1-15.88 14-.08.7-.12 1.3-.12 2v40zm224-256.9c0-7.9-7.2-16-16-16s-16 8.1-16 16V448c0 8.8 7.2 16 16 16s16-7.2 16-16V191.1zm-64 32c0-7.9-7.2-16-16-16s-16 8.1-16 16V448c0 8.8 7.2 16 16 16s16-7.2 16-16V223.1zm128 0c0-7.9-7.2-16-16-16s-16 8.1-16 16V448c0 8.8 7.2 16 16 16s16-7.2 16-16V223.1z"/></svg>