<svg xmlns="http://www.w3.org/2000/svg" viewBox="0 0 640 512"><!--! Font Awesome Pro 6.1.1 by @fontawesome - https://fontawesome.com License - https://fontawesome.com/license (Commercial License) Copyright 2022 Fonticons, Inc.--><path d="M638.5 335.1c-.031-.156-.078-.313-.11-.469-2.937-11.41-9.33-21.47-18.27-29.1-1.155-11.57-5.968-22.6-13.96-31.35-8.142-9.158-19.1-15.57-31.33-18.54-6.811-10-16.83-17.79-29-22.22-5.765-2.07-11.77-3.047-17.8-3.336V208.1C528.1 93.33 434.7 0 320 0S112 93.33 112 208.1v22.01c-6.1.19-12.17 1.19-18.02 3.29-12.06 4.4-22.03 12.2-28.85 22.2-12.22 2.938-23.14 9.283-31.15 18.29-8.1 8.91-12.98 20.01-14.15 31.61-8.939 7.658-15.36 17.85-18.38 29.57a54.415 54.415 0 0 0 2.705 33.32c-4.283 10.66-5.143 22.47-2.174 33.79 3.049 11.31 9.408 21.29 18.14 28.82 1.297 11.47 6.221 22.47 14.58 31.85 8.422 8.971 19.31 15.13 31.19 17.91 6.783 9.971 16.57 17.63 27.4 21.32 11.24 4.908 25.99 5.908 39.79 2.189C142.2 509.3 152.6 512 163.4 512c33.44 0 60.65-25.76 60.65-57.39 0-7.439-1.641-14.79-4.734-21.66 3.094-6.877 4.734-14.25 4.734-21.69a54.93 54.93 0 0 0-4.438-21.69c2.906-6.781 4.438-14.1 4.438-21.6s-1.531-14.82-4.438-21.57a54.754 54.754 0 0 0 4.438-21.6c0-7.596-1.594-14.94-4.688-21.79C222.4 296.2 224 288.9 224 281.3c0-31.63-27.21-57.39-60.65-57.39-1.141 0-2.225.385-3.359.45V208.1c0-88.24 71.79-160 160-160s160 71.8 160 160v16.3c-1.162-.066-2.271-.459-3.439-.459-33.44 0-60.65 25.76-60.65 57.39 0 7.533 1.594 14.85 4.688 21.69a52.608 52.608 0 0 0-4.688 21.79c0 7.502 1.531 14.82 4.438 21.6-2.906 6.752-4.438 14.07-4.438 21.57s1.531 14.82 4.438 21.6a54.972 54.972 0 0 0-4.438 21.69c0 7.439 1.641 14.82 4.734 21.69-3.094 6.877-4.734 14.22-4.734 21.66 0 31.63 27.21 57.39 60.65 57.39 10.8 0 21.16-2.689 30.3-7.752 13.75 3.688 29.71 2.25 37.99-1.5 12.05-4.158 22.22-11.97 29.14-22.01 11.92-2.814 22.93-9.096 31.69-18.41 8.049-9.066 12.88-19.94 14.13-31.35a58.311 58.311 0 0 0 18.18-29.01c2.938-11.19 2.062-22.94-2.203-33.6A53.274 53.274 0 0 0 638.5 335.1zM176 281.3c0 1.875-1.471 3.781-2.705 5.064-8.895 9.336-8.895 24.036.105 33.336 1.766 1.844 2.658 3.562 2.658 5.125 0 1.846-.69 3.439-2.08 4.908-8.953 9.283-8.984 23.97-.047 33.29 1.908 1.969 2.121 3.8 2.121 4.988s-.213 2.983-2.12 4.952c-8.939 9.316-8.907 24.01.046 33.29 1.422 1.471 2.08 3.064 2.08 5.033 0 1.844-1.455 3.721-2.658 5.002-8.955 9.283-8.986 23.97-.047 33.29 1.688 1.75 2.705 3.656 2.705 5.064 0 5.094-5.783 9.377-12.64 9.377-4.922 0-8.203-2.189-10.08-4.033-4.609-4.562-10.69-6.908-16.83-6.908a24.023 24.023 0 0 0-12 3.221c-4.986 2.844-10.03 2.531-13.72 1.094-3.689-1.281-5.643-3.846-6.236-5.846-3.109-10.41-11.97-16.66-23.69-17.13-4.299-.062-8.393-1.531-10.69-3.938-1.953-2.221-2.688-4.596-2.14-7.096 2.374-11.07-3.315-22.29-13.64-26.95-3.032-1.344-5.204-3.812-5.954-6.564-.672-2.594.813-4.812 1.766-5.906 7.971-9.189 7.814-22.88-.36-31.88-1.093-1.219-2.265-3.221-1.718-5.533.953-3.719 4.219-5.658 6.078-6.471 10.58-4.719 16.29-16.29 13.6-27.54-.375-1.594-.39-3.939 1.922-6.502 2.375-2.656 6.53-4.252 11.14-4.252 10.52 0 19.8-6.844 22.93-16.88.804-2.805 3.204-5.105 6.504-6.305 5.627-1.971 10.85.281 13.44 1.781 9.658 5.783 21.96 4 29.66-4.096 1.533-1.625 4.846-4.312 9.955-4.312C170.2 271.9 176 276.2 176 281.3zm413.9 102.6c.953 1.094 2.438 3.312 1.812 5.719-.797 2.939-2.969 5.408-6.002 6.752-10.33 4.658-16.02 15.88-13.64 26.95a7.538 7.538 0 0 1-1.672 6.594c-2.734 2.908-6.658 4.439-11.16 4.439-12.14-.125-20.58 6.721-23.69 17.13-.594 2-2.549 4.564-8.018 6.533-.094.063-6.971 1.062-11.94-1.781-9.33-5.377-21.13-3.877-28.85 3.688-1.875 1.844-5.125 4.033-10.06 4.033-6.859 0-12.64-4.283-12.64-9.377 0-1.408 1.016-3.314 2.703-5.064 8.939-9.314 8.908-24.01-.047-33.29-1.203-1.281-2.656-3.158-2.656-5.002 0-1.969.656-3.562 2.078-5.033 8.955-9.283 8.986-23.97.047-33.29-1.906-1.969-2.119-3.765-2.119-4.953s.213-3.018 2.119-4.987c8.939-9.314 8.908-24.01-.047-33.29-1.39-1.469-2.078-3.062-2.078-4.908 0-1.562.89-3.281 2.656-5.125 8.955-9.283 8.986-23.97.047-33.29-1.234-1.283-2.703-3.189-2.703-5.064 0-5.096 5.783-9.377 12.64-9.377 5.111 0 8.424 2.688 9.955 4.312 7.689 8.096 20 9.879 29.66 4.096 2.609-1.5 7.861-3.752 13.3-1.844 3.406 1.25 5.861 3.562 6.721 6.344a23.985 23.985 0 0 0 22.93 16.91c4.609 0 8.768 1.596 11.35 4.502 2.109 2.312 2.094 4.658 1.719 6.252-2.688 11.25 3.016 22.82 13.6 27.54 1.828.812 4.986 2.689 6.018 6.252.531 2.625-.594 4.564-1.656 5.752C582 361.1 581.9 374.7 589.9 383.9z"/></svg>