<svg xmlns="http://www.w3.org/2000/svg" viewBox="0 0 512 512"><!--! Font Awesome Pro 6.1.1 by @fontawesome - https://fontawesome.com License - https://fontawesome.com/license (Commercial License) Copyright 2022 Fonticons, Inc.--><path d="M80.97 367c-9.375-9.377-24.56-9.377-33.94 0-9.375 9.375-9.375 24.56 0 33.94l64 64c4.67 4.76 10.87 6.16 16.97 6.16s12.28-2.344 16.97-7.031c9.375-9.375 9.375-24.56 0-33.94L80.97 367zM386.7 2.516c-11.86-5.875-26.28-1.125-32.2 10.75-5.922 11.84-1.125 26.25 10.73 32.19.844.406 84.67 43.56 98.92 157.5 1.516 12.16 11.86 21.03 23.78 21.03 1 0 2-.062 3.016-.187 13.14-1.656 22.47-13.62 20.83-26.78C494.4 57.86 391.1 4.703 386.7 2.516zM24 463.1c-13.25 0-24 10.74-24 24S10.75 512 24 512s24-10.75 24-24-10.75-24.9-24-24.9zm144-144c-13.25 0-24 10.74-24 24 0 13.25 10.75 24 24 24s24-9.9 24-24c0-12.4-10.7-24-24-24zm72-256c-97.05 0-176 81.24-176 181.1 0 13.25 10.75 24 24 24s24-10.75 24-24c0-73.41 57.42-133.1 128-133.1s128 59.72 128 133.1c0 46.97-17.52 91.19-49.31 124.5l-5.625 5.906-.86 8.125c-4.843 45.78-41.83 80.31-86.02 80.31-13.25 0-24 10.75-24 24s10.75 24 24 24c66.11 0 121.8-48.91 132.6-115.1C395.8 355.4 416 301.8 416 245.1c0-99.9-79-182-176-182zm0 136.9c22.06 0 40 17.94 40 40 0 13.25 10.75 24 24 24s24-10.75 24-24c0-48.53-39.47-88-88-88s-88 39.5-88 88c0 13.25 10.75 24 24 24s24-10.7 24-24c0-22.1 17.9-40 40-40z"/></svg>