<svg xmlns="http://www.w3.org/2000/svg" viewBox="0 0 512 512"><!--! Font Awesome Pro 6.1.1 by @fontawesome - https://fontawesome.com License - https://fontawesome.com/license (Commercial License) Copyright 2022 Fonticons, Inc.--><path d="M240 63.1c-97.9 0-176 82.2-176 182 0 13.25 10.75 24 24 24s24-10.75 24-24c0-73.4 57.4-133.1 128-133.1s128 59.72 128 133.1c0 46.97-17.52 91.19-49.31 124.5l-5.625 5.906-.86 8.125C307.4 429.5 270.4 464 226.2 464c-13.25 0-24 10.75-24 24s10.75 24 24 24c66.11 0 121.8-48.91 132.6-115.1 37-41.5 57.2-95.1 57.2-151.8 0-99.8-79-182-176-182zM168 320a23.93 23.93 0 0 0-16.97 7.031l-144 144C2.344 475.7 0 481.9 0 488c0 13.7 11.21 24 24 24a23.93 23.93 0 0 0 16.97-7.031l144-144C189.7 356.3 192 350.1 192 344c0-13.7-11.2-24-24-24zM512 24c0-13.71-11.2-24-24-24a23.93 23.93 0 0 0-16.97 7.031l-64 64C402.3 75.72 400 81.86 400 88c0 13.71 11.21 24 24 24a23.93 23.93 0 0 0 16.97-7.031l64-64C509.7 36.28 512 30.14 512 24zM240 200c22.06 0 40 17.94 40 40 0 13.25 10.75 24 24 24s24-10.75 24-24c0-48.53-39.47-88-88-88s-88 39.5-88 88c0 13.25 10.75 24 24 24s24-10.7 24-24c0-22.1 17.9-40 40-40z"/></svg>