<svg xmlns="http://www.w3.org/2000/svg" viewBox="0 0 512 512"><!--! Font Awesome Pro 6.1.1 by @fontawesome - https://fontawesome.com License - https://fontawesome.com/license (Commercial License) Copyright 2022 Fonticons, Inc.--><path d="M0 256C0 114.6 114.6 0 256 0s256 114.6 256 256-114.6 256-256 256S0 397.4 0 256zm256 208c114.9 0 208-93.1 208-208S370.9 48 256 48 48 141.1 48 256s93.1 208 208 208zm154.4-208.7-16.9-50.7c-5.3-16 2.8-33.5 18.5-39.8l52-20.8 16 144-47-11.7c-10.6-2.7-19.1-10.6-22.6-21zM67.07 209.4 48 176l16-48 80-80 104-32 20.8 36.42c6.7 11.74 5.3 26.43-3.5 36.7l-15.7 18.38c-10.2 11.8-10.3 29.3-.3 41.3l13.6 16.2c5.4 6.5 5.9 15.8 1.2 22.9-4.8 7.1-13.8 10.2-21.9 7.5l-24.1-7.7c-6.2-2.4-13.8-1.8-20.4 1.5l-6 2.9c-9 4.6-13.3 15-10.1 24.6 1.5 4.7 4.8 8.7 9.1 11.1l34.5 19.8c9.7 5.5 20.7 7.5 30.9 7.5h44c12.7 0 25 6 34 15l3.8 3.8c9 9 14.1 21.3 14.1 34v8.2c0 17.3-9.2 33.2-24.2 41.7l-9.2 5.3c-14.5 8.3-25.2 21-29.8 38l-1.5 5.4c-4.5 15.8-17 28.3-32.8 32.8-15.3 4.4-31.4-7.1-31.4-23v-30.4c0-11-5.3-21-16-25.9-8.9-4.9-16-14.9-16-25.9v-39.9c0-17.9-10.9-33.6-29-38.5l-57-16.5a64.042 64.042 0 0 1-38.03-29.8z"/></svg>