<svg xmlns="http://www.w3.org/2000/svg" viewBox="0 0 512 512"><!--! Font Awesome Pro 6.1.1 by @fontawesome - https://fontawesome.com License - https://fontawesome.com/license (Commercial License) Copyright 2022 Fonticons, Inc.--><path d="M195.9 344.5c8.6 2.1 13.8 10.8 11.6 19.4-2.1 8.6-10.8 13.8-19.4 11.6l-32-8c-8.6-2.1-13.8-10.8-11.6-19.4 2.1-8.6 10.8-13.8 19.4-11.6l32 8zm52.2 3c-8.6-2.1-13.8-10.8-11.6-19.4l8-32c2.1-8.6 10.8-13.8 19.4-11.6 8.6 2.1 13.8 10.8 11.6 19.4l-8 32c-2.1 8.6-10.8 13.8-19.4 11.6zm86.2-180.3c-3.9 7.9-13.6 11.1-21.5 7.1-7.9-3.9-11.1-13.6-7.1-21.5l16-32c3.9-7.9 13.6-11.1 21.5-7.1 7.9 3.9 11.1 13.6 7.1 21.5l-16 32zM512 256c0 141.4-114.6 256-256 256S0 397.4 0 256 114.6 0 256 0s256 114.6 256 256zM324.9 59.69l-16.3 40.91c-2.9 7.2-9 12.5-16.5 13.5l-17 5.1c-16.7 4.2-23.7 24-13.4 37.7l16.1 21.5c6.1 8.2 6.4 19.3.8 27.7l-10.7 16.1c-7.4 11.1-20.8 16.9-33.3 16.9h-2.3c-16.1 0-27.7 16.4-23 31.8l5.9 19.9c4.4 14.6-6.5 28.3-21.7 28.3-10.7 0-21.4-5.2-25.3-14.8l-9.3-18.5c-7.3-14.7-26.9-18.7-38.4-6.3l-15.4 15.4c-5.69 5.7-13.83 8.2-21.69 6.6l-31.73-6.4C69.98 391.3 154.5 464 256 464c48.1 0 92.3-16.3 127.5-43.7l-5.9-4.3-19.5 6.9c-18.9 7.4-41-1.9-49.6-21.1l-6.4-12.4c-7.6-18.9-.2-41.2 17-51.3l37.1-21c2.3-.4 4.2-2.3 5.6-4.5l6.1-9.5c5.2-9.4 16.5-16 27.6-16 11.2 0 21.6 6.6 27.6 16l2 3.1c3.7 5.8 10.8 8.5 17.5 6.7l14.6-4.1c4.5-16.9 6.8-34.6 6.8-53.7 0-89.8-58.1-166.97-139.1-195.41z"/></svg>