<svg xmlns="http://www.w3.org/2000/svg" viewBox="0 0 512 512"><!--! Font Awesome Pro 6.1.1 by @fontawesome - https://fontawesome.com License - https://fontawesome.com/license (Commercial License) Copyright 2022 Fonticons, Inc.--><path d="M155.3 155.3c-6.2 6.3-16.4 6.3-22.6 0-6.3-6.2-6.3-16.4 0-22.6l32-32c6.2-6.26 16.4-6.26 22.6 0 6.3 6.2 6.3 16.4 0 22.6l-32 32zM0 256C0 114.6 114.6 0 256 0s256 114.6 256 256-114.6 256-256 256S0 397.4 0 256zm256 208c5.8 0 11.5-.2 17.1-.7-.7-2.3-1.1-4.8-1.1-7.3 0-13.3-10.7-24-24-24h-21.3c-12 0-23.5-4.8-32-13.3l-16-16c-12-12-18.7-28.2-18.7-45.2v-3.2c0-21.4 10.7-41.4 28.5-53.3l27.4-18.3c10.5-7 22.8-10.7 35.5-10.7h20.9c15.3 0 30.1 5.5 40.8 15.4l27.4 22.8c7.4 6.3 16.9 9.8 26.6 9.8 10.8 0 21.2 4.3 28 11.1l14.3 14.3c4.2 4.2 10 6.6 16 6.6 4.8 0 9.3 1.5 13 4.1 6.3-11.4 11.5-23.5 14.7-36.1h-6.5c-14.5 0-28.4-5.8-38.6-16l-18.3-18.3c-3.7-3.7-5.7-8.6-5.7-13.7s2-10.9 5.7-13.7l7.5-7.5c.9-1.8 2.8-4.2 2.8-6.8 0-2.6-1.9-5.9-2.8-6.8l-6.6-6.6c-4.2-4.2-10-6.6-16-6.6h-11.3c-6.2 0-11.3-5.1-11.3-11.3 0-3 1.2-5.9 3.3-8l4.7-4.7c5.1-5.1 12.1-8 19.3-8H400c8.8 0 16-7.2 16-16s-7.2-16-16-16h-29.4c-10.3 0-18.6 8.3-18.6 18.6 0 8-5.1 15.1-12.7 17.6l-21.2 7.1c-7.4 2.5-11 11-7.4 18l1.1 2.3c3.8 7.5-1.7 16.4-10.1 16.4-3.6 0-7-1.7-9.1-4.5l-16.3-21.8c-2.7-3.6-6.9-5.7-11.5-5.7-5.4 0-10.3 3.1-12.8 7.9l-4 8.1c-4.9 9.8-15.1 16-26.1 16-16.3 0-29.9-13.3-29.9-29.7v-4.2c0-9 3.6-17.7 9.9-24l18-18c2.6-2.6 4.1-6.2 4.1-9.9 0-6.1 3.9-11.5 9.6-13.4l26.6-8.9c7.7-2.5 14.8-7.8 20.6-12.7l19.9-19.89c2.1-2.12 3.3-5 3.3-8 0-6.24-5.1-11.31-11.3-11.31h-1c-2.4 0-4.8.72-6.8 2.06l-41.8 27.84c-2 1.4-4.4 2.1-6.8 2.1-6.8 0-12.3-5.5-12.3-12.28v-9.05c0-6.72 3.2-13.04 8.5-17.07l33.8-25.35c-3.4-.16-6.8-.25-10.3-.25-114.9 0-208 93.1-208 208s93.1 208 208 208z"/></svg>