<svg xmlns="http://www.w3.org/2000/svg" viewBox="0 0 512 512"><!--! Font Awesome Pro 6.1.1 by @fontawesome - https://fontawesome.com License - https://fontawesome.com/license (Commercial License) Copyright 2022 Fonticons, Inc.--><path d="M512 256c0 141.4-114.6 256-256 256S0 397.4 0 256 114.6 0 256 0s256 114.6 256 256zm-55.6-55.9-28.3-5.5c-6.8-1.5-14.5 2.2-18 9.2-5.8 11.6-19.2 16.3-31.5 13.1l-14.1-4.7c-7.7-2.6-16.1-.6-21.8 5.1-4.6 3.7-4.6 8.8 0 13.4l33.5 33.5c5 5 7.8 10.9 7.8 18.9 0 12.3-8.4 23-20.3 26l-5.3 1.3c-3.8.9-6.4 4.3-6.4 8.2v12.1c0 13.8-4.5 26.4-12.8 38.4l-25.6 34.1c-6 8.1-15.5 12.8-25.6 12.8-17.7 0-32.9-14.3-32.9-32v-48c0-8.8-6.3-16-16-16h-32c-25.6 0-48-21.5-48-48v-28c0-12.6 6.8-24.4 16-32l40.3-29.5c4.7-4.2 12.4-6.5 19.4-6.5 3.4 0 6.9.6 9.3 1.7l32 10.6c8.1 2.4 15.8 2.7 23.2.9l35.4-8.9c10.2-2.5 17.3-11.7 17.3-22.2 0-8.6-4.9-16.5-12.6-20.4l-29.3-14.6c-3.6-1.9-8.1-2-11 1.8l-3.9 3.9c-4.6 4.6-10.9 6.3-17.4 6.3-4.7 0-7.6 0-11-1.7l-15.2-7.6c-6.8-3.4-15-1.6-19.7 4.3l-13.6 17c-5.5 6-15.7 7.5-22 1.2-2.7-2.7-5.2-6.5-5.2-10.4V96.5c0-5.57-.6-11.04-3.3-15.88l-10-17.43C101.7 94.09 47.1 168.8 47.1 255.1c0 115.8 94 208.9 208 208.9C370.9 464 464 370.9 464 255.1c0-18.5-2.6-37.2-7.6-55z"/></svg>