<svg xmlns="http://www.w3.org/2000/svg" viewBox="0 0 512 512"><!--! Font Awesome Pro 6.1.1 by @fontawesome - https://fontawesome.com License - https://fontawesome.com/license (Commercial License) Copyright 2022 Fonticons, Inc.--><path d="m208.6 357.3-39-13.5c-6.5-2.2-13.6-2.3-20.1-.2l-15.4 4.8c-18.4 5.9-38.43-2.3-47.45-19.5l-3.28-6.2c-10.57-20.1-2.29-45 18.23-54.8l35.3-16.8c2.3-1.1 4.4-2.7 5.9-4.8l5.3-7c7.2-9.6 18.6-15.3 30.6-15.3s23.4 5.7 30.6 15.3l4.5 6.1c2 1.7 4.9 4.4 8.1 5.1 7.8 1.6 15.8-2.4 20.5-7.9l10.4-14.2c2-2.8 5.2-4.4 8.7-4.4 4.4 0 8.4 2.7 10 6.8l10.1 25.9c2.8 6.4 6.7 14 11.5 20.2l17.9 22.9c5.8 7.4 9 16.6 9 26 0 9.4-3.2 18.6-9 26l-12.9 15.4c-7.4 10.6-20.1 16.8-33.5 16.8-8.4 0-17.5-2.4-23.7-7l-25.4-16.4c-2.1-1.4-4.5-2.5-6.9-3.3zM296 164.7c10.1 10.1 2.9 27.3-11.3 27.3h-29.9c-5.6 0-11.1-1.2-16.3-3.4l-42.8-19.1c-14.2-6.3-11.9-27.2 3.4-30.3l38.5-7.7c13.2-2.6 26.7.6 36.2 11l22.2 22.2zM248 416c0-8.8 7.2-16 16-16h16c8.8 0 16 7.2 16 16s-7.2 16-16 16h-16c-8.8 0-16-7.2-16-16zm183.2-101.1c1.9 8.4-1.8 17.5-10.1 20.3-8.4 1.9-17.5-1.8-20.3-10.1l-8-24c-2.8-8.4 1.8-17.5 10.1-20.3 8.4-2.8 17.5 1.8 20.3 10.1l8 24zm-59.9 88.4c-6.2 6.3-16.4 6.3-22.6 0-6.3-6.2-6.3-16.4 0-22.6l32-32c6.2-6.3 16.4-6.3 22.6 0 6.3 6.2 6.3 16.4 0 22.6l-32 32zM512 256c0 141.4-114.6 256-256 256S0 397.4 0 256 114.6 0 256 0s256 114.6 256 256zM256 48C141.1 48 48 141.1 48 256s93.1 208 208 208 208-93.1 208-208S370.9 48 256 48z"/></svg>