<svg xmlns="http://www.w3.org/2000/svg" viewBox="0 0 640 512"><!--! Font Awesome Pro 6.1.1 by @fontawesome - https://fontawesome.com License - https://fontawesome.com/license (Commercial License) Copyright 2022 Fonticons, Inc.--><path d="m256 458-51.88-76.1-90.88 17.62 17.5-91.24L53.1 255.4l76.75-51.1-17.5-91.12 91 17.5L256 53.03l31.75 46.87a218.9 218.9 0 0 1 37.13-30.75L289.6 16.78c-15.12-22.37-51.88-22.37-67 0l-40.3 59.87-70.9-13.75C97.1 60.4 84.5 64.53 75 74.15c-9.5 9.63-13.75 23.13-11.12 36.25l13.75 70.1L17.75 221C6.625 229.5 0 242 0 255.5s6.75 25.1 17.75 33.5l59.88 40.5-13.75 70.1c-2.625 13.25 1.594 26.96 11.09 36.46s22.91 13.54 36.28 10.91l70.88-13.62 40.38 59.87C229.1 505.3 242.5 512 255.9 512s26.08-6.75 33.58-17.75l34.75-51.62c-13.5-9-25.75-19.37-37-30.87L256 458zm-26.4-251.1c4.25-19.12 11-37.25 19.88-54.25-54.25 3.5-97.49 48.24-97.49 103.4 0 55.12 43.24 99.88 97.49 103.3-8.875-16.88-15.62-34.1-19.88-54.25-17.5-9.6-29.6-27.8-29.6-49.2 0-21.3 12.1-39.5 29.6-49zM448 64.02c-106 0-191.1 86-191.1 191.1S341.1 448.1 448 448.1c105.1 0 192-86.05 192-192S553.1 64.02 448 64.02zM448 400c-79.38 0-143.1-64.63-143.1-143.1 0-79.37 64.62-143.1 143.1-143.1s144 64.62 144 143.1c0 78.5-64.6 143.1-144 143.1z"/></svg>