<svg xmlns="http://www.w3.org/2000/svg" viewBox="0 0 512 512"><!--! Font Awesome Pro 6.1.1 by @fontawesome - https://fontawesome.com License - https://fontawesome.com/license (Commercial License) Copyright 2022 Fonticons, Inc.--><path d="M478.4 150.5c-39.5-40.75-100.8-46.38-144.5-82.25C290.2 32.24 255.6 0 200.5 0c-8.4 0-16.8.739-25.2 2.114-86.76 13.1-111.8 80.01-125 157.1-11.13 64.38-54.38 127-50 192.9 4.375 65.88 52.88 128.5 115 150.8C132.9 509.3 149.2 512 164.2 512c64.76 0 109-51.12 155.8-95.49 43.63-41.5 93.38-37.75 140.9-74 56.3-42.71 71.7-141.41 17.5-192.01zm-46.5 153.7c-16.13 12.38-33.63 18.75-53.88 26.13-28.25 10.38-60.26 22-91.01 51.25-5.501 5.125-11 10.5-16.5 15.88C233.7 433.1 201.1 464 164.2 464c-10.25 0-20.88-1.999-32.75-6.25-44.38-16-80.26-62.75-83.26-108.8-2-28.95 10.25-61.35 23.25-95.75 10.25-27.2 21-55.3 26.13-85.7 13.88-80.12 35.38-109.9 85.38-118 5.75-.88 11.65-1.38 17.55-1.5 32.38 0 54.38 17 93.51 49.5l9.376 7.875c25.5 21 54.13 33.12 79.38 43.75 25 10.63 46.5 19.75 61.13 34.75l.625.75.75.75c17.75 16.87 19.25 40.75 18.63 53.5C462.5 264.9 449.9 290.6 431.9 304.2zM223.1 128.1c-61.76 0-112 50.38-112 112.1 0 61.88 50.26 112.1 112 112.1s112-50.26 112-112.1c0-61.7-49.4-112.1-112-112.1zm0 72c-22.13 0-40 17.91-40 40.03 0 8.875-7.125 15.99-16 15.99-8.876 0-16-7.113-16-15.99 0-39.75 32.25-71.89 72-72.01 8.876 0 16 7.238 16 15.99 0 7.99-6.2 15.99-16 15.99z"/></svg>