<svg xmlns="http://www.w3.org/2000/svg" viewBox="0 0 512 512"><!--! Font Awesome Pro 6.1.1 by @fontawesome - https://fontawesome.com License - https://fontawesome.com/license (Commercial License) Copyright 2022 Fonticons, Inc.--><path d="M414.2 193.7c-21.8 42.21-44.23 81.8-68.53 119C250 458.1 210.17 464 180.27 464c-149.1 0-175.8-186-62.07-233.3 19.83-7.764 92.45-40.21 203.7-130.8-14.41-7.936-26.46-19.42-35.17-33.33C190.3 144.5 124.7 176.7 100.8 186.1 31.93 214.6 0 275.1 0 337.4c0 141.1 129.2 174.7 172.6 174.7 57.68 0 108.2-13.32 213.2-172.9 23.94-36.67 44.8-73.65 64.42-110.8-14.92-8.2-27.22-20.3-36.02-34.7zM512 24c0-13.71-11.2-24-24-24a23.93 23.93 0 0 0-16.97 7.031l-14.04 14.04A63.698 63.698 0 0 0 432 16H304c0 35.35 28.65 64 64 64 0 35.35 28.65 64 64 64 0 35.35 28.65 64 64 64V80c0-8.871-1.812-17.31-5.074-24.99l14.04-14.04C509.7 36.28 512 30.14 512 24z"/></svg>