<svg xmlns="http://www.w3.org/2000/svg" viewBox="0 0 448 512"><!--! Font Awesome Pro 6.1.1 by @fontawesome - https://fontawesome.com License - https://fontawesome.com/license (Commercial License) Copyright 2022 Fonticons, Inc.--><path d="M48.01 351.1h351.1c41.62 0 63.49-49.63 35.37-80.38l-175.1-192.1C249.9 69.16 236.9 64.01 224 64.01c-12.94 0-25.87 5.156-35.37 15.47L12.64 271.6c-28.12 30.6-6.247 79.5 35.37 79.5zM223.9 112l175.2 192H48.04L223.9 112zM424 400H24c-13.25 0-24 10.7-24 24s10.75 24 24 24h400c13.26 0 24-10.75 24-24 0-13.3-10.7-24-24-24z"/></svg>