<svg xmlns="http://www.w3.org/2000/svg" viewBox="0 0 640 512"><!--! Font Awesome Pro 6.1.1 by @fontawesome - https://fontawesome.com License - https://fontawesome.com/license (Commercial License) Copyright 2022 Fonticons, Inc.--><path d="M528 128c-8.875 0-16 7.124-16 15.1 0 8.75 7.125 15.99 16 15.99s16-6.29 16-15.09-7.1-16-16-16zm-16-95.95-61.13-.06c-3.625-3.75-7.5-7.374-11.75-10.75-26-19.88-59.37-26.13-91.88-17.38-18 4.876-33.87 14.88-46.37 28.13L192 32.06c-106 0-192 85.85-192 191.1v111.1c0 8.875 7.125 15.1 16 15.1L32 352v127.1c0 18.5 14.38 32.9 32 32.9h80c17.62 0 32-14.38 32-32v-72.9c18.5 5.125 66.5 17 128 0v72.88c0 17.62 14.4 32.02 32 32.02h80c17.62 0 32-14.37 32-32V288l144-.028v88c0 13.25-10.75 24-24 24S544 389.2 544 375.1v-7.929c0-8.875-7.125-16.07-16-16.07l-16-.001c-8.875 0-16 7.125-16 16v4.75c0 37.63 27.38 71.25 64.75 74.88C603.8 451.9 640 418.1 640 375.1V160c0-70.72-57.2-127.95-128-127.95zM400 463.1h-48V343.2c-120.6 33.25-111.1 31.13-224 0v119.9H80v-160H48v-80c0-79.63 64.5-144 144-144h83.25c-6.15 27.8-2.45 55 11.55 78.3 11.4 19.2 29 34.1 49.2 41.7 0 40.13 27.12 73.75 64 84.25V463.1zm192-256c0 17.63-14.38 32-32 32H424c-22 0-40-18-40-40v-36.4c-22.62-4.625-41.88-6.375-56-30-16.5-27.5-7.5-71.88 31.88-82.63 29.12-7.875 55.5 6.375 66.63 29.88H512c44.13 0 80 35.88 80 80v47.15z"/></svg>