<svg xmlns="http://www.w3.org/2000/svg" viewBox="0 0 512 512"><!--! Font Awesome Pro 6.1.1 by @fontawesome - https://fontawesome.com License - https://fontawesome.com/license (Commercial License) Copyright 2022 Fonticons, Inc.--><path d="M480 256c0 35.3-28.7 64-64 64s-64-28.7-64-64 28.7-64 64-64 64 28.7 64 64zm-64-24c-13.3 0-24 10.7-24 24s10.7 24 24 24 24-10.7 24-24-10.7-24-24-24zm-96 24c0 35.3-28.7 64-64 64s-64-28.7-64-64 28.7-64 64-64 64 28.7 64 64zm-64-24c-13.3 0-24 10.7-24 24s10.7 24 24 24 24-10.7 24-24-10.7-24-24-24zM32 256c0-35.3 28.65-64 64-64 35.3 0 64 28.7 64 64s-28.7 64-64 64c-35.35 0-64-28.7-64-64zm64 24c13.3 0 24-10.7 24-24s-10.7-24-24-24c-13.25 0-24 10.7-24 24s10.75 24 24 24z"/></svg>