<svg xmlns="http://www.w3.org/2000/svg" viewBox="0 0 192 512"><!--! Font Awesome Pro 6.1.1 by @fontawesome - https://fontawesome.com License - https://fontawesome.com/license (Commercial License) Copyright 2022 Fonticons, Inc.--><path d="M96 480c-35.35 0-64-28.7-64-64s28.65-64 64-64c35.3 0 64 28.7 64 64s-28.7 64-64 64zm24-64c0-13.3-10.7-24-24-24-13.25 0-24 10.7-24 24s10.75 24 24 24c13.3 0 24-10.7 24-24zm-24-96c-35.35 0-64-28.7-64-64s28.65-64 64-64c35.3 0 64 28.7 64 64s-28.7 64-64 64zm24-64c0-13.3-10.7-24-24-24-13.25 0-24 10.7-24 24s10.75 24 24 24c13.3 0 24-10.7 24-24zM96 32c35.3 0 64 28.65 64 64 0 35.3-28.7 64-64 64-35.35 0-64-28.7-64-64 0-35.35 28.65-64 64-64zM72 96c0 13.3 10.75 24 24 24 13.3 0 24-10.7 24-24 0-13.25-10.7-24-24-24-13.25 0-24 10.75-24 24z"/></svg>