<svg xmlns="http://www.w3.org/2000/svg" viewBox="0 0 640 512"><!--! Font Awesome Pro 6.1.1 by @fontawesome - https://fontawesome.com License - https://fontawesome.com/license (Commercial License) Copyright 2022 Fonticons, Inc.--><path d="M304 212c11 0 20 8.1 20 20v56c0 11-9 20-20 20-11.9 0-20-9-20-20v-56c0-11.9 8.1-20 20-20zm24 140c0 13.3-10.7 24-24 24s-24-10.7-24-24 10.7-24 24-24 24 10.7 24 24zm96-264c0 13.3-10.7 24-24 24h-72v32h81.5c14.6 0 28.7 4.9 40 14l37.6 30.8c16.1 12.1 24.9 30.5 24.9 50V384c0 35.3-28.7 64-64 64H254.8c-19.5 0-37.9-8.8-50-24.9l-32-39.1H144c-35.3 0-64-28.7-64-64v-40H48v72c0 13.3-10.75 24-24 24S0 365.3 0 352V160c0-13.3 10.75-24 24-24s24 10.7 24 24v72h32v-24c0-35.3 28.7-64 64-64h136v-32h-72c-13.3 0-24-10.7-24-24 0-13.25 10.7-24 24-24h192c13.3 0 24 10.75 24 24zM195.9 336l46.4 57.1c3 4.7 7.6 6.9 12.5 6.9H448c8.8 0 16-7.2 16-16V238.8c0-4.9-2.2-9.5-6.9-12.5l-37.6-30.8c-2.8-2.3-6.3-3.5-10-3.5H144c-8.8 0-16 7.2-16 16v112c0 8.8 7.2 16 16 16h51.9zM608 192c17.7 0 32 14.3 32 32v192c0 17.7-14.3 32-32 32h-32c-17.7 0-32-14.3-32-32V224c0-17.7 14.3-32 32-32h32z"/></svg>