<svg xmlns="http://www.w3.org/2000/svg" viewBox="0 0 640 512"><!--! Font Awesome Pro 6.1.1 by @fontawesome - https://fontawesome.com License - https://fontawesome.com/license (Commercial License) Copyright 2022 Fonticons, Inc.--><path d="M592 128H272c-26.5 0-48 21.5-48 48v16h48v-16h320v192H416v48h176c26.5 0 48-21.5 48-48V176c0-26.5-21.5-48-48-48zM112 48h320v48h48V48c0-26.5-21.5-48-48-48H112C85.5 0 64 21.5 64 48v144h48V48zm224 176H48c-26.5 0-48 21.5-48 48v192c0 26.5 21.5 48 48 48h288c26.5 0 48-21.5 48-48V272c0-26.5-21.5-48-48-48zm0 240H48V344c14.5 11 80 58.1 80 58.1 14.5 11.2 38.6 29.9 64 29.9s49.5-18.75 64-29.88c0 0 65.5-47.13 80-58.13V464zm0-178.6c-2.375 1.875-111.8 82-117.1 85.63C210.4 376.8 199.8 384 192 384c-9.375 0-22.75-10.5-31.5-17.5-3.4-2.7-110.12-82.5-112.5-84.2V272h288v13.4zM496 208v64h64v-64h-64z"/></svg>