<svg xmlns="http://www.w3.org/2000/svg" viewBox="0 0 576 512"><!--! Font Awesome Pro 6.1.1 by @fontawesome - https://fontawesome.com License - https://fontawesome.com/license (Commercial License) Copyright 2022 Fonticons, Inc.--><path d="M512 0c-35.35 0-64 28.65-64 64s28.65 64 64 64 64-28.65 64-64-28.7-64-64-64zm-23.8 156.7L329.3 289.2c-23.19 19.28-59.34 19.27-82.47.016L80 150.2V128c0-8.822 7.178-16 16-16h333.3C421.1 97.83 416 81.58 416 64H96c-35.35 0-64 28.65-64 64v256c0 35.35 28.65 64 64 64h384c35.35 0 64-28.65 64-64V154.1c-10.1 3.6-20.7 5.9-32 5.9-8.3 0-16.1-1.4-23.8-3.3zM496 384c0 8.822-7.178 16-16 16H96c-8.822 0-16-7.178-16-16V212.7l136.1 113.4c20.2 16.7 45.7 25.9 71.9 25.9s51.75-9.184 71.97-25.98L496 212.7V384z"/></svg>