<svg xmlns="http://www.w3.org/2000/svg" viewBox="0 0 512 512"><!--! Font Awesome Pro 6.1.1 by @fontawesome - https://fontawesome.com License - https://fontawesome.com/license (Commercial License) Copyright 2022 Fonticons, Inc.--><path d="M476.8 214.2a35.237 35.237 0 0 0-22.56 8.168l-156.9 130.8c-22.68 18.9-59.8 18.91-82.49.002L57.8 222.3a35.249 35.249 0 0 0-22.56-8.168C15.78 214.2 0 229.9 0 249.4V448c0 35.3 28.65 64 64 64h384c35.35 0 64-28.67 64-64.01V249.4c0-19.5-15.8-35.2-35.2-35.2zM464 448c0 8.822-7.178 16-16 16H64c-8.822 0-16-7.178-16-16V276.7l136.1 113.4c20.2 16.7 45.7 26 71.9 26s51.75-9.224 71.97-26.02L464 276.7V448zM112 225.9V56c0-4.406 3.594-8 8-8h272c4.406 0 8 3.594 8 8v169.8l33.72-28.1c4.38-3.6 9.18-6.4 14.28-8.8V56c0-30.88-25.1-56-56-56H120C89.13 0 64 25.12 64 56v132.9c5.064 2.41 9.941 5.23 14.3 8.863L112 225.9zM328 96H184c-13.3 0-24 10.7-24 24s10.7 24 24 24h144c13.3 0 24-10.7 24-24s-10.7-24-24-24zm0 80H184c-13.3 0-24 10.7-24 24s10.7 24 24 24h144c13.3 0 24-10.7 24-24s-10.7-24-24-24z"/></svg>