<svg xmlns="http://www.w3.org/2000/svg" viewBox="0 0 640 512"><!--! Font Awesome Pro 6.1.1 by @fontawesome - https://fontawesome.com License - https://fontawesome.com/license (Commercial License) Copyright 2022 Fonticons, Inc.--><path d="M544 96h-96a96.016 96.016 0 0 0-63.22 23.75L303.9 190.6c-.8-34.7-29-62.6-63.9-62.6-35.35 0-64 28.65-64 64v110.4L155.9 320H96c-53.03 0-96 42.98-96 96s42.97 96 96 96h96c23.25 0 45.72-8.438 63.22-23.75L484.1 288H544c53.03 0 96-42.98 96-96s-43-96-96-96zm0 144h-77.97L223.6 452.1c-8.7 7.7-20 11.9-31.6 11.9H96c-26.47 0-48-21.53-48-48s21.53-48 48-48h77.97l242.4-212.1C425.1 148.2 436.4 144 448 144h96c26.47 0 48 21.53 48 48s-21.5 48-48 48zM240 96c26.5-.1 48-21.54 48-48S266.5.1 240 0c-26.5.1-48 21.54-48 48s21.5 47.9 48 48z"/></svg>