<svg xmlns="http://www.w3.org/2000/svg" viewBox="0 0 384 512"><!--! Font Awesome Pro 6.1.1 by @fontawesome - https://fontawesome.com License - https://fontawesome.com/license (Commercial License) Copyright 2022 Fonticons, Inc.--><path d="M56 240c-13.25 0-24-10.7-24-24s10.75-24 24-24h33.28C116.8 99.47 202.5 32 304 32h24c13.3 0 24 10.75 24 24s-10.7 24-24 24h-24c-74.6 0-138.4 46.4-164.9 112H296c13.3 0 24 10.7 24 24s-10.7 24-24 24H128.7c-.5 5.3-.7 10.6-.7 16s.2 10.7.7 16H296c13.3 0 24 10.7 24 24s-10.7 24-24 24H139.1c26.5 65.6 90.3 112 164.9 112h24c13.3 0 24 10.7 24 24s-10.7 24-24 24h-24c-101.5 0-187.2-67.5-214.72-160H56c-13.25 0-24-10.7-24-24s10.75-24 24-24h24.56a228.956 228.956 0 0 1 0-32H56z"/></svg>