<svg xmlns="http://www.w3.org/2000/svg" viewBox="0 0 640 512"><!--! Font Awesome Pro 6.1.1 by @fontawesome - https://fontawesome.com License - https://fontawesome.com/license (Commercial License) Copyright 2022 Fonticons, Inc.--><path d="m610.1 217.5-94.53-25.16c44.73-69.76 47.53-70.96 47.53-85.6 0-29.4-27.26-39.92-41.17-39.92-4.707 0-9.479.78-14.12 2.396l-101.6 36.06c-4-1.688-8.062-3.281-12.17-4.781l-36.7-76.97C350.5 9.031 336.2 0 319.1 0s-29.6 9.031-36.4 23.44l-37.6 77.06a265.551 265.551 0 0 0-12.17 4.781L132.1 69.22c-4.6-1.57-9.3-2.33-13.9-2.33-13.39 0-41.25 10.3-41.25 39.86 0 7.252 2.058 14.56 6.222 21.16l41.3 64.47L29.1 217.5C11.15 222.156 0 237.66 0 256s12.05 33.84 29.88 38.47l94.44 25.12c-44.83 69.88-47.42 71.28-47.42 85.63 0 29.37 27.27 39.95 41.17 39.95a42.52 42.52 0 0 0 14.13-2.423l101.6-36.06c4 1.688 8.062 3.281 12.17 4.781l36.7 76.97C289.5 502.1 303.8 512 319.1 512s30.5-9.031 37.27-23.44l36.77-77.09c4.109-1.5 8.172-3.094 12.17-4.781l101.7 36.09a42.766 42.766 0 0 0 14.04 2.376c14.32 0 41.16-11.06 41.16-39.91 0-14.56-2.749-15.88-47.41-85.65l94.31-25.09c17.95-4.656 30-20.15 30-38.49C640 237.7 628 222.2 610.1 217.5zm-123.9 60.3-5 6.719c-4.125 5.531-8.797 11.25-13.91 17.34l-11.45 13.91s33.81 52.22 48.16 74.69l-100.3-35.59-9.031 4.375a174.28 174.28 0 0 1-24.88 9.719l-10.11 3.094L320 455.2l-39.66-83.16-10.11-3.094a174.976 174.976 0 0 1-24.88-9.719l-9.031-4.375L136 390.4c14.34-22.47 36.19-56.69 37.92-59.31L184.6 316l-11.9-14.2c-5.1-6-9.8-11.8-13.9-17.3l-5-6.719L71.95 256l81.81-21.78 5-6.688A379.77 379.77 0 0 1 172.6 210.4l11.8-13.6s-33.63-52.22-48.31-75.19l100.3 35.59 9.031-4.375a174.28 174.28 0 0 1 24.88-9.719l10.11-3.094L320 56.81l39.66 83.16 10.11 3.094a174.976 174.976 0 0 1 24.88 9.719l9.031 4.375 100.3-35.59c-14.72 23-48.38 75.28-48.38 75.28l11.95 13.69a265.961 265.961 0 0 1 13.7 16.97l5 6.719L568 256l-81.8 21.8zm-95.5-76.9c-11.89 0-29.03 12.51-70.69 12.51-41.58 0-58.71-12.57-70.98-12.57-28.76 0-33.01 28-33.01 47.19 0 6.472.596 13.08 1.843 19.78 3.021 16.22 26.01 84.23 102.1 84.23 57.49 0 103.1-46.51 103.1-104C423.1 201.1 395.8 200.9 390.7 200.9zM319.1 304c-36.19 0-53.47-30.08-55.62-49.57 12.07 3.094 24.52 4.766 37.12 5.785L320 288l18.51-27.77c12.6-1.016 25.05-2.691 37.11-5.781C372.4 282.3 348.7 304 319.1 304z"/></svg>