<svg xmlns="http://www.w3.org/2000/svg" viewBox="0 0 640 512"><!--! Font Awesome Pro 6.1.1 by @fontawesome - https://fontawesome.com License - https://fontawesome.com/license (Commercial License) Copyright 2022 Fonticons, Inc.--><path d="M150.7 92.77C195 58.27 251.8 32 320 32c80.8 0 145.5 36.84 192.6 80.6 46.8 43.4 78.1 94.5 92.9 131.1 3.3 7.9 3.3 16.7 0 24.6-13.4 32.3-40.3 77.8-79.9 118.4l105.2 82.4c10.4 8.2 12.3 23.3 4.1 33.7-8.2 10.4-23.3 12.3-33.7 4.1L9.196 42.89C-1.236 34.71-3.065 19.63 5.112 9.196 13.29-1.236 28.37-3.065 38.81 5.112L150.7 92.77zm39.1 30.73 46 36c22.5-19.6 52-31.5 84.2-31.5 70.7 0 128 57.3 128 128 0 21.2-5.1 41.1-14.2 58.7l53.8 42.2c33.5-34.1 58.3-73.8 71-100.9-14.5-30.9-40.2-72.5-78.7-108.3-41.1-38.1-94.7-68.6-159.9-68.6-50.5 0-94.9 18.63-130.2 44.4zm205.1 160.7c3.3-8.8 5.1-18.3 5.1-29.1 0-43.3-35.8-80-80-80-.7 0-1.3.9-2.9.9 2.2 5.1 2.9 10.5 2.9 15.1 0 11.1-2.4 20.7-6.6 29.2l81.5 63.9zm-1.3 185.2L54.65 203.7c7.95-13.6 17.43-27.9 28.44-42.2l363.11 286c-16.4 8.9-33.9 16.3-52.6 21.9zM34.46 268.3c-2.72-6.5-3.19-13.8-1.38-20.5l80.22 62.8c12.8 18.1 28.4 36.6 46.8 53.7 26.5 24.6 58.3 44.8 95 57.5l74.1 58c-3.1.1-6.1.2-9.2.2-80.8 0-145.5-36.8-192.6-80.6-46.78-44.3-78.06-95.4-92.94-131.1z"/></svg>