<svg xmlns="http://www.w3.org/2000/svg" viewBox="0 0 512 512"><!--! Font Awesome Pro 6.1.1 by @fontawesome - https://fontawesome.com License - https://fontawesome.com/license (Commercial License) Copyright 2022 Fonticons, Inc.--><path d="m392.2 375.8 15.6-15.6c4.9-4.9 12.4-6.1 18.5-3l58.1 29c29.3 14.7 35.7 53.7 12.5 76.9l-1.8 1.8c-23.2 23.2-62.2 16.8-76.9-12.5l-29-58.1c-3.1-6.1-1.9-13.6 3-18.5zm88.3 56.7c4.7-4.7 4.7-12.3 0-17-4.7-4.7-12.3-4.7-17 0l-16 16c-4.7 4.7-4.7 12.3 0 17 4.7 4.7 12.3 4.7 17 0l16-16zM256 48C141.1 48 48 141.1 48 256s93.1 208 208 208c42.5 0 81.1-12.7 114.9-34.6l18.7 37.3c1 2 2 3.9 3.1 5.8-39.5 25-86.4 39.5-136.7 39.5C114.6 512 0 397.4 0 256S114.6 0 256 0s256 114.6 256 256c0 34.9-7 68.1-19.6 98.4l-43.1-21.5c9.5-23.8 14.7-49.7 14.7-76.9 0-114.9-93.1-208-208-208zm-47.6 160c0 17.7-14.4 32-32 32-17.7 0-32-14.3-32-32s14.3-32 32-32c17.6 0 32 14.3 32 32zm96 0c0-17.7 14.3-32 32-32 17.6 0 32 14.3 32 32s-14.4 32-32 32c-17.7 0-32-14.3-32-32zM208 320c8.8 0 16 7.2 16 16v32c0 8.8-7.2 16-16 16s-16-7.2-16-16v-32c0-8.8 7.2-16 16-16zm80 48c0 8.8-7.2 16-16 16s-16-7.2-16-16v-32c0-8.8 7.2-16 16-16s16 7.2 16 16v32zm48-48c8.8 0 16 7.2 16 16v32c0 8.8-7.2 16-16 16s-16-7.2-16-16v-32c0-8.8 7.2-16 16-16zm-176 48c0 8.8-7.2 16-16 16s-16-7.2-16-16v-32c0-8.8 7.2-16 16-16s16 7.2 16 16v32z"/></svg>