<svg xmlns="http://www.w3.org/2000/svg" viewBox="0 0 512 512"><!--! Font Awesome Pro 6.1.1 by @fontawesome - https://fontawesome.com License - https://fontawesome.com/license (Commercial License) Copyright 2022 Fonticons, Inc.--><path d="M256 47.1c-114.9 0-208 94-208 208 0 59 24.55 113.1 64 151v10.7c0 21.9 5.5 42.5 15.3 60.6C51.17 432.1 0 350.5 0 256 0 114.6 114.6 0 256 0s256 114.6 256 256c0 113.1-73.3 209.1-175.1 242.9l49-49c11.7-11.7 16.1-27.9 13.2-43C439.1 369 464 315.4 464 256c0-114.9-93.1-208-208-208v-.9zm-47.6 160c0 18.6-14.4 32-32 32-17.7 0-32-13.4-32-32 0-16.8 14.3-32 32-32 17.6 0 32 15.2 32 32zm96 0c0-16.8 14.3-32 32-32 17.6 0 32 15.2 32 32 0 18.6-14.4 32-32 32-17.7 0-32-13.4-32-32zm-5.1 69.6c6.3 6.2 6.3 16.4 0 22.6L248 350.6a6.64 6.64 0 0 0 0 9.4c2.6 2.6 6.8 2.6 9.4 0l67.3-67.3c6.2-6.3 16.4-6.3 22.6 0 6.3 6.2 6.3 16.4 0 22.6L280 382.6a6.64 6.64 0 0 0 0 9.4c2.6 2.6 6.8 2.6 9.4 0l51.3-51.3c6.2-6.3 16.4-6.3 22.6 0 6.3 6.2 6.3 16.4 0 22.6L312 414.6a6.64 6.64 0 0 0 0 9.4c2.6 2.6 6.8 2.6 9.4 0l19.3-19.3c6.2-6.3 16.4-6.3 22.6 0 6.3 6.2 6.3 16.4 0 22.6l-56.8 56.8c-17.8 17-42.1 27.9-67.3 27.9-52.6 0-95.2-42.6-95.2-95.2v-86.4c0-11 8.1-20 20-20 11 0 20 9 20 20v19.7c0 7.1 8.6 10.7 13.7 5.6l79-79c6.2-6.3 16.4-6.3 22.6 0z"/></svg>