<svg xmlns="http://www.w3.org/2000/svg" viewBox="0 0 512 512"><!--! Font Awesome Pro 6.1.1 by @fontawesome - https://fontawesome.com License - https://fontawesome.com/license (Commercial License) Copyright 2022 Fonticons, Inc.--><path d="M256 464c114.9 0 208-93.1 208-208S370.9 48 256 48 48 141.1 48 256c0 17.7 2.21 34.8 6.36 51.2C40.78 317.4 32 333.7 32 352v28C11.61 343.3 0 301 0 256 0 114.6 114.6 0 256 0s256 114.6 256 256-114.6 256-256 256c-10.6 0-21.1-.6-31.4-1.9 4-5.7 7.3-12 9.8-18.8l10-27.6c3.9.2 7.7.3 11.6.3zm12.3-156.4-30.4 10.5-65.6-14.5c-8.6-2-13.9-10.7-11.9-19.3 2-8.6 10.7-13.9 19.3-11.9l97 22.9c8.2 1.9 15.7 5.3 22.3 9.8-9.9-2-20.5-1.4-30.7 2.5zM208.4 192c0 17.7-14.4 32-32 32-17.7 0-32-14.3-32-32s14.3-32 32-32c17.6 0 32 14.3 32 32zm96 16c0-17.7 14.3-32 32-32 17.6 0 32 14.3 32 32s-14.4 32-32 32c-17.7 0-32-14.3-32-32zm-88-63.2c-20.5-17.6-49.9-20.4-74.3-6.9l-6.2 4c-7.6 4.4-17.4 1.7-21.8-6-4.4-7.6-1.7-17.4 6-21.8l7-4c35.2-20.15 79.3-15.96 110.1 10.4l13.2 11.4c6.7 5.7 7.5 15.8 1.7 22.5-5.7 6.7-15.8 7.5-22.5 1.7l-13.2-11.3zM112 400.4l167.6-62.9c11.5-4.6 26.2 1.7 30.9 14.1 4.6 11.5-1.7 26.2-14.1 30.9L230.9 407l-.3 1.2-26.3 72.2c-6.9 19-24.9 31.6-45.1 31.6H112c-26.51 0-48-21.5-48-48V352c0-13.3 10.75-24 24-24 13.3 0 24 10.7 24 24v48.4z"/></svg>