<svg xmlns="http://www.w3.org/2000/svg" viewBox="0 0 640 512"><!--! Font Awesome Pro 6.1.1 by @fontawesome - https://fontawesome.com License - https://fontawesome.com/license (Commercial License) Copyright 2022 Fonticons, Inc.--><path d="M224.6 180.7c4.6-17 22.1-27.2 39.2-22.6 17.1 4.6 26.3 22.1 22.6 39.2-4.6 17.1-22.1 27.2-39.2 22.6-17-4.5-27.2-22.1-22.6-39.2zm215.5 58c-3.7 17.1-21.3 27.2-38.3 22.6-17.1-4.5-27.2-22.1-22.7-39.1 4.6-17.1 22.2-28.1 39.2-22.7 17.1 4.6 27.2 22.1 21.8 39.2zm-147 101.8c39.1 10.4 71.8-1.7 93.2-16.2 11-7.4 25.9-4.5 33.3 6.4 7.5 11 4.6 25.9-6.4 33.4-29.5 19.9-76.5 37.7-132.5 22.7-56.1-15-87.9-53.9-103.4-86-5.8-11.9-.9-26.2 11-32 12-6.7 26.3-.9 32.1 11.1 11.3 23.2 33.6 49.2 72.7 60.6zM0 488c0-13.3 10.75-24 24-24h22.39c38.86 0 61.91-59 44.53-93.7-26.96-54-35.04-117.7-18.2-180.6C109.3 53.18 249.7-27.87 386.3 8.723 522.8 45.32 603.9 185.7 567.3 322.3c-5.9 21.8 9.2 44.8 31.8 45.7H616c13.3 0 24 10.7 24 24s-10.7 24-24 24h-64c-13.3 0-24 10.7-24 24s10.7 24 24 24 24 10.7 24 24-10.7 24-24 24H325.8c-3.7.1-7.5.1-11.3 0H24c-13.25 0-24-10.7-24-24zm324.8-24h159.3c-2.7-7.5-4.1-15.6-4.1-24 0-31.4 20.1-58.1 48.1-67.9-9.8-19.4-12.6-42.2-7.2-62.3 29.7-110.9-36.1-224.98-147.1-254.71-110.9-29.73-225 36.11-254.7 147.11-13.7 51.1-7.2 102.7 14.8 146.6 16.7 33.5 12.3 72.4-.3 100.8-2 4.7-4.6 9.5-7.6 14.4h189.6c3 .1 6.1.1 9.2 0z"/></svg>