<svg xmlns="http://www.w3.org/2000/svg" viewBox="0 0 512 512"><!--! Font Awesome Pro 6.1.1 by @fontawesome - https://fontawesome.com License - https://fontawesome.com/license (Commercial License) Copyright 2022 Fonticons, Inc.--><path d="M256 464c114.9 0 208-93.1 208-208S370.9 48 256 48 48 141.1 48 256c0 8.7.54 17.3 1.58 25.7l-41.47 7c-2.001-.6-3.96.7-5.869 1.3-1.477-11.1-2.24-22.5-2.24-34C.002 114.6 114.6 0 256 0c141.4 0 256 114.6 256 256S397.4 512 256 512c-11.5 0-22.9-.8-34.9-2.2 1.5-1.9 1.9-3.9 2.2-5.9l7-41.5c8.4 1.1 17 1.6 25.7 1.6zm-4.3-130.2 4.3 3.5 25-20c8.2-6.6 19.6-7.1 28.3-1.3l31.6 21.1L351 327c9.4-9.3 24.6-9.3 33.1 0 10.2 9.4 10.2 24.6 0 33.1l-24 24c-7.2 9-19.9 10.2-29.4 3l-33.4-21.4-27.2 21c-7.3 6.6-18.8 7-27.4.4l9-53.3zM116 141.1c0-8.9 9.6-14.7 17.5-10.4l89.9 47.9c10.7 5.7 10.7 21.1 0 26.8l-89.9 47.9c-7.9 4.3-17.5-1.5-17.5-10.4 0-2.8.1-5.5 2.8-7.7l36-43.2-36-43.2c-2.7-2.2-2.8-4.9-2.8-7.7zm262.5-10.4c7.9-4.3 17.5 1.5 17.5 10.4 0 2.8-1 5.5-2.8 7.7l-36 43.2 36 43.2c1.8 2.2 2.8 4.9 2.8 7.7 0 8.9-9.6 14.7-17.5 10.4l-89.9-47.9c-10.7-5.7-10.7-21.1 0-26.8l89.9-47.9zm-159.2 162c2.8 3.6 5.3 8.8 4.5 13.9l-32 192c-1.1 6.7-6.3 12-13 13.2-6.6 1.1-13.3-2-16.7-7.9l-26-45.4-84.22 21c-5.45 1.4-11.22-.2-15.19-4.2-3.98-4-5.57-9.7-4.21-15.2l21.06-84.2-45.477-26c-5.876-3.4-9.004-10.1-7.812-16.7 1.191-6.7 6.445-11.9 13.119-13l192.03-32c5.1-.8 10.3.8 13.9 4.5z"/></svg>