<svg xmlns="http://www.w3.org/2000/svg" viewBox="0 0 576 512"><!--! Font Awesome Pro 6.1.1 by @fontawesome - https://fontawesome.com License - https://fontawesome.com/license (Commercial License) Copyright 2022 Fonticons, Inc.--><path d="M288 464c45.3 0 87.1-14.5 121.3-39.9l6.8 3.2c3.5 14.4 10 27.2 21.4 36.5C395.4 494.1 343.8 512 288 512 146.6 512 32 397.4 32 256S146.6 0 288 0s256 114.6 256 256c0 2.8-.9 5.6-.1 8.5-2.7-.3-5.4-.5-8.1-.5-15.2 0-29.2 4.7-41.7 12.7 1.6-6.8 1.9-14.6 1.9-20.7 0-114.9-93.1-208-208-208S80 141.1 80 256s93.1 208 208 208zm-40-80c0-22.1 17.9-40 40-40s40 17.9 40 40-17.9 40-40 40-40-17.9-40-40zm161-141.7c7.6-8 20.2-8.4 28.3-.9 8.1 6.7 8.5 20.2.9 28.3-14.5 15.5-36.1 21.4-54.6 21.4-19.3 0-40-5.9-54.6-21.4-7.5-8.1-7.1-21.6.9-28.3 8.1-7.5 20.8-7.1 28.3.9 5.5 5.9 13.9 8.8 25.4 8.8 10.7 0 20-2.9 25.4-8.8zm-242.8 0c5.5 5.9 13.9 8.8 25.4 8.8 10.7 0 20-2.9 25.4-8.8 7.6-8 20.2-8.4 28.3-.9 8.1 6.7 8.5 20.2.9 28.3-14.5 15.5-36.1 21.4-54.6 21.4-19.3 0-40-5.9-54.6-21.4-7.5-8.1-7.1-21.6.1-28.3 8.9-7.5 21.6-7.1 29.1.9zM608 383.1c0 22-13.6 40-32.6 46.4 0 .8.1 1.7.1 2.5 0 22.1-17.9 40-40 40-14.1 0-26.6-7.4-33.7-18.5a40 40 0 0 1-14 2.5c-22 0-39.9-17.9-39.9-40 0-2.7.2-5.3.7-7.8L368 384l79.9-24c0-22.1 17.9-40.9 39.9-40.9 3.7 0 6.3 1.4 10.5 2.3 5.9-14.9 20.3-26.3 37.2-26.3 22.1 0 40 18.8 40 40.9 0 .8-.1 1.7-.1 2.5 19 6.4 32.6 24.4 32.6 44.6z"/></svg>