<svg xmlns="http://www.w3.org/2000/svg" viewBox="0 0 576 512"><!--! Font Awesome Pro 6.1.1 by @fontawesome - https://fontawesome.com License - https://fontawesome.com/license (Commercial License) Copyright 2022 Fonticons, Inc.--><path d="M224 216c0 13.3-10.7 24-24 24s-24-10.7-24-24 10.7-24 24-24 24 10.7 24 24zm128 0c0-13.3 10.7-24 24-24s24 10.7 24 24-10.7 24-24 24-24-10.7-24-24zm192-24c0 4.7-2.9 8.1-5.3 11.9 3.5 16.8 5.3 34.2 5.3 52.1 0 141.4-114.6 256-256 256S32 397.4 32 256c0-17.9 1.83-35.3 5.31-52.1-3.26-3.8-5.31-7.2-5.31-11.9 0-7.7 5.41-14.1 12.63-15.6C78.12 73.97 174.4 0 288 0s209.9 73.97 243.4 176.4c7.2 1.5 12.6 7.9 12.6 15.6zm-53.6 16H472c0 50.1-38.4 91.2-87.3 95.6 9.6 7.9 15.3 19.7 15.3 32.4 0 15.9-9 30.4-23.1 37.5l19.6 24.5c5.5 6.9 4.4 16.1-3.4 22.5-6 5.5-16.1 4.4-21.6-3.4l-23.9-29-7.3 3.6 10.6 26.4c3.2 8.2-.8 17.5-9 20.8-8.2 3.2-17.5-.8-20.8-9l-9.9-24.9c-2.4.7-4.8 1.3-7.2 1.8V432c0 8.8-7.2 16-16 16s-16-7.2-16-16v-25.2c-2.4-.5-4.8-1.1-7.2-1.8l-9.9 24.9c-3.3 8.2-12.6 12.2-20.8 9-8.2-3.3-12.2-12.6-9-20.8l10.6-26.4-7.3-3.6-23.9 29c-6.4 7.8-15.6 8.9-22.5 3.4-6.9-6.4-8.9-15.6-2.5-22.5l19.6-24.5c-15-7.1-23.1-21.6-23.1-37.5 0-12.7 5.7-24.5 15.3-32.4-48.9-4.4-87.3-45.5-87.3-95.6H85.57C81.93 223.4 80 239.5 80 256c0 114.9 93.1 208 208 208s208-93.1 208-208c0-16.5-1.9-32.6-5.6-48zm-226.8 7.3c.3-2.4.4-4.8.4-7.3 0-35.3-28.7-64-64-64s-64 28.7-64 64 28.7 64 64 64c9.3 0 18.1-2 26.1-5.5.6-.3 1.5-.8 2.6-1.4l21.3-35.6c3.5-5.8 8.2-10.6 13.6-14.2zM312 208c0 2.5.1 4.9.4 7.3 5.4 3.6 10.1 8.4 12.7 14.2l22.2 35.6c1.1.6 2 1.1 2.6 1.4 8 3.5 16.8 5.5 26.1 5.5 35.3 0 64-28.7 64-64s-28.7-64-64-64-64 28.7-64 64zM95.94 176h13.56c3.4-9.6 8.3-18.6 14.4-26.5l-1.4-2.8c-2.2-4.3-2.9-9.1-2.3-13.6-9.7 13.2-17.9 27.6-24.26 42.9zm359.86-42.9c.6 4.5-.1 9.3-2.3 13.6l-1.4 2.8c6.1 7.9 11 16.9 14.4 26.5h13.6c-6.4-15.3-14.6-29.7-24.3-42.9zm-318.9-20c9-2.8 18.7-.1 24.9 6.8 2-.9 4.1-1.7 6.2-2.4V112c0-13.25 10.7-24 24-24s24 10.75 24 24v1.3c1.5.3 2.9.6 4.4.9 6.7-9.6 18.7-13 30.3-7.7 10.8 5.4 15.8 17.8 12.1 28.9 10.8 9.3 19.4 21 24.3 34.2 6.7-13.2 15.3-24.9 26.1-34.2-3.7-11.1 1.3-23.5 12.1-28.9 10.7-5.3 23.6-1.9 30.3 7.7 1.5-.3 2.9-.6 4.4-.9V112c0-13.25 10.7-24 24-24s24 10.75 24 24v5.5c2.1.7 4.2 1.5 6.2 2.4 6.2-6.9 15.9-9.6 24.9-6.8C401.2 73 347.5 48 287.1 48c-58.6 0-112.3 25-150.2 65.1zM288 240c-4.3 0-8.3 2.3-10.5 5.1l-42.2 71.1-21.8 11c-3.4 1.6-5.5 5.1-5.5 8.8 0 3.7 2.1 7.2 5.5 8.8l53 26.6c13.5 6.7 28.6 6.7 43 0l53-26.6c3.4-1.6 5.5-5.1 5.5-8.8 0-3.7-2.1-7.2-5.5-8.8l-21.8-11-42.2-71.1c-2.2-2.8-6.2-5.1-10.5-5.1z"/></svg>