<svg xmlns="http://www.w3.org/2000/svg" viewBox="0 0 640 512"><!--! Font Awesome Pro 6.1.1 by @fontawesome - https://fontawesome.com License - https://fontawesome.com/license (Commercial License) Copyright 2022 Fonticons, Inc.--><path d="m169.9 155.4 3.3-3.3c14.3-9.5 34.3-6.4 44.7 7.9 10.4 14.3 7.3 34.3-7 44.7l-82.4 59.9c-29.33 21.3-69.38 20.2-97.52-2.7l-1.49-1.2c-41.55-33.8-38.747-98.2 5.6-128.2L222.2 5.523c14.6-9.923 34.5-6.11 44.4 8.517 9.9 14.62 6.1 34.52-8.5 44.44l-131 88.32v39l42.8-30.4zM352 0c141.4 0 256 114.6 256 256S493.4 512 352 512c-122.9 0-225.5-86.5-250.3-202 15.9-2.9 31.4-9.3 45.2-19.2C163.4 389.1 248.1 464 352 464c114.9 0 208-93.1 208-208S466.9 48 352 48c-17.9 0-35.3 2.27-52 6.54 5.9-15.56 5.6-33.18-1.5-48.931C315.7 1.934 333.6 0 352 0zm-79.6 176c17.6 0 32 14.3 32 32s-14.4 32-32 32c-14 0-25.8-8.9-30.2-21.4 8.7-11 13.5-24.4 13.8-38.1 4.8-2.9 10.4-4.5 16.4-4.5zM352 355c40.6 0 67.9-12 82.5-21.9 11-7.4 25.9-4.6 33.4 6.4 7.4 11 4.5 25.9-6.4 33.4C438.1 388.1 402.3 403 352 403s-87-14.9-109.5-30.1c-10.9-7.5-13.8-22.4-6.4-33.4 7.5-11 22.4-13.8 33.4-6.4C284.1 343 311.4 355 352 355zm48.4-147c0-17.7 14.3-32 32-32 17.6 0 32 14.3 32 32s-14.4 32-32 32c-17.7 0-32-14.3-32-32z"/></svg>