<svg xmlns="http://www.w3.org/2000/svg" viewBox="0 0 512 512"><!--! Font Awesome Pro 6.1.1 by @fontawesome - https://fontawesome.com License - https://fontawesome.com/license (Commercial License) Copyright 2022 Fonticons, Inc.--><path d="M256 408c-5.2 0-8.5 2.3-10.5 4.4-9 9.7-24.2 10.2-33.9 1.1-9.7-9-10.2-24.2-1.1-33.9 8.8-9.5 24.1-19.6 45.5-19.6s36.7 10.1 45.5 19.6c9.1 9.7 8.6 24.9-1.1 33.9-9.7 9.1-24.9 8.6-33.9-1.1-2-2.1-5.3-4.4-10.5-4.4zM128 240c17.7 0 32-14.3 32-32 17.7 0 32 14.3 32 32s-14.3 32-32 32-32-14.3-32-32zm-48 0c0-18.9 5.95-34.6 15.99-48-7.95 0-14.85-5.9-15.87-14.9-1.09-7.9 5.13-15.9 13.9-17l11.48-1.4c24.6-3.2 46.6-21.3 53.6-45.9l1.5-5.2c2.4-8.49 11.3-13.41 19.8-10.98 8.5 2.42 13.4 11.28 11 19.78l-1.5 5.1c-4.2 14.8-11.8 28.1-21.9 38.9 40.5 4 72 38.1 72 79.6 0 44.2-35.8 80-80 80s-80-35.8-80-80zm80 48c26.5 0 48-21.5 48-48s-21.5-48-48-48-48 21.5-48 48 21.5 48 48 48zm224-48c0 17.7-14.3 32-32 32s-32-14.3-32-32c17.7 0 32-14.3 32-32 17.7 0 32 14.3 32 32zm48 0c0 44.2-35.8 80-80 80s-80-35.8-80-80c0-41.5 31.5-75.6 71.1-79.6-9.2-10.8-16.8-24.1-21-38.9l-1.5-5.1c-2.4-8.5 2.5-17.36 11-19.78 8.5-2.43 16.5 2.49 19.8 10.98l1.5 5.2c7 24.6 28.1 42.7 53.6 45.9l10.6 1.4c9.7 1.1 15 9.1 14.8 17-1 9-8.8 14.9-15.9 14.9 10 13.4 16 29.1 16 48zm-80-48c-26.5 0-48 21.5-48 48s21.5 48 48 48 48-21.5 48-48-21.5-48-48-48zm160 64c0 141.4-114.6 256-256 256S0 397.4 0 256 114.6 0 256 0s256 114.6 256 256zM256 48C141.1 48 48 141.1 48 256s93.1 208 208 208 208-93.1 208-208S370.9 48 256 48z"/></svg>