<svg xmlns="http://www.w3.org/2000/svg" viewBox="0 0 512 512"><!--! Font Awesome Pro 6.1.1 by @fontawesome - https://fontawesome.com License - https://fontawesome.com/license (Commercial License) Copyright 2022 Fonticons, Inc.--><path d="M256 464c47 0 90.4-15.6 125.2-41.9 2.7 14 2.8 29.7 2.8 41.9 0 4.5.4 8.9 1.1 13.1-37.9 22.2-82 34.9-129.1 34.9C114.6 512 0 397.4 0 256S114.6 0 256 0s256 114.6 256 256c0 36.1-7.8 72.1-22 103.9-7.3-6.3-15.9-11.8-22.6-16.8-5.8-3.7-11.8-7.3-17.9-10.5C458.8 308.9 464 283 464 256c0-114.9-93.1-208-208-208S48 141.1 48 256s93.1 208 208 208zm0-116.9c34.8 0 64.1 17.7 80.1 42.4 6.8 11.1-6 20.7-18.3 16.4-18.9-6.5-39.8-10.1-61.8-10.1-21.9 0-42.8 3.6-61.7 10.1-13.2 4.3-25.1-5.3-19.2-16.4 16-24.7 46.2-42.4 80.9-42.4zm70.2-96.8c5.5 5.9 13.9 9.7 25.4 9.7 10.7 0 20-3.8 25.4-9.7 7.6-8 20.2-8.4 28.3-.9 8.1 6.7 8.5 20.2.9 28.3-14.5 15.5-36.1 22.3-54.6 22.3-19.3 0-40-6.8-54.6-22.3-7.5-8.1-7.1-21.6.9-28.3 8.1-7.5 20.8-7.1 28.3.9zm-141.2 0c7.6-8 20.2-8.4 28.3-.9 8.1 6.7 8.5 20.2.9 28.3-14.5 15.5-36.1 22.3-54.6 22.3-19.3 0-40-6.8-54.6-22.3-7.52-8.1-7.11-21.6.9-28.3 8.1-7.5 20.8-7.1 28.3.9 5.5 5.9 13.9 9.7 25.4 9.7 10.7 0 20-3.8 25.4-9.7zM464 512c-26.5 0-48-21.5-48-48 0-32 0-102.4-64-128 48 0 160 48 160 128 0 26.5-21.5 48-48 48z"/></svg>