<svg xmlns="http://www.w3.org/2000/svg" viewBox="0 0 576 512"><!--! Font Awesome Pro 6.1.1 by @fontawesome - https://fontawesome.com License - https://fontawesome.com/license (Commercial License) Copyright 2022 Fonticons, Inc.--><path d="M288 464c20.9 0 41-3.1 60-8.8 3.1 8.7 8.2 16.9 15.1 23.9 1.3 1.3 2.7 2.5 4 3.7.3 5.3 1.3 10.6 2.9 15.8-25.7 8.7-53.3 13.4-82 13.4-29.4 0-57.6-5-83.9-14.1 1.7-5.2 2.7-10.6 3-16 1.4-1.2 2.7-2.4 4-3.7 6-6.9 11-15 15-23.6 19.5 6.1 40.3 9.4 61.9 9.4zm0-416C173.1 48 80 141.1 80 256c0 20.8 3.05 40.8 8.72 59.8-9.04 3-17.52 7.3-25.62 15.3-.39 1.3-1.61 2.7-2.77 4-5.06.3-10.09 1.2-14.98 2.7C36.69 312.1 32 284.6 32 256 32 114.6 146.6 0 288 0s256 114.6 256 256c0 29.1-4.9 57-13.8 83.1-5.3-1.7-10.8-2.8-16.3-3.1-1.2-1.3-2.4-2.7-3.7-4-6.8-6.8-14.8-11.8-23.3-14.9 5.9-19.3 9.1-39.8 9.1-61.1 0-114.9-93.1-208-208-208zm89.9 395.6c-3.5-11-.9-24.5 7.9-32.4 4.3-4.3 9.7-7.2 15.3-8.5L352 320.9l81.8 48.2c1.3-4.7 3.3-10.1 8.5-14.4 8.9-8.9 20.8-11.5 32.8-7.8 4.6 1.6 8 4.1 12.5 7.8.6.6 1.3.4 1.8 2 3.6 4.2 5.9 9.2 7 14.4 4.9-2.4 10.3-3.4 15.7-4 1.9 1 3.8 1.3 5.8 1.7 5.5 1.4 10.7 3.3 15 8.5 12.4 12.5 12.4 32.7 0 45.2-2.1 2.1-4.4 3.8-6.8 5.2 14.5 18.8 13.1 45.9-4.2 63.1-17.2 17.3-44.3 18.6-63.1 3.3-1.4 3.3-3.1 5.6-5.1 7.6-12.5 12.5-32.8 12.5-45.3 0-5.3-5.3-8.3-11.9-9.2-18.8 0-.7-.1-1.3-.1-2-.1-1.3-.1-2.6 0-4 .3-4 1.3-8 3.1-11.7-5.2-1-10.2-3.3-14.4-6.9-.7-.5-1.4-1.2-2-1.8-3.8-3.8-6.4-8.2-7.9-12.9zm-203.5 41.9c-1.3 5.6-4.2 11-8.6 15.4-12.5 12.5-32.7 12.5-45.2 0-2.1-2.1-3.8-4.4-5.2-6.8-18.81 14.5-45.89 13.1-63.12-4.2-17.23-17.2-18.62-44.3-4.17-63.1-2.41-1.4-4.68-3.1-6.74-5.1-12.49-12.5-12.49-32.8 0-45.3 4.61-4.6 10.27-7.5 16.21-8.7 1.52-.3 3.05-.5 4.59-.6 5.35-.3 10.76.7 15.69 3.1 1.02-5.2 3.33-10.2 6.92-14.4.58-.7 1.2-1.4 1.85-2 3.94-4 8.65-6.7 13.67-8.1 10.8-3.2 23-.5 31.6 8.1 4.4 4.4 7.2 9.7 8.5 15.3l81.8-49.1-49.1 81.8c5.6 1.3 11 3.3 15.3 8.5 8.8 8.8 11.4 21.4 7.9 32.4-1.5 4.7-4.1 9.2-7.9 12.9-.6.6-1.3 1.3-2 1.8-4.2 3.6-9.2 5.9-14.4 7 2.4 4.9 3.4 10.3 3.1 15.7-.1 1.8-.3 3.6-.7 5.4zM240 224c8.8 0 16 7.2 16 16s-7.2 16-16 16h-96c-8.8 0-16-7.2-16-16s7.2-16 16-16h96zm192 0c8.8 0 16 7.2 16 16s-7.2 16-16 16h-96c-8.8 0-16-7.2-16-16s7.2-16 16-16h96zm-.8-101.1c1.9 8.4-1.8 17.5-10.1 20.3-35.6 11.8-64.5 33.9-73.8 44.1-6.2 6.3-16.4 6.3-22.6 0-6.3-6.2-6.3-16.4 0-22.6 12-12 45-38.1 86.2-51.9 8.4-2.8 17.5 1.8 20.3 10.1zm-266.1-10.1c41.2 13.8 74.2 39.9 86.2 51.9 6.3 6.2 6.3 16.4 0 22.6-6.2 6.3-16.4 6.3-22.6 0-9.3-10.2-38.2-32.3-73.8-44.1-8.3-2.8-12.9-11.9-10.1-20.3 2.8-8.3 11.9-12.9 20.3-10.1zm-102 218.3 4.91 4.1z"/></svg>