<svg xmlns="http://www.w3.org/2000/svg" viewBox="0 0 576 512"><!--! Font Awesome Pro 6.1.1 by @fontawesome - https://fontawesome.com License - https://fontawesome.com/license (Commercial License) Copyright 2022 Fonticons, Inc.--><path d="M272 152c0-39.8 32.2-72 72-72s72 32.2 72 72-32.2 72-72 72-72-32.2-72-72zm33.2-9.7c-.8 3.1-1.2 6.3-1.2 9.7 0 22.1 17.9 40 40 40s40-17.9 40-40-17.9-40-40-40c-3.9 0-6 .3-8.8.1 9.9 3.8 17.2 13 17.2 23.9 0 13.3-10.8 24-24 24-11.1 0-20.5-7.5-23.2-17.7zM176 240c-8.8 0-16-7.2-16-16s7.2-16 16-16 16 7.2 16 16-7.2 16-16 16zm64-16c0 35.3-28.7 64-64 64s-64-28.7-64-64 28.7-64 64-64 64 28.7 64 64zm-64-32c-17.7 0-32 14.3-32 32s14.3 32 32 32 32-14.3 32-32-14.3-32-32-32zm240 285.7c-27.9 16.1-57.5 26.3-87.5 31.1-7.8 2.1-16 3.2-24.5 3.2-1.9 0-3.7-.1-5.6-.2-92 3.7-182.9-42.5-232.1-127.8-70.695-122.4-28.74-279.9 92.8-349.7C282.4-36.4 439 5.557 509.7 127.1 580.4 250.4 538.4 407 416 477.7zM183.1 75.87C84.51 133.3 50.43 260.5 107.9 360c25 43.3 63.1 74.2 106.5 90.6-4.1-10.8-6.4-22.4-6.4-34.6v-7.8c-10.4-6.3-20.1-13.7-28.9-22.3-11-10.8-6.6-26.3 5.7-33.4l238.4-137.6c12.3-7.1 28.2-2 30.9 11.8 16 59.4-5 124.1-54.1 165V416c0 5.5-.5 10.9-1.3 16.1 93.4-60 125.6-182.9 69.4-281C410.7 52.51 283.5 18.43 184 75.87h-.9zM368 416v-37.4c0-14.7-11.9-26.6-26.6-26.6h-2c-11.3 0-21.1 7.9-23.6 18.9-3.7 12.6-20.8 12.6-23.6 0-2.5-11-12.3-18.9-23.6-18.9h-2c-14.7 0-26.6 11.9-26.6 26.6V416c0 35.3 28.7 64 64 64s64-28.7 64-64z"/></svg>