<svg xmlns="http://www.w3.org/2000/svg" viewBox="0 0 512 512"><!--! Font Awesome Pro 6.1.1 by @fontawesome - https://fontawesome.com License - https://fontawesome.com/license (Commercial License) Copyright 2022 Fonticons, Inc.--><path d="M128 240c17.7 0 32-14.3 32-32 17.7 0 32 14.3 32 32s-14.3 32-32 32-32-14.3-32-32zm112 64c0 8.8-7.2 16-16 16s-16-7.2-16-16c-13.4 10-30 16-48 16-11.4 0-22.2-2.4-32-6.7v6.7c0 8.8-7.2 16-16 16s-16-7.2-16-16v-32c-10.05-13.4-16-30-16-48 0-18.9 5.95-34.6 15.99-48-7.95 0-14.85-5.9-15.87-14.9-1.09-7.9 5.13-15.9 13.9-17l11.48-1.4c24.6-3.2 46.6-21.3 53.6-45.9l1.5-5.2c2.4-8.49 11.3-13.41 19.8-10.98 8.5 2.42 13.4 11.28 11 19.78l-1.5 5.1c-4.2 14.8-11.8 28.1-21.9 38.9 40.5 4 72 38.1 72 79.6v64zm-80-112c-26.5 0-48 21.5-48 48s21.5 48 48 48 48-21.5 48-48-21.5-48-48-48zm224 48c0 17.7-14.3 32-32 32s-32-14.3-32-32c17.7 0 32-14.3 32-32 17.7 0 32 14.3 32 32zm32 80c0 8.8-7.2 16-16 16s-16-7.2-16-16v-6.7c-9.8 4.3-20.6 6.7-32 6.7-44.2 0-80-35.8-80-80 0-41.5 31.5-75.6 71.1-79.6-9.2-10.8-16.8-24.1-21-38.9l-1.5-5.1c-2.4-8.5 2.5-17.36 11-19.78 8.5-2.43 16.5 2.49 19.8 10.98l1.5 5.2c7 24.6 28.1 42.7 53.6 45.9l10.6 1.4c9.7 1.1 15 9.1 14.8 17-1 9-8.8 14.9-15.9 14.9 10 13.4 16 29.1 16 48 0 18-6 34.6-16 48v32zm-64-32c26.5 0 48-21.5 48-48s-21.5-48-48-48-48 21.5-48 48 21.5 48 48 48zm-41.6 74.5c8.9-9.7 24.1-10.3 33.9-1.4 9.7 9 10.3 24.2 1.3 34-17.3 18.7-47.3 38.9-89.6 38.9s-72.3-20.2-89.6-38.9c-9-9.8-9.3-25 1.3-34 9.8-8.9 25-8.3 33.9 1.4 10.5 11.4 28.5 23.5 54.4 23.5s43.9-12.1 54.4-23.5zM512 256c0 141.4-114.6 256-256 256S0 397.4 0 256 114.6 0 256 0s256 114.6 256 256zM256 48C141.1 48 48 141.1 48 256s93.1 208 208 208 208-93.1 208-208S370.9 48 256 48z"/></svg>