<svg xmlns="http://www.w3.org/2000/svg" viewBox="0 0 512 512"><!--! Font Awesome Pro 6.1.1 by @fontawesome - https://fontawesome.com License - https://fontawesome.com/license (Commercial License) Copyright 2022 Fonticons, Inc.--><path d="M256 368c30.4 0 51.2-13.1 63-25 9.4-9.3 24.6-9.3 33.1 0 10.2 9.4 10.2 24.6 0 33.1-18.2 20-50.7 39.9-96.1 39.9-45.4 0-77.9-19.9-97-39.9-9.3-8.5-9.3-23.7 0-33.1 9.4-9.3 24.6-9.3 33.1 0 12.7 11.9 33.5 25 63.9 25zm121-125.7c7.6-8 20.2-8.4 28.3-.9 8.1 6.7 8.5 20.2.9 28.3-14.5 15.5-36.1 22.3-54.6 22.3-19.3 0-40-6.8-54.6-22.3-7.5-8.1-7.1-21.6.9-28.3 8.1-7.5 20.8-7.1 28.3.9 5.5 5.9 13.9 9.7 25.4 9.7 10.7 0 20-3.8 25.4-9.7zm-242.8 0c5.5 5.9 13.9 9.7 25.4 9.7 10.7 0 20-3.8 25.4-9.7 7.6-8 20.2-8.4 28.3-.9 8.1 6.7 8.5 20.2.9 28.3-14.5 15.5-36.1 22.3-54.6 22.3-19.3 0-40-6.8-54.6-22.3-7.52-8.1-7.11-21.6.9-28.3 8.1-7.5 20.8-7.1 28.3.9zm73-135.4c1.9 8.4-1.8 17.5-10.1 20.3l-6.4 2.1c-23.6 7.9-43.9 23.4-58.6 44.1l-6.8 11.5c-4.9 7.3-14.8 9.3-22.2 4.4-7.33-4.9-9.31-14.8-4.41-22.2l7.61-11.4c17.8-26.7 43.9-46.6 74.3-56.77l6.3-2.11c8.4-2.79 17.5 1.74 20.3 10.08zm107.7 20.3c-8.3-2.8-12.9-11.9-10.1-20.3 2.8-8.34 11.9-12.87 20.3-10.08l6.3 2.11c30.4 10.17 56.5 30.07 74.3 56.77l7.6 11.4c4.9 7.4 2.9 17.3-4.4 22.2-7.4 4.9-17.3 2.9-22.2-4.4l-7.7-11.5c-13.8-20.7-34.1-36.2-57.7-44.1l-6.4-2.1zM512 256c0 141.4-114.6 256-256 256S0 397.4 0 256 114.6 0 256 0s256 114.6 256 256zM256 48C141.1 48 48 141.1 48 256s93.1 208 208 208 208-93.1 208-208S370.9 48 256 48z"/></svg>