<svg xmlns="http://www.w3.org/2000/svg" viewBox="0 0 512 512"><!--! Font Awesome Pro 6.1.1 by @fontawesome - https://fontawesome.com License - https://fontawesome.com/license (Commercial License) Copyright 2022 Fonticons, Inc.--><path d="M242.1 10.71c8 6.45 19.8 6.45 27.8 0C278.1 4.003 286.9 0 296 0c36.8 0 67.4 64.93 82.4 109.8 32.7-10.48 62.7-25.18 88.5-43.05 2.5-1.77 5.4-2.75 8.4-2.75 9 0 14.8 8.25 12.9 16.75C461.2 163.2 367.5 224 256 224 144.5 224 50.77 163.2 23.8 80.75 21.02 72.25 27.72 64 36.66 64c3.04 0 5.98.99 8.44 2.75 24.94 17.87 54.9 32.57 88.5 43.05C148.6 64.93 179.2 0 215.1 0c10 0 18.8 4.003 27 10.71zM117 224.7c-13.4 23.4-21 50.4-21 78.4C96 392.4 167.6 464 256 464s160-71.6 160-160.9c0-28-7.6-55-21.9-78.4 15.5-7.2 29.3-15.4 42.1-24.7 17.7 30.6 27.8 66.1 27.8 103.1C464 418.9 370.9 512 256 512S48 418.9 48 303.1c0-37 10.12-72.5 27.81-103.1 12.77 9.3 26.59 17.5 41.19 24.7zM256.2 436c-49.1 0-90-27.9-110.2-68.5-5.7-12.4 6.2-22.3 18.6-18.8 27.9 7.8 58.9 12.1 91.6 12.1 32.7 0 63.7-4.3 91.6-12.1 12.4-3.5 24.3 6.4 18.6 18.8-20.2 40.6-61.9 68.5-110.2 68.5zM168 280c0-13.3 10.7-24 24-24s24 10.7 24 24-10.7 24-24 24-24-10.7-24-24zm176 0c0 13.3-10.7 24-24 24s-24-10.7-24-24 10.7-24 24-24 24 10.7 24 24z"/></svg>