<svg xmlns="http://www.w3.org/2000/svg" viewBox="0 0 640 512"><!--! Font Awesome Pro 6.1.1 by @fontawesome - https://fontawesome.com License - https://fontawesome.com/license (Commercial License) Copyright 2022 Fonticons, Inc.--><path d="M503.7 353.6c15.5-29.1 24.3-62.3 24.3-97.6 0-19.9-2.8-39.2-8.9-57.4-2.8-12.7 4.6-26 17.4-29.7 12.7-3.6 26 3.8 29.6 16.5 6.5 22.4 9.9 46.1 9.9 70.6 0 37.4-8.9 73-22.5 105.1-15.3-8.6-33.1-12-49.8-7.5zm-55.6 66.3c-.8 16.9 4.5 33.2 15.7 47.9-41 27.9-90.5 44.2-143.8 44.2-61.3 0-117.6-21.6-161.7-57.6l13-13.1c7.3-8.2 11.8-15.9 16.1-25 36 29.8 82.2 47.7 132.6 47.7 48.3 0 92.8-16.5 128.1-44.1zM80.04 333.3c-1.7-1.3-3.45-2.4-5.23-3.5C67.78 306.5 64 281.7 64 256 64 114.6 178.6 0 320 0c37.7 0 73.6 8.181 105.9 22.89 12.1 5.49 17.4 19.72 11.9 31.78-5.4 12.07-19.7 17.4-31.7 11.91C379.9 54.65 350.7 48 320 48c-114.9 0-208 93.1-208 208 0 22.4 3.5 43.9 10.1 64.1-14.8-.2-29.55 4.2-42.06 13.2zm127.66-16.6c9.8-9 25-8.3 33.9 1.4 15.2 16.4 41.2 33.9 78.4 33.9s63.2-17.5 78.4-33.9c8.9-9.7 24.1-10.4 33.9-1.4 9.7 9 10.3 24.2 1.3 33.9C411.7 374.5 373.7 400 320 400c-53.7 0-91.7-25.5-113.6-49.4-9-9.7-9.3-24.9 1.3-33.9zm-21.8-86.1c-8-7.6-8.4-20.2-.9-28.3 14.6-15.5 35.3-22.3 54.6-22.3 18.5 0 40.1 6.8 54.6 22.3 7.6 8.1 7.2 20.7-.9 28.3-8.1 7.5-20.7 7.1-28.3-.9-5.4-5.9-14.7-9.7-25.4-9.7-11.5 0-19.9 3.8-25.4 9.7-7.5 8-20.2 8.4-28.3.9zM399.6 220c-11.5 0-19.9 3.8-25.4 9.7-7.5 8-20.2 8.4-28.3.9-8-7.6-8.4-20.2-.9-28.3 14.6-15.5 35.3-22.3 54.6-22.3 18.5 0 40.1 6.8 54.6 22.3 7.6 8.1 7.2 20.7-.9 28.3-8.1 7.5-20.7 7.1-28.3-.9-5.4-5.9-14.7-9.7-25.4-9.7zM573.7 11.5c15.2-15.257 39.8-15.257 54.9 0 15.2 15.26 15.2 39.99 0 55.25l-55.4 55.75c-7.3 7.3-19.1 7.3-26.3 0l-55.5-55.81c-15.2-15.26-15.2-39.99 0-55.25 15.1-15.254 39.7-15.254 54.9 0L560 25.27l13.7-13.77zm54.9 439.2-55.4 55.8c-7.3 7.3-19.1 7.3-26.3 0l-55.5-55.8c-15.2-15.3-15.2-40 0-55.3 15.1-15.2 39.7-15.2 54.9 0l13.7 13.9 13.7-13.8c15.2-15.3 39.8-15.3 54.9 0 15.2 15.3 15.2 40 0 55.2zM93.71 363.5c15.19-15.3 39.79-15.3 54.89 0 15.2 15.3 15.2 40 0 55.2l-55.4 55.8c-7.27 7.3-19.07 7.3-26.34 0l-55.49-55.8c-15.161-15.3-15.161-40 0-55.3 15.17-15.2 39.75-15.2 54.92 0l13.74 13.9 13.68-13.8z"/></svg>