<svg xmlns="http://www.w3.org/2000/svg" viewBox="0 0 512 512"><!--! Font Awesome Pro 6.1.1 by @fontawesome - https://fontawesome.com License - https://fontawesome.com/license (Commercial License) Copyright 2022 Fonticons, Inc.--><path d="m217.6 228.8-.2-.3c-.2-.2-.4-.5-.7-.9-.7-.8-1.6-1.9-2.8-3.3-2.5-2.9-6-6.6-10.2-11.2-8.8-6.9-18.9-13.1-27.7-13.1s-18.9 6.2-27.7 13.1c-4.2 4.6-7.7 8.3-10.2 11.2-1.2 1.4-3 2.5-2.8 3.3-1.2.4-.5.7-.7.9l-.2.3c-2.1 2.8-5.7 3.9-8.9 2.8-3.3-1.1-6.4-4.2-6.4-7.6 0-17.9 7.6-35.6 17.5-48.8 9.8-13 23.9-23.2 38.5-23.2 16.4 0 30.5 10.2 40.3 23.2 9.9 13.2 15.7 30.9 15.7 48.8 0 3.4-1.3 6.5-4.6 7.6-3.2 1.1-6.8 0-8.9-2.8zm160 0-.2-.3c-.2-.2-.4-.5-.7-.9-.7-.8-1.6-1.9-2.8-3.3-2.5-2.9-6-6.6-10.2-11.2-8.8-6.9-18.9-13.1-27.7-13.1s-18.9 6.2-27.7 13.1c-4.2 4.6-7.7 8.3-10.2 11.2-1.2 1.4-3 2.5-2.8 3.3-1.2.4-.5.7-.7.9l-.2.3c-2.1 2.8-5.7 3.9-8.9 2.8-3.3-1.1-5.5-4.2-5.5-7.6 0-17.9 6.7-35.6 16.6-48.8 9.8-13 23.9-23.2 39.4-23.2s29.6 10.2 39.4 23.2c9.9 13.2 16.6 30.9 16.6 48.8 0 3.4-2.2 6.5-5.5 7.6-3.2 1.1-6.8 0-8.9-2.8zm41.9 223.3C375.2 489.8 318.2 512 256 512 114.6 512 0 397.4 0 256S114.6 0 256 0s256 114.6 256 256c0 27.2-4.2 53.4-12.1 77.9 9.1 23.9 7.8 51.6-6 75.5-16.8 26.7-44.7 43.2-74.4 42.7zm-100.4-45.3c-19.5 8-40.8 12.4-63.1 12.4-70.4 0-130.1-43.8-157.48-105.5-5.37-12.1.1-26.3 12.18-31.6 12.2-5.4 26.3.1 31.7 12.2 20.4 46.1 64.1 76.9 113.6 76.9 56.5 0 105.6-40.3 120.8-97.4 2-7.3 7.2-13.2 14.2-16.1 7-2.8 14.9-2.2 21.4 1.7l49 28.7c1.7-9.9 2.6-20.9 2.6-32.1 0-114.9-93.1-208-208-208S48 141.1 48 256s93.1 208 208 208c39.3 0 75.1-10.9 107.3-29.8l-44.2-27.4zm133.3-21.4c11-19.2 4.4-43.6-14.7-54.7l-.4-.2-24.7-14.9c-11.2 24.5-27.5 46.1-47.6 63.2l33.5 20.8c18.8 11 43 4.6 53.9-14.2z"/></svg>