<svg xmlns="http://www.w3.org/2000/svg" viewBox="0 0 512 512"><!--! Font Awesome Pro 6.1.1 by @fontawesome - https://fontawesome.com License - https://fontawesome.com/license (Commercial License) Copyright 2022 Fonticons, Inc.--><path d="M176.4 191.1c0 18.6-14.4 32-32 32-17.7 0-32-13.4-32-32 0-16.8 14.3-32 32-32 17.6 0 32 15.2 32 32zM144 352c0-8.8 7.2-16 16-16 17.7 0 45.3 3.5 72.2 13.9 25.9 10.4 54.9 28.4 70.1 58.9 4 7.9.8 17.6-7.1 21.5-7.9 4-17.6.8-21.5-7.1-10.4-20.7-30.3-34.7-53.1-43.5-22.7-8.8-46.3-11.7-60.6-11.7-8.8 0-16-7.2-16-16zm144.4-128.9c0-16.8 14.3-32 32-32 17.6 0 32 15.2 32 32 0 18.6-14.4 32-32 32-17.7 0-32-13.4-32-32zm204.7 252.2 11.4 7.1c6.6 4.7 9.8 13.7 5.1 22.1-4.7 6.6-14.6 9.8-22.1 5.1l-11.3-7.1c-21.9-13.7-38.8-33.4-49-56.2C381.9 487.2 321.8 512 256 512 114.6 512 0 397.4 0 256S114.6 0 256 0s256 114.6 256 256c0 62.8-22.6 120.3-60.1 164.9 6.5 22.3 21 41.8 41.2 54.4zM448 336.1c10.3-24.6 16-51.7 16-81 0-66-30.8-124-78.7-162.06-5.3 3.73-12.5 4.06-18.2.27l-8.6-5.72c-7.4-4.95-16.1-8.49-25-8.49-10.3 0-20.3 4.39-28.3 10.81l-24.1 18.59c-6 5.5-16.1 4.4-21.6-3.4-6.4-6.01-4.4-16.07 2.5-21.59l23.2-18.59c5.9-4.69 12.4-8.47 19.2-11.25-15.5-3.71-31.7-6.57-48.4-6.57-114.9 0-208 94-208 208C48 370.9 141.1 464 256 464c64.3 0 121.8-29.2 160-75.1v-86.5c-20.3 20.7-48.7 33.6-80 33.6-61.9 0-112-50.1-112-112.9 0-61 50.1-112 112-112s112 51 112 112v113zm-112-193c-44.2 0-80 36.7-80 80 0 45.1 35.8 80 80 80s80-34.9 80-80c0-43.3-35.8-80-80-80z"/></svg>