<svg xmlns="http://www.w3.org/2000/svg" viewBox="0 0 512 512"><!--! Font Awesome Pro 6.1.1 by @fontawesome - https://fontawesome.com License - https://fontawesome.com/license (Commercial License) Copyright 2022 Fonticons, Inc.--><path d="M296 3.115c13.1 2.058 22.1 14.345 20 27.435-2.9 13.09-14.3 22.04-27.4 19.98-11.5-1.66-21.5-3.43-33.5-3.43-10.2 0-21.1 1.77-31.7 3.43-13.1 2.06-25.4-6.89-28.3-19.98-1.2-13.09 7.8-25.378 20-27.435C229 1.063 242.4 0 255.1 0c14.5 0 27 1.063 40.9 3.115zM87.7 133.7c-7.8 10.8-22.81 13.1-33.53 5.3-10.72-7.8-13.08-22.8-5.28-33.5a257.186 257.186 0 0 1 56.61-56.61c10.7-7.8 25.7-5.44 33.5 5.28 7.8 10.72 5.5 25.73-5.3 33.53-17.6 12.8-33.2 28.4-46 46zm375.4-28.2c7.8 10.7 5.4 25.7-5.3 33.5-10.7 7.8-25.7 5.5-33.5-5.3-12.8-17.6-28.4-33.2-46.1-46-10.7-7.8-13-22.81-6.1-33.53 8.7-10.72 23.7-13.08 34.4-5.28 21.7 15.79 40.8 34.91 56.6 56.61zM47.1 256c0 11.1 1.77 21.1 3.43 32.6 2.06 13.1-6.89 24.5-19.98 27.4-13.09 2.1-25.378-6.9-27.435-20C1.063 282.1 0 269.6 0 256c0-13.6 1.063-27 3.115-40.9 2.058-12.2 14.345-21.2 27.435-20 13.09 2.9 22.04 15.2 19.98 28.3-1.66 10.6-3.43 21.5-3.43 32.6zm464.9 0c0 13.6-1.1 26.1-3.1 40-2.1 13.1-14.4 22.1-27.5 20-13-2.9-22-14.3-19.9-27.4 1.6-11.5 2.5-21.5 2.5-32.6 0-11.1-.9-22-2.5-32.6-2.1-13.1 6.9-25.4 19.9-28.3 13.1-1.2 25.4 7.8 27.5 20 2 13.9 3.1 27.3 3.1 40.9zM133.7 424.3c10.8 7.8 13.1 22.8 5.3 33.5s-22.8 13.1-33.5 5.3c-21.7-15.8-40.82-34.9-56.61-56.6-7.8-10.7-5.44-25.7 5.28-34.4 10.72-6.9 25.73-4.6 33.53 6.2 12.8 17.6 28.4 33.2 46 46zm272.8 38.8c-10.7 7.8-25.7 5.4-34.4-5.3-6.9-10.7-4.6-25.7 6.1-33.5 17.7-12.8 33.3-28.4 46.1-46.1 7.8-10.7 22.8-13 33.5-6.1 10.7 8.7 13.1 23.7 5.3 34.4-15.8 21.7-34.9 40.8-56.6 56.6zm-151.4.9c12 0 22-.9 33.5-2.5 13.1-2.1 24.5 6.9 27.4 19.9 2.1 13.1-6.9 25.4-20 27.5-13.9 2-26.4 3.1-40.9 3.1-12.7 0-26.1-1.1-40-3.1-12.2-2.1-21.2-14.4-20-27.5 2.9-13 15.2-22 28.3-19.9 10.6 1.6 21.5 2.5 31.7 2.5zM144.4 208c0-17.7 14.3-32 32-32 17.6 0 32 14.3 32 32s-14.4 32-32 32c-17.7 0-32-14.3-32-32zm224 0c0 17.7-14.4 32-32 32-17.7 0-32-14.3-32-32s14.3-32 32-32c17.6 0 32 14.3 32 32zM328 328c13.3 0 24 10.7 24 24s-10.7 24-24 24H183.1c-12.4 0-24-10.7-24-24s11.6-24 24-24H328z"/></svg>