<svg xmlns="http://www.w3.org/2000/svg" viewBox="0 0 512 512"><!--! Font Awesome Pro 6.1.1 by @fontawesome - https://fontawesome.com License - https://fontawesome.com/license (Commercial License) Copyright 2022 Fonticons, Inc.--><path d="M512 80c0 44.2-114.6 80-256 80S0 124.2 0 80C0 35.82 114.6 0 256 0s256 35.82 256 80zM256 48C149.1 48 64 62.33 64 80s85.1 32 192 32c106 0 192-14.33 192-32s-86-32-192-32zM92.01 172.1C74.24 201.2 64 235.4 64 271.1 64 378 149.1 464 256 464c106 0 192-86 192-192.9 0-35.7-10.2-69.9-28.9-99 17.8-4.6 33.3-9.8 47.3-15.6 18.9 34.2 29.6 73.6 29.6 114.6C496 404.5 388.5 512 256 512S16 404.5 16 271.1c0-41 10.73-80.4 29.58-114.6 13.99 5.8 29.56 11 46.43 15.6zM217.6 284.8l-.2-.3c-.2-.2-.4-.5-.7-.9-.7-.8-1.6-1.9-2.8-3.3-2.5-2.9-6-6.6-10.2-11.2-8.8-6.9-18.9-13.1-27.7-13.1s-18.9 6.2-27.7 13.1c-4.2 4.6-7.7 8.3-10.2 11.2-1.2 1.4-3 2.5-2.8 3.3-1.2.4-.5.7-.7.9l-.2.3c-2.1 2.8-5.7 3.9-8.9 2.8-3.3-1.1-5.5-4.2-5.5-7.6 0-17.9 6.7-35.6 16.6-48.8 9.8-13 23.9-23.2 39.4-23.2s29.6 10.2 39.4 23.2c9.9 13.2 16.6 30.9 16.6 48.8 0 3.4-2.2 6.5-5.5 7.6-3.2 1.1-6.8 0-8.9-2.8zm-73.9 47.9c9.8-9 25-8.3 33.9 1.4 15.2 16.4 41.2 33.9 78.4 33.9s63.2-17.5 78.4-33.9c8.9-9.7 24.1-10.4 33.9-1.4 9.7 9 10.3 24.2 1.3 33.9C347.7 390.5 309.7 416 256 416c-53.7 0-91.7-25.5-113.6-49.4-9-9.7-9.3-24.9 1.3-33.9zm233.9-47.9-.2-.3c-.2-.2-.4-.5-.7-.9-.7-.8-1.6-1.9-2.8-3.3-2.5-2.9-6-6.6-10.2-11.2-8.8-6.9-18.9-13.1-27.7-13.1s-18.9 6.2-27.7 13.1c-4.2 4.6-7.7 8.3-10.2 11.2-1.2 1.4-3 2.5-2.8 3.3-1.2.4-.5.7-.7.9l-.2.3c-2.1 2.8-5.7 3.9-8.9 2.8-3.3-1.1-5.5-4.2-5.5-7.6 0-17.9 6.7-35.6 16.6-48.8 9.8-13 23.9-23.2 39.4-23.2s29.6 10.2 39.4 23.2c9.9 13.2 16.6 30.9 16.6 48.8 0 3.4-2.2 6.5-5.5 7.6-3.2 1.1-6.8 0-8.9-2.8z"/></svg>