<svg xmlns="http://www.w3.org/2000/svg" viewBox="0 0 576 512"><!--! Font Awesome Pro 6.1.1 by @fontawesome - https://fontawesome.com License - https://fontawesome.com/license (Commercial License) Copyright 2022 Fonticons, Inc.--><path d="M288 48C173.1 48 80 141.1 80 256c0 5.7.23 11.4.68 16.1h-.67c-11.62-15.6-31.73-19.9-47.99-12.8-.01-1.1-.02-2.2-.02-3.3C32 114.6 146.6 0 288 0s256 114.6 256 256-114.6 256-256 256c-74.5 0-141.6-31.8-188.38-82.7 12.98-10.8 22.48-25.6 26.38-42.8 18.9 23.3 42.6 42.5 69.7 55.9-2.4-8.4-3.7-17.2-3.7-26.4v-15.3c-10.2-7.2-16-15.7-16-24.7 0-26.5 50.1-48 112-48s112 21.5 112 48c0 9-5.8 17.5-16 24.7V416c0 9.2-1.3 18-3.7 26.4C448.9 408.4 496 337.7 496 256c0-114.9-93.1-208-208-208zm64 368v-21.4c0-14.7-11.9-26.6-26.6-26.6h-2c-11.3 0-21.1 7.9-23.6 18.9-3.7 12.6-20.8 12.6-23.6 0-2.5-11-12.3-18.9-23.6-18.9h-2c-14.7 0-26.6 11.9-26.6 26.6V416c0 35.3 28.7 64 64 64s64-28.7 64-64zM96 369c0 14.2-6.42 26.9-16.55 35.5C71.02 411.7 60.02 416 48 416c-26.46 0-48-21-48-47 0-17.3 21.44-49.9 35.66-69.6 2.18-3.1 4.2-5.8 5.94-8.1 3.2-4.4 9.6-4.4 12.8 0C67.57 308.6 95.1 349 95.1 369h.9zm271.6-129c17.7 0 32 14.3 32 32s-14.3 32-32 32c-18.5 0-32-14.3-32-32s13.5-32 32-32zm-160 64c-18.5 0-32-14.3-32-32s13.5-32 32-32c17.7 0 32 14.3 32 32s-14.3 32-32 32zm19.7-155.3c6.3 6.2 6.3 16.4 0 22.6l-7.4 7.4c-23.5 23.6-53.9 39.2-86.8 44.7l-2.5.4c-8.7 1.4-16.9-4.5-18.4-13.2-1.4-8.7 4.5-16.9 13.2-18.4l2.5-.4c26.3-4.4 50.6-16.9 69.4-35.7l7.4-7.4c6.2-6.3 16.4-6.3 22.6 0zm121.4 22.6c-6.3-6.2-6.3-16.4 0-22.6 6.2-6.3 16.4-6.3 22.6 0l7.4 7.4c18.8 18.8 43.1 31.3 69.5 35.7l2.4.4c8.7 1.5 14.6 9.7 13.2 18.4-1.5 8.7-9.7 14.6-18.4 13.2l-2.5-.4c-33.8-5.5-63.3-21.1-86.8-44.7l-7.4-7.4z"/></svg>