<svg xmlns="http://www.w3.org/2000/svg" viewBox="0 0 512 512"><!--! Font Awesome Pro 6.1.1 by @fontawesome - https://fontawesome.com License - https://fontawesome.com/license (Commercial License) Copyright 2022 Fonticons, Inc.--><path d="M144.4 336c0-17.7 14.3-32 32-32 17.6 0 32 14.3 32 32s-14.4 32-32 32c-17.7 0-32-14.3-32-32zm224 0c0 17.7-14.4 32-32 32-17.7 0-32-14.3-32-32s14.3-32 32-32c17.6 0 32 14.3 32 32zM304 416v5.3c0 5.9-4.8 10.7-10.7 10.7h-74.6c-5.9 0-10.7-4.8-10.7-10.7V416c0-26.5 21.5-48 48-48s48 21.5 48 48zM120 160c-30.93 0-56-25.1-56-56 0-30.93 25.07-56 56-56 8.9 0 17.3 2.08 24.8 5.78C149.7 23.29 176.1 0 208 0c19.1 0 36.3 8.38 48 21.67C267.7 8.38 284.9 0 304 0c31.9 0 58.3 23.29 63.2 53.78 7.5-3.7 15.9-5.78 24.8-5.78 30.9 0 56 25.07 56 56 0 30.9-25.1 56-56 56h-40c-17.7 0-32 14.3-32 32v4.5c0 10.3 4.4 20.1 11.9 26.9l9.5 6c10.4 6.5 22.7 6.5 34 0l17.2-10.8c10.4-6.5 23.6-6.5 34 0l20.7 12.9c4.8 3.1 10.3 4.7 15.8 4.9 4.2.1 8.5-.6 12.6-2.1l34-13.1c1.5 11.4 2.3 23 2.3 34.8 0 5.3-.2 10.7-.5 15.9C503.3 405.9 392 512 256 512 119.1 512 8.708 405.9.487 271.9.164 266.7 0 261.3 0 256c0-11.8.798-23.4 2.344-34.8L36.3 234.3c4.07 1.5 8.36 2.2 12.61 2.1 5.54-.2 11.01-1.8 15.83-4.9l20.7-12.9c10.38-6.5 22.66-6.5 33.96 0l17.2 10.8c10.4 6.5 23.6 6.5 34 0l9.5-6c7.5-6.8 11.9-16.6 11.9-26.9V192c0-17.7-14.3-32-32-32h-40zm-8.8 110.1-8.8-5.5-12.22 7.6c-12.26 7.7-27.08 10.9-40.26 12.2C63.76 385.8 150.7 464 256 464c105.3 0 192.2-78.2 206.1-179.6-14.1-1.3-28-4.5-40.3-12.2l-12.2-7.6-8.8 5.5c-25.9 16.2-58.9 16.2-84.8 0l-8.8-5.5-8.8 5.5c-25.9 16.2-58.9 16.2-84.8 0l-8.8-5.5-8.8 5.5c-25.9 16.2-58.9 16.2-84.8 0z"/></svg>