<svg xmlns="http://www.w3.org/2000/svg" viewBox="0 0 640 512"><!--! Font Awesome Pro 6.1.1 by @fontawesome - https://fontawesome.com License - https://fontawesome.com/license (Commercial License) Copyright 2022 Fonticons, Inc.--><path d="M320 464c58.1 0 112.2-24.6 150.1-64h61.6C485.6 467.6 407.1 512 320 512 178.6 512 64 397.4 64 256S178.6 0 320 0c113.4 0 209.7 73.79 243.3 176H560c-15.9 0-30.7 4.6-43.2 12.6C488.9 106.8 411.3 48 320 48c-114.9 0-208 93.1-208 208s93.1 208 208 208zM182.4 236.8c-7.1-5.3-8.5-15.3-3.2-22.4 30.4-40.5 91.2-40.5 121.6 0 5.3 7.1 3.9 17.1-3.2 22.4-7.1 5.3-17.1 3.9-22.4-3.2-17.6-23.5-52.8-23.5-70.4 0-5.3 7.1-15.3 8.5-22.4 3.2zm160 0c-7.1-5.3-8.5-15.3-3.2-22.4 30.4-40.5 91.2-40.5 121.6 0 5.3 7.1 3.9 17.1-3.2 22.4-7.1 5.3-17.1 3.9-22.4-3.2-17.6-23.5-52.8-23.5-70.4 0-5.3 7.1-15.3 8.5-22.4 3.2zm66.3 97.5c-.5.6-1 1.1-1.5 1.7H592c8.8 0 16-7.2 16-16v-64c0-8.8-7.2-16-16-16h-32c-8.8 0-16 7.2-16 16s7.2 16 16 16h16c8.8 0 16 7.2 16 16s-7.2 16-16 16h-16c-26.5 0-48-21.5-48-48s21.5-48 48-48h32c26.5 0 48 21.5 48 48v64c0 26.5-21.5 48-48 48H407.2c.5.6 1 1.1 1.5 1.7 4.2 5.1 7.3 11.4 7.3 18.3s-3.1 13.2-7.3 18.3c-4.3 5.2-10.2 9.7-16.8 13.4-13.2 7.4-30.5 12.3-47.9 12.3-3.6 0-6.8-2.5-7.7-6-1-3.5.6-7.2 3.8-9l.2-.1c.2-.1.5-.3.9-.6.8-.4 2-1.2 3.4-2.1 2.8-1.8 6.6-4.5 10.2-7.6 3.8-3.1 7.2-6.6 9.7-10 1.6-3.6 3.5-6.4 3.5-8.6 0-2.2-1.9-5.9-3.5-8.6-2.5-4.3-5.9-6.9-9.7-10-3.6-3.1-7.4-5.8-10.2-7.6-1.4-.9-2.6-1.7-3.4-2.1-.4-.3-.7-.5-.9-.6l-.2-1c-2.5-.5-4.1-3.2-4.1-6.1 0-2.9 1.6-5.6 4.1-7l.2-.1c.2-.1.5-.3.9-.6.8-.4 2-1.2 3.4-2.1 2.8-1.8 6.6-4.5 10.2-7.6 3.8-3.1 7.2-6.5 9.7-10 1.6-3.6 3.5-6.4 3.5-8.6 0-2.2-1.9-5.9-3.5-8.6-2.5-4.3-5.9-6.9-9.7-10-3.6-3.1-7.4-5.8-10.2-7.6-1.4-.9-2.6-1.7-3.4-2.1-.4-.3-.7-.5-.9-.6l-.2-1c-3.2-.9-4.8-4.6-3.8-9 .9-2.6 4.1-5.1 7.7-5.1 17.4 0 34.7 4.9 47.9 12.3 6.6 2.8 12.5 8.2 16.8 13.4 4.2 5.1 7.3 11.4 7.3 18.3s-3.1 13.2-7.3 18.3zM51.26 152.2l-20-51.9a328.667 328.667 0 0 1 57.49-76.91L132 37.81C96.46 68.47 68.47 107.7 51.26 152.2zm3.88-140.02A361.165 361.165 0 0 0 16.6 62.14L1.067 21.74A16 16 0 0 1 21.06.822L55.14 12.18z"/></svg>