<svg xmlns="http://www.w3.org/2000/svg" viewBox="0 0 512 512"><!--! Font Awesome Pro 6.1.1 by @fontawesome - https://fontawesome.com License - https://fontawesome.com/license (Commercial License) Copyright 2022 Fonticons, Inc.--><path d="M255.1 464C370.9 464 464 370.9 464 256c0-30.7-6.7-59.9-18.6-86.1-5.5-12-.1-26.3 11.9-31.7 12.1-5.5 26.3-1.1 31.8 11.9C503.8 182.4 512 218.3 512 256c0 141.4-114.6 256-256 256S0 397.4 0 256 114.6 0 256 0c37.7 0 73.6 8.18 105.9 22.89 12.1 5.49 17.4 19.72 11.9 31.78-5.4 12.07-19.7 17.4-31.7 11.91C315.9 54.65 286.7 48 256 48 141.1 48 48 141.1 48 256s93.1 208 208 208h-.9zm-40-80c0-22.1 18.8-40 40-40 23 0 40.9 17.9 40.9 40s-17.9 40-40.9 40c-21.2 0-40-17.9-40-40zM320 128c-8.8 0-16-7.2-16-16s7.2-16 16-16h64c6.5 0 12.3 3.9 14.8 9.9s1.1 12.8-3.5 17.4L358.6 160H384c8.8 0 16 7.2 16 16s-7.2 16-16 16h-64c-6.5 0-12.3-3.9-14.8-9.9s-1.1-12.8 3.5-17.4l36.7-36.7H320zM432 0h64c6.5 0 12.3 3.899 14.8 9.877 2.5 5.983 1.1 12.863-3.5 17.433L470.6 64H496c8.8 0 16 7.16 16 16s-7.2 16-16 16h-64c-6.5 0-12.3-3.9-14.8-9.88s-1.1-12.86 3.5-17.43L457.4 32H432c-8.8 0-16-7.16-16-16 0-8.836 7.2-16 16-16zm-55 242.3c7.6-8 20.2-8.4 28.3-.9 8.1 6.7 8.5 20.2.9 28.3-14.5 15.5-36.1 22.3-54.6 22.3-19.3 0-40-6.8-54.6-22.3-7.5-8.1-7.1-21.6.9-28.3 8.1-7.5 20.8-7.1 28.3.9 5.5 5.9 13.9 9.7 25.4 9.7 10.7 0 20-3.8 25.4-9.7zm-242.8 0c5.5 5.9 13.9 9.7 25.4 9.7 10.7 0 20-3.8 25.4-9.7 7.6-8 20.2-8.4 28.3-.9 8.1 6.7 8.5 20.2.9 28.3-14.5 15.5-36.1 22.3-54.6 22.3-19.3 0-40-6.8-54.6-22.3-7.52-8.1-7.11-21.6.9-28.3 8.1-7.5 20.8-7.1 28.3.9z"/></svg>