<svg xmlns="http://www.w3.org/2000/svg" viewBox="0 0 512 512"><!--! Font Awesome Pro 6.1.1 by @fontawesome - https://fontawesome.com License - https://fontawesome.com/license (Commercial License) Copyright 2022 Fonticons, Inc.--><path d="M176.5 320.3c19.6-18.2 47.3-32.3 79.5-32.3s59.9 14.1 79.5 32.3c19 17.8 32.5 41.7 32.5 63.7 0 5.4-2.7 10.4-7.2 13.4-4.6 2.9-10.3 3.4-15.2 1.3l-17.2-7.6c-22.8-9.9-47.5-15.1-72.4-15.1-24.9 0-49.6 5.2-72.4 15.1l-17.2 7.6c-4.9 2.1-10.6 1.6-15.2-1.3-4.5-3-7.2-8-7.2-13.4 0-22 13.5-45.9 32.5-63.7zm34.8-155.6c6.3 6.2 6.3 16.4 0 22.6l-7.4 7.4c-23.5 23.6-53.9 39.2-86.8 44.7l-2.5.4c-8.7 1.4-16.93-4.5-18.38-13.2-1.46-8.7 4.48-16.9 13.18-18.4l2.5-.4c26.3-4.4 50.6-16.9 69.4-35.7l7.4-7.4c6.2-6.3 16.4-6.3 22.6 0zm89.4 22.6c-6.3-6.2-6.3-16.4 0-22.6 6.2-6.3 16.4-6.3 22.6 0l7.4 7.4c18.8 18.8 43.1 31.3 69.5 35.7l2.4.4c8.7 1.5 14.6 9.7 13.2 18.4-1.5 8.7-9.7 14.6-18.4 13.2l-2.5-.4c-33.8-5.5-63.3-21.1-86.8-44.7l-7.4-7.4zM512 256c0 141.4-114.6 256-256 256S0 397.4 0 256 114.6 0 256 0s256 114.6 256 256zM256 48C141.1 48 48 141.1 48 256s93.1 208 208 208 208-93.1 208-208S370.9 48 256 48z"/></svg>