<svg xmlns="http://www.w3.org/2000/svg" viewBox="0 0 512 512"><!--! Font Awesome Pro 6.1.1 by @fontawesome - https://fontawesome.com License - https://fontawesome.com/license (Commercial License) Copyright 2022 Fonticons, Inc.--><path d="M48 256c0 114.9 93.1 208 208 208v48C114.6 512 0 397.4 0 256S114.6 0 256 0s256 114.6 256 256c0 80.8-37.5 152.9-96 199.9v-67c29.1-36 48-82.4 48-132.9 0-114.9-93.1-208-208-208S48 141.1 48 256zm80.4-17.2c-12.6-4.2-19.4-18.7-15.2-30.4 3.8-11.3 12.2-26.8 25.9-39.8 14.1-13.4 34.4-24.6 60.9-24.6 13.3 0 24 10.7 24 24s-10.7 24-24 24c-11.9 0-20.9 4.8-27.9 11.4-7.4 7-11.8 15.5-13.3 20.2-4.2 12.6-18.7 18.5-30.4 15.2zm.6 70.5c10.4-9.2 25.5-6.6 33.7 3.7 18.8 23.4 49.8 47 93.3 47s74.5-23.6 93.3-47c8.2-10.3 23.3-12.9 32.8-3.7 11.2 8.2 12.9 23.3 4.6 32.8-.8 2-1.8 3.1-2.7 4.2V496c0 8.8-7.2 16-16 16s-16-7.2-16-16V376.4c-9.5 7-20.2 13.3-32 18.4V464c0 8.8-7.2 16-16 16s-16-7.2-16-16v-59.1c-10.9 2-20.7 3.1-32 3.1-62.6 0-106.2-34.3-130.7-65.9-9.2-9.5-6.6-24.6 3.7-32.8zM312 192c-13.3 0-24-10.7-24-24s10.7-24 24-24c26.5 0 46.8 11.2 60.9 24.6 13.7 13 21.2 28.5 25.9 39.8 3.3 11.7-2.6 26.2-15.2 30.4-12.6 3.3-26.2-2.6-30.4-15.2-1.5-4.7-5.9-13.2-13.3-20.2-7-6.6-16-11.4-27.9-11.4z"/></svg>