<svg xmlns="http://www.w3.org/2000/svg" viewBox="0 0 512 512"><!--! Font Awesome Pro 6.1.1 by @fontawesome - https://fontawesome.com License - https://fontawesome.com/license (Commercial License) Copyright 2022 Fonticons, Inc.--><path d="M177.6 193.9c-8.9 9.7-24.1 10.4-33.9 1.4-10.6-9-10.3-24.2-1.3-33.9 21.9-23.9 59.9-50.3 113.6-50.3 53.7 0 91.7 26.4 113.6 50.3 9 9.7 8.4 24.9-1.3 33.9-9.8 9-25 8.3-33.9-1.4-15.2-16.4-41.2-34.8-78.4-34.8s-63.2 18.4-78.4 34.8zM176.4 336c-17.7 0-32-14.3-32-32s14.3-32 32-32c17.6 0 32 14.3 32 32s-14.4 32-32 32zm160-64c17.6 0 32 14.3 32 32s-14.4 32-32 32c-17.7 0-32-14.3-32-32s14.3-32 32-32zM256 512C114.6 512 0 397.4 0 256S114.6 0 256 0s256 114.6 256 256-114.6 256-256 256zm208-256c0-114.9-93.1-208-208-208S48 141.1 48 256s93.1 208 208 208 208-93.1 208-208z"/></svg>