<svg xmlns="http://www.w3.org/2000/svg" viewBox="0 0 512 512"><!--! Font Awesome Pro 6.1.1 by @fontawesome - https://fontawesome.com License - https://fontawesome.com/license (Commercial License) Copyright 2022 Fonticons, Inc.--><path d="M143.7 332.7c9.8-9 25-8.3 33.9 1.4 15.2 16.4 41.2 33.9 78.4 33.9s63.2-17.5 78.4-33.9c8.9-9.7 24.1-10.4 33.9-1.4 9.7 9 10.3 24.2 1.3 33.9C347.7 390.5 309.7 416 256 416c-53.7 0-91.7-25.5-113.6-49.4-9-9.7-9.3-24.9 1.3-33.9zM0 256C0 114.6 114.6 0 256 0s256 114.6 256 256-114.6 256-256 256S0 397.4 0 256zm256 208c114.9 0 208-93.1 208-208 0-16.3-1.9-32.2-5.4-47.4l-3.9 23.3c-3.9 23.1-23.9 40.1-47.4 40.1h-78.6c-23.5 0-43.5-17-47.4-40.1l-6.6-39.9h-37.4l-6.6 39.9c-3.9 23.1-23.9 40.1-47.4 40.1h-78.6c-23.5 0-43.53-17-47.39-40.1l-3.88-23.3c-3.55 15.2-6.33 31.1-6.33 47.4 0 114.9 94 208 208 208h.9zm28.9-320c8.7-9.8 21.4-16 35.8-16h94.6c.8 0 3.3.1 4.8.2C382.1 79.4 322.7 48 256 48c-66.7 0-126.1 31.4-164.15 80.2 1.58-.1 3.19-.2 4.81-.2h94.64c14.4 0 27.1 6.2 35.8 16h57.8z"/></svg>