<svg xmlns="http://www.w3.org/2000/svg" viewBox="0 0 576 512"><!--! Font Awesome Pro 6.1.1 by @fontawesome - https://fontawesome.com License - https://fontawesome.com/license (Commercial License) Copyright 2022 Fonticons, Inc.--><path d="M71.29 353.1c6.56-8.9 13.44-18.3 20.62-27.5C120.5 406.2 197.5 464 288 464c114.9 0 208-93.1 208-208 0-13.2-1.2-26.2-3.6-38.7 11.9 3 23.7 6.3 35.4 9.8l15.1 4.5c.7 8 1.1 16.2 1.1 24.4 0 141.4-114.6 256-256 256-99.5 0-185.8-56.8-228.17-139.8 2.48-3.8 4.76-7.5 6.73-10.7 1.92-3.1 3.53-5.8 4.73-8.4zM240.4 240c0 17.7-14.4 32-32 32-17.7 0-32-14.3-32-32 13.5-10.8 27.5-20.9 42.1-30.4 12.7 4.3 21.9 16.3 21.9 30.4zM368.1 12.79c-45.1 9.15-88.5 23.04-129.6 41.13-13.9 3.39-27.2 8.17-39.8 14.18-33.5 3.09-66.5 7.9-98.89 14.34C146.6 31.75 213.6 0 288 0c27.1 0 54.9 4.491 80.1 12.79zM296 368c-12.3 0-23.2 1.9-32.8 4.9-12.6 4-26.1-3-30.1-15.7-4-12.6 3.1-26.1 15.7-30.1 13.3-4.4 30-8 47.2-8 46.5 0 81.4 20.2 104.2 40.8 8.9 9 10.5 24.1 1.6 33.9-9 9.8-24.1 10.6-33.9 1.6-15.7-14.2-39.5-27.4-71.9-27.4zm104.4-128c0 17.7-14.4 32-32 32-17.7 0-32-14.3-32-32s14.3-32 32-32c17.6 0 32 14.3 32 32zm19.7-203.3c20.8 12.55 39.7 27.99 56.1 45.74-56.9-11.31-115.6-17.58-175.6-18.36 38.3-12.98 78.3-22.25 119.5-27.38zm-15 66.7c34.8 4.3 68.2 10.5 100.9 18.4 14.1 22.7 24.7 47.9 31 74.6-78.8-23.7-162.4-36.4-249.9-36.4-16.2 0-33.2.5-50.1 1.5-47.8 2.8-94.5 9.4-139.92 19.7-19.63 4.4-39.01 9.5-58.11 15.2 6.38-26.7 16.96-51.9 31.01-74.6 48.42-11.7 98.22-19.6 149.22-23.29 22.7-1.66 45.7-2.51 67.9-2.51 40 0 80.2 2.53 118 7.4zm-354.77 123c40.96-12.2 83.27-21.3 125.77-27.1-50.8 37.5-95.6 83.8-131.33 136.8C36.48 310.9 32 283.1 32 256c0-3.9.05-6.1.16-9.1 5.9-7 11.96-13.8 18.17-20.5z"/></svg>