<svg xmlns="http://www.w3.org/2000/svg" viewBox="0 0 512 512"><!--! Font Awesome Pro 6.1.1 by @fontawesome - https://fontawesome.com License - https://fontawesome.com/license (Commercial License) Copyright 2022 Fonticons, Inc.--><path d="M368 208c0 35.3-14.3 64-32 64s-32-28.7-32-64 14.3-64 32-64 32 28.7 32 64zm-218.2 55.3c-13.7 3.2-25.9-4.6-29.1-17.5-3.2-13.7 4.6-25.9 17.5-29.1l64-16c12.8-3.2 25.9 4.6 29.1 17.5 3.2 12.8-4.6 25.9-17.5 29.1l-64 16zm51.1-164.61c7.3 4.91 9.3 14.81 4.4 22.21-28 41.9-69.6 63.2-88.2 70.3-8.4 1.9-17.48-1.8-20.28-10.1-2.79-8.4 1.74-17.5 10.08-20.3 13.4-4.4 48.6-23.7 71.8-57.7 4.9-7.33 14.8-9.31 22.2-4.41zM354.5 394.6c-12.4 13.6-29.9 21.4-48.3 21.4-13.3 0-26.2-4.9-37.1-11.5l-11.7-8.1c-10.2-7-23.3-8.3-34.7-3.3-27.5 12.1-59.3 8.7-83.5-10l-9.4-6c-10.7-7.9-13-22.9-5.1-33.6 7.8-10.7 22.8-13 33.5-5.1l9.5 6.9c9.4 7.6 23.9 9.1 35.6 3.9 26.6-11.7 57.4-8.8 81.4 7.7l11.7 7.2c2.9 2.8 6.3 3.9 9.8 3.9 4.8 0 9.5-2.1 11.9-5.7l32.1-34.4c8.9-9.8 24.1-10.6 33.9-1.7 9.8 8.9 10.6 24.1 1.7 33.9l-31.3 34.5zM0 256C0 114.6 114.6 0 256 0s256 114.6 256 256-114.6 256-256 256S0 397.4 0 256zm256 208c114.9 0 208-93.1 208-208S370.9 48 256 48 48 141.1 48 256s93.1 208 208 208z"/></svg>