<svg xmlns="http://www.w3.org/2000/svg" viewBox="0 0 512 512"><!--! Font Awesome Pro 6.1.1 by @fontawesome - https://fontawesome.com License - https://fontawesome.com/license (Commercial License) Copyright 2022 Fonticons, Inc.--><path d="M256 48C141.1 48 48 141.1 48 256c0 1.4-.11 2.7-.33 4L32.66 440c-.37 4.5-4.14 8-8.66 8-4.52 0-8.29-3.5-8.66-8L.335 260c-.22-1.3-.335-2.6-.335-4C0 114.6 114.6 0 256 0s256 114.6 256 256c0 1-.1 2-.2 3l-15.3 245c-.3 4.5-4 8-8.5 8s-8.2-3.5-8.5-8l-15.3-245c-.1-1-.2-2-.2-3 0-114.9-93.1-208-208-208zm88 240c30.9 0 56 25.1 56 56 0 15.7-6.4 29.8-16.8 40l-8.9 86.7c-.6 4.4-5 9.3-10.3 9.3-5.3 0-9.7-4.9-10.3-9.3l-7.2-70.8c-.9-.8-1.7.1-2.5.1h-26.7l-6.4 38.8c-1.8 5.3-5.5 9.2-10.9 9.2s-10-3.9-10.9-9.2l-6.4-38.8H168c-30.9 0-56-25.1-56-56s25.1-56.9 56-56.9l176 .9zm-176 32c-13.3 0-24 10.7-24 24s10.7 24 24 24h8v-48h-8zm40 48h32v-48h-32v48zm96-48h-32v48h32v-48zm32 48h8c13.3 0 24-10.7 24-24s-10.7-24-24-24h-8v48zM208.4 208c0 17.7-14.4 32-32 32-17.7 0-32-14.3-32-32s14.3-32 32-32c17.6 0 32 14.3 32 32zm96 0c0-17.7 14.3-32 32-32 17.6 0 32 14.3 32 32s-14.4 32-32 32c-17.7 0-32-14.3-32-32zm-49.3 304c-74.6 0-142.4-32.7-189.27-84.6l6.19-74.3C106.9 419.1 176.2 464 255.1 464c4.4 0 7.8-.1 11.2-.3 8 10 20.2 16.3 33.7 16.3 7.9 0 15.4-2.2 21.9-6 1 10.1 5.6 19.1 12.4 25.8-24.7 7.9-51 12.2-79.2 12.2zm152.2-49.5 7.4-72c8.9-11.4 16.8-21.9 23.5-34.1l4.7 73.7c-10.9 12.5-22.8 23-35.6 32.4z"/></svg>