<svg xmlns="http://www.w3.org/2000/svg" viewBox="0 0 512 512"><!--! Font Awesome Pro 6.1.1 by @fontawesome - https://fontawesome.com License - https://fontawesome.com/license (Commercial License) Copyright 2022 Fonticons, Inc.--><path d="M304 368c13.3 0 24 10.7 24 24s-10.7 24-24 24h-96c-13.3 0-24-10.7-24-24s10.7-24 24-24h96zm73-93.7c7.6-8 20.2-8.4 28.3-.9 8.1 6.7 8.5 20.2.9 28.3-14.5 15.5-36.1 22.3-54.6 22.3-19.3 0-40-6.8-54.6-22.3-7.5-8.1-7.1-21.6.9-28.3 8.1-7.5 20.8-7.1 28.3.9 5.5 5.9 13.9 9.7 25.4 9.7 10.7 0 20-3.8 25.4-9.7zm-242.8 0c5.5 5.9 13.9 9.7 25.4 9.7 10.7 0 20-3.8 25.4-9.7 7.6-8 20.2-8.4 28.3-.9 8.1 6.7 8.5 20.2.9 28.3-14.5 15.5-36.1 22.3-54.6 22.3-19.3 0-40-6.8-54.6-22.3-7.52-8.1-7.11-21.6.9-28.3 8.1-7.5 20.8-7.1 28.3.9zm-52.51-59.1c-3.95-7.9-.75-17.6 7.15-21.5l22.86-11.4c14.5-7.3 27.2-17.6 37.4-30.2l14.4-18.1c5.5-6.9 15.6-8.9 21.6-2.5 7.8 5.5 8.9 15.6 3.4 21.6L174.1 172c-13.1 16.3-29.5 29.6-48.1 38.9l-22.8 11.4c-7.95 4-17.56.8-21.51-7.1zm341.51-21.5c7.9 3.9 11.1 13.6 7.1 21.5-3.9 7.9-13.6 11.1-21.5 7.1l-23.7-11.4c-17.7-9.3-35-22.6-47.2-38.9l-14.4-18.9c-6.4-6-4.4-16.1 2.5-21.6 6.9-6.4 16.1-4.4 22.5 2.5l14.4 18.1c10.2 12.6 22.9 22.9 37.4 30.2l22.9 11.4zM512 256c0 141.4-114.6 256-256 256S0 397.4 0 256 114.6 0 256 0s256 114.6 256 256zM256 48C141.1 48 48 141.1 48 256s93.1 208 208 208 208-93.1 208-208S370.9 48 256 48z"/></svg>