<svg xmlns="http://www.w3.org/2000/svg" viewBox="0 0 512 512"><!--! Font Awesome Pro 6.1.1 by @fontawesome - https://fontawesome.com License - https://fontawesome.com/license (Commercial License) Copyright 2022 Fonticons, Inc.--><path d="M136.3 317.9c10-8.7 25.2-7.6 33.8 2.4 16.9 19.5 45.4 39.7 85 39.7 14.2 0 24.9 10.7 24.9 24s-10.7 24-24.9 24c-58 0-97.9-29.4-121.2-56.3-8.7-10-7.6-25.2 2.4-33.8zM304 369c0-20 28.4-60.4 41.6-77.7 3.2-4.4 9.6-4.4 12.8 0 13 17.3 41.6 57.7 41.6 77.7 0 26-21.5 47-48 47s-48-21-48-47zm-95.6-161c0 17.7-14.4 32-32 32-17.7 0-32-14.3-32-32s14.3-32 32-32c17.6 0 32 14.3 32 32zm96 0c0-17.7 14.3-32 32-32 17.6 0 32 14.3 32 32s-14.4 32-32 32c-17.7 0-32-14.3-32-32zM512 256c0 141.4-114.6 256-256 256S0 397.4 0 256 114.6 0 256 0s256 114.6 256 256zM352 448c43.4 0 80-34.6 80-79 0-.7-.9-1.4-.9-2.9C452.3 334.9 464 296.8 464 256c0-114.9-93.1-208-208-208S48 141.1 48 256s93.1 208 208 208c29.4 0 57.4-6.1 82.7-17.1 4.3.7 8.8 1.1 13.3 1.1z"/></svg>