<svg xmlns="http://www.w3.org/2000/svg" viewBox="0 0 640 512"><!--! Font Awesome Pro 6.1.1 by @fontawesome - https://fontawesome.com License - https://fontawesome.com/license (Commercial License) Copyright 2022 Fonticons, Inc.--><path d="M319.1 48c-114 0-208 93.1-208 208 0 15.2 2.5 29.1 5.6 44.2-14.9-9.7-32.96-13.8-50.65-11.6C64.7 277.9 63.1 267 63.1 256c0-141.4 115.5-256 256-256C461.4 0 576 114.6 576 256c0 11-.7 21.9-2.1 32.5-17.7-2.1-35.7 2.1-50.6 11.8 3.1-14.3 4.7-29.1 4.7-44.3 0-114.9-93.1-208-208.9-208zm0 416c42.6 0 81.4-12.2 113.9-33.3-6.9 20.2-11.7 41.1-14.8 61.8-31.1 12.6-63.4 19.5-99.1 19.5-33.9 0-67-6.9-97.3-19.5-3-20.7-7.9-42.4-14.7-61.8 32.5 21.1 71.3 33.3 112 33.3zm269.4-137.9c20 13 25.6 40.4 12.4 60.1-26.4 40-43.6 75.3-43.1 124.9L448 512c7-68.4 34.8-137.9 88.7-181.9 14.2-11.9 35.4-13.7 51.8-4zM174.6 189c22.5-36.8 62.9-54.6 90.1-39.7 26.4 14.9 31.2 56.8 8.7 92.8-22.5 37.7-62.9 55.5-90.1 40.6-27.3-14.9-31.2-56.8-8.7-93.7zM368 352v32c0 26.5-21.5 48-48 48s-48-21.5-48-48v-32c0-26.5 21.5-48 48-48s48 21.5 48 48zm7.3-202.7c27.2-14.9 67.6 2.9 90.1 39.7 22.5 36.9 17.7 78.8-8.7 93.7-27.2 14.9-67.6-2.9-90.1-40.6-22.5-36-18.6-77.9 8.7-92.8zM192 512l-109.71-.9c.44-49.6-16.73-84.9-43.17-124.9-13.13-19.7-7.59-47.1 12.43-60.1 16.42-9.7 37.57-7.9 51.85 4 53.8 44 81.6 113.5 88.6 181.9z"/></svg>