<svg xmlns="http://www.w3.org/2000/svg" viewBox="0 0 512 512"><!--! Font Awesome Pro 6.1.1 by @fontawesome - https://fontawesome.com License - https://fontawesome.com/license (Commercial License) Copyright 2022 Fonticons, Inc.--><path d="M192 129.8c4.6.9 8.7 1.8 12.1 2.7 8.6 2.3 13.6 11.1 11.4 19.6-2.3 8.6-11.1 13.6-19.6 11.4-8.3-2.2-18.8-4.1-27-3.2-4 .4-6.1 1.4-7.1 2.1-2.6 1.9-2.6 4.7-.2 7.2 6.8 4.8 15 7 23.3 9.1 8.3 2.2 16.7 4.5 23.8 9.4 4.8 3.4 9.5 8 12.4 14.6 3 6.7 3.5 13.9 2.3 21.2-2 11.5-7.9 20.4-17 25.9-4.6 2.8-9.6 4.4-14.4 5.3v8c0 9.7-7.2 16-16 16s-16-6.3-16-16v-9.9c-8.4-1.9-16-4.3-21.9-6-7.5-2.8-12.1-11.9-9.3-20.3 2.8-8.3 11.9-12.9 20.3-10.1 9.4 2.3 21.8 7 32 7.1 4.9-.8 7.6-.8 8.7-1.5h.1c2.7-1.6 3.1-6.2.5-8-4.3-3.3-9.2-4.3-18.8-7l-1.1-.3c-7.9-2.3-18.9-5.4-27.2-11.2-4.8-3.4-9.5-8-12.4-14.6-3-6.7-3.5-13.9-2.3-21.2 1.8-11 6.9-18.2 14.4-23.6 5.4-3.9 11.3-6 17-7.2v-10.2c0-7.9 7.2-16 16-16s16 8.1 16 16v10.7zM336 104c8.8 0 16 7.2 16 16v9.8c4.6.9 8.7 1.8 12.1 2.7 8.6 2.3 13.6 11.1 11.4 19.6-2.3 8.6-11.1 13.6-19.6 11.4-8.3-2.2-18.8-4.1-27-3.2-4 .4-6.1 1.4-7.1 2.1-2.6 1.9-2.6 4.7-.2 7.2 6.8 4.8 15 7 23.3 9.1 8.3 2.2 16.7 4.5 23.8 9.4 4.8 3.4 9.5 8 12.4 14.6 3 6.7 3.5 13.9 2.3 21.2-2 11.5-7.9 20.4-17 25.9-4.6 2.8-9.6 4.4-14.4 5.3v8c0 9.7-7.2 16-16 16s-16-6.3-16-16v-9.9c-8.4-1.9-16-4.3-21.9-6-7.5-2.8-12.1-11.9-9.3-20.3 2.8-8.3 11.9-12.9 20.3-10.1 9.4 2.3 21.8 7 32 7.1 4.9-.8 7.6-.8 8.7-1.5h.1c2.7-1.6 3.1-6.2.5-8-4.3-3.3-9.2-4.3-18.8-7l-1.1-.3c-7.9-2.3-18.9-5.4-27.2-11.2-4.8-3.4-9.5-8-12.4-14.6-3-6.7-3.5-13.9-2.3-21.2 1.8-11 6.9-18.2 14.4-23.6 5.4-3.9 11.3-6 17-7.2v-10.2c0-7.9 7.2-16 16-16v.9zm-68.8 258.8c3.4.6 6.5 1.3 9.1 2 6.4 1.6 10.2 8 8.5 13.3-1.7 7.1-8.3 10.8-14.7 9.1-6.2-1.6-15-2.9-20.2-2.3-3 .4-4.6.2-5.4 1.6-1.9 1.3-1.9 4-.1 5.2 5.1 3.5 11.3 5.1 17.4 6.7 6.3.7 12.6 3.2 18 6.8 3.5 2.4 7.1 5.8 9.2 10.6 2.3 4.8 2.7 10.1 1.7 15.4-1.5 8.4-5.9 14.9-13.6 18.9-2.6 2-6.3 3.1-9.9 3.8v6.5c0 6.4-5.4 11.6-12 11.6s-12-5.2-12-11.6v-7.9c-6.3-1.3-12-3.1-15.8-4.4-6.3-2-9.7-8.6-7.6-14.7 2.1-6.1 8.9-9.4 14.3-7.3 8 2.2 17.3 5 24 5.1 4.6.1 6.6-.6 7.5-1.1 2.1-1.2 1.5-4.5.4-5.8-2.6-1.8-6.9-3.1-14.1-5.1l-.8-1.1c-5.9-.8-14.2-3.1-20.4-7.3-3.6-2.4-7.2-6.7-9.3-10.6-2.3-4.8-2.7-10.1-1.7-15.4 1.3-7.4 5.1-13.2 10.8-17.2 4-2.8 8.4-4.3 12.7-5.2v-6.8c0-6.4 5.4-11.6 12-11.6s12 5.2 12 11.6v7.2zM0 256C0 114.6 114.6 0 256 0s256 114.6 256 256-114.6 256-256 256S0 397.4 0 256zm348.3 186.4C416.9 408.4 464 337.7 464 256c0-114.9-93.1-208-208-208S48 141.1 48 256c0 81.7 47.13 152.4 115.7 186.4-2.2-7.7-3.5-15.8-3.7-24.2-30.4-21.2-53.1-52.1-63.24-88.1-3.84-13.7 7.44-26.1 21.64-26.1h275.2c14.2 0 25.5 12.4 21.6 26.1-10 36-32.8 66.9-64.1 88.1.7 8.4-.6 16.5-2.8 24.2zm-44.4 16.1c5.5-6.3 9.8-13.6 12.6-21.6 2.3-6.5 3.5-13.6 3.5-20.9v-80H192v80c0 7.3 1.2 14.3 3.5 20.9 2.8 8 7.1 15.3 12.6 21.6 11.7 13.2 28.8 21.5 47.9 21.5 19.1 0 36.2-8.3 47.9-21.5z"/></svg>