<svg xmlns="http://www.w3.org/2000/svg" viewBox="0 0 512 512"><!--! Font Awesome Pro 6.1.1 by @fontawesome - https://fontawesome.com License - https://fontawesome.com/license (Commercial License) Copyright 2022 Fonticons, Inc.--><path d="M380.4 349.7c-12.2 30.4-41.6 50.3-74.3 50.3H184c-13.3 0-24-10.7-24-24s10.7-24 24-24h122.1c13.1 0 24.8-8 29.7-20.1l1.9-4.8c4.9-12.3 18.9-18.3 31.2-13.4s18.3 18.9 13.4 31.2l-1.9 4.8zM176 192c17.7 0 32 14.3 32 32s-14.3 32-32 32-32-14.3-32-32h-32c-8.8 0-16-7.2-16-16s7.2-16 16-16h64zm112 16c0-8.8 7.2-16 16-16h64c17.7 0 32 14.3 32 32s-14.3 32-32 32-32-14.3-32-32h-32c-8.8 0-16-7.2-16-16zm224 48c0 141.4-114.6 256-256 256S0 397.4 0 256 114.6 0 256 0s256 114.6 256 256zM256 48C141.1 48 48 141.1 48 256s93.1 208 208 208 208-93.1 208-208S370.9 48 256 48z"/></svg>