<svg xmlns="http://www.w3.org/2000/svg" viewBox="0 0 512 512"><!--! Font Awesome Pro 6.1.1 by @fontawesome - https://fontawesome.com License - https://fontawesome.com/license (Commercial License) Copyright 2022 Fonticons, Inc.--><path d="M143.7 332.7c9.8-9 25-8.3 33.9 1.4 15.2 16.4 41.2 33.9 78.4 33.9s63.2-17.5 78.4-33.9c8.9-9.7 24.1-10.4 33.9-1.4 9.7 9 10.3 24.2 1.3 33.9C347.7 390.5 309.7 416 256 416c-53.7 0-91.7-25.5-113.6-49.4-9-9.7-9.3-24.9 1.3-33.9zM320.4 224c0-17.7 14.3-32 32-32 17.6 0 32 14.3 32 32s-14.4 32-32 32c-17.7 0-32-14.3-32-32zm-128 0c0 17.7-14.4 32-32 32-17.7 0-32-14.3-32-32s14.3-32 32-32c17.6 0 32 14.3 32 32zM0 256c0-22.8 2.971-44.8 8.546-65.8C3.464 187.5 0 182.1 0 176c0-8.8 7.164-16 16-16h2.61C56.59 66.18 148.6 0 256 0c107.4 0 199.4 66.18 237.4 160h2.6c8.8 0 16 7.2 16 16 0 6.1-3.5 11.5-8.5 14.2 5.5 21 8.5 43 8.5 65.8 0 141.4-114.6 256-256 256S0 397.4 0 256zm256 208c114.9 0 208-93.1 208-208 0-1.8-.9-3.5-.1-5.3C462.5 280.4 438 304 408 304h-80c-30.9 0-56-25.1-56-56v-48c0-2.7.2-5.4.6-8h-33.2c.4 2.6.6 5.3.6 8v48c0 30.9-25.1 56-56 56h-80c-30.01 0-54.51-23.6-55.93-53.3-.05 1.8-.07 3.5-.07 5.3 0 114.9 93.1 208 208 208zm-32-304h64v.8c10.2-10.4 24.3-16.8 40-16.8h80c10.1 0 19.6 2.7 27.8 7.4C399.8 89.55 332.7 48 256 48c-76.7 0-143.8 41.55-179.82 103.4 8.2-4.7 17.7-7.4 27.82-7.4h80c15.7 0 29.8 6.4 40 16.8v-.8zm80 88c0 13.3 10.7 24 24 24h80c13.3 0 24-10.7 24-24v-48c0-13.3-10.7-24-24-24h-80c-13.3 0-24 10.7-24 24v48zm-200-72c-13.25 0-24 10.7-24 24v48c0 13.3 10.75 24 24 24h80c13.3 0 24-10.7 24-24v-48c0-13.3-10.7-24-24-24h-80z"/></svg>