<svg xmlns="http://www.w3.org/2000/svg" viewBox="0 0 512 512"><!--! Font Awesome Pro 6.1.1 by @fontawesome - https://fontawesome.com License - https://fontawesome.com/license (Commercial License) Copyright 2022 Fonticons, Inc.--><path d="M224 200v24c0 17.7-14.3 32-32 32h-80c-17.67 0-32-14.3-32-32v-24c0-39.8 32.2-72 72-72s72 32.2 72 72zm-32 24v-24c0-2-.1-3.9-.4-5.8-4.2 3.6-10.5 5.8-15.6 5.8-13.3 0-24-10.7-24-24 0-6 2.2-11.4 5.8-15.6-1.9-.3-4.7-.4-5.8-.4-22.1 0-40 17.9-40 40v24h80zm224-16v17.9c0 16.6-13.5 30.1-30.1 30.1h-99.8c-16.6 0-31-13.5-31-30.1V208c0-44.2 36.7-80 80.9-80s80 35.8 80 80zm-72-32c0-5.4 1.8-10.3 4.7-14.3-4-1.1-8.3-1.7-12.7-1.7-26.5 0-48 21.5-48 48v16h96v-16c0-4.4-.6-8.7-1.7-12.7-4 2.9-8.9 4.7-14.3 4.7-13.3 0-24-10.7-24-24zM116.3 288h279.4c10.4 0 18.2 9.6 15.9 19.8-3.9 17.4-10.6 33.6-19.5 48.2-28.2 45.9-78.9 75.6-135 75.1l-1.1.9c-4.6 0-9.3-.2-13.8-.6-68.5-5.9-126.7-55.6-141.8-123.6-2.26-10.2 5.5-19.8 15.9-19.8zm222 48c-39.2 0-71.9 27.3-80.3 63.1 44.1.2 83.8-23.2 106.2-58.9-8.1-2.7-16.8-4.2-25.9-4.2zM512 256c0 141.4-114.6 256-256 256S0 397.4 0 256 114.6 0 256 0s256 114.6 256 256zM256 48C141.1 48 48 141.1 48 256s93.1 208 208 208 208-93.1 208-208S370.9 48 256 48z"/></svg>