<svg xmlns="http://www.w3.org/2000/svg" viewBox="0 0 512 512"><!--! Font Awesome Pro 6.1.1 by @fontawesome - https://fontawesome.com License - https://fontawesome.com/license (Commercial License) Copyright 2022 Fonticons, Inc.--><path d="M336 400c0 8.8-7.2 16-16 16H192c-8.8 0-16-7.2-16-16 0-44.2 35.8-80 80-80s80 35.8 80 80zM208.4 224c0 17.7-14.4 32-32 32-17.7 0-32-14.3-32-32s14.3-32 32-32c17.6 0 32 14.3 32 32zm96 0c0-17.7 14.3-32 32-32 17.6 0 32 14.3 32 32s-14.4 32-32 32c-17.7 0-32-14.3-32-32zM192 144c-4.4 0-8.8.3-13.9.9-20.3 2.8-39.7 12.3-55.2 26.8-6.4 6-16.6 5.7-22.6-.8-6.02-6.4-5.68-16.6.8-22.6 20-18.7 45.5-31.4 73.7-35.2 5.6-.7 11.4-1.1 17.2-1.1 8.8 0 16 7.2 16 16s-7.2 16-16 16zm141 .9c-4.2-.6-8.6-.9-13-.9-8.8 0-16-7.2-16-16s7.2-16 16-16c5.8 0 11.6.4 17.2 1.1 28.2 3.8 53.7 16.5 73.7 35.2 6.5 6 6.8 16.2.8 22.6-6 6.5-16.2 6.8-22.6.8-15.5-14.5-34.9-24-56.1-26.8zM512 256c0 141.4-114.6 256-256 256S0 397.4 0 256 114.6 0 256 0s256 114.6 256 256zM256 48C141.1 48 48 141.1 48 256s93.1 208 208 208 208-93.1 208-208S370.9 48 256 48z"/></svg>