<svg xmlns="http://www.w3.org/2000/svg" viewBox="0 0 512 512"><!--! Font Awesome Pro 6.1.1 by @fontawesome - https://fontawesome.com License - https://fontawesome.com/license (Commercial License) Copyright 2022 Fonticons, Inc.--><path d="M338.1 304.5c-.3-6.6 4-12.2 11.5-12.5 46.9-1.9 82.2-44.9 78.1-84.3l-.1-.3v-.4c-2-40.2-40.8-70.6-76.2-66.7l-.3.1h-.3c-36.3 2.1-62.2 35.7-58.4 64.5v.7c2.2 29.8 31.3 51 56 47.5h.3l.4-.1c25.7-2.1 42-26.2 38-44.5l.8-.4v-.3c-2.2-19.5-21.5-31.4-35.5-28.6l-.3.1h-.4c-15.1 2.1-21.9 16.4-19.9 24.1l.1.3.1.4c.9 4.3 3.4 7.4 6.6 9.2.9.5 1.7.9 2.5 1.2-1.6-1.9-2.7-4.3-3-7-1-11.1 8-15.8 14.1-16.4 6.6-.7 13.4 2.2 17.7 8.5 4.9 6.8 4.4 15.5 1.8 21.8-2.9 7-8.9 13.2-17.8 15.9-9.2 3.3-19.4 1.4-27.5-3.3-8.3-4.9-16.3-13.3-17.8-24.8-5.9-22.8 11.8-49.5 39.5-53.6 27.7-5.3 59.8 16.2 63.6 49.2 5.4 33-21.9 68.7-60.3 72.1-38.2 5.2-79.6-25.8-82.9-69.2-5.4-43.3 30.6-88.3 80.6-91.2 48.8-5.3 99.6 35.1 102.5 89 5.5 53.8-41.1 108.1-101 109.6-6.7 1.2-12.2-4-12.5-10.6zm-29.2 42.1c22.2-14.8 51.7-11.9 70.6 7l4.6 5.4c10.2 9.4 10.2 24.6 0 33.1-8.5 10.2-23.7 10.2-33.1 0l-5.4-4.6c-2.7-2.7-6.9-3.1-10.1-1l-6.7 3.6c-20.3 14.4-47 13.3-66.1-2l-2.6-1.4c-2-2.3-6.2-2.3-9.1 0l-1.7 1.4c-19.1 15.3-45.8 16.4-66.1 2l-6.7-3.6c-3.2-2.1-7.4-1.7-10.1 1l-6.3 4.6c-8.5 10.2-23.7 10.2-33.1 0-9.3-8.5-9.3-23.7 0-33.1l5.5-5.4c18.9-18.9 48.4-21.8 70.6-7l6.7 4.5c2.9 1 6.8 1.7 9.5-.5l1.7-1.3c20.5-16.4 49.5-16.4 69.1 0l2.6 1.3c2.7 2.2 6.6 1.5 9.5.5l6.7-4.5zM512 256c0 141.4-114.6 256-256 256S0 397.4 0 256 114.6 0 256 0s256 114.6 256 256zM256 48c-71 0-133.6 35.52-171.14 89.8 18.44-21.6 45.74-36.6 76.54-37.8 6.7-.26 12.2 4.9 12.5 11.5.3 6.6-4.9 12.2-11.5 11.6-46.9 2.8-82.25 45.8-78.06 85.2l.04.3.01-.5c1.99 41.1 40.81 71.5 76.21 67.6l.3-.1h.3c36.3-2.1 62.2-35.7 58.4-64.5v-.7c-2.2-29.8-31.3-51-56-47.5h-.3l-.4-.8c-25.7 3-42 27.1-38.9 45.4l.1.4v.3c2.2 19.5 21.5 31.4 35.5 28.6l.3-.1h.4c15.1-2.1 21.9-16.4 19.9-24.1l-.1-.3-1-.4c0-4.3-2.5-7.4-5.6-9.2-1-.5-1.8-.9-2.6-1.2 1.6 1.9 2.7 4.3 3 7 1 11.1-8.9 15.8-14.1 16.4-6.6.7-13.4-2.2-17.7-8.5-4.9-6.8-4.4-15.5-1.8-21.8 2.9-7 8.9-13.2 17.8-15.9 9.2-3.3 19.4-1.4 27.5 2.4 8.3 5.8 15.4 14.2 17.8 25.7 5.9 22.8-11.8 49.5-39.5 53.6-27.7 5.3-59.8-16.2-63.6-49.2-5.39-33 21.9-68.7 60.3-72.1 38.2-5.2 79.6 25.8 82.9 69.2 5.4 43.3-31.5 88.3-80.6 91.2-48.8 5.3-99.6-35.1-102.46-89-1.15-11.3-.02-22.6 3.03-33.4-9.97 24.4-16.37 51-16.37 78 0 115.8 94 208.9 208 208.9C370.9 464 464 370.9 464 255.1c0-114-93.1-208-208.9-208l.9.9z"/></svg>