<svg xmlns="http://www.w3.org/2000/svg" viewBox="0 0 512 512"><!--! Font Awesome Pro 6.1.1 by @fontawesome - https://fontawesome.com License - https://fontawesome.com/license (Commercial License) Copyright 2022 Fonticons, Inc.--><path d="M208.4 240c0 17.7-14.4 32-32 32-17.7 0-32-14.3-32-32s14.3-32 32-32c17.6 0 32 14.3 32 32zm96 0c0-17.7 14.3-32 32-32 17.6 0 32 14.3 32 32s-14.4 32-32 32c-17.7 0-32-14.3-32-32zM160 352c0-13.3 10.7-24 24-24h144c13.3 0 24 10.7 24 24s-10.7 24-24 24H184c-13.3 0-24-10.7-24-24zm139.3-180.7c-6.2 6.3-16.4 6.3-22.6 0-6.3-6.2-6.3-16.4 0-22.6l29.5-29.5c25-25 66.6-20.88 86.2 8.5l4.9 7.4c4.9 7.4 2.9 17.3-4.4 22.2-7.4 4.9-17.3 2.9-22.2-4.4l-4.9-7.4c-8.4-12.6-26.3-14.4-37-3.7l-29.5 29.5zM192 144c8.8 0 16 7.2 16 16s-7.2 16-16 16h-64c-8.8 0-16-7.2-16-16s7.2-16 16-16h64zM0 256C0 114.6 114.6 0 256 0s256 114.6 256 256-114.6 256-256 256S0 397.4 0 256zM256 48C141.1 48 48 141.1 48 256s93.1 208 208 208 208-93.1 208-208S370.9 48 256 48z"/></svg>