<svg xmlns="http://www.w3.org/2000/svg" viewBox="0 0 576 512"><!--! Font Awesome Pro 6.1.1 by @fontawesome - https://fontawesome.com License - https://fontawesome.com/license (Commercial License) Copyright 2022 Fonticons, Inc.--><path d="M136.6 210.4c-10.1-9.3-11.5-23.6-3-33.8 13-15.6 48-40.6 97.5-40.6 14.2 0 24 10.7 24 24s-9.8 24-24 24c-34 0-55.9 17.6-60.7 23.4-9.3 10.1-23.6 11.5-33.8 3zM320 160c0-13.3 10.7-24 24-24 48.9 0 83.5 20.2 96.1 33.7 10.2 9.4 10.2 24.6 0 33.9-8.5 9.4-23.7 9.4-33.1 0-4.3-4.3-26.6-19.6-63-19.6-13.3 0-24-10.7-24-24zM287.1 0c126.1 0 230.3 89.86 252.5 208.6 7.1-2 14.9 1.1 18.5 7.9 4.2 7.8 1.2 16.6-6.6 21.6l-7.9 4.2c.3 4.6.4 9.1.4 13.7 0 141.4-114.6 256-256 256S32 397.4 32 256c0-4.6.12-9.1.36-13.7l-7.89-4.2c-7.8-5-10.75-13.8-6.59-21.6 3.61-6.8 11.4-9.9 18.5-7.9C58.6 89.86 162.8 0 288 0h-.9zm-160 388.9V312c0-6.9 1.7-11.9 3.3-17.4l-50.06-26.7c2.59 45.9 20.06 87.8 46.76 121zm19.4-122.8c11.6-10.9 27.7-18.1 44.6-18.1H384c17.8 0 33.9 7.2 45.5 18.1l65.2-33.9C482.8 128.5 394.8 48 287.1 48 181.2 48 93.16 128.5 81.35 232.2l65.15 33.9zm349.2 1.8-50.1 26.7c1.6 5.5 2.4 10.5 2.4 17.4v76.9c27.6-33.2 45.1-75.1 47.7-121zM175.1 320H400v-8c0-8.8-7.2-16-16-16H191.1c-7.9 0-16 7.2-16 16v8zm0 64H400v-32H175.1v32zm24 56H376c13.3 0 24-10.7 24-24H175.1c0 13.3 11.6 24 24 24z"/></svg>