<svg xmlns="http://www.w3.org/2000/svg" viewBox="0 0 512 512"><!--! Font Awesome Pro 6.1.1 by @fontawesome - https://fontawesome.com License - https://fontawesome.com/license (Commercial License) Copyright 2022 Fonticons, Inc.--><path d="M256 47.1c-114.9 0-208 94-208 208 0 59 24.55 113.1 64 151v10.7c0 21.9 5.5 42.5 15.3 60.6C51.17 432.1 0 350.5 0 256 0 114.6 114.6 0 256 0s256 114.6 256 256c0 113.1-73.3 209.1-175.1 242.9l49-49c11.7-11.7 16.1-27.9 13.2-43C439.1 369 464 315.4 464 256c0-114.9-93.1-208-208-208v-.9zm-38.4 181.7-.2-.3c-.2-.2-.4-.5-.7-.9-.7-.8-1.6-1.9-2.8-3.3-2.5-2.9-6-6.6-10.2-11.2-8.8-6.9-18.9-13.1-27.7-13.1s-18.9 6.2-27.7 13.1c-4.2 4.6-7.7 8.3-10.2 11.2-1.2 1.4-3 2.5-2.8 3.3-1.2.4-.5.7-.7.9l-.2.3c-2.1 2.8-5.7 3.9-8.9 2.8-3.3-1.1-5.5-4.2-5.5-8.5 0-17 6.7-34.7 16.6-47.9 9.8-13 23.9-24.1 39.4-24.1s29.6 11.1 39.4 24.1c9.9 13.2 16.6 30.9 16.6 47.9 0 4.3-2.2 7.4-5.5 8.5-3.2 1.1-6.8 0-8.9-2.8zm160 0-.2-.3c-.2-.2-.4-.5-.7-.9-.7-.8-1.6-1.9-2.8-3.3-2.5-2.9-6-6.6-10.2-11.2-8.8-6.9-18.9-13.1-27.7-13.1s-18.9 6.2-27.7 13.1c-4.2 4.6-7.7 8.3-10.2 11.2-1.2 1.4-3 2.5-2.8 3.3-1.2.4-.5.7-.7.9l-.2.3c-2.1 2.8-5.7 3.9-8.9 2.8-3.3-1.1-5.5-4.2-5.5-7.6 0-17.9 6.7-35.6 16.6-48.8 9.8-13 23.9-23.2 39.4-23.2s29.6 10.2 39.4 23.2c9.9 13.2 16.6 30.9 16.6 48.8 0 3.4-2.2 6.5-5.5 7.6-3.2 1.1-6.8 0-8.9-2.8zm-78.3 47.9c6.3 6.2 6.3 16.4 0 22.6L248 350.6a6.64 6.64 0 0 0 0 9.4c2.6 2.6 6.8 2.6 9.4 0l67.3-67.3c6.2-6.3 16.4-6.3 22.6 0 6.3 6.2 6.3 16.4 0 22.6L280 382.6a6.64 6.64 0 0 0 0 9.4c2.6 2.6 6.8 2.6 9.4 0l51.3-51.3c6.2-6.3 16.4-6.3 22.6 0 6.3 6.2 6.3 16.4 0 22.6L312 414.6a6.64 6.64 0 0 0 0 9.4c2.6 2.6 6.8 2.6 9.4 0l19.3-19.3c6.2-6.3 16.4-6.3 22.6 0 6.3 6.2 6.3 16.4 0 22.6l-56.8 56.8c-17.8 17-42.1 27.9-67.3 27.9-52.6 0-95.2-42.6-95.2-95.2v-86.4c0-11 8.1-20 20-20 11 0 20 9 20 20v19.7c0 7.1 8.6 10.7 13.7 5.6l79-79c6.2-6.3 16.4-6.3 22.6 0z"/></svg>