<svg xmlns="http://www.w3.org/2000/svg" viewBox="0 0 640 512"><!--! Font Awesome Pro 6.1.1 by @fontawesome - https://fontawesome.com License - https://fontawesome.com/license (Commercial License) Copyright 2022 Fonticons, Inc.--><path d="M319.1 48c-57.8 0-110.9 24.34-148.7 63.5-1.6-8.5-5.6-16.61-12.2-23.18-5.9-5.97-14.1-9.87-20.9-11.69C183.8 29.34 248.5 0 319.1 0c98.4 0 183.1 54.49 226.4 134.7-15.9-6.5-34.8-3.3-47.7 9.6l-1.4 1.4C459.6 87.04 394.4 48 319.1 48zm0 464c-108.7 0-203-68.8-238.67-165.6 12.36 4.3 25.47 6.5 38.77 6.5h16.7C170.7 418.1 240.1 464 319.1 464c63.4 0 119.4-27.5 157.5-71.1h44.2c5.5 0 10.9-.4 16.3-1.1-45.3 71.3-125.6 120.2-218 120.2zM352 272c0 13.4 6.6 25.3 16.7 32.5-.3 1.4-.5 2.8-.6 4.2-37-10.4-65-44.4-65-84.7 0-48.6 40.3-88 88.9-88 6.6 0 13 .7 19.2 2.1-7.7 2.6-14.7 7.5-19.8 14.7-4.3 4.8-5.6 9.3-6.7 15.7-27.5 3.5-48.7 27-48.7 55.5 0 15.7 6.4 29.8 16.8 39.1-.5 3.5-.8 6.2-.8 8.9zm-96 112c0-26.5 28.7-48 64-48s64 21.5 64 48-28.7 48-64 48-64-21.5-64-48zm118.5-144c-3.8-4.2-6.1-9.9-6.1-16 0-13.3 10.7-24 24-24 13.2 0 24 10.7 24 24 0 6.1-2.3 11.8-6.1 16h-35.8zM248 192c0 8.8-7.2 16-16 16h-62.4c-2.2 0-4 1.8-4 4s1.8 4 4 4H248c8.8 0 16 7.2 16 16s-7.2 16-16 16h-78.4c-2.2 0-4 1.8-4 4s1.8 4 4 4H232c8.8 0 16 7.2 16 16s-7.2 16-16 16h-62c-2.4 0-4.4 1.1-4.4 4.5 0 2.4 2 4.4 4.4 4.4h13.1c9.7 0 16 7.2 16 16s-6.3 16-16 16h-63.9c-25.25 0-49.47-10-67.32-27.9-36.9-36.9-37.17-96.6-.8-133.8l.8-.8 60.22-61.1c8.7-7.82 21.4-7.82 29.2 0 7.8 7.8 7.8 20.5 0 28.3l-28.8 28.7c-5 5.1-1.5 13.7 5.7 13.7H232c8.8 0 16 7.2 16 16zm185.3-29.9 81.8 59.3c2.2 1.6 5 2.3 7.8 2 9.3-1.1 13.2-13.3 6.6-19l-14.8-14.8c-7.8-7.8-7.8-20.5 0-28.3 7.8-7.8 20.5-7.8 28.3 0l45.1 45.1.8.8c36.4 37.2 36.1 96.9-.8 133.8-17.8 17.9-42 27.9-67.3 27.9H456c-8.8 0-16-7.2-16-16s7.2-16 16-16h19.5c2.5 0 4.5-2 4.5-4.4 0-3.4-2-4.5-4.5-4.5H408c-8.8 0-16-7.2-16-16s7.2-16 16-16h68c2.2 0 4-1.8 4-4s-1.8-4-4-4h-84c-8.8 0-16-7.2-16-16s7.2-16 16-16h74.6c6.5 0 13.4-6.9 13.4-13.4 0-4.4-2.1-8.4-5.6-11L414.7 189c-7.2-5.1-8.9-15.1-4.6-22.3 6-7.2 16-8.9 23.2-4.6z"/></svg>