<svg xmlns="http://www.w3.org/2000/svg" viewBox="0 0 512 512"><!--! Font Awesome Pro 6.1.1 by @fontawesome - https://fontawesome.com License - https://fontawesome.com/license (Commercial License) Copyright 2022 Fonticons, Inc.--><path d="M208.4 176c0 17.7-14.4 32-32 32-17.7 0-32-14.3-32-32s14.3-32 32-32c17.6 0 32 14.3 32 32zm160 0c0 17.7-14.4 32-32 32-17.7 0-32-14.3-32-32s14.3-32 32-32c17.6 0 32 14.3 32 32zM161.6 395.2c-11.5-8-12.7-23-4.8-33.6 18.9-25.2 48.3-41.6 83.2-41.6 14.7 0 28.8 3.1 41.6 8.7 12.2 4.4 17.7 19.4 11.5 31.6-4.4 12.1-18.6 16.8-30.7 12.3-6.8-2.9-14.4-4.6-22.4-4.6-18.3 0-34.6 8.8-44.8 22.4-8 10.6-23 12.7-33.6 4.8zm337.1-57.5C464.6 439 368.8 512 256 512 114.6 512 0 397.4 0 256S114.6 0 256 0s256 114.6 256 256c0 8.8-.4 17.6-1.3 26.2.8 4.5 1.3 9.1 1.3 13.8 0 15.6-4.9 29.1-13.3 41.7zM352 368c-13.3 0-24-10.7-24-24s10.7-24 24-24h88c13.3 0 24-10.7 24-24s-10.7-24-24-24H288c-13.3 0-24-10.7-24-24s10.7-24 24-24h152c7.7 0 15.1 1.2 22.1 3.4C448.1 126.1 361.2 48 256 48 141.1 48 48 141.1 48 256s93.1 208 208 208c73.6 0 138.3-38.3 175.3-96H352z"/></svg>