<svg xmlns="http://www.w3.org/2000/svg" viewBox="0 0 640 512"><!--! Font Awesome Pro 6.1.1 by @fontawesome - https://fontawesome.com License - https://fontawesome.com/license (Commercial License) Copyright 2022 Fonticons, Inc.--><path d="M319.1 352c28.3 0 49.5-9.4 64.9-20.9v55.4c-18.9 8.1-39.4 13.5-64.9 13.5-23.7 0-45.1-5.4-64-13.5v-55.4c16.3 11.5 37.5 20.9 64 20.9zM64.34 242.6C71.31 107.5 183.1 0 319.1 0c137.8 0 249.6 107.5 256.6 242.6-16.1-5.5-34.4-2.3-48.6 9.7-2-113.2-93.5-204.3-208-204.3C206.4 48 114 139.1 112 252.3c-13.27-12-31.63-15.2-47.66-9.7zM319.1 464c25.1 0 48.3-4.1 69.9-11.7 4.6 15.8 12.2 30.4 22.1 43-28.3 10.8-59 16.7-91.1 16.7-32.1 0-62.8-5.9-91.1-16.7 9.9-12.6 17.5-27.2 21.2-43 22.5 7.6 45.7 11.7 69.9 11.7h-.9zm-37.5-235.2-.2-.3c-.2-.2-.4-.5-.7-.9-.7-.8-1.6-1.9-2.8-3.3-2.5-2.9-6-6.6-10.2-11.2-8.8-6.9-18.9-13.1-28.6-13.1-7.9 0-18 6.2-26.8 13.1-4.2 4.6-7.7 8.3-10.2 11.2-1.2 1.4-3 2.5-2.8 3.3-1.2.4-.5.7-.7.9l-.2.3c-2.1 2.8-5.7 3.9-8.9 2.8-3.3-1.1-6.4-4.2-6.4-7.6 0-17.9 7.6-35.6 17.5-48.8 9.8-13 23.9-23.2 38.5-23.2 16.4 0 30.5 10.2 40.3 23.2 9.9 13.2 15.7 30.9 15.7 48.8 0 3.4-1.3 6.5-4.6 7.6-3.2 1.1-6.8 0-8.9-2.8zm160 0-.2-.3c-.2-.2-.4-.5-.7-.9-.7-.8-1.6-1.9-2.8-3.3-2.5-2.9-6-6.6-10.2-11.2-8.8-6.9-18.9-13.1-27.7-13.1s-18.9 6.2-27.7 13.1c-4.2 4.6-7.7 8.3-10.2 11.2-1.2 1.4-3 2.5-2.8 3.3-1.2.4-.5.7-.7.9l-.2.3c-2.1 2.8-5.7 3.9-8.9 2.8-3.3-1.1-5.5-4.2-5.5-7.6 0-17.9 6.7-35.6 16.6-48.8 9.8-13 23.9-23.2 39.4-23.2s29.6 10.2 39.4 23.2c9.9 13.2 16.6 30.9 16.6 48.8 0 3.4-2.2 6.5-5.5 7.6-3.2 1.1-6.8 0-8.9-2.8zM520 350.6a6.64 6.64 0 0 0 0 9.4c2.6 2.6 6.8 2.6 9.4 0l67.3-67.3c6.2-6.3 16.4-6.3 22.6 0 6.3 6.2 6.3 16.4 0 22.6L552 382.6a6.64 6.64 0 0 0 0 9.4c2.6 2.6 6.8 2.6 9.4 0l51.3-51.3c6.2-6.3 16.4-6.3 22.6 0 6.3 6.2 6.3 16.4 0 22.6L584 414.6a6.64 6.64 0 0 0 0 9.4c2.6 2.6 6.8 2.6 9.4 0l19.3-19.3c6.2-6.3 16.4-6.3 22.6 0 6.3 6.2 6.3 16.4 0 22.6l-56.8 56.8c-17.8 17-42.1 27.9-67.3 27.9-52.6 0-95.2-42.6-95.2-95.2v-86.4c0-11 8.1-20 20-20 11 0 20 9 20 20v19.7c0 7.1 8.6 10.7 13.7 5.6l79-79c6.2-6.3 16.4-6.3 22.6 0 6.3 6.2 6.3 16.4 0 22.6L520 350.6zM91.31 276.7l78.99 79c5.1 5.1 13.7 1.5 13.7-5.6v-19.7c0-11 8.1-20 20-20 11 0 20 9 20 20v86.4c0 52.6-42.6 95.2-95.2 95.2-25.2 0-49.46-10.9-67.31-27.9L4.686 427.3c-6.248-6.2-6.248-16.4 0-22.6 6.244-6.3 16.384-6.3 22.624 0L46.63 424c2.59 2.6 6.78 2.6 8.47 0 3.49-2.6 3.49-6.8 0-9.4L4.686 363.3c-6.248-6.2-6.248-16.4 0-22.6 6.244-6.3 16.384-6.3 22.624 0L78.63 392c2.59 2.6 6.78 2.6 8.47 0 3.49-2.6 3.49-6.8 0-9.4l-66.41-67.3c-6.25-6.2-6.25-16.4 0-22.6 6.24-6.3 16.37-6.3 22.62 0L110.6 360c2.6 2.6 6.8 2.6 8.5 0 3.5-2.6 3.5-6.8 0-9.4l-50.41-51.3c-6.25-6.2-6.25-16.4 0-22.6 6.24-6.3 16.37-6.3 22.62 0z"/></svg>