<svg xmlns="http://www.w3.org/2000/svg" viewBox="0 0 640 512"><!--! Font Awesome Pro 6.1.1 by @fontawesome - https://fontawesome.com License - https://fontawesome.com/license (Commercial License) Copyright 2022 Fonticons, Inc.--><path d="M188.4 42.8C198.6 35.98 210.8 32 224 32c35.3 0 64 28.65 64 64 0 35.3-28.7 64-64 64H64c-35.35 0-64-28.7-64-64 0-35.35 28.65-64 64-64h8.56C83.63 12.87 104.3 0 128 0c27.9 0 51.7 17.87 60.4 42.8zM122 192c-6.5 20.2-10 41.7-10 64 0 80.2 45.4 149.9 112 184.6.1 22.2 7.2 42.8 19.3 59.7C139.4 467.7 64 370.6 64 256c0-22.1 2.8-43.5 8.06-64H122zM307.4 48.38c-10.6-18.55-27.3-33.22-47.3-41.344C279.3 2.436 299.4 0 320 0c141.4 0 256 114.6 256 256 0 14.8-1.3 29.3-3.7 43.5a79.22 79.22 0 0 0-45.7-19.2c.9-8 1.4-16.1 1.4-24.3 0-114.9-93.1-208-208-208-4.2 0-8.4.13-12.6.38zM272.4 208c0 17.7-14.4 32-32 32-17.7 0-32-14.3-32-32s14.3-32 32-32c17.6 0 32 14.3 32 32zm96 0c0-17.7 14.3-32 32-32 17.6 0 32 14.3 32 32s-14.4 32-32 32c-17.7 0-32-14.3-32-32zM336 368c0-44.2 35.8-80 80-80 29.3 0 54.9 15.8 68.9 39.3 8.7-9.4 21.2-15.3 35.1-15.3 26.5 0 48 21.5 48 48 0 2.7-.2 5.4-.7 8h.7c39.8 0 72 32.2 72 72s-32.2 72-72 72H328c-39.8 0-72-32.2-72-72s32.2-72 72-72h8z"/></svg>