<svg xmlns="http://www.w3.org/2000/svg" viewBox="0 0 512 512"><!--! Font Awesome Pro 6.1.1 by @fontawesome - https://fontawesome.com License - https://fontawesome.com/license (Commercial License) Copyright 2022 Fonticons, Inc.--><path d="M48 256c0 73.6 38.27 138.3 96 175.3V456c0 11.8 2.3 23.1 6.5 33.3C61.76 449.1 0 359.8 0 256 0 114.6 114.6 0 256 0s256 114.6 256 256c0 82.2-38.8 155.4-99.9 202.3 7.2-18.5 3.5-39.5-9.5-54.7C440.5 365.9 464 313.7 464 256c0-114.9-93.1-208-208-208S48 141.1 48 256zm299.3-4.7c-8.7 8.8-20.5 17.7-35.3 24.6V248c0-2.8-.2-5.6-.6-8.4 5.2-3.5 9.6-7.2 13.3-10.9 6.2-6.3 16.4-6.3 22.6 0 6.3 6.2 6.3 16.4 0 22.6zM200 275.9c-14.8-6.9-26.6-15.8-35.3-24.6-6.3-6.2-6.3-16.4 0-22.6 6.2-6.3 16.4-6.3 22.6 0 2.8 3.7 8.1 7.4 13.3 10.9-.4 2.8-.6 5.6-.6 8.4v27.9zM144.4 144c0-17.7 14.3-32 32-32 17.6 0 32 14.3 32 32s-14.4 32-32 32c-17.7 0-32-14.3-32-32zm160 0c0-17.7 14.3-32 32-32 17.6 0 32 14.3 32 32s-14.4 32-32 32c-17.7 0-32-14.3-32-32zM280 320h-48v-72c0-13.3 10.7-24 24-24s24 10.7 24 24v72zm-56 99.5 63.6 44.5h9.9c7.1 0 13.9-3.2 17.6-8.6l26.5-30.8c8.4-10.1 23.6-11.5 33.8-3 10.1 8.4 11.5 23.6 3 33.8l-25.6 30.7c-13.7 16.4-33.9 25.9-55.3 25.9H232c-30.9 0-56-25.1-56-56v-48c0-30.9 25.1-56 56-56h32c30.9 0 56 25.1 56 56v8c0 13.3-10.7 24-24 24s-24-10.7-24-24v-8c0-4.4-3.6-8-8-8h-32c-4.4 0-8 3.6-8 8v11.5z"/></svg>