<svg xmlns="http://www.w3.org/2000/svg" viewBox="0 0 512 512"><!--! Font Awesome Pro 6.1.1 by @fontawesome - https://fontawesome.com License - https://fontawesome.com/license (Commercial License) Copyright 2022 Fonticons, Inc.--><path d="M256 392c-18.4 0-31.1 8.5-38.5 16.4-9 9.7-24.2 10.2-33.9 1.1-9.7-9-10.2-24.2-1.1-33.9 14.2-15.3 38.9-31.6 73.5-31.6s59.3 16.3 73.5 31.6c9.1 9.7 8.6 24.9-1.1 33.9-9.7 9.1-24.9 8.6-33.9-1.1-7.4-7.9-20.1-16.4-38.5-16.4zm-44.7-124.7-7.4 7.4c-23.5 23.6-53.9 39.2-86.8 44.7l-2.5.4c-8.7 1.4-16.93-4.5-18.38-13.2-1.46-8.7 4.48-16.9 13.18-18.4l2.5-.4c26.3-4.4 50.6-16.9 69.4-35.7l7.4-7.4c6.2-6.3 16.4-6.3 22.6 0 6.3 6.2 6.3 16.4 0 22.6zm89.4 0c-6.3-6.2-6.3-16.4 0-22.6 6.2-6.3 16.4-6.3 22.6 0l7.4 7.4c18.8 18.8 43.1 31.3 69.5 35.7l2.4.4c8.7 1.5 14.6 9.7 13.2 18.4-1.5 8.7-9.7 14.6-18.4 13.2l-2.5-.4c-33.8-5.5-63.3-21.1-86.8-44.7l-7.4-7.4zM512 256c0 141.4-114.6 256-256 256S0 397.4 0 256 114.6 0 256 0s256 114.6 256 256zM256 48C141.1 48 48 141.1 48 256s93.1 208 208 208 208-93.1 208-208S370.9 48 256 48z"/></svg>