<svg xmlns="http://www.w3.org/2000/svg" viewBox="0 0 512 512"><!--! Font Awesome Pro 6.1.1 by @fontawesome - https://fontawesome.com License - https://fontawesome.com/license (Commercial License) Copyright 2022 Fonticons, Inc.--><path d="M112 406.1v10.7c0 21.9 5.5 42.5 15.3 60.6C51.17 432.1 0 350.5 0 256 0 114.6 114.6 0 256 0s256 114.6 256 256c0 113.1-73.3 209.1-175.1 242.9l49-49c11.7-11.7 16.1-27.9 13.2-43C439.1 369 464 315.4 464 256c0-114.9-93.1-208-208-208S48 141.1 48 256c0 58.1 24.55 112.2 64 150.1zm144-199c35.6 0 66.6 20.3 83.2 49-4.8-.3-9.6.1-14.3 1.2-1.8-1.1-2.8-2.2-3-3.2-18.7-18.8-49.1-18.8-67.8 0l-48 47c-8.5-13.7-24.2-22.7-42.1-22.7h-.5c11.2-40.6 48.3-71.3 92.5-71.3zM226.7 105c8.3 10.4 6.6 25.5-4.6 33.7l-80 64c-9.5 8.3-24.6 6.6-32.8-4.6-9.2-9.5-6.6-24.6 3.7-32.8l80-64c10.4-8.32 25.5-6.64 33.7 3.7zm62.3 33.7c-10.3-8.2-12.9-23.3-3.7-33.7 8.2-10.34 23.3-12.02 32.8-3.7l80 64c11.2 8.2 12.9 23.3 4.6 32.8-8.2 11.2-23.3 12.9-33.7 4.6l-80-64zm10.3 138c6.3 6.2 6.3 16.4 0 22.6L248 350.6a6.64 6.64 0 0 0 0 9.4c2.6 2.6 6.8 2.6 9.4 0l67.3-67.3c6.2-6.3 16.4-6.3 22.6 0 6.3 6.2 6.3 16.4 0 22.6L280 382.6a6.64 6.64 0 0 0 0 9.4c2.6 2.6 6.8 2.6 9.4 0l51.3-51.3c6.2-6.3 16.4-6.3 22.6 0 6.3 6.2 6.3 16.4 0 22.6L312 414.6a6.64 6.64 0 0 0 0 9.4c2.6 2.6 6.8 2.6 9.4 0l19.3-19.3c6.2-6.3 16.4-6.3 22.6 0 6.3 6.2 6.3 16.4 0 22.6l-56.8 56.8c-17.8 17-42.1 27.9-67.3 27.9-52.6 0-95.2-42.6-95.2-95.2v-86.4c0-11 8.1-20 20-20 11 0 20 9 20 20v19.7c0 7.1 8.6 10.7 13.7 5.6l79-79c6.2-6.3 16.4-6.3 22.6 0z"/></svg>