<svg xmlns="http://www.w3.org/2000/svg" viewBox="0 0 512 512"><!--! Font Awesome Pro 6.1.1 by @fontawesome - https://fontawesome.com License - https://fontawesome.com/license (Commercial License) Copyright 2022 Fonticons, Inc.--><path d="M256.1 319.1c42.3 0 78.8 26.4 94.7 63 5.4 12.3-8.7 21.6-21.1 16.4-22.4-9.5-47.3-14.8-73.6-14.8-26.4 0-51.3 5.3-73.7 14.8-12.4 5.2-26.5-4.1-21.1-16.4 15.9-36.6 52.4-63 94.8-63zM144.4 240c0-8.8 3.5-16.8 9.3-22.6l-30.8-10.2c-8.3-2.8-12.9-11.9-10.1-20.3 2.8-8.3 11.9-12.9 20.3-10.1l96 32c8.3 2.8 12 11.9 10.1 20.3-2.8 8.3-11.9 12-20.3 10.1l-10.8-3.6c.2 1.4.3 2.9.3 4.4 0 17.7-14.4 32-32 32-17.7 0-32-14.3-32-32zm224 0c0 17.7-14.4 32-32 32-17.7 0-32-14.3-32-32 0-1.6.1-3.2.3-4.7l-11.6 3.9c-8.4 1.9-17.5-1.8-20.3-10.1-2.8-8.4 1.8-17.5 10.1-20.3l96-32c8.4-2.8 17.5 1.8 20.3 10.1 1.9 8.4-1.8 17.5-10.1 20.3l-30.2 10c5.8 5.8 9.5 13.9 9.5 22.8zM0 256C0 114.6 114.6 0 256 0s256 114.6 256 256-114.6 256-256 256S0 397.4 0 256zm256 208c114.9 0 208-93.1 208-208S370.9 48 256 48 48 141.1 48 256s93.1 208 208 208z"/></svg>