<svg xmlns="http://www.w3.org/2000/svg" viewBox="0 0 512 512"><!--! Font Awesome Pro 6.1.1 by @fontawesome - https://fontawesome.com License - https://fontawesome.com/license (Commercial License) Copyright 2022 Fonticons, Inc.--><path d="M35.23 126.3C14.94 120.8 0 102.7 0 81.01 0 61.02 28.55 20.65 41.6 3.281a7.882 7.882 0 0 1 12.8 0C63.94 15.86 81.49 40.51 90.43 60.74c.32.72.63 1.43.92 2.13 2.87 6.87 3.75 13.14 3.75 18.14C95.1 107 74.46 128 47.1 128c-3.52 0-7.8-.6-11.87-1.7zm81.37-85.07C156.7 15.15 204.6 0 256 0c141.4 0 256 114.6 256 256S397.4 512 256 512 0 397.4 0 256c0-35.8 7.341-69.9 20.6-100.8 8.59 3.1 17.83 4.8 27.4 4.8 8.93 0 17.58-1.5 25.67-4.2C57.31 185.5 48 219.7 48 256c0 114.9 93.1 208 208 208s208-93.1 208-208S370.9 48 256 48c-48.7 0-93.4 16.72-128.9 44.72.6-3.81.9-8.62.9-11.71 0-11.43-3.8-22.44-7.1-30.48-1.3-3.1-2.8-6.21-4.3-9.3zM96 272c0-8.8 7.2-16 16-16h96c8.8 0 16 7.2 16 16s-7.2 16-16 16h-96c-8.8 0-16-7.2-16-16zm304-16c8.8 0 16 7.2 16 16s-7.2 16-16 16h-96c-8.8 0-16-7.2-16-16s7.2-16 16-16h96zM182.5 375.6c14.2-15.3 38.9-31.6 73.5-31.6s59.3 16.3 73.5 31.6c9.1 9.7 8.6 24.9-1.1 33.9-9.7 9.1-24.9 8.6-33.9-1.1-7.4-7.9-20.1-16.4-38.5-16.4s-31.1 8.5-38.5 16.4c-9 9.7-24.2 10.2-33.9 1.1-9.7-9-10.2-24.2-1.1-33.9z"/></svg>