<svg xmlns="http://www.w3.org/2000/svg" viewBox="0 0 640 512"><!--! Font Awesome Pro 6.1.1 by @fontawesome - https://fontawesome.com License - https://fontawesome.com/license (Commercial License) Copyright 2022 Fonticons, Inc.--><path d="M544 0c13.3 0 24 10.75 24 24v48h48c13.3 0 24 10.75 24 24 0 13.3-10.7 24-24 24h-48v48c0 13.3-10.7 24-24 24s-24-10.7-24-24v-48h-48c-13.3 0-24-10.7-24-24 0-13.25 10.7-24 24-24h48V24c0-13.25 10.7-24 24-24zM112.4 240c0-17.7 14.3-32 32-32 17.6 0 32 14.3 32 32s-14.4 32-32 32c-17.7 0-32-14.3-32-32zm224 0c0 17.7-14.4 32-32 32-17.7 0-32-14.3-32-32s14.3-32 32-32c17.6 0 32 14.3 32 32zM224 368c31.1 0 58.9-13.6 78-35.2 8.8-10 23.9-10.9 33.9-2.1 9.9 8.7 10.9 23.9 1.2 33.8C310.2 396.1 269.4 416 224 416c-45.4 0-86.2-19.9-114-51.5-8.8-9.9-7.8-25.1 2.1-33.8 10-8.8 25.1-7.9 33 2.1 20 21.6 47.8 35.2 78.9 35.2zm224-80c0 123.7-100.3 224-224 224S0 411.7 0 288 100.3 64 224 64s224 100.3 224 224zM224 112c-97.2 0-176 78.8-176 176s78.8 176 176 176 176-78.8 176-176-78.8-176-176-176z"/></svg>