<svg xmlns="http://www.w3.org/2000/svg" viewBox="0 0 576 512"><!--! Font Awesome Pro 6.1.1 by @fontawesome - https://fontawesome.com License - https://fontawesome.com/license (Commercial License) Copyright 2022 Fonticons, Inc.--><path d="M288 48C173.1 48 80 141.1 80 256c0 5.7.23 11.4.68 16.1h-.67c-11.62-15.6-31.73-19.9-47.99-12.8-.01-1.1-.02-2.2-.02-3.3C32 114.6 146.6 0 288 0s256 114.6 256 256-114.6 256-256 256c-74.5 0-141.6-31.8-188.38-82.7 12.98-10.8 22.48-25.6 26.38-42.8 38.2 47.3 96.6 77.5 162 77.5 114.9 0 208-93.1 208-208S402.9 48 288 48zM35.66 299.4c2.18-3.1 4.2-5.8 5.94-8.1 3.2-4.4 9.6-4.4 12.8 0C67.57 308.6 96 349 96 369c0 14.2-6.42 26.9-16.55 35.5C71.02 411.7 60.02 416 48 416c-26.46 0-48-21-48-47 0-17.3 21.44-49.9 35.66-69.6zM360.4 409.5c-9.7 9.1-24.9 8.6-33.9-1.1-7.4-7.9-20.1-16.4-38.5-16.4s-31.1 8.5-38.5 16.4c-9 9.7-24.2 10.2-33.9 1.1-9.7-9-10.2-24.2-1.1-33.9 14.2-15.3 38.9-31.6 73.5-31.6s59.3 16.3 73.5 31.6c9.1 9.7 8.6 24.9-1.1 33.9zm7.2-105.5c-18.5 0-32-14.3-32-32s13.5-32 32-32c17.7 0 32 14.3 32 32s-14.3 32-32 32zm-160-64c17.7 0 32 14.3 32 32s-14.3 32-32 32c-18.5 0-32-14.3-32-32s13.5-32 32-32zm12.3-61.3c-23.5 23.6-53.9 39.2-86.8 44.7l-2.5.4c-8.7 1.4-16.9-4.5-18.4-13.2-1.4-8.7 4.5-16.9 13.2-18.4l2.5-.4c26.3-4.4 50.6-16.9 69.4-35.7l7.4-7.4c6.2-6.3 16.4-6.3 22.6 0 6.3 6.2 6.3 16.4 0 22.6l-7.4 7.4zm151.4-30 7.4 7.4c18.8 18.8 43.1 31.3 69.5 35.7l2.4.4c8.7 1.5 14.6 9.7 13.2 18.4-1.5 8.7-9.7 14.6-18.4 13.2l-2.5-.4c-33.8-5.5-63.3-21.1-86.8-44.7l-7.4-7.4c-6.3-6.2-6.3-16.4 0-22.6 6.2-6.3 16.4-6.3 22.6 0z"/></svg>