<svg xmlns="http://www.w3.org/2000/svg" viewBox="0 0 640 512"><!--! Font Awesome Pro 6.1.1 by @fontawesome - https://fontawesome.com License - https://fontawesome.com/license (Commercial License) Copyright 2022 Fonticons, Inc.--><path d="M112 256H64C64 114.6 178.6 0 320 0s256 114.6 256 256h-48c0-114.9-93.1-208-208-208s-208 93.1-208 208zm96.4-64c0-8.8 3.5-16.8 9.3-22.6l-30.8-10.2c-8.3-2.8-12.9-11.9-10.1-20.3 2.8-8.3 11.9-12.9 20.3-10.1l96 32c8.3 2.8 12 11.9 10.1 20.3-2.8 8.3-11.9 12-20.3 10.1l-10.8-3.6c.2 1.4.3 2.9.3 4.4 0 17.7-14.4 32-32 32-17.7 0-32-14.3-32-32zm224 0c0 17.7-14.4 32-32 32-17.7 0-32-14.3-32-32 0-1.6.1-3.2.3-4.7l-11.6 3.9c-8.4 1.9-17.5-1.8-20.3-10.1-2.8-8.4 1.8-17.5 10.1-20.3l96-32c8.4-2.8 17.5 1.8 20.3 10.1 1.9 8.4-1.8 17.5-10.1 20.3l-30.2 10c5.8 5.8 9.5 13.9 9.5 22.8zM320 384h32v32h-32v-32zm272-96c26.5 0 48 21.5 48 48v128c0 26.5-21.5 48-48 48H48c-26.51 0-48-21.5-48-48V336c0-26.5 21.49-48 48-48h544zm-192 96c8.8 0 16-7.2 16-16s-7.2-16-16-16h-16v-16c0-8.8-7.2-16-16-16s-16 7.2-16 16v16h-32v-16c0-8.8-7.2-16-16-16s-16 7.2-16 16v16h-16c-8.8 0-16 7.2-16 16s7.2 16 16 16h16v32h-16c-8.8 0-16 7.2-16 16s7.2 16 16 16h16v16c0 8.8 7.2 16 16 16s16-7.2 16-16v-16h32v16c0 8.8 7.2 16 16 16s16-7.2 16-16v-16h16c8.8 0 16-7.2 16-16s-7.2-16-16-16h-16v-32h16zm147.9-50.4-96 112c-5.8 6.7-5 16.8 1.7 22.5 6.7 5.8 16.8 5 22.5-1.7l96-112c5.8-6.7 5-16.8-1.7-22.5-6.7-5.8-16.8-5-22.5 1.7zM472 328c-13.3 0-24 10.7-24 24s10.7 24 24 24 24-10.7 24-24-10.7-24-24-24zm80 144c13.3 0 24-10.7 24-24s-10.7-24-24-24-24 10.7-24 24 10.7 24 24 24zM192 336v64c0 8.8 7.2 16 16 16s16-7.2 16-16v-64c0-8.8-7.2-16-16-16s-16 7.2-16 16zm16 96c-13.3 0-24 10.7-24 24s10.7 24 24 24 24-10.7 24-24-10.7-24-24-24zm-80-96c0-8.8-7.2-16-16-16s-16 7.2-16 16v1.5c-5.64 1.2-11.55 3.3-16.85 7-7.52 5.4-12.75 13.3-14.51 23.5-1.25 7.3-.6 14.4 2.49 20.9 3.03 6.4 7.76 10.9 12.45 14.1 8.08 5.5 18.67 8.7 25.52 11l2.4.5c9.4 2.8 15.2 4.8 18.7 7.4 1.4.9 1.6 1.5 1.6 1.6.1 0 .1.2-.7.6.9.4.9 1.1.7 2.3-.5 3.2-1.5 3.7-1.9 4h-.1c-1.1.7-3.8.7-8.7 1.5-10.2-.1-22.58-4.8-32.04-7.1-8.38-2.8-17.44 1.8-20.24 10.1-2.79 8.4 1.74 17.5 10.12 20.3 4.88 1.6 12.08 4 20.17 5.8v3c0 8.8 7.19 16 15.99 16s16-7.2 16-16v-.8c5.1-.8 10.4-2.4 15.3-5.4 9.1-5.5 15-14.4 17-25.9 1.2-7.4.7-14.5-2.2-21.2-2.8-6.5-7.4-11.3-12.1-15.6-8.5-5.3-19.7-8.6-27.6-11.1l-.7-.2c-9.6-2.9-15.6-4.8-19.24-7.3-1.01-.6-1.38-1.1-1.49-1.2-.04-.2-.97-.8.11-1.8.33-1.9.92-2.5 1.52-2.9 1.06-.7 3.3-1.7 7.4-2.2 8.3-.9 18 .9 26.8 3 8.5 2.2 17.3-2.8 19.6-11.4 2.2-8.5-2.8-17.3-11.4-19.6-3.4-.9-7.5-1.8-12.1-2.6V336zm-31.9 39.4s-.02-.1-.03-.1z"/></svg>