<svg xmlns="http://www.w3.org/2000/svg" viewBox="0 0 576 512"><!--! Font Awesome Pro 6.1.1 by @fontawesome - https://fontawesome.com License - https://fontawesome.com/license (Commercial License) Copyright 2022 Fonticons, Inc.--><path d="M288 48C173.1 48 80 141.1 80 256c0 63.4 28.3 120.1 73 158.3-5.7 9.5-14.8 17-25.8 20.6l-16.7 5.6C62.12 393.9 32 328.5 32 256 32 114.6 146.6 0 288 0s256 114.6 256 256c0 72.5-30.1 137.9-78.5 184.5l-16.7-5.6c-11-3.6-20.1-11.1-26.7-20.6C467.7 376.1 496 319.4 496 256c0-114.9-93.1-208-208-208zM148 157.1c0-8.9 9.6-14.7 17.5-10.4l89.9 47.9c10.7 5.7 10.7 21.1 0 26.8l-89.9 47.9c-7.9 4.3-17.5-1.5-17.5-10.4 0-2.8.1-5.5 2.8-7.7l36-43.2-36-43.2c-2.7-2.2-2.8-4.9-2.8-7.7zm262.5-10.4c7.9-4.3 17.5 1.5 17.5 10.4 0 2.8-1 5.5-2.8 7.7l-36 43.2 36 43.2c1.8 2.2 2.8 4.9 2.8 7.7 0 8.9-9.6 14.7-17.5 10.4l-89.9-47.9c-10.7-5.7-10.7-21.1 0-26.8l89.9-47.9zM0 480c0-17.7 14.33-32 32-32s32 14.3 32 32-14.33 32-32 32-32-14.3-32-32zm576-32c0 17.7-14.3 32-32 32s-32-14.3-32-32 14.3-32 32-32 32 14.3 32 32zm-142.8 16.4 34.1 11.4c7.6 2.5 12.7 9.6 12.7 17.6 0 10.3-8.3 18.6-18.6 18.6H114.6c-10.3 0-18.6-8.3-18.6-18.6 0-8 5.1-15.1 12.7-17.6l34.1-11.4c29.4-9.8 49.2-37.3 49.2-68.3v-58.3c-10.8 4.3-18.7 8.6-23.1 11.5-7.4 4.9-17.3 2.9-22.2-4.4-4.9-7.4-2.9-17.3 4.4-22.2C169.7 310.3 220.8 288 288 288s118.3 22.3 136.9 34.7c7.3 4.9 9.3 14.8 4.4 22.2-4.9 7.3-14.8 9.3-22.2 4.4-4.4-2.9-12.3-7.2-23.1-11.5v58.3c0 31 19.8 58.5 49.2 68.3zM288 400c0 8.8 7.2 16 16 16s16-7.2 16-16-7.2-16-16-16-16 7.2-16 16zm-48 16c-8.8 0-16 7.2-16 16s7.2 16 16 16 16-7.2 16-16-7.2-16-16-16z"/></svg>