<svg xmlns="http://www.w3.org/2000/svg" viewBox="0 0 512 512"><!--! Font Awesome Pro 6.1.1 by @fontawesome - https://fontawesome.com License - https://fontawesome.com/license (Commercial License) Copyright 2022 Fonticons, Inc.--><path d="M336 400c0 8.8-7.2 16-16 16H192c-8.8 0-16-7.2-16-16 0-44.2 35.8-80 80-80s80 35.8 80 80zM184.4 224c0 13.3-10.8 24-24 24-13.3 0-24-10.7-24-24s10.7-24 24-24c13.2 0 24 10.7 24 24zM80 224c0-44.2 35.8-80 80-80s80 35.8 80 80-35.8 80-80 80-80-35.8-80-80zm80-48c-26.5 0-48 21.5-48 48s21.5 48 48 48 48-21.5 48-48-21.5-48-48-48zm168.4 48c0-13.3 10.7-24 24-24 13.2 0 24 10.7 24 24s-10.8 24-24 24c-13.3 0-24-10.7-24-24zm103.6 0c0 44.2-35.8 80-80 80s-80-35.8-80-80 35.8-80 80-80 80 35.8 80 80zm-80 48c26.5 0 48-21.5 48-48s-21.5-48-48-48-48 21.5-48 48 21.5 48 48 48zm160-16c0 141.4-114.6 256-256 256S0 397.4 0 256 114.6 0 256 0s256 114.6 256 256zm-84.2-117.2-.1.1c-6 6.5-16.2 6.8-22.6.8-15.5-14.5-34.9-24-56.1-26.8-4.2-.6-8.6-.9-13-.9-8.8 0-16-7.2-16-16 0-8.84 7.2-16 16-16 5.8 0 11.6.38 17.2 1.13 8 1.05 15.7 2.82 23.2 5.24-34-24.16-75.5-39.27-120.4-39.27-44.9 0-86.4 15.11-120.4 39.27 7.5-2.42 15.2-4.19 23.2-5.24 5.6-.75 11.4-1.13 17.2-1.13 8.8 0 16 7.16 16 16 0 8.8-7.2 16-16 16-4.4 0-8.8.3-13.9.9-20.3 2.8-39.7 12.3-55.2 26.8-6.4 6-16.56 5.7-22.59-.8l-.15-.1C61.34 172.1 48 212.5 48 256c0 114.9 93.1 208 208 208s208-93.1 208-208c0-43.5-13.3-83.9-36.2-117.2z"/></svg>