<svg xmlns="http://www.w3.org/2000/svg" viewBox="0 0 512 512"><!--! Font Awesome Pro 6.1.1 by @fontawesome - https://fontawesome.com License - https://fontawesome.com/license (Commercial License) Copyright 2022 Fonticons, Inc.--><path d="M335.6 240c-18.5 0-32-14.3-32-32s13.5-32 32-32c17.7 0 32 14.3 32 32s-14.3 32-32 32zm-160-64c17.7 0 32 14.3 32 32s-14.3 32-32 32c-18.5 0-32-14.3-32-32s13.5-32 32-32zm12.3-45.3c-23.5 23.6-53.9 39.2-86.8 44.7l-2.47.4c-8.72 1.4-16.96-4.5-18.41-13.2-1.46-8.7 4.43-16.9 13.15-18.4l2.48-.4c26.35-4.4 50.65-16.9 69.45-35.7l7.4-7.4c6.2-6.26 16.4-6.26 22.6 0 6.3 6.2 6.3 16.4 0 22.6l-7.4 7.4zm151.4-30 7.4 7.4c18.8 18.8 43.1 31.3 69.5 35.7l2.4.4c8.7 1.5 14.6 9.7 13.2 18.4-1.5 8.7-9.7 14.6-18.4 13.2l-2.5-.4c-33.8-5.5-63.3-21.1-86.8-44.7l-7.4-7.4c-6.3-6.2-6.3-16.4 0-22.6 6.2-6.26 16.4-6.26 22.6 0zM208 312h96.2c6.1-18.8 19-34.5 34.9-44.2 12.4-6.6 27-2.7 33.7 8.7 6.6 11.5 2.7 26.2-8.8 32.8-9.4 5.5-15.7 14.8-15.7 27.3 0 11.6 6.3 21.7 15.7 27.2 11.5 6.6 15.4 21.3 8.8 32.8-6.7 11.5-21.3 14.5-33.7 8.7-16.2-9.9-29.3-26-35.3-45.3H208c-6.9 19-19.9 34.1-36 44.8-11.5 6.6-26.1 2.7-32.8-8.8-6.6-11.5-2.7-26.1 7.9-32.8 10.3-5.4 16.6-15.6 16.6-27.2s-6.3-21.8-16.6-27.2c-10.6-6.7-14.5-21.3-7.9-33.7 6.7-10.6 21.3-14.5 32.8-7.9 16.1 9.8 29.1 24.9 36 43.9v.9zm304-56c0 141.4-114.6 256-256 256S0 397.4 0 256 114.6 0 256 0s256 114.6 256 256zM256 48C141.1 48 48 141.1 48 256s93.1 208 208 208 208-93.1 208-208S370.9 48 256 48z"/></svg>