<svg xmlns="http://www.w3.org/2000/svg" viewBox="0 0 512 512"><!--! Font Awesome Pro 6.1.1 by @fontawesome - https://fontawesome.com License - https://fontawesome.com/license (Commercial License) Copyright 2022 Fonticons, Inc.--><path d="M24 160c13.25 0 24-10.7 24-24V48h88c13.3 0 24-10.75 24-24S149.3 0 136 0H32C14.33 0 0 14.33 0 32v104c0 13.3 10.75 24 24 24zm112 304H48v-88c0-13.3-10.75-24-24-24S0 362.7 0 376v104c0 17.67 14.33 32 32 32h104c13.3 0 24-10.7 24-24s-10.7-24-24-24zm352-112c-13.25 0-24 10.75-24 24v88h-88c-13.25 0-24 10.75-24 24s10.7 24 24 24h104c17.67 0 32-14.33 32-32V376c0-13.3-10.7-24-24-24zM480 0H376c-13.3 0-24 10.75-24 24s10.75 24 24 24h88v88c0 13.3 10.7 24 24 24s24-10.7 24-24V32c0-17.67-14.3-32-32-32zm-64 256c0-88.37-71.63-160-160-160S96 167.6 96 256s71.63 160 160 160 160-71.6 160-160zM256 368c-61.76 0-112-50.24-112-112s50.2-112 112-112c61.76 0 112 50.24 112 112s-50.2 112-112 112zm40-128c13.3 0 24-10.7 24-24s-10.7-24-24-24-24 10.7-24 24 10.7 24 24 24zm-80 0c13.25 0 24-10.75 24-24s-10.7-24-24-24-24 10.7-24 24 10.7 24 24 24zm103.4 34.2c-7.5-4.4-17.4-1.8-21.8 5.8-8.6 14.8-24.5 24-41.6 24s-33.9-9.2-41.6-24c-5.3-7.7-14.3-10.3-21.8-5.8-7.7 4.4-10.3 14.2-5.9 21.8 13.4 24.7 40.8 40 69.3 40s55.03-15.31 69.28-39.97c4.42-7.63 1.82-17.43-5.88-21.83z"/></svg>