<svg xmlns="http://www.w3.org/2000/svg" viewBox="0 0 640 512"><!--! Font Awesome Pro 6.1.1 by @fontawesome - https://fontawesome.com License - https://fontawesome.com/license (Commercial License) Copyright 2022 Fonticons, Inc.--><path d="M392.4 409.5c-9.7 9.1-24.9 8.6-33.9-1.1-7.4-7.9-20.1-16.4-38.5-16.4s-31.1 8.5-38.5 16.4c-9 9.7-24.2 10.2-33.9 1.1-9.7-9-10.2-24.2-1.1-33.9 14.2-15.3 38.9-31.6 73.5-31.6s59.3 16.3 73.5 31.6c9.1 9.7 8.6 24.9-1.1 33.9zM208.4 256c0-8.8 3.5-16.8 9.3-22.6l-30.8-10.2c-8.3-2.8-12.9-11.9-10.1-20.3 2.8-8.3 11.9-12.9 20.3-10.1l96 32c8.3 2.8 12 11.9 10.1 20.3-2.8 8.3-11.9 12-20.3 10.1l-10.8-3.6c.2 1.4.3 2.9.3 4.4 0 17.7-14.4 32-32 32-17.7 0-32-14.3-32-32zm224 0c0 17.7-14.4 32-32 32-17.7 0-32-14.3-32-32 0-1.6.1-3.2.3-4.7l-11.6 3.9c-8.4 1.9-17.5-1.8-20.3-10.1-2.8-8.4 1.8-17.5 10.1-20.3l96-32c8.4-2.8 17.5 1.8 20.3 10.1 1.9 8.4-1.8 17.5-10.1 20.3l-30.2 10c5.8 5.8 9.5 13.9 9.5 22.8zM64 256c0-24.6 3.47-48.4 9.94-70.9C29.61 125.8 6.506 50.11.31 19.14A16 16 0 0 1 7.098 2.706a16.008 16.008 0 0 1 17.783-.019C44.17 15.55 73.41 26.86 103.3 35.78c23.2 6.96 45.9 12.21 62.9 15.52C209.1 19.09 262.3 0 320 0c57.7 0 110.9 19.09 153.8 51.3 17-3.31 39.7-8.56 62.9-15.52 29.9-8.92 59.1-20.23 78.4-33.093 5.4-3.59 12.4-3.582 17.8.019s7.2 10.084 6.8 16.434c-6.2 30.97-29.3 106.66-73.6 165.96 6.4 22.5 9.9 46.3 9.9 70.9 0 141.4-114.6 256-256 256S64 397.4 64 256zm256 208c114.9 0 208-93.1 208-208S434.9 48 320 48s-208 93.1-208 208 93.1 208 208 208z"/></svg>