<svg xmlns="http://www.w3.org/2000/svg" viewBox="0 0 576 512"><!--! Font Awesome Pro 6.1.1 by @fontawesome - https://fontawesome.com License - https://fontawesome.com/license (Commercial License) Copyright 2022 Fonticons, Inc.--><path d="M224 144c-8.8 0-16 7.2-16 16s7.2 16 16 16 16-7.164 16-15.1c0-9.7-7.2-16.9-16-16.9zm-96 256c-8.8 0-16 7.2-16 16s7.164 16 16 16 16-7.164 16-16-7.2-16-16-16zm32-64c-8.8 0-16 7.2-16 16s7.2 16 16 16 16-7.164 16-15.1c0-9.7-7.2-16.9-16-16.9zm-64 0c-8.83 0-16 7.2-16 16s7.16 16 16 16 16-7.164 16-15.1c0-9.7-7.2-16.9-16-16.9zm256 0c-8.8 0-16 7.2-16 16s7.2 16 16 16 16-7.164 16-15.1c0-9.7-7.2-16.9-16-16.9zm32 96c8.836 0 16-7.164 16-16s-7.162-16-15.1-16-16.9 7.2-16.9 16 7.2 16 16 16zm123.8-20.5c-3.447 2.6-7.059 5.092-9.57 8.275-5.088 6.449-6.492 16.87-12.92 22.05-6.326 5.1-16.55 4.098-24.01 7.705-7.227 3.492-12.91 12.26-21.04 14.1-8.131 1.846-16.91-3.635-24.9-3.676-8.248-.04-17.09 5.291-24.94 3.412-7.971-1.914-13.56-10.74-20.84-14.38-7.32-3.658-17.57-2.756-23.92-7.973-6.312-5.195-7.637-15.61-12.71-22.17-4.996-6.459-14.63-10.18-18.16-17.79-3.422-7.375-.184-17.32-1.99-25.63-1.8-8.323-9.7-15.923-8.8-24.123.041-8.422 7.229-15.95 9.07-23.96 1.873-8.139-1.25-18.14 2.311-25.57 3.582-7.473 13.25-11.09 18.36-17.57 5.088-6.449 6.492-16.87 12.92-22.05 6.326-5.1 16.55-4.1 24.01-7.705 5.801-2.805 10.67-8.848 16.55-12.14 3.111-11.61 8.422-22.13 16.71-30.42 7.881-7.881 17.65-13.21 28.61-16.34C436.6 184.9 447.9 171.8 448 160.9c.055-11.66-10.03-22.53-12.61-34.38-2.58-11.86 2.045-26.08-2.844-36.61-5.045-10.88-18.81-16.19-25.95-25.41-7.25-9.375-9.141-24.25-18.16-31.67-9.061-7.453-23.71-6.17-34.17-11.39-10.4-5.197-18.39-17.81-29.78-20.54-11.2-2.688-23.84 4.93-35.62 4.871-11.41-.057-23.96-7.885-35.58-5.252C241.7 3.178 233.6 15.7 223.2 20.69c-10.65 5.15-25.26 3.721-34.3 11.01-9.1 7.4-11.2 22.28-18.4 31.49-7.303 9.256-21.11 14.43-26.22 25.1-5.08 10.63-.68 24.91-4.18 36.51-1.8 11.5-12 22.2-12.1 34.3-.1 11.6 10 22.5 12.6 34.3.012.055-.002.117.01.172-5.11-1.272-10.31-2.172-15.31-1.072-11.6 2.7-19.7 15.2-30.07 20.2-10.65 5.1-25.26 3.7-34.29 11-9.182 7.404-11.19 22.29-18.46 31.5-7.303 9.256-21.11 14.43-26.22 25.1-5.09 10.6-.63 24.9-3.3 36.5C10.33 328.3.057 339 0 351.1c-.055 11.66 10.03 22.52 12.61 34.38 2.58 11.86-2.045 26.07 2.844 36.61 5.043 10.88 18.81 16.19 25.95 25.41 7.25 9.375 9.141 24.25 18.16 31.67 9.061 7.455 23.71 6.168 34.17 11.39 10.4 5.195 18.39 17.81 29.78 20.54 11.21 2.689 23.84-4.928 35.62-4.869 11.41.055 23.96 7.883 35.58 5.248 11.62-2.637 19.74-15.16 30.06-20.15 10.65-5.15 25.26-3.719 34.3-11 9.182-7.402 11.19-22.29 18.46-31.5 2.912-3.689 6.887-6.713 10.9-9.713 3.342 2.594 6.564 5.25 8.98 8.375 7.25 9.375 9.141 24.25 18.16 31.67 9.061 7.453 23.71 6.168 34.17 11.39 10.4 5.195 18.39 17.81 29.78 20.54 11.21 2.688 23.84-4.93 35.62-4.871 11.41.057 23.96 7.885 35.58 5.25 11.62-2.637 19.74-15.16 30.06-20.15 10.65-5.15 25.26-3.719 34.3-11 9.182-7.402 11.19-22.29 18.46-31.5 7.303-9.256 21.1-14.43 26.22-25.11 1.73-3.611 2.207-7.707 2.385-11.92C554.3 414.4 545.8 416 536.7 416c-9.3 0-19-1.8-28.9-4.5zm-244.9-34.9c-1.873 8.139 1.25 18.14-2.311 25.57-3.582 7.475-13.25 11.1-18.36 17.57-5.088 6.449-6.492 16.87-12.92 22.05-6.326 5.1-16.55 4.098-24.01 7.705-7.225 3.492-12.91 12.26-21.04 14.1C176.2 465.5 167.4 459.1 159.4 459.9c-8.248-.04-17.09 5.291-24.93 3.412C126.5 461.4 120.9 452.6 113.6 448.1c-7.318-3.658-17.57-2.756-23.92-7.973-6.314-5.195-7.639-15.61-12.71-22.17-4.996-6.459-14.63-10.18-18.16-17.79-3.424-7.375-.185-17.32-1.992-25.63S47.96 359.5 48 351.3c.041-8.422 7.229-15.95 9.072-23.96 1.878-8.14-1.252-18.14 2.308-25.54 3.58-7.5 13.25-11.1 18.36-17.6 5.088-6.449 6.492-16.87 12.92-22.05 6.32-5.05 16.54-4.05 24.04-7.65 7.2-4.4 12.9-12.3 21-14.1 8.1-1.9 16.9 3.6 24.9 3.7 8.248.041 17.09-5.291 24.94-3.41 7.96 1.91 13.56 10.71 20.86 14.31 7.3 3.7 16.7 2.8 23.9 7.1 6.312 5.195 7.637 15.61 12.71 22.17 4.996 6.457 14.63 10.17 18.16 17.79 3.422 7.377.184 17.32 1.99 25.63.084.385.293.752.398 1.133C259.9 336.7 256 343.6 256 351.1c-.035 7.695 4.301 15.06 8.025 22.58-.325.92-.825 1.92-1.125 2.92zm24.7-111.7c-3.4-2.6-6.6-5.2-9-8.4-7.3-9.3-9.1-24.2-18.2-31.6-9.061-7.453-23.71-6.168-34.17-11.39-10.4-5.197-18.39-17.81-29.78-20.54-3.55-.87-7.35-.57-11.15.13.12-3.301.172-6.592-.494-9.656C183 175.1 175.1 167.5 176 159.3c0-8.4 7.2-15.9 9.1-23.9 1.8-8.2-1.3-18.2 2.3-25.6 2.7-7.5 13.2-11.09 18.3-17.56 5.088-6.449 6.492-16.87 12.92-22.05 5.48-5.1 16.58-4.1 24.08-7.71 7.2-3.49 12.9-12.26 21-14.1 8.1-1.84 16.9 3.64 24.9 3.67 8.248.041 17.09-5.291 24.93-3.41 7.971 1.914 13.57 10.74 20.85 14.38 7.318 3.654 17.57 2.756 23.92 7.973 6.314 5.195 7.639 15.61 12.71 22.17 4.996 6.457 14.63 10.17 18.16 17.79 3.424 7.377.186 17.32 1.992 25.63C392.1 144.9 400 152.5 400 160.7c-.041 8.422-7.229 15.95-9.072 23.96-.559 2.424-.644 5.021-.625 7.658-3.039-.383-6.053-.404-9.006.266-11.62 2.637-19.74 15.16-30.06 20.15-10.65 5.15-25.26 3.72-34.3 11.01-9.182 7.404-11.19 22.29-18.46 31.5C295.6 258.9 291.6 261.9 287.6 264.9zm248.1-.6c-38.35-38.35-87.21-51.68-109.1-29.76-21.92 21.92-8.592 70.78 29.76 109.1 38.35 38.36 87.21 51.68 109.1 29.76 21.94-21.9 8.54-70.7-29.76-109.1z"/></svg>