<svg xmlns="http://www.w3.org/2000/svg" viewBox="0 0 448 512"><!--! Font Awesome Pro 6.1.1 by @fontawesome - https://fontawesome.com License - https://fontawesome.com/license (Commercial License) Copyright 2022 Fonticons, Inc.--><path d="M224 224c26.53 0 48-21.47 48-48s-21.5-48-48-48-48 21.5-48 48 21.5 48 48 48zm32 32h-64c-26.5 0-48 21.5-48 48v80c0 17.67 14.33 32 32 32v64c0 17.67 14.33 32 32 32h32c17.67 0 32-14.33 32-32v-64c17.67 0 32-14.33 32-32v-80c0-26.5-21.5-48-48-48zm0 112h-64v-64h64v64zM96 128c35.38 0 64-28.62 64-64S131.4 0 96 0 32 28.62 32 64s28.63 64 64 64zm-48 96c0-8.822 7.178-16 16-16h87.12c-4.42-9.8-7.12-20.5-7.12-32 0-4.561.61-8.963 1.347-13.32C139.8 161.1 134.1 160 128 160H64c-35.35 0-64 28.7-64 64v96c0 17.67 14.33 32 32 32v136c0 13.3 10.75 24 24 24s24-10.75 24-24V352h32v-48H48v-80zm304-96c35.38 0 64-28.62 64-64S387.38 0 352 0s-64 28.62-64 64 28.6 64 64 64zm32 32h-64c-6.055 0-11.8 1.111-17.35 2.682C303.4 167 304 171.4 304 176c0 11.46-2.699 22.19-7.121 32H384c8.822 0 16 7.178 16 16v80h-64v48h32v136c0 13.25 10.75 24 24 24s24-10.7 24-24V352c17.67 0 32-14.33 32-32v-96c0-35.3-28.7-64-64-64z"/></svg>