<svg xmlns="http://www.w3.org/2000/svg" viewBox="0 0 512 512"><!--! Font Awesome Pro 6.1.1 by @fontawesome - https://fontawesome.com License - https://fontawesome.com/license (Commercial License) Copyright 2022 Fonticons, Inc.--><path d="M256 224c26.53 0 48-21.47 48-48s-21.5-48-48-48-48 21.5-48 48 21.5 48 48 48zm32 32h-64c-26.5 0-48 21.5-48 48v80c0 17.67 14.33 32 32 32v64c0 17.67 14.33 32 32 32h32c17.67 0 32-14.33 32-32v-64c17.67 0 32-14.33 32-32v-80c0-26.5-21.5-48-48-48zm0 112h-64v-64h64v64zm96-240c35.38 0 64-28.62 64-64S419.38 0 384 0s-64 28.62-64 64 28.6 64 64 64zm-256 0c35.38 0 64-28.62 64-64S163.4 0 128 0 64 28.62 64 64s28.63 64 64 64zm-48 96c0-8.822 7.178-16 16-16h87.12c-4.42-9.8-7.12-20.5-7.12-32 0-4.561.61-8.963 1.347-13.32C171.8 161.1 166.1 160 160 160H96c-35.35 0-64 28.7-64 64v96c0 17.67 14.33 32 32 32v136c0 13.3 10.75 24 24 24s24-10.75 24-24V352h32v-48H80v-80zm425.5 119.2-39.08-136.8C458.6 178.9 433.5 160 404.9 160h-41.86c-10.08 0-19.34 3.043-27.95 7.299.31 2.901.91 5.701.91 8.701 0 11.46-2.699 22.19-7.121 32h76.05a15.99 15.99 0 0 1 15.38 11.6L453.6 336H368v48h32v104c0 13.25 10.75 24 24 24s24-10.7 24-24V384h26.78c21.22 0 36.62-20.3 30.72-40.8z"/></svg>