<svg xmlns="http://www.w3.org/2000/svg" viewBox="0 0 512 512"><!--! Font Awesome Pro 6.1.1 by @fontawesome - https://fontawesome.com License - https://fontawesome.com/license (Commercial License) Copyright 2022 Fonticons, Inc.--><path d="M256 224c26.53 0 48-21.47 48-48s-21.5-48-48-48-48 21.5-48 48 21.5 48 48 48zm32 32h-64c-26.5 0-48 21.5-48 48v80c0 17.67 14.33 32 32 32v64c0 17.67 14.33 32 32 32h32c17.67 0 32-14.33 32-32v-64c17.67 0 32-14.33 32-32v-80c0-26.5-21.5-48-48-48zm0 112h-64v-64h64v64zm96-240c35.38 0 64-28.62 64-64S419.38 0 384 0s-64 28.62-64 64 28.6 64 64 64zm121.5 215.2-39.08-136.8C458.6 178.9 433.5 160 404.9 160h-41.86c-10.08 0-19.34 3.043-27.95 7.299.31 2.901.91 5.701.91 8.701 0 11.46-2.699 22.19-7.121 32h76.05a15.99 15.99 0 0 1 15.38 11.6L453.6 336H368v48h32v104c0 13.25 10.75 24 24 24s24-10.7 24-24V384h26.78c21.22 0 36.62-20.3 30.72-40.8zM128 128c35.38 0 64-28.62 64-64S163.4 0 128 0 64 28.62 64 64s28.63 64 64 64zm-36.31 91.6c1.96-6.9 8.24-11.6 15.41-11.6h76.05c-4.45-9.8-7.15-20.5-7.15-32 0-2.98.56-5.805.879-8.701C168.3 163 159 160 148.9 160h-41.8c-28.6 0-53.71 18.9-61.56 46.4L6.46 343.2C.61 363.7 15.96 384 37.22 384H64v104c0 13.3 10.75 24 24 24s24-10.75 24-24V384h32v-48H58.43l33.26-116.4z"/></svg>