<svg xmlns="http://www.w3.org/2000/svg" viewBox="0 0 448 512"><!--! Font Awesome Pro 6.1.1 by @fontawesome - https://fontawesome.com License - https://fontawesome.com/license (Commercial License) Copyright 2022 Fonticons, Inc.--><path d="M353.1 266.3c5.125.875 10.25-.5 14.25-3.875 3.875-3.25 6.125-8.125 6.125-13.38.125-34.13-19.75-65.13-50.75-79.5S256.1 160 229.1 182.1l-33.5-91.85c-2.625-6.875-13-15.88-25.12-9C150.4 92.88 135.6 112 129.6 134.5c-8.8 33.1 2.4 86 55.4 104.9l-62.6 76.1c-8.75 10.62-1.75 22.5 4.75 26.25 42 24.25 95.63 9.875 119.8-32.13 10.38-18 13.88-39.13 10-59.5l96.15 16.18zM224 240c-8.9 0-16-7.1-16-16s7.1-16 16-16 16 7.125 16 16-7.1 16-16 16zm136 224H248v-17.38C360.4 434.8 448 339.6 448 224 448 100.2 347.7 0 224 0S0 100.3 0 224c0 115.6 87.63 210.8 200 222.6V464H88c-13.25 0-24 10.7-24 24s10.75 24 24 24h272c13.25 0 24-10.75 24-24 0-13.3-10.7-24-24-24zM48 224c0-97 79-176 176-176s176 79 176 176-79 176-176 176S48 321 48 224z"/></svg>