<svg xmlns="http://www.w3.org/2000/svg" viewBox="0 0 512 512"><!--! Font Awesome Pro 6.1.1 by @fontawesome - https://fontawesome.com License - https://fontawesome.com/license (Commercial License) Copyright 2022 Fonticons, Inc.--><path d="M512 368v32c0 26.51-21.49 48-48 48h-64c-26.51 0-48-21.49-48-48v-16h-28.88c-23.32 29-58.82 48-99.12 48s-75.7-19-99.1-48H24c-13.25 0-24-10.7-24-24 0-13.26 10.75-24 24-24h126.8c12.7 29.1 41.5 48 73.2 48s60.5-18.88 73.25-48H368c17.6 0 32 14.4 32 32v32h64v-32c0-53.02-42.98-96-96-96h-70.75c-12.75-29.1-41.45-48-73.25-48s-60.5 18.9-73.2 48H24c-13.25 0-24-10.7-24-24s10.75-24 24-24h100.9c18.6-23.1 44.7-39.7 75.1-45.6v-30.8S81.38 160 80 160c-8.75 0-16-7.5-16-16.9v-30.2c0-9.375 7.238-16.85 15.99-16.85 1.375 0-6.113-.788 120 13.34V80c0-8.838 7.164-16 16-16h16c8.836 0 16 7.162 16 16v29.38c126.1-14.12 118.6-13.34 120-13.34 8.81 0 16.01 7.46 16.01 16.86v30.24c0 9.36-7.2 16.86-16 16.86-1.375 0-120-12.38-120-12.38v30.75c30.4 5.93 56.5 22.53 75.1 45.63H368c79.5 0 144 64.5 144 144z"/></svg>