<svg xmlns="http://www.w3.org/2000/svg" viewBox="0 0 512 512"><!--! Font Awesome Pro 6.1.1 by @fontawesome - https://fontawesome.com License - https://fontawesome.com/license (Commercial License) Copyright 2022 Fonticons, Inc.--><path d="M352 432h32c8.875 0 16-7.125 16-16v-32c0-8.875-7.125-16-16-16h-32c-8.875 0-16 7.125-16 16v32c0 8.9 7.1 16 16 16zm0-96h32c8.875 0 16-7.125 16-16v-32c0-8.875-7.125-16-16-16h-32c-8.875 0-16 7.125-16 16v32c0 8.9 7.1 16 16 16zm-96 0h32c8.875 0 16-7.125 16-16v-32c0-8.875-7.125-16-16-16h-32c-8.9 0-16 7.1-16 16v32c0 8.9 7.1 16 16 16zm208-144H176l-.9-144h222.1L432 81.94V160h48V81.94A47.99 47.99 0 0 0 465.94 48L432 14.06A47.95 47.95 0 0 0 398.1 0h-223c-26.51 0-48 21.49-48 48l.006 82.26C122.9 128.9 117.6 128 112 128H64c-35.35 0-64 28.7-64 64v256c0 35.35 28.65 64 64 64h400c26.47 0 48-21.53 48-48V240c0-26.5-21.5-48-48-48zM128 448c0 8.822-7.178 16-16 16H64c-8.822 0-16-7.178-16-16V192c0-8.822 7.178-16 16-16h48c8.8 0 16 7.2 16 16v256zm336 16H173.7c1.4-5.1 2.3-10.4 2.3-16V240h288v224zm-208-32h32c8.875 0 16-7.125 16-16v-32c0-8.875-7.125-16-16-16h-32c-8.875 0-16 7.125-16 16v32c0 8.9 7.1 16 16 16z"/></svg>