<svg xmlns="http://www.w3.org/2000/svg" viewBox="0 0 512 512"><!--! Font Awesome Pro 6.1.1 by @fontawesome - https://fontawesome.com License - https://fontawesome.com/license (Commercial License) Copyright 2022 Fonticons, Inc.--><path d="M481.2 0c-.758 0-1.514.03-2.284.085C362.5 8.436-2.977 61.97 75.11 402.1L7.04 470.17c-9.375 9.375-9.375 24.56 0 33.94 4.688 4.688 10.81 7.031 16.97 7.031s12.28-2.344 16.97-7.031l68.13-68.13c32.43 7.434 62.3 11.16 89.74 11.16 261.1 0 305.5-309.5 313.1-414.9C513.2 15.04 498.1 0 481.2 0zM198.8 400c-15.38 0-31.8-1.74-48.63-4.275L193.9 352h141.2c-50.4 40-103.5 48-136.3 48zm181.4-96H241.9l48-48h119.8c-9.1 18.4-19.1 33.9-29.5 48zm49.3-96h-91.54l7.031-7.031c9.375-9.375 9.375-24.56 0-33.94s-24.56-9.375-33.94 0l-195.1 195.1C105 291.4 116.4 233.6 150.6 186.4 224.16 84.9 389.2 57.2 462.4 49.7c-5.9 64-17.8 115.5-32.9 158.3z"/></svg>