<svg xmlns="http://www.w3.org/2000/svg" viewBox="0 0 576 512"><!--! Font Awesome Pro 6.1.1 by @fontawesome - https://fontawesome.com License - https://fontawesome.com/license (Commercial License) Copyright 2022 Fonticons, Inc.--><path d="M192 32c0-17.67 14.3-32 32-32h128c17.7 0 32 14.33 32 32h68c17.1 0 28.7 17.42 22.2 33.23L468 80h4c30.9 0 56 25.1 56 56v157.9c0 11.5-3.5 22.7-10.1 32.1l-50.2 71.8c-7.6 10.8-22.6 13.5-33.5 5.9-10.8-7.6-13.5-22.6-5.9-33.5l35.2-50.2h-351l35.2 50.2c7.6 10.9 4.9 25.9-5.9 33.5-10.9 7.6-25.9 4.9-33.5-5.9L58.12 326A55.892 55.892 0 0 1 48 293.9V136c0-30.9 25.07-56 56-56h4l-6.2-14.77C95.26 49.42 106.9 32 124 32h68zm288 104c0-4.4-3.6-8-8-8H104c-4.42 0-8 3.6-8 8v136h32v-88c0-13.3 10.7-24 24-24h272c13.3 0 24 10.7 24 24v88h32V136zm-304 72v64h224v-64H176zm15.1 256c29.7 0 59.4-15.3 80.9-33.9 9.1-9 22.9-9 31.1 0 22.4 18.6 52 33.9 80 33.9 29.7 0 59.4-15.3 80.9-33.9 9.1-9 22.8-9 31.9 0 17 15 39.3 26.8 61.3 31.7 12.9 2.9 21.1 15.7 18.2 28.7-2.9 12.9-15.8 21-28.7 18.1-28.7-6.4-52.3-20.4-67.6-30.4-27.2 19.5-60.5 33.8-96 33.8-33.7 0-67-14.3-96-33.8-27.2 19.5-60.5 33.8-96 33.8-33.7 0-67-14.3-95.12-33.8-14.37 10-37.99 24-66.67 30.4-12.94 2.9-25.775-5.2-28.676-18.1-2.901-13 5.231-25.8 18.166-28.7 22.2-5 43.96-17.7 60.3-31.7 9.99-9 23.7-9 32.8 0 21.6 18.6 51.2 33.9 79.2 33.9z"/></svg>