<svg xmlns="http://www.w3.org/2000/svg" viewBox="0 0 512 512"><!--! Font Awesome Pro 6.1.1 by @fontawesome - https://fontawesome.com License - https://fontawesome.com/license (Commercial License) Copyright 2022 Fonticons, Inc.--><path d="M400 64c26.5 0 48 21.49 48 48 0 10.7-3.5 20.6-9.4 28.5 12.9 19.6 22.6 43.3 28.1 67.6 25.2 1.4 45.3 22.3 45.3 47.9 0 25.6-20.1 46.5-45.3 47.9-5.5 24.3-15.2 47.1-28.1 67.5 5.9 8 9.4 17.9 9.4 28.6 0 25.6-20 46.4-45.1 47.9l-38.6-80c7.5-8.3 17.7-14.8 29.3-15.5 14.8-21.1 24.9-45.7 28.7-73.3h-90c2.4-6.7 3.7-14.7 3.7-24 0-7.5-1.3-15.5-3.7-24h90c-3.8-25.8-13.9-50.4-28.7-71.5-2.1-.3-4.1-.7-6-1.2l-60.7 59.7c-7.5-13.6-19.4-25.5-33.9-33l60.6-60.7c-.5-1.9-.9-3.9-1.2-6-21.1-14.8-45.7-24.88-72.4-28.7v90c-7.6-2.4-15.6-4.6-24-4.6s-16.4 2.2-24 4.6v-90c-26.7 3.82-51.3 13.9-72.4 28.7-.3 2.1-.7 4.1-1.2 6l59.7 60.7c-13.6 7.5-25.5 19.4-33 33l-60.7-59.7c-1.9.5-3.9.9-6 1.2-14.8 21.1-24.88 45.7-28.7 72.4h90c-2.4 7.6-3.7 15.6-3.7 24s1.3 16.4 3.7 24h-90c3.82 26.7 13.9 51.3 28.7 72.4 10.7.7 21.8 7.2 29.3 15.5l-38.6 80C83.97 446.4 64 425.6 64 400c0-10.7 3.5-20.6 9.41-28.6a214.459 214.459 0 0 1-28.07-67.5C20.07 302.5 0 281.6 0 256c0-25.6 20.07-46.5 45.34-47.9 5.51-24.3 15.12-48 28.07-67.5-5.91-8-9.41-17.9-9.41-28.6 0-26.51 21.49-48 48-48 10.7 0 20.6 3.5 28.6 9.41 19.5-12.95 43.2-22.56 67.5-28.07C209.5 20.07 230.4 0 256 0c25.6 0 46.5 20.07 47.9 45.34 24.3 5.51 47.1 15.12 67.5 28.07 8-5.91 17.9-9.41 28.6-9.41zm-96 192c0 11.6-4.1 22.3-11.9 30.6l89.7 191.3c3.4 7.4 2.8 16.1-1.6 23-4.4 6.9-12 11.1-20.2 11.1H152c-8.2 0-15.8-4.2-20.2-11.1-4.4-6.9-5-15.6-1.6-23L219 286.6c-6.9-8.3-11-19-11-30.6 0-26.5 21.5-48 48-48s48 21.5 48 48zm18.4 208L256 320.1 189.6 464h132.8z"/></svg>