<svg xmlns="http://www.w3.org/2000/svg" viewBox="0 0 384 512"><!--! Font Awesome Pro 6.1.1 by @fontawesome - https://fontawesome.com License - https://fontawesome.com/license (Commercial License) Copyright 2022 Fonticons, Inc.--><path d="m365.3 93.38-74.63-74.64C278.6 6.742 262.3 0 245.4 0H64C28.65 0 0 28.65 0 64l.006 384c0 35.34 28.65 64 64 64H320c35.2 0 64-28.8 64-64V138.6c0-16.9-6.7-33.2-18.7-45.22zM336 448c0 8.836-7.164 16-16 16H64.02c-8.838 0-16-7.164-16-16L48 64.13c0-8.836 7.164-16 16-16h160V128c0 17.67 14.33 32 32 32h79.1v288zM192 336c13.25 0 24-10.75 24-24v-96c0-13.2-10.7-24-24-24s-24 10.8-24 24v96c0 13.3 10.8 24 24 24zm-.9 32c-16.8 0-31.1 14.3-31.1 32s14.33 32 32 32 32-14.33 32-32-14.3-32-32.9-32z"/></svg>