<svg xmlns="http://www.w3.org/2000/svg" viewBox="0 0 512 512"><!--! Font Awesome Pro 6.1.1 by @fontawesome - https://fontawesome.com License - https://fontawesome.com/license (Commercial License) Copyright 2022 Fonticons, Inc.--><path d="M263 383c-4.7 4.7-7 10.8-7 17s2.344 12.28 7.031 16.97c9.375 9.375 24.56 9.375 33.94 0l80-80c9.375-9.375 9.375-24.56 0-33.94l-80-80c-9.375-9.375-24.56-9.375-33.94 0s-9.375 24.56 0 33.94L302.1 296H24c-13.25 0-24 10.8-24 24s10.75 24 24 24h278.1L263 383zM493.3 93.38l-74.63-74.64C406.6 6.742 390.3 0 373.4 0H192c-35.3 0-64.9 28.66-64 64l.008 168c.002 13.26 10.75 24 24 24s24-10.75 23.1-24L176 64.13c0-8.836 7.162-16 16-16h160V128c0 17.67 14.33 32 32 32h79.1v288c0 8.836-7.164 16-16 16H192c-8.838 0-16-7.164-16-16l-.002-40C176 394.7 165.3 384 152 384s-24 10.75-23.1 24l-.9 40c.002 35.34 28.65 64 64 64h256c35.2 0 64-28.8 64-64V138.6c0-16.9-6.7-33.2-18.7-45.22z"/></svg>