<svg xmlns="http://www.w3.org/2000/svg" viewBox="0 0 384 512"><!--! Font Awesome Pro 6.1.1 by @fontawesome - https://fontawesome.com License - https://fontawesome.com/license (Commercial License) Copyright 2022 Fonticons, Inc.--><path d="m365.3 93.38-74.63-74.64C278.6 6.742 262.3 0 245.4 0H64C28.65 0 0 28.65 0 64l.006 384c0 35.34 28.65 64 64 64H320c35.2 0 64-28.8 64-64V138.6c0-16.9-6.7-33.2-18.7-45.22zM336 448c0 8.836-7.164 16-16 16H64.02c-8.838 0-16-7.164-16-16L48 64.13c0-8.836 7.164-16 16-16h160V128c0 17.67 14.33 32 32 32h79.1v288zM96 128h80c8.8 0 16-7.2 16-16s-7.2-16-16-16H96c-8.84 0-16 7.2-16 16s7.16 16 16 16zm0 64h80c8.8 0 16-7.2 16-16s-7.2-16-16-16H96c-8.84 0-16 7.2-16 16s7.16 16 16 16zm100.6 171.4-13.88-41.63C179.5 311.9 170.4 305.3 160 305.3s-19.5 6.625-22.75 16.5L119 376.4c-1.5 4.5-5.7 7.6-10.6 7.6H96c-8.875 0-16 7.125-16 16s7.13 16 16 16h12.38c18.62 0 35.13-11.88 41-29.5L160 354.6l16.9 50.4c2 6.25 7.5 10.5 14 11h1.1c5.1 0 11.62-3.375 14.25-8.875l7.75-15.38c2.8-5.445 7.9-6.145 10-6.145s7.25.625 10.12 6.5c7.38 14.8 22.28 23.9 38.68 23.9H288c8.875 0 16-7.125 16-16s-7.1-16-16-16h-15.25c-4.125 0-8.125-2.5-10.12-6.5-11.83-23.9-46.23-30.4-66.03-14.1z"/></svg>