<svg xmlns="http://www.w3.org/2000/svg" viewBox="0 0 576 512"><!--! Font Awesome Pro 6.1.1 by @fontawesome - https://fontawesome.com License - https://fontawesome.com/license (Commercial License) Copyright 2022 Fonticons, Inc.--><path d="M63.1 464h247.6c11 14.4 24.1 28.1 39.5 40.4-9 4.9-19.3 7.6-30.2 7.6H64c-35.35 0-64-28.7-64-64V64C0 28.65 28.65 0 64 0h165.5c17 0 33.2 6.743 45.2 18.75l90.6 90.55c12 12 18.7 28.2 18.7 45.2V207l-48 19.2V160h-80c-17.7 0-32-14.3-32-32V48H64c-8.84 0-16 7.16-16 16v384c0 8.8 7.16 16 16 16h-.9zm360-238.3c5.7-2.3 12.1-2.3 17.8 0l120 48c9.1 3.7 15.1 12.5 15.1 22.3 0 63.3-25.9 168.8-134.8 214.2-5.9 2.4-12.5 2.4-18.4 0C313.9 464.8 288 359.3 288 296c0-9.8 5.1-18.6 15.1-22.3l120-48zm8.9 48.1v187.9c68.2-33 91.4-99 95.4-150.6L432 273.8z"/></svg>