<svg xmlns="http://www.w3.org/2000/svg" viewBox="0 0 576 512"><!--! Font Awesome Pro 6.1.1 by @fontawesome - https://fontawesome.com License - https://fontawesome.com/license (Commercial License) Copyright 2022 Fonticons, Inc.--><path d="m543.1 320 .9-48c0-44.1-35.9-80-80-80s-80 35.9-80 80v48c-17.68 0-32 14.33-32 32.01v127.1c0 18.59 14.3 32.89 32 32.89h159.1c18.6 0 32.9-14.3 32.9-32.9V352c0-17.7-14.3-32-32.9-32zm-47.1 0h-64v-48c0-17.64 14.34-32 32-32s32 14.36 32 32v48zM360.4 192c13 0 23.6-10.6 23.6-23.6v-29.8c0-16.97-6.742-33.25-18.74-45.25l-74.64-74.64C278.6 6.742 262.3 0 245.4 0H64C28.65 0 0 28.65 0 64l.007 384c0 35.35 28.66 64 64 64h232.4c13.06 0 23.64-10.58 23.64-23.64v-.72C320 474.6 309.4 464 296.4 464H64.02c-8.836 0-16-7.164-16-16L48 64.13c0-8.836 7.164-16 16-16h160v78.97c0 17.67 14.33 32 32 32h80v8.357C336 181.4 346.6 192 359.6 192h.8z"/></svg>