<svg xmlns="http://www.w3.org/2000/svg" viewBox="0 0 448 512"><!--! Font Awesome Pro 6.1.1 by @fontawesome - https://fontawesome.com License - https://fontawesome.com/license (Commercial License) Copyright 2022 Fonticons, Inc.--><path d="M172 381.3c4.5 6.7 11.9 10.7 19.9 10.7.5 0 1.047 0 1.547-.031a24.01 24.01 0 0 0 19.98-13.25l43.94-87.88 9.75 17.06C271.4 315.4 279.4 320 288 320h40c13.3 0 24-10.7 24-24s-10.7-24-24-24h-26.08l-25.08-43.91C272.5 220.4 264.7 215.8 255.3 216a24 24 0 0 0-20.8 13.28l-45.5 91-25.9-37.58C159.5 276 152 272 144 272H24c-13.25 0-24 10.8-24 24s10.75 24 24 24h107.2l40.8 61.3zM429.3 93.38l-74.63-74.64C342.6 6.742 326.3 0 309.4 0H128C92.65 0 63.1 28.66 64 64l.006 152c.002 13.26 10.75 24 24 24s24-10.75 24-24L112 64.13c0-8.836 7.162-16 16-16h160V128c0 17.67 14.33 32 32 32h79.1v288c0 8.836-7.164 16-16 16H128c-8.836 0-16-7.164-16-16l-.004-72c0-13.26-10.74-24-23.1-24s-24 10.74-24 24l-.886 72c.002 35.34 28.65 64 64 64H384c35.2 0 64-28.8 64-64V138.6c0-16.9-6.7-33.2-18.7-45.22z"/></svg>