<svg xmlns="http://www.w3.org/2000/svg" viewBox="0 0 384 512"><!--! Font Awesome Pro 6.1.1 by @fontawesome - https://fontawesome.com License - https://fontawesome.com/license (Commercial License) Copyright 2022 Fonticons, Inc.--><path d="m365.3 93.38-74.63-74.64C278.6 6.742 262.3 0 245.4 0H64C28.65 0 0 28.65 0 64l.006 384c0 35.34 28.65 64 64 64H320c35.2 0 64-28.8 64-64V138.6c0-16.9-6.7-33.2-18.7-45.22zM336 448c0 8.836-7.164 16-16 16H64.02c-8.838 0-16-7.164-16-16L48 64.13c0-8.836 7.164-16 16-16h160V128c0 17.67 14.33 32 32 32h79.1v288zM144 255.3V370c-5.2-1.2-10.6-2-16-2-26.5 0-48 14.38-48 32s21.5 32 48 32 48-14.38 48-32V299.1l96-37.5V338c-5.2-1.2-10.6-2-16-2-26.5 0-48 14.38-48 32s21.5 32 48 32 48-14.38 48-32V208c0-5.125-2.375-9.875-6.5-12.88s-9.5-3.82-14.2-2.32l-128 47.25c-6.8 2.05-11.3 8.25-11.3 15.25z"/></svg>