<svg xmlns="http://www.w3.org/2000/svg" viewBox="0 0 384 512"><!--! Font Awesome Pro 6.1.1 by @fontawesome - https://fontawesome.com License - https://fontawesome.com/license (Commercial License) Copyright 2022 Fonticons, Inc.--><path d="m365.3 93.38-74.63-74.64C278.6 6.742 262.3 0 245.4 0H64C28.65 0 0 28.65 0 64l.006 384c0 35.34 28.65 64 64 64H320c35.2 0 64-28.8 64-64V138.6c0-16.9-6.7-33.2-18.7-45.22zM336 448c0 8.836-7.164 16-16 16H64.02c-8.838 0-16-7.164-16-16L48 64.13c0-8.836 7.164-16 16-16h160V128c0 17.67 14.33 32 32 32h79.1v288zM96 128h80c8.8 0 16-7.2 16-16s-7.2-16-16-16H96c-8.84 0-16 7.2-16 16s7.16 16 16 16zm96 48c0-8.8-7.2-16-16-16H96c-8.84 0-16 7.2-16 16s7.16 16 16 16h80c8.8 0 16-7.2 16-16zm5.5 132.8-6.4-1.6c-22.8-7-22.3-11.1-21.5-14.7 1.375-7.812 16.59-9.719 30.27-7.625 5.594.844 11.73 2.812 17.59 4.844 10.39 3.594 21.83-1.938 25.45-12.34 3.625-10.44-1.891-21.84-12.33-25.47-7.219-2.484-13.11-4.078-18.56-5.273V240c0-11.03-8.953-20-20-20s-20 8.969-20 20v5.992C149.6 250.8 133.8 264.8 130.2 285.7c-7.406 42.84 33.19 54.75 50.52 59.84l5.812 1.688c29.28 8.375 28.8 11.19 27.92 16.28-1.375 7.812-16.59 9.75-30.31 7.625-6.938-1.031-15.81-4.219-23.66-7.031l-4.469-1.625c-10.41-3.594-21.83 1.812-25.52 12.22-3.672 10.41 1.781 21.84 12.2 25.53l4.266 1.5c7.758 2.789 16.38 5.59 25.06 7.512V416c0 11.03 8.953 20 20 20s20-8.969 20-20v-6.254c22.36-4.793 38.21-18.53 41.83-39.43C261.3 327 219.8 315.1 197.5 308.8z"/></svg>