<svg xmlns="http://www.w3.org/2000/svg" viewBox="0 0 576 512"><!--! Font Awesome Pro 6.1.1 by @fontawesome - https://fontawesome.com License - https://fontawesome.com/license (Commercial License) Copyright 2022 Fonticons, Inc.--><path d="M48.02 448 48 64.13c0-8.836 7.164-16 16-16h160V128c0 17.67 14.33 32 32 32h79.1v94.18L384 206.5v-67.9a64.01 64.01 0 0 0-18.74-45.26L290.63 18.7C278.6 6.742 262.3 0 245.4 0H63.93C28.58 0 0 28.65 0 64l.006 384c0 35.34 28.58 64 63.93 64H320c29.65 0 54.53-20.52 61.71-48H64.02c-8.84 0-16-7.2-16-16zM292.7 342.3c-3 3-4.7 7.1-4.7 11.4v30.2l-15.2.1c-4.125 0-8.125-2.5-10.12-6.5-11.88-23.88-46.25-30.38-66-14.12l-13.88-41.63c-3.3-9.85-12.4-16.45-22.8-16.45s-19.5 6.625-22.75 16.5L119 376.4c-1.5 4.5-5.7 7.6-10.6 7.6H96c-8.875 0-16 7.125-16 16s7.13 16 16 16h12.38c18.62 0 35.13-11.88 41-29.5L160 354.6l16.9 50.4c2 6.25 7.5 10.5 14 11h1.1c5.999 0 11.62-3.375 14.25-8.875l7.749-15.38C216.8 386.3 221.9 385.6 224 385.6s7.25.625 10.12 6.5c7.38 14.8 22.28 23.9 38.68 23.9h77.59c4.264 0 8.35-1.703 11.35-4.727l156.9-158-67.88-67.88L292.7 342.3zm275.8-174.9-31.9-31.9c-9.875-10-26-10-36 0l-27.25 27.25 67.88 67.88 27.25-27.25c10.02-9.98 10.02-26.08.02-35.98z"/></svg>