<svg xmlns="http://www.w3.org/2000/svg" viewBox="0 0 640 512"><!--! Font Awesome Pro 6.1.1 by @fontawesome - https://fontawesome.com License - https://fontawesome.com/license (Commercial License) Copyright 2022 Fonticons, Inc.--><path d="M639.1 487.1c0-7.119-3.153-14.16-9.191-18.89l-118.8-93.12.001-237.3c0-16.97-6.742-33.26-18.74-45.26l-74.63-74.64C406.6 6.742 390.3 0 373.4 0H192c-35.3 0-64 28.65-64 64v11.01L38.82 5.11C34.41 1.672 29.19 0 24.04 0 10.19 0 0 11.3 0 23.1c0 7.12 3.153 14.16 9.192 18.89l591.1 463.1C605.6 510.3 610.8 512 615.1 512c14.7 0 24-11.4 24-24.9zM464 338.4 176.9 112.7l-.002-48.51c0-8.836 7.164-16 15.1-16h160l-.007 79.87c0 17.67 14.33 31.1 31.1 31.1L464 159.1v179.3zm-16 124.7H192c-8.834 0-15.1-7.164-15.1-16l-.9-212.5-48-37.6v250.1c0 35.34 28.65 64 63.1 64H448c20.4 0 38.45-9.851 50.19-24.84l-37.72-29.56c-2.97 4.7-7.27 6.4-12.47 6.4z"/></svg>