<svg xmlns="http://www.w3.org/2000/svg" viewBox="0 0 384 512"><!--! Font Awesome Pro 6.1.1 by @fontawesome - https://fontawesome.com License - https://fontawesome.com/license (Commercial License) Copyright 2022 Fonticons, Inc.--><path d="m365.3 93.38-74.63-74.64C278.6 6.742 262.3 0 245.4 0H64C28.65 0 0 28.65 0 64l.006 384c0 35.34 28.65 64 64 64H320c35.2 0 64-28.8 64-64V138.6c0-16.9-6.7-33.2-18.7-45.22zM336 448c0 8.836-7.164 16-16 16h-1.6c-7.7-45.4-46.9-80-94.4-80h-64c-47.54 0-86.73 34.64-94.39 80h-1.59c-8.838 0-16-7.164-16-16L48 64.13c0-8.836 7.164-16 16-16h160V128c0 17.67 14.33 32 32 32h79.1v288zM192 224c-35.3 0-64 28.7-64 64 0 35.34 28.65 64 64 64s64-28.66 64-64c0-35.3-28.7-64-64-64z"/></svg>