<svg xmlns="http://www.w3.org/2000/svg" viewBox="0 0 384 512"><!--! Font Awesome Pro 6.1.1 by @fontawesome - https://fontawesome.com License - https://fontawesome.com/license (Commercial License) Copyright 2022 Fonticons, Inc.--><path d="M336 448v-32h48v32c0 35.3-28.7 64-64 64H64c-35.35 0-64-28.7-64-64v-32h48v32c0 8.8 7.16 16 16 16h256c8.8 0 16-7.2 16-16zm-80-288c-17.7 0-32-14.3-32-32V48H64c-8.84 0-16 7.16-16 16v128H0V64C0 28.65 28.65 0 64 0h165.5c17 0 33.2 6.743 45.2 18.75l90.6 90.55c12 12 18.7 28.2 18.7 45.2V192h-48v-32h-80zM96 224c22.1 0 40 17.9 40 40v8c0 8.8-7.2 16-16 16s-16-7.2-16-16v-8c0-4.4-3.6-8-8-8H80c-4.42 0-8 3.6-8 8v80c0 4.4 3.58 8 8 8h16c4.4 0 8-3.6 8-8v-8c0-8.8 7.2-16 16-16s16 7.2 16 16v8c0 22.1-17.9 40-40 40H80c-22.09 0-40-17.9-40-40v-80c0-22.1 17.91-40 40-40h16zm56 46.4c0-25.6 20.8-46.4 46.4-46.4H216c8.8 0 16 7.2 16 16s-7.2 16-16 16h-17.6c-8 0-14.4 6.4-14.4 14.4 0 5.1 2.8 9.9 7.2 12.5l25.4 14.5c14.5 8.2 23.4 22.7 23.4 40.2 0 25.6-20.8 46.4-46.4 46.4H168c-8.8 0-16-7.2-16-16s7.2-16 16-16h25.6c8 0 14.4-6.4 14.4-14.4 0-5.1-2.8-9.9-7.2-12.5l-25.4-14.5c-14.5-8.2-23.4-23.6-23.4-40.2zm128 1.2c0 23 5.5 45.6 16 65.9 10.5-20.3 16-42.9 16-65.9V240c0-8.8 7.2-16 16-16s16 7.2 16 16v31.6c0 34.7-10.3 68.7-29.6 97.6l-5.1 7.7c-3 4.4-7.9 7.1-13.3 7.1s-10.3-2.7-13.3-7.1l-5.1-7.7c-19.3-28.9-29.6-62.9-29.6-97.6V240c0-8.8 7.2-16 16-16s16 7.2 16 16v31.6z"/></svg>