<svg xmlns="http://www.w3.org/2000/svg" viewBox="0 0 384 512"><!--! Font Awesome Pro 6.1.1 by @fontawesome - https://fontawesome.com License - https://fontawesome.com/license (Commercial License) Copyright 2022 Fonticons, Inc.--><path d="m365.3 93.38-74.63-74.64C278.6 6.742 262.3 0 245.4 0H64C28.66 0 0 28.65 0 64l.006 384c0 35.34 28.65 64 64 64H320c35.2 0 64-28.8 64-64V138.6c0-16.9-6.7-33.2-18.7-45.22zM336 448c0 8.836-7.164 16-16 16H64.02c-8.836 0-16-7.164-16-16L48 64.13c0-8.836 7.164-16 16-16h160V128c0 17.67 14.33 32 32 32h80v288zm-97-209-47 47.1-47.9-47.1c-9.375-9.375-24.56-9.375-33.94 0s-9.375 24.56 0 33.94L158.1 320l-47.03 47.03c-9.375 9.375-9.375 24.56 0 33.94 9.375 9.371 24.55 9.379 33.94 0L192 353.9l47.03 47.03c9.375 9.371 24.55 9.379 33.94 0 9.375-9.375 9.375-24.56 0-33.94L225.9 320l47.03-47.03c9.375-9.375 9.375-24.56 0-33.94S248.4 229.7 239 239z"/></svg>