<svg xmlns="http://www.w3.org/2000/svg" viewBox="0 0 512 512"><!--! Font Awesome Pro 6.1.1 by @fontawesome - https://fontawesome.com License - https://fontawesome.com/license (Commercial License) Copyright 2022 Fonticons, Inc.--><path d="M247.4 338.3c7.5-7.5 10.37-18.5 7.625-28.75-5.375-20.62-5.5-17.75 0-38.38 2.748-10.38-.125-21.38-7.625-28.88-14.9-15.19-14.3-12.69-18.9-33.29-2.6-10.2-11.4-18.2-20.6-21-20.4-5.6-17.9-4.1-32.8-19.2-7.3-7.5-19-10.5-28.2-7.8-20.37 5.5-17.49 5.5-37.74 0-10.15-2.7-20.9.3-28.27 7.8-15 15.1-12.5 13.6-32.75 19.2-10.12 2.8-17.91 10.8-20.66 21-5.375 20.75-4 18.12-18.87 33.25-7.375 7.5-10.33 18.5-7.582 28.88 5.375 20.62 5.375 17.75 0 38.38-2.75 10.25.207 21.25 7.582 28.75 14.87 15.12 13.5 12.62 18.87 33.25 2.75 10.38 10.54 18.38 20.67 21.12 14.37 3.875 11.5 3 15.87 5V512l63.99-32L192 512V397.6c4.25-2 1.499-1.125 15.87-5 9.998-2.75 17.1-10.75 20.62-21.12 4.61-20.68 4.01-18.08 18.91-33.18zM128 352c-35.37 0-63.99-28.62-63.99-64s28.63-64 63.99-64 63.99 28.62 63.99 64-28.59 64-63.99 64zM493.3 93.38l-74.63-74.64C406.6 6.742 390.3 0 373.4 0H191.1c-35.35 0-64 28.65-64 64l.01 68.94s22.02-10.7 48-.754L176 64.13c0-8.836 7.164-16 16-16h160V128c0 17.67 14.33 32 32 32h79.1v288c0 8.836-7.164 16-16 16H224l-.9 48h224c35.2 0 64-28.8 64-64V138.6c.9-16.9-5.8-33.2-17.8-45.22z"/></svg>