<svg xmlns="http://www.w3.org/2000/svg" viewBox="0 0 576 512"><!--! Font Awesome Pro 6.1.1 by @fontawesome - https://fontawesome.com License - https://fontawesome.com/license (Commercial License) Copyright 2022 Fonticons, Inc.--><path d="M160 288c0-13.25-10.75-24-24-24H24c-13.25 0-24 10.8-24 24s10.75 24 24 24h112c13.3 0 24-10.7 24-24zm392-24H440c-13.2 0-24 10.8-24 24s10.75 24 24 24h112c13.3 0 24-10.7 24-24s-10.7-24-24-24zm-304 0c-13.2 0-24 10.8-24 24s10.75 24 24 24h80c13.3 0 24-10.7 24-24s-10.75-24-24-24h-80zm-104-40V64.13c0-8.836 7.164-16 16-16h160V128c0 17.67 14.33 32 32 32h79.99v64H480v-85.4a64.01 64.01 0 0 0-18.74-45.26L386.63 18.7C374.6 6.742 358.3 0 341.4 0H160c-35.3 0-64 28.65-64 64l.008 160H144zm288 224c0 8.836-7.164 16-16 16H160c-8.838 0-16-7.164-16-16l-.004-96h-47.1l-.009 96c0 35.34 28.65 64 64 64H416c35.2 0 64-28.8 64-64v-96h-47.1v96z"/></svg>