<svg xmlns="http://www.w3.org/2000/svg" viewBox="0 0 384 512"><!--! Font Awesome Pro 6.1.1 by @fontawesome - https://fontawesome.com License - https://fontawesome.com/license (Commercial License) Copyright 2022 Fonticons, Inc.--><path d="m365.3 93.38-74.63-74.64C278.6 6.742 262.3 0 245.4 0H64C28.65 0 0 28.65 0 64l.006 384c0 35.34 28.65 64 64 64H320c35.2 0 64-28.8 64-64V138.6c0-16.9-6.7-33.2-18.7-45.22zM336 448c0 8.836-7.164 16-16 16H64.02c-8.838 0-16-7.164-16-16L48 64.13c0-8.836 7.164-16 16-16h160V128c0 17.67 14.33 32 32 32h79.1v288zM206.5 311.9c22.46-12.29 36.94-37.2 32.79-65.51C234.6 214.6 205.6 192 173.5 192H96c-8.84 0-16 7.2-16 16v152.1c0 13.2 10.75 23.9 23.1 23.9s24.9-10.7 24.9-23.9V320h18.75L206 379.25l-24.43 24.53c-9.318 9.352-9.303 24.49.035 33.82 9.348 9.348 24.66 9.371 34.01.027L240 413.3l24.35 24.45c9.385 9.426 24.72 9.398 34.07-.059 9.297-9.398 9.279-24.57-.07-33.92L274 379.421l24.25-24.35c9.367-9.406 9.31-24.63-.13-33.97-9.4-9.297-24.54-9.254-33.89.094L240 345.4l-33.5-33.5zM176 272h-48v-32h48c8.9 0 16 7.1 16 16s-7.1 16-16 16z"/></svg>