<svg xmlns="http://www.w3.org/2000/svg" viewBox="0 0 576 512"><!--! Font Awesome Pro 6.1.1 by @fontawesome - https://fontawesome.com License - https://fontawesome.com/license (Commercial License) Copyright 2022 Fonticons, Inc.--><path d="M63.1 464h221.4c12 18.4 27.4 34.5 45.2 47.3-3.1.4-6.4.7-9.7.7H64c-35.35 0-64-28.7-64-64V64C0 28.65 28.65 0 64 0h165.5c17 0 33.2 6.743 45.2 18.75l90.6 90.55c12 12 18.7 28.2 18.7 45.2v44.1c-17.2 4.9-33.4 12.3-48 21.9V160h-80c-17.7 0-32-14.3-32-32V48H64c-8.84 0-16 7.16-16 16v384c0 8.8 7.16 16 16 16h-.9zm224-96c0-79.5 65.4-144 144.9-144s144 64.5 144 144-64.5 144-144 144-144.9-64.5-144.9-144zM432 464c13.3 0 24-10.7 24-24s-10.7-24-24-24-24 10.7-24 24 10.7 24 24 24zm-64-136c0 8.8 7.2 16 16 16s16-7.2 16-16v-6.4c0-5.3 4.3-9.6 9.6-9.6h40.5c7.7 0 13.9 6.2 13.9 13.9 0 5.2-2.9 9.9-7.4 12.4l-32 16.8c-5.3 2.8-8.6 8.2-8.6 14.1V384c0 8.8 7.2 16 16 16s16-7.2 16-16v-5.1l23.5-12.3c15-8 24.5-24.5 24.5-40.7 0-25.3-20.6-45.9-45.9-45.9h-40.5c-23 0-41.6 18.6-41.6 41.6v6.4z"/></svg>