<svg xmlns="http://www.w3.org/2000/svg" viewBox="0 0 640 512"><!--! Font Awesome Pro 6.1.1 by @fontawesome - https://fontawesome.com License - https://fontawesome.com/license (Commercial License) Copyright 2022 Fonticons, Inc.--><path d="M224 432V272.3l-48-37.7V296h-64v-80h40.22L64 146.9V416c0 35.35 28.65 64 64 64h361l-61.24-48H224zm-48 0h-48c-8.822 0-16-7.178-16-16v-72h64v88zm454.8 37.1-55.93-43.84c.43-3.06 1.13-6.06 1.13-9.26V96c0-35.35-28.65-64-64-64H128c-14.4 0-27.6 4.98-38.22 13.06L38.81 5.11C28.34-3.058 13.31-1.246 5.109 9.192-3.063 19.63-1.235 34.72 9.187 42.89L601.2 506.9c4.4 3.4 9.6 5.1 13.9 5.1 7.125 0 14.17-3.156 18.91-9.188 9.09-10.412 7.19-25.512-3.21-33.712zM176 112.6 134.4 80H176v32.6zm240 188.1L389.5 280H416v20.7zm0-68.7h-87.71L224 150.3V80h192v152zm112 156.5L471.2 344H528v44.5zm0-92.5h-64v-80h64v80zm0-128h-64V80h48c8.822 0 16 7.178 16 16v72z"/></svg>