<svg xmlns="http://www.w3.org/2000/svg" viewBox="0 0 640 512"><!--! Font Awesome Pro 6.1.1 by @fontawesome - https://fontawesome.com License - https://fontawesome.com/license (Commercial License) Copyright 2022 Fonticons, Inc.--><path d="M82.15 39.08C88.75 34.61 96.71 32 105.3 32h429c23 0 41.7 18.67 41.7 41.7 0 9.6-3.3 18.9-9.4 26.3L408.1 294.6l222.7 174.5c10.4 8.2 12.3 23.3 4.1 33.7-8.2 10.4-23.3 12.3-33.7 4.1L9.196 42.89C-1.236 34.71-3.065 19.63 5.112 9.196 13.29-1.236 28.37-3.065 38.81 5.112L82.15 39.08zM134.4 80l235.9 184.1L521 80H134.4zM352 415.2v-41.9l48 37.9v36.5c0 17.8-14.5 32.3-32.3 32.3-7.3 0-14.4-2.5-20.1-7.9l-92.5-72.5c-9.5-7.6-15.1-19.1-15.1-31.3v-83.2l48 37.8v41.5l64 50.8z"/></svg>