<svg xmlns="http://www.w3.org/2000/svg" viewBox="0 0 576 512"><!--! Font Awesome Pro 6.1.1 by @fontawesome - https://fontawesome.com License - https://fontawesome.com/license (Commercial License) Copyright 2022 Fonticons, Inc.--><path d="M472.2 0c22 0 39.8 17.81 39.8 39.77 0 9.08-3.1 17.88-8.8 24.94L418.7 169.7c-8.3 10.3-23.4 12-34.6 3.7-9.5-8.3-12-23.5-2.8-33.8L455 48H57.94L218.7 249c3.4 4.3 5.3 9.6 5.3 15v68l22.4 16.8c10.6 8 12.8 23 4.8 33.6-8 10.6-23 12.8-33.6 4.8l-32-24c-6-4.5-9.6-11.6-9.6-19.2v-71.6L8.504 63.05A38.8 38.8 0 0 1 0 38.81C0 17.37 17.37 0 38.81 0H472.2zM576 368c0 79.5-64.5 144-144 144s-144-64.5-144-144 64.5-144 144-144 144 64.5 144 144zm-163-36.9c5.1-1.8 12.6-3.2 18.8-3.1 7.3.1 17.1 1.8 26.3 4.1 8.6 2.1 17.3-4 19.4-11.7 2.2-8.6-3.1-17.2-11.6-19.4-5.6-1.4-11.6-2.7-17.9-3.6V288c0-8.8-7.2-16-16-16s-16 7.2-16 16v9.5c-6.1 1.2-12.3 3.2-18.9 6.3-11 6.3-22.2 18.4-21 37.2 1 16 11.7 25.4 21.6 30.7 8.9 4.7 19.8 7.8 28.6 9.4l1.8 1.4c10.2 2.9 17 5.2 23.1 8.3 4.6 2.7 3.9 4.3 3.9 5.7 1 2.4.4 3.7-1 4.5.2.1-.9 2.2-4 3.4-3.8 2.5-10.9 3.8-17.6 2.7-10.4.6-18.5-2.3-29.9-5.9-1.9-.6-3.8-1.2-5.8-1.8-8.5-2.6-17.5 2.1-20.1 10.5-2.6 8.4 2.1 17.4 10.5 20 1.7.5 3.3.2 5.1 1.6 7 2.3 15.1 4.9 23.7 6.6v11.4c0 8.9 7.2 16 16 16s16-7.1 16-16v-10.8c6.2-1.1 12.5-3.1 18.3-6.2 12-6.6 22.2-18.7 20.8-37 .4-16.1-9.4-26.2-19.6-32.2-9.4-5.6-21.3-8.9-30.6-11.6h-.1c-10.5-3-18.3-5.2-23.9-8.2-4.8-2.6-4.8-4-4.8-4.4v-1c-.2-1.1.3-2 .7-2.7.6-.9 1.8-2.1 4.2-4.3z"/></svg>