<svg xmlns="http://www.w3.org/2000/svg" viewBox="0 0 576 512"><!--! Font Awesome Pro 6.1.1 by @fontawesome - https://fontawesome.com License - https://fontawesome.com/license (Commercial License) Copyright 2022 Fonticons, Inc.--><path d="M472.2 0c22 0 39.8 17.81 39.8 39.77 0 9.08-3.1 17.88-8.8 24.94L418.7 169.7c-8.3 10.3-23.4 12-34.6 3.7-9.5-8.3-12-23.5-2.8-33.8L455 48H57.94L218.7 249c3.4 4.3 5.3 9.6 5.3 15v68l22.4 16.8c10.6 8 12.8 23 4.8 33.6-8 10.6-23 12.8-33.6 4.8l-32-24c-6-4.5-9.6-11.6-9.6-19.2v-71.6L8.504 63.05A38.8 38.8 0 0 1 0 38.81C0 17.37 17.37 0 38.81 0H472.2zM288 368c0-79.5 64.5-144 144-144s144 64.5 144 144-64.5 144-144 144-144-64.5-144-144zm203.3-36.7c6.3-6.2 6.3-16.4 0-22.6-6.2-6.3-16.4-6.3-22.6 0L432 345.4l-36.7-36.7c-6.2-6.3-16.4-6.3-22.6 0-6.3 6.2-6.3 16.4 0 22.6l36.7 36.7-36.7 36.7c-6.3 6.2-6.3 16.4 0 22.6 6.2 6.3 16.4 6.3 22.6 0l36.7-36.7 36.7 36.7c6.2 6.3 16.4 6.3 22.6 0 6.3-6.2 6.3-16.4 0-22.6L454.6 368l36.7-36.7z"/></svg>