<svg xmlns="http://www.w3.org/2000/svg" viewBox="0 0 640 512"><!--! Font Awesome Pro 6.1.1 by @fontawesome - https://fontawesome.com License - https://fontawesome.com/license (Commercial License) Copyright 2022 Fonticons, Inc.--><path d="M598.2 32c23.1 0 41.8 18.74 41.8 41.85 0 9.35-3.1 18.42-8.9 25.79L496 272.3v143.2c0 26.7-30.8 41.7-51.8 25.2l-92.9-73c-9.7-7.6-15.3-19.2-15.3-31.5v-63.9L200.9 99.64c-5.8-7.37-8.9-16.44-8.9-25.79C192 50.74 210.7 32 233.8 32h364.4zM384 264v68.3l64 50.3V264c0-5.4 1.8-10.6 5.1-14.8L585.5 80h-339l132.4 169.2c3.3 4.2 5.1 9.4 5.1 14.8zM175.7 119.4l18.4 24.6H54.48L186.9 313.2c3.3 4.2 5.1 9.4 5.1 14.8v36.3l64 50.3V328c0-5.4 1.8-10.6 5.1-14.8l33.2-42.4 9.7 12.5v164.2c0 26.7-30.8 41.7-51.8 25.2l-92.9-73c-9.7-7.6-15.3-19.2-15.3-31.5v-31.9L8.892 163.6C3.131 156.3 0 147.2 0 137.8 0 114.7 18.74 96 41.85 96H163.4c2.6 8.4 6.8 16.3 12.3 23.4z"/></svg>