<svg xmlns="http://www.w3.org/2000/svg" viewBox="0 0 640 512"><!--! Font Awesome Pro 6.1.1 by @fontawesome - https://fontawesome.com License - https://fontawesome.com/license (Commercial License) Copyright 2022 Fonticons, Inc.--><path d="M352 200s-70.25-71.75-75.38-77.88C240.4 167 222.3 193.3 222.3 223.3c0 11.38 2 21.5 5 31.25C254.1 235 286.5 224 320 224c32.38 0 63.75 10.5 90.13 28.75 5.87-22.85 3.77-47.95-7.23-69.95-2.5-5-5.488-10.01-8.613-15.38L352 200zm-200 40c15.75 0 30.88 2.625 45.38 7.25C194.3 236.3 192 224.9 192 213c0-29.75 31.5-89.75 84.25-146.1C290.8 82 304.1 97.63 315.8 113l36 47.88s43-50.63 45.25-53.13C428.9 148.8 448 195.6 448 213c0 11.88-2.25 23.25-5.375 34.25C457.1 242.6 472.3 240 488 240c1.875 0 3.75.5 5.625.625 1.5-9 2.312-18.37 2.312-27.75 0-40.25-40.75-123.3-97.75-174.2a456.127 456.127 0 0 0-44.25 45.44C332.6 55.63 306.1 26.88 276 0c-77.2 68.88-132 158.8-132 213 0 9.375 1 18.62 2.375 27.62 1.925-.12 3.725-.62 5.625-.62zm334.4 42c-24.36 0-47.94 8.125-67.25 22.62C395.5 274.3 359.3 255.1 320 255.1s-75.5 19.2-99.2 49.5c-19.3-14.5-43.7-22.6-67.2-22.6C90.95 282 40 333.6 40 397s50.95 115 113.6 115h332.8C549 512 600 460.4 600 397s-51-115-113.6-115zm0 182H153.6c-36.2 0-65.6-30.1-65.6-67s29.42-67 65.59-67c20.88 0 40.06 10.03 52.63 27.47 5.078 7.062 13.62 10.69 22.2 9.844a24.02 24.02 0 0 0 19.42-14.59C260.2 323.1 288.5 304 320 304s59.78 19.12 72.16 48.72a24.014 24.014 0 0 0 19.42 14.59 24.022 24.022 0 0 0 22.2-9.844c12.56-17.44 31.75-27.47 52.63-27.47 36.17 0 65.59 30.06 65.59 67S522.6 464 486.4 464z"/></svg>