<svg xmlns="http://www.w3.org/2000/svg" viewBox="0 0 448 512"><!--! Font Awesome Pro 6.1.1 by @fontawesome - https://fontawesome.com License - https://fontawesome.com/license (Commercial License) Copyright 2022 Fonticons, Inc.--><path d="M323.5 51.25c-20.7 19.25-39.5 39.5-56.1 59.85C240.1 73.62 206.2 35.5 168 0 69.75 91.12 0 210 0 281.6 0 408.9 100.2 512 224 512s224-103.1 224-230.4c0-53.2-52-163.1-124.5-230.35zM224 464c-97 0-176-81.88-176-182.4 0-45.38 44.25-133.2 120.1-214.1 22.4 23.38 42.9 47.7 60.4 71.9l36.63 50.38 39.38-48.25a738.207 738.207 0 0 1 18-21C368.9 178 400 250.4 400 281.6 400 382.1 321 464 224 464zm89.5-220.9-51.38 58.5S181.75 199 175.75 192C133.2 242.9 112 272.6 112 306.4c0 67.9 51.4 109.6 114.5 109.6 25.25 0 48.63-7.875 67.63-21.12 43-30.12 53.12-88.63 29.25-134.3-2.98-5.58-6.28-11.48-9.88-17.48z"/></svg>