<svg xmlns="http://www.w3.org/2000/svg" viewBox="0 0 384 512"><!--! Font Awesome Pro 6.1.1 by @fontawesome - https://fontawesome.com License - https://fontawesome.com/license (Commercial License) Copyright 2022 Fonticons, Inc.--><path d="M192 0C86.25 93.5 0 214.4 0 298.1 0 424 79 512 192 512s192-88 192-213.9c0-84-87.2-205.6-192-298.1zm0 65.25c51.38 51 144 158.5 144 232.9 0 29.5-5.625 55.63-15.12 78.38C317.4 301.8 237.2 218.6 192 167.8 146.25 219.3 66.6 301.5 63.1 376.5c-9.35-22.7-15.1-49-15.1-78.4 0-74.2 92.6-181.7 144-232.85zM173.9 462.2c-38.1-7.4-63.4-38.7-63.4-81.1 0-20.6 13.5-64.6 81.5-141.1 68 76.5 81.5 120.5 81.5 141.1 0 42.38-25.25 73.63-63.38 81.12-20.92 2.38-15.32 2.38-36.22-.02z"/></svg>