<svg xmlns="http://www.w3.org/2000/svg" viewBox="0 0 640 512"><!--! Font Awesome Pro 6.1.1 by @fontawesome - https://fontawesome.com License - https://fontawesome.com/license (Commercial License) Copyright 2022 Fonticons, Inc.--><path d="M349 61.49c7.9-9.88 16.8-20.73 26.5-29.5 5.6-5.12 14.4-5.1 20 .04 24.7 22.68 45.6 52.66 60.3 81.17 14.6 28 24.2 56.7 24.2 76.9 0 87.8-71.3 161.9-160 161.9-89.7 0-160-74.2-160-161.9 0-26.4 12.7-58.6 32.4-90.58 20-32.36 48.1-66.09 81.4-95.786 5.6-4.994 13.3-4.976 19.7.039A543.88 543.88 0 0 1 349 61.49zm41 114.61c-2-4-4-8-7-12l-36 42s-58-74-62-79c-30 37-45 58-45 82 0 49 36 78 80.1 78 18.9 0 34.9-5 49.9-15 30-21 38-63 20-96zm-358 103c0-12.4 10.75-24 24-24h48c13.3 0 24 11.6 24 24 0 14.2-10.7 24-24 24H80V384h480v-80.9h-24c-13.3 0-24-9.8-24-24 0-12.4 10.7-24 24-24h48c13.3 0 24 11.6 24 24V384c17.7 0 32 14.3 32 32v64c0 17.7-14.3 32-32 32H32c-17.67 0-32-14.3-32-32v-64c0-17.7 14.33-32 32-32V279.1zM164.3 464c-2.7-4.7-4.3-10.2-4.3-16 0-5.8 1.6-11.3 4.3-16H48v32h116.3zm55.4 0h72.6c-2.7-4.7-4.3-10.2-4.3-16 0-5.8 1.6-11.3 4.3-16h-72.6c2.7 4.7 4.3 10.2 4.3 16 0 5.8-1.6 11.3-4.3 16zm128 0h72.6c-2.7-4.7-4.3-10.2-4.3-16 0-5.8 1.6-11.3 4.3-16h-72.6c2.7 4.7 4.3 10.2 4.3 16 0 5.8-1.6 11.3-4.3 16zM592 432H475.7c2.7 4.7 4.3 10.2 4.3 16 0 5.8-1.6 11.3-4.3 16H592v-32z"/></svg>