<svg xmlns="http://www.w3.org/2000/svg" viewBox="0 0 384 512"><!--! Font Awesome Pro 6.1.1 by @fontawesome - https://fontawesome.com License - https://fontawesome.com/license (Commercial License) Copyright 2022 Fonticons, Inc.--><path d="M215.1 23.88c0-23.75-31.15-33.15-44.15-13.03C76.47 158.1 200 238.7 200 287.1c0 22-18 40-40 40s-40-18-40-40v-105c0-19.38-21.88-30.75-37.75-19.63C30.75 198.4 0 257.2 0 319.1 0 425.9 86.12 512 192 512s192-86.12 192-192c0-170.3-168.9-193-168.9-296.12zM192 463.1c-79.38 0-144-64.63-144-144 0-28.63 8.5-64.75 24-88v56c0 48.5 39.5 88 88 88s88-39.5 88-88c0-64.25-88-120-64-208 40 88 152 122.6 152 240 0 80.3-64.6 144-144 144z"/></svg>