<svg xmlns="http://www.w3.org/2000/svg" viewBox="0 0 384 512"><!--! Font Awesome Pro 6.1.1 by @fontawesome - https://fontawesome.com License - https://fontawesome.com/license (Commercial License) Copyright 2022 Fonticons, Inc.--><path d="M191.1 0C79.75 101.4 0 220.9 0 300.5 0 425 79 512 192 512s192-87 192-211.5c0-79.9-80.3-199.6-192.9-300.5zm.9 464c-86.13 0-144-65.75-144-163.5 0-46.25 45.25-136.6 144-234.4 86.2 85.9 144 178.8 144 234.4 0 97.7-57.9 163.5-144 163.5zm45.1-224.4c-20-17-38.75-33-38.75-58.12 0-3.499-2.75-4.75-4-5.125-2.35-.755-5.75-.555-7.95 2.445C131.5 253.4 216 248 216 302c0 23.2-18.8 42-42.9 42-22.3 0-41.1-18.8-41.1-42v-30c0-2.375-1.5-4.625-3.75-5.5-3.15-1-4.75-.5-6.45 1.3-6.4 6.2-25.8 26.7-25.8 59.8 0 48.8 43 88.4 96 88.4s96-39.63 96-88.38c0-44.42-25.9-66.52-50.9-88.02z"/></svg>