<svg xmlns="http://www.w3.org/2000/svg" viewBox="0 0 512 512"><!--! Font Awesome Pro 6.1.1 by @fontawesome - https://fontawesome.com License - https://fontawesome.com/license (Commercial License) Copyright 2022 Fonticons, Inc.--><path d="M503.4 5.56c-5.453-4.531-12.61-6.406-19.67-5.188l-175.1 32c-11.41 2.094-19.7 12.03-19.7 23.63L200 56V24c0-13.25-10.7-24-24-24s-24 10.75-24 24v32h-32C53.84 56 0 109.8 0 176c0 13.25 10.75 24 24 24s24-10.7 24-24c0-39.69 32.31-72 72-72h32v26.72C101.7 141.7 64 186.4 64 240v240c0 17.67 14.33 32 31.1 32H256c17.67 0 31.1-14.33 31.1-32V240c0-53.6-37.71-98.27-87.1-109.3V104l87.1-.002c0 11.59 8.297 21.53 19.7 23.62l175.1 31.1c1.438.25 2.875.375 4.297.375 5.578 0 11.03-1.938 15.37-5.562a23.997 23.997 0 0 0 8.625-18.44V23.1c.908-6.23-1.392-12.98-6.792-17.54zM240 464H112v-32h128v32zm0-224v144H112V240c0-35.29 28.71-64 64-64 35.3 0 64 28.7 64 64z"/></svg>