<svg xmlns="http://www.w3.org/2000/svg" viewBox="0 0 640 512"><!--! Font Awesome Pro 6.1.1 by @fontawesome - https://fontawesome.com License - https://fontawesome.com/license (Commercial License) Copyright 2022 Fonticons, Inc.--><path d="M342.3 311.6c-14-18.8-31.4-37.8-51-55.6-50.5 45.63-86.5 105-86.5 140.8 0 63.6 51.6 115.2 115.2 115.2s115.3-51.63 115.3-115.3c0-26.5-26.75-81.5-64-115.1-10.8 9.7-20.5 19.8-29 30zm15.5 136.9c-10.5 7.8-23.7 12.3-37.8 12.3-35.25 0-64-24.38-64-64 0-19.62 11.88-36.1 35.63-66.75 3.375 4.125 48.25 64.12 48.25 64.12l28.75-34.25c2 3.5 3.875 6.875 5.5 10.25 13.37 26.63 7.77 60.73-16.33 78.33zM608 0H32C14.4 0 0 14.4 0 32v64c0 17.6 14.4 32 32 32v360c0 13.3 10.75 24 24 24s24-10.75 24-24V128h480v359.9c0 13.25 10.75 24 24 24s24-10.75 24-24V128c17.6 0 32-14.4 32-32V32c0-17.6-14.4-32-32-32zm-16 72a8 8 0 0 1-8 8H56c-4.42 0-8-3.58-8-8V56a8 8 0 0 1 8-8h528a8 8 0 0 1 8 8v16zm-274.9 88C201.2 160.9 112 261.3 112 374.9V488c0 13.3 10.7 24 24 24s24-10.7 24-24V372.6c0-87.06 74.03-164.7 160-164.7 88.38 0 160 71.63 160 160v120c0 13.25 10.75 24 24 24s24-10.75 24-24v-119c0-115.5-94.5-209.8-210.9-208.9z"/></svg>