<svg xmlns="http://www.w3.org/2000/svg" viewBox="0 0 576 512"><!--! Font Awesome Pro 6.1.1 by @fontawesome - https://fontawesome.com License - https://fontawesome.com/license (Commercial License) Copyright 2022 Fonticons, Inc.--><path d="M384 256c0-17.7 14.3-32 32-32s32 14.3 32 32-14.3 32-32 32-32-14.3-32-32zM4.217 336.1 50 256 4.217 175.9a32.047 32.047 0 0 1 4.168-37.5c9.385-10.3 24.315-13.3 36.945-7.5l99.47 45.6c10.6-11.9 22.5-23.8 35.7-35C219.7 108.5 272.6 80 336 80c63.4 0 116.3 28.5 155.5 61.5 39 33 66.8 71.6 80.9 99.8 4.8 9.2 4.8 20.2 0 29.4-14.1 27.3-41.9 66.8-80.9 99.8-39.2 33-92.1 61.5-155.5 61.5-63.4 0-116.3-28.5-155.5-61.5-13.2-11.2-25.1-23.1-35.7-35l-99.47 45.6c-12.63 5.8-27.56 2.8-36.945-7.5a32.048 32.048 0 0 1-4.168-37.5zm207.283-2.3c33.7 28.4 76 50.2 124.5 50.2s90.8-21.8 124.5-50.2c30.3-25.6 52.7-55.7 65.3-77.8-12.6-22.1-35-52.2-65.3-77.8-33.7-28.5-76-50.2-124.5-50.2s-90.8 21.7-124.5 50.2c-11.3 9.5-22.4 18.9-30.7 30.1l-23.6 25.8-86.61-38.8L105.3 256l-34.71 60.7L157.2 277l23.6 26.7c8.3 10.3 19.4 20.6 30.7 30.1z"/></svg>