<svg xmlns="http://www.w3.org/2000/svg" viewBox="0 0 576 512"><!--! Font Awesome Pro 6.1.1 by @fontawesome - https://fontawesome.com License - https://fontawesome.com/license (Commercial License) Copyright 2022 Fonticons, Inc.--><path d="M384 256c0-17.7 14.3-32 32-32s32 14.3 32 32-14.3 32-32 32-32-14.3-32-32zM8.385 373.6a32.047 32.047 0 0 1-4.168-37.5L50 256 4.217 175.9a32.047 32.047 0 0 1 4.168-37.5c9.385-10.3 24.315-13.3 36.945-7.5l103.87 47.6c9.9-9.6 19.9-19.1 31.9-28.1 14-9.8 28.6-19.2 44.5-27.2L224 64.85c-.3-12.4 6.5-23.87 17.6-29.44 11.1-5.57 24.4-4.24 34.2 3.43l72.3 57.52c57.5 3.16 105.3 26.54 141.9 54.04 39.2 29.4 67.3 64.7 81.7 89.5 5.7 10 5.7 22.2 0 32.2-14.4 24.8-42.5 60.1-81.7 89.5-36.6 27.5-84.4 50.9-141.9 54l-72.3 57.6c-10.7 7.7-23.2 9-34.3 3.3-11.1-5.6-17.9-17.1-17.5-29.6l1.9-57.9c-16-8.1-30.7-17.5-44.8-27.4-12-9-22-18.5-31.9-28.1L45.33 381.1c-12.63 5.8-27.56 2.8-36.945-7.5zM247.3 165.1c-13.2 7.5-25.4 15.3-36.5 23.7-10.2 7.6-19.5 15.8-28 24l-23.5 23.1-88.71-40.6L105.3 256l-34.71 60.7 88.71-40.6 23.5 23.1c8.5 8.2 17.8 16.4 28 24 11.2 8.4 23.5 16.3 36.8 23l27.3 12.9-1.8 55.1 58.1-45.6 15.1-.9c43.8-2.5 82.8-21 114.9-44.5 29.4-22.1 51.3-47.9 64-67.2-12.7-19.2-34.6-45.1-64-67.2-32.1-23.5-71.1-42-114.9-44.5l-15.1-.9-58.3-45.77 1.5 54.57-27.1 12.9z"/></svg>