<svg xmlns="http://www.w3.org/2000/svg" viewBox="0 0 576 512"><!--! Font Awesome Pro 6.1.1 by @fontawesome - https://fontawesome.com License - https://fontawesome.com/license (Commercial License) Copyright 2022 Fonticons, Inc.--><path d="M323.9 64c-92.2 0-163.6 61.5-197.5 97.7l-61.35-49.2c-12.75-11.1-30.44-12.87-44.97-5.4C5.3 115.553-2.48 132.58.95 150.57L25.74 256 .71 361.6c-3.188 16.91 4.625 33.95 19.41 42.41 14.53 8.375 32.16 6.578 44.06-3.828l62.13-49.88C160.3 386.5 231.7 448 323.9 448 462.6 448 576 303.9 576 256S462.6 64 323.9 64zm0 336c-70.97 0-137.5-50.58-176.1-97.92l-15.1-18.48-79.31 63.67L75.05 256l-21.66-91.3 79.41 63.7 15.06-18.5C186.4 162.6 252.8 112 323.9 112c110.3 0 201.5 120.4 204.2 143.5-2.7 24.1-93.9 144.5-204.2 144.5zm-72.6-148.7 64-64c6.25-6.25 6.25-16.38 0-22.62-6.25-6.25-16.38-6.25-22.63 0l-64 64c-6.25 6.25-6.25 16.38 0 22.62 3.13 3.1 7.23 4.7 10.43 4.7s9.1-1.6 12.2-4.7zm176-86.6c-6.25-6.25-16.37-6.25-22.63 0l-160 160c-6.25 6.25-6.25 16.38 0 22.62 3.13 3.08 7.23 4.68 10.43 4.68s8.187-1.562 11.31-4.688l160-160c7.19-6.212 7.19-16.412.89-22.612zm-6.6 96-64 64c-6.25 6.25-6.25 16.38 0 22.62 3.1 3.08 7.2 4.68 10.4 4.68s8.188-1.562 11.31-4.688l64-64c6.25-6.25 6.25-16.38 0-22.62s-15.51-6.292-21.71.008z"/></svg>