<svg xmlns="http://www.w3.org/2000/svg" viewBox="0 0 576 512"><!--! Font Awesome Pro 6.1.1 by @fontawesome - https://fontawesome.com License - https://fontawesome.com/license (Commercial License) Copyright 2022 Fonticons, Inc.--><path d="M508.3 0c-6.365 0-13.04 1.35-19.37 4.232-45.69 20.86-79.56 27.94-107.8 27.94-59.96 0-94.8-31.86-163.9-31.87-34.63 0-77.87 8.002-137.2 32.04V24C80 10.75 69.26 0 56 0S32 10.75 32 24v464c0 13.3 10.74 24 24 24s24-10.75 24-24V384c53.59-23.86 96.02-31.81 132.8-31.81 73.63 0 124.9 31.78 198.6 31.78 31.91 0 68.02-5.973 111.1-23.09 13.6-5.08 21.5-16.48 21.5-28.78V30.74C544 12.01 527.3 0 508.3 0zM152 310.4c-23.3 4.6-47.2 11.6-72 21.5v-48.1l18.03-7.301C117.5 268.7 135.2 262.8 152 258.3v52.1zm0-101.8c-21.2 5.1-44.7 12.4-72 23.5v-44.3l18.03-7.301C117.5 172.7 135.2 166.8 152 162.3v46.3zm0-96c-21.2 5.1-44.7 12.4-72 23.5V84.14l18.03-7.301C117.5 68.95 135.2 63.15 152 58.55v54.05zm120 197.1c-18.3-3.3-37.9-5.5-59.2-5.5-4.248 0-8.574.504-12.85.684V249.2c5.85-.6 11.75-1.2 17.25-1.2 20.9 0 37.7 3.7 54.8 8.7v53zm0-102.6c-16.3-4-33.9-7.1-54.8-7.1-5.4 0-11.4.6-17.2 1v-47.84c5.8-.56 11.7-1.16 17.2-1.16 20.9 0 37.7 3.7 54.8 8.7v46.4zm0-96c-16.3-4-33.9-7.1-54.8-7.1-5.4 0-11.4.6-17.2 1V49.47c5.826-.52 11.74-1.172 17.21-1.172C238.1 48.3 254.9 51.98 272 57.02v54.08zm120 223.8c-23.25-2.121-45.17-7.555-68.04-13.37-1.26-.33-2.66-.63-3.96-.93v-49.4c18.1 4.8 37.9 8.7 61.1 8.7 3.592 0 7.283-.477 10.91-.652V334.9zm0-103.7c-3.627.223-7.457.7-10.91.7-22.93 0-42.19-4.673-61.09-10.43V175.2c18.1 4.8 37.9 8.7 61.1 8.7 3.592 0 7.283-.477 10.91-.652V231.2zm0-96c-3.627.223-7.457.7-10.91.7-22.93 0-42.19-4.673-61.09-10.43V71.48c18.07 4.82 37.91 8.684 61.09 8.684 3.592 0 7.283-.477 10.91-.652V135.2zm104 184.6c-19.64 7.012-38.14 11.46-56 13.89v-61.55c17.73-4.375 36.19-10.5 56-18.91v66.57zm0-118.2c-2.371.656-4.75 1.289-7.072 2.344C470.7 212.2 454.8 217.8 440 222.2v-46c17.73-4.375 36.19-10.5 56-18.91v44.31zm0-96c-2.371.656-4.75 1.289-7.072 2.344C470.7 116.2 454.8 121.8 440 126.2V72.47c17.73-4.375 36.19-10.5 56-18.91v52.04z"/></svg>