<svg xmlns="http://www.w3.org/2000/svg" viewBox="0 0 448 512"><!--! Font Awesome Pro 6.1.1 by @fontawesome - https://fontawesome.com License - https://fontawesome.com/license (Commercial License) Copyright 2022 Fonticons, Inc.--><path d="M319.1 169V48h7.996c13.26 0 24-10.75 24-24 0-13.26-10.74-24-24-24H119.1c-13.26 0-24 10.74-24 24 0 13.25 10.74 24 24 24h7.992v120.1C61.62 202.9 16 271.9 16 352c0 53.75 20.38 102.8 53.99 139.8C81.87 504.9 99.12 512 116.1 512h213.1c18 0 35.5-7.5 47.5-20.88 32.24-35.75 52.24-82.75 53.49-134.5C433.7 276.8 387.2 205.1 319.1 169zm23.6 290.1c-3.6 3.1-7.1 4.9-12.6 4.9h-214c-4.617 0-8.879-1.666-11.47-4.527C78.74 430 64 391.8 64 352c0-59.33 33.05-113.5 86.25-141.4l25.73-13.47V48h95.98v149.7l25.28 13.58c53.96 28.99 88 85.63 86.72 144.2C383 393.8 368.4 430.6 342.7 459.1zM224 256c-49.13 0-88.88 31.88-88.88 71.13 0 23.12 14.12 43.63 35.5 56.5v14.62C170.6 408 178.6 416 188.5 416h71c9.875 0 17.88-8 17.88-17.75v-14.62c21.38-12.88 35.5-33.38 35.5-56.5C312.9 287.9 273.1 256 224 256zm-35.5 88.9c-9.875 0-17.88-8-17.88-17.75 0-9.875 8-17.75 17.88-17.75 9.75 0 17.75 7.875 17.75 17.75.05 9.75-7.95 17.75-17.75 17.75zm71 0c-9.75 0-17.75-8-17.75-17.75 0-9.875 8-17.75 17.75-17.75 9.875 0 17.88 7.875 17.88 17.75.02 9.75-7.98 17.75-17.88 17.75z"/></svg>