<svg xmlns="http://www.w3.org/2000/svg" viewBox="0 0 640 512"><!--! Font Awesome Pro 6.1.1 by @fontawesome - https://fontawesome.com License - https://fontawesome.com/license (Commercial License) Copyright 2022 Fonticons, Inc.--><path d="M160 442.5c-10.9 3.6-20.8 5.5-32 5.5-53.02 0-96-43-96-96V48h-8C10.75 48 0 37.25 0 24S10.75 0 24 0h208c13.3 0 24 10.75 24 24s-10.7 24-24 24h-8v261.9l-49 79.5c-9.8 16-15 34.4-15 53.1zM80 160h96V48H80v112zm0 48v144c0 26.5 21.5 48 48 48s48-21.5 48-48V208H80zM520 0c13.3 0 24 10.75 24 24s-10.7 24-24 24h-8v169.2l117.1 191.7c7.4 10.7 10.9 22.9 10.9 35.5 0 37.3-30.3 67.6-67.6 67.6H259.6c-37.3 0-68.5-30.3-68.5-67.6 0-12.6 4.4-24.8 10.9-35.5l117.1-191.7V48h-8c-12.4 0-24-10.75-24-24s11.6-24 24-24H520zm-56 48h-96v176c0 4.4-1.2 8.8-3.6 12.6L313.1 320h205.8l-51.3-83.4c-2.4-3.8-3.6-8.2-3.6-12.6V48zM240 444.4c0 10.8 8.8 19.6 19.6 19.6h312.8c10.8 0 19.6-8.8 19.6-19.6 0-3.7-1.9-7.2-2.9-10.3L548.4 368H283.6l-40.7 66.1c-1.9 3.1-2.9 6.6-2.9 10.3z"/></svg>