<svg xmlns="http://www.w3.org/2000/svg" viewBox="0 0 512 512"><!--! Font Awesome Pro 6.1.1 by @fontawesome - https://fontawesome.com License - https://fontawesome.com/license (Commercial License) Copyright 2022 Fonticons, Inc.--><path d="M240 376c-13.25 0-24 10.74-24 24 0 13.25 10.75 24 24 24s24-10.75 24-24c0-13.3-10.7-24-24-24zm96-32c-13.25 0-24 10.74-24 24 0 13.25 10.75 24 24 24s24-10.75 24-24c0-13.3-10.7-24-24-24zM468.8 86.78c-9.541-14.95-25.54-22.79-41.66-22.79-2.604 0-5.2.339-7.782.751-6.09-8.76-13.33-16.66-23.31-21.15-18.2-8.273-37.71-3.221-54.79 1.309-10.54 2.701-21.43 5.576-28.83 4.27-7.926-1.307-18.03-7.75-27.79-14.02C269.4 25.3 251.9 14.1 232.9 16.27c-19.5 2.27-32.8 17.49-44.4 30.9-7 8.01-14.3 16.37-21.1 19.51-6.6 3.14-17.6 3.49-28.2 3.84-39.2 1.3-66.33 4.27-68.6 68.58-.43 10.5-.78 21.7-3.83 28.2-3.31 6.8-11.58 14-19.69 21.1-13.41 11.6-28.54 24.8-30.8 44.5-2.18 18.9 9.03 36.3 18.87 51.7 6.27 9.756 12.71 19.69 14.11 27.7 1.307 7.402-1.568 18.29-4.355 28.74-4.443 17.16-9.582 36.58-1.223 54.87 4.498 9.996 12.4 17.26 21.17 23.36-2.988 18.59 4.569 38.38 21.95 49.47C131.1 497.6 183.7 512 235.4 512c70.79 0 141.6-27 195.6-81.02 93.5-93.48 106-237.18 37.8-344.2zM192 192c11.51 0 22.39 2.355 32.61 6.068C224.5 196 224 194.1 224 192c0-53.02 42.98-96 96-96 15.88 0 30.52 4.305 43.6 11.21l-24.31 24.31C333.2 129.5 326.8 128 320 128c-35.29 0-64 28.71-64 64 0 6.812 1.475 13.18 3.52 19.29L120.1 350.7C105.4 333.9 96 312.2 96 288c0-53.9 42.1-96 96-96zm205 205c-43.1 43.2-100.5 67-161.6 67-43.73 0-86.51-14.24-123.1-37.6l314.1-314.1c.2-.2.3-.3.7-.3l1.197.615C485.4 202.2 472.3 321.8 397 397z"/></svg>