<svg xmlns="http://www.w3.org/2000/svg" viewBox="0 0 576 512"><!--! Font Awesome Pro 6.1.1 by @fontawesome - https://fontawesome.com License - https://fontawesome.com/license (Commercial License) Copyright 2022 Fonticons, Inc.--><path d="M432 224c-9.941 0-19.65 1.008-29.02 2.926C337.4 240.4 288 298.4 288 368c0 79.54 64.46 144 144 144s144-64.46 144-144-64.5-144-144-144zm56.5 177.9c6.242 6.242 6.252 16.37.01 22.62-6.24 6.242-16.37 6.231-22.62-.011l-33.91-33.91-33.91 33.91c-6.242 6.242-16.37 6.253-22.62.01s-6.232-16.37.01-22.62l33.91-33.91-33.91-33.91c-6.242-6.242-6.251-16.37-.01-22.62s16.37-6.232 22.62.01l33.91 33.91 33.91-33.91c6.243-6.241 16.37-6.253 22.61-.01s6.234 16.37-.008 22.62l-33.91 33.91L488.5 401.9zM224 256c-35.2 0-64 28.8-64 64s28.8 64 64 64c11.83 0 22.81-3.473 32.35-9.133-.05-2.267-.35-4.567-.35-6.867 0-30.26 7.65-58.73 21.1-83.6C265.6 267.3 246 256 224 256zM64 432c-8.836 0-16-7.164-16-16V96c0-8.838 7.164-16 16-16h16v104c0 13.25 10.75 24 24 24h192c13.3 0 24-10.7 24-24V83.88l78.25 78.25c1.15 1.07 1.75 2.67 1.75 4.17V195c10.4-1.9 21.1-3 32-3 5.402 0 10.72.33 16 .807V163.9c0-12.68-5.077-24.94-14.04-33.9l-83.9-83.9C341.1 37.06 328.8 32 316.1 32H64C28.65 32 0 60.65 0 96v320c0 35.35 28.65 64 64 64h232.2c-11.78-14.26-21.2-30.48-28.05-48H64zm64-352h144v80H128V80z"/></svg>