<svg xmlns="http://www.w3.org/2000/svg" viewBox="0 0 576 512"><!--! Font Awesome Pro 6.1.1 by @fontawesome - https://fontawesome.com License - https://fontawesome.com/license (Commercial License) Copyright 2022 Fonticons, Inc.--><path d="M48 416V96c0-8.838 7.164-16 16-16h16v104c0 13.25 10.75 24 24 24h192c13.3 0 24-10.7 24-24V83.88l78.25 78.25c1.15 1.07 1.75 2.67 1.75 4.17v116.4l48-48v-70.8c0-12.68-5.076-24.94-14.04-33.9l-83.9-83.9C341.1 37.06 328.8 32 316.1 32H64C28.65 32 0 60.65 0 96v320c0 35.35 28.65 64 64 64h195.8l9.594-48H64c-8.84 0-16-7.2-16-16zm80-336h144v80H128V80zm179.4 340.6a17.993 17.993 0 0 0-4.924 9.203l-14.28 71.41c-1.258 6.289 4.293 11.84 10.59 10.59l71.42-14.29a17.995 17.995 0 0 0 9.195-4.922l125.3-125.3-72.01-72.01L307.4 420.6zM224 256c-35.2 0-64 28.8-64 64s28.8 64 64 64 64-28.8 64-64-28.8-64-64-64zm341.5-.3-21.1-21.11c-14.06-14.06-36.85-14.06-50.91 0l-38.13 38.13 72.01 72.01 38.13-38.13c14-14.1 14-36.9 0-50.9z"/></svg>