<svg xmlns="http://www.w3.org/2000/svg" viewBox="0 0 512 512"><!--! Font Awesome Pro 6.1.1 by @fontawesome - https://fontawesome.com License - https://fontawesome.com/license (Commercial License) Copyright 2022 Fonticons, Inc.--><path d="m497.9 97.94-83.88-83.88C405.1 5.061 392.9 0 380.1 0H160c-35.3 0-64 28.65-64 64v288c0 35.35 28.65 64 64 64h288c35.35 0 64-28.65 64-64V131.9c0-12.8-5.1-25-14.1-33.96zM224 48h112v48H224V48zm240 304c0 8.836-7.164 16-16 16H160c-8.836 0-16-7.164-16-16V64c0-8.838 7.164-16 16-16h16v72c0 13.25 10.75 24 24 24h160c13.3 0 24-10.7 24-24V51.88l78.23 78.23c1.17 1.09 1.77 2.69 1.77 4.29V352zM304 192c-35.2 0-64 28.8-64 64s28.8 64 64 64 64-28.8 64-64-28.8-64-64-64zm88 320H120C53.83 512 0 458.2 0 392V120c0-13.2 10.75-24 24-24s24 10.8 24 24v272c0 39.7 32.3 72 72 72h272c13.25 0 24 10.75 24 24s-10.7 24-24 24z"/></svg>