<svg xmlns="http://www.w3.org/2000/svg" viewBox="0 0 576 512"><!--! Font Awesome Pro 6.1.1 by @fontawesome - https://fontawesome.com License - https://fontawesome.com/license (Commercial License) Copyright 2022 Fonticons, Inc.--><path d="M224 256c-35.2 0-64 28.8-64 64s28.8 64 64 64c11.83 0 22.81-3.473 32.35-9.133-.05-2.267-.35-4.567-.35-6.867 0-30.26 7.65-58.73 21.1-83.6C265.6 267.3 246 256 224 256zM64 432c-8.836 0-16-7.164-16-16V96c0-8.838 7.164-16 16-16h16v104c0 13.25 10.75 24 24 24h192c13.3 0 24-10.7 24-24V83.88l78.25 78.25c1.15 1.07 1.75 2.67 1.75 4.17V195c10.4-1.9 21.1-3 32-3 5.402 0 10.72.33 16 .807V163.9c0-12.68-5.076-24.94-14.04-33.9l-83.9-83.9C341.1 37.06 328.8 32 316.1 32H64C28.65 32 0 60.65 0 96v320c0 35.35 28.65 64 64 64h232.2c-11.78-14.26-21.2-30.48-28.05-48H64zm64-352h144v80H128V80zm304 144c-79.54 0-144 64.46-144 144s64.46 144 144 144 143.1-64.46 143.1-144S511.5 224 432 224zm75.3 155.3-56 56c-3.1 3.1-7.2 4.7-12.2 4.7s-8.187-1.562-11.31-4.688c-6.25-6.25-6.25-16.38 0-22.62L457.4 384h-89.38c-8.836 0-15.1-7.164-15.1-16s7.163-16 15.1-16h89.38l-28.69-28.69c-6.25-6.25-6.25-16.38 0-22.62s16.38-6.25 22.62 0l56 56c6.27 6.21 6.27 16.41-.03 22.61z"/></svg>