<svg xmlns="http://www.w3.org/2000/svg" viewBox="0 0 384 512"><!--! Font Awesome Pro 6.1.1 by @fontawesome - https://fontawesome.com License - https://fontawesome.com/license (Commercial License) Copyright 2022 Fonticons, Inc.--><path d="M360 32c13.3 0 24 10.75 24 24s-10.7 24-24 24h-44.7c-17.2 0-31 9.96-37.1 25.1L230.6 224H328c13.3 0 24 10.7 24 24s-10.7 24-24 24H211.4l-61 152.7C137 458.1 104.7 480 68.67 480H24c-13.25 0-24-10.7-24-24s10.75-24 24-24h44.67c16.36 0 31.06-10 37.13-25.1l54-134.9H56c-13.25 0-24-10.7-24-24s10.75-24 24-24h122.1l55.5-136.68C246.1 53.91 279.3 32 315.3 32H360z"/></svg>