<svg xmlns="http://www.w3.org/2000/svg" viewBox="0 0 512 512"><!--! Font Awesome Pro 6.1.1 by @fontawesome - https://fontawesome.com License - https://fontawesome.com/license (Commercial License) Copyright 2022 Fonticons, Inc.--><path d="M495.9 288h-47.26c-67.51 0-127.5 30-168.7 77v-82c37.38 12.88 78.76 0 102.3-31.88 23.56-31.92 23.66-75.22.26-107.12 11.38-15.5 17.5-34.12 17.5-53.38C400 40.62 359.4 0 309.4 0c-19.3 0-37.9 6.125-53.4 17.5C240.5 6.125 221.9 0 202.6 0c-50 0-91.5 40.62-91.5 90.62 0 19.25 6.126 37.88 17.5 53.38-10.5 15.5-17.5 34.1-17.5 53.4 0 29.25 14 56.75 37.88 73.75S204.4 292.6 231.1 283v82c-40.2-47-100.2-77-167.75-77H16.09C6.962 288-.914 296.9.086 307.7 9.962 422.1 106.4 512 223.9 512h64.26c117.5 0 213.9-89.88 223.8-204.4C512.9 297 505 288 495.9 288zm-272 176C144.39 464 75.1 409.87 54 336c75.26 0 128.6 32.25 160.9 85.88L240.1 464h-16.2zm12.8-241.4c-9.8 13.5-27.6 19.9-43.1 16.4-16.4-3.5-29.1-16.2-33.5-32.6-2.6-16.4 3.8-33.3 17.3-43.2l25.8-19.2-25.8-19.2c-10.88-8-17.38-20.63-17.38-34.13C159.1 67.12 179.1 48 202.6 48c13.5 0 26.13 6.5 34.13 17.38L256 91.25l19.25-25.87C283.1 54.5 295.9 48 309.4 48c23.5 0 42.63 19.12 42.63 42.62 0 13.5-6.501 26.13-17.38 34.13L308.8 144l25.88 19.25c10.88 8 17.38 20.63 17.38 34.13 0 23.5-19.13 42.62-42.63 42.62-13.5 0-26.13-6.5-34.13-17.38L256 196.8l-19.3 25.8zM288 464h-16.13l25.25-42.13C329.3 368.5 382.5 336 458.2 336c-21.3 73.9-90.4 128-170.2 128zm0-320c0-17.62-14.38-32-32-32s-32 14.38-32 32 14.4 32 32 32 32-14.4 32-32z"/></svg>