<svg xmlns="http://www.w3.org/2000/svg" viewBox="0 0 640 512"><!--! Font Awesome Pro 6.1.1 by @fontawesome - https://fontawesome.com License - https://fontawesome.com/license (Commercial License) Copyright 2022 Fonticons, Inc.--><path d="M320 232c-13.2 0-24 10.8-24 24s10.8 24 24 24 24-10.7 24-24-10.7-24-24-24zm256-72H64c-35.35 0-64 28.7-64 64v64c0 35.35 28.65 64 64 64h512c35.35 0 64-28.65 64-64v-64c0-35.3-28.7-64-64-64zM96 304H64c-8.84 0-16-7.2-16-16v-64c0-8.838 7.164-16 16-16h32v96zm496-16c0 8.836-7.164 16-16 16H144v-96h432c8.836 0 16 7.162 16 16v64zm-80-56c-13.25 0-24 10.75-24 24s10.8 24 24 24 24-10.7 24-24-10.7-24-24-24zm-96 0c-13.25 0-24 10.75-24 24s10.8 24 24 24 24-10.7 24-24-10.7-24-24-24z"/></svg>