<svg xmlns="http://www.w3.org/2000/svg" viewBox="0 0 448 512"><!--! Font Awesome Pro 6.1.1 by @fontawesome - https://fontawesome.com License - https://fontawesome.com/license (Commercial License) Copyright 2022 Fonticons, Inc.--><path d="m283.3 253.3 49-49c15.6-15.6 15.6-41 0-56.6-15.6-15.6-41-15.6-56.6 0L224 199.4l-51.7-51.7c-15.6-15.6-41-15.6-56.6 0-15.6 15.6-15.6 41 0 56.6l49 49c-6.6 1.8-13.5 2.7-20.7 2.7-44.18 0-80-35.8-80-80s35.82-80 80-80c44.2 0 80 35.8 80 80 0-44.2 35.8-80 80-80s80 35.8 80 80-35.8 80-80 80c-7.2 0-14.1-.9-20.7-2.7zm-102.9 15.6 3.6 3.7V336c0 22.1 17.9 40 40 40s40-17.9 40-40v-63.4l3.6-3.7c21.9 14.3 36.4 39 36.4 67.1 0 44.2-35.8 80-80 80s-80-35.8-80-80c0-28.1 14.5-52.8 36.4-67.1zm43.6-35.5 68.7-68.7c6.2-6.3 16.4-6.3 22.6 0 6.3 6.2 6.3 16.4 0 22.6L240 262.6V336c0 8.8-7.2 16-16 16s-16-7.2-16-16v-73.4l-75.3-75.3c-6.3-6.2-6.3-16.4 0-22.6 6.2-6.3 16.4-6.3 22.6 0l68.7 68.7zM384 32c35.3 0 64 28.65 64 64v320c0 35.3-28.7 64-64 64H64c-35.35 0-64-28.7-64-64V96c0-35.35 28.65-64 64-64h320zm0 48H64c-8.84 0-16 7.16-16 16v320c0 8.8 7.16 16 16 16h320c8.8 0 16-7.2 16-16V96c0-8.84-7.2-16-16-16z"/></svg>