<svg xmlns="http://www.w3.org/2000/svg" viewBox="0 0 448 512"><!--! Font Awesome Pro 6.1.1 by @fontawesome - https://fontawesome.com License - https://fontawesome.com/license (Commercial License) Copyright 2022 Fonticons, Inc.--><path d="M447.1 131.1c0-39.05-21.6-99.1-98.1-99.1-57.26 0-133.3 38.62-203.3 101.9-15.97 14.21-31.13 28.83-49.86 50.78C41.42 246.8 0 319.7 0 380.9 0 419.1 22.51 480 98.97 480 233.5 480 447.1 270.6 447.1 131.1zM74.73 323.6c0-69.64 148.5-217.1 217.1-217.1 13.06 0 24.23 6.177 24.23 24.23 0 69.63-148.4 217.1-217.1 217.1-12.89-.03-24.23-6.03-24.23-24.23zM400 130.1c0 110.8-191 301-301 301-37.63 0-50.83-23.82-50.83-50.96 0-1.467.036-2.958.108-4.472 9.44 9.031 25.53 19.27 50.71 19.27 92.85 0 265.7-165.6 265.7-266.9 0-18.25-5.483-34.88-18.17-48.65.782.832 1.682.612 2.482.612 27.1 0 51 13.42 51 50.1z"/></svg>