<svg xmlns="http://www.w3.org/2000/svg" viewBox="0 0 512 512"><!--! Font Awesome Pro 6.1.1 by @fontawesome - https://fontawesome.com License - https://fontawesome.com/license (Commercial License) Copyright 2022 Fonticons, Inc.--><path d="M448 96H275.9l-49.2-45.25C214.7 38.74 198.5 32 181.5 32H64C28.65 32 0 60.66 0 96v320c0 35.34 28.65 64 64 64h384c35.35 0 64-28.66 64-64V160c0-35.3-28.7-64-64-64zm16 320c0 8.824-7.178 16-16 16H64c-8.822 0-16-7.176-16-16V96c0-8.824 7.178-16 16-16h117.5c4.273 0 8.293 1.664 11.31 4.688L256 144h192c8.822 0 16 7.176 16 16v256zM336 256h-48v-48c0-8.8-7.2-16-16-16h-32c-8.8 0-16 7.2-16 16v48h-48c-8.8 0-16 7.2-16 15.1V304c0 8.797 7.199 15.1 16 15.1h48v47.1c0 10.6 7.2 17.8 16 17.8h32c8.801 0 16-7.201 16-16v-48.9l48-.001c8.801 0 16-7.201 16-15.1V271.1c0-7.9-7.2-15.1-16-15.1z"/></svg>