<svg xmlns="http://www.w3.org/2000/svg" viewBox="0 0 512 512"><!--! Font Awesome Pro 6.1.1 by @fontawesome - https://fontawesome.com License - https://fontawesome.com/license (Commercial License) Copyright 2022 Fonticons, Inc.--><path d="M448 96H275.9l-49.2-45.25C214.7 38.74 198.5 32 181.5 32H64C28.65 32 0 60.66 0 96v320c0 35.34 28.65 64 64 64h384c35.35 0 64-28.66 64-64V160c0-35.3-28.7-64-64-64zm16 320c0 8.824-7.178 16-16 16H64c-8.822 0-16-7.176-16-16V96c0-8.824 7.178-16 16-16h117.5c4.273 0 8.293 1.664 11.31 4.688L256 144h192c8.822 0 16 7.176 16 16v256zM127.1 240c17.67 0 32-14.33 32-32s-14.33-32-32-32-32 14.33-32 32 15.2 32 32 32zm179.5-24.9c-2.9-4.4-7.9-7.1-13.3-7.1s-10.35 2.672-13.31 7.125l-62.74 94.11L194.9 278.6c-3-4.2-7.8-6.6-13.8-6.6a16.002 16.002 0 0 0-12.93 6.574l-70 96a15.997 15.997 0 0 0-1.334 16.68C100.5 396.6 105.1 400 112 400h288c5.9 0 11.32-3.246 14.11-8.449a16.01 16.01 0 0 0-.795-16.43L306.6 215.1z"/></svg>