<svg xmlns="http://www.w3.org/2000/svg" viewBox="0 0 576 512"><!--! Font Awesome Pro 6.1.1 by @fontawesome - https://fontawesome.com License - https://fontawesome.com/license (Commercial License) Copyright 2022 Fonticons, Inc.--><path d="M544 320h-96l-44.16-27.23C398.8 289.6 392.1 288 387 288h-67c-17.67 0-32 14.33-32 32v160c0 17.67 14.33 32 32 32h224c17.67 0 32-14.33 32-32V352c0-17.7-14.3-32-32-32zm-16 144H336V336h46.5l40.3 24.86c7.6 4.64 16.3 7.14 25.2 7.14h80v96zM232 160c13.3 0 24-10.7 24-24s-10.7-24-24-24H48V24C48 10.74 37.25 0 24 0S0 10.74 0 24v368c0 30.9 25.07 56 56 56h176c13.3 0 24-10.7 24-24 0-13.26-10.75-24-24-24H56c-4.4 0-8-3.602-8-8V160h184zM544 32h-96L403.84 4.77C398.8 1.648 392.1 0 387 0h-67c-17.67 0-32 14.33-32 32v160c0 17.67 14.33 32 32 32h224c17.67 0 32-14.33 32-32V64c0-17.67-14.3-32-32-32zm-16 144H336V48h46.5l40.3 24.86C430.4 77.53 439.1 80 448 80h80v96z"/></svg>