<svg xmlns="http://www.w3.org/2000/svg" viewBox="0 0 640 512"><!--! Font Awesome Pro 6.1.1 by @fontawesome - https://fontawesome.com License - https://fontawesome.com/license (Commercial License) Copyright 2022 Fonticons, Inc.--><path d="M544 96H403.9l-49.14-45.25C342.7 38.74 326.5 32 309.5 32H192c-35.3 0-64 28.66-64 64v224c0 35.34 28.65 64 64 64h352c35.35 0 64-28.66 64-64V160c0-35.3-28.7-64-64-64zm16 224c0 8.824-7.178 16-16 16H192c-8.822 0-16-7.176-16-16V96c0-8.824 7.178-16 16-16h117.5c4.273 0 8.293 1.664 11.31 4.688L384 144h160c8.822 0 16 7.176 16 16v160zm-72 160H152c-66.17 0-120-53.8-120-120V120c0-13.2 10.75-24 24-24s24 10.8 24 24v240c0 39.7 32.3 72 72 72h336c13.25 0 24 10.75 24 24s-10.7 24-24 24z"/></svg>