<svg xmlns="http://www.w3.org/2000/svg" viewBox="0 0 512 512"><!--! Font Awesome Pro 6.1.1 by @fontawesome - https://fontawesome.com License - https://fontawesome.com/license (Commercial License) Copyright 2022 Fonticons, Inc.--><path d="M448 96H275.9l-49.2-45.25C214.7 38.74 198.5 32 181.5 32H64C28.65 32 0 60.66 0 96v320c0 35.34 28.65 64 64 64h384c35.35 0 64-28.66 64-64V160c0-35.3-28.7-64-64-64zm16 320c0 8.824-7.178 16-16 16H64c-8.822 0-16-7.176-16-16V96c0-8.824 7.178-16 16-16h117.5c4.273 0 8.293 1.664 11.31 4.688L256 144h192c8.822 0 16 7.176 16 16v256zM331.3 176.8l-128 47.2c-6.8 2.1-11.3 8.3-11.3 15.3V354c-5.2-1.2-10.6-2-16-2-26.5 0-48 14.4-48 32s21.5 32 48 32 48-14.4 48-32V283.1l96-37.5v76.38c-5.2-1.18-10.6-1.98-16-1.98-26.5 0-48 14.38-48 32s21.5 32 48 32 48-14.38 48-32V192c0-5.125-2.375-9.875-6.5-12.88s-9.5-3.82-14.2-2.32z"/></svg>