<svg xmlns="http://www.w3.org/2000/svg" viewBox="0 0 512 512"><!--! Font Awesome Pro 6.1.1 by @fontawesome - https://fontawesome.com License - https://fontawesome.com/license (Commercial License) Copyright 2022 Fonticons, Inc.--><path d="M448 96H275.9l-49.2-45.25C214.7 38.74 198.5 32 181.5 32H64C28.65 32 0 60.66 0 96v320c0 35.34 28.65 64 64 64h384c35.35 0 64-28.66 64-64V160c0-35.3-28.7-64-64-64zm16 320c0 8.824-7.178 16-16 16H64c-8.822 0-16-7.176-16-16V96c0-8.824 7.178-16 16-16h117.5c4.273 0 8.293 1.664 11.31 4.688L256 144h192c8.822 0 16 7.176 16 16v256zM338.5 303.3c.9-5 1.5-10.1 1.5-15.3s-.625-10.31-1.541-15.28L358.8 261c2.811-1.625 4.207-4.984 3.229-8.082C359.7 245.8 356.9 238.8 352.1 232s-8.562-12.73-13.62-18.25c-2.193-2.398-5.805-2.875-8.615-1.246l-20.52 11.85C302.5 217.8 293.7 212.6 284 209.1v-23.6c0-3.246-2.215-6.137-5.387-6.836C271.3 177 263.8 176 256 176s-15.3 1-22.6 2.7c-3.2.7-5.4 3.6-5.4 6.8v23.64c-9.7 3.46-18.5 8.66-26.2 15.26l-20.6-11.9c-2.8-1.6-6.4-1.1-8.6 1.3-5 5.5-9.7 11.4-13.6 18.2-3.898 6.754-6.744 13.78-8.998 20.91C149 256 150.4 259.4 153.2 261l20.3 11.72c-.9 4.98-1.5 10.08-1.5 15.28s.623 10.31 1.539 15.28L153.2 315c-2.812 1.621-4.207 4.984-3.23 8.082C152.3 330.2 155.1 337.2 159 344c3.9 6.754 8.562 12.73 13.62 18.25 2.195 2.398 5.805 2.875 8.617 1.246l20.52-11.85C209.5 358.2 218.3 363.4 228 366.9v23.64c0 3.242 2.215 6.137 5.387 6.836C240.7 398.1 248.2 400 256 400s15.3-1.047 22.61-2.664c3.172-.7 5.387-3.594 5.387-6.836v-23.64c9.734-3.465 18.54-8.637 26.24-15.21l20.52 11.85c2.811 1.629 6.422 1.152 8.615-1.246 5.055-5.52 9.716-11.5 13.62-18.25s6.745-13.78 8.999-20.92c.977-3.098-.42-6.461-3.23-8.082L338.5 303.3zM256 323c-19.33 0-35-15.67-35-35s15.7-35 35-35c19.33 0 35 15.67 35 35s-15.7 35-35 35z"/></svg>