<svg xmlns="http://www.w3.org/2000/svg" viewBox="0 0 512 512"><!--! Font Awesome Pro 6.1.1 by @fontawesome - https://fontawesome.com License - https://fontawesome.com/license (Commercial License) Copyright 2022 Fonticons, Inc.--><path d="M488 223.1H344.8l40.84-64.18c.418.016.832.176 1.25.176 10.56 0 20.94-5.234 27.03-14.81l61.09-96c9.5-14.92 5.094-34.7-9.812-44.19C450.3-4.475 430.5-.084 421 14.81l-61.09 96c-6.299 9.893-5.984 21.72-1.051 31.46l-52.01 81.72H252.2l17.82-65.34c10.62-2.859 19.55-10.86 22.65-22.24l26.19-96c4.656-17.05-5.406-34.64-22.47-39.3-16.84-4.594-34.63 5.375-39.28 22.45l-26.19 96c-3.088 11.3.71 22.5 8.314 30.35L219.1 223.1H32c-17.69 0-32 14.33-32 32v64c0 52.06 25.38 97.95 64 127.2V488c0 13.3 10.75 24 24 24s24-10.75 24-24v-16.17c15.3 4.87 31.2 8.17 48 8.17h128c16.83 0 32.75-3.328 48-8.17V488c0 13.25 10.75 24 24 24s24-10.7 24-24v-40.82c38.62-29.24 64-75.12 64-127.2v-48h40c13.25 0 24-10.75 24-24s-10.7-24.88-24-24.88zm-88 96c0 61.86-50.14 112-112 112H160c-61.86 0-112-50.14-112-112v-48h32v55.1c0 11.61 7.843 22.25 19.24 24.44C114.6 354.5 128 342.8 128 327.1v-48c0-4.418 3.582-8 7.1-8h.9c4.418 0 8 3.582 7.1 8v16c0 11.6 8.7 22.2 20.1 24.4 15.4 3 28.8-8.7 28.8-24.4v-24h208v48z"/></svg>