<svg xmlns="http://www.w3.org/2000/svg" viewBox="0 0 640 512"><!--! Font Awesome Pro 6.1.1 by @fontawesome - https://fontawesome.com License - https://fontawesome.com/license (Commercial License) Copyright 2022 Fonticons, Inc.--><path d="M198.4 47.47c-7.094-18.62-37.78-18.62-44.88 0l-152 400c-4.703 12.41 1.516 26.25 13.91 30.97 12.44 4.75 26.28-1.531 30.97-13.91L83.12 368h185.8l36.68 96.53C309.2 474.1 318.3 480 328 480c2.844 0 5.719-.5 8.531-1.562 12.39-4.719 18.61-18.56 13.91-30.97L198.4 47.47zM101.4 320 176 123.6 250.6 320H101.4zM616 160c-13.25 0-24 10.75-24 24v4.889c-21.99-17.79-49.58-28.88-80-28.88-70.58 0-128 57.41-128 128v63.93c0 70.59 57.42 128.1 127.1 128.1 30.42 0 58.01-11.11 79.1-28.9V456c0 13.25 10.75 24 24 24s25.8-10.7 25.8-24V184c0-13.2-10.7-24-24-24zm-24 192c0 44.13-35.89 80-80 80s-80-35.88-80-80v-64c0-44.13 35.89-80 80-80s80 35.88 80 80v64z"/></svg>