<svg xmlns="http://www.w3.org/2000/svg" viewBox="0 0 512 512"><!--! Font Awesome Pro 6.1.1 by @fontawesome - https://fontawesome.com License - https://fontawesome.com/license (Commercial License) Copyright 2022 Fonticons, Inc.--><path d="M496 320H354.3l-14.2-75.98 137-17.82c8.523-1.188 14.67-9.027 13.83-17.39C459.4 61.7 332.5 16 256 16 123.5 16 16 123.5 16 256c0 56.09 19.41 107.5 51.68 148.4 5.941 7.52 15.3 11.58 24.89 11.58h27.39l85.75 45.04a65.114 65.114 0 0 0 29.28 6.946c16.96 0 33.74-6.633 46.34-19.23C317.6 412.5 292.3 366.8 286.4 352h41.36l9.875 52.66C347.5 457.6 393.8 496 447.7 496h48.31c8.844 0 16-7.156 16-16V336c-.01-8.8-7.21-16-16.01-16zm-222.4 0-10.34-25.79c-7.75-19.38 4.996-40.89 25.62-43.51l19.48-2.538L321.7 320h-48.1zm60.2-123.6-51 6.7c-24.71 3.145-46.13 17.28-58.79 38.78C212.8 260.9 209.1 283.1 215.9 304h-.4s27.88 69.69 28.94 72.11c10.74 24.62 9.504 32.07 2.936 38.64a17.405 17.405 0 0 1-12.39 5.139c-2.711 0-5.316-.62-6.988-1.451l-96.22-50.5H100.3C76.52 335.1 64 296.6 64 256c0-105.9 86.13-192 192-192 51.51 0 140.6 26.17 177.4 119.5l-99.6 12.9zM479.1 464h-32.31c-32.28 0-60.54-19.45-73.07-48h105.4v48zm0-80H365.4l-5.992-32h119.7v32zm-304-72.9c-13.25 0-24 10.75-24 24s10.75 24 24 24 24-10.75 24-24-9.9-24-24-24z"/></svg>