<svg xmlns="http://www.w3.org/2000/svg" viewBox="0 0 512 512"><!--! Font Awesome Pro 6.1.1 by @fontawesome - https://fontawesome.com License - https://fontawesome.com/license (Commercial License) Copyright 2022 Fonticons, Inc.--><path d="M496 174.8c0-45.12-7.712-83.76-14.15-108.2-4.688-17.54-18.34-31.23-36.04-35.95C435.5 27.91 392.9 16 337 16 149 16 15.1 154.6 15.1 337.2c0 45.12 7.713 83.77 14.15 108.2C35.22 464.3 50.46 496 174.9 496 362.1 496 496 357.4 496 174.8zM78.6 435.1c-2.242-.597-11.89-35.97-14.02-80.55l92.27 92.27c-26.05-1.32-52.15-4.72-78.25-11.72zm143.7 9.3L67.7 289.8c12.81-85.59 76.59-200.7 222-222.1l154.6 154.6c-12.8 85.5-76.6 199.8-222 222.1zM355.2 65.23c25.9 1.322 51.94 4.732 78.29 11.84 2.241.596 11.84 36.04 13.96 80.41L355.2 65.23zM235.3 212.7c-3.1-3.1-7.2-5.6-11.3-5.6-9.141 0-16 7.473-16 16 0 4.094 1.562 8.188 4.688 11.31l64.01 64.01a15.949 15.949 0 0 0 11.31 4.689c8.526 0 16-6.867 16-16 0-4.094-1.562-8.188-4.688-11.31L235.3 212.7zm-48 48c-3.1-3.1-7.2-5.6-11.3-5.6-9.142 0-16 7.472-16 16 0 4.094 1.562 8.188 4.688 11.31l64.01 64a15.949 15.949 0 0 0 11.31 4.689c8.526 0 16-6.867 16-16 0-4.094-1.562-8.188-4.688-11.31L187.3 260.7zM272 159.1c-9.141 0-16 7.473-16 16 0 4.094 1.562 8.188 4.688 11.31l64.01 64.01a15.951 15.951 0 0 0 11.31 4.688c8.545 0 16-6.882 16-16 0-4.094-1.562-8.188-4.688-11.31l-64.01-64.01C280.2 161.5 276.1 159.1 272 159.1z"/></svg>