<svg xmlns="http://www.w3.org/2000/svg" viewBox="0 0 576 512"><!--! Font Awesome Pro 6.1.1 by @fontawesome - https://fontawesome.com License - https://fontawesome.com/license (Commercial License) Copyright 2022 Fonticons, Inc.--><path d="M504.1 471c5.1 4.6 7.4 10.6 7.3 16.8-.1 6.2-2.6 11.3-7 16.6-5.3 4.4-10.4 6.9-16.6 7-6.2.1-12.2-2.2-16.8-7.3L310.6 344.6l16.8-16.8c15.9 10.5 34.2 17 53.2 18.9L504.1 471zM158.4 327.1 54.11 222.8c-26.1-26.1-43.79-59.5-50.769-95.7A184.785 184.785 0 0 1 14.94 19.39c2.06-4.8 5.27-9.03 9.34-12.307a31.994 31.994 0 0 1 29.45-5.669c5 1.533 9.55 4.266 13.25 7.963L229.4 171.8c-.3 3.6-1 7-1 10.6 0 23.6 6.9 46.7 20 66.4l-5 4.9-192.01-192c-5.22 22.55-4.59 46.1 1.83 68.3 6.42 22.3 18.41 42.5 34.84 58.8L192.4 293.2c2 2 4.5 3.4 7.2 4l-35 35c-2.1-1.6-4.2-3.3-6.2-5.1zm415.8-176.5c1.2 2.9.9 6 .9 9.1 0 3.2.3 6.3-.9 9.2-2.1 2.9-3 5.6-6.1 7.8L455.8 289.9c-16.5 16.4-38.9 25.7-62.2 25.7-23.4 0-45.7-9.3-62.3-25.7l-5.6-5.7-220.8 219.9c-2.2 3.3-4.9 5.1-7.8 6.5-2.94 1.3-6.12 2-9.34 2-3.22.1-6.42-.5-9.41-1.7s-5.71-3-7.98-5.3c-2.28-2.3-4.08-5-5.29-8-1.2-3-1.8-6.2-1.74-9.4.06-4.1.76-6.4 2.07-9.3 1.32-3 3.21-5.6 5.57-7.8L291.8 250.3l-5.7-5.7c-16.5-16.5-25.7-38.9-25.7-62.2 0-23.3 9.2-45.7 25.7-62.2L399.3 7.04c4.5-4.239 10.6-6.547 16.8-6.437 6.2.11 12.1 2.628 16.5 7.025 4.4 4.402 6.9 10.332 7.1 16.552.1 6.21-2.2 12.23-6.5 16.78l-84.8 84.84 33.9 34 82.8-83.74c3.1-2.23 5.8-3.99 8.7-5.2 2.9-1.21 6-1.83 8.3-1.83 4 0 7.1.62 10 1.83 3 1.21 5.6 2.97 7.8 5.2 2.3 2.23 4 4.88 5.2 7.79 1.2 2.92 1 6.04 1 9.19 0 3.15.2 6.27-1 9.16-1.2 2.9-2.9 5.6-5.2 7.8l-83.7 83.7 34 33.9 84.8-84.8c2.3-2.2 4.9-4 7.8-5.2 2.9-1.2 6-1.8 9.2-1.8 3.1 0 6.3.6 9.2 1.8 2.9 1.2 5.5 3 6.9 5.2 3.1 2.2 4 4.9 6.1 7.8zM389.4 267.1c9 .8 18.1-1.5 25.6-6.7l-99.5-99.5c-5.1 7.5-7.5 16.6-6.6 25.7.8 9.1 4.7 17.6 10.2 24.1l46.2 45.3c6.5 6.4 15 10.3 24.1 11.1z"/></svg>