<svg xmlns="http://www.w3.org/2000/svg" viewBox="0 0 512 512"><!--! Font Awesome Pro 6.1.1 by @fontawesome - https://fontawesome.com License - https://fontawesome.com/license (Commercial License) Copyright 2022 Fonticons, Inc.--><path d="M256 96.03v319.9c0 19.27 15.7 32.07 32.2 32.07 7 0 14.15-2.307 20.29-7.406l192-159.1c15.25-12.87 15.25-36.37 0-49.24l-192-159.1C302.4 66.3 295.2 64 288.2 64 271.7 64 256 76.81 256 96.03zm48 34.07L455.1 256 304 381.9V130.1zM0 96.03v319.9A32.02 32.02 0 0 0 16.62 444c4.781 2.625 10.2 3.945 15.49 3.945 5.969 0 11.86-1.68 17.08-5.023l163.7-104.2c11.19-7.109 14.5-21.95 7.375-33.14C213.2 294.5 198.3 291.2 187.1 298.3L48 386.8V125.2l139.1 88.52c11.19 7.125 26.03 3.828 33.13-7.359 7.125-11.19 3.812-26.03-7.375-33.14L49.16 69.02c-9.85-6.24-22.28-6.69-32.53-1.07S0 84.34 0 96.03z"/></svg>