<svg xmlns="http://www.w3.org/2000/svg" viewBox="0 0 512 512"><!--! Font Awesome Pro 6.1.1 by @fontawesome - https://fontawesome.com License - https://fontawesome.com/license (Commercial License) Copyright 2022 Fonticons, Inc.--><path d="M0 96.03v319.9C0 435.2 15.71 448 32.21 448c7.002 0 14.14-2.307 20.29-7.406L224 285.2v130.7c0 19.3 15.7 32.1 32.2 32.1 7.002 0 14.14-2.307 20.29-7.406L448 285.2v138.7c0 13.26 10.74 24 24 24 13.25 0 24-10.74 24-24V88.03c0-13.25-10.74-23.1-23.1-23.1-13.26 0-24 10.75-24 24v139.8L277.4 72.23c-7-5.92-14.2-8.23-21.2-8.23-16.5 0-32.2 12.81-32.2 32.03v131.9L52.5 71.41C46.36 66.31 39.21 64 32.21 64 15.71 64 0 76.81 0 96.03zm272 36.27 136.2 124.3L272 379.9V132.3zm-224 0 136.2 124.3L48 379.9V132.3z"/></svg>