<svg xmlns="http://www.w3.org/2000/svg" viewBox="0 0 320 512"><!--! Font Awesome Pro 6.1.1 by @fontawesome - https://fontawesome.com License - https://fontawesome.com/license (Commercial License) Copyright 2022 Fonticons, Inc.--><path d="M296 32c13.3 0 24 10.75 24 24s-10.7 24-24 24H96v112h168c13.3 0 24 10.7 24 24s-10.7 24-24 24H96v80h104c13.3 0 24 10.7 24 24s-10.7 24-24 24H96v88c0 13.3-10.75 24-24 24s-24-10.7-24-24v-88H24c-13.25 0-24-10.7-24-24s10.75-24 24-24h24V56c0-13.25 10.75-24 24-24h224z"/></svg>