<svg xmlns="http://www.w3.org/2000/svg" viewBox="0 0 448 512"><!--! Font Awesome Pro 6.1.1 by @fontawesome - https://fontawesome.com License - https://fontawesome.com/license (Commercial License) Copyright 2022 Fonticons, Inc.--><path d="M222.1 480C89.9 480 0 373.3 0 256.7 0 132.3 100.4 32 223.1 32c96.07 0 165.4 62.38 165.4 82.79 0 18.86-17.21 24.04-24.01 24.04-24.5 0-48.42-58.82-141.4-58.82-96.33 0-175.1 78.13-175.1 176.6 0 37.36 28.91 175.6 175 175.6 53.38 0 161.5-34.97 175.5-151.4h-150.6C234.7 280.9 224 270.1 224 256.8s10.75-24.03 23.1-24.03h175.1c13.25 0 23.1 10.76 23.1 24.03 1.8 142.3-115.1 222.3-223.2 223.2z"/></svg>