<svg xmlns="http://www.w3.org/2000/svg" viewBox="0 0 512 512"><!--! Font Awesome Pro 6.1.1 by @fontawesome - https://fontawesome.com License - https://fontawesome.com/license (Commercial License) Copyright 2022 Fonticons, Inc.--><path d="M506.5 266.9c-17.25-73.12-78.37-132.1-151.9-146.8-20-4.125-40.63-5.125-60.87-3 11.5-20.5 29.25-36.5 50.75-45.88 15.62-6.375 24.62-22.63 21.88-39.26-2.375-16.62-15.88-29.5-32.62-31-22.38-2.25-45-.62-66.88 4.505-73.13 17.38-132.1 78.38-146.8 151.9-4.125 20.12-5 40.62-2.875 60.87-20.5-11.37-36.62-29.25-46-50.75-6.5-15.5-22.75-24.51-39.25-21.88-16.62 2.375-29.5 15.88-31 32.63-2.25 22.38-.625 45 4.625 66.88 17.25 73.12 78.25 132.1 151.8 146.9 20 4 40.5 5 60.87 2.875-11.5 20.5-29.25 36.5-50.75 45.88-15.5 6.5-24.38 22.74-21.88 39.24 2.5 16.62 15.88 29.38 32.63 31 6.5.625 13.13 1.005 19.75 1.005 15.88 0 31.62-1.875 47.12-5.5 73.13-17.38 132.1-78.38 146.8-151.9 4.125-20.12 5-40.63 2.875-60.87 20.5 11.37 36.62 29.25 46 50.75 6.5 15.38 22.75 24.37 39.25 21.87 16.62-2.5 29.25-15.87 31-32.49C513.2 311.4 511.7 288.7 506.5 266.9zm-141.4-33c-8.375-1.25-16.62 2-22 8.375-5.375 6.5-7 15.25-4.25 23.13 8.75 25.75 10.62 53.25 5.125 79.75-11.38 56.75-58.25 106-121 116.6 29.25-24.25 48.5-58.25 54.25-95.75 1.25-8.25-2-16.62-8.375-22-6.5-5.375-15.25-7-23.13-4.25-25.75 8.75-53.25 10.5-79.75 5.125-57-11.38-106.3-58.75-116.6-120.9 24.25 29.12 58.25 48.38 95.75 54.13 8.375 1.25 16.62-2 22-8.375 5.375-6.5 7-15.25 4.25-23.13-8.75-25.62-10.62-53.25-5.125-79.75 11.38-56.75 58.25-106 121-116.6-29.25 24.25-48.5 58.25-54.25 95.75-1.25 8.375 2 16.62 8.375 22 6.5 5.375 15.25 7 23.13 4.25 25.62-8.75 53.25-10.62 79.75-5.125 56.88 11.38 106.2 58.63 116.6 121-23.35-29.23-57.35-48.53-95.75-54.23zm-110-18.8c-22.12 0-40 17.88-40 40 0 22.13 17.88 40 40 40s40-17.88 40-40c0-21.2-17-40-40-40z"/></svg>