<svg xmlns="http://www.w3.org/2000/svg" viewBox="0 0 640 512"><!--! Font Awesome Pro 6.1.1 by @fontawesome - https://fontawesome.com License - https://fontawesome.com/license (Commercial License) Copyright 2022 Fonticons, Inc.--><path d="M400 272c-17.62 0-32 14.38-32 32s14.38 32 32 32 32-14.38 32-32-14.4-32-32-32zm-152.9-40h-32v-32c0-13.2-10.78-24-23.98-24-13.2 0-24.02 10.8-24.02 24v32l-31.1-.9c-13.2 0-24.9 11.7-24.9 24.9s10.85 23.99 24.05 23.99l31.95.01v32c0 13.2 10.82 24 24.02 24s23.98-10.8 23.98-24v-32h32c13.2 0 24.02-10.8 24.02-24-.02-13.2-9.92-24-24.02-24zM464 176c-17.62 0-32 14.38-32 32s14.38 32 32 32 32-14.38 32-32-14.4-32-32-32zM448 64H192C85.96 64 0 149.1 0 256s85.96 192 192 192h256c106 0 192-85.96 192-192S554 64 448 64zm0 336H192c-79.4 0-144-64.6-144-144s64.6-144 144-144h256c79.4 0 144 64.6 144 144s-64.6 144-144 144z"/></svg>