<svg xmlns="http://www.w3.org/2000/svg" viewBox="0 0 640 512"><!--! Font Awesome Pro 6.1.1 by @fontawesome - https://fontawesome.com License - https://fontawesome.com/license (Commercial License) Copyright 2022 Fonticons, Inc.--><path d="M639.1 357.2c0-6.198-.463-12.49-1.421-18.83l-27.5-181.3C603.5 107.4 581.8 32 319.1 32 57.05 32 36.44 106.9 28.83 157.1L1.46 338.4C.473 344.8 0 351.1 0 357.4 0 423.9 53.35 480 121.2 480c46.12-.125 88.37-26.5 108.6-68l13.8-28h152.7l13.75 28c20.25 41.5 62.25 67.88 108.4 68 68.05 0 120.65-56.2 120.65-122.8zm-48 0c0 17.99-6.413 35.55-18.26 49.46-13.66 16.14-33.73 25.38-54.82 25.38l-.425-.001c-27.75 0-52.75-15.75-65.25-41.13l-18.32-37.05C429.5 342.9 418.4 336 406.2 336H233.7a32.015 32.015 0 0 0-28.69 17.82l-18.32 37.05c-4.671 9.482-23.54 41.13-65.92 41.13-21.09 0-41.04-9.357-54.58-25.38-11.85-13.91-18.26-31.47-18.26-49.46 0-3.839.292-7.697.885-11.54l27.5-181.3C81.2 132.5 104.1 107.5 134.8 100.6 195.8 86.88 257.9 80 319.1 80s124.2 6.875 185.1 20.62c30.75 6.875 53.62 31.88 58.5 63.75l27.5 181.3c1.5 3.83.9 7.63.9 11.53zM399.1 240c-17.62 0-31.1 14.38-31.1 32s14.37 32 31.1 32 31.1-14.38 31.1-32-12.6-32-31.1-32zm-152-40-31.96-.011L215.1 168c0-13.2-10.78-24-23.98-24-12.32 0-24.02 10.8-24.02 24l.037 31.99-32.037.01c-13.2 0-23.98 10.8-23.98 24s10.77 24 23.98 24l32.04-.01-.04 32.01c0 13.2 10.82 24 24.02 24s23.98-10.8 23.98-24l.037-32.01 31.963.01c13.2 0 24.02-10.8 24.02-24-.02-13.2-9.92-24-24.02-24zm216-56c-17.62 0-31.1 14.38-31.1 32s14.37 32 31.1 32c17.62 0 31.1-14.38 31.1-32s-12.6-32-31.1-32z"/></svg>