<svg xmlns="http://www.w3.org/2000/svg" viewBox="0 0 384 512"><!--! Font Awesome Pro 6.1.1 by @fontawesome - https://fontawesome.com License - https://fontawesome.com/license (Commercial License) Copyright 2022 Fonticons, Inc.--><path d="M320 0H64C28.8 0 0 28.8 0 64v352c0 52.8 43.2 96 96 96h192c53.02 0 96-42.98 96-96V63.1C384 28.8 355.2 0 320 0zm16 416c0 26.51-21.49 48-48 48H96c-26.51 0-48-21.49-48-48V64c0-8.8 7.2-16 16-16h256c8.8 0 16 7.2 16 16v352zM128 240h127.1c18.5 0 32.9-14.4 32.9-32v-96c0-8.8-7.2-16-16-16H112c-8.8 0-16.9 7.2-16 16v96c0 17.7 14.3 32 32 32zm32 80h-16v-16c0-8.8-7.2-16-16-16s-16 7.2-16 16v16H96c-8.8 0-16 7.2-16 16 0 8.799 7.199 16 16 16h16v16c0 8.8 7.2 16 16 16s16-7.201 16-16v-16h16c8.801 0 16-7.201 16-16 0-8.8-7.2-16-16-16zm72 16c-13.25 0-24 10.75-24 24s10.75 24 24 24 24-10.75 24-24-10.7-24-24-24zm48-48c-13.2 0-24 10.8-24 24s10.75 24 24 24 24-10.75 24-24-10.7-24-24-24z"/></svg>