<svg xmlns="http://www.w3.org/2000/svg" viewBox="0 0 640 512"><!--! Font Awesome Pro 6.1.1 by @fontawesome - https://fontawesome.com License - https://fontawesome.com/license (Commercial License) Copyright 2022 Fonticons, Inc.--><path d="M323 51.12c-1.9-.78-4.1-.78-6.9 0L62.98 154.1C53.93 157.8 48 166.6 48 176.3V488c0 13.3-10.75 24-24 24S0 501.3 0 488V176.3c0-29.3 17.78-55.7 44.95-66.7L298.1 6.634c14.4-5.47 29.4-5.47 42.9 0L595 109.6c27.2 11 45 37.4 45 66.7V488c0 13.3-10.7 24-24 24s-24-10.7-24-24V176.3c0-9.7-5.9-18.5-15-22.2L323 51.12zM143.1 240v248c0 13.3-9.8 24-24 24-12.4 0-24-10.7-24-24V232c0-22.1 18.8-40 40-40H504c22.1 0 40 17.9 40 40v256c0 13.3-10.7 24-24 24s-24-10.7-24-24V240H143.1zm69.1 122.1 13.4-48.7c6.5-25.3 28.7-41.4 54-41.4h80.3c25 0 46.9 16.6 53.8 40.6l14.5 50.6c15.9 11.5 27.8 30.9 27.8 52.8v72c0 13.3-10.7 24-24 24s-24-10.7-24-24v-8H231.1v8c0 13.3-9.8 24-24 24-12.4 0-24-10.7-24-24v-72c0-22.1 12.1-41.5 29.1-53.9zm52.7-10.1H375l-7.4-26.2c-1-3.4-4.2-5.8-7.7-5.8h-80.3c-3.6 0-6.8 2.4-7.7 5.9l-7 26.1zM392 400H247.1c-7.9 0-16 7.2-16 16v16H408v-16c0-8.8-7.2-16-16-16z"/></svg>