<svg xmlns="http://www.w3.org/2000/svg" viewBox="0 0 512 512"><!--! Font Awesome Pro 6.1.1 by @fontawesome - https://fontawesome.com License - https://fontawesome.com/license (Commercial License) Copyright 2022 Fonticons, Inc.--><path d="m463.2 206.5-85.23-71.59C361.5 121 352 100.7 352 79.18V48c0-26.47-21.5-48-48-48h-96c-26.5 0-48 21.53-48 48v31.18c0 21.55-9.465 41.86-25.97 55.72L48.8 206.5C17.79 232.5 0 270.7 0 311.2c0 75.15 60.95 136.3 136 136.7V488c0 13.3 10.8 24 24 24s24-10.75 24-24v-40h16v40c0 13.3 10.8 24 24 24s24-10.75 24-24v-40h16v40c0 13.25 10.75 24 24 24s24-10.75 24-24v-40h16v40c0 13.25 10.75 24 24 24s24-10.75 24-24v-40.08c75.1-.42 136-61.52 136-136.72 0-40.5-17.8-78.7-48.8-104.7zM136.8 400C87.82 400 48 360.2 48 311.2c0-26.29 11.54-51.07 31.68-67.98l60.12-50.52-18.7 26.2c-16.4 23-25.1 49.2-25.1 78.4 0 41.3 19.2 78 48.6 102.7h-7.8zM128 297.3c0-21.56 6.625-42.2 19.16-59.72l34.16-47.83C198.8 165.2 208 138.2 208 111.4V48h32v63.39c0 26.77 9.219 53.84 26.69 78.31l34.19 47.84C313.4 255 320 275.7 320 297.3c0 132-192 133.1-192 0zM375.2 400h-71.83C332.8 375.3 352 338.6 352 297.3c0-28.27-8.688-55.36-25.09-78.31L292.8 171.1c-13.4-18.7-20.8-39.9-20.8-59.7V48h32v31.18c0 35.77 15.71 69.47 43.09 92.48l85.23 71.59C452.5 260.2 464 284.9 464 311.2c0 49-39.8 88.8-88.8 88.8z"/></svg>