<svg xmlns="http://www.w3.org/2000/svg" viewBox="0 0 512 512"><!--! Font Awesome Pro 6.1.1 by @fontawesome - https://fontawesome.com License - https://fontawesome.com/license (Commercial License) Copyright 2022 Fonticons, Inc.--><path d="M96 0h160c35.3 0 64 28.65 64 64v192h8c48.6 0 88 39.4 88 88v32c0 13.3 10.7 24 24 24s24-10.7 24-24V221.1c-27.6-6.2-48-31.3-48-61.1V97.94l-33-32.97c-9.3-9.37-9.3-24.57 0-33.94 9.4-9.37 24.6-9.37 33.1 0l74.8 73.07c13.5 14.4 21.1 32.7 21.1 51.8V376c0 39.8-32.2 72-72 72s-72-32.2-72-72v-32c0-22.1-17.9-40-40-40h-8v160h8c13.3 0 24 10.7 24 24s-10.7 24-24 24H24c-13.25 0-24-10.7-24-24s10.75-24 24-24h8V64C32 28.65 60.65 0 96 0zm160 48H96c-8.84 0-16 7.16-16 16v128h192V64c0-8.84-7.2-16-16-16zm16 192H80v224h192V240z"/></svg>