<svg xmlns="http://www.w3.org/2000/svg" viewBox="0 0 640 512"><!--! Font Awesome Pro 6.1.1 by @fontawesome - https://fontawesome.com License - https://fontawesome.com/license (Commercial License) Copyright 2022 Fonticons, Inc.--><path d="M97.33 50.98C103.3 21.88 129.1 0 160 0h160c35.3 0 64 28.65 64 64v211.7l141.5 110.9c1.6-3.2 2.5-6.8 2.5-10.6V221.1c-27.6-6.2-48-31.3-48-61.1V97.94l-33-32.97c-9.3-9.37-9.3-24.57 0-33.94 9.4-9.37 24.6-9.37 33.1 0l74.8 73.07c13.5 14.4 21.1 32.7 21.1 51.8V376c0 14.1-4.6 28.9-12.4 40.4l67.2 52.7c10.4 8.2 12.3 23.3 4.1 33.7-8.2 10.4-23.3 12.3-33.7 4.1L9.196 42.89C-1.236 34.71-3.065 19.63 5.112 9.196 13.29-1.236 28.37-3.065 38.81 5.112L97.33 50.98zM144 87.56 336 238V64c0-8.84-7.2-16-16-16H160c-8.8 0-16 7.16-16 16v23.56zM336 464V360.7l48 37.8V464h8c13.3 0 24 10.7 24 24s-10.7 24-24 24H88c-13.25 0-24-10.7-24-24s10.75-24 24-24h8V171.6l48 37.9V464h192z"/></svg>