<svg xmlns="http://www.w3.org/2000/svg" viewBox="0 0 640 512"><!--! Font Awesome Pro 6.1.1 by @fontawesome - https://fontawesome.com License - https://fontawesome.com/license (Commercial License) Copyright 2022 Fonticons, Inc.--><path d="M256 464c29.4 0 57.3-6.1 82.6-17.1 7.4 14.7 16.8 28.2 27.8 40.1-34.3 16-70.9 25-110.4 25C114.6 512 0 397.4 0 256S114.6 0 256 0c119.4 0 219.6 81.67 247.1 192.2-1.8-.1-4.4-.2-7.1-.2-14 0-27.5 1.6-40.6 4.7C429.9 110.7 350.3 48 256 48 141.1 48 48 141.1 48 256s93.1 208 208 208zm-56-112c0-22.3 13.1-41.6 31.1-50.6V119.1c0-12.4 11.6-24 24-24 14.2 0 24 11.6 24 24v182.3c19.8 9 32.9 28.3 32.9 50.6 0 30.9-25.1 56-56 56s-56-25.1-56-56zm-8-192c0 17.7-14.3 32-32 32s-32-14.3-32-32 14.3-32 32-32 32 14.3 32 32zM80 256c0-17.7 14.33-32 32-32 17.7 0 32 14.3 32 32s-14.3 32-32 32c-17.67 0-32-14.3-32-32zm304-96c0 17.7-14.3 32-32 32s-32-14.3-32-32 14.3-32 32-32 32 14.3 32 32zm-32 208c0-79.5 64.5-144 144-144s144 64.5 144 144-64.5 144-144 144-144-64.5-144-144zm176.8-81.6-96 72c-4.1 3.1-6.7 8.5-4.2 13.4 1.6 4.9 6.2 8.2 11.4 8.2h35.6l-30.1 54.2c-2.7 4.9-1.7 11.1 2.6 14.8 4.3 3.8 10.6 3.1 15.1.6l96-72c4.1-3.1 5.8-8.5 4.2-13.4-1.6-4.9-6.2-8.2-11.4-8.2h-35.6l30.1-54.2c2.7-4.9 1.7-11.1-2.6-15.7-4.3-2.9-10.6-3.1-15.1.3z"/></svg>