<svg xmlns="http://www.w3.org/2000/svg" viewBox="0 0 512 512"><!--! Font Awesome Pro 6.1.1 by @fontawesome - https://fontawesome.com License - https://fontawesome.com/license (Commercial License) Copyright 2022 Fonticons, Inc.--><path d="M256 80c17.7 0 32 14.33 32 32 0 17.7-14.3 32-32 32s-32-14.3-32-32c0-17.67 14.3-32 32-32zm0 328c-30.9 0-56-25.1-56-56s25.1-56 56-56c10.3 0 19.9 2.8 28.2 7.6l110.2-75.4c11-7.5 25.9-4.7 33.4 6.2 7.5 11 4.7 25.9-6.2 33.4l-110.3 75.4c.5 2.9.7 5.8.7 8.8 0 30.9-25.1 56-56 56zm96-280c17.7 0 32 14.3 32 32s-14.3 32-32 32-32-14.3-32-32 14.3-32 32-32zM112 288c-17.67 0-32-14.3-32-32s14.33-32 32-32c17.7 0 32 14.3 32 32s-14.3 32-32 32zm48-160c17.7 0 32 14.3 32 32s-14.3 32-32 32-32-14.3-32-32 14.3-32 32-32zm96 384C114.6 512 0 397.4 0 256S114.6 0 256 0s256 114.6 256 256-114.6 256-256 256zm208-256c0-114.9-93.1-208-208-208S48 141.1 48 256s93.1 208 208 208 208-93.1 208-208z"/></svg>