<svg xmlns="http://www.w3.org/2000/svg" viewBox="0 0 512 512"><!--! Font Awesome Pro 6.1.1 by @fontawesome - https://fontawesome.com License - https://fontawesome.com/license (Commercial License) Copyright 2022 Fonticons, Inc.--><path d="M256 80c17.7 0 32 14.33 32 32 0 17.7-14.3 32-32 32s-32-14.3-32-32c0-17.67 14.3-32 32-32zm0 328c-30.9 0-56-25.1-56-56 0-14.9 5.1-26.8 13.7-36.6L146 161.7c-5.3-12.2.2-26.3 12.3-31.7 12.2-5.3 26.3.2 30.8 12.3L257.6 296c30.2.9 54.4 25.6 54.4 56 0 30.9-25.1 56-56 56zm96-280c17.7 0 32 14.3 32 32s-14.3 32-32 32-32-14.3-32-32 14.3-32 32-32zm48 160c-17.7 0-32-14.3-32-32s14.3-32 32-32 32 14.3 32 32-14.3 32-32 32zm-288-64c17.7 0 32 14.3 32 32s-14.3 32-32 32c-17.67 0-32-14.3-32-32s14.33-32 32-32zm144 288C114.6 512 0 397.4 0 256S114.6 0 256 0s256 114.6 256 256-114.6 256-256 256zm208-256c0-114.9-93.1-208-208-208S48 141.1 48 256s93.1 208 208 208 208-93.1 208-208z"/></svg>