<svg xmlns="http://www.w3.org/2000/svg" viewBox="0 0 512 512"><!--! Font Awesome Pro 6.1.1 by @fontawesome - https://fontawesome.com License - https://fontawesome.com/license (Commercial License) Copyright 2022 Fonticons, Inc.--><path d="M512 216c0-9.079-7.009-23.88-23.72-23.88-5.738 0-11.49 2.064-16.09 6.142l-158.5-158.5c4.078-4.593 6.143-10.35 6.143-16.09C319.9 7.028 305.2 0 296 0c-6.141 0-12.48 2.344-17.17 7.031l-127.8 128C146.3 139.7 144 145.9 144 152c0 12.79 10.3 24 24 24 5.689 0 11.27-2.234 15.8-6.258L246.1 232 175 303l-5.6-5.6c-6.3-6.3-14.5-9.4-22.7-9.4s-16.3 3.1-22.6 9.4L9.4 412.1C3.15 418.348.025 426.53.025 434.72S3.15 451.09 9.4 457.34l45.25 45.25c6.22 6.31 14.41 9.41 22.6 9.41s16.37-3.125 22.62-9.375l114.7-114.7a31.899 31.899 0 0 0 9.376-22.62c0-8.185-3.125-16.37-9.374-22.62l-5.656-5.656L280 265.9l62.26 62.26c-4.078 4.593-6.143 10.35-6.143 16.09C336.1 360.1 350.8 368 360 368a23.93 23.93 0 0 0 16.97-7.031l128-127.8C509.7 228.5 512 222.1 512 216zm-136 78.1L217.9 136 280 73.94 438.1 232 376 294.1z"/></svg>