<svg xmlns="http://www.w3.org/2000/svg" viewBox="0 0 640 512"><!--! Font Awesome Pro 6.1.1 by @fontawesome - https://fontawesome.com License - https://fontawesome.com/license (Commercial License) Copyright 2022 Fonticons, Inc.--><path d="M119.1 176c0-22.1 18.8-40 40-40 23 0 40 17.9 40 40s-17 40-40 40c-21.2 0-40-17.9-40-40zm88.2-152.64 6.6 27.8c9.5 4.14 18.5 9.34 26.7 15.45l27.1-8.09c5.5-1.67 11.6-.22 15.6 4.1 16.2 17.82 28.6 39.18 36 62.78 1.8 5.5 0 11.5-4.2 15.5l-21 19.1c1.6 5.5 1 11.1 1 16.8 0 4.3.6 10.3.1 15.3l19.9 19c4.2 4 6 10 4.2 15.5-7.4 23.6-19.8 45-36 62.8-4 4.3-10.1 5.8-15.6 4.1l-25.6-7.7c-8.8 6.7-18.4 12.3-28.6 16.8l-6.2 26c-2.2 5.7-5.6 10.2-11.3 11.5-11.6 2.5-23.6 3.9-36.9 3.9-11.5 0-23.5-1.4-36-3.9-4.8-1.3-9.1-5.8-10.4-11.5l-6.2-26c-10.24-4.5-19.83-10.1-28.59-16.8l-25.57 7.7c-5.59 1.7-11.69.2-15.61-4.1A167.823 167.823 0 0 1 .651 226.6c-1.729-5.5.042-11.5 4.228-15.5l19.971-19c-.56-5-.85-11-.85-15.3 0-5.7.34-11.3 1.01-16.8L4.879 140.9c-4.185-4-5.956-10-4.227-15.5C8.056 101.8 20.51 80.44 36.73 62.62c3.92-4.32 10.02-5.77 15.61-4.1l27.04 8.09c8.24-6.11 17.19-11.31 26.72-15.44l6.6-27.81c1.3-5.65 5.6-10.19 10.4-11.45C135.6 9.35 147.6 8 159.1 8c13.3 0 25.3 1.35 36.9 3.91 5.7 1.25 9.1 5.8 11.3 11.45zM63.1 176.8c0 3.7 1.11 7.3 1.5 10.9l2.19 19.7-22.54 21.5c3.43 7.6 7.59 14.8 12.38 21.5l29.33-8.7L102.2 254c6.2 4.7 12.9 8.7 20.1 11.8l18.5 8 7 29.6c4 .4 8.1.6 11.3.6 5 0 9.1-.2 13.1-.6l7-29.6 18.5-8c7.2-3.1 13.9-7.1 20.1-11.8l16.2-12.3 29.4 8.7c4.8-6.7 8.9-13.9 12.3-21.5l-22.5-21.5 2.2-19.7c.4-3.6-.3-7.2-.3-10.9 0-4.1.7-8.1.2-12l-2.4-19.9 22.8-21.8c-3.4-7.6-7.5-14.8-12.3-21.5l-30.5 9.1-16.1-11.96c-6.7-4.32-12.1-7.98-19.7-10.89l-17.5-7.98-7.4-31.29c-4-.38-8.1-.58-13.1-.58-3.2 0-7.3.2-11.3.58l-7.4 31.29-18.4 7.98c-6.7 2.91-13 6.57-18.8 10.89L87.1 110.7l-30.47-9.1c-4.79 6.7-8.95 13.9-12.38 21.5l22.89 21.8-2.42 19.9c-.47 3.9-1.62 7.9-1.62 12zM464 312c22.1 0 40 17.9 40 40s-17.9 40-40 40-40-17.9-40-40 17.9-40 40-40zm117.5-67.7-8.1 27.1c6.1 8.2 11.3 17.2 15.4 26.7l27.8 6.6c5.7 1.3 10.2 5.6 11.5 10.4 2.5 12.5 3.9 24.5 3.9 36.9 0 12.4-1.4 24.4-3.9 36-1.3 5.7-5.8 9.1-11.5 11.3l-27.8 6.6c-4.1 9.5-9.3 18.5-15.4 26.7l8.1 27.1c1.7 5.6.2 11.7-4.1 15.6-17.8 16.2-39.2 28.6-62.8 36.1-5.5 1.7-11.5-.1-15.5-4.3l-20-21c-4.6 1.6-10.2 1.9-15.9 1.9-5.2 0-10.3-.3-15.3-.8l-19 19.9c-4 4.2-10 6-15.5 4.3-23.6-7.5-45-19.9-62.8-36.1-4.3-3.9-5.8-10-4.1-15.6l7.7-25.6c-6.7-8.8-12.3-18.4-16.8-28.6l-26-6.2c-5.7-2.2-10.2-5.6-11.5-11.3-2.6-11.6-4.8-23.6-4.8-36 0-12.4 2.3-24.4 4.8-36.9 1.3-4.8 5.8-9.1 11.5-10.4l26-6.2c4.5-10.2 10.1-19.8 16.8-28.6l-7.7-25.6c-1.7-5.5-.2-11.6 4.1-15.6 17.8-16.2 39.2-28.6 62.8-36 5.5-1.8 11.5 0 15.5 4.2l19 20c5-.6 10.1-.9 15.3-.9 5.7 0 11.3.4 15.9 1l20-20.1c4-4.2 10-6 15.5-4.2 23.6 7.4 45 19.8 62.8 36 4.3 4 5.8 10.1 4.1 15.6zM463.2 256c-3.7 0-7.3.2-10.9.6l-19.7 2.2-21.5-22.5c-7.6 3.4-14.8 7.5-21.5 12.3l8.7 28.5-13.2 17.1c-3.8 6.2-7.8 12.9-10.9 20.1l-8 18.5-29.6 7c-.4 4-.6 8.1-.6 12.2s.2 8.2.6 12.2l29.6 7 8 18.5c3.1 7.2 7.1 13.9 10.9 20.1l13.2 16.2-8.7 29.4c6.7 4.8 13.9 8.9 21.5 12.4l21.5-22.6 19.7 2.2c3.6.4 7.2.6 10.9.6 4.1 0 8.1-.2 12-.7l19.9-2.4 21.8 22.9c7.6-3.5 14.8-7.6 21.5-12.4l-9.1-30.5 12-16.1c4.3-6.7 7.9-12.1 10.9-19.7l7.9-17.5 31.3-7.4c.4-4 .6-8.1.6-12.2s-.2-8.2-.6-12.2l-31.3-7.4-7.9-18.4c-3-6.6-6.6-13-10.9-18.8l-12-16.1 9.1-30.5c-6.7-4.8-13.9-8.9-21.5-12.3l-21.8 22.8-19.9-2.4c-3.9-.4-7.9-.7-12-.7z"/></svg>