<svg xmlns="http://www.w3.org/2000/svg" viewBox="0 0 384 512"><!--! Font Awesome Pro 6.1.1 by @fontawesome - https://fontawesome.com License - https://fontawesome.com/license (Commercial License) Copyright 2022 Fonticons, Inc.--><path d="M192 0c-2 0-3.9-.022-5.9.103C81 3.228 0 94.873 0 200.003v264c0 9.625 7.856 15.99 16.11 15.99 3.875 0 7.819-1.486 11.19-4.736l24.95-18.5c2.875-2.125 6.251-3.157 9.501-3.157 4.5 0 8.874 1.782 11.1 5.407l43 48.31C119.9 510.5 123.9 512 128 512c4.125 0 8.229-1.538 11.35-4.663l40.62-45.81c3.25-3.625 7.625-5.41 12-5.41s8.75 1.785 11.1 5.41l40.63 45.81c4.1 3.163 8.2 4.663 11.4 4.663s8.146-1.538 11.27-4.663l43-48.31c5.5-6.25 14.88-7.25 21.5-2.25l24.95 18.5c3.375 3.25 7.32 4.736 11.19 4.736 8.25 0 16.11-6.362 16.11-15.99V192C384 86 298 0 192 0zm144 407.1c-4.5-1-9.125-1.5-13.75-1.5-18.25 0-35.75 7.75-47.87 21.5L256 447.8l-16.12-18.13C227.8 415.9 210.2 408.1 192 408.1s-35.75 7.75-47.88 21.5L128 447.8l-18.38-20.63C97.5 413.4 80 405.6 61.75 405.6c-4.625 0-9.25.5-13.75 1.5V200c0-81.5 62.62-149.6 139.5-151.9l4.5-.1c79.38 0 144 64.62 144 144v215.1zm-208-248c-17.62 0-31.1 14.38-31.1 32.01s14.38 32.01 31.1 32.01 32-14.38 32-32.01-14.4-32.01-32-32.01zm128 0c-17.62 0-32 14.38-32 32.01s14.38 32.01 32 32.01c17.62 0 32-14.38 32-32.01s-14.4-32.01-32-32.01z"/></svg>