<svg xmlns="http://www.w3.org/2000/svg" viewBox="0 0 640 512"><!--! Font Awesome Pro 6.1.1 by @fontawesome - https://fontawesome.com License - https://fontawesome.com/license (Commercial License) Copyright 2022 Fonticons, Inc.--><path d="m192.5 55.09 25.4-18.5c10.7-7.8 25.7-5.43 33.5 5.29 7.8 10.72 5.4 25.73-5.3 33.53L217.8 96h6.2c21.1 0 39.8 10.2 51.4 25.9-7.3 6.4-13.7 13.9-19 22.1H64c-8.84 0-16 7.2-16 16v288c0 8.8 7.16 16 16 16h128v16c0 11.7 3.1 22.6 8.6 32H64c-35.35 0-64-28.7-64-64V160c0-35.3 28.65-64 64-64h6.2L41.88 75.41c-10.72-7.8-13.09-22.81-5.29-33.53 7.8-10.72 22.81-13.09 33.53-5.29l27.43 19.95-8.32-24.95C85.04 19.01 91.84 5.423 104.4 1.232c11.7-4.192 26.2 2.604 30.4 15.178l9.9 29.76 10.7-30.18C159.8 3.493 173.5-3.048 186 1.377c12.5 4.425 19 18.143 14.6 30.633l-8.1 23.08zM344.2 128c22.4 0 43.6 10.4 57.3 28.2l30.5 39.6 30.5-39.6c13.7-17.8 34.9-28.2 57.3-28.2 39.7 0 72.2 32.1 72.2 72 0 8.4-1.4 16.5-4.1 24h4.1c26.5 0 48 21.5 48 48v192c0 26.5-21.5 48-48 48H272c-26.5 0-48-21.5-48-48V272c0-26.5 21.5-48 48-48h4.1c-2.7-7.5-4.1-15.6-4.1-24 0-39.9 32.5-72 72.2-72zm19.3 57.5c-4.6-6-11.8-9.5-19.3-9.5-13.4 0-24.2 10.9-24.2 24 0 13.3 10.7 24 24 24h49.1l-29.6-38.5zM272 344h136v-72H272v72zm0 120h136v-72H272v72zm320-72H456v72h136v-72zm-136-48h136v-72H456v72zm63.8-168c-7.5 0-14.7 3.5-19.3 9.5L470.9 224H520c13.3 0 24-10.7 24-24 0-13.1-10.8-24-24.2-24z"/></svg>