<svg xmlns="http://www.w3.org/2000/svg" viewBox="0 0 576 512"><!--! Font Awesome Pro 6.1.1 by @fontawesome - https://fontawesome.com License - https://fontawesome.com/license (Commercial License) Copyright 2022 Fonticons, Inc.--><path d="M574.1 280.4 528.72 98.6c-5.875-23.63-21.62-44-43-55.75-21.5-11.75-46.1-14.13-70.25-6.375L400.22 41.6c-8.375 2.75-12.87 11.88-10 20.25l5 15.13c2.75 8.375 11.88 12.88 20.25 10.13l13.12-4.375c10.88-3.625 23-3.625 33.25 1.75s17.5 14.5 20.38 25.75l38.38 153.9c-22.12-6.875-49.75-12.5-81.13-12.5-40 0-85.63 9.25-133.1 36.38H269.6C222.2 260.9 176.5 251.6 136.5 251.6c-31.38 0-59 5.625-81.12 12.5l38.38-153.9c2.875-11.25 10.12-20.38 20.5-25.75 10.14-5.33 22.24-5.33 33.14-1.71l13.12 4.375c8.375 2.75 17.5-1.75 20.25-10.13l5-15.13c2.83-8.365-1.67-17.485-10.17-20.235l-15.25-5.125c-23.13-7.75-48.75-5.375-70.13 6.375C68.85 54.62 53.1 75 47.22 98.62L1.875 280.4C.625 285.4 0 290.6 0 295.9v70.25C0 428.1 51.63 480 115.3 480h37.13c60.25 0 110.4-46 114.9-105.4l2.875-38.63h35.75l2.875 38.63C313.3 433.1 363.4 480 423.6 480h37.13c63.62 0 115.2-51 115.2-113.9v-70.2c.07-5.3-.53-10.4-1.83-15.5zm-354.7 89.7c-2.6 35.1-32.2 61-67.2 61h-37c-37.12 0-67.25-29.5-67.25-65.88V317.6c19.75-8.125 51.25-18 88.62-18 29.75 0 58.88 6.25 86.75 18.5l-3.92 52zm308.6-4c0 36.38-30.12 65.88-67.25 65.88h-37.13c-34.87 0-64.38-26.75-67-61l-4-52.88c28-12.25 57-18.5 86.88-18.5 37.38 0 68.75 9.875 88.5 18v48.5z"/></svg>