<svg xmlns="http://www.w3.org/2000/svg" viewBox="0 0 384 512"><!--! Font Awesome Pro 6.1.1 by @fontawesome - https://fontawesome.com License - https://fontawesome.com/license (Commercial License) Copyright 2022 Fonticons, Inc.--><path d="M128 196c0-24.9 33.7-70.1 52.2-93.5 6.1-7.73 17.5-7.73 23.6 0 18.5 23.4 52.2 68.6 52.2 93.5 0 33.1-28.7 60-64 60s-64-26.9-64-60zM383.9 33.1l-26.2 418c-2.1 34.6-30.2 60.9-64.2 60.9H96.76c-33.58 0-61.51-25.7-64.1-59.1L.098 34.47C-1.347 15.88 13.34 0 32.07 0H351.9c18.6 0 33.2 15.58 32 33.1zM314.7 371c-31.2 12.9-67.4 8-94.2-13.5a45.702 45.702 0 0 0-57 0c-25.3 20.3-59 25.8-88.92 15.5l5.93 76.2c.65 8.3 7.78 14.8 16.25 14.8H293.5c8.6 0 15.8-6.6 16.3-15.9l4.9-77.1zM49.3 48l20.96 269.4 12.55 6.9c16.19 9 36.19 7.3 50.69-4.2 34.2-27.4 82.8-27.4 117 0 13.6 11.5 33.6 13.2 50.7 4.2l17-9.4L334.1 48H49.3z"/></svg>