<svg xmlns="http://www.w3.org/2000/svg" viewBox="0 0 384 512"><!--! Font Awesome Pro 6.1.1 by @fontawesome - https://fontawesome.com License - https://fontawesome.com/license (Commercial License) Copyright 2022 Fonticons, Inc.--><path d="M32.07 0H351.9c18.6 0 33.2 15.58 32 33.1l-26.2 418c-2.1 34.6-30.2 60.9-64.2 60.9H96.76c-33.58 0-61.51-25.7-64.1-59.1L.098 34.47C-1.347 15.88 13.34 0 32.07 0zM293.5 464c8.6 0 15.8-6.6 16.3-15.9l16.3-258.7-1.6.9c-33.2 18.4-74.3 15-104-8.7a45.435 45.435 0 0 0-57 0c-29.4 23.5-70.03 27.1-103.09 9.2l20.1 258.4c.65 8.3 7.78 14.8 16.25 14.8H293.5zM82.81 148.3c16.19 9 36.19 7.3 50.69-4.2 34.2-27.4 82.8-27.4 117 0 13.6 11.5 33.6 13.2 50.7 4.2l28.5-15.8 4.4-84.5H49.3l6.64 85.4 26.87 14.9z"/></svg>