<svg xmlns="http://www.w3.org/2000/svg" viewBox="0 0 384 512"><!--! Font Awesome Pro 6.1.1 by @fontawesome - https://fontawesome.com License - https://fontawesome.com/license (Commercial License) Copyright 2022 Fonticons, Inc.--><path d="M351.9 0H32.07C13.34 0-1.348 15.88.098 34.47l32.56 418.5C35.25 486.3 63.18 512 96.76 512h196.8c33.95 0 62.04-26.28 64.16-60.01l26.25-417.1C385.1 15.58 370.5 0 351.9 0zm-17.8 48-12.05 192H64.24L49.3 48h284.8zm-40.6 416H96.7c-8.463 0-15.6-6.494-16.24-14.78L67.97 288h251.9l-10.11 160.1c-.46 9.3-7.66 15.9-16.26 15.9z"/></svg>