<svg xmlns="http://www.w3.org/2000/svg" viewBox="0 0 448 512"><!--! Font Awesome Pro 6.1.1 by @fontawesome - https://fontawesome.com License - https://fontawesome.com/license (Commercial License) Copyright 2022 Fonticons, Inc.--><path d="M232 80c-13.2 0-24 10.75-24 24s10.8 24 24 24 24-10.8 24-24-10.7-24-24-24zm-128 80c-13.25 0-24 10.8-24 24s10.75 24 24 24 24-10.8 24-24-10.8-24-24-24zm224-16c-13.25 0-24 10.75-24 24s10.8 24 24 24 24-10.8 24-24-10.8-24-24-24zm35.2 255c51.5-40.1 84.75-104 84.75-174.1 0-123.8-100.3-223.1-224-223.1S0 100.2 0 224c0 70.1 33.25 134 84.75 174.1l-46.38 61.75C22.62 481.9 37.63 512 64 512h320c26.38 0 41.38-30.12 25.62-51.25L363.2 399zm-66.3-15h-40.87l-.03-48h57.88c14.25 0 22-15 12.88-24.88L276 256h15.28c10.75 0 16.5-11.25 9.75-18.75l-67.38-73.12c-5-5.5-14.38-5.5-19.38 0L146.9 237.3c-6.7 7.5-1 18.7 9.8 18.7H172l-50.8 55.1c-9 9.9-1.2 24.9 13 24.9H192v47.1l-40.9.9C90.38 356.2 48 295 48 224c0-97 79-176 176-176s176 79 176 176c0 71-42.4 132.2-103.1 160z"/></svg>