<svg xmlns="http://www.w3.org/2000/svg" viewBox="0 0 640 512"><!--! Font Awesome Pro 6.1.1 by @fontawesome - https://fontawesome.com License - https://fontawesome.com/license (Commercial License) Copyright 2022 Fonticons, Inc.--><path d="M552 32H88C39.47 32 0 71.47 0 120v336c0 13.3 10.75 24 24 24s24-10.75 24-24V120c0-22.06 17.94-40 40-40h464c22.06 0 40 17.94 40 40v336c0 13.25 10.75 24 24 24s24-10.7 24-24V120c0-48.53-39.5-88-88-88zm-24 192c8.8 0 16-7.2 16-16s-7.2-16-16-16h-48v-48c0-8.8-7.2-16-16-16s-16 7.2-16 16v48h-64v-48c0-8.8-7.2-16-16-16s-16 7.2-16 16v48h-64v-48c0-8.8-7.2-16-16-16s-16 7.2-16 16v48h-64v-48c0-8.8-7.2-16-16-16s-16 7.2-16 16v48h-48c-8.8 0-16 7.2-16 16s7.2 16 16 16h48v64h-48c-8.8 0-16 7.2-16 16s7.2 16 16 16h48v64h-48c-8.8 0-16 7.2-16 16s7.2 16 16 16h48v48c0 8.8 7.2 16 16 16s16-7.2 16-16v-48h64v48c0 8.8 7.2 16 16 16s16-7.2 16-16v-48h64v48c0 8.836 7.164 16 16 16s16-7.164 16-16v-48h64v48c0 8.836 7.164 16 16 16s16-7.164 16-16v-48h48c8.836 0 16-7.164 16-16 0-8.838-7.164-16-16-16h-48v-64h48c8.836 0 16-7.164 16-16 0-8.8-7.2-16-16-16h-48v-64h48zM256 384h-64v-64h64v64zm0-96h-64v-64h64v64zm96 96h-64v-64h64v64zm0-96h-64v-64h64v64zm96 96h-64v-64h64v64zm0-96h-64v-64h64v64z"/></svg>