<svg xmlns="http://www.w3.org/2000/svg" viewBox="0 0 512 512"><!--! Font Awesome Pro 6.1.1 by @fontawesome - https://fontawesome.com License - https://fontawesome.com/license (Commercial License) Copyright 2022 Fonticons, Inc.--><path d="M256 304c-16.07 0-32.15.607-48 1.75V242.7l198.4-99.21c6.39-3.195 9.584-9.353 9.584-15.51s-3.195-12.31-9.584-15.51L185.1 1.854A17.227 17.227 0 0 0 177.3 0C168.2 0 160 7.311 160 17.36V408c0 17.67 35.82 32 80 32s80-14.33 80-32-35.82-32-80-32c-11.39 0-22.19.984-32 2.701V353.8c14.1-1.1 30.9-1.8 48-1.8 137.2 0 208 39.25 208 56s-70.8 56-208 56-208-39.25-208-56c0-10.33 27.14-29.2 80-42.16V316.1C54.75 332.1 0 363.5 0 408c0 68.3 128.8 104 256 104s256-35.72 256-104-128.8-104-256-104zm-48-114.9V66.97l122.1 61.05L208 189.1z"/></svg>