<svg xmlns="http://www.w3.org/2000/svg" viewBox="0 0 512 512"><!--! Font Awesome Pro 6.1.1 by @fontawesome - https://fontawesome.com License - https://fontawesome.com/license (Commercial License) Copyright 2022 Fonticons, Inc.--><path d="M488 0c-8.809 0-17.3 4.84-21.51 13.25l-169.2 338.4L70.73 289.1c-4.93-.5-9.93-2-14.88-2C21.14 287.1 0 317.2 0 344v111.1C0 486.9 25.07 512 56 512h195.1a32 32 0 0 0 28.62-17.69l229.8-459.6A24.36 24.36 0 0 0 512 24c0-12.69-10.2-24-24-24zM241.2 463.1H56c-4.406 0-8-3.594-8-8V448h31.1c8.836 0 15.1-7.165 15.1-16 0-8.839-7.164-16-15.1-16H48v-16h31.1c8.836 0 15.1-7.165 15.1-16 0-8.838-7.164-16-15.1-16H48v-23.99c0-4.415 3.573-8.004 7.96-8.004.7 0 1.42.091 2.15.285l217.3 59.27L241.2 463.1z"/></svg>