<svg xmlns="http://www.w3.org/2000/svg" viewBox="0 0 384 512"><!--! Font Awesome Pro 6.1.1 by @fontawesome - https://fontawesome.com License - https://fontawesome.com/license (Commercial License) Copyright 2022 Fonticons, Inc.--><path d="M203.1 171.7c0 17.83-14.73 32.23-32.43 32.23-2.87-.03-6.77-.63-10.67-2.03 4.625 12.88 16.5 22.12 30.88 22.12C209.3 224 224 209.3 224 190.9c0-14.38-9.25-26.25-22.12-30.88 1.42 3.98 1.22 7.88 1.22 11.68zm16 80c0 17.83-14.73 32.23-32.43 32.23-3.748 0-7.629-.645-11.53-2.039 4.625 12.88 16.5 22.12 30.88 22.12C225.3 304 240 289.3 240 270.9c0-14.38-9.25-26.25-22.12-30.88 1.42 3.98 1.22 7.88 1.22 11.68zm64-64c0 17.83-14.73 32.23-32.43 32.23-3.748 0-7.629-.645-11.53-2.039 4.625 12.88 16.5 22.12 30.88 22.12C289.3 240 304 225.3 304 206.9c0-14.38-9.25-26.25-22.12-30.88 1.42 3.98 1.22 7.88 1.22 11.68zM96 399.1c0 17.67 14.33 31.1 32 31.1s32 14.33 32 31.1v48h64v-48c0-17.67 14.33-31.1 32-31.1s32-14.33 32-31.1v-16H96v16zM192 0C86.13 0 0 86.13 0 192c0 91.33 70.37 161.8 95.93 161.8 11.12 0 24.06-8.647 24.06-23.94 0-7.578-3.582-15.03-10.27-19.71C71.06 283.3 48 239.1 48 192c0-79.41 64.59-144 144-144s144 64.59 144 144c0 47.06-23.06 91.25-61.72 118.2-6.684 4.674-10.27 12.13-10.27 19.71 0 15.12 12.77 23.98 24.02 23.98C315 353.9 384 282.6 384 192 384 86.13 297.9 0 192 0z"/></svg>