<svg xmlns="http://www.w3.org/2000/svg" viewBox="0 0 512 512"><!--! Font Awesome Pro 6.1.1 by @fontawesome - https://fontawesome.com License - https://fontawesome.com/license (Commercial License) Copyright 2022 Fonticons, Inc.--><path d="M120 0c13.3 0 24 10.75 24 24v8h48v-8c0-13.25 10.7-24 24-24s24 10.75 24 24v8h32v-8c0-13.25 10.7-24 24-24s24 10.75 24 24v8h48v-8c0-13.25 10.7-24 24-24s24 10.75 24 24v106.7c18.6 6.6 32 24.4 32 45.3v48c0 .9-.9 1.8-.1 2.7 18.7 6.6 32.1 24.4 32.1 45.3v64c0 .9-.9 1.8-.1 2.7 18.7 6.6 32.1 24.4 32.1 45.3v80c0 26.5-21.5 48-48 48H48c-26.51 0-48-21.5-48-48v-80c0-20.9 13.39-38.7 32.07-45.3-.04-.9-.07-1.8-.07-2.7v-64c0-20.9 13.39-38.7 32.07-45.3-.04-.9-.07-1.8-.07-2.7v-48c0-20.9 13.36-38.7 32-45.3V24c0-13.25 10.7-24 24-24zm24 128h224V80H144v48zm-32 48v48h48v-48h-48zm208 0H192v48h32c0-17.7 14.3-32 32-32s32 14.3 32 32h32v-48zm32 0v48h48v-48h-48zm-192 96v64h64v-16c0-17.7 14.3-32 32-32s32 14.3 32 32v16h64v-64H160zm272 64v-64h-48v64h48zM208 464v-16c0-26.5 21.5-48 48-48s48 21.5 48 48v16h80v-80H128v80h80zm208 0h48v-80h-48v80zM80 272v64h48v-64H80zm16 112H48v80h48v-80z"/></svg>