<svg xmlns="http://www.w3.org/2000/svg" viewBox="0 0 512 512"><!--! Font Awesome Pro 6.1.1 by @fontawesome - https://fontawesome.com License - https://fontawesome.com/license (Commercial License) Copyright 2022 Fonticons, Inc.--><path d="M327.9 184.1c-2-44.5-38.9-80.1-83.9-80.1-26.04 0-49.35 11.91-64.77 30.57A83.583 83.583 0 0 0 132 120c-46.32 0-84 37.7-84 84 0 17.5 5.377 33.76 14.57 47.23C43.91 266.7 32 289.1 32 316c0 14.22 3.553 27.63 9.816 39.38C16.83 369.1 0 397 0 428c0 46.3 37.68 84 84 84 30.95 0 58.05-16.83 72.62-41.82C168.4 476.4 181.8 480 196 480c26.04 0 49.35-11.91 64.77-30.57A83.583 83.583 0 0 0 308 464c46.32 0 84-37.68 84-84 0-17.5-5.377-33.76-14.57-47.23C396.1 317.3 408 294 408 268c0-45.9-35.6-81.9-80.1-83.9zM84 464c-19.88 0-36-16.12-36-36s16.12-36 36-36 36 16.12 36 36-16.1 36-36 36zm32-112c-19.88 0-36-16.1-36-36s16.12-36 36-36 36 16.1 36 36-16.1 36-36 36zm16-112c-19.9 0-36-16.1-36-36s16.1-36 36-36 36 16.1 36 36-16.1 36-36 36zm64 192c-19.9 0-36-16.1-36-36s16.12-36 36-36 36 16.12 36 36-16.1 36-36 36zm24-104c-19.88 0-36-16.12-36-36s16.1-36 36-36 36 16.1 36 36-16.1 36-36 36zm24-104c-19.9 0-36-16.1-36-36s16.1-36 36-36 36 16.12 36 36-16.1 36-36 36zm64 192c-19.88 0-36-16.12-36-36s16.12-36 36-36 36 16.12 36 36-16.1 36-36 36zm16-112c-19.9 0-36-16.1-36-36s16.12-36 36-36 36 16.12 36 36-16.1 36-36 36zm183.2-164.6c-33.12-31.33-77.06-37.86-114.9-19.77 18.08-37.78 11.56-81.72-19.76-114.8-6.01-6.352-16.8-6.354-22.8.01-40.48 42.96-39.09 103.8 3.263 145.9l8.246 8.246c42.12 42.35 103 43.74 145.9 3.263 6.451-6.049 6.451-16.849.051-22.849z"/></svg>