<svg xmlns="http://www.w3.org/2000/svg" viewBox="0 0 576 512"><!--! Font Awesome Pro 6.1.1 by @fontawesome - https://fontawesome.com License - https://fontawesome.com/license (Commercial License) Copyright 2022 Fonticons, Inc.--><path d="M414.8 198.1c5-16.6 17.5-28.9 33.2-34V96c0-35.35-28.65-64-64-64H64C28.65 32 0 60.65 0 96v320c0 35.35 28.65 64 64 64h279.4c-14.7-22.5-23.4-49.1-23.4-77.8 0-31.68 10.48-56.45 24-78.76V280h29.45c15.55-22.4 30.75-46.9 41.35-81.9zM104 432H64c-8.822 0-16-7.178-16-16V280h56v152zm0-200H48V96c0-8.822 7.178-16 16-16h40v152zm96 200h-48V280h48v152zm0-200h-48V80h48v152zm96 200h-48V280h48v152zm0-200h-48V80h48v152zm48-152h40c8.822 0 16 7.178 16 16v136h-56V80zm138.6 125.8c-5.031-18.05-31.5-18.83-37.19 0C415.7 304.3 352 331.2 352 400.7c0 61.5 50.1 111.3 112 111.3s112-49.84 112-111.3c0-69.9-63.5-95.8-93.4-194.9z"/></svg>