<svg xmlns="http://www.w3.org/2000/svg" viewBox="0 0 448 512"><!--! Font Awesome Pro 6.1.1 by @fontawesome - https://fontawesome.com License - https://fontawesome.com/license (Commercial License) Copyright 2022 Fonticons, Inc.--><path d="M33.94 353.5C37.84 362.6 46.69 368 56 368c3.156 0 6.375-.625 9.469-1.938l336-144C410.3 218.3 416 209.6 416 200s-5.719-18.28-14.53-22.06l-336-144c-12.25-5.19-26.28.4-31.53 12.59-5.22 12.19.44 26.31 12.59 31.53L331.1 200 46.6 321.9c-12.22 5.3-17.88 19.4-12.66 31.6zM424 432H24c-13.25 0-24 10.8-24 24s10.75 24 24 24h400c13.25 0 24-10.75 24-24s-10.7-24-24-24z"/></svg>