<svg xmlns="http://www.w3.org/2000/svg" viewBox="0 0 448 512"><!--! Font Awesome Pro 6.1.1 by @fontawesome - https://fontawesome.com License - https://fontawesome.com/license (Commercial License) Copyright 2022 Fonticons, Inc.--><path d="M0 80c0-26.51 21.49-48 48-48h96c26.5 0 48 21.49 48 48v96c0 26.5-21.5 48-48 48H48c-26.51 0-48-21.5-48-48V80zm48 96h96V80H48v96zM0 336c0-26.5 21.49-48 48-48h96c26.5 0 48 21.5 48 48v96c0 26.5-21.5 48-48 48H48c-26.51 0-48-21.5-48-48v-96zm48 96h96v-96H48v96zM400 32c26.5 0 48 21.49 48 48v96c0 26.5-21.5 48-48 48h-96c-26.5 0-48-21.5-48-48V80c0-26.51 21.5-48 48-48h96zm0 48h-96v96h96V80zM256 336c0-26.5 21.5-48 48-48h96c26.5 0 48 21.5 48 48v96c0 26.5-21.5 48-48 48h-96c-26.5 0-48-21.5-48-48v-96zm48 96h96v-96h-96v96z"/></svg>