<svg xmlns="http://www.w3.org/2000/svg" viewBox="0 0 448 512"><!--! Font Awesome Pro 6.1.1 by @fontawesome - https://fontawesome.com License - https://fontawesome.com/license (Commercial License) Copyright 2022 Fonticons, Inc.--><path d="M89.6 105.6c0 6.3-3.66 11.8-8.97 13.5-2.12 1.9-4.51 2.5-7.03 2.5H16c-2.52 0-4.91-.6-7.028-2.5C3.659 117.4 0 111.9 0 105.6V48c0-8.84 7.164-16 16-16h57.6c8.84 0 16 7.16 16 16v57.6zm-32-16V64H32v25.6h25.6zm16 61.9c2.52 0 4.91.5 7.03 1.6 5.31 2.6 8.97 8.1 8.97 14.4v57.6c0 6.3-3.66 11.7-8.97 14.3-2.12 1.1-4.51 1.7-7.03 1.7H16c-2.52 0-4.91-.6-7.028-1.7C3.659 236.8 0 231.4 0 225.1v-57.6c0-6.3 3.659-11.8 8.972-14.4 2.118-1.1 4.508-1.6 7.028-1.6h57.6zm-16 57.6v-25.6H32v25.6h25.6zm16 61.8c2.52 0 4.91.6 7.03 1.7 5.31 2.6 8.97 8 8.97 14.3v57.6c0 6.3-3.66 11.8-8.97 14.4-2.12 1-4.51 1.6-7.03 1.6H16c-2.52 0-4.91-.6-7.028-1.6C3.659 356.3 0 350.8 0 344.5v-57.6c0-6.3 3.659-11.7 8.972-14.3 2.118-1.1 4.508-1.7 7.028-1.7h57.6zm-16 57.6v-25.6H32v25.6h25.6zM16 390.4h57.6c2.52 0 4.91-.3 7.03 1.6 5.31 2.6 8.97 8.1 8.97 14.4V464c0 8.8-7.16 16-16 16H16c-8.836 0-16-7.2-16-16v-57.6c0-6.3 3.659-11.8 8.972-14.4 2.118-1.9 4.508-1.6 7.028-1.6zM57.6 448v-25.6H32V448h25.6zm151.5-342.4c0 6.3-3.7 11.8-9 13.5-3 1.9-4.5 2.5-7 2.5h-57.6c-2.6 0-4.9-.6-7.1-2.5-5.3-1.7-8.9-7.2-8.9-13.5V48c0-8.84 7.1-16 16-16h57.6c8.8 0 16 7.16 16 16v57.6zm-32-16V64h-25.6v25.6h25.6zm16 61.9c2.5 0 4 .5 7 1.6 5.3 2.6 9 8.1 9 14.4v57.6c0 6.3-3.7 11.7-9 14.3-3 1.1-4.5 1.7-7 1.7h-57.6c-2.6 0-4.9-.6-7.1-1.7-5.3-2.6-8.9-8-8.9-14.3v-57.6c0-6.3 3.6-11.8 8.9-14.4 2.2-1.1 4.5-1.6 7.1-1.6h57.6zm-16 57.6v-25.6h-25.6v25.6h25.6zm16 61.8c2.5 0 4 .6 7 1.7 5.3 2.6 9 8 9 14.3v57.6c0 6.3-3.7 11.8-9 14.4-3 1-4.5 1.6-7 1.6h-57.6c-2.6 0-4.9-.6-7.1-1.6-5.3-2.6-8.9-8.1-8.9-14.4v-57.6c0-6.3 3.6-11.7 8.9-14.3 2.2-1.1 4.5-1.7 7.1-1.7h57.6zm-16 57.6v-25.6h-25.6v25.6h25.6zm-41.6 61.9h57.6c2.5 0 4-.3 7 1.6 5.3 2.6 9 8.1 9 14.4V464c0 8.8-7.2 16-16 16h-57.6c-8.9 0-16-7.2-16-16v-57.6c0-6.3 3.6-11.8 8.9-14.4 2.2-1.9 4.5-1.6 7.1-1.6zm41.6 57.6v-25.6h-25.6V448h25.6zm135.4-326.4h-57.6c-2.5 0-4.9-.6-7-2.5-5.3-1.7-9-7.2-9-13.5V48c0-8.84 7.2-16 16-16h57.6c8.9 0 16 7.16 16 16v57.6c0 6.3-3.6 11.8-8.9 13.5-2.2 1.9-4.5 2.5-7.1 2.5zM270.9 64v25.6h25.6V64h-25.6zm57.6 103.5v57.6c0 6.3-3.6 11.7-8.9 14.3-2.2 1.1-4.5 1.7-7.1 1.7h-57.6c-2.5 0-4.9-.6-7-1.7-5.3-2.6-9-8-9-14.3v-57.6c0-6.3 3.7-11.8 9-14.4 2.1-1.1 4.5-1.6 7-1.6h57.6c2.6 0 4.9.5 7.1 1.6 5.3 2.6 8.9 8.1 8.9 14.4zm-57.6 16v25.6h25.6v-25.6h-25.6zm57.6 103.4v57.6c0 6.3-3.6 11.8-8.9 14.4-2.2 1-4.5 1.6-7.1 1.6h-57.6c-2.5 0-4.9-.6-7-1.6-5.3-2.6-9-8.1-9-14.4v-57.6c0-6.3 3.7-11.7 9-14.3 2.1-1.1 4.5-1.7 7-1.7h57.6c2.6 0 4.9.6 7.1 1.7 5.3 2.6 8.9 8 8.9 14.3zm-57.6 16v25.6h25.6v-25.6h-25.6zm48.7 89.1c5.3 2.6 8.9 8.1 8.9 14.4V464c0 8.8-7.1 16-16 16h-57.6c-8.8 0-16-7.2-16-16v-57.6c0-6.3 3.7-11.8 9-14.4 2.1-1.9 4.5-1.6 7-1.6h57.6c2.6 0 4.9-.3 7.1 1.6zm-48.7 30.4V448h25.6v-25.6h-25.6zM448 105.6c0 6.3-3.7 11.8-9 13.5-2.1 1.9-4.5 2.5-7 2.5h-57.6c-2.5 0-4.9-.6-7-2.5-5.3-1.7-9-7.2-9-13.5V48c0-8.84 7.2-16 16-16H432c8.8 0 16 7.16 16 16v57.6zm-32-16V64h-25.6v25.6H416zm16 61.9c2.5 0 4.9.5 7 1.6 5.3 2.6 9 8.1 9 14.4v57.6c0 6.3-3.7 11.7-9 14.3-2.1 1.1-4.5 1.7-7 1.7h-57.6c-2.5 0-4.9-.6-7-1.7-5.3-2.6-9-8-9-14.3v-57.6c0-6.3 3.7-11.8 9-14.4 2.1-1.1 4.5-1.6 7-1.6H432zm-16 57.6v-25.6h-25.6v25.6H416zm16 61.8c2.5 0 4.9.6 7 1.7 5.3 2.6 9 8 9 14.3v57.6c0 6.3-3.7 11.8-9 14.4-2.1 1-4.5 1.6-7 1.6h-57.6c-2.5 0-4.9-.6-7-1.6-5.3-2.6-9-8.1-9-14.4v-57.6c0-6.3 3.7-11.7 9-14.3 2.1-1.1 4.5-1.7 7-1.7H432zm-16 57.6v-25.6h-25.6v25.6H416zm-41.6 61.9H432c2.5 0 4.9-.3 7 1.6 5.3 2.6 9 8.1 9 14.4V464c0 8.8-7.2 16-16 16h-57.6c-8.8 0-16-7.2-16-16v-57.6c0-6.3 3.7-11.8 9-14.4 2.1-1.9 4.5-1.6 7-1.6zM416 448v-25.6h-25.6V448H416z"/></svg>