<svg xmlns="http://www.w3.org/2000/svg" viewBox="0 0 448 512"><!--! Font Awesome Pro 6.1.1 by @fontawesome - https://fontawesome.com License - https://fontawesome.com/license (Commercial License) Copyright 2022 Fonticons, Inc.--><path d="M88 32c22.1 0 40 17.91 40 40v48c0 22.1-17.9 40-40 40H40c-22.09 0-40-17.9-40-40V72c0-22.09 17.91-40 40-40h48zm0 40H40v48h48V72zm0 120c22.1 0 40 17.9 40 40v48c0 22.1-17.9 40-40 40H40c-22.09 0-40-17.9-40-40v-48c0-22.1 17.91-40 40-40h48zm0 40H40v48h48v-48zM0 392c0-22.1 17.91-40 40-40h48c22.1 0 40 17.9 40 40v48c0 22.1-17.9 40-40 40H40c-22.09 0-40-17.9-40-40v-48zm40 48h48v-48H40v48zM248 32c22.1 0 40 17.91 40 40v48c0 22.1-17.9 40-40 40h-48c-22.1 0-40-17.9-40-40V72c0-22.09 17.9-40 40-40h48zm0 40h-48v48h48V72zm-88 160c0-22.1 17.9-40 40-40h48c22.1 0 40 17.9 40 40v48c0 22.1-17.9 40-40 40h-48c-22.1 0-40-17.9-40-40v-48zm40 48h48v-48h-48v48zm48 72c22.1 0 40 17.9 40 40v48c0 22.1-17.9 40-40 40h-48c-22.1 0-40-17.9-40-40v-48c0-22.1 17.9-40 40-40h48zm0 40h-48v48h48v-48zm72-320c0-22.09 17.9-40 40-40h48c22.1 0 40 17.91 40 40v48c0 22.1-17.9 40-40 40h-48c-22.1 0-40-17.9-40-40V72zm40 48h48V72h-48v48zm48 72c22.1 0 40 17.9 40 40v48c0 22.1-17.9 40-40 40h-48c-22.1 0-40-17.9-40-40v-48c0-22.1 17.9-40 40-40h48zm0 40h-48v48h48v-48zm-88 160c0-22.1 17.9-40 40-40h48c22.1 0 40 17.9 40 40v48c0 22.1-17.9 40-40 40h-48c-22.1 0-40-17.9-40-40v-48zm40 48h48v-48h-48v48z"/></svg>