<svg xmlns="http://www.w3.org/2000/svg" viewBox="0 0 512 512"><!--! Font Awesome Pro 6.1.1 by @fontawesome - https://fontawesome.com License - https://fontawesome.com/license (Commercial License) Copyright 2022 Fonticons, Inc.--><path d="M0 24C0 10.75 10.75 0 24 0h464c13.3 0 24 10.75 24 24s-10.7 24-24 24H24C10.75 48 0 37.25 0 24zm32 104c0-17.7 14.33-32 32-32h64c17.7 0 32 14.3 32 32v64c0 17.7-14.3 32-32 32H64c-17.67 0-32-14.3-32-32v-64zm80 48v-32H80v32h32zM32 416c0-17.7 14.33-32 32-32h64c17.7 0 32 14.3 32 32v64c0 17.7-14.3 32-32 32H64c-17.67 0-32-14.3-32-32v-64zm80 48v-32H80v32h32zM288 96c17.7 0 32 14.3 32 32v64c0 17.7-14.3 32-32 32h-64c-17.7 0-32-14.3-32-32v-64c0-17.7 14.3-32 32-32h64zm-48 48v32h32v-32h-32zm-48 272c0-17.7 14.3-32 32-32h64c17.7 0 32 14.3 32 32v64c0 17.7-14.3 32-32 32h-64c-17.7 0-32-14.3-32-32v-64zm80 48v-32h-32v32h32zM448 96c17.7 0 32 14.3 32 32v64c0 17.7-14.3 32-32 32h-64c-17.7 0-32-14.3-32-32v-64c0-17.7 14.3-32 32-32h64zm-48 48v32h32v-32h-32zm-48 272c0-17.7 14.3-32 32-32h64c17.7 0 32 14.3 32 32v64c0 17.7-14.3 32-32 32h-64c-17.7 0-32-14.3-32-32v-64zm80 48v-32h-32v32h32zm56-176c13.3 0 24 10.7 24 24s-10.7 24-24 24H24c-13.25 0-24-10.7-24-24s10.75-24 24-24h464z"/></svg>