<svg xmlns="http://www.w3.org/2000/svg" viewBox="0 0 256 512"><!--! Font Awesome Pro 6.1.1 by @fontawesome - https://fontawesome.com License - https://fontawesome.com/license (Commercial License) Copyright 2022 Fonticons, Inc.--><path d="M32 96c0-17.67 14.33-32 32-32s32 14.33 32 32c0 17.7-14.33 32-32 32s-32-14.3-32-32zm0 160c0-17.7 14.33-32 32-32s32 14.3 32 32-14.33 32-32 32-32-14.3-32-32zm64 160c0 17.7-14.33 32-32 32s-32-14.3-32-32 14.33-32 32-32 32 14.3 32 32zm64-320c0-17.67 14.3-32 32-32s32 14.33 32 32c0 17.7-14.3 32-32 32s-32-14.3-32-32zm64 160c0 17.7-14.3 32-32 32s-32-14.3-32-32 14.3-32 32-32 32 14.3 32 32zm-64 160c0-17.7 14.3-32 32-32s32 14.3 32 32-14.3 32-32 32-32-14.3-32-32z"/></svg>