<svg xmlns="http://www.w3.org/2000/svg" viewBox="0 0 448 512"><!--! Font Awesome Pro 6.1.1 by @fontawesome - https://fontawesome.com License - https://fontawesome.com/license (Commercial License) Copyright 2022 Fonticons, Inc.--><path d="M448 376c0 22.1-17.9 40-40 40h-48c-22.1 0-40-17.9-40-40v-48c0-22.1 17.9-40 40-40h48c22.1 0 40 17.9 40 40v48zm-40-48h-48v48h48v-48zm40-144c0 22.1-17.9 40-40 40h-48c-22.1 0-40-17.9-40-40v-48c0-22.1 17.9-40 40-40h48c22.1 0 40 17.9 40 40v48zm-40-48h-48v48h48v-48zM200 416c-22.1 0-40-17.9-40-40v-48c0-22.1 17.9-40 40-40h48c22.1 0 40 17.9 40 40v48c0 22.1-17.9 40-40 40h-48zm0-40h48v-48h-48v48zm88-192c0 22.1-17.9 40-40 40h-48c-22.1 0-40-17.9-40-40v-48c0-22.1 17.9-40 40-40h48c22.1 0 40 17.9 40 40v48zm-40-48h-48v48h48v-48zM40 416c-22.09 0-40-17.9-40-40v-48c0-22.1 17.91-40 40-40h48c22.1 0 40 17.9 40 40v48c0 22.1-17.9 40-40 40H40zm0-40h48v-48H40v48zm88-192c0 22.1-17.9 40-40 40H40c-22.09 0-40-17.9-40-40v-48c0-22.1 17.91-40 40-40h48c22.1 0 40 17.9 40 40v48zm-40-48H40v48h48v-48z"/></svg>