<svg xmlns="http://www.w3.org/2000/svg" viewBox="0 0 512 512"><!--! Font Awesome Pro 6.1.1 by @fontawesome - https://fontawesome.com License - https://fontawesome.com/license (Commercial License) Copyright 2022 Fonticons, Inc.--><path d="M158.3 81.43c1.1 4.68 1.7 9.56 1.7 14.57 0 35.3-28.6 64-64 64-5.01 0-9.89-.6-14.57-1.7-7.13 12.7-12.91 26.3-17.15 40.5-3.78 12.8-17.14 20-29.85 16.2-12.7-3.8-19.93-17.1-16.15-29.8 5.75-19.4 13.78-37.7 23.79-54.7C35.7 120.5 32 108.7 32 96c0-35.34 28.66-64 64-64 12.7 0 24.5 3.7 34.5 10.07 17-10.01 35.3-18.04 54.7-23.79 12.7-3.78 26 3.45 29.8 16.15 3.8 12.71-3.4 26.07-16.2 29.85-14.2 4.24-27.8 10.02-40.5 17.15zm223.2-39.36C391.5 35.7 403.3 32 416 32c35.4 0 64 28.66 64 64 0 12.7-3.7 24.5-10.1 34.5 10 17 17.2 35.3 23.8 54.7 3.8 12.7-3.4 26-16.1 29.8-12.7 3.8-26.1-3.4-29.9-16.2-4.2-14.2-10-27.8-17.1-40.5-4.7 1.1-9.6 1.7-14.6 1.7-35.3 0-64-28.7-64-64 0-5.01.6-9.89 1.7-14.57-13.6-7.13-26.3-12.91-40.5-17.15-12.7-3.78-20-17.14-16.2-29.85 3.8-12.7 17.1-19.93 29.9-16.15 19.3 5.75 37.6 13.78 54.6 23.79zM81.43 353.7c4.68-1.1 9.56-1.7 14.57-1.7 35.4 0 64 28.7 64 64 0 5-.6 9.9-1.7 14.6 12.7 7.1 26.3 12.9 40.5 17.1 12.8 3.8 20 17.2 16.2 29.9-3.8 12.7-17.1 19.9-29.8 16.1-19.4-6.6-37.7-13.8-54.7-23.8-10 6.4-21.8 10.1-34.5 10.1-35.34 0-64-28.6-64-64 0-12.7 3.7-24.5 10.07-34.5-10.01-17-18.04-35.3-23.79-54.6-3.78-12.8 3.45-26.1 16.15-29.9 12.71-3.8 26.07 3.5 29.85 16.2 4.24 14.2 10.02 26.9 17.15 40.5zm388.47 27.8c6.4 10 10.1 21.8 10.1 34.5 0 35.4-28.6 64-64 64-12.7 0-24.5-3.7-34.5-10.1-17 10-35.3 17.2-54.6 23.8-12.8 3.8-26.1-3.4-29.9-16.1-3.8-12.7 3.5-26.1 16.2-29.9 14.2-4.2 26.9-10 40.5-17.1-1.1-4.7-1.7-9.6-1.7-14.6 0-35.3 28.7-64 64-64 5 0 9.9.6 14.6 1.7 7.1-13.6 12.9-26.3 17.1-40.5 3.8-12.7 17.2-20 29.9-16.2 12.7 3.8 19.9 17.1 16.1 29.9-6.6 19.3-13.8 37.6-23.8 54.6zM192.8 256.8c0 24.8 14.1 46.4 34.9 57 11.8 6.1 16.5 20.5 10.5 32.3-6.1 11.8-20.5 16.5-32.3 10.5-36.2-18.5-61.1-56.2-61.1-99.8 0-28.9 11-55.2 28.9-75.1l-11.2-11.1c-7.4-6.6-1.9-17.8 7.4-17.8h60.5c5.7 0 10.4 4.7 10.4 10.4v60.5c0 8.4-11.2 13.9-17.8 7.3l-15.3-15.3c-9.3 11.1-14.9 25.4-14.9 41.1zm82.6-90.9c6.1-11.8 20.5-16.5 32.3-10.5 36.2 18.5 61.1 56.2 61.1 99.8 0 28.9-11 55.3-28.9 75.1l11.1 11.2c6.6 6.5 1.1 17.7-7.3 17.7h-60.5c-5.7 0-10.4-4.6-10.4-10.4v-60.5c0-9.2 11.2-13.9 17.8-8.2l15.3 16.2c9.3-11.1 14.9-25.4 14.9-41.1 0-24.8-14.1-46.4-34.9-57-11.8-6.1-16.5-20.5-10.5-32.3z"/></svg>