<svg xmlns="http://www.w3.org/2000/svg" viewBox="0 0 384 512"><!--! Font Awesome Pro 6.1.1 by @fontawesome - https://fontawesome.com License - https://fontawesome.com/license (Commercial License) Copyright 2022 Fonticons, Inc.--><path d="M216 24v41.49c42.8 5.33 81.2 24.74 110.4 53.41 9.5 9.3 9.6 24.5.3 33.9-9.2 9.5-24.4 9.6-33.9.4-20.6-21.1-47.1-35.1-76.8-40.1V232h144c13.3 0 24 10.7 24 24 0 97.9-73.3 178.7-168 190.5V488c0 13.3-10.7 24-24 24s-24-10.7-24-24v-41.5C73.29 434.7 0 353.9 0 256S73.29 77.3 168 65.49V24c0-13.25 10.7-24 24-24s24 10.75 24 24zm-48 89.1C99.9 125.4 48 184.6 48 256s51.9 130.6 120 142V113.1zM216 398c60.3-10.1 107.9-57.7 118-118H216v118z"/></svg>