<svg xmlns="http://www.w3.org/2000/svg" viewBox="0 0 512 512"><!--! Font Awesome Pro 6.1.1 by @fontawesome - https://fontawesome.com License - https://fontawesome.com/license (Commercial License) Copyright 2022 Fonticons, Inc.--><path d="M502.7 39.02 473 9.37c-12.5-12.5-32.74-12.49-45.24.01l-46.24 46.37c-3.876 3.876-6.848 8.507-8.598 13.76L355.302 123l-36.01 36C303.8 146.1 286.2 136 266.7 131.4c-9.4-2.3-18.9-3.4-28.5-3.4-26.4 0-51.2 9-69.7 27.4-10.13 10.25-17.75 22.75-22 36.5-6.6 20.2-25.3 35.7-46 37.6-25.84 2.5-49.85 12.5-68.22 31C-17.6 310.13-8.6 399.6 51.91 460.1 86.16 494.2 129.5 512 169.7 512c31 0 60.26-10.5 81.89-32.13 18.5-18.5 28.5-42.5 31-68.5 1.875-20.5 17.38-39.38 37.51-46 13.75-4.25 26.38-11.88 36.63-22 24.88-25 32.38-61.5 24-97.1-4.626-19.5-14.63-37.13-27.5-52.63l35.88-36 53.45-17.66a36.095 36.095 0 0 0 13.77-8.59l46.36-46.29C515 71.72 515 51.52 502.7 39.02zM305.3 319.8c-38.51 12.5-66.88 47.62-70.51 87.12C229.9 457.1 186.5 464 169.7 464c-29.25 0-59.76-13.75-83.76-37.88-24-24-37.88-54.63-37.88-83.88 0-16.75 7.001-60.12 57.01-65 39.63-3.64 74.63-32.04 87.13-70.64 10.88-33.75 56.13-41.75 92.89-13.5l-64.79 64.7c-21.4-5.9-44 3.2-55.3 22.3-11.13 19.12-8.001 43.5 7.626 59.12C188.3 355 212.6 358.1 231.8 347c19.13-11.12 28.38-33.88 22.5-55.25L319.1 227c26.5 34.5 22 81.2-13.8 92.8z"/></svg>