<svg xmlns="http://www.w3.org/2000/svg" viewBox="0 0 512 512"><!--! Font Awesome Pro 6.1.1 by @fontawesome - https://fontawesome.com License - https://fontawesome.com/license (Commercial License) Copyright 2022 Fonticons, Inc.--><path d="M511.2 39.56c-3.624-19.25-18.62-34.41-37.87-38.29-22.87-4.25-22.75-.583-106.6 53.66-9.249 5.875-14.75 15.1-14.75 26.1v44.58l-83.22 83.24c-2.874-3.625-3.624-8.625-1.75-12.87l15.87-34.12c8.5-18.12 2.75-39.75-13.75-51.25-16.43-10.61-38.73-8.71-52.93 5.49l-36.1 35.3c-10 10-16.7 22.1-21.5 35.4-4.4 12-13.2 21.7-24.7 27.1l-70.4 32.6c-30.1 12.37-54.37 40.37-61.37 74.37-6.999 33.87 3.502 68.1 27.1 93.5l67.5 67.5c24.5 24.5 59.62 34.1 93.49 27.1 33.87-6.875 61.1-30.5 74.87-62.62l31.1-69.12c5.374-11.5 15.25-20.37 27.12-24.75 13.37-4.75 25.5-12.37 35.5-22.37l19.87-19.87c16.5-16.5 16.5-43.25 0-59.75-17.62-17.62-38.87-11.62-42.75-10.37l-21.87 6.937c-6.999 2.25-11.5-1.813-13.5-3.937l149.3-149.4c3.999 1.125 8.124 1.75 12.25 1.75 14.25 0 27.87-6.333 36.99-17.33 11-10.08 14.7-24.58 12.1-38.58zM312.1 288.5c5.374 0 10.75-.875 15.1-2.5l24.12-6.375-19.87 23.12c-5.874 5.75-12.87 10.12-20.62 12.1-21.1 7.875-39.99 24.25-49.99 45.5l-32.87 71.12c-7.874 19.62-24.1 33.1-45.74 38.25-20.75 4.25-42.12-2.125-57.12-17.12l-67.49-67.5a62.112 62.112 0 0 1-17.25-57.12c4.374-21.12 18.37-37.75 39.12-46.12l70.24-32.5c21.37-9.1 37.74-27.1 45.62-49.1 2.75-7.75 7.249-14.75 12.1-20.62l36.24-35.62L230.7 180c-9.2 20.1-5.1 43.9 10.5 59.5l33.62 33.62c9.88 9.88 23.28 15.38 37.28 15.38zm-177.5 36.3c-6.249-6.25-16.37-6.25-22.62 0l-11.37 11.25c-6.249 6.25-6.249 16.37 0 22.62l52.74 52.62c6.249 6.25 16.37 6.25 22.62 0l11.25-11.25c6.249-6.25 6.249-16.37 0-22.62L134.6 324.8zm64-64c-6.249-6.25-16.37-6.25-22.62 0L164.6 272c-6.249 6.25-6.249 16.37 0 22.62l52.74 52.62c6.249 6.25 16.37 6.25 22.62 0l11.25-11.25c6.249-6.25 6.249-16.37 0-22.62L198.6 260.8z"/></svg>