<svg xmlns="http://www.w3.org/2000/svg" viewBox="0 0 512 512"><!--! Font Awesome Pro 6.1.1 by @fontawesome - https://fontawesome.com License - https://fontawesome.com/license (Commercial License) Copyright 2022 Fonticons, Inc.--><path d="M188.1 444.1c-15.37 12.62-37.37 19.87-60.12 19.87s-44.75-7.25-60.12-19.87c-7.375-6.125-19.87-18.1-19.87-37.25 0-9.375 3.625-18.62 10.75-27.25 22.1-27.87 27.37-68.5 10.62-101.2-12.86-25.2 17.02-42.7 17.39-42.9 4.38-2.6 10.38-4.6 16.35-6V312c0 13.25 10.75 24 24 24s23.1-10.75 23.1-24v-82.5c6.875 1.375 12.1 3.375 17.25 5.1 15.1 9.1 25.1 26.12 17.37 42.87-16.75 32.75-12.37 73.37 10.62 101.1 1.1 2.375 2.1 4.875 4.375 7.375l23.12-62.1C224.1 315.7 225.7 307.5 229.3 300.2c.125-.25.208-.5.333-.75-.233-4.85-1.533-9.55-3.533-14.05-6.625-13.1-10.12-29.25-10.12-44.62V212.9c-.1-1.125-1.875-2.375-2.875-3.375C207.5 203.9 201.2 199.1 194.5 194.8c-12.8-8-27.5-12-42.5-13.8v-54.3l16.59-33.19c1.1-3.1 3.033-8.565 3.033-13.06V26.37C171.6 11.88 159.9 0 145.3 0h-34.5C96.18 0 84.3 11.91 84.3 26.41V80.5c0 4.5 1.098 8.947 3.098 12.95l16.66 33.3V181c-15.038 1.9-29.808 5.9-42.678 13.9-6.75 3.2-12.88 9-18.5 14.6-15.37 15.37-24.62 35-24.62 56.62 0 11.88 2.875 23.63 8.375 34.12 7.1 15.62 5.1 35.63-4.875 48.75C8.14 365.49-.11 385.37.01 406.09c-.125 57.1 57.38 105 127.1 105 28.37.125 56.12-8.001 79.87-23.5-8.75-14.87-13.1-31.37-15.25-48.62-1.63 2.53-2.23 3.13-3.63 5.13zm211-61H336c-8.875 0-15.1 7.125-15.1 15.1l.007 16.06c0 8.875 7.125 15.1 15.1 15.1h64c8.875 0 15.1-7.125 15.1-15.1l-.008-16.06c.001-7.1-6.199-15.1-15.999-15.1zm106.4 17.8-26.1-73.5c-6.625-18.25-5.75-38.25 2.625-55.75 4.625-9.75 6.1-20.25 6.1-30.1V212.4c0-4.1-1.875-9.625-5.375-13.13-3.5-3.5-8.125-5.375-13.12-5.375-6.875 0-13.25 3.875-16.37 10l-10.62 20.5C437.2 234.7 427.2 238 415.1 240H392V73.37c1.75-1.125 3.5-2.375 5.125-3.75 11.62-11.75 15.12-29.25 8.75-44.5C399.6 9.875 384.7 0 368.2 0c-7.1 0-15.87 2.375-22.62 6.875-16.37 11.13-13.1 13.25-31.87 96.25-1.875 8.1.875 18.37 7.375 24.1l22.87 22.87V240h-23.1c-11.25-2.1-20.87-8.501-24.1-19.88L281.1 184.4c-2.5-6.875-9.125-11.5-16.37-11.5-9.75 0-17.5 7.875-17.5 17.5v50.3c0 10.75 2.375 21.25 6.1 30.1 8.25 17.5 9.125 37.5 2.5 55.75l-26.1 73.5c-22.62 52.5 15.87 110.1 73.12 110.1h128.4c58.15.95 95.85-56.75 74.25-109.25zm-73.4 62.2H303.7c-28.87 0-35.5-29.25-29.12-44.12.375-.875-2.1 8.5 27.1-75.87 6.42-17.01 9.52-36.21 7.42-55.11 0 0 116.9.125 117.7 0-1.875 18 .25 38.62 6.625 55.87 30.87 84.37 27.5 74.1 27.87 75.87C472.7 446.2 448.4 463.1 432.1 463.1z"/></svg>