<svg xmlns="http://www.w3.org/2000/svg" viewBox="0 0 576 512"><!--! Font Awesome Pro 6.1.1 by @fontawesome - https://fontawesome.com License - https://fontawesome.com/license (Commercial License) Copyright 2022 Fonticons, Inc.--><path d="M560 128h-16c0-35.35-28.65-64-64-64H128v-8c0-13.26-10.7-24-24-24S80 42.74 80 56v9.613C34.64 73.27 0 112.5 0 160c0 47.94 35.24 87.33 81.16 94.5L33.25 439.2c-5.84 20.4 9.51 40.8 30.77 40.8h103.8c14.29 0 26.84-9.469 30.77-23.21L220.6 376H272v16c0 13.25 10.75 24 24 24s24-10.7 24-24v-80c0-13.3-10.7-24-24-24s-24 10.7-24 24v16h-38.4l19.6-72H480c35.35 0 64-28.65 64-64h16c8.8 0 16-7.2 16-16v-32c0-8.8-7.2-16-16-16zM155.6 432H84.71l45.69-176h73.11L155.6 432zM496 192c0 8.824-7.178 16-16 16H96c-26.47 0-48-21.5-48-48s21.53-48 48-48h384c8.822 0 16 7.176 16 16v64zm-48-48H96c-8.84 0-16 7.2-16 16s7.16 16 16 16h352c8.844 0 16-7.156 16-16s-7.2-16-16-16z"/></svg>