<svg xmlns="http://www.w3.org/2000/svg" viewBox="0 0 640 512"><!--! Font Awesome Pro 6.1.1 by @fontawesome - https://fontawesome.com License - https://fontawesome.com/license (Commercial License) Copyright 2022 Fonticons, Inc.--><path d="M630.8 469.1 411.5 297.2l19.1-57.2h36.1c8.486 0 16.62-3.373 22.63-9.373L512 208h64c17.67 0 32-14.33 32-32V96c0-17.67-14.33-32-32-32h-16v-8c0-13.26-10.7-24-24-24s-24 10.74-24 24v8H113.1L38.81 5.109A23.96 23.96 0 0 0 24.03 0C16.91 0 9.846 3.156 5.127 9.188-3.061 19.62-1.248 34.72 9.189 42.89l591.1 463.1c10.5 8.203 25.56 6.328 33.69-4.078C643.1 492.4 641.2 477.3 630.8 469.1zM371.4 265.8 338.5 240h41.52l-8.62 25.8zM277.3 192l-102.1-80H560v48h-67.88l-31.1 32H277.3zm-73.8 240h-86.89l35.44-138c5.25-18.3 3.85-37.2-3.55-54h34.32l-61.22-48H80v-32.6l-48-37.6v75.06C32 220.7 51.33 240 75.17 240c21.26 0 36.61 20.35 30.77 40.79l-40.69 158.4C59.41 459.7 74.76 480 96.02 480h119.8c14.29 0 26.84-9.469 30.77-23.21L274.4 352h51.39l-83.69-65.6L203.5 432z"/></svg>