<svg xmlns="http://www.w3.org/2000/svg" viewBox="0 0 640 512"><!--! Font Awesome Pro 6.1.1 by @fontawesome - https://fontawesome.com License - https://fontawesome.com/license (Commercial License) Copyright 2022 Fonticons, Inc.--><path d="M616 64.22c-13.25 0-24 10.75-24 24V256H424.7l30.83-163.3c2.469-13-6.094-25.56-19.12-28.03-12.98-2.406-25.58 6.125-28.03 19.16l-36.2 191.8c-1.328 7 .547 14.25 5.094 19.75C381.9 300.8 388.7 304 395.8 304H592v120.2c0 13.25 10.75 24 24 24s24-10.75 24-24v-336c0-13.23-10.7-23.98-24-23.98zM296 64c-13.2 0-24 10.75-24 24v136H48V88c0-13.25-10.75-24-24-24S0 74.75 0 88v336c0 13.3 10.75 24 24 24s24-10.75 24-24V272h224v152c0 13.3 10.8 24 24 24s24-10.7 24-24V88c0-13.25-10.7-24-24-24z"/></svg>