<svg xmlns="http://www.w3.org/2000/svg" viewBox="0 0 640 512"><!--! Font Awesome Pro 6.1.1 by @fontawesome - https://fontawesome.com License - https://fontawesome.com/license (Commercial License) Copyright 2022 Fonticons, Inc.--><path d="M48 224h224V88c0-13.25 10.7-24 24-24s24 10.75 24 24v336c0 13.3-10.7 24-24 24s-24-10.7-24-24V272H48v152c0 13.3-10.75 24-24 24S0 437.3 0 424V88c0-13.25 10.75-24 24-24s24 10.75 24 24v136zM584 64c13.3 0 24 10.75 24 24 0 13.3-10.7 24-24 24H459.7l-22.4 112H528c61.9 0 112 50.1 112 112s-50.1 112-112 112h-63.6c-34.5 0-65-22.9-75.9-54.7l-3.3-9.7c-4.2-12.6 2.6-26.2 15.2-30.4 11.7-4.2 26.2 2.6 30.4 15.2l3.2 9.7c4.4 13.1 16.6 21.9 30.4 21.9H528c35.3 0 64-28.7 64-64s-28.7-64-64-64H408c-7.2 0-14.9-3.2-18.6-8.8-4.5-5.5-6.3-12.9-4.9-19.9l32-160.01C418.7 72.07 428.6 64 440 64h144z"/></svg>