<svg xmlns="http://www.w3.org/2000/svg" viewBox="0 0 640 512"><!--! Font Awesome Pro 6.1.1 by @fontawesome - https://fontawesome.com License - https://fontawesome.com/license (Commercial License) Copyright 2022 Fonticons, Inc.--><path d="M48 224h224V88c0-13.25 10.7-24 24-24s24 10.75 24 24v336c0 13.3-10.7 24-24 24s-24-10.7-24-24V272H48v152c0 13.3-10.75 24-24 24S0 437.3 0 424V88c0-13.25 10.75-24 24-24s24 10.75 24 24v136zM518.1 69.26c11.2 8.28 12.9 23.38 4.6 32.84L476 161.4c6.6-.9 13.2-1.4 20-1.4 79.5 0 144 64.5 144 144s-64.5 144-144 144-144-64.5-144-144c0-2.7.1-5.4.2-8h-.2c0-36.5 12.4-72 35.2-100.5l98.1-122.49c8.2-10.35 23.3-12.03 32.8-3.75zM496 400c53 0 96-43 96-96 0-53.9-43-96-96-96-53.9 0-96 42.1-96 96 0 53 42.1 96 96 96z"/></svg>