<svg xmlns="http://www.w3.org/2000/svg" viewBox="0 0 640 512"><!--! Font Awesome Pro 6.1.1 by @fontawesome - https://fontawesome.com License - https://fontawesome.com/license (Commercial License) Copyright 2022 Fonticons, Inc.--><path d="m627.1 202.7-70.85-36.77 24.06-76.1c2.719-8.543.447-17.89-5.889-24.22s-15.68-8.607-24.22-5.887l-76.1 24.06-36.77-70.85c-6.111-11.74-20.61-16.32-32.38-10.24-11.74 6.111-16.32 20.61-10.24 32.38l46.08 88.74c5.377 10.37 17.44 15.36 28.54 11.84l51.26-16.22-16.22 51.27c-3.52 11.1 1.473 23.17 11.84 28.54l47.71 24.77-47.71 24.77c-10.37 5.377-15.36 17.44-11.84 28.54l16.22 51.26-51.26-16.22c-11.1-3.52-23.17 1.473-28.54 11.84l-24.77 47.71-24.77-47.71c-5.375-10.37-17.44-15.36-28.54-11.84l-95.36 30.18c-12.64 4-19.62 17.5-15.62 30.14 4 12.64 17.47 19.62 30.11 15.62l76.1-24.06 36.77 70.85a24.03 24.03 0 0 0 21.31 12.93 24.03 24.03 0 0 0 21.31-12.93l36.77-70.85 76.1 24.06a23.964 23.964 0 0 0 30.109-30.109l-24.06-76.1 70.85-36.77a24.033 24.033 0 0 0 12.93-21.31C640 215 635 206.8 627.1 202.7zm-265.2 64.1 48-83.13c15.46-26.79 6.273-61.02-20.51-76.51l-55.42-32-83.14-48-20.23-11.68a56.207 56.207 0 0 0-28-7.488h-87.3c-20.73 0-39.78 11.46-49.47 29.76L41.26 84.05c-14.11 26.62-4.607 59.65 21.47 74.72l82.53 47.65-138.5 233.1C-6.81 462.31.68 491.74 23.5 505.28c22.79 13.57 52.22 6.08 65.76-16.74l139.2-234.1 56.99 32.93c26.75 15.43 61.05 6.23 76.45-20.57zM86.73 117.2c-3.71-2.1-5.09-6.9-3.07-10.7l24.54-46.27a8.02 8.02 0 0 1 7.1-4.24h87.3c1.408 0 2.783.385 4 1.057l20.29 11.74 83.14 48 55.42 32a7.968 7.968 0 0 1 2.943 10.91l-48 83.13c-2.207 3.842-7.104 5.152-10.94 2.945L86.73 117.2z"/></svg>