<svg xmlns="http://www.w3.org/2000/svg" viewBox="0 0 512 512"><!--! Font Awesome Pro 6.1.1 by @fontawesome - https://fontawesome.com License - https://fontawesome.com/license (Commercial License) Copyright 2022 Fonticons, Inc.--><path d="M256 288c-53.01 0-96.01 64-96.01 64s42.1 64 96.01 64 96.01-64 96.01-64S309 288 256 288zm0 96c-17.63 0-32-14.38-32-32s14.37-32 32-32c17.63 0 32 14.38 32 32s-14.4 32-32 32zm249.6-100.6C493.8 257.1 467.3 240 438 240h-6V113.8c0-39.75-28.75-74.5-67.01-80.75C360.7 32.38 356.3 32 352 32c-10.25 0-19.99 1.875-28.86 5.375-12-18.88-31.38-32.62-54.01-36.38C264.8.375 260.4 0 256 0c-28.4 0-53.4 14.88-67.6 37.25-4.9-1.87-10-3.37-15.3-4.25-4.5-.62-8.8-1-13.1-1-44.1 0-80.01 35.88-80.01 80v128h-6c-29.25 0-55.76 17.12-67.63 43.5-12.13 27.12-6.626 58.63 14.13 80.13l83.39 86.5C141.9 489.4 197.4 512 256 512s114.2-22.62 152.2-61.88l83.39-86.5c20.71-21.52 26.21-53.02 14.01-80.22zM457 330.2l-83.51 86.5C344.7 446.8 301.8 464 256 464s-88.51-17.25-117.5-47.25l-83.51-86.5c-7.001-7.25-8.876-18-4.751-27.12C54.36 294 63.74 288 73.99 288h53.11V112c0-17.62 14.38-32 32-32 1.75 0 3.626.125 5.376.5C181.1 83 192 97.75 192 113.8l.004 94.32C192 216.8 199.2 224 207.1 224c8.785 0 16.05-7.152 16.05-15.94L224 80c0-17.62 14.38-32 32-32 1.75 0 3.5.125 5.376.5 15.75 2.5 26.63 17.25 26.63 33.25l-.002 126.3C288 216.8 295.2 224 303.1 224c8.856 0 16.05-7.17 15.95-16.02.55-30.08-.15-92.18.95-95.98 0-17.62 14.25-32 32-32 3.531 0 7.061.509 11.62 2.552 12.56 5.63 20.39 18.48 20.39 32.24L384 288h54.01c10.38 0 19.63 6 23.75 15.12C466 312.2 464 323 457 330.2z"/></svg>