<svg xmlns="http://www.w3.org/2000/svg" viewBox="0 0 640 512"><!--! Font Awesome Pro 6.1.1 by @fontawesome - https://fontawesome.com License - https://fontawesome.com/license (Commercial License) Copyright 2022 Fonticons, Inc.--><path d="M640 328c0 13.25-10.75 24-24 24l-129.8-.158c-1.875 8.248-5.375 16.12-11 22.99l-26.12 32.24c-15.88 19.49-41.88 25.49-64 16.87-13.5 16.62-30.62 23.99-48.88 23.99-15 0-28.5-5.123-41-15.87-31.88 21.87-74.75 21.24-105.6-3.875L105 351.8l-81 .2c-13.25 0-24-10.7-24-24s10.75-24 24-24l99.75-.143L221 391.8c16.12 13.12 41.38 10.5 55.25-6.623l15.62-19.12 36.88 31.49c2 1.625 5.5 2.75 9 2.375s6.75-2.123 9-4.873l30-36.49 23.88 19.49c3.5 2.748 8.5 2.123 11.25-1.25l26.12-32.24a7.95 7.95 0 0 0-1.168-11.18l-108.2-87.79-8.25 7.496c-40.25 36.74-86.63 11.75-101.5-4.498-26.62-28.99-25-74.35 4.375-101.2l38.75-35.49-35.907-.797c-16.4 0-32.9 7-44.9 20.2l-43.3 44.5L24 176c-13.25 0-24-10.7-24-24s10.75-24 24-24l93.1-.21 26.39-26.38c24-23.99 56.55-37.47 90.5-37.47h167.5c33.88 0 66.38 13.43 90.38 37.36l26.45 26.37L616 128c13.3 0 24 10.7 24 24 0 13.25-10.75 24-24 24l-116.8-.352-48.65-46.19a63.983 63.983 0 0 0-44.26-17.59l-58.1.174a40.324 40.324 0 0 0-27.12 10.6l-65.38 60c-9.625 8.748-10.5 23.99-1.125 33.99 8.875 9.371 25.12 8.621 34.63 0l55.13-50.61c6.5-5.873 16.62-5.498 22.62 1l10.88 11.75c6 6.498 5.5 16.62-1 22.62l-12.5 11.37 102.8 83.35c2.75 2.375 5.375 4.998 7.625 7.748L616 304c13.3 0 24 10.7 24 24z"/></svg>