<svg xmlns="http://www.w3.org/2000/svg" viewBox="0 0 640 512"><!--! Font Awesome Pro 6.1.1 by @fontawesome - https://fontawesome.com License - https://fontawesome.com/license (Commercial License) Copyright 2022 Fonticons, Inc.--><path d="M640 172.6v189.1c0 25.51-8.635 50.28-24.5 70.26l-54.12 70.95C553.3 513.1 538.5 515 528 507.2c-10.9-8.174-12.88-23.74-4.365-34.38l54.36-70.87C587.1 390.6 592 376.5 592 362V168.8c0-11.62-7.75-22.25-19.25-24.38C557.5 141.4 544 153.2 544 167.9c0 0-.25 101-.25 132.6 0 7.625-2.875 14.75-7.875 20.62l-76.5 92.5c-4.375 5.375-10.62 8-17 8-5.75 0-11.62-2.25-16.12-7-7.5-7.875-7.25-20.38-.75-29.12l49.5-67c8.125-10.5 6.125-25.62-4.375-33.75-4.375-3.375-9.5-5-14.62-5-7.25 0-14.25 3.25-19.12 9.375l-71.85 93.55a63.54 63.54 0 0 0-13.15 38.7l.094 58.56c0 17.55-14.43 31.84-31.97 31.92-17.54-.074-31.97-14.36-31.97-31.92l.094-58.56c0-13.1-4.621-27.6-13.15-38.7L203.1 289.2c-4.8-6.2-11.8-9.4-19.1-9.4a23.787 23.787 0 0 0-14.62 5c-10.48 8.1-12.48 23.2-4.38 33.7l49.5 67c6.5 8.75 6.75 21.25-.75 29.12-4.5 4.75-10.38 7-16.12 7-6.375 0-12.62-2.625-17-8l-76.5-92.5c-5-5.875-7.875-13-7.875-20.62C96.25 268.9 96 167.9 96 167.9c0-14.75-13.5-26.5-28.75-23.5C55.75 146.5 48 157.2 48 168.8V362c0 14.51 4.938 28.58 13.1 39.91l54.37 70.87c9.43 10.62 7.43 25.32-3.47 34.42-10.46 7.842-25.25 5.936-33.38-4.301L24.5 431.9C8.635 411.9 0 387.2 0 361.7V172.6c0-37.73 26.98-72.27 64.51-76.18C107.5 91.91 144 125.8 144 167.9l.25 76c11.62-7.75 25.62-12 39.75-12 22.38 0 43.25 10.25 57 28l71.75 93.25c2.75 3.55 5.05 7.55 7.25 11.25 2.25-3.75 4.5-7.75 7.25-11.25L399 259.9c13.75-17.75 34.63-28 57-28 14.12 0 28.12 4.25 39.75 12l.25-76c0-42.11 36.47-76.01 79.49-71.52C613 100.3 640 134.8 640 172.6z"/></svg>