<svg xmlns="http://www.w3.org/2000/svg" viewBox="0 0 640 512"><!--! Font Awesome Pro 6.1.1 by @fontawesome - https://fontawesome.com License - https://fontawesome.com/license (Commercial License) Copyright 2022 Fonticons, Inc.--><path d="M88 0c39.8 0 72 32.24 72 72v66.3c.5-.4 1-.9 1.6-2.2 29.8-24.3 74.3-22 100.2 8.1l46.7 52.5c4.2 4.7 8 9.6 11.5 14.8 3.5-5.2 7.3-10.1 11.5-14.8l46.7-52.5c25.9-30.1 70.4-32.4 100.2-8.1-.3 1.3 1.1 1.8 1.6 2.2V72c0-39.76 32.2-72 72-72s72 32.24 72 72v134.6c0 22.1-7.4 43.7-21.1 61.2l-69.1 88.5c5.3 4.4 10.2 11.6 10.2 19.7 0 13.3-10.7 24-24 24H120c-13.3 0-24-10.7-24-24 0-8.1 4-15.3 10.2-19.7l-69.13-88.5C23.42 250.3 16 228.7 16 206.6V72C16 32.24 48.24 0 88 0zm75.8 352H296v-61.9c0-22.7-8.3-44.6-23.4-61.5l-46.7-52.5c-8.6-9.8-23.4-10.8-33.4-2.4-6.6 5.6-9.5 14.1-8.2 22.1.6 4 2.3 7.8 5 10.3l31.2 40c.2.2.3.4-.4.5 9 10.8 6.3 25.5-6 33.8-9.3 6.5-22.7 4.3-30.2-5.1-.1-.2-.3-.4-.4-.5L112 179.4V71.1c0-12.36-10.7-24-24-24-13.25 0-24 11.64-24 24v135.5c0 11.4 3.84 22.6 10.9 31.6L163.8 352zm180.2 0h132.2l88.9-113.8c7.1-9 10.9-20.2 10.9-31.6V72c0-13.25-10.7-24-24-24s-24 10.75-24 24v107.4l-71.5 95.4c-.1.1-.3.3-.4.5-7.5 9.4-20.9 11.6-31.1 5.1-11.4-8.3-14.1-23-6-33.8.2-.1.3-.3.5-.5l31.2-40c2.7-2.5 4.4-6.3 5-10.3.4-8-1.6-16.5-8.2-22.1-10-8.4-24.8-7.4-33.4 2.4l-46.7 52.5c-15.1 16.9-23.4 38.8-23.4 61.5V352zm176 72c13.3 0 24 10.7 24 24s-10.7 24-24 24h-8v16c0 13.3-10.7 24-24 24s-24-10.7-24-24v-16H344v16c0 13.3-10.7 24-24 24s-24-10.7-24-24v-16H176v16c0 13.3-10.7 24-24 24s-24-10.7-24-24v-16h-8c-13.3 0-24-10.7-24-24s10.7-24 24-24h400z"/></svg>