<svg xmlns="http://www.w3.org/2000/svg" viewBox="0 0 576 512"><!--! Font Awesome Pro 6.1.1 by @fontawesome - https://fontawesome.com License - https://fontawesome.com/license (Commercial License) Copyright 2022 Fonticons, Inc.--><path d="M250.8 192h13.25v40c-.05 13.2 10.75 24 23.95 24s24.02-10.8 24.02-23.1V192h13.25c85.39 0 154.8-75.38 154.8-168 0-13.25-10.75-24-24-24H418.8C363.54 0 315.4 31.75 288 79 260.7 31.75 212.5 0 157.3 0H120c-13.2 0-23.99 10.75-23.99 23.1 0 93.5 69.39 168.9 154.79 168.9zm168-144h11.13c-9.876 54.75-53.01 96-104.5 96H314.3c9.9-54.75 53-96 104.5-96zm-261.5 0c51.51 0 94.64 41.25 104.5 96h-11.1c-51.51 0-94.64-41.25-104.5-96h11.1zm393.8 264c-31.13-26.38-69.26-16.12-88.39-1.75l-60.38 45.5h-3.375c-.125-38-30.5-67.88-69.13-67.88H186.7c-28.38 0-56.38 9.375-78.51 26.37L79.76 336H24c-13.2 0-24 10.8-24 23.1S10.8 384 24 384l72-.024 41.26-31.48C151.3 341.8 168.8 336 186.8 336h144c27.88 0 29 40.25-1.125 40.25h-59.88c-7.501 0-13.75 6.125-13.75 13.75s6.251 13.87 13.75 13.87h134.6c9.711 0 19.16-3.159 26.92-9l61.26-46.12c8.251-6.125 20.5-6.625 28.38 0 10.13 8.5 9.376 23.12-.875 30.75L419.48 455c-7.78 5.8-17.18 9-26.88 9H24c-13.2 0-24 10.8-24 23.1S10.8 512 24 512h368.8c20 0 39.38-6.5 55.26-18.5l100.8-75.88c16.63-12.5 26.5-31.5 27.13-52 .71-20.52-8.19-40.12-24.89-53.62z"/></svg>