<svg xmlns="http://www.w3.org/2000/svg" viewBox="0 0 640 512"><!--! Font Awesome Pro 6.1.1 by @fontawesome - https://fontawesome.com License - https://fontawesome.com/license (Commercial License) Copyright 2022 Fonticons, Inc.--><path d="M346.8 395.1c-2.25 2.75-5.5 4.498-9 4.873s-7-.75-9-2.375l-36.88-31.49-15.62 19.12c-13.88 17.12-39.13 19.74-55.25 6.623L123.8 303.9 24 304c-13.25 0-24 10.7-24 24s10.75 24 24 24l81-.158 84.63 76.35c30.88 25.12 73.75 25.74 105.6 3.875 12.5 10.75 26 15.87 41 15.87 18.25 0 35.38-7.373 48.88-23.99 11.23 4.377 23.44 4.91 34.84 1.898l-59.9-46.95L346.8 395.1zM616 352c13.25 0 24-10.75 24-24 0-13.26-10.75-24-24-24H420.2l-83.7-65.6 40.42-37.01c6.5-5.998 7-16.12 1-22.62L367 167c-6-6.498-16.12-6.873-22.62-1l-46.17 42.39-38.01-29.79 60.97-55.95a40.28 40.28 0 0 1 27.12-10.6l58.1-.174a63.989 63.989 0 0 1 44.26 17.59l48.65 46.19L616 176c13.3 0 24-10.7 24-24s-10.7-24-24-24l-96.75-.336-26.45-26.37a128.005 128.005 0 0 0-90.38-37.36H234.9c-30.26 0-59.06 11.22-82.04 30.54L38.81 5.11A23.96 23.96 0 0 0 24.03 0C16.905 0 9.84 3.156 5.12 9.187-3.06 19.62-1.247 34.72 9.19 42.89L601.2 506.9c10.5 8.203 25.56 6.328 33.69-4.078 8.188-10.44 6.375-25.53-4.062-33.7l-145.6-114.1c.299-1.059.82-2.051 1.064-3.123L616 352zM222.1 148.7l-31.9-24.9c10.7-7.6 23.5-12.7 35.9-12.7l35.05-.045L223.3 147.4c-.5.4-.8.9-1.2 1.3zM24 176l77-.152L39.93 127.1 24 128c-13.25 0-24 10.7-24 24s10.75 24 24 24z"/></svg>