<svg xmlns="http://www.w3.org/2000/svg" viewBox="0 0 640 512"><!--! Font Awesome Pro 6.1.1 by @fontawesome - https://fontawesome.com License - https://fontawesome.com/license (Commercial License) Copyright 2022 Fonticons, Inc.--><path d="M279.1 40c0-22.09 18.8-40 40-40 23 0 40.9 17.91 40.9 40s-17.9 40-40.9 40c-21.2 0-40-17.91-40-40zm96.7 213c1.7 13.2-7.7 25.2-21.7 26.8-12.3 1.7-24.3-7.7-25.9-21.7l-4.4-35h-7.6l-4.4 35c-1.6 14-13.6 23.4-26.8 21.7-13.1-1.6-22.5-13.6-20.8-26.8l11.1-88.7-19.8 15.8c-10.1 9.5-25.3 8.2-33.8-1.9-8.6-10.2-7.3-25.3 2.8-33.9l41.5-35.1c10.1-8.5 22.9-13.2 36.2-13.2h35.6c13.3 0 26.1 4.7 35.3 13.2l42.4 35.1c10.1 8.6 11.4 23.7 2.8 33.9-8.5 10.1-23.7 11.4-33.8 1.9l-19.8-15.8 11.1 88.7zm239.7 178.9-54.1 71c-8.1 10.2-22.9 12.1-33.4 4.3-10.9-9.1-12.9-23.8-4.4-34.4l54.4-70.9c9.1-11.3 14-25.4 14-39.9V168.8c0-11.6-7.8-22.3-19.3-24.4-15.2-3-28.7 8.8-28.7 23.5 0 0-.2 101-.2 132.6 0 7.7-2.9 14.8-7.9 20.7l-76.5 92.5c-5.3 5.3-10.7 8-17 8-5.8 0-11.7-2.3-16.2-7-7.5-7.9-8.1-20.4-.7-29.2l48.6-67c9-10.5 7-25.6-3.5-33.7-4.4-3.4-9.5-5-14.6-5-7.3 0-14.2 3.2-19.1 9.4L365 382.7a63.64 63.64 0 0 0-13.1 38.7l-.8 57.7c0 18.4-13.6 32.7-32 32.8-16.6-.1-31.1-14.4-31.1-32.8l.1-57.7c0-14-4.6-27.6-14-38.7l-71-93.5c-4.9-6.2-11.9-9.4-20-9.4-4.2 0-9.4 1.6-13.7 5-10.5 8.1-12.5 23.2-5.3 33.7l50.4 67c5.6 8.8 6.7 21.3-.8 29.2-4.5 4.7-10.3 7-16.1 7-6.4 0-13.5-2.7-17-8l-76.5-92.5c-4.98-5.9-7.85-13-7.85-20.7 0-31.6-1.15-132.6-1.15-132.6 0-14.7-12.6-26.5-27.85-23.5-11.5 2.1-20.15 12.8-20.15 24.4V362c0 14.5 5.84 28.6 14 39.9l55.3 70.9c8.5 10.6 6.5 25.3-4.4 34.4-10.5 7.8-25.25 5.9-33.38-4.3l-54.12-71C8.635 411.9 0 387.2 0 361.7V172.6c0-37.7 26.98-72.3 64.51-76.2C107.5 91.92 144 125.8 144 167.9l.2 76c11.7-7.7 25.7-12 39.8-12 22.4 0 43.2 10.3 57 28l71.8 93.3c2.3 2.9 4.2 6.2 6.1 9.4.4.6.7 1.2 1.1 1.8.4-.6.7-1.2 1.1-1.8 1-3.2 3.8-6.5 6.2-9.4l71.7-93.3c13.7-17.7 34.6-28 57-28 14.1 0 28.1 4.3 39.8 12l.2-76c0-42.1 36.5-75.98 79.5-71.5 37.5 3.9 64.5 38.5 64.5 76.2v189.1c0 25.5-8.6 50.2-24.5 70.2z"/></svg>