<svg xmlns="http://www.w3.org/2000/svg" viewBox="0 0 512 512"><!--! Font Awesome Pro 6.1.1 by @fontawesome - https://fontawesome.com License - https://fontawesome.com/license (Commercial License) Copyright 2022 Fonticons, Inc.--><path d="M304 352c-8.836 0-16 7.162-16 16 0 8.836 7.164 16 16 16s16-7.164 16-16c0-8.8-7.2-16-16-16zm-48.1 48c-8.8 0-15.9 7.2-15.9 16 0 8.836 7.164 16 16 16s15.93-7.164 15.93-16c-.03-8.8-7.13-16-16.03-16zM192 352c-8.836 0-16 7.162-16 16 0 8.8 7.2 16 16 16s16-7.164 16-16c0-8.8-7.2-16-16-16zm64-48c-8.836 0-16 7.162-16 16 0 8.836 7.099 16 15.93 16s16-7.164 16-16c-.03-8.8-7.13-16-15.93-16zm112 0c-8.8 0-16 7.2-16 16 0 8.836 7.164 16 16 16s16-7.2 16-16-7.2-16-16-16zm-32 96c-8.836 0-16 7.162-16 16 0 8.836 7.164 16 16 16s16-7.2 16-16-7.2-16-16-16zm72-320c-3.994 0-7.91.326-11.73.955-9.586-28.51-36.57-49.11-68.27-49.11a71.9 71.9 0 0 0-18.68 2.457C296.6 13.73 273.9 0 248 0s-48.7 13.79-61.4 34.44c-5.9-1.59-12.1-2.44-18.5-2.44-39.7 0-72.09 32.3-72.09 72v121.6c-5.24-1-10.6-1.6-16-1.6-.003 0 .003 0 0 0C36.43 224 0 259.15 0 304.07c0 20.29 7.558 39.52 21.45 54.45l81.25 87.24C141.9 487.9 197.4 512 254.9 512h33.08C393.9 512 480 425.9 480 320V152c0-39.7-32.3-72-72-72zm24 240c0 79.41-64.59 144-143.1 144h-34c-44.41 0-86.83-18.46-117.1-50.96l-79.76-85.63c-6.17-6.71-9.38-15.41-9.38-24.01 0-22.11 18.46-31.4 31.35-31.4 8.561 0 17.1 3.416 23.42 10.18l26.72 28.69c1.65 1.771 3.738 2.564 5.79 2.564 4.106 0 8.065-3.172 8.065-8.017V104c0-13.25 10.75-24 23.1-24s24 10.75 24 24v152c0 8.836 7.164 16 16 16S224 264.8 224 256l.002-184c0-13.25 10.75-24 24-24s24 10.75 24 24v184c0 8.836 7.162 16 15.1 16 8.838 0 15.99-7.164 15.99-16l.007-152.2c0-13.25 10.75-24 24-24s24 10.75 24 24V256c0 8.836 7.164 16 16 16s16-7.164 16-16V152c0-13.25 10.75-24 24-24C421.3 128 432 138.8 432 152v168z"/></svg>