<svg xmlns="http://www.w3.org/2000/svg" viewBox="0 0 640 512"><!--! Font Awesome Pro 6.1.1 by @fontawesome - https://fontawesome.com License - https://fontawesome.com/license (Commercial License) Copyright 2022 Fonticons, Inc.--><path d="m631.1 225.8-122.9 71.48c-5.625 17.5-19.5 31.12-37.12 36.49v14.25c0 34.37-23.25 63.61-54.75 72.73-9.249 34.12-40.5 59.23-77.37 59.23H224.1l-51.6 29.92c-7.75 4.374-17.5 1.875-21.87-5.874L142.6 490.1c-4.375-7.748-1.875-17.5 5.875-21.87L211.3 431.9h128.6c17.87 0 32.25-14.37 32.25-32.12V375.8h24.12c15.25 0 27.75-12.5 27.75-27.87V287.9h31.1c4.375 0 7.1-3.624 7.1-7.998V247.9c0-4.374-3.625-7.998-7.1-7.998h-103.1v15.1c0 46.86-40.37 84.48-88.24 79.6-41.75-4.249-71.75-42.49-71.75-84.23V209.1l-32.43 19.6c-9.7 5.7-15.6 16.2-15.6 27.6v61.73L32.9 382.76c-7.75 4.374-17.5 1.75-21.87-5.998l-7.1-13.87c-4.375-7.623-1.875-17.5 5.875-21.87l87.99-50.74V256.2c0-28.24 14.75-54.36 38.87-68.86l59.37-35.49c4.625-20.49 16.1-38.49 35.25-49.86L263 81.09c17.75-11.12 38.25-16.1 59.25-16.1h92.74l108.7-61.98c7.625-4.374 17.37-1.75 21.75 5.998l7.875 13.87c4.375 7.748 1.75 17.37-5.1 21.87l-119.7 68.11h-105.4c-11.1 0-23.62 3.374-33.87 9.747L255 142.6c-9.2 5.7-15 16.1-15 27.1v86.23c0 17.62 14.25 31.99 31.1 31.99 17.75 0 31.1-14.37 31.1-31.99V191.9h151.1c28.37 0 51.62 21.24 55.25 48.61l96.74-56.36c7.75-4.374 17.5-1.875 21.87 5.874l7.1 13.87c7.94 7.806 5.44 17.406-3.16 21.906z"/></svg>