<svg xmlns="http://www.w3.org/2000/svg" viewBox="0 0 512 512"><!--! Font Awesome Pro 6.1.1 by @fontawesome - https://fontawesome.com License - https://fontawesome.com/license (Commercial License) Copyright 2022 Fonticons, Inc.--><path d="M24.05 296.1c31.13-26.3 69.26-17 88.35-1.7l60.4 45.4h3.4c.1-37.9 30.5-68.7 69.1-68.7h112c28.4 0 56.4 10.3 78.6 27.3l28.3 21.7h22.9c14.1 0 24.9 10.8 24.9 24s-10.8 24-24.9 24l-40-.1-40.4-31.4c-14-10.8-31.5-16.5-49.5-16.5h-112c-27.9 0-29 40.2 1.1 40.2h59.9c7.5 0 12.9 6.3 12.9 13.9 0 7.6-5.4 13.7-12.9 13.7H171.6c-9.7 0-19.2-3.1-26.9-9l-61.27-46.1c-8.25-6.1-20.5-6.6-28.38 0-10.13 8.5-9.38 22.3.88 30.8L156.6 439c7.7 5.8 17.1 9 26.8 9h303.7c14.1 0 24.9 10.8 24.9 24s-10.8 24-24.9 24H183.2c-20 0-39.4-6.5-55.3-18.5L27.17 401.7C10.55 389.2.669 370.2.044 349.7c-.75-20.5 8.126-40.1 24.006-53.6zm407.05-80.2c-30.3 26.3-68.4 16.1-87.5 1.7l-60.4-45.4h-3.4c-.1 37.9-30.5 66.9-69.1 66.9h-80c-28.4 0-56.43-8.5-78.56-25.5l-28.38-21.7H24c-13.2 0-24-10.8-24-24s10.8-24 24-24l16.01-.8 41.26 32.3c14 10.8 31.53 16.5 49.53 16.5h80c27.9 0 29-40.2-1.1-40.2h-43.9c-7.5 0-13.8-6.3-13.8-13.9 0-7.6 6.3-13.7 13.8-13.7h118.6c9.7 0 19.2 3.1 26.9 9l61.3 46.1c8.2 6.1 20.5 6.6 28.3 0 10.2-8.5 9.4-23.2-.8-30.8L299.4 72.97c-7.7-5.75-17.1-9-26.8-9H24c-13.2 0-24-10.79-24-23.98C0 26.79 10.8 16 24 16h248.8c20 0 39.4 6.5 55.3 18.49l100.7 75.81c16.7 12.5 26.5 31.5 26.3 52 1.6 20.5-7.3 40.1-24 53.6z"/></svg>