<svg xmlns="http://www.w3.org/2000/svg" viewBox="0 0 512 512"><!--! Font Awesome Pro 6.1.1 by @fontawesome - https://fontawesome.com License - https://fontawesome.com/license (Commercial License) Copyright 2022 Fonticons, Inc.--><path d="M383.4 96c5.125 0 10.16-2.453 13.25-7.016l32.56-48a15.952 15.952 0 0 0 2.744-8.951c0-8.947-7.273-16.04-15.97-16.04a16.034 16.034 0 0 0-13.27 7.02l-32.56 48a15.975 15.975 0 0 0-2.754 8.957c0 8.91 7.3 16.03 16 16.03zm-140.1-7.02c3.1 4.57 8.1 7.02 13.3 7.02 8.762 0 15.99-7.117 15.99-16.03 0-3.088-.89-6.205-2.744-8.951l-32.56-48C234.2 18.46 229.1 15.98 223.1 15.98c-8.664 0-15.98 7.074-15.98 16.05 0 3.086.89 6.205 2.744 8.951L243.3 88.98zM320 96c8.844 0 16-7.156 16-16V16c0-8.844-7.2-16-16-16s-16 7.156-16 16v64c0 8.84 7.2 16 16 16zm117.1 32c-8.65 0-16.73 1.951-24.45 4.691 10.81 12.4 18.81 27.17 22.94 43.61 1.41-.001 1.91-.301 1.51-.301 15.3 0 26.9 11.6 26.9 26v136.5c0 40.8-19.67 77.73-50.36 100.8a205.887 205.887 0 0 1-68.04 72.4c92.2-2.6 166.4-79.2 166.4-173.2V202.1c0-40.8-33.2-74.1-74.9-74.1zM408 338.5V202c0-40.8-33.2-74-74.9-74-26.01 0-48.94 13.49-62.13 33.85L219.4 109.4c-12.8-12.79-29.7-19.81-47.7-19.81-23.29 0-43.86 11.85-55.1 29.85-1.166-.06-2.34-.09-3.518-.09-37.22 0-67.5 30.28-67.5 67.5 0 1.178.031 2.352.09 3.518C26.73 202.5 14.88 223.1 14.88 246.4c0 9.186 1.824 18.09 5.299 26.31C7.73 284.9 0 301.1 0 320.8c0 18.03 7.021 34.98 19.77 47.73C104.9 453.6 148.2 512 236.8 512c94.4 0 171.2-77.8 171.2-173.5zM236.8 464c-65.85 0-97.3-43.72-183-129.5-3.9-3.8-5.8-8.8-5.8-13.7 0-10.39 8.361-19.5 19.5-19.5 4.99 0 9.979 1.906 13.79 5.715l51.33 51.33 17.06-17.06L68.59 260.2c-3.81-3.9-5.71-8.8-5.71-13.8 0-10.39 8.361-19.5 19.5-19.5 4.99 0 9.979 1.906 13.79 5.715L177.3 313.7l17.06-17.06-96.01-96.04c-3.81-3.8-5.71-8.8-5.71-13.8 0-10.39 8.361-19.5 19.5-19.5 4.99 0 9.979 1.906 13.79 5.715l95.97 95.97 17.06-17.06L157.9 170.9c-3.8-3.8-5.7-8.8-5.7-13.8 0-10.39 8.361-19.5 19.5-19.5 4.99 0 9.979 1.906 13.79 5.715L308 265.9V202c0-14.36 11.63-26 25.1-26 15.3 0 26.9 11.6 26.9 26v136.5c0 67.7-53.6 125.5-123.2 125.5z"/></svg>