<svg xmlns="http://www.w3.org/2000/svg" viewBox="0 0 448 512"><!--! Font Awesome Pro 6.1.1 by @fontawesome - https://fontawesome.com License - https://fontawesome.com/license (Commercial License) Copyright 2022 Fonticons, Inc.--><path d="M63.43 241 96 270.3V440c0 39.7 32.3 72 72 72s72-32.3 72-72v-88h13.53c15.91 0 31.08-5.205 43.55-14.81 3.504.541 7.049.815 10.61.815h13.53c22.11 0 43.11-10.55 56.74-28.05C416.8 308.6 448 275.9 448 236v-92C448 64.6 385.1 0 307.7 0H199.8c-23.4 0-46.7 6.104-67.3 17.65L76.63 49C49.1 64.47 32 94.02 32 126.1v46.97C32 199.8 43.46 224.5 63.43 241zM80 126.1c0-14.77 7.719-28.28 20.16-35.27l55.78-31.34C169.4 51.98 184.6 48 199.8 48h107.9c50.9 0 92.3 43.06 92.3 96v92c0 14.34-11.03 26-24.62 26 0 0-15.34-.227-15.5-.227-20.42 0-13.07 28.23-38.66 28.23h-13.53c-9.989 0-11.7-5.583-19.88-5.583C271.4 284.4 274.5 304 253.5 304H240c-11.69 0-16.66-10.84-17.12-11.88-2.38-7.02-8.28-11.02-14.78-11.02-8.1 0-16.1 7.3-16.1 16.9v142c0 13.23-10.78 24-24 24s-24-10.8-24-24V175.1c0-8.844-7.156-16-16-16s-16.9 8.1-16.9 16.9l.9 44.2-17.5-15.7c-9.22-7.6-14.5-19.1-14.5-31.4v-47z"/></svg>