<svg xmlns="http://www.w3.org/2000/svg" viewBox="0 0 640 512"><!--! Font Awesome Pro 6.1.1 by @fontawesome - https://fontawesome.com License - https://fontawesome.com/license (Commercial License) Copyright 2022 Fonticons, Inc.--><path d="M297.6 246.8c12.25 12.37 32.37 12.37 44.63 0l96.5-96.37c12.38-12.37 12.38-32.3 0-44.68L342.35 9.32c-12.38-12.37-32.38-12.37-44.75 0l-96.3 96.48c-12.5 12.25-12.5 32.3 0 44.55l96.3 96.45zM575.5 96.4c-43-4.49-79.5 29.4-79.5 71.5l-.25 76c-11.62-7.75-25.62-12-39.75-12-22.38 0-43.25 10.25-57 28l-71.75 93.25c-2.75 3.5-5 7.5-7.25 11.25-2.25-3.75-4.5-7.75-7.25-11.25L241 259.9c-13.75-17.75-34.63-28-57-28-14.12 0-28.12 4.25-39.75 12l-.25-76c0-42.11-36.47-76.01-79.49-71.52C26.98 100.3 0 134.8 0 172.6v189.1c0 25.51 8.635 50.28 24.5 70.26l54.12 70.95C86.75 513.1 101.5 515 112 507.2c10.9-8.174 12.88-23.74 4.365-34.38l-54.37-70.87A64.098 64.098 0 0 1 48 362V168.8c0-11.62 7.75-22.25 19.25-24.38C82.5 141.4 96 153.2 96 167.9c0 0 .25 101 .25 132.6 0 7.625 2.875 14.75 7.875 20.62l76.5 92.5c4.375 5.375 10.62 8 17 8 5.75 0 11.62-2.25 16.12-7 7.5-7.875 7.25-20.38.75-29.12l-49.5-67c-8.125-10.5-6.125-25.62 4.375-33.75 4.375-3.375 9.5-5 14.62-5 7.25 0 14.25 3.25 19.12 9.375l71.85 93.55a63.54 63.54 0 0 1 13.15 38.7l-.094 58.54c0 17.55 14.43 31.86 31.97 31.94 17.54-.074 31.97-14.38 31.97-31.94l-.094-58.54c0-13.1 4.621-27.6 13.15-38.7l71.85-93.55C441.8 283 448.8 279.8 456 279.8c5.125 0 10.25 1.625 14.62 5 10.5 8.125 12.5 23.25 4.375 33.75l-49.5 67c-6.5 8.75-6.75 21.25.75 29.12 4.5 4.75 10.38 7 16.12 7 6.375 0 12.62-2.625 17-8l76.5-92.5c5-5.875 7.875-13 7.875-20.62.06-31.65.26-132.65.26-132.65 0-14.75 13.5-26.5 28.75-23.5 11.55 2.1 19.25 12.8 19.25 24.4V362c0 14.51-4.938 28.58-14 39.91l-54.36 70.87c-8.54 10.62-6.54 25.32 4.36 34.42 10.46 7.842 25.25 5.936 33.38-4.301l54.12-70.95C631.4 411.9 640 387.2 640 361.7V172.6c0-37.8-27-72.3-64.5-76.2z"/></svg>