<svg xmlns="http://www.w3.org/2000/svg" viewBox="0 0 640 512"><!--! Font Awesome Pro 6.1.1 by @fontawesome - https://fontawesome.com License - https://fontawesome.com/license (Commercial License) Copyright 2022 Fonticons, Inc.--><path d="m513.1 112-88.57.047c-25.23 1.775-48.45 11.69-67.71 26.7-.33-3.732-.945-7.486-2.012-11.22-4.387-15.39-14.53-28.18-28.56-35.98a59.956 59.956 0 0 0-16.72-6.277c9.553-20.66 6.895-45.92-8.854-64.32C291.1 8.773 276.6 1.395 260.5.178c-1.5-.12-3-.178-4.6-.178-14.3 0-28.1 5.141-39 14.48L196.8 31.7c-6.057-11.29-15.67-20.6-27.72-26.18-7.93-3.65-16.33-5.494-24.99-5.494-23.41 0-44.88 13.75-54.7 35.03l-73.61 164.7C5.326 223.3 0 248.3 0 274c0 69.48 56.53 125.1 126 125.1l88.57-.047c25.23-1.775 48.45-11.69 67.71-26.7.328 3.732.945 7.484 2.012 11.22 4.387 15.39 14.53 28.18 28.56 35.98a60.19 60.19 0 0 0 16.73 6.264c-9.559 20.66-6.904 45.93 8.848 64.33 10.44 12.19 25.01 19.57 41.02 20.78 1.45.173 3.05 1.073 4.65 1.073 14.29 0 28.13-5.135 38.98-14.46l20.1-17.23c6.057 11.29 15.67 20.6 27.72 26.18 7.938 3.652 16.34 5.498 25.01 5.498 23.4 0 44.86-13.75 54.68-35.03l73.61-164.7C634.7 288.7 640 263.7 640 238c0-69.5-56.5-126-126.9-126zm-197.6 41.7c-2.6 4.7-6.9 8.1-12 9.5l-94.4 27 24.36 8.219c24.42 8.234 43.31 26.8 51.84 50.91 1.766 5.062 1.484 10.47-.813 15.28A20.205 20.205 0 0 1 273.1 274.9c-10.4 3.6-21.8-1.9-25.5-12.2-6.1-17.2-22.4-28.7-40.6-28.7-23.7 0-43 19.3-43 42.1 0 23.7 19.3 42.1 43 42.1 14.38 0 27.75-7.141 35.75-19.12 6.188-9.141 18.61-11.59 27.75-5.516 3.6 4.736 6.6 9.336 8.5 14.536 1 5.3-.9 10.6-3 15-14.02 20.94-37.77 35.06-61.97 36.84l-88.02.016c-47.42 0-86.02-38.58-86.02-85.1 0-20.09 4.156-39.59 12.36-57.94l73.45-164.4c4.5-9.781 16.92-14.3 26.58-9.844a19.824 19.824 0 0 1 10.36 11.22c1.859 5.03 1.656 10.45-.578 15.3L127.3 144l115.8-99.22c3.8-3.29 9-4.93 14.2-4.73 5.578.422 10.44 2.891 13.91 6.953a19.814 19.814 0 0 1 4.734 14.55C275.5 66.88 273.1 71.73 269 75.19l-98.5 84.41 122-34.8c5.203-1.453 10.56-.828 15.19 1.719 4.71 2.581 8.11 6.881 9.51 11.981 1.5 5.1.9 10.5-1.7 15.2zm272.1 142.2-73.45 164.4c-2.25 4.937-6.266 8.641-11.33 10.5-2.22.8-4.52 1.2-6.82 1.2-2.891 0-5.75-.64-8.422-1.906a19.81 19.81 0 0 1-10.33-11.2c-1.859-5.031-1.656-10.45.578-15.3l34.91-75.64-115.8 99.22a19.867 19.867 0 0 1-14.38 4.75c-5.484-.422-10.34-2.891-13.81-6.953a19.814 19.814 0 0 1-4.734-14.55 19.831 19.831 0 0 1 6.906-13.64l98.52-84.45-121.1 34.87c-5.03 1.5-10.47.906-15.2-1.734-4.688-2.625-8.062-6.891-9.516-12.02-1.469-5.109-.86-10.5 1.734-15.19 2.594-4.672 6.844-8.062 11.97-9.515l94.44-26.98-24.36-8.219c-24.42-8.234-43.31-26.8-51.84-50.91-1.766-5.062-1.484-10.47.813-15.28 2.297-4.828 6.328-8.453 11.36-10.25 10.67-3.625 21.83 1.812 25.55 12.14 6.078 17.19 22.38 28.72 40.56 28.72 23.7 0 43-19.3 43-42.1s-19.3-42.1-43-42.1a42.913 42.913 0 0 0-35.75 19.12c-6.203 9.172-18.62 11.64-27.78 5.5a19.876 19.876 0 0 1-8.47-12.75c-1.046-5.25.016-10.58 3-15.02 14.02-20.94 37.77-35.06 61.97-36.84l88.02-.016c47.42 0 86.02 38.58 86.02 85.1C600 258.1 595.8 277.6 587.6 295.9z"/></svg>