<svg xmlns="http://www.w3.org/2000/svg" viewBox="0 0 576 512"><!--! Font Awesome Pro 6.1.1 by @fontawesome - https://fontawesome.com License - https://fontawesome.com/license (Commercial License) Copyright 2022 Fonticons, Inc.--><path d="M576 192c0-44.11-35.89-80-80-80-2.389 0-4.637.5-6.973.705C502.1 100.1 512 83.6 512 64c0-35.29-28.71-64-64-64s-64 28.71-64 64 28.71 64 64 64c.193 0 .37-.055.563-.057C428.9 142.5 416 165.7 416 192c0 10.25 2.111 19.98 5.641 29h-35.44a67.686 67.686 0 0 0-4.48-12.92l12.42-39.31c6.088-19.27 3.279-40.05-7.703-57.02a67.367 67.367 0 0 0-35.13-27.29 67.714 67.714 0 0 0-6.625-13.17c-8.377-12.94-20.76-22.46-35.13-27.28a67.939 67.939 0 0 0-6.625-13.17C291.9 13.87 274.1 2.793 253.9.445A66.53 66.53 0 0 0 246.2 0c-14 0-27.2 4.33-38.2 11.94a68.567 68.567 0 0 0-11.55-2.365 66.371 66.371 0 0 0-7.66-.445c-29.56 0-55.51 19.25-64.56 47.89l-19.15 60.61c-1.48-.13-2.98-.13-4.48-.23-37.54 0-68.11 30-68.6 66.8v92.2c.459 28.92 9.332 56.27 24.43 79.53C23.87 366.1 0 396.1 0 432c0 44.1 35.89 80 80 80 31.25 0 58.09-18.19 71.25-44.38C177.7 494.9 214.6 512 255.5 512h169c20.21 0 39.18-8.938 52.05-24.52a67.34 67.34 0 0 0 15.44-41.72c13.81-10.78 25.58-28.89 26-52 3.842-3 7.385-6.438 10.56-10.28 12.87-15.58 18.05-35.96 14.21-55.91-3.146-16.37-12.21-30.41-24.77-40.15-.17-10.73-2.475-16.23-2.98-17.95C549.9 260.9 576 229.5 576 192zM448 80c-8.836 0-16-7.164-16-16s7.164-16 16-16c8.838 0 16 7.164 16 16s-7.2 16-16 16zm-137.9 63.3c8.132-25.72 45.2-13.62 37.41 11.05l-5.838 18.48c-6.963-2.395-14.36-3.781-22.06-3.781-6.262 0-12.46 1.018-18.51 2.734L310.1 143.3zm-3.5-29.4-19.7 62.3-45.6 14.1c.2-.4.6-.6.7-1l27.18-86.47c8.12-25.74 45.22-13.64 37.42 11.07zM80 184.8c.143-10.8 9.443-19.39 20.16-19.39 10.74.09 19.54 8.89 19.44 19.69l1.693 40.66 48.73-154.3c8.12-25.72 45.2-13.62 37.41 11.05L176.1 181.7c-1.1 3.4.8 7.1 4.3 8.2a6.53 6.53 0 0 0 1.961.305c2.76 0 5.32-1.773 6.195-4.545l38.94-123.3c8.121-25.72 45.2-13.62 37.41 11.05L229.6 185.4c-.967 3.061.678 6.057 3.438 7.48L213.1 199C151.04 219.69 110 276.4 110 340.5v5.66C91.76 328.1 80.43 303.6 80 276.4v-91.6zM80 464c-17.67 0-32-14.33-32-32s14.33-32 32-32 32 14.33 32 32c0 17.7-14.33 32-32 32zm396.5-104h-130a6.5 6.5 0 1 0 0 13h103.3c9.432 0 18.08 6.373 19.86 15.63C472 401.1 462.5 412 450.5 412h-104a6.5 6.5 0 1 0 0 13h77.27c9.432 0 18.08 6.373 19.86 15.63C446 453.1 436.5 464 424.5 464h-169c-53.85 0-97.5-43.65-97.5-97.5v-26.03c0-43.37 27.65-81.73 69.22-95.6l87.52-27.02a19.848 19.848 0 0 1 5.734-.852c8.367 0 16.06 5.36 18.67 13.72 3.174 10.31-2.59 21.23-12.87 24.4L288 269h161.8c9.432 0 18.08 6.373 19.86 15.63C472 297.1 462.5 308 450.5 308h-104a6.5 6.5 0 1 0 0 13h129.3c9.432 0 18.08 6.373 19.86 15.63C498 349.1 488.5 360 476.5 360zM496 224c-17.67 0-32-14.33-32-32s14.33-32 32-32 32 14.33 32 32-14.3 32-32 32z"/></svg>