<svg xmlns="http://www.w3.org/2000/svg" viewBox="0 0 576 512"><!--! Font Awesome Pro 6.1.1 by @fontawesome - https://fontawesome.com License - https://fontawesome.com/license (Commercial License) Copyright 2022 Fonticons, Inc.--><path d="M551.1 312c-31.13-26.38-69.26-16.12-88.39-1.75l-60.38 45.5h-3.375c-.125-38-30.5-67.88-69.13-67.88H186.7c-28.38 0-56.38 9.375-78.51 26.38L79.76 336H24c-13.2 0-24 10.8-24 24s10.8 24 24 24l72-.024 41.26-31.48C151.3 341.8 168.8 336 186.8 336h144c27.88 0 29 40.25-1.125 40.25H269.8c-7.5 0-13.75 6.125-13.75 13.75s6.252 13.88 13.75 13.88h134.6c9.711 0 19.16-3.16 26.92-9l61.26-46.13c8.252-6.125 20.5-6.625 28.38 0 10.12 8.5 9.375 23.12-.877 30.75l-100.6 75.5c-7.783 5.8-17.183 9-26.883 9H24c-13.2 0-24 10.8-24 24s10.8 24 24 24h368.8c20 0 39.38-6.5 55.26-18.5l100.8-75.88c16.63-12.5 26.5-31.5 27.13-52 .71-20.52-8.19-40.12-24.89-53.62zm-264-56c53 0 95.1-42.12 95.1-93.1 0-40-57.12-120.8-83.25-155.6C297.6 2.125 292.7 0 287.1 0s-8.7 2.125-11.9 6.375C249.1 41.25 191.1 122 191.1 162c0 51.9 43 94 96 94zm.9-185.12C321.1 120.8 335.5 152 336 162c0 25.4-21.5 46-48 46s-48-20.6-48-45.7c.5-10.2 13.1-41.5 48-91.42z"/></svg>