<svg xmlns="http://www.w3.org/2000/svg" viewBox="0 0 640 512"><!--! Font Awesome Pro 6.1.1 by @fontawesome - https://fontawesome.com License - https://fontawesome.com/license (Commercial License) Copyright 2022 Fonticons, Inc.--><path d="M80 192c2.277 0 4.943-1.656 5.959-3.699l20.7-49.63L128 129.8V94.23l-21.3-8.86L85.96 35.7C84.94 33.65 82.28 32 80 32s-4.95 1.65-5.96 3.7l-20.7 49.63L3.695 106c-2.027 1.1-3.675 3.7-3.68 5.1.005 2.262 1.655 4.957 3.68 5.971l49.57 20.67 20.77 49.67C75.05 190.3 77.72 192 80 192zm559.1 240c-.004-2.275-1.657-4.952-3.687-5.968l-49.57-20.67-20.77-49.67C564.9 353.7 562.3 352 560 352c-2.281 0-4.959 1.652-5.975 3.695l-20.7 49.63-49.64 20.71c-2.027 1.016-3.682 3.683-3.686 5.958.004 2.262 1.661 4.954 3.686 5.968l49.57 20.67 20.77 49.67C555.1 510.3 557.7 512 560 512c2.277 0 4.933-1.656 5.949-3.699l20.7-49.63 49.65-20.71C638.3 436.9 639.1 434.3 639.1 432zM307.6 322.2c-1.5-2.1-2.2-2.2-3.6-2.2s-2.969.99-3.578 2.217L288 352l-29.79 12.42c-2.11.58-2.21 2.18-2.21 2.68 0 1.359.992 2.97 2.209 3.58L288 383.1l12.42 29.78C301 415 302.6 416 304 416s2.967-.994 3.578-2.219L320 383.1l29.79-12.42c1.21-.58 2.21-1.28 2.21-3.58 0-1.365-.992-2.967-2.211-3.577L320 352l-12.4-29.8zm166.5 73.2 34.76-14.55 15.64-37.52c4.422-8.957 11.54-15.35 19.43-19.23-.83-1.4.07-2.7.07-4.1V152c0-39.7-32.3-72-71.1-72-3.994 0-7.91.326-11.73.955-9.586-28.51-36.57-49.11-68.27-49.11a71.9 71.9 0 0 0-18.68 2.457C360.6 13.73 337.9 0 312 0s-48.7 13.79-61.4 34.44C244.7 32.85 238.4 32 232 32c-39.7 0-71.1 32.3-71.1 72v121.6c-6.1-1-11.5-1.6-16.9-1.6-.003 0 .003 0 0 0-43.58 0-80.01 35.15-80.01 80.07 0 20.29 7.558 39.52 21.45 54.45l81.25 87.24C205.9 487.9 261.4 512 318.9 512h33.08c46.12 0 88.47-16.37 121.6-43.57l-2.24-.934c-14.81-7.359-23.36-21.25-23.36-35.5 0-2.107.549-4.146.908-6.215C423.3 449.3 389.4 464 352 464h-33.1c-44.41 0-86.83-18.46-117.1-50.96l-79.76-85.63a35.724 35.724 0 0 1-9.34-24.01c0-22.11 18.46-31.4 31.35-31.4 8.561 0 17.1 3.416 23.42 10.18l26.72 28.69c1.65 1.771 3.738 2.564 5.79 2.564 4.106 0 8.065-3.172 8.065-8.017V104c0-13.25 10.75-24 23.1-24s24 10.75 24 24v152c0 8.836 7.164 16 16 16s15.1-7.164 15.1-15.1L288 72c0-13.25 10.75-24 24-24s24 10.75 24 24v184c0 8.836 7.162 16 15.1 16 8.838 0 15.99-7.164 15.99-15.1l.007-152.2c0-13.25 10.75-24 24-24s24 10.75 24 24V256c0 8.836 7.164 16 16 16s16-7.164 16-16V152c0-13.25 10.75-24 24-24C485.3 128 496 138.8 496 152v168c0 27.7-8.3 53.4-21.9 75.4z"/></svg>