<svg xmlns="http://www.w3.org/2000/svg" viewBox="0 0 448 512"><!--! Font Awesome Pro 6.1.1 by @fontawesome - https://fontawesome.com License - https://fontawesome.com/license (Commercial License) Copyright 2022 Fonticons, Inc.--><path d="M344 64c-6.352 0-12.62.871-18.74 2.6C312.4 45.39 289.5 32 264 32c-6.352 0-12.62.871-18.74 2.6C232.4 13.39 209.5 0 184 0s-48.4 13.39-61.3 34.6c-6.1-1.73-12.3-2.6-18.7-2.6-39.7 0-72 32.3-72 72v64c0 6.389 1.289 12.42 2.871 18.31C13.82 202.4 0 227.5 0 256v88.42c0 27.31 12.38 52.61 33.97 69.41L64 437.2V488c0 13.3 10.75 24 24 24s24-10.75 24-24v-63.28c0-14.86-12.35-21.16-14.94-22.64l-33.63-26.14C53.63 368.3 48 356.8 48 344.4V256c0-22.06 17.94-40 40-40h84c15.44 0 28 12.56 28 28s-12.6 28-28 28h-52c-13.2 0-24 10.8-24 24s10.8 24 24 24h52c33.23 0 61.25-21.58 71.54-51.36C250 270.7 256.9 272 264 272c14.45 0 28.25-4.258 40-12.19 11.8 7.89 25.5 12.19 40 12.19 8.457 0 16.46-1.734 24-4.424V312c0 38.45-19.72 73.81-52.78 94.58C308.3 410.1 304 418.7 304 426.9V488c0 13.25 10.75 24 24 24s24-10.7 24-24v-48.48c40.31-30.23 64-76.97 64-127.5v-176C416 96.3 383.7 64 344 64zm-184 8c0-13.23 10.8-24 24-24s24 10.77 24 24v96c0 3.029-.701 5.875-1.73 8.545C195.9 171.3 184.4 168 172 168h-12V72zm-80 96v-64c0-13.23 10.78-24 24-24s24 10.77 24 24v64H88c-2.686 0-5.217.557-7.84.793-.01-.293-.16-.493-.16-.793zm208 32c0 13.2-10.8 24-24 24s-24-10.8-24-24v-96c0-13.23 10.78-24 24-24s24 10.77 24 24v96zm56 24c-13.2 0-24-10.8-24-24v-64c0-13.23 10.78-24 24-24s24 10.77 24 24v64c0 13.2-10.8 24-24 24z"/></svg>