<svg xmlns="http://www.w3.org/2000/svg" viewBox="0 0 512 512"><!--! Font Awesome Pro 6.1.1 by @fontawesome - https://fontawesome.com License - https://fontawesome.com/license (Commercial License) Copyright 2022 Fonticons, Inc.--><path d="M15.45 383.5a67.77 67.77 0 0 0 10.56 10.28 67.332 67.332 0 0 0 15.44 41.72 67.815 67.815 0 0 0 10.56 10.28 67.332 67.332 0 0 0 15.44 41.72C80.32 503.1 99.3 512 119.5 512h168.1c58.92 0 109.8-35.21 132.6-85.7l46.6-46.02c28.9-27.58 44.6-64.18 45.2-103.88l-.003-92.23c-.486-36.81-31.06-66.76-68.58-66.76a67.36 67.36 0 0 0-4.547.184l-19.14-60.6c-9.184-29.09-34.37-47.88-64.17-47.88-6.578 0-13.05.94-19.23 2.727C325.5 4.258 312.3 0 298.1 0c-21.89 0-42.6 10.41-55.37 27.84A65.572 65.572 0 0 0 234 44.18c-13.11 4.475-24.72 12.82-33.01 24.13a65.586 65.586 0 0 0-8.744 16.33C179.2 89.11 167.5 97.46 159.3 108.8c-12.6 16.3-16.1 39-9.4 60l12.42 39.31c-1.32 2.69-2.42 5.59-4.22 8.49.4 1.5 0 2.9-.3 3.5H94.23c-32.74 0-60.92 22.95-66.1 54.57-1.65 4.83-2.06 8.83-2.12 12.73-12.56 9.7-21.626 23.8-24.773 40.2-3.836 19.9 1.344 40.3 14.213 55.9zM242 171.7c-6.9-1.7-12.2-3.6-18.5-3.6-7.705 0-15.1 1.387-22.06 3.781L195.6 154.3c-4.746-15.02 7.145-25.38 19.01-25.38 7.617 0 15.22 4.276 18.4 14.33L242 171.7zm32.8-68.9 27.18 86.47c.137.43.531.648.742 1.027l-45.63-14.08L237.4 113.8c-4.744-15.02 7.146-25.38 19.01-25.38 7.59.04 15.19 4.32 18.39 14.38zm56.1 96.2-20.01-6.176c2.76-1.424 4.404-4.42 3.438-7.481l-35.24-111.1c-4.744-15.02 7.146-25.38 19.01-25.38 7.617 0 15.22 4.276 18.4 14.33l38.94 123.3a6.502 6.502 0 0 0 6.195 4.545c.648 0 1.309-.1 1.961-.305a6.5 6.5 0 0 0 4.24-8.157l-31.33-99.17c-4.742-15.02 7.15-25.38 19.01-25.38 7.617 0 15.22 4.276 18.4 14.33l48.73 154.3 1.693-40.66c-.072-10.76 8.603-19.55 19.39-19.63 10.71 0 20.09 8.594 20.23 19.39V276.4c-.434 27.16-11.76 51.69-29.1 69.71v-5.66C434 276.4 392.1 219.7 330.9 199zM48.37 336.6c1.779-9.26 10.43-15.63 19.86-15.63h129.3a6.5 6.5 0 1 0 0-13H93.5c-12.03 0-21.52-10.91-19.13-23.37 1.779-9.26 10.43-15.63 19.86-15.63h161.8L217.7 255.1c-10.2-4-16-14.1-12.8-24.4 2.607-8.366 10.3-13.73 18.67-13.73 1.895 0 3.822.275 5.734.852l87.52 27.02c41.56 13.86 69.22 52.23 69.22 95.6v26.03c0 53.85-43.65 97.5-97.5 97.5H119.5c-12.03 0-21.52-10.91-19.13-23.37 1.779-9.26 10.43-15.63 19.86-15.63h77.27a6.5 6.5 0 1 0 0-13h-104c-12.03 0-21.52-10.91-19.13-23.37 1.779-9.26 10.43-15.63 19.86-15.63h103.3a6.5 6.5 0 1 0 0-13H67.5C55.47 359.1 45.98 349.1 48.37 336.6z"/></svg>