<svg xmlns="http://www.w3.org/2000/svg" viewBox="0 0 512 512"><!--! Font Awesome Pro 6.1.1 by @fontawesome - https://fontawesome.com License - https://fontawesome.com/license (Commercial License) Copyright 2022 Fonticons, Inc.--><path d="M412 160a67.5 67.5 0 0 0-23.67 4.268C367.1 142.8 341 144 340 144c-10.98 0-23.57 4.461-23.8 4.547l21.93-48.56c4.244-9.414 6.252-19.28 6.252-28.1 0-20.09-15.82-71.01-70.77-71.01-26.71 0-52.68 15.25-64.61 41.72L148.6 175.4l-43-95.13a22.776 22.776 0 0 1-2.012-9.36c0-6.322 4.956-22.87 22.83-22.87 8.714 0 17 4.992 20.81 13.41l8.872 19.62 23.73-52.54c.36-.799.912-1.463 1.291-2.25C167.5 9.645 147.2.093 126.1.093c-54.75 0-70.45 50.54-70.45 70.91 0 9.718 2.008 19.59 6.25 29L120.6 231.1c-8.428 1.311-16.34 2.555-17.27 2.76-32.05 7.023-55.32 36.51-55.32 70.11v80c0 22.06 10.4 43.32 27.83 56.86l45.95 35.74c29.35 22.83 65.98 35.41 103.2 35.41l78.81.035c97.19 0 176.3-79.06 176.3-176.3V228.3C480 210.5 465.2 160 412 160zm-92 52.3c0-11.17 8.982-20.25 20-20.25 10.1 0 19.98 9.071 19.98 20.24l.02 55.51c0 11.17-8.98 20.25-20 20.25s-20-9.078-20-20.25v-55.5zM252.8 61.45c3.805-8.465 12.2-13.44 20.83-13.44 17.75 0 22.81 16.32 22.81 22.89 0 3.133-.647 6.314-2.012 9.346L232.7 216.8c-2.9-.4-5.8-.8-8.8-.8 0 0 .002 0 0 0-4.475 0-8.967.42-13.38 1.254L181.1 221.8l71.7-160.35zm51 402.55-78.81-.035c-26.56 0-52.72-8.984-73.69-25.3l-46-35.765c-5.812-4.516-9.281-11.61-9.281-18.95v-80c0-11.23 7.969-21.11 17.59-23.22l105.3-16.23c1.691-.3 3.391-.5 4.991-.5 11.91 0 24.09 9.521 24.09 24.06 0 11.04-7.513 20.95-17.17 23.09L172.8 319c-12.03 1.633-20.78 11.92-20.78 23.75 0 20.21 18.82 24.08 23.7 24.08 2.645 0 64.61-8.619 65.54-8.826 23.55-5.227 41.51-22.23 49.73-43.64 12.34 13.18 29.61 21.64 49.03 21.64a67.5 67.5 0 0 0 23.69-4.27c12.33 12.51 29.44 20.27 48.31 20.27.2 0 10.08-.445 18.65-2.92C423.9 413.5 369.9 464 303.8 464zM432 283.8c0 11.17-8.98 20.25-20 20.25s-20-9.078-20-20.25v-55.5c0-11.17 8.982-20.25 20-20.25 11-.05 20 9.05 20 20.25v55.5z"/></svg>