<svg xmlns="http://www.w3.org/2000/svg" viewBox="0 0 640 512"><!--! Font Awesome Pro 6.1.1 by @fontawesome - https://fontawesome.com License - https://fontawesome.com/license (Commercial License) Copyright 2022 Fonticons, Inc.--><path d="M640 488.2c0-10.93-7.484-20.5-18.15-23.15l-186.1-51.99C381.5 399.6 344 351.9 344 297.3v-68.8c0-13.16 10.75-23.84 24-23.84 13.12 0 24 10.68 24 23.84v55.63c0 8.743 7.2 15.9 16 15.9h16c8.8 0 16-7.153 16-15.9V208c0-12.05-3.5-23.84-10-33.9l-57.5-88.41c-6.625-10.43-5.5-24.84 4.125-32.66C388 43.96 404.5 46.82 412.1 58.86l89.87 139.1c6.5 10.18 9.875 21.98 9.875 34.03v103.1l98.32 32.44C625.3 371.3 640 359.9 640 344.4c0-10.92-7.479-20.44-18.14-23.1l-62.11-23.39V232.1c0-21.11-6-41.73-17.25-59.48l-89.88-139.2C439.5 12.67 416.5 0 391.8 0c-13.62 0-26.75 3.726-38.38 11.05-18.92 11.8-31.12 31.42-33.42 53.9-.1 1.86-.2 3.48-.2 5.21 0-1.739-.125-3.353-.25-5.216C317.3 42.35 305 22.85 286.1 11.05 274.6 3.85 261.4 0 247.8 0 223 0 200 12.67 186.9 33.41L97 172.6a111.12 111.12 0 0 0-17.25 59.48v65.82l-61.61 23.26C7.479 323.8 0 333.4 0 344.3c0 15.49 14.65 26.91 29.77 23.16l97.98-32.26V232.1c0-12.05 3.375-23.84 9.875-34.03L227.5 58.86c7.5-11.92 24.1-14.9 35.5-5.71 9.5 7.699 10.88 22.1 4.125 32.54L209.5 174.1c-6.5 10.2-9.9 22-9.9 34v76c0 8.743 7.2 15.9 16 15.9h16c8.8 0 16-7.153 16-15.9v-55.6c0-13.16 10.88-23.84 24-23.84 13.25 0 24 10.68 24 23.84v68.67c0 54.77-37.5 102.5-90.88 115.9l-186.6 51.99C7.485 467.7 0 477.2 0 488.1c0 15.49 14.66 26.91 29.78 23.15l186.7-52.04c44.63-11.18 81-39.61 103.4-76.87 22.25 37.26 58.63 65.69 103.3 76.87l187.1 52.04C625.3 515 640 503.7 640 488.2zM319.8 175.6c-11.5-10.43-26.25-17.39-42.63-18.5L307 110c7.625-12.05 12.5-24.34 12.62-37.88.25 13.54 5 25.83 12.62 37.88l29.88 47.07c-17.02 1.13-30.82 8.13-42.32 18.53z"/></svg>