<svg xmlns="http://www.w3.org/2000/svg" viewBox="0 0 576 512"><!--! Font Awesome Pro 6.1.1 by @fontawesome - https://fontawesome.com License - https://fontawesome.com/license (Commercial License) Copyright 2022 Fonticons, Inc.--><path d="M551.1 312.1c-31.13-26.36-69.26-16.12-88.39-1.75l-60.38 45.47h-3.375C399.7 317.9 369.3 288 330.7 288h-144c-28.4 0-56.4 9.4-78.6 26.4l-28.38 21.74H24C10.8 336.1 0 346.9 0 360.1c0 13.19 10.8 23.99 24 23.99l72-.06 41.26-31.42c14-10.74 31.5-16.49 49.51-16.49h144c27.88 0 29 40.23-1.125 40.23H269.8c-7.5 0-13.75 6.123-13.75 13.74 0 7.62 6.252 13.87 13.75 13.87h134.6a44.78 44.78 0 0 0 26.92-8.996l61.26-46.1c8.252-6.12 20.5-6.62 28.38 0 10.12 8.496 9.375 23.11-.877 30.73l-100.6 75.46c-7.75 5.746-17.13 8.994-26.88 8.994H24C10.8 464 0 474.8 0 488c0 13.2 10.8 24 24 24h368.8c20 0 39.38-6.496 55.26-18.49l100.8-75.83c16.63-12.49 26.5-31.48 27.13-51.97.71-20.51-8.19-40.11-24.89-53.61zM279.3 175c-7.6-1.1-17.6-4.7-26.4-7.9l-4.9-1.7c-12.5-4.4-26.2 2.1-30.6 13.7-5.3 13.4 2.1 27.1 13.7 31.5l4.655 1.656c8.469 3.057 17.9 6.093 27.39 8.312V232c0 13.25 10.75 24 23.98 24 13.24 0 24-10.75 24-24v-10.4c25.26-5.715 42.88-21.84 46.1-45.72 8.682-50.05-38.91-63.66-64.42-70.95l-4.405-1.83c-25.4-7.46-24.8-10.68-24.1-14.79 1.154-6.766 15.35-10.08 32.21-7.391 4.932.781 11.38 2.547 19.65 5.422 12.55 4.344 26.18-2.328 30.52-14.84 4.309-12.53-2.318-26.19-14.84-30.53-7.607-2.631-13.91-4.356-19.82-5.721V24c0-13.25-10.76-24-24-24s-23.98 10.75-23.98 24v10.52c-25.24 5.71-42.94 21.74-47.94 45.61-7.7 49.47 40.6 63.67 58.8 69.07l6.498 1.875c31.63 9.062 31.15 11.89 30.34 16.64C310.6 174.4 296.4 177.7 279.3 175z"/></svg>