<svg xmlns="http://www.w3.org/2000/svg" viewBox="0 0 448 512"><!--! Font Awesome Pro 6.1.1 by @fontawesome - https://fontawesome.com License - https://fontawesome.com/license (Commercial License) Copyright 2022 Fonticons, Inc.--><path d="M376 64c-39.69 0-72 31.86-72 71.02v26.17c-3.8-.69-7.7-1.19-11.7-1.19-13 0-25.5 3.7-36.3 10.5-10.8-6.8-23.3-10.5-36.2-10.5-4.1 0-8 .5-11.8 1.2V72c0-39.7-32.3-72-71.1-72-40.58 0-72.88 32.3-72.88 72v160.4l-7.113 1.188C23.94 240.7 0 270.3 0 303.1v80c0 22.38 10.12 43.09 27.81 56.84l45.97 35.75c29.34 22.83 65.97 35.41 103.2 35.41l94.82.9c97.1 0 176.2-79.1 176.2-176.2V135c0-39.14-32.3-71-72-71zM272 228.3c0-11.2 9.1-20.3 20.3-20.3s20.25 9.078 20.25 20.25v55.5C312.5 294.9 303.4 304 292.3 304s-20.3-9.1-20.3-20.2v-55.5zm-32 0v55.5c0 .441-.225.81-.252 1.246C238.5 255.4 220.9 234.4 200.4 223.9c2-9 9.7-15.9 19.4-15.9 11.1 0 20.2 9.1 20.2 20.3zM112 72c0-13.23 10.78-24 23.1-24 13.22 0 24 10.77 24 24v123.9c-2.7 6.7-5.3 13.9-6.5 21.7l-40.6 6.8V72zm288 263.8c0 70.7-57.5 128.2-128.2 128.2l-94.81-.016c-26.56 0-52.72-8.984-73.69-25.3l-45.97-35.75C51.47 398.4 48 391.3 48 383.1v-80c0-11.23 7.969-21.11 17.88-23.27l97-16.19a24.064 24.064 0 0 1 5.05-.537c11.86 0 24.09 9.439 24.09 24.06 0 11.04-7.513 20.95-17.17 23.09L116.8 319c-12.03 1.633-20.78 11.92-20.78 23.75 0 20.24 18.82 24.08 23.69 24.08a23.73 23.73 0 0 0 3.526-.265l59.88-8.172c7.666-1.646 14.58-4.74 21.01-8.496C209.1 351.1 214.3 352 219.8 352c12.9 0 25.4-3.7 36.2-10.5 10.8 6.8 23.3 10.5 36.3 10.5 37.63 0 68.25-30.61 68.25-68.25v-55.5c0-11.75-3.254-22.64-8.5-32.3V135c-.05-12.7 10.75-23 23.95-23s24 10.33 24 23.02V335.8z"/></svg>