<svg xmlns="http://www.w3.org/2000/svg" viewBox="0 0 448 512"><!--! Font Awesome Pro 6.1.1 by @fontawesome - https://fontawesome.com License - https://fontawesome.com/license (Commercial License) Copyright 2022 Fonticons, Inc.--><path d="M377.1 202c-12.8-17.4-33.8-28-55.9-28h-13.53a69.58 69.58 0 0 0-10.61.815C284.6 165.2 269.4 160 253.5 160H240V72c0-39.7-32.3-72-72-72S96 32.3 96 72v24H48c-6.47 0-12.31 3.89-14.78 9.9s-1.09 12.8 3.47 17.4L57.38 144l-20.69 20.7c-4.56 4.6-5.94 11.4-3.47 17.4S41.53 192 48 192h48v49.72L63.43 270.1C43.46 287.5 32 312.2 32 338.9v46.97c0 32.1 17.1 61.65 44.63 77.12l55.83 31.35C153.1 505.9 176.4 512 199.8 512h107.9c77.4 0 140.3-64.6 140.3-144v-92c0-39.9-31.2-72.6-70.9-74zM144 72c0-13.23 10.78-24 24-24s24 10.77 24 24v24h-48V72zm256 296c0 52.94-41.41 96-92.31 96H199.8c-15.25 0-30.41-3.984-43.88-11.52l-55.78-31.34C87.72 414.2 80 400.6 80 385.9v-46.97c0-12.31 5.281-23.77 14.5-31.39L112 291.8l-.005 44.17C111.1 344.8 119.2 352 128 352s16-7.156 16-16V192h48v22c0 9.578 7.941 16.04 16.15 16.04 6.434 0 12.31-4.016 14.73-10.16C223.3 218.8 228.3 208 240 208h13.53c20.97 0 17.92 19.58 34.27 19.58 8.211 0 9.846-5.582 19.88-5.582h13.53c25.55 0 18.27 28.23 38.66 28.23.158 0 .313-.002.469-.008L375.4 250c12.7 0 24.6 11.7 24.6 26v92z"/></svg>