<svg xmlns="http://www.w3.org/2000/svg" viewBox="0 0 448 512"><!--! Font Awesome Pro 6.1.1 by @fontawesome - https://fontawesome.com License - https://fontawesome.com/license (Commercial License) Copyright 2022 Fonticons, Inc.--><path d="M364 192c-5.395 0-10.72.537-15.92 1.578C337.5 185.6 325.2 180 312 177.5V80c0-44.11-35.89-80-80-80s-80 35.89-80 80v97.46c-32.4 5.94-58.65 29.74-68.16 60.84l-35.27 28.2C27.87 283 16 307.7 16 334.2v38.79c0 18.65 6.164 37.13 17.36 52.05l11.65 15.53c33.3 44.38 86.29 70.87 141.8 70.87h109.8c81.44 0 148.1-64.64 151.3-145.3l.115-.486L448 276c0-46.3-37.7-84-84-84zm35.1 168c0 .1 0 0 0 0 0 57.1-46.28 103.4-103.4 103.4H186.8c-40.67 0-78.96-19.14-103.4-51.67L71.75 396.2C66.72 389.6 64 381.4 64 373v-38.79c0-11.78 5.354-22.92 14.55-30.28L96 290v30c0 8.836 7.164 16 16 16s16-7.2 16-16v-56c0-22.1 17.9-40 40-40 13.44 0 24.75 7.059 32 17.22V80c0-17.67 14.33-32 32-32s32 14.33 32 32v161.2c7.3-10.1 18.6-17.2 32-17.2 19.45 0 34.9 14.15 38.5 32.55 6.4-9.75 17-16.55 29.5-16.55 19.88 0 36 16.12 36 36l-.9 84z"/></svg>