<svg xmlns="http://www.w3.org/2000/svg" viewBox="0 0 512 512"><!--! Font Awesome Pro 6.1.1 by @fontawesome - https://fontawesome.com License - https://fontawesome.com/license (Commercial License) Copyright 2022 Fonticons, Inc.--><path d="M270.1 95.43 241.7 128H71.1C31.4 128 0 160.3 0 199.1S32.3 272 71.1 272H160v13.53c0 15.91 5.205 31.08 14.81 43.55a69.515 69.515 0 0 0-.815 10.61v13.53c0 22.11 10.55 43.11 28.05 56.74C203.4 448.8 236.1 480 276 480h91.1c79.4 0 144-62.95 144-140.3V231.8c0-23.44-6.104-46.73-17.65-67.35L462.1 108.6c-15.47-27.53-45.02-44.63-77.12-44.63h-46.97C312.2 64 287.5 75.46 270.1 95.43zM385.9 112c14.77 0 28.28 7.719 35.27 20.16l31.34 55.78C460 201.4 464 216.6 464 231.8v107.9c0 50.91-43.06 92.31-96 92.31h-92c-14.34 0-26-11.03-26-24.62 0 0 .227-15.34.227-15.5 0-20.42-28.23-13.07-28.23-38.66V339.7c0-9.989 5.584-11.7 5.584-19.88C227.6 303.4 208 306.5 208 285.5V272c0-11.69 10.84-16.66 11.88-17.12 6.149-2.422 10.17-8.296 10.17-14.73 0-8.119-6.424-16.15-16.04-16.15H71.1C57.87 224 48 213.22 48 200s10.77-24 23.1-24H336c8.844 0 16-7.156 16-16s-7.159-16.01-16-16.01l-44.2.01 15.69-17.5c7.625-9.219 19.08-14.5 31.39-14.5h47.02z"/></svg>