<svg xmlns="http://www.w3.org/2000/svg" viewBox="0 0 512 512"><!--! Font Awesome Pro 6.1.1 by @fontawesome - https://fontawesome.com License - https://fontawesome.com/license (Commercial License) Copyright 2022 Fonticons, Inc.--><path d="M304 32c26.5 0 48 21.53 48 48 0 8.84 7.2 16 16 16s16-7.16 16-16c0-44.11-35.9-80-80-80-8.8 0-16 7.156-16 16s7.2 16 16 16zM80 416c-26.47 0-48-21.5-48-48 0-8.8-7.16-16-16-16s-16 7.2-16 16c0 44.1 35.88 80 80 80 8.84 0 16-7.2 16-16s-7.16-16-16-16zm340.3-304c-25.33 0-47.8 12.5-61.56 31.65L267 52.13C254 39.16 236.8 32 218.4 32c-1.4 0-38.7-1.26-60.3 34.02a69.884 69.884 0 0 0-7.777-.434c-38.18 0-68.78 30.91-68.78 68.81a69.5 69.5 0 0 0 .434 7.751C47.51 162.9 48.78 200.2 48.78 201.6c0 11.12 2.621 21.85 7.574 31.46-25.63 21.81-24.31 51.18-24.31 52.52 0 17.61 6.697 35.23 20.09 48.64C147.4 429.5 216.1 512 310.5 512c49.03 0 95.17-19.1 129.9-53.78C476.3 422.3 496 374.6 496 323.9V187.8c0-42.7-34-75.8-75.7-75.8zM448 323.9c0 37.89-14.74 73.5-41.52 100.3C380.8 449.9 346.7 464 310.5 464c-70.98 0-128.3-67.61-224.4-163.7-4.07-4.1-6.1-9.4-6.1-14.7 0-11.87 9.696-20.81 20.81-20.81 5.324 0 10.65 2.033 14.71 6.098l75.3 75.06a14.768 14.768 0 0 0 10.46 4.322c3.792 0 7.584-1.447 10.48-4.34a14.803 14.803 0 0 0 4.349-10.49c0-3.797-1.451-7.595-4.352-10.49l-108.9-108.6a20.74 20.74 0 0 1-6.098-14.71c0-11.11 8.954-20.81 20.81-20.81 5.326 0 10.65 2.033 14.71 6.098l108.9 108.6a14.769 14.769 0 0 0 10.46 4.326c3.792 0 7.583-1.447 10.48-4.339a14.772 14.772 0 0 0 4.339-10.48c0-3.796-1.45-7.593-4.35-10.49L136.5 149.1a20.753 20.753 0 0 1-6.097-14.72c0-11.12 8.951-20.81 20.81-20.81 5.324 0 10.65 2.033 14.71 6.098l125.7 125.4a14.773 14.773 0 0 0 10.47 4.329c3.792 0 7.584-1.447 10.48-4.34a14.792 14.792 0 0 0 4.347-10.48c0-3.797-1.451-7.594-4.352-10.49L203.7 115.5a20.74 20.74 0 0 1-6.098-14.71C197.6 89.7 206.5 80 218.4 80c5.326 0 10.65 2.031 14.72 6.098L392.5 245.2v-56.01c0-5.217 4.05-29.21 27.75-29.21C435.6 160 448 172.4 448 187.8v136.1z"/></svg>