<svg xmlns="http://www.w3.org/2000/svg" viewBox="0 0 512 512"><!--! Font Awesome Pro 6.1.1 by @fontawesome - https://fontawesome.com License - https://fontawesome.com/license (Commercial License) Copyright 2022 Fonticons, Inc.--><path d="M408 64c-39.69 0-72 31.86-72 71.02v58.17c-3.8-.69-7.7-1.19-11.7-1.19-13 0-25.5 3.7-36.3 10.5-10.8-6.8-23.3-10.5-36.2-10.5-4.1 0-8 .5-11.8 1.2V72c0-39.7-32.3-72-71.1-72-40.6 0-72.88 32.3-72.88 72v168.5c-11.17-5.4-20.83-5.1-26.19-5.1C25.48 235.4 0 272.63 0 305.25c0 14.99 4.821 29.51 13.99 41.69l78.14 104.2C120.7 489.3 166.2 512 213.7 512h90.19C401.1 512 480 433.1 480 335.9V135c0-39.14-32.3-71-72-71zM304 260.3c0-11.2 9.1-20.3 20.3-20.3s20.25 9.078 20.25 20.25v71.5C344.5 342.9 335.4 352 324.3 352s-20.3-9.1-20.3-20.2v-71.5zm-72.5 0c0-11.2 9.1-20.3 20.3-20.3s20.2 9.1 20.2 20.3v71.5c0 11.1-9.1 20.2-20.2 20.2s-20.3-9.1-20.3-20.2v-71.5zM432 335.8c0 70.7-57.5 128.2-128.2 128.2h-90.1c-32.56 0-63.65-15.55-83.18-41.59L52.36 318.2c-2.92-3.9-4.35-8.5-4.35-13.1 0-15.8 14.02-21.75 21.51-21.75 7.168 0 13.81 3.7 17.55 8.728l28.12 37.5a16.029 16.029 0 0 0 12.8 6.4c11.94 0 16.01-10.68 16.01-15.99V72c0-13.23 10.78-24 23.1-24 13.22 0 24 10.77 24 24l.9 155.1c-5.2 10.5-8.5 21.4-8.5 33.2v71.5c0 37.6 30.6 68.2 68.3 68.2a67.58 67.58 0 0 0 36.25-10.5A67.672 67.672 0 0 0 324.3 400c37.63 0 68.25-30.61 68.25-68.25v-71.5c0-11.75-3.254-22.64-8.5-32.3V135c-.05-12.7 10.75-23 23.95-23s24 10.33 24 23.02V335.8z"/></svg>