<svg xmlns="http://www.w3.org/2000/svg" viewBox="0 0 640 512"><!--! Font Awesome Pro 6.1.1 by @fontawesome - https://fontawesome.com License - https://fontawesome.com/license (Commercial License) Copyright 2022 Fonticons, Inc.--><path d="M448 175.1V296l31.1-.056-.012-119.1C479.1 167.2 472.8 160 464 160s-16 7.2-16 15.1zm16-47.1c13.25 0 24-12 24-26.62C488 86.63 464 48 464 48s-24 38.63-24 53.38C440 116 450.8 128 464 128zM319.1 79.94c14.1 0 24.9-11.94 24.9-26.56C344 38.63 320 0 320 0s-24 38.63-24 53.38c0 14.62 10.7 26.56 23.1 26.56zM400 128c13.25 0 24-12 24-26.62C424 86.63 400 48 400 48s-24 38.63-24 53.38C376 116 386.8 128 400 128zm112 47.1V296l31.1-.056-.003-119.1C543.1 167.2 536.8 160 528 160s-16 7.2-16 15.1zM616 128c13.3 0 24-12 24-26.6 0-14.77-24-53.4-24-53.4s-24 38.63-24 53.4c0 14.6 10.8 26.6 24 26.6zm-88 0c13.25 0 24-12 24-26.62C552 86.63 528 48 528 48s-24 38.63-24 53.38C504 116 514.8 128 528 128zm-144 47.1V296l31.1-.056-.02-119.1C415.1 167.2 408.8 160 399.1 160s-15.1 7.2-15.1 15.1zM24 128c13.25 0 24-12 24-26.6C48 86.63 24 48 24 48S0 86.63 0 101.4C0 116 10.75 128 24 128zm216 0c13.25 0 24-12 24-26.62C264 86.63 240 48 240 48s-24 38.63-24 53.4c0 14.6 10.8 26.6 24 26.6zM96 175.1l-.9 120.8 32.9.1-.9-120.9c0-7.9-6.3-15.1-16-15.1S96 167.2 96 175.1zm519.1-15.2c-12.4 0-23.1 10.8-23.1 24.1v110.3c0 22.9-18.8 41.7-41.7 41.7H344V136c0-13.26-10.75-24-24-24s-24 10.7-24 24v200H89.75C66.79 336 48 317.2 48 294.3V184c0-13.26-10.75-24.09-24-24.09S0 170.7 0 184v110.3C0 343.8 40.18 384 89.75 384H296v80H144c-13.25 0-24 10.74-24 24 0 13.25 10.74 24 23.99 24h352c13.31 0 24.01-10.7 24.01-24 0-13.26-10.75-24-24-24H344v-80h206.3c49.5 0 89.7-40.2 89.7-89.7V184c0-13.3-10.7-24.1-24.9-24.1zM112 128c13.25 0 24-12 24-26.62C136 86.63 112 48 112 48s-24 38.63-24 53.4C88 116 98.75 128 112 128zm112 47.1-.9 120.8 32.9.1-.9-120.9c0-7.9-6.3-15.1-15.1-15.1s-16 7.2-16 15.1zM176 128c13.25 0 24-12 24-26.62C200 86.63 176 48 176 48s-24 38.63-24 53.4c0 14.6 10.8 26.6 24 26.6zm-16 47.1-.9 120.8 32.9.1-.9-120.9c0-7.9-6.3-15.1-16-15.1s-15.1 7.2-15.1 15.1z"/></svg>