<svg xmlns="http://www.w3.org/2000/svg" viewBox="0 0 576 512"><!--! Font Awesome Pro 6.1.1 by @fontawesome - https://fontawesome.com License - https://fontawesome.com/license (Commercial License) Copyright 2022 Fonticons, Inc.--><path d="M188.7 32.47c13 2.6 21.4 15.24 18.8 28.24l-15 75.29h111l17-84.7c2.6-13 15.2-21.43 28.2-18.83 13 2.6 21.4 15.24 18.8 28.24l-15 75.29H424c13.3 0 24 10.8 24 24 0 .4-.9.8-.9 1.1-19.1 2-37.3 11-52.4 22.9h-51.8l-55.4 276.7c-2.6 13-15.2 21.4-28.2 18.8-13-2.6-21.4-15.2-18.8-28.2l15-75.3h-111l-17 84.7c-2.6 13-15.2 21.4-28.21 18.8-12.99-2.6-21.42-15.2-18.82-28.2L95.53 376l-72.43-.9c-12.36 0-23.1-9.8-23.1-24 0-12.4 10.75-24 24-24l81.1.9 28.8-144H56c-13.25 0-24-10.7-24-24 0-13.2 10.75-24 24-24h87.5l17-84.7c2.6-13 15.2-21.43 28.2-18.83zM182.9 184l-28.8 144h111l28.8-144h-111zm281.1 8c44.2 0 80 35.8 80 80v48c17.7 0 32 14.3 32 32v128c0 17.7-14.3 32-32 32H384c-17.7 0-32-14.3-32-32V352c0-17.7 14.3-32 32-32v-48c0-44.2 35.8-80 80-80zm0 48c-17.7 0-32 14.3-32 32v48h64v-48c0-17.7-14.3-32-32-32z"/></svg>