<svg xmlns="http://www.w3.org/2000/svg" viewBox="0 0 640 512"><!--! Font Awesome Pro 6.1.1 by @fontawesome - https://fontawesome.com License - https://fontawesome.com/license (Commercial License) Copyright 2022 Fonticons, Inc.--><path d="M611.9 217.8c2.074-8.539-.275-17.58-6.625-24.03-6.324-6.299-15.22-8.641-23.75-6.525-9.15-15.06-33.85-15.04-43-.025-8.4-2.141-17.43.252-23.82 6.625-6.301 6.373-8.625 15.42-6.525 23.98C500.7 222.5 496 230.5 496 239.5c0 8.967 4.699 17.05 12.12 21.66-2.074 8.539.219 17.61 6.619 24.11 6.824 6.727 15.26 8.939 23.83 6.572C543.2 299.3 551.2 304 560 304c8.9 0 16.88-4.711 21.45-12.17 6.926 1.965 15.44 1.462 24.01-6.751 6.227-6.322 8.49-15.37 6.391-23.93C619.3 256.5 624 248.5 624 239.5c0-9-4.7-17-12.1-21.7zM464 368h6.645l-80.24-208.6C386.9 150.2 377.9 144 367.1 144c-2.934 0-5.822.531-8.588 1.582-12.36 4.775-18.54 18.69-13.82 31.03L419.2 368H93.04l77.36-193.4c23-57.5 77.9-94.6 139.8-94.6 48.52 0 94.31 23.57 122.5 63.05l27.78 38.91a24.139 24.139 0 0 0 19.55 10.02c4.99 0 9.799-1.523 13.9-4.406 10.79-7.738 13.29-22.75 5.643-33.52l-27.79-38.92C434.5 63.08 374.1 32 310.2 32c-81.67 0-154 48.99-184.3 124.8L41.37 368H48c-26.51 0-48 21.5-48 48v16c0 26.5 21.49 48 48 48h416c26.51 0 48-21.49 48-48v-16c0-26.5-21.5-48-48-48zm16.1-184.3c-.342.021-.646.315-.988.315-.381 0-.721-.233-1.1-.26 1.588.045 2.288-.055 2.088-.055z"/></svg>