<svg xmlns="http://www.w3.org/2000/svg" viewBox="0 0 512 512"><!--! Font Awesome Pro 6.1.1 by @fontawesome - https://fontawesome.com License - https://fontawesome.com/license (Commercial License) Copyright 2022 Fonticons, Inc.--><path d="M195.3 105.2c-5.5 10-4.462 22.79 4.163 31.41 5.25 5.125 11.96 7.713 18.84 7.713 4.5 0 8.625-1.5 12.5-3.625C234.1 151.8 243.9 160 256 160s21.88-8.25 25.25-19.25c4 2.125 8.125 3.625 12.5 3.625 6.75 0 13.54-2.663 18.91-7.788 8.625-8.625 9.587-21.34 4.087-31.34C327.8 101.9 336 92.13 336 80s-8.25-21.87-19.25-25.25c5.5-10 4.487-22.76-4.138-31.39s-21.36-9.613-31.36-4.113C277.9 8.25 268.1 0 256 0s-21.9 8.25-25.2 19.25c-10-5.5-22.76-4.494-31.38 4.131-8.72 8.629-9.62 21.369-4.12 31.369C184.3 58.13 176 67.88 176 80s8.3 21.9 19.3 25.2zM480 416H32c-17.75 0-32 14.25-32 32v32c0 17.75 14.25 32 32 32h448c17.75 0 32-14.25 32-32v-32c0-17.7-14.2-32-32-32zM85.88 335.9 128 314.8l64 32 64-32 64 32 64-32 42.13 21.12C431.6 362.3 432 381.5 432 384h48c0-2-2.25-165.5-131.9-244.9-2.875 7.25-7.062 14.12-12.94 20.12-6.625 6.5-14.69 11.13-23.31 14 46.88 24.5 75.25 61.75 92.63 98.13L384 261.3l-64 32-64-32-64 32-64-32-20.6 10.2c17.4-36.4 45.9-73.6 92.6-98.2-8.6-2.8-16.6-7.4-23.2-14.1-5.9-5.8-10-12.6-12.9-19.9C34.25 218.5 32 382 32 384h48c0-2.5.38-21.7 5.88-48.1z"/></svg>