<svg xmlns="http://www.w3.org/2000/svg" viewBox="0 0 512 512"><!--! Font Awesome Pro 6.1.1 by @fontawesome - https://fontawesome.com License - https://fontawesome.com/license (Commercial License) Copyright 2022 Fonticons, Inc.--><path d="M400 448c0 8.836-7.164 16-16 16H128c-8.836 0-16-7.164-16-16v-64H64v64c0 35.2 28.8 64 64 64h256c35.2 0 64-28.8 64-64v-64h-48v64zm16-416c-20.88.125-41.13 7-57.75 19.75C334.9 20.5 297.1 0 256 0c-42.9 0-78.9 20.5-102.2 51.75-17.1-13.07-37.6-20.65-58.18-19.76A95.167 95.167 0 0 0 53.13 42C20.38 58.13-.125 91.5 0 128c0 41.75 64 224 64 224h384s64-182.3 64-224c0-53-43-96-96-96zm-.9 272h-41.88l25.69-141.3c1.594-8.719-4.383-16.87-13.09-18.46-8.688-1.312-16.88 4.398-18.45 13.09L341.6 304H272V160c0-8.844-7.156-16-16-16s-16 7.2-16 16v144h-69.6l-26.6-146.7c-1.6-8.7-10.7-14.4-18.5-13.1-8.7 1.6-14.7 8.9-13.1 18.5L137.9 304H96.05C71.44 243.2 48.48 145.5 48 127.8c-.06-18.3 10.03-34.71 26.53-42.84 6.62-3.29 13.71-4.97 21.09-4.97 10.53 0 20.53 3.402 28.91 9.838l38.55 29.58L192.2 80.5C207.6 59.85 230.9 48 256 48c25.11 0 48.36 11.85 63.81 32.5l29.1 38.9 38.55-29.56C395.8 83.46 405.7 80.06 416 80c26.47 0 48 21.53 48 47.9-.5 17.6-23.4 115.3-48.9 176.1z"/></svg>