<svg xmlns="http://www.w3.org/2000/svg" viewBox="0 0 640 512"><!--! Font Awesome Pro 6.1.1 by @fontawesome - https://fontawesome.com License - https://fontawesome.com/license (Commercial License) Copyright 2022 Fonticons, Inc.--><path d="M617.7 207c-23.1-11-43.25 4.25-48.1 11.62-1.625 2.5-17.75 25.88-57.25 48.5C495.9 166 461.9 32 392.3 32c-18.37 0-36.05 7.25-52.67 21.5-11.75 10.12-27.5 10.12-39.25 0C283.7 39.25 266.1 32 247.7 32c-69.6 0-103.4 134.1-119.2 235.1-36.87-21.1-53.24-42.9-56.37-47.3-11.37-15.4-32-20.9-49.49-13-18.253 8.1-27.003 27.8-20.503 46C5.262 260.9 79.14 448 319.1 448s314.7-187.1 317.8-195.1c7.4-18-1.2-37.7-19.2-45.9zm-370-127c6.5 0 13.75 3.375 21.37 10 29.1 25.75 71.87 25.75 101.9 0 7.63-6.62 14.93-10 21.43-10 18.12 0 44.62 57.38 63.37 148.9-78.12 35.63-186.4 38.88-271.4 0C203.1 137.4 229.5 80 247.7 80zm71.4 320C183.4 400 109.5 332.5 74 284.1c41.5 27 117.1 58.25 245.1 58.25s203.1-31.75 245.2-58.5C529.9 332.4 455.1 400 319.1 400z"/></svg>