<svg xmlns="http://www.w3.org/2000/svg" viewBox="0 0 640 512"><!--! Font Awesome Pro 6.1.1 by @fontawesome - https://fontawesome.com License - https://fontawesome.com/license (Commercial License) Copyright 2022 Fonticons, Inc.--><path d="M480 359.1c-13.25 0-23.1 10.75-23.1 24s10.75 24 23.1 24 24-10.75 24-24-10.7-24-24-24zm-2.8-84.1c-21-47.13-48.49-151.8-73.11-186.8C365.6 33.63 302.5 0 234.1 0h-35C95.51 0 4.139 80.13.139 184.5c-2.25 59.88 22.99 113.6 63.86 150.4L64.01 488c0 13.26 10.75 24 24 24s23.1-10.74 23.1-23.1V313.4l-15.1-14.25C49.13 257 33.01 187.4 63.88 126.6 89.26 76.75 143.1 48 198.1 48h35.12c51.1 0 100.9 25.38 130.7 67.88 11.25 15.88 27.1 65.63 40.37 102C411.7 237.3 418.1 255.8 424.2 272h-56.25v52.57l-56.22 8.031C298.1 334.6 288 346.2 288 360s10.13 25.45 23.76 27.39l56.22 8.031V416c0 8.836-7.164 16-16 16H271.1v56c0 13.26 10.74 24 24 24 13.25 0 23.1-10.74 23.1-23.1V480h31.99c35.34 0 64-28.66 64-63.1l.91-96.9h31.99c24.01 0 39.51-23.9 30.11-45zM608 359.1c-13.25 0-24 10.75-24 24s10.75 24 24 24 24-10.75 24-24-10.7-24-24-24zm0-48c13.25 0 24-10.75 24-24s-10.75-24-24-24-24 10.75-24 24 10.8 24 24 24zm-64 96c-13.25 0-23.1 10.75-23.1 24s10.75 24 23.1 24 24-10.75 24-24-10.7-24-24-24zm0-96c-13.25 0-23.1 10.75-23.1 24s10.75 24 23.1 24 24-10.75 24-24-10.7-24-24-24zm64 144c-13.25 0-24 10.75-24 24s10.75 24 24 24 24-10.75 24-24-10.7-24-24-24zM320 224c17.6 0 32-14.4 32-32s-14.37-32-31.1-32c-18.5 0-32.9 14.4-32.9 32s14.4 32 32 32z"/></svg>