<svg xmlns="http://www.w3.org/2000/svg" viewBox="0 0 512 512"><!--! Font Awesome Pro 6.1.1 by @fontawesome - https://fontawesome.com License - https://fontawesome.com/license (Commercial License) Copyright 2022 Fonticons, Inc.--><path d="M383.1 192c0-17.62-14.38-32-31.1-32-17.62 0-31.1 14.38-31.1 32s14.37 32 31.1 32c17.6 0 31.1-14.4 31.1-32zm126.1 83c-20.1-47.12-48.5-151.8-73.12-186.8C397.6 33.62 334.5 0 266.1 0h-66C95.6 0 4.2 80.12.2 184.5c-2.25 59.88 22.99 113.6 63.86 150.4l.006 153.1c-.056 13.3 10.684 24 23.944 24 13.25 0 23.1-10.74 23.1-23.1V313.4l-15.1-14.3c-46.88-42.1-63-111.7-32.13-172.5C89.26 76.75 143.1 48 198.1 48h67.12c51.1 0 100.9 25.38 130.7 67.88 11.25 15.88 27.1 65.62 40.37 102C443.7 237.2 450.1 255.8 456.2 272h-56.25v112c0 8.837-7.163 16-16 16h-79.99v88c0 13.25 10.74 23.1 23.1 23.1 13.25 0 23.1-10.74 23.1-23.1v-40h31.1c35.34 0 63.1-28.65 63.1-63.1V320h31.1c27.64 0 43.14-23.9 33.74-45z"/></svg>