<svg xmlns="http://www.w3.org/2000/svg" viewBox="0 0 640 512"><!--! Font Awesome Pro 6.1.1 by @fontawesome - https://fontawesome.com License - https://fontawesome.com/license (Commercial License) Copyright 2022 Fonticons, Inc.--><path d="M630.8 469.1 440.6 320h7.4c23.12 0 38.62-23.87 29.25-44.1-21-47.12-48.49-151.7-73.11-186.7C365.6 33.62 302.5 0 234.1 0h-35c-42.9 0-84.2 14.31-117.84 38.38L38.81 5.109A23.96 23.96 0 0 0 24.03 0C16.91 0 9.845 3.156 5.126 9.187-3.061 19.62-1.249 34.72 9.189 42.89l591.1 463.1c10.5 8.203 25.56 6.328 33.69-4.078C643.1 492.4 641.2 477.3 630.8 469.1zM379.3 272l-61.9-48.5c.9.1 1.7.5 2.6.5 17.6 0 32-14.4 32-32s-14.37-32-31.1-32c-18.5 0-32.9 14.4-32.9 32 0 3.547.955 6.816 2.029 10.01L120.9 69.41C144.4 55.99 171.1 48 198.1 48h35.12c51.1 0 100.9 25.38 130.7 67.88 11.25 15.88 27.1 65.63 40.37 102C411.7 237.3 418.1 255.8 424.2 272h-44.9zM57.82 141.5l-39.07-30.6C7.775 133.3 1.15 158.1.139 184.5c-2.25 59.88 22.99 113.6 63.86 150.4L64.01 488c0 13.26 10.75 24 24 24s23.1-10.74 23.1-23.1V313.4l-15.1-14.25C52.91 260.4 36.3 198.5 57.82 141.5zM288 360c0 13.77 10.13 25.45 23.76 27.39l56.22 8.031V416c0 8.836-7.164 16-16 16H271.1v56c0 13.26 10.74 24 24 24 13.25 0 23.1-10.74 23.1-23.1V480l31.99-.002c33.36 0 60.44-25.61 63.41-58.2l-110.8-86.81C294.8 339.3 288 348.8 288 360zm319.1-48.9c13.25 0 24-10.75 24-23.1s-10.75-23.1-24-23.1S584 275.65 584 288s10.7 23.1 23.1 23.1zm0 96c13.25 0 24-10.78 24-24.03s-10.75-23.1-24-23.1-24 10.78-24 24.03 11.6 23.1 24 23.1zm-64-48c13.25 0 24-10.78 24-24.03s-10.75-23.1-24-23.1-24 10.78-24 24.03 11.6 23.1 24 23.1z"/></svg>