<svg xmlns="http://www.w3.org/2000/svg" viewBox="0 0 512 512"><!--! Font Awesome Pro 6.1.1 by @fontawesome - https://fontawesome.com License - https://fontawesome.com/license (Commercial License) Copyright 2022 Fonticons, Inc.--><path d="M160 271.9h-16c-35.34 0-64 28.7-64 64.13v79.88C80 451.3 108.7 480 144 480h16c17.66 0 32-14.34 32-32.05V303.9c0-17.7-14.3-32-32-32zM144 432c-8.822 0-16-7.234-16-16.12V336c0-8.893 7.178-16.12 16-16.12V432zM256 32C112.9 32 4.563 151.1 0 288v112c0 8.844 7.156 16 16 16h16c8.844 0 15.99-7.219 15.99-16.06L48 288c0-114.7 93.34-207.8 208-207.8 114.7 0 208 93.1 208 207.8l-.007 111.9C463.1 408.8 471.2 416 480 416l16 .031c8.844 0 16-7.156 16-16V287.1C507.4 151.1 399.1 32 256 32zm112 239.9h-16c-17.66 0-32 14.34-32 32.06v144c0 17.7 14.34 32.05 32 32.05l16-.01c35.34 0 64-28.7 64-64.13V336c0-35.4-28.7-64.1-64-64.1zm16 144c0 8.9-7.2 16.1-16 16.1V319.9c8.822 0 16 7.232 16 16.12v79.88z"/></svg>