<svg xmlns="http://www.w3.org/2000/svg" viewBox="0 0 512 512"><!--! Font Awesome Pro 6.1.1 by @fontawesome - https://fontawesome.com License - https://fontawesome.com/license (Commercial License) Copyright 2022 Fonticons, Inc.--><path d="M56.5 240H6.375C16 277.1 36.25 310 63.1 334.9L63.098 488C63.1 501.3 74.75 512 88 512s23.99-10.74 23.99-23.1V313.4l-16-14.25C77.87 282.9 64.5 262.4 56.5 240zm450.6 32H400v112c0 8.836-7.164 16-16 16h-79.1v88c0 13.26 10.75 24 24 24s23.1-10.74 23.1-24l-.9-40h31.1c35.34 0 63.1-28.65 63.1-63.1V320h31.1c23.12 0 38.62-23.88 29.25-45 3.05-.9 2.65-2.1 1.45-3zm-28-224h-81.63c-36.5-30.25-82.86-48-132.2-48H199.1C134.9 0 75.12 31.25 38.12 80H31.1C14.38 80 0 94.38 0 112v64c0 17.62 14.38 32 31.1 32h183.1c.25 0 .375-.25.625-.25C234.2 227.4 259.5 240 287.1 240h191.1c17.62 0 32.01-14.38 32.01-32V80c.89-17.62-12.61-32-31.11-32zM193.6 160H47.1v-32h146.5c-.9 5.3-2.5 10.5-2.5 16s1.6 10.8 2.5 16zm21.5-80h-111c26.75-20.38 60.12-32 94.87-32h67.12c4.625 0 9.25.375 13.88.75-25.27 2.13-47.47 13.75-63.37 31.5-.2 0-.4-.25-1.5-.25zm168 112h-95.99c-26.5 0-47.1-21.5-47.1-48s21.49-48 47.09-48h95.1l.9 96zm80 0H432V96h31.1v96z"/></svg>