<svg xmlns="http://www.w3.org/2000/svg" viewBox="0 0 512 512"><!--! Font Awesome Pro 6.1.1 by @fontawesome - https://fontawesome.com License - https://fontawesome.com/license (Commercial License) Copyright 2022 Fonticons, Inc.--><path d="M256 0C112.9 0 4.583 119.1.02 256L0 309.2C0 350.5 32.75 384 73.14 384h18.29c20.17 0 36.57-16.7 36.57-37.4V213.4c0-20.7-16.4-37.4-36.57-37.4H73.14c-3.277 0-6.344.715-9.498 1.148C94.8 101.5 169.3 48.2 256 48.19c86.74.012 161.2 53.36 192.4 128.1-3.2.41-6.3-.29-9.5-.29h-18.29C400.4 176 384 192.7 384 213.4v133.2c0 20.7 16.4 37.4 36.6 37.4h18.29c8.875 0 17.27-1.861 25.14-4.82V400c0 22.06-17.94 40-40 40h-110.7C305 425.7 289.7 416 272 416h-32c-26.5 0-48 21.5-48 48s21.5 48 47.1 48H272c17.72 0 33.03-9.711 41.34-24H424c48.53 0 88-39.47 88-88V256C507.4 119.1 399.1 0 256 0zM73.14 224H80v112h-6.86C59.28 336 48 323.1 48 309.2V256c0-2.41.28-4.75.361-7.141C49.33 235 59.91 224 73.14 224zM438.9 336H432V224h6.857c13.23 0 23.81 11.04 24.78 24.86.063 2.44.363 4.74.363 7.14v53.24c0 13.86-11.3 26.76-25.1 26.76z"/></svg>