<svg xmlns="http://www.w3.org/2000/svg" viewBox="0 0 512 512"><!--! Font Awesome Pro 6.1.1 by @fontawesome - https://fontawesome.com License - https://fontawesome.com/license (Commercial License) Copyright 2022 Fonticons, Inc.--><path d="M256 32C112.9 32 4.563 151.1 0 288l.004 111.9c0 .838.35 1.621.472 2.424C2.97 445.6 38.49 480 82.36 480c25.24 0 45.64-20.4 45.64-45.6V301.8c0-25.3-20.5-45.8-45.75-45.8-11.58 0-22.56 2.4-32.55 6.7C62.23 159.9 149.9 80.14 256 80.13c106.1.014 193.8 79.79 206.3 182.6-10-4.33-21-6.73-32.5-6.73-25.3 0-45.8 20.5-45.8 45.8v132.6c0 25.2 20.4 45.6 45.6 45.6 43.87 0 79.39-34.39 81.88-77.64.123-.803.472-1.586.472-2.424L512 287.9C507.4 151 399.1 32 256 32zM80 304.1v127.8c-17.85-1.215-32-16.12-32-34.28v-59.39c0-18.13 14.16-33.03 32-34.13zm352 127.8V304.1c17.84 1.164 32 16.05 32 34.18v59.39c0 18.13-14.2 33.03-32 34.23z"/></svg>