<svg xmlns="http://www.w3.org/2000/svg" viewBox="0 0 512 512"><!--! Font Awesome Pro 6.1.1 by @fontawesome - https://fontawesome.com License - https://fontawesome.com/license (Commercial License) Copyright 2022 Fonticons, Inc.--><path d="M509.2 275c-21-47.13-48.5-151.8-73.12-186.8C397.6 33.63 334.5 0 266.1 0h-66C95.6 0 4.2 80.13.2 184.5-2.111 244.4 23.13 298.1 64 334.9l.01 153.1c0 13.26 10.75 24 24 24s23.1-10.74 23.1-23.1V313.4l-15.1-14.25C49.13 257 33.01 187.4 63.88 126.6 89.26 76.75 143.1 48 198.1 48h67.12c51.1 0 100.9 25.38 130.7 67.88 11.25 15.88 27.1 65.63 40.37 102C443.7 237.3 450.1 255.8 456.2 272h-56.25v112c0 8.836-7.164 16-16 16h-79.99v88c0 13.26 10.74 24 24 24 13.25 0 23.1-10.74 23.1-23.1V448h32.01c35.34 0 63.1-28.65 63.1-63.1V320h31.1c25.83 0 41.33-23.9 31.93-45zM315.1 122.9c-19.88-16.68-49.67-13.65-67.1 4.795L239.9 135l-7.2-7.3c-18.22-18.45-47.9-21.47-67.89-4.795C141.9 142.1 140.7 176.4 161.2 197.3l70.6 71.3c4.582 4.586 11.87 4.586 16.45 0l70.6-71.3c20.45-20.9 19.25-55.2-3.75-74.4z"/></svg>