<svg xmlns="http://www.w3.org/2000/svg" viewBox="0 0 512 512"><!--! Font Awesome Pro 6.1.1 by @fontawesome - https://fontawesome.com License - https://fontawesome.com/license (Commercial License) Copyright 2022 Fonticons, Inc.--><path d="M352 160c-17.68 0-32 14.33-32 32s14.33 32 32 32 31.1-14.33 31.1-32-13.4-32-31.1-32zm157.2 115c-20.94-47.13-48.47-151.7-73.11-186.8C397.7 33.59 334.6 0 266.1 0h-67.9C93.68 0 3.668 80.86.113 185.3c-2.023 59.48 23.14 113 63.88 149.6L64.01 488c0 13.25 10.75 24 24 24s24-10.75 24-24V313.4l-15.95-14.3c-28.48-25.6-45.46-61.3-47.63-99l175.6 119.1V480c0 17.67 14.31 32 31.99 32h115.1c37.01 0 70.29-23.39 82.81-58.2l54.6-151.6c3.97-8.1 4.87-17.9.67-27.2zm-69.7 77H336c-8.838 0-16 7.162-16 16 0 8.836 7.163 16 16 16h91.98l-11.52 32H336c-8.838 0-16 7.162-16 16 0 8.836 7.163 16 16 16h66.97c-7.438 9.854-19.17 16-31.92 16h-99.03V320h179l-11.52 32zm-199.7-80L55.62 147c2.137-6.424 4.461-12.84 7.58-19.12C88.22 77.53 142.1 48 198.4 48h67.79c51.99 0 100.9 25.38 130.8 67.88 11.19 15.91 28.07 65.67 40.38 102C443.9 237.2 450.2 255.8 456.3 272H239.8z"/></svg>