<svg xmlns="http://www.w3.org/2000/svg" viewBox="0 0 512 512"><!--! Font Awesome Pro 6.1.1 by @fontawesome - https://fontawesome.com License - https://fontawesome.com/license (Commercial License) Copyright 2022 Fonticons, Inc.--><path d="M320.5 302.7c3.639 0 7.277-1.389 10.05-4.166 5.557-5.557 5.557-14.56 0-20.11l-7.65-7.624c-17.92-17.92-5.227-48.56 20.11-48.56h10.77c7.861 0 14.22-6.36 14.22-14.22s-6.4-14.22-14.2-14.22h-10.77c-25.34 0-38.03-30.64-20.11-48.56l7.623-7.623c5.557-5.557 5.557-14.56 0-20.11-5.555-5.557-14.55-5.557-20.11 0l-7.623 7.623C284.9 143 254.2 130.3 254.2 104.1v-9.88c0-7.861-6.362-14.22-14.22-14.22s-14.18 6.36-14.18 14.22v10.77c0 25.34-30.64 38.03-48.56 20.12l-7.64-7.61c-5.557-5.557-14.56-5.557-20.11 0-5.557 5.555-5.555 14.55.002 20.11l7.608 7.59c17.92 17.92 5.227 48.56-20.11 48.56H126.2c-7.861 0-14.22 6.363-14.22 14.22s6.42 14.22 14.22 14.22h9.9c25.34 0 38.03 30.64 20.11 48.56l-6.71 7.64c-5.557 5.555-5.557 14.55 0 20.11 2.777 2.777 6.416 4.166 10.05 4.166s7.279-1.389 10.06-4.166l7.59-7.61c17.92-17.92 48.56-5.229 48.56 20.11v10.77c0 7.861 6.361 14.22 14.22 14.22s14.22-6.361 14.22-14.22V311c0-25.34 30.64-38.03 48.56-20.11l7.623 7.623C313.2 301.3 316.8 302.7 320.5 302.7zM208 207.1c-8.836 0-15.1-7.164-15.1-15.1 0-8.838 7.164-16 16-16s15.1 7.162 15.1 15.1c0 9.7-7.2 16-16 16zm64 32c-8.836 0-16-7.165-16-16 0-8.838 7.165-16 16-16s16 7.162 16 16c0 9.7-7.2 16-16 16zM509.2 275c-21-47.13-48.48-151.8-73.1-186.8C397.6 33.63 334.5 0 266.1 0h-66C95.58 0 4.139 80.13.139 184.5c-2.25 59.88 22.99 113.6 63.87 150.3L64.01 488c0 13.26 10.75 24 24 24s23.1-10.74 23.1-23.1V313.4l-15.1-14.25C49.13 257 33.01 187.4 63.88 126.6 89.26 76.75 143.1 48 198.1 48h67.12c51.1 0 100.9 25.38 130.7 67.88 11.25 15.88 27.1 65.63 40.37 102C443.7 237.3 450.1 255.8 456.2 272h-56.25v112c0 8.836-7.164 16-16 16h-79.99v88c0 13.26 10.74 24 24 24 13.25 0 23.1-10.74 23.1-23.1V448h32.01c35.34 0 63.1-28.65 63.1-63.1V320h31.98c24.95 0 40.45-23.9 31.05-45z"/></svg>