<svg xmlns="http://www.w3.org/2000/svg" viewBox="0 0 512 512"><!--! Font Awesome Pro 6.1.1 by @fontawesome - https://fontawesome.com License - https://fontawesome.com/license (Commercial License) Copyright 2022 Fonticons, Inc.--><path d="M313.6 192c21.12 0 38.38-16.5 38.38-36.75 0-20.38-17.25-36.88-38.38-36.88h-2.625c-5.25-15.25-19.62-25.5-35.75-25.62-7.125 0-13.38 2.5-19.12 5.875C249.4 87.63 237.8 80 224 80s-25.4 7.63-32.1 18.63c-5.75-3.375-12-5.875-19.12-5.875-21.12 0-38.38 17.25-38.38 38.5-21.12 0-38.38 17.12-38.38 38.38 0 16.88 11 30.75 26.12 35.88-.14.885-.54 1.585-.54 2.485 0 21.25 17.12 38.38 38.38 38.38 4.375-.125 8.75-1 12.75-2.5v50.5C172.8 308.5 184.2 320 198.4 320s25.62-11.47 25.62-25.62v-50.5c4.125 1.5 8.375 2.375 12.75 2.5 21.25 0 38.5-17.12 38.5-38.38-.125-5.5-1.375-11-3.75-16h42.08zm195.6 83c-21-47.13-48.5-151.8-73.12-186.8C397.6 33.62 334.5 0 266.1 0h-66C95.6 0 4.2 80.13.2 184.5-2.111 244.4 23.13 298.1 64 334.9l.01 153.1c0 13.26 10.75 24 24 24s23.1-10.74 23.1-23.1V313.4l-15.1-14.25C49.13 257 33.01 187.4 63.88 126.6 89.26 76.75 143.1 48 198.1 48h67.12c51.1 0 100.9 25.38 130.7 67.88 11.25 15.88 27.1 65.63 40.37 102C443.7 237.3 450.1 255.8 456.2 272h-56.25v112c0 8.836-7.164 16-16 16h-79.99v88c0 13.26 10.74 24 24 24 13.25 0 23.1-10.74 23.1-23.1V448h32.01c35.34 0 63.1-28.65 63.1-63.1V320h31.1c25.83 0 41.33-23.9 31.93-45z"/></svg>