<svg xmlns="http://www.w3.org/2000/svg" viewBox="0 0 512 512"><!--! Font Awesome Pro 6.1.1 by @fontawesome - https://fontawesome.com License - https://fontawesome.com/license (Commercial License) Copyright 2022 Fonticons, Inc.--><path d="M320 208v-32c0-8.8-7.2-16-16-16h-47.1l-.9-48c0-8.8-7.2-16-16-16h-32c-8.8 0-16 7.2-16 16v48h-48c-8.8 0-16 7.2-16 16v32c0 8.8 7.2 16 16 16h48v48c0 8.8 7.2 16 16 16h32c8.8 0 16-7.2 16-16v-48h48c8.8 0 16-7.2 16-16zm189.2 67c-21-47.13-48.5-151.8-73.12-186.8C397.6 33.63 334.5 0 266.1 0h-66C95.6 0 4.2 80.13.2 184.5-2.111 244.4 23.13 298.1 64 334.9l.01 153.1c0 13.26 10.75 24 24 24s23.1-10.74 23.1-23.1V313.4l-15.1-14.25C49.13 257 33.01 187.4 63.88 126.6 89.26 76.75 143.1 48 198.1 48h67.12c51.1 0 100.9 25.38 130.7 67.88 11.25 15.88 27.1 65.63 40.37 102C443.7 237.3 450.1 255.8 456.2 272h-56.25v112c0 8.836-7.164 16-16 16h-79.99v88c0 13.26 10.74 24 24 24 13.25 0 23.1-10.74 23.1-23.1V448h32.01c35.34 0 63.1-28.65 63.1-63.1V320h31.1c25.83 0 41.33-23.9 31.93-45z"/></svg>