<svg xmlns="http://www.w3.org/2000/svg" viewBox="0 0 512 512"><!--! Font Awesome Pro 6.1.1 by @fontawesome - https://fontawesome.com License - https://fontawesome.com/license (Commercial License) Copyright 2022 Fonticons, Inc.--><path d="m255.1 96 12-11.98C300.6 51.37 347 36.51 392.6 44.1c68.9 11.48 119.4 71.1 119.4 141v5.8c0 41.5-17.2 81.2-47.6 109.5L283.7 469.1c-7.5 7-17.4 10.9-27.7 10.9s-20.2-3.9-27.7-10.9L47.59 300.4C17.23 272.1 0 232.4 0 190.9v-5.8c0-69.9 50.52-129.52 119.4-141 44.7-7.59 92 7.27 124.6 39.9l11.1 12zm60.9 62.9-88.9 51.9 59.7 97c2.1 3.4 1.4 7.8-1.7 10.4-4 2.5-7.6 2.4-10.5-.3l-112-104c-2.5-1.5-2.6-3.6-2.6-5.8-.9-3 .8-4.2 2.3-5.8l66.1-66-18.3-19.2c-21.7-20.82-52.5-30.7-82.8-25.66C81.55 99.07 48 138.7 48 185.1v5.8c0 28.2 11.71 55.2 32.34 74.4L256 429.3l175.7-164c20.6-19.2 32.3-46.2 32.3-74.4v-5.8c0-46.4-33.6-86.03-79.3-93.66a95.115 95.115 0 0 0-80.9 24.66l15.4 32.5c1.8 3.7.4 8.2-3.2 10.3z"/></svg>