<svg xmlns="http://www.w3.org/2000/svg" viewBox="0 0 576 512"><!--! Font Awesome Pro 6.1.1 by @fontawesome - https://fontawesome.com License - https://fontawesome.com/license (Commercial License) Copyright 2022 Fonticons, Inc.--><path d="m310.3 108.6-53 58.6-56.2-58.2c-33.9-35.23-87.9-37.97-119.89-10.12l-.27.24C39.31 134.8 37.21 198.7 74.21 237.1h.03l182.16 187 6.8-6.2c4.9 16.8 12.3 32.5 21.7 46.7l-5.5 5.7c-13 12.9-33.9 12.9-45.9 0L39.71 270.5c-55.93-58-52.94-153.9 9.99-207.82 49.07-42.72 122.1-39.13 172.5.25 5 3.9 8.9 8.15 14.3 12.74l19.9 20.97 19-20.97c4.7-4.76 9.6-9.16 14.8-13.17 50.2-38.97 122.3-42.39 173 .18 42.9 37.42 57.5 94.92 43.8 146.02-14.3-7.6-29.7-11.6-45.8-14.3 8.2-33.5-1.5-70.9-29.2-95.24-34.4-28.55-87.4-24.94-121.7 9.44zM576 368c0 79.5-64.5 144-144 144s-144-64.5-144-144 64.5-144.9 144-144.9S576 288.5 576 368zm-80-16.9H368c-8.8 0-16 8.1-16 16 0 9.7 7.2 16 16 16h128c8.8 0 16-6.3 16-16 0-7.9-7.2-16-16-16z"/></svg>