<svg xmlns="http://www.w3.org/2000/svg" viewBox="0 0 640 512"><!--! Font Awesome Pro 6.1.1 by @fontawesome - https://fontawesome.com License - https://fontawesome.com/license (Commercial License) Copyright 2022 Fonticons, Inc.--><path d="M128 24c0-13.25 10.7-24 24-24h400c13.3 0 24 10.75 24 24s-10.7 24-24 24H384v80h40c83.1 0 152 68.1 152 152v56c0 35.4-28.7 64-64.9 64H320.6c-17 0-33.3-6.7-45.3-18.7l-89.1-89.2-139.95-62.2c-7.12-3.1-12.26-9.6-13.78-17.2L12.29 111.8C7.343 87.09 26.27 64 51.52 64h5.96c16.15 0 31.51 6.97 42.14 19.12L138.9 128H336V48H152c-13.3 0-24-10.75-24-24zm81.7 226.1c2.7 1.2 5.2 2.8 6.4 4.9l93.2 92.3c3 3 7 4.7 11.3 4.7H336V176H127.1c-6 0-12.6-3-17.2-8.2l-46.4-53.1c-.58-.6-1.26-1.2-2.01-1.6l15.61 78 132.6 59zM511.1 352c9.7 0 16.9-7.2 16.9-16v-56c0-57.4-46.5-104-104-104h-40v176h127.1zm97.4 140.7c-15.6 12.5-35 19.3-55 19.3H248c-13.3 0-24-10.7-24-24s10.7-24 24-24h305.5c9.1 0 17.9-3.1 25-8.8l22.5-17.9c10.4-9.2 25.5-6.6 33.7 3.7 8.3 10.4 6.6 25.5-4.6 33.7l-21.6 18z"/></svg>