<svg xmlns="http://www.w3.org/2000/svg" viewBox="0 0 576 512"><!--! Font Awesome Pro 6.1.1 by @fontawesome - https://fontawesome.com License - https://fontawesome.com/license (Commercial License) Copyright 2022 Fonticons, Inc.--><path d="M320 50.45V1.985C435.8 16.42 527.6 108.2 542 224h-48.4C479.8 134.8 409.3 64.23 320 50.45zM320 510v-48.4c89.3-13.8 159.8-84.3 173.6-173.6H542c-14.4 115.8-106.2 207.6-222 222zM33.98 288h48.47C96.23 377.3 166.7 447.8 256 461.6V510C140.2 495.6 48.42 403.8 33.98 288zM256 1.984V50.45C166.7 64.23 96.23 134.8 82.45 224H33.98C48.42 108.2 140.2 16.42 255.1 1.985l.9-.001zM224 232h128v-72c0-13.3 10.7-24 24-24s24 10.7 24 24v192c0 13.3-10.7 24-24 24s-24-10.7-24-24v-72H224v72c0 13.3-10.7 24-24 24s-24-10.7-24-24V160c0-13.3 10.7-24 24-24s24 10.7 24 24v72z"/></svg>