<svg xmlns="http://www.w3.org/2000/svg" viewBox="0 0 576 512"><!--! Font Awesome Pro 6.1.1 by @fontawesome - https://fontawesome.com License - https://fontawesome.com/license (Commercial License) Copyright 2022 Fonticons, Inc.--><path d="M573.1 376.8c-5.9-15-20-24.8-35.7-24.8h6.659v-48c0-113.4-73.84-209.3-176-242.9v-5.498C368 33.75 350.3 16 328.4 16h-80.8c-21.81 0-39.57 17.75-39.57 39.56v5.498C105.8 94.67 31.99 190.6 31.99 304v48h6.661c-15.77 0-29.82 9.75-35.78 24.81-5.594 14.12-2.844 30.59 6.938 41.84C16.62 426.6 82.34 496 288 496s271.4-69.44 278.1-77.25c9-11.35 12.6-27.85 7-41.95zM79.98 304c0-86.24 53.05-159.8 128-191.2V296c0 13.25 10.75 24 24 24s24-10.75 24-24V64h64.01v232c0 13.25 10.75 24 24 24s24-10.75 24-24V112.8C442.1 144.2 496 217.8 496 304v48H79.98v-48zM288 448c-131.2 0-197.6-30.19-225.4-48h450.8c-27.8 17.8-94.2 48-225.4 48z"/></svg>