<svg xmlns="http://www.w3.org/2000/svg" viewBox="0 0 512 512"><!--! Font Awesome Pro 6.1.1 by @fontawesome - https://fontawesome.com License - https://fontawesome.com/license (Commercial License) Copyright 2022 Fonticons, Inc.--><path d="M320 155.2V112c0-8.8 7.2-16 16-16s16 7.2 16 16v96c0 7.1-4.6 13.3-11.4 15.3-6.7 2.1-14-.6-17.9-6.4L288 164.8V208c0 8.8-7.2 16-16 16s-16-7.2-16-16v-96c0-7.1 4.6-13.27 11.4-15.31 6.7-2.05 14 .57 17.9 6.41l34.7 52.1zM160 176c0 8.8 7.2 16 16 16s16-7.2 16-16v-64c0-8.8 7.2-16 16-16s16 7.2 16 16v64c0 26.5-21.5 48-48 48s-48-21.5-48-48v-64c0-8.8 7.2-16 16-16s16 7.2 16 16v64zm209.1 288H456c13.3 0 24 10.7 24 24s-10.7 24-24 24h-96c-5.8 0-11.5-2.1-15.9-6.9L205.9 384H82.43C36.91 384 0 347.1 0 301.6V240C0 107.5 107.5 0 240 0s240 107.5 240 240h8c13.3 0 24 10.7 24 24s-10.7 24-24 24H368v175.1l1.1.9zM240 48C133.1 48 48 133.1 48 240v61.6c0 19 15.42 34.4 34.44 34.4H196.9l37.3-81.9c3.8-8.6 12.4-14.1 21.8-14.1h176c0-106.9-86-192-192-192zm80 240h-48.5l-29.2 64.1 77.7 68.6V288z"/></svg>