<svg xmlns="http://www.w3.org/2000/svg" viewBox="0 0 576 512"><!--! Font Awesome Pro 6.1.1 by @fontawesome - https://fontawesome.com License - https://fontawesome.com/license (Commercial License) Copyright 2022 Fonticons, Inc.--><path d="M31.99 256C49.62 256 64 243.5 64 228V0L.993 221.1C-4.132 238.9 11.24 256 31.99 256zM575 221.1 512 0v228c0 15.5 14.38 28 32 28 20.8 0 36.1-17.1 31-34.9zm-95-10.2C480 90.38 288 0 288 0S95.1 90.38 95.1 210.9c0 82.75-22.88 145.9-31.13 180.6-3.375 14.5 3.625 29.38 16.38 35.25l161.5 78.75c9.65 4.3 18.25 6.5 28.85 6.5h34.5c9.75 0 19.25-2.25 28-6.5l161.6-78.75c12.63-5.875 19.75-20.75 16.25-35.25C502.9 356.8 480 293.6 480 210.9zM312 462.5V288l88-32.01V224H175.1v31.1l88 32.9v174.5L114 389.75c1.6-2.75 2.5-5.75 3.2-8.75 10.75-38.63 26.75-97 26.75-170.1 0-63.5 91.88-127.8 144-156.9 52.13 29.12 144 93.37 144 156.9 0 73.12 16 131.5 26.75 170.1.75 3 1.625 6 2.375 8.75L312 462.5z"/></svg>