<svg xmlns="http://www.w3.org/2000/svg" viewBox="0 0 512 512"><!--! Font Awesome Pro 6.1.1 by @fontawesome - https://fontawesome.com License - https://fontawesome.com/license (Commercial License) Copyright 2022 Fonticons, Inc.--><path d="M445.8 105.9a72.1 72.1 0 0 1 36 62.4v176.6c0 25.7-13.7 49.5-36 62.3l-152.9 88.3a71.814 71.814 0 0 1-72 0L68 407.2c-22.28-12.8-36-36.6-36-62.3V168.3c0-25.7 13.72-49.5 36-62.4l152.9-88.25a71.983 71.983 0 0 1 72 0l152.9 88.25zM91.1 147.5c-6.53 4.3-12 12.2-12 20.8v176.6c0 8.5 5.47 16.5 12 20.7l153.8 88.3c7.4 4.3 16.6 4.3 24 0l152.9-88.3c7.5-4.2 12-12.2 12-20.7V168.3c0-8.6-4.5-16.5-12-20.8L268.9 59.22c-7.4-4.29-16.6-4.29-24 0L91.1 147.5zm204.8-37.9c5 2.8 8.1 8.1 8.1 13.9 0 12.3-13.3 20-23.9 13.9l-24.3-13.8v117h32c8.9 0 16 7.1 16 16 0 8.8-7.1 16-16 16h-32v128c0 8.8-7.1 16-16 16-8.8 0-16-7.2-16-16V96.34c0-1.57.2-3.16.7-4.71-.4-1.92 1.4-3.69 2.5-5.23 1.2-1.5 2.5-2.76 4-3.75 2.6-1.68 5.6-2.65 8.8-2.65h.1c.5 0 1 .03 1.5.07 2.4.23 4.7 1.02 6.7 2.24l47.8 27.29zm32.2 55.2c-5-2.9-8.1-8.2-8.1-13.9 0-12.3 13.3-20 23.9-13.9l72 41.1c7.7 4.4 10.4 14.2 6 21.8-4.4 7.7-14.2 10.4-21.8 6l-16.3-9.3v156c0 8.8-7.1 16-16 16-8.8 0-16-7.2-16-16V178.4l-23.7-13.6zM191.8 368.6c0 7.8-5.6 14.5-13.4 15.8-7.7 1.2-15.3-3.3-17.7-10.8l-32.9-98.4v61.4c0 8.8-7.1 16-16 16-8.8 0-15.95-7.2-15.95-16v-160c0-7.9 5.65-14.6 13.45-15.8 7.7-1.3 15.2 3.3 17.7 10.7l32.8 97.6V144.6c0-8.9 7.2-16 16-16 8.9 0 16 7.1 16 16v224z"/></svg>