<svg xmlns="http://www.w3.org/2000/svg" viewBox="0 0 512 512"><!--! Font Awesome Pro 6.1.1 by @fontawesome - https://fontawesome.com License - https://fontawesome.com/license (Commercial License) Copyright 2022 Fonticons, Inc.--><path d="M160.9 253.5v-76.9c0-8.9 7.2-16 16-16 8.9 0 16 7.1 16 16v160c0 7.6-5.4 14.2-13 15.7-7.5 1.4-15-2.7-17.8-9.8l-33.2-82.8v76.9c0 8.8-7.1 16-16 16-8.8 0-15.98-7.2-15.98-16v-160c0-7.7 5.48-14.3 12.98-15.7 7.5-1.5 15 2.6 17.9 9.7l33.1 82.9zm64-76.9c0-8.9 7.2-16 16-16h48c8.9 0 16 7.1 16 16 0 8.8-7.1 16-16 16h-32v48h32c8.9 0 16 7.1 16 16 0 8.8-7.1 16-16 16h-32v64c0 8.8-7.1 16-16 16-8.8 0-16-7.2-16-16v-160zm176-16c8.9 0 16 7.1 16 16 0 8.8-7.1 16-16 16h-16v144c0 8.8-7.1 16-16 16-8.8 0-16-7.2-16-16v-144h-16c-8.8 0-16-7.2-16-16 0-8.9 7.2-16 16-16h64zm-180-142.95a71.983 71.983 0 0 1 72 0l152.9 88.25a72.1 72.1 0 0 1 36 62.4v176.6c0 25.7-13.7 49.5-36 62.3l-152.9 88.3a71.814 71.814 0 0 1-72 0L68 407.2c-22.28-12.8-36-36.6-36-62.3V168.3c0-25.7 13.72-49.5 36-62.4l152.9-88.25zm48 41.57c-7.4-4.29-16.6-4.29-24 0L92 147.5a24 24 0 0 0-12 20.8v176.6c0 8.5 4.57 16.5 12 20.7l152.9 88.3c7.4 4.3 16.6 4.3 24 0l152.9-88.3c7.5-4.2 12-12.2 12-20.7V168.3c0-8.6-4.5-16.5-12-20.8L268.9 59.22z"/></svg>