<svg xmlns="http://www.w3.org/2000/svg" viewBox="0 0 512 512"><!--! Font Awesome Pro 6.1.1 by @fontawesome - https://fontawesome.com License - https://fontawesome.com/license (Commercial License) Copyright 2022 Fonticons, Inc.--><path d="M232 159.1c0 23-17.9 40-40 40s-40-17-40-40c0-21.2 17.9-40 40-40s40 18.8 40 40zM105.4 67.08c12.8-22.27 35.7-36 62.3-36h176.6c25.7 0 49.5 13.73 62.3 36l88.3 152.02c12.9 23.2 12.9 50.6 0 72l-88.3 153.8c-12.8 22.3-36.6 36-62.3 36H167.7c-26.6 0-49.5-13.7-62.3-36L17.07 291.1c-12.864-21.4-12.864-48.8 0-72L105.4 67.08zm-4 275.02 56.9-62.3c4.5-4.9 10.8-7.7 17.4-7.8 6.7-.1 13 2.6 17.6 7.4l38.9 40.6 71.6-86.2c4.6-5.5 11.4-8.7 18.5-8.7s13.9 3.2 18.4 8.7l78.1 94 34.6-60.7c4.2-6.5 4.2-15.7 0-24L365.1 91.08c-4.3-7.42-12.2-12-20.8-12H167.7c-8.6 0-16.5 4.58-20.8 12L58.64 243.1c-4.29 8.3-4.29 17.5 0 24l42.76 75z"/></svg>