<svg xmlns="http://www.w3.org/2000/svg" viewBox="0 0 576 512"><!--! Font Awesome Pro 6.1.1 by @fontawesome - https://fontawesome.com License - https://fontawesome.com/license (Commercial License) Copyright 2022 Fonticons, Inc.--><path d="M303.4 416h-48l-43.7 43.7c-11.6 10.7-26 14.1-39.6 10.1l-32.8 32.8c-6 6-14.1 9.4-22.6 9.4H32c-17.67 0-32-14.3-32-32v-4.7c0-8.5 3.372-16.6 9.372-22.6l72.808-72.8c-3.97-13.6-.6-28.9 10.11-39.6l42.81-43.7v-48c0-15.4 8.3-29.9 20.9-39L433.8 10.2C443 3.567 454.1 0 465.5 0c14.4 0 28.2 5.726 38.4 15.92l32.2 32.16c10.2 10.19 15 24.02 15 38.43 0 11.37-2.7 21.59-9.3 31.69L342.4 395.1c-9.1 13.5-23.6 20.9-39 20.9zm-171.5-47.4 51.5 51.5 52.1-52.1h67.9l16.1-22.5-113-113-23.4 16.1v67.9l-51.2 52.1zm216-63.5L502.8 90.21c.8-1.08.3-2.37.3-3.7 0-1.68.2-3.3-1-4.49l-33-32.16c-.3-1.19-1.9-1.86-3.6-1.86-1.3 0-2.6.42-3.7 1.19L246 204.1l101.9 101zM65.94 464h44.16l24.6-24.7-22-22L65.94 464zM552 464c13.3 0 24 10.7 24 24s-10.7 24-24 24H248c-13.3 0-24-10.7-24-24s10.7-24 24-24h304z"/></svg>