<svg xmlns="http://www.w3.org/2000/svg" viewBox="0 0 576 512"><!--! Font Awesome Pro 6.1.1 by @fontawesome - https://fontawesome.com License - https://fontawesome.com/license (Commercial License) Copyright 2022 Fonticons, Inc.--><path d="M192 64c0 17.67-14.3 32-32 32s-32-14.33-32-32 14.3-32 32-32 32 14.33 32 32zm60.4 71.8c-2.7-5.7-2.7-10.8 0-15.6l27-48.04c2.8-5.04 8.2-8.16 14-8.16h53.2c5.8 0 11.2 3.12 14 8.16l27 48.04c2.7 4.8 2.7 9.9 0 15.6l-27 48c-2.8 5.1-8.2 8.2-14 8.2h-53.2c-5.8 0-11.2-3.1-14-8.2l-27-48zM0 126.6c0-35.61 43.09-53.46 68.28-28.26L413.7 443.7c25.2 25.2 7.3 68.3-28.3 68.3H72c-39.76 0-72-32.2-72-72V126.6zm48 19.3V440c0 13.3 10.75 24 24 24h294.1L48 145.9zm408.2 230.7c-5.1-2.8-8.2-8.2-8.2-14v-53.2c0-5.8 3.1-11.2 8.2-14l48-27c4.8-2.7 9.9-2.7 15.6 0l48 27c5.1 2.8 8.2 8.2 8.2 14v53.2c0 5.8-3.1 11.2-8.2 14l-48 27c-5.7 2.7-10.8 2.7-15.6 0l-48-27zM320 288c0-17.7 14.3-32 32-32s32 14.3 32 32-14.3 32-32 32-32-14.3-32-32z"/></svg>