<svg xmlns="http://www.w3.org/2000/svg" viewBox="0 0 640 512"><!--! Font Awesome Pro 6.1.1 by @fontawesome - https://fontawesome.com License - https://fontawesome.com/license (Commercial License) Copyright 2022 Fonticons, Inc.--><path d="M583.1 391.1c-30.3 30.3-77.2 33.9-111.4 10.8L161.4 91.58c-.9-3.71-2.3-7.59-2.3-11.58 0-26.51 22.4-48 48-48 22.8 0 41.2 14.62 47 34.62C268.5 45.7 292.7 32 319.1 32c45.1 0 80.9 35.82 80.9 80 0 7.4-1.9 14.6-2.9 21.5 29.8 11.6 50.9 40.6 50.9 74.5 0 28.4-14.8 53.3-37.1 67.5l81.7 81.7c15.6 15.6 41 15.6 56.6 0 15.6-15.6 15.6-41 0-56.6-15.6-16.5-41-16.5-56.6 0l-33.9-33.9c34.3-34.4 90.1-34.4 124.4 0 34.4 34.3 34.4 90.1 0 124.4zM448 64c0-17.67 14.3-32 32-32s32 14.33 32 32-14.3 32-32 32-32-14.33-32-32zm96 96c0 17.7-14.3 32-32 32s-32-14.3-32-32 14.3-32 32-32 32 14.3 32 32zm-98.3 283.7c25.2 25.2 7.3 68.3-28.3 68.3H104c-39.76 0-72-32.2-72-72V126.6c0-35.61 43.09-53.46 68.3-28.26L445.7 443.7zM103.1 464h295l-319-318.1V440c0 13.3 11.64 24 24 24z"/></svg>