<svg xmlns="http://www.w3.org/2000/svg" viewBox="0 0 640 512"><!--! Font Awesome Pro 6.1.1 by @fontawesome - https://fontawesome.com License - https://fontawesome.com/license (Commercial License) Copyright 2022 Fonticons, Inc.--><path d="M559.3 91.5c-18.75 1.375-35 8.875-49.38 15.75-18.88-25.75-48.5-42.37-81-43.5C422.2 45.25 404.6 32 383.9 32h-32c-26.5 0-48 21.5-48 48v4.25C275.2 71.5 242.6 64 208 64 99.5 64 0 128 0 224v224c0 17.62 14.38 32 32 32h80c17.62 0 32-14.38 32-32v-40.63c55.88 15.38 103 6.875 127.9 0V448c0 17.62 14.37 32 32 32h80.06c17.62 0 32-14.38 32-32l-.063-144.2 96-.125V336c0 8.875 7.125 16 16 16h32c8.75 0 16-7.125 16-16v-32.4h12.75C617 303.6 640 280.5 640 252.1v-82.5c0-43.7-36-81.22-80.7-78.1zM367.9 432h-48l-.063-87.5c-122.9 33.63-114.4 30-223.9 0V432H48V235.5C56.38 156.2 132.1 112 208 112c35.88 0 69 10 95.88 26.62l.22 58.88c0 43.62 26.25 80.88 63.75 97.38V432zM592 255.6l-181.6.2c-32.25 0-58.25-26.13-58.25-58.25L351.9 88c0-4.375 3.625-8 8-8h16c4.5 0 8 3.625 8 8v31.5c22.5-6.5 34-8.25 44.63-7.5 21.75 1.5 40.75 15.38 49.25 35.38l9 21.25c54.1-20.62 59.62-28.12 75.1-29.25C581 137.8 592 156.2 592 169.6v86zM431.1 160c-8.875 0-16.1 7.125-16.1 16s7.125 16 16 16 16.1-7.125 16.1-16-6.2-16-16-16z"/></svg>