<svg xmlns="http://www.w3.org/2000/svg" viewBox="0 0 448 512"><!--! Font Awesome Pro 6.1.1 by @fontawesome - https://fontawesome.com License - https://fontawesome.com/license (Commercial License) Copyright 2022 Fonticons, Inc.--><path d="M191.1 416c-8.875 0-15.1 7.12-15.1 15.1s7.125 16 16 16 15.1-7.122 15.1-15.1-6.2-16-16-16zm0-64c-8.875 0-15.1 7.122-15.1 15.1s7.122 15.1 15.1 15.1 16-5.3 16-14.2-6.2-16-16-16zM272 112c8.875 0 16-7.142 16-16.02s-7.125-16-16-16-16 7.143-16 16.02 7.1 16 16 16zm-96.9 0c8.875 0 16-7.125 16-16s-7.125-16.02-16-16.02-16 7.127-16 16 8 16.02 16 16.02zm16 176c-8 0-16 7.1-16 15.1s7.12 15.1 15.1 15.1 16.9-5.3 16.9-14.2-6.2-16-16-16zM256 416c-8.875 0-16 7.125-16 16s7.127 15.1 16 15.1c8.875 0 15.1-7.125 15.1-16S264.9 416 256 416zm0-128c-8.875 0-16 7.125-16 16s7.129 15.99 16 15.99c8.875 0 15.1-7.122 15.1-15.1S264.9 288 256 288zm0 64c-8.875 0-16 7.125-16 16s7.125 15.99 16 15.99 15.1-7.125 15.1-16S264.9 352 256 352zm-32-224c-8.9 0-16.9 7.1-16.9 16s8 16 16.9 16 16-7.125 16-16-7.1-16-16-16zm224 110.2c0-88.34-30.45-147.8-71.37-183.7C335.1 18.12 279.5 0 224 0 168.37 0 112.9 18.13 71.4 54.5 30.45 90.31 0 149.8 0 238.2 0 288.01 9.68 347 32.62 416 64.5 511.1 224 512 224 512s159.5-.005 191.4-96.01C438.3 346.9 448 287.1 448 238.2zm-48.3-.1c0 47.57-9.922 102.5-29.94 162.7C352.9 451.9 256.4 463.9 224 464c-26.38 0-128.4-10.75-145.8-63.13-20.01-60.2-29.94-115.2-29.94-162.7 0-64.73 18.37-115.7 54.69-147.5C133.9 63.5 177.1 48 224 48s90.13 15.5 121 42.62c36.3 31.78 54.7 82.78 54.7 147.48zm-200.6-31c0-16.7-13.5-31.1-32-31.1h-64C85.47 176 72 190.36 72 207.98 71.1 243.4 100.6 272 135.1 272s64-28.6 64-64.9zM280 176c-17.63 0-32 14.36-32 31.98 0 35.42 28.6 64.02 64 64.02s63.1-28.64 63.1-64.02C376 190.4 361.6 176 344 176h-64z"/></svg>