<svg xmlns="http://www.w3.org/2000/svg" viewBox="0 0 640 512"><!--! Font Awesome Pro 6.1.1 by @fontawesome - https://fontawesome.com License - https://fontawesome.com/license (Commercial License) Copyright 2022 Fonticons, Inc.--><path d="M261.5 288h26.84l13.6-26.29-128.7-248.7C169 4.74 160.7 0 151.1 0c-12.59 0-23.98 10.15-23.98 24.04 0 3.714.865 7.484 2.69 11.01L261.5 288zM584 320H397.9l-24.83 48H512v95.1h-81.04c-15.02 0-28.62-8.281-35.53-21.62l-30.39-58.75-27.02 52.23 14.78 28.58C367.1 493.8 397.9 512 430.1 512H584c30.88 0 56-25.12 56-55.1v-79.1c0-32.7-25.1-57.8-56-57.8zm8 136c0 4.406-3.594 8-8 8h-40v-95.99l40-.001c4.406 0 8 3.592 8 7.998V456zM512 24.04C512 10.04 500.51 0 488.02 0c-8.674 0-17.06 4.74-21.33 12.99l-158.1 307.3a24.219 24.219 0 0 0-3.719-.281H56c-30.88 0-56 25.12-56 55.1v79.1C0 486.9 25.12 512 56 512h153c33.05 0 63-18.22 78.16-47.56l222.1-429.4c1.84-3.52 2.74-7.29 2.74-11zM96 464H56c-4.406 0-8-3.594-8-8v-79.1c0-4.406 3.594-7.998 8-7.998L96 368v96zm148.6-21.6c-6.9 13.3-20.5 21.6-35.6 21.6h-81v-95.1h155l-38.4 73.5z"/></svg>