<svg xmlns="http://www.w3.org/2000/svg" viewBox="0 0 512 512"><!--! Font Awesome Pro 6.1.1 by @fontawesome - https://fontawesome.com License - https://fontawesome.com/license (Commercial License) Copyright 2022 Fonticons, Inc.--><path d="M255.1 95.99c26.5 0 48-21.5 48-47.1S282.5 0 255.1 0 208 21.5 208 47.1s21.5 48.89 47.1 48.89zm32 47.11c0 26.49 21.5 47.1 47.1 47.1s48-21.5 48-47.1-21.5-47.1-48-47.1-47.1 21.5-47.1 47.1zm-111.1 48c26.5 0 47.1-21.5 47.1-47.1S202.5 95.96 176 95.96s-48 21.54-48 47.14 21.5 48 48 48zm276 145.1c-14.38-1.5-29.25-4.249-43.88-8.498-7.125-1.1-11.37-8.623-9.875-15.12 3.5-14.25 8.375-27.74 14.13-39.99 8.875-18.75-3.875-40.87-25-42.61C310 223.1 292.5 192.1 256 192.1c-37.62 0-52.88 30.87-131.4 37.87-21.38 1.874-33.87 24.12-25 42.61 5.875 12.37 10.62 25.87 14.13 40.12 1.5 6.498-2.75 13.12-9.875 15.12a244.156 244.156 0 0 1-43.88 8.373c-19.25 1.1-34.75 22.62-25 42.74 14.38 29.74 22 64.11 22.25 98.98C57.25 502.1 78.75 512 92.13 512c5.875 0 11.75-1.5 17.25-4.499 32.25-17.5 67.5-28.37 102.1-31.49 21.25-1.875 33.88-23.99 25-42.61-5.875-12.37-10.62-25.87-14.12-39.99-6.625-26.24 73.75-26.24 67.12 0-3.5 14.25-8.25 27.62-14.12 39.99-8.75 18.75 3.875 40.74 24.1 42.61 34.63 3.124 69.87 13.1 102.1 31.49C408 510.5 413.9 512 419.8 512c13.25 0 34.87-9.748 35-34.12.125-34.87 7.75-69.23 22.12-98.98 10.18-21.1-6.52-41-24.92-42.7zM219.1 332c-32.25 9.123-51.25 41.11-43.25 72.98 2.375 8.998 4.875 17.75 8 26.24-27.12 4.624-53.63 12.1-79.5 24.99-2-26.37-7.5-51.61-16.5-75.61 9.75-1.875 19.37-3.999 29.12-6.873 32.25-9.123 51.25-41.11 43.25-72.98-2.375-8.998-5-17.75-8-26.24 27-4.624 53.88-13.12 79.5-25.12 2 26.24 7.5 51.74 16.5 75.73C238.5 326.9 228.8 329.2 219.1 332zm188.5 124.3c-25.75-11.1-52.38-20.37-79.5-24.99 3.125-8.498 5.625-17.25 8-26.24 7.125-28.37-7.375-56.74-33.25-69.11-1.875-13.1-17.88-35.24-22.88-84.98 0-.5.125-1 .25-1.5 25.5 11.87 52.5 20.37 79.5 25.12-3.125 8.498-5.75 17.25-8 26.24-8 31.87 11 63.86 43.12 72.98 9.75 2.874 19.37 4.999 29.12 6.873C415.1 404.7 409.6 429.9 407.6 456.3z"/></svg>