<svg xmlns="http://www.w3.org/2000/svg" viewBox="0 0 576 512"><!--! Font Awesome Pro 6.1.1 by @fontawesome - https://fontawesome.com License - https://fontawesome.com/license (Commercial License) Copyright 2022 Fonticons, Inc.--><path d="M569.6 460.8c-57.62-76.88-57.62-140.9-57.62-140.9v-64c0-84-46.3-122.1-101.2-182.8l39.77-39.75c12.25-12.25 3.623-33.5-13.87-33.5H287.6c-95.62 0-223.6 109.5-223.6 256v64s.095 63.97-57.65 140.9c-15.75 21-.248 51.15 25.1 51.15h511.3c27.25-.8 42.65-30.8 26.85-51.1zM368.3 464h-160V328c0-44.13 35.1-80 79.99-80 44.12 0 79.99 35.88 79.99 80v136zm48 0V328c0-70.63-57.52-128-128.1-128-70.49 0-127.8 57.38-127.8 128v136H62.57c48.03-75.8 49.53-136.6 49.53-144v-64c0-118.8 106.5-208 175.5-208h80.74L344.3 71.88c36.5 39.75 34.5 37.5 49.25 53.25C441.2 175.8 464 202.6 464 256v64c0 7.375 1.5 68.25 49.5 144h-97.2z"/></svg>