<svg xmlns="http://www.w3.org/2000/svg" viewBox="0 0 576 512"><!--! Font Awesome Pro 6.1.1 by @fontawesome - https://fontawesome.com License - https://fontawesome.com/license (Commercial License) Copyright 2022 Fonticons, Inc.--><path d="M464 80c-8.875 0-16 7.125-16 16s7.125 16 16 16 16-7.125 16-16-7.1-16-16-16zm112 22.5c0-11.21-3.888-22.07-11-30.74l-21.75-26.5c15.99-5.371 29.09-18.75 32.6-35.61 1.035-4.97-2.897-9.641-7.974-9.641h-135.9C363.6.002 306.1 48 291.6 112H176c-38.12 0-71.75 19.25-92 48.38C37.38 162.5 0 200.9 0 248v48c0 13.3 10.75 24 24 24s24-10.75 24-23.1l-.9-48.9c0-13.25 6.883-24.4 16.76-31.65-.125 2.5-.758 5.024-.758 7.649 0 30.12 11.88 58.12 32.13 78.62l-12.88 43.75c-4 13.25-4.375 27.38-1.125 40.87l24.12 100.3C109.8 501.9 122.6 512 137.4 512h74.75c20.85 0 36.13-19.62 31.01-39.84l-25.51-100.8L227 345l61 13.5V480c0 17.6 14.4 32 32 32h80c17.6 0 32-14.4 32-32V324.4c20-22.5 31.25-51.13 32-81.62v-8.38c21 7 38.38.75 41-.125l30.99-10.62c23.93-8.202 40.01-30.7 40.01-56V102.5zm-55.5 75.7-31 10.5c-1.5.5-9.75 3-16.5-3.75L448 160h-32v80c0 26.12-12.62 49-32 63.63v160.4l-48-.03V320l-139.9-31.1-28.6 80.1 24 95h-42.4l-21.12-87.88c-.38-5.32-.18-10.92 1.32-16.12l22.75-76.75c-23.5-9.5-40-32.37-40-59.25 0-35.38 28.62-64 64-64h159.1l.85-16c0-53 43-96 96-96h51.38l44.63 54.25v65.38c-.01 4.77-3.01 8.97-7.51 10.57z"/></svg>