<svg xmlns="http://www.w3.org/2000/svg" viewBox="0 0 576 512"><!--! Font Awesome Pro 6.1.1 by @fontawesome - https://fontawesome.com License - https://fontawesome.com/license (Commercial License) Copyright 2022 Fonticons, Inc.--><path d="M464 80c-8.9 0-16 7.12-16 16s7.125 16 16 16 16-7.1 16-16-7.1-16-16-16zm112 22.5c0-9.536-4.95-23.37-11-30.74l-21.75-26.5c16-5.375 29.11-18.74 32.61-35.62.375-2.375-.234-4.757-1.734-6.632C572.6 1.125 570.4 0 567.9 0L432 .001C363.6.001 306.2 48 291.6 112H176c-36.75 0-71.12 18.12-92 48.38C37.38 162.5 0 200.9 0 248.1V296c0 13.3 10.75 24 23.1 24S48 309.3 48 296v-47.9c0-13.25 6.883-24.36 16.76-31.74-.13 2.24-7.66 47.64 31.36 86.24l-12.87 43.8c-3.75 13.25-4.125 27.38-1.125 40.87l24.12 100.3C109.8 501.9 122.6 512 137.4 512h74.75c9.875 0 19.12-4.625 25.25-12.38 6-7.75 8.125-17.87 5.75-27.5l-25.5-100.8L227 345l61 13.5V480c0 17.6 14.4 32 32 32h80c17.6 0 32-14.4 32-32V324.4c20-22.5 31.38-51.5 32-81.62 0-.875.125-8.375.125-8.375C477.4 238.8 491.8 238.8 505 234.2l31-10.6c24-8.125 40-30.75 40-56v-65.1zM224 295.1l-27.8-6.1-28.75 80 24 95H149.1l-21.12-87.88c-.38-5.32-.18-10.92 1.22-16.12l22.8-76.8c-25.6-10.3-41.8-35.8-39.9-63.4a63.62 63.62 0 0 1 47.9-57.6v13.75c0 40.15 27.1 73.85 64 84.25v34.9zM208 176v-16h80v16c0 22.12-17.88 40-40 40-22.1 0-40-17.9-40-40zm312.5 2.2-31 10.5c-5.75 2-12.12.5-16.5-3.75L448 160h-32v80c0 25.12-11.88 48.63-32 63.63V464h-48V320l-64-14.25V260.2c36.88-10.5 64-44.12 64-84.25v-32c0-53 43-96 96-96h51.38L528 102.2v65.38c.1 4.82-3 9.02-7.5 10.62z"/></svg>