<svg xmlns="http://www.w3.org/2000/svg" viewBox="0 0 576 512"><!--! Font Awesome Pro 6.1.1 by @fontawesome - https://fontawesome.com License - https://fontawesome.com/license (Commercial License) Copyright 2022 Fonticons, Inc.--><path d="M320 192c-35.4 0-64 28.6-64 64s28.64 64 64 64 64-28.64 64-64-28.6-64-64-64zm272 160h-16v-96C576 114.6 461.4 0 320 0S64 114.6 64 256s114.6 256 256 256c54.37 0 104.8-16.96 146.3-45.89 10.88-7.584 13.54-22.56 5.951-33.44-7.584-10.85-22.53-13.54-33.41-5.951C405.2 450.2 364.2 464 320 464c-114.9 0-208-93.12-208-208S205.1 48 320 48s208 93.12 208 208v96h-16c-13.25 0-24 10.75-24 24s10.8 24 24 24h2.271l11.46 80.16C517.1 481.2 512 487.9 512 496c0 8.832 7.168 16 16 16h48c8.832 0 16-7.168 16-16 0-8.064-5.984-14.75-13.73-15.84L589.7 400h2.3c13.25 0 24-10.75 24-24s-10.8-24-24-24zM320 96c-88.4 0-160 71.6-160 160s71.65 160 160 160 160-71.65 160-160S408.4 96 320 96zm0 272c-61.86 0-112-50.14-112-112s50.1-112 112-112 112 50.14 112 112-50.1 112-112 112z"/></svg>