<svg xmlns="http://www.w3.org/2000/svg" viewBox="0 0 448 512"><!--! Font Awesome Pro 6.1.1 by @fontawesome - https://fontawesome.com License - https://fontawesome.com/license (Commercial License) Copyright 2022 Fonticons, Inc.--><path d="M416 384H32c-13.25 0-24 10.75-24 24s10.75 24 24 24h384c13.25 0 24-10.75 24-24s-10.8-24-24-24zm0-80H32c-13.25 0-24 10.75-24 24s10.75 24 24 24h384c13.25 0 24-10.75 24-24s-10.8-24-24-24zm0 160H32c-13.25 0-24 10.75-24 24s10.75 24 24 24h384c13.25 0 24-10.75 24-24s-10.8-24-24-24zm0-240H124c-37.57 0-68-30.4-68-68s30.43-68 68-68h132V40H124C59.94 40 8 91.94 8 156s51.94 116 116 116h292c13.25 0 24-10.75 24-24s-10.8-24-24-24zm16-200c-8.064 0-14.75 5.984-15.84 13.73L336 26.27V24c0-13.25-10.8-24-24-24s-24 10.75-24 24v80c0 13.2 10.8 24 24 24s24-10.75 24-24v-2.3l80.16-11.46C417.2 98.02 423.9 104 432 104c8.832 0 16-7.168 16-16V40c0-8.83-7.2-16-16-16z"/></svg>