<svg xmlns="http://www.w3.org/2000/svg" viewBox="0 0 576 512"><!--! Font Awesome Pro 6.1.1 by @fontawesome - https://fontawesome.com License - https://fontawesome.com/license (Commercial License) Copyright 2022 Fonticons, Inc.--><path d="M304 64v6.66c-9.8-4.28-20.6-6.66-32-6.66h-16c0-35.35 28.7-64 64-64h160c35.3 0 64 28.65 64 64v384c0 35.3-28.7 64-64 64H336c10-13.4 16-30 16-48h128c8.8 0 16-7.2 16-16v-48H352v-48h144v-48H352v-48h144V64c0-8.84-7.2-16-16-16H320c-8.8 0-16 7.16-16 16zm80 32c0-8.84 7.2-16 16-16h16c8.8 0 16 7.16 16 16v24h24c8.8 0 16 7.2 16 16v16c0 8.8-7.2 16-16 16h-24v24c0 8.8-7.2 16-16 16h-16c-8.8 0-16-7.2-16-16v-24h-24c-8.8 0-16-7.2-16-16v-16c0-8.8 7.2-16 16-16h24V96zm-200 80c8.8 0 16 7.2 16 16v24h24c8.8 0 16 7.2 16 16v16c0 8.8-7.2 16-16 16h-24v24c0 8.8-7.2 16-16 16h-16c-8.8 0-16-7.2-16-16v-24h-24c-8.8 0-16-7.2-16-16v-16c0-8.8 7.2-16 16-16h24v-24c0-8.8 7.2-16 16-16h16zM32 160c0-35.3 28.65-64 64-64h160c35.3 0 64 28.7 64 64v288c0 35.3-28.7 64-64 64H96c-35.35 0-64-28.7-64-64V160zm48 0v192h192V160c0-8.8-7.2-16-16-16H96c-8.84 0-16 7.2-16 16zm0 288c0 8.8 7.16 16 16 16h160c8.8 0 16-7.2 16-16v-48H80v48z"/></svg>