<svg xmlns="http://www.w3.org/2000/svg" viewBox="0 0 576 512"><!--! Font Awesome Pro 6.1.1 by @fontawesome - https://fontawesome.com License - https://fontawesome.com/license (Commercial License) Copyright 2022 Fonticons, Inc.--><path d="M48 64v208h88c13.3 0 24 10.7 24 24s-10.7 24-24 24H48v48h88c13.3 0 24 10.7 24 24s-10.7 24-24 24H48v32c0 8.8 7.16 16 16 16h192c.2 0 .4-.9.7-.9-.5 5.1-.7 9.5-.7 13.8 0 12.6 3.5 24.4 9.5 34.4-3.1.5-6.3.7-9.5.7H64c-35.35 0-64-28.7-64-64V64C0 28.65 28.65 0 64 0h192c35.3 0 64 28.65 64 64v303.8c-20.1 11.2-36.7 27.8-48 47.9V64c0-8.84-7.2-16-16-16H64c-8.84 0-16 7.16-16 16zm88 48c0-8.8 7.2-16 16-16h16c8.8 0 16 7.2 16 16v24h24c8.8 0 16 7.2 16 16v16c0 8.8-7.2 16-16 16h-24v24c0 8.8-7.2 16-16 16h-16c-8.8 0-16-7.2-16-16v-24h-24c-8.8 0-16-7.2-16-16v-16c0-8.8 7.2-16 16-16h24v-24zm376 160c0 44.2-35.8 80-80 80s-80-35.8-80-80 35.8-80 80-80 80 35.8 80 80zM288 477.1c0-51.4 41.7-93.1 93.1-93.1h101.8c51.4 0 93.1 41.7 93.1 93.1 0 19.3-15.6 34.9-34.9 34.9H322.9c-19.3 0-34.9-15.6-34.9-34.9z"/></svg>