<svg xmlns="http://www.w3.org/2000/svg" viewBox="0 0 512 512"><!--! Font Awesome Pro 6.1.1 by @fontawesome - https://fontawesome.com License - https://fontawesome.com/license (Commercial License) Copyright 2022 Fonticons, Inc.--><path d="M320.9 177.6c1 8.3 7.5 14.4 15.2 14.4h15.99c9.375 0 16.88-8.625 15.75-18.38-4.25-39.13-22-74.5-49.25-97.13-17.12-14.12-28.38-36.75-31.5-62.13C286.1 6.125 279.5 0 271.6 0h-15.7c-9.4 0-17.8 8.5-15.8 18.38 4.25 39.13 22 74.5 49.25 97.13 17.15 14.09 28.35 36.79 31.55 62.09zm96 0c1 8.3 7.6 14.4 15.3 14.4h15.88c9.375 0 16.88-8.625 15.75-18.38-4.25-39.13-22-74.5-49.25-97.13-17.12-14.12-28.38-36.75-31.5-62.13C382.1 6.125 375.5 0 367.6 0h-15.75c-9.375 0-16.88 8.5-15.75 18.38 4.25 39.13 22 74.5 49.25 97.13 17.15 14.09 28.35 36.79 31.55 62.09zM480 256H261.4l-110.9-83.2c-11.1-8.3-24.6-12.8-38.5-12.8H64c-35.37 0-64 28.6-64 64v224c0 35.38 28.62 64 64 64h384c35.38 0 64-28.62 64-64V288c0-17.6-14.4-32-32-32zM48 224c0-8.875 7.125-16 16-16h48c3.5 0 6.875 1.125 9.625 3.25L181.4 256H48v-32zm64 240H64c-8.875 0-16-7.125-16-16V304h64v160zm120 0h-72V304h72v160zm120 0h-72V304h72v160zm112-16c0 8.875-7.125 16-16 16h-48V304h64v144zM64 128c35.35 0 64-28.65 64-64S99.35 0 64 0 0 28.65 0 64s28.65 64 64 64z"/></svg>