<svg xmlns="http://www.w3.org/2000/svg" viewBox="0 0 576 512"><!--! Font Awesome Pro 6.1.1 by @fontawesome - https://fontawesome.com License - https://fontawesome.com/license (Commercial License) Copyright 2022 Fonticons, Inc.--><path d="M0 24C0 10.75 10.75 0 24 0h336c13.3 0 24 10.75 24 24s-10.7 24-24 24h-8v18.98c0 40.32-16.9 78.12-44.5 107.52L225.9 256l43.8 43.8c-8.8 21-13.7 44-13.7 68.2 0 59.5 29.6 112.1 74.8 144H24c-13.25 0-24-10.7-24-24s10.75-24 24-24h8v-19c0-40.3 16.01-79 44.52-107.5L158.1 256l-81.58-81.5C48.01 145.1 32 107.3 32 66.98V47.1h-8c-13.25 0-24-9.85-24-24v.9zm99.78 104H284.2c11.9-17.6 19.8-38.97 19.8-61.02V48H80v18.98c0 22.05 7 43.42 19.78 61.02zM576 368c0 79.5-64.5 144-144 144s-144-64.5-144-144 64.5-144 144-144 144 64.5 144 144zm-160.9-64v64c0 8.8 8.1 16 16 16H480c8.8 0 16-7.2 16-16s-7.2-16-16-16h-32.9v-48c0-8.8-6.3-16-16-16-7.9 0-16 7.2-16 16z"/></svg>