<svg xmlns="http://www.w3.org/2000/svg" viewBox="0 0 640 512"><!--! Font Awesome Pro 6.1.1 by @fontawesome - https://fontawesome.com License - https://fontawesome.com/license (Commercial License) Copyright 2022 Fonticons, Inc.--><path d="M88 88c0 48.6 39.4 88 88 88 3 0 6-.2 8.1-.4 8.5-.8 14.7 7.6 9.4 13.2-20.4 21.7-49.4 35.2-81.5 35.2C50.14 224 0 173.9 0 112 0 50.14 50.14 0 112 0c3.7 0 7.4.18 11 .533 7.6.742 8.5 11.177 2.2 15.587C102.7 32.06 88 58.31 88 88zm264 224c0-13.3 10.7-24 24-24h48c13.3 0 24 10.7 24 24v48c0 13.3-10.7 24-24 24h-48c-13.3 0-24-10.7-24-24v-48zm279.2-34.6c10.2 8.4 10.9 23.5 3.4 33.8-8.4 10.2-23.5 10.9-33.8 3.4L576 294.4V456c0 30.9-25.1 56-56 56H280c-30.9 0-56-25.1-56-56V294.4l-24.8 20.2c-10.3 7.5-25.4 6.8-33.8-3.4-8.4-10.3-6.8-25.4 3.4-33.8l216-176c8.9-7.2 21.5-7.2 30.4 0l216 176zM528 255.3 400 150.1 272 255.3V456c0 4.4 3.6 8 8 8h240c4.4 0 8-3.6 8-8V255.3zM248.5 12.28c2.6-6.968 12.4-6.968 15 0l11.9 32.27 32.3 11.95c7 2.57 7 12.43 0 15l-32.3 11.95-11.9 32.25c-2.6 7-12.4 7-15 0l-11.9-32.25-32.3-11.95c-7-2.57-7-12.43 0-15l32.3-11.95 11.9-32.27zM115.4 364.6l32.3 11.9c7 2.6 7 12.4 0 15l-32.3 11.9-11.9 32.3c-2.6 7-12.43 7-15 0l-11.95-32.3-32.27-11.9c-6.97-2.6-6.97-12.4 0-15l32.27-11.9 11.95-32.3c2.57-7 12.4-7 15 0l11.9 32.3z"/></svg>