<svg xmlns="http://www.w3.org/2000/svg" viewBox="0 0 640 512"><!--! Font Awesome Pro 6.1.1 by @fontawesome - https://fontawesome.com License - https://fontawesome.com/license (Commercial License) Copyright 2022 Fonticons, Inc.--><path d="M336 64v104.6l-48-44V64c0-35.35 28.7-64 64-64h224c35.3 0 64 28.65 64 64v384c0 35.3-28.7 64-64 64H400c10-13.4 16-30 16-48h160c8.8 0 16-7.2 16-16V64c0-8.84-7.2-16-16-16H352c-8.8 0-16 7.16-16 16zm77.2 192c-4-14.4-11.9-27.6-23.1-37.9l-6.1-5.5V208c0-8.8 7.2-16 16-16h32c8.8 0 16 7.2 16 16v32c0 8.8-7.2 16-16 16h-18.8zm2.8 96v-64h16c8.8 0 16 7.2 16 16v32c0 8.8-7.2 16-16 16h-16zm64-144c0-8.8 7.2-16 16-16h32c8.8 0 16 7.2 16 16v32c0 8.8-7.2 16-16 16h-32c-8.8 0-16-7.2-16-16v-32zm48 80c8.8 0 16 7.2 16 16v32c0 8.8-7.2 16-16 16h-32c-8.8 0-16-7.2-16-16v-32c0-8.8 7.2-16 16-16h32zM432 96c8.8 0 16 7.2 16 16v32c0 8.8-7.2 16-16 16h-32c-8.8 0-16-7.2-16-16v-32c0-8.8 7.2-16 16-16h32zm48 16c0-8.8 7.2-16 16-16h32c8.8 0 16 7.2 16 16v32c0 8.8-7.2 16-16 16h-32c-8.8 0-16-7.2-16-16v-32zM144 296c0-13.3 10.7-24 24-24h48c13.3 0 24 10.7 24 24v48c0 13.3-10.7 24-24 24h-48c-13.3 0-24-10.7-24-24v-48zm4.8-176.4c24.4-22.39 62-22.39 86.4 0l128 116.5c13.3 13 20.8 30.1 20.8 48.1V448c0 35.3-28.7 64-64 64H64c-35.35 0-64-28.7-64-64V284.2c0-18 7.529-35.1 20.75-48.1L148.8 119.6zM48 284.2V448c0 8.8 7.16 16 16 16h256c8.8 0 16-7.2 16-16V284.2c0-4.5-1.9-8.8-5.2-11.8L202.8 155c-6.1-5.6-15.5-5.6-21.6 0L53.19 272.4c-3.31 3-5.19 7.3-5.19 11.8z"/></svg>