<svg xmlns="http://www.w3.org/2000/svg" viewBox="0 0 640 512"><!--! Font Awesome Pro 6.1.1 by @fontawesome - https://fontawesome.com License - https://fontawesome.com/license (Commercial License) Copyright 2022 Fonticons, Inc.--><path d="M316.1 107.1c-3.5-16.48-9.3-32.15-18-46.61l80-56.075c8.3-5.887 19.5-5.887 27.8 0l192 135.985c10.8 7.7 13.3 22.7 5.7 33.5-7.7 10.8-22.7 13.3-33.5 5.7l-2.1-1.5v103.3c-5.3-2.8-10.3-6.2-14.8-9.9-9.7-8.2-22.1-13-33.2-15.4v-112L392 53.41l-75.9 53.69zm-93 244.9c29.7 0 59.4-15.3 80.9-33.9 9.1-9 22.9-9 31.1 0 22.4 18.6 52 33.9 80 33.9 29.7 0 59.4-15.3 80.9-33.9 9.1-9 22.8-9 31.9 0 17 15 39.3 26.8 61.3 31.7 12.9 2.9 21.1 15.7 18.2 28.7-2.9 12.9-15.8 21-28.7 18.1-28.7-6.4-52.3-20.4-67.6-30.4-27.2 19.5-60.5 33.8-96 33.8-33.7 0-67-14.3-96-33.8-27.2 19.5-60.5 33.8-96 33.8-33.7 0-67-14.3-96-33.8-13.5 10-37.11 24-65.79 30.4-12.94 2.9-25.77-5.2-28.68-18.1-2.9-13 5.24-25.8 18.17-28.7 22.21-5 43.96-17.7 60.3-31.7 10-9 23.7-9 32.8 0 21.6 18.6 51.2 33.9 79.2 33.9zm-112 78.1c10-9 23.7-9 32.8 0 21.6 18.6 51.2 33.9 79.2 33.9 29.7 0 59.4-15.3 80.9-33.9 9.1-9 22.9-9 31.1 0 22.4 18.6 52 33.9 80 33.9 29.7 0 59.4-15.3 80.9-33.9 9.1-9 22.8-9 31.9 0 17 15 39.3 26.8 61.3 31.7 12.9 2.9 21.1 15.7 18.2 28.7-2.9 12.9-15.8 21-28.7 18.1-28.7-6.4-52.3-20.4-67.6-30.4-27.2 19.5-60.5 33.8-96 33.8-33.7 0-67-14.3-96-33.8-27.2 19.5-60.5 33.8-96 33.8-33.7 0-67-14.3-96-33.8-13.5 10-37.11 24-65.79 30.4-12.94 2.9-25.77-5.2-28.68-18.1-2.9-13 5.24-25.8 18.17-28.7 22.21-5 43.96-17.7 60.3-31.7zM288 144c0 79.5-64.5 144-144 144C64.47 288 0 223.5 0 144 0 64.47 64.47 0 144 0c79.5 0 144 64.47 144 144zM140.7 99.31 169.4 128H80c-8.84 0-16 7.2-16 16s7.16 16 16 16h89.4l-28.7 28.7c-6.3 6.2-6.3 16.4 0 22.6 6.2 6.3 16.4 6.3 22.6 0l56-56c6.3-6.2 6.3-16.4 0-22.6l-56-56.01c-6.2-6.25-16.4-6.25-22.6 0-6.3 6.24-6.3 16.38 0 22.62z"/></svg>