<svg xmlns="http://www.w3.org/2000/svg" viewBox="0 0 576 512"><!--! Font Awesome Pro 6.1.1 by @fontawesome - https://fontawesome.com License - https://fontawesome.com/license (Commercial License) Copyright 2022 Fonticons, Inc.--><path d="M276.7 396.7 184 304c-22.1-22.1-22.1-57.9 0-80s57.9-22.1 80 0l24 24 24-24c22.1-22.1 57.9-22.1 80 0s22.1 57.9 0 80l-92.7 92.7c-6.2 6.2-16.4 6.2-22.6 0zm290.8-167c10.1 8.6 11.4 23.7 2.8 33.8-8.6 10.1-23.7 11.4-33.8 2.8L512 245.5V432c0 44.2-35.8 80-80 80H144c-44.18 0-80-35.8-80-80V245.5l-24.47 20.8c-10.11 8.6-25.25 7.3-33.83-2.8-8.576-10.1-7.334-25.2 2.773-33.8L272.5 5.7c8.9-7.6 22.1-7.6 31 0l264 224zM144 464h288c17.7 0 32-14.3 32-32V204.8L288 55.47 112 204.8V432c0 17.7 14.3 32 32 32z"/></svg>