<svg xmlns="http://www.w3.org/2000/svg" viewBox="0 0 640 512"><!--! Font Awesome Pro 6.1.1 by @fontawesome - https://fontawesome.com License - https://fontawesome.com/license (Commercial License) Copyright 2022 Fonticons, Inc.--><path d="M569.4 167.5c6.6 6.9 8.4 17.2 4.7 26-3.8 8.8-12.5 14.5-22.1 14.5h-48.3l97.7 103.5c6.6 7 8.4 17.2 4.6 26-3.8 8.8-12.4 14.5-22 14.5h-52.1l102.4 120.5c6 7.1 7.4 17.1 3.5 25.6-3.9 8.5-12.4 13.9-21.8 13.9H400c10-13.4 16-30 16-48h148.1L461.7 343.5c-6-7.1-7.4-17.1-3.5-25.6 3.9-8.5 12.4-13.9 21.8-13.9h48.3l-97.7-103.5c-7.5-7-8.4-17.2-5.5-26 4.7-8.8 13.3-14.5 22.9-14.5h48.1L400 58.85l-85.5 90.05-35.4-32.5L382.6 7.47C387.1 2.7 393.4 0 400 0c6.6 0 12.9 2.7 17.4 7.47l152 160.03zM144 295.1c0-12.4 10.7-24 24-24h48c13.3 0 24 11.6 24 24V344c0 13.3-10.7 24-24 24h-48c-13.3 0-24-10.7-24-24v-48.9zm4.8-175.5c24.4-22.39 62-22.39 86.4 0l128 116.5c13.3 13 20.8 30.1 20.8 48.1V448c0 35.3-28.7 64-64 64H64c-35.35 0-64-28.7-64-64V284.2c0-18 7.529-35.1 20.75-48.1L148.8 119.6zM48 284.2V448c0 8.8 7.16 16 16 16h256c8.8 0 16-7.2 16-16V284.2c0-4.5-1.9-8.8-5.2-11.8L202.8 155c-6.1-5.6-15.5-5.6-21.6 0L53.19 272.4c-3.31 3-5.19 7.3-5.19 11.8z"/></svg>