<svg xmlns="http://www.w3.org/2000/svg" viewBox="0 0 576 512"><!--! Font Awesome Pro 6.1.1 by @fontawesome - https://fontawesome.com License - https://fontawesome.com/license (Commercial License) Copyright 2022 Fonticons, Inc.--><path d="M400 296c0 8.8-7.2 16-16 16h-56v56c0 8.8-7.2 16-16 16h-48c-8.8 0-16-7.2-16-16v-56h-56c-8.8 0-16-7.2-16-16v-48c0-8.8 7.2-16 16-16h56v-56c0-8.8 7.2-16 16-16h48c8.8 0 16 7.2 16 16v56h56c8.8 0 16 7.2 16 16v48zm64-154.1V56c0-13.25 10.7-24.9 24-24.9s24 11.65 24 24.9v126.6l55.5 47.1c10.1 8.6 11.4 23.7 2.8 33.8-8.6 10.1-23.7 11.4-33.8 2.8L512 245.5V432c0 44.2-35.8 80-80 80H144c-44.18 0-80-35.8-80-80V245.5l-24.47 20.8c-10.11 8.6-25.25 7.3-33.83-2.8-8.575-10.1-7.334-25.2 2.773-33.8L272.5 5.7c8.9-7.6 22.1-7.6 31 0L464 141.9zM144 464h288c17.7 0 32-14.3 32-32V204.8L288 55.47 112 204.8V432c0 17.7 14.3 32 32 32z"/></svg>