<svg xmlns="http://www.w3.org/2000/svg" viewBox="0 0 640 512"><!--! Font Awesome Pro 6.1.1 by @fontawesome - https://fontawesome.com License - https://fontawesome.com/license (Commercial License) Copyright 2022 Fonticons, Inc.--><path d="M272.5 5.7c8.9-7.6 22.1-7.6 31 0l222.6 188.9c-9.8-1.7-19.8-2.6-30.1-2.6-14.2 0-28.1 1.7-41.3 4.9L288 55.47 112 204.8V432c0 17.7 14.3 32 32 32h204.5c12.2 18.8 28 35.1 46.3 48H144c-44.18 0-80-35.8-80-80V245.5l-24.47 20.8c-10.11 8.6-25.25 7.3-33.83-2.8-8.575-10.1-7.334-25.2 2.773-33.8L272.5 5.7zM384 232h.3c-25.2 20.7-44.6 48.4-55.2 80H328v3.4c-5.2 15.7-8 34.3-8 52.6 0 4.6.2 9.1.5 13.5-2.5 1.6-5.4 2.5-8.5 2.5h-48c-8.8 0-16-7.2-16-16v-56h-56c-8.8 0-16-7.2-16-16v-48c0-8.8 7.2-16 16-16h56v-56c0-8.8 7.2-16 16-16h48c8.8 0 16 7.2 16 16v56h56zm256 136c0 79.5-64.5 144-144 144s-144-64.5-144-144 64.5-144 144-144 144 64.5 144 144zm-99.3-43.3L480 385.4l-28.7-28.7c-6.2-6.3-16.4-6.3-22.6 0-6.3 6.2-6.3 16.4 0 22.6l40 40c6.2 6.3 16.4 6.3 22.6 0l72-72c6.3-6.2 6.3-16.4 0-22.6-6.2-6.3-16.4-6.3-22.6 0z"/></svg>