<svg xmlns="http://www.w3.org/2000/svg" viewBox="0 0 640 512"><!--! Font Awesome Pro 6.1.1 by @fontawesome - https://fontawesome.com License - https://fontawesome.com/license (Commercial License) Copyright 2022 Fonticons, Inc.--><path d="M492.2 165.8c-16.3 5.5-30.9 14.7-42.9 26.5L288 55.47 112 204.8V432c0 17.7 14.3 32 32 32h48V312c0-22.1 17.9-40 40-40h112c22.1 0 40 17.9 40 40v168c0 11.7 3.1 22.6 8.6 32H144c-44.18 0-80-35.8-80-80V245.5l-24.47 20.8c-10.11 8.6-25.25 7.3-33.83-2.8-8.575-10.1-7.334-25.2 2.773-33.8L272.5 5.7c8.9-7.6 22.1-7.6 31 0l188.7 160.1zM336 464V319.1h-96V464h96zm192-272.9c44.2 0 80 36.7 80 80v48c17.7 0 32 15.2 32 32.9v128c0 17.7-14.3 32-32 32H448c-17.7 0-32-14.3-32-32V352c0-17.7 14.3-32.9 32-32.9v-48c0-43.3 35.8-80 80-80zm0 48c-17.7 0-32 15.2-32 32v48h64v-48c0-16.8-14.3-32-32-32z"/></svg>