<svg xmlns="http://www.w3.org/2000/svg" viewBox="0 0 640 512"><!--! Font Awesome Pro 6.1.1 by @fontawesome - https://fontawesome.com License - https://fontawesome.com/license (Commercial License) Copyright 2022 Fonticons, Inc.--><path d="M56 48c-4.42 0-8 3.58-8 8v147.8c0 2 .72 3.9 2.02 5.3l55.88 63c3.9 4.3 6.1 10 6.1 15.9v200c0 13.3-10.7 24-24 24-13.25 0-24-10.7-24-24V297.1L14.14 241C5.033 230.8 0 217.5 0 203.8V56C0 25.07 25.07 0 56 0h240c30.9 0 56 25.07 56 56v68.6l-48 44V56c0-4.42-3.6-8-8-8h-40v40c0 13.3-10.7 24-24 24s-24-10.7-24-24V48h-64v40c0 13.3-10.7 24-24 24s-24-10.7-24-24V48H56zm160 136v40c0 8.8-7.2 16-16 16h-48c-8.8 0-16-7.2-16-16v-40c0-22.1 17.9-40 40-40s40 17.9 40 40zm184 112c0-13.3 10.7-24 24-24h48c13.3 0 24 10.7 24 24v48c0 13.3-10.7 24-24 24h-48c-13.3 0-24-10.7-24-24v-48zm4.8-176.4c24.4-22.39 62-22.39 86.4 0l128 116.5c13.3 13 20.8 30.1 20.8 48.1V448c0 35.3-28.7 64-64 64H320c-35.3 0-64-28.7-64-64V284.2c0-18 7.5-35.1 20.8-48.1l128-116.5zM304 284.2V448c0 8.8 7.2 16 16 16h256c8.8 0 16-7.2 16-16V284.2c0-4.5-1.9-8.8-5.2-11.8L458.8 155c-6.1-5.6-15.5-5.6-21.6 0l-128 117.4c-3.3 3-5.2 7.3-5.2 11.8z"/></svg>