<svg xmlns="http://www.w3.org/2000/svg" viewBox="0 0 576 512"><!--! Font Awesome Pro 6.1.1 by @fontawesome - https://fontawesome.com License - https://fontawesome.com/license (Commercial License) Copyright 2022 Fonticons, Inc.--><path d="M320.8 5.394a24.113 24.113 0 0 1 30.4 0l216 176.006c10.2 8.4 10.9 23.5 3.4 33.8-8.4 10.2-23.5 10.9-33.8 3.4L512 198.4V360c0 30.9-25.1 56-56 56H296.4c-4-16.6-9.5-32.7-16.5-48H456c4.4 0 8-3.6 8-8V159.3L336 54.96 208 159.3v113.3c-14.7-12.5-30.8-23.5-48-32.7v-41.5l-24.8 20.2c-3.5 2.9-7.6 4.6-11.8 5.2-6.5-2.4-13.1-4.4-19.8-6.3-.8-.7-1.5-1.5-2.2-2.3-8.38-10.3-6.83-25.4 3.4-33.8l216-176.006zM360 192c13.3 0 24 10.7 24 24v48c0 13.3-10.7 24-24 24h-48c-13.3 0-24-10.7-24-24v-48c0-13.3 10.7-24 24-24h48zM256 488c0 13.3-10.7 24-24 24s-24-10.7-24-24c0-101.6-82.4-184-184-184-13.25 0-24-10.7-24-24s10.75-24 24-24c128.1 0 232 103.9 232 232zM0 480c0-17.7 14.33-32 32-32s32 14.3 32 32-14.33 32-32 32-32-14.3-32-32zm0-104c0-13.3 10.75-24 24-24 75.11 0 136 60.9 136 136 0 13.3-10.7 24-24 24s-24-10.7-24-24c0-48.6-39.4-88-88-88-13.25 0-24-10.7-24-24z"/></svg>