<svg xmlns="http://www.w3.org/2000/svg" viewBox="0 0 640 512"><!--! Font Awesome Pro 6.1.1 by @fontawesome - https://fontawesome.com License - https://fontawesome.com/license (Commercial License) Copyright 2022 Fonticons, Inc.--><path d="M447.9 128.2c-12.5-1.1-25.5 2.7-35.4 11.7-4.1 3.6-8.1 7.3-12 11L288 55.47 112 204.8V432c0 17.7 14.3 32 32 32h48V312c0-22.1 17.9-40 40-40h76.1c-6.8 15.7-12.9 31.1-16.5 48H240v144h84.8c13.5 18.8 30.2 35.1 49.5 48H144c-44.18 0-80-35.8-80-80V245.5l-24.47 20.8c-10.11 8.6-25.25 7.3-33.83-2.8-8.575-10.1-7.334-25.2 2.773-33.8L272.5 5.7c8.9-7.6 22.1-7.6 31 0l144.4 122.5zm61.1 93.3c7.9-9.9 16.8-20.7 26.5-30.4 5.6-4.2 14.4-4.2 20 .9 24.7 22.7 45.6 52.7 60.3 81.2 14.6 28 24.2 56.7 24.2 76.9 0 87.8-71.3 161.9-160 161.9-89.7 0-160-74.2-160-161.9 0-26.4 12.7-58.6 32.4-90.6 20-32.3 48.1-66.1 81.4-95.8 5.6-5 13.3-4.9 19.7.1 19.8 17.8 38.3 36.9 55.5 57.7zm41 114.6c-2-4-4-8-7-12l-36 42S449 293 445 288c-30 36.1-45 58-45 82 0 48.1 36 78 81 78 18 0 34-5.9 49-15.9 30-20.1 38-62.1 20-96z"/></svg>