<svg xmlns="http://www.w3.org/2000/svg" viewBox="0 0 640 512"><!--! Font Awesome Pro 6.1.1 by @fontawesome - https://fontawesome.com License - https://fontawesome.com/license (Commercial License) Copyright 2022 Fonticons, Inc.--><path d="M224.8 5.394a24.113 24.113 0 0 1 30.4 0l216 176.006c10.2 8.4 10.9 23.5 3.4 33.8-8.4 10.2-23.5 10.9-33.8 3.4L416 198.4V240h-48v-80.7L240 54.96 112 159.3V360c0 4.4 3.6 8 8 8h152v48H120c-30.93 0-56-25.1-56-56V198.4l-24.84 20.2c-10.27 7.5-25.39 6.8-33.765-3.4-8.373-10.3-6.83-25.4 3.446-33.8L224.8 5.394zM288 216v45.7c-6.9 6.8-10.6 14.9-13.3 23.8-3.2 1.6-6.8 2.5-10.7 2.5h-48c-13.3 0-24-10.7-24-24v-48c0-13.3 10.7-24 24-24h48c13.3 0 24 10.7 24 24zm48 56h224c17.7 0 32 14.3 32 32v160h36c6.6 0 12 5.4 12 12 0 19.9-16.1 36-36 36H292c-19.9 0-36-16.1-36-36 0-6.6 5.4-12 12-12h36V304c0-17.7 14.3-32 32-32zm16 48v144h192V320H352z"/></svg>