<svg xmlns="http://www.w3.org/2000/svg" viewBox="0 0 576 512"><!--! Font Awesome Pro 6.1.1 by @fontawesome - https://fontawesome.com License - https://fontawesome.com/license (Commercial License) Copyright 2022 Fonticons, Inc.--><path d="M184.4 95.1c23.1 0 45 6 64.6 15.2 12 5.6 17.2 19.9 11.6 31.9s-19.9 17.2-31.9 11.6c-13.4-6.3-28.4-10.7-44.3-10.7-57.7 0-105.3 47.5-105.3 104 0 48.1 32.5 88 75 100.7 12.3 2.8 24.6 4.2 37.5 4.2h.4c28.8-.9 58.5-15.3 80-33.9 9.1-9 22.9-9 31.1 0 22.4 18.6 52 33.9 80 33.9 29.7 0 59.4-15.3 80.9-33.9 9.1-9 22.8-9 31.9 0 17 15 39.3 26.8 61.3 31.7 12.9 2.9 21.1 15.7 18.2 28.7-2.9 12.9-15.8 21-28.7 18.1-28.7-6.4-52.3-20.4-67.6-30.4-27.2 19.5-60.5 33.8-96 33.8-33.7 0-67-14.3-96-33.8-27.2 19.5-60.5 32.9-95.1 32.9-.1.9-.3.9-.4.9-1.8 0-3.6-.9-5.4-.1-.6-.8-1.2.1-1.8.1-13.7 0-27-1.8-39.6-5.2C54.66 373.1 0 293.2 0 200 0 88.38 94.97 0 209.4 0c24 0 47 3.84 68.5 10.94 12.6 4.15 19.4 17.73 15.3 30.31-4.2 12.59-17.7 19.42-30.3 15.27-16.7-5.51-34.7-8.52-53.5-8.52-81.6 0-147.44 56.5-159.44 128.4C75.65 128.5 126.3 96 184.4 96v-.9zm140.4 173c-1.5-1.1-3.1-3-4.8-3.1V143.1c0-9.2 4.7-18.7 12.8-24.7l96-71.97c11.4-8.55 27-8.53 38.4.04l95.5 71.93c8 6.1 12.7 15.5 12.8 25.5l.3 153c-5.3-3-11.1-5.3-17.3-6.8-11.4-2.4-21.4-7.3-30.8-13.7l-.2-125.3-79.6-59.05L368 151.1v135.8c-14.7-3.8-29.7-9.5-43.2-18.8zM191.1 464c29.7 0 59.4-15.3 80.9-33.9 9.1-9 22.9-9 31.1 0 22.4 18.6 52 33.9 80 33.9 29.7 0 59.4-15.3 80.9-33.9 9.1-9 22.8-9 31.9 0 17 15 39.3 26.8 61.3 31.7 12.9 2.9 21.1 15.7 18.2 28.7-2.9 12.9-15.8 21-28.7 18.1-28.7-6.4-52.3-20.4-67.6-30.4-27.2 19.5-60.5 33.8-96 33.8-33.7 0-67-14.3-96-33.8-27.2 19.5-60.5 33.8-96 33.8-33.7 0-67-14.3-95.12-33.8-14.37 10-37.99 24-66.67 30.4-12.94 2.9-25.774-5.2-28.676-18.1-2.901-13 5.232-25.8 18.166-28.7 22.21-5 43.96-17.7 60.3-31.7 9.99-9 23.7-9 32.8 0 21.6 18.6 51.2 33.9 79.2 33.9z"/></svg>