<svg xmlns="http://www.w3.org/2000/svg" viewBox="0 0 640 512"><!--! Font Awesome Pro 6.1.1 by @fontawesome - https://fontawesome.com License - https://fontawesome.com/license (Commercial License) Copyright 2022 Fonticons, Inc.--><path d="m201.8 59.52 55.6-16.69c5.7-1.69 11.8-.14 16 4.02 4.1 4.16 5.7 10.27 4 15.9l-16.7 55.65 31.6 17.1-54.6 44.5c1.5-6.1 2.3-12.5 2.3-19.2 0-44.1-35.8-79.96-80-79.96S80 116.7 80 160.8c0 44.2 35.8 80 80 80h3.1l-38.5 31.3-6.2-11.4-55.65 16.7c-5.63 1.7-11.74.1-15.9-4-4.16-4.2-5.71-10.3-4.02-16l16.69-55.6-51.176-27.6C3.165 171.4 0 165.9 0 159.1c0-5 3.165-10.3 8.344-13.1l51.176-27.6-16.69-55.65a15.995 15.995 0 0 1 4.02-15.9 15.995 15.995 0 0 1 15.9-4.02l55.65 16.69L146 8.345C148.8 3.165 154.1 0 160 0s11.4 3.165 14.2 8.345l27.6 51.175zm6.2 99.58c0 27.4-21.5 48-48 48s-48-20.6-48-48c0-25.6 21.5-48 48-48s48 22.4 48 48zm144 152c0-12.4 10.7-24 24-24h48c13.3 0 24 11.6 24 24V360c0 13.3-10.7 24-24 24h-48c-13.3 0-24-10.7-24-24v-48.9zm279.2-33.7c5.9 4.8 8.9 11.5 8.8 18.6-.1 5.2-1.8 10.8-5.4 15.2-8.4 10.2-23.5 10.9-33.8 3.4L576 294.4V456c0 30.9-25.1 56-56 56H280c-30.9 0-56-25.1-56-56V294.4l-24.8 20.2c-10.3 7.5-25.4 6.8-33.8-3.4-3.6-4.4-5.3-11.6-5.4-16.8-.1-7.1 2.9-12.2 8.8-17l216-176c8.9-7.2 21.5-7.2 30.4 0l216 176zM528 255.3 400 150.1 272 255.3V456c0 4.4 3.6 8 8 8h240c4.4 0 8-3.6 8-8V255.3z"/></svg>