<svg xmlns="http://www.w3.org/2000/svg" viewBox="0 0 576 512"><!--! Font Awesome Pro 6.1.1 by @fontawesome - https://fontawesome.com License - https://fontawesome.com/license (Commercial License) Copyright 2022 Fonticons, Inc.--><path d="M493.9 140.4c10.8 7.7 13.3 22.7 5.7 33.5-7.7 10.8-22.7 13.3-33.5 5.7l-2.1-1.5v80.4c-7.3 1.9-14.4 5.1-20.8 9.6-8.4 5.8-17.7 10.6-27.2 14.1V144.1L288 53.41 159.1 144.1v138.1c-8.6-3.5-17.9-8.3-26.2-14.1-6.5-4.5-13.6-7.7-21.8-9.6v-80.4l-1.2 1.5c-10.84 7.6-25.82 5.1-33.49-5.7-7.66-10.8-5.1-25.8 5.72-33.5L274.1 4.415c8.3-5.887 19.5-5.887 27.8 0l192 135.985zM79.1 318.1c9.99-9 23.7-9 32.8 0 21.6 18.6 51.2 33.9 79.2 33.9 29.7 0 59.4-15.3 80.9-33.9 9.1-9 22.9-9 31.1 0 22.4 18.6 52 33.9 80 33.9 29.7 0 59.4-15.3 80.9-33.9 9.1-9 22.8-9 31.9 0 17 15 39.3 26.8 61.3 31.7 12.9 2.9 21.1 15.7 18.2 28.7-2.9 12.9-15.8 21-28.7 18.1-28.7-6.4-52.3-20.4-67.6-30.4-27.2 19.5-60.5 33.8-96 33.8-33.7 0-67-14.3-96-33.8-27.2 19.5-60.5 33.8-96 33.8-33.7 0-67-14.3-95.12-33.8-14.37 10-37.99 24-66.67 30.4-12.94 2.9-25.775-5.2-28.676-18.1-2.901-13 5.231-25.8 18.166-28.7 22.2-5 43.96-17.7 60.3-31.7zm112 145.9c29.7 0 59.4-15.3 80.9-33.9 9.1-9 22.9-9 31.1 0 22.4 18.6 52 33.9 80 33.9 29.7 0 59.4-15.3 80.9-33.9 9.1-9 22.8-9 31.9 0 17 15 39.3 26.8 61.3 31.7 12.9 2.9 21.1 15.7 18.2 28.7-2.9 12.9-15.8 21-28.7 18.1-28.7-6.4-52.3-20.4-67.6-30.4-27.2 19.5-60.5 33.8-96 33.8-33.7 0-67-14.3-96-33.8-27.2 19.5-60.5 33.8-96 33.8-33.7 0-67-14.3-95.12-33.8-14.37 10-37.99 24-66.67 30.4-12.94 2.9-25.775-5.2-28.676-18.1-2.901-13 5.231-25.8 18.166-28.7 22.2-5 43.96-17.7 60.3-31.7 9.99-9 23.7-9 32.8 0 21.6 18.6 51.2 33.9 79.2 33.9z"/></svg>