<svg xmlns="http://www.w3.org/2000/svg" viewBox="0 0 384 512"><!--! Font Awesome Pro 6.1.1 by @fontawesome - https://fontawesome.com License - https://fontawesome.com/license (Commercial License) Copyright 2022 Fonticons, Inc.--><path d="M102.1 106.7c-9.46 8.3-24.56 6.6-32.84-4.6-8.28-9.46-6.6-24.56 3.75-32.84l2.69-2.15C104.1 44.38 139.4 32 175.8 32H227c60.2 0 109 48.8 109 109 0 18.1-4.5 35.6-12.7 51H360c13.3 0 24 10.7 24 24s-10.7 24-24 24h-87.9L183 288h177c13.3 0 24 10.7 24 24s-10.7 24-24 24H107c-7.02 10.1-11 22.2-11 35 0 33.7 27.3 61 61 61h51.2c25.5 0 50.2-8.7 70.1-24.6l2.7-2.1c10.4-9.2 25.5-6.6 33.7 3.7 8.3 10.4 6.6 25.5-4.6 33.7l-1.8 2.2c-28.4 22.7-63.7 35.1-100.1 35.1H157c-60.2 0-109-48.8-109-109 0-12.1 2-23.9 5.77-35H24c-13.25 0-24-10.7-24-24s10.75-24 24-24h62.34c5.89-5.9 12.37-9.4 19.36-13.2L171 240H24c-13.25 0-24-10.7-24-24s10.75-24 24-24h236.5c17-11.2 27.5-30.3 27.5-51 0-33.7-27.3-61-61-61h-51.2c-25.5 0-50.2 8.67-70.1 24.6l-3.6 2.1z"/></svg>