<svg xmlns="http://www.w3.org/2000/svg" viewBox="0 0 512 512"><!--! Font Awesome Pro 6.1.1 by @fontawesome - https://fontawesome.com License - https://fontawesome.com/license (Commercial License) Copyright 2022 Fonticons, Inc.--><path d="M171.2 99.64C175.3 61.17 207.8 32 246.5 32c45 0 80 39.02 75.2 83.8l-12.9 120.6c-4.1 38.4-36.6 67.6-75.3 67.6-45 0-80-39.9-75.2-83.8l12.9-120.56zM246.5 80c-14.2 0-26.1 10.68-27.6 24.8l-13.8 120.5c-.9 16.4 12 30.7 28.4 30.7 14.2 0 26.1-10.7 27.6-24.8L274 110.7c1.8-16.42-11.1-30.7-27.5-30.7zM118.4 36.59c6.9 5.06 10.5 13.45 9.4 22L95.82 314.6c-1.65 13.2-13.64 22.7-26.8 21.3a23.611 23.611 0 0 1-20.83-26.5l26.8-214.41-33.54 14.91c-12.19 5.4-26.3 0-31.512-12.09-5.217-12.1.432-26.29 12.622-31.71l72-32c7.94-3.51 17.04-2.56 23.84 2.49zm388.8 77.51-7.3 88.4c-3.3 39.3-36.1 69.5-75.6 69.5-45.2 0-79.2-37.9-75.5-82.1l7.3-88.4c3.3-39.27 36.2-69.5 75.6-69.5 44.3 0 79.2 37.91 75.5 82.1zm-110.6 79.8c-1.4 16.2 11.4 30.1 27.7 30.1 14.5 0 26.5-11.1 27.7-25.5l7.4-88.4c1.4-16.19-12.3-31-27.7-31-14.5 0-26.5 11.99-28.6 26.4l-6.5 88.4zm115.1 130c2.2 12.2-6.6 25.5-19.6 27.8l-464.02 80c-13.06 2.2-25.475-6.6-27.727-19.6-2.252-13.1 6.511-25.5 19.577-27.8l463.97-80c12.2-2.2 25.5 6.6 27.8 19.6zM219.9 479.7c-13 2.2-25.4-6.7-27.6-19.8-2.1-13 5.8-25.4 19.8-27.6l240-40c13-2.2 25.4 5.8 27.6 19.8 2.2 13-6.7 25.4-19.8 27.6l-240 40z"/></svg>