<svg xmlns="http://www.w3.org/2000/svg" viewBox="0 0 576 512"><!--! Font Awesome Pro 6.1.1 by @fontawesome - https://fontawesome.com License - https://fontawesome.com/license (Commercial License) Copyright 2022 Fonticons, Inc.--><path d="M552 416c-13.2 0-24 10.8-24 23.1 0 14.2-10.7 24.9-24 24.9h-71.1v-48H448c35.2 0 64-28.8 64-64v-53c0-44.12-30-82.38-72.75-93.12L352 184V24c0-13.2-10.8-24-24-24s-24 10.8-24 23.1V32h-99.8c-8 0-16.12 1.625-23.75 4.625L52.12 88C40 92.75 32 104.6 32 117.8V352c0 35.25 28.75 64 64 64v48H23.1C10.8 464 0 474.8 0 487.1S10.8 512 23.1 512h488c35.2 0 64-28.8 64-64l.9-8.9c0-12.3-10.8-23.1-24-23.1zM80 352V128.5l118.4-47.38c1.8-.87 3.8-1.12 5.8-1.12H304v47.1l-64 .9c-8.8 0-16 7.2-16 15.1 0 9.7 7.2 16.9 16 16.9h64v32h-64c-8.8 0-16 7.2-16 15.1 0 9.7 7.2 16.9 16 16.9h74.13l113.5 28.38C449 257.8 464 276.9 464 299v53c0 8.8-7.2 16-16 16H96c-8.8 0-16-7.2-16-16zm64 64h240v48H144v-48z"/></svg>