<svg xmlns="http://www.w3.org/2000/svg" viewBox="0 0 448 512"><!--! Font Awesome Pro 6.1.1 by @fontawesome - https://fontawesome.com License - https://fontawesome.com/license (Commercial License) Copyright 2022 Fonticons, Inc.--><path d="M380.8 129.2c19.6 3.5 36.3 14.2 49.3 29.9 12.2 15.8 18 35.5 16.4 55.3-1.6 19.9-11.4 38.4-25 52-15.4 12.7-33.6 21.3-53.5 20.7h-16l-99.4 206.7c-2.5 5.4-6.6 10-12.5 13.2-4.2 3.3-10.1 4.1-17 4.1-6 0-11-.8-16.1-4.1-5.9-3.2-9.1-7.8-11.6-13.2L95.1 287.1h-16c-19 .6-38.09-7-52.64-20.6a80.03 80.03 0 0 1-25.12-52c-1.62-19.8 4.215-39.6 16.36-55.3a79.988 79.988 0 0 1 49.34-30 160.13 160.13 0 0 1 55.36-92.54C151.1 13.15 186.1.29 223.1.29c37.9 0 73.8 12.86 102.5 36.37 28.6 23.52 48.2 56.24 54.5 92.54h.7zm8.2 102c5.7-5.4 9.2-12.7 9.9-20.5.6-7.9-1.6-15.7-6.4-21.9-4.7-6.3-11.6-10.6-19.3-12.2l-32.9-5.3-6.4-32.8c-5.2-25.4-18.9-48.16-38.9-64.54-20.9-16.38-45.1-25.33-70.9-25.33-25.9 0-51 8.95-71 25.33s-33.7 39.14-38.8 64.54l-6.4 32.8-33.02 5.3c-7.69 1.6-14.55 5.9-19.28 12.1-4.72 6.3-6.98 14.1-6.35 21.9.63 7.8 4.11 15.1 9.78 20.5 5.67 5.5 13.13 8.6 20.07 8H368c7.8.6 15.3-2.5 21-7.9z"/></svg>