<svg xmlns="http://www.w3.org/2000/svg" viewBox="0 0 512 512"><!--! Font Awesome Pro 6.1.1 by @fontawesome - https://fontawesome.com License - https://fontawesome.com/license (Commercial License) Copyright 2022 Fonticons, Inc.--><path d="M28.8 17.64c29.39-24.679 70.86-21.992 98.3-1.19 29.2-20.911 70.3-23.296 100.2.97l.3.28c36 30.31 37.8 84.3 5.2 116.9l-78.6 78.8c-14.1 13.7-37.8 14.7-52.5-.4l-78.51-78.3-.04-.1C-9.441 101.1-7.674 47.94 28.8 17.64zm30.71 36.89C44.93 66.62 44.3 87.87 57.12 100.7l71.08 70.9 70.6-70.9c12.9-12.81 12.2-34.05-1.9-46.14-12.2-9.71-31.4-8.63-43.9 3.39l-24.4 26.11-25.5-25.92c-12.7-12.43-32.33-13.09-43.45-3.72l-.14.11zM512 175.1c0 27.4-28.7 48-64 48s-64-20.6-64-48c0-25.6 28.7-48 64-48 5.5 0 10.9 1.4 16 2.4V53.27l-112 22.4V207.1c0 27.4-28.7 48-64 48s-64-20.6-64-48c0-25.6 28.7-48 64-48 5.5 0 10.9 1.4 16 2.4V55.1c0-10.54 8.1-20.39 19.3-22.64L483.3.465c7-1.41 14.4.415 19.9 4.974C508.8 9.997 512 16.81 512 23.1v152zM192 392c0 26.5-21.5 48-48 48s-48-21.5-48-48 21.5-48 48-48 48 21.5 48 48zm96-40v96c0 35.3-28.7 64-64 64H64c-35.35 0-64-28.7-64-64v-96c0-35.3 28.65-64 63.1-64l8.06-14.3c5.42-10.9 16.5-18.6 28.62-18.6h88.42c12.1 0 23.2 7.7 28.6 18.6L224 288c35.3 0 64 28.7 64 64zM93.66 336H63.1c-7.94 0-15.1 7.2-15.1 16v96c0 8.8 7.16 16 16 16h160c8.8 0 16-7.2 16-16v-96c0-8.8-7.2-16-16-16h-29.7l-16-32.9h-68.6L93.66 336zm379.74-76.9c6 4.3 8.3 12.3 5.3 19.2L440.3 368H496c6.7 0 12.6 4.1 14.1 10.4 3.2 6.2 1.5 13.3-3.6 17.6l-128 112c-5.6 4.1-13.9 5.3-19.9.9-6-4.3-8.2-12.3-5.3-19.2l38.4-89.7H336c-6.7 0-12.6-4.1-15-10.4-2.3-6.2-.6-13.3 4.5-18.5l128-112c5.6-4.1 13.9-4.4 19.9 0z"/></svg>