<svg xmlns="http://www.w3.org/2000/svg" viewBox="0 0 576 512"><!--! Font Awesome Pro 6.1.1 by @fontawesome - https://fontawesome.com License - https://fontawesome.com/license (Commercial License) Copyright 2022 Fonticons, Inc.--><path d="M256 128h64c17.67 0 32-14.33 32-32V32c0-17.67-14.33-32-32-32h-64c-17.7 0-32 14.33-32 32v64c0 17.7 14.3 32 32 32zm32 176c35.35 0 64-28.65 64-64s-28.65-64-64-64-64 28.65-64 64c0 35.3 28.7 64 64 64zM512 64H384v48h128c8.822 0 16 7.178 16 16v320c0 8.822-7.178 16-16 16H64c-8.822 0-16-7.178-16-16V128c0-8.822 7.178-16 16-16h128V64H64C28.65 64 0 92.65 0 128v320c0 35.35 28.65 64 64 64h448c35.35 0 64-28.65 64-64V128c0-35.35-28.7-64-64-64zM192 432h192c8.836 0 16-7.164 16-16 0-44.18-35.82-80-80-80h-64c-44.18 0-80 35.82-80 80 0 8.8 7.2 16 16 16z"/></svg>