<svg xmlns="http://www.w3.org/2000/svg" viewBox="0 0 576 512"><!--! Font Awesome Pro 6.1.1 by @fontawesome - https://fontawesome.com License - https://fontawesome.com/license (Commercial License) Copyright 2022 Fonticons, Inc.--><path d="M0 416v-96C0 160.9 128.9 32 288 32s288 128.9 288 288v96c0 35.3-28.7 64-64 64H64c-35.35 0-64-28.7-64-64zm512 16c8.8 0 16-7.2 16-16v-48H400v64h112zm-80-112V192H144v128h36.6c13.8-46.3 56.7-80 107.4-80s93.6 33.7 107.4 80H432zm59.1-128H480v128h48c0-47.1-13.5-91-36.9-128zM96 192H84.95C61.54 229 48 272.9 48 320h48V192zm28.8-48H304V80.52c-5.3-.34-10.6-.52-16-.52-63.9 0-120.3 24.3-163.2 64zm326.4 0c-27.8-25.7-61.6-45.01-99.2-55.37V144h99.2zM176 368H48v48c0 8.8 7.16 16 16 16h112v-64zm112-80c-35.3 0-64 28.7-64 64v80h128v-80c0-35.3-28.7-64-64-64z"/></svg>