<svg xmlns="http://www.w3.org/2000/svg" viewBox="0 0 448 512"><!--! Font Awesome Pro 6.1.1 by @fontawesome - https://fontawesome.com License - https://fontawesome.com/license (Commercial License) Copyright 2022 Fonticons, Inc.--><path d="M112 112c-17.67 0-32 14.33-32 32s14.33 32 32 32c17.68 0 32-14.33 32-32s-14.3-32-32-32zm336-16c0-35.35-28.65-64-64-64H64C28.65 32 0 60.65 0 96v320c0 35.35 28.65 64 64 64h320c35.35 0 64-28.65 64-64V96zm-48 320c0 8.822-7.178 16-16 16H64c-8.822 0-16-7.178-16-16v-48h352v48zm0-96h-28.76l-96.58-144.9a16.11 16.11 0 0 0-13.36-7.1 15.978 15.978 0 0 0-13.31 7.125l-62.74 94.11L162.9 238.6c-3-4.2-7.8-6.6-12.9-6.6a16.007 16.007 0 0 0-12.93 6.574L77.7 320H48V96c0-8.822 7.178-16 16-16h320c8.822 0 16 7.178 16 16v224z"/></svg>