<svg xmlns="http://www.w3.org/2000/svg" viewBox="0 0 640 512"><!--! Font Awesome Pro 6.1.1 by @fontawesome - https://fontawesome.com License - https://fontawesome.com/license (Commercial License) Copyright 2022 Fonticons, Inc.--><path d="m630.8 469.1-55.95-43.85c.45-3.05.25-6.05.25-9.25l.003-320c0-35.35-28.65-64-64-64H127.1c-13.5 0-26.7 4.98-37.32 13.06L38.81 5.113C28.34-3.058 13.31-1.246 5.109 9.192-3.063 19.63-1.235 34.72 9.187 42.89L601.2 506.9c4.4 3.4 9.6 5.1 13.9 5.1 7.125 0 14.17-3.156 18.91-9.188 9.09-10.412 7.19-25.512-3.21-33.712zm-103.7-80.6-36.11-28.3-100.7-136.8c-2.49-4.6-8.19-7.4-14.29-7.4-6.113 0-11.82 2.768-15.21 7.379L344.9 245l-83-65c.2-3.9 2.1-7.8 2.1-12 0-26.51-21.49-48-48-48-8.336 0-16.05 2.316-22.88 6.057L134.4 80H512c8.822 0 16 7.178 16 16v292.5zm-272.9-20.2-37.09-46.1c-3.441-4.279-8.934-6.809-14.77-6.809-5.842 0-11.33 2.529-14.78 6.809l-75.52 93.81c0-.03 0 .03 0 0l-.94-231.51-48-37.62.89 269.12c0 35.35 28.65 64 64 64h361.1l-201.1-157.6-33.79 45.9z"/></svg>