<svg xmlns="http://www.w3.org/2000/svg" viewBox="0 0 512 512"><!--! Font Awesome Pro 6.1.1 by @fontawesome - https://fontawesome.com License - https://fontawesome.com/license (Commercial License) Copyright 2022 Fonticons, Inc.--><path d="m500.9 82.65-54.48-65.38A48.014 48.014 0 0 0 409.5 0h-307a48.014 48.014 0 0 0-36.89 17.27L11.13 82.65A47.907 47.907 0 0 0 0 113.4V224c0 35.35 28.65 64 64 64h384c35.35 0 64-28.65 64-64V113.4c0-11.3-3.9-22.12-11.1-30.75zM102.5 48h307l39.1 48H368a23.964 23.964 0 0 0-21.47 13.28L321.2 160H190.8l-25.3-50.7C161.4 101.1 153.1 96 144 96H62.48l40.02-48zM464 224c0 8.822-7.178 16-16 16H64c-8.82 0-16-7.2-16-16v-80h81.16l25.38 50.72C158.6 202.9 166.9 208 176 208h160c9.094 0 17.41-5.125 21.47-13.28L382.8 144H464v80zm0 95.1-96 .9a23.964 23.964 0 0 0-21.47 13.28L321.2 384H190.8l-25.38-50.72C161.4 325.1 153.1 320 144 320H32c-17.67 0-32 14.33-32 32v96c0 35.35 28.65 64 64 64h384c35.35 0 64-28.65 64-64v-80c0-26.5-21.5-48.9-48-48.9zm0 128.9c0 8.822-7.178 16-16 16H64c-8.822 0-16-7.178-16-16v-80h81.16l25.38 50.72c4.06 8.18 12.36 12.38 21.46 12.38h160c9.094 0 17.41-5.125 21.47-13.28L382.8 368H464v80z"/></svg>