<svg xmlns="http://www.w3.org/2000/svg" viewBox="0 0 512 512"><!--! Font Awesome Pro 6.1.1 by @fontawesome - https://fontawesome.com License - https://fontawesome.com/license (Commercial License) Copyright 2022 Fonticons, Inc.--><path d="M464 320h-96a23.964 23.964 0 0 0-21.47 13.28L321.2 384H190.8l-25.38-50.72C161.4 325.1 153.1 320 144 320H32c-17.67 0-32 14.33-32 32v96c0 35.35 28.65 64 64 64h384c35.35 0 64-28.65 64-64v-80c0-26.5-21.5-48-48-48zm0 128c0 8.822-7.178 16-16 16H64c-8.822 0-16-7.178-16-16v-80h81.16l25.38 50.72C158.6 426.9 166.9 432 176 432h160c9.094 0 17.41-5.125 21.47-13.28L382.8 368H464v80zM238.4 312.3c3.7 4.9 10.9 7.7 17.6 7.7s13.03-2.781 17.59-7.656l104-112c9-9.719 8.438-24.91-1.25-33.94-9.719-8.969-24.88-8.438-33.94 1.25L280 234.9V24c0-13.25-10.75-24-24-24s-24 10.75-24 24v210.9l-62.4-67.2c-9.1-10.6-24.2-10.3-33.9-1.3-10.6 9-10.3 24.2-1.3 33.9l104 112z"/></svg>