<svg xmlns="http://www.w3.org/2000/svg" viewBox="0 0 512 512"><!--! Font Awesome Pro 6.1.1 by @fontawesome - https://fontawesome.com License - https://fontawesome.com/license (Commercial License) Copyright 2022 Fonticons, Inc.--><path d="M508.3 304.9 447.05 56.2C443.5 42 430.7 32 416 32H96c-14.69 0-27.47 10-31.03 24.25L3.72 304.95A126.947 126.947 0 0 0 0 335.5V416c0 35.35 28.65 64 64 64h384c35.35 0 64-28.65 64-64v-80.47c0-10.33-1.2-20.63-3.7-30.63zM108.6 80h294.9l51.2 208H368a23.964 23.964 0 0 0-21.47 13.28L321.2 352H190.8l-25.3-50.7c-4.1-8.2-12.4-13.3-21.5-13.3H57.32L108.6 80zM464 416c0 8.822-7.178 16-16 16H64c-8.822 0-16-7.178-16-16v-80h81.16l25.38 50.72C158.6 394.9 166.9 400 176 400h160c9.094 0 17.41-5.125 21.47-13.28L382.8 336H464v80zM184 176h144c13.3 0 24-10.7 24-24s-10.7-24-24-24H184c-13.2 0-24 10.8-24 24s10.8 24 24 24zm176 80c13.3 0 24-10.7 24-24s-10.7-24-24-24H152c-13.2 0-24 10.8-24 24s10.8 24 24 24h208z"/></svg>