<svg xmlns="http://www.w3.org/2000/svg" viewBox="0 0 448 512"><!--! Font Awesome Pro 6.1.1 by @fontawesome - https://fontawesome.com License - https://fontawesome.com/license (Commercial License) Copyright 2022 Fonticons, Inc.--><path d="M0 64c0-13.25 10.75-24 24-24h400c13.3 0 24 10.75 24 24s-10.7 24-24 24H24C10.75 88 0 77.25 0 64zm192 128c0-13.3 10.7-24 24-24h208c13.3 0 24 10.7 24 24s-10.7 24-24 24H216c-13.3 0-24-10.7-24-24zm232 104c13.3 0 24 10.7 24 24s-10.7 24-24 24H216c-13.3 0-24-10.7-24-24s10.7-24 24-24h208zM0 448c0-13.3 10.75-24 24-24h400c13.3 0 24 10.7 24 24s-10.7 24-24 24H24c-13.25 0-24-10.7-24-24zm26.17-101.6C15.73 355 0 347.6 0 334.1V177.9c0-13.5 15.73-21.8 26.17-12.3l94.83 78c7.8 6.4 7.8 17.5 0 24.8l-94.83 78z"/></svg>