<svg xmlns="http://www.w3.org/2000/svg" viewBox="0 0 320 512"><!--! Font Awesome Pro 6.1.1 by @fontawesome - https://fontawesome.com License - https://fontawesome.com/license (Commercial License) Copyright 2022 Fonticons, Inc.--><path d="M.002 56C.002 42.75 10.75 32 24 32h272c13.3 0 24 10.75 24 24s-10.7 24-24 24h-84.7c17.8 19.83 30.1 44.6 34.7 72h50c13.3 0 24 10.7 24 24s-10.7 24-24 24h-50c-11.4 68.1-70.6 120-142 120h-5.11L261.1 436.5c11.6 7.7 14.1 22.7 6.4 33.4-7.7 10.8-22.7 13.3-33.4 5.6l-224.05-160c-8.488-6-12.087-16.9-8.903-26.8A23.94 23.94 0 0 1 24 272h80c44.7 0 82.3-30.6 92.1-72H24C10.75 200 .002 189.3.002 176S10.75 152 24 152h172.1c-9.8-41.4-47.4-72-92.1-72H24C10.75 80 .002 69.25.002 56z"/></svg>