<svg xmlns="http://www.w3.org/2000/svg" viewBox="0 0 640 512"><!--! Font Awesome Pro 6.1.1 by @fontawesome - https://fontawesome.com License - https://fontawesome.com/license (Commercial License) Copyright 2022 Fonticons, Inc.--><path d="M484.4 96C407 96 349.2 164.1 320 208.5 290.8 164.1 233 96 155.6 96 69.75 96 0 167.8 0 256s69.75 160 155.6 160c77.5 0 135.2-68.1 164.4-112.5C349.2 347.9 407 416 484.4 416c85.9 0 155.6-71.8 155.6-160S570.3 96 484.4 96zM155.6 368C96.25 368 48 317.8 48 256s48.25-112 107.6-112c67.75 0 120.5 82.25 137.1 112-16.7 29.8-69.3 112-137.1 112zm328.8 0c-67.75 0-120.5-82.25-137.1-112 16.7-29.8 69.3-112 137.1-112 59.4 0 107.6 50.2 107.6 112s-48.2 112-107.6 112z"/></svg>