<svg xmlns="http://www.w3.org/2000/svg" viewBox="0 0 576 512"><!--! Font Awesome Pro 6.1.1 by @fontawesome - https://fontawesome.com License - https://fontawesome.com/license (Commercial License) Copyright 2022 Fonticons, Inc.--><path d="M127.1 368c-17.63 0-31.99 14.37-31.99 31.1 0 17.62 14.37 31.1 31.99 31.1s31.99-14.37 31.99-31.1c.01-16.7-13.49-31.1-31.99-31.1zM31.99 224C14.37 224 0 238.4 0 256s14.37 31.1 31.99 31.1 32-13.5 32-31.1-14.37-32-32-32zm0 96C14.37 320 0 334.4 0 352c0 17.62 14.37 31.1 31.99 31.1s31.99-14.37 31.99-31.1c.01-17.6-14.36-32-31.99-32zm0 96C14.37 416 0 430.4 0 448c0 17.62 14.37 31.1 31.99 31.1s32-13.5 32-31.1-14.37-32-32-32zm95.11-144c-17.63 0-31.99 14.37-31.99 31.1s14.37 31.1 31.99 31.1 31.99-14.37 31.99-31.1S145.6 272 127.1 272zm200.5-48H223.1c-17.67 0-32 14.33-32 31.1v191.1c0 17.6 14.4 31.1 31.1 31.1h246.4c12.8 0 23.95-8.531 27.13-20.89l42.79-163.1L376.5 132.3c-8.737-8.737-23.66-4.695-26.79 7.257L327.6 224zm46.4 12.2 7.994-30.5 104.8 104.8-31.88 121.5H239.1V272h124.6l10.3-35.8zM555.2 65.24 434.7 32.98c-14.98-4.047-30.3 4.814-34.34 19.8L388.1 98.62l147.7 147.7 39.27-146.7c4.03-15.02-4.87-30.33-19.87-34.38z"/></svg>