<svg xmlns="http://www.w3.org/2000/svg" viewBox="0 0 448 512"><!--! Font Awesome Pro 6.1.1 by @fontawesome - https://fontawesome.com License - https://fontawesome.com/license (Commercial License) Copyright 2022 Fonticons, Inc.--><path d="M336.5 32c-22.87-.125-45.37 6.125-64.99 17.88C249.6 20.25 207.9 0 159.4 0 94.89 0 41.41 35.38 32.17 81.62 30.67 89.12 37.39 96 46.39 96H80l15.1-32 19.01 37.88C108.8 111.5 103.5 121.5 100.5 132c-8.24 28-4.99 59.6 21.8 89.4 1.5 1.6 3.6 2.5 5.7 2.6 2.25 0 4.375-.75 5.1-2.25L200.6 153c-5.7 76.8-32.3 153.2-51 199H128c-34.25 0-67.12 13.75-91.25 38.25C13.65 414.75-.5 447.75 0 482.13.264 498.9 15.2 512 32.08 512h319.9c16.87 0 31.79-13 32.04-29.88.1-60.75-40.5-111.6-96.62-125.8C308.5 248 297.3 139.5 295.9 128h72.15l15.97-32 16 32h35.37c3.75 0 7.251-1.5 9.626-4.25 2.375-2.75 3.375-6.5 2.875-10.13C439.7 67.38 392.1 32 336.5 32zM249 150.1l.75.125C252.4 186.1 255.5 270.8 238.9 352h-37.8c19.7-51 43.3-126.2 47.9-201.9zM334.4 464H49.64c7.625-37.25 40.37-64 78.37-64h127.1c38.89 0 71.69 26.8 79.29 64z"/></svg>