<svg xmlns="http://www.w3.org/2000/svg" viewBox="0 0 576 512"><!--! Font Awesome Pro 6.1.1 by @fontawesome - https://fontawesome.com License - https://fontawesome.com/license (Commercial License) Copyright 2022 Fonticons, Inc.--><path d="M413.5 72.01c-21.3 0-42.64 5.665-61.47 16.98l.005-53.25c0-6-3.376-11.5-8.876-14.25l-39.63-19.75a15.52 15.52 0 0 0-7.13-1.731 16.045 16.045 0 0 0-14.87 10.11L254.9 76.73c-10.25 3-20 7.375-28.88 13.25-19.22-12.07-41.22-18.1-63.22-18.1C66.99 71.88 0 193.5 0 291.1c0 71 28.88 137.8 81.38 187.8 22.32 22 51.72 33 81.52 33 38.1 0 57.47-16.73 62.74-16.73 1.401 0 2.877.417 4.274 1.186 17.12 10.38 36.76 15.61 58.13 15.61s40.99-5.238 58.12-15.61c1.398-.769 2.873-1.186 4.274-1.186 5.619 0 23.79 16.73 62.74 16.73 29.72 0 59.13-11 81.49-32.17C547.1 429.7 576 362.1 576 291.1c0-97.2-67.9-219.09-162.5-219.09zM413.3 464c-32.62 0-35.69-16.8-62.97-16.8-27.8 0-30.58 16.83-62.29 16.83-31.77 0-34.43-16.83-62.29-16.83-26.85 0-30.72 16.8-62.97 16.8C101.2 464 48 370.9 48 291.1c0-57.75 23.62-112.1 66.5-153 13.3-11.6 30.7-18 48.3-18 17.12 0 34.25 6 47.5 18l16.63 15.13L243 137.7c12.4-11.9 28.7-17.8 45-17.8s32.63 5.882 45 17.82l16.12 15.5 16.63-15.13c13.2-11.97 30.37-17.94 47.49-17.94C475.5 120.2 528 213.7 528 291.1c0 79.8-53.2 172.9-114.7 172.9zM249.1 271.1c4.948 0 6.844-3.737 6.844-6.641 0-1.109-.281-2.234-.844-3.359l-41.13-66.63c-1.749-2.25-3.874-3.375-6.374-3.375-2.625 0-4.5 1.125-5.626 3.375l-41.12 66.63c-.55 2-.85 3.1-.85 4.3 0 2.904 1.895 6.641 6.844 6.641H249.1zm160 0c4.948 0 6.844-3.737 6.844-6.641 0-1.109-.281-2.234-.844-3.359l-41.13-66.63c-1.749-2.25-3.874-3.375-6.374-3.375-2.625 0-4.5 1.125-5.626 3.375l-41.12 66.63c-.562 1.125-.843 2.25-.843 3.359 0 2.904 1.895 6.641 6.844 6.641H409.1zm61.6 32.5c0-8.677-7.526-15.62-16-15.62-10.77 0-65.5 45.03-166.7 45.03v14.38c0 8.75-7.125 16-16 16h-16c-8.875 0-16-7.25-16-16v-18.25C161.7 317.2 133.1 288 121.5 288c-8.5 0-16.14 6.987-16.14 15.71 0 9.267 15.41 49.12 54.79 75.26.05-8.77 7.05-15.77 15.85-15.77h16c8.875 0 16 7.25 16 16v21.5c23.5 6.875 50.13 10.5 80 10.5s56.5-3.625 80-10.5v-21.5c0-8.75 7.125-16 16-16h16c8.625 0 15.62 7 15.88 15.63 13.88-9.25 25.88-20 35.25-33 10.67-15.13 19.57-35.73 19.57-42.23z"/></svg>