<svg xmlns="http://www.w3.org/2000/svg" viewBox="0 0 320 512"><!--! Font Awesome Pro 6.1.1 by @fontawesome - https://fontawesome.com License - https://fontawesome.com/license (Commercial License) Copyright 2022 Fonticons, Inc.--><path d="M32 24C32 10.75 42.75 0 56 0h208c13.3 0 24 10.75 24 24s-10.7 24-24 24H56c-13.25 0-24-10.75-24-24zm224 56c35.3 0 64 28.7 64 64v304c0 35.3-28.7 64-64 64H64c-35.35 0-64-28.7-64-64V144c0-35.3 28.65-64 64-64h192zm0 48H64c-8.84 0-16 7.2-16 16v80h224v-80c0-8.8-7.2-16-16-16zm16 240H48v80c0 8.8 7.16 16 16 16h192c8.8 0 16-7.2 16-16v-80z"/></svg>