<svg xmlns="http://www.w3.org/2000/svg" viewBox="0 0 576 512"><!--! Font Awesome Pro 6.1.1 by @fontawesome - https://fontawesome.com License - https://fontawesome.com/license (Commercial License) Copyright 2022 Fonticons, Inc.--><path d="M559.1 241.2c0 149.3-121 270.8-272 270.8-4.25 0-8.615-.125-12.87-.25-138.9-6.375-252.5-119.6-258.9-257.7.65-6.45.91-12.55 1.03-18.85-.5-2.625-.5-5.25.125-7.75 4.125-82.88 46.25-159.3 114.1-207 4-2.875 8.735-4.455 13.74-4.455 8 0 15.37 3.1 19.87 10.63C168.7 33.17 169.6 41.62 166.6 49c-5.9 14.88-8.9 30.63-8.9 46.63 0 41.13 19.12 78.79 52.62 103.7 5.875 4.25 9.375 11.08 9.75 18.33.375 7.25-2.5 14.25-8 19.12-24 21.62-37.36 51-37.36 82.63 0 51.87 35.75 95.25 83.88 108.1l2.25-57.25-20.63 14.13c-4.75 3-10.87 2.5-15-1.25-4.125-3.875-5-10-2.125-14.88l17.38-28.87-36.63-7.625C198.2 330.6 194.2 325.8 194.2 320c0-5.625 4-10.62 9.625-11.75l36.63-7.625L223.1 271.8c-2.875-4.875-2-11 2.125-14.88C229.4 253 235.6 252.5 240.2 255.8l24.5 16.5 11.2-260.8c.2-6.375 5.7-11.5 11.2-11.5 6.5 0 11.63 5.125 11.88 11.5l11.25 260.7 24.5-16.62c4.625-3.125 10.88-2.625 15 1.25 2.25 2.375 3.5 5.375 3.75 8.625-.125 2.25-.75 4.25-1.75 6.25l-17.25 28.87 36.63 7.625c5.5 1.125 9.5 6 9.5 11.75 0 5.625-4 10.62-9.5 11.75l-36.63 7.5 17.25 29c2.875 4.875 2 11-2 14.88-4.125 3.75-10.38 4.25-15 1.125l-20.62-14 2.125 57.63C357.9 417.4 390.4 384 398.7 342.5c8-39-5.244-79.25-34.87-105.8-5.5-4.875-8.417-11.79-8.042-19.17a24.396 24.396 0 0 1 9.833-18.33c33.5-24.75 52.58-62.5 52.58-103.6 0-16-3.083-31.79-8.958-46.67-4-9.75-1.045-21.21 7.33-27.83 8.25-6.625 20.1-6.803 28.73-.678 67.5 47.87 109.4 123.8 113.8 206.4.75 2.5 1 5 .5 7.625-.003 2.353-.503 3.653-.503 6.753zm-451.2 57.3c-5.7 6.7-15.83 7.4-22.45 1.5l-16.84-14.6c12.75 62.13 51.88 115.5 105.3 147.3-57.63-57.13-63-148.5-12.38-212a174.532 174.532 0 0 1-51.62-114.6c-14.17 18.3-24.92 38.9-32.67 60.7l29.96 29.94c6.25 6.25 6.25 16.37 0 22.63-6.3 6.23-16.38 6.23-22.63-.17l-16.71-16.6c-2.125 12.13-3.25 24.5-3.25 36.75L106.4 276c3.25 2.75 5.039 6.75 5.414 11 .286 4.1-1.114 8.4-3.914 11.5zm398.2-12.9L490.5 300c-6.625 5.875-16.75 5.125-22.62-1.5-5.78-6.6-5.18-16.7 1.62-22.5l42.24-37.12a225.61 225.61 0 0 0-3.375-36.63l-17.11 17c-6.25 6.25-16.37 6.25-22.62 0-6.25-6.125-6.25-16.25 0-22.5l30.11-30.13c-7.75-21.75-18.88-42.12-32.75-60.5-2.5 43.25-20.88 83.1-51.63 114.5C443.6 257.2 455.2 304.8 445.7 352c-6.25 30.75-21.63 58.88-43.88 81 54.28-32.1 92.58-85.6 104.28-147.4z"/></svg>