<svg xmlns="http://www.w3.org/2000/svg" viewBox="0 0 576 512"><!--! Font Awesome Pro 6.1.1 by @fontawesome - https://fontawesome.com License - https://fontawesome.com/license (Commercial License) Copyright 2022 Fonticons, Inc.--><path d="M375.6 138.2c5.5 10.4 8.4 22 8.4 33.7v30.9l128 81.5v-37.2c0-12.4 10.7-24 24-24s24 11.6 24 24V392c0 13.3-10.7 24-24 24s-24-10.7-24-24v-8H384v1.1l41.9 66.3c4 6.3 6.1 13.6 6.1 21.1 0 21.8-17.7 39.5-39.5 39.5h-209c-21.8 0-39.5-17.7-39.5-39.5 0-7.5 2.1-14.8 6.1-21.1l41.9-66.3V384H64v8c0 13.3-10.75 24-24 24s-24-10.7-24-24V247.1c0-12.4 10.75-24 24-24s24 11.6 24 24v37.2l128-81.5v-30.9c0-11.7 2.9-23.3 8.4-33.7l66.4-125.43C270.9 4.914 279.1 0 288 0c8.9 0 17.1 4.914 21.2 12.77l66.4 125.43zm8.4 121.5V336h119.9L384 259.7zm-48-43.3c-.9-.3-.9-.5 0-.8v-43.7c0-3.9-1-7.7-2.8-11.2L288 75.29l-45.2 85.41c-2.7 3.5-2.8 7.3-2.8 11.2V392c0 4.5-1.3 8.1-3.7 12.8L198.9 464H264v-56c0-13.3 10.7-24 24-24s24 10.7 24 24v56h65.1l-37.4-59.2c-2.4-4.7-3.7-8.3-3.7-12.8V216.4zm-144 43.3L72.13 336H192v-76.3z"/></svg>