<svg xmlns="http://www.w3.org/2000/svg" viewBox="0 0 640 512"><!--! Font Awesome Pro 6.1.1 by @fontawesome - https://fontawesome.com License - https://fontawesome.com/license (Commercial License) Copyright 2022 Fonticons, Inc.--><path d="M471.5 177.9c25.3 15.2 40.5 42.4 40.5 71.9v14.25c0 13.15 10.8 23.95 24 23.95s24-10.8 24-23.1v-15.1c0-43.25-21-83.5-56.38-108.1C479.9 125 464 99.38 464 70.25V23.1C464 10.8 453.2 0 440 0s-24 10.8-24 23.1v49.79c0 42.71 19.6 83.61 55.5 105.01zm81.8-90.78c-5.7-3.87-9.3-10-9.3-16.87V23.1C544 10.8 533.2 0 520 0s-24 10.8-24 23.1v47.97c0 22.5 12.12 42.67 30.79 55.21C567.6 154.6 592 200.4 592 249.8v14.25c0 13.15 10.8 23.95 23.1 23.95 14.1 0 24.9-10.8 24.9-24v-14.2c0-65.6-32.4-126.3-86.7-162.68zM616 352H279c-98.8 0-195.38 27.8-279 80 83.62 52.2 180.2 80 279 80h337c13.25 0 24-10.75 24-24V376c0-13.2-10.7-24-24-24zM279 464c-59.25 0-117.5-10.88-172.1-32 49.25-19 101.6-29.25 154.8-31.25L315.8 464H279zm100 0-54.88-64H421l54.88 64H379zm213 0h-53l-54.88-64H592v64z"/></svg>