<svg xmlns="http://www.w3.org/2000/svg" viewBox="0 0 448 512"><!--! Font Awesome Pro 6.1.1 by @fontawesome - https://fontawesome.com License - https://fontawesome.com/license (Commercial License) Copyright 2022 Fonticons, Inc.--><path d="M384 352H248V221.3c51.88-11.37 88.01-57.3 88.01-109.3 0-37.77-25.15-111.1-112-111.1-42.57 0-112 33.1-112 111.1 0 52.03 36.12 97.96 88.01 109.3V352H128c0-17.67-14.33-31.97-32-31.97S64 334.33 64 352c-35.2 0-64 28.82-64 64.01V448c0 35.2 28.8 64 64 64h320c35.2 0 64-28.79 64-63.98v-31.99c0-35.23-28.8-64.03-64-64.03zM160 112.1c0-35.37 28.6-63.99 64-63.99s64 28.62 64 63.98c0 35.37-28.62 63.98-64 63.98s-64-28.57-64-63.97zM400 448c0 8.834-7.164 15.1-16 15.1H64c-8.836 0-16-7.162-16-15.1v-31.99c0-8.834 7.164-15.1 16-15.1h320c8.836 0 16 7.162 16 15.1V448z"/></svg>