<svg xmlns="http://www.w3.org/2000/svg" viewBox="0 0 384 512"><!--! Font Awesome Pro 6.1.1 by @fontawesome - https://fontawesome.com License - https://fontawesome.com/license (Commercial License) Copyright 2022 Fonticons, Inc.--><path d="M200 0c13.3 0 24 10.75 24 24v24h8c13.3 0 24 10.75 24 24s-10.7 24-24 24H88c-13.25 0-24-10.75-24-24s10.75-24 24-24h8V24c0-13.25 10.7-24 24-24h80zm88 256v96c0 17.7-14.3 32-32 32s-32-14.3-32-32v-96c0-17.7 14.3-32 32-32s32 14.3 32 32zm-32-128c70.7 0 128 57.3 128 128v192c0 35.3-28.7 64-64 64H64c-35.35 0-64-28.7-64-64V256c0-70.7 57.31-128 128-128h128zm0 48H128c-44.18 0-80 35.8-80 80v192c0 8.8 7.16 16 16 16h256c8.8 0 16-7.2 16-16V256c0-44.2-35.8-80-80-80z"/></svg>