<svg xmlns="http://www.w3.org/2000/svg" viewBox="0 0 448 512"><!--! Font Awesome Pro 6.1.1 by @fontawesome - https://fontawesome.com License - https://fontawesome.com/license (Commercial License) Copyright 2022 Fonticons, Inc.--><path d="M447.1 167.1c0-38.9-31.3-71.1-71.1-71.1a71.012 71.012 0 0 0-54.63 25.64L311 108.75c-4.5-5.625-6.1-12.68-6.1-19.93L304 48c13.25 0 24-10.75 24-24S317.2 0 303.1 0h-160C130.7 0 120 10.75 120 24s10.8 24 24 24l-.9 40.76c0 7.281-2.462 14.31-7.011 19.1l-76.93 96.16C41.86 227.7 31.1 255.8 31.1 284.9L32 432c0 44.2 35.82 80 80 80h224c44.18 0 80-35.82 80-80V284.9a126.465 126.465 0 0 0-11.13-51c26.23-11.5 42.23-37.3 42.23-66.8zM97.5 234.9l77-96.13C185.8 124.5 192 106.9 192 88.75V48h64v40.75c0 18.21 6.195 35.87 17.57 50.09L350.5 235c11.3 14.2 17.5 31.8 17.5 49.9v3.1H80v-3.1c0-18.1 6.25-35.8 17.5-50zM336 464H112c-17.67 0-32-14.33-32-32v-16h288v16c0 17.7-14.3 32-32 32zm41.4-272.3-24.13-30.13c2.875-10.12 11.75-17.63 22.75-17.63 12.88 0 23.5 10.25 23.88 23.25.3 12.91-9.7 22.91-22.5 24.51z"/></svg>