<svg xmlns="http://www.w3.org/2000/svg" viewBox="0 0 576 512"><!--! Font Awesome Pro 6.1.1 by @fontawesome - https://fontawesome.com License - https://fontawesome.com/license (Commercial License) Copyright 2022 Fonticons, Inc.--><path d="m292.5 184.7 40.8 12c8.5 2.4 13.3 11.3 10.9 19.8-2.5 7.6-11.4 13.3-19.9 10.9l-37.2-10.7-35.4 10.7c-8.5 2.4-17.4-3.3-19.9-10.9-2.4-8.5 2.4-17.4 10.9-19.8l40.8-12c2.9-.9 6.1-.9 9 0zm75.3 38.8c2.5-8.5 11.4-13.3 19.9-10.8l81.6 24c8.5 2.4 13.3 11.3 10.9 19.8-2.5 7.6-11.4 13.3-19.9 10.9l-81.6-24c-8.5-2.5-13.3-12.3-10.9-19.9zm-159.7 0c2.5 7.6-2.3 17.4-10.8 19.9l-81.6 24c-8.5 2.4-17.36-3.3-19.85-10.9-2.49-8.5 2.36-17.4 10.85-19.8l81.6-24c8.5-2.5 17.4 2.3 19.8 10.8zM32.82 85.06 272.8 5.061a48.134 48.134 0 0 1 30.4 0l240 79.999c19.6 6.53 32.8 24.84 32.8 45.54v278.9c0 21.6-15.6 42-37.6 46.9l-240 53.3c-6.8 1.5-14 1.5-20.8 0L37.59 456.4C15.62 451.5 0 431.1 0 409.5V280.4c-.006-.3-.006-.5 0-.8v-149c0-20.7 13.22-39.01 32.82-45.54zM47.1 215.6v38.3l5.18-1.2c8.48-2.5 17.38 2.3 19.87 10.8 2.49 7.6-2.36 17.4-10.84 19.9l-14.21 3.9v122.2l240 53.3L528 409.5V287.3l-13.3-3.9c-8.5-2.5-13.3-12.3-10.9-19.9 2.5-8.5 11.4-13.3 19.9-10.8l4.3 1.2v-38.3L294.8 147a24.2 24.2 0 0 0-13.6 0L47.1 215.6zm0-50 220.6-65.5c13.2-3.04 27.4-3.04 40.6 0L528 165.6v-35l-240.9-80-240 80v35z"/></svg>