<svg xmlns="http://www.w3.org/2000/svg" viewBox="0 0 640 512"><!--! Font Awesome Pro 6.1.1 by @fontawesome - https://fontawesome.com License - https://fontawesome.com/license (Commercial License) Copyright 2022 Fonticons, Inc.--><path d="M576 128h-95.38c-19.52-9.9-41.22-16-64.62-16s-45.1 6.1-64.6 16H241.5c-11.7 0-23.4 1.6-34.7 4.9L23.3 185.4C9.5 189.3 0 201.9 0 216.1v79.75c0 14.25 9.5 26.88 23.25 30.75l183.2 52.4c11.45 3.3 23.45 5 35.45 5h109.5c19.5 9.9 41.2 16 64.6 16s45.13-6.125 64.63-16H576c35.2 0 64-28.8 64-64V192c0-35.2-28.8-64-64-64zM296.4 336h-54.5c-7.375 0-14.75-1-22-3.125L48 283.8v-55.5l172-49.13c7.1-2.17 14.5-3.17 21.1-3.17h54.38C264 224.4 264 287.6 296.4 336zM416 352c-53 0-96-43-96-96s43-96 96-96 96 43 96 96-43 96-96 96zm176-32c0 8.836-7.164 16-16 16h-40.38c32.5-48.38 32.5-111.6 0-160H576c8.836 0 16 7.162 16 16v128zM466.2 205.9c-7.812-7.812-20.5-7.812-28.31 0L416 227.7l-21.84-21.84c-7.812-7.812-20.5-7.812-28.31 0-7.781 7.812-7.781 20.47 0 28.28L387.7 256l-21.86 21.86c-7.781 7.812-7.781 20.47 0 28.28C369.8 310 374.9 312 380 312s10.25-1.953 14.16-5.859L416 284.3l21.84 21.84C441.8 310 446.9 312 452 312s10.25-1.953 14.16-5.859c7.781-7.812 7.781-20.47 0-28.28L444.3 256l21.86-21.86c7.74-7.84 7.74-20.44.04-28.24z"/></svg>