<svg xmlns="http://www.w3.org/2000/svg" viewBox="0 0 640 512"><!--! Font Awesome Pro 6.1.1 by @fontawesome - https://fontawesome.com License - https://fontawesome.com/license (Commercial License) Copyright 2022 Fonticons, Inc.--><path d="M441.8 2.094c-12.06-5.438-26.28 0-31.72 12.09l-208 464c-5.406 12.09 0 26.28 12.09 31.72C217.4 511.3 220.7 512 224 512c9.156 0 17.91-5.281 21.91-14.19l208-464c5.39-12.09-.01-26.279-12.11-31.716zM306.7 98.53c-11.8-5.9-26.2-1.09-32.2 10.77L160 338.3l-114.52-229c-5.94-11.89-20.35-16.71-32.19-10.77C1.418 104.5-3.395 118.9 2.543 130.7l135.1 272c4.062 8.156 12.37 13.28 21.47 13.28s17.4-5.124 21.47-13.28l135.1-272c7.717-11.8 2.917-26.2-8.983-32.17zM621.1 382.3 502 110.3c-7.688-17.38-36.25-17.38-43.93 0l-119.1 272c-5.344 12.12.156 26.28 12.28 31.66 12.09 5.281 26.28-.156 31.65-12.28L403.8 352h152.4l21.84 49.69C581.1 410.7 590.8 416 599.1 416c3.25 0 6.531-.656 9.688-2.031C621.8 408.6 627.3 394.4 621.1 382.3zm-196-78.3L480 179.5 534.9 304H425.1z"/></svg>