<svg xmlns="http://www.w3.org/2000/svg" viewBox="0 0 448 512"><!--! Font Awesome Pro 6.1.1 by @fontawesome - https://fontawesome.com License - https://fontawesome.com/license (Commercial License) Copyright 2022 Fonticons, Inc.--><path d="M220.6 261.4 121.9 360l46.2 47c10.2 9.4 10.2 24.6 0 33.1-8.5 10.2-23.7 10.2-33.1 0l-47-46.2L57.94 424l46.16 47c10.2 9.4 10.2 24.6 0 33.1-8.5 10.2-23.7 10.2-33.07 0l-64.001-64c-9.372-8.5-9.372-23.7 0-33.1L186.6 227.4C169.9 203.9 160 175.1 160 144 160 64.47 224.5 0 304 0s144 64.47 144 144c0 79.5-64.5 144-144 144-31.1 0-59.9-9.9-83.4-26.6zM304 240c53 0 96-43 96-96 0-53.02-43-96-96-96-53.9 0-96 42.98-96 96 0 53 42.1 96 96 96z"/></svg>