<svg xmlns="http://www.w3.org/2000/svg" viewBox="0 0 640 512"><!--! Font Awesome Pro 6.1.1 by @fontawesome - https://fontawesome.com License - https://fontawesome.com/license (Commercial License) Copyright 2022 Fonticons, Inc.--><path d="M436 280h24c6.656 0 12-5.344 12-12v-24c0-6.656-5.344-12-12-12h-24c-6.656 0-12 5.344-12 12v24c0 6.7 5.3 12 12 12zm-152-48h-24c-6.656 0-12 5.344-12 12v24c0 6.656 5.344 12 12 12h24c6.656 0 12-5.344 12-12v-24c0-6.7-5.3-12-12-12zm72-32h24c6.656 0 12-5.344 12-12v-24c0-6.656-5.344-12-12-12h-24c-6.656 0-12 5.344-12 12v24c0 6.7 5.3 12 12 12zm80 0h24c6.656 0 12-5.344 12-12v-24c0-6.656-5.344-12-12-12h-24c-6.656 0-12 5.344-12 12v24c0 6.7 5.3 12 12 12zm-315.9-41c-9.375-9.375-24.56-9.375-33.94 0l-80 80C2.344 243.7 0 249.9 0 255.1c0 6.141 2.344 12.29 7.031 16.98l80 80C91.72 357.7 97.84 360 104 360s12.28-2.344 16.97-7.031c9.375-9.375 9.375-24.56 0-33.94L57.94 256l63.03-63.03c9.33-9.37 9.33-24.57-.87-33.97zM356 280h24c6.656 0 12-5.344 12-12v-24c0-6.656-5.344-12-12-12h-24c-6.656 0-12 5.344-12 12v24c0 6.7 5.3 12 12 12zm184-128h-24c-6.656 0-12 5.344-12 12v24c0 6.656 5.344 12 12 12h24c6.656 0 12-5.344 12-12v-24c0-6.7-5.3-12-12-12zm35.1-88h-352c-35.35 0-64 28.65-64 64v256c0 35.35 28.65 64 64 64h352c35.35 0 64-28.65 64-64V128c0-35.35-27.8-64-64-64zM592 384c0 8.822-7.178 16-16 16H224c-8.822 0-16-7.178-16-16V128c0-8.822 7.178-16 16-16h352c8.822 0 16 7.178 16 16v256zM284 152h-24c-6.656 0-12 5.344-12 12v24c0 6.656 5.344 12 12 12h24c6.656 0 12-5.344 12-12v-24c0-6.7-5.3-12-12-12zm196 168H320c-8.875 0-16 7.125-16 16v16c0 8.875 7.125 16 16 16h160c8.875 0 16-7.125 16-16v-16c0-8.9-7.1-16-16-16zm60-88h-24c-6.656 0-12 5.344-12 12v24c0 6.656 5.344 12 12 12h24c6.656 0 12-5.344 12-12v-24c0-6.7-5.3-12-12-12z"/></svg>