<svg xmlns="http://www.w3.org/2000/svg" viewBox="0 0 576 512"><!--! Font Awesome Pro 6.1.1 by @fontawesome - https://fontawesome.com License - https://fontawesome.com/license (Commercial License) Copyright 2022 Fonticons, Inc.--><path d="M276 136h24c6.656 0 12-5.344 12-12v-24c0-6.656-5.344-12-12-12h-24c-6.656 0-12 5.344-12 12v24c0 6.7 5.3 12 12 12zm80 0h24c6.656 0 12-5.344 12-12v-24c0-6.656-5.344-12-12-12h-24c-6.656 0-12 5.344-12 12v24c0 6.7 5.3 12 12 12zm-160 0h24c6.656 0 12-5.344 12-12v-24c0-6.656-5.344-12-12-12h-24c-6.656 0-12 5.344-12 12v24c0 6.7 5.3 12 12 12zm264-48h-24c-6.656 0-12 5.344-12 12v24c0 6.656 5.344 12 12 12h24c6.656 0 12-5.344 12-12v-24c0-6.66-5.3-12-12-12zm52-88H64C28.65 0 0 28.65 0 64v176c0 35.35 28.65 64 64 64h448c35.35 0 64-28.65 64-64V64c0-35.35-28.7-64-64-64zm16 240c0 8.8-7.2 16-16 16H64c-8.82 0-16-7.2-16-16V64c0-8.822 7.178-16 16-16h448c8.822 0 16 7.178 16 16v176zM140 88h-24c-6.656 0-12 5.344-12 12v24c0 6.656 5.344 12 12 12h24c6.656 0 12-5.344 12-12v-24c0-6.66-5.3-12-12-12zm260 88H176c-8.9 0-16 7.1-16 16v16c0 8.9 7.1 16 16 16h224c8.9 0 16-7.1 16-16v-16c0-8.9-7.1-16-16-16zm-25.6 183.7-86.4 93-86.41-93.06c-9.062-9.719-24.22-10.27-33.94-1.266-9.688 9.031-10.25 24.16-1.251 33.86l104 112.1C274.1 509.2 281.3 512 288 512s13.03-2.786 17.59-7.676l104-112.1c9-9.703 8.436-24.83-1.251-33.86C398.6 349.4 383.4 349.1 374.4 359.7z"/></svg>