<svg xmlns="http://www.w3.org/2000/svg" viewBox="0 0 512 512"><!--! Font Awesome Pro 6.1.1 by @fontawesome - https://fontawesome.com License - https://fontawesome.com/license (Commercial License) Copyright 2022 Fonticons, Inc.--><path d="m507.4 257.9-64-88c-4.5-6.2-11.7-9.9-19.4-9.9H144v-24c0-34.83 24.88-63.95 57.8-70.56C209.1 74.15 219.7 80 232 80h80c22.1 0 40-17.91 40-40S334.1 0 312 0h-80c-13.6 0-25.1 7.246-32.3 17.65C141.3 25.69 96 75.42 96 136v24h-8c-7.67 0-14.89 3.7-19.41 9.9l-64 88A23.9 23.9 0 0 0 0 272v55.1C0 341.2 10.75 352 24 352h208v112h-80c-13.2 0-24 10.8-24 24s10.8 24 24 24h208c13.25 0 24-10.75 24-24s-10.75-24-24-24h-80V352h208c13.25 0 24-10.75 24-24v-56c0-5.1-1.6-10-4.6-14.1zM464 304H48v-24.2l52.2-71.8h311.6l52.2 71.8V304z"/></svg>