<svg xmlns="http://www.w3.org/2000/svg" viewBox="0 0 576 512"><!--! Font Awesome Pro 6.1.1 by @fontawesome - https://fontawesome.com License - https://fontawesome.com/license (Commercial License) Copyright 2022 Fonticons, Inc.--><path d="M447.7 65.1c-2.3-.35-5-1.1-8.6-1.1-4.25 0-8.527 1.77-11.53 5.02a15.87 15.87 0 0 0-1.958 19.5c16.5 26.25 25.23 56.34 25.23 87.46-.25 53.25-26.74 102.6-71.24 132.4l-76.62 53.35v-20.12l44.01-36.12c3.875-4.125 4.983-10.13 2.858-15.26L342.8 273c33.88-19.25 56.94-55.25 56.94-97 0-40.75-22.06-76.12-54.56-95.75l5.151-11.39c2.375-5.5.982-11.87-3.518-15.1L287.9.007l-59.05 52.77c-4.5 4.25-5.861 10.59-3.611 16.09l5.203 11.32c-32.5 19.63-54.56 55.07-54.56 95.82 0 41.75 23.08 77.75 56.95 97L224.1 290.2c-1.2 5.2-.2 11 3.8 15.3l43.1 36.11v19.91l-75.8-53.42c-44.25-29.5-70.72-78.9-70.97-132.1 0-31.12 8.73-61.2 25.23-87.45 3.84-6.15 2.34-13.8-2.66-19.05-3-3.25-7.376-4.875-11.75-4.875-2.875 0-5.75.75-8.25 2.125C48.34 109.6 9.714 205.2 45.34 296c7 18 17.88 34.38 30.5 49l55.92 65.38a16.146 16.146 0 0 0 12.23 5.627c2.5 0 5.106-.645 7.481-1.895l79.25-42.25 29.26 20.37-47.09 32.75c-1.625-.375-3.125-1-4.1-1-13.25 0-23.97 10.75-23.97 24s10.72 23.1 23.97 23.1c12.12 0 21.74-9.126 23.36-20.75l40.6-28.25v29.91c-9.375 5.625-15.97 15.37-15.97 27.12 0 17.62 14.37 31.1 31.1 31.1 17.62 0 31.1-14.37 31.1-31.1 0-11.75-6.656-21.52-16.03-27.14v-30.12l40.87 28.48c1.625 11.63 11.23 20.75 23.35 20.75 13.25 0 23.98-10.74 23.98-23.99s-10.73-24-23.98-24c-1.875 0-3.375.625-5 1l-47.09-32.75 29.25-20.37 79.26 42.25c2.5 1.25 4.971 1.896 7.471 1.896 4.625 0 9.117-2.003 12.24-5.628l52.51-61.27c18.88-22 33.1-47.49 41.25-75.61C559.6 189.9 521.5 106.2 447.7 65.1zM151.5 359.8l-39.3-45.9c-10.25-12-17.75-23.87-22.25-35.5-8.125-20.5-11.12-41.5-9.625-61.88 10.62 53.25 41.87 100.6 87.5 131.1l2.75 1.875L151.5 359.8zM359.7 176c0 25.5-13.38 47.88-33.5 60.62l-8.803-19.64c-8.75-24.5-8.811-50.99-.061-75.61l11.24-24.62C347.3 129.8 359.7 151.4 359.7 176zm-143.9 0c0-24.62 12.37-46.25 31.25-59.25l11.27 24.63c8.75 24.63 8.747 51.11-.003 75.61L249.3 236.6c-20-12.7-33.5-35.1-33.5-60.6zm275.7 85.5c-4.875 18.88-15.38 37.88-31.25 56.38l-35.75 41.88-19.12-10.25 1.75-1.25c46.38-30.87 77.75-78.5 88.5-131.1 1.07 13.84-.13 29.04-4.13 44.34z"/></svg>