<svg xmlns="http://www.w3.org/2000/svg" viewBox="0 0 640 512"><!--! Font Awesome Pro 6.1.1 by @fontawesome - https://fontawesome.com License - https://fontawesome.com/license (Commercial License) Copyright 2022 Fonticons, Inc.--><path d="m273 216.4-38.7-21.3c2.873-3.375 5.873-6.25 8.373-8.5C283.2 152.7 298.4 82.66 249.8 32.38c-42.6-43.97-116.7-42.105-160.98-.81C12.77 101.1-17.44 201 9.908 294.4c24.37 83.75 92.12 88.38 109.6 88.38 22.25 0 70.62-8.25 97.62-56.5 13.87-24.75 17.12-53.25 9.498-80.25l24.87 13.25c2.75 1.5 4.498 4.125 4.498 7.25v221.5C256 501.3 266.8 512 280 512s23.1-10.74 23.1-23.1V266.5c.9-21.4-11-41.4-30.1-50.1zm-61.6-65.3c-11.4 9.8-49.9 42.4-31 107.5 11.5 39.13-18.62 67-43.5 73.75-33.5 9.125-68.87-10.38-77.99-41.63-27.25-93.75 3.5-173.3 67.74-228.6 27.37-23.5 67.37-19.25 89.74 4.875C239 91.48 237 128.1 211.4 151.1zM551.2 31.6c-45.16-41.32-118.5-43.19-161 .818-48.6 50.28-33.22 120.2 7.168 155.1 3 2.625 5.75 5.5 8.373 8.5l-38.75 20.38C347.9 225.1 335.1 245.1 335.1 266.5V488c0 13.3 11.6 24 24.9 24s23.99-10.74 23.99-23.1V266.5c0-3.125 1.748-5.75 4.498-7.25l24.87-13.25c-7.625 27-4.375 55.5 9.498 80.25 26.1 48.25 75.37 56.5 97.62 56.5 17.5 0 85.24-4.625 109.6-88.38C657.4 201 627.2 101.2 551.2 31.6zm29.9 259.1c-9.125 31.25-44.5 50.75-77.99 41.63-24.91-6.73-55.01-34.63-43.51-73.73 18.87-65.13-19.62-97.75-30.1-107.5-25.62-22.13-27.62-59.63-5-84.13 22.37-24.13 62.37-28.38 89.74-4.875C577.6 117.5 608.3 196.1 581.1 290.7z"/></svg>