<svg xmlns="http://www.w3.org/2000/svg" viewBox="0 0 576 512"><!--! Font Awesome Pro 6.1.1 by @fontawesome - https://fontawesome.com License - https://fontawesome.com/license (Commercial License) Copyright 2022 Fonticons, Inc.--><path d="M208 144c0 35.3-28.7 64-64 64s-64-28.7-64-64 28.7-64 64-64 64 28.7 64 64zm78 24c-11.4 68.1-70.6 120-142 120C64.47 288 0 223.5 0 144 0 64.47 64.47 0 144 0c71.4 0 130.6 51.9 142 120h66.7c3.8-22.7 23.5-40 47.3-40h96c26.5 0 48 21.5 48 48v32c0 26.5-21.5 48-48 48h-96c-23.8 0-43.5-17.3-47.3-40H286zM144 48c-53.02 0-96 42.98-96 96 0 53 42.98 96 96 96 53 0 96-43 96-96 0-53.02-43-96-96-96zm256 112h96v-32h-96v32zm-24 104c0-13.3 10.7-24 24-24s24 10.7 24 24v8h96c13.3 0 24 10.7 24 24s-10.7 24-24 24h-8v144c0 26.5-21.5 48-48 48H336c-26.5 0-48-21.5-48-48V320h-8c-13.3 0-24-10.7-24-24s10.7-24 24-24h96v-8zm-40 56v144h128V320H336zM32 336c0-8.8 7.16-16 16-16h128c26.5 0 48 21.5 48 48s-21.5 48-48 48h-16c0 17.7-14.3 32-32 32H64c-17.67 0-32-14.3-32-32v-80zm128 48h16c8.8 0 16-7.2 16-16s-7.2-16-16-16h-16v32zM0 488c0-13.3 10.75-24 24-24h176c13.3 0 24 10.7 24 24s-10.7 24-24 24H24c-13.25 0-24-10.7-24-24z"/></svg>