<svg xmlns="http://www.w3.org/2000/svg" viewBox="0 0 640 512"><!--! Font Awesome Pro 6.1.1 by @fontawesome - https://fontawesome.com License - https://fontawesome.com/license (Commercial License) Copyright 2022 Fonticons, Inc.--><path d="M608 0H345.5c-14.88 0-27.72 10.28-31.22 24.79 0 0-79.14 344.6-79.27 346.4l-88.34 88.29c-3.176 3.175-7.122 4.585-10.95 4.585-8.013 0-15.66-6.207-15.66-15.6l.04-129.165 47.12 30.13a15.863 15.863 0 0 0 8.773 2.619c8.295 0 16.1-6.355 16.1-15.37V271.3c0-8.953-7.768-15.32-16.11-15.32-2.956 0-5.985.8-8.765 2.566L120 288.8v-64.75c0-48.6-39.4-88.01-88-88.01l-8.9-.04C10.8 136 0 146.8 0 160s10.8 24 23.1 24H32c22.09 0 40 17.91 40 40v64.75L24.88 258.6c-2.79-1.8-5.83-2.6-8.8-2.6C7.751 256 0 262.5 0 271.4v65.16c0 8.973 7.72 15.42 16.08 15.42 2.939 0 6.03-.819 8.792-2.574L72 319.3v124c0 41.2 30.3 68.7 63.6 68.7 16.74 0 33.15-6.757 44.97-18.63l88.27-88.34c1.75-.125 346.3-79.28 346.3-79.28C629.7 322.4 640 309.4 640 294.5V31.99C640 14.31 625.7 0 608 0zm-16 281.8L288 352l187.1-187.1L358.3 48H592L475.1 164.9 592 281.8z"/></svg>