<svg xmlns="http://www.w3.org/2000/svg" viewBox="0 0 448 512"><!--! Font Awesome Pro 6.1.1 by @fontawesome - https://fontawesome.com License - https://fontawesome.com/license (Commercial License) Copyright 2022 Fonticons, Inc.--><path d="M224 32C100.3 32 0 96.47 0 176v80c0 123.7 100.3 224 224 224s224-100.3 224-224v-80c0-79.53-100.3-144-224-144zm160 144c0 8.8-7.2 16-16 16h-32c-8.8 0-16-7.2-16-16s7.2-16 16-16h32c8.8 0 16 7.2 16 16zm-91.3-67.3 16-16c6.25-6.25 16.38-6.25 22.62 0s6.25 16.38 0 22.62l-16 16C312.2 134.4 308.1 136 304 136s-8.188-1.562-11.31-4.688c-6.29-6.212-6.29-16.412.01-22.612zm0 112c6.25-6.25 16.38-6.25 22.62 0l16 16c6.25 6.25 6.25 16.38 0 22.62C328.2 262.4 324.1 264 320 264s-8.188-1.562-11.31-4.688l-16-16c-6.29-6.212-6.29-16.412.01-22.612zM208 80c0-8.84 7.2-16 16-16s16 7.156 16 16v24c0 8.844-7.156 16-16 16s-16-7.156-16-16V80zm16 69c30.93 0 56 12.09 56 27s-25.1 27-56 27-56-12.1-56-27 25.1-27 56-27zm16 99v24c0 8.8-7.2 16-16 16s-16-7.2-16-16v-24c0-8.844 7.156-16 16-16s16 7.2 16 16zM116.7 92.69c6.25-6.25 16.38-6.25 22.62 0l16 16c6.25 6.25 6.25 16.38 0 22.62C152.2 134.4 148.1 136 144 136s-8.2-1.6-11.3-4.7l-16-16c-6.3-6.2-6.3-16.36 0-22.61zm38.6 150.61-16 16c-3.1 3.1-7.2 4.7-11.3 4.7s-8.2-1.6-11.3-4.7c-6.25-6.25-6.25-16.38 0-22.62l16-16c6.25-6.25 16.38-6.25 22.62 0s6.28 16.42-.02 22.62zM80 160h32c8.8 0 16 7.2 16 16s-7.2 16-16 16H80c-8.84 0-16-7.2-16-16s7.16-16 16-16zm144 272c-93.91 0-170.7-73.99-175.5-166.7C89.5 298.6 152.8 320 224 320s134.5-21.42 175.5-54.71C394.7 358 317.9 432 224 432z"/></svg>