<svg xmlns="http://www.w3.org/2000/svg" viewBox="0 0 512 512"><!--! Font Awesome Pro 6.1.1 by @fontawesome - https://fontawesome.com License - https://fontawesome.com/license (Commercial License) Copyright 2022 Fonticons, Inc.--><path d="M508.6 127.1c-7 36.2-24.7 69.5-50.8 95.6l-91.2 91.4c-6 6-13 11.7-20.8 14.9-7.8 3.3-16.1 4.1-24.6 5-8.4 0-16.8-1.6-24.6-4.8-7.8-4.1-14.9-8-20.9-13.9l-28.8-28.8-205.3 218c-4.38 4.7-10.43 7.4-16.81 7.6-6.38.2-12.58-2.2-17.223-6.6C2.92 501.1.204 495.1.014 488.7c-.189-6.4 2.166-12.6 6.545-17.2L445 9.377c3.7-3.697 8.3-6.43 13.3-7.963 5-1.533 10.3-1.817 15.4-.83 5.1.989 9.9 3.22 14 6.499 4.1 3.277 6.4 7.507 9.4 12.307 14.5 33.94 18.5 71.44 11.5 107.71zm-84.9 62c16.5-16.4 28.6-36.6 35-58.9 6.5-22.3 7.1-45.86 1.9-68.47L447 75.42 279.9 251.4l29.9 29.9c1.5 1.5 3.3 1.8 5.2 3.5 1.1.8 4.1.3 6.2.3 2.1 0 4.2.5 6.1-.3 2-1.7 3.7-2 5.2-3.5l91.2-93.2v1z"/></svg>