<svg xmlns="http://www.w3.org/2000/svg" viewBox="0 0 576 512"><!--! Font Awesome Pro 6.1.1 by @fontawesome - https://fontawesome.com License - https://fontawesome.com/license (Commercial License) Copyright 2022 Fonticons, Inc.--><path d="M566.3 43.24 531.18 9.36c-12.92-12.46-34.07-12.46-46.1 0l-180.3 173.9c-6.521 6.288-6.525 16.74-.006 23.03l89.9 86.79c5.81 5.606 14.88 6.01 21.16.939l23.38-18.87c6.25-6 9.75-14.12 9.75-22.62V207.1l118.2-119.4C579.3 76.11 579.3 55.74 566.3 43.24zm-123 112.06c-6.256 6.25-16.36 6.25-22.62 0s-6.256-16.37 0-22.62 16.36-6.25 22.62 0 6.3 16.42 0 22.62zm64-64c-6.256 6.25-16.36 6.25-22.62 0-6.256-6.25-6.256-16.37 0-22.62s16.36-6.25 22.62 0c6.3 6.25 6.3 16.5 0 22.62zM390.4 335c-9.297-8.955-24.05-8.98-33.34-.012l-54.8 52.92c-50.84 49.05-118.6 76.06-190.8 76.06-9.965 0-19.89-.529-29.74-1.574l202.4-195.3c9.77-9.439 9.758-25.1-.027-34.53-9.193-8.864-23.893-8.864-33.193.136L4.888 469.9c-8.75 8.3-5.25 22.6 6.502 26.5C44.2 506.9 77.99 512 111.5 512c82.74 0 163.7-31.23 224.1-89.51l54.83-52.93c9.87-9.46 9.87-25.06-.03-34.56z"/></svg>