<svg xmlns="http://www.w3.org/2000/svg" viewBox="0 0 640 512"><!--! Font Awesome Pro 6.1.1 by @fontawesome - https://fontawesome.com License - https://fontawesome.com/license (Commercial License) Copyright 2022 Fonticons, Inc.--><path d="M528 352c-44.18 0-79.1 35.82-79.1 80s35.82 80 79.1 80c44.2 0 80-35.8 80-80s-35.8-80-80-80zm0 112c-17.64 0-32-14.36-32-32s14.36-32 32-32 32 14.36 32 32-14.4 32-32 32zm80-279.3C608 110.5 537.1 0 435.1 0c-95.81 0-87.21 84.52-165.7 145.6l-6.2 4.8c-9.9 7.7-48.7 39.5-48.7 102.4 0 20.8 5.585 40.58 15.23 57.94l-189.2 158.9A24.046 24.046 0 0 0 32 488c0 16.1 13.73 24 24.02 24 5.438 0 10.92-1.844 15.42-5.625l189.6-159.3c26.17 20.27 53.79 25.87 78.62 25.87 26.7 0 53.6-8.506 76.28-26.14l6.237-4.873c27.08-21.04 61.41-36.49 107.1-48.63C567.9 283.5 608 248.8 608 184.7zM392.6 304.1l-6.148 4.805c-13.51 10.51-29.69 16.06-46.8 16.06-68.71 0-77.22-59.5-77.22-71.69 0-.138-.011-.553-.011-1.211 0-6.97 1.244-41.25 30.1-63.69l6.365-4.928C387.5 114.5 371.9 48 435.1 48 494.15 48 560 117.66 560 184.9c-.1 83.5-73.6 46.4-167.4 119.2z"/></svg>