<svg xmlns="http://www.w3.org/2000/svg" viewBox="0 0 640 512"><!--! Font Awesome Pro 6.1.1 by @fontawesome - https://fontawesome.com License - https://fontawesome.com/license (Commercial License) Copyright 2022 Fonticons, Inc.--><path d="M608 184.7C608 110.5 537.1 0 435.1 0c-95.81 0-87.21 84.52-165.7 145.6l-6.2 4.8c-9.9 7.7-48.7 39.5-48.7 102.4 0 20.8 5.584 40.58 15.22 57.94l-189.2 158.9c-5.648 4.751-8.562 11.55-8.562 18.39C32 504.1 45.73 512 56.02 512c5.438 0 10.92-1.844 15.42-5.625l189.6-159.3c26.17 20.27 53.79 25.87 78.62 25.87 26.7 0 53.6-8.506 76.28-26.14l6.237-4.873c27.08-21.04 61.41-36.49 107.1-48.63C567.9 283.5 608 248.8 608 184.7zm-48.1.2c0 83.54-73.57 46.45-167.3 119.3l-6.148 4.805c-13.51 10.51-29.69 16.06-46.8 16.06-68.71 0-77.22-59.5-77.22-71.69 0-.138-.011-.553-.011-1.211 0-6.971 1.245-41.25 30.09-63.69l6.365-4.928C387.5 114.5 371.9 48 435.1 48c59 0 124.8 69.7 124.8 136.9z"/></svg>