<svg xmlns="http://www.w3.org/2000/svg" viewBox="0 0 448 512"><!--! Font Awesome Pro 6.1.1 by @fontawesome - https://fontawesome.com License - https://fontawesome.com/license (Commercial License) Copyright 2022 Fonticons, Inc.--><path d="M447.1 456c0 13.25-10.75 24-23.1 24h-64.9c-8.812 0-16.94-4.844-21.12-12.59L171.8 158 46.2 465c-3.79 9.4-12.76 15-22.2 15-3.031 0-6.125-.563-9.094-1.781-12.25-5.031-18.12-19.03-13.12-31.31L142.3 103.4 129.7 80H24C10.75 80 .9 69.25.9 56S10.75 32 24 32h119.1c8.812 0 16.94 4.844 21.12 12.59L374.3 432h49.69c13.21 0 23.11 10.8 23.11 24z"/></svg>