<svg xmlns="http://www.w3.org/2000/svg" viewBox="0 0 512 512"><!--! Font Awesome Pro 6.1.1 by @fontawesome - https://fontawesome.com License - https://fontawesome.com/license (Commercial License) Copyright 2022 Fonticons, Inc.--><path d="M320 512c35.38 0 64.01-28.62 64.01-64h-128c-.01 35.4 28.69 64 63.99 64zm24-286.2V120C344 53.83 290.2 0 224 0H120C53.84 0 0 53.83 0 120v392h48V120c0-39.7 32.31-72 72-72h104c39.69 0 72 32.3 72 72v105.8c-86.61 10.7-155.6 77.66-167.8 163.1-1.9 14.3 9.7 27.1 24.2 27.1h335.2c14.53 0 26.16-12.81 24.19-27.16C499.6 303.4 430.7 236.5 344 225.8zM182.6 368c9.878-27.52 28.04-51.16 51.52-68.06 24.71-17.79 54.98-26.15 85.43-26.15h.934c30.46 0 60.75 8.377 85.47 26.18C429.4 316.9 447.6 340.5 457.4 368H182.6z"/></svg>