<svg xmlns="http://www.w3.org/2000/svg" viewBox="0 0 512 512"><!--! Font Awesome Pro 6.1.1 by @fontawesome - https://fontawesome.com License - https://fontawesome.com/license (Commercial License) Copyright 2022 Fonticons, Inc.--><path d="M392.7 278.6a56.185 56.185 0 0 0 31.44 9.616c21.33 0 55.94-16.48 55.94-55.89 0-10.89-3.168-21.84-9.623-31.41L392.7 278.6zM512 99.62c0-19.1-15.46-35.24-35.22-35.24H391.8l-35.88-35.84C337.33 9.68 312.6 0 287.72 0c-19.61 0-39.32 6.016-56.18 18.29C205.9 36.77 192 65.84 192 95.61c0 14.9 3.486 29.96 10.74 43.96l-99.75 99.67a24.05 24.05 0 0 0-7.01 16.96c0 2.173.297 4.364.907 6.514L154.5 464H24c-13.25 0-24 10.7-24 24s10.75 24 24 24h336c13.25 0 24-10.75 24-24 0-13.26-10.75-24-24-24H204.4L147 263.2l86.13-86.05 22.88 22.86v84.93c0 19.59 15.99 35.19 35.28 35.19 9.161 0 18.18-3.581 24.85-10.33l185.5-185.3c6.76-6.7 10.36-15.7 10.36-24.88zM304 254.1v-73.9l-49.88-49.83a47.835 47.835 0 0 1-13.64-33.49c0-37.53 34.4-47.89 47.98-47.89 12.08 0 24.18 4.528 33.53 13.57l49.88 49.83h74L304 254.1z"/></svg>