<svg xmlns="http://www.w3.org/2000/svg" viewBox="0 0 448 512"><!--! Font Awesome Pro 6.1.1 by @fontawesome - https://fontawesome.com License - https://fontawesome.com/license (Commercial License) Copyright 2022 Fonticons, Inc.--><path d="M445.5 237.8 368 21.8C363.2 8.625 352.4 0 340.4 0H120.6c-11.4 0-21.88 7.75-27 19.88l-90.38 216C-6.782 259.8 7.719 288 30.22 288h89.13c-24.63 35.13-39.38 78.5-39.38 113.6 0 32.62 12.75 64.13 36 88.62C128.1 504.1 147.7 512 167.5 512h113c19.75 0 38.5-7.875 51.5-21.75 23.25-24.5 36-56 36-88.62 0-35.13-14.75-78.5-39.38-113.6h89.13c21.75-.03 36.35-26.43 27.75-50.23zM319.1 401.6c0 21.25-8.75 40.62-22.88 55.62-3.52 4.58-9.52 6.78-15.72 6.78h-113c-6.25 0-12.38-2.25-16.63-6.75-14.13-15-22.88-34.37-22.88-55.62 0-34.75 22.75-87.38 55.63-113.6h80.63C297.2 314.2 319.1 366.9 319.1 401.6zM53.47 240l80.38-192h192.6l68.88 192H53.47z"/></svg>