<svg xmlns="http://www.w3.org/2000/svg" viewBox="0 0 576 512"><!--! Font Awesome Pro 6.1.1 by @fontawesome - https://fontawesome.com License - https://fontawesome.com/license (Commercial License) Copyright 2022 Fonticons, Inc.--><path d="M311.1 168c0 13.3-9.8 24-24 24-12.4 0-24-10.7-24-24V24c0-13.25 11.6-24 24-24 14.2 0 24 10.75 24 24v144zm-152 168c0-26.5 22.4-48 48-48h160c27.4 0 48 21.5 48 48v16h32.4c19.6 0 37.3 11.9 44.6 30.2l34.3 85.9c8.5 21-7 43.9-29.7 43.9H79.26c-22.64 0-38.12-22.9-29.71-43.9l34.38-85.9c7.29-18.3 24.97-30.2 44.57-30.2h30.6v-16zm314 128-25.6-64h-319l-25.6 64h370.2zM4.266 138.3c7.544-10.9 22.494-13.6 33.394-6l104.04 72c10.9 7.5 13.6 22.5 6 33.4-7.5 10.9-22.5 13.6-33.4 6l-103.96-72c-10.9-7.5-13.619-22.5-6.074-33.4zm534.034-6c10.9-7.6 25.9-4.9 33.4 6 7.6 10.9 4.9 25.9-6 33.4l-104 72c-10.9 7.6-25.9 4.9-33.4-6-7.6-10.9-4.9-25.9 6-33.4l104-72z"/></svg>