<svg xmlns="http://www.w3.org/2000/svg" viewBox="0 0 640 512"><!--! Font Awesome Pro 6.1.1 by @fontawesome - https://fontawesome.com License - https://fontawesome.com/license (Commercial License) Copyright 2022 Fonticons, Inc.--><path d="M48 368h176v48H48c-26.51 0-48-21.5-48-48V48C0 21.49 21.49 0 48 0h156.1c12.7 0 25 5.057 34 14.06l67.8 67.88c9 9 14.1 21.26 14.1 33.96V208h-48v-80h-48c-17.7 0-32-14.3-32-32V48H48v320zm264-112h240c22.1 0 40 17.9 40 40v168h24c13.3 0 24 10.7 24 24s-10.7 24-24 24H248c-13.3 0-24-10.7-24-24s10.7-24 24-24h24V296c0-22.1 17.9-40 40-40zm8 48v160h224V304H320z"/></svg>