<svg xmlns="http://www.w3.org/2000/svg" viewBox="0 0 640 512"><!--! Font Awesome Pro 6.1.1 by @fontawesome - https://fontawesome.com License - https://fontawesome.com/license (Commercial License) Copyright 2022 Fonticons, Inc.--><path d="M112 88c0-4.406 3.594-8 8-8h400c4.406 0 8 3.594 8 8v232h48V88c0-30.87-25.1-56-56-56H120c-30.87 0-56 25.13-56 56v232h48V88zm504 264H24c-13.25 0-24 10.8-24 24v16c0 48.5 39.47 88 88 88h464c48.53 0 88-39.47 88-88v-16c0-13.2-10.7-24-24-24zm-64 80H88c-19.31 0-35.48-13.77-39.2-32h542.4c-3.7 18.2-19.9 32-39.2 32zM304 320h32c8.801 0 16-7.201 16-16v-48.9h48c8.801 0 16-7.202 16-15.1v-32.9c0-7.9-7.2-15.1-16-15.1h-48v-48c0-8.8-7.2-16-16-16h-32c-8.8 0-16 7.2-16 16v48h-48c-8.8 0-16 7.2-16 15.1V240c0 8.797 7.199 15.1 16 15.1h48v48c0 9.7 7.2 16.9 16 16.9z"/></svg>