<svg xmlns="http://www.w3.org/2000/svg" viewBox="0 0 640 512"><!--! Font Awesome Pro 6.1.1 by @fontawesome - https://fontawesome.com License - https://fontawesome.com/license (Commercial License) Copyright 2022 Fonticons, Inc.--><path d="M112 64c0-8.822 7.178-16 16-16h320c8.822 0 16 7.178 16 16v32h48V64c0-35.35-28.65-64-64-64H128C92.65 0 64 28.65 64 64v256H16c-8.836 0-16 7.2-16 16 0 26.5 21.49 48 48 48h304v-64H112V64zm464 64H448c-35.35 0-64 28.65-64 64v256c0 35.35 28.65 64 64 64h128c35.35 0 64-28.65 64-64V192c0-35.3-28.7-64-64-64zm16 320c0 8.822-7.178 16-16 16H448c-8.822 0-16-7.178-16-16V192c0-8.822 7.178-16 16-16h128c8.822 0 16 7.178 16 16v256z"/></svg>