<svg xmlns="http://www.w3.org/2000/svg" viewBox="0 0 640 512"><!--! Font Awesome Pro 6.1.1 by @fontawesome - https://fontawesome.com License - https://fontawesome.com/license (Commercial License) Copyright 2022 Fonticons, Inc.--><path d="M64 146.4V320h48V184l-48-37.6zM88 432c-19.31 0-35.48-13.77-39.2-32h338.8l-61.3-48H24c-13.25 0-24 10.8-24 24v16c0 48.5 39.47 88 88 88h401.6l-61.25-48H88zm552-56c0-13.25-10.75-24-24-24H481.4l-347-272H520c4.406 0 8 3.594 8 8v232h48V88c0-30.87-25.1-56-56-56H120c-12.3 0-23.62 4.19-32.86 10.1L38.81 5.111C28.34-3.061 13.32-1.249 5.12 9.189-3.051 19.63-1.234 34.72 9.188 42.89l591.1 463.1C605.6 510.3 610.8 512 615.1 512c7.125 0 14.17-3.159 18.9-9.19 8.172-10.44 6.354-25.53-4.068-33.7l-18.08-14.17C629.4 439 640 416.9 640 392v-16zm-65.8 48.7L542.6 400h48.56c-2.06 10.4-8.46 18.1-16.96 24.7z"/></svg>