<svg xmlns="http://www.w3.org/2000/svg" viewBox="0 0 640 512"><!--! Font Awesome Pro 6.1.1 by @fontawesome - https://fontawesome.com License - https://fontawesome.com/license (Commercial License) Copyright 2022 Fonticons, Inc.--><path d="M528 88v232h48V88c0-30.87-25.1-56-56-56H384v48h136c4.4 0 8 3.59 8 8zM223 199c-9.375 9.375-9.375 24.56 0 33.94l80 80c9.375 9.375 24.56 9.375 33.94 0l80-80c9.375-9.375 9.375-24.56 0-33.94s-24.56-9.375-33.94 0l-39 39.1V56c0-13.25-10.75-24-23.1-24S296 42.75 296 56v182.1L256.1 199c-3.8-4.7-9.9-7-16.1-7s-12.3 2.3-17 7zm393 153H24c-13.25 0-24 10.8-24 24v16c0 48.5 39.47 88 88 88h464c48.53 0 88-39.47 88-88v-16c0-13.2-10.7-24-24-24zm-64 80H88c-19.31 0-35.48-13.77-39.2-32h542.4c-3.7 18.2-19.9 32-39.2 32zM112 88c0-4.406 3.594-8 8-8h129.5V32H120c-30.87 0-56 25.13-56 56v232h48V88z"/></svg>