<svg xmlns="http://www.w3.org/2000/svg" viewBox="0 0 384 512"><!--! Font Awesome Pro 6.1.1 by @fontawesome - https://fontawesome.com License - https://fontawesome.com/license (Commercial License) Copyright 2022 Fonticons, Inc.--><path d="M144 32c13.3 0 24 10.75 24 24v41.49c7.9-.99 15.9-1.49 24-1.49s16.1.5 24 1.49V56c0-13.25 10.7-24 24-24s24 10.75 24 24v53.1c58.9 24.7 103.2 76 116.2 140.5 2.6 13-5.8 25.7-18.8 28.3-13 2.7-25.6-5.7-28.3-18.7-8.3-41-34-75.6-69.1-95.9V264c0 13.3-10.7 24-24 24s-24-10.7-24-24V145.1c-7.8-.4-15.8-1.1-24-1.1s-16.2.7-24 1.1V264c0 13.3-10.7 24-24 24s-24-10.7-24-24V163.3C76.96 188.2 48 234.7 48 288c0 79.5 64.5 144 144 144h168c13.3 0 24 10.7 24 24s-10.7 24-24 24H24c-13.25 0-24-10.7-24-24s10.75-24 24-24h41C25.14 396.8 0 345.3 0 288c0-80.6 49.64-149.6 120-178.9V56c0-13.25 10.7-24 24-24z"/></svg>