<svg xmlns="http://www.w3.org/2000/svg" viewBox="0 0 576 512"><!--! Font Awesome Pro 6.1.1 by @fontawesome - https://fontawesome.com License - https://fontawesome.com/license (Commercial License) Copyright 2022 Fonticons, Inc.--><path d="m281.4 25.36-26.1 9.62c-8.9 3.3-16.4 9.06-21.8 16.33C127.2 64.47 48 115.3 48 176c0 70.7 107.5 128 240 128s240-57.3 240-128c0-37.9-30.9-72-80.9-95.41l.9-.59c0-20.08-12.5-38.05-31.3-45.02l-26.1-9.62-5.6-15.12C496.4 34.58 576 99.61 576 176c0 97.2-128.9 176-288 176-14.9 0-29.6-.7-43.9-2.9 7.7 16.2 11.9 33.3 11.9 51.1 0 61.7-50.1 111.8-111.8 111.8H56c-13.25 0-24-10.7-24-24s10.75-24 24-24h88.2c35.2 0 63.8-28.6 63.8-63.8 0-24.9-14.5-47.5-37.1-58l-44.3-20.4C50.2 290.1 0 236.6 0 176 0 78.8 128.9 0 288 0l2.7.008-9.3 25.352zm84.3 24.9 39.9 14.73C411.8 67.32 416 73.31 416 80c0 6.7-4.2 12.68-10.4 15.01l-39.9 14.69-14.7 39.9c-2.3 6.2-8.3 10.4-15 10.4-6.7 0-12.7-4.2-15.9-10.4l-13.8-39.9-39.9-14.69C260.2 92.68 256 86.7 256 80c0-6.69 4.2-12.68 10.4-15.01l39.9-14.73 13.8-39.81C323.3 4.169 329.3 0 336 0c6.7 0 12.7 4.169 15 10.45l14.7 39.81zM496 352c6.7 0 12.7 4.2 15 10.4l14.7 39.9 39.9 13.8c6.2 3.2 10.4 9.2 10.4 15.9 0 6.7-4.2 12.7-10.4 15l-39.9 14.7-14.7 39.9c-2.3 6.2-8.3 10.4-15 10.4-6.7 0-12.7-4.2-15.9-10.4l-13.8-39.9-39.9-14.7c-6.2-2.3-10.4-8.3-10.4-15 0-6.7 4.2-12.7 10.4-15.9l39.9-13.8 13.8-39.9c3.2-6.2 9.2-10.4 15.9-10.4z"/></svg>