<svg xmlns="http://www.w3.org/2000/svg" viewBox="0 0 512 512"><!--! Font Awesome Pro 6.1.1 by @fontawesome - https://fontawesome.com License - https://fontawesome.com/license (Commercial License) Copyright 2022 Fonticons, Inc.--><path d="M512 188c-.156-13.91-7.391-26.52-19.28-33.7-.031 0 .031 0 0 0L472.1 142l7.25-65.28c1.375-12.09-2.781-24-11.38-32.59s-20.44-12.97-32.63-11.47l-65.33 7.281-12.34-20.69C350.5 7.344 337.9.156 324 0c-13.86-.719-26.59 6.75-33.98 18.41l-32.59 51.22c-.406-.438-.828-.844-1.25-1.281C246.3 58.75 232.3 55 218.9 58.34c-2.8.47-3.8 1.22-5.6 2.16l-6.6 3.56-27.86-31.5c-15.04-18.94-47.74-18.03-61.34-.94L88.92 64.03l-6.5-3.53c-1.76-.94-3.64-1.66-5.59-2.16-13.47-3.37-27.53.38-37.49 10.16-9.93 9.72-14.03 23.63-11.04 36.7l26.05 126.4-15.72 6.8c-14.6 6.2-24.07 20.5-24.13 36.4-.06 15.9 9.33 30.3 23.64 36.5l88.5 40.14-119.6 119.6C2.344 475.7 0 481.9 0 487.1a23.93 23.93 0 0 0 7.031 16.97C11.72 509.7 17.86 511.1 24 511.1s12.28-2.344 16.97-7.031l119.6-119.6 39.99 88.25a39.854 39.854 0 0 0 36.53 23.91c15.83-.062 30.25-9.5 36.48-24.03l6.797-15.78 125.1 25.94c13.52 3.156 27.45-1.031 37.17-10.97 9.719-9.969 13.52-23.97 10.14-37.47a24.1 24.1 0 0 0-2.172-5.625l-3.531-6.5 31.48-27.84c9.469-7.562 14.91-18.88 14.91-31.03 0-12.12-5.438-23.44-13.98-30.25l-32.44-28.62 3.578-6.656a23.584 23.584 0 0 0 2.156-5.562c3.359-13.41-.39-27.38-10.02-37.28a31.487 31.487 0 0 0-1.266-1.25L493.5 222c11.8-7.4 18.7-20.1 18.5-34zm-172.2 74.9c-9.969 6.344-13.84 18.97-9.141 29.78 4.688 10.81 16.45 16.62 27.98 13.72l39.66-10.19-1.641 3.062c-5.297 9.812-3.125 21.97 5.234 29.38l40.25 35.5-40.25 35.53c-8.375 7.406-10.53 19.59-5.219 29.44l2.125 3.906-127.9-26.34c-11.2-2.375-22.39 3.531-26.89 14l-7.172 16.66-37.27-82.25C198.7 353.2 197.3 351.6 196 349.9l116.1-116.1c9.375-9.375 9.375-24.56 0-33.94s-24.56-9.375-33.94 0L162.1 316c-1.629-1.336-3.252-2.703-5.176-3.574L74.63 275.1l16.69-7.188c10.44-4.5 16.28-15.72 13.98-26.88L78.94 113.2l3.922 2.094c9.859 5.406 22 3.156 29.41-5.188l35.52-40.25 35.56 40.25c7.375 8.312 19.53 10.53 29.36 5.219l3.016-1.625-10.128 39.7c-2.922 11.44 2.891 23.31 13.72 28 10.78 4.8 23.38.8 29.78-9.2l74.3-116.8 13.34 22.38c4.812 8.062 13.97 12.56 23.27 11.53l70.53-7.875-7.844 70.56a23.998 23.998 0 0 0 11.56 23.25l22.34 13.38L339.8 262.9z"/></svg>