<svg xmlns="http://www.w3.org/2000/svg" viewBox="0 0 512 512"><!--! Font Awesome Pro 6.1.1 by @fontawesome - https://fontawesome.com License - https://fontawesome.com/license (Commercial License) Copyright 2022 Fonticons, Inc.--><path d="M486.2 39.98c-2.4-5.31-7.4-7.98-12.4-7.98-4.744 0-9.547 2.381-12.3 7.156-24.99 43.27-70.11 65.15-115.9 65.15-11.18 0-22.41-1.304-33.39-3.917-12.89-3.066-26.35-4.527-40.18-4.527C174.8 95.86 96 174.8 96 272c0 8.561.818 16.91 1.1 25.14C17.55 365.73.3 447.64-.43 451.24c-2.609 13 5.828 25.66 18.83 28.25 2.49.31 4.07.51 5.63.51 11.2 0 21.22-7.875 23.51-19.28.135-.672 13.24-57.63 66.44-111.6 28.6 58.5 88.53 98.88 158 98.88 22.87 0 44.65-4.518 64.69-12.46C441.9 400.7 512 293.2 512 165.4c0-43.5-9.3-88.64-25.8-125.42zM321.6 389.1l-1.316.435-1.289.51C303.8 396.9 287.1 399.1 272 400c-70.58 0-128-57.42-128-128s57.43-128 128-128c10.67 0 20.44 1.039 29.05 3.086a192.439 192.439 0 0 0 44.5 5.221c42.61 0 82.12-13.72 113.5-38.32C462.3 130.9 464 148.4 464 165.4c0 106.2-57.2 196.4-142.4 223.7zm-18.5-181.3-7.188 7.188-7.188-7.188c-18.34-18.55-47.92-21.57-67.92-4.898-22.92 19.17-24.17 53.55-3.646 74.28l70.63 71.36c4.584 4.582 11.88 4.582 16.46 0l70.63-71.36c20.52-20.73 19.27-55.11-3.75-74.28C351.2 186.3 321.4 189.3 303.1 207.8z"/></svg>