<svg xmlns="http://www.w3.org/2000/svg" viewBox="0 0 512 512"><!--! Font Awesome Pro 6.1.1 by @fontawesome - https://fontawesome.com License - https://fontawesome.com/license (Commercial License) Copyright 2022 Fonticons, Inc.--><path d="M486.2 39.98c-2.4-5.31-7.4-7.98-12.4-7.98-4.744 0-9.547 2.381-12.3 7.157-24.99 43.27-70.11 65.15-115.9 65.15-11.18 0-22.4-1.304-33.39-3.917-12.89-3.067-26.35-4.481-40.18-4.481-97.2 0-176 78.89-176 176.1 0 8.823.857 17.43 2.111 25.91-79.4 69.13-97.38 152.1-97.65 153.4-2.594 12.97 5.797 25.53 18.73 28.19 1.609.291 3.219.491 4.799.491 11.14 0 21.14-7.844 23.5-19.16.86-4.149 13.51-60.14 65.91-112.9 28.38 59.12 88.63 100 158.6 100 22.87 0 44.65-4.517 64.69-12.46C441.9 400.7 512 293.3 512 165.4c0-43.5-9.3-88.64-25.8-125.42zM321.6 389.1l-1.316.436-1.289.51c-15.19 6.017-31.03 9.078-47.03 9.097-55.15 0-101.8-35.26-119.8-84.27 41.54-28.86 98.73-52.64 177.1-59.84 13.2-1.219 22.92-12.88 21.73-26.1-1.219-13.19-13.25-22.88-26.08-21.72-76.92 6.997-135.6 28.72-181.1 56.24 4.057-66.96 59.28-120.3 127.3-120.3 10.67 0 20.44 1.04 29.05 3.086a192.439 192.439 0 0 0 44.5 5.221c42.61 0 82.12-13.73 113.5-38.33C462.3 130.9 464 148.4 464 165.4c0 106.2-57.2 196.4-142.4 223.7z"/></svg>