<svg xmlns="http://www.w3.org/2000/svg" viewBox="0 0 576 512"><!--! Font Awesome Pro 6.1.1 by @fontawesome - https://fontawesome.com License - https://fontawesome.com/license (Commercial License) Copyright 2022 Fonticons, Inc.--><path d="M573.1 102.8c-5.312-24.62-17.78-46.92-35.31-63.67-17.47-18.36-39.72-30.88-64.34-36.17-22.56-4.889-45.03-3.607-66.69 3.734-13.65 4.625-27.69 5.562-40.34 2.719a109.721 109.721 0 0 0-31-2.484C291.8 9.678 254.2 37.44 237.3 79.35c-.4 1.19-1.2 2.31-1.8 3.47-10.6-8.12-19.9-18.97-26.4-32.66-6.756-14.12-16.79-26.72-30.68-36.05C163.9 4.337 147.4.184 131.2 1.436c-17.1.397-32.3 6.205-46.04 17.414-13.13 10.72-22.15 24.28-27.79 39.03-6.13 16.03-15.45 29.43-27.23 38.87-5.34 4.283-10.21 9.412-14.43 15.44-18.43 26.33-20.01 60.79-8.064 89.38 15.27 36.55-.5 82.61 27.35 111.9 59.72 62.79 32.27 80.13 56.61 111.1 3.625 4.609 8.41 8.562 13.76 12.13l-34.33 34.33c-9.375 9.375-9.375 24.56 0 33.94C75.72 509.7 81.84 512 87.1 512s12.28-2.344 16.97-7.031l63.58-63.58C177.8 445.6 187.1 448 198.3 448c75.37 0 96.22-11.62 115.7-26.84 9.811-7.656 18.28-14.28 68.12-14.28 36.81 0 60.59-22.73 79.72-40.1 11.59-11.11 22.56-21.59 34.1-26.59 41.81-16.84 69.36-54.42 72.15-98.17.688-10.3-.02-20.79-2.302-31.04-2.875-12.88-1.938-26.89 2.688-40.53 8.224-22.55 8.624-45.05 4.624-67.65zm-49.2 51.3c-7.469 21.97-8.875 44.92-4.094 66.39 1.281 5.828 1.75 11.7 1.406 17.47-1.625 25.14-17.84 46.9-42.34 56.76-21 8.469-36.53 23.31-50.25 36.42-17.97 17.17-29.81 27.7-46.53 27.7-61.66 0-79.37 10.14-97.69 24.48-9.764 7.635-20.42 15.41-74.3 16.44l142.6-142.6h87.28c13.25 0 24-10.75 24-24s-10.75-24-24-24h-39.28l64.25-64.25c9.375-9.375 9.375-24.56 0-33.94s-24.56-9.375-33.94 0l-111 111V185.2c0-13.25-10.75-24-23.1-24s-24 10.75-24 24v84.84L176.3 365.7c1.6-53.1 9.5-64.1 17.3-74.2 14.25-18.53 24.31-36.36 24.31-97.23 0-16.8 10.5-28.69 27.65-46.72 13.14-13.75 27.94-29.35 36.34-50.33 9.875-24.58 31.56-40.84 56.59-42.44a63.154 63.154 0 0 1 3.844-.125c4.5 0 9.062.516 13.56 1.531 21.41 4.812 44.31 3.391 66.31-4.109 13.34-4.547 27.16-5.281 41.13-2.266 15.16 3.281 28.9 11.02 40.5 23.14 11.34 10.88 19.06 24.64 22.34 39.83C529.2 126.9 528.4 140.8 523.9 154.1z"/></svg>