<svg xmlns="http://www.w3.org/2000/svg" viewBox="0 0 512 512"><!--! Font Awesome Pro 6.1.1 by @fontawesome - https://fontawesome.com License - https://fontawesome.com/license (Commercial License) Copyright 2022 Fonticons, Inc.--><path d="M480.3 144.7a72.834 72.834 0 0 1-1.594-1.062c-1.922-1.25-3.859-2.5-5.797-3.656 10.78-44.72-7.344-70.48-19.55-82.11-.016-.031 0 0 0 0-11.98-12.22-37.56-29.33-81.28-18.73-1.391-2.312-2.953-4.75-4.719-7.406-12.3-17.72-31.11-29.12-51.61-31.34C295.5-1.594 276 4.875 260.8 19.06c-8.344 7.75-13.89 16.84-19.11 25.41-3.59 4.28-5.29 8.62-7.89 13.03-15.89-9.375-34.19-12.69-51.7-9.125-20.7 4.215-38.5 17.845-48.9 37.375-13.7 25.85-12.2 52.45-9.4 75.45-9.1-.6-18.5.9-27.03 4.4-17.38 7.2-30.35 22.3-35.64 41.8-3.844 14.59-4.156 31.22-.89 45.44 2.296 10.22 5.921 19.38 9.437 28.22 2.453 6.14 4.953 12.34 6.713 18.04 2.547 9.094 1.438 12.12-.828 18.38-7.672 23.25-5.625 48.47 5.734 70.97.806 1.59 1.986 2.951 3.125 4.328l-77.39 77.39c-9.375 9.375-9.375 24.56 0 33.94C11.72 509.7 17.86 512 23.1 512s12.28-2.344 16.97-7.031l77.34-77.33c1.35 1.117 2.664 2.285 4.229 3.084 22.55 11.47 47.84 13.53 73.92 4.875 3.359-1.25 6.578-2.406 15.92.219C218.7 437.5 224.9 440 231 442.5c8.828 3.5 17.95 7.125 28.06 9.375 6.672 1.562 13.7 2.312 20.78 2.312 8.375 0 16.86-1.062 24.97-3.219 19.27-5.25 34.42-18.22 41.61-35.56 3.547-8.594 5-17.81 4.391-27.09 23.06 2.812 49.61 4.344 75.45-9.406 19.52-10.38 33.13-28.19 37.34-48.88 3.578-17.53.266-35.84-9.125-51.78a514.725 514.725 0 0 0 13.72-8.219c7.969-4.875 17.02-10.41 24.66-18.66 14.25-15.28 20.91-34.84 18.73-55.06C509.4 175.8 497.1 157 480.3 144.7zm-22.6 74c-3.172 3.406-8.953 6.938-15.59 11-8.766 5.469-17.73 10.53-27.3 15.91l-8 4.531a24.028 24.028 0 0 0-11.73 16.47 24 24 0 0 0 4.984 19.56l10.31 12.5c5.484 6.781 7.688 14.5 6.203 21.75-1.375 6.812-5.828 12.38-12.86 16.09-12.77 6.781-27.5 6.594-48.59 3.938-7.219-.906-14.52-1.625-22.56-2.406l-16.2-1.625c-9.453-1.125-18.42 3.562-23.19 11.66-4.797 8.062-4.422 18.19.937 25.91l3.562 5.062c1.062 1.5 1.781 2.406 2.344 3.375 2.984 5.219 3.734 10.53 2.047 14.62-1.89 4.562-6.406 6.656-9.688 7.562-7.203 1.875-15.61 2.062-22.69.469-7.156-1.625-14.03-4.47-20.95-7.22-7.89-3.124-15.81-6.218-23.69-8.311-8.593-2.438-15.95-3.312-22.2-3.312-11.27 0-19 2.844-24.09 4.719-7.712 2.555-15.9 2.105-23.93.16l158.1-158.1c9.376-9.375 9.376-24.56 0-33.94s-24.56-9.375-33.94 0l-158 158c-1.89-8.06-2.251-16.39.565-24.86 2.516-6.844 7.781-21.09 1.109-44.91C120.5 279.2 117.4 271.2 114.3 263.3c-2.8-6.9-5.6-13.8-7.3-21-1.5-7-1.4-15.4.5-22.5.938-3.469 3.031-7.969 7.594-9.875 4.047-1.594 9.406-.906 14.75 2.125.956.55 1.756 1.25 3.156 2.25l5.141 3.625c7.75 5.375 17.88 5.719 25.92.906a23.946 23.946 0 0 0 11.61-23.16s-3.109-31.56-4.016-38.75C169 135.8 168.8 121.1 175.6 108.3c3.734-7.031 9.312-11.47 16.11-12.88 6.39-1.42 14.99.74 21.69 6.18l12.42 10.28c5.484 4.469 12.67 6.406 19.59 5.031a23.932 23.932 0 0 0 16.48-11.72l4.859-8.594c5.281-9.344 10.23-18.12 16.19-27.72 3.438-5.625 6.969-11.41 10.48-14.66 6.328-5.938 12.83-6.5 17.17-6.156 6.734.75 12.88 4.625 17.55 11.41 1.375 2.094 2.891 4.125 4.125 7.062 7.672 17.09 27.61 25.94 46.5 20.44 12.56-3.688 29.61-5.938 39.88 4.062a26.07 26.07 0 0 0 1.594 1.656c.266.25.547.5.828.75 9.844 10.38 7.61 27.28 3.86 39.94-5.423 18.75 3.39 38.69 21.14 46.63 2.25.906 4.202 2.375 6.202 3.688 0 0 .484.313.813.563 6.234 4.406 10.06 10.47 10.78 17.12.439 4.418-.161 10.918-6.161 17.318z"/></svg>