<svg xmlns="http://www.w3.org/2000/svg" viewBox="0 0 512 512"><!--! Font Awesome Pro 6.1.1 by @fontawesome - https://fontawesome.com License - https://fontawesome.com/license (Commercial License) Copyright 2022 Fonticons, Inc.--><path d="m504.3 238.4-112-104c-4.5-4.2-10.4-6.4-17.2-6.4a23.995 23.995 0 0 0-23.999 24l.001 80h-192l-.001-80a23.99 23.99 0 0 0-14.41-22c-2.191-1.3-5.491-2-8.691-2-5.9 0-11.8 2.2-16.3 6.4l-112 104c-9.781 9.094-9.781 26.09 0 35.19l112 104c4.5 4.21 10.4 6.41 16.3 6.41a23.995 23.995 0 0 0 23.999-24l.001-80h192l-.001 80a23.99 23.99 0 0 0 14.41 22c3.091 1.3 6.391 2 8.691 2 5.947 0 11.81-2.207 16.33-6.406l112-104c10.67-9.094 10.67-26.094.87-35.194z"/></svg>