<svg xmlns="http://www.w3.org/2000/svg" viewBox="0 0 448 512"><!--! Font Awesome Pro 6.1.1 by @fontawesome - https://fontawesome.com License - https://fontawesome.com/license (Commercial License) Copyright 2022 Fonticons, Inc.--><path d="M105.4 233.8c-6.27 6.2-9.4 14.4-9.4 22.6s3.13 16.4 9.4 22.6l150.4 135.9c30.9 27.9 80.2 6 80.2-35.6v-42.91h64c26.51 0 48-21.49 48-48v-64c0-26.51-21.49-48-48-48h-64V133.1c0-41.63-49.37-63.52-80.23-35.58L105.4 233.8zm182.6-9.4h112v64H288v89.37L150.6 256.4 288 135v89.4zM48 424V88c0-13.25-10.75-24-24-24S0 74.75 0 88v336c0 13.3 10.75 24 24 24s24-10.7 24-24z"/></svg>