<svg xmlns="http://www.w3.org/2000/svg" viewBox="0 0 448 512"><!--! Font Awesome Pro 6.1.1 by @fontawesome - https://fontawesome.com License - https://fontawesome.com/license (Commercial License) Copyright 2022 Fonticons, Inc.--><path d="M240 378.9V336h64c26.51 0 47.95-21.49 47.95-48v-64c-.05-26.5-21.45-48-47.95-48h-64v-43.3c0-41.63-49.37-63.52-80.23-35.58L9.375 233.4C3.125 239.6 0 247.8 0 256s3.125 16.38 9.375 22.62l150.4 135.9C190.7 442.4 240 420.5 240 378.9zM54.63 256 192 134.6V224h112v64H192v89.37L54.63 256zM448 424V88c0-13.25-10.7-24-24-24s-24 10.75-24 24v336c0 13.25 10.75 24 24 24s24-10.7 24-24z"/></svg>