<svg xmlns="http://www.w3.org/2000/svg" viewBox="0 0 640 512"><!--! Font Awesome Pro 6.1.1 by @fontawesome - https://fontawesome.com License - https://fontawesome.com/license (Commercial License) Copyright 2022 Fonticons, Inc.--><path d="M0 88c0-13.25 10.75-24 24-24s24 10.75 24 24v336c0 13.3-10.75 24-24 24S0 437.3 0 424V88zm272.1 272c0 9.5-5.7 18.2-14.4 22-8.8 3.8-19 2.1-25.9-4.4l-112.1-104c-10.3-9.5-10.3-25.7 0-35.2l112.1-104c6.9-6.5 17.1-8.2 25.9-5.3 8.7 4.7 14.4 13.4 14.4 22.9v80H616c13.3 0 24 10.8 24 24 0 13.3-10.7 24-24 24H272.1v80z"/></svg>