<svg xmlns="http://www.w3.org/2000/svg" viewBox="0 0 448 512"><!--! Font Awesome Pro 6.1.1 by @fontawesome - https://fontawesome.com License - https://fontawesome.com/license (Commercial License) Copyright 2022 Fonticons, Inc.--><path d="m46.53 222.1 336 144c3.07 1.3 6.27 1.9 9.47 1.9 9.312 0 18.16-5.438 22.06-14.53 5.219-12.19-.438-26.31-12.59-31.53L116.9 200 401.4 78.1c12.16-5.219 17.81-19.34 12.59-31.53-5.25-12.19-19.28-17.78-31.53-12.59l-336 144C37.72 181.7 32 190.4 32 200s5.72 18.3 14.53 22.1zM424 432H24c-13.25 0-24 10.8-24 24s10.75 24 24 24h400c13.25 0 24-10.75 24-24s-10.7-24-24-24z"/></svg>