<svg xmlns="http://www.w3.org/2000/svg" viewBox="0 0 640 512"><!--! Font Awesome Pro 6.1.1 by @fontawesome - https://fontawesome.com License - https://fontawesome.com/license (Commercial License) Copyright 2022 Fonticons, Inc.--><path d="M480 192c0-88.4-71.7-160-160-160s-160 71.6-160 160v160h320V192zm-48 112H208V192c0-61.9 50.2-112 112-112s112 50.1 112 112v112zM320 112c-44.2 0-80 35.9-80 80 0 8.8 7 16 16 16 8.1 0 16-7.2 16-16 0-26.5 21.4-48 48-48 8.1 0 16-7.2 16-16s-7.9-16-16-16zm229.4-4.9 48-31.13c10.9-7.36 13.8-22.24 6.4-33.28-7.3-11.04-22-14.02-33.2-6.66l-48 32c-10.9 7.36-13.8 22.24-6.4 33.27 7.3 11.1 22 14 33.2 5.8zM112 224c0-13.2-10.9-24-24-24H24c-13.12 0-24 10.8-24 24s10.88 24 24 24h64c13.1 0 24-10.8 24-24zm504-24h-64c-13.1 0-24 10.8-24 24s10.9 24 24 24h64c13.1 0 24-10.8 24-24s-10.9-24-24-24zM90.56 107.1c11.24 8.2 25.94 5.3 33.24-5.8 7.4-11.03 4.5-25.91-6.4-33.27l-47.96-32c-11.2-7.36-25.92-4.38-33.28 6.66-7.36 11.04-4.48 25.92 6.4 33.28l48 31.13zM512 384H128c-17.6 0-32 14.3-32 32v32c0 17.7 14.4 32 32 32h384c17.6 0 32-14.3 32-32v-32c0-17.7-14.4-32-32-32z"/></svg>