<svg xmlns="http://www.w3.org/2000/svg" viewBox="0 0 448 512"><!--! Font Awesome Pro 6.1.1 by @fontawesome - https://fontawesome.com License - https://fontawesome.com/license (Commercial License) Copyright 2022 Fonticons, Inc.--><path d="M224 112c-44.2 0-80 35.9-80 80 0 8.832 7.039 16 16 16s16-7.2 16-16c0-26.46 21.44-48 48-48 8.961 0 16-7.168 16-16s-7.9-16-16-16zm192 272H32c-17.6 0-32 14.34-32 32v32c0 17.66 14.4 32 32 32h384c17.6 0 32-14.34 32-32v-32c0-17.7-14.4-32-32-32zm-32-192c0-88.35-71.68-160-160-160S64 103.6 64 192v160h320V192zm-48 112H112V192c0-61.86 50.24-112 112-112s112 50.14 112 112v112z"/></svg>