<svg xmlns="http://www.w3.org/2000/svg" viewBox="0 0 640 512"><!--! Font Awesome Pro 6.1.1 by @fontawesome - https://fontawesome.com License - https://fontawesome.com/license (Commercial License) Copyright 2022 Fonticons, Inc.--><path d="M636.7 75.78c-6.75-11.38-21.47-15.19-32.87-8.438C539.6 105.3 433.5 127.1 320 127.1S100.4 104.42 36.2 66.45c-11.32-5.86-26.09-2.05-32.853 9.33-6.75 11.4-2.968 26.12 8.433 32.92 33.95 20 78.04 36.1 127.82 47.6l-22 72.3c-29.61.5-56.52 20.7-65.66 50.6-11.6 38.03 3.242 126.5 34.08 135.9 30.37 9.266 92.05-55.81 103.7-93.84 9.135-29.95-2.396-61.04-26.2-78.66L187 165.64c34.7 5.56 71.4 8.76 109 9.76v85.02c-27.9 9.922-47.1 36.29-47.1 67.59C248 367.8 287.9 448 320.1 448c31.76 0 71.89-80.24 71.89-120 0-31.3-20.1-57.67-47.1-67.59V175.4c37.56-1.027 74.34-4.18 109-9.734l23.48 76.96c-23.8 17.63-35.33 48.72-26.2 78.66 11.61 38.04 73.28 103.1 103.7 93.84 30.84-9.41 45.68-97.83 34.08-135.9-9.137-29.95-36.05-49.3-65.63-50.64L500.4 156.3c49.81-11.49 93.91-27.56 127.9-47.63 11.3-6.77 15.1-21.49 8.4-32.89zM143.8 307.3c-4.529 14.84-24.86 38.82-40.92 52.07-5.992-19.89-9.535-51.16-4.986-66.07 3.806-12.7 17.306-19.9 29.906-16 12.7 3.9 19.8 17.3 16 30zm398.3-14c4.549 14.91 1.006 46.18-4.986 66.07-16.06-13.24-36.39-37.22-40.92-52.07-3.861-12.66 3.293-26.1 15.95-29.96C524.8 273.4 538.3 280.6 542.1 293.3zm-222 96.4c-11.54-17.28-24.05-46.16-24.05-61.74 0-13.23 10.77-24 23.1-24 13.23 0 23.1 10.77 23.1 24 .85 15.54-10.75 44.44-22.15 61.74z"/></svg>