<svg xmlns="http://www.w3.org/2000/svg" viewBox="0 0 512 512"><!--! Font Awesome Pro 6.1.1 by @fontawesome - https://fontawesome.com License - https://fontawesome.com/license (Commercial License) Copyright 2022 Fonticons, Inc.--><path d="M320 447.1H192c0 35.38 28.62 64 63.1 64s64.9-27.7 64.9-64zM.319 379.7c-2.876 19.1 12.591 35.4 32.091 35.4h447.1c19.5 0 34.94-17.19 32.19-36.31-16.63-116.4-112.4-207.7-231.7-218.6V23.1c0-13.25-10.78-24-24.04-24s-23.97 10.75-23.97 24v137.1C112.7 172 16.95 263.3.319 379.7zM51.35 368c22.13-92.38 107-160 204.7-160s182.5 67.63 204.7 160H51.35z"/></svg>