<svg xmlns="http://www.w3.org/2000/svg" viewBox="0 0 640 512"><!--! Font Awesome Pro 6.1.1 by @fontawesome - https://fontawesome.com License - https://fontawesome.com/license (Commercial License) Copyright 2022 Fonticons, Inc.--><path d="M630.8 469.1 434.6 315.3c6.311-9.273 12.57-17.61 17.82-23.59 27.12-30.94 43.54-71.39 43.54-115.8 0-97.2-78.76-175.1-175.1-175.1C246.1.227 188.9 42.1 161.5 101.3L38.81 5.118C28.34-3.054 13.32-1.247 5.11 9.191c-8.172 10.44-6.349 25.53 4.073 33.7l591.1 463.1C605.6 510.3 610.8 512 615.1 512c7.125 0 14.17-3.159 18.9-9.19 9.1-10.41 7.2-25.51-3.2-33.71zm-234-183.4L200.2 131.6c15.9-45.66 59-83.41 118.9-83.6C390.6 48 448 105.4 448 175.1c0 30.97-11.24 60.86-31.64 84.13-6.16 7.87-12.86 15.87-19.56 26.47zM305.9 336h-33.22c-8.037-16.97-17.84-33.3-27.69-47.74L148.1 212.3c6.322 29.98 19.1 57.25 39.48 79.47 16.53 18.84 42.34 58.23 52.22 91.45l.094.781 127.3.003L305.9 336zm-65.8 118.3c0 6.297 1.875 12.43 5.344 17.68l17.14 25.69c5.25 7.875 17.17 14.28 26.64 14.28h61.66c9.438 0 21.36-6.401 26.61-14.28l17.08-25.68c2.938-4.438 5.348-12.37 5.348-17.7l.12-38.36H239.1l1 38.37z"/></svg>