<svg xmlns="http://www.w3.org/2000/svg" viewBox="0 0 640 512"><!--! Font Awesome Pro 6.1.1 by @fontawesome - https://fontawesome.com License - https://fontawesome.com/license (Commercial License) Copyright 2022 Fonticons, Inc.--><path d="m131.1 55.25-55.5-32c-7.35-4.5-16.6-4.63-24.22-.37-7.5 4.375-12.12 12.38-12.12 21 .125 8.75 4.875 16.75 12.38 20.88l55.5 32c7.36 4.54 16.66 4.64 24.26.37 7.5-4.375 12.12-12.38 12.12-21-.12-8.75-4.92-16.75-12.42-20.88zM521 100c4.125 0 8.25-1.125 12-3.25l55.38-32c11.25-6.75 14.88-21.25 8.375-32.5-6.5-11.38-21-15.38-32.38-9l-55.38 32c-9.5 5.375-14 16.5-11.25 27A24.048 24.048 0 0 0 521 100zM107.1 287.3l-55.5 32c-7.5 4.125-12.25 12.13-12.38 20.88 0 8.625 4.625 16.62 12.12 21 7.625 4.25 16.88 4.125 24.25-.375l55.5-32C142.3 322 145.1 307.5 139.5 296.3c-6.5-11.4-21-15.4-32.4-9zM112 192c0-13.25-10.75-24-24-24H24c-13.25 0-24 10.75-24 24s10.75 24 24 24h64c13.3 0 24-10.7 24-24zm128.2 262.4c0 6.297 1.886 12.43 5.355 17.68l17.08 25.69C267.8 505.6 279.8 512 289.2 512h61.67c9.438 0 21.36-6.395 26.61-14.27l17.02-25.69c2.938-4.438 5.419-12.36 5.419-17.69L400 415.1H240.1l.1 39.3zm348.2-135.1-55.5-32c-7.375-4.5-16.62-4.625-24.25-.375-7.5 4.375-12.12 12.38-12.12 21 .125 8.75 4.875 16.75 12.38 20.88l55.5 32c11.38 6.375 25.88 2.375 32.38-9C603.3 340.5 599.5 326 588.4 319.3zM320 0C218 .32 144 82.98 144 175.1c0 44.38 16.4 84.82 43.52 115.8 16.53 18.84 42.36 58.26 52.24 91.48.031.25.083.495.115.76l160.3.001c.03-.266.052-.495.083-.761 9.875-33.22 35.71-72.64 52.24-91.48C479.6 260.8 496 220.4 496 175.1 496 78.8 417.2.004 320 0zm96.4 260.1c-15.66 17.85-35.04 46.3-49.05 75.89h-94.61c-14.01-29.59-33.39-58.04-49.04-75.88C203.2 236.8 192 206.1 192 175.1c0-61.8 48.1-126.85 127.1-127.1C390.6 48 448 105.4 448 175.1c0 31-11.2 61.7-31.6 85zM616 168h-64c-13.25 0-24 10.75-24 24s10.75 24 24 24h64c13.25 0 24-10.75 24-24s-10.7-24-24-24zm-296 40c13.25 0 24-10.75 24-24v-80c0-13.25-10.78-24-24.03-24S296 90.75 296 104v80c0 13.3 10.8 24 24 24zm-.9 32c-16.8 0-31.1 14.3-31.1 32s14.33 32 32 32 32-14.3 32-32-14.3-32-32.9-32z"/></svg>