<svg xmlns="http://www.w3.org/2000/svg" viewBox="0 0 384 512"><!--! Font Awesome Pro 6.1.1 by @fontawesome - https://fontawesome.com License - https://fontawesome.com/license (Commercial License) Copyright 2022 Fonticons, Inc.--><path d="M192 0C90.02.32 16 82.98 16 175.1c0 44.38 16.4 84.82 43.52 115.8 16.53 18.84 42.36 58.26 52.24 91.48.031.25.083.495.115.76l160.3.001c.03-.266.052-.495.083-.761 9.875-33.22 35.71-72.64 52.24-91.48C351.6 260.8 368 220.4 368 175.1 368 78.8 289.2.004 192 0zm96.4 260.1c-15.66 17.85-35.04 46.3-49.05 75.89h-94.61c-14.01-29.59-33.39-58.04-49.04-75.88C75.24 236.8 64 206.1 64 175.1 64 113.3 112.1 48.25 191.1 48 262.6 48 320 105.4 320 175.1c0 31-11.2 61.7-31.6 85zM112.2 454.4c0 6.297 1.886 12.43 5.355 17.68l17.08 25.69C139.8 505.6 151.8 512 161.2 512h61.67c9.438 0 21.36-6.395 26.61-14.27l17.02-25.69c2.938-4.438 5.419-12.36 5.419-17.69L272 415.1H112l.2 39.3zM191.1 240c-16.8 0-31.1 14.3-31.1 32s14.33 32 32 32 32-14.3 32-32-14.3-32-32.9-32zm.9-32c13.25 0 24-10.75 24-24v-80c0-13.25-10.78-23.1-24.03-23.1S168 90.75 168 104v80c0 13.3 10.8 24 24 24z"/></svg>