<svg xmlns="http://www.w3.org/2000/svg" viewBox="0 0 384 512"><!--! Font Awesome Pro 6.1.1 by @fontawesome - https://fontawesome.com License - https://fontawesome.com/license (Commercial License) Copyright 2022 Fonticons, Inc.--><path d="M320 0H64C28.65 0 0 28.65 0 64v384c0 35.35 28.65 64 64 64h256c35.35 0 64-28.65 64-64V64c0-35.35-28.7-64-64-64zm16 448c0 8.837-7.163 16-16 16H214.4c-3.3-9.6-12.3-16-22.4-16s-19.12 6.375-22.38 16H64c-8.837 0-16-7.163-16-16V64c0-8.837 7.163-16 16-16h105.6c3.3 9.62 12.3 16 22.4 16s19.12-6.375 22.38-16H320c8.837 0 16 7.163 16 16v384zM240 95.1h-96c-26.4 0-48 21.6-48 48v223.1c0 26.4 21.6 48 48 48h96c26.4 0 48-21.6 48-48V143.1c0-25.5-21.6-48-48-48zm0 272.9h-96v-96h96v96z"/></svg>