<svg xmlns="http://www.w3.org/2000/svg" viewBox="0 0 384 512"><!--! Font Awesome Pro 6.1.1 by @fontawesome - https://fontawesome.com License - https://fontawesome.com/license (Commercial License) Copyright 2022 Fonticons, Inc.--><path d="M112.1 454.4c0 6.297 1.825 12.4 5.294 17.65l17.15 25.71C139.8 505.6 151.7 512 161.2 512h61.68c9.438 0 21.36-6.388 26.61-14.26l17.09-25.7c2.938-4.438 5.361-12.34 5.361-17.67L272 415.1H112l.1 39.3zM192 0C90.02.32 16 82.98 16 175.1c0 44.38 16.4 84.82 43.52 115.8 16.53 18.84 42.36 58.26 52.24 91.48.031.25.115.494.146.76h160.2c.031-.265.114-.494.146-.76 9.875-33.22 35.71-72.64 52.24-91.48C351.6 260.8 368 220.4 368 175.1 368 78.8 289.2.004 192 0zm96.4 260.1c-15.66 17.85-35.04 46.3-49.05 75.89h-94.61c-14.01-29.59-33.39-58.04-49.04-75.88C75.24 236.8 64 206.1 64 175.1 64 113.3 112.1 48.25 191.1 48 262.6 48 320 105.4 320 175.1c0 31-11.2 61.7-31.6 85zm-90.9-95.3c-13-3.8-29.4-7.5-27.9-16.3 1.375-7.812 16.59-9.719 30.27-7.625 5.594.844 11.73 2.812 17.59 4.844 10.39 3.594 21.83-1.938 25.45-12.34 3.625-10.44-1.891-21.84-12.33-25.47C223.3 105.4 217.5 103.8 212 102.6V96c0-11.03-8.953-20-20-20s-20 8.97-20 20v5.992c-22.4 4.808-38.2 18.808-41.8 39.708-7.4 42.8 33.2 54.7 50.5 59.8 25.02 7.264 35.13 9.83 33.73 17.97-1.375 7.812-16.59 9.75-30.31 7.625-4.469-.664-9.099-1.738-28.12-8.656-10.4-3.539-21.8 1.861-25.5 12.261-3.7 10.4 1.8 21.8 12.2 25.5 6.2 2.2 16.4 6.4 29.3 9v6.8c0 11.03 8.953 20 20 20s20-8.969 20-20v-6.3c22.36-4.793 38.21-18.53 41.83-39.43C261.3 183 219.8 171.1 197.5 164.8z"/></svg>