<svg xmlns="http://www.w3.org/2000/svg" viewBox="0 0 640 512"><!--! Font Awesome Pro 6.1.1 by @fontawesome - https://fontawesome.com License - https://fontawesome.com/license (Commercial License) Copyright 2022 Fonticons, Inc.--><path d="M117.1 66.48c8.7-1.63 17.6-2.48 26.8-2.48h160.2C383.6 64 448 128.4 448 207.9c0 34.8-12.4 66.9-33.2 91.9l118.4 92.8c34.5-14.5 58.8-49.5 58.8-88.5 0-50.4-39.1-92.3-89.5-95.6l-8.1-.6c-13.2-.8-23.2-12.3-22.3-25.5.8-13.2 12.3-23.2 25.5-22.3l8.1.5c75.6 5 134.3 67.8 134.3 143.5 0 50.6-26.1 95.1-65.6 120.8l56.4 44.2c10.4 8.2 12.3 23.3 4.1 33.7-8.2 10.4-23.3 12.3-33.7 4.1L9.196 42.89C-1.236 34.71-3.064 19.63 5.112 9.196 13.29-1.236 28.37-3.065 38.81 5.112L117.1 66.48zM175.2 112l200.9 158.2c15.3-16.8 23.9-38.6 23.9-62.3 0-53-42.9-95.9-95.9-95.9H175.2zm160.7 336C256.4 448 192 383.6 192 304.1c0-17.5 3.1-34.3 8.9-49.8l40.7 32.1c-1 5.7-1.6 11.7-1.6 17.7 0 53 42.9 95.9 95.9 95.9h49.9l61 48H335.9zM30.14 119.7l37.7 29.8C55.4 165.6 48 185.9 48 207.9c0 50.4 39.13 92.3 89.5 95.6l8.1.6c13.2.8 23.2 12.3 22.3 25.5-.8 13.2-12.3 23.2-25.5 22.3l-8.1-.5C58.72 346.4 0 283.6 0 207.9c0-33.2 11.25-63.8 30.14-88.2z"/></svg>