<svg xmlns="http://www.w3.org/2000/svg" viewBox="0 0 640 512"><!--! Font Awesome Pro 6.1.1 by @fontawesome - https://fontawesome.com License - https://fontawesome.com/license (Commercial License) Copyright 2022 Fonticons, Inc.--><path d="M304.1 64C383.6 64 448 128.4 448 207.9c0 75.7-58.7 138.5-134.3 143.5l-8.1.5c-13.2.9-24.7-9.1-25.5-22.3-.9-13.2 9.1-24.7 22.3-25.5l8.1-.6c50.4-3.3 89.5-45.2 89.5-95.6 0-53-42.9-95.9-95.9-95.9H143.9C90.92 112 48 154.9 48 207.9c0 50.4 39.13 92.3 89.5 95.6l8.1.6c13.2.8 23.2 12.3 22.3 25.5-.8 13.2-12.3 23.2-25.5 22.3l-8.1-.5C58.72 346.4 0 283.6 0 207.9 0 128.4 64.41 64 143.9 64h160.2zm31.8 384C256.4 448 192 383.6 192 304.1c0-75.7 58.7-138.5 134.2-143.6l7.2-.4c13.2-.9 24.7 9.1 25.5 22.3.9 13.2-9.1 24.7-22.3 25.5l-7.1.5c-50.4 3.4-89.5 45.2-89.5 95.7 0 53 42.9 95.9 95.9 95.9h160.2c53 0 95.9-42.9 95.9-95.9 0-50.4-39.1-92.3-89.5-95.6l-8.1-.6c-13.2-.8-23.2-12.3-22.3-25.5.8-13.2 12.3-23.2 25.5-22.3l8.1.5c75.6 5 134.3 67.8 134.3 143.5 0 79.5-64.4 143.9-143.9 143.9H335.9z"/></svg>