<svg xmlns="http://www.w3.org/2000/svg" viewBox="0 0 640 512"><!--! Font Awesome Pro 6.1.1 by @fontawesome - https://fontawesome.com License - https://fontawesome.com/license (Commercial License) Copyright 2022 Fonticons, Inc.--><path d="M154.9 96.08c1.7-.05 3.4-.08 5.1-.08h104c13.3 0 24 10.7 24 24s-10.7 24-24 24h-48l112.3 88H424c13.3 0 24 10.7 24 24s-10.7 24-24 24h-34.5l110.1 86.3C552.1 357 592 311.2 592 256c0-61.9-50.1-112-112-112H376c-13.3 0-24-10.7-24-24s10.7-24 24-24h104c88.4 0 160 71.6 160 160 0 65.1-38.9 121.1-94.7 146.1l85.5 67c10.4 8.2 12.3 23.3 4.1 33.7-8.2 10.4-23.3 12.3-33.7 4.1L9.196 42.89C-1.236 34.71-3.065 19.63 5.112 9.196 13.29-1.236 28.37-3.065 38.81 5.112L154.9 96.08zM.001 256c0-47.9 20.279-89.3 52.579-118.6l38.47 30.3C64.84 188.2 48 220.2 48 256c0 61.9 50.14 112 112 112h104c13.3 0 24 10.7 24 24s-10.7 24-24 24H160C71.64 416 .001 344.4.001 256z"/></svg>