<svg xmlns="http://www.w3.org/2000/svg" viewBox="0 0 576 512"><!--! Font Awesome Pro 6.1.1 by @fontawesome - https://fontawesome.com License - https://fontawesome.com/license (Commercial License) Copyright 2022 Fonticons, Inc.--><path d="M568.1 201.7C521.6 124.6 419.6 64 375.1 64c0 0-29.37 0-87.99 45C229.4 64 200 64 200 64 156.4 64 54.4 124.6 7.942 201.7c-9.338 15.41-10.46 34.2-3.489 50.73C29.65 312.3 105.9 448 251.3 448h73.36c145.5 0 221.7-135.8 246.9-195.6 6.94-16.5 5.84-35.3-3.46-50.7zM324.7 400h-73.4c-123 0-186.2-127.2-202.6-166.3-1.057-2.51-.943-5.137.367-7.301 37.84-62.76 121.1-111.4 148.7-114.3C203.2 113.5 223.7 120.1 258.8 147.1l29.2 22.4 29.23-22.44c35.1-26.95 55.54-33.54 61.01-34.94 26.71 2.922 110.8 51.55 148.7 114.4 1.256 2.072 1.369 4.699.3 7.232C510.8 272.8 447.7 400 324.7 400zm8.8-184.2c-14.2 4-29.7 6.2-45.5 6.2s-31.3-2.2-45.5-6.2L216 208c-72 0-120 28-120 28s64 84 192 84 192-84 192-84-48-28-120-28l-26.5 7.8z"/></svg>