<svg xmlns="http://www.w3.org/2000/svg" viewBox="0 0 320 512"><!--! Font Awesome Pro 6.1.1 by @fontawesome - https://fontawesome.com License - https://fontawesome.com/license (Commercial License) Copyright 2022 Fonticons, Inc.--><path d="M96 192h136c13.3 0 24 10.7 24 24s-10.7 24-24 24H96v48h136c13.3 0 24 10.7 24 24s-10.7 24-24 24H96v4.5c0 27.6-7.49 54.6-21.66 78.2L66.39 432H296c13.3 0 24 10.7 24 24s-10.7 24-24 24H24c-8.65 0-16.625-4.6-20.885-12.2-4.26-7.5-4.143-16.7.305-24.1l29.76-49.6C42.88 377.9 48 359.4 48 340.5V336H24c-13.25 0-24-10.7-24-24s10.75-24 24-24h24v-48H24c-13.25 0-24-10.7-24-24s10.75-24 24-24h24v-32.8C48 88.97 104.1 32 175.2 32c13.7 0 27.3 2.2 40.3 6.53l80.1 26.7c12.6 4.19 18.5 17.79 15.2 30.36-4.2 12.61-18.7 18.51-30.4 15.21l-80.1-26.73c-8.1-2.7-16.5-4.07-25.1-4.07-43.7 0-79.2 35.5-79.2 79.2V192z"/></svg>