<svg xmlns="http://www.w3.org/2000/svg" viewBox="0 0 512 512"><!--! Font Awesome Pro 6.1.1 by @fontawesome - https://fontawesome.com License - https://fontawesome.com/license (Commercial License) Copyright 2022 Fonticons, Inc.--><path d="M88 48c13.3 0 24 10.75 24 24v48c0 13.3-10.7 24-24 24H40c-13.25 0-24-10.7-24-24V72c0-13.25 10.75-24 24-24h48zm400 24c13.3 0 24 10.75 24 24 0 13.3-10.7 24-24 24H184c-13.3 0-24-10.7-24-24 0-13.25 10.7-24 24-24h304zm0 160c13.3 0 24 10.7 24 24s-10.7 24-24 24H184c-13.3 0-24-10.7-24-24s10.7-24 24-24h304zm0 160c13.3 0 24 10.7 24 24s-10.7 24-24 24H184c-13.3 0-24-10.7-24-24s10.7-24 24-24h304zM16 232c0-13.3 10.75-24 24-24h48c13.3 0 24 10.7 24 24v48c0 13.3-10.7 24-24 24H40c-13.25 0-24-10.7-24-24v-48zm72 136c13.3 0 24 10.7 24 24v48c0 13.3-10.7 24-24 24H40c-13.25 0-24-10.7-24-24v-48c0-13.3 10.75-24 24-24h48z"/></svg>