<svg xmlns="http://www.w3.org/2000/svg" viewBox="0 0 512 512"><!--! Font Awesome Pro 6.1.1 by @fontawesome - https://fontawesome.com License - https://fontawesome.com/license (Commercial License) Copyright 2022 Fonticons, Inc.--><path d="M24 95.97h240c13.25 0 24-10.75 24-24s-10.75-24-24-24H24c-13.25 0-24 10.75-24 24s10.75 24 24 24zM498.8 6.162c-8.25-6.125-18.69-7.699-28.44-4.699l-112 35.38C345.1 41.09 336 53.34 336 67.34v299.1c-18.12-9.125-40.13-14.5-64-14.5-61.88 0-112 35.88-112 80C160 476.1 210.1 512 272 512s112-35.88 112-80V195.4l105.6-33.38C503 157.7 512 145.5 512 131.5V31.96c0-10.25-4.9-19.8-13.2-25.798zM272 463.1c-39.75 0-64-20.75-64-31.1 0-11.25 24.25-32 64-32s64 20.75 64 32c0 11.2-24.2 31.1-64 31.1zm192-343.4-80 24.4V79.09l80-25.25v65.86zM24 223.1h240c13.25 0 24-10.75 24-24s-10.75-24-24-24H24c-13.25 0-24 10.74-24 24s10.75 24 24 24zm112 80H24c-13.25 0-24 10.75-24 24s10.75 24 24 24h112c13.25 0 24-10.75 24-24s-10.7-24-24-24z"/></svg>