<svg xmlns="http://www.w3.org/2000/svg" viewBox="0 0 512 512"><!--! Font Awesome Pro 6.1.1 by @fontawesome - https://fontawesome.com License - https://fontawesome.com/license (Commercial License) Copyright 2022 Fonticons, Inc.--><path d="M81.84 152.1c-4.41 4.8-10.63 7.7-17.21 7-6.58 1.1-12.94-1.5-17.6-7l-40.001-40c-9.372-8.5-9.372-23.7 0-33.07 9.371-9.37 24.571-9.37 33.941 0l22.11 22.07 55.12-61.16c8.8-9.85 24-10.65 33.9-1.78 9.8 8.87 10.6 24.04 1.7 33.9L81.84 152.1zm0 160c-4.41 4.8-10.63 7.7-17.21 7-6.58 1.1-12.94-1.5-17.6-7l-40.001-40c-9.372-8.5-9.372-23.7 0-33.1 9.371-9.3 24.571-9.3 33.941 0l22.11 22.1 55.12-61.2c8.8-9.8 24-10.6 33.9-1.7 9.8 8.8 10.6 24 1.7 33.9l-71.96 80zM216 120c-13.3 0-24-10.7-24-24 0-13.25 10.7-24 24-24h272c13.3 0 24 10.75 24 24 0 13.3-10.7 24-24 24H216zm-24 136c0-13.3 10.7-24 24-24h272c13.3 0 24 10.7 24 24s-10.7 24-24 24H216c-13.3 0-24-10.7-24-24zm-32 160c0-13.3 10.7-24 24-24h304c13.3 0 24 10.7 24 24s-10.7 24-24 24H184c-13.3 0-24-10.7-24-24zm-96 32c-17.67 0-32-14.3-32-32s14.33-32 32-32 32 14.3 32 32-14.33 32-32 32z"/></svg>