<svg xmlns="http://www.w3.org/2000/svg" viewBox="0 0 512 512"><!--! Font Awesome Pro 6.1.1 by @fontawesome - https://fontawesome.com License - https://fontawesome.com/license (Commercial License) Copyright 2022 Fonticons, Inc.--><path d="M64 32c35.35 0 64 28.65 64 64 0 35.3-28.65 64-64 64S0 131.3 0 96c0-35.35 28.65-64 64-64zm424 40c13.3 0 24 10.75 24 24 0 13.3-10.7 24-24 24H184c-13.3 0-24-10.7-24-24 0-13.25 10.7-24 24-24h304zm0 160c13.3 0 24 10.7 24 24s-10.7 24-24 24H184c-13.3 0-24-10.7-24-24s10.7-24 24-24h304zm0 160c13.3 0 24 10.7 24 24s-10.7 24-24 24H184c-13.3 0-24-10.7-24-24s10.7-24 24-24h304zM64 192c35.35 0 64 28.7 64 64s-28.65 64-64 64-64-28.7-64-64 28.65-64 64-64zm-24 64c0 13.3 10.75 24 24 24s24-10.7 24-24-10.75-24-24-24-24 10.7-24 24zm24 224c-35.35 0-64-28.7-64-64s28.65-64 64-64 64 28.7 64 64-28.65 64-64 64zm24-64c0-13.3-10.75-24-24-24s-24 10.7-24 24 10.75 24 24 24 24-10.7 24-24z"/></svg>