<svg xmlns="http://www.w3.org/2000/svg" viewBox="0 0 384 512"><!--! Font Awesome Pro 6.1.1 by @fontawesome - https://fontawesome.com License - https://fontawesome.com/license (Commercial License) Copyright 2022 Fonticons, Inc.--><path d="m112 207.7 145.8-38.9c12.8-3.4 26 4.2 29.4 17 3.4 12.8-5.1 26-17 29.4L112 257.4V432h248c13.3 0 24 10.7 24 24s-10.7 24-24 24H88c-13.25 0-24-10.7-24-24V270.2l-33.82 9c-12.8 3.4-25.954-5.1-29.37-17-3.415-12.8 4.199-26 17.01-29.4L64 220.5V56c0-13.25 10.75-24 24-24 13.3 0 24 10.75 24 24v151.7z"/></svg>