<svg xmlns="http://www.w3.org/2000/svg" viewBox="0 0 576 512"><!--! Font Awesome Pro 6.1.1 by @fontawesome - https://fontawesome.com License - https://fontawesome.com/license (Commercial License) Copyright 2022 Fonticons, Inc.--><path d="M312 104c0 13.3-10.7 24-24 24s-24-10.7-24-24V24c0-13.25 10.7-24 24-24s24 10.75 24 24v80zm0 384c0 13.3-10.7 24-24 24s-24-10.7-24-24v-80c0-13.3 10.7-24 24-24s24 10.7 24 24v80zM32 256c0-13.3 10.75-24 24-24h80c13.3 0 24 10.7 24 24s-10.7 24-24 24H56c-13.25 0-24-10.7-24-24zm488-24c13.3 0 24 10.7 24 24s-10.7 24-24 24h-80c-13.3 0-24-10.7-24-24s10.7-24 24-24h80zM469 74.98c9.4 9.37 9.4 24.57 0 33.92l-56.5 56.6c-9.4 9.4-24.6 9.4-34 0-9.4-9.4-9.4-24.6 0-33.9l56.6-56.62c9.4-9.37 24.5-9.37 33.9 0zM140.9 437c-9.4 9.4-24.5 9.4-34.8 0-8.49-9.4-8.49-24.6 0-33.9l57.4-56.6c9.4-9.4 24.6-9.4 34 0 9.4 9.4 9.4 24.6 0 33.9L140.9 437zM106.1 74.98c10.3-9.37 25.4-9.37 34.8 0l56.6 56.62c9.4 9.3 9.4 24.5 0 33.9-9.4 9.4-24.6 9.4-34 0l-57.4-56.6c-8.49-9.35-8.49-24.55 0-33.92zM469 403.1c9.4 9.3 9.4 24.5 0 33.9-9.4 9.4-24.5 9.4-33.9 0l-56.6-56.6c-9.4-9.3-9.4-24.5 0-33.9 9.4-9.4 24.6-9.4 34 0l56.5 56.6z"/></svg>