<svg xmlns="http://www.w3.org/2000/svg" viewBox="0 0 512 512"><!--! Font Awesome Pro 6.1.1 by @fontawesome - https://fontawesome.com License - https://fontawesome.com/license (Commercial License) Copyright 2022 Fonticons, Inc.--><path d="M432 0v96l-48-64v92.57c0 15.16 5.045 29.7 13.59 41.42l-26.84 18.78C364 189.5 356.1 192 347.8 192h-8.66c-7.04-24.7-21.04-43.8-35.14-57.7V80c0-17.64 14.34-32 32-32 8.8 0 16-7.16 16-16s-7.156-16-16-16c-35.28 0-64 28.7-64 64v29.5c-2.805-1.643-4.842-2.746-5.281-2.967L256 101.2l-10.7 5.3c-.5.3-2.5 1.4-5.3 3V80c0-35.3-28.72-64-64-64-8.8 0-16 7.16-16 16s7.156 16 16 16c17.66 0 32 14.36 32 32v54.3c-14.1 13.9-28.1 33-35.2 57.7h-8.6c-8.3 0-17.1-2.5-23-7.2l-26.81-18.78C122.1 154.3 128 139.7 128 124.6V32L80 96l-.9-96C35.82 0 0 35.82 0 79.1V128c0 36.37 30.42 65.24 67.17 63.51l46.51 32.58C128.6 234.5 145.1 240 164.2 240h3.8v16h-24.9c-7.4 0-14.8-1.7-21.4-5.1l-34.5-17.25c-7.875-3.891-17.5-.766-21.47 7.156-3.98 7.994-.79 17.594 7.11 21.494l34.5 17.25C118.4 285.1 130.8 288 143.1 288H168v16h-45.6c-5.156 0-10.25-.828-15.16-2.453L69.06 288.8c-8.344-2.734-17.44 1.719-20.25 10.11-2.78 8.39 1.75 17.49 10.13 20.29l38.16 12.73c8.2 2.67 16.7 4.07 25.3 4.07H168v16.83c-9.93.9-19.76 3.156-28.66 7.607l-18.5 9.25c-7.906 3.953-11.09 13.56-7.156 21.47C116.5 396.8 122.2 400 128 400c2.406 0 4.844-.547 7.156-1.688l18.5-9.25c4.887-2.443 10.23-3.721 15.66-4.387 1.01 7.359 2.496 14.63 4.844 21.68l16.99 50.93c.01.03-.01-.03 0 0C172.5 468.5 160 488.7 160 511.1l192 .9c0-23.29-12.53-43.53-31.12-54.72.014-.043-.014.043 0 0l16.97-50.92c2.363-7.066 3.848-14.33 4.852-21.68 5.418.67 10.77 1.943 15.65 4.385l18.5 9.25C379.2 399.5 381.6 400 384 400c5.844 0 11.5-3.234 14.31-8.844 3.938-7.906.75-17.52-7.156-21.47l-18.5-9.25c-8.9-4.451-18.73-6.707-28.66-7.607V336h45.63c8.594 0 17.09-1.37 25.28-4.104l38.16-12.72c8.375-2.781 12.91-11.84 10.12-20.23-2.812-8.391-11.91-12.86-20.25-10.11l-38.16 12.71C399.9 303.2 394.8 304 389.6 304H344v-16h24.91c12.34 0 24.72-2.922 35.75-8.438l34.5-17.25c7.906-3.953 11.09-13.56 7.156-21.47-3.969-7.922-13.53-11.08-21.47-7.156l-34.5 17.25C383.7 254.3 376.3 256 368.9 256H344v-16h3.812c18.19 0 35.63-5.5 50.47-15.91l46.54-32.58C481.6 193.2 512 164.4 512 128V79.1C512 35.82 476.2 0 432 0zM256 156.3c14.9 10.7 40 33.8 40 67.7v144.4c0 7.766-1.25 15.42-3.688 22.73l-16.94 50.88c-.772 2.39-2.072 4.29-3.572 5.99h-31.6c-1.52-1.68-2.801-3.605-3.58-5.938l-16.97-50.91C217.3 383.8 216 376.2 216 368.4V224c0-33.9 25.1-57 40-67.7z"/></svg>