<svg xmlns="http://www.w3.org/2000/svg" viewBox="0 0 640 512"><!--! Font Awesome Pro 6.1.1 by @fontawesome - https://fontawesome.com License - https://fontawesome.com/license (Commercial License) Copyright 2022 Fonticons, Inc.--><path d="M184.9 119.6c29.3-29.07 68-48.74 111.1-54.11V24C296 10.75 306.7.001 320 .001S344 10.75 344 24v41.49C430.8 76.32 499.7 145.2 510.5 232H552c13.3 0 24 10.7 24 24s-10.7 24-24 24h-41.5c-3.4 27-12.3 52.3-25.7 74.6l146 114.5c10.4 8.2 12.3 23.3 4.1 33.7-8.2 10.4-23.3 12.3-33.7 4.1L9.196 42.89C-1.236 34.71-3.065 19.63 5.112 9.196 13.29-1.236 28.37-3.065 38.81 5.112L184.9 119.6zm38.2 29.9 38.5 30.3C277.8 167.4 298 160 320 160c53 0 96 42.1 96 96 0 13.7-2.9 26.7-8.9 38.5l39.5 30.2c11.1-20.4 17.4-43.8 17.4-68.7 0-79.5-64.5-144-144-144-37.3 0-71.4 14.2-96.9 37.5zm144.4 113.3c.3-2.2.5-4.5.5-6.8 0-26.5-21.5-48-48-48-6.3 0-12.4 1.2-17.9 3.5l65.4 51.3zM344 446.5V488c0 13.3-10.7 24-24 24s-24-10.7-24-24v-41.5c-86.8-10.8-155.7-79.6-166.5-166.5H88c-13.25 0-24-10.7-24-24s10.75-24 24-24h41.5c1.2-10.9 3.3-19.8 6-29.3l41.9 33.1c-.9 6.6-1.4 13.3-1.4 20.2 0 79.5 64.5 144 144 144 18.7 0 36.6-3.6 53-10.1l41.9 33c-21.4 12.2-45.4 20.4-70.9 23.6z"/></svg>