<svg xmlns="http://www.w3.org/2000/svg" viewBox="0 0 512 512"><!--! Font Awesome Pro 6.1.1 by @fontawesome - https://fontawesome.com License - https://fontawesome.com/license (Commercial License) Copyright 2022 Fonticons, Inc.--><path d="M192 451.7c18.5-24.6 41.6-54.6 64-88v83.1c-15.3 20.6-29.3 38.6-40.3 52.4-12.3 15.3-35.1 15.3-47.4 0C116.1 435 0 279.4 0 192 0 85.96 85.96 0 192 0c95.7 0 174.1 69.96 189.6 161.5-16.9 2.8-32.6 9.4-46.1 18.9C329.6 106.3 267.6 48 191.1 48c-78.6 0-144 64.5-144 144 0 12.4 5.39 31.6 16.2 57.2 10.48 24.8 25.36 52.2 42.5 79.9 28.4 46.2 61.4 90 85.3 122.6h.9zM272 192c0 44.2-35.8 80-80 80s-80-35.8-80-80 35.8-80 80-80 80 35.8 80 80zm-80-32c-17.7 0-32 14.3-32 32s14.3 32 32 32 32-14.3 32-32-14.3-32-32-32zm208 32c44.2 0 80 35.8 80 80v48c17.7 0 32 14.3 32 32v128c0 17.7-14.3 32-32 32H320c-17.7 0-32-14.3-32-32V352c0-17.7 14.3-32 32-32v-48c0-44.2 35.8-80 80-80zm0 48c-17.7 0-32 14.3-32 32v48h64v-48c0-17.7-14.3-32-32-32z"/></svg>