<svg xmlns="http://www.w3.org/2000/svg" viewBox="0 0 384 512"><!--! Font Awesome Pro 6.1.1 by @fontawesome - https://fontawesome.com License - https://fontawesome.com/license (Commercial License) Copyright 2022 Fonticons, Inc.--><path d="m276.8 160.4-14.9 14.9-53.3-54.2 14.9-14.1c14.7-14.69 38.6-14.69 53.3 0 14.7 14.8 14.7 38.6 0 53.4zm-162.7 56.1 71-71.9 54.2 53.3-71.9 72c-4.1 3.2-9.3 7-14.9 8.4l-36.6 9.1c-5.5 1.4-11.2-.2-15.2-4.2-3.99-3.9-5.58-9.7-4.22-15.2l9.12-36.6c1.4-5.6 3.5-10.8 8.5-14.9zM384 192c0 87.4-117 243-168.3 307.2-12.3 15.3-35.1 15.3-47.4 0C116.1 435 0 279.4 0 192 0 85.96 85.96 0 192 0c106 0 192 85.96 192 192zM192 48c-79.5 0-144 64.5-144 144 0 12.4 4.49 31.6 15.3 57.2 10.48 24.8 25.36 52.2 42.5 79.9 28.4 46.2 61.4 90 86.2 122.6 24.8-32.6 57.8-76.4 86.2-122.6 17.1-27.7 32-55.1 42.5-79.9 10.8-25.6 15.3-44.8 15.3-57.2 0-79.5-64.5-144-144-144z"/></svg>