<svg xmlns="http://www.w3.org/2000/svg" viewBox="0 0 640 512"><!--! Font Awesome Pro 6.1.1 by @fontawesome - https://fontawesome.com License - https://fontawesome.com/license (Commercial License) Copyright 2022 Fonticons, Inc.--><path d="M154 95.42C187.3 38.35 249.2 0 320 0c106 0 192 85.96 192 192 0 38.7-23 90.8-53 142.5l171.8 134.6c10.4 8.2 12.3 23.3 4.1 33.7-8.2 10.4-23.3 12.3-33.7 4.1L9.196 42.89C-1.236 34.71-3.065 19.63 5.112 9.196 13.29-1.236 28.37-3.065 38.81 5.112L154 95.42zm38.3 29.98 52 40.7C255 134.7 284.9 112 320 112c44.2 0 80 35.8 80 80 0 28.3-14.7 53.1-36.8 67.4l57.6 45.1c11-19.2 20.5-37.9 27.9-55.3 10.8-25.6 15.3-44.8 15.3-57.2 0-79.5-64.5-144-144-144-55.5 0-103.7 31.4-127.7 77.4zm124.8 98.5c1.6-.8 2.2.1 2.9.1 17.7 0 32-14.3 32-32s-14.3-32-32-32-32 14.3-32 32c0 3.3.5 6.5 1.5 9.6l27.6 22.3zm-83.3 105.2c28.4 46.2 61.4 90 86.2 122.6 14.2-18.2 31.2-40.8 48.5-65.4l37.7 29.8c-23.5 33.4-46.3 62.8-62.5 83.1-12.3 15.3-35.1 15.3-47.4 0-50.4-63-164-214-168.2-302.3l61.7 48.6c.5 1.2 1 1.6 1.5 3.7 10.5 24.8 25.4 52.2 42.5 79.9z"/></svg>