<svg xmlns="http://www.w3.org/2000/svg" viewBox="0 0 384 512"><!--! Font Awesome Pro 6.1.1 by @fontawesome - https://fontawesome.com License - https://fontawesome.com/license (Commercial License) Copyright 2022 Fonticons, Inc.--><path d="M112 152c0-13.3 10.7-24 24-24s24 10.7 24 24-10.7 24-24 24-24-10.7-24-24zm160 0c0 13.3-10.7 24-24 24s-24-10.7-24-24 10.7-24 24-24 24 10.7 24 24zm-80 100c25.7 0 42.9-16.4 47.4-23.1 6.1-9.2 18.5-11.7 27.7-5.5 9.2 6.1 11.7 18.5 5.5 27.7-9.7 14.6-38.1 40.9-80.6 40.9-42.5 0-70.9-26.3-80.6-40.9-6.2-9.2-3.7-21.6 5.5-27.7 9.2-6.2 21.6-3.7 27.7 5.5 4.5 6.7 21.7 23.1 47.4 23.1zm192-60c0 87.4-117 243-168.3 307.2-12.3 15.3-35.1 15.3-47.4 0C116.1 435 0 279.4 0 192 0 85.96 85.96 0 192 0c106 0 192 85.96 192 192zM192 48c-79.5 0-144 64.5-144 144 0 12.4 4.49 31.6 15.3 57.2 10.48 24.8 25.36 52.2 42.5 79.9 28.4 46.2 61.4 90 86.2 122.6 24.8-32.6 57.8-76.4 86.2-122.6 17.1-27.7 32-55.1 42.5-79.9 10.8-25.6 15.3-44.8 15.3-57.2 0-79.5-64.5-144-144-144z"/></svg>