<svg xmlns="http://www.w3.org/2000/svg" viewBox="0 0 384 512"><!--! Font Awesome Pro 6.1.1 by @fontawesome - https://fontawesome.com License - https://fontawesome.com/license (Commercial License) Copyright 2022 Fonticons, Inc.--><path d="M176.1 272.1c-8.5 10.2-23.7 10.2-33.1 0l-55.97-56c-9.37-8.5-9.37-23.7 0-33.1 9.37-9.3 24.57-9.3 33.07 0l39.9 39.1 95-95.1c9.4-9.3 24.6-9.3 33.1 0 10.2 9.4 10.2 24.6 0 33.1l-112 112zM384 192c0 87.4-117 243-168.3 307.2-12.3 15.3-35.1 15.3-47.4 0C116.1 435 0 279.4 0 192 0 85.96 85.96 0 192 0c106 0 192 85.96 192 192zM192 48c-79.5 0-144 64.5-144 144 0 12.4 4.49 31.6 15.3 57.2 10.48 24.8 25.36 52.2 42.5 79.9 28.4 46.2 61.4 90 86.2 122.6 24.8-32.6 57.8-76.4 86.2-122.6 17.1-27.7 32-55.1 42.5-79.9 10.8-25.6 15.3-44.8 15.3-57.2 0-79.5-64.5-144-144-144z"/></svg>