<svg xmlns="http://www.w3.org/2000/svg" viewBox="0 0 384 512"><!--! Font Awesome Pro 6.1.1 by @fontawesome - https://fontawesome.com License - https://fontawesome.com/license (Commercial License) Copyright 2022 Fonticons, Inc.--><path d="M105.8 133.3c8-22.4 29.1-37.3 52.8-37.3h58.3c34.8 0 63.1 28.3 63.1 63.1 0 22.7-12.1 43.6-31.7 54.8l-33.2 18.5c.7 13.1-10 22.7-23.1 22.7-13.3 0-24-9.8-24-24v-12.6c0-8.6 4.6-16.5 12.1-20.8l44.3-25.4c4.7-2.7 7.6-7.7 7.6-13.2 0-8.3-6.8-16-15.1-16h-58.3c-3.4 0-6.4 3-7.5 6.2l-.5 1.3c-4.4 12.5-18.1 19-31.5 14.6-11.6-4.5-18.2-18.2-13.7-30.7l.4-1.2zM224 320c0 17.7-14.3 32-32 32s-32-14.3-32-32 14.3-32 32-32 32 14.3 32 32zm160-128c0 87.4-117 243-168.3 307.2-12.3 15.3-35.1 15.3-47.4 0C116.1 435 0 279.4 0 192 0 85.96 85.96 0 192 0c106 0 192 85.96 192 192zM192 48c-79.5 0-144 64.5-144 144 0 12.4 4.49 31.6 15.3 57.2 10.48 24.8 25.36 52.2 42.5 79.9 28.4 46.2 61.4 90 86.2 122.6 24.8-32.6 57.8-76.4 86.2-122.6 17.1-27.7 32-55.1 42.5-79.9 10.8-25.6 15.3-44.8 15.3-57.2 0-79.5-64.5-144-144-144z"/></svg>