<svg xmlns="http://www.w3.org/2000/svg" viewBox="0 0 512 512"><!--! Font Awesome Pro 6.1.1 by @fontawesome - https://fontawesome.com License - https://fontawesome.com/license (Commercial License) Copyright 2022 Fonticons, Inc.--><path d="M352 256c0 53-43 96-96 96-53.9 0-96-43-96-96 0-53.9 42.1-96 96-96 53 0 96 42.1 96 96zm-96-48c-26.5 0-48 21.5-48 48s21.5 48 48 48 48-21.5 48-48-21.5-48-48-48zm0-208c13.3 0 24 10.75 24 24v41.49C366.8 76.32 435.7 145.2 446.5 232H488c13.3 0 24 10.7 24 24s-10.7 24-24 24h-41.5c-10.8 86.8-79.7 155.7-166.5 166.5V488c0 13.3-10.7 24-24 24s-24-10.7-24-24v-41.5C145.2 435.7 76.32 366.8 65.49 280H24c-13.25 0-24-10.7-24-24s10.75-24 24-24h41.49C76.32 145.2 145.2 76.32 232 65.49V24c0-13.25 10.7-24 24-24zM112 256c0 79.5 64.5 144 144 144s144-64.5 144-144-64.5-144-144-144-144 64.5-144 144z"/></svg>