<svg xmlns="http://www.w3.org/2000/svg" viewBox="0 0 448 512"><!--! Font Awesome Pro 6.1.1 by @fontawesome - https://fontawesome.com License - https://fontawesome.com/license (Commercial License) Copyright 2022 Fonticons, Inc.--><path d="m122.5 405.3 79.9-159.8c1.2-2.4 2.7-4.6 4.6-6.5 2.2-2.1 4.7-3.8 7.5-5.9 3.1-.5 6.3-2 9.5-2s6.4 1.5 9.5 2c2.8 2.1 5.3 3.8 6.6 5.9 2.8 1.9 4.3 4.1 5.5 6.5l79.9 159.8c5.9 11.8 1.1 26.2-10.8 32.2-11.8 5.9-26.2 1.1-32.2-10.8L269.2 400h-90.4l-13.3 26.7c-6 11.9-20.4 16.7-32.2 10.8-11.9-6-16.7-20.4-10.8-32.2zm80.3-53.3h42.4L224 309.7 202.8 352zM224 0c70.7 0 128 57.31 128 128v32h32c35.3 0 64 28.7 64 64v224c0 35.3-28.7 64-64 64H64c-35.35 0-64-28.7-64-64V224c0-35.3 28.65-64 64-64h32v-32C96 57.31 153.3 0 224 0zm0 48c-44.2 0-80 35.82-80 80v32h160v-32c0-44.18-35.8-80-80-80zM48 224v224c0 8.8 7.16 16 16 16h320c8.8 0 16-7.2 16-16V224c0-8.8-7.2-16-16-16H64c-8.84 0-16 7.2-16 16z"/></svg>