<svg xmlns="http://www.w3.org/2000/svg" viewBox="0 0 448 512"><!--! Font Awesome Pro 6.1.1 by @fontawesome - https://fontawesome.com License - https://fontawesome.com/license (Commercial License) Copyright 2022 Fonticons, Inc.--><path d="M184 224c13.3 0 24 10.7 24 24v24h32v-24c0-13.3 10.7-24 24-24s24 10.7 24 24v24h24c13.3 0 24 10.7 24 24s-10.7 24-24 24h-24v32h24c13.3 0 24 10.7 24 24s-10.7 24-24 24h-24v24c0 13.3-10.7 24-24 24s-24-10.7-24-24v-24h-32v24c0 13.3-10.7 24-24 24s-24-10.7-24-24v-24h-24c-13.3 0-24-10.7-24-24s10.7-24 24-24h24v-32h-24c-13.3 0-24-10.7-24-24s10.7-24 24-24h24v-24c0-13.3 10.7-24 24-24zm24 128h32v-32h-32v32zM96 160v-32C96 57.31 153.3 0 224 0s128 57.31 128 128v32h32c35.3 0 64 28.7 64 64v224c0 35.3-28.7 64-64 64H64c-35.35 0-64-28.7-64-64V224c0-35.3 28.65-64 64-64h32zm48 0h160v-32c0-44.18-35.8-80-80-80s-80 35.82-80 80v32zm-80 48c-8.84 0-16 7.2-16 16v224c0 8.8 7.16 16 16 16h320c8.8 0 16-7.2 16-16V224c0-8.8-7.2-16-16-16H64z"/></svg>