<svg xmlns="http://www.w3.org/2000/svg" viewBox="0 0 576 512"><!--! Font Awesome Pro 6.1.1 by @fontawesome - https://fontawesome.com License - https://fontawesome.com/license (Commercial License) Copyright 2022 Fonticons, Inc.--><path d="M448 320c0-13.3 10.7-24 24-24s24 10.7 24 24-10.7 24-24 24-24-10.7-24-24zM328 32c136.1 0 248 111 248 248v40.2c-.1 48.1-35.5 87.8-81.7 94.7l15.2 30.4c5.9 11.8 1.1 26.2-10.8 32.2-11.8 5.9-26.2 1.1-32.2-10.8L441.2 416H330.5l-29.7 51.9c-6.5 11.5-21.2 15.5-32.7 8.9-11.5-6.5-15.5-21.2-8.9-32.7l16-28.1h-33.4c-12.1 0-24.2-1.1-36-3.4l-42.5 57.6c-7.8 10.7-22.9 13-33.5 5.1-10.7-7.8-13-22.9-5.1-33.5l33.2-45.1-41.6-18.9-73.46 93.1c-8.22 10.4-23.31 12.1-33.71 3.9-10.404-8.2-12.179-23.3-3.966-33.7l66.256-83.9C47.35 345.5 32 321 32 294.1c0-38.7 31.4-70.1 70.1-70.1h74.5l68.6-86.9c3.9-6.1 12.3-9.5 20-9.1 6.9.4 14.9 4.6 19 11.1l29.4 46.2 35.1-47.5c4.8-6.6 12.7-10.3 20.9-9.7 8.2.5 15.5 5.2 19.5 12.4l45.5 83.5H480c15.3 0 29.8 3.6 42.7 9.1C501.9 145.7 422.6 80 328 80h-24c-13.3 0-24-10.75-24-24s10.7-24 24-24h24zm16.8 192h35.1l-15.8-27.4-19.3 27.4zm-107.1 0h43.7l-19.5-30.6-24.2 30.6zM80 294.1c0 8.7 5.06 16.6 12.94 20.2l9.06 4.1 36.7-46.4h-36.6c-12.19 0-22.1 9.9-22.1 22.1zM199.8 272l-53.7 66.1 35.8 16c18.8 9.5 39.2 13.9 59.9 13.9h213.7c.1-.9.3-.9-.4-.9 1 0 1.2 0 1.4.9H480c26.5 0 48-21.5 48-48s-21.5-48-48-48H199.8z"/></svg>