<svg xmlns="http://www.w3.org/2000/svg" viewBox="0 0 512 512"><!--! Font Awesome Pro 6.1.1 by @fontawesome - https://fontawesome.com License - https://fontawesome.com/license (Commercial License) Copyright 2022 Fonticons, Inc.--><path d="M511.4 487.8c-.1 6.2-2.6 11.3-7 16.6-5.3 4.4-10.4 6.9-16.6 7-6.2.1-12.2-2.2-16.8-7.3L309.5 343.5c-38.7 30.1-87.4 44.2-136.2 39.7-48.8-4.6-93.97-27.6-126.4-64.4-32.42-36.7-49.618-84.5-48.087-133.5C.343 136.4 20.49 89.8 55.14 55.14 89.8 20.49 136.4.343 185.3-1.187c49-1.531 96.8 15.667 133.5 48.087 36.8 32.43 59.8 77.6 64.4 126.4 4.5 48.8-9.6 97.5-39.7 136.2L504.1 471c5.1 4.6 7.4 10.6 7.3 16.8zM278.9 306.2c22.4-17 39.4-40.1 48.8-66.6 9.4-26.5 10.9-55.1 4.2-82.4-6.7-27.3-21.2-52.1-41.8-71.22-20.5-19.15-46.2-31.86-73.9-36.58-27.7-4.71-57.1-1.22-82 10.05a144.235 144.235 0 0 0-62.9 53.35C55.98 136.4 47.88 163.9 48 192c0 27.6 10.96 54 30.46 73.5C97.97 285 124.4 296 152 296c27.6 0 54-11 73.5-30.5S256 219.6 256 192c0-17-6.7-33.3-18.7-45.3S208.1 128 192 128c-17 0-33.3 6.7-45.3 18.7S128 175 128 192c0 6.4 2.5 12.5 7 16.1 4.5 5.4 10.6 7.9 17 7.9s12.5-2.5 16.1-7.9c5.4-3.6 7.9-9.7 7.9-16.1 0-6.4 2.5-12.5 7-17s10.6-7 17-7 12.5 2.5 16.1 7c5.4 4.5 7.9 10.6 7.9 17 0 19.1-7.6 37.4-21.1 50.9A71.983 71.983 0 0 1 152 264c-19.1 0-37.4-7.6-50.9-21.1A71.94 71.94 0 0 1 80 192c0-29.7 11.8-58.2 32.8-79.2a112.023 112.023 0 0 1 158.4 0c21 21 32.8 49.5 32.8 79.2-.1 31.5-10.9 62.2-28.4 87.9-18.3 25.6-44.2 44.9-74 55.1 28-1.8 54.9-11.9 77.3-28.8z"/></svg>