<svg xmlns="http://www.w3.org/2000/svg" viewBox="0 0 448 512"><!--! Font Awesome Pro 6.1.1 by @fontawesome - https://fontawesome.com License - https://fontawesome.com/license (Commercial License) Copyright 2022 Fonticons, Inc.--><path d="M224 0C100.2 0 0 100.2 0 224v128c0 88.38 71.62 160 160 160h128c88.38 0 160-71.63 160-160V224C448 100.2 347.8 0 224 0zm176 352c0 61.75-50.25 112-112 112H160c-61.75 0-112-50.25-112-112V224c0-97 79-176 176-176s176 79 176 176v128zM226.5 226.2c-.875-.75-4.25-.75-5.125 0-8.125-38-39.41-66.21-77.41-66.21L76 160c-6.62 0-12 5.4-12 12v30.75C64 249.8 99.75 288 144 288h22.38c-7.375 12.25-12.5 23.5-15.75 32.88C119.8 325.5 96 351.9 96 384c0 35.5 29.38 64 64.88 64H287c35.5 0 64.88-28.5 64.88-64 0-32.13-23.62-58.5-54.63-63.13-4.15-9.47-8.35-20.67-15.75-32.87H304c44.2 0 80-38.2 80-85.2V172c0-6.6-5.4-12-12-12h-67.97c-37.83 0-69.23 28.2-77.53 66.2zm-2.5 40.6c20.2 19.8 31.9 38.4 38.8 53.2h-77.5c6.8-14.8 18.5-33.4 38.7-53.2zM144 256c-26.5 0-48-23.9-48-53.2V192h48c26.5 0 48 23.9 48 53.2v8.8c-.6.8-1.2 1.2-1.8 2H144zm144 96c17.62 0 32 14.38 32 32s-14.38 32-32 32H160c-17.62 0-32-14.38-32-32s14.38-32 32-32h128zm64-149.2c0 29.3-21.5 53.2-48 53.2h-46.25c-.55-.8-1.15-1.2-1.75-2v-8.8c0-29.3 21.5-53.2 48-53.2h48v10.8z"/></svg>