<svg xmlns="http://www.w3.org/2000/svg" viewBox="0 0 640 512"><!--! Font Awesome Pro 6.1.1 by @fontawesome - https://fontawesome.com License - https://fontawesome.com/license (Commercial License) Copyright 2022 Fonticons, Inc.--><path d="M195.5 444.5c-2.2-2.3-3.4-5.2-5.1-7.8-5.256 4.062-11.12 7.537-18.06 9.395-64.62 17.33-64.45 17.92-74.26 17.92-30.3 0-57.9-23.56-47.78-61.48 20.4-76.58 52.71-149.8 96.04-217.5 23.05-36.41 25.34-41 39.62-41 11.95 0 22.05 8.109 22.05 17.7v25.08c6.611-3.334 13.87-5.283 21.49-5.283 9.576 0 18.72 2.799 26.52 7.986l.04-27.75c0-36.28-31.36-65.72-70.05-65.72-43.98 0-57.98 28.56-80.09 63.13C59.93 231 25.55 308.8 3.882 390.1 1.289 399.8 0 409.8 0 419.8c0 52.33 45.62 92.23 98.06 92.23 18.09 0 24.46-2.83 86.69-19.5 21.77-5.828 39.91-18.39 52.51-34.73-2.561.418-5.128.76-7.774.76-12.786-.06-24.886-5.06-33.986-14.06zm147.6-293.8V23.1c0-12.36-9.9-23.1-24-23.1s-24 10.74-24 23.1v127.6c7.086-4.135 15.22-6.675 23.1-6.675s18.7 2.475 24.9 6.675zm78.7 271.1c6.25-6.25 6.25-16.37 0-22.62l-8.576-8.576c-20.16-20.16-5.881-54.63 22.63-54.63H448c8.844 0 16-7.156 16-16s-7.2-16.874-16-16.874h-12.12c-28.51 0-42.79-34.47-22.63-54.63l8.576-8.577c6.25-6.25 6.25-16.37 0-22.62s-16.38-6.25-22.62 0l-8.576 8.577C370.5 246.9 336 232.6 336 204.1v-12.12c0-8.844-7.156-15.1-16-15.1s-16 7.156-16 15.1v12.12c0 28.51-34.47 42.79-54.63 22.63l-8.57-8.53c-6.25-6.25-16.38-6.25-22.62 0s-6.25 16.37 0 22.62l8.576 8.577c20.16 20.16 5.881 54.63-22.63 54.63H192c-8.844 0-16 7.156-16 16s7.156 16 16 16h12.12c28.51 0 42.79 34.47 22.63 54.63l-8.576 8.576c-6.25 6.25-6.25 16.37 0 22.62 3.125 3.125 7.219 4.688 11.31 4.688s8.188-1.562 11.31-4.688l8.576-8.575C269.5 393.1 304 407.4 304 435.9v12.12c0 8.844 7.156 16 16 16s16-7.156 16-16V435.9c0-28.51 34.47-42.78 54.63-22.63l8.576 8.575c3.125 3.125 7.219 4.688 11.31 4.688S418.7 424.9 421.8 421.8zM288 303.1c-8.836 0-16-7.162-16-15.1 0-8.8 7.2-16.9 16-16.9s16 7.16 16 15.1c0 10.6-7.2 16.9-16 16.9zm64 64c-8.836 0-16-7.166-16-16 0-8.838 7.164-15.1 16-15.1s16 7.165 16 16c0 8.8-7.2 15.1-16 15.1zm284.1 23c-21.67-81.31-56.05-159.1-102-231-22.11-34.56-36.11-63.13-80.09-63.13-38.69 0-70.01 29.45-70.01 65.73v27.74c7.795-5.188 16.94-7.986 26.52-7.986 7.625 0 14.87 1.953 21.49 5.29V161.7c0-9.594 10.09-17.7 22.05-17.7 14.28 0 16.56 4.594 39.62 41 43.33 67.73 75.64 140.9 96.04 217.5 10.12 37.92-17.47 61.48-47.78 61.48-9.811 0-9.639-.594-74.25-17.91-6.949-1.865-12.82-5.35-18.08-9.424-1.732 2.605-2.857 5.504-5.152 7.799-9.066 9.066-21.12 14.06-33.94 14.06-2.635 0-5.213-.344-7.764-.758 12.59 16.34 30.74 28.9 52.51 34.73C517.5 509.2 523.8 512 541.9 512c52.5 0 98.1-39.9 98.1-92.2-.9-10-1.3-20-3.9-29.7z"/></svg>