<svg xmlns="http://www.w3.org/2000/svg" viewBox="0 0 640 512"><!--! Font Awesome Pro 6.1.1 by @fontawesome - https://fontawesome.com License - https://fontawesome.com/license (Commercial License) Copyright 2022 Fonticons, Inc.--><path d="M640 419.8c0 52.3-45.6 92.2-98.1 92.2-18 0-24.41-2.872-86.66-19.5-42.13-11.38-71.25-47.5-71.25-88.63l.01-81.37 48 34.3v47.06c0 19.25 14.62 36.63 35.63 42.25C532.3 463.4 532.1 464 541.9 464c30.38 0 58-23.62 47.88-61.5-20.38-76.63-52.75-149.8-96.13-217.5-23.05-36.4-25.25-41-40.55-41-11 0-21.1 8.1-21.1 17.8v96.7l69.95 49.97c10.78 7.719 13.28 22.69 5.578 33.47C502.8 348.5 495.5 352 487.1 352a23.86 23.86 0 0 1-13.94-4.469L320 237.5 166 347.6c-4.3 3-9.2 4.4-14 4.4-7.484 0-14.86-3.5-19.55-10.06-7.703-10.78-5.203-25.75 5.578-33.47L208 258.5v-96.7c0-9.7-10.1-17.8-22.9-17.8-14.37 0-16.62 4.625-39.62 41C103 252.8 70.63 325.9 50.25 402.5 40.13 440.4 67.75 464 98.13 464c9.75 0 9.625-.625 74.25-17.88C193.4 440.5 208 423.1 208 403.9v-47.06l48-34.34.031 81.36c0 41.13-29.12 77.25-71.25 88.63C122.5 509.1 116.1 512 98.13 512 45.63 512 0 472.1 0 419.8c0-10 1.25-19.88 3.875-29.63 21.62-81.25 56.03-159.1 102-231 22.12-34.63 36.12-63.13 80.12-63.13C224.7 96 256 125.4 256 161.8v62.46l36.64-26.18c2.16-1.58 3.36-3.98 3.36-6.58V24c0-13.25 10.8-24 24-24s23.1 10.75 23.1 24v167.5a8 8 0 0 0 3.359 6.5L384 224.2v-62.4c0-36.38 31.34-65.75 69.97-65.75 43.1 0 58 28.5 80.13 63.13 46 71.88 80.41 149.8 102 231 2.7 9.72 3.9 19.62 3.9 29.62z"/></svg>