<svg xmlns="http://www.w3.org/2000/svg" viewBox="0 0 512 512"><!--! Font Awesome Pro 6.1.1 by @fontawesome - https://fontawesome.com License - https://fontawesome.com/license (Commercial License) Copyright 2022 Fonticons, Inc.--><path d="m500.1 209.9-80.75-25.77c-13.59-45.11-49.13-80.3-94.35-92.1L297.68 11.6C295.5 4.172 291.8 1.051 288 0c-3.83 1.051-7.514 4.172-9.699 10.7L250.1 91.12c-44.3 12.68-79.9 47.78-93.5 91.98l-80.72 26.7c-15.75 5-16.78 18.5-.14 23.8l80.08 27.42C160 276.1 166.9 289.1 175.6 302.5L7 471.1c-9.375 9.375-9.375 24.56 0 33.94 4.72 4.66 10.84 6.96 17 6.96s12.28-2.344 16.97-7.031l168.5-168.5c11.78 8.258 24.77 14.94 38.9 19.23l25.57 81.04C276.9 445.9 282.6 449.1 288 447.6c5.369 1.492 11.1-1.727 14.01-10.96l25.57-81.19c44.95-13.64 79.95-49.13 92.6-94.51l80.08-27.37c15.74-5.17 15.64-18.67-.16-23.67zM288 312c-48.5 0-88-39.5-88-88 0-48.47 39.53-88 88-88s88 39.5 88 88-39.5 88-88 88zm0-120c-17.67 0-32 14.33-32 32s14.33 32 32 32 32-14.33 32-32-14.3-32-32-32z"/></svg>