<svg xmlns="http://www.w3.org/2000/svg" viewBox="0 0 512 512"><!--! Font Awesome Pro 6.1.1 by @fontawesome - https://fontawesome.com License - https://fontawesome.com/license (Commercial License) Copyright 2022 Fonticons, Inc.--><path d="M104 216c0-13.3 10.7-24 24-24s24 10.7 24 24v64c0 13.3-10.7 24-24 24s-24-10.7-24-24v-64zm80-96c0-13.3 10.7-24 24-24s24 10.7 24 24v160c0 13.3-10.7 24-24 24s-24-10.7-24-24V120zm80 64c0-13.3 10.7-24 24-24s24 10.7 24 24v96c0 13.3-10.7 24-24 24s-24-10.7-24-24v-96zM0 208C0 93.12 93.12 0 208 0c114.9 0 208 93.12 208 208 0 48.8-16.8 93.7-44.9 129.1l133 133.9c10.2 9.4 10.2 24.6 0 33.1-8.5 10.2-23.7 10.2-33.1 0l-133.9-133C301.7 399.2 256.8 416 208 416 93.12 416 0 322.9 0 208zm208 160c88.4 0 160-71.6 160-160S296.4 48 208 48 48 119.6 48 208s71.6 160 160 160z"/></svg>