<svg xmlns="http://www.w3.org/2000/svg" viewBox="0 0 512 512"><!--! Font Awesome Pro 6.1.1 by @fontawesome - https://fontawesome.com License - https://fontawesome.com/license (Commercial License) Copyright 2022 Fonticons, Inc.--><path d="M207.1 96c-46.7 0-85.2 38.5-85.2 86.2 0 38.35 56.29 108.5 77.87 134 2.03 2.3 4.93 3.8 7.33 3.8s6.262-1.459 8.303-3.791c21.58-25.52 77.88-95.67 77.88-134C294.1 134.5 255.5 96 207.1 96zm.9 112c-17.67 0-32-14.34-32-32 0-17.67 14.33-32 32-32s32 14.33 32 32c0 17.7-14.3 32-32 32zm296.1 263-134-134c29-35.5 45.9-80.2 45.9-129C416 93.13 322.9 0 208 0S0 93.13 0 208s93.13 208 208 208c48.79 0 93.55-16.91 129-45.04l134 134c4.7 4.74 10.9 7.04 17 7.04s12.28-2.344 16.97-7.031c9.33-9.369 9.33-24.569-.87-33.969zM208 368c-88.22 0-160-71.78-160-160S119.78 48 208 48s160 71.78 160 160-71.8 160-160 160z"/></svg>