<svg xmlns="http://www.w3.org/2000/svg" viewBox="0 0 512 512"><!--! Font Awesome Pro 6.1.1 by @fontawesome - https://fontawesome.com License - https://fontawesome.com/license (Commercial License) Copyright 2022 Fonticons, Inc.--><path d="m504.1 471-134-134c29-35.5 45.9-80.2 45.9-129C416 93.13 322.9 0 208 0S0 93.13 0 208s93.13 208 208 208c48.79 0 93.55-16.91 129-45.04l134 134c4.7 4.74 10.9 7.04 17 7.04s12.28-2.344 16.97-7.031c9.33-9.369 9.33-24.569-.87-33.969zM208 368c-88.22 0-160-71.78-160-160S119.78 48 208 48s160 71.78 160 160-71.8 160-160 160zm80-184H127.1c-12.4 0-23.1 10.7-23.1 24s10.73 24 23.1 24h160c14.2 0 24.9-10.7 24.9-24s-10.7-24-24-24z"/></svg>