<svg xmlns="http://www.w3.org/2000/svg" viewBox="0 0 384 512"><!--! Font Awesome Pro 6.1.1 by @fontawesome - https://fontawesome.com License - https://fontawesome.com/license (Commercial License) Copyright 2022 Fonticons, Inc.--><path d="M216 56v41.49C310.7 109.3 384 190.1 384 288v168c0 13.3-10.7 24-24 24s-24-10.7-24-24V288c0-71.4-51.9-130.6-120-142.9V456c0 13.3-10.7 24-24 24s-24-10.7-24-24V145.1C99.9 157.4 48 216.6 48 288v168c0 13.3-10.75 24-24 24S0 469.3 0 456V288c0-97.9 73.29-178.7 168-190.51V56c0-13.25 10.7-24 24-24s24 10.75 24 24z"/></svg>