<svg xmlns="http://www.w3.org/2000/svg" viewBox="0 0 512 512"><!--! Font Awesome Pro 6.1.1 by @fontawesome - https://fontawesome.com License - https://fontawesome.com/license (Commercial License) Copyright 2022 Fonticons, Inc.--><path d="m507.3 50.66-46-46c-5.25-5.25-13.38-6.127-19.76-2.252l-64 40.11c-7 4.375-12 11.12-14 19.12l-18.38 71.38-59.25 59.25C96.76 188.6 49.63 237.4 30.76 256.2c-46.88 46.87-39.5 150.4 17.5 207.5 32 31.9 78.44 48.3 121.44 48.3 33.75 0 65.38-10.15 86-30.77 15.5-15.62 67.76-61.1 64.01-255.1l59.25-59.25 71.38-18.38c7.875-2.125 14.75-7.124 19.12-13.1l40.01-63.99c4.03-7.26 3.13-15.38-2.17-20.75zM221.8 447.4c-10.38 10.37-29.88 16.62-52 16.62-32.88 0-66.38-13.12-87.5-34.25-39.75-39.75-43.62-113.5-17.62-139.5 47.88-48.37 156.5-48.1 172.9-49.62L188.3 289.8a48.875 48.875 0 0 0-55.25 22.5c-11.12 19.12-8 43.37 7.625 59.12 15.75 15.62 40 18.75 59.13 7.625 19.25-11.25 28.37-33.87 22.5-55.25l49.13-49.25C270.9 289.5 270.3 399.1 221.8 447.4z"/></svg>