<svg xmlns="http://www.w3.org/2000/svg" viewBox="0 0 512 512"><!--! Font Awesome Pro 6.1.1 by @fontawesome - https://fontawesome.com License - https://fontawesome.com/license (Commercial License) Copyright 2022 Fonticons, Inc.--><path d="M509.4 253.1c-11.6-76.7-69-133-141.4-150.7V63.56C385.5 83.31 411.5 96 443 96h51.05c11.19 0 19.79-9.357 17.55-19.28C501.8 32.94 458.1 0 407.7 0H344c-13.2 0-24 10.75-24 24l-.075 72.01c-.008 0 .008 0 0 0-171.5.16-208.7 177.9-301.7 268.4C6.512 375.8 0 391.5 0 407.9c0 25.1 15.28 47.62 38.73 56.57C88.42 483.4 181.1 512 287.1 512c136.1 0 243.3-119.7 222.3-258.9zm-87.9 149.6c-34.4 39-82.2 61.3-133.5 61.3-100.8 0-188.7-27.82-232.2-44.4-4.72-1.8-7.8-6.4-7.8-11.7 0-3.48 1.35-6.791 3.705-9.084 32.81-31.94 58.36-71.66 83.07-110.1 49.91-77.61 93.13-144.6 185.1-144.7.008 0-.008 0 0 0L319.1 168c0 13.25 10.75 24 24 24s24-10.75 24-24v-16.9c49.18 16.26 86.11 56.71 93.89 108.3 8.81 53.2-5.49 103.8-39.49 143.3z"/></svg>