<svg xmlns="http://www.w3.org/2000/svg" viewBox="0 0 576 512"><!--! Font Awesome Pro 6.1.1 by @fontawesome - https://fontawesome.com License - https://fontawesome.com/license (Commercial License) Copyright 2022 Fonticons, Inc.--><path d="M408 119.1c0 9.5-1.8 19.2-5.9 29.5-4.8 17.5-14.7 38.9-26.5 59.2l-.1-.7c-3.1 6.2-6.3 11.6-9.6 16.9-4.4 7-9 13.1-13.5 20.8l-.4.6c-18.1 26.9-36.7 51-49.2 65.7-7.7 10.5-21.9 10.5-29.6 0-12.5-14.7-31.1-38.8-49.2-65.7-18.4-27.3-36.3-57.5-46.7-84.5-.8-2.1-1.6-4.2-3.2-6.3-3.5-12.6-6.1-24.3-6.1-34.6 0-4.7.3-9.3.8-13.8C175.6 46.44 226.4 0 288 0c66.3 0 120 53.73 120 120v-.9zm-120 32c22.1 0 40-17 40-40 0-21.19-17.9-40-40-40s-40 18.81-40 40c0 23 17.9 40 40 40zm64 149.5c13.5-18.2 28.8-39.9 42.7-62.4 1.8-2.9 3.5-5.8 5.3-8.7v224.2l128-46.5V154.3l-108.7 39.5c2.2-4.7 4.3-9.3 6.3-14 5.9-14 11-29.1 13.2-44.2l105-38.16c7.4-2.67 15.6-1.59 22 2.86 6.4 4.5 10.2 11.9 10.2 18.8V424c0 10.1-6.3 19.1-15.8 22.6l-176 64c-5.3 1.9-11.1 1.9-16.4 0L200 449.5 32.2 510.6c-7.36 2.6-15.56 1.6-21.97-2.9C3.819 503.2 0 495.8 0 488V183.1c0-9.2 6.314-18.2 15.8-21.7L136 117.7v1.4c0 16 3.7 31.6 8.9 46.5L48 200.8v252.9l128-46.5V229.5c1.8 2.9 3.5 5.8 5.3 8.7 13.9 22.5 29.2 44.2 42.7 62.4v106.6l128 46.5V300.6z"/></svg>