<svg xmlns="http://www.w3.org/2000/svg" viewBox="0 0 512 512"><!--! Font Awesome Pro 6.1.1 by @fontawesome - https://fontawesome.com License - https://fontawesome.com/license (Commercial License) Copyright 2022 Fonticons, Inc.--><path d="M488 0H376c-13.2 0-24 10.75-24 24s10.75 24 24 24h54.07l-54.06 54.07-31.04-31.04c-9.375-9.375-24.56-9.375-33.94 0s-9.375 24.56 0 33.94l31.04 31.04-28.27 28.29C282.5 140.6 245.4 128 208 128c-45.9 0-90.1 17.2-124.45 51.5-68.73 68.73-68.73 180.2 0 248.9C117.9 462.8 162.1 480 208 480s90.08-17.18 124.5-51.55c62.92-62.92 67.54-161.2 15.26-230.2L376 169.9l31.03 31.03C411.7 205.7 417.9 208 424 208s12.28-2.344 16.97-7.031c9.375-9.375 9.375-24.56 0-33.94l-31.03-31.03L464 81.94V136c0 13.3 10.8 24 24 24s24-10.7 24-24V24c0-13.25-10.7-24-24-24zM298.5 394.5C274.3 418.7 242.2 432 208 432s-66.33-13.31-90.51-37.49c-49.91-49.91-49.91-131.1 0-181C141.7 189.3 173.8 176 208 176s66.34 13.32 90.51 37.5c.004.004-.004-.004 0 0 .002.002-.002-.002 0 0 49.89 49.9 49.89 131.1-.01 181z"/></svg>