<svg xmlns="http://www.w3.org/2000/svg" viewBox="0 0 448 512"><!--! Font Awesome Pro 6.1.1 by @fontawesome - https://fontawesome.com License - https://fontawesome.com/license (Commercial License) Copyright 2022 Fonticons, Inc.--><path d="M424 32H312c-13.2 0-24 10.75-24 24s10.75 24 24 24h54.06l-84.26 84.3C250.5 140.6 213.4 128 176 128c-45.9 0-90.08 17.2-124.45 51.5-68.73 68.73-68.73 180.2 0 248.9C85.92 462.8 130.1 480 176 480s89.91-17.18 124.3-51.55c62.92-62.92 67.71-161.2 15.44-230.2L400 113.9V168c0 13.3 10.8 24 24 24s24-10.7 24-24V56c0-13.25-10.7-24-24-24zM266.5 394.5C242.3 418.7 210.2 432 176 432s-66.33-13.31-90.51-37.49c-49.91-49.91-49.91-131.1 0-181C109.7 189.3 141.8 176 176 176s66.34 13.32 90.51 37.5c.004.004-.004-.004 0 0 .002.002-.002-.002 0 0 49.89 49.9 49.89 131.1-.01 181z"/></svg>