<svg xmlns="http://www.w3.org/2000/svg" viewBox="0 0 640 512"><!--! Font Awesome Pro 6.1.1 by @fontawesome - https://fontawesome.com License - https://fontawesome.com/license (Commercial License) Copyright 2022 Fonticons, Inc.--><path d="M616 32H504.9c-13.25 0-23.1 10.75-23.1 24s10.75 24 23.1 24h54.06L458.5 179.5c-9.375 9.375-9.375 24.56 0 33.94 49.91 49.91 49.9 131.1-.006 181-24.18 24.18-56.32 37.49-90.51 37.49-8.91 0-17.65-1-26.18-2.766-5.764 7.6-11.88 14.98-18.74 21.84-6.037 6.037-12.52 11.54-19.13 16.73C324.5 475.8 346.2 480 368 480c45.04 0 89.91-17.18 124.3-51.55 62.92-62.92 67.71-161.3 15.44-230.2l84.29-84.28v54.07c0 13.25 10.75 24 23.1 24S640 181.3 640 168V56c0-13.25-10.7-24-24-24zM315.7 198.2l84.29-84.28v54.07c0 13.25 10.75 24 23.1 24 13.25 0 24-10.75 24-24V56c0-13.25-10.75-24-24-24H312c-13.25 0-23.1 10.75-23.1 24s10.75 24 23.1 24h54.06l-84.26 84.3c-31.3-23.7-68.4-37.2-105.8-37.2-45.04 0-90.08 17.18-124.5 51.55-68.73 68.73-68.73 180.2 0 248.9C85.92 462.8 130.1 480 176 480s89.91-17.18 124.3-51.55c62.9-62.95 66.8-161.25 15.4-230.25zm-49.2 196.3c-24.18 24.18-56.32 37.49-90.51 37.49s-66.33-13.31-90.51-37.49c-49.91-49.91-49.91-131.1 0-181 24.18-24.18 56.32-37.49 90.51-37.49s66.33 13.31 90.51 37.49c49.9 49.9 49.9 131.1 0 181z"/></svg>