<svg xmlns="http://www.w3.org/2000/svg" viewBox="0 0 384 512"><!--! Font Awesome Pro 6.1.1 by @fontawesome - https://fontawesome.com License - https://fontawesome.com/license (Commercial License) Copyright 2022 Fonticons, Inc.--><path d="M216 161.8V152h32c13.25 0 24-10.75 24-23.1S261.3 104 248 104h-32V72.01l25.59 19.19a23.866 23.866 0 0 0 14.39 4.812c7.297 0 14.5-3.312 19.22-9.593 7.953-10.62 5.797-25.66-4.797-33.59l-64-47.1a23.905 23.905 0 0 0-28.81 0l-64 47.1C103 60.76 100.8 75.79 108.8 86.42c7.969 10.62 23.02 12.78 33.61 4.781L168 72.01v32h-32c-13.25 0-24 10.75-24 23.1S122.8 152 136 152h32v9.824C82.18 173.6 16 246.1 16 336c0 97.2 78.8 176 176 176s176-78.8 176-175.1c0-90.8-66.2-163.3-152-175.1zM192 464c-70.58 0-128-57.42-128-127.1s57.42-127.1 128-127.1 128 57.42 128 127.1S262.6 464 192 464z"/></svg>