<svg xmlns="http://www.w3.org/2000/svg" viewBox="0 0 640 512"><!--! Font Awesome Pro 6.1.1 by @fontawesome - https://fontawesome.com License - https://fontawesome.com/license (Commercial License) Copyright 2022 Fonticons, Inc.--><path d="m616.9 238.9-79.69-79.81c-9.436-9.449-24.72-9.449-34.15 0s-9.436 24.76 0 34.21L541.7 232H464v-48c0-13.2-10.7-24-24-24s-24 10.8-24 24v48h-33.82C370.4 146.2 297 80 208 80c-97.2 0-176 78.8-176 176s78.8 176 176 176c89.04 0 162.4-66.18 174.2-152H416v48c0 13.25 10.75 24 24 24s24-10.75 24-24v-48h77.73l-38.65 38.71c-9.436 9.447-9.436 24.76 0 34.21 4.72 4.68 10.02 7.08 17.12 7.08s12.36-2.363 17.08-7.086l79.69-79.81c9.43-9.404 9.43-24.804-.07-34.204zM208 384c-70.58 0-128-57.42-128-128s57.42-128 128-128 128 57.42 128 128-57.4 128-128 128z"/></svg>