<svg xmlns="http://www.w3.org/2000/svg" viewBox="0 0 640 512"><!--! Font Awesome Pro 6.1.1 by @fontawesome - https://fontawesome.com License - https://fontawesome.com/license (Commercial License) Copyright 2022 Fonticons, Inc.--><path d="M616 0c13.3 0 24 10.75 24 24v88c0 13.3-10.7 24-24 24s-24-10.7-24-24V81.94l-56.7 56.66c14.8 24.7 24.7 54 24.7 85.4 0 80.2-59.9 146.6-136 158.2V416h32c13.3 0 24 10.7 24 24s-10.7 24-24 24h-32v24c0 13.3-10.7 24-24 24s-24-10.7-24-24v-24h-32c-13.3 0-24-10.7-24-24s10.7-24 24-24h32v-33.8c-77-11.6-136-78-136-158.2 0-88.4 71.6-160 160-160 39.6 0 75.9 14.4 103.8 38.2L558.1 48H520c-13.3 0-24-10.75-24-24s10.7-24 24-24h96zM400 112c-61.9 0-112 50.1-112 112s50.1 112 112 112 112-50.1 112-112-50.1-112-112-112zM176 8c8.9 0 17 4.9 21.2 12.75l30.1 56.71 63.1-11.82c.5-.08.9-.15 1.3-.21-22.7 15.51-41.8 35.77-56.1 59.27l-16.8 3.2c-10.3 1.9-20.7-3.1-25.6-12.3L176 83.18l-17.2 32.42c-4.9 9.2-15.3 14.2-25.6 12.3l-36.02-6.8 14.62 33.7c3.3 9.6 1.6 20.8-6.4 27.7l-27.69 23.9 35.39 8.7c10.1 3.6 17.3 12.6 17.7 23.1l1.5 36.6 29.5-21.7c8.4-6.2 20-6.2 28.4 0l23.4 17.2c6.8 27.2 19.3 52.1 36.2 73.3-7.4 2.6-15.7.5-22.1-3.3l-51.7-38-51.7 38c-7.2 5.2-16.7 6.1-24.66 2.3-8-3.9-13.22-11.8-13.57-20.7l-2.52-64.2-61.99-17.6c-8.57-1.4-15.169-8.3-17.145-16.9a23.97 23.97 0 0 1 7.705-23.5l48.6-42-25.57-58.91a23.98 23.98 0 0 1 3.25-24.52 23.994 23.994 0 0 1 23.18-8.63l63.12 11.82 30.1-56.71c3.3-7.85 12.3-12.749 21.2-12.749V8z"/></svg>