<svg xmlns="http://www.w3.org/2000/svg" viewBox="0 0 512 512"><!--! Font Awesome Pro 6.1.1 by @fontawesome - https://fontawesome.com License - https://fontawesome.com/license (Commercial License) Copyright 2022 Fonticons, Inc.--><path d="M472 0h-96c-13.2 0-24 10.75-24 24s10.75 24 24 24h38.06l-43.01 43.01C340.2 64.28 300 48 256 48c-97.2 0-176 78.8-176 176 0 89.04 66.18 162.4 152 174.2V424h-24c-13.25 0-24 10.75-24 24s10.75 24 24 24h24v16c0 13.3 10.8 24 24 24s24-10.75 24-24v-16h24c13.25 0 24-10.75 24-24s-10.75-24-24-24h-24v-25.82C365.8 386.4 432 313 432 224c0-35.83-10.77-69.11-29.15-96.91L448 81.94V120c0 13.25 10.75 24 24 24s24-10.75 24-24V24c0-13.25-10.7-24-24-24zM256 352c-70.58 0-128-57.42-128-128S185.42 96 256 96s128 57.42 128 128-57.4 128-128 128z"/></svg>