<svg xmlns="http://www.w3.org/2000/svg" viewBox="0 0 512 512"><!--! Font Awesome Pro 6.1.1 by @fontawesome - https://fontawesome.com License - https://fontawesome.com/license (Commercial License) Copyright 2022 Fonticons, Inc.--><path d="m279.1 279.6 222.1-222C523.3 36.38 508.3 0 478.3 0H33.72c-30 0-45 36.38-23.75 57.63L128 175.7v.3h.336l103.6 103.6V463l-11.136 1H152c-13.2 0-24 10.8-24 24s10.8 24 24 24h208c13.25 0 24-10.75 24-24s-10.75-24-24-24h-78.09c-1.701-.22-3.203-1-4.965-1h3.02V279.6zM443.7 48l-80 80H148.2l-80-80h375.5zM255.1 235.8 196.2 176h119.5l-60.6 59.8z"/></svg>