<svg xmlns="http://www.w3.org/2000/svg" viewBox="0 0 576 512"><!--! Font Awesome Pro 6.1.1 by @fontawesome - https://fontawesome.com License - https://fontawesome.com/license (Commercial License) Copyright 2022 Fonticons, Inc.--><path d="M384 288c35.35 0 64-28.65 64-64v-96c0-35.35-28.65-64-64-64H64C28.65 64 0 92.65 0 128v96c0 35.35 28.65 64 64 64h78.03c29.37 0 54.96-19.99 62.09-48.48l4.359-17.43C210.5 214 217.2 209.1 224 209.1s13.5 4.04 15.52 12.12l4.359 17.43C251 268 276.6 288 305.1 288H384zm-93.6-60.1-4.3-17.5c-8-28.5-32.7-49.3-62.1-49.3s-55 20.8-62.1 49.3l-4.3 17.5c-1.8 7.1-8.2 12.1-15.6 12.1H64c-8.82 0-16-7.2-16-16v-96c0-8.822 7.178-16 16-16h320c8.822 0 16 7.178 16 16v96c0 8.822-7.178 16-16 16h-78.03c-7.37 0-13.77-5-15.57-12.1zM552 32c-13.25 0-24 10.75-24 24v320c0 48.53-39.47 88-88 88s-88-39.5-88-88c0-13.25-10.75-24-24-24s-24 10.75-24 24c0 75 61 136 136 136s136-61 136-136V56c0-13.25-10.7-24-24-24z"/></svg>