<svg xmlns="http://www.w3.org/2000/svg" viewBox="0 0 640 512"><!--! Font Awesome Pro 6.1.1 by @fontawesome - https://fontawesome.com License - https://fontawesome.com/license (Commercial License) Copyright 2022 Fonticons, Inc.--><path d="M432 192c8.8 0 16 7.2 16 16s-7.2 16-16 16H208c-8.8 0-16-7.2-16-16s7.2-16 16-16h224zm-240 80c0-8.8 7.2-16 16-16h224c8.8 0 16 7.2 16 16s-7.2 16-16 16H208c-8.8 0-16-7.2-16-16zm208 48c8.8 0 16 7.2 16 16s-7.2 16-16 16H240c-8.8 0-16-7.2-16-16s7.2-16 16-16h160zM0 269v-85c0-30.9 25.07-56 56-56h97.2c19 0 37.5-5.6 53.3-16.1l37.1-24.78C266.2 72.05 292.8 64 320 64c27.2 0 53.8 8.05 76.4 23.12l37.1 24.78a96.2 96.2 0 0 0 53.3 16.1H584c30.9 0 56 25.1 56 56v85c0 55.1-37.5 103.1-90.9 116.5l-108 27C406.2 434.1 364.6 448 320 448c-44.6 0-86.2-13.9-121.1-35.5l-108-27C37.48 372.1 0 324.1 0 269zm320-157c-17.7 0-35.9 5.2-49.8 15.1l-37.1 24.7c-23.6 15.8-51.4 24.2-79.9 24.2H144v48c0 59.5 29.5 112.1 74.7 143.9l3.1.8-.3 1.2c28.1 19 62 30.1 98.5 30.1s70.4-11.1 98.5-30.1l-.3-1.2 3.1-.8C466.5 336.1 496 283.5 496 224v-48h-9.2c-28.5 0-56.3-8.4-79.9-24.2l-37.1-24.7C355 117.2 337.7 112 320 112zM96 224v-48H56c-4.42 0-8 3.6-8 8v85c0 33.1 22.49 61.9 54.5 69.9l29.8 7.4c-22.9-35.1-37.2-77.2-37.2-122.3h.9zm496 45v-85c0-4.4-3.6-8-8-8h-40v48c0 45.1-13.4 87.2-36.3 122.3l29.8-7.4c32-8 54.5-36.8 54.5-69.9z"/></svg>