<svg xmlns="http://www.w3.org/2000/svg" viewBox="0 0 640 512"><!--! Font Awesome Pro 6.1.1 by @fontawesome - https://fontawesome.com License - https://fontawesome.com/license (Commercial License) Copyright 2022 Fonticons, Inc.--><path d="M248 361.3c0 21.8 9.2 41.2 24 54.5v58.6c-45.3-10.7-84-37.3-109.8-71.1l-71.3-17.8C37.48 372.1 0 324.1 0 269v-85c0-30.9 25.07-56 56-56h129.1c34.7-54.2 82.3-96 134.9-96 52.1 0 99.7 41.8 134.5 96H584c30.9 0 56 25.1 56 56v85c0 55.1-37.5 103.1-90.9 116.5l-71.6 17.9c-26 33.7-64.7 60.1-109.5 70.9v-58.6c14.7-13.3 24-32.6 24-54.4 0-21.5-9.2-53.7-25-80.5-7.8-13.2-16.4-23.9-25.1-31.1-8.7-7.1-16-10.6-22.8-10.6-6 0-12.6 3.5-21.2 10.6-8.7 7.2-17.3 17.9-25.1 31-15.7 26.8-25.7 59-25.7 80.6h.9zm-47.3 13.1c-.5-4.3-.7-8.6-.7-13.1 0-31.8 12.4-73.2 31.4-104.8 9.7-16.5 21.7-32.1 36-43.8 14.3-11.8 32.1-20.7 52.6-20.7 20.4 0 38.2 8.9 52.4 20.7 14.3 11.7 26.3 27.3 36 43.7 19.1 32.5 31.6 73 31.6 104.9 0 4.3-.2 8.6-.6 12.7 15.6-21.2 24.6-46.6 24.6-73.2 0-38.2-17.9-96.6-49.1-145.7-32.7-51.4-68.2-76-94.9-76-27.3 0-62.7 24.7-95.2 75-31.1 50-48.8 108.4-48.8 146.7 0 26.7 8.9 52.3 24.7 73.6zm304.9-27.5 31.9-8c32-8 54.5-36.8 54.5-69.9v-85c0-4.4-3.6-8-8-8H480.7c19.7 43.2 31.3 88.7 31.3 124.8 0 16-2.2 31.4-6.4 46.1zM56 176c-4.42 0-8 3.6-8 8v85c0 33.1 22.49 61.9 54.5 69.9l31.8 7.9c-4.1-14.6-7.2-30.1-7.2-46 0-36.1 12.3-81.6 32-124.8H56zm240 152c0-13.3 10.7-24 24-24s24 10.7 24 24v184h-48V328z"/></svg>