<svg xmlns="http://www.w3.org/2000/svg" viewBox="0 0 448 512"><!--! Font Awesome Pro 6.1.1 by @fontawesome - https://fontawesome.com License - https://fontawesome.com/license (Commercial License) Copyright 2022 Fonticons, Inc.--><path d="M428.2 290.4a31.953 31.953 0 0 0-34.87 6.937l-47.03 47.04L257.9 256l88.4-88.41 47.03 47.03a31.988 31.988 0 0 0 22.63 9.352 32.4 32.4 0 0 0 12.24-2.415 31.974 31.974 0 0 0 19.75-29.56V56c0-13.25-10.74-23.1-23.1-23.1h-135.1c-12.94 0-24.62 7.797-29.56 19.75a31.953 31.953 0 0 0 6.937 34.87l47.03 47.03L224 222.1l-88.4-88.4 47.03-47.03a31.984 31.984 0 0 0 9.362-22.63c0-4.117-.808-8.277-2.425-12.25a31.974 31.974 0 0 0-29.56-19.75H24C10.75 32.04.9 42.78.9 55.14v135.1c0 12.94 7.797 24.62 19.75 29.56a31.953 31.953 0 0 0 34.87-6.937l47.03-47.03L190.1 256l-88.41 88.41-47.06-47.01A31.986 31.986 0 0 0 32 288.033c-4.117 0-8.279.812-12.25 2.43A31.974 31.974 0 0 0 0 320.023v135.1c0 13.25 10.74 23.1 23.1 23.1h135.1c12.94 0 24.62-7.797 29.56-19.75a31.953 31.953 0 0 0-6.937-34.87l-47.03-47.03 88.41-88.41 88.4 88.41-47.03 47.02c-6.117 6.129-9.351 14.3-9.351 22.64 0 4.117.797 8.271 2.414 12.24a31.974 31.974 0 0 0 29.56 19.75h135.1c13.25 0 23.1-10.74 23.1-23.1V319.1c2.704-12-4.196-23.7-16.196-28.7z"/></svg>