<svg xmlns="http://www.w3.org/2000/svg" viewBox="0 0 576 512"><!--! Font Awesome Pro 6.1.1 by @fontawesome - https://fontawesome.com License - https://fontawesome.com/license (Commercial License) Copyright 2022 Fonticons, Inc.--><path d="M476 68.42C431.5 23.93 377.1 0 331.1 0c-38.63 0-62.01 18.98-68.76 25.86C223.7 64.47 160.1 139.6 160.1 209.4l-.1 100.4-8.556 8.544c-9.627 9.75-24.01 11.12-36.76 5.999-26.63-10.62-57.01-.998-72.76 22.88-15.75 23.87-12.5 55.61 7.75 75.86 15.25 15.25 36.5 19.62 56.13 15.12-4.5 19.5-.129 40.8 15.12 56.05 20.25 20.37 51.97 23.59 75.97 7.839 23.88-15.75 33.56-46.08 22.81-72.83-5.002-12.62-3.627-26.99 6-36.74l8.582-8.522 100.5-.022c81.88 0 181.2-94.51 190.5-111.1C562.7 223.3 542.8 135.2 476 68.42zM334.8 335.9h-94.7c-17.67 0-32-14.33-32-32v-94.4c0-22.87 11.75-51.74 32.38-82.73 8.625 39.37 31.38 79.11 64.76 112.5 33.25 33.24 73.51 55.99 112.1 64.49-31.04 20.54-59.74 32.14-82.54 32.14zm149.9-88.1c-23.5 23.5-89.85 13.11-145.6-42.63-53.75-53.74-67.37-120.8-42.74-145.5 23.5-23.37 89.73-13.14 145.6 42.72C495.9 156.2 508.1 223.6 484.7 247.8zM363.9 127.2c-9.75 9.748-5.874 29.62 8.878 44.37 14.75 14.62 34.6 18.62 44.48 8.871 9.75-9.873 5.791-29.75-8.961-44.37C393.6 121.3 373.7 117.3 363.9 127.2z"/></svg>