<svg xmlns="http://www.w3.org/2000/svg" viewBox="0 0 512 512"><!--! Font Awesome Pro 6.1.1 by @fontawesome - https://fontawesome.com License - https://fontawesome.com/license (Commercial License) Copyright 2022 Fonticons, Inc.--><path d="m342.1 289.6-52.4-7.6-23.5-47.5c-2-4.25-6.125-6.375-10.25-6.375s-8.05 2.175-10.25 6.375L222.2 282l-52.37 7.625C160.5 291 156.6 302.6 163.5 309.3l37.87 37-8.87 52.2c-1.375 7.375 4.625 13.38 11.25 13.38 1.75 0 3.625-.375 5.375-1.375l46.87-24.62 46.87 24.62c1.75 1 3.625 1.375 5.375 1.375 6.625 0 12.62-6 11.25-13.5l-8.875-52.13 37.87-37C355.4 302.6 351.6 291 342.1 289.6zM256 144c-101.6 0-183.1 82.38-183.1 184S154.4 512 256 512s183.1-82.38 183.1-184S357.6 144 256 144zm0 320c-74.99 0-135.1-61.01-135.1-136S181 192 256 192s135.1 61.01 135.1 136-61 136-135.1 136zM135.9 148.5 68.84 48h69.22l44.13 77.22c15.49-5.641 31.73-9.672 48.65-11.63L172.8 12.09C168.6 4.625 160.6 0 152 0H24.01C15.166 0 6.98 4.992 2.79 12.8-1.4 20.59-.874 29.94 4.032 37.31L99.07 179.9c11.13-11.8 23.33-22.4 36.83-31.4zM509.2 12.8C505 4.992 496.8 0 487.1 0H360a24.021 24.021 0 0 0-20.84 12.09l-57.99 101.5c16.91 1.961 33.16 5.992 48.65 11.63L373.9 48h69.22l-67.01 100.5c13.45 9.02 25.7 19.63 36.78 31.36l95.04-142.6c4.97-7.32 5.47-16.67 1.27-24.46z"/></svg>