<svg xmlns="http://www.w3.org/2000/svg" viewBox="0 0 512 512"><!--! Font Awesome Pro 6.1.1 by @fontawesome - https://fontawesome.com License - https://fontawesome.com/license (Commercial License) Copyright 2022 Fonticons, Inc.--><path d="M256 0C114.6 0 0 114.6 0 256c0 70.71 28.66 134.7 74.1 181 .002.002-.002-.002 0 0s-.002-.002 0 0c47.2 46.3 111.2 75 181.9 75 141.4 0 256-114.6 256-256S397.4 0 256 0zm146.9 172.1c-13.84 46.17-45.93 96.06-90.34 140.5-67.1 67.07-138.4 97.09-179.3 97.09-6.387 0-17.67-.87-23.64-6.092-.29-.287-.592-.56-.879-.848-7.023-7.428-9.643-29.52.35-62.81 13.84-46.17 45.93-96.06 90.34-140.5 67.09-67.08 138.4-97.11 179.3-97.11 6.357 0 17.58.856 23.58 6.037.3.3.619.578.918.88C410.3 116.6 412.9 138.8 402.9 172.1zM256 48c26.09 0 50.98 5.039 74.01 13.85-51.97 14.85-112 51.13-164.5 103.6C115.6 215.4 79.2 272.5 63.11 326.1c-.486 1.621-.547 3.008-.992 4.607C53.13 307.5 48 282.4 48 256c0-114.7 93.3-208 208-208zm0 416c-26.1 0-50.98-5.039-74.02-13.85 51.98-14.85 112-51.12 164.5-103.6 49.93-49.94 86.29-106.1 102.4-160.6.488-1.625.549-3.014.994-4.617C458.9 204.5 464 229.6 464 256c0 114.7-93.3 208-208 208z"/></svg>