<svg xmlns="http://www.w3.org/2000/svg" viewBox="0 0 576 512"><!--! Font Awesome Pro 6.1.1 by @fontawesome - https://fontawesome.com License - https://fontawesome.com/license (Commercial License) Copyright 2022 Fonticons, Inc.--><path d="M320 48H63.1c-7.94 0-16 7.16-16 16v384c0 8.8 8.06 16 16 16h221.4c12 18.4 27.4 34.5 45.2 47.3-3.1.4-6.4.7-9.7.7H64c-35.35 0-64-28.7-64-64V64C0 28.65 28.65 0 64 0h256c35.3 0 64 28.65 64 64v134.6c-17.2 4.9-33.4 12.3-48 21.9V63.1c0-7.94-7.2-16-16-16v.9zM95.1 152c0-13.3 11.6-24 24-24h144c14.2 0 24 10.7 24 24s-9.8 24-24 24h-144c-12.4 0-24-10.7-24-24zm168 72c14.2 0 24 10.7 24 24s-9.8 24-24 24h-144c-12.4 0-24-10.7-24-24s11.6-24 24-24h144zm-96 96c14.2 0 24 10.7 24 24s-9.8 24-24 24h-48c-12.4 0-24-10.7-24-24s11.6-24 24-24h48zM576 368c0 79.5-64.5 144-144 144s-144.9-64.5-144.9-144S352.5 224 432 224s144 64.5 144 144zm-99.3-43.3L416 385.4l-28.7-28.7c-6.2-6.3-16.4-6.3-22.6 0-6.3 6.2-6.3 16.4 0 22.6l40 40c6.2 6.3 16.4 6.3 22.6 0l72-72c6.3-6.2 6.3-16.4 0-22.6-6.2-6.3-16.4-6.3-22.6 0z"/></svg>