<svg xmlns="http://www.w3.org/2000/svg" viewBox="0 0 384 512"><!--! Font Awesome Pro 6.1.1 by @fontawesome - https://fontawesome.com License - https://fontawesome.com/license (Commercial License) Copyright 2022 Fonticons, Inc.--><path d="M264 224H120c-13.2 0-24 10.8-24 24s10.8 24 24 24h144c13.3 0 24-10.7 24-24s-10.7-24-24-24zm-96 96h-48c-13.2 0-24 10.8-24 24s10.75 24 24 24h48c13.25 0 24-10.75 24-24s-10.7-24-24-24zm96-192H120c-13.2 0-24 10.8-24 24s10.8 24 24 24h144c13.3 0 24-10.7 24-24s-10.7-24-24-24zM320 0H64C28.65 0 0 28.65 0 64v384c0 35.35 28.65 64 64 64h256c35.35 0 64-28.65 64-64V64c0-35.35-28.7-64-64-64zm16 448c0 8.822-7.178 16-16 16H64c-8.822 0-16-7.178-16-16V64c0-8.822 7.178-16 16-16h256c8.822 0 16 7.178 16 16v384z"/></svg>