<svg xmlns="http://www.w3.org/2000/svg" viewBox="0 0 640 512"><!--! Font Awesome Pro 6.1.1 by @fontawesome - https://fontawesome.com License - https://fontawesome.com/license (Commercial License) Copyright 2022 Fonticons, Inc.--><path d="M416 95.1c17.62 0 32-14.38 32-32S416 0 416 0s-32 46.37-32 63.1 14.4 32 32 32zm96 32.9c-13.25 0-24 10.74-24 24v136h48V152c0-13.3-10.7-24-24-24zm96-32.9c17.62 0 32-14.38 32-32S608 0 608 0s-32 46.37-32 63.1 14.4 32 32 32zm-96 0c17.62 0 32-14.38 32-32S512 0 512 0s-32 46.37-32 63.1 14.4 32 32 32zm-192 0c17.62 0 32-14.38 32-32S320 0 320 0s-32 46.37-32 63.1 14.4 32 32 32zm96 32.9c-13.25 0-24 10.74-24 24v136h48V152c0-13.3-10.7-24-24-24zM32 95.1c17.62 0 32-14.38 32-32S32 0 32 0 0 46.37 0 63.1s14.38 32 32 32zM616 128c-13.25 0-24 10.74-24 24v128c0 22.09-17.91 40-40 40H344V152c0-13.3-10.7-24-24-24s-24 10.7-24 24v168H88c-22.09 0-40-17.9-40-40V152c0-13.3-10.75-24-24-24S0 138.7 0 152v128c0 48.6 39.4 88 88 88h208v96H152c-13.3 0-24 10.7-24 24s10.7 24 24 24h336c13.25 0 24-10.75 24-24 0-13.26-10.75-24-24-24H344v-96h208c48.6 0 88-39.4 88-88V152c0-13.3-10.7-24-24-24zM224 95.1c17.62 0 32-14.38 32-32S224 0 224 0s-32 46.37-32 63.1 14.4 32 32 32zM128 128c-13.3 0-24 10.7-24 24v136h48V152c0-13.3-10.7-24-24-24zm0-32.9c17.62 0 32-14.38 32-32S128 0 128 0 96 46.37 96 63.1s14.4 32 32 32zm96 32.9c-13.3 0-24 10.7-24 24v136h48V152c0-13.3-10.7-24-24-24z"/></svg>