<svg xmlns="http://www.w3.org/2000/svg" viewBox="0 0 384 512"><!--! Font Awesome Pro 6.1.1 by @fontawesome - https://fontawesome.com License - https://fontawesome.com/license (Commercial License) Copyright 2022 Fonticons, Inc.--><path d="M368 223.1c0-66.11-36.5-123.7-90.41-153.7 12.86-8.207 25.01-18.11 36-29.96 9-9.719 8.438-24.91-1.281-33.91-9.656-9-24.91-8.438-33.91 1.281-48.25 52-124.6 52-172.8 0-9-9.719-24.25-10.28-33.91-1.281C61.97 15.4 61.41 30.58 70.41 40.3c10.99 11.85 23.14 21.76 36 29.96C52.5 100.3 16 157.9 16 223.1c0 89.04 66.18 162.4 152 174.2v25.82h-32c-13.25 0-24 10.75-24 24s10.75 24 24 24h32v16c0 14.08 10.8 24.88 24 24.88s24-10.75 24-24v-16h32c13.25 0 24-10.75 24-24s-10.75-24-24-24h-32v-25.82C301.8 386.4 368 313 368 223.1zm-304 0c0-70.58 57.42-128 128-128s128 57.42 128 128-57.42 128-128 128-128-56.5-128-128z"/></svg>