<svg xmlns="http://www.w3.org/2000/svg" viewBox="0 0 512 512"><!--! Font Awesome Pro 6.1.1 by @fontawesome - https://fontawesome.com License - https://fontawesome.com/license (Commercial License) Copyright 2022 Fonticons, Inc.--><path d="M0 88c0-13.25 10.75-24 24-24h120.2c17.4 0 33.9 8.16 44.5 22.06L297.5 228.8c.6 2 3.9 3.2 6.3 3.2h126.3L391 192.1c-9.3-8.5-9.3-23.7 0-33.1 9.4-9.3 24.6-9.3 33.1 0l80 80c10.2 9.4 10.2 24.6 0 33.1l-80 80c-8.5 10.2-23.7 10.2-33.1 0-9.3-8.5-9.3-23.7 0-33.1l39.1-39H303.8c-2.4 0-5.7 1.2-6.3 3.2L188.7 425.9c-10.6 13.9-27.1 22.1-44.5 22.1H24c-13.25 0-24-10.7-24-24s10.75-24 24-24h120.2c2.4 0 4.8-1.2 6.3-3.2L257.8 256 150.5 115.2c-1.5-2-3.9-3.2-6.3-3.2H24c-13.25 0-24-10.7-24-24z"/></svg>