<svg xmlns="http://www.w3.org/2000/svg" viewBox="0 0 512 512"><!--! Font Awesome Pro 6.1.1 by @fontawesome - https://fontawesome.com License - https://fontawesome.com/license (Commercial License) Copyright 2022 Fonticons, Inc.--><path d="M447.1.004h-384c-35.25 0-64 28.75-64 63.1v287.1c0 35.25 28.75 63.1 64 63.1h96v83.99c0 9.836 11.02 15.55 19.12 9.7l124.9-93.69h144c35.25 0 64-28.75 64-63.1V63.1C511.1 28.75 483.2.004 447.1.004zM464 352c0 8.75-7.25 16-16 16H288l-80 60v-60H64c-8.75 0-16-7.25-16-16V64c0-8.75 7.25-16 16-16h384c8.75 0 16 7.25 16 16v288zM320 175.1c17.75 0 32-14.25 32-31.1s-14.25-32-31.1-32-31.1 14.25-31.1 32 12.5 31.1 30.2 31.1zm-128 0c17.75 0 32-14.25 32-31.1s-14.25-32-31.1-32-31.1 14.25-31.1 32 12.5 31.1 30.2 31.1zm133.8 65.2C308.5 260.4 283.2 272 256 272c-27.12 0-52.49-11.62-69.74-31.75-8.56-10.15-23.86-11.25-33.86-2.75-10.1 8.6-11.1 23.8-2.6 33.8 26.5 31 65.09 48.74 106.2 48.74 41.12 0 79.76-17.74 106.3-48.74 8.5-10 7.375-25.12-2.75-33.75-10.05-8.65-25.15-7.45-33.75 2.75z"/></svg>