<svg xmlns="http://www.w3.org/2000/svg" viewBox="0 0 512 512"><!--! Font Awesome Pro 6.1.1 by @fontawesome - https://fontawesome.com License - https://fontawesome.com/license (Commercial License) Copyright 2022 Fonticons, Inc.--><path d="M336 176h-48v-48c0-8.801-7.199-16-16-16h-32c-8.8 0-16 7.2-16 16v48h-48c-8.8 0-16 7.2-16 15.1V224c0 8.797 7.199 15.1 16 15.1h48v48c0 9.7 7.2 16.9 16 16.9h32c8.801 0 16-7.201 16-16v-48h48c8.8-.9 16-7.2 16-16v-32.9c0-7.9-7.2-15.1-16-15.1zM447.1 0h-384C27.85 0-.9 28.75-.9 63.1v287.1c0 35.25 28.75 63.1 64 63.1h96v83.1c0 9.836 11.02 15.5 19.12 9.65l124.9-93.65h144c35.25 0 64-28.75 64-63.1V63.1C511.1 28.75 483.2 0 447.1 0zM464 352c0 8.75-7.25 16-16 16H288l-80 60v-60H64c-8.75 0-16-7.25-16-16V64c0-8.75 7.25-16 16-16h384c8.75 0 16 7.25 16 16v288z"/></svg>