<svg xmlns="http://www.w3.org/2000/svg" viewBox="0 0 512 512"><!--! Font Awesome Pro 6.1.1 by @fontawesome - https://fontawesome.com License - https://fontawesome.com/license (Commercial License) Copyright 2022 Fonticons, Inc.--><path d="M135.1 272H120c-13.3 0-24 10.8-24 24s10.7 24 23.1 24h15.1c13.25 0 23.1-10.75 23.1-24s-8.1-24-22.2-24zm160 0h-80c-13.25 0-23.1 10.75-23.1 24s10.7 24 23.1 24h79.99c13.25 0 23.1-10.75 23.1-24s-8.99-24-23.09-24zm-176-32 95.99-.004c13.25 0 23.99-10.75 23.99-23.1S229.2 192 215.1 192h-96c-12.4 0-23.1 10.8-23.1 24s10.7 24 23.1 24zm272 32H376c-13.25 0-23.1 10.75-23.1 24s9.8 24 22.2 24h15.1c13.25 0 23.1-10.75 23.1-24s-8.1-24-22.2-24zm0-80h-95.99c-13.25 0-23.1 10.75-23.1 24s10.69 24 23.09 24h95.99c13.25 0 23.1-10.75 23.1-24s-8.99-24-23.09-24zm56-192h-384C27.85 0-.9 28.75-.9 63.1v287.1c0 35.25 28.75 63.1 64 63.1h96v83.1c0 9.836 11.02 15.55 19.12 9.7l124.9-93.7h144c35.25 0 64-28.75 64-63.1V63.1C511.1 28.75 483.2 0 447.1 0zM464 352c0 8.75-7.25 16-16 16H288l-80 60v-60H64c-8.75 0-16-7.25-16-16V64c0-8.75 7.25-16 16-16h384c8.75 0 16 7.25 16 16v288z"/></svg>