<svg xmlns="http://www.w3.org/2000/svg" viewBox="0 0 512 512"><!--! Font Awesome Pro 6.1.1 by @fontawesome - https://fontawesome.com License - https://fontawesome.com/license (Commercial License) Copyright 2022 Fonticons, Inc.--><path d="M176 160c17.62 0 32-14.38 32-32s-14.38-32-32-32-32 14.38-32 32 14.4 32 32 32zm135.1-24.9c-2.1-4.4-7.1-7.1-12.4-7.1s-10.35 2.672-13.31 7.125L231.8 215.4l-12.2-16.8c-3-4.2-7.8-6.6-12.9-6.6s-9.9 2.4-13 6.6l-46.67 64a15.997 15.997 0 0 0-1.334 16.68C148.5 284.6 153.1 288 160 288h224c5.9 0 11.32-3.246 14.11-8.449a16.01 16.01 0 0 0-.795-16.43L311.1 135.1zM447.1.004h-384c-35.25 0-64 28.75-64 63.1v287.1c0 35.25 28.75 63.1 64 63.1h96v83.98c0 9.836 11.02 15.55 19.12 9.7l124.9-93.68h144c35.25 0 64-28.75 64-63.1V63.1C511.1 28.75 483.2.004 447.1.004zM464 352c0 8.75-7.25 16-16 16H288l-80 60v-60H64c-8.75 0-16-7.25-16-16V64c0-8.75 7.25-16 16-16h384c8.75 0 16 7.25 16 16v288z"/></svg>