<svg xmlns="http://www.w3.org/2000/svg" viewBox="0 0 512 512"><!--! Font Awesome Pro 6.1.1 by @fontawesome - https://fontawesome.com License - https://fontawesome.com/license (Commercial License) Copyright 2022 Fonticons, Inc.--><path d="M274.5 111c-9.375-9.375-24.56-9.375-33.94 0l-80 80c-9.375 9.375-9.375 24.56 0 33.94s24.56 9.375 33.94 0l39-39.04V288c0 13.25 10.75 24 24 24s24-10.75 24-24V185.9l39.03 39.03c4.67 4.77 10.77 7.07 16.97 7.07s12.28-2.344 16.97-7.031c9.375-9.375 9.375-24.56 0-33.94L274.5 111zM448 0H64C28.75 0 0 28.75 0 63.1v287.1c0 35.25 28.75 63.1 64 63.1h96v83.1c0 9.836 11.02 15.55 19.12 9.7l124.88-91h144c35.25 0 64-28.75 64-63.1V63.1C512 28.75 483.3 0 448 0zm16 352c0 8.75-7.25 16-16 16H288l-80 60v-60H64c-8.75 0-16-7.25-16-16V64c0-8.75 7.25-16 16-16h384c8.75 0 16 7.25 16 16v288z"/></svg>