<svg xmlns="http://www.w3.org/2000/svg" viewBox="0 0 512 512"><!--! Font Awesome Pro 6.1.1 by @fontawesome - https://fontawesome.com License - https://fontawesome.com/license (Commercial License) Copyright 2022 Fonticons, Inc.--><path d="M331.3 96.75 203.3 144c-6.8 2.1-11.3 8.3-11.3 15.3v98.75c-5.2-1.35-10.6-2.95-16.9-2.95-26.5 0-48 14.37-48 31.1s21.5 31.1 48 31.1 47.1-14.37 47.1-31.1l1.8-83.1 96-37.5v60.38c-5.25-1.25-10.63-2.005-16-2.005-26.5 0-48 14.37-48 31.1s21.5 31.1 48 31.1 48-14.37 48-31.1V112c0-5.125-2.375-9.875-6.5-12.88s-9.4-3.87-14.2-2.37zM447.1.007h-384c-35.25 0-64 28.75-64 63.1v287.1c0 35.25 28.75 63.1 64 63.1h96v83.1c0 9.836 11.02 15.55 19.12 9.7l124.9-93.7h144c35.25 0 64-28.75 64-63.1V64C511.1 28.75 483.2.007 447.1.007zM464 352c0 8.75-7.25 16-16 16H288l-80 60v-60H64c-8.75 0-16-7.25-16-16V64c0-8.75 7.25-16 16-16h384c8.75 0 16 7.25 16 16v288z"/></svg>