<svg xmlns="http://www.w3.org/2000/svg" viewBox="0 0 512 512"><!--! Font Awesome Pro 6.1.1 by @fontawesome - https://fontawesome.com License - https://fontawesome.com/license (Commercial License) Copyright 2022 Fonticons, Inc.--><path d="M447.1.004h-384c-35.25 0-64 28.75-64 63.1v287.1c0 35.25 28.75 63.1 64 63.1h96v83.98c0 9.836 11.02 15.55 19.12 9.7l124.9-93.68h144c35.25 0 64-28.75 64-63.1V63.1C511.1 28.75 483.2.004 447.1.004zM464 352c0 8.75-7.25 16-16 16H288l-80 60v-60H64c-8.75 0-16-7.25-16-16V64c0-8.75 7.25-16 16-16h384c8.75 0 16 7.25 16 16v288zM327.1 112c-30.93 0-56 25.07-56 55.1s25.07 55.1 56 55.1c2.74 0 5.375-.426 8.01-.807V232c.89 13.2-9.91 24-23.11 24s-24 10.8-24 24 10.75 23.1 23.1 23.1c39.7 0 72-32.3 72-71.1l-.01-63.1c.01-31.8-24.19-56.9-55.99-56.9zm-144 0c-30.93 0-56 25.07-56 55.1s25.07 55.1 56 55.1c2.74 0 5.375-.426 8.01-.807V232c.89 13.2-9.91 24-23.11 24s-24 10.8-24 24 10.75 23.1 23.1 23.1c39.7 0 71.1-32.3 71.1-71.1l.9-64c0-30.9-24.2-56-56-56z"/></svg>