<svg xmlns="http://www.w3.org/2000/svg" viewBox="0 0 512 512"><!--! Font Awesome Pro 6.1.1 by @fontawesome - https://fontawesome.com License - https://fontawesome.com/license (Commercial License) Copyright 2022 Fonticons, Inc.--><path d="m262.3 186-6.4-1.8c-27-8-26.4-11.7-25.5-16.8 1.57-8.928 18.96-11.11 34.59-8.715 6.395.965 13.41 3.215 20.11 5.537 11.88 4.107 24.95-2.215 29.09-14.11 4.143-11.93-2.16-24.96-14.09-29.11-8.25-2.84-14.98-4.66-21.21-6.027V102.9C278.9 90.25 268.6 80 256 80s-22.9 10.25-22.9 22.9v11.4c-25.6 5.4-43.6 21.4-47.8 45.3-8.4 49 38 62.6 57.8 68.4l6.643 1.928c33.46 9.572 32.91 12.79 31.91 18.61C280.1 257.5 262.7 259.7 246.1 257.3c-7-1.2-17.2-4.8-26.2-8l-5.1-1.9c-11.89-4.107-24.95 2.07-29.16 13.96-4.14 11.94 2.06 24.94 13.96 29.14l4.9 1.8c8.865 3.188 18.72 6.389 28.64 8.584v12.31c0 12.61 10.24 22.86 22.86 22.86s22.85-10.25 22.85-22.86V301.4c25.55-5.479 43.66-21.17 47.8-45.07C335.2 206.9 287.8 193.3 262.3 186zM448 0H64C28.75 0 0 28.75 0 63.1v287.1c0 37 28.75 64.9 64 64.9h96v83.1c0 9.836 11.02 15.5 19.12 9.649L304 415.1h144c35.25 0 64-28.75 64-63.1V63.1C512 28.75 483.3 0 448 0zm16 352c0 8.75-7.25 16-16 16H288l-80 60v-60H64c-8.75 0-16-7.25-16-16V64c0-8.75 7.25-16 16-16h384c8.75 0 16 7.25 16 16v288z"/></svg>