<svg xmlns="http://www.w3.org/2000/svg" viewBox="0 0 640 512"><!--! Font Awesome Pro 6.1.1 by @fontawesome - https://fontawesome.com License - https://fontawesome.com/license (Commercial License) Copyright 2022 Fonticons, Inc.--><path d="m207.1 142.1 5.6 1.4c19.1 4.6 54.7 15.7 47.4 52.8-2.2 17.9-15.8 28.8-35 33.8v8.8c0 9.4-7.6 17.1-17.1 17.1-9.5 0-17.1-7.7-17.1-17.1v-9.3c-7.5-2.5-14.9-4-21.5-6.4l-3.7-1.3c-8.9-3.2-13.6-13-10.4-21.9 3.1-8.9 12.9-13.5 21.8-10.5l3 1.4.9-.8c6.7 3.3 14.3 6 20.2 6 10.9 2.7 24.8 1 26-5.7-.1-4.3 1.2-6.7-23.9-13.9l-5-1.5c-14.9-4.3-49.6-14.6-43.3-51.3 3.1-17.9 16.6-29.91 35.9-33.99v-8.57c0-9.45 7.6-18.04 17.1-18.04 9.5 0 17.1 8.59 17.1 18.04v9.12c4.7 1.02 9.8 2.39 16 4.52 8.9 3.1 13.6 12.92 10.5 21.82-3.1 8.9-12.9 13.7-21.8 10.6-5-1.8-10.3-3.4-15.1-4.2-11.7-1.8-25.6-.1-25.9 6.6-.7 3.8-1.1 6.6 18.3 12.5zM352 319.9l-128 .1-108.9 61.6c-2.2 1.7-4.7 2.4-7.1 2.4-6.2 0-12-4.9-12-12v-52H64c-35.25 0-64-28.7-64-64V63.1C0 28.75 28.75 0 64 0h288c35.3 0 64 28.75 64 63.1V256c0 35.3-28.7 63.9-64 63.9zm0-47.9c8.7 0 16-7.2 16-16V64c0-8.75-7.3-16-16-16H64c-8.75 0-16 7.25-16 16v192c0 8.8 7.25 16 16 16h80v38.1l67.4-38.1H352zm-48 80v32c0 8.7 7.2 16 16 16h108.6l67.4 38.1V400h80c8.7 0 16-7.3 16-16V192c0-8.8-7.3-16-16-16H448v-48h128c35.3 0 64 28.7 64 63.1V384c0 35.3-28.7 64-64 64h-32v52c0 7.1-5.8 12-12 12-2.4 0-4.9-.7-7.1-2.4L416 448l-96-.1c-35.2 0-64-28.6-64-63.9v-32h48z"/></svg>