<svg xmlns="http://www.w3.org/2000/svg" viewBox="0 0 512 512"><!--! Font Awesome Pro 6.1.1 by @fontawesome - https://fontawesome.com License - https://fontawesome.com/license (Commercial License) Copyright 2022 Fonticons, Inc.--><path d="M448 0H64C28.75 0 0 28.75 0 63.1v287.1c0 35.25 28.75 63.1 64 63.1h96v83.98c0 9.836 11.02 15.55 19.12 9.7L304 415.1h144c35.25 0 64-28.75 64-63.1V63.1C512 28.75 483.3 0 448 0zm16 352c0 8.75-7.25 16-16 16H288l-80 60v-60H64c-8.75 0-16-7.25-16-16V64c0-8.75 7.25-16 16-16h384c8.75 0 16 7.25 16 16v288zM124.4 192.6c-10.8-3.1-21.2-5.4-20.2-11.1.781-4.5 10.28-6.562 21.5-4.906 4.156.656 8.75 2.094 13.09 3.594 8.375 2.906 17.47-1.562 20.34-9.906 2.875-8.344-1.562-17.47-9.906-20.34C143.1 147.8 136.5 145.9 130.6 145c-30.69-4.812-53.94 7.719-58 31.09-5.656 33.03 26.5 42.47 38.63 46 13.72 3.947 25.62 6.432 24.56 12.34-.79 4.57-10.09 6.67-21.49 4.97-6.4-1-13.9-4-20.92-6.5-8.375-2.969-16 1.875-18.97 10.19s2.78 18.01 11.09 21.01c7.31 2.7 15.6 5.7 23.9 6.9 4.3.7 8.5 1 11.7 1 24.28 0 41.94-12.03 45.38-32.13 6.62-33.37-25.08-42.37-42.08-47.27zm272 0c-10.8-3.1-21.2-5.4-20.2-11.1.781-4.5 10.31-6.562 21.5-4.906 4.156.656 8.75 2.094 13.09 3.594 8.406 2.906 17.47-1.562 20.34-9.906 2.875-8.344-1.562-17.47-9.906-20.34-6.156-2.125-12.69-4.062-18.59-4.969-30.75-4.812-53.97 7.719-58 31.09-5.656 33.03 26.5 42.47 38.63 46 13.72 3.947 25.62 6.432 24.56 12.34-.781 4.562-10.12 6.656-21.56 4.938-6.342-.988-13.9-3.939-20.88-6.438-8.375-2.969-16 1.875-18.97 10.19s2.781 17.97 11.09 20.97c7.312 2.656 15.62 5.656 23.88 6.906C385.7 271.7 389.9 272 393.1 272c24.28 0 41.94-12.03 45.38-32.13 6.62-33.37-25.08-42.37-42.08-47.27zm-87.3-47.8c-6.469-2.062-13.72.063-17.88 5.594L256 197.3l-35.2-46.9c-4.1-5.5-11.4-7.7-17.9-5.6-6.5 2.2-10.9 8.3-10.9 15.2v96c0 8.844 7.156 16 16 16s16-7.2 16-16v-48l19.19 25.59c6.062 8.062 19.56 8.062 25.62 0L288 208v48c0 8.844 7.156 16 16 16s16-7.2 16-16v-96c0-6.9-4.4-13-10.9-15.2z"/></svg>