<svg xmlns="http://www.w3.org/2000/svg" viewBox="0 0 640 512"><!--! Font Awesome Pro 6.1.1 by @fontawesome - https://fontawesome.com License - https://fontawesome.com/license (Commercial License) Copyright 2022 Fonticons, Inc.--><path d="M188 224c0-11.9 8.1-20 20-20 11 0 20 8.1 20 20 0 11-9 20-20 20-11.9 0-20-9-20-20zm3.1-152h30.7c26.1 0 47.4 21.27 47.4 47.4 0 18.1-10.1 34.4-27.1 42.4l-19 9.5v4.7c0 8.8-6.3 16-16 16-7.9 0-16-7.2-16-16v-14.6c0-6.1 4.3-11.6 9.7-14.3l27.9-13.9c5.2-2.6 8.5-7.9 8.5-13.8 0-8.5-6.9-15.4-15.4-15.4h-30.7c-6.8 0-12.3 5.5-12.3 12.2 0 8.9-7.1 16-16 16-9.7 0-16-7.1-16-16 0-24.36 19.9-44.2 44.3-44.2zM352 319.9l-128 .1-108.9 61.6c-2.2 1.7-4.7 2.4-7.1 2.4-6.2 0-12-4.9-12-12v-52H64c-35.25 0-64-28.7-64-64V63.1C0 28.75 28.75 0 64 0h288c35.3 0 64 28.75 64 63.1V256c0 35.3-28.7 63.9-64 63.9zm0-47.9c8.7 0 16-7.2 16-16V64c0-8.75-7.3-16-16-16H64c-8.75 0-16 7.25-16 16v192c0 8.8 7.25 16 16 16h80v38.1l67.4-38.1H352zm-48 80v32c0 8.7 7.2 16 16 16h108.6l67.4 38.1V400h80c8.7 0 16-7.3 16-16V192c0-8.8-7.3-16-16-16H448v-48h128c35.3 0 64 28.7 64 63.1V384c0 35.3-28.7 64-64 64h-32v52c0 7.1-5.8 12-12 12-2.4 0-4.9-.7-7.1-2.4L416 448l-96-.1c-35.2 0-64-28.6-64-63.9v-32h48z"/></svg>