<svg xmlns="http://www.w3.org/2000/svg" viewBox="0 0 512 512"><!--! Font Awesome Pro 6.1.1 by @fontawesome - https://fontawesome.com License - https://fontawesome.com/license (Commercial License) Copyright 2022 Fonticons, Inc.--><path d="M510.5 42.84c-8.501 28.25-29.13 94.62-52.38 153.1 10.38 4 18.5 12.12 22.38 22.38 3.875 10.38 3.25 21.75-1.875 31.5-22 42.13-79.38 146.4-136.4 203.4-78.38 78.38-205.3 78.38-283.7 0-78.13-78.12-78.13-205.4 0-283.5 57.26-57.13 161.3-114.3 203.5-136.3 9.751-5.125 21.25-5.875 31.5-1.1s18.38 11.1 22.38 22.25c58.26-23.13 124.9-43.75 153.3-52.25 11.75-3.625 24.5-.375 33.13 8.25C511 18.34 514.1 31.09 510.5 42.84zM393.4 226.7l10.75-24.88c20.5-47.88 40.13-107.5 52.38-146.4-38.88 12.25-98.76 32-146.3 52.5l-25 10.62s-9.876-33.75-11-37.38c-39.88 21.25-132.5 73.25-181.6 122.4-59.38 59.5-59.38 156.3 0 215.6 28.63 28.63 67.38 44.75 107.9 44.75 40.38 0 79.26-16.12 107.8-44.75 48.5-48.37 98.63-136.7 122.5-181.5-3.625-1-7.376-2.125-11.38-3.375L393.4 226.7zm-82.3 84.4c0 61.88-50.13 112-112 112s-112-50.13-112-112 50.25-112 112-112c62.8 0 112 51 112 112zm-112-24c0-13.25-10.75-24-24-24s-24 10.75-24 24 10.75 24 24 24c6.376 0 12.5-2.5 17-7 5.4-3.6 7-9.8 7-17zm32 72c0-8.875-7.126-16-16-16-8.751 0-16 7.125-16 16s7.251 16 16 16c9.8 0 16-6.3 16-16z"/></svg>