<svg xmlns="http://www.w3.org/2000/svg" viewBox="0 0 640 512"><!--! Font Awesome Pro 6.1.1 by @fontawesome - https://fontawesome.com License - https://fontawesome.com/license (Commercial License) Copyright 2022 Fonticons, Inc.--><path d="M328 128c-8.836 0-16 7.164-16 16v64c0 8.836 7.164 16 16 16h16c8.836 0 16-7.164 16-16v-64c0-8.836-7.164-16-16-16h-16zm-72 336c-114.7 0-208-93.31-208-208S141.3 48 256 48c94.71 0 174.7 63.7 199.7 150.5.87-.816 1.646-1.707 2.523-2.52l21.7-20.12 21.73 20.06c1.402 1.293 2.586 2.785 3.971 4.094C480.1 85.57 378.1 0 256 0 114.6 0 0 114.6 0 256s114.6 256 256 256c46.68 0 90.3-12.69 127.1-34.52-9.41-12.93-16.8-27.26-22.18-42.72C330.8 453.2 294.7 464 256 464zm-88-336c-8.836 0-16 7.164-16 16v64c0 8.836 7.164 16 16 16h16c8.836 0 16-7.164 16-16v-64c0-8.836-7.164-16-16-16h-16zm80 0c-8.836 0-16 7.164-16 16v64c0 8.836 7.164 16 16 16h16c8.836 0 16-7.164 16-16v-64c0-8.836-7.164-16-16-16h-16zm320.9 120.7c-11.5 10.7-22.2 22.1-32.1 34.3-16.8-23-35.9-44.3-56.8-63.6-56.2 52.1-96 120-96 160.9-.9 72.8 57.3 131.7 128 131.7s128-58.9 128-131.7c0-30.4-29.7-93.2-71.1-131.6zM560 446.3c-13.5 9.5-29.7 14.5-46.3 14.5-43.3 0-78.5-28.6-78.5-75.1 0-23.2 14.6-43.6 43.7-78.5 4.1 4.8 59.3 75.2 59.3 75.2l35.2-40.1c2.5 4.102 4.699 8.102 6.699 12 16.401 31.3 9.501 71.3-20.099 92z"/></svg>