<svg xmlns="http://www.w3.org/2000/svg" viewBox="0 0 576 512"><!--! Font Awesome Pro 6.1.1 by @fontawesome - https://fontawesome.com License - https://fontawesome.com/license (Commercial License) Copyright 2022 Fonticons, Inc.--><path d="M432 136c0-13.3 10.7-24 24-24s24 10.7 24 24v208c0 13.3-10.7 24-24 24s-24-10.7-24-24V136zm-72-8c13.3 0 24 10.7 24 24v176c0 13.3-10.7 24-24 24H120c-13.3 0-24-10.7-24-24V152c0-13.3 10.7-24 24-24h240zm152-96c35.3 0 64 28.65 64 64v288c0 35.3-28.7 64-64 64v8c0 13.3-10.7 24-24 24s-24-10.7-24-24v-8H112v8c0 13.3-10.7 24-24 24-13.25 0-24-10.7-24-24v-8c-35.35 0-64-28.7-64-64V96c0-35.35 28.65-64 64-64h448zm0 48H64c-8.84 0-16 7.16-16 16v288c0 8.8 7.16 16 16 16h448c8.8 0 16-7.2 16-16V96c0-8.84-7.2-16-16-16z"/></svg>