<svg xmlns="http://www.w3.org/2000/svg" viewBox="0 0 512 512"><!--! Font Awesome Pro 6.1.1 by @fontawesome - https://fontawesome.com License - https://fontawesome.com/license (Commercial License) Copyright 2022 Fonticons, Inc.--><path d="M226.3 183.1c-6.375-14.56-30.28-14.56-36.66 0l-56 128c-4.422 10.12.188 21.91 10.31 26.34 10.14 4.406 21.91-.203 26.34-10.31l5.289-12.09c.221.86.321.96.421.96h64c.135 0 .248-.076.383-.078l5.289 12.09C248.1 335.5 256.3 340 264 340a19.92 19.92 0 0 0 8-1.672c10.12-4.438 14.73-16.22 10.31-26.34L226.3 183.1zM193.1 276l14.9-34.1 14.9 34.1h-29.8zM336 172c-11.05 0-20 8.953-20 20v128c0 11.05 8.953 20 20 20s20-8.953 20-20V192c0-11.9-9-20-20-20zm152 108c13.3 0 24-10.7 24-24s-10.75-24-24-24h-40v-48h40c13.3 0 24-10.7 24-24s-10.75-24-24-24h-40v-8c0-35.35-28.65-64-64-64h-8V24c0-13.25-10.7-24-24-24s-24 10.75-24 24v40h-48V24c0-13.25-10.7-24-24-24s-24 10.75-24 24v40h-48V24c0-13.25-10.7-24-24-24s-24 10.75-24 24v40h-8c-35.35 0-64 28.65-64 64v8H24c-13.25 0-24 10.8-24 24s10.75 24 24 24h40v48H24c-13.25 0-24 10.8-24 24s10.75 24 24 24h40v48H24c-13.25 0-24 10.8-24 24s10.75 24 24 24h40v8c0 35.35 28.65 64 64 64h8v40c0 13.3 10.8 24 24 24s24-10.75 24-24v-40h48v40c0 13.3 10.8 24 24 24s24-10.75 24-24v-40h48v40c0 13.25 10.75 24 24 24s24-10.75 24-24v-40h8c35.35 0 64-28.65 64-64v-8h40c13.25 0 24-10.75 24-24s-10.75-24-24-24h-40v-48h40zm-88 104c0 8.822-7.178 16-16 16H128c-8.822 0-16-7.178-16-16V128c0-8.822 7.178-16 16-16h256c8.822 0 16 7.178 16 16v256z"/></svg>