<svg xmlns="http://www.w3.org/2000/svg" viewBox="0 0 384 512"><!--! Font Awesome Pro 6.1.1 by @fontawesome - https://fontawesome.com License - https://fontawesome.com/license (Commercial License) Copyright 2022 Fonticons, Inc.--><path d="M344 192c-13.3 0-24 10.7-24 23.1V256c0 74.75-64.5 134.9-140.8 127.4C112.8 376.9 64 317.1 64 250.2v-35.1c0-12.4-10.75-23.1-24-23.1s-24 10.7-24 23.1v32.15c0 89.63 64 169.6 152 181.7V464h-48.9c-12.4 0-23.1 10.7-23.1 23.1s10.7 24.9 23.1 24.9h144c14.2 0 24.9-10.7 24.9-24s-10.7-24-24-24h-48v-33.77C301.8 418.5 368 344.9 368 256v-40.9c0-12.4-10.7-23.1-24-23.1zM192 352c53 0 96-43 96-96V96c0-52.1-43-96-96-96S96 43 96 96v160c0 53 43 96 96 96zM144 96c0-26.5 21.5-48 48-48s48 21.5 48 48v160c0 26.5-21.5 48-48 48s-48-21.5-48-48V96z"/></svg>