<svg xmlns="http://www.w3.org/2000/svg" viewBox="0 0 512 512"><!--! Font Awesome Pro 6.1.1 by @fontawesome - https://fontawesome.com License - https://fontawesome.com/license (Commercial License) Copyright 2022 Fonticons, Inc.--><path d="M320 160H192c-17.7 0-32 14.3-32 32v128c0 17.67 14.33 32 32 32h128c17.67 0 32-14.33 32-32V192c0-17.7-14.3-32-32-32zm-16 144h-96v-96h96v96zm184-24c13.3 0 24-10.7 24-24s-10.75-24-24-24h-40v-48h40c13.3 0 24-10.7 24-24s-10.75-24-24-24h-40v-8c0-35.35-28.65-64-64-64h-8V24c0-13.25-10.7-24-24-24s-24 10.75-24 24v40h-48V24c0-13.25-10.7-24-24-24s-24 10.75-24 24v40h-48V24c0-13.25-10.7-24-24-24s-24 10.75-24 24v40h-8c-35.35 0-64 28.65-64 64v8H24c-13.25 0-24 10.8-24 24s10.75 24 24 24h40v48H24c-13.25 0-24 10.8-24 24s10.75 24 24 24h40v48H24c-13.25 0-24 10.8-24 24s10.75 24 24 24h40v8c0 35.35 28.65 64 64 64h8v40c0 13.3 10.8 24 24 24s24-10.75 24-24v-40h48v40c0 13.3 10.8 24 24 24s24-10.75 24-24v-40h48v40c0 13.25 10.75 24 24 24s24-10.75 24-24v-40h8c35.35 0 64-28.65 64-64v-8h40c13.25 0 24-10.75 24-24s-10.75-24-24-24h-40v-48h40zm-88 104c0 8.822-7.178 16-16 16H128c-8.822 0-16-7.178-16-16V128c0-8.822 7.178-16 16-16h256c8.822 0 16 7.178 16 16v256z"/></svg>