<svg xmlns="http://www.w3.org/2000/svg" viewBox="0 0 512 512"><!--! Font Awesome Pro 6.1.1 by @fontawesome - https://fontawesome.com License - https://fontawesome.com/license (Commercial License) Copyright 2022 Fonticons, Inc.--><path d="M488 464h-41.42C486.6 428.8 512 377.4 512 320c0-105.9-86.13-192-192-192v48c79.41 0 144 64.59 144 144s-64.59 144-144 144H24c-13.25 0-24 10.7-24 24s10.75 24 24 24h464c13.25 0 24-10.75 24-24 0-13.3-10.7-24-24-24zm-368-32h176c13.25 0 24-10.75 24-24 0-13.26-10.75-24-24-24H120c-13.3 0-24 10.7-24 24s10.7 24 24 24zm40-112h16v16c0 8.8 7.2 16 16 16h32c8.836 0 16-7.164 16-16v-16h16c17.67 0 32-14.33 32-32V64c0-17.67-14.33-32-32-32 0-17.67-14.33-32-32-32h-32c-17.7 0-32 14.33-32 32-17.7 0-32 14.33-32 32v224c0 17.7 14.3 32 32 32zm16-240h64v192h-64V80z"/></svg>