<svg xmlns="http://www.w3.org/2000/svg" viewBox="0 0 640 512"><!--! Font Awesome Pro 6.1.1 by @fontawesome - https://fontawesome.com License - https://fontawesome.com/license (Commercial License) Copyright 2022 Fonticons, Inc.--><path d="M630.8 469.1 471.5 344.2c15.42-25.9 24.53-55.89 24.53-88.21V216c0-13.26-10.75-24-23.1-24s-24 10.74-24 24v39.1c0 21.11-5.63 40.71-14.77 58.24l-25.72-20.16c5.197-11.7 8.493-24.43 8.493-38.08L415.1 96c0-53-42.1-96-95.1-96s-96.9 43-96.9 96v54.25L38.81 5.111C28.34-3.061 13.32-1.249 5.12 9.189-3.052 19.63-1.234 34.72 9.188 42.89l591.1 463.1C605.6 510.3 610.8 512 615.1 512c7.125 0 14.16-3.161 18.9-9.193 9.1-10.407 7.2-25.507-3.2-33.707zM368 256c0 2.217-.68 4.225-.97 6.361L272 187.9V96c0-26.5 21.5-48 48-48s48 21.5 48 48v160zm24 208h-48v-33.77c20.75-2.844 40.27-9.435 58.07-18.86l-42.98-33.69c-16.16 5.205-33.62 7.488-51.84 5.697C240.8 376.9 192 317.1 192 250.3v-3.6L145.2 210c-.5 1.1-1.2 3.9-1.2 6l-.9 32.1c0 89.63 63.1 169.6 151.1 181.7v34.15L248 464c-13.3 0-24 10.7-24 24s10.7 24 24 24h144c13.25 0 24-10.75 24-24 0-13.3-10.7-24-24-24z"/></svg>