<svg xmlns="http://www.w3.org/2000/svg" viewBox="0 0 384 512"><!--! Font Awesome Pro 6.1.1 by @fontawesome - https://fontawesome.com License - https://fontawesome.com/license (Commercial License) Copyright 2022 Fonticons, Inc.--><path d="M278.3 96.03C336.9 97.28 384 145.1 384 204v220c0 13.3-10.7 24-24 24s-24-10.7-24-24V204c0-33.1-26.9-60-60-60-5.8 0-11.4.8-16.7 2.4l-43.3 114V424c0 13.3-10.7 24-24 24s-24-10.7-24-24v-37.1l-41.6 109.6c-4.7 12.4-18.5 18.6-30.91 13.9-12.39-4.7-18.63-18.5-13.93-30.9L168 251.6V204c0-33.1-26.9-60-60-60-33.14 0-60 26.9-60 60v220c0 13.3-10.75 24-24 24S0 437.3 0 424V204c0-1.3.024-2.7.073-4H0v-80c0-13.3 10.75-24 24-24 11.4 0 20.94 7.9 23.39 18.6C64.67 102.9 85.53 96 108 96c33.9 0 64.2 15.6 84 40.1 8.2-10.1 18.1-18.7 29.4-25.3l36.2-95.31c4.7-12.394 18.5-18.63 30.9-13.929 12.4 4.7 18.6 18.559 13.9 30.949l-24.1 63.52z"/></svg>