<svg xmlns="http://www.w3.org/2000/svg" viewBox="0 0 512 512"><!--! Font Awesome Pro 6.1.1 by @fontawesome - https://fontawesome.com License - https://fontawesome.com/license (Commercial License) Copyright 2022 Fonticons, Inc.--><path d="M312 224h135.1c12.94 0 24.62-7.797 29.56-19.75a31.953 31.953 0 0 0-6.937-34.87l-47.03-47.03 81.38-81.38c9.375-9.375 9.375-24.56 0-33.94s-24.56-9.375-33.94 0l-81.38 81.38-47.03-47.03a31.986 31.986 0 0 0-22.63-9.35 32.25 32.25 0 0 0-12.24 2.413 31.985 31.985 0 0 0-19.75 29.56v135.1C288 213.3 298.7 224 312 224zm-112 63.1H64c-12.94 0-24.62 7.797-29.56 19.75a31.953 31.953 0 0 0 6.937 34.87l47.03 47.03-81.38 81.38c-9.375 9.375-9.375 24.56 0 33.94C11.72 509.7 17.84 512 24 512s12.28-2.344 16.97-7.031l81.38-81.38 47.03 47.03a31.986 31.986 0 0 0 34.87 6.938 31.974 31.974 0 0 0 19.75-29.56V311.1c0-12.4-10.7-24-24-24zm4.3-252.66c-4-1.64-8.2-3.34-12.3-3.34a31.979 31.979 0 0 0-22.63 9.381L122.3 88.41 40.97 7.031c-9.375-9.375-24.56-9.375-33.94 0s-9.375 24.56 0 33.94l81.38 81.38L41.38 169.4C35.25 175.5 32 183.7 32 192c0 4.125.797 8.281 2.438 12.25A32.017 32.017 0 0 0 64 224h135.1c13.25 0 23.1-10.75 23.1-23.1V64c1.8-12.93-6-24.62-17.9-29.56zM423.6 389.7l47.03-47.03c9.141-9.156 11.84-22.87 6.938-34.87a31.974 31.974 0 0 0-29.56-19.75h-135.1c-13.26 0-23.1 10.75-23.1 23.1v135.1c0 12.94 7.797 24.62 19.75 29.56a31.908 31.908 0 0 0 12.24 2.446 31.98 31.98 0 0 0 22.63-9.383l47.03-47.03 81.37 81.38C475.7 509.7 481.8 512 488 512s12.28-2.344 16.97-7.031c9.375-9.375 9.375-24.56 0-33.94L423.6 389.7z"/></svg>