<svg xmlns="http://www.w3.org/2000/svg" viewBox="0 0 576 512"><!--! Font Awesome Pro 6.1.1 by @fontawesome - https://fontawesome.com License - https://fontawesome.com/license (Commercial License) Copyright 2022 Fonticons, Inc.--><path d="M542.1 229.4c-26-26-89.63-38.63-130.9-44.13l-99.26-99.13.033-62.16C311.1 10.75 301.2 0 287.1 0s-24 10.75-24 24l.047 27.47c.853.13.753.24.753.38v34.31l-99.1 99.14c-41.25 5.5-104.9 18.12-130.9 44.13-40 40-45.38 99.38-12.12 132.8 14.62 14.62 34.38 21.88 55.38 21.88 26.5 0 55-11.5 77.38-33.88 14.88-14.88 25.25-42 32.63-70.25 5.5 4.875 12.63 8.125 20.75 8.125 17.75 0 32-14.25 32-32s-14.25-32-32-32c-3.625 0-6.875 1-10.25 2.125.5-2.375.75-4.625 1-6.875l65.25-65.25v128.2c-28.38 32.88-72 89.23-72 127.4C191.9 466.2 234.1 512 287.1 512c53 0 95.99-45.77 95.99-102.4 0-38.13-43.63-94.56-72.01-127.3l-.008-128.4 65.25 65.25c5.5 41.25 18.12 104.9 44.13 130.9 22.38 22.38 50.88 33.88 77.38 33.88 21 0 40.75-7.125 55.5-21.75C587.5 328.8 582.1 269.4 542.1 229.4zm-421.4 86.8c-12.5 12.5-28.75 19.88-43.5 19.88-6.252 0-15-1.375-21.5-7.75-14-14.12-8.375-44.5 12.13-65 10.38-10.38 43.38-20.25 79.88-26.88-6.81 36.35-16.61 69.35-27.01 79.75zm215.2 93.4c0 30-21.5 54.38-48 54.38s-48-24.38-48-54.38c0-13.88 20.38-47.5 48-81.5 27.3 33.9 48 67.9 48 81.5zm184.3-81.3c-6.5 6.375-15.25 7.75-21.5 7.75-14.75 0-31-7.375-43.38-19.88-10.38-10.38-20.25-43.38-26.88-79.75 36.25 6.625 69.38 16.62 79.75 26.88 20.41 20.5 26.01 50.9 12.01 65zM352 64c0-17.67 14.33-32 32-32s32 14.33 32 32-14.33 32-32 32c-17.7 0-32-14.33-32-32z"/></svg>