<svg xmlns="http://www.w3.org/2000/svg" viewBox="0 0 384 512"><!--! Font Awesome Pro 6.1.1 by @fontawesome - https://fontawesome.com License - https://fontawesome.com/license (Commercial License) Copyright 2022 Fonticons, Inc.--><path d="M304 0H80C44.65 0 16 28.65 16 64v384c0 35.35 28.65 64 64 64h224c35.35 0 64-28.65 64-64V64c0-35.35-28.7-64-64-64zm16 448c0 8.822-7.178 16-16 16H80c-8.82 0-16-7.2-16-16v-80h256v80zm0-128H64V64c0-8.822 7.178-16 16-16h224c8.8 0 16 7.18 16 16v256zM192 440c13.26 0 24-10.75 24-24 0-13.26-10.74-24-24-24s-24 10.7-24 24 10.7 24 24 24z"/></svg>