<svg xmlns="http://www.w3.org/2000/svg" viewBox="0 0 512 512"><!--! Font Awesome Pro 6.1.1 by @fontawesome - https://fontawesome.com License - https://fontawesome.com/license (Commercial License) Copyright 2022 Fonticons, Inc.--><path d="M444.1 67.95C400.2 24.14 341.1 0 280 0c-13.26 0-24.03 10.74-24.03 23.1 0 13.26 10.74 23.1 23.1 23.1 49.14 0 95.36 19.15 130.1 53.89 34.75 34.75 53.89 80.96 53.89 130.1 0 13.26 10.74 23.1 23.1 23.1C501.3 255.1 512 245.3 512 231.1c0-61.1-24.1-119.3-67.9-163.15zM310.6 246.6c12.5-12.5 12.5-32.76 0-45.25-6.2-6.25-14.4-10.25-22.6-10.25s-16.38 3.123-22.63 9.373c-12.5 12.5-12.5 32.76 0 45.25 6.248 6.248 14.44 9.373 22.63 9.373s16.4-2.196 22.6-8.496zM279.1 96c-13.26 0-24 10.74-24 23.1s10.74 23.1 23.1 23.1c48.53 0 88.01 39.49 88.01 88.01 0 13.26 10.74 23.1 23.1 23.1S416 245.3 416 232c0-37.5-15.25-71.5-39.88-96.13S317.5 96 279.1 96zM304 448c0 8.822-7.178 16-16 16H64c-8.822 0-16-7.178-16-16V64c0-8.822 7.178-16 16-16h160V0H64C28.65 0 0 28.65 0 64v384c0 35.35 28.65 64 64 64h224c35.35 0 64-28.65 64-64l-.004-160H304v160zm-160-48c-8.8 0-16 7.2-16 16s7.164 16 16 16h64c8.8 0 16-7.2 16-16s-7.162-16-16-16h-64z"/></svg>