<svg xmlns="http://www.w3.org/2000/svg" viewBox="0 0 512 512"><!--! Font Awesome Pro 6.1.1 by @fontawesome - https://fontawesome.com License - https://fontawesome.com/license (Commercial License) Copyright 2022 Fonticons, Inc.--><path d="M144 400c-8.8 0-16 7.2-16 16s7.164 16 16 16h64c8.8 0 16-7.2 16-16s-7.162-16-16-16h-64zm81.2 64H64c-8.822 0-16-7.178-16-16V64c0-8.822 7.178-16 16-16h224c8.822 0 16 7.178 16 16v234.9c14.7-14.31 30.84-26.57 48-36.93V64c0-35.35-28.65-64-64-64H64C28.65 0 0 28.65 0 64v384c0 35.35 28.65 64 64 64h165.6c-3.5-7.3-5.6-15.4-5.6-24.9-.9-7.2.5-15.2 1.2-23.1zm261.9-160.9c13.26 0 23.1-10.74 23.1-23.1 0-13.26-10.74-23.1-23.1-23.1-61.97-.012-120.2 24.13-164 67.95-43 42.95-68 101.15-67.1 162.25 0 13.26 10.74 24 23.1 24 13.26 0 23.1-10.74 23.1-24 0-49.14 19.15-95.36 53.9-130.1 36.5-33.9 82.8-53.9 131-53.9zm24.9 72c0-13.26-10.74-23.1-23.1-23.1-37.5 0-71.51 15.25-96.13 39.88S352 450.5 352 488c0 13.3 10.7 24 23.1 24s23.1-10.74 23.1-23.1c0-48.53 39.49-88.01 88.01-88.01C501.3 399.1 512 389.3 512 375.1zm-54.6 82.3c-12.5 12.5-12.5 32.76 0 45.25 12.5 12.5 32.76 12.5 45.25 0 12.5-12.5 12.5-32.76 0-45.25-12.55-12.5-32.75-12.5-45.25 0z"/></svg>