<svg xmlns="http://www.w3.org/2000/svg" viewBox="0 0 640 512"><!--! Font Awesome Pro 6.1.1 by @fontawesome - https://fontawesome.com License - https://fontawesome.com/license (Commercial License) Copyright 2022 Fonticons, Inc.--><path d="M558.1 63.1 535 40.97c-9.3-9.37-9.3-24.57 0-33.94 9.4-9.373 24.6-9.373 33.1-.001l64 63.991c5.4 4.5 7.9 10.61 7.9 16.97 0 6.37-2.5 12.51-7.9 16.11l-64 64c-8.5 10.2-23.7 10.2-33.1 0-9.3-8.5-9.3-23.7 0-33.1l23.1-23.9H160v16c0 36.2-28.7 64-64 64H80v94.4l-48 48V127.1c0-34.45 28.65-64 64-64h287.6l.4.89 174.1-.89zm1.9 256v-92.6l48-48v204.6c0 36.2-28.7 64-64 64H81.94L104.1 471c10.2 9.4 10.2 24.6 0 33.1-8.5 10.2-23.7 10.2-33.07 0l-64.001-64c-4.501-3.6-7.03-9.7-7.029-17 0-5.5 2.529-11.6 7.03-16.1l64-64c9.37-9.3 24.57-9.3 33.07 0 10.2 9.4 10.2 24.6 0 33.1l-22.16 23H480v-16c0-34.5 28.7-64 64-64h16zm-336-64c0-53 42.1-96 96-96 53 0 96 43 96 96 0 53.9-43 96-96 96-53.9 0-96-42.1-96-96z"/></svg>