<svg xmlns="http://www.w3.org/2000/svg" viewBox="0 0 640 512"><!--! Font Awesome Pro 6.1.1 by @fontawesome - https://fontawesome.com License - https://fontawesome.com/license (Commercial License) Copyright 2022 Fonticons, Inc.--><path d="M48 168c0 13.3-10.75 24-24 24S0 181.3 0 168V88C0 39.4 39.4 0 88 0h464c48.6 0 88 39.4 88 88v80c0 13.3-10.7 24-24 24s-24-10.7-24-24V88c0-22.09-17.9-40-40-40H88c-22.09 0-40 17.91-40 40v80zm416-72h48v352c0 35.3-28.7 64-64 64H192c-35.3 0-64-28.7-64-64V96h48v304c35.3 0 64 28.7 64 64h160c0-35.3 28.7-64 64-64V96zM320 352c-53.9 0-96-35.8-96-80s42.1-80 96-80c53 0 96 35.8 96 80s-43 80-96 80z"/></svg>