<svg xmlns="http://www.w3.org/2000/svg" viewBox="0 0 576 512"><!--! Font Awesome Pro 6.1.1 by @fontawesome - https://fontawesome.com License - https://fontawesome.com/license (Commercial License) Copyright 2022 Fonticons, Inc.--><path d="M208 256c0-53.9 35.8-96 80-96s80 42.1 80 96c0 53-35.8 96-80 96s-80-43-80-96zM0 421.5V113c0-24.21 25.38-40.27 48.35-33.96C128.2 100.1 208.1 80.61 288 60.25c86.9-22.15 173.8-44.3 260.7-11.99C565.8 54.6 576 71.96 576 90.5v307.6c0 25.1-25.4 41.2-48.3 34-79.9-21.1-159.8-.7-239.7 19.6-86.9 22.2-173.8 44.3-260.71 12C10.21 457.4 0 440 0 421.5zm279.2-17.1c73.7-18.8 160.5-41.1 248.8-20.8V91.81c-66.2-23.08-134.4-8.85-217.7 12.29-4.4 1.1-8.9 2.3-13.5 3.5-73.7 18.8-160.5 41.1-248.8 20.8v291.8c66.2 23.1 134.4 8.8 217.7-12.3 4.4-1.1 8.9-2.3 13.5-3.5z"/></svg>