<svg xmlns="http://www.w3.org/2000/svg" viewBox="0 0 512 512"><!--! Font Awesome Pro 6.1.1 by @fontawesome - https://fontawesome.com License - https://fontawesome.com/license (Commercial License) Copyright 2022 Fonticons, Inc.--><path d="M320 24c0-13.25 10.7-24 24-24h112c13.3 0 24 10.75 24 24v112c0 13.3-10.7 24-24 24s-24-10.7-24-24V81.94L304.1 208.1c-8 9.7-22.2 10.3-31.7 2.1l-96.3-82.5-104.38 90.4c-10.02 8.7-25.18 7.6-33.86-2.4s-7.59-25.2 2.42-33.8L160.3 77.86c9-7.78 22.3-7.82 31.3-.08l95.1 81.52L398.1 47.1H344c-13.3 0-24-9.85-24-24v.9zM192 384c0-35.3 28.7-64 64-64s64 28.7 64 64-28.7 64-64 64-64-28.7-64-64zm272-128c26.5 0 48 21.5 48 48v160c0 26.5-21.5 48-48 48H48c-26.51 0-48-21.5-48-48V304c0-26.5 21.49-48 48-48h416zM48 359.5v49c28.95 3.6 51.89 26.5 55.5 55.5h305c3.6-29 26.5-51.9 55.5-55.5v-49c-29-3.6-51.9-27.4-55.5-55.5h-305c-3.6 28.1-26.55 51.9-55.5 55.5z"/></svg>