<svg xmlns="http://www.w3.org/2000/svg" viewBox="0 0 576 512"><!--! Font Awesome Pro 6.1.1 by @fontawesome - https://fontawesome.com License - https://fontawesome.com/license (Commercial License) Copyright 2022 Fonticons, Inc.--><path d="M456 272c13.3 0 24 10.7 24 24s-10.7 24-24 24H280c-13.3 0-24-10.7-24-24s10.7-24 24-24h176zm-200-72c0-13.3 10.7-24 24-24h176c13.3 0 24 10.7 24 24s-10.7 24-24 24H280c-13.3 0-24-10.7-24-24zm-75.9-33.7c6.6 1.2 16.6 3.2 21 4.4 10.7 2.8 17.1 13.8 14.2 24.4-2.8 10.7-13.8 17.1-24.4 14.2-3.9-1-17.4-3.6-21.8-5.2-12.2-1-23 .6-28.6 3.5-6.3 2.8-7.8 6.1-8.2 8.1-.6 3.4 0 4.6.2 5 .2.5 1 1.7 3.6 3.5 6.1 4.2 15.7 7.2 29 11.5l1.7.2c12.1 3.7 28.3 8.5 40.4 17.4 6.7 4.8 13 11.4 16.9 20.4 4 9.1 4.8 19.1 3 29.5-3.3 19-15.9 32-31.7 38.7-4.8 1.2-10 3.6-15.3 4.6v5.5c0 11.1-9 20.1-21 20.1-10.2 0-19.2-9-19.2-20.1v-6.4c-9.5-2.2-22.8-6.4-29.8-9.1-1.7-.6-3.2-1.1-4.4-2.4-10.5-2.6-16.17-13.9-12.68-24.4 3.49-10.5 14.78-16.2 25.28-12.7 2 .7 4.2 1.4 6.4 2.2 9.5 3.2 20.2 6.8 26.2 7.8 12.8 2 22.7.7 28.8-1.9 5.5-2.3 7.4-5.3 8-8.8.7-4 .1-5.8-.3-6.6-.3-.9-1.2-2.3-3.7-4.1-5.9-4.3-15.3-7.4-29.3-11.7l-2.2-.6c-11.7-3.5-27-8.1-38.6-16-6.6-4.5-13.1-10.7-17.28-19.5-4.24-8.9-5.17-18.8-3.41-29 3.16-18.3 16.19-30.9 31.09-37.7 4.1-2.2 10.3-3.9 15.9-5.1v-6.9c0-10.2 9-19.2 20.1-19.2 11.1 0 20.1 9 20.1 19.2v7.2zM0 128c0-35.35 28.65-64 64-64h448c35.3 0 64 28.65 64 64v256c0 35.3-28.7 64-64 64H64c-35.35 0-64-28.7-64-64V128zm48 0v256c0 8.8 7.16 16 16 16h448c8.8 0 16-7.2 16-16V128c0-8.8-7.2-16-16-16H64c-8.84 0-16 7.2-16 16z"/></svg>