<svg xmlns="http://www.w3.org/2000/svg" viewBox="0 0 512 512"><!--! Font Awesome Pro 6.1.1 by @fontawesome - https://fontawesome.com License - https://fontawesome.com/license (Commercial License) Copyright 2022 Fonticons, Inc.--><path d="M256 80c0 8.84-7.2 16-16 16-44.2 0-80-35.82-80-80 0-8.836 7.2-16 16-16 44.2 0 80 35.82 80 80zM104 16c13.3 0 24 10.75 24 24s-10.7 24-24 24H56c-13.25 0-24-10.75-24-24s10.75-24 24-24h48zm32 72c13.3 0 24 10.75 24 24 0 13.3-10.7 24-24 24H24c-13.25 0-24-10.7-24-24 0-13.25 10.75-24 24-24h112zM32 184c0-13.3 10.75-24 24-24h48c13.3 0 24 10.7 24 24s-10.7 24-24 24H56c-13.25 0-24-10.7-24-24zM272 16c0-8.836 7.2-16 16-16 44.2 0 80 35.82 80 80 0 8.84-7.2 16-16 16-44.2 0-80-35.82-80-80zm208 64c0 8.84-7.2 16-16 16-44.2 0-80-35.82-80-80 0-8.836 7.2-16 16-16 44.2 0 80 35.82 80 80zm-80 144c-8.8 0-16-7.2-16-16 0-44.2 35.8-80 80-80 8.8 0 16 7.2 16 16 0 44.2-35.8 80-80 80zm-48-96c8.8 0 16 7.2 16 16 0 44.2-35.8 80-80 80-8.8 0-16-7.2-16-16 0-44.2 35.8-80 80-80zm-176 96c-8.8 0-16-7.2-16-16 0-44.2 35.8-80 80-80 8.8 0 16 7.2 16 16 0 44.2-35.8 80-80 80zm16 160c0-35.3 28.7-64 64-64s64 28.7 64 64-28.7 64-64 64-64-28.7-64-64zm272-128c26.5 0 48 21.5 48 48v160c0 26.5-21.5 48-48 48H48c-26.51 0-48-21.5-48-48V304c0-26.5 21.49-48 48-48h416zM48 408.5c28.95 3.6 51.89 26.5 55.5 55.5h305c3.6-29 26.5-51.9 55.5-55.5v-49c-29-3.6-51.9-27.4-55.5-56.4h-305c-3.6 29-26.55 52.8-55.5 56.4v49z"/></svg>