<svg xmlns="http://www.w3.org/2000/svg" viewBox="0 0 576 512"><!--! Font Awesome Pro 6.1.1 by @fontawesome - https://fontawesome.com License - https://fontawesome.com/license (Commercial License) Copyright 2022 Fonticons, Inc.--><path d="M384 256c0 61.9-43 112-96 112-53.9 0-96-50.1-96-112s42.1-112 96-112c53 0 96 50.1 96 112zm-112-32v64h-8c-8.8 0-16 7.2-16 16s7.2 16 16 16h48c8.8 0 16-7.2 16-16s-7.2-16-16-16h-8v-80c0-8.8-7.2-16-16-16h-16c-8.8 0-16 7.2-16 16s7.2 16 16 16zM0 421.5V113c0-24.21 25.38-40.27 48.35-33.96C128.2 100.1 208.1 80.61 288 60.25c86.9-22.15 173.8-44.3 260.7-11.99C565.8 54.6 576 71.96 576 90.5v307.6c0 25.1-25.4 41.2-48.3 34-79.9-21.1-159.8-.7-239.7 19.6-86.9 22.2-173.8 44.3-260.71 12C10.21 457.4 0 440 0 421.5zm279.2-17.1c55.9-14.3 119.4-30.5 185.3-28.7 4.1-31.4 31-55.7 63.5-55.7V144c-35.3 0-63.9-28.6-64-63.86-47-1.7-96.8 9.52-153.7 23.96-4.4 1.1-8.9 2.3-13.5 3.5-55.9 14.3-119.4 30.5-185.3 28.7C107.4 167.7 80.53 192 48 192v176c35.3 0 63.9 28.6 64 63.9 46.1 1.7 96.8-9.6 153.7-24 4.4-1.1 8.9-2.3 13.5-3.5z"/></svg>