<svg xmlns="http://www.w3.org/2000/svg" viewBox="0 0 576 512"><!--! Font Awesome Pro 6.1.1 by @fontawesome - https://fontawesome.com License - https://fontawesome.com/license (Commercial License) Copyright 2022 Fonticons, Inc.--><path d="M512 32H64C28.65 32 0 60.65 0 96v320c0 35.35 28.65 64 64 64h448c35.35 0 64-28.65 64-64V96c0-35.35-28.7-64-64-64zm16 384c0 8.822-7.178 16-16 16H64c-8.822 0-16-7.178-16-16V288h114.4l41 68.34C207.8 363.6 215.6 368 224 368c.313 0 .625 0 .906-.031a23.903 23.903 0 0 0 20.56-13.25l60.44-120.9 25.5 42.5C335.8 283.6 343.6 288 352 288h72c13.3 0 24-10.7 24-24s-10.7-24-24-24h-58.41l-41-68.34c-4.531-7.5-13.78-12.31-21.5-11.62a23.903 23.903 0 0 0-20.56 13.25L222.1 294.2l-25.5-42.5c-4.3-7.3-12.2-11.7-20.6-11.7H48V96c0-8.822 7.178-16 16-16h448c8.822 0 16 7.178 16 16v320z"/></svg>