<svg xmlns="http://www.w3.org/2000/svg" viewBox="0 0 576 512"><!--! Font Awesome Pro 6.1.1 by @fontawesome - https://fontawesome.com License - https://fontawesome.com/license (Commercial License) Copyright 2022 Fonticons, Inc.--><path d="M384 128c0 8.8-7.2 16-16 16s-16-7.2-16-16 7.2-16 16-16 16 7.2 16 16zm32 0c0-8.8 7.2-16 16-16s16 7.2 16 16-7.2 16-16 16-16-7.2-16-16zM104 48c-30.93 0-56 25.07-56 56v256c0 57.4 46.56 104 104 104h8v-48c0-93.7 57.5-173.9 139.1-207.3-4-8.3-7-17.2-8.9-26.4-25.1-6.1-42.2-28.1-42.2-54.3 0-27.9 20.4-51.03 47.1-55.29C311 30.23 351.1 0 400 0c48 0 88.1 30.23 104.9 72.71C531.6 76.97 552 100.1 552 128c0 26.2-18 48.2-42.2 54.3-7.1 35-30.4 64-61.8 78.9v24.9l83.5 83.4C559.1 398 576 436.7 576 477v11c0 13.3-10.7 24-24 24s-24-10.7-24-24v-11c0-27.6-11-54.9-30.5-73.5L448 353.9V464h8c13.3 0 24 10.7 24 24s-10.7 24-24 24H152C68.05 512 0 443.9 0 360V104C0 46.56 46.56 0 104 0h24c53 0 96 42.98 96 96 0 53-43 96-96 96h-8c-13.3 0-24-10.7-24-24s10.7-24 24-24h8c26.5 0 48-21.5 48-48 0-26.51-21.5-48-48-48h-24zm296 224c-26.1 0-50.1-8.9-69.1-23.8C259.7 270.7 208 337.3 208 416v48h192v-24c0-39.8-32.2-72-72-72h-16c-13.3 0-24-10.7-24-24s10.7-24 24-24h16c27 0 51.9 8.9 72 23.1V272zm0-224c-35.3 0-64 28.65-64 64v48c0 35.3 28.7 64 64 64s64-28.7 64-64v-48c0-35.35-28.7-64-64-64z"/></svg>