<svg xmlns="http://www.w3.org/2000/svg" viewBox="0 0 512 512"><!--! Font Awesome Pro 6.1.1 by @fontawesome - https://fontawesome.com License - https://fontawesome.com/license (Commercial License) Copyright 2022 Fonticons, Inc.--><path d="M310.1 389.5c-31.72 5.969-63.91-2.281-88.59-22.72-24.78-20.5-39-50.72-39-82.91 0-38.56 20.84-74.47 54.19-93.53 11.91-6.656 18.12-19.59 15.91-33.03-2.21-13.41-12.31-23.61-26.51-26.01-55.5-10.6-113 4.5-156.94 41.1S0 262.8 0 320c0 105.9 86.01 192 191.8 192 58.19 0 112.6-26.08 148.9-71.04 8.594-10.38 9.619-24.99 2.681-36.55C336.5 392.9 323.1 386.9 310.1 389.5zM191.8 464C112.5 464 48 399.4 48 320c0-42.91 18.91-83.25 51.88-110.7 22.28-18.53 49.22-29.69 77.41-32.53C150.3 205.4 134.5 243.6 134.5 283.9c0 46.53 20.56 90.25 56.41 119.9a154.8 154.8 0 0 0 82.53 34.78C249.8 455 221.4 464 191.8 464zM288 63.1l12.42 29.78c.61 1.225 2.211 2.219 3.578 2.219s2.967-.994 3.576-2.219l12.42-29.78 29.79-12.42C351 50.97 352 49.36 352 47.1c0-1.365-.992-2.967-2.211-3.576l-29.79-12.42-12.42-29.79c-.61-1.227-2.209-2.217-3.576-2.217s-2.969.99-3.578 2.217l-12.42 29.79L258.2 44.42c-1.217.61-2.209 2.211-2.209 3.576 0 1.359.992 2.971 2.209 3.58L288 63.1zm219.6 153.8L448 192l-24.88-59.63c-1.32-2.57-4.12-5.27-7.12-5.27s-5.75 1.75-7.125 4.375L384 192l-59.63 24.88C321.8 218.3 320 221 320 224s1.75 5.75 4.375 7.125L384 256l24.88 59.63C410.3 318.3 413 320 416 320s5.75-1.75 7.125-4.375L448 256l59.63-24.88C510.3 229.8 512 227 512 224s-1.7-5.7-4.4-7.1z"/></svg>