<svg xmlns="http://www.w3.org/2000/svg" viewBox="0 0 512 512"><!--! Font Awesome Pro 6.1.1 by @fontawesome - https://fontawesome.com License - https://fontawesome.com/license (Commercial License) Copyright 2022 Fonticons, Inc.--><path d="m494.1 221.9-59.86-40.5 13.75-70.1c2.625-13.12-1.625-26.75-11.12-36.37-9.621-9.498-23.24-13.75-36.24-11.12l-70.86 13.75-40.37-60.78c-15.12-22.37-51.86-22.37-66.98 0L182.1 76.65 111.2 62.9c-13.25-2.5-26.74 1.625-36.24 11.25-9.48 9.63-13.73 23.13-11.1 36.25l13.75 70.1L17.75 221C6.623 229.5 0 242 0 255.5s6.748 25.1 17.75 33.5l59.86 40.5-13.75 70.1c-2.625 13.25 1.625 26.75 11.12 36.25 9.496 9.5 22.87 13.75 36.24 11.12l70.86-13.62 40.37 59.87C229.9 505.3 242.6 512 255.9 512s25.99-6.75 33.49-17.75l40.37-59.1 70.86 13.75c13.5 2.75 26.87-1.625 36.37-11.12 9.498-9.5 13.62-23.12 11.12-36.25l-13.75-70.1 59.73-40.5C505.3 281.6 512 269 512 255.6c-.1-13.6-6.7-26.1-17.9-33.7zm-112.9 85.6 17.62 91.24-90.98-17.62L255.9 458l-51.86-76.99-90.84 17.59 17.5-91.2-76.71-52 76.73-51.1-17.52-92 90.98 17.5 51.74-76.75 51.86 76.87 90.98-17.62-17.62 91.12 76.86 51.1-76.8 52.98zm-55.2 1.8c-46.4 8.8-89.3-26.9-89.3-74 0-26.1 14.5-51.1 37.99-65.37 3.623-2.123 2.748-7.623-1.375-8.248-5.748-1.125-11.62-1.625-17.5-1.625-52.86 0-95.85 42.87-95.85 95.99 0 52.1 42.87 95.99 95.85 95.99 29.62 0 56.61-13.5 74.48-35.5C333 313.3 330.2 308.4 326 309.3z"/></svg>