<svg xmlns="http://www.w3.org/2000/svg" viewBox="0 0 640 512"><!--! Font Awesome Pro 6.1.1 by @fontawesome - https://fontawesome.com License - https://fontawesome.com/license (Commercial License) Copyright 2022 Fonticons, Inc.--><path d="M328 56c0-13.25 10.7-24 24-24h41.3c23.8 0 45 15.09 52.8 37.6l8.1 23.28 51-25.5c4.5-2.22 9.4-3.38 14.4-3.38h8.4c8.8 0 16 7.16 16 16v64c0 8.8-7.2 16-16 16h-8.4c-5 0-9.9-1.2-14.4-3.4l-34.9-17.4 29.7 85.2c3.1-.3 7.1-.4 12-.4 43.7 0 83.3 17.5 112.1 45.8 9.5 9.3 9.6 24.5.3 34-9.3 9.4-24.5 9.6-33.9.3-20.3-19.9-47.9-32.1-78.5-32.1-52.7 0-97.9 36.5-108.9 85.6-2 8.5-3.1 17.3-3.1 26.4H256c0 53-43 96-96 96-53.9 0-96-43-96-96H32c-17.67 0-32-14.3-32-32v-32c0-70.7 57.31-128 128-128h96c17.7 0 32 14.3 32 32v80c0 17.7 14.3 32 32 32h71.3c14.5-46.9 49.2-83.1 93.6-100.7L400.8 85.37a7.923 7.923 0 0 0-7.5-5.37H352c-13.3 0-24-10.74-24-24zM208 240h-80c-44.18 0-80 35.8-80 80v16h166.7c-4.3-9.8-6.7-20.6-6.7-32v-64zm0 144h-96c0 26.5 21.5 48 48 48s48-21.5 48-48zm24-272c13.3 0 24 10.7 24 24s-10.7 24-24 24H120c-13.3 0-24-10.7-24-24s10.7-24 24-24h112zm184 272c0-53.9 42.1-96 96-96 53 0 96 42.1 96 96 0 53-43 96-96 96-53.9 0-96-43-96-96zm96 48c26.5 0 48-21.5 48-48s-21.5-48-48-48-48 21.5-48 48 21.5 48 48 48z"/></svg>