<svg xmlns="http://www.w3.org/2000/svg" viewBox="0 0 512 512"><!--! Font Awesome Pro 6.1.1 by @fontawesome - https://fontawesome.com License - https://fontawesome.com/license (Commercial License) Copyright 2022 Fonticons, Inc.--><path d="M487.1 191.1H24c-13.25 0-24 10.75-24 24s10.75 24 24 24l7.999.007c0 79.34 42.03 152.1 109.1 192.2C132.5 449.5 127.1 468.5 127.1 488c0 13.25 10.75 24 24 24h207.1c13.25 0 24-10.75 24-24 0-19.55-4.469-38.45-13.12-55.81 67.09-40.08 109.1-112.8 109.1-192.2l8.007-.007c13.25 0 24-10.75 24-24S501.2 191.1 487.1 191.1zM326.9 401a23.85 23.85 0 0 0-13.62 16.3 23.882 23.882 0 0 0 4.656 20.75c6.438 7.969 11.22 16.72 14.25 25.94H179.8c3.031-9.219 7.812-17.97 14.25-25.94a23.875 23.875 0 0 0 4.656-20.75 23.894 23.894 0 0 0-13.62-16.3C121.2 372.9 79.1 309.7 79.1 239.1h351.1c.9 70.6-39.5 133.8-103.3 161.9zM503.6 42.26c10.09-8.594 11.31-23.73 2.719-33.83s-23.72-11.3-33.84-2.703L291.3 159.1h74.01L503.6 42.26z"/></svg>