<svg xmlns="http://www.w3.org/2000/svg" viewBox="0 0 640 512"><!--! Font Awesome Pro 6.1.1 by @fontawesome - https://fontawesome.com License - https://fontawesome.com/license (Commercial License) Copyright 2022 Fonticons, Inc.--><path d="M400 0c7.6 0 14.7 3.557 19.2 9.601 18 23.989 40.1 42.109 66.5 59.459 15.6 10.33 30.4 19.46 48.2 29.33 13 7.61 26.9 15.71 42.1 25.21 30.1 19.2 48 53.2 48 88.2 0 25.7-8.9 49.2-23.8 67.8 23.6 11.8 39.8 36.2 39.8 64.4v96c0 39.8-32.2 72-72 72H72c-39.76 0-72-32.2-72-72V140.7C0 96.25 20.52 54.31 55.59 27.02L81.27 7.056c8.66-6.741 20.83-6.741 29.43 0l25.7 19.964c26.9 20.92 45.2 50.44 52.3 83.08-24.1 21.6-38.9 51-43.3 81.9H48v248c0 13.3 10.75 24 24 24h92.1c-2.7-7.5-4.1-15.6-4.1-24v-96c0-28.2 16.2-52.6 39.8-64.4-14.9-18.6-23.8-42.1-23.8-67.8 0-35 17-69 47.1-88.2 16.1-9.5 30-17.6 43-25.21 16.9-9.87 32.6-19 48.3-29.33 26.3-17.35 48.4-35.47 66.4-59.46C385.3 3.557 392.4 0 400 0zM232 464h24v-56c0-13.3 10.7-24 24-24s24 10.7 24 24v56h48v-50.9c0-19 8.4-37 23-48.3l25-20.8 24.1 20.8c15.5 11.3 23.9 29.3 23.9 48.3V464h48v-56c0-13.3 10.7-24 24-24s24 10.7 24 24v56h24c13.3 0 24-10.7 24-24v-96c0-13.3-10.7-24-24-24H232c-13.3 0-24 10.7-24 24v96c0 13.3 10.7 24 24 24zM48 144h96v-3.3c0-29.6-13.7-57.6-37.1-75.79L96 56.41l-10.94 8.5A96.074 96.074 0 0 0 48 140.7v3.3zm502.7 20.4c-12.6-7.9-25.9-15.6-39-23.3-18.3-10.8-36.5-21.4-52.4-31.9-21.1-13.92-41.2-29.22-59.3-48.16-18.1 18.94-38.2 34.24-59.3 48.16-15.9 10.5-34.1 21.1-52.4 31.9-13.1 7.7-26.4 15.4-39 23.3-15.7 9.7-25.3 26.7-25.3 47.4 0 33.3 26.9 60.2 60.2 60.2h231.6c33.3 0 60.2-26.9 60.2-60.2 0-20.7-9.6-37.7-25.3-47.4z"/></svg>