<svg xmlns="http://www.w3.org/2000/svg" viewBox="0 0 640 512"><!--! Font Awesome Pro 6.1.1 by @fontawesome - https://fontawesome.com License - https://fontawesome.com/license (Commercial License) Copyright 2022 Fonticons, Inc.--><path d="M177.5 506.9c-10.3-8.2-12.2-23.5-4.2-34.1l43-57.3v-55.6c0-5.9 2.1-11.5 5.7-15.9l62.3-74.6-129.7 118.4C97.58 447.6 0 405.2 0 320.6c0-47.9 34.02-88.2 79.35-94.2l152.95-23.9-40.8-40.9c-7.8-7.8-9.4-20.1-3.9-29.8l23.9-41.73-38.2-50.88c-8-10.64-6.1-25.92 4.2-34.136 10.4-8.216 25.2-6.254 33.2 4.383l48 63.913c5.9 7.87 6.6 17.75 1.7 27.25L237.8 140l49.3 50.3v-38.2c0-14.9 11.1-27.4 24-31V63.94c0-4.42 4.5-8 8-8 5.3 0 8 3.58 8 8v57.16c14.7 3.6 24 16.1 24 31v38.2l51.1-50.3-22.6-39.4c-4.9-9.5-4.2-19.38 1.7-27.25l48-63.913c8-10.636 22.8-12.598 33.2-4.382 10.3 8.215 12.2 23.495 4.2 34.135l-38.2 50.88 23.9 41.73c5.5 9.7 3.9 22-3.9 29.8l-40.8 40.9 152.9 23.9c44.5 5.9 79.4 46.3 79.4 94.2 0 84.6-97.6 127-154.6 67.2L355.7 269.4l61.4 74.6c4.5 4.4 6.6 10 6.6 15.9v62.6l42 49.1c8.7 10 7.8 25.4-2 34.3-9.8 8.9-24.8 8-33.4-2.1l-48-55.9c-3.9-4.5-6-10.2-6-16.1v-62.9l-25.2-29.2v68.1c0 17.7-13.4 32-32 32-16.8 0-32-14.3-32-32v-68.1l-23.4 29.2v54.9c0 5.3-1.8 10.6-5 14.8l-48 64c-8 10.6-22.8 12.5-33.2 4.3zm-57.6-152.3c.8-.8 1.6-1.5 2.4-2.3l111.1-101.4-146.63 22.9c-.39.1-.79-.7-1.18.2C65.84 276.6 48 295.1 48 320.6c0 21.5 12.25 37.3 27.04 43.7 14.52 6.3 31.26 4.6 44.86-9.7zm286.7-103.7 111.1 101.4c.8.8 1.6 1.5 2.4 2.3 13.6 14.3 30.3 16 44 9.7 15.7-6.4 27.9-22.2 27.9-43.7 0-25.5-17.8-44-37.6-46.6-.4-.1-.8-.1-1.2-.2l-146.6-22.9z"/></svg>