<svg xmlns="http://www.w3.org/2000/svg" viewBox="0 0 640 512"><!--! Font Awesome Pro 6.1.1 by @fontawesome - https://fontawesome.com License - https://fontawesome.com/license (Commercial License) Copyright 2022 Fonticons, Inc.--><path d="M288 384v-32c0-88.4-71.6-160-160-160H56c-13.25 0-24-10.7-24-24s10.75-24 24-24h72c49.6 0 95.1 17.3 130.8 46.3l95.3-80L337.7 80H280c-13.3 0-24-10.74-24-24 0-13.25 10.7-24 24-24h62.5c14.7 0 28.2 8.05 35.1 20.98l14 25.78 46.7-39.26c5.8-4.84 13.1-7.5 20.6-7.5H480c17.7 0 32 14.33 32 32v32c0 17.7-14.3 32-32 32h-61.8l55.1 101.1c12.2-3 25.2-5.1 38.7-5.1 70.7 0 128 57.3 128 128s-57.3 128-128 128-128-57.3-128-128c0-40.9 18.4-75.7 47.1-99.2l-15.4-28.6C376.1 253.4 352 299.8 352 352v32h-64zm32-112.1c15.3-36.6 40.6-67.8 72.6-90.3l-15.2-28.2-84.9 71.3c11.1 14.3 20.4 30.2 27.5 47.2zM512 432c44.2 0 80-35.8 80-80s-35.8-80-80-80c-5.2 0-10.3.5-15.2 1.4l36.3 67.2c6.3 11.6 2 26.2-9.7 32.5-11.6 6.3-26.2 2-32.5-9.7l-36.3-67.1c-14 14.4-22.6 34-22.6 55.7 0 44.2 35.8 80 80 80zM0 352c0-70.7 57.31-128 128-128 70.7 0 128 57.3 128 128s-57.3 128-128 128C57.31 480 0 422.7 0 352zm204.3-24c-10.2-32.5-40.5-56-76.3-56-44.18 0-80 35.8-80 80s35.82 80 80 80c35.8 0 66.1-23.5 76.3-56h-55.1c-5.7 4.1-13.1 8-21.2 8-17.7 0-32-14.3-32-32s14.3-32 32-32c8.1 0 15.5 3 21.2 8h55.1z"/></svg>