<svg xmlns="http://www.w3.org/2000/svg" viewBox="0 0 640 512"><!--! Font Awesome Pro 6.1.1 by @fontawesome - https://fontawesome.com License - https://fontawesome.com/license (Commercial License) Copyright 2022 Fonticons, Inc.--><path d="M344 47.1c-4.4 0-8 4.48-8 8v164.6l-48.9-79.6V56c0-30.93 26-56 56.9-56h112c30.9 0 56 25.07 56 56v136h32v-72c0-13.3 10.7-24 24-24s24 10.7 24 24v72.6c27.1 3.8 48 27.2 48 55.4v232c0 13.3-10.7 24-24 24s-24-10.7-24-24V248c0-4.4-3.6-8-8-8H464V56c0-4.42-3.6-8-8-8l-112-.9zm40 224h32c8.8 0 16 8.1 16 16v32c0 9.7-7.2 16.9-16 16.9h-9.8l-34.9-57.8c3-3.8 7.5-7.1 12.7-7.1zm32-192c8.8 0 16 8.06 16 16v32c0 9.7-7.2 16-16 16h-32c-8.8 0-16-6.3-16-16v-32c0-7.94 7.2-16 16-16h32zm-48 112c0-7.9 7.2-16 16-16h32c8.8 0 16 8.1 16 16v32c0 9.7-7.2 16-16 16h-32c-8.8 0-16-6.3-16-16v-32zm128 96c0-7.9 7.2-16 16-16h32c8.8 0 16 8.1 16 16v32c0 9.7-7.2 16.9-16 16.9h-32c-8.8 0-16-7.2-16-16.9v-32zm48 80.9c8.8 0 16 7.2 16 16v32c0 8.8-7.2 16-16 16h-32c-8.8 0-16-7.2-16-16v-32c0-8.8 7.2-16 16-16h32zm-101.1 90.9c6.5 10.8 6.8 24.3.7 35.3-6.1 11-17.6 17.8-30.1 17.8H34.46c-13.36 0-23.96-6.8-30.056-17.8-6.097-11-5.848-24.5.652-35.3L194.6 144.7c6.3-10.4 16.5-16.7 29.4-16.7 12 0 23.1 6.3 29.4 16.7l189.5 314.2zm-219.8-270-68.6 115.2 21.3 30.8 28-37.3c4.5-6 11.6-10.5 18.3-10.5h61.7l-60.7-98.2zm166 275.1-76.3-128h-78.7l-39.9 54.4c-4.6 6.2-11.9 9.7-19.7 8.7-7.7.7-14.9-4-19.2-9.5l-28-40.4L58.03 464H389.1z"/></svg>