<svg xmlns="http://www.w3.org/2000/svg" viewBox="0 0 640 512"><!--! Font Awesome Pro 6.1.1 by @fontawesome - https://fontawesome.com License - https://fontawesome.com/license (Commercial License) Copyright 2022 Fonticons, Inc.--><path d="M511.1 32H112c-8.8 0-16 7.2-16 16l-.9 240c0 53.02 42.98 96 96 96h192c53.02 0 96-42.98 96-96h26.38c66.83 0 126.6-48.78 133-115.3C646.8 96.38 586.8 32 511.1 32zM432 288c0 26.4-21.6 48-48 48H192c-26.4 0-48-21.6-48-48V80h72v40l-30.6 30.6c-6 6-9.4 14.2-9.4 22.7V224c0 17.67 14.33 32 32 32h47.1c17.67 0 32-14.33 32-32l.9-50.7a32.02 32.02 0 0 0-9.373-22.63L248 120V80h184v208zm80-48h-32V80h32c44.13 0 80 35.88 80 80s-35.9 80-80 80zm64 216c0 13.25-10.75 24-24 24H24c-13.25 0-24-10.7-24-24 0-13.26 10.75-24 24-24h528c13.3 0 24 10.7 24 24z"/></svg>