<svg xmlns="http://www.w3.org/2000/svg" viewBox="0 0 640 512"><!--! Font Awesome Pro 6.1.1 by @fontawesome - https://fontawesome.com License - https://fontawesome.com/license (Commercial License) Copyright 2022 Fonticons, Inc.--><path d="m630.8 469.1-72.14-56.54c8.521-10.45 14.51-22.48 16.33-35.69.625-2.75.875-5.5 1-8.25l-.89-336.63c0-17.63-13.4-31.99-32-31.99-3.25 0-6.5.49-9.625 1.49L230.4 97.5C217.1 101.8 208 114 208 128v9.715L38.81 5.109C28.34-3.063 13.32-1.25 5.121 9.187c-8.172 10.44-6.354 25.53 4.068 33.7L601.2 506.9c4.4 3.4 9.6 5.1 13.9 5.1 7.125 0 14.16-3.161 18.9-9.193 9.1-10.407 7.2-25.507-3.2-33.707zm-109.4-85.8-57.65-45.19C468.8 336.9 474.1 336 480 336c28.25 0 48 16.88 48 32 0 5.2-2.5 10.5-6.6 15.3zm6.6-84.2c-15-7.375-31.38-11.13-48.01-11.13-22.19 0-42.25 6.539-58.42 17.11l-92.21-72.27L528 170.1v129zm0-179.3-244.5 77.1-27.5-21.6v-35.5l272-85.88v65.88zM208 363.1c-15-7.375-31.38-11.13-48.01-11.13-53 0-95.1 35.75-95.1 79.1s42.1 79.1 95.1 79.1c49.38 0 89.51-31.12 94.88-71.12.75-2.75 1.118-5.952 1.118-8.827L256 296.9l-48-37.6v103.8zM160 464c-28.25 0-48-16.88-48-32s19.75-32 48-32 48 16.88 48 32-19.7 32-48 32z"/></svg>