<svg xmlns="http://www.w3.org/2000/svg" viewBox="0 0 640 512"><!--! Font Awesome Pro 6.1.1 by @fontawesome - https://fontawesome.com License - https://fontawesome.com/license (Commercial License) Copyright 2022 Fonticons, Inc.--><path d="M630.8 469.1 352 250.6v-55.2l137.6-33.38C503 157.7 512 145.5 512 131.5V31.98c0-10.25-4.938-19.81-13.19-25.81-8.25-6.125-18.69-7.699-28.44-4.699l-144 35.38C313.1 41.09 304 53.34 304 67.34v145.6L38.81 5.111C28.34-3.061 13.32-1.248 5.12 9.189c-8.172 10.44-6.354 25.53 4.068 33.7L601.2 506.9c4.4 3.4 9.6 5.1 13.9 5.1 7.125 0 14.16-3.161 18.89-9.193 9.11-10.407 7.21-25.507-3.19-33.707zM352 79.09l112-25.25v65.86l-112 24.4V79.09zM304 366.5c-18.12-9.125-40.13-14.5-64-14.5-61.88 0-112 35.88-112 80 0 44.1 50.1 80 112 80s111.1-35.88 111.1-80l.9-59.4-48-37.62v31.52zm-64 96.6c-39.75 0-63.1-20.75-63.1-31.1 0-11.25 24.25-32.01 63.1-32.01s64 20.75 64 32c0 11.21-24.2 31.11-64 31.11z"/></svg>