<svg xmlns="http://www.w3.org/2000/svg" viewBox="0 0 448 512"><!--! Font Awesome Pro 6.1.1 by @fontawesome - https://fontawesome.com License - https://fontawesome.com/license (Commercial License) Copyright 2022 Fonticons, Inc.--><path d="M253 255.1h83v-200c0-12.36 10.7-24 24-24s24 11.64 24 24v200h40c13.3 0 24 11.6 24 24 0 14.2-10.7 24-24 24h-40V456c0 10.5-6.9 19.8-16.9 22.9-11 3.1-21-.7-26.9-9.4L227.6 303.1H112V456c0 13.3-10.7 24-24 24-13.25 0-24-10.7-24-24V303.1H24c-13.25 0-24-9.8-24-24 0-12.4 10.75-24 24-24h40v-200c0-9.64 6.87-18.94 16.94-22.04 10.07-3.1 20.96.73 26.86 9.44L253 255.1zm32.7 48L336 378v-74.9h-50.3zm-91.6-48-82.1-122v122h82.1z"/></svg>