<svg xmlns="http://www.w3.org/2000/svg" viewBox="0 0 640 512"><!--! Font Awesome Pro 6.1.1 by @fontawesome - https://fontawesome.com License - https://fontawesome.com/license (Commercial License) Copyright 2022 Fonticons, Inc.--><path d="m590.7 214 48.75-192.3C642.237 11.6 633.948.01 622.6-.02c-5.99 0-11.62 3.074-14.81 8.148l-99.31 157.7C494.2 162.2 479.4 159.1 464 159.1c-72.28 0-142.2 25.84-197.1 72.85L154.4 328.3c-3.125 2.674-6.762 3.874-10.32 3.874C135.8 333.1 128 326.6 128 317v-34.9l49.8-30.5c8.8-5.9 14.2-15.9 14.2-27.5v-97c0-8.5-7.7-15.1-16.9-15.1-2.969 0-6.012.844-8.807 2.705L95.98 162.1l-71.1-47.4c-2.8-1.8-5.85-2.7-8.83-2.7C7.729 112 0 118.6 0 128.1v96.93a31.968 31.968 0 0 0 14.25 26.57L64 282.1v69.88C64 440.4 135.6 512 224 512h240c97.2 0 176-78.8 176-176 0-47.4-18.8-90.3-49.3-122zm-487.8 27.2-7.8 4.2L48 216v-28.2l47.98 32 48.02-32V216l-41.1 25.2zM464 464H224c-54.37 0-99.81-38.94-109.9-90.39 8.955 4.758 19.17 7.457 29.1 7.457 15.17 0 29.92-5.475 41.54-15.42l112.5-96.34C344.3 229.8 403.2 208 464 208c70.69 0 128 57.31 128 128 0 70.7-57.3 128-128 128zm40-192.9c-13.25 0-24 10.74-24 24 0 13.25 10.75 24 24 24s24-10.75 24-24c0-12.4-10.7-24-24-24z"/></svg>