<svg xmlns="http://www.w3.org/2000/svg" viewBox="0 0 640 512"><!--! Font Awesome Pro 6.1.1 by @fontawesome - https://fontawesome.com License - https://fontawesome.com/license (Commercial License) Copyright 2022 Fonticons, Inc.--><path d="M231.9 464H78.03c-59.89-80.78-12.19-173.1-11.66-174.1 3-5.7 5.85-11.7 8.54-17.9H311.9c13.25 0 24.01-10.75 24.01-24s-10.81-24-24.01-24h-8V112c0-61.86-50.16-112-112-112S79.82 50.14 79.82 112v112H58.56a24.016 24.016 0 0 0-22.6 15.88c-3.57 9.92-7.63 19.22-12.04 27.52C.51 311.59-24.53 417.7 48.15 503.5c4.56 5.4 11.25 8.5 18.32 8.5h165.4c13.25 0 24.01-10.75 24.01-24s-10.78-24-23.98-24zm-40-402.44C205.6 82.29 229.1 96 255.9 96c0 35.35-28.66 64-64.02 64s-64.08-28.7-64.08-64c26.8 0 50.3-13.71 64.1-34.44zm443 411.74c-23.4-30.2-36.4-67.6-36.4-105.3v-13.34C598.5 282.6 538.2 224 463.9 224s-134.6 58.63-134.6 130.7V368c0 37.66-12.94 75.06-36.42 105.3a23.988 23.988 0 0 0-2.626 25.28C294.4 506.8 302.7 512 311.9 512H616c9.159 0 17.54-5.219 21.57-13.44 4.03-8.26 3.03-18.06-2.67-25.26zM463.9 272c41.33 0 75.87 27.85 84.43 64.89-1.43-.39-2.83-.89-5.23-.89-26.85 0-51.8-13.41-66.68-35.91-5.939-8.938-20.76-8.938-26.7 0C435.7 322.6 410.8 336 383.9 336c-1.561 0-2.974.47-4.4.887C388.1 299.9 422.6 272 463.9 272zm62.4 94.6c-6.7 28.3-32.1 49.4-62.4 49.4-30.29 0-55.71-21.12-62.33-49.41a111.574 111.574 0 0 0 62.33-32.28c16.8 17.19 38.6 28.49 62.4 32.29zM354.1 464c11.29-23.13 18.39-48.09 21.08-73.55C390.9 424.3 424.7 448 463.9 448c39.26 0 72.99-23.73 87.87-57.55 2.688 25.46 9.783 50.42 21.08 73.55H354.1z"/></svg>