<svg xmlns="http://www.w3.org/2000/svg" viewBox="0 0 576 512"><!--! Font Awesome Pro 6.1.1 by @fontawesome - https://fontawesome.com License - https://fontawesome.com/license (Commercial License) Copyright 2022 Fonticons, Inc.--><path d="M199.7 297.6c-10.6-9-10.3-24.2-1.3-33.9 9-10.6 24.2-10.3 33.9-1.3l176.1 163.4c52.9-37.2 86.7-100.2 86.7-169.8 0-75.9-40.4-143.9-101.4-179.22-11.5-6.64-15.4-21.32-8.8-32.79 6.7-11.48 21.3-15.4 32.8-8.76C493.4 78.98 543.1 162.7 543.1 256c0 93.3-49.7 177-125.4 220.8-9.1 5.3-20.6 4-28.3-3.2l-189.7-176zm176.6-83.2c9.7 9 10.3 24.2 1.3 33.9s-24.2 10.3-33.9 1.3L167.6 86.22C114.7 123.4 80 186.4 80 256c0 75.9 41.3 143.9 102.3 179.2 11.5 6.7 15.4 21.4 8.8 32.8-6.7 11.5-21.4 15.4-32.8 8.8C82.63 433 32 349.3 32 256c0-93.3 50.63-177.01 126.3-220.76 9.1-5.28 20.6-3.99 28.3 3.18L376.3 214.4z"/></svg>