<svg xmlns="http://www.w3.org/2000/svg" viewBox="0 0 640 512"><!--! Font Awesome Pro 6.1.1 by @fontawesome - https://fontawesome.com License - https://fontawesome.com/license (Commercial License) Copyright 2022 Fonticons, Inc.--><path d="m630.8 469.1-86.8-68V96c0-35.35-28.65-64-64-64H160c-21.6 0-40.6 10.78-52.2 27.18L38.81 5.113c-10.47-8.172-25.5-6.359-33.7 4.078C-3.062 19.63-1.234 34.72 9.188 42.89l592 463.1C605.6 510.3 610.8 512 615.1 512c7.125 0 14.17-3.156 18.91-9.188 9.09-10.412 7.19-25.512-3.21-33.712zM416 300.7l-48.98-38.39c.28-2.11.98-4.11.98-6.31 0-17.72-9.713-33.03-24-41.34V160h72v140.7zm80 62.7-32-25.08V149.3c0-20.5-16.7-37.3-37.3-37.3H320c-13.25 0-24 10.75-24 24v70.69l-60.5-47.39C247 157.5 256 148 256 136c0-13.2-10.7-24-24-24h-18.7c-9.775 0-18.53 3.973-25.2 10.15l-42.3-33.18c2.6-5.26 7.9-8.97 14.2-8.97h320c8.822 0 16 7.178 16 16v267.4zM160 432c-8.822 0-16-7.178-16-16V209.6l-48-37.7V416c0 35.35 28.65 64 64 64h320c2.746 0 5.361-.473 8.018-.809L427.8 432H160zm16-197.4v128c0 20.7 16.8 37.4 37.3 37.4H387l-61.3-48H224v-79.7l-48-37.7z"/></svg>