<svg xmlns="http://www.w3.org/2000/svg" viewBox="0 0 640 512"><!--! Font Awesome Pro 6.1.1 by @fontawesome - https://fontawesome.com License - https://fontawesome.com/license (Commercial License) Copyright 2022 Fonticons, Inc.--><path d="M368 182.2v-32.9c0-20.5-16.7-37.3-37.3-37.3H224c-13.25 0-24 10.75-24 24v78.66c-14.3 7.44-24 23.64-24 41.34 0 26.51 21.49 48 48 48s48-21.5 48-48c0-17.72-9.713-33.03-24-41.34V160h72v64.88c12.9-17.38 29.2-31.78 48-42.68zM136 160c13.3 0 24-10.7 24-24s-10.7-24-24-24h-18.7C96.75 112 80 128.8 80 149.3v213.3c0 20.7 16.75 37.4 37.3 37.4h192.9c-8.6-14.8-15.5-30.7-19-48H128V160h8zM64 432c-8.822 0-16-7.178-16-16V96c0-8.822 7.178-16 16-16h320c8.822 0 16 7.178 16 16v72.14c15.2-4.84 31.2-8.14 48-8.14V96c0-35.35-28.65-64-64-64H64C28.65 32 0 60.65 0 96v320c0 35.35 28.65 64 64 64h320c8.82 0 16.87-2.238 24.49-5.505C379.7 467.2 354.1 452.5 333.9 432H64zm568.1 39-79.12-79.12C567.8 371.4 576 346.7 576 320c0-70.69-57.31-128-128-128s-128 57.31-128 128 57.31 128 128 128c26.67 0 51.41-8.191 71.91-22.15l79.12 79.12C603.7 509.7 609.9 512 616 512s12.28-2.344 16.97-7.031c9.33-9.369 9.33-24.569-.87-33.969zM448 400c-44.11 0-80-35.89-80-80s35.89-80 80-80 80 35.89 80 80-35.9 80-80 80z"/></svg>