<svg xmlns="http://www.w3.org/2000/svg" viewBox="0 0 576 512"><!--! Font Awesome Pro 6.1.1 by @fontawesome - https://fontawesome.com License - https://fontawesome.com/license (Commercial License) Copyright 2022 Fonticons, Inc.--><path d="M528 320v-64c0-44.11-35.89-80-80-80s-80 35.9-80 80v64c-26.51 0-48 21.49-48 48v96c0 26.51 21.49 48 48 48h160c26.51 0 48-21.49 48-48v-96c0-26.5-21.5-48-48-48zm-80 128c-17.67 0-32-14.33-32-32s14.33-32 32-32 32 14.33 32 32c0 17.7-14.3 32-32 32zm32-128h-64v-64c0-17.64 14.36-32 32-32s32 14.36 32 32v64zM288 432H64c-8.822 0-16-7.178-16-16V96c0-8.822 7.178-16 16-16h320c8.822 0 16 7.178 16 16v59.23c14.6-7.03 30.8-11.23 48-11.23V96c0-35.35-28.65-64-64-64H64C28.65 32 0 60.65 0 96v320c0 35.35 28.65 64 64 64h225.6c-1-5.2-1.6-10.5-1.6-16v-32zM128 160h8c13.3 0 24-10.7 24-24s-10.7-24-24-24h-18.7C96.75 112 80 128.8 80 149.3v213.3c0 20.7 16.75 37.4 37.3 37.4H288v-32c0-5.502.746-10.81 1.809-16H128V160zm208 134.7V256c0-30.4 12.27-57.94 32-78.14V149.3c0-20.5-16.7-37.3-37.3-37.3H224c-13.25 0-24 10.75-24 24v78.66c-14.3 7.44-24 23.64-24 41.34 0 26.51 21.49 48 48 48s48-21.5 48-48c0-17.72-9.713-33.03-24-41.34V160h72v144.3c4.1-3.8 10.2-7.1 16-9.6z"/></svg>