<svg xmlns="http://www.w3.org/2000/svg" viewBox="0 0 576 512"><!--! Font Awesome Pro 6.1.1 by @fontawesome - https://fontawesome.com License - https://fontawesome.com/license (Commercial License) Copyright 2022 Fonticons, Inc.--><path d="M307.4 420.6a18.265 18.265 0 0 0-4.918 9.208l-14.29 71.42c-1.25 6.291 4.335 11.83 10.59 10.58l71.45-14.29a17.845 17.845 0 0 0 9.175-4.917l125.3-125.3-72-72L307.4 420.6zm258.1-164.9-21.09-21.1c-14.08-14.06-36.87-14.06-50.92 0l-38.12 38.15 72 72 38.12-38.13c14.01-14.12 14.01-36.92.01-50.92zM48 416V96c0-8.822 7.178-16 16-16h320c8.822 0 16 7.178 16 16v186.8l48-48V96c0-35.35-28.65-64-64-64H64C28.65 32 0 60.65 0 96v320c0 35.35 28.65 64 64 64h195.8l9.605-48H64c-8.82 0-16-7.2-16-16zm320-266.7c0-20.5-16.7-37.3-37.3-37.3H224c-13.25 0-24 10.75-24 24v78.66c-14.3 7.44-24 23.64-24 41.34 0 26.51 21.49 48 48 48s48-21.5 48-48c0-17.72-9.713-33.03-24-41.34V160h72v192H128V160h8c13.3 0 24-10.7 24-24s-10.7-24-24-24h-18.7C96.75 112 80 128.8 80 149.3v213.3c0 20.7 16.75 37.4 37.3 37.4h165.9c.566-.63.894-1.414 1.496-2.02L368 314.8V149.3z"/></svg>