<svg xmlns="http://www.w3.org/2000/svg" viewBox="0 0 512 512"><!--! Font Awesome Pro 6.1.1 by @fontawesome - https://fontawesome.com License - https://fontawesome.com/license (Commercial License) Copyright 2022 Fonticons, Inc.--><path d="M416 96H160c-35.34 0-63.1 28.65-64 63.1v256c-.9 36.2 28.7 64.9 64 64.9h226.8c8.486 0 16.62-3.371 22.63-9.375l61.25-61.25a32.002 32.002 0 0 0 9.373-22.63L480 160c0-35.2-28.8-64-64-64zm16 256h-48.01c-17.67 0-32 14.33-32 32l.014 47.88H160c-8.836 0-16-7.164-16-16V160c0-8.836 7.162-16 16-16h256c8.836 0 16 7.164 16 16v192zM0 360V120C0 53.83 53.83 0 120 0h240c13.3 0 24 10.75 24 24s-10.7 24-24 24H120c-39.7 0-72 32.3-72 72v240c0 13.3-10.75 24-24 24S0 373.3 0 360z"/></svg>