<svg xmlns="http://www.w3.org/2000/svg" viewBox="0 0 512 512"><!--! Font Awesome Pro 6.1.1 by @fontawesome - https://fontawesome.com License - https://fontawesome.com/license (Commercial License) Copyright 2022 Fonticons, Inc.--><path d="M354.7 261.3h-40v-40c0-7.3-6-13.3-13.4-13.3h-26.67c-7.334 0-13.33 6-13.33 13.33v40h-40c-8.2-.03-13.3 5.97-13.3 13.37v26.67c0 7.332 5.1 13.33 13.33 13.33h40v40c0 7.332 5.998 13.34 13.33 13.34h26.67c7.334 0 13.33-6.004 13.33-13.34v-40h40c7.333 0 13.33-6 13.33-13.33V274.7c.01-7.4-6.89-13.4-13.29-13.4zM416 96H160c-35.34 0-63.1 28.65-64 63.1v256c-.9 36.2 28.7 64.9 64 64.9h226.8c8.486 0 16.62-3.371 22.63-9.375l61.25-61.25a32.002 32.002 0 0 0 9.373-22.63L480 160c0-35.2-28.8-64-64-64zm16 284.1L380.1 432H160c-5.766 0-9.564-2.938-11.31-4.688S144 421.8 144 416l.02-256c0-8.824 7.177-16 16-16h256c8.674 0 16 7.328 16 16v220.1zM0 360V120C0 53.83 53.83 0 120 0h240c13.3 0 24 10.75 24 24s-10.7 24-24 24H120c-39.7 0-72 32.3-72 72v240c0 13.3-10.75 24-24 24S0 373.3 0 360z"/></svg>