<svg xmlns="http://www.w3.org/2000/svg" viewBox="0 0 512 512"><!--! Font Awesome Pro 6.1.1 by @fontawesome - https://fontawesome.com License - https://fontawesome.com/license (Commercial License) Copyright 2022 Fonticons, Inc.--><path d="M0 24C0 10.75 10.75 0 24 0s24 10.75 24 24v464c0 13.3-10.75 24-24 24S0 501.3 0 488V24zm128 88c0-26.51 21.5-48 48-48h288c26.5 0 48 21.49 48 48v64c0 26.5-21.5 48-48 48H176c-26.5 0-48-21.5-48-48v-64zm336 64v-64H176v64h288zM128 336c0-26.5 21.5-48 48-48h160c26.5 0 48 21.5 48 48v64c0 26.5-21.5 48-48 48H176c-26.5 0-48-21.5-48-48v-64zm208 64v-64H176v64h160z"/></svg>