<svg xmlns="http://www.w3.org/2000/svg" viewBox="0 0 448 512"><!--! Font Awesome Pro 6.1.1 by @fontawesome - https://fontawesome.com License - https://fontawesome.com/license (Commercial License) Copyright 2022 Fonticons, Inc.--><path d="M0 80c0-26.51 21.49-48 48-48h96c26.5 0 48 21.49 48 48v160c0 26.5-21.5 48-48 48H48c-26.51 0-48-21.5-48-48V80zm48 160h96V80H48v160zm208 32c0-26.5 21.5-48 48-48h96c26.5 0 48 21.5 48 48v160c0 26.5-21.5 48-48 48h-96c-26.5 0-48-21.5-48-48V272zm48 160h96V272h-96v160zM144 320c26.5 0 48 21.5 48 48v64c0 26.5-21.5 48-48 48H48c-26.51 0-48-21.5-48-48v-64c0-26.5 21.49-48 48-48h96zm0 48H48v64h96v-64zM256 80c0-26.51 21.5-48 48-48h96c26.5 0 48 21.49 48 48v64c0 26.5-21.5 48-48 48h-96c-26.5 0-48-21.5-48-48V80zm48 64h96V80h-96v64z"/></svg>