<svg xmlns="http://www.w3.org/2000/svg" viewBox="0 0 512 512"><!--! Font Awesome Pro 6.1.1 by @fontawesome - https://fontawesome.com License - https://fontawesome.com/license (Commercial License) Copyright 2022 Fonticons, Inc.--><path d="M64 80c0-26.51 21.49-48 48-48h64c26.5 0 48 21.49 48 48v152h64v-88c0-26.5 21.5-48 48-48h64c26.5 0 48 21.5 48 48v88h40c13.3 0 24 10.7 24 24s-10.7 24-24 24h-40v88c0 26.5-21.5 48-48 48h-64c-26.5 0-48-21.5-48-48v-88h-64v152c0 26.5-21.5 48-48 48h-64c-26.51 0-48-21.5-48-48V280H24c-13.25 0-24-10.7-24-24s10.75-24 24-24h40V80zm48 352h64V80h-64v352zm224-64h64V144h-64v224z"/></svg>