<svg xmlns="http://www.w3.org/2000/svg" viewBox="0 0 512 512"><!--! Font Awesome Pro 6.1.1 by @fontawesome - https://fontawesome.com License - https://fontawesome.com/license (Commercial License) Copyright 2022 Fonticons, Inc.--><path d="M.067 191.5c0-19.1 7.585-37.4 21.093-50.9L140.6 21.15A71.975 71.975 0 0 1 191.5.066h129c19.1 0 37.4 7.586 50.9 21.084L490.8 140.6c13.5 13.5 21.1 31.8 21.1 50.9v129c0 19.1-7.6 37.4-21.1 50.9L371.4 490.8a71.983 71.983 0 0 1-50.9 21.1h-129c-19.1 0-37.4-7.6-50.9-21.1L21.15 371.4A71.975 71.975 0 0 1 .067 320.5v-129zm55.033-17c-4.5 4.5-7.03 10.7-7.03 17v129c0 6.3 2.53 11.6 7.03 17l119.4 119.4c4.5 4.5 10.7 7 17 7h129c6.3 0 11.6-2.5 17-7l119.4-119.4c4.5-5.4 7-10.7 7-17v-129c0-6.3-2.5-12.5-7-17L337.5 55.1c-5.4-4.5-10.7-7.03-17-7.03h-129c-6.3 0-12.5 2.53-17 7.03L55.1 174.5zM21.15 371.4l33.95-33.9z"/></svg>