<svg xmlns="http://www.w3.org/2000/svg" viewBox="0 0 576 512"><!--! Font Awesome Pro 6.1.1 by @fontawesome - https://fontawesome.com License - https://fontawesome.com/license (Commercial License) Copyright 2022 Fonticons, Inc.--><path d="M264 24c0-13.25 10.7-24 24-24h72c13.3 0 24 10.75 24 24s-10.7 24-24 24h-48v48h48c13.3 0 24 10.7 24 24s-10.7 24-24 24h-48v83.7c32.5 10.2 56 40.5 56 76.3 0 44.2-35.8 80-80 80s-80-35.8-80-80c0-35.8 23.5-66.1 56-76.3V24zm24 312c17.7 0 32-14.3 32-32s-14.3-32-32-32-32 14.3-32 32 14.3 32 32 32zm-176.1-49.9c17.9 15.4 41.2 28.5 64.2 32.6 3.2 18.1 9.9 34.9 19.9 49.2-1.3-.8-2.7.1-4.9.1-33.7 0-67-14.3-95.12-33.8-14.37 10-37.99 24-66.67 30.4-12.94 2.9-25.775-5.2-28.676-18.1-2.901-13 5.231-25.8 18.166-28.7 22.2-5 43.96-17.7 60.3-31.7 9.99-9 23.7-9 32.8 0zM383.1 368c-.5 0-1.8-.9-4-.1 10-14.3 17.6-31.1 19.9-49.2 23.9-4.1 47.2-17.2 65-32.6 9.1-9 22.8-9 31.9 0 17 15 39.3 26.8 61.3 31.7 12.9 2.9 21.1 15.7 18.2 28.7-2.9 12.9-15.8 21-28.7 18.1-28.7-6.4-52.3-20.4-67.6-30.4-27.2 19.5-60.5 33.8-96 33.8zm-192 96c29.7 0 59.4-15.3 80.9-33.9 9.1-9 22.9-9 31.1 0 22.4 18.6 52 33.9 80 33.9 29.7 0 59.4-15.3 80.9-33.9 9.1-9 22.8-9 31.9 0 17 15 39.3 26.8 61.3 31.7 12.9 2.9 21.1 15.7 18.2 28.7-2.9 12.9-15.8 21-28.7 18.1-28.7-6.4-52.3-20.4-67.6-30.4-27.2 19.5-60.5 33.8-96 33.8-33.7 0-67-14.3-96-33.8-27.2 19.5-60.5 33.8-96 33.8-33.7 0-67-14.3-95.12-33.8-14.37 10-37.99 24-66.67 30.4-12.94 2.9-25.774-5.2-28.676-18.1-2.901-13 5.232-25.8 18.166-28.7 22.21-5 43.96-17.7 60.3-31.7 9.99-9 23.7-9 32.8 0 21.6 18.6 51.2 33.9 79.2 33.9z"/></svg>