<svg xmlns="http://www.w3.org/2000/svg" viewBox="0 0 640 512"><!--! Font Awesome Pro 6.1.1 by @fontawesome - https://fontawesome.com License - https://fontawesome.com/license (Commercial License) Copyright 2022 Fonticons, Inc.--><path d="M441.7 128c-19.51 0-37.55 4.889-53.75 13.15C371.8 132.8 354.3 128 336 128c-79.41 0-143.1 86.13-143.1 192S257.49 512 336 512c39.29 0 74.91-21.13 100.9-55.26C463 471.6 490.7 480 518 480c34.87 0 66.24-13.64 88.37-38.41 53.75-60.13 41.83-167.6-27.16-244.8C540.2 153.1 490 128 441.7 128zM336 464c-52.03 0-96-65.94-96-144s43.97-144 96-144 96 65.94 96 144-44 144-96 144zm234.7-54.4C554.1 428.1 532.9 432 518 432c-18.59 0-38.31-5.988-57.2-16.65C472.1 387.2 480 354.7 480 320c0-56.76-18.67-107.7-48.13-142.9 3.33-.4 6.93-1.1 9.83-1.1 34.18 0 72.23 19.75 101.8 52.81C594.7 286 607.1 368.8 570.7 409.6zM449.9 48H616c13.25 0 24-10.75 24-24S629.3 0 616 0H449.9c-65.87 0-131.2 16.47-189.5 47.06C244.2 34.17 195.5 0 136 0 64.44 0 7.7 49.94 5.3 52.07A16.114 16.114 0 0 0 .01 64a16 16 0 0 0 5.345 11.94c1.72 1.54 32.195 27.16 75.965 42.56-12.07 6.311-23.92 14.03-34.33 24.44C-1.48 191.41-.07 269.04.03 272.34c.21 8.56 7.053 15.46 15.58 14.76.25 0 .898.016 1.93.016 12.84 0 82.66-2.141 127.5-46.98 30.93-30.94 41.48-73.57 45.09-101.4l87.41-47.7C330.3 63.21 389.9 48 449.9 48z"/></svg>