<svg xmlns="http://www.w3.org/2000/svg" viewBox="0 0 448 512"><!--! Font Awesome Pro 6.1.1 by @fontawesome - https://fontawesome.com License - https://fontawesome.com/license (Commercial License) Copyright 2022 Fonticons, Inc.--><path d="M392.5 89.39C354.2 49.21 312.1 32 269.3 32c-63.4 0-128.4 37.6-185.31 94.2-95.42 94.96-112 232.4-37.02 307C78.59 464.7 121.5 480 167.6 480c63.27 0 132.7-28.67 187.9-83.58 95.4-94.92 132-208.32 37-307.03zM321.6 362.4c-43.8 42.7-101.3 69.6-154 69.6-24.58 0-59.58-5.684-86.79-32.76-27.12-26.99-32.82-61.68-32.82-86.03 0-52.25 26.11-109.4 69.84-152.1C169.9 108.5 223.6 80 269.3 80c32.29 0 61.25 13.91 88.53 42.52C423.1 191.9 411.8 272.7 321.6 362.4zm15.3-219.3c-30.3-30.3-69.61-40.13-87.79-21.95-18.18 18.18-8.355 57.49 21.95 87.79 30.3 30.3 69.61 40.13 87.79 21.95 18.25-18.19 8.35-57.49-21.95-87.79z"/></svg>