<svg xmlns="http://www.w3.org/2000/svg" viewBox="0 0 448 512"><!--! Font Awesome Pro 6.1.1 by @fontawesome - https://fontawesome.com License - https://fontawesome.com/license (Commercial License) Copyright 2022 Fonticons, Inc.--><path d="M448 456c0 13.25-10.75 24-24 24H320c-13.25 0-24-10.76-24-24.01v-24.5c0-8.75 4.781-16.84 12.47-21.03C364.9 379.5 400 320.3 400 256c0-97.03-78.97-176-176-176S48 158.1 48 256c0 64.31 35.06 123.5 91.53 154.5 7.67 4.2 12.47 12.3 12.47 21V456c0 13.25-10.75 24.01-24 24.01L24 480c-13.25 0-24-10.7-24-24s10.75-24 24-24h61.41C32 389.9 0 325.3 0 256 0 132.5 100.5 32 224 32s224 100.5 224 223.1c0 69.31-32 133.9-85.41 175.1H424c13.3 1.8 24 12.6 24 25.8z"/></svg>