<svg xmlns="http://www.w3.org/2000/svg" viewBox="0 0 448 512"><!--! Font Awesome Pro 6.1.1 by @fontawesome - https://fontawesome.com License - https://fontawesome.com/license (Commercial License) Copyright 2022 Fonticons, Inc.--><path d="M448 279.8c0-59.42-35-115.5-93.63-149.9-.594-.344-59.97-35.97-78.5-111.6A24.036 24.036 0 0 0 258.12.67c-8.781-2.08-17.94.89-23.78 7.723L224 20.45 213.7 8.375A24.008 24.008 0 0 0 189.92.652C181.1 2.748 174.3 9.549 172.1 18.29c-18.53 75.59-77.91 111.2-78.5 111.6C35 164.3 0 220.4 0 279.8c0 74.71 54.33 139 132.1 168l-10.9 32.6c-4.188 12.58 2.625 26.19 15.19 30.38 2.51.82 5.11 1.22 7.61 1.22 10.06 0 19.41-6.363 22.78-16.42l11.72-35.17c7 1.19 14.2 2.09 21.5 2.79v24.83c0 13.17 10.8 23.97 24 23.97s24-10.76 24-24.01v-24.83c7.271-.64 14.45-1.545 21.5-2.746l11.72 35.17C284.6 505.6 293.9 512 304 512c2.5 0 5.062-.39 7.594-1.236 12.56-4.189 19.38-17.79 15.19-30.38l-10.85-32.57C393.7 418.9 448 354.5 448 279.8zm-400 0c0-42.62 25.27-81.96 69.29-108.1C83.78 258.7 80 278.9 80 315.1c0 20.44 3.518 37.27 9.219 52.28C63.53 343.7 48 313.1 48 279.8zm135.3 88.5c4.7 18.2 11.6 33.4 20.8 47-17.52-1.539-34.27-5.059-49.85-10.3C125.9 377.2 112 355 112 315.1c0-37.87 5.205-57.2 58.15-190.5 12.08-14.4 24.27-31.88 34.13-53.36l.139.16C172.7 296.8 170.4 318.4 183.3 368.3zm110.5 35.8c-15.03 5.053-31.16 8.455-47.1 10.08-13.95-12.78-24.79-28.94-31.49-54.81C202.1 316.4 205.2 295.6 235.9 77.56c2.297-1.258 4.6-2.557 6.355-4.602l1.5-1.752c9.865 21.49 22.05 38.97 34.14 53.38C330.8 257.9 336 277.2 336 315.1c0 39-13.9 62.1-42.2 89zm36.9-232.4c44 26.2 69.3 65.5 69.3 108.1 0 33.32-15.54 63.85-41.23 87.57C364.5 352.4 368 335.5 368 315.1c0-36.2-3.8-56.5-37.3-143.4z"/></svg>