<svg xmlns="http://www.w3.org/2000/svg" viewBox="0 0 384 512"><!--! Font Awesome Pro 6.1.1 by @fontawesome - https://fontawesome.com License - https://fontawesome.com/license (Commercial License) Copyright 2022 Fonticons, Inc.--><path d="M287.1 153.9V112c0-8.75-7.256-16-16.01-16h-24.9c5.5-9.375 8.887-20.25 8.887-32 0-35.25-28.73-64-63.98-64S127.1 28.75 127.1 64c0 11.75 3.366 22.62 8.866 32H111.1c-8.75 0-15.1 7.25-15.1 16l.002 41.94C38.74 187.2 0 249 0 320c0 106 85.99 192 191.1 192 106 0 192.9-86 192.9-192 0-71-38.8-132.8-96.9-166.1zM192 48c8.75 0 16 7.25 16 16s-7.2 16-16 16-16-7.25-16-16 7.2-16 16-16zm0 128c42.38 0 80.25 18.75 106.5 48h-213c26.3-29.2 64.1-48 106.5-48zm144 144c0 16.88-3.5 32.88-8.75 48H56.75C51.38 352.9 48 336.9 48 320s3.5-32.88 8.75-48h270.4c5.35 15.1 8.85 31.1 8.85 48zM192 464c-42.38 0-80.25-18.75-106.5-48h213.1c-26.4 29.2-64.2 48-106.6 48z"/></svg>