<svg xmlns="http://www.w3.org/2000/svg" viewBox="0 0 640 512"><!--! Font Awesome Pro 6.1.1 by @fontawesome - https://fontawesome.com License - https://fontawesome.com/license (Commercial License) Copyright 2022 Fonticons, Inc.--><path d="M224 160c8.836 0 16-7.164 16-16 0-8.8-7.2-16-16-16s-16 7.2-16 16 7.2 16 16 16zm250.4-95.88c-.6-.08-1.2-.12-1.8-.12-6.8 0-12.6 5.65-12.6 12.73 0 5.959 4.186 10.1 9.991 12.36 44.73 10.49 77.5 51.87 73.71 100.6-.809 10.4-3.742 20.51-7.726 30.12-.055-15.3-7.836-29.24-20.85-37.28C502 174.5 486 173.8 472.3 180.7c-32.9 16.4-54.2 43.2-62.2 75.3H320c0-25.73 17.56-31.61 32.31-32 17.49-.2 31.69-14.4 31.69-32 0-17.67-14.31-32-32-32-15.16 0-33.08 4.221-49.32 13.39.62-4.29 1.32-8.59 1.32-13.09v-16c0-1.684-.422-3.248-.496-4.912C313.2 133.9 320 123.9 320 112c0-8.8-7.2-16-16-16h-11.3c-18.11-37.74-56.35-64-101-64h-63.4C83.68 32 45.44 58.26 27.33 96H16c-8.836 0-16 7.2-16 16 0 11.93 6.816 21.93 16.5 27.43-.08 1.67-.5 3.27-.5 4.87v16c0 19.56 5.926 37.71 16 52.86V256c0 123.7 100.3 224 224 224h160c.734 0 1.414-.203 2.145-.217C541 477.5 640 377.3 640 253.8c-.1-96.9-72.2-176.84-165.6-189.68zM64 160.3v-16C64 108.9 92.86 80 128.3 80h63.32C227.1 80 256 108.9 256 144.3v16c0 26.3-21.4 47.7-47.7 47.7-4.3 0-8.5-.9-12.4-2.6l-33.8-14c2.586-.307 5.207-.543 7.598-1.631l8.314-3.777C186.9 182.3 192 174.9 192 166.7V160c0-6.723-5.996-12.17-13.39-12.17H141.4c-8.3-.03-13.4 5.47-13.4 12.17v6.701c0 8.15 5.07 15.6 13.09 19.25l8.314 3.777c2.391 1.088 5.012 1.324 7.598 1.631l-32.88 14.08C120.2 207.1 115.1 208 111.7 208 85.38 208 64 186.6 64 160.3zm16 96.8v-6.9c9.95 3.5 20.5 5.8 31.7 5.8a79.58 79.58 0 0 0 31.36-6.436L160 242.3l14.06 6.023c9.586 4.105 25.98 7.896 36.41 7.658 11.98-.272 23.38-2.834 33.88-7.113C254.9 280.8 284.6 304 320 304h38.97c-4.37 9.8-6.97 20.6-6.97 32H251.1c4.18-7.037 6.695-15.13 3.379-24.94C249.7 296.8 235.4 288 220.4 288H112c-17.24 0-31.87-13.7-32-30.9zM488 360c0 38.96-31.17 70.61-69.84 71.78-1.46.02-2.86.22-4.26.22H256c-46.62 0-88.96-18.29-120.5-48H376c13.25 0 24-10.75 24-24v-24c0-17.67 14.33-32 32-32 13.25 0 24-10.75 24-24 0-27.58 16.25-43.89 32-53.23V360zm45 25.9c1.9-8.4 3-17 3-25.9v-62.1l6.703-5.896c21.53-18.94 37.36-45.44 44.71-73.87C590.4 229.6 591.1 241.6 592 253.8c0 52.4-22.9 99.5-59 132.1zM96 128c-8.84 0-16 7.2-16 16s7.16 16 16 16 16-7.164 16-16c0-8.8-7.2-16-16-16z"/></svg>