<svg xmlns="http://www.w3.org/2000/svg" viewBox="0 0 448 512"><!--! Font Awesome Pro 6.1.1 by @fontawesome - https://fontawesome.com License - https://fontawesome.com/license (Commercial License) Copyright 2022 Fonticons, Inc.--><path d="M384 31.1H64c-35.35 0-64 28.66-64 63.1v320c0 35.34 28.65 64 64 64h320c35.35 0 64-28.66 64-64v-320c0-33.54-28.7-63.1-64-63.1zM400 416c0 8.82-7.178 16-16 16H64c-8.822 0-16-7.18-16-16V96c0-8.82 7.178-16 16-16h320c8.822 0 16 7.18 16 16v320zm-90.6-272H138.6c-4.6-.1-9 1.7-12.3 4.7C97.81 176 80 213.9 80 256s17.81 79.97 46.31 107.3c3.283 3.062 7.688 4.723 12.28 4.723h170.8c4.594 0 9-1.66 12.28-4.723C350.2 335.1 368 298.1 368 256s-17.81-79.98-46.31-107.3c-3.29-3-7.69-4.8-12.29-4.7zM176 256c0 8.836-7.162 16-16 16-8.8 0-16-7.2-16-16v-48c0-8.8 7.2-16 16-16 8.838 0 16 7.164 16 16v48zm72 80h-48v-24c0-13.2 10.8-24 24-24s24 10.78 24 24v24zm56-80c0 8.836-7.162 16-16 16-8.836 0-16-7.164-16-16v-48c0-8.8 7.2-16 16-16 8.838 0 16 7.164 16 16v48z"/></svg>