<svg xmlns="http://www.w3.org/2000/svg" viewBox="0 0 384 512"><!--! Font Awesome Pro 6.1.1 by @fontawesome - https://fontawesome.com License - https://fontawesome.com/license (Commercial License) Copyright 2022 Fonticons, Inc.--><path d="M192 192c4.5 0 8.8 1.9 11.8 5.2l75.7 82.6c14.1 15.4 3.2 40.2-17.7 40.2H122.2c-20.9 0-31.82-24.8-17.7-40.2l75.7-82.6c3-3.3 7.3-5.2 11.8-5.2zm128 320H64c-35.35 0-64-28.7-64-64V64C0 28.65 28.65 0 64 0h181.5c17 0 33.2 6.743 45.2 18.75l74.6 74.51c12 12.04 18.7 28.24 18.7 45.24V448c0 35.3-28.7 64-64 64zM48 448c0 8.8 7.16 16 16 16h256c8.8 0 16-7.2 16-16V138.5c0-4.2-1.7-8.3-4.7-11.3l-74.5-74.51c-3-3-7.1-4.69-11.3-4.69H64c-8.84 0-16 7.16-16 16v384z"/></svg>