<svg xmlns="http://www.w3.org/2000/svg" viewBox="0 0 576 512"><!--! Font Awesome Pro 6.1.1 by @fontawesome - https://fontawesome.com License - https://fontawesome.com/license (Commercial License) Copyright 2022 Fonticons, Inc.--><path d="M204.3 273.7 455 23.03c27.1-27.046 70.9-27.046 97.1 0 27.9 27.05 27.9 70.89 0 97.07L302.3 371.7c1.1 6.6 1.7 13.4 1.7 20.3 0 66.3-53.7 120-120 120H32c-17.67 0-32-14.3-32-32s14.33-32 32-32h6.01c18.08 0 30.13-19.8 27.38-37.6-.91-6-2.29-12.2-2.29-18.4 0-66.3 54.6-120 120-120 7.8 0 14.6.6 21.2 1.7zm101.9-34 30.1 30.1L519 87.03c8.3-8.3 8.3-21.76 0-30.06-8.3-8.3-21.7-8.3-30.9 0L306.2 239.7zM210.5 325c-8.2-3.2-17.1-5-26.5-5-39.8 0-72 32.2-72 72 0 3.8.3 7.5.8 11.1 3.3 21.4-2.1 43.1-13.72 60l-.66.9H184c39.8 0 72-32.2 72-72 0-9.4-1.8-18.3-5.9-26.5L210.5 325z"/></svg>