<svg xmlns="http://www.w3.org/2000/svg" viewBox="0 0 576 512"><!--! Font Awesome Pro 6.1.1 by @fontawesome - https://fontawesome.com License - https://fontawesome.com/license (Commercial License) Copyright 2022 Fonticons, Inc.--><path d="M384 341.3c-19.1 25.5-48.6 41.1-80.3 42.6.2 2.7.3 5.4.3 8.1 0 66.3-53.7 120-120 120H32c-17.67 0-32-14.3-32-32s14.33-32 32-32h6.01c18.08 0 30.13-19.8 27.38-37.6-.91-6-2.29-12.2-2.29-18.4 0-66.3 54.6-120 120-120 3.6 0 6.3.1 9 .3 1.5-31.7 17.1-61.2 42.6-80.3L473.5 12.81c24.6-19.117 61.1-16.589 83.7 5.93 22.5 22.51 25 58.17 5.9 83.66L384 341.3zM277.1 219.5l79.4 77.6L524.7 73.6c4.8-6.37 4.2-15.29-1.5-20.91-5.6-5.63-14.5-6.27-20.9-1.49L277.1 219.5zm-78 102.1c-4.9-1.1-9.9-1.6-15.1-1.6-39.8 0-72 32.2-72 72 0 3.8.3 7.5.8 11.1 3.3 21.4-2.1 43.1-13.72 60l-.66.9H184c39.8 0 72-32.2 72-72 0-5.2-.5-10.2-1.6-15.1l-55.3-55.3z"/></svg>