<svg xmlns="http://www.w3.org/2000/svg" viewBox="0 0 576 512"><!--! Font Awesome Pro 6.1.1 by @fontawesome - https://fontawesome.com License - https://fontawesome.com/license (Commercial License) Copyright 2022 Fonticons, Inc.--><path d="M181.3 19.32 289.7 127.8l-33.9 33.9-32.8-33.6-62.9 62.9 33.6 32.8-8.2 8.2-2.4-.9c-14.3 0-29 3-43 7l-88.79-88.8c-21.87-21.9-24.6-55.67-8.2-80.51 2.34-3.55 5.08-6.92 8.2-10.04l39.43-39.43c24.96-24.998 65.56-24.998 90.56 0zM414.2 320.1l33.9-33.9 37.3 37.3c10.4 10.4 18.1 23.3 22.2 37.4L543 481.2c2.5 8.5.2 17.6-6.9 22.9-5.3 7.1-14.4 9.4-22.9 6.9l-120.3-35.4c-12.4-4.5-23.8-9.9-33.4-18.4-1.4-2.1-2.7-2.5-4-3.8l-17.6-17.5c4-14 6.1-28.7 6.1-43.9l-.9-1.7 9-8.1 37.3 37.3c4.8 4.7 10.6 8.2 17 10.1l78.2 23-23-78.2c-1.7-5.6-4.5-10.8-8.4-15.1-.5-.7-1.1-1.3-1.7-1.9l-37.3-37.3zM552.1 23.03c27.9 27.04 27.9 70.89 0 97.07L302.3 371.7c1.1 6.6 1.7 13.4 1.7 20.3 0 66.3-53.7 120-120 120H32c-17.67 0-32-14.3-32-32s14.33-32 32-32h6.01c18.08 0 30.13-19.8 27.38-37.6-.91-6-2.29-12.2-2.29-18.4 0-66.3 54.6-120.9 120-120.9 7.8 0 14.6 1.5 21.2 2.6L455 23.03c27.1-27.047 70.9-27.047 97.1 0zM519 56.97c-8.3-8.3-21.7-8.3-30.9 0L306.2 239.7l30.1 30.1L519 87.03c8.3-8.3 8.3-21.76 0-30.06zM112 392c0 3.8.3 7.5.8 11.1 3.3 21.4-2.1 43.1-13.72 60l-.66.9H184c39.8 0 72-32.2 72-72 0-9.4-1.8-18.3-5.9-26.5L210.5 325c-8.2-3.2-17.1-5.9-26.5-5.9-39.8 0-72 33.1-72 72.9z"/></svg>