<svg xmlns="http://www.w3.org/2000/svg" viewBox="0 0 512 512"><!--! Font Awesome Pro 6.1.1 by @fontawesome - https://fontawesome.com License - https://fontawesome.com/license (Commercial License) Copyright 2022 Fonticons, Inc.--><path d="M160 255.1c0 18.6-14.3 32-32 32s-32-13.4-32-32c0-16.8 14.3-32 32-32s32 15.2 32 32zm-32-96c0-16.8 14.3-32 32-32s32 15.2 32 32c0 18.6-14.3 32-32 32s-32-13.4-32-32zm160-32c0 18.6-14.3 32-32 32s-32-13.4-32-32c0-16.8 14.3-32 32-32s32 15.2 32 32zm32 32c0-16.8 14.3-32 32-32s32 15.2 32 32c0 18.6-14.3 32-32 32s-32-13.4-32-32zm121.9 160H344c-26.5 0-48 22.4-48 48.9 0 3.4.4 6.7 1 9.9 2.2 10.2 6.5 19.2 10.9 29.9 6 13.8 12.1 27.5 12.1 42 0 31.9-21.6 60.7-53.4 62-3.5.1-7.1.2-10.6.2C114.6 512 0 397.4 0 256S114.6 0 256 0s256 114.6 256 256c0 .9-.9 1.8-.9 2.7.5 36.5-32.7 61.3-69.2 61.3v-.9zm21.2-60.9c0-.8.9-1.5.9-3.1 0-114-93.1-208-208-208s-208 94-208 208C48 370.9 141.1 464 256 464c2.9 0 5.8-.1 8.6-.2.8 0 1.3-.2 1.6-.3.4-.3 1.1-.7 2-1.8 1.9-2.3 3.8-6.5 3.8-11.9 0-1.7-.6-5.5-5.6-17.1-.6-1.2-1.2-2.6-1.9-4.2-4.3-9.6-11.1-25-14.4-40.7-1.4-6.4-2.1-13-2.1-19.8 0-53.9 42.1-96.9 96-96.9h97.9c7.7 0 13.2-1.8 17.8-4.9 3.3-2.8 3.4-5.3 3.4-8z"/></svg>