<svg xmlns="http://www.w3.org/2000/svg" viewBox="0 0 576 512"><!--! Font Awesome Pro 6.1.1 by @fontawesome - https://fontawesome.com License - https://fontawesome.com/license (Commercial License) Copyright 2022 Fonticons, Inc.--><path d="m567.2 125-43.16-67.34c-16.69-25.95-51.38-33.64-77.34-16.92l-23.84 16.92C382.8 30.53 335.6 16 287.8 16c-44.34 0-89.18 12.27-129.3 37.97C75.83 106.1 36.73 202.2 51.03 293.3l-25.24 16.2c-26 16.64-33.63 51.34-16.94 77.38l43.16 67.34c10.69 16.66 28.78 25.77 47.25 25.77 10.31-.016 20.78-2.859 30.09-8.844l23.79-16.89C193.2 481.5 240.3 496 288.2 496c44.34 0 89.18-12.27 129.3-37.97 82.68-53 121.8-148.2 107.5-239.4l25.25-16.21C576.2 185.8 583.8 151.1 567.2 125zM103.5 430.8a8.193 8.193 0 0 1-6.031 1.078 7.996 7.996 0 0 1-5.031-3.5L49.25 361c-2.375-3.719-1.312-8.688 2.438-11.08l12.26-7.857a241.036 241.036 0 0 0 22.03 43.44c8.814 13.75 19.1 25.91 30.04 37.21L103.5 430.8zm372-133.8c-10.96 50.09-40.77 92.92-83.94 120.6C360.6 437.5 324.8 448 288.2 448c-65.86 0-126.4-33.04-161.8-88.4-27.69-43.2-36.89-94.5-25.9-145.5 10.9-49.2 40.7-92 83.9-119.72C215.4 74.51 251.2 64 287.8 64c65.86 0 126.4 33.04 161.8 88.4 27.7 43.2 36.9 94.5 25.9 144.6zm48.8-135-12.3 7.9a241.032 241.032 0 0 0-22.01-43.39c-8.824-13.77-19.12-25.94-30.07-37.25l12.58-8.061a7.923 7.923 0 0 1 6.031-1.078 7.996 7.996 0 0 1 5.031 3.5l43.16 67.33C529.1 154.7 528.1 159.6 524.3 162zM272 320h-25.4l-26.5-26.6c4.783-6.275 4.566-15.15-1.166-20.87-6.25-6.25-16.38-6.25-22.62 0L176.6 292.3c-6.25 6.25-6.25 16.39 0 22.62a15.948 15.948 0 0 0 11.31 4.688c3.412 0 6.697-1.346 9.547-3.516L224 342.6v25.38c0 26.47 21.53 48 48 48s48-21.53 48-48S298.5 320 272 320zm145.8-110.2-80 80a7.994 7.994 0 0 0 0 11.312c12.59 12.58 29.12 18.88 45.66 18.88s33.06-6.297 45.66-18.88C441.3 288.9 448 272.7 448 255.4s-6.719-33.47-18.91-45.66c-3.19-3.14-8.19-3.04-11.29.06zM232 160h112c4.406 0 8-3.578 8-8 0-35.3-28.72-64-64-64s-64 28.7-64 64c0 4.4 3.6 8 8 8zm16 80c0 13.25 10.75 24 24 24s24-10.75 24-24c0-13.26-10.75-24-24-24s-24 10.7-24 24zm120 104c-13.25 0-24 10.74-24 24 0 13.25 10.75 24 24 24s24-10.75 24-24c0-13.3-10.7-24-24-24zM206.2 206.1c7.781-7.812 7.781-20.47 0-28.28-7.812-7.812-20.5-7.812-28.31 0l-32 32c-7.781 7.812-7.781 20.47 0 28.28 3.91 3.9 9.01 5.9 14.11 5.9s10.25-1.953 14.16-5.859L206.2 206.1z"/></svg>