<svg xmlns="http://www.w3.org/2000/svg" viewBox="0 0 576 512"><!--! Font Awesome Pro 6.1.1 by @fontawesome - https://fontawesome.com License - https://fontawesome.com/license (Commercial License) Copyright 2022 Fonticons, Inc.--><path d="M199.6 97.05c-43.39 7-55.91 40-62.5 78.55-5.562 32.19-27.19 63.5-25 96.45 2.188 32.95 26.44 64.25 57.5 75.4 46.5 16.69 73.46-15.88 102.3-43.19 21.81-20.75 46.69-18.88 70.45-37 28.14-21.38 35.85-70.73 8.75-96.02-19.75-20.38-50.41-23.19-72.25-41.13C254 109.6 234.8 91.37 199.6 97.05zM224 272c-26.5 0-48-21.5-48-48s21.5-48 48-48 48 21.5 48 48-21.5 48-48 48zm350.4 167.2a59.072 59.072 0 0 0-28.34-37.58l-120.3-80.74C439.9 291.5 447.1 258.7 447.1 224 447.1 100.3 346.8 0 224 0 100.3 0 0 100.3 0 224s100.3 224 223.1 224c54.29 0 104-19.33 142.8-51.46l109.5 99.16c11.9 10.5 26.5 16.3 40.7 16.3a59.003 59.003 0 0 0 48.034-24.716c9.94-13.92 14.266-31.484 10.266-48.084zM224 400c-97.05 0-176-78.95-176-176S126.1 48 224 48s176 78.95 176 176-79 176-176 176zm290.5 65.1c-8.715 1.457-16.96-4.428-18.42-13.14-1.457-8.715 4.428-16.96 13.14-18.42 8.715-1.457 16.96 4.428 18.42 13.14 1.46 8.72-4.44 16.92-13.14 18.42z"/></svg>