<svg xmlns="http://www.w3.org/2000/svg" viewBox="0 0 512 512"><!--! Font Awesome Pro 6.1.1 by @fontawesome - https://fontawesome.com License - https://fontawesome.com/license (Commercial License) Copyright 2022 Fonticons, Inc.--><path d="M85.14 137.4c6.48 2.2 10.86 8.3 10.86 15.1v118.6c0 16.8 12.2 31.7 28.9 33.3 19 1.9 35.1-13.1 35.1-31.9V171.7c0-9.465 8.182-16.76 17.57-15.74l.32.035C185.9 156.9 192 163.7 192 171.8v51.41c0 16.75 12.22 31.71 28.86 33.3C239.9 258.3 256 243.3 256 224.6v-48.7c0-8.674 6.885-15.83 15.54-16C388 157.7 480 129.1 480 96.05 480 60.62 379.7 32 256 32S32 60.62 32 96.05c0 15.85 20.02 30.15 53.14 41.35zM208 64.02h96c8.836 0 16 7.164 16 16s-7.164 15.1-16 15.1h-96c-8.836 0-16-7.161-16-15.1s7.2-16 16-16zM496.7 180.6c9.6-11.4 15.3-24.8 15.3-40.8 0-8.365-1.895-15.85-4.674-22.89C481.2 177.1 343.2 189.3 288 191.7v32.88c0 4.979-.697 9.773-1.773 14.43 56.74-1.691 125.4-8.9 172-30.68C461.9 212.1 464 216.1 464 220.2c0 27.59-87.27 50.06-196.1 51.49-12.3 10.51-27.3 17.01-43.9 17.01a64.67 64.67 0 0 1-6.178-.297C208.3 287.5 199.4 284.4 191.6 279.6c-1.6 14.3-8 27-17.4 36.8 29 2.7 57.5 2.7 81.8 2.7 60.56 0 147-5.287 202.3-31.15 3.4 4.55 5.7 8.35 5.7 12.35 0 28.52-93.13 51.72-208 51.72S48 328.82 48 300.3c0-3.959 2.285-7.766 5.732-11.46a201.927 201.927 0 0 0 14.72 6.158C65.58 287.5 64 279.5 64 271.1v-31c-10.28-6.113-16-12.82-16-19.86 0-4.145 2.199-8.15 5.926-12.01C57.22 209.8 60.51 211.4 64 212.8v-48.95C32.64 151.6 12.79 136.1 4.496 117.3 1.834 124.2 0 131.6 0 139.8c0 16.05 5.734 29.43 15.33 40.79C5.979 191.7 0 204.5 0 220.2c0 15.81 5.6 29.02 14.92 40.27C5.764 271.7 0 284.6 0 300.3c0 15.8 5.432 29.09 14.71 40.37C5.615 351.8 0 364.7 0 380.3 0 467 160.4 480 256 480s256-12.96 256-99.73c0-15.57-5.615-28.52-14.71-39.64C506.6 329.3 512 316.1 512 300.3c0-15.55-5.701-28.44-14.77-39.56C506.6 249.4 512 236.1 512 220.2c0-15.6-6-28.5-15.3-39.6zM256 431.1c-114.9 0-208-23.18-208-51.7 0-3.941 2.266-7.732 5.674-11.41C108.1 394.7 195.4 399.1 256 399.1s147-5.28 202.3-31.15c3.4 4.55 5.7 8.35 5.7 12.35 0 28.5-93.1 50.8-208 50.8z"/></svg>