<svg xmlns="http://www.w3.org/2000/svg" viewBox="0 0 512 512"><!--! Font Awesome Pro 6.1.1 by @fontawesome - https://fontawesome.com License - https://fontawesome.com/license (Commercial License) Copyright 2022 Fonticons, Inc.--><path d="M200 80h-80c-13.2 0-24 10.75-24 24s10.8 24 24 24h80c13.2 0 24-10.8 24-24s-10.8-24-24-24zm0 80h-80c-13.2 0-24 10.8-24 24s10.8 24 24 24h80c13.2 0 24-10.8 24-24s-10.8-24-24-24zm192-80h-80c-13.2 0-24 10.75-24 24s10.8 24 24 24h80c13.2 0 24-10.8 24-24s-10.8-24-24-24zm0 80h-80c-13.2 0-24 10.8-24 24s10.75 24 24 24h80c13.2 0 24-10.8 24-24s-10.8-24-24-24zM448 0H64C28.64 0 0 28.64 0 64v384c0 35.36 28.64 64 64 64h384c35.36 0 64-28.64 64-64V64c0-35.36-28.6-64-64-64zm16 448c0 8.832-7.168 16-16 16h-32V288c0-17.66-14.34-32-32-32h-64c-17.66 0-32 14.34-32 32v176H64c-8.832 0-16-7.168-16-16V324.3c9.57 5.5 16 15.9 16 27.7v32c0 35.36 28.64 64 64 64s64-28.64 64-64v-32c17.66 0 32-14.34 32-32v-32c0-17.66-14.34-32-32-32h-32c-17.7 0-32 14.3-32 32v32c0 17.66 14.34 32 32 32v32c0 17.66-14.34 32-32 32s-32-14.34-32-32v-32c0-29.82-20.38-54.88-48-61.98V64c0-8.832 7.168-16 16-16h384c8.832 0 16 7.168 16 16v384z"/></svg>