<svg xmlns="http://www.w3.org/2000/svg" viewBox="0 0 640 512"><!--! Font Awesome Pro 6.1.1 by @fontawesome - https://fontawesome.com License - https://fontawesome.com/license (Commercial License) Copyright 2022 Fonticons, Inc.--><path d="M592.1 64c-4.559 0-9.221.658-13.88 2.057C493.1 91.32 406.1 103.1 320 103.1S146 91.32 61.8 66.06C57.14 64.66 52.47 64 47.91 64 22.33 63.1 0 84.74 0 112v319.9C0 459.3 22.33 480 47.91 480c4.559 0 9.221-.66 13.88-2.057C146 452.7 233 440 320 440s173.1 12.63 258.2 37.9c4.7 1.4 9.3 2.1 13.9 2.1 25.6 0 47.9-20.7 47.9-48.9V112c0-27.26-22.3-48-47.9-48zm-1 367.1c-21.6-6.479-43.4-12.12-65.34-17.04l-143.5-214c-2.76-4.76-9.06-8.06-15.66-8.06-6.689 0-12.94 3.34-16.64 8.906L271.5 318.5l-28-38.3c-3.7-5.1-9.7-8.2-16.1-8.2a20.007 20.007 0 0 0-16.16 8.217l-97.41 134.6C91.7 419.7 69.75 425.4 48 431.1l.008-319.9C136.3 138.5 227.8 151.1 320 151.1c92.13 0 183.6-13.42 272-39.92l-.9 319.92zM144 176c-17.67 0-32 14.33-32 32s14.33 32 32 32c17.68 0 32-14.33 32-32s-14.3-32-32-32z"/></svg>