<svg xmlns="http://www.w3.org/2000/svg" viewBox="0 0 448 512"><!--! Font Awesome Pro 6.1.1 by @fontawesome - https://fontawesome.com License - https://fontawesome.com/license (Commercial License) Copyright 2022 Fonticons, Inc.--><path d="M375 72.97c-25.9-26.87-68.1-26.87-94.9 0L88.97 264.1c-43.65 44.5-43.65 115.3 0 158.9 43.63 43.7 114.43 43.7 158.03 0l152-152c9.4-9.3 24.6-9.3 33.1 0 10.2 9.4 10.2 24.6 0 33.1l-152 152c-61.5 63.3-162.7 63.3-225.07 0-62.394-61.5-62.394-162.7 0-225.1L247 39.03c44.7-44.719 117.2-44.719 161.1 0 45.6 44.72 45.6 117.27 0 161.07L225.2 384.7c-31.6 31.6-83.6 28.7-111.5-6.1-23.82-29.8-21.44-72.8 5.5-99.8L271 127c9.4-9.3 24.6-9.3 33.1 0 10.2 9.4 10.2 24.6 0 33.1L153.2 312.7c-9.7 9.7-10.6 25.2-2 35.9 10 12.5 28.7 13.6 40 2.2L375 167c26-25.9 26-68.06 0-94.03z"/></svg>