<svg xmlns="http://www.w3.org/2000/svg" viewBox="0 0 512 512"><!--! Font Awesome Pro 6.1.1 by @fontawesome - https://fontawesome.com License - https://fontawesome.com/license (Commercial License) Copyright 2022 Fonticons, Inc.--><path d="M280 192v128h24c3.3 0 6.5.3 9.6.1l102.1-131.2c.2-4.3.3-8.6.3-12.9 0-63.9-22.2-121.16-57.1-159.31C450 49.27 493.4 122.6 507.8 173.6c2.7 9.5-5.7 18.4-14.7 18.4h-20L349.6 352.1c1.6 5.6 2.4 10.6 2.4 15.9v96c0 26.5-21.5 48-48 48h-96.9c-25.6 0-48-21.5-48-48v-96c0-5.3 1.7-10.3 3.3-15.9L38.03 192H18.89C9 192 1.483 183.1 4.181 173.6 18.64 122.6 61.97 49.27 153.1 16.69 118.2 54.84 96 112.1 96 176c0 4.3.1 8.6.3 12.9l102.1 131.2c3.1.2 6.3-.1 9.6-.1h24V192H128.5c-.3-5.3-.5-10.6-.5-16 0-51 15.9-95.99 40.2-127.57C192.5 16.89 223.8 0 256 0c32.2 0 63.5 16.89 87.8 48.43C368.1 80.01 384 125 384 176c0 5.4-.2 10.7-.5 16H280zm-72.9 176v96H304v-96h-96.9z"/></svg>