<svg xmlns="http://www.w3.org/2000/svg" viewBox="0 0 512 512"><!--! Font Awesome Pro 6.1.1 by @fontawesome - https://fontawesome.com License - https://fontawesome.com/license (Commercial License) Copyright 2022 Fonticons, Inc.--><path d="M184 160c5.438 0 10.87-1.812 15.37-5.562 35.97-30 56.62-74.06 56.62-120.9V24c0-13.25-10.75-24-23.1-24s-23.1 10.75-23.1 24v9.531c0 32.56-14.34 63.19-39.37 84.03C158.4 126.1 157.1 141.2 165.6 151.4c4.7 5.7 11.5 8.6 18.4 8.6zM64 63.1c17.67 0 31.1-14.33 31.1-31.1C95.1 14.33 80.77.9 64 .9 46.33.9 32.9 15.23 32.9 32 32 49.67 46.33 63.1 64 63.1zM487.1 256h-9.531C431.6 256 387.6 276.7 357.6 312.6c-8.5 10.19-7.125 25.31 3.062 33.81C365.1 350.2 370.6 352 375.1 352c6.875 0 13.69-2.938 18.44-8.625C415.3 318.3 445.9 304 478.5 304h9.531c13.25 0 23.1-10.75 23.1-24s-9.931-24-24.031-24zm-8 160c-17.67 0-31.1 14.33-31.1 31.1 0 17.67 14.33 31.1 31.1 31.1s31.1-14.33 31.1-31.1c.9-16.8-12.5-31.1-31.1-31.1zm0-288c-17.67 0-31.1 14.33-31.1 31.1 0 17.67 14.33 31.1 31.1 31.1s31.1-14.33 31.1-31.1c.9-16.8-12.5-31.1-31.1-31.1zm-89.4 48c20.88-24.47 19.37-48.19 18.25-65.5-.969-14.97-1.062-21.97 6.844-31.22 7.875-9.219 14.78-10.19 29.66-11.53 17.25-1.562 40.91-3.688 61.84-28.16 8.594-10.06 7.438-25.22-2.656-33.84-10.03-8.5-25.16-7.438-33.84 2.656-7.875 9.219-14.78 10.19-29.66 11.53-17.25 1.562-40.91 3.688-61.84 28.16-20.88 24.47-19.37 48.19-18.25 65.5.969 14.97 1.062 21.97-6.844 31.22-7.844 9.188-14.75 10.16-29.59 11.5-17.25 1.531-40.91 3.625-61.81 28.09C253.2 194.5 254.3 209.7 264.4 218.3c4.5 3.8 10.1 5.7 14.7 5.7 6.781 0 13.5-2.844 18.25-8.406 7.844-9.188 14.75-10.16 29.56-11.5C345.1 202.6 368.7 200.5 389.7 176zm-239.1 25.4c-6-6.1-14.2-9.4-22.7-9.4a32.33 32.33 0 0 0-6.711.7c-10.62 2.312-19.37 9.844-23.19 20.03l-95.1 256c-4.406 11.75-1.531 25 7.344 33.88C15.47 508.7 23.66 512 32 512a31.93 31.93 0 0 0 11.25-2.031l255.1-96c10.19-3.812 17.72-12.56 20.03-23.19 2.281-10.62-.97-21.72-8.656-29.41L150.6 201.4zM59.33 452.7l32.57-86.85 54.28 54.28-86.85 32.57zm136.17-51.1-85.1-85.1 23.84-63.59 124.9 124.9-63.64 23.79z"/></svg>