<svg xmlns="http://www.w3.org/2000/svg" viewBox="0 0 448 512"><!--! Font Awesome Pro 6.1.1 by @fontawesome - https://fontawesome.com License - https://fontawesome.com/license (Commercial License) Copyright 2022 Fonticons, Inc.--><path d="M384 0H64C28.65 0 0 28.65 0 64v384c0 35.34 28.65 64 64 64h320c35.2 0 64-28.8 64-64V64c0-35.2-28.8-64-64-64zm16 448c0 8.836-7.164 16-16 16H64c-8.836 0-16-7.164-16-16V64c0-8.836 7.164-16 16-16h320c8.836 0 16 7.164 16 16v384zm-64-64H112c-8.7 0-16 7.3-16 16s7.3 16 16 16h224c8.75 0 16-7.25 16-16s-7.2-16-16-16zm-112-56c66.25 0 120-53.75 120-120S290.3 88 224 88s-120 53.8-120 120 53.8 120 120 120zm86.4-136h-34.63c-1.375-23.62-5.751-45-12.25-62.25C287.6 142 305.4 164.6 310.4 192zm-34.6 32h34.63c-5 27.38-22.88 50-46.88 62.25C269.1 269 274.4 247.6 275.8 224zM224 122.3c6.9 8.3 17.5 32.3 20 69.7h-40c2.5-37.4 13.1-61.4 20-69.7zM244 224c-2.5 37.4-13.1 61.4-20 69.8-6.9-8.4-17.5-32.4-20-69.8h40zm-59.5-94.2c-7.4 17.2-10.9 38.6-12.2 62.2h-34.7c5-27.4 22.8-50 46.9-62.2zM172.3 224c1.3 23.6 4.8 45 12.2 62.3-24-12.3-41.9-34.9-46.9-62.3h34.7z"/></svg>