<svg xmlns="http://www.w3.org/2000/svg" viewBox="0 0 448 512"><!--! Font Awesome Pro 6.1.1 by @fontawesome - https://fontawesome.com License - https://fontawesome.com/license (Commercial License) Copyright 2022 Fonticons, Inc.--><path d="M400 144c-26.5 0-48 21.5-48 48s21.5 48 48 48 48-21.5 48-48-21.5-48-48-48zm-256-16c26.5 0 48-21.5 48-48s-21.5-48-48-48-48 21.5-48 48 21.5 48 48 48zm160 0c26.5 0 48-21.5 48-48s-21.5-48-48-48-48 21.5-48 48 21.5 48 48 48zm63.2 172.8c-26.25-14.75-47.12-61.38-67.12-97.76C284.4 174.3 254.3 160 224 160s-60.4 14.3-76.1 43c-20.4 36.9-40.1 82.5-67.27 97.8C51.63 317.1 32 348.1 32 384c0 53 43 95.88 96 95.88 1.2.12 2.7.12 3.1.12 49.7 0 69.7-32 92.9-32s43.2 32 92 32c1.3 0 2.8 0 4-.1 53 0 96-42.88 96-95.88 0-35.92-19.6-66.92-48.8-83.22zM320 431.9h-.75l-.85.1h-2.25c-15.75 0-25.25-5.75-38.5-13.62C263.9 410.1 246.8 400 224 400s-39.88 10.12-53.63 18.38C157.1 426.2 147.6 432 131.9 432h-2.3l-.75-.125H128c-26.5 0-48-21.5-48-47.88 0-17.38 9.125-32.88 24.25-41.38 34.63-19.62 55.25-59 75.25-97.13 3.5-6.625 7-13.12 10.38-19.38C199.1 209.2 218.4 208 224 208s24.88 1.25 34.13 18.12c3.27 5.88 6.47 12.08 9.87 18.38 20.5 38.75 41.63 78.88 75.75 98.13C358.9 351.1 368 366.6 368 384c0 26.4-21.5 47.9-48 47.9zM96 192c0-26.5-21.5-48-48-48S0 165.5 0 192s21.5 48 48 48 48-21.5 48-48z"/></svg>