<svg xmlns="http://www.w3.org/2000/svg" viewBox="0 0 512 512"><!--! Font Awesome Pro 6.1.1 by @fontawesome - https://fontawesome.com License - https://fontawesome.com/license (Commercial License) Copyright 2022 Fonticons, Inc.--><path d="M255.1 256C174.37 256 64 364.2 64 442.7c.04 42.1 34.03 69.3 86.8 69.3 46.7 0 76.3-20.4 105.2-20.4 28.1 0 58.1 20.4 105.2 20.4 52.74 0 86.73-27.25 86.73-69.25C447.1 364.2 336.7 256 255.1 256zm106.1 208c-37.7 0-65.7-20.4-105.2-20.4-39.2 0-67 20.4-105.2 20.4-14.5 0-38.74-2.75-38.74-21.25C112 394.9 198.1 304 256 304s143.1 91 143.1 138.8c0 18.4-23.4 21.2-37.9 21.2zm132.3-273.6L448 128.02V195c-19.87 6.5-37.5 24.38-44.75 48.38-10.37 34.63 4.754 68.38 33.87 75.38 30.24 7.251 61.62-16.88 71.62-50.13 8.86-29.53-1.54-59.53-15.24-78.23zm-175 32.2c40.37 10.62 69.87-35.87 77.5-63.87 8.498-31 2.997-61-12-78.75l-63.1-80v75c-15.1 11.25-29.5 30.38-35.1 54.25-13.7 43.37 1.8 85.27 32.7 93.37zm-209.7 20.8c-7.249-24-24.88-41.88-44.75-48.5v-67.8L18.5 190.4C4.756 209.1-5.616 239.1 3.257 268.6c9.998 33.25 41.38 57.38 71.62 50.13C103.1 311.8 119.1 278 108.8 243.4zm84.7-20.8c30.87-8.125 46.37-49.1 34.5-93.37-6.499-23.87-20-43-35.1-54.25v-75l-63.1 80c-14.1 17.75-20.5 47.75-11.1 78.75 4.9 28.07 34.4 74.57 74.8 63.87z"/></svg>