<svg xmlns="http://www.w3.org/2000/svg" viewBox="0 0 512 512"><!--! Font Awesome Pro 6.1.1 by @fontawesome - https://fontawesome.com License - https://fontawesome.com/license (Commercial License) Copyright 2022 Fonticons, Inc.--><path d="M74.89 286.8c29.12-7 44.25-40.75 33.87-75.37C99.64 181 73.88 159.1 48.01 159.1c-3.625 0-7.24.385-10.86 1.26-29.12 7-44.25 40.75-33.87 75.37 9.124 30.38 34.88 51.38 60.76 51.38 3.61.89 7.22.49 10.85-.31zm243.61-96.2c3.6.9 7.2 1.4 10.8 1.4 27.75 0 56.16-26.88 66.66-65.25 11.87-43.38-3.625-85.25-34.5-93.37C357.9 32.5 354.3 32 350.7 32c-27.75 0-56.16 26.75-66.66 65.25-11.94 43.35 3.56 85.25 34.46 93.35zm156.4-29.3c-3.625-.875-7.24-1.26-10.86-1.26-25.87 0-51.63 21.01-60.75 51.38-10.37 34.63 4.75 68.37 33.87 75.37 3.625.875 7.238 1.259 10.86 1.259 25.87 0 51.63-21.01 60.76-51.38C519.1 202 503.1 168.3 474.9 161.3zM182.7 192c3.625 0 7.207-.5 10.83-1.376C224.4 182.5 239.9 140.6 228 97.25 217.5 58.88 189.1 32 161.3 32c-3.6 0-7.2.5-10.8 1.38-30.87 8.125-46.37 49.1-34.5 93.37C126.5 165.1 154.9 192 182.7 192zm73.3 32c-79.37 0-191.1 122.7-191.1 200.2-.88 34.9 25.86 55.8 70.9 55.8 48.8 0 81.1-25.1 120.2-25.1 39.5 0 71.9 25.1 120.2 25.1 44.1 0 71.74-20.87 71.74-55.75C447.1 346.8 335.4 224 256 224zm143.7 203.1c-.8 1-7.6 4.9-23.5 4.9-17.75 0-33.25-5.125-51.37-11.12-19.87-6.5-42.37-14-68.87-14-26.25 0-48.62 7.5-68.37 14C169.5 426.9 153.8 432 135.8 432c-15.87 0-22.62-3.875-23.37-4.625-.125-.25-.375-1.25-.375-3.125C112 370.1 204.9 272 256 272s143.1 98.13 143.1 152.2c0 1.9.6 2.9.6 2.9z"/></svg>