<svg xmlns="http://www.w3.org/2000/svg" viewBox="0 0 512 512"><!--! Font Awesome Pro 6.1.1 by @fontawesome - https://fontawesome.com License - https://fontawesome.com/license (Commercial License) Copyright 2022 Fonticons, Inc.--><path d="M368.4 99.72c28.03-12.44 47.65-40.41 47.65-73.06L416 0h-80c-44.18 0-79.1 35.82-79.1 80 0-44.18-35.82-80-79.1-80H96l.004 26.67c0 32.65 19.62 60.62 47.66 73.06C61.72 116.1 0 184.9 0 267.2c0 113.5 124.9 204.1 248.7 243.7 2.4.7 4.8 1.1 7.3 1.1s4.938-.375 7.312-1.141C387.1 471.3 512 380.7 512 267.2c0-82.3-61.7-151.1-143.6-167.48zM256 462.8C133.2 421.57 48 342.7 48 267.3 48 99.63 309.3 124.1 309.3 248c0 13.25 10.75 24 24 24s24-10.75 24-24c0-39.02-19.36-74.54-50.85-101.5C379.6 132.9 464 183 464 267.2c0 74.6-85.2 154.3-208 195.6z"/></svg>