<svg xmlns="http://www.w3.org/2000/svg" viewBox="0 0 640 512"><!--! Font Awesome Pro 6.1.1 by @fontawesome - https://fontawesome.com License - https://fontawesome.com/license (Commercial License) Copyright 2022 Fonticons, Inc.--><path d="M336 316c-11.03 0-19.1 8.969-19.1 20s8.967 19.1 19.1 19.1c11.03 0 19.1-8.967 19.1-19.1s-8.1-20-19.1-20zm0 64c-11.03 0-19.1 8.969-19.1 20s8.967 20 19.1 20c11.03 0 19.1-8.969 19.1-20s-8.1-20-19.1-20zm-64 0c-11.03 0-19.1 8.969-19.1 20s8.969 20 19.1 20c11.03 0 19.1-8.969 19.1-20s-8.1-20-19.1-20zm255.1-256c-11.03 0-20 8.969-20 20s8.969 20 20 20c11.03 0 19.1-8.969 19.1-20s-7.2-20-19.1-20zm111.3-28.88c-1.531-50.04-43.46-91.98-93.52-93.5 0 0-53.69-1.62-55.74-1.62-61.07 0-148.4 32.64-170.4 152.7.613-5.28.927-10.62.927-15.99 0-19.72-4.232-39.9-13.42-59.31L287.1 36.82C276.22 13.84 252.81 0 228.91 0c-8.01 0-16.07 1.554-23.74 4.841l-40.39 17.31c-51.01 21.87-80.85 70.74-80.85 122.9 0 32.42 9.155 40.15 9.155 61.37 0 66.64-93.05 57.76-93.05 167.8 0 20.08 4.417 40.65 13.74 60.37l19.2 40.57c10.87 22.98 34.29 36.82 58.19 36.82 8.009 0 16.07-1.554 23.74-4.839l40.39-17.31c2.697-1.156 4.875-2.9 7.363-4.299 16.45 14.64 37.51 24.14 60.52 24.84 0 0 53.25 1.609 55.06 1.609 86.9 0 159.6-63.38 170.2-149.5 4.178-33.2 29.75-40.62 42.15-42.17 86.09-10.59 149.5-83.31 149.5-170.3 0-1.795-.027-3.595-.081-5.402L638.4 95.12zm-47.3 55.18c0 63.54-44.56 114.7-107.3 122.4-22.37 2.75-42.06 12.06-56.1 26.97-14.81 14.88-24.12 34.56-26.9 56.94-7.802 63.08-58.65 107.3-123.3 107.3-1.105 0-52.92-1.555-52.92-1.555-24.72-.75-46.25-22.26-46.96-46.1 0 0-1.595-52.35-1.595-53.74 0-63.54 44.56-114.7 107.3-122.4 63.42-7.785 80.94-59.61 83.9-83.9 7.748-62.8 58.87-107.3 122.4-107.3 1.375 0 53.78 1.578 53.78 1.578 24.72.75 46.25 22.27 46.96 46.98.035-.903.735 51.427.735 52.827zm-64 37.7c-11.03 0-20 8.969-20 20s8.969 20 20 20c11.03 0 19.1-8.969 19.1-20s-7.2-20-19.1-20zm-64 0c-11.03 0-19.1 8.969-19.1 20s8.967 20 19.1 20 19.1-8.969 19.1-20-7.2-20-19.1-20z"/></svg>