<svg xmlns="http://www.w3.org/2000/svg" viewBox="0 0 512 512"><!--! Font Awesome Pro 6.1.1 by @fontawesome - https://fontawesome.com License - https://fontawesome.com/license (Commercial License) Copyright 2022 Fonticons, Inc.--><path d="M256 199.1c-30.9 0-56 26-56 56.9s25.1 56 56 56 56-25.1 56-56-25.1-56.9-56-56.9zM368 88c-30.9 0-56 25.1-56 56 0 30.93 25.07 56 56 56 30.9 0 56-25.1 56-56s-25.1-56-56-56zM144 312c-30.94 0-56 25.06-56 56 0 30.93 25.06 56 56 56 30.93 0 56-25.07 56-56 0-30.9-25.1-56-56-56zM496.5 15.44C486.31 5.27 471.85-.11 457.88 0c-66.28 1.656-189.8 16.73-272.4 99.36l-86.1 86.14C16.85 268.06 1.7 391.6.01 457.9c-.344 14.38 5.279 28.44 15.47 38.63C25.36 506.4 38.89 512 52.79 512c.438 0 .875-.016 1.312-.016 66.28-1.656 189.8-16.75 272.4-99.38l86.12-86.13c82.53-82.56 97.68-206.1 99.37-272.4C512.3 39.71 506.7 25.63 496.5 15.44zM378.7 292.5l-86.12 86.13C219.1 452.1 100.5 462.8 52.89 463.1c-2 .36-2.781-.75-3.469-1.406-.656-.672-1.469-1.812-1.406-3.469 1.188-47.61 11.94-166.3 85.31-239.7l86.12-86.13c73.46-73.46 192.1-84.13 239.7-85.31 1.594 0 2.812.766 3.469 1.406.656.672 1.438 1.812 1.406 3.469C462.8 100.5 452.1 219.1 378.7 292.5z"/></svg>