<svg xmlns="http://www.w3.org/2000/svg" viewBox="0 0 512 512"><!--! Font Awesome Pro 6.1.1 by @fontawesome - https://fontawesome.com License - https://fontawesome.com/license (Commercial License) Copyright 2022 Fonticons, Inc.--><path d="M512 24c0-13.71-11.2-24-24-24a23.93 23.93 0 0 0-16.97 7.031L422.4 55.62C400.1 40 374.4 32 348.2 32c-36.7 0-73.7 14.75-101.3 42.35-29.1 29.15-66 48.85-105.7 59.75C108.13 143.163 0 192.15 0 319.5 0 426.2 86.96 512 192.2 512c37.68 0 150.1-19.78 184.2-138.8 35.34-123.4 103.2-111.1 103.2-206.9 0-26.69-7.883-53.41-23.55-76.39l48.87-48.87C509.7 36.28 512 30.14 512 24zm-80.9 141.4c0 70.17-63.47 60.93-101.7 194.6-10.9 41.2-54.5 104-137.2 104-62.92 0-144.3-50.66-144.3-144.5 0-67.08 45.85-122.7 105.9-139.1C278.5 146.2 275.1 80 348.2 80c10.63 0 25.17 2.125 39.71 10.11l-20.92 20.92C362.3 115.7 360 121.9 360 128c0 6.861 5.368 24 24 24 6.156 0 12.28-2.344 16.97-7.031l20.56-20.56c4.07 7.491 9.57 21.791 9.57 40.991z"/></svg>