<svg xmlns="http://www.w3.org/2000/svg" viewBox="0 0 576 512"><!--! Font Awesome Pro 6.1.1 by @fontawesome - https://fontawesome.com License - https://fontawesome.com/license (Commercial License) Copyright 2022 Fonticons, Inc.--><path d="M463.1 112c8.874 0 15.1-7.125 15.1-16s-7.125-16-15.1-16-16 7.12-16 16 8 16 16 16zm112-9.5c0-11.21-3.887-22.07-10.1-30.74l-21.75-26.5c15.99-5.371 29.11-18.75 32.62-35.61 1.035-4.97-2.897-9.641-7.974-9.641L431.1 0c-68.37 0-125.9 48-140.4 112l-25-.9c-39.01 0-78.04-13.53-104.8-41.95-3.9-3.28-8.8-5.15-13.8-5.15-9.7 0-20 7.62-20 19 0 86.12 59.75 162.8 139.1 183.2 10.12 2.625 19.1-5.125 19.1-15.62l1.8-16.38c0-6.9-3.5-13.2-10.2-15.1-37.4-10.4-69-37.7-86.4-73.3 23.4 9.3 48.9 14.2 75.2 14.2h70.26l-.01-16c0-53.02 42.98-96 95.99-96h51.37l44.62 54.25v65.38a11.1 11.1 0 0 1-7.5 10.5L489.5 188.8c-1.5.5-9.749 3-16.5-3.75L447.1 160H416v80c0 26.12-12.62 49-31.1 63.63L383.1 464h-48.01V320l-139.9-31.12L167.5 369l24 95H150l-21.12-87.88c-1.28-5.32-1.18-10.92.32-16.12l22.75-76.75C128.5 273.8 111.1 250.9 111.1 224c0-15 5.125-28.62 13.75-39.5-8.874-14.25-15.62-29.75-20.62-46.12C97.24 144.9 89.87 152 83.1 160.4 37.37 162.5 0 200.9 0 248v48c0 13.3 10.74 24 23.1 24s23.1-10.75 23.1-23.1l.9-48.9c0-13.25 6.874-24.38 16.75-31.62.77 2.52-.75 5.02-.75 7.62 0 30.12 11.87 58.13 32.12 78.63l-12.87 43.75c-3.1 13.25-4.375 27.38-1.125 40.87l24.12 100.3C109.7 501.9 122.6 512 137.4 512h74.75c20.85 0 36.12-19.62 31.01-39.84l-25.51-100.8L226.1 345l60.1 13.5V480c0 17.6 14.4 32 31.1 32h79.1c17.6 0 31.1-14.4 31.1-32V324.4c19.1-22.5 31.25-51.13 31.1-81.62v-8.38c20.1 7 38.37.75 40.1-.125l30.99-10.62c23.93-8.202 40-30.7 40-56V102.5z"/></svg>