<svg xmlns="http://www.w3.org/2000/svg" viewBox="0 0 640 512"><!--! Font Awesome Pro 6.1.1 by @fontawesome - https://fontawesome.com License - https://fontawesome.com/license (Commercial License) Copyright 2022 Fonticons, Inc.--><path d="m192.5 125.6 76.6-76.63c28.1-28.12 73.7-28.12 101.8 0L384 62.06l42.7-42.74c25-24.997 65.6-24.997 90.6 0l39.4 39.43c25 24.99 25 65.55 0 90.55L409.9 296l220.9 173.1c10.4 8.2 12.3 23.3 4.1 33.7-8.2 10.4-23.3 12.3-33.7 4.1L9.196 42.89C-1.236 34.71-3.065 19.63 5.112 9.196 13.29-1.236 28.37-3.065 38.81 5.112L192.5 125.6zm38 29.8 33.7 26.4L350.1 96l-14-13.09c-8.5-9.37-23.7-9.37-33.1 0l-72.5 72.49zm71.8 56.2 69.6 54.6 74.2-74.2-62.1-62.1-81.7 81.7zM118.8 457.2c53.2-12.7 102-39.9 140.7-78.7l43.7-43.6 38 29.9-47.7 47.7c-48 48-109.2 80.7-175.8 94l-24.99 5c-7.87 1.6-16.01-.9-21.68-7.4-5.68-4.8-8.14-12.9-6.57-20.8l5-25c13.32-66.6 46.04-127.8 94.04-175.8l32.3-32.2 38 29.9-36.3 36.3c-38.8 38.7-66 86.6-78.7 140.7z"/></svg>