<svg xmlns="http://www.w3.org/2000/svg" viewBox="0 0 512 512"><!--! Font Awesome Pro 6.1.1 by @fontawesome - https://fontawesome.com License - https://fontawesome.com/license (Commercial License) Copyright 2022 Fonticons, Inc.--><path d="M372.1 25.53c28.9-28.434 74.8-28.585 103-.34L487 37.1c28.2 28.11 28.2 73.7.1 101.8L310.6 315.5c-9.9 9.9-22.5 16.7-36.2 19.6l-85.5 17c-8.8 2.6-16.1.1-21.9-5.6-5.7-5.8-8.2-14-6.5-21.9l18-85.7c2.8-13.5 8.6-26.8 19.2-35.8L372.1 25.53zm69.1 33.61c-9.4-9.42-24.7-9.37-34.1.11l-20.8 21.11L432 126.1l21.1-22c9.4-8.5 9.4-23.69 0-33.06l-11.9-11.9zM225.5 248.8 215 298.5l49.6-10.4c4.5-1 8.7-3.2 12-6.5L398.1 160l-45.5-45.5-120.7 122.3c-3.3 3.3-5.5 7.5-6.4 12zm59.2-190.75C275.3 56.7 265.8 56 256 56 145.5 56 56 145.5 56 256s89.5 200 200 200c13.3 0 24 10.7 24 24s-10.7 24-24 24C119 504 8 392.1 8 256 8 119 119 8 256 8c23.8 0 46.9 3.36 68.7 9.63l-40 40.42zM494.6 187.1c6.1 22.5 9.4 45.3 9.4 68.9 0 83.9-68.1 152-152 152-13.3 0-24-10.7-24-24s10.7-24 24-24c57.4 0 104-46.6 104-104 0-9.3-.6-18.5-1.9-27.6l40.5-41.3z"/></svg>