<svg xmlns="http://www.w3.org/2000/svg" viewBox="0 0 640 512"><!--! Font Awesome Pro 6.1.1 by @fontawesome - https://fontawesome.com License - https://fontawesome.com/license (Commercial License) Copyright 2022 Fonticons, Inc.--><path d="M500.1 25.53c28.9-28.434 74.8-28.585 103-.34L615 37.1c28.2 28.11 28.2 73.7.1 101.8L438.6 315.5c-9.9 9.9-22.5 16.7-36.2 19.6l-85.5 17c-8.8 2.6-16.1.1-21.9-5.6-5.7-5.8-8.2-14-6.5-21.9l18-85.7c2.8-13.5 8.6-26.8 19.2-35.8L500.1 25.53zm69.1 33.61c-9.4-9.42-24.7-9.37-34.1.11l-20.8 21.11L560 126.1l21.1-22c9.4-8.5 9.4-23.69 0-33.06l-11.9-11.9zM353.5 248.8 343 298.5l49.6-10.4c4.5-1 8.7-3.2 12-6.5L526.1 160l-45.5-45.5-120.7 122.3c-3.3 3.3-5.5 7.5-6.4 12zM264 128c13.3 0 24 10.7 24 24s-10.7 24-24 24H72c-13.25 0-24 10.7-24 24v240c0 13.3 10.75 24 24 24h432c13.3 0 24-10.7 24-24V312c0-13.3 10.7-24 24-24s24 10.7 24 24v128c0 39.8-32.2 72-72 72H72c-39.76 0-72-32.2-72-72V200c0-39.8 32.24-72 72-72h192zM96 320c0-17.7 14.3-32 32-32s32 14.3 32 32-14.3 32-32 32-32-14.3-32-32zm160 0c0 17.7-14.3 32-32 32s-32-14.3-32-32 14.3-32 32-32 32 14.3 32 32z"/></svg>