<svg xmlns="http://www.w3.org/2000/svg" viewBox="0 0 640 512"><!--! Font Awesome Pro 6.1.1 by @fontawesome - https://fontawesome.com License - https://fontawesome.com/license (Commercial License) Copyright 2022 Fonticons, Inc.--><path d="M275.8 190.9 428.2 27.18C444.4 9.846 467 .001 490.7.001 537.8.001 576 38.2 576 85.31c0 22.79-9.8 46.29-27.2 62.49L398.9 287.3l231.9 181.8c10.4 8.2 12.3 23.3 4.1 33.7-8.2 10.4-23.3 12.3-33.7 4.1L9.196 42.89C-1.236 34.71-3.065 19.63 5.112 9.196 13.29-1.236 28.37-3.065 38.81 5.112L275.8 190.9zm37.9 29.7 46.9 36.8 155.5-144.8c7.6-7 11.9-16.93 11.9-27.29C528 64.71 511.3 48 490.7 48c-10.4 0-20.3 4.31-27.3 11.89L313.7 220.6zm-154.2 98.7L126.3 427l49.7-49.7V376c0-13.3 10.7-24 24-24s24 10.7 24 24-10.7 24-24 24c-.4 0-.9-.9-1.3-.9l-50.6 50.6 108.6-33.2c7.6-2.3 13.5-8.2 15.8-15.8l20.7-67.4 40.5 31.9-15.3 49.6c-7 22.8-24.8 40.6-47.6 47.6l-154.9 47.7c-30.65 9.4-59.39-19.4-49.95-50l47.65-154.9c7-22.8 24.8-40.6 47.6-47.6l25.8-7.9 45.9 36.1-57.6 17.7c-7.6 2.3-13.5 8.3-15.8 15.8z"/></svg>