<svg xmlns="http://www.w3.org/2000/svg" viewBox="0 0 640 512"><!--! Font Awesome Pro 6.1.1 by @fontawesome - https://fontawesome.com License - https://fontawesome.com/license (Commercial License) Copyright 2022 Fonticons, Inc.--><path d="m208.1 138.5 142-38.73 82.3-81.43c21.9-21.865 57.3-21.865 79.2 0l46.1 46.06c21.8 21.87 21.8 57.3 0 79.2L476.2 225l-27.6 101.3 182.2 142.8c10.4 8.2 12.3 23.3 4.1 33.7-8.2 10.4-23.3 12.3-33.7 4.1L9.196 42.89C-1.236 34.71-3.065 19.63 5.112 9.196 13.29-1.236 28.37-3.065 38.81 5.112L208.1 138.5zm48 36.9 151.5 118.8 21.6-79.1-68.3-68.3-104.8 28.6zm-4.8 171.9L149.1 449.5l207.2-72.8 43.8 35.2v.3l-265 92.8c-17.6 6.5-38.21 1.8-52.07-12.9-13.86-13-18.55-33.6-12.05-52.1l79.32-225.6 39.8 31.4-63.6 181.1 102.2-102.2c-3-6.3-4.7-13.3-4.7-20.7 0-9.4 2.7-18.2 7.4-25.7l75 59.1c-8.7 9-20.9 14.6-34.4 14.6-7.4 0-14.4-1.7-20.7-4.7z"/></svg>