<svg xmlns="http://www.w3.org/2000/svg" viewBox="0 0 512 512"><!--! Font Awesome Pro 6.1.1 by @fontawesome - https://fontawesome.com License - https://fontawesome.com/license (Commercial License) Copyright 2022 Fonticons, Inc.--><path d="M484.7 338.7c25 25 25 65.6 0 90.6l-55.4 55.4c-25 25-65.6 25-90.6 0l-65.2-65.2 34-34 65.2 65.2c6.2 5.4 16.4 5.4 22.6 0l55.4-55.4c5.4-6.2 5.4-16.4 0-22.6l-16.4-16.4-23 23c-6.2 6.3-16.4 6.3-22.6 0-6.3-6.2-6.3-16.4 0-22.6l23-23-26.2-26.2 34-34 65.2 65.2zM92.52 238.5l-65.21-65.2c-24.99-25-24.99-65.6 0-90.55l55.43-55.43c24.96-24.998 65.56-24.998 90.56 0l65.2 65.2-34 33.98-26.2-26.2-23 23c-6.2 6.3-16.4 6.3-22.6 0-6.3-6.2-6.3-16.4 0-22.6l23-23.04-16.4-16.4c-6.2-6.25-16.4-6.25-22.6 0L61.25 116.7c-6.24 6.2-6.24 16.4 0 22.6l65.25 65.2-33.98 34zm-33.95 85L362.7 19.32c25-24.998 65.6-24.998 90.6 0l39.4 39.43c3.1 3.12 5.8 6.49 8.2 10.04 16.4 24.84 13.7 58.61-8.2 80.51L188.5 453.4c-1.3 1.3-2.6 1.7-4 3.8-9.6 8.5-21 13.9-33.4 18.4L30.77 511c-8.42 2.5-17.53.2-23.74-6.9-6.21-5.3-8.532-14.4-6.054-22.9L36.37 360.9c4.16-14.1 11.79-27 22.2-37.4zm23.85 50.9-22.98 78.2 78.16-23c5.5-1.9 12.2-5.4 17-10.1L383 191l-62.9-62.9L92.51 357.4c-.59.6-1.16 1.2-1.71 1.9-3.86 4.3-6.73 9.5-8.38 15.1z"/></svg>