<svg xmlns="http://www.w3.org/2000/svg" viewBox="0 0 512 512"><!--! Font Awesome Pro 6.1.1 by @fontawesome - https://fontawesome.com License - https://fontawesome.com/license (Commercial License) Copyright 2022 Fonticons, Inc.--><path d="M368.4 18.34c21.9-21.866 57.3-21.866 79.2 0l46.1 46.06c21.8 21.87 21.8 57.3 0 79.2L412.2 225l-40.6 149.1c-4.9 17.8-18.1 32-35.5 38.1L71.97 505c-18.5 6.5-39.08 1.8-52.94-12.9C5.168 479.1.484 458.5 6.982 440L99.79 175.9c6.11-17.4 20.31-30.6 38.11-35.5l148.2-40.63 82.3-81.43zM296.9 146.8l-146.4 39.9c-3.4.7-4.6 2.6-5.4 5.1L62.47 426.9 164.7 324.7c-3-6.3-4.7-13.3-4.7-20.7 0-26.5 21.5-48 48-48s48 21.5 48 48-21.5 48-48 48c-7.4 0-14.4-1.7-20.7-4.7L85.1 449.5l235.1-82.6c2.5-.8 4.4-2.9 5.1-5.4l39.9-146.4-68.3-68.3z"/></svg>