<svg xmlns="http://www.w3.org/2000/svg" viewBox="0 0 512 512"><!--! Font Awesome Pro 6.1.1 by @fontawesome - https://fontawesome.com License - https://fontawesome.com/license (Commercial License) Copyright 2022 Fonticons, Inc.--><path d="m320 62.06 42.7-42.74c25-24.998 65.6-24.998 90.6 0l39.4 39.43c25 24.99 25 65.55 0 90.55L229.5 412.5c-48 48-109.2 80.7-175.8 94l-24.99 5c-7.87 1.6-16.01-.9-21.68-7.4-5.674-4.8-8.137-12.9-6.564-20.8l4.999-25C18.78 391.7 51.52 330.5 99.54 282.5L286.1 96l-14-13.09c-8.5-9.37-23.7-9.37-33.1 0L136.1 184.1c-8.5 10.2-23.7 10.2-33.1 0-9.34-8.5-9.34-23.7 0-33.1L205.1 48.97c28.1-28.12 73.7-28.12 101.8 0L320 62.06zm0 67.84L133.5 316.5c-38.79 38.7-65.98 86.6-78.65 140.7C108 444.5 156.8 417.3 195.5 378.5L382.1 192 320 129.9z"/></svg>