<svg xmlns="http://www.w3.org/2000/svg" viewBox="0 0 512 512"><!--! Font Awesome Pro 6.1.1 by @fontawesome - https://fontawesome.com License - https://fontawesome.com/license (Commercial License) Copyright 2022 Fonticons, Inc.--><path d="M36.37 360.9c4.16-14.1 11.79-27 22.2-37.4L362.7 19.32c25-24.998 65.6-24.998 90.6 0l39.4 39.43c3.1 3.12 5.8 6.49 8.2 10.04 16.4 24.84 13.7 58.61-8.2 80.51L188.5 453.4c-1.3 1.3-2.6 1.7-4 3.8-9.6 8.5-21 13.9-33.4 18.4L30.77 511c-8.42 2.5-17.53.2-23.74-6.9-6.21-5.3-8.532-14.4-6.054-22.9L36.37 360.9zm23.07 91.7 78.16-23c2.3-.7 4.6-2.5 6.8-2.7l-36.3-7.3c-7.9-1.6-14.13-7.8-15.71-15.7l-7.26-36.3a41.89 41.89 0 0 0-2.71 6.8l-22.98 78.2zm121.26-59.3L383 191l-62.9-62.9-201.4 203.2 9.4 51.7 52.6 10.3z"/></svg>