<svg xmlns="http://www.w3.org/2000/svg" viewBox="0 0 640 512"><!--! Font Awesome Pro 6.1.1 by @fontawesome - https://fontawesome.com License - https://fontawesome.com/license (Commercial License) Copyright 2022 Fonticons, Inc.--><path d="M264.2 181.8 426.7 19.32c25-24.996 65.6-24.997 90.6 0l39.4 39.43c3.1 3.12 5.8 6.49 8.2 10.04 16.4 24.84 13.7 58.61-8.2 80.51L409.9 296l220.9 173.1c10.4 8.2 12.3 23.3 4.1 33.7-8.2 10.4-23.3 12.3-33.7 4.1L9.196 42.89C-1.236 34.71-3.065 19.63 5.112 9.196 13.29-1.236 28.37-3.065 38.81 5.112L264.2 181.8zm38.1 29.8 69.6 54.6L447 191l-62.9-62.9-81.8 83.5zM192.1 383l52.6 10.3 58.5-58.4 38 29.9-88.7 88.6c-1.3 1.3-2.6 1.7-4 3.8-9.6 8.5-21 13.9-33.4 18.4L94.77 511c-8.42 2.5-17.53.2-23.74-6.9-6.21-5.3-8.53-14.4-6.06-22.9l35.43-120.3c4.1-14.1 11.8-27 22.2-37.4l73.2-73.2 38 29.9-51.1 51.1 9.4 51.7zm-68.7 69.6 78.2-23c2.3-.7 4.6-2.5 6.8-2.7l-36.3-7.3c-7.9-1.6-15-7.8-15.7-15.7l-7.3-36.3c-1.1 2.2-2 4.5-2.7 6.8l-23 78.2z"/></svg>