<svg xmlns="http://www.w3.org/2000/svg" viewBox="0 0 640 512"><!--! Font Awesome Pro 6.1.1 by @fontawesome - https://fontawesome.com License - https://fontawesome.com/license (Commercial License) Copyright 2022 Fonticons, Inc.--><path d="m606.2 278.9-43.75-106.3C551.3 145.5 525.2 128 495.8 128h-31.6c-29.31 0-55.44 17.5-66.59 44.58l-43.75 106.3c-5.062 12.27.781 26.28 13.06 31.33a22.624 22.624 0 0 0 8.764 1.771c7.957 0 15.57-4.205 20.09-11.14L368 384h48.01v104c0 13.25 10.74 24 23.99 24s24.01-10.75 24.01-24V384h31.1v104c0 13.25 10.74 24 23.1 24 13.25 0 24-10.75 24-24V384h47.1l-27.42-82.26C569.1 308.1 576.3 312 584 312c3.062 0 6.156-.578 9.125-1.812C605.4 305.1 611.3 291.1 606.2 278.9zM434.6 336 480 199.8 525.4 336h-90.8zM480 96c26.5 0 48-21.5 48-48S506.5 0 480 0s-47.1 21.5-47.1 48 20.6 48 47.1 48zm-237.6 76.6c-11.1-27.1-37.2-44.6-66.6-44.6h-31.6c-29.4 0-55.49 17.5-66.64 44.6L33.81 278.9c-5.06 12.2.78 26.2 13.06 31.3a22.624 22.624 0 0 0 8.764 1.771c7.957 0 15.57-4.205 20.09-11.14L47.1 384h47.1v104c0 13.25 10.75 24 24 24s23.1-10.75 23.1-24V384h31.1v104c0 13.25 10.75 24 24 24s23.99-10.75 23.99-24V384h50.71l-26.5-82.3c4.5 6.4 11.7 10.3 18.5 10.3 3.062 0 6.156-.578 9.125-1.812 12.28-5.047 18.12-19.06 13.06-31.33L242.4 172.6zM114.6 336 160 199.8 205.4 336h-90.8zm44.5-240c26.5 0 48-21.5 48-48s-20.6-48-48-48c-26.5 0-48 21.5-48 48s22.4 48 48 48z"/></svg>