<svg xmlns="http://www.w3.org/2000/svg" viewBox="0 0 576 512"><!--! Font Awesome Pro 6.1.1 by @fontawesome - https://fontawesome.com License - https://fontawesome.com/license (Commercial License) Copyright 2022 Fonticons, Inc.--><path d="M512.6 18.5c3.1-12.902 16-20.9 28.9-17.864 12.9 3.035 20.9 15.954 17.9 28.854l-8.2 34.77C539.9 112.4 506.9 150.8 464 170.2v316.9c0 14.2-10.7 24-24 24-13.2 0-24-9.8-24-24v-136h-32v136c0 14.2-10.7 24-24 24-13.2 0-24-9.8-24-24V170.2c-42.9-19.4-75.9-57.8-87.2-105.94l-8.2-34.77c-3-12.9 5-25.819 17.9-28.854C271.4-2.4 284.3 5.598 287.4 18.5l8.1 34.77c11.4 48.43 54.7 81.83 104.5 81.83s93.1-33.4 104.5-81.83l8.1-34.77zM400 183.1c-5.4 0-10.7.6-16 .1v119.9h32V183.2c-5.3.5-10.6-.1-16-.1zm-48-136c0-25.61 21.5-47.102 48-47.102S448 21.49 448 47.1c0 27.41-21.5 48-48 48s-48-20.59-48-48zm-224 0c0 27.41-21.5 48-48 48-26.51 0-48-20.59-48-48C32 21.49 53.49-.003 80-.003c26.5 0 48 21.493 48 47.103zM16 204.5c-.9-42.3 34.25-77.4 76.49-77.4 25.11 0 48.61 13.2 62.91 33.8l49.2 70.2h34.5c14.2 0 24 11.6 24 24 0 14.2-9.8 24-24 24h-48c-7 0-14.4-3-18.8-9.4l-56.4-81.4c-5.3-7.7-14.1-13.2-23.4-13.2-15.74 0-28.5 13.7-28.5 29.4v98.6h32.01v-24c0-12.4 10.79-24 23.99-24 13.3 0 24 11.6 24 24v208c0 14.2-10.7 24-24 24-13.2 0-23.99-9.8-23.99-24v-136H64v136c0 14.2-10.74 24-24 24-13.25 0-24-9.8-24-24V204.5z"/></svg>