<svg xmlns="http://www.w3.org/2000/svg" viewBox="0 0 576 512"><!--! Font Awesome Pro 6.1.1 by @fontawesome - https://fontawesome.com License - https://fontawesome.com/license (Commercial License) Copyright 2022 Fonticons, Inc.--><path d="M112 343.1V488c0 13.3 10.8 24 24 24s24-10.7 24-24v-96.81l-47.59-47.59c-.11-.2-.21-.3-.41-.5zM48 224c0-8.822 7.178-16 16-16h64c8.822 0 16 7.178 16 16v8.812l32.41-32.41c2.412-2.416 5.051-4.51 7.797-6.416C173.4 173.9 152.4 160 128 160H64c-35.35 0-64 28.7-64 64v96c0 17.67 14.33 32 31.1 32l.9 136c0 13.3 10.75 24 24 24s24-10.75 24-24V304H48v-80zm48-96c35.38 0 64-28.62 64-64S131.4 0 96 0 32 28.62 32 64s28.63 64 64 64zm384 0c35.38 0 64-28.62 64-64S515.38 0 480 0s-64 28.62-64 64 28.6 64 64 64zm-64 263.2V488c0 13.25 10.75 24 24 24s24-10.75 24-24V343.1c-.15.154-.254.342-.406.494L416 391.2zM512 160h-64c-24.44 0-45.42 13.86-56.2 33.99 2.746 1.906 5.385 4 7.797 6.416L432 232.8V224c0-8.822 7.178-16 16-16h64c8.822 0 16 7.178 16 16v80h-32v184c0 13.25 10.75 24 24 24s24-10.7 24-24V352c17.67 0 32-14.33 32-32v-96c0-35.3-28.7-64-64-64zm-71.9 127-64-64c-9.375-9.375-24.56-9.375-33.94 0s-9.375 24.56 0 33.94L366.1 280H209.9l23.03-23.03c9.375-9.375 9.375-24.56 0-33.94s-24.56-9.375-33.94 0l-64 64c-9.375 9.375-9.375 24.56 0 33.94l64 64C203.7 389.7 209.8 392 216 392s12.28-2.344 16.97-7.031c9.375-9.375 9.375-24.56 0-33.94L209.9 328H366l-23.03 23.03c-9.375 9.375-9.375 24.56 0 33.94C347.7 389.7 353.8 392 360 392s12.28-2.344 16.97-7.031l64-64c9.33-9.369 9.33-24.569-.87-33.969z"/></svg>