<svg xmlns="http://www.w3.org/2000/svg" viewBox="0 0 576 512"><!--! Font Awesome Pro 6.1.1 by @fontawesome - https://fontawesome.com License - https://fontawesome.com/license (Commercial License) Copyright 2022 Fonticons, Inc.--><path d="M32 48C32 21.49 53.5 0 80 0s48 21.49 48 48-21.5 48-48 48-48-21.49-48-48zm16 223.9V328c0 13.3-10.75 24-24 24S0 341.3 0 328V184c0-30.9 25.07-56 56-56h58.4c15 0 29.9 3.9 43 11.2l118.5 66.5c12.3-23.2 32-41.9 56.3-52.9l21.2-9.6c22-10 45.9-15.2 70.1-15.2 48.9 0 92 31.9 106.4 78.6l11.3 36.6 26.9 27.8c10.2 9.4 10.2 24.6 0 33.1-8.5 10.2-23.7 10.2-33.1 0l-29.2-28.3c-4.6-4.6-8-10.3-9.9-16.5l-9.8-31.9-29.3 93.8 50.1 40.7c6.9 5.6 11.7 13.4 13.7 21.2l22.8 99.5c3 12.9-5.1 25.8-18 28.8s-25.8-5.1-28.8-18l-22.1-96L370 312.6c-18.9-14.7-25.1-39.1-17.8-61.2l21.6-64.8-.6.3-21.2 9.6c-18.2 8.3-32.1 23.8-38.5 42.8l-2.6 7.9c-.2.7-.5 1.4-.8 2.2-1.2 2.8-2.9 5.4-5 7.5-4.9 4.9-11.8 7.6-18.8 7-2.8-.2-5.5-.8-8.1-2-.8-.4-1.6-.8-2.3-1.2L160.5 196l62.9 286.9c2.9 12.9-5.3 25.7-18.3 28.5-12.9 2.9-25.7-5.3-28.5-18.3l-31-141.1h-30.9l28.7 130.9c2.9 12.9-5.3 25.7-18.3 28.5-12.9 2.9-25.7-5.3-28.54-18.3L48 271.9zM76.08 176l28.12 128H135l-28.1-128H76.08zm324.22 99.3 16.4 13.3 32.4-103.8c.3-1 .7-2 1.1-2.9-6.9-3.2-14.4-5.2-22.3-5.7l-30.1 90.4c-1.1 3.2-.1 6.6 2.5 8.7zM416 48c0-26.51 21.5-48 48-48s48 21.49 48 48-21.5 48-48 48-48-21.49-48-48zm-21.3 325.9-19.2 48c-2 5-5 9.6-8.9 13.4l-70.5 68.8c-8.5 10.2-23.7 10.2-33.1 0-9.3-8.5-9.3-23.7 0-33.1l68.5-68.5 24.2-60.3 39 31.7z"/></svg>