<svg xmlns="http://www.w3.org/2000/svg" viewBox="0 0 640 512"><!--! Font Awesome Pro 6.1.1 by @fontawesome - https://fontawesome.com License - https://fontawesome.com/license (Commercial License) Copyright 2022 Fonticons, Inc.--><path d="M360 72c0 22.09-17.9 40-40 40s-40-17.91-40-40 17.9-40 40-40 40 17.91 40 40zm24 200c0 17.7-14.3 32-32 32h-64c-17.7 0-32-14.3-32-32v-39.7l-18.9 35.1c-2 2.2-2.6 4.1-4.3 5.7l36.3 67.5c6.3 11.7 2 26.2-9.7 32.5-11.7 6.3-26.2 1.9-32.5-9.7L208 328.3V352c0 17.7-14.3 32-32 32h-64c-17.67 0-32-14.3-32-32v-23.7l-18.86 35.1c-6.29 11.6-20.84 16-32.51 9.7-11.67-6.3-16.04-20.8-9.76-32.5l37.88-70.3C72.1 241.8 101.9 224 134.2 224h19.6c16.3 0 31.9 4.5 45.4 12.6l33.5-62.3c15.4-28.5 45.2-46.3 77.5-46.3h19.6c32.4 0 62.1 17.8 77.5 46.3l33.5 62.3c13.5-8.1 29.1-12.6 45.4-12.6h19.6c32.4 0 62.1 17.8 77.5 46.3l37.8 70.3c6.3 11.7 2 26.2-9.7 32.5-11.7 6.3-26.2 1.9-32.5-9.7L560 328.3V352c0 17.7-14.3 32-32 32h-64c-17.7 0-32-14.3-32-32v-23.7l-18.9 35.1c-6.2 11.6-20.8 16-32.5 9.7-12.5-6.3-16-20.8-9.7-32.5l36.3-67.5c-1.7-1.6-3.1-3.5-4.3-5.7L384 232.3V272zm-80-95.5V256h32v-79.5c-2.9-.3-4.1-.5-6.2-.5h-19.6c-2.1 0-4.2.2-6.2.5zM512 336v-63.5c-2.9-.3-4.1-.5-6.2-.5h-19.6c-2.1 0-4.2.2-6.2.5V336h32zm-352 0v-63.5c-2.9-.3-4.1-.5-6.2-.5h-19.6c-2.1 0-4.2.2-6.2.5V336h32zm296-168c0-22.1 17.9-40 40-40s40 17.9 40 40-17.9 40-40 40-40-17.9-40-40zm160 264c13.3 0 24 10.7 24 24s-10.7 24-24 24H24c-13.25 0-24-10.7-24-24s10.75-24 24-24h592zM104 168c0-22.1 17.9-40 40-40s40 17.9 40 40-17.9 40-40 40-40-17.9-40-40z"/></svg>