<svg xmlns="http://www.w3.org/2000/svg" viewBox="0 0 640 512"><!--! Font Awesome Pro 6.1.1 by @fontawesome - https://fontawesome.com License - https://fontawesome.com/license (Commercial License) Copyright 2022 Fonticons, Inc.--><path d="M159.1 96c26.5 0 47.1-21.5 47.1-48S186.5 0 160 0c-26.5 0-48.9 21.5-48.9 48s22.4 48 48 48zm320 0c26.5 0 48-21.5 48-48s-20.6-48-48-48C452.6 0 432 21.5 432 48s21.5 48 47.1 48zm-236.7 76.6c-11.1-27.1-37.2-44.6-66.6-44.6h-31.6c-29.4 0-55.49 17.5-66.64 44.6L33.81 278.9c-5.06 12.2.78 26.2 13.06 31.3a23.607 23.607 0 0 0 9.113 1.832c9.4 0 18.38-5.604 22.2-14.88l17.81-43.27V488c0 13.25 10.75 24 24 24s23.1-10.75 23.1-24V352h32v136c0 13.25 10.75 24 24 24s23.99-10.75 23.99-24V253.9l17.81 43.27C245.6 306.4 254.6 312 263.1 312c3.062 0 6.156-.578 9.123-1.812 12.28-5.047 18.12-19.06 13.06-31.33L242.4 172.6zM143.1 304V176h31.1l.002 128H143.1zm463.1-25.1-43.75-106.3C551.3 145.5 525.2 128 495.8 128h-31.69c-29.31 0-55.44 17.5-66.59 44.58l-43.75 106.3c-5.062 12.27.781 26.28 13.06 31.33a22.624 22.624 0 0 0 8.764 1.771c7.957 0 15.57-4.205 20.09-11.14L367.1 384h47.1v104c0 13.25 10.75 24 24 24s23.1-10.75 23.1-24V384h31.1v104c0 13.25 10.75 24 24 24s23.99-10.75 23.99-24V384h48.01l-27.43-82.26C569.1 308.1 576.3 312 583.1 312c3.062 0 6.156-.578 9.125-1.812C605.4 305.1 611.2 291.1 606.2 278.9zM434.6 336 480 199.8 525.4 336h-90.8z"/></svg>