<svg xmlns="http://www.w3.org/2000/svg" viewBox="0 0 640 512"><!--! Font Awesome Pro 6.1.1 by @fontawesome - https://fontawesome.com License - https://fontawesome.com/license (Commercial License) Copyright 2022 Fonticons, Inc.--><path d="M628.3 179.4c11.4 6.7 15.1 21.5 8.3 32.9-6.7 11.4-21.5 15.1-32.9 8.3L320 51.92 36.27 220.6c-11.39 6.8-26.12 3.1-32.895-8.3-6.774-11.4-3.03-26.2 8.365-32.9L307.7 3.371c7.6-4.495 17-4.495 24.6 0l296 176.029zM456 296c0-22.1 17.9-40 40-40s40 17.9 40 40-17.9 40-40 40-40-17.9-40-40zm122.9 195.4L560 456.3V480c0 17.7-14.3 32-32 32h-64c-17.7 0-32-14.3-32-32v-23.7l-18.9 35.1c-6.2 11.6-20.8 16-32.5 9.7-12.5-6.3-16-20.8-9.7-32.5l36.3-67.5c-1.7-1.6-3.1-3.5-4.3-5.7L384 360.3V400c0 17.7-14.3 32-32 32h-64c-17.7 0-32-14.3-32-32v-39.7l-18.9 35.1c-2 2.2-2.6 4.1-4.3 5.7l36.3 67.5c6.3 11.7 2 26.2-9.7 32.5-11.7 6.3-26.2 1.9-32.5-9.7L208 456.3V480c0 17.7-14.3 32-32 32h-64c-17.67 0-31.99-14.3-31.99-32v-23.7l-18.87 35.1c-6.29 11.6-20.84 16-32.51 9.7-11.67-6.3-16.04-20.8-9.75-32.5l37.87-70.3C72.1 369.8 101.9 352 134.2 352h19.6c16.3 0 31.9 4.5 45.4 12.6l33.6-62.3c15.3-28.5 45.1-46.3 77.4-46.3h19.6c32.4 0 62.1 17.8 77.5 46.3l33.5 62.3c13.5-8.1 29.1-12.6 45.4-12.6h19.6c32.4 0 62.1 17.8 77.5 46.3l37.8 70.3c6.3 11.7 2 26.2-9.7 32.5-11.7 6.3-26.2 1.9-32.5-9.7zM512 464v-63.5c-2.9-.3-4.1-.5-6.2-.5h-19.6c-2.1 0-4.2.2-6.2.5V464h32zM304 304.5V384h32v-79.5c-2.9-.3-4.1-.5-6.2-.5h-19.6c-2.1 0-4.2.2-6.2.5zM160 464v-63.5c-2.9-.3-4.1-.5-6.2-.5h-19.6c-2.1 0-4.2.2-6.2.5V464h32zm200-264c0 22.1-17.9 40-40 40s-40-17.9-40-40 17.9-40 40-40 40 17.9 40 40zm-256 96c0-22.1 17.9-40 40-40s40 17.9 40 40-17.9 40-40 40-40-17.9-40-40z"/></svg>