<svg xmlns="http://www.w3.org/2000/svg" viewBox="0 0 640 512"><!--! Font Awesome Pro 6.1.1 by @fontawesome - https://fontawesome.com License - https://fontawesome.com/license (Commercial License) Copyright 2022 Fonticons, Inc.--><path d="M128 95.1c26.5 0 47.1-21.5 47.1-47.1S154.5 0 128 0 80.01 21.5 80.01 47.1s21.49 48 47.99 48zm383.1 0c26.5 0 47.1-21.5 47.1-47.1S538.5 0 511.1 0s-48 21.5-48 47.1 22.4 48 48 48zm88 155.5L581 172.23c-4.25-17.37-16.75-31.1-33.5-39.37-16.87-7.375-35.75-6.5-51.37 2.375-25.62 14.37-40.37 47.5-46.87 66.12l-12.12 34.75c-.625 1.625-1.75 3.125-3.375 4.25l-17.75 10.12V127.1c0-8.75-7.249-15.1-15.1-15.1H240c-8.749 0-15.1 7.25-15.1 15.1v122.5l-18.6-9.2c-1.7-1.2-2.9-2.7-3.5-4.3l-12.2-34.7c-6.5-18.7-21.2-51.8-46.8-66.2-15.62-8.875-34.5-9.75-51.37-2.375C75.78 140.2 63.28 154.9 58.9 172.2l-18.87 78.5c-5.13 21 2 43.2 18.25 57.5l68.74 59.1c6.249 5.5 10.25 13.12 10.87 21.5l7.999 100.1c.875 9.125 8.874 23.37 25.87 21.1 13.12-1.125 22.1-12.62 21.1-25.75l-8.749-109.2c-1.25-15.12-8.249-29.12-19.75-39.12L113.1 292.2l24.8-92.1c2.75 5.25 19.62 51.75 19.62 51.75 3.875 11.25 11.25 20.75 22.1 28.87l36.87 19.5c4.625 2.375 9.749 3.625 14.87 3.625h175.5c5.249 0 10.37-1.25 14.1-3.625l36.87-19.5c11.75-8.125 19.12-17.62 22.1-28.87 0 0 16.87-46.62 19.62-51.75l24.75 92.12-52.24 45.5c-11.37 9.1-18.5 23.1-19.62 39.12l-8.874 109.1c-1 13.25 8.874 24.75 21.1 25.75 16.1 1.375 25.12-12.62 25.87-21.1l7.999-100.1c.625-8.375 4.625-16.12 10.87-21.5l68.74-59.87C597.1 293.9 604.1 271.7 599.1 250.6zm-232 4.5H272v-96h95.1v96zm271.1 223.8-53.74-130.7-38.25 33.37 47.5 115.6c4.999 12.12 18.87 18.12 31.25 13.12 12.34-5.09 18.24-19.09 13.24-31.39zm-636.417 0c-4.999 12.37.875 26.37 13.12 31.37 12.37 4.1 26.37-.1 31.37-13.12l47.37-115.6-38.25-33.37L1.783 478.9z"/></svg>