<svg xmlns="http://www.w3.org/2000/svg" viewBox="0 0 512 512"><!--! Font Awesome Pro 6.1.1 by @fontawesome - https://fontawesome.com License - https://fontawesome.com/license (Commercial License) Copyright 2022 Fonticons, Inc.--><path d="M384 128c35.38 0 64-28.62 64-64S419.38 0 384 0s-64 28.62-64 64 28.6 64 64 64zm121.5 215.2-39.08-136.8C458.6 178.9 433.5 160 404.9 160h-41.85c-28.58 0-53.69 18.94-61.54 46.42l-39.08 136.8C256.6 363.7 271.1 384 293.2 384H320v104c0 13.25 10.75 24 24 24s24-10.75 24-24V384h32v104c0 13.25 10.75 24 24 24s24-10.7 24-24V384h26.78c21.22 0 36.62-20.3 30.72-40.8zM314.4 336l33.25-116.4c2.05-6.9 8.25-11.6 15.45-11.6h41.85a15.99 15.99 0 0 1 15.38 11.6L453.6 336H314.4zM210.5 206.4c-7.9-27.5-33-46.4-61.6-46.4h-41.8c-28.6 0-53.71 18.9-61.56 46.4L6.452 343.2C.612 363.7 15.96 384 37.22 384H64v104c0 13.3 10.75 24 24 24s24-10.75 24-24V384h32v104c0 13.3 10.8 24 24 24s24-10.7 24-24V384h26.78c21.26 0 36.61-20.35 30.77-40.79L210.5 206.4zM58.43 336l33.25-116.4c1.97-6.9 8.25-11.6 15.42-11.6h41.85a15.99 15.99 0 0 1 15.38 11.6L197.6 336H58.43zM128 128c35.38 0 64-28.62 64-64S163.4 0 128 0 64 28.62 64 64s28.63 64 64 64z"/></svg>