<svg xmlns="http://www.w3.org/2000/svg" viewBox="0 0 448 512"><!--! Font Awesome Pro 6.1.1 by @fontawesome - https://fontawesome.com License - https://fontawesome.com/license (Commercial License) Copyright 2022 Fonticons, Inc.--><path d="M384 160h-64c-35.35 0-64 28.65-64 64v96c0 17.67 14.33 32 32 32v136c0 13.25 10.75 24 24 24s24-10.75 24-24V352h32v136c0 13.25 10.75 24 24 24s24-10.7 24-24V352c17.67 0 32-14.33 32-32v-96c0-35.3-28.7-64-64-64zm16 144h-96v-80c0-8.822 7.178-16 16-16h64c8.822 0 16 7.178 16 16v80zm-48-176c35.38 0 64-28.62 64-64S387.38 0 352 0s-64 28.62-64 64 28.6 64 64 64zm-256 0c35.38 0 64-28.62 64-64S131.4 0 96 0 32 28.62 32 64s28.63 64 64 64zm32 32H64c-35.35 0-64 28.7-64 64v96c0 17.67 14.33 32 32 32v136c0 13.3 10.75 24 24 24s24-10.75 24-24V352h32v136c0 13.3 10.8 24 24 24s24-10.7 24-24V352c17.67 0 32-14.33 32-32v-96c0-35.3-28.7-64-64-64zm16 144H48v-80c0-8.822 7.178-16 16-16h64c8.822 0 16 7.178 16 16v80z"/></svg>