<svg xmlns="http://www.w3.org/2000/svg" viewBox="0 0 640 512"><!--! Font Awesome Pro 6.1.1 by @fontawesome - https://fontawesome.com License - https://fontawesome.com/license (Commercial License) Copyright 2022 Fonticons, Inc.--><path d="M80 80c0-26.51 21.5-48 48-48s48 21.49 48 48c0 26.5-21.5 48-48 48s-48-21.5-48-48zm64 80c23.1 0 46.2 7.5 64.4 20.3-12.1 10.7-22.3 23.4-30.2 37.6-9.9-6.3-21.6-9.9-34.2-9.9h-32v192h32v-16c0-13.3 10.7-24 24-24s24 10.7 24 24v32c0 17.7-14.3 32-32 32H96c-17.67 0-32-14.3-32-32v-42.8C26.16 355.2 0 316.7 0 272c0-61.9 50.14-112 112-112h32zm-80 69.7c-9.96 11.2-16 26.1-16 42.3 0 16.2 6.04 31.1 16 42.3v-84.6zM496 208c-12.6 0-24.3 3.6-34.2 9.9-7.9-14.2-18.1-26.9-30.2-37.6C449.8 167.5 472 160 496 160h32c61.9 0 112 50.1 112 112 0 44.7-26.2 83.2-64 101.2V416c0 17.7-14.3 32-32 32h-64c-17.7 0-32-14.3-32-32v-32c0-13.3 10.7-24 24-24s24 10.7 24 24v16h32V208h-32zm80 21.7v84.6c9.1-11.2 16-26.1 16-42.3 0-16.2-6.9-31.1-16-42.3zM560 80c0 26.5-21.5 48-48 48s-48-21.5-48-48c0-26.51 21.5-48 48-48s48 21.49 48 48zm-296 8c0-30.93 25.1-56 56-56s56 25.07 56 56c0 30.9-25.1 56-56 56s-56-25.1-56-56zm72 88c61.9 0 112 50.1 112 112 0 44.7-26.2 83.2-64 101.2V448c0 17.7-14.3 32-32 32h-64c-17.7 0-32-14.3-32-32v-58.8c-37.8-18-64-56.5-64-101.2 0-61.9 50.1-112 112-112h32zm-32 256h32V224h-32v208zm-48-101.7v-84.6c-10 11.2-16 26.1-16 42.3 0 16.2 6 31.1 16 42.3zM400 288c0-16.2-6.9-31.1-16-42.3v84.6c9.1-11.2 16-26.1 16-42.3z"/></svg>