<svg xmlns="http://www.w3.org/2000/svg" viewBox="0 0 512 512"><!--! Font Awesome Pro 6.1.1 by @fontawesome - https://fontawesome.com License - https://fontawesome.com/license (Commercial License) Copyright 2022 Fonticons, Inc.--><path d="M466.1 131.9c20.17-38.03 18.29-85.58-6.73-121.7C454.7 3.586 447.4 0 439.8 0c-4.701 0-9.459 1.396-13.65 4.316-10.77 7.578-13.44 22.55-5.896 33.41 13.13 18.91 14.38 42.79 6.244 63.63C403.2 88.17 376.8 80 348.4 80c-35.81 0-70.13 12.17-99.26 35.18-7.04 4.92-9.64 12.52-9.14 20.42a24.063 24.063 0 0 0 11.59 19.09l44.97 27.06v90.45c0 13.27 10.74 24.03 23.97 24.03h91.61l32.99 45.79c4.57 6.28 11.77 9.98 19.47 9.98.203 0 .406 0 .61-.016 7.91-.187 15.21-4.303 19.51-10.95C502.6 313.4 512 281.3 512 248.2c0-45.2-17.6-86-45.9-116.3zm-46.9 228.8c1.236 1.719 2.834 3.066 4.242 4.617C356 438.3 232.4 512 73.31 512 32.89 512 0 478.7 0 437.9s32.89-74.13 73.31-74.13c71.69 0 102.4-67.67 132-133.1 8.455-18.65 16.82-35.88 25.75-51.73 1.385 1.02 2.557 2.266 4.045 3.162l29.47 17.74v17.96c-5.174 10.43-10.33 21.41-15.63 33.09-32.61 71.91-73.19 161.4-175.7 161.4C59.36 412.3 48 423.8 48 437.9s11.36 25.6 25.31 25.6c144.4 0 257.6-69.07 315.6-132h9.217l21.073 29.2z"/></svg>