<svg xmlns="http://www.w3.org/2000/svg" viewBox="0 0 512 512"><!--! Font Awesome Pro 6.1.1 by @fontawesome - https://fontawesome.com License - https://fontawesome.com/license (Commercial License) Copyright 2022 Fonticons, Inc.--><path d="M430.9 100.2c-24.62-7.094-50.34-5.234-73.65 5.125-25.47-11.32-53.81-11.74-79.14-2.785C274.532 49.76 234.82 8.82 233 7.01c-9.4-9.326-24.4-9.358-33.9-.03-9.3 9.31-9.4 24.5-1 33.91.313.313 26.73 27.8 31 60.36-44.52-13.89-72.78 1.297-77.09 3.441C130.2 95.04 105.2 93.29 81.14 100.2c-58.71 16.9-93.31 79.7-77.181 139.9l48.41 188.2C65.65 477.6 109.6 512 159.3 512c10.16 0 20.25-1.438 29.97-4.25 6.125-1.766 12.16-4.156 18.16-7.25 30.12 15.09 67.06 15.09 97.19 0 6 3.094 12 5.484 18.12 7.25 9.76 2.85 19.86 4.25 29.96 4.25 49.69 0 93.65-34.41 106.1-83.94l48.28-187.8C524.2 179.9 489.6 117.1 430.9 100.2zm30.7 127.9-48.28 187.7c-9.156 34.05-44.47 55.22-77.28 45.78-5.656-1.641-11.47-4.516-17.72-8.812a23.878 23.878 0 0 0-13.59-4.234 23.93 23.93 0 0 0-13.75 4.328c-20.75 14.5-49.13 14.5-69.87 0-8.156-5.736-19.06-5.768-27.34-.094-6.25 4.297-12.06 7.172-17.75 8.812-32.53 9.47-68.13-11.81-77.19-45.53L50.4 227.9c-9.469-35.27 10.28-71.83 43.1-81.53 5.984-1.721 12.05-2.168 18.09-2.01C97.29 170.3 92.03 201.1 100.1 231l43.47 135.8c3.25 10.2 12.69 16.69 22.84 16.69 2.406 0 4.875-.36 7.312-1.141 12.62-4.047 19.59-17.55 15.53-30.17L146.1 217.3c-5-17.98-.531-39.72 11.34-55.36 2.205-2.898 5.203-5.871 8.582-8.676.318-.17.701-.092 1.012-.277C191.3 138.5 219.8 142.4 239.6 160.9a24.023 24.023 0 0 0 32.75 0c19.84-18.52 48.44-22.39 72.53-7.953 7.625 4.531 17.12 4.547 24.75-.047 14.75-8.89 31.81-11.23 47.94-6.562h.031C451.4 156 471.1 192.6 461.6 228.1z"/></svg>