<svg xmlns="http://www.w3.org/2000/svg" viewBox="0 0 448 512"><!--! Font Awesome Pro 6.1.1 by @fontawesome - https://fontawesome.com License - https://fontawesome.com/license (Commercial License) Copyright 2022 Fonticons, Inc.--><path d="M143.1 95.1c27.4.89 48.9-20.6 48.9-47.1 0-26.51-21.5-48-48-48S96 21.49 96 48c0 26.5 21.5 47.99 47.1 47.1zM92.19 372.3 64.73 482.1c-3.219 12.86 4.594 25.89 17.47 29.11 1.93.59 3.9.79 5.84.79 10.75 0 20.53-7.281 23.25-18.17l27.08-108.3-42.82-36.71c-.47 7.88-1.43 15.78-3.36 23.48zm223.31-91.2-84.84-117.5c-16.56-22-43.16-36.5-71.36-36.5h-23.7c-33.34 0-63.81 18.83-78.72 48.65l-54.3 108.6c-5.975 12.75-1.162 27.15 10.71 33.15 3.44 1.7 7.1 1.6 10.69 1.6 8.812 0 17.28-4.859 21.5-13.27l50.53-101.1v86.65a32.02 32.02 0 0 0 11.17 24.3l98.26 84.23c1.625 1.391 2.562 3 2.562 4.406V488c0 13.25 10.75 24 24 24s24-10.75 24-24v-82.75c0-15.44-7.031-30.33-19.31-40.85l-44.69-38.3V193l84.53 117c7.811 10.7 22.75 13.25 33.53 5.406C320.8 307.7 323.2 292.7 315.5 281.1zm129.7 205L329.8 316.3c-2.652 4.25-6.059 8.121-10.36 11.23-4.869 3.543-10.46 5.432-16.26 6.502l115.6 170.1A15.99 15.99 0 0 0 432 511.14c3.125 0 6.247-.898 8.997-2.773C448.3 504.2 450.2 494.3 445.2 486.1z"/></svg>