<svg xmlns="http://www.w3.org/2000/svg" viewBox="0 0 512 512"><!--! Font Awesome Pro 6.1.1 by @fontawesome - https://fontawesome.com License - https://fontawesome.com/license (Commercial License) Copyright 2022 Fonticons, Inc.--><path d="M432.1 96.02c26.51 0 47.99-21.5 47.99-48.01S458.6 0 432.1 0s-47.98 21.5-47.98 48.01 21.48 48.01 47.98 48.01zm-313-4.37-10.6 22.55c5.7 2.8 11.7 4.2 17.7 4.2 9.128 0 18.02-3.2 25.06-9.102l132.8 66.27 61.14-24.38 14.13 42.26c3.376 10.13 10.5 18.38 20 23.13l58.14 29.01a23.797 23.797 0 0 0 10.76 2.571c13.29 0 24.01-10.77 24.01-24.01 0-8.809-4.867-17.27-13.39-21.44L403.7 175l-18.13-54.39c-12.21-36.63-47.73-38.33-53.23-38.33a55.89 55.89 0 0 0-20.66 3.943L237.1 116.2l-72.2-35.87c.009-.346.013-.692.013-1.038 0-14.13-7.468-27.7-20.89-34.53L132.9 66.45l-34.73-7.02c-.36-.07-.62-.08-.98-.08a5.133 5.133 0 0 0-3.967 1.857c-.913.963-1.303 2.183-1.303 3.413 0 1.465.586 2.941 1.81 3.961L119.1 91.65zm392 377.45c0-13.23-10.56-23.95-23.89-23.95-19.02 0-18.96 19.11-46.15 19.11-5.481 0-10.95-1.165-15.87-3.389l-143.1-74.03 49.76-74.52a40.315 40.315 0 0 0 6.692-22.27c0-10.34-3.96-20.58-11.69-28.25L270.5 204.5l-76.9-38.1c-.2 2-.3 3.9-.3 5.8 0 14.59 5.419 28.59 15.91 39.09l79.89 79.89-49.14 73.64L34.97 258.8c-3.57-2.7-7.32-2.7-11.04-2.7C9.727 256.1 0 267.9 0 280.1c0 8.673 4.735 17.04 12.96 21.24l392 202.6c11.88 5.501 24.45 8.119 37.08 8.119C481.1 512 511.1 486.7 511.1 469.1z"/></svg>