<svg xmlns="http://www.w3.org/2000/svg" viewBox="0 0 512 512"><!--! Font Awesome Pro 6.1.1 by @fontawesome - https://fontawesome.com License - https://fontawesome.com/license (Commercial License) Copyright 2022 Fonticons, Inc.--><path d="M192 39c0-13.9 9.1-23.83 22.9-24.91L366.7 1.443C376 .666 384 8.027 384 17.39V47.1c0 9.74-7.2 16-16 16H216.1C203.2 63.1 192 52.81 192 39zM.008 247.1c0-12.4 10.742-24 24.002-24H312.6c42.8 0 82.5 23.8 103.9 60.9l92.3 160c6.6 11.5 2.7 26.2-8.8 32.8-11.5 6.6-26.2 2.7-32.8-9.7L384 323.8V480c0 17.7-14.3 32-32 32H224c-17.7 0-32-14.3-32-32V271.1H24.01c-13.26 0-24.002-9.8-24.002-24zM240 271.1v83l73.4-82.1c-1.3 0-.9-.9-1.4-.9h-72zM336 464v-32h-96v32h96zm-58.3-80H336v-65.2L277.7 384zM208 111.1c0-4.6.6-9.9 1.6-15.1h50.7c-2.7 4.7-4.3 10.2-4.3 15.1 0 18.6 14.3 32 32 32s32-13.4 32-32c0-4.9-1.6-10.4-4.3-15.1h50.7c1.1 5.2 1.6 10.5 1.6 15.1 0 45.1-35.8 80-80 80s-80-34.9-80-80z"/></svg>