<svg xmlns="http://www.w3.org/2000/svg" viewBox="0 0 512 512"><!--! Font Awesome Pro 6.1.1 by @fontawesome - https://fontawesome.com License - https://fontawesome.com/license (Commercial License) Copyright 2022 Fonticons, Inc.--><path d="M111.1 127.1c26.51 0 48.01-21.49 48.01-47.99S138.5 31.99 111.1 31.99 63.96 53.48 63.96 79.98s21.5 47.12 47.14 47.12zM255.1 0h-32l.023 215.9 31.1-7.973L255.1 0zm-63.5 381.3c10.08-3.29 16.43-12.66 16.43-22.71 0-13.15-10.52-24.15-23.99-24.15a24.08 24.08 0 0 0-7.661 1.252l-18.39 6.231a39.546 39.546 0 0 1-12.59 2.053c-15 0-29.31-8.519-36.15-22.78L45.69 188.2c-4.14-8.6-12.71-13.6-21.67-13.6C11.44 174.6 0 184.72 0 198.65c0 3.456.755 6.966 2.321 10.3l63.64 132.1c15.01 31.24 46.38 49.99 79.51 49.99 12.629.86 17.029-.04 46.129-9.74zM512 311.9c0-13.26-10.79-23.89-23.97-23.89-13.26 0-23.1 10.68-23.1 23.92 0 13.87-8.766 26.51-21.77 31.26l-130.2 48.24V255.9c0-13.68-11.33-23.97-23.98-23.97a23.44 23.44 0 0 0-5.778.725L188.8 256.1l-40.7-85.5c-4.5-11.7-16-19.5-29-19.5-27.32 0-32.12 27.45-32.12 32.62 0 4.183.869 8.526 2.856 12.85l47.39 100.6C141.1 306.6 150.6 311.1 159.7 311.1c2.011 0 4.046-.26 6.061-.803l98.16-24.49v122.5l-152.3 56.25c-9.666 3.61-15.76 12.81-15.76 22.58C95.89 501 106.7 512 119.9 512c2.876 0 5.564-.5 8.315-1.5l330.6-122.2C506.6 370.6 512 324.8 512 311.9z"/></svg>