<svg xmlns="http://www.w3.org/2000/svg" viewBox="0 0 640 512"><!--! Font Awesome Pro 6.1.1 by @fontawesome - https://fontawesome.com License - https://fontawesome.com/license (Commercial License) Copyright 2022 Fonticons, Inc.--><path d="M448 48c0 26.51-21.5 48-48 48s-48-21.49-48-48 21.5-48 48-48 48 21.49 48 48zM256 384c0 70.7-57.3 128-128 128C57.31 512 0 454.7 0 384s57.31-128 128-128c70.7 0 128 57.3 128 128zm-128 80c44.2 0 80-35.8 80-80s-35.8-80-80-80c-44.18 0-80 35.8-80 80s35.82 80 80 80zm512-80c0 70.7-57.3 128-128 128s-128-57.3-128-128 57.3-128 128-128 128 57.3 128 128zm-128 80c44.2 0 80-35.8 80-80s-35.8-80-80-80-80 35.8-80 80 35.8 80 80 80zM266.8 204.6c-9.6 7.1-8.3 21.8 2.4 27.2l69.5 34.7c8.2 4.1 13.3 12.4 13.3 21.5v128c0 13.3-10.7 24-24 24s-24-10.7-24-24V302.8l-56.3-28.1c-42.8-21.4-47.8-80.4-9.3-108.8l74.6-55c24.2-17.81 58.2-13.35 76.1 10.1l38.4 46.1H480c13.3 0 24 11.6 24 24 0 14.2-10.7 24-24 24h-64c-7.3 0-14.2-2.4-18.7-9L352.5 151c-2.7-3.3-7.6-4-11-1.4l-74.7 55z"/></svg>