<svg xmlns="http://www.w3.org/2000/svg" viewBox="0 0 576 512"><!--! Font Awesome Pro 6.1.1 by @fontawesome - https://fontawesome.com License - https://fontawesome.com/license (Commercial License) Copyright 2022 Fonticons, Inc.--><path d="M311.1 416c-13.74 0-25.96 8.882-30.33 21.86l-24.75 74.07h319.9l-101.8-205.9c-5.248-10.48-15.74-17.22-27.49-17.72-11.62-.373-22.67 5.263-28.66 15.25l-34.7 59.4-82.36-46.55L279.3 191.7C267.9 136.2 218.4 96 161.8 96h-51.4c-15.99 0-31.24 6.8-41.88 18.8l-54.46 61.3c-4.808 5.4-6.917 12.7-5.729 19.8s5.547 13.39 11.86 16.95l338.8 191.5-6.978 11.62H311.1zM69.69 185.7l34.69-39.05c1.52-2.55 3.72-2.65 6.02-2.65h51.45c33.97 0 63.62 24.14 70.37 56.64l14.77 85.3L69.69 185.7zM444.3 353.9l54.47 110.2h-119.2l64.73-110.2zM272 95.93c26.49 0 47.99-21.51 47.99-47.97C319.1 21.51 298.5 0 272 0c-26.5 0-48 21.51-48 47.97 0 26.45 21.5 47.96 48 47.96zM84.72 283.6c-6.5-4-14.51-4.8-21.59-1.9-7.1 2.8-12.42 8.8-14.35 16.2l-47.1 184c-3.344 12.83 4.328 25.94 17.16 29.28 1.13.62 3.18.82 5.18.82 10.66 0 20.39-7.141 23.2-17.94l39.77-152.4 89.02 55.64V488c0 13.25 10.75 24 23.1 24s23.1-10.75 23.1-24V384c0-8.281-4.266-15.92-11.28-20.31L84.72 283.6z"/></svg>