<svg xmlns="http://www.w3.org/2000/svg" viewBox="0 0 448 512"><!--! Font Awesome Pro 6.1.1 by @fontawesome - https://fontawesome.com License - https://fontawesome.com/license (Commercial License) Copyright 2022 Fonticons, Inc.--><path d="M399.1 0c-26.5 0-48.01 21.5-48.01 48s22.41 48 48.01 48c27.4 0 48.9-21.5 48.9-48S426.5 0 399.1 0zm-248 144h103.1l-35.6 31.2c-18.4 14.9-19.6 36.6-19.6 42.7 0 14.74 5.976 29.11 17.17 40.3l87.76 80V424c0 13.25 10.75 24 24 24s24-10.75 24-24v-89.38c0-10.5-4.251-20.87-12.5-29L266.7 239.2l88.51-88.5c6.185-6.184 9.464-14.38 9.464-22.72 0-17.38-14.05-31.1-32.09-31.1L151.1 96.12c-13.25 0-24 10.75-24 24 0 13.08 11.6 23.88 24 23.88zm36.4 129.4L85.82 375a23.948 23.948 0 0 0-7.032 16.98c0 12.49 10.06 23.89 24.03 23.89 6.251 0 12.38-2.25 17-7l102.1-102.1-28.38-26c-2.338-2.27-3.938-4.87-6.038-7.37zM399.1 448c-8.751 0-16 7.25-16 16s-6.4 16-16 16h-96.01c-8.751 0-16 7.25-16 16s7.251 16 16 16h96.01c26.5 0 48.01-21.5 48.01-48-.01-8.8-6.41-16-16.01-16zm-270 3.9c-11.54 0-11.08 9.36-22.65 9.36-4.094 0-8.147-1.563-11.21-4.625l-67.98-67.89c-3.063-3.125-7.165-4.688-11.27-4.688-4.102 0-8.204 1.562-11.27 4.688C1.562 391.8 0 395.9 0 400s1.562 8.203 4.688 11.27l67.88 67.98c9.25 9.375 21.71 14 33.96 14 13.23 0 38.57-8.992 38.57-25.36 0-4.109-1.562-8.203-4.688-11.27a15.961 15.961 0 0 0-11.31-4.72z"/></svg>