<svg xmlns="http://www.w3.org/2000/svg" viewBox="0 0 640 512"><!--! Font Awesome Pro 6.1.1 by @fontawesome - https://fontawesome.com License - https://fontawesome.com/license (Commercial License) Copyright 2022 Fonticons, Inc.--><path d="M80 95.1c26.5 0 48-21.5 48-47.1S106.5 0 80 0 32 21.5 32 47.1s21.5 48 48 48zm-80 392c0 13.25 10.75 23.1 24 23.1s24-9 24-23.1v-95.87c-12-9.5-47.5-37.87-48-38.25V487.1zM608 .005h-96c-17.67 0-32 14.33-32 31.1v21.62c0 6.879 1.109 13.71 3.285 20.24l41 122.8L281.7 239.1H158.4l-32.2-76.6c-8.6-20.9-28.98-35.4-51.57-35.4H48c-26.51 0-48 21.49-48 47.1v112.4c0 17.31 7.812 33.34 21.38 44.03l87.59 68.81c1.93 3.36 3.03 5.66 3.03 8.16v80.44c0 13.25 10.75 23.1 24 23.1s24-9.84 24-23.14v-80.4c0-17.31-7.812-33.34-21.38-44.03L96 330V214.7l22.3 53.6a31.9 31.9 0 0 0 29.46 19.65l44.24-.85v208c0 9.7 7.2 16.9 16 16.9h16c8.836 0 16-7.164 16-15.1v-95.1h352v95.1c0 8.836 7.164 15.1 16 15.1h16c8.836 0 16-7.164 16-15.1V32C640 14.33 625.7.005 608 .005zM592 352H240v-55.8l33.16-5.922C272.7 292.2 272 293.1 272 296c0 13.25 10.75 23.1 24 23.1s24-9.8 24-23.1c0-5.027-1.904-9.431-4.545-13.29L592 233.3V352zm0-167.4-19.96 3.564-43.22-129.5c-.52-1.614-.82-3.314-.82-5.044v-5.61h64V184.6z"/></svg>