<svg xmlns="http://www.w3.org/2000/svg" viewBox="0 0 640 512"><!--! Font Awesome Pro 6.1.1 by @fontawesome - https://fontawesome.com License - https://fontawesome.com/license (Commercial License) Copyright 2022 Fonticons, Inc.--><path d="M304 95.84c26.5 0 48-21.5 48-48s-21.5-48-48-48-48 21.5-48 48 21.5 48 48 48zM157.9 318.5l-19.49 44.54a8.021 8.021 0 0 1-7.328 4.801H56c-13.25 0-24 10.75-24 24s10.75 24 24 24h75.07c22.24 0 42.4-13.18 51.29-33.57l13.06-29.82-7.967-4.992A95.137 95.137 0 0 1 157.9 318.5zM552-.16h-80c-30.91 0-56 25.09-56 56v184h-46.27L353.9 188.4a87.971 87.971 0 0 0-65.03-60l-35.57-8h-.1l-42.6-9.5c-26.5-5.7-52.4.4-73.1 16.5l-48.22 37.5c-10.46 8.1-12.35 23.2-4.22 33.7 8.127 10.46 23.23 12.35 33.66 4.223L166.1 165.3a39.9 39.9 0 0 1 33.21-7.488l15.3 3.424L179.7 253.3c-10.08 25.95.45 55.42 24.77 69.09l81.22 45.7c3.264 1.855 4.832 5.76 3.713 9.344l-32.29 103.3c-3.936 12.67 3.104 26.11 15.74 30.08 12.67 3.936 26.11-3.104 30.08-15.74l32.26-103.3c7.904-25.25-2.943-52.58-25.98-65.54L262 299.7l40.13-108.9c2.57 3.5 4.57 7.4 5.87 11.7l17.6 57.15c5.152 16.77 20.67 28.22 38.21 28.22H416v168c0 30.91 25.09 56 56 56h80c30.91 0 56-25.09 56-56v-400c0-30.94-25.1-56.03-56-56.03zm8 455.96c0 4.416-3.584 8-8 8h-80c-4.416 0-8-3.584-8-8v-400c0-4.416 3.584-8 8-8h80c4.416 0 8 3.584 8 8v400z"/></svg>