<svg xmlns="http://www.w3.org/2000/svg" viewBox="0 0 448 512"><!--! Font Awesome Pro 6.1.1 by @fontawesome - https://fontawesome.com License - https://fontawesome.com/license (Commercial License) Copyright 2022 Fonticons, Inc.--><path d="M303.1 80c0 44.2-34.9 80-80 80-43.3 0-80-35.8-80-80 0-44.18 36.7-80 80-80 45.1 0 80 35.82 80 80zm-80-32c-16.8 0-32 14.33-32 32s15.2 32 32 32c18.6 0 32-14.33 32-32s-13.4-32-32-32zM60.94 357.9c-12.2 16.5-5.94 39.2 12.84 48.3L209.7 466c12.1 5.4 17.6 19.5 11.4 31.7-4.5 12.1-18.6 17.6-30.8 11.4L54.45 450.2C7.504 429.5-8.151 370.6 22.33 329.4l55.99-75.7C106.1 214.9 152.3 192 200.6 192h58.3c40.4 0 78.2 16.1 107.6 44.7l55.2 55.3c29.9 30.1 31.2 78.2 2.9 109.8L361.9 472c-8.9 9.9-24 10.7-33.9 1.9-9.9-8.8-10.7-24-1.9-33.9l62.8-70.2c11.3-12.6 10.8-31.9-1.2-43.9l-55.2-55.3C313 251 286.5 240 258.9 240h-58.3c-33 0-64.1 15.7-83.7 42.2l-55.96 75.7zm130.16 11.2c20.1 29.2 52.7 46.9 87.8 46.9h.2c14.2 0 24 10.7 24 24s-9.8 24-24 24h-.2c-52.4 0-101.1-27-128.8-71.4-4-6.3-7-13.7-7-21.2V328c0-13.3 11.6-24.9 24-24.9 14.2 0 24 11.6 24 24.9v41.1zm32-33.1c0-26.5 22.4-48 48-48 27.4 0 48 21.5 48 48s-20.6 48-48 48c-25.6 0-48-21.5-48-48z"/></svg>