<svg xmlns="http://www.w3.org/2000/svg" viewBox="0 0 512 512"><!--! Font Awesome Pro 6.1.1 by @fontawesome - https://fontawesome.com License - https://fontawesome.com/license (Commercial License) Copyright 2022 Fonticons, Inc.--><path d="M143.1 96.03c26.5 0 47.1-21.5 47.1-48S170.5.021 143.1.021 96 21.53 96 48.03s21.5 48 47.1 48zm358.4-29.38-67.7-24.63 2.777-7.285c4.578-12.49-1.834-26.32-14.32-30.9-12.35-4.529-26.16 1.871-30.69 14.22L388.7 25.65 321.07 1.03c-11.12-4.125-18.62 4.594-20.5 9.594l-43.87 120.3c-3 8.375 1.375 17.5 9.625 20.5l67.62 24.62-15.74 43.49s-49.1-17.13-49.5-16.5l-50.5-58.63c-10.5-10.38-24.79-16.45-39.54-16.45H115.8c-21.5 0-40.52 11.95-50.14 30.95L2.516 285.2c-5.875 12-1.125 26.4 10.754 32.3 13.1 7 27.37-1.25 32.12-10.75L96.01 205.7v96.63l-23.75 182.5c-1.75 13.25 7.395 25.25 20.52 26.88 1 .19 2.13.29 3.13.29 11.88 0 22.35-8.752 23.85-20.88l21.25-163.1h14l51.25 78.26a8.543 8.543 0 0 1 1.625 5.002v76.76c0 13.25 10.75 24 24 24s23.1-10.75 23.1-24v-76.76c0-12.75-4.25-25.13-10.88-33.13L191.9 296.9V187.2l41.62 48.38c6.123 6.127 13.62 10.75 21.87 13.63l46.37 15.38-13.84 38.26c-3.025 8.266 1.059 17.41 9.321 20.44l15.3 5.563c8.375 3 17.5-1.25 20.5-9.625l46.15-126.9 67.65 24.63c11.25 4.125 18.62-4.75 20.5-9.625l43.66-120.2C514.1 78.77 509.7 69.65 501.5 66.65zm-68.4 93.45-120.2-43.75 21.88-60.13 120.2 43.75-21.88 60.13z"/></svg>