<svg xmlns="http://www.w3.org/2000/svg" viewBox="0 0 384 512"><!--! Font Awesome Pro 6.1.1 by @fontawesome - https://fontawesome.com License - https://fontawesome.com/license (Commercial License) Copyright 2022 Fonticons, Inc.--><path d="M255.1 128c35.37 0 63.1-28.62 63.1-64S289.57 0 255.1 0s-64 28.62-64 64 29.5 64 64 64zm-21.4 159.5c4.625 6.125 11.62 10 19.25 10.88 7.625.875 15.38-1.5 21.25-6.625l99.99-82.5c11.75-10 13.12-27.75 2.998-39.5-9.998-11.75-27.75-13.12-39.5-3L260.4 230l-46.75-61.38C201.1 151.5 181.2 142.5 160.1 144.3c-21 1.8-40 14.5-49 34.8L64.12 288.5c-20.5 42-7.125 93.25 30.1 119.4L165.5 456H27.1C12.5 456 0 468.5 0 484s12.5 28 27.1 28h227.1c5.625 0 31.1-4.875 31.1-32 0-8.5-3.375-17-10-23.25l-119.5-112.4 43.1-97.88 34.8 41.03z"/></svg>