<svg xmlns="http://www.w3.org/2000/svg" viewBox="0 0 512 512"><!--! Font Awesome Pro 6.1.1 by @fontawesome - https://fontawesome.com License - https://fontawesome.com/license (Commercial License) Copyright 2022 Fonticons, Inc.--><path d="M80.01 96.01c26.5 0 48.01-21.51 48.01-48.01S106.5 0 80.01 0 32 21.51 32 48.01s21.51 48 48.01 48zM0 488c0 13.3 10.75 24 24 24s23.1-10.75 23.1-24v-95.88C35.1 382.6.5 354.3 0 353.9V488zm511.1-102.5c-3.562-12.77-16.75-20.28-29.59-16.64l-143.1 40.08c-10.22-13.17-25.36-22.11-42.76-24.2L239.1 177.7c-3.4-12.8-16.4-20.5-29.4-16.9-12.8 3.5-20.4 16.7-16.9 29.5l13.52 49.56H158.2l-31.1-77.5c-8.75-20.88-29-34.5-51.75-34.5h-18.5C25.13 127.9 0 153 0 183.9v102.4c0 7.625 3 29.5 21.25 44l76.49 60.38c5.625 4.5 9.625 10.75 11.25 17.88l19.62 84.75c2.623 11.5 14.37 21.25 28.75 18 12.88-3 21-15.88 18-28.75l-21.37-93c-2.875-12.38-9.875-23.5-19.88-31.38l-38.12-30V214.8l22.25 53.5c4.96 12 16.46 19.7 29.46 19.7h71.74l29.82 109.3C234 409 223.1 427.3 223.1 448c0 35.35 28.66 64 63.1 64 32.88 0 59.64-24.88 63.26-56.79l143.2-40.1c14.54-3.61 22.04-16.81 18.44-29.61zm-224 78.5c-8.82 0-15.1-7.178-15.1-16s7.178-16 15.1-16c8.822 0 16 7.178 16 16s-6.3 16-16 16zm44.1-103.4c2.25 8.502 11.13 13.63 19.63 11.25l117-31.26c8.502-2.252 13.5-11.13 11.25-19.63l-31.38-116.9c-2.377-8.502-11.13-13.63-19.63-11.25L311.1 224.1c-8.502 2.252-13.63 11.13-11.25 19.63L331.2 360.6z"/></svg>