<svg xmlns="http://www.w3.org/2000/svg" viewBox="0 0 576 512"><!--! Font Awesome Pro 6.1.1 by @fontawesome - https://fontawesome.com License - https://fontawesome.com/license (Commercial License) Copyright 2022 Fonticons, Inc.--><path d="M336 96c26.5 0 48-21.5 48-48S362.5 0 336 0s-48 21.5-48 48 21.5 48 48 48zm216 320c-13.25 0-24 10.75-24 24s-10.75 24-24 24h-69.5l28.25-197.4c5.45-4.4 9.25-10.8 9.25-18.5 0-13.25-10.71-24.12-23.96-24.12l-49.04.12-28.25-57.75C359.5 143.2 338.4 125.8 314.2 119.8l-71.5-21.25c-6.7-1.69-13.5-2.52-20.2-2.52-18.1 0-37.77 6.333-53.34 18.22L129.4 144.8c-7.8 5.8-9.4 14.1-9.4 18.9 0 4.688 1.572 9.269 4.235 13.26L66.88 464H24c-13.25 0-24 10.8-24 24s10.75 24 24 24h480c39.75 0 72-32.25 72-72 0-13.2-10.7-24-24-24zm-254.6 48H185.8l51.37-108.5-17.37-10.3c-8.625-5.125-15.88-11.5-22-18.87L132.6 464H99.5l56-279.8c1-.625 2.25-.875 3.125-1.5l39.575-30.5c7.125-5.5 15.96-8.456 24.46-8.456 2.5 0 5.17.331 7.545.956l23.88 7-40.985 95.7c-3 7.1-4.5 14.6-4.5 22 0 19.31 9.955 37.95 27.5 48.35l90.5 53.37L297.4 464zm104.7 0h-54.37l26.87-85.75c.962-3.466 1.426-6.1 1.426-10.51 0-13.82-7.214-27.26-19.68-34.74l-67.13-39.63L329.8 192l28.25 57.62C364.8 263.2 378.8 272 393.9 272h35.44L402.1 464z"/></svg>