<svg xmlns="http://www.w3.org/2000/svg" viewBox="0 0 320 512"><!--! Font Awesome Pro 6.1.1 by @fontawesome - https://fontawesome.com License - https://fontawesome.com/license (Commercial License) Copyright 2022 Fonticons, Inc.--><path d="M208 48c0 26.51-21.5 48-48 48s-48-21.49-48-48 21.5-48 48-48 48 21.49 48 48zM64 272.1l-18.83 35.2c-6.25 10.8-20.79 16.1-32.48 9.9-11.688-6.3-16.103-20.8-9.858-32.5L61.68 174.5c15.3-28.6 45.12-46.5 77.62-46.5H160c.1 0 1.1.1 2.9.2 36.2 2.4 66.6 29 73.3 65.1l6.1 32.4c44.3 8.6 77.7 47.5 77.7 94.3v32c0 17.7-14.3 32-32 32h-64v104c0 13.3-10.7 24-24 24s-24-10.7-24-24V384h-32v104c0 13.3-10.7 24-24 24s-24-10.7-24-24V384c-17.67 0-32-14.3-32-32v-79.9zm80-96.1c-17.7 0-32 14.3-32 32v128h160v-16c0-23.3-16.7-42.9-38.8-47.1l-32-6.2-12.1-64.6c-2.9-16-16.1-26.1-31.5-26.1H144z"/></svg>