<svg xmlns="http://www.w3.org/2000/svg" viewBox="0 0 512 512"><!--! Font Awesome Pro 6.1.1 by @fontawesome - https://fontawesome.com License - https://fontawesome.com/license (Commercial License) Copyright 2022 Fonticons, Inc.--><path d="M500.1 139.3c7.4 4.3 11.9 12.2 11.9 20.7v328c0 13.3-10.7 24-24 24s-24-10.7-24-24V173.8L256 51.82 48 173.8V488c0 13.3-10.75 24-24 24S0 501.3 0 488V160c0-8.5 4.515-16.4 11.86-20.7L243.9 3.295a23.866 23.866 0 0 1 24.2 0l232 136.005zM216 168c0-22.1 17.9-40.9 40-40.9s40 18.8 40 40.9c0 22.1-17.9 40-40 40s-40-17.9-40-40zm24 248v72c0 13.3-10.7 24-24 24s-24-10.7-24-24V328.3l-18.9 35.1c-6.3 11.6-20.8 16-32.5 9.7-12.5-6.3-16-20.8-9.7-32.5l37.8-70.3c15.4-28.5 45.2-46.3 77.5-46.3h19.6c32.3 0 62.1 17.8 77.5 46.3l37.8 70.3c6.3 11.7 1.9 26.2-9.7 32.5-11.7 6.3-26.2 1.9-32.5-9.7L320 328.3V488c0 13.3-10.7 24-24 24s-24-10.7-24-24v-72h-32zm0-48h32v-95.5c-2.9-.3-4.1-.5-6.2-.5h-19.6c-2.1 0-4.2.2-6.2.5V368z"/></svg>