<svg xmlns="http://www.w3.org/2000/svg" viewBox="0 0 576 512"><!--! Font Awesome Pro 6.1.1 by @fontawesome - https://fontawesome.com License - https://fontawesome.com/license (Commercial License) Copyright 2022 Fonticons, Inc.--><path d="M208 48c0 26.51-21.5 48-48 48s-48-21.49-48-48 21.5-48 48-48 48 21.49 48 48zm-64 304v136c0 13.3-10.7 24-24 24s-24-10.7-24-24V223.6l-43.11 76.2c-6.53 11.6-21.17 15.6-32.71 9.1-11.533-6.5-15.595-21.2-9.07-32.7l58.55-103.5A88.003 88.003 0 0 1 146.3 128h27.4c31.8 0 61 17.1 76.6 44.7l45.8 82.4c-10.9 14-20.5 29.9-27.4 47.2-.6-.8-1.1-1.6-1.6-2.5L224 223.6V488c0 13.3-10.7 24-24 24s-24-10.7-24-24V352h-32zm0-48h32V176.1c-.7-.1-1.5-.1-2.3-.1h-27.4c-.8 0-1.6 0-2.3.1V304zm432 64c0 79.5-64.5 144-144 144s-144-64.5-144-144 64.5-144 144-144 144 64.5 144 144zm-80-16.9H368c-8.8 0-16 8.1-16 16 0 9.7 7.2 16 16 16h128c8.8 0 16-6.3 16-16 0-7.9-7.2-16-16-16z"/></svg>