<svg xmlns="http://www.w3.org/2000/svg" viewBox="0 0 512 512"><!--! Font Awesome Pro 6.1.1 by @fontawesome - https://fontawesome.com License - https://fontawesome.com/license (Commercial License) Copyright 2022 Fonticons, Inc.--><path d="M399.1 96c26.5 0 48-21.5 48-48s-20.6-48-48-48c-26.5 0-48 21.5-48 48s22.4 48 48 48zm112 109.7c0-.123.064-1.1.064-2.631 0-8.239-1.822-32.1-25.06-32.1-14.39 0-24.08 11.89-24.08 24.11 0 4.138 1.002 5.667 1.002 11.84 0 16.53-8.896 32.22-22.71 40.21L168.1 386.4l50.5-122.6c.375-1 1.25-2 2-2.875l121.3-110.3c6.092-6.175 9.343-14.3 9.343-22.59C352.1 110.5 337.9 96 319.1 96h-184c-12.4 0-24 10.8-24 24s11.6 24 24 24h113.8l-68.8 89.4c-1.25 1.625-1.75 2-5.875 12.12l-53.38 129.4a23.014 23.014 0 0 0-1.758 8.812c0 8.72 4.964 17.01 13.01 21.31l-120 61.73c-8.224 4.199-12.95 12.58-12.95 21.26C0 500.4 9.903 512 24.06 512c3.625 0 7.473-.858 10.97-2.733l429.2-220.9C494.1 271.4 511.1 239.4 511.1 205.7z"/></svg>