<svg xmlns="http://www.w3.org/2000/svg" viewBox="0 0 640 512"><!--! Font Awesome Pro 6.1.1 by @fontawesome - https://fontawesome.com License - https://fontawesome.com/license (Commercial License) Copyright 2022 Fonticons, Inc.--><path d="M192 128c0 26.5-21.5 48-48 48s-48-21.5-48-48 21.5-48 48-48 48 21.5 48 48zm196.2 191.1h-44.6l-46.4 33.4 82.7 122c7.4 11 4.5 25.9-6.4 33.4-11 7.4-25.9 4.5-33.4-6.4L303.9 448H48c-26.51 0-48-21.5-48-48V48C0 21.49 21.49 0 48 0h544c26.5 0 48 21.49 48 48v352c0 26.5-21.5 48-48 48H397.9l-32-48h83.8l-61.5-80.9zM304 48H48v352h80v-82.4c0-66.3 41.5-125.5 103.8-148.2 43.3-15.7 72.2-56.9 72.2-103.04V48zm48 0v18.36c0 52.74-26.3 101.04-68.4 129.94l48.5 74.8h60c12.4 0 24.2 6.7 31.7 16.5L510.3 400H592V48H352zm-80.6 352-86-126.9c-6.1 13.7-9.4 28-9.4 44.5V400h95.4zm-1.1-87.3 21.9-15.3-51.9-79.6c-8.8 4-16.9 9.1-24.2 15l54.2 79.9z"/></svg>