<svg xmlns="http://www.w3.org/2000/svg" viewBox="0 0 576 512"><!--! Font Awesome Pro 6.1.1 by @fontawesome - https://fontawesome.com License - https://fontawesome.com/license (Commercial License) Copyright 2022 Fonticons, Inc.--><path d="M240 48c0 26.51-21.5 48-48 48s-48-21.49-48-48 21.5-48 48-48 48 21.49 48 48zM96 209.5l-51.11 90.3c-6.52 11.6-21.16 15.6-32.7 9.1-11.539-6.5-15.601-21.2-9.076-32.7L61.66 172.7A88.003 88.003 0 0 1 138.3 128h35c26 0 50.6 11.5 67.3 31.4l81.8 97.2c8.5 10.1 7.2 25.2-2.9 33.8-10.2 8.5-25.3 7.2-33.9-3L224 214.2V488c0 13.3-10.7 24-24 24s-24-10.7-24-24V352h-32v136c0 13.3-10.7 24-24 24s-24-10.7-24-24V209.5zm80-33.4c-.9-.1-1.8-.1-2.7-.1H144v128h32V176.1zM360 32c8.8 0 16 7.16 16 16s-7.2 16-16 16h-56c-8.8 0-16.9-7.16-16.9-16s8.1-16 16.9-16h56zm120 208c0 26.5-21.5 48-48 48s-48-21.5-48-48 21.5-48 48-48 48 21.5 48 48zm96 116v96c0 31.8-24.7 57.8-56 59.9v.1c-.7 0-1.5-.9-2.2-.9-.6 0-1.2.9-1.8.9-5.7 0-11.1-.8-16.3-2.2-19.6-4.4-37.5-15.1-50.7-30.7l-44.6-52.7-39.3 73c-6.3 11.6-20.8 16-32.5 9.7-12.5-6.3-16-20.8-9.7-32.5l56-104c3.7-7 10.7-12.5 18.6-12.5 7.9-.8 15.7 2.3 20.8 8.4L456 413v-57c0-33.1 26.9-60 60-60s60 26.9 60 60zm-58.6 107.9c6-.7 10.6-5.7 10.6-11.9v-96c0-6.6-5.4-12-12-12s-12 5.4-12 12v96c0 5.2 3.2 9.5 7.8 11.2 1.8.4 3.7.6 5.6.7zM265.7 104.8c3.9-7.86 13.6-11.06 21.5-7.11l48 24.01c7.9 3.9 11.1 13.6 7.1 21.5-3.9 7.9-13.6 11.1-21.5 7.1l-48-24c-7.9-3.9-11.1-13.6-7.1-21.5z"/></svg>