<svg xmlns="http://www.w3.org/2000/svg" viewBox="0 0 512 512"><!--! Font Awesome Pro 6.1.1 by @fontawesome - https://fontawesome.com License - https://fontawesome.com/license (Commercial License) Copyright 2022 Fonticons, Inc.--><path d="M182.2.1C191.7-.953 200 6.466 200 16v14.13c0 8.83-7.2 16-16 16H72.89C63.56 46.13 56 38.57 56 29.24c0-8.6 6.47-15.83 15.02-16.78L182.2.1zM320 96c0-35.35 28.7-64.9 64-64.9s64 29.55 64 64.9c0 35.3-28.7 64-64 64s-64-28.7-64-64zm-32 160c0-35.3 28.7-64 64-64h64c35.3 0 64 28.7 64 64v32c0 17.7-14.3 32-32 32H320c-17.7 0-32-14.3-32-32v-32zm48 16h96v-16c0-8.8-7.2-16-16-16h-64c-8.8 0-16 7.2-16 16v16zM189.1 80c2.2 5.11 2.9 10.48 2.9 16 0 35.3-28.7 64-64 64-35.35 0-64-28.7-64-64 0-5.52.7-10.89 2.02-16H189.1zM160 192c35.3 0 64 28.7 64 64v32c0 17.7-14.3 32-32 32H64c-17.67 0-32-14.3-32-32v-32c0-35.3 28.65-64 64-64h64zm-75.05 52.4c-3.05 2.9-4.95 7-4.95 11.6v16h44.8l-39.85-27.6zm49.85-4.4 41.2 28.5V256c0-8.8-7.2-16-16-16h-25.2zM224 431.1c0 7.8-3 14.4-8.2 19l-64 55.9c-10 8.8-25.1 7.8-33.9-2.2-8.7-10-7.7-25.1 2.3-33.9l15.9-14.8h-113c-12.36 0-23.1-9.9-23.1-24 0-12.4 10.75-24 24-24h112.1l-15.9-13c-10-8.8-11-23.9-2.3-33.9 8.8-10 23.9-11 33.9-2.3l64 56c5.2 4.6 8.2 11.2 8.2 17.2zm72.2 19c-6.1-4.6-8.2-11.2-8.2-19 0-6 2.1-12.6 8.2-17.2l64-56c10-8.7 25.1-7.7 33.9 2.3 8.7 10 7.7 25.1-2.3 33.9l-15.9 13H488c13.3 0 24 11.6 24 24 0 14.1-10.7 24-24 24H375.9l15.9 14.8c10 8.8 11 23.9 2.3 33.9-8.8 10-23.9 11-33.9 2.3l-64-56z"/></svg>