<svg xmlns="http://www.w3.org/2000/svg" viewBox="0 0 512 512"><!--! Font Awesome Pro 6.1.1 by @fontawesome - https://fontawesome.com License - https://fontawesome.com/license (Commercial License) Copyright 2022 Fonticons, Inc.--><path d="M368 96c26.5 0 48-21.5 48-47.1S394.5 0 368 0s-48.01 21.5-48.01 48S341.5 96 368 96zm120 144-48.38-.125c-3.5 0-6.625-2.375-7.625-5.75L418.1 188.8c-9.25-30.25-34-53.13-64.88-60.13L275 110.9c-25.6-5.9-52.5.1-73.2 16.2L185 140C174.4 63.12 149.4 0 96 0 52.25 0 0 44.37 0 255.1 0 372.7 16.62 512 96 512c24.62 0 51.88-14.12 71.12-64H114.5c-5.7 10.2-12 16-18.5 16-26.5 0-48-93.13-48-208S69.5 48 96 48s48 93.1 48 208c0 41.5-3 79.63-7.75 112H120c-13.2 0-24 10.8-24 24s10.8 24 24 24h75c22.38 0 42.63-13.38 51.5-33.1l13.5-32.4-9.625-5.875c-11.38-7-21-16.5-28.25-27.75l-19.88 46.25C201 366.1 198.1 368 195 368h-9.5c4.1-30.9 6.5-67.5 6.5-112 0-19.5-.5-39.5-1.625-59.38L231.1 165c9.5-7.25 21.75-9.875 33.38-7.375L279.4 161 244 248.4c-10.38 25.5-.625 54.75 23 68.87l83.75 50.63c2.375 1.625 3.75 4.125 3.875 6.875 0 .75-.125 1.5-.25 2.25L321 481.4c-1.8 6.1-1 12.7 2.1 18.2 3.125 5.625 8.25 9.75 14.38 11.5 2.32.5 4.42.9 6.62.9 10.75 0 20.12-7.125 23.12-17.38l33.25-104.5c7-24.37-3.25-50.25-24.88-63.37L323.8 295.5l42-104.7c2.75 3.5 5 7.625 6.375 12l14 45.37c7 23.63 28.75 39.75 53.38 39.75l48.345.08c13.2 0 24.1-10.8 24.1-24s-10.7-24-24-24z"/></svg>