<svg xmlns="http://www.w3.org/2000/svg" viewBox="0 0 384 512"><!--! Font Awesome Pro 6.1.1 by @fontawesome - https://fontawesome.com License - https://fontawesome.com/license (Commercial License) Copyright 2022 Fonticons, Inc.--><path d="M240 96c26.5 0 48-21.5 48-48S266.5 0 240 0s-47.1 21.5-47.1 48 20.6 48 47.1 48zM121.9 317.6 80.78 482.1a23.923 23.923 0 0 0-.733 5.865C80.02 502.5 92.26 512 104 512c10.75 0 20.62-7.25 23.25-18.12L160.8 360l-27.5-27.62c-4.5-4.38-8-9.58-11.4-14.78zM360 160c-13.25 0-23.1 10.75-23.1 23.1V200h-37.12l-50.12-57.13C239.3 133.3 226.5 128 212.9 128c-23.4 0-43.6 15.9-49.3 38.5l-22.5 90a56.036 56.036 0 0 0-1.675 13.6 56.1 56.1 0 0 0 16.39 39.62l73.87 73.99a7.848 7.848 0 0 1 2.293 5.543V488c0 13.25 10.75 24 24 24s23.1-10.75 23.1-24v-98.84c0-14.83-5.89-29.05-16.37-39.53L213.3 299.3l24.5-96.13L270 239.9c4.5 5.1 11.1 8.1 17.9 8.1h48.06v240c0 13.25 10.75 23.1 23.1 23.1S384 501.3 384 488V183.1c0-12.4-10.7-23.1-24-23.1zM80.01 287.1c7.31 0 13.97-4.762 15.87-11.86L137 117c.347-1.291.512-2.588.512-3.866 0-7.011-4.986-13.44-12.39-15.13A85.129 85.129 0 0 0 105.1 95.6c-36.65 0-70 23.84-79.32 59.53L.512 253.3c-.348 1.3-.514 2.6-.514 3.9 0 7.003 4.96 13.42 12.36 15.11L76.01 287.5c1.34.3 2.68-.4 4-.4z"/></svg>