<svg xmlns="http://www.w3.org/2000/svg" viewBox="0 0 640 512"><!--! Font Awesome Pro 6.1.1 by @fontawesome - https://fontawesome.com License - https://fontawesome.com/license (Commercial License) Copyright 2022 Fonticons, Inc.--><path d="M144 48c0-26.51 21.5-48 48-48s48 21.49 48 48-21.5 48-48 48-48-21.49-48-48zm-16 175.6-43.11 76.2c-6.52 11.6-21.17 15.6-32.71 9.1-11.53-6.5-15.6-21.2-9.07-32.7l58.59-103.5c15.6-27.6 44.8-44.7 76.6-44.7h27.4c31.8 0 61 17.1 76.6 44.7l58.6 103.5c6.5 11.5 2.5 26.2-9.1 32.7-11.5 6.5-26.2 2.5-32.7-9.1L256 223.6V464h360c13.3 0 24 10.7 24 24s-10.7 24-24 24H24c-13.25 0-24-10.7-24-24s10.75-24 24-24h104V223.6zm50.3-47.6c-.8 0-1.6 0-2.3.1V304h32V176.1c-.7-.1-1.5-.1-2.3-.1h-27.4zM208 464V352h-32v112h32zm183.9-134.2c-9.9-9-10.6-24.1-1.7-33.9 9-9.9 24.1-10.6 33.9-1.7l47.9 43.5V56c0-13.25 10.7-24 24-24s24 10.75 24 24v281.7l47.9-43.5c9.8-8.9 24.9-8.2 33.9 1.7 8.9 9.8 7.3 24.9-1.7 33.9l-88 80c-10 8.3-23.1 8.3-32.2 0l-88-80z"/></svg>