<svg xmlns="http://www.w3.org/2000/svg" viewBox="0 0 448 512"><!--! Font Awesome Pro 6.1.1 by @fontawesome - https://fontawesome.com License - https://fontawesome.com/license (Commercial License) Copyright 2022 Fonticons, Inc.--><path d="M128 39c0-13.9 9.1-23.83 22.9-24.91L302.7 1.443C312 .666 320 8.027 320 17.39V47.1c0 9.74-7.2 16-16 16H152.1C139.2 63.1 128 52.81 128 39zm305.6 17c7.6 4.42 10.2 14.21 5.8 21.86l-56.3 96.04 2.5 1c15.3 8.8 20.5 28.4 11.7 43.7l-38.7 66.9 85.2 125c7.5 10.9 4.7 25.9-6.3 33.3-10.9 7.5-25.9 4.7-33.3-6.3L320 314.1V480c0 17.7-14.3 32-32 32H160c-17.7 0-32-14.3-32-32V314.1L43.84 437.5c-7.47 11-22.4 13.8-33.35 6.3-10.955-7.4-13.78-22.4-6.314-33.3L95.59 276.4c19.51-29.9 53.11-48.9 88.91-52 2.4-.3 5-1.3 7.5-1.3h64c2.6 0 5.1 1 7.6 1.3 10.9 1 21.5 3.4 31.6 7.2l94.7-163.89c-7.7-4.41-10.3-14.2-5.9-21.85 4.4-7.65 14.2-10.28 21.9-5.86l27.7 16zM272 287.1c0-8-5.9-13.7-13.5-14.9-1.8-.1-3.5-1.1-5.2-1.1h-56.5L272 403.6V287.1zM176 464h75.2L176 332.4V464zm-32-352.9c0-4.6.6-9.9 1.6-15.1h50.7c-2.7 4.7-4.3 10.2-4.3 15.1 0 18.6 14.3 32 32 32s32-13.4 32-32c0-4.9-1.6-10.4-4.3-15.1h50.7c1.1 5.2 1.6 10.5 1.6 15.1 0 45.1-35.8 80-80 80s-80-34.9-80-80z"/></svg>