<svg xmlns="http://www.w3.org/2000/svg" viewBox="0 0 576 512"><!--! Font Awesome Pro 6.1.1 by @fontawesome - https://fontawesome.com License - https://fontawesome.com/license (Commercial License) Copyright 2022 Fonticons, Inc.--><path d="M151.1 32c14.1 0 24 10.75 24 24v36.64c0 57.96 38.8 109.16 94.2 125.96 43.9 12.5 89.8 14.3 135.1 2.7l109.5-28.5c12.8-3.4 25.9 4.3 29.3 17.1 3.3 12.9-4.4 26-17.2 29.3l-109.5 28.6c-14.3 3.7-28.9 6.4-44.4 7.9l-16.4 103.9c-10.7-3.5-21.2-8.8-30.9-15.5-4.4-3.1-9.1-5.6-14-7.4l13.3-79.8c-23.2-1.4-46.3-5.5-68.8-12.4-4.5-1.3-9-2.9-13.4-4.6l-21.3 119.7c-9.3 3.1-18.9 4.9-29.5 4.9-5.7 0-12.7-1-19.7-2.7l26.3-147c-43.1-33.4-70.6-85.4-70.6-142.16V56c0-13.25 11.6-24 24-24zm224 96c0 30.9-24.2 56-56 56-30.1 0-56-25.1-56-56 0-30.93 25.9-56 56-56 31.8 0 56 25.07 56 56zM191.9 432c28.9 0 58.5-15.3 79.2-33.9 10-9 23.7-9 32.8 0 21.6 18.6 51.2 33.9 80 33.9 28.9 0 58.5-15.3 79.2-33.9 10-9 23.7-9 32.8 0 16.9 15 39.2 26.8 61.3 31.7 12.9 2.9 21 15.7 18.1 28.7-2.9 12.9-15.7 21-28.7 18.1-29.5-6.4-52.3-20.4-66.7-30.4-28.1 19.5-61.4 33.8-96 33.8s-67.9-14.3-96-33.8c-28.1 19.5-61.4 33.8-96 33.8s-67.9-14.3-95.97-33.8c-14.36 10-37.99 24-66.67 30.4-12.93 2.9-25.771-5.2-28.673-18.1-2.901-13 5.232-25.8 18.163-28.7 22.21-5 43.96-17.7 61.2-31.7 9.1-9 22.85-9 31.95 0 21.5 18.6 51.2 33.9 80 33.9z"/></svg>