<svg xmlns="http://www.w3.org/2000/svg" viewBox="0 0 640 512"><!--! Font Awesome Pro 6.1.1 by @fontawesome - https://fontawesome.com License - https://fontawesome.com/license (Commercial License) Copyright 2022 Fonticons, Inc.--><path d="M448 48c0 26.51-21.5 48-48 48s-48-21.49-48-48 21.5-48 48-48 48 21.49 48 48zm-95.5 103c-2.7-3.3-7.6-4-11-1.4l-74.7 55c-9.6 7.1-8.3 21.8 2.4 27.2l69.5 34.7c8.2 4.1 13.3 12.4 13.3 21.5v128c0 13.3-10.7 24-24 24s-24-10.7-24-24V302.8l-56.3-28.1c-42.8-21.4-47.8-80.4-9.3-108.8l74.6-55c24.2-17.81 58.2-13.35 76.1 10.1l38.4 46.1H480c13.3 0 24 11.6 24 24 0 14.2-10.7 24-24 24h-64c-7.3 0-14.2-2.4-18.7-9L352.5 151zm-186.2 12.9-44-55c-5.6-7.1-5.2-17.39 2.9-22.8l65.2-48.88c27.6-20.74 66.8-15.77 88.4 11.22l14.9 18.67c5.6 7.05 4.3 17.38-2.9 22.79l-102.4 76.8c-6.9 5.2-16.7 3.9-22.1-2.8zM136 256c12.1 0 22.1 8.9 23.8 20.6 7.6 2.2 14.9 5.3 21.7 9 9.4-7.1 22.8-6.3 31.4 2.2l11.3 11.3c8.5 8.6 9.3 22 2.2 31.4 3.7 6.8 6.8 14.1 9 21.7 11.7 1.7 19.7 11.7 19.7 23.8v16c0 12.1-8 22.1-19.7 23.8-2.2 7.6-5.3 14.9-9 21.7 7.1 9.4 6.3 22.8-2.2 31.4l-11.3 11.3c-8.6 8.5-22 9.3-31.4 2.2-6.8 3.7-14.1 6.8-21.7 9-1.7 11.7-11.7 20.6-24.7 20.6h-16c-11.2 0-21.19-8.9-22.86-20.6-7.62-2.2-14.9-5.3-21.75-9-9.4 7.1-22.79 6.3-31.34-2.2l-11.32-11.3c-8.55-8.6-9.3-22-2.25-31.4-3.73-6.8-6.77-14.1-9.01-21.7C8.938 414.1 0 404.1 0 392v-16c0-12.1 8.938-22.1 20.57-23.8 2.24-7.6 5.28-14.9 9.01-21.7-7.05-9.4-6.3-22.8 2.25-31.4l11.32-11.3c8.55-8.5 21.94-9.3 31.34-2.2 6.85-3.7 14.13-6.8 21.75-9 1.67-11.7 11.66-21.5 22.86-21.5l16.9.9zm-8 192c35.3 0 64-28.7 64-64s-28.7-64-64-64c-35.35 0-64 28.7-64 64s28.65 64 64 64zm352.2-171.4c1.7-11.7 11.7-20.6 23.8-20.6h16c12.1 0 22.1 8.9 23.8 20.6 7.6 2.2 14.9 5.3 21.7 9 9.4-7.1 22.8-6.3 31.4 2.2l11.3 11.3c8.5 8.6 9.3 22 2.2 31.4 3.7 6.8 6.8 14.1 9 21.7 11.7 1.7 20.6 11.7 20.6 23.8v16c0 12.1-8.9 22.1-20.6 23.8-2.2 7.6-5.3 14.9-9 21.7 7.1 9.4 6.3 22.8-2.2 31.4l-11.3 11.3c-8.6 8.5-22 9.3-31.4 2.2-6.8 3.7-14.1 6.8-21.7 9-1.7 11.7-11.7 20.6-23.8 20.6h-16c-12.1 0-22.1-8.9-23.8-20.6-7.6-2.2-14.9-5.3-21.7-9-9.4 7.1-22.8 6.3-31.4-2.2l-11.3-11.3c-8.5-8.6-9.3-22-2.2-31.4-3.8-6.8-6.8-14.1-9-21.7-11.7-1.7-20.6-11.7-20.6-23.8v-16c0-12.1 8.9-22.1 20.6-23.8 2.2-7.6 5.2-14.9 9-21.7-7.1-9.4-6.3-22.8 2.2-31.4l11.3-11.3c8.6-8.5 22-9.3 31.4-2.2 6.8-3.7 14.1-6.8 21.7-9zM512 320c-35.3 0-64 28.7-64 64s28.7 64 64 64 64-28.7 64-64-28.7-64-64-64z"/></svg>