<svg xmlns="http://www.w3.org/2000/svg" viewBox="0 0 576 512"><!--! Font Awesome Pro 6.1.1 by @fontawesome - https://fontawesome.com License - https://fontawesome.com/license (Commercial License) Copyright 2022 Fonticons, Inc.--><path d="M287.1 176c48.6 0 87.1-39.4 87.1-88S336.6 0 287.1 0 200 39.4 200 88s39.4 88 87.1 88zm0-128c22.06 0 39.1 17.94 39.1 40 0 22.05-17.94 40-39.1 40s-40-17.9-40-40c0-22.06 18.8-40 40-40zm264 416H24C10.75 464 .9 474.74.9 488c0 13.25 10.75 24 23.1 24h527.1c13.25 0 23.1-10.75 23.1-24 .9-13.3-8.9-24-23.1-24zM24 344c5.531 0 11.09-1.906 15.62-5.781C67.89 313.1 115.7 287.3 175.1 271.1L176 432h47.1V261.3c21.6-3.1 43.1-5.3 65.8-5.3 21.94 0 42.86 2.096 63.09 5.121V432h48V270.8c59.81 15.95 107.9 42.23 136.7 66.08 10.12 8.375 25.34 7.078 33.78-3.172 8.468-10.2 7.061-25.34-3.157-33.8C499.9 244.1 390.6 208 288.9 208 185 208 74.8 244.81 8.4 301.78c-10.06 8.625-11.22 23.78-2.594 33.84C10.53 341.2 17.25 344 24 344zm263.1 32c0 13.25 10.75 24 23.1 24 13.25 0 23.1-10.75 23.1-24 0-13.26-10.75-24-23.1-24-11.5 0-23.1 10.7-23.1 24zm200-152c13.25 0 23.1-10.75 23.1-24 0-13.26-10.75-24-23.1-24-13.25 0-23.1 10.74-23.1 24-.9 13.3 10.7 24 23.1 24zM56 240c13.25 0 23.1-10.75 23.1-24 0-13.26-10.75-24-23.1-24s-24 10.7-24 24 10.75 24 24 24z"/></svg>