<svg xmlns="http://www.w3.org/2000/svg" viewBox="0 0 640 512"><!--! Font Awesome Pro 6.1.1 by @fontawesome - https://fontawesome.com License - https://fontawesome.com/license (Commercial License) Copyright 2022 Fonticons, Inc.--><path d="M192 48c0-26.51 21.5-48 48-48s48 21.49 48 48-21.5 48-48 48-48-21.49-48-48zm147.7 27.42c11.3-6.82 26.1-3.13 32.9 8.23l46.8 78.05 138.9 69.5c10.9 5.4 17.7 16.5 17.7 28.6v59.1c0 10.7-5.3 20.7-14.2 26.6L492 392l54 72h20.1l32.9-33c9.4-9.3 24.6-9.3 33.1 0 10.2 9.4 10.2 24.6 0 33.1l-40 40c-3.6 5.4-9.7 7.9-16.1 7.9H440c-13.3 0-24-10.7-24-24s10.7-24 24-24h46l-48-64H313.3c4.3 9.8 6.7 20.6 6.7 32 0 44.2-35.8 80-80 80H80c-44.18 0-80-35.8-80-80 0-26.2 12.57-49.4 32-64.9l39.16-77.4c5.42-10.9 16.5-17.7 28.62-17.7H288l24-32h-32c-7.6 0-14.7-3.6-19.2-9.6l-33.4-44.5c-4.7-6.2-12-9.9-19.8-9.9-9.7 0-18.6 5.7-22.5 14.7l-19.2 43c-5.4 12.2-19.5 17.6-31.6 12.2-12.2-5.4-17.6-19.5-12.2-31.6l19.1-43.1c11.7-26.3 37.7-43.2 66.4-43.2 22.9 0 44.5 10.8 58.2 29.1L292 192h56l18.7-24.9-35.3-58.8c-6.8-11.32-3.1-26.06 8.3-32.88zM48 432c0 17.7 14.33 32 32 32h160c17.7 0 32-14.3 32-32s-14.3-32-32-32H80c-17.67 0-32 14.3-32 32zm417.5-80 62.5-41.7v-40.6l-129.6-64.9L312 320H109.7l-16.03 32H465.5z"/></svg>