<svg xmlns="http://www.w3.org/2000/svg" viewBox="0 0 576 512"><!--! Font Awesome Pro 6.1.1 by @fontawesome - https://fontawesome.com License - https://fontawesome.com/license (Commercial License) Copyright 2022 Fonticons, Inc.--><path d="M240 0c43.8 0 79.4 35.23 80 78.91v2.18c-.6 43.71-36.2 78.91-80 78.91-44.2 0-80-35.8-80-80 0-44.18 35.8-80 80-80zm0 48c-17.7 0-32 14.33-32 32s14.3 32 32 32 32-14.33 32-32-14.3-32-32-32zm20.7 144c21.2 0 41.5 5.6 59.3 15.7v280.6c-.1 13.1-10.8 23.7-24 23.7-13.3 0-24-10.7-24-24V240.9c-3.7-.6-7.5-.9-11.3-.9h-41.4c-6.6 0-13.1.9-19.3 2.6V488c0 13.3-10.7 24-24 24s-24-10.7-24-24V285.7l-74.52 149c-5.93 11.9-20.35 16.7-32.2 10.8-11.86-6-16.66-20.4-10.74-32.2l77.46-155c20.3-40.6 61.9-66.3 107.3-66.3h41.4zM448 0c8.8 0 16 7.164 16 16v116.3c9.6 5.5 16 15.9 16 27.7v109.3l16-5.3v-56c0-8.8 7.2-16 16-16h16c8.8 0 16 7.2 16 16v84.5c0 6.9-4.4 13-10.9 15.1L480 325.3V352h48c8.8 0 16 7.2 16 16v16c0 8.8-7.2 16-16 16h-44l23 92.1c2.6 10.1-5.1 19.9-15.5 19.9H432c-8.8 0-16-7.2-16-16V384h-32c-17.7 0-32-14.3-32-32V224c0-17.7 14.3-32 32-32h16v-32c0-11.8 6.4-22.2 16-27.7V32c-8.8 0-16-7.16-16-16 0-8.836 7.2-16 16-16h32zm-16 240h-32v96h32v-96z"/></svg>