<svg xmlns="http://www.w3.org/2000/svg" viewBox="0 0 512 512"><!--! Font Awesome Pro 6.1.1 by @fontawesome - https://fontawesome.com License - https://fontawesome.com/license (Commercial License) Copyright 2022 Fonticons, Inc.--><path d="M208 48c0-26.51 21.5-48 48-48s48 21.49 48 48-21.5 48-48 48-48-21.49-48-48zm8 464c-13.3 0-24-10.7-24-24V223.6l-43.1 76.2c-6.5 11.6-21.2 15.6-32.7 9.1-11.6-6.5-15.6-21.2-9.1-32.7l58.6-103.5c15.6-27.6 44.8-44.7 76.6-44.7h27.4c31.8 0 61 17.1 76.6 44.7l58.6 103.5c6.5 11.5 2.5 26.2-9.1 32.7-11.5 6.5-26.2 2.5-32.7-9.1L320 223.6V488c0 13.3-10.7 24-24 24s-24-10.7-24-24V352h-32.9v136c0 13.3-9.8 24-24 24h.9zm26.3-336c-.8 0-1.6 0-2.3.1V304h32V176.1c-.7-.1-1.5-.1-2.3-.1h-27.4zM7.029 7.029c9.371-9.372 24.571-9.372 33.941 0L120.1 87.03c10.2 9.37 10.2 24.57 0 33.07-8.5 10.2-23.7 10.2-33.07 0L7.029 40.97c-9.372-9.37-9.372-24.57 0-33.941zM504.1 40.97l-80 79.13c-8.5 10.2-23.7 10.2-33.1 0-9.3-8.5-9.3-23.7 0-33.07l80-80.001c9.4-9.372 24.6-9.372 33.1 0 10.2 9.371 10.2 24.571 0 33.941zM40.97 504.1c-9.37 10.2-24.57 10.2-33.941 0-9.372-8.5-9.372-23.7 0-33.1l80.001-80c9.37-9.3 24.57-9.3 33.07 0 10.2 9.4 10.2 24.6 0 33.1l-79.13 80zm463.13 0c-8.5 10.2-23.7 10.2-33.1 0l-80-80c-9.3-8.5-9.3-23.7 0-33.1 9.4-9.3 24.6-9.3 33.1 0l80 80c10.2 9.4 10.2 24.6 0 33.1z"/></svg>