<svg xmlns="http://www.w3.org/2000/svg" viewBox="0 0 640 512"><!--! Font Awesome Pro 6.1.1 by @fontawesome - https://fontawesome.com License - https://fontawesome.com/license (Commercial License) Copyright 2022 Fonticons, Inc.--><path d="M232 0c13.3 0 24 10.75 24 24v10.36c0 56.47-30.1 107.84-77.5 135.74l58.2 85h75c13 0 24.4 7.3 32.7 18l51.3 73.1c7.6 10.9 4.9 25.9-5.9 33.5-10.9 7.6-25.9 4.9-33.5-5.9l-48.8-70.7h-49.6c-1.3 2.4-2.9 3.7-4.6 4l-53.9 36.8 84.7 130.2c7.3 12 4.1 26-7.1 34.1-11.1 7.2-25.9 4-33.2-7.2L84.45 254.7c-2.91 9.9-5.35 19.4-5.35 30.9v73.5c0 14.2-9.85 24-24 24-12.36 0-24-9.8-24-24v-73.5c0-66.3 42.38-125.5 104.7-148.2 43.3-15.7 71.3-56.91 71.3-103.04V24c0-13.25 11.6-24 24-24h.9zm-58.7 303.6 26-17.3-64.8-95.5c-8.4 4.9-16.1 10.9-22.8 17.7l61.6 95.1zM96 80c0 26.5-21.49 48-48 48S0 106.5 0 80c0-26.51 21.49-48 48-48s48 21.49 48 48zm368 222.3-33.3 24.4c-1.6-1.1-1.5-2.3-2.3-3.4l-51.2-73.2c-15-21.4-39.4-35-65.5-35h-19.8c.5-5.3 3.4-11.2 8.2-15.4l48.6-42-25.6-58.91c-3.5-8.15-2.2-17.58 3.3-24.52 5.5-6.95 14.5-10.27 23.2-8.63l63.1 11.82 30.1-56.71C446.1 12.9 455.1 7.1 464 7.1c8.9 0 17 5.8 21.2 13.65l30.1 56.71 63.1-11.82c8.7-1.64 17.7 1.68 23.2 8.63 5.5 6.94 6.8 16.37 3.3 24.52l-25.6 58.91 48.6 42c6.7 5.8 9.7 14.8 7.7 23.5-2 8.6-8.6 15.5-17.2 16.9l-61.9 17.6-2.6 64.2c-.3 8.9-5.5 16.8-13.5 20.7-8 3.8-17.5 2.9-24.7-2.3l-51.7-38zm0-219.12-17.2 32.42c-4.9 9.2-15.3 14.2-25.6 12.3l-36-6.8 14.6 33.7c4.1 9.6 1.6 20.8-6.4 27.7l-27.7 23.9 35.4 8.7c10.1 3.6 17.3 12.6 17.7 23.1l1.5 36.6 29.5-21.7c8.4-6.2 20-6.2 28.4 0l29.5 21.7 1.5-36.6c.4-10.5 7.6-19.5 17.7-23.1l35.4-8.7-27.7-23.9c-8-6.9-10.5-18.1-6.4-27.7l14.6-33.7-36 6.8c-10.3 1.9-20.7-3.1-25.6-12.3L464 83.18z"/></svg>