<svg xmlns="http://www.w3.org/2000/svg" viewBox="0 0 576 512"><!--! Font Awesome Pro 6.1.1 by @fontawesome - https://fontawesome.com License - https://fontawesome.com/license (Commercial License) Copyright 2022 Fonticons, Inc.--><path d="M575.1 407.9c0-11.45-8.176-21.6-19.8-23.67-46.6-8.53-53-40.23-76.2-40.23-22.96 0-33.72 39.92-95.1 39.92-62.5-.02-73-39.92-96-39.92-22.96 0-33.72 39.92-95.1 39.92-32.36 0-68.05-13.6-86.8-32.93C100.7 346.3 94.35 344 88 344c-21.95 0-30.18 33.43-68.2 40.21C8.18 386.277 0 396.43 0 407.88 0 419.98 9.506 432 23.94 432c7.637 0 35.43-4.889 65.27-31.81C117.2 419.9 155.2 431.1 192 431.1c34.89 0 68.81-11.54 96-32.19 27.19 20.65 61.6 30.98 96.01 30.98 34.32 0 68.63-10.27 95.78-30.82 30.59 24.3 63.21 32.03 72.23 32.03 11.08 0 23.08-8.7 23.08-23.2zM95.1 224c35.35 0 64-28.65 64-64s-28.65-64-64-64-64 28.65-64 64c0 35.3 29.55 64 64 64zM168 336c13.3 0 24-10.7 24-24 0-30.09 11.2-58.89 31.53-81.06L241 211.9c5.49-5.99 11.36-11.5 17.45-16.72l133.6 118.8C396.6 318 402.3 320 407.1 320c13.38 0 24.01-10.86 24.01-23.98 0-6.617-2.725-13.21-8.062-17.95L299.1 167.9c3.935-1.945 38.53-21.2 88.85-21.2 15.13 0 30.32 1.732 45.35 5.218l32.41 7.484c1.802.4 3.601.593 5.37.593 12.01 0 24.04-9.474 24.04-23.98 0-10.94-7.504-20.82-18.6-23.39l-32.42-7.484c-18.62-4.298-37.43-6.435-56.17-6.435-110.4 0-174.1 70.88-183.2 80.76L188.2 198.5c-28.5 31-44.2 71.4-44.2 113.5 0 13.3 10.8 24 24 24z"/></svg>