<svg xmlns="http://www.w3.org/2000/svg" viewBox="0 0 512 512"><!--! Font Awesome Pro 6.1.1 by @fontawesome - https://fontawesome.com License - https://fontawesome.com/license (Commercial License) Copyright 2022 Fonticons, Inc.--><path d="M431.9 95.99c26.5 0 48-21.5 48-47.1C479.9 21.5 458.4 0 431.9 0s-48 21.5-48 47.1c0 27.39 21.5 48.89 48 48.89zm41.4 154.91c4.375 3.25 9.498 5 14.62 5 7.248 0 14.25-3.25 19.12-9.373a23.82 23.82 0 0 0 5.001-14.63c0-7.214-3.233-14.36-9.374-19.11L382.9 121.2c-13.12-9.748-27.62-17.37-43.24-22.5l-66.99-22.49-35.87-63.96C232.4 4.448 224.2.042 215.9.042c-12.25 0-24.02 9.86-24.02 24.03 0 3.963.991 7.975 3.077 11.67l36.49 65.11c4.75 9.498 12.1 16.62 23.12 19.1l34.74 11.62L230.9 161.7c-19.1 9.5-31 28.6-31 50v54.99c0 3.125-1.875 6-4.875 7.373L118.7 305.8c-9.142 3.862-14.73 12.84-14.73 22.22 0 5.979 2.278 12.25 7.229 16.65l-43.59-15.81c-9.75-3.5-17.35-10.63-21.85-19.1C41.75 300.1 33.03 295 23.97 295 5.28 295 0 312.15 0 319.09c0 8.609 13.51 41.04 51.13 54.88l364.6 132.7c9.77 3.43 19.97 5.33 29.97 5.33 21.66 0 50.31-7.395 50.31-30 0-18.87-17.33-23.96-24.06-23.96-10.32 0-12.71 5.91-26.49 5.91-4.378 0-8.829-.779-13.13-2.324l-103.9-37.85c10.75-.25 20.5-7.748 22.87-18.87l21.87-101.1c.556-2.714.827-5.448.827-8.161 0-12.53-5.78-24.6-15.95-32.2L295.3 215.6l82.24-37.87 95.76 73.17zm-148.1 47-20.75 96.97a23.339 23.339 0 0 0-.493 4.766c0 7.244 3.399 13.96 8.74 18.48l-182.7-66.44c2.499-.25 4.765-.543 7.265-1.543l76.24-31.87c20.87-8.623 34.37-28.99 34.37-51.61V239.9l77.328 58z"/></svg>