<svg xmlns="http://www.w3.org/2000/svg" viewBox="0 0 320 512"><!--! Font Awesome Pro 6.1.1 by @fontawesome - https://fontawesome.com License - https://fontawesome.com/license (Commercial License) Copyright 2022 Fonticons, Inc.--><path d="M208 48c0 26.51-21.5 48-48 48s-48-21.49-48-48 21.5-48 48-48 48 21.49 48 48zm57.5 315.2c3.2 10.3-4.5 20.8-15.3 20.8H224v104c0 13.3-10.7 24-24 24s-24-10.7-24-24V384h-32v104c0 13.3-10.7 24-24 24s-24-10.7-24-24V384H69.76c-10.79 0-18.49-10.5-15.27-20.8l46.31-148-47.91 84.6c-6.53 11.6-21.17 15.6-32.71 9.1-11.533-6.5-15.595-21.2-9.07-32.7l51.78-91.6c19.8-35 56.91-57.5 97.11-57.5s77.3 22.5 97.1 57.5l51.8 91.6c6.5 11.5 2.5 26.2-9.1 32.7-11.5 6.5-26.2 2.5-32.7-9.1l-47.8-84.6 46.2 148zM113.3 336h93.4L160 186.5 113.3 336z"/></svg>