<svg xmlns="http://www.w3.org/2000/svg" viewBox="0 0 448 512"><!--! Font Awesome Pro 6.1.1 by @fontawesome - https://fontawesome.com License - https://fontawesome.com/license (Commercial License) Copyright 2022 Fonticons, Inc.--><path d="m142.1 316.9-19.9 46.2c-1.2 3-4.1 4.9-7.2 4.9H40c-13.25 0-24 10.75-24 24s10.75 24 24 24h75c22.38 0 42.62-13.25 51.5-33.1l13.5-32.4-9.5-5.75c-11.9-7.25-21.3-16.85-28.4-27.85zM288 96c26.5 0 48-21.5 48-48S314.5 0 288 0s-48 21.5-48 48 21.5 48 48 48zm120 144.5-48.38-.125c-3.5 0-6.625-2.25-7.625-5.625l-13.88-46c-9.25-30.13-34-53.25-64.88-60.13L195 110.9c-6.5-1.5-13.9-2.2-19.5-2.2-19.27 0-38.11 6.396-53.72 18.46l-48.4 37.34c-6.11 4.7-9.3 11.7-9.3 18.9 0 12.45 9.888 24.04 23.98 24.04 5.158 0 10.35-1.649 14.69-5.047l48.37-37.25a39.89 39.89 0 0 1 24.48-8.367c2.967 0 5.949.328 8.891.992L199.4 161 164 248.4c-2.8 6.9-4.1 14-4.1 21 0 19.12 9.79 37.46 27.07 47.98l83.75 50.5a8.102 8.102 0 0 1 3.932 6.933c0 .729-.1 1.466-.307 2.192L241 481.4a24.095 24.095 0 0 0-.923 6.596C240.1 495.9 246.1 512 264.1 512c10.5 0 20.12-6.875 23.12-17.38l33.25-104.5a55.489 55.489 0 0 0 2.182-15.41c0-19.22-9.983-37.61-27.06-47.97L243.8 295.5l42-104.7c2.75 3.625 5 7.5 6.375 12l14 46c7.125 23.62 28.63 39.62 53.38 39.62l48.38.25c13.25 0 24.12-10.75 24.12-24C432 251.4 421.4 240.6 408 240.5z"/></svg>