<svg xmlns="http://www.w3.org/2000/svg" viewBox="0 0 320 512"><!--! Font Awesome Pro 6.1.1 by @fontawesome - https://fontawesome.com License - https://fontawesome.com/license (Commercial License) Copyright 2022 Fonticons, Inc.--><path d="M160 96c-26.5 0-48-21.49-48-48 0-23.2 16.5-42.549 38.3-47.025C153.5.335 156.7 0 160 0c9.9 0 19.2 3.022 26.8 8.198 6.4 4.332 11.8 10.162 15.4 16.992 3.7 6.79 5.8 14.55 5.8 22.81 0 26.51-21.5 48-48 48zm16 32c30.8.8 59.1 17.7 74.3 44.7l58.6 103.5c6.5 11.5 2.5 26.2-9.1 32.7-11.5 6.5-26.2 2.5-32.7-9.1L224 223.6V488c0 13.3-10.7 24-24 24s-24-10.7-24-24V128zm-32 360.1c-.1 13.2-10.8 23.9-24 23.9-13.3 0-24-10.7-24-24V384H69.76c-10.79 0-18.49-10.5-15.27-20.8l46.31-148-47.91 84.6c-6.53 11.6-21.17 15.6-32.71 9.1-11.533-6.5-15.595-21.2-9.07-32.7l51.78-91.6c17.14-30.3 47.21-50.5 81.11-55.4v108.5L113.3 336H144v152.1z"/></svg>