<svg xmlns="http://www.w3.org/2000/svg" viewBox="0 0 384 512"><!--! Font Awesome Pro 6.1.1 by @fontawesome - https://fontawesome.com License - https://fontawesome.com/license (Commercial License) Copyright 2022 Fonticons, Inc.--><path d="M144 96c26.51 0 48-21.49 48-48S170.51 0 144 0 96 21.49 96 48s21.5 48 48 48zm216 336h-42.81l-13.38-106.1C302.3 313 292.1 304 280 304H160v-64h88c13.25 0 24-10.75 24-24 0-13.3-10.7-24-24-24h-88v-32c0-17.69-14.33-32-32-32s-32 14.3-32 32v160c0 17.69 14.33 32 32 32h130.8l13.38 106.1C273.7 471 283.9 480 296 480h64c13.25 0 24-10.75 24-24s-10.7-24-24-24zm-160-32h-74.9C82.98 400 48 365 48 322V152c0-13.2-10.75-24-24-24S0 138.8 0 152v170c0 69.5 56.53 126 125.1 126H200c13.25 0 24-10.75 24-24s-10.7-24-24-24z"/></svg>