<svg xmlns="http://www.w3.org/2000/svg" viewBox="0 0 640 512"><!--! Font Awesome Pro 6.1.1 by @fontawesome - https://fontawesome.com License - https://fontawesome.com/license (Commercial License) Copyright 2022 Fonticons, Inc.--><path d="M160 48c0-26.51 21.5-48 48-48s48 21.49 48 48-21.5 48-48 48-48-21.49-48-48zM96.04 196.5a72.077 72.077 0 0 0-38.51 42.8l-2.76 8.3c-4.19 12.6-17.78 18.5-30.36 15.2-12.57-4.2-19.369-18.7-15.178-30.4l2.758-8.3c10.56-31.6 33.81-57.5 64.19-71.3l21.2-9.6c22.02-10 45.92-15.2 70.12-15.2 48.9 0 92 31.9 106.4 78.6l11.3 36.6 26.9 27.8c10.2 9.4 10.2 24.6 0 33.1-8.5 10.2-23.7 10.2-33.1 0l-29.2-28.3c-4.6-4.6-8-10.3-9.9-16.5l-9.8-31.9-29.3 93.8 50.1 40.7c6.9 5.6 11.7 13.4 13.7 21.2l22.8 99.5c3 12.9-5.1 25.8-18 28.8s-25.8-5.1-28.8-18l-22.1-96L114 312.6c-18.04-14.7-25.14-39.1-17.77-61.2l21.57-64.8-.6.3-21.16 9.6zm48.26 78.8 16.4 13.3 32.4-103.8c.3-1 .7-2 1.1-2.9-6.9-3.2-14.4-5.2-22.3-5.7l-30.1 90.4c-1.1 3.2-.1 6.6 2.5 8.7zm-5.6 98.6-19.2 48c-2 5-5 9.6-8.9 13.4l-69.63 68.8c-9.37 10.2-24.57 10.2-33.941 0-9.372-8.5-9.372-23.7 0-33.1l68.521-68.5 24.14-60.3 39.01 31.7zm228.3-5.8c-9.3-8.5-9.3-23.7 0-33.1l80-80c9.4-9.3 24.6-9.3 33.1 0 10.2 9.4 10.2 24.6 0 33.1L441.9 328H484c59.6 0 108-48.4 108-108s-48.4-108-108-108H344c-13.3 0-24.9-10.7-24.9-24 0-13.25 11.6-24 24.9-24h140c86.2 0 156 69.8 156 156s-69.8 156-156 156h-42.1l38.2 39c10.2 9.4 10.2 24.6 0 33.1-8.5 10.2-23.7 10.2-33.1 0l-80-80z"/></svg>