<svg xmlns="http://www.w3.org/2000/svg" viewBox="0 0 448 512"><!--! Font Awesome Pro 6.1.1 by @fontawesome - https://fontawesome.com License - https://fontawesome.com/license (Commercial License) Copyright 2022 Fonticons, Inc.--><path d="M264 384H149.1c-33.63 0-62.58-24.66-68.81-58.66L47.62 147.7c-2.406-13.03-15-21.78-27.94-19.25C6.633 130.8-1.992 143.3.398 156.3L33.018 334C43.46 390.8 92.26 432 149.1 432h114.1c13.25 0 23.1-10.75 23.1-24s-9-24-22.3-24zM112 96c26.51 0 47.1-21.49 47.1-48S138.5 0 112 0 64 21.49 64 48s21.5 48 48 48zm312 336h-32.3l-49.72-113.6C338.2 309.7 329.5 304 320 304H187.6l-12-64H296c13.25 0 24-10.75 24-24 0-13.26-10.75-24-24-24H166.6l-7.1-37.9c-3.3-17.4-20-28.8-37.4-25.5s-28.8 19.9-25.55 37.3l30 160c2.85 15.4 16.35 26.1 30.55 26.1h146.3l49.72 113.6C357.8 474.3 366.5 480 376 480h48c13.25 0 24-10.75 24-24s-10.7-24-24-24z"/></svg>