<svg xmlns="http://www.w3.org/2000/svg" viewBox="0 0 640 512"><!--! Font Awesome Pro 6.1.1 by @fontawesome - https://fontawesome.com License - https://fontawesome.com/license (Commercial License) Copyright 2022 Fonticons, Inc.--><path d="M432 48c0-26.51 21.5-48 48-48s48 21.49 48 48-21.5 48-48 48-48-21.49-48-48zm155.1 251.8-47.8-84.6 46.2 148c3.2 10.3-4.5 20.8-15.3 20.8H544v104c0 13.3-10.7 24-24 24-13.2 0-24-10.7-24-24V384h-32v104c0 13.3-10.7 24-24 24s-24-10.7-24-24V384h-26.2c-11.7 0-18.5-10.5-15.3-20.8l46.3-148-47.9 84.6c-6.5 11.6-21.2 15.6-32.7 9.1-11.6-6.5-15.6-21.2-9.1-32.7l51.8-91.6c19.8-35 56.9-56.6 97.1-56.6 40.2 0 77.3 21.6 97.1 56.6l51.8 91.6c6.5 11.5 2.5 26.2-9.1 32.7-11.5 6.5-26.2 2.5-32.7-9.1zM526.7 336 480 186.5 433.3 336h93.4zM176 8c8.9 0 17 4.9 21.2 12.75l30.1 56.71 63.1-11.82c8.8-1.63 17.7 1.68 23.2 8.63 5.5 6.94 6.8 16.37 3.3 24.52l-25.6 58.91 40.9 35.3-31.7 56.1-32 8.6-2.6 64.2c-.3 8.9-5.5 16.8-13.5 20.7-8 3.8-17.5 2.9-24.7-2.3l-51.7-38-51.7 38c-7.2 5.2-16.7 6.1-24.66 2.3-8-3.9-13.22-11.8-13.57-20.7l-2.52-64.2-61.99-17.6c-8.57-1.4-15.169-8.3-17.145-16.9a23.97 23.97 0 0 1 7.705-23.5l48.6-42-25.57-58.91a23.98 23.98 0 0 1 3.25-24.52 23.994 23.994 0 0 1 23.18-8.63l63.12 11.82 30.1-56.71C158.1 12.9 167.1 8 176 8zm0 75.18-17.2 32.42c-4.9 9.2-15.3 14.2-25.6 12.3l-36.02-6.8 14.62 33.7c3.3 9.6 1.6 20.8-6.4 27.7l-27.69 23.9 35.39 8.7c10.1 3.6 17.3 12.6 17.7 23.1l1.5 36.6 29.5-21.7c8.4-6.2 20-6.2 28.4 0l29.5 21.7 1.5-36.6c.4-10.5 7.6-19.5 17.7-23.1l35.4-8.7-27.7-23.9c-8-6.9-10.5-18.1-6.4-27.7l14.6-33.7-36 6.8c-10.3 1.9-20.7-3.1-25.6-12.3L176 83.18z"/></svg>