<svg xmlns="http://www.w3.org/2000/svg" viewBox="0 0 384 512"><!--! Font Awesome Pro 6.1.1 by @fontawesome - https://fontawesome.com License - https://fontawesome.com/license (Commercial License) Copyright 2022 Fonticons, Inc.--><path d="M240 48c0 26.51-21.5 48-48 48s-48-21.49-48-48 21.5-48 48-48 48 21.49 48 48zM96 209.5l-51.11 90.3c-6.52 11.6-21.16 15.6-32.7 9.1-11.539-6.5-15.602-21.2-9.076-32.7L61.66 172.7A88.003 88.003 0 0 1 138.3 128h35c26 0 50.6 11.5 67.3 31.4l81.8 97.2c8.5 10.1 7.2 25.2-2.9 33.8-10.2 8.5-25.3 7.2-33.9-3L224 214.2V488c0 13.3-10.7 24-24 24s-24-10.7-24-24V352h-32v136c0 13.3-10.7 24-24 24s-24-10.7-24-24V209.5zm80-33.4c-.9-.1-1.8-.1-2.7-.1H144v128h32V176.1zM320 384c0 13.3-10.7 24-24 24s-24-10.7-24-24v-8c0-30.9 25.1-56 56-56s56 25.1 56 56v112c0 13.3-10.7 24-24 24s-24-10.7-24-24V376c0-4.4-3.6-8-8-8s-8 3.6-8 8v8z"/></svg>