<svg xmlns="http://www.w3.org/2000/svg" viewBox="0 0 448 512"><!--! Font Awesome Pro 6.1.1 by @fontawesome - https://fontawesome.com License - https://fontawesome.com/license (Commercial License) Copyright 2022 Fonticons, Inc.--><path d="M288 34.36c0 56.47-30.1 107.84-77.5 135.74l58.2 85h76.2c11.3 0 22.1 5.7 29.7 14.1l67.2 74.7c8.9 9.9 8.1 24.2-1.7 33.9-9.9 8.9-25.1 8.1-33.9-1.7l-64.9-73h-47.2l-62.5 41.2 84.6 129.8c7.2 12 4 26-7.2 34.1-11.1 7.2-26 4-33.2-7.2L116.4 254.7c-2.9 9.9-5.3 19.4-5.3 30.9v73.5c0 14.2-9.8 24-24 24-12.36 0-24-9.8-24-24v-73.5c0-66.3 42.4-125.5 104.7-148.2C211.1 121.7 240 80.49 240 34.36V24c0-13.25 10.7-24 24-24s24 10.75 24 24v10.36zM166.5 190.8c-8.4 4.9-16.1 10.9-22.8 17.7l61.8 95.5 26.4-16.8-65.4-96.4zM32 80c0-26.51 21.49-48 48-48 26.5 0 48 21.49 48 48 0 26.5-21.5 48-48 48-26.51 0-48-21.5-48-48z"/></svg>