<svg xmlns="http://www.w3.org/2000/svg" viewBox="0 0 512 512"><!--! Font Awesome Pro 6.1.1 by @fontawesome - https://fontawesome.com License - https://fontawesome.com/license (Commercial License) Copyright 2022 Fonticons, Inc.--><path d="M352 48c0-26.51 21.5-48 48-48s48 21.49 48 48-21.5 48-48 48-48-21.49-48-48zm-64 148.5c-18.2 8.3-32.1 23.8-38.5 42.8l-2.7 8.3c-4.2 12.6-18.7 18.5-30.4 15.2-12.6-4.2-19.4-18.7-15.2-30.4l1.9-8.3c11.4-31.6 34.7-57.5 65.1-71.3l21.2-9.6c22-10 45.9-15.2 70.1-15.2 48.9 0 92 31.9 106.4 78.6l11.3 36.6 26.9 27.8c10.2 9.4 10.2 24.6 0 33.1-8.5 10.2-23.7 10.2-33.1 0l-29.2-28.3c-4.6-4.6-8-10.3-9.9-16.5l-9.8-31.9-29.3 93.8 50.1 40.7c6.9 5.6 11.7 13.4 13.7 21.2l22.8 99.5c3 12.9-5.1 25.8-18 28.8s-25.8-5.1-28.8-18l-22.1-96L306 312.6c-18.9-14.7-25.1-39.1-17.8-61.2l21.6-64.8-.6.3-21.2 9.6zm48.3 78.8 16.4 13.3 32.4-103.8c.3-1 .7-2 1.1-2.9-6.9-3.2-14.4-5.2-22.3-5.7l-30.1 90.4c-1.1 3.2-.1 6.6 2.5 8.7zm-5.6 98.6-19.2 48c-2 5-5 9.6-8.9 13.4l-70.5 68.8c-8.5 10.2-23.7 10.2-33.1 0-9.3-8.5-9.3-23.7 0-33.1l68.5-68.5 24.2-60.3 39 31.7zm-107.6-99.8c8.6 4.5 11.2 14.2 6.8 21l-43.8 76.7c-.7 2.7-1.8 5.4-3.2 7.9l-64 110.9c-8.9 15.3-28.46 20.5-43.76 11.7l-55.43-32C4.407 461.4-.837 441.9 7.999 426.6L71.1 315.7c9.74-15.3 29.3-20.5 44.6-12.6l54.4 32.3 32-56.3c4.5-6.8 14.2-9.4 21-5z"/></svg>