<svg xmlns="http://www.w3.org/2000/svg" viewBox="0 0 640 512"><!--! Font Awesome Pro 6.1.1 by @fontawesome - https://fontawesome.com License - https://fontawesome.com/license (Commercial License) Copyright 2022 Fonticons, Inc.--><path d="M144 48c0-26.51 21.5-48 48-48s48 21.49 48 48-21.5 48-48 48-48-21.49-48-48zm8 464c-13.3 0-24-10.7-24-24V223.6l-43.11 76.2c-6.52 11.6-21.16 15.6-32.7 9.1-11.54-6.5-15.6-21.2-9.08-32.7l58.59-103.5c15.6-27.6 44.8-44.7 76.6-44.7h140.8V48c0-26.51 22.4-48 48.9-48h224c26.5 0 48 21.49 48 48v224c0 26.5-21.5 48-48 48H368c-26.5 0-48.9-21.5-48.9-48v-48H368v48h224V48H368v80h24c13.3 0 24 10.7 24 24s-10.7 24-24 24H256v312c0 13.3-10.7 24-24 24-13.2 0-24-10.7-24-24V352h-32v136c0 13.3-10.7 24-24 24zm26.3-336c-.8 0-1.5 0-2.3.1V304h32V176h-29.7z"/></svg>