<svg xmlns="http://www.w3.org/2000/svg" viewBox="0 0 384 512"><!--! Font Awesome Pro 6.1.1 by @fontawesome - https://fontawesome.com License - https://fontawesome.com/license (Commercial License) Copyright 2022 Fonticons, Inc.--><path d="M192 32c82.1 0 151.2 63.15 159.2 144h8.8c13.3 0 24 10.7 24 24s-10.7 24-24 24h-11.2c-15.7 73-79.4 128-156.8 128H96v104c0 13.3-10.75 24-24 24s-24-10.7-24-24V224H24c-13.25 0-24-10.7-24-24s10.75-24 24-24h24V77.94C48 52.57 68.57 32 93.94 32H192zm110.9 144c-7.8-54.3-54.5-96-110.9-96H96v96h206.9zM96 224v80h96c50.7 0 93.6-33.7 107.4-80H96z"/></svg>