<svg xmlns="http://www.w3.org/2000/svg" viewBox="0 0 384 512"><!--! Font Awesome Pro 6.1.1 by @fontawesome - https://fontawesome.com License - https://fontawesome.com/license (Commercial License) Copyright 2022 Fonticons, Inc.--><path d="M184 32c67 0 124.9 39.24 151.8 96H360c13.3 0 24 10.7 24 24s-10.7 24-24 24h-9.7c1.1 7.8 1.7 15.9 1.7 24s-.6 16.2-1.7 24h9.7c13.3 0 24 10.7 24 24s-10.7 24-24 24h-24.2c-26.9 56.8-84.8 96-151.8 96H96v88c0 13.3-10.75 24-24 24s-24-10.7-24-24V272H24c-13.25 0-24-10.7-24-24s10.75-24 24-24h24v-48H24c-13.25 0-24-10.7-24-24s10.75-24 24-24h24V77.63C48 52.43 68.43 32 93.63 32H184zm96 96c-21.9-29.15-56.7-48-96-48H96v48h184zM96 176v48h205.6c1.6-7.8 2.4-15.8 2.4-24s-.8-16.2-2.4-24H96zm184 96H96v48h88c39.3 0 74.1-18.9 96-48z"/></svg>