<svg xmlns="http://www.w3.org/2000/svg" viewBox="0 0 512 512"><!--! Font Awesome Pro 6.1.1 by @fontawesome - https://fontawesome.com License - https://fontawesome.com/license (Commercial License) Copyright 2022 Fonticons, Inc.--><path d="m1.359 380.1 21.06 91.34c5.469 23.84 26.44 40.53 50.1 40.53C315.3 511.1 512 315.3 512 73.39c0-24.56-16.7-45.53-40.61-50.98L380.14 1.35c-24.53-5.672-49.72 6.984-59.87 30.19l-42.25 98.56c-9.078 21.34-2.891 46.42 15.02 61.05l33.55 27.48c-25.75 44.75-63.26 82.25-108 107.1L191.1 293.1c-14.6-18-39.8-24.2-61.2-14.9l-98.2 42.08C8.39 330.3-4.36 355.5 1.359 380.1zm46.761-10.8c-.453-1.969.656-4.156 2.531-4.969l98.26-42.09c1.734-.813 3.812-.281 4.922 1.125l40.01 48.87c7.062 8.625 19.16 11.25 29.16 6.344 67.28-33.03 122.5-88.25 155.5-155.5 4.906-9.1 2.281-22.08-6.344-29.14l-48.78-39.97c-1.5-1.234-1.1-3.297-1.25-5.062l42.14-98.33c.688-1.562 2.312-2.609 4.047-2.609.313 0 .64.031.953.11l91.34 21.08c2.047.468 3.344 2.108 3.344 4.202 0 215.4-175.2 390.6-390.6 390.6-2.109 0-3.75-1.28-4.219-3.28L48.12 369.3z"/></svg>