<svg xmlns="http://www.w3.org/2000/svg" viewBox="0 0 512 512"><!--! Font Awesome Pro 6.1.1 by @fontawesome - https://fontawesome.com License - https://fontawesome.com/license (Commercial License) Copyright 2022 Fonticons, Inc.--><path d="m480.3 320.3-98.2-42.08c-21.4-9.281-46.64-3.109-61.2 14.95l-27.44 33.5C248.7 300.9 211.2 263.4 185.4 218.6l33.55-27.48c17.95-14.62 24.15-39.72 14.15-61.02l-41.4-98.57c-10.1-23.2-35.3-35.856-59.8-30.184L40.61 22.41C16.7 27.86 0 48.83 0 73.39 0 315.3 196.7 512 438.6 512c24.56 0 45.53-16.69 51-40.53l21.06-91.34c5.74-24.63-7.06-49.83-30.36-59.83zm-16.4 49-21.09 91.41c-.51 1.99-2.11 3.29-4.21 3.29C223.2 464 47.1 288.8 47.1 73.39c0-2.094 1.297-3.734 3.344-4.203L142.7 48.11c.313-.078.64-.11.953-.11 1.734 0 3.36 1.048 4.047 2.61l42.14 98.33c.76 1.76.26 3.86-1.24 5.06l-48.78 39.97c-8.62 7.03-11.32 19.13-6.42 29.13 33.01 67.23 88.26 122.5 155.5 155.5 9.998 4.906 22.09 2.281 29.15-6.344l40.02-48.88c1.109-1.406 3.186-1.938 4.92-1.125l98.26 42.09c1.95.859 3.05 2.959 2.65 4.959zM343.1 119.1H392v48c0 14.2 10.8 24.9 24 24.9s23.1-10.75 23.1-23.1v-49.8h48c14.2 0 24.9-9.8 24.9-23.1s-10.75-23.1-23.1-23.1h-49.8V23.1C439.1 10.75 429.3 0 416 0s-23.1 10.75-23.1 23.1v48h-49.8C330.7 72 320 82.75 320 96s10.7 23.1 23.1 23.1z"/></svg>