<svg xmlns="http://www.w3.org/2000/svg" viewBox="0 0 576 512"><!--! Font Awesome Pro 6.1.1 by @fontawesome - https://fontawesome.com License - https://fontawesome.com/license (Commercial License) Copyright 2022 Fonticons, Inc.--><path d="M368 336h-32c-8.875 0-16 7.125-16 16v32c0 8.875 7.125 16 16 16h32c8.875 0 16-7.125 16-16v-32c0-8.9-7.1-16-16-16zm-48-80v32c0 8.875 7.125 16 16 16h32c8.9 0 16-7.1 16-16v-32c0-8.875-7.125-16-16-16h-32c-8.9 0-16 7.1-16 16zm112 144h32c8.875 0 16-7.125 16-16v-32c0-8.875-7.125-16-16-16h-32c-8.875 0-16 7.125-16 16v32c0 8.9 7.1 16 16 16zm0-96h32c8.9 0 16-7.1 16-16v-32c0-8.875-7.125-16-16-16h-32c-8.9 0-16 7.1-16 16v32c0 8.9 7.1 16 16 16zm80-272H269c-6.5-18.62-24.1-32-45-32h-80c-20.9 0-38.5 13.38-45 32H64C28.62 32 0 60.62 0 96v352c0 35.38 28.62 64 64 64h448c35.38 0 64-28.62 64-64V96c0-35.38-28.6-64-64-64zM144 48h80v320h-80V48zm384 400c0 8.875-7.125 16-16 16H64c-8.875 0-16-7.125-16-16V96c0-8.875 7.125-16 16-16h32v288c0 26.5 21.5 48 48 48h80c26.5 0 48-21.5 48-48V80h48v72c0 22 17.1 40 40 40h168v256zm0-304H368V80h144c8.875 0 16 7.125 16 16v48z"/></svg>