<svg xmlns="http://www.w3.org/2000/svg" viewBox="0 0 640 512"><!--! Font Awesome Pro 6.1.1 by @fontawesome - https://fontawesome.com License - https://fontawesome.com/license (Commercial License) Copyright 2022 Fonticons, Inc.--><path d="M624.9 343.8c-81.3-82.4-189.6-128.7-305.8-128.7-115.3 0-223.6 45.41-304.9 127.9-17.01 17.28-19.1 43.73-7.265 64.31l48.76 79.09c13.2 21.53 39.81 30.25 63.4 21l97.65-39.59C238.8 460 251.1 437.1 249.7 415.1l-4.2-43c48.62-13.28 100.4-13.25 149.1 0l-4.203 42.8c-2.453 23.06 10.81 45.19 32.15 53.78l97.51 39.53C526.4 510.8 532.1 512 539.4 512c17.47 0 34.26-8.938 43.93-24.69l48.78-79.13c12.79-20.68 9.79-47.08-7.21-64.38zm-33.6 38.3-48.81 79.17c-.922 1.562-2.859 2.188-4.406 1.562l-97.57-39.56c-1.516-.594-2.562-2.438-2.359-4.375l6.14-62.45c1.078-11.05-5.547-21.39-16.03-25.02-69.81-24.19-146.7-24.17-216.4-.016-10.48 3.625-17.11 13.97-16.03 25.02l6.125 62.5c.203 1.875-.844 3.75-2.39 4.375l-97.42 39.5c-1.781.72-3.656.063-4.656-1.594l-48.79-79.16C47.6 381.2 47.85 379 49.3 377.5c72.2-73.2 168.3-114.4 269.8-114.4 102.4 0 198.5 40.31 270.7 113.6 2.4 2.3 2.6 4.5 1.5 5.4zM120 160c13.25 0 23.1-10.75 23.1-24V81.94l55.43 55.44C229.1 167 270.1 184 312 184s82.93-17 112.6-46.63L513 48.96c9.374-9.375 9.374-24.56 0-33.94-9.374-9.375-24.56-9.375-33.94 0l-88.4 88.41c-41.37 41.38-115.9 41.38-157.2 0L177.1 48h54.06c13.25 0 23.1-10.75 23.1-24S245.3 0 232 0H120c-13.2 0-23.98 10.75-23.98 24v112c0 13.3 10.78 24 23.98 24z"/></svg>