<svg xmlns="http://www.w3.org/2000/svg" viewBox="0 0 640 512"><!--! Font Awesome Pro 6.1.1 by @fontawesome - https://fontawesome.com License - https://fontawesome.com/license (Commercial License) Copyright 2022 Fonticons, Inc.--><path d="m630.8 469.1-153-119.9C539.1 273.8 576 177.9 576 73.39c0-24.56-16.7-45.53-40.61-50.98L444.14 1.35c-24.53-5.672-49.72 6.984-59.87 30.19l-42.25 98.56c-9.078 21.34-2.891 46.42 15.01 61.05l33.55 27.48c-8.188 14.23-17.69 27.59-28.21 40.08L38.81 5.111C28.34-3.061 13.32-1.249 5.121 9.189-3.051 19.63-1.233 34.72 9.189 42.89l591.1 463.1C605.6 510.3 610.8 512 615.1 512c7.125 0 14.16-3.161 18.9-9.193 9.1-10.407 7.2-25.507-3.2-33.707zM399.1 288.2c16.52-20.01 31.06-41.66 42.56-65.08 4.906-10 2.281-22.08-6.344-29.14l-48.78-39.97a4.354 4.354 0 0 1-1.25-5.062l42.14-98.33c.688-1.562 2.312-2.609 4.047-2.609.313 0 .64.031.953.11l91.34 21.08c2.047.468 3.344 2.108 3.344 4.202 0 93.35-33.33 178.8-88.2 246L399.1 288.2zM137.4 464c-2.109 0-3.75-1.281-4.219-3.281l-21.08-91.41c-.453-1.969.656-4.156 2.531-4.969l98.26-42.09c1.734-.813 3.811-.281 4.92 1.125l40.02 48.88c7.062 8.625 19.16 11.25 29.15 6.344 14.57-7.152 28.45-15.53 41.78-24.66l-40.09-31.42c-2.113 1.287-4.02 2.877-6.166 4.111l-27.44-33.5C240.5 275.1 215.3 268.9 193.9 278.2l-98.2 42.08c-23.31 10.06-36.06 35.22-30.34 59.88l21.06 91.34c5.47 23.8 26.48 40.5 50.98 40.5 102.7 0 196.1-35.72 271.8-95.03l-39.07-30.62C305.1 434.9 224.7 464 137.4 464z"/></svg>