<svg xmlns="http://www.w3.org/2000/svg" viewBox="0 0 640 512"><!--! Font Awesome Pro 6.1.1 by @fontawesome - https://fontawesome.com License - https://fontawesome.com/license (Commercial License) Copyright 2022 Fonticons, Inc.--><path d="M624.9 239.9C543.6 157.4 435.3 112 319.1 112c-115.3 0-223.6 45.41-304.9 127.9-17.02 17.28-20 43.73-7.266 64.31l48.77 79.09c13.2 21.53 39.81 30.25 63.41 21l97.66-39.59C238.8 356 251.1 334 249.7 311.1l-4.2-43c48.63-13.28 100.4-13.25 149.1 0l-4.203 42.8c-2.453 23.06 10.81 45.19 32.16 53.78l97.52 39.53a51.497 51.497 0 0 0 19.36 3.781c17.47 0 34.27-8.938 43.94-24.69l48.78-79.13A52.198 52.198 0 0 0 624.9 239.9zM591.3 279l-48.81 79.17c-.922 1.562-2.859 2.188-4.406 1.562l-97.58-39.56c-1.516-.594-2.562-2.438-2.359-4.375l6.141-62.45c1.078-11.05-5.547-21.39-16.03-25.02-69.81-24.19-146.7-24.17-216.4-.016-10.48 3.625-17.11 13.97-16.03 25.02l6.125 62.5c.203 1.875-.844 3.75-2.391 4.375l-97.42 39.5c-1.781.72-3.656.063-4.656-1.594L48.67 278.1c-1.094-1.766-.844-3.938.61-5.406C121.5 200.3 217.6 160 319.1 160c102.4 0 198.5 40.33 270.7 113.6 2.4 1.4 2.6 3.6 1.5 5.4z"/></svg>