<svg xmlns="http://www.w3.org/2000/svg" viewBox="0 0 512 512"><!--! Font Awesome Pro 6.1.1 by @fontawesome - https://fontawesome.com License - https://fontawesome.com/license (Commercial License) Copyright 2022 Fonticons, Inc.--><path d="M345.1 107.1c-10.22-8.344-25.34-6.905-33.78 3.343-8.406 10.25-6.906 25.37 3.344 33.78 33.88 27.78 53.31 68.19 53.31 110.9s-19.44 83.09-53.31 110.9c-10.25 8.404-11.75 23.53-3.344 33.78a23.953 23.953 0 0 0 18.56 8.781c5.375 0 10.75-1.781 15.22-5.438C390.2 367.1 416 313.1 416 255.1c0-56.2-25.8-110.2-70.9-148zm61.3-73.95c-10.22-8.342-25.34-6.873-33.78 3.344-8.406 10.25-6.906 25.38 3.344 33.78C431.9 116.1 464 183.8 464 255.1c0 72.18-32.09 139.9-88.06 185.7-10.25 8.406-11.75 23.53-3.344 33.78a23.96 23.96 0 0 0 18.56 8.781c5.375 0 10.75-1.781 15.22-5.438C473.5 423.8 512 342.6 512 255.1c0-85.7-38.5-166.96-105.6-221.95zM158.8 205.1c20.56 2.344 39.78-9.562 47.31-28.5l30.66-76.46c8.188-20.59.469-44.06-18.31-55.78L157.2 7.018c-18.2-11.344-41.5-8.75-56.7 6.432C35.72 78.13 0 164.3 0 255.1 0 346.83 35.69 433 100.5 497.7c8.9 9.7 20.6 14.3 32.4 14.3 8.344 0 16.78-2.312 24.31-7l61.22-38.21c18.75-11.69 26.5-35.12 18.34-55.93l-30.66-76.53C198.5 315.6 179.4 303.9 159 305.9l-28.6 2.8c-8.562-34.56-8.562-71.01 0-105.6l28.4 2zM90.31 342.4c3.594 10.53 13.59 17.28 25.09 16.09l46.16-6.186L193 426l-58.56 38.53C78.69 408.9 48 334.9 48 255.1c0-78.34 30.28-151.9 85.25-207.4l58.94 34.62-28.39 75.88-48.4-4.8c-11.31-1.109-21.47 5.594-25.09 16.11-19.06 55.79-19.03 117.09 0 172.89zM284.6 181.9c-10.28-8.344-25.41-6.875-33.75 3.406-8.45 10.294-6.95 25.394 3.35 33.794 11.31 9.25 17.81 22.69 17.81 36.87 0 14.19-6.5 27.62-17.81 36.87-10.3 8.46-11.8 23.56-3.4 33.76 4.719 5.812 11.62 8.812 18.56 8.812 5.344 0 10.75-1.781 15.19-5.406 22.53-18.44 35.44-45.4 35.44-74.05C319.1 227.3 307.1 200.4 284.6 181.9z"/></svg>