<svg xmlns="http://www.w3.org/2000/svg" viewBox="0 0 640 512"><!--! Font Awesome Pro 6.1.1 by @fontawesome - https://fontawesome.com License - https://fontawesome.com/license (Commercial License) Copyright 2022 Fonticons, Inc.--><path d="M272 112c0 17.67 14.33 32 32 32 17.68 0 32-14.33 32-32s-14.3-32-32-32-32 14.33-32 32zM160 400V112H64c-35.35 0-64 28.65-64 64v208c0 35.35 28.65 64 64 64h225.1c4.646-19.76 17.81-36.53 36.23-48H160zm-48 0H64c-8.822 0-16-7.178-16-16v-32h64v48zm0-96H48v-48h64v48zm0-96H48v-32c0-8.8 7.18-16 16-16h48v48zM576 0H256c-35.3 0-64 28.65-64 64v192c0 35.35 28.65 64 64 64h112v-74.7c0-20.7 13.19-39 32.83-45.53l102.8-34.27-36.99-54.41c-2.94-4.39-7.94-7.09-13.34-7.09a15.978 15.978 0 0 0-13.31 7.125l-62.74 94.11-22.35-30.66c-3-4.175-7.8-6.575-13.8-6.575a16.007 16.007 0 0 0-12.93 6.574L256 272c-8.8 0-16-7.2-16-16V64c0-8.822 7.178-16 16-16h320c8.822 0 16 7.178 16 16v72.07l16.81-5.605A47.83 47.83 0 0 1 624 128c5.6 0 10.1 1.2 16 2.9V64c0-35.35-28.7-64-64-64zm42.9 160.8-208 69.33c-6.5 2.17-10.9 8.37-10.9 15.17v172.4c-5.1-1-10.4-1.7-16-1.7-35.35 0-64 21.49-64 48s28.65 48 64 48 64-21.49 64-48V319l144-48v82.7c-5.1-1-10.4-1.7-16-1.7-35.35 0-64 21.49-64 48s28.65 48 64 48 64-21.49 64-48V176c0-10.9-10.7-18.6-21.1-15.2z"/></svg>