<svg xmlns="http://www.w3.org/2000/svg" viewBox="0 0 512 512"><!--! Font Awesome Pro 6.1.1 by @fontawesome - https://fontawesome.com License - https://fontawesome.com/license (Commercial License) Copyright 2022 Fonticons, Inc.--><path d="m476.6 270.2-58.72-29.23c-21.67-10.79-33.71-33.32-33.85-57.52C383.4 82.06 301 0 199.5 0h-15C82.6 0 0 82.6 0 184.5V448c0 35.2 28.8 64 64 64h384c35.2 0 64-28.8 64-64V327.5c0-24.3-13.7-46.5-35.4-57.3zM464 448c0 8.836-7.164 16-16 16H64c-8.836 0-16-7.164-16-16v-64h32v32c0 8.799 7.199 16 15.1 16s16.9-7.2 16.9-16v-32h32v32c0 8.799 7.199 16 15.1 16s16.9-7.2 16.9-16v-32h32v32c0 8.799 7.199 16 16 16s16-7.201 16-16v-32h96v32c0 8.799 7.199 16 16 16s16-7.201 16-16v-32h32v32c0 8.799 7.199 16 16 16s16-7.201 16-16v-32h32v64zm0-112H48V184.5C48 109.3 109.3 48 184.5 48h15C274.8 48 336 109.3 336 184.5c-.125 42.38 23.88 81.25 61.88 100.1l57.25 28.62c5.47 2.68 8.87 8.28 8.87 14.28v8.5z"/></svg>