<svg xmlns="http://www.w3.org/2000/svg" viewBox="0 0 576 512"><!--! Font Awesome Pro 6.1.1 by @fontawesome - https://fontawesome.com License - https://fontawesome.com/license (Commercial License) Copyright 2022 Fonticons, Inc.--><path d="m158 187.9 128.9 128.5c-7.7 16.5-12.6 34.5-14.3 53.5l-148.4-148c-7.3 8.2-9.2 21.4-4.7 32.3l18.3 43.9c12.5 29 5.7 64.3-17.3 87.2l-51.69 51.5c-6.25 5.3-6.26 16.3 0 22.5 6.26 6.3 16.42 6.3 22.69 0l52-51.8c22.8-22.7 57.1-29.6 87-17.3l42.5 17.4c.3.1.5.2.8.3 2.6 17.7 7.3 34.5 15.3 49.8-10.9.8-23-1.1-34.4-5.8l-42.4-17.4c-12-4.9-25.7-2.2-34.9 7l-51.9 51.7c-25.1 25-65.66 25-90.68 0-25.029-24.9-25.019-65.4.02-90.3l51.68-51.5c9.18-9.2 11.92-23 6.94-34.9l-18.29-43.9c-12.46-29.8-5.62-64.3 17.32-87.1L250.4 28.03c37.5-37.445 98.4-37.445 135.9 0L499.9 141.3c29.4 29.3 35.7 72.9 18.2 108.4-12.5-8.7-27.2-15.4-42.9-19.8 8.6-17.8 5.5-40.8-9.3-54.7L352.3 61.92c-18.8-18.72-49.2-18.72-68 0L158 187.9zM560 384c0 70.7-57.3 128-128 128s-128-57.3-128-128 57.3-128 128-128 128 57.3 128 128zm-208 0c8.8 0 16-7.2 16-16s-7.2-16-16-16-16 7.2-16 16 7.2 16 16 16zm64 64c-8.8 0-16 7.2-16 16s7.2 16 16 16 16-7.2 16-16-7.2-16-16-16zm16-48c8.8 0 16-7.2 16-16s-7.2-16-16-16-16 7.2-16 16 7.2 16 16 16zm80-16c-8.8 0-16 7.2-16 16s7.2 16 16 16 16-7.2 16-16-7.2-16-16-16zm-64-64c8.8 0 16-7.2 16-16s-7.2-16-16-16-16 7.2-16 16 7.2 16 16 16z"/></svg>