<svg xmlns="http://www.w3.org/2000/svg" viewBox="0 0 576 512"><!--! Font Awesome Pro 6.1.1 by @fontawesome - https://fontawesome.com License - https://fontawesome.com/license (Commercial License) Copyright 2022 Fonticons, Inc.--><path d="M544 191.1h-13.53c-11.17-24.4-28.77-46-51.37-62.5V63.97l-16-.87c-46.63 0-83.13 27.25-89.38 32H223.1c-41.38 0-82.63 17.38-111.8 45.88-21.45 22.72-37.57 51.12-44.2 82.12l-11.12.9c-14.87 0-26.49-13.5-23.49-28.8 1.615-8.744 8.51-16.4 19.13-18.61 7.26-1.508 12.36-8.088 12.36-15.5 0-8.945-7.334-16.02-15.85-16.02a15.61 15.61 0 0 0-3.478.396C21.93 150.7 3.52 168.9.472 192.6-3.901 226.7 22.6 256 55.98 256h7.994c0 52.25 25.38 98.13 64 127.3v48.75c0 26.4 21.6 48 48 48h48.01c26.4 0 47.1-21.6 47.1-48v-16h64v16c0 26.4 21.6 48 48 48h48.01c26.4 0 48-21.6 48-48l.001-48.73c11.63-9 22.45-19.52 31.32-31.27h32.68C561.6 352 576 337.6 576 319.1v-96c0-16.7-14.4-32-32-32zM527.1 304h-40.65l-14.4 19.07c-5.807 7.688-13.32 15.12-22.33 22.1l-18.62 14.41V432h-48.01v-64H223.1v64h-48.01v-72.67l-19.1-14.4C128.3 323.4 111.1 290.1 111.1 256v-12.9l2.121-10.2c4.537-21.83 15.49-41.74 31.7-57.58C166.4 156 195.6 143.1 223.1 143.1h166.8l12.88-9.785c7.395-5.621 17.29-11.44 28.34-15.71v33.96l18.99 14.41c15.71 11.92 28.01 27.3 35.59 44.49l12.62 28.65h28.8V304zm-104-96.9c-13.25 0-24 10.74-24 24 0 13.25 10.75 24 24 24s24-10.75 24-24c0-12.4-9.8-24-24-24z"/></svg>