<svg xmlns="http://www.w3.org/2000/svg" viewBox="0 0 576 512"><!--! Font Awesome Pro 6.1.1 by @fontawesome - https://fontawesome.com License - https://fontawesome.com/license (Commercial License) Copyright 2022 Fonticons, Inc.--><path d="M196.6 97.83c-12.5-4.42-19-18.13-14.6-30.63C195.8 28.08 233.1 0 277.1 0c43 0 81.2 28.08 95 67.2 4.4 12.5-3 26.21-14.6 30.63-13.4 4.37-26.2-2.13-30.6-14.63C319.6 62.66 300 48 277.1 48c-23 0-42.6 14.66-49.8 35.2-4.5 12.5-18.2 19-30.7 14.63zM400 264c0-13.3 10.7-24 24-24s24 10.7 24 24-10.7 24-24 24-24-10.7-24-24zM224 128h152.4c17.6-19.6 43.2-32 71.6-32h17.3c15.6 0 27 14.7 23.2 29.8l-8.5 33.3c21.1 17.4 39.6 39.4 50.7 64.9H544c17.7 0 32 14.3 32 32v96c0 17.7-14.3 32-32 32h-32c-12.9 17.2-29.3 31.8-48 42.6V464c0 26.5-21.5 48-48 48h-48c-26.5 0-48-21.5-48-48v-16h-48v16c0 26.5-21.5 48-48 48h-48c-26.5 0-48-21.5-48-48v-48c-37.02-27.8-61.58-71.3-63.83-120.6C27.99 290.9 0 259.1 0 222.6c0-27.9 15.72-53.3 40.6-65.7l4.67-2.4c11.85-5.9 26.27-1.1 32.2 10.8 5.92 11.8 1.12 26.2-10.74 32.2l-4.67 2.3C53.44 204.1 48 212.9 48 222.6c0 12.5 9.13 23 21.13 25C87.02 178.8 149.6 128 224 128zm0 48c-61.9 0-112 50.1-112 112 0 36.6 17.5 69.1 44.8 89.6 12.1 9.1 19.2 23.3 19.2 38.4v48h48v-16c0-26.5 21.5-48 48-48h48c26.5 0 48 21.5 48 48v16h48v-37.4c0-17.1 9.1-33 23.1-41.6 14-7.5 25.5-17.7 34.5-29.8 9.1-12.1 23.3-19.2 38.4-19.2h16v-64.1c-18-1-34.9-12-41.3-28.7-7.8-17.8-20.1-34.1-35.5-44.8-15.5-11.6-22.4-31.3-17.8-50.1l.6-2.2c-8.5 2.5-16 7.4-21.8 13.9-9.1 10.2-22.1 16-35.8 16H224z"/></svg>