<svg xmlns="http://www.w3.org/2000/svg" viewBox="0 0 512 512"><!--! Font Awesome Pro 6.1.1 by @fontawesome - https://fontawesome.com License - https://fontawesome.com/license (Commercial License) Copyright 2022 Fonticons, Inc.--><path d="M424 224H272V24c0-13.26-10.7-24-24-24s-24 10.74-24 24v24H79.78C35.78 48 0 83.78 0 127.8c0 34.4 21.94 64.8 54.56 75.7L96 217.3V464c0 26.5 21.5 48 48 48h64c26.47 0 48-21.53 48-48v-8c0-26.47 21.53-48 48-48s48 21.53 48 48v8c0 26.47 21.53 48 48 48h64c26.47 0 48-21.53 48-48V312c0-48.5-39.5-88-88-88zm-191.2 46.3c2.4 1.2 4.8 1.7 7.2 1.7h184c19.36 0 34.78 14.08 38.46 32.36-1.916.191-3.848.441-5.611 1.324L432 318.1l-24.84-12.44a16.012 16.012 0 0 0-14.31 0L368 318.1l-24.84-12.44a16.012 16.012 0 0 0-14.31 0L304 318.1l-24.84-12.44a16.012 16.012 0 0 0-14.31 0L240 318.1l-24.8-12.4a16.012 16.012 0 0 0-14.31 0L176 318.1l-24.8-12.4c-2.3-1.1-4.7-1.7-7.2-1.7v-46.1l24.84 12.44c4.5 2.25 9.812 2.25 14.31 0L208 257.9l24.8 12.4zm-105.2-93.1-57.85-19.3c-13-4.3-21.75-16.4-21.75-30.1C48 110.3 62.25 96 79.78 96H224v134.1l-8.8-4.4a16.012 16.012 0 0 0-14.31 0L176 238.1l-24.8-12.4c-2.3-1.1-4.7-1.7-7.2-1.7v-24c0-10.3-6.6-19.5-16.4-22.8zM208 456v8h-64v-46.13l24.84 12.44c4.5 2.25 9.812 2.25 14.31 0L208 417.9l6.752 3.379C210.5 432.1 208 443.7 208 456zm256 8h-64v-8c0-12.28-2.527-23.94-6.75-34.75l6.75-3.35 24.84 12.44c4.5 2.25 9.812 2.25 14.31 0L464 417.9V464zm0-80c-2.453 0-4.906.563-7.156 1.688L432 398.1l-24.84-12.44a16.012 16.012 0 0 0-14.31 0l-16.3 8.148C358.9 373.3 333.1 360 304 360s-54.93 13.3-72.55 33.84l-16.3-8.148a16.012 16.012 0 0 0-14.31 0L176 398.1l-24.84-12.44C148.9 384.6 146.5 384 144 384v-46.13l24.84 12.44c4.5 2.25 9.812 2.25 14.31 0L208 337.9l24.84 12.44c4.5 2.25 9.812 2.25 14.31 0L272 337.9l24.84 12.44c4.5 2.25 9.812 2.25 14.31 0L336 337.9l24.84 12.44c4.5 2.25 9.812 2.25 14.31 0L400 337.9l24.84 12.44c4.5 2.25 9.812 2.25 14.31 0L464 337.9V384zM176 168c13.25 0 24-10.75 24-24 0-13.26-10.75-24-24-24s-24 10.7-24 24 10.7 24 24 24z"/></svg>