<svg xmlns="http://www.w3.org/2000/svg" viewBox="0 0 448 512"><!--! Font Awesome Pro 6.1.1 by @fontawesome - https://fontawesome.com License - https://fontawesome.com/license (Commercial License) Copyright 2022 Fonticons, Inc.--><path d="m395.1 385.6-228-172.4c-18.4-13.8-40.5-22.1-63.3-22.1-43.57 0-84.28 27.16-98.61 69.83C1.739 272.3 0 282.1 0 293.7c0 10.23 3.675 74.86 71.69 96.5l274.5 87.33C351.5 479.2 357 480 362.5 480c17.93 0 53.54-13.74 53.54-52.44-.94-27.36-20.94-41.26-20.94-41.96zM368 427.4c0 .1 0 0 0 0 0 2.218-2.137 4.59-5.438 4.59a6.02 6.02 0 0 1-1.852-.28l-274.5-87.33C49.96 332.9 48.03 299 48.03 293.6c0-40.64 38.12-53.59 55.67-53.59 12.15 0 24.18 3.767 34.48 11.47l227.1 172.4c2.62 1.42 2.72 2.22 2.72 3.52zM104 272c-13.26 0-24 10.7-24 23.1 0 14.2 10.74 24.9 24 24.9s24-10.7 24-24.9c0-12.4-10.7-23.1-24-23.1zM352 32c-53.02 0-96 42.98-96 96s42.98 96 96 96 96-42.98 96-96-43-96-96-96zm0 144c-26.47 0-48-21.53-48-48s21.53-48 48-48 48 21.53 48 48-21.5 48-48 48z"/></svg>