<svg xmlns="http://www.w3.org/2000/svg" viewBox="0 0 512 512"><!--! Font Awesome Pro 6.1.1 by @fontawesome - https://fontawesome.com License - https://fontawesome.com/license (Commercial License) Copyright 2022 Fonticons, Inc.--><path d="M511.6 98.91c1.574-4.977-1.377-10.39-6.588-12.1L479.8 78.57c10-10.29 16.2-24.26 16.2-39.72V27.43c0-6.311-5.117-11.43-11.43-11.43h-11.43c-15.01 0-28.56 5.91-38.76 15.38l-7.668-24.24c-1.678-5.305-7-8.309-11.89-6.707-17.27 5.662-30.42 18.48-37.74 34.55l-18.21-18.19c-3.762-3.756-9.672-3.947-13.2-.424-18.73 18.71-22.41 46.97-11.63 71.02C309.8 71.94 282 64 254.3 64c-38.2 0-76.4 14.55-105.5 43.7L43.67 212.8c-58.22 58.22-58.22 152.6-.002 210.8l44.66 44.66C117.4 497.4 155.6 512 193.7 512s76.31-14.56 105.4-43.67l105.2-105.2c50.34-50.34 56.95-127.6 20.23-185.3 24.13 10.87 52.53 7.238 71.31-11.52 3.529-3.523 3.338-9.424-.426-13.18L478.9 136.7c15.2-7.6 27.3-20.7 32.7-37.79zM370.4 329.2 265.2 434.4c-19.1 19.1-44.4 29.6-71.5 29.6s-52.39-10.52-71.48-29.61l-44.66-44.66c-39.41-39.41-39.41-103.5.002-142.1l105.2-105.2C201.9 122.5 227.2 112 254.3 112s52.39 10.51 71.48 29.61l44.66 44.66C389.5 205.4 400 230.7 400 257.7c0 27.1-10.5 52.4-29.6 71.5zm-199.1-36.5c-6.25-6.25-16.38-6.25-22.62 0L128 313.4l-20.7-20.7c-6.25-6.25-16.38-6.25-22.62 0s-6.25 16.38 0 22.62l32 32C119.8 350.4 123.9 352 128 352s8.188-1.562 11.31-4.688l32-32c6.29-6.212 6.29-16.412-.01-22.612zm137.4 0L288 313.4l-20.69-20.69c-6.25-6.25-16.38-6.25-22.62 0s-6.25 16.38 0 22.62l32 32C279.8 350.4 283.9 352 288 352s8.188-1.562 11.31-4.688l32-32c6.25-6.25 6.25-16.38 0-22.62s-16.41-6.292-22.61.008zm-112-25.4c3.1 3.1 7.2 4.7 11.3 4.7s8.188-1.562 11.31-4.688l32-32c6.25-6.25 6.25-16.38 0-22.62s-16.38-6.25-22.62 0L208 233.4l-20.7-20.7c-6.25-6.25-16.38-6.25-22.62 0s-6.25 16.38 0 22.62l32.02 31.98zm32 105.4L208 393.4l-20.69-20.69c-6.25-6.25-16.38-6.25-22.62 0s-6.25 16.38 0 22.62l32 32C199.8 430.4 203.9 432 208 432s8.188-1.562 11.31-4.688l32-32c6.25-6.25 6.25-16.38 0-22.62s-16.41-6.292-22.61.008z"/></svg>