<svg xmlns="http://www.w3.org/2000/svg" viewBox="0 0 576 512"><!--! Font Awesome Pro 6.1.1 by @fontawesome - https://fontawesome.com License - https://fontawesome.com/license (Commercial License) Copyright 2022 Fonticons, Inc.--><path d="M176 328c0 13.25 10.75 24 23.1 24s23.1-10.75 23.1-24-8.9-24-22.2-24-24 10.8-24 24zm39.1-184.9c-13.25 0-24 10.76-24 24.01s10.76 24.01 24 24.01 24-10.76 24-24.01-9.9-24.01-24-24.01zm308.1-43c-3-3.875-7.625-5.993-12.37-5.993-4.375 0-8.5 1.827-11.62 4.827L342.3 256l156.9 157c3.125 3.125 7.25 4.868 11.62 4.868 4.748 0 9.373-2.243 12.37-5.993 35.16-45.97 52.75-100.1 52.78-155.9C576 201 558.4 146.2 523.2 100.1zm-67.3 201.8L409.1 256l45.75-45.63c5.75 14.43 8.25 29.53 8.25 45.63.8 15.6-2 31.1-7.2 45.9zm49.2 49.1-24.25-24.25c20.25-45 20.12-96.5-.125-141.5L505.1 161c30.5 59.6 30.5 130.4 0 190zm-248.8-95L425.6 86.9c6.375-6.5 6.375-17.38-.5-23.38C378.48 22.52 318.3-.1 256.3.02c-81.12 0-161.9 38.22-213.6 114.8C14.28 156.1 0 206.5 0 255.1c0 49.5 14.28 99.03 42.72 141.2C94.34 473.8 175.4 512 256.5 512c61.99.125 121.8-22.49 168.4-63.49 6.875-6 7.04-16.88.665-23.38L256.3 256zm-67.7 0L318 385.4c-19.25 9.5-40.33 14.51-61.83 14.63-79.37 0-144.2-64.63-144.2-144s64.62-144 143.1-144c21.5.125 42.74 5.125 61.99 14.62L188.6 256zm67.9 208c-70.49 0-133.9-34.13-173.1-93.63-46.24-68.38-46.24-160.3 0-228.6 40.12-59.63 103.4-93.75 173.9-93.75 38.5 0 76.49 10.63 109.2 30.88l-23.75 23.88c-26.25-14.88-55.62-22.76-85.74-22.76C158.9 79.99 80.02 158.8 80.02 256s78.87 176 176.1 176c30.12 0 59.49-7.881 85.74-22.76l23.75 23.88C332.9 453.4 295 464 256.5 464z"/></svg>