<svg xmlns="http://www.w3.org/2000/svg" viewBox="0 0 512 512"><!--! Font Awesome Pro 6.1.1 by @fontawesome - https://fontawesome.com License - https://fontawesome.com/license (Commercial License) Copyright 2022 Fonticons, Inc.--><path d="M158.9.14c-1.1-.124-2.1-.14-3.3-.14-15-.123-28.15 9.889-32.15 24.26L.51 491.7c-1.25 4.875-.237 9.955 2.888 13.96 3 3.94 7.672 6.34 12.672 6.34 1.5 0 2.977-.233 4.352-.608l467.7-129.6c15.75-4.374 25.5-19.75 23.63-35.87C490.9 165.1 340.8 17.39 158.9.142zM61.02 450.4l81.75-310.5c122.1 20.5 206.1 103.4 228.4 224.5l-310.15 86zm356.48-98.9c-27-136.5-124.9-233-262.5-258l11.62-44.13c148.7 19.75 272.9 141.3 295.7 289.6L417.5 351.5zM192 192c-17.62 0-31.1 14.38-31.1 32s14.38 32 31.1 32c17.62 0 32-14.38 32-32s-14.4-32-32-32zm-32 128c-17.62 0-32.03 14.38-32.03 32.01s14.38 31.1 32 31.1c17.62 0 32.02-14.38 32.02-32.01S177.6 320 160 320zm96 0c0 17.62 14.38 32 32 32s32-14.38 32-32-14.38-32-32-32-32 14.4-32 32z"/></svg>