<svg xmlns="http://www.w3.org/2000/svg" viewBox="0 0 640 512"><!--! Font Awesome Pro 6.1.1 by @fontawesome - https://fontawesome.com License - https://fontawesome.com/license (Commercial License) Copyright 2022 Fonticons, Inc.--><path d="M320 0c6.8 0 13.3 2.888 17.8 7.945l67.9 75.435c6.6 7.35 10.3 16.92 10.3 26.72v75.4l38.4 24.9c16 10.3 25.6 28 25.6 47V464h88c13.3 0 24-10.7 24-24v-69.9c0-9-4.1-15.7-11-21l-69-43.8v-57.2l95.1 61.6c20.5 13.2 32.9 36 32.9 60.4V440c0 39.8-32.2 72-72 72H72c-39.76 0-72-32.2-72-72v-69.9c0-24.4 12.38-47.2 32.89-60.4L128 248.1v57.2l-69.04 43.8c-6.83 5.3-10.96 12-10.96 21V440c0 13.3 10.75 24 24 24h88V257.4c0-19 9.6-36.7 25.6-47l38.4-24.9v-75.4c0-9.8 3.7-19.37 10.3-26.72l67.9-75.435C306.7 2.888 313.2 0 320 0zm-48 113.2v85.4c0 8.1-4.1 15.7-11 20.1l-49.3 32c-2.3 1.5-3.7 4-3.7 6.7V464h64v-96c0-26.5 21.5-48 48-48s48 21.5 48 48v96h64V257.4c0-2.7-1.4-5.2-3.7-6.7l-50.2-32c-6-4.4-10.1-12-10.1-20.1v-85.4l-48-53.32-48 53.32z"/></svg>