<svg xmlns="http://www.w3.org/2000/svg" viewBox="0 0 512 512"><!--! Font Awesome Pro 6.1.1 by @fontawesome - https://fontawesome.com License - https://fontawesome.com/license (Commercial License) Copyright 2022 Fonticons, Inc.--><path d="M280 512h-48V240c0-35.3-28.7-64-64-64s-64 28.7-64 64v18.7c33.9 8 56 33.6 56 72.4 0 28-35.8 79.4-80 116.9-44.17-37.5-80-87.6-80-116.9 0-38.8 22.11-64.4 56-72.4V240c0-61.9 50.1-112 112-112 23.8 0 45.9 7.4 64 20.1V112C232 50.14 282.1 0 344 0s112 50.14 112 112v18.7c33.9 8 56 33.6 56 72.4 0 28-35.8 79.4-80 116.9-44.2-37.5-80-87.6-80-116.9 0-38.8 22.1-64.4 56-72.4V112c0-35.35-28.7-64-64-64s-64 28.65-64 64v400zM48 331.1c0-.2.03-.1.15.3.59 2 3.37 11.3 14.73 27.7 4.89 7 10.66 14.4 17.09 21.7 6.44-7.4 12.22-14.7 17.12-22.7 11.11-15.2 14.01-24.4 14.71-26.6-.7-.5.2-.6.2-.4 0-11.9-3.8-17.2-6.7-19.8-3.2-2.9-9.91-6.7-22.24-7.2-1.01.1-2.02.2-3.06.2-1.03 0-2.05-.1-3.05-.2-12.34.5-19.08 4.3-22.28 7.2-2.9 2.6-6.67 7.9-6.67 19.8zm409.3-147.8c-3.4-3.2-11-7.3-25.3-7.3s-21.9 4.1-25.3 7.3c-2.9 2.6-6.7 7.9-6.7 19.8 0-.2 0-.1.1.3.6 2 3.4 11.3 14.8 27.7 4.9 7 10.6 14.4 16.2 21.7 7.3-7.4 13.1-14.7 18-22.7 11.1-15.2 14-24.4 14.7-26.6-.7-.5.2-.6.2-.4 0-11.9-3.8-17.2-6.7-19.8z"/></svg>