<svg xmlns="http://www.w3.org/2000/svg" viewBox="0 0 640 512"><!--! Font Awesome Pro 6.1.1 by @fontawesome - https://fontawesome.com License - https://fontawesome.com/license (Commercial License) Copyright 2022 Fonticons, Inc.--><path d="M236.4 159.1 198.6 41c-3-9-1-20 4.9-28 6-8 16-13 26-13h64.9c11 0 23 7 27 16l99.8 160h74c38.9 0 112.8 32 112.8 80 0 49-73.9 80-111.8 80h-36.1l170.7 133.1c10.4 8.2 12.3 23.3 4.1 33.7-8.2 10.4-23.3 12.3-33.7 4.1L9.196 42.89C-1.236 34.71-3.065 19.63 5.112 9.196 13.29-1.236 28.37-3.065 38.81 5.112L236.4 159.1zm66.2 52.8 97.1 76.1h95.5c26.9 0 62.9-21 63.9-32-2-10-38-32-63.9-32h-99.9L285.4 48h-33.9l51.1 163.9zM32.75 152c-1.92-8.6-.16-18.2 5.29-26.9l48.95 39.4L113.6 256l-27.93 96h26.93l48-64h83.1l47.6 37.5L235.5 464h49.9l59.9-95.9 38.2 30-61.1 97.9c-6 10-16 16-28 16h-64.9c-10 0-20-4-26-12-5.9-8-7.9-19-4.9-29l42.9-135h-57l-38.9 52c-6 8-15 12-25 12H63.7c-8.98 0-18.97-4-24.96-12-5.99-8-7.99-18-4.99-28L63.7 256 32.75 152z"/></svg>