<svg xmlns="http://www.w3.org/2000/svg" viewBox="0 0 576 512"><!--! Font Awesome Pro 6.1.1 by @fontawesome - https://fontawesome.com License - https://fontawesome.com/license (Commercial License) Copyright 2022 Fonticons, Inc.--><path d="m344.7 27.63 5.1 36.45c.7-.05 1.4-.08 2.2-.08h16V48c0-8.84 7.2-16 16-16s16 7.16 16 16v32c8.8 0 16 7.16 16 16 0 8.8-7.2 16-16 16v32c0 8.8-7.2 16-16 16s-16-7.2-16-16v-16h-9.4l6.6 48h93.1c21 0 48.1 6.2 70.4 17.4 20.7 10.4 47.3 30.5 47.3 62.6 0 32.5-26.4 52.6-47.4 63-22.4 11.1-49.5 17-70.3 17h-93.1l-6.6 48h9.4v-16c0-8.8 7.2-16 16-16s16 7.2 16 16v32c8.8 0 16 7.2 16 16s-7.2 16-16 16v32c0 8.8-7.2 16-16 16s-16-7.2-16-16v-16h-16c-.8 0-1.5-.9-2.2-.1l-5.1 36.5C342.5 500.2 329 512 313 512h-42.9c-16 0-28.6-11.8-30.8-27.6l-5-36.4H224c-17.7 0-32-14.3-32-32s14.3-32 32-32h1.4l-7.2-52.4-75.7-9-5.9 34.2c-2.3 15.6-15.8 27.2-32.5 27.2H71c-15.92 0-29.4-11.7-31.67-27.4l-10.67-68.8C12.55 286.2 0 272.5 0 256s12.55-30.2 28.66-31.8l10.67-68.8C41.6 139.7 55.08 128 71 128h33.1c16.7 0 30.2 11.6 32.5 27.2l5.9 34.3 75.7-9.1 7.2-52.4H224c-17.7 0-32-14.3-32-32 0-17.67 14.3-32 32-32h10.3l5-36.37C241.5 11.79 254.1 0 270.1 0H313c16 0 29.5 11.79 31.7 27.63zM316.7 176 299.1 48h-14.2l-17.6 128h49.4zm-31.8 288h14.2l17.6-128h-49.4l17.6 128zm222.4-188c17.4-8.6 20.7-16.5 20.7-20 0-2.9-3.2-10.8-20.8-19.7-16-8-35.7-12.3-48.9-12.3H257.4l-154.5 18.6L91.49 176h-6.78l-12.42 80 12.42 80h6.78l11.41-66.5L257.4 288h200.9c13.4 0 33.2-4.1 49-12z"/></svg>