<svg xmlns="http://www.w3.org/2000/svg" viewBox="0 0 640 512"><!--! Font Awesome Pro 6.1.1 by @fontawesome - https://fontawesome.com License - https://fontawesome.com/license (Commercial License) Copyright 2022 Fonticons, Inc.--><path d="M255.1 0c49 0 80.9 73.89 80.9 111.8v42l86.5 53.9c-16.3 7.5-31.2 17.4-44.4 28.4l-91-55.4v-67.9c0-26.93-21-62.87-32-63.87-10 2-32 37.94-32 63.87v67.9l-176 109.9v33.9l176-54.9v113.8l-64 48v26.9l96-27.9 88.8 24.7c11.3 20.1 26 37 43.5 50.6-7.9 5.7-17.7 7.5-27.4 4.6l-104-30-104 31c-9 1.9-19 0-27-6s-13-16-13-25v-56.9c0-10 5-19 13-25l51-38.9v-25L41 377.4c-9 3-20 1-28-4.9-8-6-13-16-13-26v-64.9c0-11 7-23 16-27l160-99.8v-42C176 73.89 208 0 256 0h-.9zm64 367.5c0 15.2 2.8 30 6.5 44.1l-38.5-28.2V269.6l53 16.3c-12.8 24.3-21 52.1-21 81.6zm32.9.5c0-79.5 64.5-144 144-144s144 64.5 144 144-64.5 144-144 144-144-64.5-144-144zm203.3-36.7c6.3-6.2 6.3-16.4 0-22.6-6.2-6.3-16.4-6.3-22.6 0L496 345.4l-36.7-36.7c-6.2-6.3-16.4-6.3-22.6 0-6.3 6.2-6.3 16.4 0 22.6l36.7 36.7-36.7 36.7c-6.3 6.2-6.3 16.4 0 22.6 6.2 6.3 16.4 6.3 22.6 0l36.7-36.7 36.7 36.7c6.2 6.3 16.4 6.3 22.6 0 6.3-6.2 6.3-16.4 0-22.6L518.6 368l36.7-36.7z"/></svg>