<svg xmlns="http://www.w3.org/2000/svg" viewBox="0 0 640 512"><!--! Font Awesome Pro 6.1.1 by @fontawesome - https://fontawesome.com License - https://fontawesome.com/license (Commercial License) Copyright 2022 Fonticons, Inc.--><path d="M455.1 394.8 137 310.3c-7.4-2-14.4-5.5-20.4-10.3l-95.17-75.6C8.079 213.8.284 197.7.248 180.7L.044 84.59C-.011 58.53 24.47 39.38 49.75 45.7l28.2 7.05a56.099 56.099 0 0 1 38.45 33.53l21.4 53.62 60.8 16.2-31.4-104.61C159.5 25.83 178.7.001 205.5.001h41.1c14.5 0 27.8 7.795 34.9 20.389L385.1 206.1l104.1 27.5c23.8 5.5 45.7 18.4 63.9 35.1l31.8 29.4c31.1 28.6 20 80.2-20.2 93.5-35.5 11.7-73.6 12.8-109.6 3.2zm65.4-90.8c-12.4-11.4-27.4-19.7-43.7-24.9L354 247.2 241.1 48h-24.8l52.9 176.6-167-44.5-30.41-76a7.966 7.966 0 0 0-5.48-4.79l-18.24-4.56.18 85.85c0 2.4 1.12 4.7 3.02 6.3l95.13 75.5c.9.7 1.9 1.2 3 1.5l318 84.5c27.1 7.2 55.6 6.4 82.2-2.4 5.5-1.8 7-8.8 2.8-12.7L520.5 304zM616 464c13.3 0 24 10.7 24 24s-10.7 24-24 24H24c-13.25 0-24-10.7-24-24s10.75-24 24-24h592zm-424-96c0 17.7-14.3 32-32 32s-32-14.3-32-32 14.3-32 32-32 32 14.3 32 32zm32 32c0-17.7 14.3-32 32-32s32 14.3 32 32-14.3 32-32 32-32-14.3-32-32zm-80.8-112.9 6.2-23.2z"/></svg>