<svg xmlns="http://www.w3.org/2000/svg" viewBox="0 0 576 512"><!--! Font Awesome Pro 6.1.1 by @fontawesome - https://fontawesome.com License - https://fontawesome.com/license (Commercial License) Copyright 2022 Fonticons, Inc.--><path d="M381.2 176h82c38.9 0 112.8 32 112.8 80 0 49-73.9 80-111.8 80h-82l-32 51.3c10.5 5.2 17.8 16.1 17.8 28.7 0 17.7-14.3 32-32 32h-23.7l-29.9 48c-6 10-16 16-28 16h-64.9c-10 0-20-4-26-12-5.9-8-7.9-19.9-4.9-29l42.9-135h-49l-38.9 52c-6 8-14.99 12-24.98 12H31.7c-8.98 0-18.97-4-24.96-12-5.991-8-7.988-18-4.992-28l21.122-73.3C9.644 282.7 0 270.5 0 256c0-14.4 9.513-26.6 22.6-30.6L.749 152c-1.997-9 0-19 5.991-27 5.99-8 15.98-13 24.96-13h56.92c9.99 0 18.98 5 24.98 13l38.9 51h49L158.6 41c-3-9-1-20 4.9-28 6-8 16-13 26-13h64.9c11 0 23 7 27 16l29.9 48H336c17.7 0 32 14.33 32 32 0 12.9-7.6 23.1-18.6 29.1l31.8 50.9zm-25.9 112h107.9c26.9 0 62.9-21 63.9-32-2-10-38-32-63.9-32H355.3L245.4 48h-33.9l54.9 176H128.6l-47.97-64H53.67l27.96 96-27.96 96h26.96l47.97-64h137.8l-54.9 176h33.9l109.9-176z"/></svg>