<svg xmlns="http://www.w3.org/2000/svg" viewBox="0 0 576 512"><!--! Font Awesome Pro 6.1.1 by @fontawesome - https://fontawesome.com License - https://fontawesome.com/license (Commercial License) Copyright 2022 Fonticons, Inc.--><path d="M576 256c0 49-73.9 80-111.8 80h-82l-99.8 160c-6 10-16 16-28 16h-64.9c-10 0-20-4-26-12-5.9-8-7.9-19.9-4.9-29l42.9-135h-49l-38.9 52c-6 8-14.99 12-24.98 12H31.7c-8.98 0-18.97-4-24.96-12-5.992-8-7.988-18-4.993-28L31.7 256 .749 152c-1.997-9 0-19 5.991-27 5.99-8 15.98-13 24.96-13h56.92c9.99 0 18.98 5 24.98 13l38.9 51h49L158.6 41c-3-9-1-20 4.9-28 6-8 16-13 26-13h64.9c11 0 23 7 27 16l99.8 160h82c38.9 0 112.8 32 112.8 80zm-48.9 0c-2-10-38-32-63.9-32H355.3L245.4 48h-33.9l54.9 176H128.6l-47.97-64H53.67l27.96 96-27.96 96h26.96l47.97-64h137.8l-54.9 176h33.9l109.9-176h107.9c26.9 0 62.9-21 63.9-32z"/></svg>