<svg xmlns="http://www.w3.org/2000/svg" viewBox="0 0 576 512"><!--! Font Awesome Pro 6.1.1 by @fontawesome - https://fontawesome.com License - https://fontawesome.com/license (Commercial License) Copyright 2022 Fonticons, Inc.--><path d="M64 0h76.9c17.3 0 33.9 7.025 46 19.47L416 256h104c13.3 0 24 10.7 24 24s-10.7 24-24 24H296.7c-3.6 0-7.2.5-10.7 1.4L90.7 359.3c-6.32 1.8-11.6 7.5-11.6 14.1 0 6 4.64 11.5 10.31 13.6l196.09 74.4c4.6 1.7 9.4 2.6 14.2 2.6H520c13.3 0 24 10.7 24 24s-10.7 24-24 24H299.7c-10.6 0-21.2-1.9-31.2-5.7L72.38 431.9c-24.31-9.2-41.28-32.5-41.28-58.5 0-28.2 19.7-52.9 46.83-60.3l15.54-4.3L32.78 39.02C28.28 19.02 43.49 0 63.1 0h.9zm328 352c13.3 0 24 10.7 24 24s-10.7 24-24 24H248c-13.3 0-24-10.7-24-24s10.7-24 24-24h144z"/></svg>