<svg xmlns="http://www.w3.org/2000/svg" viewBox="0 0 640 512"><!--! Font Awesome Pro 6.1.1 by @fontawesome - https://fontawesome.com License - https://fontawesome.com/license (Commercial License) Copyright 2022 Fonticons, Inc.--><path d="m375.1 104 73-38.65C470.7 53.95 494.9 48 519.5 48h50.8c46.3 0 76.9 48.1 57.4 90.1-21.7 46.3-57.9 84.3-103.2 108L274.1 377.6c-8 4.2-16.9 6.4-26 6.4H126.7c-16.3 0-31.86-7.1-42.5-19.6l-73.09-85.2C-5.821 259.4.32 229 23.6 217.4l32.16-16.1c14.97-7.5 32.5-7.9 47.74-1.1l47.6 21.2 40.9-21.5-106.68-67.1c-27.43-17.3-24-58.35 5.93-70.82l43.85-18.65c21-8.39 43.6-9 64.2-1.7L375.1 104zm-252-3.6 165.1 103.4-135.3 70.8-68.85-30.5c-2.18-1-4.69-.9-6.82.1l-23 11.5 66.37 77.5c1.6.9 3.8 2.8 6.1 2.8h121.4c1.3 0 2.6-.3 3.7-.9l250.4-131.5c36-18.9 63.9-49 82-85.8 4.7-10.2-2.7-22.7-13.9-22.7h-50.8c-16.8 0-33.4 5-48.3 12.8l-92.4 48.4-195.6-69.43c-9.3-3.32-19.6-3.05-28.7.77l-31.4 12.76zM616 464c13.3 0 24 10.7 24 24s-10.7 24-24 24H24c-13.25 0-24-10.7-24-24s10.75-24 24-24h592zM66.49 222.8l-10.73-21.5 10.73 21.5zM84.2 364.4l17.6-15z"/></svg>