<svg xmlns="http://www.w3.org/2000/svg" viewBox="0 0 576 512"><!--! Font Awesome Pro 6.1.1 by @fontawesome - https://fontawesome.com License - https://fontawesome.com/license (Commercial License) Copyright 2022 Fonticons, Inc.--><path d="M512 0c-35.38 0-64 28.62-64 64s28.62 63.1 64 63.1 64-28.62 64-63.1-28.6-64-64-64zM224 64C100.2 64 0 164.2 0 288s100.2 224 224 224 224-100.2 224-224S347.8 64 224 64zm0 400c-97 0-176-79-176-176 0-26.62 6.125-53 17.88-76.88C71.12 219.1 80.12 224 89.75 224h25c8.5 0 16.62 3.375 22.62 9.375L192 288v32c0 17.62 14.38 32 32 32v63.13c0 4.5 1.875 8.75 5.25 11.88 3.375 3 7.875 4.5 12.38 4 3.5-.375 7-.75 10.38-1.375 9-1.5 16.88-7.25 20.88-15.5l40.37-80.63C317.6 324.6 320 314.9 320 304.9V288c0-17.62-14.38-32-32-32h-64.5c-10 0-19.38-3.875-26.38-10.88-11.92-11.92-12.62-31.02-1.62-43.62l49.75-57.38c5.85-8.72 7.85-18.92 9.85-29.22C337.4 129.6 400 201.6 400 288c0 97-79 176-176 176z"/></svg>