<svg xmlns="http://www.w3.org/2000/svg" viewBox="0 0 640 512"><!--! Font Awesome Pro 6.1.1 by @fontawesome - https://fontawesome.com License - https://fontawesome.com/license (Commercial License) Copyright 2022 Fonticons, Inc.--><path d="M256 .001c49 0 80 73.889 80 111.799v42l96.1 60c-8.5 14-14 30-15.6 47.1L288 180.7v-67.9c0-26.93-21-62.87-32-63.87-10 2-32 37.94-32 63.87v67.9L48 290.6v33.9l176-54.9v113.8l-64 48v26.9l96-27.9 96 27.9v-26.9l-64-48V269.6l115.4 36c-11.6 11.3-18.9 26.9-19.4 44.2l-48-15.3v25l48 35.9v83.9c0 8.9 1.8 17.4 5.1 25.1-.3.3-.7-.3-1.1.9-8 6-18 7.9-28 5l-104-30-104 31c-9 1.9-19 0-27-6s-13-16-13-25v-56.9c0-10 5-19 13-25l51-38.9v-25L41 377.4c-9 3-20 1-28-4.9-8-6-13-16-13-26v-64.9c0-11 7-23 16-27l160-99.8v-42C176 73.89 208 0 256 0v.001zM528 192c44.2 0 80 35.8 80 80v48c17.7 0 32 14.3 32 32v128c0 17.7-14.3 32-32 32H448c-17.7 0-32-14.3-32-32V352c0-17.7 14.3-32 32-32v-48c0-44.2 35.8-80 80-80zm0 48c-17.7 0-32 14.3-32 32v48h64v-48c0-17.7-14.3-32-32-32z"/></svg>