<svg xmlns="http://www.w3.org/2000/svg" viewBox="0 0 512 512"><!--! Font Awesome Pro 6.1.1 by @fontawesome - https://fontawesome.com License - https://fontawesome.com/license (Commercial License) Copyright 2022 Fonticons, Inc.--><path d="M256 0c48.1 0 80 73.89 80 111.8v42l160 99.8c10 6 16 16 16 28v64.9c0 10-4 20-12 26-8 5.9-19.9 7.9-29 4.9l-135-42.9v25l52 38.9c8 6 12 15 12 25v56.9c0 9-4 19-12 25s-18 7.9-28 5l-104-30-104 31c-9 1.9-19 0-27-6s-13-16-13-25v-56.9c0-10 5-19 13-25l51-38.9v-25L41 377.4c-9 3-20 1-28-4.9-8-6-13-16-13-26v-64.9c0-11 7-23 16-27l160-99.8v-42C176 73.89 208 0 256 0zm0 48.93c-10 2-32 37.94-32 63.87v67.9L48 290.6v33.9l176-54.9v113.8l-64 48v26.9l96-27.9 96 27.9v-26.9l-64-48V269.6l176 54.9v-33.9L288 180.7v-67.9c0-26.93-21-62.87-32-63.87z"/></svg>