<svg xmlns="http://www.w3.org/2000/svg" viewBox="0 0 640 512"><!--! Font Awesome Pro 6.1.1 by @fontawesome - https://fontawesome.com License - https://fontawesome.com/license (Commercial License) Copyright 2022 Fonticons, Inc.--><path d="M630.8 469.1c10.4 8.2 12.3 23.3 4.1 33.7-8.2 10.4-23.3 12.3-33.7 4.1L9.196 42.89C-1.236 34.71-3.065 19.63 5.112 9.196 13.29-1.236 28.37-3.065 38.81 5.112L630.8 469.1zM576 346.5c0 5.8-1.4 11.6-4.1 16.7L528 328.5v-37.9L352 180.7v-67.9c0-26.93-21-62.87-32-63.87-10 2-32 37.94-32 63.87V139l-47.3-37.3C245.8 61.34 276.3 0 320 0c49 0 80 73.89 80 111.8v42l160 99.8c10 6 16 16 16 28v64.9zM148.2 212.1l39.5 31.2-75.7 47.3v33.9l128-39.9 48 37.9v60.9l-64 48v26.9l96-27.9 96 27.9v-34.8l48 37.9v18.9c0 9-4 19-12 25s-18 7.9-28 5l-104-30-104 31c-9 1.9-19 0-27-6s-13-16-13-25v-56.9c0-10 5-19 13-25l51-38.9v-25l-135 42.9c-9 3-20 1-28-4.9-8-6-13-16-13-26v-64.9c0-11 7-23 16-27l68.2-42.5z"/></svg>