<svg xmlns="http://www.w3.org/2000/svg" viewBox="0 0 512 512"><!--! Font Awesome Pro 6.1.1 by @fontawesome - https://fontawesome.com License - https://fontawesome.com/license (Commercial License) Copyright 2022 Fonticons, Inc.--><path d="M256 112v16c0 8.8-7.2 16-16 16-44.2 0-80-35.8-80-80V48c0-8.84 7.2-16 16-16 44.2 0 80 35.82 80 80zM104 64c13.3 0 24 10.75 24 24 0 13.3-10.7 24-24 24H56c-13.25 0-24-10.7-24-24 0-13.25 10.75-24 24-24h48zm32 72c13.3 0 24 10.7 24 24s-10.7 24-24 24H24c-13.25 0-24-10.7-24-24s10.75-24 24-24h112zM32 232c0-13.3 10.75-24 24-24h48c13.3 0 24 10.7 24 24s-10.7 24-24 24H56c-13.25 0-24-10.7-24-24zM272 48c0-8.84 7.2-16 16-16 44.2 0 80 35.82 80 80v16c0 8.8-7.2 16-16 16-44.2 0-80-35.8-80-80V48zm208 64v16c0 8.8-7.2 16-16 16-44.2 0-80-35.8-80-80V48c0-8.84 7.2-16 16-16 44.2 0 80 35.82 80 80zm0 96c0 44.2-35.8 80-80 80-8.8 0-16-7.2-16-16v-16c0-44.2 35.8-80 80-80 8.8 0 16 7.2 16 16v16zm-128-32c8.8 0 16 7.2 16 16v16c0 44.2-35.8 80-80 80-8.8 0-16-7.2-16-16v-16c0-44.2 35.8-80 80-80zm-96 32c0 44.2-35.8 80-80 80-8.8 0-16-7.2-16-16v-16c0-44.2 35.8-80 80-80 8.8 0 16 7.2 16 16v16zM32 320h448c17.7 0 32 14.3 32 32 0 59.7-40.9 109.9-96.2 124 .1 1.3.2 2.7.2 4 0 17.7-14.3 32-32 32H128c-17.7 0-32-14.3-32-32 0-1.3.08-2.7.24-4C40.91 461.9 0 411.7 0 352c0-17.7 14.33-32 32-32zm371.9 109.5c29.5-8.4 52.4-31.5 58.5-61.5H49.6c6.1 30 29.01 53.1 58.5 61.5 17.4 3.6 30.3 18 34.6 34.5h226.6c4.3-16.5 17.2-30.9 34.6-34.5z"/></svg>