<svg xmlns="http://www.w3.org/2000/svg" viewBox="0 0 640 512"><!--! Font Awesome Pro 6.1.1 by @fontawesome - https://fontawesome.com License - https://fontawesome.com/license (Commercial License) Copyright 2022 Fonticons, Inc.--><path d="M624.3 18.08c3.1 1.33 6 3.27 8.3 5.71 2.4 2.43 4.3 5.31 5.6 8.47 1.2 3.17 1.8 6.54 1.8 9.95V472c0 6.4-2.5 12.5-7.9 16.1-3.6 5.4-9.7 7.9-16.1 7.9-6.4 0-12.5-2.5-17-7.9-4.5-3.6-7-9.7-7-16.1V320h-29.1c-6.8-.1-13.5-1.5-19.7-4.2-6.3-2.7-12-6.7-16.7-11.6-4.7-4.9-8.4-10.6-10.9-17-2.5-6.3-3.7-13.1-3.6-19.9l.4-109.1c-.2-29.9 8.4-59.2 24.9-84.18 16.4-24.97 39.9-44.51 67.5-56.13 3-1.25 6.3-2.79 9.6-1.89 3.4.03 6.8.74 9.9 2.07v.01zM592 82.78c-10.9 9.83-18 21.52-23.4 34.52-5.4 13-8.1 26.9-8 40.9l-.6 109.4c-.1 1.3.4 2.6 1.3 3.6.2.3.5.5.8.6.2.1.5-.7.8.2H592V82.78zM159.6 207.6c-10.5 10.5-24.8 15.5-39.6 16.4h-8v248c0 6.4-2.5 12.5-7.9 16.1-3.6 5.4-9.73 7.9-16.1 7.9-6.37 0-12.47-2.5-16.97-7.9-4.5-3.6-7.03-9.7-7.03-16.1V224h-8c-14.85-.9-29.08-5.9-39.58-16.4C5.923 197.1.017 182.8 0 168V40a23.997 23.997 0 0 1 40.97-16.97A24.01 24.01 0 0 1 48 40v128c0 2.1.84 4.2 2.34 5.7S53.88 176 56 176h8V40c0-6.36 2.53-12.47 7.03-16.97C75.53 18.53 81.63 16 88 16c6.37 0 12.5 2.53 16.1 7.03 5.4 4.5 7.9 10.61 7.9 16.97v136h8c2.1 0 4.2-.8 5.7-2.3 1.5-1.5 2.3-3.6 2.3-5.7V40c0-6.36 2.5-12.47 7-16.97 4.5-4.5 10.6-7.03 17-7.03s12.5 2.53 16.1 7.03c5.4 4.5 7.9 10.61 7.9 16.97v128c-.9 14.8-5.9 29.1-16.4 39.6zm85.9 138.9c-24-24-37.5-56.6-37.5-90.5 0-25.3 7.5-50.1 21.6-71.1 14-21.1 34-37.5 57.4-47.2 23.4-9.6 49.1-12.2 73.1-7.2 25.7 4.9 48.5 17.1 66.4 35 17.9 17.9 30.1 40.7 35 65.5 5 24.9 2.4 50.6-7.2 73.1-9.7 24.3-26.1 44.3-47.2 58.3-21 14.1-45.8 21.6-71.1 21.6-33.9 0-66.5-13.5-90.5-37.5zm33.9-147.1c-15 15-23.4 35.4-23.4 56.6 0 15.8 4.7 31.3 13.5 44.4 8.8 13.2 21.3 23.5 35.9 29.5 14.6 5.2 30.7 7.6 46.2 4.6 15.5-3.1 29.8-10.7 41-21.9s18.8-25.5 21.9-41c3-15.5.6-31.6-4.6-46.2-6-14.6-16.3-27.1-29.5-35.9-13.1-8.8-28.6-13.5-44.4-13.5-21.2 0-41.6 8.4-56.6 23.4zm144.2-96c-22.8-13.12-48.1-20.94-74.3-22.91-26.2-1.96-52.5 1.96-76.9 11.5-24.5 9.51-46.5 24.41-64.4 43.61V72.32c42.6-29.78 94.2-43.77 146-39.58 51.8 4.2 100.6 26.32 137.8 62.56-7 19.5-10.8 40.1-11.1 60.8-14.8-21.6-34.4-39.7-57.1-52.7zm81.1 224.1c9.8 9.8 21.9 16.9 35.2 20.8-16.8 37.2-43.5 69.2-77.2 92.3-33.7 23.2-73.1 36.7-113.9 39-40.8 2.3-81.5-6.6-117.6-25.7-36.1-19.2-66.3-48.8-87.2-83V252.1c5.7-1.6 11.2-3.8 16.5-6.4-.2 3.4-.5 6.8-.5 10.3.1 40.9 14.4 80.4 40.4 111.9 26.1 31.5 62.3 52.9 102.4 60.6 40.1 7.7 81.7 1.2 117.6-18.4 35.8-19.6 63.8-51 79-88.9 1.6 2.2 3.4 4.3 5.3 6.3z"/></svg>