<svg xmlns="http://www.w3.org/2000/svg" viewBox="0 0 576 512"><!--! Font Awesome Pro 6.1.1 by @fontawesome - https://fontawesome.com License - https://fontawesome.com/license (Commercial License) Copyright 2022 Fonticons, Inc.--><path d="M96 0c13.3 0 24 10.75 24 24v88H72V24C72 10.75 82.75 0 96 0zm192 0c13.3 0 24 10.75 24 24v88h-48V24c0-13.25 10.7-24 24-24zm72 144c13.3 0 24 10.7 24 24s-10.7 24-24 24h-8v19.2c-18.9 9.2-34.2 21.4-48 36V192H80v64c0 61.9 50.1 112 112 112 24.3 0 46.9-7.8 65.2-20.9-.8 6.8-1.2 13.8-1.2 20.9 0 11.4 1.1 22.5 3.1 33.3-13.4 6.2-27.9 10.6-43.1 12.9V512h-48v-97.8c-76.98-11.6-136-78-136-159.1v-64h-8c-13.25 0-24-9.8-24-24 0-12.4 10.75-24 24-24l336 .9zm-72 224c0-79.5 64.5-144 144-144s144 64.5 144 144-64.5 144-144 144-144-64.5-144-144zm160-64.9c0-7.9-7.2-16-16-16s-16 8.1-16 16v48h-48c-8.8 0-16 8.1-16 16 0 9.7 7.2 16 16 16h48v48c0 9.7 7.2 16 16 16s16-6.3 16-16v-48h48c8.8 0 16-6.3 16-16 0-7.9-7.2-16-16-16h-48v-48z"/></svg>