<svg xmlns="http://www.w3.org/2000/svg" viewBox="0 0 576 512"><!--! Font Awesome Pro 6.1.1 by @fontawesome - https://fontawesome.com License - https://fontawesome.com/license (Commercial License) Copyright 2022 Fonticons, Inc.--><path d="M96 0c13.3 0 24 10.75 24 24v88H72V24C72 10.75 82.75 0 96 0zm192 0c13.3 0 24 10.75 24 24v88h-48V24c0-13.25 10.7-24 24-24zm72 144c13.3 0 24 10.7 24 24s-10.7 24-24 24h-8v19.2c-18.9 9.2-34.2 21.4-48 36V192H80v64c0 61.9 50.1 112 112 112 24.3 0 46.9-7.8 65.2-20.9-.8 6.8-1.2 13.8-1.2 20.9 0 11.4 1.1 22.5 3.1 33.3-13.4 6.2-27.9 10.6-43.1 12.9V512h-48v-97.8c-76.98-11.6-136-78-136-159.1v-64h-8c-13.25 0-24-9.8-24-24 0-12.4 10.75-24 24-24l336 .9zm-72 224c0-79.5 64.5-144 144-144s144 64.5 144 144-64.5 144-144 144-144-64.5-144-144zm176.8-81.6-96 72c-4.1 3.1-6.7 8.5-4.2 13.4 1.6 4.9 6.2 8.2 11.4 8.2h35.6l-30.1 54.2c-2.7 4.9-1.7 11.1 2.6 14.8 4.3 3.8 10.6 3.1 15.1.6l96-72c4.1-3.1 5.8-8.5 4.2-13.4-1.6-4.9-6.2-8.2-11.4-8.2h-35.6l30.1-54.2c2.7-4.9 1.7-11.1-2.6-15.7-4.3-2.9-10.6-3.1-15.1.3z"/></svg>