<svg xmlns="http://www.w3.org/2000/svg" viewBox="0 0 512 512"><!--! Font Awesome Pro 6.1.1 by @fontawesome - https://fontawesome.com License - https://fontawesome.com/license (Commercial License) Copyright 2022 Fonticons, Inc.--><path d="M254.4 22.79c45.1 31.26 55.3 91.31 38 146.31 45.1-34.7 103.5-46.3 148.3-15 64.6 46.7 71.7 141 25.8 209h-.1C386.7 480.8 219.2 542 98.49 455.5c-120.28-86-124.36-266.4-44.62-383.31C99.91 3.549 189.2-23.23 254.4 22.79zm-27.7 39.26c-38-26.92-98.2-14.97-132.99 36.91l-.06.1C23.79 202.2 33.48 350.1 126.4 416.4h.1c91.7 65.8 230.3 23.1 300.2-80.2 34.9-51.7 24.7-114.8-13.8-142.1l-.1-1c-25.7-17.5-73.5-10.8-111.5 34.8-12.9 17.5-37.4 21.8-55.4 8.8-17.6-12.8-21.9-36.8-10.4-54.8 28.6-52.6 17.8-101.53-9.4-119.68l.6-.17z"/></svg>