<svg xmlns="http://www.w3.org/2000/svg" viewBox="0 0 448 512"><!--! Font Awesome Pro 6.1.1 by @fontawesome - https://fontawesome.com License - https://fontawesome.com/license (Commercial License) Copyright 2022 Fonticons, Inc.--><path d="M400 192.4v-.4c0-38.25-22.5-71.25-54.88-86.75C337.8 46 287.3 0 225.1 0c-6.8 0-13.8 1.125-17.8 1.75-16.5 2.5-30.5 13.5-36.88 28.88s-4.375 33 5.375 46.5c1.505 2.12 1.305 4.5 1.305 6.87 0 6.625-5.375 12-12 12H144c-52.88 0-96 43.13-96 96v.375C19.25 210.9 0 243.3 0 280c0 52.86 39.58 96.04 90.64 102.7-5.221-16.54-1.109-34.38 10.48-46.95C71.61 334.2 48 309.9 48 280c0-30.9 25.13-56 56-56h4.5c-7.7-8.5-12.5-19.7-12.5-32 0-26.5 21.5-48 48-48h21.1c33.13 0 60-26.88 60-60 0-13-4.25-25-11.25-34.88C218.4 48.5 222.3 48 225.1 48c39.75 0 72 32.25 72 72 0 8.5-1.75 16.5-4.375 24H304c26.5 0 48 21.5 48 48 0 12.25-4.75 23.5-12.5 32h4.5c30.88 0 56 25.12 56 56 0 29.84-23.51 54.07-52.95 55.69 3.975 4.32 7.453 9.141 9.701 14.87 4.045 10.55 3.77 21.81.447 32.11C408.3 376.1 448 332.9 448 280c0-36.7-19.2-69.1-48-87.6zM312 352h-64.09l43.69-105.9c2.875-6.906.531-14.88-5.594-19.19a16.057 16.057 0 0 0-19.94 1.25l-140.8 128c-4.906 4.438-6.562 11.44-4.188 17.62C123.5 379.9 129.4 384 136 384h64.09L156.4 489.9c-2.875 6.906-.531 14.88 5.593 19.19C164.8 511 167.1 512 171.2 512c3.875 0 7.719-1.406 10.75-4.156l140.8-128c4.906-4.438 6.562-11.44 4.188-17.62C324.5 356.1 318.6 352 312 352z"/></svg>