<svg xmlns="http://www.w3.org/2000/svg" viewBox="0 0 512 512"><!--! Font Awesome Pro 6.1.1 by @fontawesome - https://fontawesome.com License - https://fontawesome.com/license (Commercial License) Copyright 2022 Fonticons, Inc.--><path d="M343.8 352H168.2c-5.75 0-9.75 5.75-7.75 11C171 390.9 218.9 416 256 416s85-25.12 95.5-53c2-5.2-2-11-7.7-11zM192 320c17.75 0 32-14.25 32-32s-14.2-32-32-32-32 14.2-32 32 14.2 32 32 32zm128-64c-17.75 0-32 14.25-32 32s14.25 32 32 32 32-14.25 32-32-14.2-32-32-32zm161.8 75.1c2.875-9.5 4.25-19.5 4.25-29.62 0-38.88-20.1-73-52.25-91.62.125-2 .25-3.875.25-5.875 0-37.88-21.25-71-52.37-87.88C376.5 51.25 322.1 0 256 0c-7.625 0-14.25.875-19.75 1.75-16.45 2.625-30.45 13.63-36.85 29-6.4 15.37-4.4 33 5.4 46.5 2.1 3 3.2 6.25 3.2 9.75 0 9.38-7.6 17-17 17h-13.9c-55.12 0-100 44.88-100 100 0 2 .125 4 .25 5.875C47 228.5 25.1 262.6 25.1 301.5c0 10.25 1.375 20.25 4.25 29.62C11.38 350.4 0 376.8 0 405.5 0 464.2 47.75 512 106.5 512h299c58.8 0 106.5-47.8 106.5-106.5 0-28.7-11.4-55.1-30.2-74.4zM405.5 464h-299C74.25 464 48 437.8 48 405.5c0-29.12 21.38-53.13 49.25-57.63-14-10.63-23.25-27.38-23.25-46.38 0-32.25 26.25-58.5 58.5-58.5h11.38C133 233.5 125.1 219.6 125.1 204c0-28.75 23.25-52 52-52H191c35.9 0 65-29.1 65-65 0-14.12-4.625-27.12-12.25-37.75 4-.625 8-1.25 12.25-1.25 43.13 0 77.1 34.88 77.1 78 0 9.25-1.875 17.75-4.75 25.1h4.75c28.75 0 52 23.25 52 52 0 15.62-6.1 29.5-17.87 39h11.38c32.25 0 58.5 26.25 58.5 58.5 0 19-9.25 35.75-23.25 46.38C442.6 352.4 464 376.2 464 405.5c0 32.3-26.2 58.5-58.5 58.5z"/></svg>