<svg xmlns="http://www.w3.org/2000/svg" viewBox="0 0 512 512"><!--! Font Awesome Pro 6.1.1 by @fontawesome - https://fontawesome.com License - https://fontawesome.com/license (Commercial License) Copyright 2022 Fonticons, Inc.--><path d="M481.8 331.1c2.875-9.5 4.25-19.37 4.25-29.62 0-38.88-20.1-73-52.12-91.62-.83-1.86-.83-3.86-.83-5.86 0-37.88-21.25-71-52.37-87.88C376.5 51.25 322.1 0 256 0c-7.6 0-14.2 1-19.7 1.875C219.8 4.5 205.9 15.38 199.4 30.75c-6.4 15.37-4.4 33 5.4 46.5 2.1 3 3.2 6.25 3.2 9.75 0 9.38-7.6 17-17 17h-13.9c-55.12 0-100 44.88-100 100 0 2 0 4 .125 5.875C47 228.5 25.1 262.6 25.1 301.5c0 10.25 1.5 20.12 4.25 29.62C11.38 350.4 0 376.6 0 405.5 0 464.2 47.75 512 106.5 512h299c58.8 0 106.5-47.8 106.5-106.5 0-28.9-11.4-55.1-30.2-74.4zM405.5 464h-299C74.25 464 48 437.8 48 405.5c0-29.12 21.38-53.13 49.25-57.63-14-10.63-23.25-27.38-23.25-46.38 0-32.25 26.25-58.5 58.5-58.5H144c-11-9.49-18.9-23.39-18.9-38.99 0-28.75 23.25-52 52-52H191c35.9 0 65-29.1 65-65 0-14.12-4.625-27.12-12.25-37.75C247.8 48.62 251.8 48 256 48c43.13 0 77.1 34.88 77.1 78 0 9.125-1.875 17.87-4.75 25.1h4.75c28.75 0 52 23.25 52 52 0 15.62-6.1 29.5-17.1 39h11.5c32.25 0 58.5 26.25 58.5 58.5 0 19-9.25 35.75-23.25 46.38C442.6 352.4 464 376.4 464 405.5c0 32.3-26.2 58.5-58.5 58.5z"/></svg>