<svg xmlns="http://www.w3.org/2000/svg" viewBox="0 0 448 512"><!--! Font Awesome Pro 6.1.1 by @fontawesome - https://fontawesome.com License - https://fontawesome.com/license (Commercial License) Copyright 2022 Fonticons, Inc.--><path d="M427.5 192H20.49c-10.41 0-18.05 9.779-15.52 19.88l68.94 275.9C77.47 502 90.17 512 104.9 512l238.3-.01c14.66-.002 27.35-9.977 30.91-24.2l68.95-275.9C445.6 201.8 437.9 192 427.5 192zM117.4 464 61.47 240h37.26l41.1 223.1-22.43.9zm90.6-.9h-34.7l-42-223.1H208v223.1zm32 0V240h76.72l-41.1 223.1H240zm90.6 0h-23.29l41.1-223.1h37.26L330.6 463.1zm81-324.2c-7-11.88-19.38-19.63-33.13-20.75 6.5-11.75 6.375-25.88-.25-37.5-9.125-16-28-23.63-45.63-20.13-.25-16.62-11.5-32-29-37.5-13.25-4.25-27.88-1.875-39.13 6.5 0-.75-.25-1.375-.625-2-7.125-21.12-31.12-32.25-53.38-25.5-13 4-23.25 14.25-27.38 27.25C171.1 21.09 157.5 18.84 144.4 23.09c-17.5 5.375-28.62 20.75-29 37.38-17.62-3.5-36.5 4.126-45.63 20.13-7.67 11.5-6.9 25.9-.27 37.5-14.4 1.3-26.38 8.6-33.13 20.8-3.87 6.7-4.75 14-4.25 20.2h383.8c.48-6.2-.42-13.5-4.32-20.2z"/></svg>