<svg xmlns="http://www.w3.org/2000/svg" viewBox="0 0 320 512"><!--! Font Awesome Pro 6.1.1 by @fontawesome - https://fontawesome.com License - https://fontawesome.com/license (Commercial License) Copyright 2022 Fonticons, Inc.--><path d="M273.1 46.86C303.1 76.87 320 117.6 320 160v192c0 8.5-3.4 16.6-9.4 22.6S296.5 384 288 384H184v104c0 6.4-2.5 12.5-7.9 16.1-3.6 5.4-9.7 7.9-16.1 7.9-6.4 0-12.5-2.5-17-7.9-4.5-3.6-7-9.7-7-16.1V384H32c-8.49 0-16.63-3.4-22.628-9.4C3.371 368.6 0 360.5 0 352V160c0-42.4 16.86-83.13 46.86-113.14C76.87 16.86 117.6 0 160 0c42.4 0 83.1 16.86 113.1 46.86zM272 160c0-29.7-11.8-58.2-32.8-79.2a112.023 112.023 0 0 0-158.4 0c-21 21-32.8 49.5-32.8 79.2v176h88V184c0-6.4 2.5-12.5 7-17s10.6-7 17-7 12.5 2.5 16.1 7c5.4 4.5 7.9 10.6 7.9 17v152h88V160z"/></svg>