<svg xmlns="http://www.w3.org/2000/svg" viewBox="0 0 640 512"><!--! Font Awesome Pro 6.1.1 by @fontawesome - https://fontawesome.com License - https://fontawesome.com/license (Commercial License) Copyright 2022 Fonticons, Inc.--><path d="M219.9 116.8c12.4 7.3 20.1 20.7 20.1 35.3V168c0 13.3 10.7 24 24 24s24-10.7 24-24v-16.2c0-31.34-16.81-60.64-43.91-76.45C231.7 68.14 224 54.73 224 40.39V24c0-13.26-10.7-24-24-24s-24 10.74-24 24v16.39c0 31.34 16.8 60.61 43.9 76.41zm-112 0c12.4 7.3 20.1 20.7 20.1 35.3V168c0 13.3 10.7 24 24 24s24-10.7 24-24v-16.2c0-31.34-16.81-60.64-43.91-76.45C119.7 68.14 112 54.73 112 40.39V24c0-13.26-10.7-24-24-24S64 10.74 64 24v16.39c0 31.34 16.81 60.61 43.9 76.41zM600 256h-24v-16c0-70.58-57.41-128-128-128-65.11 0-118.4 49.03-126.4 111.1H96c-17.56 0-31.85 15.2-31.96 32.9H40c-13.25 0-24 10.7-24 24 0 13.25 10.75 24 24 24h28.92c13.99 75.13 59.7 138.9 123.1 176 0 17.67 14.33 32 32 32h191.1c17.67 0 32-14.33 32-32 63.38-37.13 109.1-100.9 123.1-176H600c13.25 0 24-10.75 24-24 0-13.3-10.7-24-24-24zm-152-96c38.64 0 70.95 27.53 78.38 63.1h-156.8C377 187.5 409.4 160 448 160zm-24.3 278.6-23.74 13.91V464H240v-11.51l-23.74-13.91c-59.76-35-98.48-97.83-103.7-166.6h414.8C522.2 340.8 483.5 403.6 423.7 438.6z"/></svg>