<svg xmlns="http://www.w3.org/2000/svg" viewBox="0 0 576 512"><!--! Font Awesome Pro 6.1.1 by @fontawesome - https://fontawesome.com License - https://fontawesome.com/license (Commercial License) Copyright 2022 Fonticons, Inc.--><path d="M224 232c-13.2 0-24 10.8-24 24 0 13.24 10.76 24 24 24s24-10.8 24-24-10.8-24-24-24zm-32 128c-13.24 0-24 10.76-24 24s10.76 24 24 24 24-10.8 24-24-10.8-24-24-24zm351.1-202.3C543.1 68.53 459.75 0 385.3 0c-78.49 0-120.8 76.76-146.8 86.01-50.9 16.19-82.1 59.39-108.4 94.39-35.95 49.6-98.92 97.66-98.92 178.2 0 78.82 66.93 153.4 153.9 153.4 29.94 0 59.06-9.125 84.19-26.41 32.6-22.41 116.1-28.03 156.7-91.3 12.88-20.2 21.31-39.25 29.69-58.14C492.4 254.8 543.1 240.3 543.1 157.7zm-46.8-.1c0 62.83-44.1 69.43-83.86 159.6-7.469 16.78-15.16 34.16-26.03 51.23-18.47 28.73-52.91 40.72-86.19 52.3-72.21 25.08-69.59 43.21-114.6 43.21-58.75 0-105.3-51.16-105.3-105.7 0-44.25 30.63-81.96 57.11-108.1 35.77-36.32 61.98-100.3 117.2-117.7 45.61-16.19 74.02-83.53 131.6-83.53 49.47-.9 110.07 48.18 110.07 108.69zM384 168c-13.24 0-24 10.76-24 24s10.76 24 24 24 24-10.8 24-24-10.8-24-24-24z"/></svg>