<svg xmlns="http://www.w3.org/2000/svg" viewBox="0 0 512 512"><!--! Font Awesome Pro 6.1.1 by @fontawesome - https://fontawesome.com License - https://fontawesome.com/license (Commercial License) Copyright 2022 Fonticons, Inc.--><path d="M280 264c0 13.3-10.7 24-24 24s-24-10.7-24-24V24c0-13.25 10.7-24 24-24s24 10.75 24 24v240zm-224-2c0 106 85.1 192 192 192 106 0 192-86 192-192 0-63.4-30.7-119.7-78.2-154.7-10.7-7.84-13-22.87-5.1-33.54 7.8-10.67 22.9-12.94 33.5-5.08C449.5 112.3 488 182.7 488 262c0 132.6-107.5 240-240 240S8 394.6 8 262c0-79.3 38.52-149.7 97.8-193.32 10.6-7.86 25.7-5.59 33.5 5.08 7.9 10.67 5.6 25.7-5.1 33.54-47.46 35-79.1 91.3-79.1 154.7h.9z"/></svg>