<svg xmlns="http://www.w3.org/2000/svg" viewBox="0 0 448 512"><!--! Font Awesome Pro 6.1.1 by @fontawesome - https://fontawesome.com License - https://fontawesome.com/license (Commercial License) Copyright 2022 Fonticons, Inc.--><path d="m321.9 352 119-119c9.375-9.375 9.375-24.56 0-33.94s-24.56-9.375-33.94 0L288 318.1l-95.7-95.7c54-8 95.7-54.2 95.7-110.4C288 50.25 237.8 0 176 0H24C10.75 0 0 10.75 0 24v272.2c0 13.25 10.75 24.01 23.1 24.01S48 309.3 48 296v-72h78.06l128 128-119 119c-9.375 9.375-9.375 24.56 0 33.94C139.7 509.7 145.9 512 152 512s12.28-2.344 16.97-7.031L288 385.9l119 119c4.7 4.8 10.9 7.1 17 7.1s12.28-2.344 16.97-7.031c9.375-9.375 9.375-24.56 0-33.94L321.9 352zM48 48h128c35.3 0 64 28.72 64 64s-28.7 64-64 64H48V48z"/></svg>