<svg xmlns="http://www.w3.org/2000/svg" viewBox="0 0 384 512"><!--! Font Awesome Pro 6.1.1 by @fontawesome - https://fontawesome.com License - https://fontawesome.com/license (Commercial License) Copyright 2022 Fonticons, Inc.--><path d="M352 0H32C14.33 0 0 14.33 0 32v64c0 17.67 14.33 32 32 32v328c0 30.9 25.13 56 56 56h208c30.88 0 56-25.12 56-56V128c17.67 0 32-14.33 32-32V32c0-17.67-14.3-32-32-32zm-48 456c0 4.406-3.594 8-8 8H88c-4.406 0-8-3.594-8-8V128h224v328zm32-376H48V48h288v32zM112 320h48v48c0 8.8 7.2 16 16 16h32c8.836 0 16-7.164 16-16v-48h48c8.836 0 16-7.164 16-16v-32c0-8.8-7.2-16-16-16h-48v-48c0-8.8-7.2-16-16-16h-32c-8.8 0-16 7.2-16 16v48h-48c-8.8 0-16 7.2-16 16v32c0 8.8 7.2 16 16 16z"/></svg>