<svg xmlns="http://www.w3.org/2000/svg" viewBox="0 0 640 512"><!--! Font Awesome Pro 6.1.1 by @fontawesome - https://fontawesome.com License - https://fontawesome.com/license (Commercial License) Copyright 2022 Fonticons, Inc.--><path d="M630.8 469.1 542.6 400h9.4c13.25 0 24-10.75 24-24V264c0-39.7-32.3-72-72-72H277.3L176 112.6l-.9-64.6h254.1L464 81.94V160h48V81.94A47.99 47.99 0 0 0 497.94 48L464 14.06A47.95 47.95 0 0 0 430.1 0h-255C149.5 0 128 21.48 128 47.98v27.03L38.81 5.111C28.34-3.061 13.32-1.249 5.12 9.189c-8.172 10.44-6.354 25.53 4.068 33.7l591.1 463.1C605.6 510.3 610.8 512 615.1 512c7.125 0 14.16-3.161 18.89-9.193 9.11-10.407 7.21-25.507-3.19-33.707zM528 352h-46.6L338.5 240H504c13.23 0 24 10.77 24 24v88zm-80 112H192v-96h154.7l-61.2-48H176c-17.67 0-32 14.33-32 32h-32v-88c0-13.23 10.77-24 24-24h47.43l-59.66-46.76C89.9 199.1 64 228.5 64 264v112c0 13.25 10.75 24 24 24h56v80c0 17.67 14.33 32 32 32h288c16.15 0 28.94-12.15 31.13-27.69L448 447.4V464z"/></svg>