<svg xmlns="http://www.w3.org/2000/svg" viewBox="0 0 640 512"><!--! Font Awesome Pro 6.1.1 by @fontawesome - https://fontawesome.com License - https://fontawesome.com/license (Commercial License) Copyright 2022 Fonticons, Inc.--><path d="m632.1 471-79.12-79.12C567.8 371.4 576 346.7 576 320c0-70.69-57.31-128-128-128s-128 57.31-128 128 57.31 128 128 128c26.67 0 51.39-8.191 71.9-22.15l79.12 79.12C603.7 509.7 609.8 512 616 512s12.28-2.344 16.97-7.031c9.33-9.369 9.33-24.569-.87-33.969zM448 400c-44.11 0-80-35.89-80-80s35.89-80 80-80 80 35.89 80 80-35.9 80-80 80zM111.1 48h254.1L400 81.94V160h48.01L448 81.94A47.99 47.99 0 0 0 433.94 48L400 14.06A47.95 47.95 0 0 0 366.1 0h-255C85.49 0 64.01 21.48 64 47.98l.002 82.28c-.002 0 .002 0 0 0L64 160h48l-.9-112zM128 464v-96h168.1c-4.822-15.24-8.132-31.16-8.132-48H112c-17.67 0-32 14.33-32 32H48v-88c0-13.23 10.77-24 24-24h238.2c10.93-18.78 25.39-35.08 42.73-48H72c-39.7 0-72 32.3-72 72v112c0 13.25 10.75 24 24 24h56v80c0 17.67 14.33 32 32 32h288c17.67 0 32-14.33 32-32v-1.613c-18.68-1.881-36.37-6.641-52.59-14.39H128z"/></svg>