<svg xmlns="http://www.w3.org/2000/svg" viewBox="0 0 640 512"><!--! Font Awesome Pro 6.1.1 by @fontawesome - https://fontawesome.com License - https://fontawesome.com/license (Commercial License) Copyright 2022 Fonticons, Inc.--><path d="M576 192h-80v.725C469.2 172.5 436.2 160 400 160c-35.78 0-68.47 12.16-95.12 32H64c-35.35 0-64 28.7-64 64v128c0 35.35 28.65 64 64 64h16v40c0 13.3 10.75 24 24 24s24-10.7 24-24v-40h176.9c26.6 19.8 59.3 32 95.1 32 36.19 0 69.2-12.47 96-32.72v.72h16v40c0 13.25 10.75 24 24 24s24-10.75 24-24v-40h16c35.35 0 64-28.65 64-64V255.1c0-34.4-28.7-63.1-64-63.1zM262.2 400H64c-8.822 0-16-7.178-16-16V256c0-8.822 7.178-16 16-16h198.2c-13.8 23.6-22.2 50.7-22.2 80s8.4 56.4 22.2 80zM400 432c-61.8 0-112-50.2-112-112 0-61.76 50.24-112 112-112s112 50.2 112 112-50.2 112-112 112zm192-48c0 8.822-7.178 16-16 16h-38.19C551.6 376.4 560 349.3 560 320s-8.449-56.38-22.19-80H576c8.822 0 16 7.178 16 16v128zM400 128c13.25 0 24-10.75 24-24V24c0-13.25-10.7-24-24-24s-24 10.75-24 24v80c0 13.3 10.8 24 24 24zm96 8c6.156 0 12.28-2.344 16.97-7.031l56-56c9.375-9.375 9.375-24.56 0-33.94s-24.56-9.375-33.94 0l-56 56c-9.375 9.375-9.375 24.56 0 33.94C483.7 133.7 489.8 136 496 136zm-209-7.9c4.7 5.6 10.8 7.9 17 7.9s12.28-2.344 16.97-7.031c9.375-9.375 9.375-24.56 0-33.94l-56-56c-9.375-9.375-24.56-9.375-33.94 0s-9.375 24.56 0 33.94L287 128.1zM104 296c-13.25 0-24 10.7-24 24 0 13.25 10.75 24 24 24 13.3 0 24-10.7 24-24s-10.7-24-24-24zm80 0c-13.3 0-24 10.7-24 24 0 13.25 10.75 24 24 24 13.26 0 24-10.75 24-24 0-13.3-10.7-24-24-24z"/></svg>