<svg xmlns="http://www.w3.org/2000/svg" viewBox="0 0 384 512"><!--! Font Awesome Pro 6.1.1 by @fontawesome - https://fontawesome.com License - https://fontawesome.com/license (Commercial License) Copyright 2022 Fonticons, Inc.--><path d="M186.7 293.3v-40c0-8.2-6-13.3-13.4-13.3h-26.67c-7.363 0-13.33 5.969-13.33 13.33v40H93.33c-7.363 0-13.33 5.969-13.33 13.33v26.67c0 7.363 5.971 13.33 13.33 13.33h40v40c0 7.363 5.969 13.33 13.33 13.33h26.67c7.363 0 13.33-5.971 13.33-13.33v-40h40c7.363 0 13.33-5.971 13.33-13.33V306.7c0-7.365-5.971-13.33-13.33-13.33H186.7zM376.1 103l-56-56c-3.6-4.47-9.7-7-16.1-7h-64v-8c0-17.67-14.33-32-32-32h-96C94.33 0 80 14.33 80 32v96.41c-31.1 2.19-56.51 26.29-59.37 57.79L.27 442.2c-3.409 37.5 26.1 69.8 63.74 69.8h191.1c37.63 0 67.14-32.31 63.74-69.79l-20.36-256C296.5 154.7 271.1 130.6 240 128.4V88h54.06l48.97 48.97C347.7 141.7 353.9 144 360 144s12.28-2.344 16.97-7.031c9.33-9.369 9.33-24.569-.87-33.969zM128 48h64v80h-64V48zm123.5 142 20.41 256.5c.79 8.8-6.81 17.5-16.81 17.5H64.01c-8.762 0-16.86-7.254-15.89-17.99l20.32-255.5c.75-8.21 7.6-14.51 15.93-14.51h151.3c7.43 0 15.13 6.3 15.83 14z"/></svg>