<svg xmlns="http://www.w3.org/2000/svg" viewBox="0 0 576 512"><!--! Font Awesome Pro 6.1.1 by @fontawesome - https://fontawesome.com License - https://fontawesome.com/license (Commercial License) Copyright 2022 Fonticons, Inc.--><path d="M413.5 72.01c-21.3 0-42.64 5.665-61.47 16.98l.005-53.25c0-6-3.376-11.5-8.876-14.25l-39.63-19.75a15.51 15.51 0 0 0-7.127-1.731 16.045 16.045 0 0 0-14.87 10.11L254.9 76.73c-10.25 3-20 7.375-28.88 13.25-19.22-12.07-41.22-18.1-63.22-18.1C66.99 71.88 0 193.5 0 291.1c0 71 28.88 137.8 81.38 187.8 22.36 21.17 51.77 32.17 81.49 32.17 38.1 0 57.47-16.73 62.74-16.73 1.401 0 2.877.417 4.274 1.186 17.12 10.38 36.76 15.61 58.14 15.61s40.99-5.235 58.11-15.61c1.398-.769 2.873-1.186 4.274-1.186 5.619 0 23.79 16.73 62.74 16.73 29.72 0 59.13-11 81.49-32.17C547.1 429.7 576 362.1 576 291.1c0-97.2-67.9-219.09-162.5-219.09zM380.1 293.6c0 87.46-30.32 174.4-92.07 174.4-60.1 0-92.07-89.08-92.07-177.6 0-87.46 30.32-174.4 92.07-174.4 60.07-.9 92.07 89.1 92.07 177.6zM162.7 464.4C96.45 464.4 48 360.2 48 291.1c0-67.28 48.3-172.3 114.7-172.3 10.71 0 21.89 2.729 33.41 8.786-26.61 40.42-39.92 101.9-39.92 163.4 0 61.59 13.34 123.2 40.05 163.6-11.54 7.014-22.84 9.814-33.54 9.814zm250.5 0c-10.73 0-21.92-2.757-33.45-8.876 26.41-39.91 40.08-100.9 40.08-163 0-45.46-7.323-91.49-22.33-130.2-.875-1.625-5-14.5-17.62-33.63 11.6-6.097 22.85-8.844 33.61-8.844C479.9 119.8 528 224.5 528 291.1c0 68.3-48.6 173.3-114.8 173.3z"/></svg>