<svg xmlns="http://www.w3.org/2000/svg" viewBox="0 0 640 512"><!--! Font Awesome Pro 6.1.1 by @fontawesome - https://fontawesome.com License - https://fontawesome.com/license (Commercial License) Copyright 2022 Fonticons, Inc.--><path d="M544 288h-80c-9 0-16 7.2-16 16s7.039 16 16 16h80c8.961 0 16-7.168 16-16s-7.9-16-16-16zm0 80h-80c-8.961 0-16 7.168-16 16s7.039 16 16 16h80c8.961 0 16-7.168 16-16s-7.9-16-16-16zm0-160h-80c-9 0-16 7.2-16 16s7.039 16 16 16h80c8.961 0 16-7.168 16-16s-7.9-16-16-16zm32-112H467.5c-12.8 0-25.3 3.74-35.5 10.8l-65.6 43.74A31.69 31.69 0 0 0 352 177.1V208h-32V48h8c13.1 0 24-10.75 24-24S341.1 0 328 0H120c-13.1 0-24 10.75-24 24s10.9 24 24 24h8v160H48c0-13.25-10.88-24-24-24S0 194.8 0 208v192c0 13.25 10.88 24 24 24s24-10.8 24-24h304v30.88c0 10.69 5.441 20.67 14.4 26.62l65.6 43.7c10.2 7.1 22.7 10.8 35.5 10.8H576c35.2 0 64-28.64 64-64V160c0-35.4-28.8-64-64-64zM352 352H48v-96h80c26.56 0 48-21.5 48-48V48h96v160c0 26.5 21.4 48 48 48h32v96zm240 96c0 8.832-7.039 16-16 16H467.5c-3.199 0-6.398-.928-8.961-2.688L400 422.3V185.7l58.56-39.01c2.54-1.79 5.74-2.69 8.94-2.69H576c8.961 0 16 7.168 16 16v288z"/></svg>