<svg xmlns="http://www.w3.org/2000/svg" viewBox="0 0 640 512"><!--! Font Awesome Pro 6.1.1 by @fontawesome - https://fontawesome.com License - https://fontawesome.com/license (Commercial License) Copyright 2022 Fonticons, Inc.--><path d="M551.2 153.6a78.952 78.952 0 0 0-23.2 3.477V123.2c0-41.47-33.7-75.2-75.2-75.2h-84.89c-18.61 0-35.52 7.439-47.9 19.5C307.6 55.44 290.7 48 272.1 48h-84.9c-41.5 0-75.2 33.73-75.2 75.2v33.88c-7.5-2.28-15.24-3.48-23.2-3.48C39.01 153.6 0 198.6 0 256s39.01 102.4 88.8 102.4c7.957 0 15.74-1.189 23.2-3.477v33.88C112 430.3 145.7 464 187.2 464h84.9c18.61 0 35.52-7.441 47.91-19.5C332.4 456.6 349.3 464 367.9 464h84.89c41.51 0 75.21-33.7 75.21-75.2v-33.88a78.955 78.955 0 0 0 23.2 3.477C600.1 358.4 640 313.4 640 256s-39.9-102.4-88.8-102.4zm0 156.8c-27.57 0-26.96-27.2-47.29-27.2-11.41 0-23.91 9.3-23.91 20.7v84.9c0 15-12.2 27.2-27.2 27.2h-84.89c-11.44 0-20.71-9.27-20.71-20.71 0-20.14 27.2-19.76 27.2-47.29 0-22.53-24.36-40.8-54.4-40.8s-54.4 18.27-54.4 40.8c0 27.57 27.2 26.96 27.2 47.29 0 11.41-9.3 20.71-20.7 20.71h-84.9c-15 0-27.2-12.2-27.2-27.2v-84.9c0-11.44-12.47-20.71-23.9-20.71-20.14 0-19.75 27.2-47.29 27.2C66.27 310.4 48 286 48 256s18.27-54.4 40.8-54.4c27.57 0 26.96 27.2 47.29 27.2 11.41 0 23.91-9.4 23.91-20.8v-84.8c0-15 12.2-27.2 27.2-27.2h84.9c11.43 0 20.71 9.268 20.71 20.7 0 20.14-27.2 19.76-27.2 47.3 0 22.53 24.36 40.8 54.4 40.8s54.4-18.27 54.4-40.8c0-27.57-27.2-26.96-27.2-47.3-.01-11.4 9.29-20.7 20.69-20.7h84.89C467.8 96 480 108.2 480 123.2V208c0 11.44 12.47 20.8 23.91 20.8 20.14 0 19.75-27.2 47.29-27.2 22.5 0 40.8 23.5 40.8 54.4s-18.3 54.4-40.8 54.4z"/></svg>