<svg xmlns="http://www.w3.org/2000/svg" viewBox="0 0 448 512"><!--! Font Awesome Pro 6.1.1 by @fontawesome - https://fontawesome.com License - https://fontawesome.com/license (Commercial License) Copyright 2022 Fonticons, Inc.--><path d="M104 103.1c8.8 0 16 8.1 16 16v16c0 9.7-7.2 16-16 16H88c-8.84 0-16-6.3-16-16v-16c0-7.9 7.16-16 16-16h16zM0 79.1c0-25.61 21.49-48 48-48h96c26.5 0 48 22.39 48 48v96c0 27.4-21.5 48-48 48H48c-26.51 0-48-20.6-48-48v-96zm48 96h96v-96H48v96zm24 200c0-7.9 7.16-16 16-16h16c8.8 0 16 8.1 16 16v16c0 9.7-7.2 16-16 16H88c-8.84 0-16-6.3-16-16v-16zm-72-40c0-25.6 21.49-48 48-48h96c26.5 0 48 22.4 48 48v96c0 27.4-21.5 48-48 48H48c-26.51 0-48-20.6-48-48v-96zm48 96h96v-96H48v96zm312-328c8.8 0 16 8.1 16 16v16c0 9.7-7.2 16-16 16h-16c-8.8 0-16-6.3-16-16v-16c0-7.9 7.2-16 16-16h16zm40-72c26.5 0 48 22.39 48 48v96c0 27.4-21.5 48-48 48h-96c-26.5 0-48-20.6-48-48v-96c0-25.61 21.5-48 48-48h96zm0 48h-96v96h96v-96zm-16 400h-32v-32h32v32zm32-32h32v32h-32v-32zm32-32h-96v-32h-32v96h-64v-192h96v32h64v-32h32v128z"/></svg>