<svg xmlns="http://www.w3.org/2000/svg" viewBox="0 0 448 512"><!--! Font Awesome Pro 6.1.1 by @fontawesome - https://fontawesome.com License - https://fontawesome.com/license (Commercial License) Copyright 2022 Fonticons, Inc.--><path d="M352 96c-53.02 0-96 42.98-96 96s42.98 96 96 96c17.58 0 33.83-5.068 48-13.31V296c0 39.7-32.31 72-72 72h-16c-13.25 0-24 10.75-24 24s10.8 24 24 24h16c66.2 0 120-53.8 120-120V192c0-53.9-43-96-96-96zm0 144c-26.47 0-48-21.53-48-48s21.53-48 48-48 48 21.53 48 48-21.5 48-48 48zM96 96c-53.02 0-96 42.1-96 96s42.98 96 96 96c17.58 0 33.83-5.068 48-13.31V296c0 39.7-32.31 72-72 72H56c-13.25 0-24 10.8-24 24s10.75 24 24 24h16c66.2 0 120-53.8 120-120V192c0-53.9-43-96-96-96zm0 144c-26.47 0-48-21.5-48-48s21.53-48 48-48 48 21.5 48 48-21.5 48-48 48z"/></svg>