<svg xmlns="http://www.w3.org/2000/svg" viewBox="0 0 576 512"><!--! Font Awesome Pro 6.1.1 by @fontawesome - https://fontawesome.com License - https://fontawesome.com/license (Commercial License) Copyright 2022 Fonticons, Inc.--><path d="M328 272c-39.8 0-72 32.2-72 72s32.2 72 72 72c8.322 0 16.19-1.695 23.62-4.293C349.7 440.8 325.6 464 296 464c-13.25 0-24 10.75-24 24s10.8 24 24 24c57.34 0 104-46.66 104-104v-64c0-39.8-32.2-72-72-72zm0 96c-13.23 0-24-10.77-24-24s10.77-24 24-24 24 10.8 24 24-10.8 24-24 24zm176-96c-39.76 0-72 32.23-72 72 0 39.76 32.24 72 72 72 8.322 0 16.19-1.695 23.62-4.293C525.7 440.8 501.6 464 472 464c-13.25 0-24 10.75-24 24s10.8 24 24 24c57.34 0 104-46.66 104-104v-64c0-39.8-32.2-72-72-72zm0 96c-13.23 0-24-10.77-24-24s10.77-24 24-24 24 10.77 24 24c0 13.2-10.8 24-24 24zM320 168c0-39.8-32.2-72-72-72-8.3 0-16.2 1.7-23.6 4.3 1.9-29.13 26-52.3 55.6-52.3 13.25 0 24-10.75 24-24S293.3 0 280 0c-57.3 0-104 46.66-104 104v64c0 39.77 32.24 72 72 72s72-32.2 72-72zm-72 24c-13.2 0-24-10.8-24-24s10.8-24 24-24 24 10.8 24 24-10.8 24-24 24zM72 96c-8.32 0-16.19 1.7-23.62 4.3C50.32 71.17 74.39 48 104 48c13.3 0 24-10.75 24-24S117.3 0 104 0C46.66 0 0 46.66 0 104v64c0 39.8 32.24 72 72 72s72-32.2 72-72-32.2-72-72-72zm0 96c-13.23 0-24-10.8-24-24 0-13.23 10.77-24 24-24s24 10.8 24 24-10.77 24-24 24z"/></svg>