<svg xmlns="http://www.w3.org/2000/svg" viewBox="0 0 448 512"><!--! Font Awesome Pro 6.1.1 by @fontawesome - https://fontawesome.com License - https://fontawesome.com/license (Commercial License) Copyright 2022 Fonticons, Inc.--><path d="M96 416c53.02 0 96-42.98 96-96s-43-96-96-96c-17.58 0-33.83 5.1-48 13.3V216c0-39.7 32.31-72 72-72h16c13.3 0 24-10.7 24-24s-10.7-24-24-24h-16C53.84 96 0 149.8 0 216v104c0 53 42.98 96 96 96zm0-144c26.47 0 48 21.53 48 48s-21.5 48-48 48-48-21.5-48-48 21.53-48 48-48zm256 144c53.02 0 96-42.98 96-96s-42.98-96-96-96c-17.58 0-33.83 5.068-48 13.31V216c0-39.7 32.31-72 72-72h16c13.3 0 24-10.7 24-24s-10.7-24-24-24h-16c-66.2 0-120 53.8-120 120v104c0 53 42.1 96 96 96zm0-144c26.47 0 48 21.53 48 48s-21.53 48-48 48-48-21.53-48-48 21.5-48 48-48z"/></svg>