<svg xmlns="http://www.w3.org/2000/svg" viewBox="0 0 640 512"><!--! Font Awesome Pro 6.1.1 by @fontawesome - https://fontawesome.com License - https://fontawesome.com/license (Commercial License) Copyright 2022 Fonticons, Inc.--><path d="M598.4 189.5c-2-1.5.25 0-41.5-25.25-1.375-8.875-3.375-17.75-5.75-26.75C542.6 105.8 516.9 32 461.1 32c-5 0-10 .625-14.75 2-18.45 4.88-31.85 17-39.55 34.88-8.9-3-18-4.88-27-4.88-16.5 0-31.63 6.125-42.63 17.12-5.75 5.625-15 17.63-16.75 36.25C292.8 103.9 266.8 96 239.9 96c-40.8 0-77.5 18.5-112.4 56-13.7-10.2-30.12-16-47.5-16-44.25 0-80 35.8-80 80 0 44.13 35.75 80 80 80 11 0 21.5-2.375 31.38-6.625C118.6 301.2 120 302.1 162.5 348.4l-9.625 5.25C137.2 364 128 381.4 128 400.1v23.75c0 20.25 10.38 38.37 27.88 48.5 8.75 5.125 18.23 7.656 27.98 7.656 9.5 0 19.14-2.531 27.89-7.531l42.25-24.12 14.63 16C277.6 474.2 290.5 480 304 480h160c26.5 0 48-21.5 48-48 0-26.12-12.62-49.38-32-64h61c54.6 0 99-44.1 99-98.4 0-31.7-15.6-61.7-41.6-80.1zM95.88 243.1c-19.38 11.25-34 0-38.5-4.5-12.5-12.5-12.5-32.75 0-45.25C64 186.6 84 176.4 101.6 192.6c-5.98 16.3-8.5 33.5-5.72 50.5zM188 430.9c-3.5 2-6.5.75-8 0-1.5-.875-4-3-4-7v-23.63c0-2.75 1.375-5.25 1.625-5.5l18.25-9.875 24.88 27.25L188 430.9zM541 320l-93.02.005L400 340c-.375-48.13-31.88-90.88-76.88-104.2L286.9 225c-13.8-3.8-26.1 3.5-29.9 16.1-3.8 12.8 3.5 26.1 16.2 29.9l36.3 10.8c25 7.3 42.5 31.7 42.5 59V400h80c17.62 0 32 14.38 32 32H304L159.9 274.5c-22.4-24.3-22.7-61.4-.9-86 27.8-31.3 53.4-44.5 80.9-44.5 52.9 0 113 48.8 208.1 112 0-18.88-.375-22.25 3.75-33.12C438.6 216 423.2 204.5 408.4 189.8c-30.9-31-47.6-64.4-37.4-74.8 10.75-10.75 45.13 7.875 74.75 37.38 2.45 2.62 4.85 5.12 7.25 7.72-10.2-40.7-7.9-76.1 5.8-79.85 14.12-3.75 34.75 27.63 46 69.75 4.3 16.2 6.7 31.8 7.1 45 2.625.75 5.25 1.5 7.75 2.75l51 30.87C584 238.1 592 253.4 592 269.6c0 27.9-22.9 50.4-51 50.4zm-29.9-80c-8 0-15.1 7.1-15.1 16 0 8.875 7.125 16 16 16s15.99-7.118 15.99-15.99C527.1 247.1 520.9 240 511.1 240z"/></svg>