<svg xmlns="http://www.w3.org/2000/svg" viewBox="0 0 512 512"><!--! Font Awesome Pro 6.1.1 by @fontawesome - https://fontawesome.com License - https://fontawesome.com/license (Commercial License) Copyright 2022 Fonticons, Inc.--><path d="M316.4 161.7C298.1 150.5 278.2 144 256 144c-61.9 0-112 50.1-112 112s50.1 112 112 112 112-50.1 112-112h48c0 78.2-56.1 143.3-130.3 157.2-7.3-8.1-17.9-13.2-29.7-13.2s-22.4 5.1-29.7 13.2c-64.6-12.1-115.4-62.9-127.54-127.5C106.9 278.4 112 267.8 112 256s-5.1-22.4-13.24-29.7C112.7 152.1 177.8 96 256 96c35.5 0 68.3 11.6 94.9 31.2l34.2-34.27C349.7 64.8 304.8 48 256 48 152.7 48 66.93 123.4 50.75 222.1 39.49 229.2 32 241.7 32 256c0 14.3 7.49 26.8 18.75 33.9 14.37 87.7 83.65 157 171.35 171.4 7.1 11.2 19.6 18.7 33.9 18.7 14.3 0 26.8-7.5 33.9-18.7C388.6 445.1 464 359.3 464 256h48c0 141.4-114.6 256-256 256S0 397.4 0 256 114.6 0 256 0c62.1 0 118.9 22.08 163.3 58.8L463 15.03c9.4-9.373 24.6-9.373 33.1 0 10.2 9.37 10.2 24.57 0 33.94L314.9 231c3.3 7.7 5.1 16.1 5.1 25 0 35.3-28.7 64-64 64s-64-28.7-64-64 28.7-64 64-64c8.9 0 17.3 1.8 24.1 5.1l36.3-35.4z"/></svg>