<svg xmlns="http://www.w3.org/2000/svg" viewBox="0 0 512 512"><!--! Font Awesome Pro 6.1.1 by @fontawesome - https://fontawesome.com License - https://fontawesome.com/license (Commercial License) Copyright 2022 Fonticons, Inc.--><path d="M208 384h-96c-8.799 0-16 7.2-16 16-.9 8.8 7.2 16 16 16h95.1c9.7 0 16.9-7.2 16.9-16s-7.2-16-16-16zM96 352l127.1.003C232.8 352 240 344.8 240 336s-7.2-16-16-16H96c-8.799 0-16 7.201-16 16-.9 8.8 7.2 16 16 16zm272 80c35.33 0 64-28.68 64-64s-28.67-64-64-64c-35.32 0-64 28.68-64 64s28.7 64 64 64zm71.1-304.9H201.2l293.1-80.86c12.78-3.531 20.28-16.75 16.76-29.52-3.516-12.78-16.78-20.23-29.51-16.77L52.86 119.1C21.73 127.7 0 156.3 0 188.5V440c0 39.7 32.3 72 71.1 72h367.1c39.7 0 71.1-32.3 71.1-72V199.1c1.8-38.8-29.6-72-70.2-72zm24 312c0 13.23-10.77 24-24 24h-368c-13.23 0-23.1-10.77-23.1-24V272h415.1v167.1z"/></svg>