<svg xmlns="http://www.w3.org/2000/svg" viewBox="0 0 512 512"><!--! Font Awesome Pro 6.1.1 by @fontawesome - https://fontawesome.com License - https://fontawesome.com/license (Commercial License) Copyright 2022 Fonticons, Inc.--><path d="M111.1 272H208c8.8 0 16-7.2 16-16s-7.2-16-16-16h-96.9c-7.9 0-15.1 7.2-15.1 15.1 0 9.7 7.2 16.9 15.1 16.9zm96.9 96h-96.9c-7.9 0-15.1 7.2-15.1 15.1 0 9.7 7.2 16.9 15.1 16.9H208c8.8 0 16-7.2 16-16s-7.2-16-16-16zm16-64H95.1c-7.9 0-15.1 7.2-15.1 15.1 0 9.7 7.2 16.9 15.1 16.9H224c8.8 0 16-7.2 16-16s-7.2-16-16-16zm127.1-64c-44.16 0-79.1 35.84-79.1 79.1s35.84 79.1 79.1 79.1 79.1-35.84 79.1-79.1-34-79.1-79.1-79.1zm88-112.9H201.2l293.1-80.86c12.78-3.531 20.28-16.75 16.76-29.52-3.516-12.78-16.78-20.23-29.51-16.77L52.86 119.1C21.73 127.7 0 156.3 0 188.5V440c0 39.7 32.3 72 71.1 72h367.1c39.7 0 71.1-32.3 71.1-72V199.1c1.8-38.8-29.6-72-70.2-72zm24 312c0 13.23-10.77 24-24 24h-368c-13.23 0-23.1-10.77-23.1-24v-240c0-13.23 10.77-24 23.1-24h367.1c13.23 0 24 10.77 24 24v240z"/></svg>