<svg xmlns="http://www.w3.org/2000/svg" viewBox="0 0 640 512"><!--! Font Awesome Pro 6.1.1 by @fontawesome - https://fontawesome.com License - https://fontawesome.com/license (Commercial License) Copyright 2022 Fonticons, Inc.--><path d="M300.2 32.68C147.4 42.8 32 176.8 32 330.2V456c0 13.2 10.8 24 23.1 24S80 469.2 80 455.1v-136C80 177.7 202.8 64.5 347.4 80.6 469.9 95.03 560 203.5 560 326.8v115.4c0 27.1 10.8 37.8 24 37.8s24-10.8 24-24V319.1c0-164.4-140-297.8-307.8-286.42zm-5.4 97.42C197.1 142.4 128 229.6 128 327.2V456c0 13.2 10.8 24 23.1 24 14.1 0 24.9-10.8 24.9-24.9V319.6c0-84.26 72.5-151.8 158.4-143.3 74.8 8.2 129.6 75.4 129.6 150.6V456c0 13.2 10.8 24 23.1 24s24.9-10.8 24.9-24.9V319.6c0-113.4-100.2-204.5-217.2-189.5zm6.1 95.7c-45.7 8.9-76.9 51.5-76.9 97.9V456c0 13.2 10.8 24 23.1 24s24.9-10.8 24.9-24.9V320.9c0-23.22 15.69-44.51 38.48-48.89C341.2 266.1 368 290.4 368 319.1v136c0 14.1 10.8 24.9 23.1 24.9s24.9-10.8 24.9-24.9v-136c0-58.4-53.8-106-115.1-93.3z"/></svg>