<svg xmlns="http://www.w3.org/2000/svg" viewBox="0 0 448 512"><!--! Font Awesome Pro 6.1.1 by @fontawesome - https://fontawesome.com License - https://fontawesome.com/license (Commercial License) Copyright 2022 Fonticons, Inc.--><path d="M50.56 231.9C31.79 263.4 0 320.6 0 347.4 0 385.3 28.65 416 64 416s64-30.73 64-68.64c0-26.72-31.79-83.96-50.56-115.4-6.3-10.56-20.58-10.56-26.88-.06zM224 155.4c0-26.72-31.79-83.96-50.56-115.4-6.307-10.57-20.58-10.57-26.89 0C127.8 71.4 96 128.6 96 155.4c0 37.9 28.7 68.6 64 68.6s64-30.7 64-68.6zm110.6-19.9c-3.5-5-9-7.5-14.6-7.5s-11.14 2.502-14.59 7.506C271.8 184.1 192 305.2 192 358.3c0 67.2 57.3 121.7 128 121.7s128-54.51 128-121.7c0-53.1-79.8-174.2-113.4-222.8zM320 432c-44.11 0-80-33.08-80-73.74 0-18.45 25.22-74.63 80-158.5 54.78 83.83 80 140 80 158.5 0 40.64-35.9 73.74-80 73.74z"/></svg>