<svg xmlns="http://www.w3.org/2000/svg" viewBox="0 0 640 512"><!--! Font Awesome Pro 6.1.1 by @fontawesome - https://fontawesome.com License - https://fontawesome.com/license (Commercial License) Copyright 2022 Fonticons, Inc.--><path d="M336 64c0-35.35 28.7-64 64-64s64 28.65 64 64v1.33c5.2-.88 10.5-1.33 16-1.33 5.4 0 10.8.45 16 1.33V64c0-35.35 28.7-64 64-64s64 28.65 64 64v8c0 13.25-10.7 24-24 24s-24-10.75-24-24v-8c0-8.84-7.2-16-16-16s-16 7.16-16 16v24.44c6.8 6.11 12.8 13.16 17.6 20.96l47.9 20.5c12.1 5.3 17.8 19.4 12.6 31.6-5.3 12.1-19.4 17.8-31.6 12.6l-14.5-6.3V240c0 44.2-35.8 80-80 80h-32c-44.2 0-80-35.8-80-80v-72.2l-14.5 6.3c-12.2 5.2-26.3-.5-31.6-12.6-5.2-12.2.5-26.3 12.6-31.6l47.9-20.5c4.8-7.8 10.8-14.85 17.6-20.95V64c0-8.84-7.2-16-16-16s-16 7.16-16 16v8c0 13.25-10.7 24-24 24s-24-10.75-24-24v-8zm128 128c8.8 0 16-7.2 16-16s-7.2-16-16-16-16 7.2-16 16 7.2 16 16 16zm64-32c-8.8 0-16 7.2-16 16s7.2 16 16 16 16-7.2 16-16-7.2-16-16-16zm-207.2-48.9c-7.5 8.2-12.7 17.5-15.2 27.5-14.5-.7-28-8-36.6-19.9-3-4.2-7.7-6.7-13.9-6.7-3.9 0-8.2 2.1-11.2 5.5-16.8 19.3-46.8 21.9-66 6-2.7-2.2-6.1-3.5-10.8-3.5-6.6 0-12.9 5.1-14.6 12.1-6 24.2-29.4 39-53.98 36.1-.8-.1-1.63-.2-3.42-.2-7.94 0-16 7.2-16 16 0 1.4 1.07 2.7 1.37 3.9 5.31 21.4-4.56 43.6-23.97 53.9-5.16 2.8-9.4 7.3-9.4 14.2 0 6 4.24 11.4 9.4 14.2 19.41 10.3 29.28 32.5 23.97 53.9-.3 1.2-1.37 2.5-1.37 3.9 0 8.8 8.06 16 16 16 1.78 0 2.62-.1 3.42-.2 24.58-3.8 47.98 11.9 53.98 36.1 1.7 7 8 12.1 14.6 12.1 4.7 0 8.1-1.3 10.8-3.4 19.2-16 49.2-13.4 66 5.9 3 3.4 7.3 5.5 11.2 5.5 5.7 0 10-2.1 13-5.5 16.8-19.3 45.9-21.9 66-5.9 2.7 2.1 6.1 3.4 9.9 3.4 7.5 0 13.8-5.1 15.5-12.1 6-24.2 29.4-39.9 54-36.1.8.1 1.6-.7 2.4.2 12.4 5.2 25.9 8 40.1 8h19.3c-9.4 23.5-32.4 40-59.3 40-.5 0-1-.9-1.5-.9l-17.6 94.8c-2.8 15.1-16.1 26.1-31.5 26.1H336c-17.7 0-32.9-14.3-32.9-32v-53.7c-10.8 13.3-28 21.7-48 21.7-18.2 0-35.4-8.4-48-21.7V480c0 17.7-13.4 32-32 32h-28.5c-15.4 0-28.7-11-31.5-26.1l-17.6-94.8c-1.4 0-1 .9-1.5.9-35.35 0-64-28.7-64-64 0-5.4.66-10.5 1.89-15.5C13.72 301.7 0 280.5 0 255.1c0-23.6 13.72-44.8 33.89-55.6-1.23-5-1.89-10.2-1.89-16.4 0-34.4 28.65-64 64-64 3.34 0 6.6 1.2 9.8 1.6 6.9-27.93 32.1-49.6 62.2-49.6 15 0 28.9 6.09 39.8 14.78 11.7-13.41 29-22.78 48.2-22.78 6.5 0 12.8 1.88 18.8 3.7 12.7 3.9 23.8 11.67 31.7 21.93 2.8 8.92 7.8 16.87 14.3 22.37z"/></svg>