<svg xmlns="http://www.w3.org/2000/svg" viewBox="0 0 384 512"><!--! Font Awesome Pro 6.1.1 by @fontawesome - https://fontawesome.com License - https://fontawesome.com/license (Commercial License) Copyright 2022 Fonticons, Inc.--><path d="M264 144c13.3 0 24 10.7 24 24s-10.7 24-24 24H120c-13.3 0-24-10.7-24-24s10.7-24 24-24h144zm0 176c13.3 0 24 10.7 24 24s-10.7 24-24 24H120c-13.3 0-24-10.7-24-24s10.7-24 24-24h144zM96 256c0-13.3 10.7-24 24-24h144c13.3 0 24 10.7 24 24s-10.7 24-24 24H120c-13.3 0-24-10.7-24-24zM80 40.39l40.4-34.612c9-7.704 22.2-7.704 31.2 0L192 40.39l40.4-34.612c9-7.704 22.2-7.704 31.2 0L304 40.39l40.4-34.612A23.92 23.92 0 0 1 370 2.196C378.5 6.113 384 14.63 384 24v464c0 9.4-5.5 17.9-14 21.8-8.5 3.9-18.5 2.5-25.6-3.6L304 471.6l-40.4 34.6c-9 7.7-22.2 7.7-31.2 0L192 471.6l-40.4 34.6c-9 7.7-22.2 7.7-31.2 0L80 471.6l-40.38 34.6a24.04 24.04 0 0 1-25.65 3.6A23.948 23.948 0 0 1 0 488V24C0 14.63 5.456 6.112 13.97 2.196a24.005 24.005 0 0 1 25.65 3.582L80 40.39zM64.38 421.8c8.99-7.7 22.25-7.7 31.24 0L136 456.4l40.4-34.6c9-7.7 22.2-7.7 31.2 0l40.4 34.6 40.4-34.6c9-7.7 22.2-7.7 31.2 0l16.4 14V76.18l-16.4 14.04c-9 7.71-22.2 7.71-31.2 0L248 55.61l-40.4 34.61c-9 7.71-22.2 7.71-31.2 0L136 55.61 95.62 90.22c-8.99 7.71-22.25 7.71-31.24 0L48 76.18V435.8l16.38-14z"/></svg>