<svg xmlns="http://www.w3.org/2000/svg" viewBox="0 0 512 512"><!--! Font Awesome Pro 6.1.1 by @fontawesome - https://fontawesome.com License - https://fontawesome.com/license (Commercial License) Copyright 2022 Fonticons, Inc.--><path d="M256 160c-53.1 0-96 42.9-96 96s42.92 96 96 96 96-42.92 96-96-42.9-96-96-96zm0 120c-13.2 0-24-10.7-24-24s10.8-24 24-24 24 10.8 24 24-10.7 24-24 24zm0-280C114.6 0 0 114.6 0 256s114.6 256 256 256 256-114.6 256-256S397.4 0 256 0zm0 464c-114.7 0-208-93.31-208-208S141.3 48 256 48s208 93.31 208 208-93.3 208-208 208z"/></svg>