<svg xmlns="http://www.w3.org/2000/svg" viewBox="0 0 512 512"><!--! Font Awesome Pro 6.1.1 by @fontawesome - https://fontawesome.com License - https://fontawesome.com/license (Commercial License) Copyright 2022 Fonticons, Inc.--><path d="M448 160c35.3 0 64 28.7 64 64v224c0 35.3-28.7 64-64 64H64c-35.35 0-64-28.7-64-64V224c0-35.3 28.65-64 64-64h384zm0 48H64c-8.84 0-16 7.2-16 16v224c0 8.8 7.16 16 16 16h384c8.8 0 16-7.2 16-16V224c0-8.8-7.2-16-16-16zm-8-128c13.3 0 24 10.75 24 24 0 13.3-10.7 24-24 24H72c-13.25 0-24-10.7-24-24 0-13.25 10.75-24 24-24h368zM392 0c13.3 0 24 10.75 24 24s-10.7 24-24 24H120c-13.3 0-24-10.75-24-24s10.7-24 24-24h272z"/></svg>