<svg xmlns="http://www.w3.org/2000/svg" viewBox="0 0 640 512"><!--! Font Awesome Pro 6.1.1 by @fontawesome - https://fontawesome.com License - https://fontawesome.com/license (Commercial License) Copyright 2022 Fonticons, Inc.--><path d="M63.1 464h285.4c12.2 18.8 28 35.1 46.3 48H64c-35.35 0-64-28.7-64-64V224c0-35.3 28.65-64 64-64h384c23.8 0 44.5 12.9 55.5 32.2-2.5-.1-5-.2-7.5-.2-26.2 0-51.1 5.7-73.4 16H64c-8.84 0-16 7.2-16 16v224c0 8.8 7.16 16 16 16h-.9zM440 80c13.3 0 24 10.75 24 24 0 13.3-10.7 24-24 24H71.1c-12.36 0-24-10.7-24-24 0-13.25 11.64-24 24-24H440zM392 0c13.3 0 24 10.75 24 24s-10.7 24-24 24H119.1c-12.4 0-24-10.75-24-24s11.6-24 24-24H392zm248 368c0 79.5-64.5 144-144 144s-144-64.5-144-144 64.5-144 144-144 144 64.5 144 144zm-111.4 48h-65.2c-21 0-38.9 13.7-45.1 32.7 20.2 19.4 47.5 31.3 77.7 31.3 30.2 0 57.5-11.9 77.7-31.3-6.2-19-24.1-32.7-45.1-32.7zM496 288c-26.5 0-48 21.5-48 48s21.5 48 48 48 48-21.5 48-48-21.5-48-48-48z"/></svg>