<svg xmlns="http://www.w3.org/2000/svg" viewBox="0 0 576 512"><!--! Font Awesome Pro 6.1.1 by @fontawesome - https://fontawesome.com License - https://fontawesome.com/license (Commercial License) Copyright 2022 Fonticons, Inc.--><path d="M256 32c35.3 0 64 28.65 64 64v96c0 35.3-28.7 64-64 64H64c-35.35 0-64-28.7-64-64V96c0-35.35 28.65-64 64-64h192zm0 48H64c-8.84 0-16 7.16-16 16v96c0 8.8 7.16 16 16 16h192c8.8 0 16-7.2 16-16V96c0-8.84-7.2-16-16-16zm256-48c35.3 0 64 28.65 64 64v224c0 35.3-28.7 64-64 64h-64c-35.3 0-64-28.7-64-64V96c0-35.35 28.7-64 64-64h64zm0 48h-64c-8.8 0-16 7.16-16 16v224c0 8.8 7.2 16 16 16h64c8.8 0 16-7.2 16-16V96c0-8.84-7.2-16-16-16zM64 368c0-35.3 28.65-64 64-64h144c35.3 0 64 28.7 64 64v48c0 35.3-28.7 64-64 64H128c-35.35 0-64-28.7-64-64v-48zm48 0v48c0 8.8 7.2 16 16 16h144c8.8 0 16-7.2 16-16v-48c0-8.8-7.2-16-16-16H128c-8.8 0-16 7.2-16 16z"/></svg>