<svg xmlns="http://www.w3.org/2000/svg" viewBox="0 0 640 512"><!--! Font Awesome Pro 6.1.1 by @fontawesome - https://fontawesome.com License - https://fontawesome.com/license (Commercial License) Copyright 2022 Fonticons, Inc.--><path d="M63.1 464h285.4c12.2 18.8 28 35.1 46.3 48H64c-35.35 0-64-28.7-64-64V224c0-35.3 28.65-64 64-64h384c23.8 0 44.5 12.9 55.5 32.2-2.5-.1-5-.2-7.5-.2-26.2 0-51.1 5.7-73.4 16H64c-8.84 0-16 7.2-16 16v224c0 8.8 7.16 16 16 16h-.9zM440 80c13.3 0 24 10.75 24 24 0 13.3-10.7 24-24 24H71.1c-12.36 0-24-10.7-24-24 0-13.25 11.64-24 24-24H440zM392 0c13.3 0 24 10.75 24 24s-10.7 24-24 24H119.1c-12.4 0-24-10.75-24-24s11.6-24 24-24H392zm-40 368c0-79.5 64.5-144 144-144s144 64.5 144 144-64.5 144-144 144-144-64.5-144-144zm160-64.9c0-7.9-7.2-16-16-16s-16 8.1-16 16v48h-48c-8.8 0-16 8.1-16 16 0 9.7 7.2 16 16 16h48v48c0 9.7 7.2 16 16 16s16-6.3 16-16v-48h48c8.8 0 16-6.3 16-16 0-7.9-7.2-16-16-16h-48v-48z"/></svg>