<svg xmlns="http://www.w3.org/2000/svg" viewBox="0 0 512 512"><!--! Font Awesome Pro 6.1.1 by @fontawesome - https://fontawesome.com License - https://fontawesome.com/license (Commercial License) Copyright 2022 Fonticons, Inc.--><path d="M168.4 154.3c-1.6-6.6-6-12.3-12.1-15.5-6-3.2-13.2-3.7-19.6-1.3l-90.23 33.7c-12.41 4.6-18.72 18.5-14.09 30.9 4.65 12.4 18.43 18.7 30.9 14.1l28.62-10.7-64.52 107.6c-14.25 23.75-15.34 52.69-2.969 77.41l2.5 5C40.63 422.9 68.22 440 98.94 440H136c13.25 0 24-10.74 24-23.99S149.3 392 136 392H98.94c-12.41 0-23.56-6.875-29.09-17.97L67.34 369c-5-9.969-4.562-21.66 1.219-31.25l67.71-112.9 8.414 34.41c2.688 10.97 12.5 18.31 23.28 18.31 1.906 0 3.812-.219 5.719-.688 12.88-3.156 20.78-16.12 17.62-29L168.4 154.3zm9.7-45.7c11.4 6.8 26.1 3.1 32.9-8.3l17.12-28.56c11.62-19.44 44.06-19.44 55.75 0l57.93 96.54-35.55-10.38c-12.62-3.688-26.03 3.562-29.75 16.31-3.7 11.89 3.6 26.09 16.3 29.79l92.47 27.03c2.23.67 4.53.97 6.73.97 4.469 0 8.875-1.25 12.75-3.656C410.6 224.7 414.5 218.8 415.7 212l16-95c2.2-13.1-6.6-25.47-19.7-27.66-13.47-2.438-25.47 6.594-27.66 19.66l-4.855 28.8-54.43-90.7C310.6 22.97 284.1 8 256 8s-54.6 14.97-69.1 39.09l-17.1 28.57c-6.8 11.37-3.1 26.14 8.3 32.94zm306.5 204.5-22.44-37.41c-6.812-11.34-21.5-15.06-32.94-8.25-11.38 6.844-15.06 21.56-8.25 32.94l22.44 37.41c5.781 9.594 6.219 21.28 1.219 31.28l-2.5 5C436.6 385.1 425.5 392 413.1 392H287.2l24.82-22.06c9.906-8.812 10.81-23.97 2-33.88-8.875-9.969-24.03-10.78-33.88-2l-72 64C202.9 402.6 200 409.2 200 416s2.938 13.38 8.062 17.94l72 64C284.6 502 290.3 504 296 504c6.594 0 13.19-2.719 17.94-8.062 8.812-9.906 7.906-25.06-2-33.88L287.1 440H413c30.72 0 58.31-17.06 72.03-44.53l2.5-4.969C499.1 365.8 498.9 336.8 484.6 313.1z"/></svg>