<svg xmlns="http://www.w3.org/2000/svg" viewBox="0 0 640 512"><!--! Font Awesome Pro 6.1.1 by @fontawesome - https://fontawesome.com License - https://fontawesome.com/license (Commercial License) Copyright 2022 Fonticons, Inc.--><path d="M496 0c-79.5 0-144 64.47-144 144s64.5 144 144 144 144-64.5 144-144S575.5 0 496 0zm48 160h-48c-8.8 0-16-7.2-16-16V80c0-8.84 7.2-16 16-16s16 7.16 16 16v48h32c8.844 0 16 7.156 16 16s-7.2 16-16 16zm-288 96H88.51l127.2-109.8c9.99-8.7 11.09-23.9 2.49-33.9-8.7-10-23.9-11.1-33.9-2.5l-176 152C3.031 266.4 0 273 0 280s3.031 13.59 8.312 18.16l176 152C188.8 454.1 194.4 456 200 456c6.719 0 13.41-2.812 18.16-8.312 8.656-10.03 7.562-25.19-2.469-33.84L88.51 304H256c101.5 0 184 82.53 184 184 0 13.25 10.75 24 24 24s24-10.75 24-24c0-127.9-104.1-232-232-232z"/></svg>