<svg xmlns="http://www.w3.org/2000/svg" viewBox="0 0 640 512"><!--! Font Awesome Pro 6.1.1 by @fontawesome - https://fontawesome.com License - https://fontawesome.com/license (Commercial License) Copyright 2022 Fonticons, Inc.--><path d="m189 144.2-27.4-4-12.2-24.8c-2.125-4.375-8.5-4.5-10.62 0l-12.25 24.88-27.38 3.92c-4.875.625-6.875 6.75-3.375 10.13l19.87 19.38-4.745 26.39c-.75 4.875 4.375 8.625 8.75 6.25l24.5-12.88 24.5 12.88c4.25 2.375 9.5-1.375 8.625-6.25l-4.625-27.25 19.75-19.38c3.4-2.57 1.5-8.57-3.4-9.27zm128 0-27.4-4-12.2-24.8c-2.125-4.375-8.5-4.5-10.62 0l-12.28 24.8-27.4 4c-4.875.625-6.875 6.75-3.375 10.13l19.87 19.38-4.695 26.39c-.75 4.875 4.375 8.625 8.75 6.25l24.5-12.88 24.5 12.88c4.25 2.375 9.5-1.375 8.625-6.25l-4.675-26.4 19.75-19.38c3.45-3.42 1.55-9.42-3.35-10.12zm128 0-27.4-4-12.25-24.88c-2.125-4.375-8.5-4.5-10.62 0l-12.25 24.88-27.37 4c-4.875.625-6.875 6.75-3.375 10.13l19.87 19.38-4.75 27.25c-.75 4.875 4.375 8.625 8.75 6.25l24.5-12.88 24.5 12.88c4.25 2.375 9.5-1.375 8.625-6.25l-4.625-27.25 19.75-19.38c3.445-3.43 1.545-9.43-3.355-10.13zm179 174.9-15.1.022c-8.75 0-15.1 7.25-15.1 16v72c0 13.25-10.75 24-23.1 24-13.25 0-23.1-10.75-23.1-24v-216c0-88.38-71.62-159.1-159.1-159.1L159.1 32C71.62 32 0 103.6 0 191.1l.025 255.1c0 17.75 14.25 31.1 31.1 31.1L128 480c17.75 0 31.1-14.25 31.1-32l-.063-64.02H287.1l.063 64.02C288 465.7 302.3 480 320 480l95.1-.034c17.75 0 31.1-14.25 31.1-31.1v-63.97h47.1v19.75c0 37.5 26.1 72 64.37 75.88C562.9 479.9 565.5 480 568 480c39.8 0 72-32.3 72-72.9v-72.02c0-7.88-7.2-15.98-16-15.98zm-128 16h-63.1c-17.75 0-31.1 14.25-31.1 32v64H336v-64c0-17.75-14.25-32-31.1-32H144c-17.75 0-31.1 14.26-31.1 32.01v63.99H48.02v-144h447.1v48zm0-96H48.02v-48c0-61.88 50.12-112 111.1-112h223.1c61.75 0 111.1 50.25 111.1 112v48z"/></svg>