<svg xmlns="http://www.w3.org/2000/svg" viewBox="0 0 576 512"><!--! Font Awesome Pro 6.1.1 by @fontawesome - https://fontawesome.com License - https://fontawesome.com/license (Commercial License) Copyright 2022 Fonticons, Inc.--><path d="M96 128c35.38 0 64-28.62 64-64S131.4 0 96 0 32 28.62 32 64s28.63 64 64 64zm352 0c35.38 0 64-28.62 64-64S483.38 0 448 0s-64 28.62-64 64 28.6 64 64 64zM256 0c-13.2 0-24 10.8-24 24v464c0 13.2 10.8 24 24 24s24-10.8 24-24V24c0-13.2-10.8-24-24-24zM128 160H64c-35.35 0-64 28.7-64 64v96c0 17.67 14.33 32 32 32v136c0 13.3 10.75 24 24 24s24-10.75 24-24V352h32v136c0 13.3 10.8 24 24 24s24-10.7 24-24V352c17.67 0 32-14.33 32-32v-96c0-35.3-28.7-64-64-64zm16 144H48v-80c0-8.822 7.178-16 16-16h64c8.822 0 16 7.178 16 16v80zm425.5 39.2-39-136.8c-7.9-27.5-33-46.4-61.6-46.4h-41.85c-28.57 0-53.69 18.94-61.54 46.42l-39.08 136.8C320.6 363.7 335.1 384 357.2 384H384v104c0 13.25 10.75 24 24 24s24-10.75 24-24V384h32v104c0 13.25 10.75 24 24 24s24-10.7 24-24V384h26.78c21.22 0 36.62-20.3 30.72-40.8zM378.4 336l33.25-116.4c2.05-6.9 8.25-11.6 15.45-11.6h41.85c7.144 0 13.42 4.736 15.38 11.6L517.6 336H378.4z"/></svg>