<svg xmlns="http://www.w3.org/2000/svg" viewBox="0 0 640 512"><!--! Font Awesome Pro 6.1.1 by @fontawesome - https://fontawesome.com License - https://fontawesome.com/license (Commercial License) Copyright 2022 Fonticons, Inc.--><path d="M128 96c26.5 0 47.1-21.5 47.1-48S154.5 0 128 0 80 21.5 80 48s21.5 48 48 48zm383.1 0c26.5 0 48-21.5 48-48s-20.6-48-48-48C484.6 0 464 21.5 464 48s21.5 48 47.1 48zm-300.7 76.6c-11.1-27.1-37.2-44.6-66.6-44.6h-31.6c-29.35 0-55.47 17.5-66.63 44.6L1.822 278.9c-5.062 12.27.781 26.28 13.06 31.33a23.607 23.607 0 0 0 9.113 1.832c9.4 0 18.38-5.604 22.2-14.88l17.81-43.27V488c0 13.25 10.74 24 23.99 24s24-10.75 24-24V352h32v136c0 13.25 10.74 24 23.99 24 13.25 0 24-10.75 24-24V253.9l17.81 43.27C213.6 306.4 222.6 312 232 312c3.062 0 6.156-.578 9.123-1.812 12.28-5.047 18.12-19.06 13.06-31.33L210.4 172.6zM112 304V176h31.1l.002 128H112zm526.2-25.1-43.75-106.3C583.3 145.5 557.2 128 527.8 128h-31.69c-29.31 0-55.44 17.5-66.59 44.58l-43.75 106.3c-5.062 12.27.781 26.28 13.06 31.33a22.624 22.624 0 0 0 8.764 1.771c7.957 0 15.57-4.205 20.09-11.14L399.1 384h47.1v104c0 13.25 10.75 24 24 24s23.1-10.75 23.1-24V384h31.1v104c0 13.25 10.75 24 24.01 24 13.25 0 23.99-10.75 23.99-24V384h48.01l-27.43-82.26C601.1 308.1 608.3 312 615.1 312c3.062 0 6.156-.578 9.125-1.812C637.4 305.1 643.2 291.1 638.2 278.9zM466.6 336 512 199.8 557.4 336h-90.8zM319.1 0C306.8 0 296 10.8 296 24v464c0 13.2 10.8 24 23.1 24s24-10.8 24-24V24c.9-13.2-9.9-24-24-24z"/></svg>