<svg xmlns="http://www.w3.org/2000/svg" viewBox="0 0 640 512"><!--! Font Awesome Pro 6.1.1 by @fontawesome - https://fontawesome.com License - https://fontawesome.com/license (Commercial License) Copyright 2022 Fonticons, Inc.--><path d="M328 368H136V192h56a24.007 24.007 0 0 0 16.967-40.98l-80-80.02C124.3 66.34 118.1 64 112 64s-12.28 2.34-16.97 7.03l-80 80.02c-6.858 6.85-8.921 17.15-5.202 26.15S22.3 192 32 192h56v200c0 13.3 10.75 24 24 24h216c13.25 0 24-10.75 24-24s-10.7-24-24-24zm270.2-33.2c-3.7-9-12.5-15.7-22.2-15.7h-56V120c0-13.2-10.7-24-24-24H280c-13.2 0-24 10.8-24 24s10.8 24 24 24h192v175.1h-56a24.007 24.007 0 0 0-16.967 40.98l80 80.02C483.7 445.7 489.9 448 496 448s12.28-2.344 16.97-7.031l80-80.02c6.83-6.849 8.93-17.149 5.23-26.149z"/></svg>