<svg xmlns="http://www.w3.org/2000/svg" viewBox="0 0 448 512"><!--! Font Awesome Pro 6.1.1 by @fontawesome - https://fontawesome.com License - https://fontawesome.com/license (Commercial License) Copyright 2022 Fonticons, Inc.--><path d="M437.7 404.6 329.5 287l37.5-40.25c34.75-37.5 38.1-91.38 10.75-137.4L347 59.1c-15.9-24.47-37.3-42.35-62.4-50.475-35.1-11.5-85.12-11.5-120.1 0-25.37 8.125-47.5 26-62.37 50.5L67.85 113.4c-25.87 42.2-20.37 97 13.38 133.2l37.5 40.38-108.4 117.8c-16.5 17.88-12.75 45.88 7.5 59.13l63.37 41.38c23.1 15.63 45.5 0 51.37-6.25l91.5-98.5 91.37 98.38c5.75 6.375 27.62 21.88 51.37 6.375l63.37-41.38C450.2 450.8 454.2 422.6 437.7 404.6zM328.2 120.3l8.625 14.13c16.87 27.5 14.87 58-5.125 79.5l-34.87 37.63-40.25-43.75 45.5-49.5c11.62-11.51 19.02-25.01 26.12-38.01zm-150-66.05c26.5-8.5 65.12-8.5 91.62 0 9.125 3 17.5 8.5 24.87 15.88-2.75 12.88-9.875 37.88-26.1 54.75L223.1 172.3 179.6 124c-16.62-16.25-23.62-41.25-26.25-54.13 7.25-7.24 15.75-12.62 24.85-15.62zM101.9 461.5l-49.12-32.13 98.5-107.1 39.1 43-88.48 96.23zm244.3 0L116.2 214c-18.97-20.6-22.1-51.6-7.5-75.5l10.1-17.88c5.1 12.75 14.12 25.75 25.37 36.75l250.1 272.1-48.07 32.03z"/></svg>