<svg xmlns="http://www.w3.org/2000/svg" viewBox="0 0 448 512"><!--! Font Awesome Pro 6.1.1 by @fontawesome - https://fontawesome.com License - https://fontawesome.com/license (Commercial License) Copyright 2022 Fonticons, Inc.--><path d="M227.8 66.44C215.8 71.39 208 83.06 208 96v80H48c-26.51 0-48 21.5-48 48v64c0 26.51 21.49 48 48 48h160v80a32 32 0 0 0 54.63 22.622l176-160C444.9 272.4 448 264.2 448 256s-3.125-16.38-9.375-22.62l-176-160c-9.125-9.16-22.925-11.9-34.825-6.94zM393.4 256 256 377.4V288H48v-64h208v-89.4L393.4 256z"/></svg>