<svg xmlns="http://www.w3.org/2000/svg" viewBox="0 0 448 512"><!--! Font Awesome Pro 6.1.1 by @fontawesome - https://fontawesome.com License - https://fontawesome.com/license (Commercial License) Copyright 2022 Fonticons, Inc.--><path d="M48 424V88c0-13.25-10.75-24-24-24S0 74.75 0 88v336c0 13.3 10.75 24 24 24s24-10.7 24-24zm160-290.9V176h-64c-26.5 0-47.95 21.5-47.95 48v64c0 26.51 21.44 48 47.95 48h64v43.29c0 41.63 49.37 63.52 80.23 35.58l150.4-136.2C444.9 272.4 448 264.2 448 256s-3.125-16.38-9.375-22.62l-150.4-135.9C257.3 69.58 208 91.49 208 133.1zM393.4 256 256 377.4V288H144v-64h112v-89.4L393.4 256z"/></svg>