<svg xmlns="http://www.w3.org/2000/svg" viewBox="0 0 640 512"><!--! Font Awesome Pro 6.1.1 by @fontawesome - https://fontawesome.com License - https://fontawesome.com/license (Commercial License) Copyright 2022 Fonticons, Inc.--><path d="M640 424c0 13.3-10.7 24-24 24s-24-10.7-24-24V88c0-13.25 10.7-24 24-24s24 10.75 24 24v336zM367.9 280H24c-13.25 0-24-10.7-24-24 0-13.2 10.75-24 24-24h343.9v-80c0-9.5 5.7-18.2 14.4-22.9 8.8-2.9 19-1.2 25.9 5.3l112.1 104c10.3 9.5 10.3 25.7 0 35.2l-112.1 104c-6.9 6.5-17.1 8.2-25.9 4.4-8.7-3.8-14.4-12.5-14.4-22v-80z"/></svg>