<svg xmlns="http://www.w3.org/2000/svg" viewBox="0 0 512 512"><!--! Font Awesome Pro 6.1.1 by @fontawesome - https://fontawesome.com License - https://fontawesome.com/license (Commercial License) Copyright 2022 Fonticons, Inc.--><path d="M168 432H96c-26.4 0-48-21.6-48-48V128c0-26.4 21.6-48 48-48h72c13.3 0 24-10.75 24-24 0-13.26-10.7-24-24-24H96C42.98 32 0 74.98 0 128v256c0 53.02 42.98 96 96 96h72c13.3 0 24-10.7 24-24s-10.7-24-24-24zm335.9-193.4L351.5 104.4c-9.844-8.75-24-10.88-36.09-5.469C303.6 104.3 296 115.9 296 128.7v55.31H176c-22.06 0-40 17.94-40 40v64c0 22.06 17.94 40 40 40h120v55.31c0 12.75 7.625 24.41 19.41 29.72 4.438 2 9.156 2.969 13.84 2.969 8.062 0 16.03-2.906 22.25-8.438l152.4-133.1c5.2-4.571 8.1-11.071 8.1-17.971s-2.9-13.4-8.1-17.9zM344 350v-70.9H184v-48h160v-70l107.8 94.54L344 350z"/></svg>