<svg xmlns="http://www.w3.org/2000/svg" viewBox="0 0 512 512"><!--! Font Awesome Pro 6.1.1 by @fontawesome - https://fontawesome.com License - https://fontawesome.com/license (Commercial License) Copyright 2022 Fonticons, Inc.--><path d="M24 152h328.1l-.132 80c0 9.547 5.666 18.19 14.41 22s18.95 2.078 25.93-4.406l112-104c10.22-9.5 10.22-25.69 0-35.19l-112-104c-6.979-6.484-17.18-8.221-25.93-4.408s-14.41 12.46-14.41 22L352.1 104H24c-13.25 0-24 10.7-24 23.1S10.75 152 24 152zm464 208H159.9l.1-80.9c0-9.547-5.666-18.19-14.41-22s-18.89-1.2-25.89 5.3l-112 104c-10.22 9.5-10.22 25.69 0 35.19l112 104c6.979 6.484 17.18 8.219 25.93 4.406S160 497.5 160 488l-.132-80H488c13.25 0 24-10.75 24-24s-10.7-24-24-24z"/></svg>