<svg xmlns="http://www.w3.org/2000/svg" viewBox="0 0 640 512"><!--! Font Awesome Pro 6.1.1 by @fontawesome - https://fontawesome.com License - https://fontawesome.com/license (Commercial License) Copyright 2022 Fonticons, Inc.--><path d="M480 192c13.3 0 24 10.7 24 24v80c0 13.3-10.7 24-24 24s-24-10.7-24-24v-80c0-13.3 10.7-24 24-24zM640 64v384c0 35.3-28.7 64-64 64H384c-35.3 0-64-28.7-64-64V64c0-35.35 28.7-64 64-64h192c35.3 0 64 28.65 64 64zm-64-16h-72v56c0 13.3-10.7 24-24 24s-24-10.7-24-24V48h-72c-8.8 0-16 7.16-16 16v384c0 8.8 7.2 16 16 16h72v-56c0-13.3 10.7-24 24-24s24 10.7 24 24v56h72c8.8 0 16-7.2 16-16V64c0-8.84-7.2-16-16-16zM24 96h264v48h-40v64h40v48H24c-13.25 0-24-10.7-24-24s10.75-24 24-24h48v-64H24c-13.25 0-24-10.7-24-24s10.75-24 24-24zm176 48h-80v64h80v-64zm72 160h16v48h-16c-30.9 0-56 25.1-56 56v64c0 22.1-17.9 40-40 40h-64c-22.09 0-40-17.9-40-40v-72c0-26.5-21.49-48-48-48-13.25 0-24-10.7-24-24s10.75-24 24-24c53.02 0 96 42.1 96 96v64h48v-56c0-57.4 46.6-104 104-104z"/></svg>