<svg xmlns="http://www.w3.org/2000/svg" viewBox="0 0 640 512"><!--! Font Awesome Pro 6.1.1 by @fontawesome - https://fontawesome.com License - https://fontawesome.com/license (Commercial License) Copyright 2022 Fonticons, Inc.--><path d="M422.3 32c30.3 0 57.4 19.05 67.7 47.61l29.1 80.79c-16.6 1.3-32.2 6.2-46 14l-28.3-78.53A23.89 23.89 0 0 0 422.3 80H344v24c0 13.3-10.7 24-24.9 24-12.4 0-24-10.7-24-24V80h-77.4c-10.1 0-19.1 6.35-22.5 15.87L85.71 399.9c-5.63 15.6 5.96 32.1 22.59 32.1h186.8v-24c0-13.3 11.6-24 24-24 14.2 0 24.9 10.7 24.9 24v24h40v48H108.3c-49.87 0-84.64-49.5-67.75-96.4L149.1 79.61C160.3 51.05 187.4 32 217.7 32h204.6zM344 296c0 13.3-10.7 24-24.9 24-12.4 0-24-10.7-24-24v-80c0-13.3 11.6-24 24-24 14.2 0 24.9 10.7 24.9 24v80zm184-104c44.2 0 80 35.8 80 80v48c17.7 0 32 14.3 32 32v128c0 17.7-14.3 32-32 32H448c-17.7 0-32-14.3-32-32V352c0-17.7 14.3-32 32-32v-48c0-44.2 35.8-80 80-80zm0 48c-17.7 0-32 14.3-32 32v48h64v-48c0-17.7-14.3-32-32-32z"/></svg>