<svg xmlns="http://www.w3.org/2000/svg" viewBox="0 0 640 512"><!--! Font Awesome Pro 6.1.1 by @fontawesome - https://fontawesome.com License - https://fontawesome.com/license (Commercial License) Copyright 2022 Fonticons, Inc.--><path d="M422.3 32c30.3 0 57.4 19.05 67.7 47.61l41.8 115.99c-11.6-2.3-23.5-3.6-35.8-3.6-5.5 0-10.9.3-16.3.7l-34.9-96.83A23.89 23.89 0 0 0 422.3 80H344v24c0 13.3-10.7 24-24.9 24-12.4 0-24-10.7-24-24V80h-77.4c-10.1 0-19.1 6.35-22.5 15.87L85.71 399.9c-5.63 15.6 5.96 32.1 22.59 32.1h186.8v-24c0-13.3 11.6-24 24-24h1.6c2.4 36.3 17.6 69.4 39.5 96H108.3c-49.87 0-84.64-49.5-67.75-96.4L149.1 79.61C160.3 51.05 187.4 32 217.7 32h204.6zM319.1 320c-12.4 0-24-10.7-24-24v-80c0-13.3 11.6-24 24-24 14.2 0 24.9 10.7 24.9 24v63.2c-7.2 12.4-13.9 25.7-17.1 38.9-2.2 1.5-4.5 1.9-7.8 1.9zm32.9 48c0-79.5 64.5-144 144-144s144 64.5 144 144-64.5 144-144 144-144-64.5-144-144zm144 96c13.3 0 24-10.7 24-24s-10.7-24-24-24-24 10.7-24 24 10.7 24 24 24zm-16.9-176v80c0 8.8 8.1 16 16 16 9.7 0 16-7.2 16-16v-80c0-8.8-6.3-16-16-16-7.9 0-16 7.2-16 16z"/></svg>