<svg xmlns="http://www.w3.org/2000/svg" viewBox="0 0 640 512"><!--! Font Awesome Pro 6.1.1 by @fontawesome - https://fontawesome.com License - https://fontawesome.com/license (Commercial License) Copyright 2022 Fonticons, Inc.--><path d="M64 351.1V116.8c0-15.8 20.53-22.01 29.31-9.7l98.69 148V116.8c0-15.8 20.5-22.01 29.3-9.7l98.7 148V116.8c0-15.8 20.5-22.01 29.3-9.7l98.7 148V116.8c0-15.8 20.5-22.01 29.3-9.7l129.5 195.1c14.2 21.3-1 48.9-26.6 48.9H64zm102.3-48L112 222.5v80.6h54.3zm73.7 0h54.3L240 222.5v80.6zm182.3 0L368 222.5v80.6h54.3zm73.7 0h54.3L496 222.5v80.6zM0 423.1c0-12.4 10.75-24 24-24h592c13.3 0 24 11.6 24 24 0 14.2-10.7 24-24 24H24c-13.25 0-24-9.8-24-24z"/></svg>