<svg xmlns="http://www.w3.org/2000/svg" viewBox="0 0 512 512"><!--! Font Awesome Pro 6.1.1 by @fontawesome - https://fontawesome.com License - https://fontawesome.com/license (Commercial License) Copyright 2022 Fonticons, Inc.--><path d="M510.3 479 480 404.1V227.6c0-40.4-24-67.6-59.6-67.6H384v-32C384 57.31 326.7 0 256.9 0c-92.8 0-129.8 83.22-129.8 133.5V160H99.63C62.34 160 32 190.3 32 227.6V404L1.75 478.94C.576 481.9 0 484.1 0 487.1 0 501.4 10.92 512 24 512h104c13.25 0 24-10.75 24-24v-75.89l31.66 29.46A23.926 23.926 0 0 0 200 448h112c6.062 0 11.91-2.297 16.34-6.438L360 412.1V488c0 13.25 10.75 24 24 24h104c13.08 0 24-10.56 24-24.01 0-3.89-.6-6.09-1.7-8.99zM104 464H59.56l18.69-46.28c1.16-2.82 1.75-5.92 1.75-9.02V227.6c0-10.8 8.81-19.6 19.63-19.6H104v256zM304 96c8.836 0 16 7.162 16 16 0 8.836-7.164 16-16 16-8.84 0-16-7.164-16-16 0-8.8 7.2-16 16-16zm-80-32c17.67 0 32 14.33 32 32s-14.33 32-32 32c-17.7 0-32-14.3-32-32 0-17.67 14.3-32 32-32zm136 282.5L302.6 400h-93.2L152 346.5V192h208v154.5zM408 464V208h12.38c2.92 0 11.62 0 11.62 19.6v181.1c0 3.078.594 6.125 1.75 8.984L452.4 464H408zM208 256h96c8.836 0 16-7.164 16-16 0-8.838-7.164-16-16-16h-96c-8.8 0-16 7.2-16 16s7.2 16 16 16zm0 64h96c8.836 0 16-7.164 16-16 0-8.838-7.166-16-16-16h-96c-8.8 0-16 7.2-16 16s7.2 16 16 16z"/></svg>