<svg xmlns="http://www.w3.org/2000/svg" viewBox="0 0 512 512"><!--! Font Awesome Pro 6.1.1 by @fontawesome - https://fontawesome.com License - https://fontawesome.com/license (Commercial License) Copyright 2022 Fonticons, Inc.--><path d="M408 143.1c0 23-17.9 40-40 40s-40-17-40-40c0-21.2 17.9-40 40-40s40 18.8 40 40zm-24 169v82.1c0 25.5-13.4 49-35.3 62l-88.5 52.4c-7.4 4.4-16.6 4.5-24.1.3-7.5-4.3-12.1-12.3-12.1-20.9V373.3c0-22.7-9-45.2-25-61.2S161.4 288 138.7 288H24c-8.62 0-16.586-4.6-20.854-12.1a23.961 23.961 0 0 1 .211-24.1l52.473-88.5c12.96-21.9 36.5-36.2 61.97-36.2h82.1C281.7-3.798 408.8-8.546 483.9 5.272c11.7 2.139 20.7 11.178 22.8 22.798C520.5 103.2 515.8 230.3 384 312.1zm-186.1-58.2c12.9 6.3 24.7 14.8 34.2 25.1 11.2 10.4 19.7 22.2 26 35.1 105.8-30 156.7-79.6 181.6-126.1 25-46.7 26.4-97.53 22-137.67-40.2-5.31-91-2.99-138.6 22-45.6 24.83-95.2 75.77-125.2 181.57zM41.98 345.5c34.39-34.4 90.12-34.4 124.52 0 34.4 34.4 34.4 90.1 0 124.5C117 519.5.476 511.5.476 511.5s-7.992-117.4 41.504-166zm22.6 101.9s38.72 2.7 55.22-13.8c11.4-11.4 11.4-30 0-41.4-11.5-11.4-29.99-11.4-41.42 0-16.46 16.5-13.8 55.2-13.8 55.2z"/></svg>