<svg xmlns="http://www.w3.org/2000/svg" viewBox="0 0 640 512"><!--! Font Awesome Pro 6.1.1 by @fontawesome - https://fontawesome.com License - https://fontawesome.com/license (Commercial License) Copyright 2022 Fonticons, Inc.--><path d="M48 456c0 13.3-10.75 24-24 24S0 469.3 0 456V184C0 100.1 68.05 32 152 32h5.1c49.8 0 96.4 24.4 124.8 65.3L398.4 265c23.9 34.5 63.2 55 105.1 55h8.5c44.2 0 80-35.8 80-80v-8c0-40.3-27.1-74.2-64-84.7V264c0 13.3-10.7 24-24 24s-24-10.7-24-24V145.1c-16.2 2.1-31.8 7.6-45.9 16l-18.1 10v63.2l-58-83.5 51.4-30.9c26.2-15.6 56-23.9 86.5-23.9h8.1c75.1 0 136 60.9 136 136v224c0 13.3-10.7 24-24 24s-24-10.7-24-24V339.9c-16 12.8-35.1 21.9-56 25.9V456c0 13.3-10.7 24-24 24s-24-10.7-24-24v-88.7c-16.6-1.4-32.7-5.2-48-11.2V456c0 13.3-10.7 24-24 24s-24-10.7-24-24V328.2c-12.5-11.1-23.6-23.1-33.1-35.8L344 270.9V456c0 13.3-10.7 24-24 24s-24-10.7-24-24V201.8l-48-69.2V456c0 13.3-10.7 24-24 24s-24-10.7-24-24V89.28C186.7 83.25 172.1 80 157.1 80H152v376c0 13.3-10.7 24-24 24s-24-10.7-24-24V91.72C70.72 109.1 48 143.9 48 184v272z"/></svg>