<svg xmlns="http://www.w3.org/2000/svg" viewBox="0 0 512 512"><!--! Font Awesome Pro 6.1.1 by @fontawesome - https://fontawesome.com License - https://fontawesome.com/license (Commercial License) Copyright 2022 Fonticons, Inc.--><path d="M256 79.1c-77.5 0-143.3 51-166.8 120.6-4.24 12.5-17.86 18.4-30.41 15-12.56-4.2-19.31-17.8-15.07-30.4C73.6 95.8 157.3 32 256 32c81.5 0 152.8 43.53 192 108.6V104c0-13.25 10.7-24 24-24s24 10.75 24 24v96c0 13.3-10.7 24-24 24h-96c-13.3 0-24-10.7-24-24s10.7-24 24-24h36.8c-29.1-57.9-88.4-96-156.8-96v-.9zm24 184c0 14.2-10.7 24-24 24s-24-9.8-24-24v-112c0-12.4 10.7-24 24-24s24 11.6 24 24v112zM224 352c0-17.7 14.3-32.9 32-32.9s32 15.2 32 32.9-14.3 32-32 32-32-14.3-32-32zM40 432c-13.25 0-24-10.7-24-24v-96.9c0-12.4 10.75-24 24-24h96c13.3 0 24 11.6 24 24 0 14.2-10.7 24.9-24 24.9H99.19c29.11 57 88.41 96 156.81 96 77.5 0 143.3-50.1 166.8-119.7 4.2-12.5 17.9-19.3 30.4-15 12.6 4.2 19.3 17.8 15.1 30.4C438.4 416.2 354.7 480 256 480c-81.5 0-152.8-43.5-192-108.6V408c0 13.3-10.75 24-24 24z"/></svg>