<svg xmlns="http://www.w3.org/2000/svg" viewBox="0 0 512 512"><!--! Font Awesome Pro 6.1.1 by @fontawesome - https://fontawesome.com License - https://fontawesome.com/license (Commercial License) Copyright 2022 Fonticons, Inc.--><path d="M451.3 26.01c17.8-3.35 35.1 8.72 36.8 26.89 15.8 103.7 10.3 194.9-24.6 272.2-35.2 77.8-98.7 138.4-194.1 183.1-8.2 3.9-17.7 4.1-26 .5-97.9-41.2-161.78-102.2-196.49-181.1C12.55 249.5 8.034 156.5 23 52.89c2.63-18.18 19.91-30.22 37.66-26.88C132.4 39.53 186.2 37.77 239.4 6.009c10.2-6.095 23-6.095 33.2 0 53.2 31.761 107 33.521 178.7 20.001zM64.02 192c2.93 43.1 11.67 81.8 26.83 116.3 28.25 64.3 80.05 116.2 164.65 153.4 83.4-40.5 134.6-93.6 164.3-156.4 14.3-33.7 24.2-72.2 27.5-113.3H64.02z"/></svg>