<svg xmlns="http://www.w3.org/2000/svg" viewBox="0 0 576 512"><!--! Font Awesome Pro 6.1.1 by @fontawesome - https://fontawesome.com License - https://fontawesome.com/license (Commercial License) Copyright 2022 Fonticons, Inc.--><path d="M248.2 149.9c-10 8.7-11 23.9-3.1 33.9 9.6 9.9 24.8 10.9 34.7 1.3 39.78-34.97 104.5-34.97 144.3 0 9.969 8.76 25.12 7.775 33.88-2.189C462 179.2 464 173.6 464 167.9c0-6.678-2.75-13.33-8.154-18.07-57.246-50.3-150.446-50.3-207.646.07zm-47.9-44.4c83.69-77.05 219.8-77.05 303.5 0 9.75 8.979 24.94 8.338 33.91-1.424A24.052 24.052 0 0 0 544 87.83c0-6.477-2.594-12.95-7.75-17.69-101.6-93.52-266.9-93.52-368.5 0-10.65 8.96-10.35 24.18-1.45 33.96 9 9.8 24.2 10.4 34 1.4zM512 303.1H376v-56c0-13.25-10.75-23.1-23.1-23.1S328 234.7 328 247.1v55.97H64c-35.35 0-64 28.68-64 64.03v79.1C0 483.3 28.65 512 64 512h448c35.35 0 64-28.65 64-64v-79.1c0-36.3-28.7-65.8-64-65.8zm16 144c0 8.824-7.178 16-16 16H64c-8.822 0-16-7.18-16-16v-80.01c0-8.822 7.178-15.99 16-15.99h448c8.822 0 16 7.166 16 15.99v80.01zm-344-64c-13.25 0-24 10.75-24 24 0 13.26 10.75 24 24 24s24-10.75 24-24c0-12.4-10.7-24-24-24zm-80 0c-13.25 0-24 10.75-24 24 0 13.26 10.75 24 24 24s24-9.9 24-24c0-12.4-10.7-24-24-24z"/></svg>