<svg xmlns="http://www.w3.org/2000/svg" viewBox="0 0 448 512"><!--! Font Awesome Pro 6.1.1 by @fontawesome - https://fontawesome.com License - https://fontawesome.com/license (Commercial License) Copyright 2022 Fonticons, Inc.--><path d="M245.7 9.043a133.004 133.004 0 0 0 123.4 7.027c18.6-8.484 40.7-1.36 50.8 16.44l20.7 36.15c6.6 11.61 7 25.77 1 37.74l-8.4 16.9c-11.3 22.6-17.2 47.5-17.2 72.8 0 20.6 3.9 41.1 11.6 60.4l11.7 29.2c5.8 14.3 8.7 29.6 8.7 45 0 46.7-26.8 89.2-68.8 109.4l-144.8 69.5c-6.6 3.2-14.2 3.2-20.8 0L68.84 440.1C26.76 419.9 0 377.4 0 330.7c0-15.4 2.946-30.7 8.679-45l11.691-29.2C28.05 237.2 32 216.7 32 196.1c0-25.3-5.88-50.2-17.17-72.8l-8.467-16.9a40.01 40.01 0 0 1 1.048-37.74L28.07 32.51c10.17-17.8 32.22-24.924 50.88-16.44C118.7 34.14 164.8 31.52 202.3 9.043l9.4-5.623c7.6-4.56 17-4.56 24.6 0l9.4 5.623zM79.96 192a210.593 210.593 0 0 1-15.02 82.3l-11.69 29.2c-3.47 8.7-5.25 17.9-5.25 27.2 0 27.4 16.18 54 41.61 66.2L224 461.4l134.4-64.5c25.4-12.2 41.6-38.8 41.6-66.2 0-9.3-1.8-18.5-5.2-27.2l-11.7-29.2c-10-24.9-15.1-51.4-15.1-78.2V192H79.96z"/></svg>