<svg xmlns="http://www.w3.org/2000/svg" viewBox="0 0 448 512"><!--! Font Awesome Pro 6.1.1 by @fontawesome - https://fontawesome.com License - https://fontawesome.com/license (Commercial License) Copyright 2022 Fonticons, Inc.--><path d="M25 32.05C12.05 31.18.583 41.77.02 55.02-.525 68.27 9.756 79.46 23 79.99 222.5 88.36 391.7 257.5 400 457c.6 12.9 11.2 23 23.1 23 .344 0 .672 0 1.016-.031 13.25-.531 23.53-11.72 22.98-24.97C438.6 231.1 248.9 41.39 25 32.05zm.57 144.05C12.41 175.381.91 185.256.06 198.47c-.867 13.23 9.163 24.63 22.38 25.43 120.1 7.875 225.7 112.7 233.6 233.6.86 12.8 11.36 22.5 23.06 22.5.531 0 1.062-.031 1.594-.063 13.22-.843 23.25-12.28 22.39-25.5C294.6 310.3 169.7 185.4 25.57 176.1zM63.1 351.9c-16.38 0-32.75 6.314-45.25 18.81-24.99 24.99-24.99 65.51 0 90.5C31.25 473.8 47.62 480 63.1 480s32.76-6.25 45.26-18.75c24.99-24.99 24.99-65.51 0-90.5-11.6-12.45-27.98-18.85-45.26-18.85zm12.22 75.4c-4.078 4.078-8.838 4.687-11.31 4.687s-7.234-.61-11.31-4.687c-4.076-4.078-4.685-8.836-4.685-11.31 0-2.476.61-7.234 4.687-11.31 4.078-4.078 8.838-4.687 11.31-4.687s7.234.61 11.31 4.687c4.078 4.078 4.685 8.836 4.685 11.31-.007 2.51-.607 7.21-4.687 11.31z"/></svg>