<svg xmlns="http://www.w3.org/2000/svg" viewBox="0 0 640 512"><!--! Font Awesome Pro 6.1.1 by @fontawesome - https://fontawesome.com License - https://fontawesome.com/license (Commercial License) Copyright 2022 Fonticons, Inc.--><path d="M616 64c13.3 0 24 10.75 24 24 0 13.3-10.7 24-24 24h-8v40h8c13.3 0 24 10.7 24 24s-10.7 24-24 24h-8v32h8c13.3 0 24 10.7 24 24s-10.7 24-24 24h-8v32h8c13.3 0 24 10.7 24 24s-10.7 24-24 24h-8v40h8c13.3 0 24 10.7 24 24s-10.7 24-24 24H24c-13.25 0-24-10.7-24-24s10.75-24 24-24h8v-40h-8c-13.25 0-24-10.7-24-24s10.75-24 24-24h8v-32h-8c-13.25 0-24-10.7-24-24s10.75-24 24-24h8v-32h-8c-13.25 0-24-10.7-24-24s10.75-24 24-24h8v-40h-8c-13.25 0-24-10.7-24-24 0-13.25 10.75-24 24-24h592zM80 112v288h48V112H80zm384 0H176v288h288V112zm48 288h48V112h-48v288z"/></svg>