<svg xmlns="http://www.w3.org/2000/svg" viewBox="0 0 512 512"><!--! Font Awesome Pro 6.1.1 by @fontawesome - https://fontawesome.com License - https://fontawesome.com/license (Commercial License) Copyright 2022 Fonticons, Inc.--><path d="M495.1 174.8c0-45.12-7.712-83.76-14.15-108.2-4.688-17.54-18.34-31.23-36.04-35.95C435.5 27.91 392.9 16 337 16 149 16 15.1 154.6 15.1 337.2c0 45.12 7.713 83.77 14.15 108.2C35.22 464.3 50.46 496 174.9 496c187.2 0 320.2-138.6 320.2-321.2zm-47.2-.5c0 157.3-112.1 273.7-273 273.7-32.06 0-64.21-4.277-96.35-12.93-3.39-.9-14.53-49.41-14.53-97.37C64.07 180.4 176.2 64 337 64c31.83 0 63.92 4.303 96.41 13.07 3.29.88 14.49 49.13 14.49 97.23zM360 136a15.933 15.933 0 0 0-11.31 4.688l-44.67 44.67-20.69-20.69a15.948 15.948 0 0 0-11.31-4.688c-8.528 0-16 6.865-16 16 0 4.094 1.562 8.188 4.688 11.31l20.69 20.69-25.38 25.38L235.3 212.7c-3.1-3.1-7.2-5.6-11.3-5.6-9.141 0-16 7.473-16 16 0 4.094 1.562 8.188 4.688 11.31l20.69 20.69L208 281.4l-20.7-20.7c-3.1-3.1-7.2-5.6-11.3-5.6-9.142 0-16 7.472-16 16 0 4.094 1.562 8.188 4.688 11.31l20.69 20.69-44.69 44.69C137.6 351.8 136 355.9 136 360c0 9.139 7.473 16 16 16 4.094 0 8.188-1.562 11.31-4.688l44.69-44.69 20.69 20.69a15.949 15.949 0 0 0 11.31 4.689c8.526 0 16-6.867 16-16 0-4.094-1.562-8.188-4.688-11.31L230.6 303.1l25.38-25.38 20.69 20.69a15.949 15.949 0 0 0 11.31 4.689c8.526 0 16-6.867 16-16 0-4.094-1.562-8.188-4.688-11.31l-20.69-20.69 25.38-25.38 20.69 20.69a15.951 15.951 0 0 0 11.31 4.688c8.545 0 16-6.882 16-16 0-4.094-1.562-8.188-4.688-11.31l-20.69-20.69 44.67-44.67C374.4 160.2 376 156.1 376 152c0-9.1-7.5-16-16-16z"/></svg>