<svg xmlns="http://www.w3.org/2000/svg" viewBox="0 0 256 512"><!--! Font Awesome Pro 6.1.1 by @fontawesome - https://fontawesome.com License - https://fontawesome.com/license (Commercial License) Copyright 2022 Fonticons, Inc.--><path d="M192 0c35.3 0 64 28.65 64 64v384c0 35.3-28.7 64-64 64H64c-35.35 0-64-28.7-64-64V64C0 28.65 28.65 0 64 0h128zm0 48H64c-8.84 0-16 7.16-16 16v384c0 8.8 7.16 16 16 16h128c8.8 0 16-7.2 16-16v-32h-48c-8.8 0-16-7.2-16-16s7.2-16 16-16h48v-64h-48c-8.8 0-16-7.2-16-16s7.2-16 16-16h48v-64h-48c-8.8 0-16-7.2-16-16s7.2-16 16-16h48v-64h-48c-8.8 0-16-7.2-16-16s7.2-16 16-16h48V64c0-8.84-7.2-16-16-16z"/></svg>