<svg xmlns="http://www.w3.org/2000/svg" viewBox="0 0 512 512"><!--! Font Awesome Pro 6.1.1 by @fontawesome - https://fontawesome.com License - https://fontawesome.com/license (Commercial License) Copyright 2022 Fonticons, Inc.--><path d="M256 384H128V256l128 128zm256 93.3v2.7c0 17.7-14.3 32-32 32H64c-35.35 0-64-28.7-64-64V32C0 14.33 14.33 0 32 0h2.75c8.48 0 16.62 3.372 22.62 9.372L502.6 454.6c6 6 9.4 14.2 9.4 22.7zM64 464h380.1l-66.7-66.7-14.1 14c-6.2 6.3-16.4 6.3-22.6 0-6.3-6.2-6.3-16.4 0-22.6l14-14.1-57.3-57.3-14.1 14c-6.2 6.3-16.4 6.3-22.6 0-6.3-6.2-6.3-16.4 0-22.6l14-14.1-57.3-57.3-14.1 14c-6.2 6.3-16.4 6.3-22.6 0-6.3-6.2-6.3-16.4 0-22.6l14-14.1-57.3-57.3-14.1 14c-6.2 6.3-16.4 6.3-22.6 0-6.26-6.2-6.26-16.4 0-22.6l14-14.1-67.6-66.72V448c0 8.8 8.06 16 16 16h.9z"/></svg>