<svg xmlns="http://www.w3.org/2000/svg" viewBox="0 0 448 512"><!--! Font Awesome Pro 6.1.1 by @fontawesome - https://fontawesome.com License - https://fontawesome.com/license (Commercial License) Copyright 2022 Fonticons, Inc.--><path d="M0 56c0-13.25 10.75-24 24-24h96c75.1 0 136 60.89 136 136 0 59.4-38.1 109.9-91.1 128.4l57.5 151.1c4.7 12.3-1.5 26.2-13.9 30.9-12.3 4.7-26.2-1.5-30.9-13.9L116.4 304H48v152c0 13.3-10.75 24-24 24S0 469.3 0 456V56zm48 200h72c48.6 0 88-39.4 88-88s-39.4-88-88-88H48v176zm265.7 26.3c1.2 3.1 3.5 6.2 7.5 9.4 9.2 7.4 23.3 12.5 43.1 19.6l.9.3c17.4 6.1 39.9 14.2 56.6 28.5 9.1 7.7 16.9 17.6 21.6 30.3 4.7 12.7 5.7 26.8 3.5 42-4.8 25.7-19.1 46.5-41 57.5-21 10.6-46.4 12.3-71.6 7.7l-.2-.1c-8.9-1.7-21-5.6-29.4-9.1-6.4-3.3-13.1-5.1-18.5-7.3-2.7-1.1-5.1-2-7-2.8-12.3-4.8-18.4-18.7-13.5-31.1 4.8-12.3 18.7-18.4 31.1-13.6 2.5 1 5.3 2.1 8.1 3.3 5.2 1.2 10.8 4.3 16.7 6.6 9.4 2.6 17 6 21.5 6.9 18.1 3.3 32.1 1.2 41.2-3.3 8.1-5 13.5-10.7 15.1-21.7 1.3-8.8.4-14.5-1.1-18.3-2.2-3.8-3.7-7.2-7.7-10.6-8.9-7.6-22.9-13.1-42.4-20l-2.9-1.1c-16.8-5.9-38.1-13.5-54.1-26.2-9-8.1-17.1-16.6-22.1-29-5-12.4-7-26.1-4-40.8 7.8-52.8 62.2-74.5 112.6-65.2 7.1 1.3 28.4 6.1 36.5 8.7 12.6 3.9 19.7 17.4 15.7 30-4 12.7-17.4 19.7-30.1 15.8-5.5-1.8-24.7-6.2-31.7-7.3-35.4-6.7-53.3 10.2-55.5 25-1.2 7.9-.2 12.8 1.1 15.9z"/></svg>