<svg xmlns="http://www.w3.org/2000/svg" viewBox="0 0 512 512"><!--! Font Awesome Pro 6.1.1 by @fontawesome - https://fontawesome.com License - https://fontawesome.com/license (Commercial License) Copyright 2022 Fonticons, Inc.--><path d="M0 56c0-13.25 10.75-24 24-24h96c75.1 0 136 60.89 136 136 0 59.4-38.1 109.9-91.1 128.4l57.5 151.1c4.7 12.3-1.5 26.2-13.9 30.9-12.3 4.7-26.2-1.5-30.9-13.9L116.4 304H48v152c0 13.3-10.75 24-24 24S0 469.3 0 456V56zm48 200h72c48.6 0 88-39.4 88-88s-39.4-88-88-88H48v176zm352-96c61.9 0 112 50.1 112 112s-50.1 112-112 112h-64v104c0 13.3-10.7 24-24 24s-24-10.7-24-24V184c0-13.3 10.7-24 24-24h88zm64 112c0-35.3-28.7-64-64-64h-64v128h64c35.3 0 64-28.7 64-64z"/></svg>