<svg xmlns="http://www.w3.org/2000/svg" viewBox="0 0 640 512"><!--! Font Awesome Pro 6.1.1 by @fontawesome - https://fontawesome.com License - https://fontawesome.com/license (Commercial License) Copyright 2022 Fonticons, Inc.--><path d="M264 128c13.3 0 24 10.7 24 24v80c0 13.3-10.7 24-24 24H120c-13.3 0-24-10.7-24-24v-80c0-13.3 10.7-24 24-24h144zM224 24c0-13.25 10.7-24 24-24h112c13.3 0 24 10.75 24 24v8h136c48.6 0 88 39.4 88 88v40c0 22.5-15.5 41.4-36.4 46.6l53.1 41.7c9.7 7.6 15.3 19.2 15.3 31.5V376c0 22.1-17.9 40-40 40h-25.6c1 5.2 1.6 10.5 1.6 16 0 44.2-35.8 80-80 80s-80-35.8-80-80c0-5.5.6-10.8 1.6-16H254.4c1 5.2 1.6 10.5 1.6 16 0 44.2-35.8 80-80 80s-80-35.8-80-80c0-7 .89-13.7 2.55-20.1-1.25-.9-2.43-1.8-3.52-3.8L21.09 335A71.956 71.956 0 0 1 0 284.1V104c0-39.76 32.24-72 72-72h152v-8zM72 80c-13.25 0-24 10.75-24 24v180.1c0 6.4 2.53 12.5 7.03 17L121.9 368h5.2c14.3-10.9 30-16 48.9-16 18 0 34.6 5.1 48 16h160V184c0-13.3 10.7-24 24-24h152v-40c0-22.09-17.9-40-40-40H72zm423.7 128H432v48h124.8l-61.1-48zM176 400c-17.7 0-32 14.3-32 32s14.3 32 32 32 32-14.3 32-32-14.3-32-32-32zm320 0c-17.7 0-32 14.3-32 32s14.3 32 32 32 32-14.3 32-32-14.3-32-32-32z"/></svg>