<svg xmlns="http://www.w3.org/2000/svg" viewBox="0 0 512 512"><!--! Font Awesome Pro 6.1.1 by @fontawesome - https://fontawesome.com License - https://fontawesome.com/license (Commercial License) Copyright 2022 Fonticons, Inc.--><path d="m256 286.1 47-47.1c9.4-9.3 24.6-9.3 33.1 0 10.2 9.4 10.2 24.6 0 33.1L289.9 320l46.2 47c10.2 9.4 10.2 24.6 0 33.1-8.5 10.2-23.7 10.2-33.1 0l-47-46.2-47.9 46.2c-8.5 10.2-23.7 10.2-33.1 0-9.3-8.5-9.3-23.7 0-33.1l47.1-47-47.1-47.9c-9.3-8.5-9.3-23.7 0-33.1 9.4-9.3 24.6-9.3 33.1 0l47.9 47.1zM0 416c0-141.2 89.41-230.5 150.8-276.1 10.4-7.8 20-14.2 28.2-19.5l-57.1-82.78C110.1 21.7 122.4 0 141.7 0h228.6c19.3 0 30.7 21.7 19.8 37.62l-58 82.78c9.1 5.3 18.7 11.7 29.1 19.5C422.6 185.5 512 274.8 512 416c0 53-43 96-96 96H96c-53.02 0-96-43-96-96zm293.3-264h-74.6l-13.8 8.8C150.9 195.4 48 277 48 416c0 26.5 21.49 48 48 48h320c26.5 0 48-21.5 48-48 0-139-102.9-220.6-156.9-255.2l-13.8-8.8zm31.3-104H187.4l38.6 56h59.1l39.5-56z"/></svg>