<svg xmlns="http://www.w3.org/2000/svg" viewBox="0 0 576 512"><!--! Font Awesome Pro 6.1.1 by @fontawesome - https://fontawesome.com License - https://fontawesome.com/license (Commercial License) Copyright 2022 Fonticons, Inc.--><path d="M508.6 294.2c3.8 4.8 4.5 11.3 1.8 16.8s-8.3 9-14.4 9H272c-8.8 0-16-7.2-16-16V16c0-6.834 4.3-12.914 10.8-15.133 6.5-2.218 13.6-.085 17.8 5.311l224 288.022zm-296-197.51c6.8 2.04 11.4 7.41 11.4 15.31v192c0 8.8-7.2 16-16 16H80c-5.9 0-11.32-3.2-14.11-8.4-2.78-5.3-2.48-11.6.8-16.5l128.01-192c3.9-5.84 11.2-8.46 17.9-6.41zM556 352c10.3 0 17.9 9.5 15.6 19.5l-9.1 40.6c-13.2 58.4-65 99.9-124.9 99.9H138.4c-59.87 0-111.74-41.5-124.88-99.9l-9.131-40.6C2.138 361.5 9.746 352 19.1 352H556zM59.1 400l1.25 1.6c8.21 36.5 39.75 62.4 78.05 62.4h299.2c37.4 0 69.8-25.9 78-62.4l.4-1.6H59.1z"/></svg>