<svg xmlns="http://www.w3.org/2000/svg" viewBox="0 0 512 512"><!--! Font Awesome Pro 6.1.1 by @fontawesome - https://fontawesome.com License - https://fontawesome.com/license (Commercial License) Copyright 2022 Fonticons, Inc.--><path d="M512 240c0-49.86-28.1-92.82-70.87-113.8-12.5-33.24-42.5-56.61-77.75-60.98-12.75-2-24.05-.822-36.43 2.551C309.2 26.67 268.6 0 223.8 0 179 0 138.5 26.74 120.9 67.86c-17.9-4.88-29.65-3.75-36.65-2.63C38 70.73 2.504 108.7.129 155.2c-1 15.1 4.125 36.99 10.62 49.11 9 16.1 15.88 34.99 19 53.61-7.375 1.748-14.38 4.998-19.62 10.75-7.25 7.873-10.88 18.37-10 28.99 6.25 72.86 51.38 136.5 116.6 166.3C119.6 490.9 142.1 512 169.5 512h173.6c27.38 0 50.13-21.12 52.75-48.24 65-29.99 109.9-93.48 116-166.1.625-7.748-1.875-15.12-5.75-21.87 3.5-11.39 5.9-23.29 5.9-35.79zM208 112c0-8.8 7.2-16 16-16s16 7.156 16 16v144h-32V112zM68.69 148.7c6.25-6.25 16.38-6.25 22.62 0L198.6 256h-45.2l-84.71-84.7c-6.25-6.2-6.25-16.4 0-22.6zM364 425l-15.75 5.748v27.49c0 3.25-2.375 5.75-5.125 5.75H169.5c-2.75 0-5.125-2.5-5.125-5.75v-27.37l-15.88-5.623c-52.75-18.1-90.75-65.86-99.25-121.2h413.5C454.4 359.3 416.5 406 364 425zm97.8-168.9H306.2c-1.125-5.25-2.25-10.37-2.25-15.1 0-44.24 35.88-79.98 80-79.98 46.13 0 80.13 38.87 80.13 79.98-.08 4.7-1.18 9.8-2.28 15.1z"/></svg>