<svg xmlns="http://www.w3.org/2000/svg" viewBox="0 0 512 512"><!--! Font Awesome Pro 6.1.1 by @fontawesome - https://fontawesome.com License - https://fontawesome.com/license (Commercial License) Copyright 2022 Fonticons, Inc.--><path d="M480 320H32c-17.62 0-32 14.38-32 32v64c0 17.62 14.38 32 32 32h448c17.62 0 32-14.38 32-32v-64c0-17.6-14.4-32-32-32zm-16 80H48v-32h416v32zm16-336H32C14.38 64 0 78.38 0 96v64c0 17.62 14.38 32 32 32h448c17.62 0 32-14.38 32-32V96c0-17.62-14.4-32-32-32zm-16 80H48v-32h416v32zm33.6 103.3c-16.8-1.8-26.8-6.8-38.8-12.8-12.88-6.5-71.63-38.88-149.3 0-52.75 26.38-90.25 8.25-106.6 0-12.75-6.375-71.25-39.13-149.5 0-12 6-22 11-39 12.75C6.25 248.1 0 255 0 263.1v16.12c0 9.5 8.5 16.88 17.1 16 27.4-2.62 43.28-10.42 57.65-17.72 52.88-26.38 90.38-8.125 106.8 0 77.63 38.88 136.5 6.5 149.5 0 55.88-28 95.38-5.5 106.3 0 14.38 7.25 30.38 15.12 56.63 17.75 9.52.85 18.02-6.35 18.02-15.95v-16.2c0-8.1-6.2-15-14.4-15.8z"/></svg>