<svg xmlns="http://www.w3.org/2000/svg" viewBox="0 0 640 512"><!--! Font Awesome Pro 6.1.1 by @fontawesome - https://fontawesome.com License - https://fontawesome.com/license (Commercial License) Copyright 2022 Fonticons, Inc.--><path d="M112 280c-13.25 0-24 10.75-24 23.1s10.75 23.1 24 23.1 24-10.75 24-23.1-10.7-23.1-24-23.1zM625.9 72.25l-24.63-23.37c-11.5-10.87-26.63-16.87-42.5-16.87h-42.13c-23.38-.125-45.88 8.75-62.75 24.87l-5.5 5.5-9.75-9.625c-6.25-6.25-16.38-6.25-22.63 0l-11.25 11.25c-6.25 6.25-6.25 16.37 0 22.62l9.75 9.875-14 13.1-9.875-9.75c-6.25-6.25-16.38-6.25-22.63 0l-11.25 11.25c-6.25 6.25-6.25 16.37 0 22.62l9.875 9.1-14 14.12-10-9.1c-6.248-6.248-16.38-6.248-22.63 0L308.8 160c-6.25 6.25-6.25 16.37 0 22.62l10 10.12-94.75 95.25 40-111.1c13.26 0 24-10.75 24-24s-10.74-23.1-23.1-23.1H24C10.75 128 0 138.7 0 152s10.74 24 23.1 24h2.627C17.13 209 0 273.1 0 310.9c0 62.62 36.25 119.9 94.75 149.4C119 473.3 146.6 480 176 480c78.63 0 122-46.1 136.3-62.5 4.625-5-17.75 21.5 224.3-266.6h57.13c19 .125 36.13-11.37 43.13-28.1 6.84-18.2 2.44-37.8-10.96-50.55zm-89.4 30.65c-14.13 0-27.63 6.25-36.75 17.12-241.4 287.2-219 260.1-222.8 264.1-11.88 12.87-43.38 46.1-101 46.1-20.75.25-41.25-4.875-59.63-14.62-42.13-21.25-68.38-61.1-68.38-106.5 0-43.87 26.63-120.2 26.63-134.9H213l-34.25 95.87c-7.5 21.12.625 44.75 19.63 56.75 19 11.1 43.75 9.125 59.63-6.75l229-230.2c8-7.5 18.63-11.75 29.63-11.62h42.13c3.5-.125 6.875 1.25 9.375 3.625l20.25 19.25H536.5zM128 199.1c-13.25 0-24 10.75-24 23.1 0 13.25 10.75 23.1 24 23.1s24-8.1 24-22.2c0-12.4-10.7-24-24-24z"/></svg>