<svg xmlns="http://www.w3.org/2000/svg" viewBox="0 0 640 512"><!--! Font Awesome Pro 6.1.1 by @fontawesome - https://fontawesome.com License - https://fontawesome.com/license (Commercial License) Copyright 2022 Fonticons, Inc.--><path d="m74.13 176-7-16.5c-2-6-3-12.38-3.125-18.75 0-10.38 11.25-38.63 36.38-70.5 3.625 4.5 7.125 9 10.5 13.5l36.5 50.38 28.12-34.25C186 118 191.8 134.5 192 140.8c-.1 6.3-1.1 12.7-3 18.7l-7 16.5h52.12c3.75-11.38 5.75-23.25 5.875-35.25 0-26.62-26-81.5-62.25-115.1-10 9.375-19.38 19.37-28.13 29.1C134.1 35.5 118.3 16.88 100 0 50.87 45.63 16 104.1 16 140.7c.125 12 2.124 23.87 5.876 35.25l52.254.05zm551.77-71.7-24.6-23.42C589.8 70 574.7 64 558.8 64h-42.13c-23.38-.125-45.88 8.75-62.75 24.88l-5.5 5.5-9.75-9.625c-6.25-6.25-16.38-6.25-22.62 0L404.8 96c-6.25 6.25-6.25 16.38 0 22.62l9.75 9.875-14 14-9.875-9.75c-6.25-6.25-16.38-6.25-22.63 0L356.8 144c-6.25 6.25-6.25 16.38 0 22.62l9.875 10-14 14.12-10-10c-6.25-6.25-16.38-6.25-22.63 0L308.8 192c-6.25 6.25-6.25 16.38 0 22.62l10 10.12L224 320l22.9-64h1.1c13.3 0 24-10.7 24-24 0-13.26-10.75-24-24-24H24c-13.25 0-24 10.7-24 24 0 9.77 5.889 18.1 14.27 21.85C7.291 283.3 0 320.4 0 342.9c0 62.63 36.25 119.9 94.75 149.4C119 505.3 146.6 512 176 512c78.63 0 122-47 136.3-62.5 4.625-5-17.75 21.5 224.3-266.6h57.13c18.88.125 36-11.38 43.13-29a45.33 45.33 0 0 0-10.96-49.6zm-89.4 30.6c-14.13 0-27.63 6.25-36.75 17.12-241.4 287.3-219 261-222.8 265C265.1 429.9 233.6 464 176 464c-20.75.25-41.25-4.875-59.63-14.62-42.13-21.25-68.38-62-68.38-106.5 0-24.5 8.125-58.63 15.38-86.88h132.5l-17.07 47.9c-7.502 21.12.625 44.75 19.62 56.75 19 12 43.75 9.125 59.63-6.75l229-230.3c7.95-7.5 18.65-11.7 29.65-11.6h42.13c3.5 0 6.875 1.25 9.375 3.625l20.25 19.25H536.5zM120 288c-13.25 0-24 10.75-24 24s10.75 24 24 24 24-10.75 24-24-10.7-24-24-24z"/></svg>