<svg xmlns="http://www.w3.org/2000/svg" viewBox="0 0 576 512"><!--! Font Awesome Pro 6.1.1 by @fontawesome - https://fontawesome.com License - https://fontawesome.com/license (Commercial License) Copyright 2022 Fonticons, Inc.--><path d="M296 464h-48c-13.2 0-24 10.8-24 24s10.8 24 24 24h48c13.2 0 24-10.8 24-24s-10.8-24-24-24zm256 0h-48c-13.2 0-24 10.8-24 24s10.8 24 24 24h48c13.2 0 24-10.8 24-24s-10.8-24-24-24zm-128 0h-48c-13.2 0-24 10.8-24 24s10.8 24 24 24h48c13.2 0 24-10.8 24-24s-10.8-24-24-24zm-183.8-33.6c32.1-25.8 47.8-64 47.8-102.4v-8H179.1L0 512c88.97.125 174.1-29.12 239.6-81.13.2-.27.3-.37.6-.47zm255-316c26.36-30.88 21.24-78.5-12.49-102.5C471.4 3.771 458.3 0 445.2 0c-20.77 0-41.65 9.422-55.88 26.11L187.9 261.5c-9 10.5-1.5 26.5 12.1 26.5h131.9c9.369 0 18.24-4.125 24.36-11.25L495.2 114.4zM324.6 240h-55.1L425.8 57.3c4.9-5.75 12.3-9.3 19.4-9.3 3.695 0 6.947.984 9.729 2.971 6.74 4.795 8.48 11.47 8.92 15.02.453 3.664.39 10.77-5.072 17.17L324.6 240z"/></svg>