<svg xmlns="http://www.w3.org/2000/svg" viewBox="0 0 640 512"><!--! Font Awesome Pro 6.1.1 by @fontawesome - https://fontawesome.com License - https://fontawesome.com/license (Commercial License) Copyright 2022 Fonticons, Inc.--><path d="M520 176c10.16 0 19.59-6.5 22.86-16.69 4.031-12.62-2.922-26.12-15.55-30.16l-128.1-41c.28-2.719.822-5.347.822-8.14 0-44.18-35.81-80-79.1-80-29.8 0-55.5 16.48-69.26 40.65l-123.4-39.5C114.7-2.875 101.2 4.094 97.14 16.69c-4.03 12.62 2.96 26.12 15.56 30.15l128.1 41c2.3 32.26 25.3 58.66 54.3 68.06V464H120c-13.3 0-24 10.7-24 24s10.7 24 24 24h191.1c17.67 0 32-14.33 32-32V155.9c14.14-4.477 26.49-12.63 36.02-23.54l132.7 42.45c3.28.79 5.78 1.19 8.18 1.19zm-200-64c-17.64 0-32-14.36-32-32s14.36-32 32-32 32 14.36 32 32-14.4 32-32 32zm234.9 138.5c-8.9-17.6-26.8-26.5-43.8-26.5-17 0-34.21 8.882-42.96 26.51-86.5 172.8-85.04 165.4-85.04 181.5C383.1 476.1 441.3 512 512 512c70.75 0 127.1-35.87 127.1-79.1 0-16.5 2.8-8.1-84.2-182.4zM439.9 416c5.875-12 52.27-104.4 72.15-143.1.125 0 0 0 0 0 18.5 37.5 65.85 131.4 71.98 143.1H439.9zM256 304c0-15.62 2-7.245-85.12-181.5C162.1 104.9 145 96 128 96s-34.21 8.9-42.96 26.5C-1.46 295.3 0 287.9 0 304c0 44.13 57.25 79.1 127.1 79.1S256 348.1 256 304zM128 144c.125 0 65.92 131.4 72.04 143.1H55.92C61.79 276 108.1 183.6 128 144z"/></svg>