<svg xmlns="http://www.w3.org/2000/svg" viewBox="0 0 512 512"><!--! Font Awesome Pro 6.1.1 by @fontawesome - https://fontawesome.com License - https://fontawesome.com/license (Commercial License) Copyright 2022 Fonticons, Inc.--><path d="M482.7 11.86C471.4 3.771 458.3 0 445.2 0c-20.77 0-41.65 9.422-55.88 26.11L187.9 261.5c-9 10.5-1.5 26.5 12.1 26.5h131.9c9.369 0 18.24-4.125 24.36-11.25l138.9-162.4C521.6 83.49 516.5 35.86 482.7 11.86zm-23.9 71.3L324.6 240h-55.11l156.3-182.7c4.91-5.75 12.31-9.3 19.41-9.3 3.695 0 6.947.984 9.729 2.971 6.74 4.795 8.48 11.47 8.92 15.02.451 3.669.351 10.779-5.049 17.169zM0 512c88.97.125 174.1-29.12 239.6-81.13.256-.25.383-.375.639-.5C272.3 404.6 288 366.4 288 328v-8H179.1L0 512z"/></svg>