<svg xmlns="http://www.w3.org/2000/svg" viewBox="0 0 640 512"><!--! Font Awesome Pro 6.1.1 by @fontawesome - https://fontawesome.com License - https://fontawesome.com/license (Commercial License) Copyright 2022 Fonticons, Inc.--><path d="M128 224c-16.1 0-34.12 8.882-42.1 26.51-87 174.3-84.1 165.9-84.1 181.5C.004 476.1 57.25 512 128 512s128-35.87 128-79.1c0-16.12 1.375-8.745-85.12-181.5C162.1 232.9 145 224 128 224zM55.96 416c6.125-12.62 53.48-106.5 71.98-143.1 0 0-.125 0 0 0 19.87 39.63 66.27 131.1 72.15 143.1H55.96zM520 464H344.9V155.9c29.95-9.473 52.03-35.85 55.21-68.09l128.1-40.99c12.62-4.031 19.58-17.53 15.55-30.16-4.031-12.59-17.52-19.56-30.17-15.53l-123.4 39.5C376.42 16.46 350.73-.02 320.93-.02c-44.18 0-79.1 35.82-79.1 80 0 2.793.543 5.421.822 8.14L112.7 129.2c-12.6 4-19.59 17.5-15.56 30.1C100.4 169.5 109.8 176 120 176c2.422 0 4.875-.375 7.312-1.156L259.1 132.4c10.4 10.9 22.8 19.1 36.9 23.5V480c0 17.67 14.33 32 32 32h192c13.25 0 24-10.75 24-24 0-13.3-10.7-24-24-24zM320 112c-17.64 0-32-14.36-32-32s14.36-32 32-32 32 14.36 32 32-14.4 32-32 32zm234.9 10.5C546.1 104.9 529 96 512 96s-34.21 8.886-42.96 26.51C381.91 296.81 384 288.41 384 304.01c0 44.13 57.25 79.1 128 79.1s127.1-35.87 127.1-79.1c0-16.11 2.3-8.71-84.2-181.51zM439.1 288c6.125-12.62 71.92-143.1 72.04-143.1 19.88 39.63 66.21 131.1 72.08 143.1H439.1z"/></svg>