<svg xmlns="http://www.w3.org/2000/svg" viewBox="0 0 576 512"><!--! Font Awesome Pro 6.1.1 by @fontawesome - https://fontawesome.com License - https://fontawesome.com/license (Commercial License) Copyright 2022 Fonticons, Inc.--><path d="M79.13 251.1C33.32 237.1 0 194.4 0 143.1c0-60.96 50.14-112 112-112h192c26.5 0 48 22.39 48 48v128c0 27.4-21.5 48-48 48h-44L144.3 454.4c-13.4 22.9-42.9 30.6-65.82 17.2l-53.46-31.5C2.312 426.8-5.383 397.6 7.785 374.8L79.13 251.1zM48 143.1c0 36.2 28.65 64 64 64h192v-128H112c-35.35 0-64 29.6-64 64zm83.7 112L49.36 398.8l53.44 31.4 101.6-175.1h-72.7zM552 31.1c13.3 0 24 11.64 24 24 0 14.15-10.7 24-24 24H440c-13.3 0-24-9.85-24-24 0-12.36 10.7-24 24-24h112zm-136 184c0-12.4 10.7-24 24-24h112c13.3 0 24 11.6 24 24 0 14.2-10.7 24-24 24H440c-13.3 0-24-9.8-24-24zm136 216c13.3 0 24 11.6 24 24 0 14.2-10.7 24-24 24H440c-13.3 0-24-9.8-24-24 0-12.4 10.7-24 24-24h112zm-136-288c0-7.9 7.2-16 16-16h128c8.8 0 16 8.1 16 16 0 9.7-7.2 16-16 16H432c-8.8 0-16-6.3-16-16zm144 144c8.8 0 16 8.1 16 16 0 9.7-7.2 16-16 16H432c-8.8 0-16-6.3-16-16 0-7.9 7.2-16 16-16h128zm-144 80c0-7.9 7.2-16 16-16h128c8.8 0 16 8.1 16 16 0 9.7-7.2 16-16 16H432c-8.8 0-16-6.3-16-16z"/></svg>