<svg xmlns="http://www.w3.org/2000/svg" viewBox="0 0 512 512"><!--! Font Awesome Pro 6.1.1 by @fontawesome - https://fontawesome.com License - https://fontawesome.com/license (Commercial License) Copyright 2022 Fonticons, Inc.--><path d="M511.1 403.3c.809-2.639.717-5.454-1.322-7.577l-143.1-142.9 24.12-24.62c48.5-53.75 13-113.4 11.5-115.9l-43.78-73.01c-4.375-7.125-9.792-13.25-16.79-17.1-45.75-30.5-132.3-26.21-171.4.167-6.875 4.75-12.5 10.75-16.75 17.1l-43.63 73.12C108.4 115.1 72.75 174.8 121.4 228.4l23.94 24.54-140.7 143.9c-6.223 6.205-6.203 16.34.045 22.52 6.234 6.164 16.34 6.205 22.55.012l67.25-68.85 22.23 22.23-64.18 63.99c-6.234 6.22-6.24 16.41-.012 22.63 6.217 6.217 16.39 6.219 22.62.006l64.15-64.05 21.29 21.29-67.94 68.23c-6.223 6.205-6.203 16.34.045 22.52 6.234 6.164 16.34 6.205 22.55.011L256 365.9l140.5 143.8c2.061 2.061 4.836 2.252 7.453 1.596 5.289 1.406 11.12.305 15.29-3.818 6.248-6.18 6.33-16.37.107-22.58l-68.13-68.42 21.29-21.29 64.34 64.24c6.221 6.213 16.4 6.211 22.62-.006 6.23-6.229 6.223-16.41-.011-22.63l-64.3-64.11 22.23-22.23 67.38 68.98c6.207 6.193 16.25 6.215 22.48.05C511.6 415.1 512.8 408.8 511.1 403.3zM349 116.1l12 20.12c4.25 7.375 16.62 33.38-5.375 58.25L332.5 218.1l-42.75-42.75L349 116.1zM194.8 64.11c12.5-21 110.1-21 122.6-.125l6.375 10.5L256 142.2l-67.6-67.71 6.4-10.38zM179.1 287.2l43.4 44.4-39 39.88-44.38-44.25 39.98-40.03zm-22.7-91.8c-22-24.88-9.625-50.88-5.25-58.38l12-20.12L372.95 327l-44.38 44.38L156.4 195.4z"/></svg>