<svg xmlns="http://www.w3.org/2000/svg" viewBox="0 0 640 512"><!--! Font Awesome Pro 6.1.1 by @fontawesome - https://fontawesome.com License - https://fontawesome.com/license (Commercial License) Copyright 2022 Fonticons, Inc.--><path d="M305.3 5.056c8.6-6.741 20.8-6.741 29.4 0L473.9 113.3l105.3 16.6c35 5.5 60.8 35.7 60.8 71.1v71c0-61.9-50.1-112-112-112-11.7 0-22.9 1.8-33.5 5.1l-34.2-5.4c-4.1-.6-7.8-2.3-11-4.8L319.1 54.41 190.7 154.9c-3.2 2.5-6.9 4.2-11 4.8L68.26 177.3C56.59 179.2 48 189.2 48 201v239c0 13.3 10.75 24 24 24h184v-80c0-35.3 28.7-64 64-64s64 28.7 64 64v96c0 11.7 3.1 22.6 8.6 32H72c-39.76 0-72-32.2-72-72V201c0-35.4 25.78-65.6 60.77-71.1l105.33-16.6L305.3 5.056zM143.1 224c9.7 0 16 7.2 16 16v32c0 8.8-6.3 16-16 16h-32c-7.9 0-16-7.2-16-16v-32c0-8.8 8.1-16 16-16h32zm0 96c9.7 0 16 7.2 16 16v64c0 8.8-6.3 16-16 16h-32c-7.9 0-16-7.2-16-16v-64c0-8.8 8.1-16 16-16h32zM400 192c0 44.2-35.8 80-80.9 80-43.3 0-80-35.8-80-80s36.7-80 80-80c45.1 0 80.9 35.8 80.9 80zm-96.9-32v32c0 8.8 8.1 16 16 16H344c8.8 0 16-7.2 16-16s-7.2-16-16-16h-8v-16c0-8.8-7.2-16-16.9-16-7.9 0-16 7.2-16 16zM528 192c44.2 0 80 35.8 80 80v48c17.7 0 32 14.3 32 32v128c0 17.7-14.3 32-32 32H448c-17.7 0-32-14.3-32-32V352c0-17.7 14.3-32 32-32v-48c0-44.2 35.8-80 80-80zm0 48c-17.7 0-32 14.3-32 32v48h64v-48c0-17.7-14.3-32-32-32z"/></svg>