<svg xmlns="http://www.w3.org/2000/svg" viewBox="0 0 640 512"><!--! Font Awesome Pro 6.1.1 by @fontawesome - https://fontawesome.com License - https://fontawesome.com/license (Commercial License) Copyright 2022 Fonticons, Inc.--><path d="M144 224c8.8 0 16 7.2 16 16v32c0 8.8-7.2 16-16 16h-32c-8.8 0-16-7.2-16-16v-32c0-8.8 7.2-16 16-16h32zm336 16c0-8.8 7.2-16 16-16h32c8.8 0 16 7.2 16 16v32c0 8.8-7.2 16-16 16h-32c-8.8 0-16-7.2-16-16v-32zm-336 80c8.8 0 16 7.2 16 16v64c0 8.8-7.2 16-16 16h-32c-8.8 0-16-7.2-16-16v-64c0-8.8 7.2-16 16-16h32zm336 16c0-8.8 7.2-16 16-16h32c8.8 0 16 7.2 16 16v64c0 8.8-7.2 16-16 16h-32c-8.8 0-16-7.2-16-16v-64zm-80-144c0 44.2-35.8 80-80 80s-80-35.8-80-80 35.8-80 80-80 80 35.8 80 80zm-96-32v32c0 8.8 7.2 16 16 16h24c8.8 0 16-7.2 16-16s-7.2-16-16-16h-8v-16c0-8.8-7.2-16-16-16s-16 7.2-16 16zm1.3-154.944c8.6-6.741 20.8-6.741 29.4 0L473.9 113.3l105.3 16.6c35 5.5 60.8 35.7 60.8 71.1v239c0 39.8-32.2 72-72 72H72c-39.76 0-72-32.2-72-72V201c0-35.4 25.78-65.6 60.77-71.1l105.33-16.6L305.3 5.056zM592 440V201c0-11.8-8.6-21.8-20.3-23.7l-111.4-17.6c-4.1-.6-7.8-2.3-11-4.8L320 54.4 190.7 154.9c-3.2 2.5-6.9 4.2-11 4.8L68.26 177.3C56.59 179.2 48 189.2 48 201v239c0 13.3 10.75 24 24 24h184v-80c0-35.3 28.7-64 64-64s64 28.7 64 64v80h184c13.3 0 24-10.7 24-24z"/></svg>