<svg xmlns="http://www.w3.org/2000/svg" viewBox="0 0 640 512"><!--! Font Awesome Pro 6.1.1 by @fontawesome - https://fontawesome.com License - https://fontawesome.com/license (Commercial License) Copyright 2022 Fonticons, Inc.--><path d="m473.9 113.3 105.3 16.6c35 5.5 60.8 35.7 60.8 71.1v65.8c-12.9-18.3-29.2-34.1-48-46.3V201c0-11.8-8.6-21.8-20.3-23.7l-111.4-17.6c-4.1-.6-7.8-2.3-11-4.8L319.1 54.4 190.7 154.9c-3.2 2.5-6.9 4.2-11 4.8L68.26 177.3C56.59 179.2 48 189.2 48 201v239c0 13.3 10.75 24 24 24h184v-80c0-35.3 28.7-64 64-64 2.2 0 4.4.1 6.5.3-4.2 15.2-6.5 31.2-6.5 47.7 0 59.5 29.6 112.1 74.8 144H72c-39.76 0-72-32.2-72-72V201c0-35.4 25.78-65.6 60.77-71.1l105.33-16.6L305.3 5.056c8.6-6.741 20.8-6.741 29.4 0L473.9 113.3zM319.1 272c-43.3 0-80-35.8-80-80s36.7-80 80-80c45.1 0 80.9 35.8 80.9 80 0 11.1-2.6 23.3-7.3 33.5-15.1 10.9-28.3 24.1-39.2 39.2-10.2 4.7-22.4 7.3-34.4 7.3zm-16-112v32c0 8.8 8.1 16 16 16H344c8.8 0 16-7.2 16-16s-7.2-16-16-16h-8v-16c0-8.8-7.2-16-16.9-16-7.9 0-16 7.2-16 16zm-208 80c0-8.8 8.1-16 16-16h32c9.7 0 16 7.2 16 16v32c0 8.8-6.3 16-16 16h-32c-7.9 0-16-7.2-16-16v-32zm48 80c9.7 0 16 7.2 16 16v64c0 8.8-6.3 16-16 16h-32c-7.9 0-16-7.2-16-16v-64c0-8.8 8.1-16 16-16h32zM640 368c0 79.5-64.5 144-144 144s-144-64.5-144-144 64.5-144 144-144 144 64.5 144 144zm-160 17.4-28.7-28.7c-6.2-6.3-16.4-6.3-22.6 0-6.3 6.2-6.3 16.4 0 22.6l40 40c6.2 6.3 16.4 6.3 22.6 0l72-72c6.3-6.2 6.3-16.4 0-22.6-6.2-6.3-16.4-6.3-22.6 0L480 385.4z"/></svg>