<svg xmlns="http://www.w3.org/2000/svg" viewBox="0 0 576 512"><!--! Font Awesome Pro 6.1.1 by @fontawesome - https://fontawesome.com License - https://fontawesome.com/license (Commercial License) Copyright 2022 Fonticons, Inc.--><path d="M336 240c0 26.5-21.5 48-48 48s-48-21.5-48-48 21.5-48 48-48 48 21.5 48 48zm-192 16c8.8 0 16 7.2 16 16v32c0 8.8-7.2 16-16 16h-32c-8.8 0-16-7.2-16-16v-32c0-8.8 7.2-16 16-16h32zm272 16c0-8.8 7.2-16 16-16h32c8.8 0 16 7.2 16 16v32c0 8.8-7.2 16-16 16h-32c-8.8 0-16-7.2-16-16v-32zm-272 80c8.8 0 16 7.2 16 16v32c0 8.8-7.2 16-16 16h-32c-8.8 0-16-7.2-16-16v-32c0-8.8 7.2-16 16-16h32zm320 0c8.8 0 16 7.2 16 16v32c0 8.8-7.2 16-16 16h-32c-8.8 0-16-7.2-16-16v-32c0-8.8 7.2-16 16-16h32zM288 0h112c8.8 0 16 7.164 16 16v48c0 8.84-7.2 16-16 16h-88v11.65L407.7 160H504c39.8 0 72 32.2 72 72v208c0 39.8-32.2 72-72 72H72c-39.76 0-72-32.2-72-72V232c0-39.8 32.24-72 72-72h96.3L264 91.65V24c0-13.25 10.7-24 24-24zm240 440V232c0-13.3-10.7-24-24-24H400c-5.9 0-9.9-1.6-13.9-4.5l-98.1-70-98.1 70c-4 2.9-8.9 4.5-13.9 4.5H72c-13.25 0-24 10.7-24 24v208c0 13.3 10.75 24 24 24h168v-64c0-26.5 21.5-48 48-48s48 21.5 48 48v64h168c13.3 0 24-10.7 24-24z"/></svg>