<svg xmlns="http://www.w3.org/2000/svg" viewBox="0 0 640 512"><!--! Font Awesome Pro 6.1.1 by @fontawesome - https://fontawesome.com License - https://fontawesome.com/license (Commercial License) Copyright 2022 Fonticons, Inc.--><path d="M56 224c13.25 0 24-10.7 24-24V56c0-4.4 3.6-8 8-8h464c4.4 0 8 3.6 8 8v144c0 13.3 10.7 24 24 24s24-10.7 24-24V56c0-30.93-25.1-56-56-56H88C57.07 0 32 25.07 32 56v144c0 13.3 10.75 24 24 24zm488 32c-35.2.2-63.8 28.7-63.8 64s28.6 63.8 63.8 63.1c35.2.7 63.8-27.8 63.8-63.1s-28.6-63.8-63.8-64zm.2 79.1c-8.8.8-15.9-6.3-15.9-15.1 0-8.717 7.041-15.85 15.73-15.97 8.67.17 15.67 7.27 15.67 15.97 0 8.8-7.1 15.9-15.5 15.1zM343.8 416h-47.5c-39.9 0-72.3 33.5-72.3 74.7 0 11.7 9.3 21.3 20.8 21.3h150.3c11.6 0 20.9-9.6 20.9-21.3 0-41.2-32.4-74.7-72.2-74.7zm224 0h-47.5c-39.9 0-72.3 33.5-72.3 74.7 0 11.7 9.3 21.3 20.8 21.3h150.3c11.6 0 20.9-9.6 20.9-21.3 0-41.2-32.4-74.7-72.2-74.7zm-311.6-96c0 35.26 28.57 63.85 63.79 63.98 35.21-.18 63.81-28.68 63.81-63.98s-28.6-63.8-63.8-64c-35.2.2-63.8 28.7-63.8 64zm79.5 0c0 8.775-7.139 15.94-15.55 15.98-8.75-.08-15.85-7.18-15.85-15.98 0-8.717 7.041-15.85 15.73-15.97 8.67.17 15.67 7.27 15.67 15.97zm-215.9 96H72.3C32.42 416 0 449.5 0 490.7 0 502.4 9.34 512 20.83 512h150.3c11.57 0 20.87-9.6 20.87-21.3 0-41.2-32.4-74.7-72.2-74.7zm-87.59-96c0 35.26 28.57 63.85 63.79 63.98 35.2-.18 63.8-28.68 63.8-63.98s-28.6-63.8-63.8-64c-35.22.2-63.79 28.7-63.79 64zm79.49 0c0 8.775-7.139 15.94-15.55 15.98-8.74-.08-15.88-7.18-15.88-15.98 0-8.717 7.041-15.85 15.73-15.97 8.7.17 15.7 7.27 15.7 15.97z"/></svg>