<svg xmlns="http://www.w3.org/2000/svg" viewBox="0 0 512 512"><!--! Font Awesome Pro 6.1.1 by @fontawesome - https://fontawesome.com License - https://fontawesome.com/license (Commercial License) Copyright 2022 Fonticons, Inc.--><path d="m223.1 96.1.005 48.74L253.7 174.6c-6.878-34.87 3.493-70.37 28.49-95.37 20.25-20.25 47.12-31.13 74.99-31.13h1.125L300.1 105.2l15.13 90.61 90.62 15.11 57.24-57.25c.253 28.25-10.62 55.49-31.24 75.99-9.249 9.375-20.12 16.5-31.75 21.63 1.75 1.625 3.874 2.899 5.625 4.648l30.63 30.72c10.5-6.375 20.5-14 29.5-23 37.99-37.1 53.61-94.24 40.61-146.5-3.001-12.25-12.38-21.87-24.38-25.24-12.25-3.373-25.25.127-33.1 9.002l-58.74 58.62-32.37-5.371-5.378-32.5 58.62-58.5c8.874-8.1 12.25-21.1 8.871-33.1-3.251-12.12-13-21.5-25.25-24.49-53.12-13.24-107.9 2.01-146.5 40.51-10.25 10.25-18.5 21.75-25.37 33.1l1.125.75L223.1 96.1zM106 453.9c-12.75 12.75-35.25 12.75-48.12.004-6.375-6.374-10-14.1-10-23.1 0-9.124 3.498-17.62 9.997-23.1L192.3 271.6l-33.9-33.9L24 371.9C8.5 387.4.9 408.02.01 429s8.503 42.49 24 57.99c15.5 15.5 36.12 23.99 57.1 23.99 21.87-.002 42.5-8.503 57.99-24L240 386.08c-9.626-15.87-15.13-33.87-15.63-52.12L106 453.9zm395.1-58.3L384 278.6c-23.13-23.12-57.65-27.65-85.39-13.9L191.1 158V95.99L64 0 0 63.1l96 127.1 62.04.008 106.7 106.6c-13.62 27.75-9.218 62.27 13.91 85.39l117 117.1c14.5 14.62 38.21 14.62 52.71-.002l52.75-52.75C515.6 433.7 515.6 410.1 501.1 395.6z"/></svg>