<svg xmlns="http://www.w3.org/2000/svg" viewBox="0 0 576 512"><!--! Font Awesome Pro 6.1.1 by @fontawesome - https://fontawesome.com License - https://fontawesome.com/license (Commercial License) Copyright 2022 Fonticons, Inc.--><path d="M502.5 32h-429C32.97 32 0 65.19 0 106v62c0 13.3 10.75 24 24 24s24-10.7 24-24v-62c0-14.34 11.44-26 25.5-26h429c14.1 0 25.5 11.66 25.5 26v300c0 14.34-11.44 26-25.5 26H312c-13.25 0-24 10.75-24 24s10.8 24 24 24h190.5c40.5 0 73.5-33.2 73.5-74V106c0-40.81-33-74-73.5-74zM32 416c-17.67 0-32 14.33-32 32s14.33 32 32 32 32-14.33 32-32-14.33-32-32-32zm-8-96c-13.25 0-24 10.8-24 24s10.75 24 24 24c48.53 0 88 39.47 88 88 0 13.3 10.8 24 24 24s24-10.7 24-24c0-75-61-136-136-136zm0-96c-13.25 0-24 10.8-24 24s10.75 24 24 24c101.5 0 184 82.53 184 184 0 13.3 10.8 24 24 24s24-10.7 24-24c0-127.9-104.1-232-232-232z"/></svg>