<svg xmlns="http://www.w3.org/2000/svg" viewBox="0 0 576 512"><!--! Font Awesome Pro 6.1.1 by @fontawesome - https://fontawesome.com License - https://fontawesome.com/license (Commercial License) Copyright 2022 Fonticons, Inc.--><path d="M302.4 64.37c-17.3-17.35-45.3-17.89-63.3-1.22L72.31 217.6c-9.73 9-24.91 8.4-33.92-1.3-9.01-9.7-8.42-24.9 1.3-33.9L206.5 27.93c36.9-34.191 94.3-33.088 129.9 2.5 36.2 36.23 35.7 94.87.8 130.67L120.5 384.6c-9.4 9.7-10.2 24.9-1.7 35.5 10.1 12.6 28.9 13.5 40.2 2l255.3-261.6c27.3-27.9 72-28.1 99.6-.6 26.4 26.5 27.4 69.1 1.2 96.8l-89.7 98.7c-23.3 24.5-21.6 62.4 1.9 86 15.8 16.6 41.3 22.4 63.6 15l21.5-7.2c11.7-4.2 26.2 2.6 30.4 15.2 3.3 11.7-2.6 26.2-15.2 30.4l-21.5 7.1c-39.6 13.2-83.2 2.9-112.7-26.6-41.7-41.7-43.2-108.9-3.3-153.2l90.5-97.9c7.9-8.6 7.6-22-.7-30.3-8.6-8.7-22.7-8.6-31.2.1L193.4 455.6c-31.5 32.2-84 29.6-112.08-5.5-23.59-29.5-21.52-72 4.82-99L302.9 128.5c17.4-17.9 17.2-46.47-.5-64.13z"/></svg>