<svg xmlns="http://www.w3.org/2000/svg" viewBox="0 0 640 512"><!--! Font Awesome Pro 6.1.1 by @fontawesome - https://fontawesome.com License - https://fontawesome.com/license (Commercial License) Copyright 2022 Fonticons, Inc.--><path d="m224.4 256-29.3 48.9c-3.8 6.5-4 14.6-.2 21.2 3.75 6.624 10.75 10.75 18.37 10.75l59.5-.002 29.25 48.87c3.751 6.374 10.63 10.25 18 10.25 7.5-.126 14.38-4.084 18.12-10.46l29.12-48.67 59.5-.002c7.625 0 14.63-4.125 18.5-10.75 3.749-6.5 3.75-14.63-.25-21.12l-29.38-48.1 29.25-48.87c3.873-6.5 3.1-14.63.249-21.25-3.75-6.624-10.75-10.75-18.38-10.75l-59.5.002-29.25-48.87c-3.75-6.374-10.62-10.17-17.1-10.17C312.6 116.1 305.6 120.1 301.9 126.5l-29.2 48.6h-59.5c-7.6 0-14.7 4.2-18.4 10.8-3.8 6.5-3.8 14.6.2 21.1l29.4 49zm-3.6 55.5 18.37-30.87 18.5 30.87H220.8zm99.2 55-17.75-29.62 35.5-.001L320 366.5zm99.2-55-36.75.001 18.37-30.75L419.2 311.5zm0-111-18.37 30.79-18.43-30.79h36.8zm-100.1-55 17.63 29.62-34.53-.02 16.9-29.6zm-32 55 65.75-.002 33.25 55.5-33.2 55.502h-65.8L253.9 256l33.2-55.5zm-29.6 0-18.37 30.83-18.33-30.83h36.7zM559.1 0c-36.12.004-65.62 20-75.87 48l-327.33.03C145.6 20.04 116.1.042 79.99.045 35.12.05-.004 30.55 0 69.42l.035 373.2c.004 38.87 35.13 69.37 80 69.36 36.12-.003 65.62-20 75.87-48l328.2-.03c10.25 27.1 39.75 47.99 75.88 47.99 44.87-.005 79.99-30.5 79.99-69.38l-.875-373.2c0-38.87-34.3-69.364-80-69.36zM112 442.6c.001 11.87-14.37 21.37-31.1 21.38-17.62.002-31.1-9.496-32-21.37L47.1 69.42c0-11.88 15.27-21.38 32.89-21.38s31.11 9.5 31.11 21.37l.9 373.19zm368-27.5-319.1.03-1.8-319.1L478.2 96l1.8 319.1zm112 27.5c.001 11.87-14.37 21.37-31.1 21.38-17.62.002-31.1-9.496-32-21.37l-1.8-373.24c-.001-11.87 14.37-21.37 31.1-21.38 17.62-.002 31.1 9.496 32 21.37L592 442.6z"/></svg>