<svg xmlns="http://www.w3.org/2000/svg" viewBox="0 0 640 512"><!--! Font Awesome Pro 6.1.1 by @fontawesome - https://fontawesome.com License - https://fontawesome.com/license (Commercial License) Copyright 2022 Fonticons, Inc.--><path d="M632.6 11.62C626.6 4.245 617.48 0 607.98 0h-269.1C191.1 0 63.1 64 0 224h552.1l-13.38 64h-130.7c-13.25 0-23.1 10.75-23.1 24s10.74 24 23.1 24h120.9l-32.87 147.6c-3.15 14.7 8.05 28.4 23.05 28.4 11.16 0 20.79-7.828 23.08-18.76L639.5 38c1.7-9.37-.8-19.9-6.9-26.38zM561.1 176H78.62c56.25-85 143.4-128 260.2-128h249.7L561.1 176z"/></svg>