<svg xmlns="http://www.w3.org/2000/svg" viewBox="0 0 448 512"><!--! Font Awesome Pro 6.1.1 by @fontawesome - https://fontawesome.com License - https://fontawesome.com/license (Commercial License) Copyright 2022 Fonticons, Inc.--><path d="M288 80c-8.836 0-16 7.162-16 16v64c0 8.836 7.164 16 16 16s16-7.164 16-16V96c0-8.84-7.2-16-16-16zm64 0c-8.836 0-16 7.162-16 16v64c0 8.836 7.164 16 16 16s16-7.164 16-16V96c0-8.84-7.2-16-16-16zm32-80H221.3c-8.5 0-16.7 3.371-22.7 9.373L105.4 102.6c-6.03 6-9.4 14.2-9.4 22.7V352c0 35.2 28.8 64 64 64h224c35.2 0 64-28.8 64-64V64c0-35.2-28.8-64-64-64zm16 352c0 8.672-7.326 16-16 16H160c-8.672 0-16-7.328-16-16V131.9L227.9 48H384c8.674 0 16 7.326 16 16v288zm-72 160H120C53.83 512 0 458.2 0 392V120c0-13.2 10.75-24 24-24s24 10.8 24 24v272c0 39.7 32.3 72 72 72h208c13.25 0 24 10.75 24 24s-10.7 24-24 24z"/></svg>