<svg xmlns="http://www.w3.org/2000/svg" viewBox="0 0 384 512"><!--! Font Awesome Pro 6.1.1 by @fontawesome - https://fontawesome.com License - https://fontawesome.com/license (Commercial License) Copyright 2022 Fonticons, Inc.--><path d="M320 0H141.3c-8.5 0-16.7 3.371-22.7 9.373L9.373 118.6C3.371 124.6 0 132.8 0 141.3V448c0 35.2 28.8 64 64 64h256c35.2 0 64-28.8 64-64V64c0-35.2-28.8-64-64-64zm16 448c0 8.75-7.25 16-16 16H64c-8.75 0-16-7.25-16-16V147.9L147.9 48H320c8.75 0 16 7.25 16 16v384zM288 80c-8.836 0-16 7.162-16 16v64c0 8.836 7.164 16 16 16s16-7.164 16-16V96c0-8.84-7.2-16-16-16zm-64 0c-8.836 0-16 7.162-16 16v64c0 8.836 7.164 16 16 16s16-7.164 16-16V96c0-8.84-7.2-16-16-16zm-64 0c-8.8 0-16 7.16-16 16v64c0 8.836 7.164 16 16 16s16-7.2 16-16V96c0-8.84-7.2-16-16-16z"/></svg>