<svg xmlns="http://www.w3.org/2000/svg" viewBox="0 0 512 512"><!--! Font Awesome Pro 6.1.1 by @fontawesome - https://fontawesome.com License - https://fontawesome.com/license (Commercial License) Copyright 2022 Fonticons, Inc.--><path d="M169.8 165.3c8-22.4 29.1-37.3 52.8-37.3h58.3c34.8 0 63.1 28.3 63.1 63.1 0 22.7-12.1 43.6-31.7 54.8l-33.2 18.5c.7 13.1-10 23.6-23.1 23.6-13.3 0-24-10.7-24-24v-13.5c0-8.6 4.6-16.5 12.1-20.8l44.3-25.4c4.7-2.7 7.6-7.7 7.6-13.2 0-8.3-6.8-15.1-15.1-15.1h-58.3c-3.4 0-6.4 2.1-7.5 5.3l-.5 1.3c-4.4 12.5-18.1 19-31.5 14.6-11.6-4.5-18.2-18.2-13.7-30.7l.4-1.2zM288 352c0 17.7-14.3 32-32 32s-32-14.3-32-32 14.3-32 32-32 32 14.3 32 32zm48-288h64c26.5 0 48 21.49 48 48v64l45.6 45.6c18.7 18.7 18.7 49.1 0 67.9L448 335.1V400c0 26.5-21.5 48-48 48h-64.9l-45.2 45.1c-18.7 18.8-49.1 18.8-67.8 0L176.9 448H112c-26.51 0-48-21.5-48-48v-64.9l-45.59-45.6c-18.743-18.8-18.743-49.2 0-67.9L64 176v-64c0-26.51 21.49-48 48-48h63.1l47-46.06c18.7-18.744 49.1-18.744 67.8 0L336 64zm-224 48v64c0 12.7-5.1 24.9-14.06 33.9l-45.59 45.6 45.59 45.6c8.96 9 14.06 21.2 14.06 34V400h64.9c12.8 0 25 5.1 34 14.1l45.1 45.1 45.1-45.1c9-9 21.2-14.1 34-14.1H400v-64.9c0-12.8 5.1-25 14.1-34l45.5-45.6-45.5-45.6c-9-9-14.1-21.2-14.1-33.9v-64h-64c-12.7 0-24.9-5.1-33.9-14.06l-47-46.06-45.2 46.06c-9 8.96-21.2 14.06-34.8 14.06H112z"/></svg>