<svg xmlns="http://www.w3.org/2000/svg" viewBox="0 0 512 512"><!--! Font Awesome Pro 6.1.1 by @fontawesome - https://fontawesome.com License - https://fontawesome.com/license (Commercial License) Copyright 2022 Fonticons, Inc.--><path d="M222.1 18.41c18.7-18.74 49.1-18.74 67.8 0L335.5 64H400c26.5 0 48 21.49 48 48v64.5l45.6 45.6c18.7 18.7 18.7 49.1 0 67.8L448 335.5V400c0 26.5-21.5 48-48 48h-64.5l-45.6 45.6c-18.7 18.7-49.1 18.7-67.8 0L176.5 448H112c-26.51 0-48-21.5-48-48v-64.5l-45.59-45.6c-18.743-18.7-18.743-49.1 0-67.8L64 176.5V112c0-26.51 21.49-48 48-48h64.5l45.6-45.59zm-11.7 79.53c-9 8.96-21.2 14.06-33.9 14.06H112v64.5c0 12.7-5.1 24.9-14.06 33.9L52.35 256l45.59 45.6c8.96 9 14.06 21.2 14.06 33.9V400h64.5c12.7 0 24.9 5.1 33.9 14.1l45.6 45.5 45.6-45.5c9-9 21.2-14.1 33.9-14.1H400v-64.5c0-12.7 5.1-24.9 14.1-33.9l45.5-45.6-45.5-45.6c-9-9-14.1-21.2-14.1-33.9V112h-64.5c-12.7 0-24.9-5.1-33.9-14.06L256 52.36l-45.6 45.58z"/></svg>