<svg xmlns="http://www.w3.org/2000/svg" viewBox="0 0 448 512"><!--! Font Awesome Pro 6.1.1 by @fontawesome - https://fontawesome.com License - https://fontawesome.com/license (Commercial License) Copyright 2022 Fonticons, Inc.--><path d="M47.1 142.9c0 7.9 2.57 15.7 5.8 22.9L64.64 192H328c13.3 0 24 10.7 24 24s-10.7 24-24 24H86.16l14.34 32H424c8 0 15.5 4 19.1 10.7 5.3 6.7 6.1 15.1 3.1 22.5l-27.7 66.5C407.3 398.5 381.1 416 352 416h-88v48h96c13.3 0 24 10.7 24 24s-10.7 24-24 24H119.1c-12.4 0-24-10.7-24-24s11.6-24 24-24h96v-48h-45.7c-34.6 0-66.1-20.4-80.25-52.9L9.099 185.4C3.101 172.1 0 157.6 0 142.9V24C0 10.75 10.75 0 24 0s24 10.75 24 24l-.9 118.9zM169.4 368H352c9.7 0 18.4-5.8 22.2-14.8L388 320H122l10.9 24.4c6.5 14.3 20.8 23.6 36.5 23.6z"/></svg>