<svg xmlns="http://www.w3.org/2000/svg" viewBox="0 0 192 512"><!--! Font Awesome Pro 6.1.1 by @fontawesome - https://fontawesome.com License - https://fontawesome.com/license (Commercial License) Copyright 2022 Fonticons, Inc.--><path d="M97.35 287.1c-9.961 0-19.9 2.391-28.8 7.545-15.66 9.051-26.41 24.44-29.45 42.25l-22.57 131.7c-2.986 17.32 6.9 34.29 23.49 40.31 4.1 2.395 8.32 2.195 12.49 2.195 12.68 0 24.82-6.602 31.51-18.03l67.69-115.4c9.119-15.58 10.81-34.25 4.652-51.21C147.6 303.1 122.4 287.1 97.35 287.1zm12.95 67.2-35.78 60.99 11.9-69.42c.639-3.734 2.824-6.854 6.209-8.809C94.15 336.2 96.04 336 97.35 336c5.898 0 12.38 3.604 13.88 7.766 1.27 3.534.97 7.334-.93 10.534zM96 192c35.35 0 64-28.65 64-64s-28.65-64-64-64-63.1 28.65-63.1 64c-.9 35.3 27.76 64 63.1 64zm0-80c8.822 0 16 7.178 16 16s-7.2 16-16 16-16-7.2-16-16 7.18-16 16-16z"/></svg>