<svg xmlns="http://www.w3.org/2000/svg" viewBox="0 0 640 512"><!--! Font Awesome Pro 6.1.1 by @fontawesome - https://fontawesome.com License - https://fontawesome.com/license (Commercial License) Copyright 2022 Fonticons, Inc.--><path d="M192 0c35.3 0 64 28.65 64 64v128c0 35.3-28.7 64-64 64H64c-35.35 0-64-28.7-64-64V64C0 28.65 28.65 0 64 0h128zm0 48H64c-8.84 0-16 7.16-16 16v128c0 8.8 7.16 16 16 16h128c8.8 0 16-7.2 16-16V64c0-8.84-7.2-16-16-16zm384 208c35.3 0 64 28.7 64 64v128c0 35.3-28.7 64-64 64H448c-35.3 0-64-28.7-64-64V320c0-35.3 28.7-64 64-64h128zm0 48H448c-8.8 0-16 7.2-16 16v128c0 8.8 7.2 16 16 16h128c8.8 0 16-7.2 16-16V320c0-8.8-7.2-16-16-16zm-384-16c53 0 96-43 96-96V96h128c35.3 0 64 28.7 64 64v64h-32c-53.9 0-96 42.1-96 96v96H224c-35.3 0-64-28.7-64-64v-64h32z"/></svg>