<svg xmlns="http://www.w3.org/2000/svg" viewBox="0 0 640 512"><!--! Font Awesome Pro 6.1.1 by @fontawesome - https://fontawesome.com License - https://fontawesome.com/license (Commercial License) Copyright 2022 Fonticons, Inc.--><path d="M616 232h-80c-13.2 0-24 10.8-24 24 0 13.25 10.75 24 24 24h80c13.3 0 24-10.8 24-24s-10.7-24-24-24zm-80-88c4.75 0 9.375-1.375 13.25-4l48-32c7.375-4.625 11.75-12.88 11.25-21.62-.5-8.76-5.6-16.5-13.5-20.38-7.875-3.75-17.25-3-24.38 2.125l-48 32a23.836 23.836 0 0 0-9.5 26.88C516.1 137.1 525.5 144 536 144zm13.3 228c-11-7.375-25.88-4.375-33.25 6.75-7.375 11-4.375 25.87 6.75 33.25l48 32c11 7.375 25.88 4.375 33.25-6.75 7.375-11 4.375-25.87-6.75-33.25l-48-32zM120 128c-13.2 0-24 10.8-24 24v112c0 13.2 10.8 24 24 24s24-10.8 24-24V152c0-13.2-10.8-24-24-24zm80 0c-13.2 0-24 10.8-24 24v112c0 13.2 10.8 24 24 24s24-10.8 24-24V152c0-13.2-10.8-24-24-24zm184-96H64C28.62 32 0 60.62 0 96v320c0 35.38 28.62 64 64 64h320c35.38 0 64-28.62 64-64V96c0-35.38-28.6-64-64-64zm16 384c0 8.875-7.125 16-16 16H64c-8.875 0-16-7.125-16-16V96c0-8.875 7.125-16 16-16h320c8.875 0 16 7.125 16 16v320z"/></svg>