<svg xmlns="http://www.w3.org/2000/svg" viewBox="0 0 640 512"><!--! Font Awesome Pro 6.1.1 by @fontawesome - https://fontawesome.com License - https://fontawesome.com/license (Commercial License) Copyright 2022 Fonticons, Inc.--><path d="M325.8 432H64c-8.875 0-16-7.125-16-16V96c0-8.875 7.125-16 16-16h320c8.875 0 16 7.125 16 16v13.12c5.1-6.125 12-12.37 18.38-18.25l23-22.75c-10.58-22-32.88-36-57.38-36.12H64.05C28.67 32 0 60.62 0 96v320c0 35.38 28.67 64 64.05 64h311.3c-19.25-12.9-35.95-29.2-49.55-48zM176 152v112c0 13.2 10.8 24 24 24s24-10.8 24-24V152c0-13.2-10.8-24-24-24s-24 10.8-24 24zm-80 0v112c0 13.2 10.8 24 24 24s24-10.8 24-24V152c0-13.2-10.8-24-24-24s-24 10.8-24 24zm455.1-1.1c-14.3 13.3-27.7 27.6-40.1 42.9-21.9-28.8-44.9-55.4-71-79.6-70.1 65.2-120 150-120 201.2 0 91 71.6 164.6 160 164.6s160-73.63 160-164.6c0-38-37.1-116.5-88.9-164.5zm-21 250c-14.2 9.9-31.1 15.1-48.3 15.1-45 0-81.8-29.9-81.8-78.2 0-24.2 15.2-45.4 45.5-81.8 4.375 5 61.75 78.38 61.75 78.38l36.63-41.88c2.625 4.25 5 8.5 7 12.5 17.12 32.6 10.02 74.4-20.78 95.9z"/></svg>