<svg xmlns="http://www.w3.org/2000/svg" viewBox="0 0 640 512"><!--! Font Awesome Pro 6.1.1 by @fontawesome - https://fontawesome.com License - https://fontawesome.com/license (Commercial License) Copyright 2022 Fonticons, Inc.--><path d="M224.4 432H63.98c-8.875 0-16-7.125-16-16V96c0-8.875 7.125-16 16-16h320c8.875 0 16 7.125 16 16v21.62c13.75-10 30.13-16 48-16L447.1 96c0-35.38-28.62-64-63.1-64H63.1C28.62 32-.004 60.63-.004 96v320c0 35.38 28.62 64 63.1 64h178.5c-2.5-3.125-5.249-6-7.249-9.5-5.847-11.7-9.647-25-9.947-38.5zm-49.3-280v112c0 13.25 10.75 24 24 24s24-10.75 24-24V152c0-13.25-10.75-24-24-24s-24 10.8-24 24zm-79.12 0v112c0 13.25 10.75 24 24 24s24-10.75 24-24V152c0-13.25-10.75-24-24-24s-24 10.8-24 24zM633.1 403.4 492.2 159.3c-19.62-34.13-68.88-34.13-88.5 0L262.8 403.4c-19.6 34 5.1 76.6 44.3 76.6h281.7c39.3 0 63.9-42.6 44.3-76.6zm-186 28.6c-13.25 0-24-10.75-24-24s11.6-24 24-24 23.1 10.75 23.1 24-9 24-23.1 24zm24.9-96c0 13.25-10.75 24-24 24s-24-10.75-24-24v-80c0-13.25 10.75-24 24-24s24 10.8 24 24v80z"/></svg>