<svg xmlns="http://www.w3.org/2000/svg" viewBox="0 0 512 512"><!--! Font Awesome Pro 6.1.1 by @fontawesome - https://fontawesome.com License - https://fontawesome.com/license (Commercial License) Copyright 2022 Fonticons, Inc.--><path d="M448 32H64C28.65 32 0 60.65 0 96v64c0 35.35 28.65 64 64 64h384c35.35 0 64-28.65 64-64V96c0-35.35-28.7-64-64-64zm16 128c0 8.822-7.178 16-16 16H64c-8.82 0-16-7.2-16-16V96c0-8.822 7.178-16 16-16h384c8.822 0 16 7.178 16 16v64zm-16 128H64c-35.35 0-64 28.65-64 64v64c0 35.35 28.65 64 64 64h384c35.35 0 64-28.65 64-64v-64c0-35.3-28.7-64-64-64zm16 128c0 8.822-7.178 16-16 16H64c-8.822 0-16-7.178-16-16v-64c0-8.822 7.178-16 16-16h384c8.822 0 16 7.178 16 16v64zM352 104c-13.25 0-24 10.74-24 24 0 13.25 10.75 24 24 24s24-10.7 24-24-10.7-24-24-24zm64 0c-13.25 0-24 10.74-24 24 0 13.25 10.75 24 24 24s24-10.7 24-24-10.7-24-24-24zm-64 256c-13.25 0-24 10.74-24 24 0 13.25 10.75 24 24 24s24-10.75 24-24c0-13.3-10.7-24-24-24zm64 0c-13.25 0-24 10.74-24 24 0 13.25 10.75 24 24 24s24-10.75 24-24c0-13.3-10.7-24-24-24z"/></svg>