<svg xmlns="http://www.w3.org/2000/svg" viewBox="0 0 512 512"><!--! Font Awesome Pro 6.1.1 by @fontawesome - https://fontawesome.com License - https://fontawesome.com/license (Commercial License) Copyright 2022 Fonticons, Inc.--><path d="M411.8 207.8c-5.6 10-16.3 15.3-27.8 15.3H192c-11.5 0-22.2-5.3-27.8-15.3-5.7-10.1-5.6-22.4.4-32.3l96-159.96C266.3 5.897 276.8 0 288 0s21.7 5.898 27.4 15.54l96 159.96c6 9.9 6.1 22.2.4 32.3zM288 63.1l-67.7 112h135.4L288 63.1zm184 208c22.1 0 40 18.8 40 40V456c0 22.1-17.9 40-40 40H328c-22.1 0-40-17.9-40-40V311.1c0-21.2 17.9-40 40-40h144zm-8 48H336V448h128V319.1zM256 384c0 70.7-57.3 128-128 128C57.31 512 0 454.7 0 384s57.31-128.9 128-128.9c70.7 0 128 58.2 128 128.9zm-128-80.9c-44.18 0-80 36.7-80 80.9s35.82 80 80 80c44.2 0 80-35.8 80-80s-35.8-80.9-80-80.9z"/></svg>