<svg xmlns="http://www.w3.org/2000/svg" viewBox="0 0 384 512"><!--! Font Awesome Pro 6.1.1 by @fontawesome - https://fontawesome.com License - https://fontawesome.com/license (Commercial License) Copyright 2022 Fonticons, Inc.--><path d="M203.3 84.69c6.3 6.24 6.3 16.41 0 22.61l-96 96c-6.2 6.3-16.37 6.3-22.61 0-6.25-6.2-6.25-16.4 0-22.6l96.01-96.01c6.2-6.25 16.4-6.25 22.6 0zm-64 214.61c-6.2 6.3-16.4 6.3-22.6 0-6.3-6.2-6.3-16.4 0-22.6l160-160c6.2-6.3 16.4-6.3 22.6 0 6.3 6.2 6.3 16.4 0 22.6l-160 160zM0 64C0 28.65 28.65 0 64 0h256c35.3 0 64 28.65 64 64v300.1c0 12.7-5.1 25-14.1 34l-99.8 99.8c-9 9-21.3 14.1-34 14.1H64c-35.35 0-64-28.7-64-64V64zm320-16H64c-8.84 0-16 7.16-16 16v384c0 8.8 7.16 16 16 16h160v-80c0-17.7 14.3-32 32-32h80V64c0-8.84-7.2-16-16-16z"/></svg>