<svg xmlns="http://www.w3.org/2000/svg" viewBox="0 0 640 512"><!--! Font Awesome Pro 6.1.1 by @fontawesome - https://fontawesome.com License - https://fontawesome.com/license (Commercial License) Copyright 2022 Fonticons, Inc.--><path d="M616 0c-13.25 0-24 10.75-24 24v120h-82.26c1.36-5.1 2.26-10.4 2.26-16V64c0-35.35-28.65-64-64-64h-64c-35.35 0-64 28.65-64 64v64c0 5.559.932 10.86 2.264 16H48V24C48 10.75 37.25 0 24 0S0 10.75 0 24v464c0 13.3 10.75 24 24 24s24-10.75 24-24v-40h544v40c0 13.25 10.75 24 24 24s24-10.7 24-24V24c0-13.25-10.7-24-24-24zM368 128V64c0-8.822 7.178-16 16-16h64c8.822 0 16 7.178 16 16v64c0 8.822-7.178 16-16 16h-64c-8.8 0-16-7.2-16-16zM160 400c-8.822 0-16-7.178-16-16v-64c0-8.822 7.178-16 16-16h64c8.822 0 16 7.178 16 16v64c0 8.822-7.178 16-16 16h-64zm144 0c-8.8 0-16-7.2-16-16v-64c0-8.822 7.178-16 16-16h64c8.822 0 16 7.178 16 16v64c0 8.822-7.178 16-16 16h-64zm125.7 0c1.4-5.1 2.3-10.4 2.3-16v-64c0-35.35-28.65-64-64-64h-64c-15.2 0-29.9 5.5-40 14.4-11-8.9-24.8-14.4-40-14.4h-64c-35.35 0-64 28.65-64 64v64c0 5.559.932 10.86 2.264 16H48V192h544v208H429.7z"/></svg>