<svg xmlns="http://www.w3.org/2000/svg" viewBox="0 0 512 512"><!--! Font Awesome Pro 6.1.1 by @fontawesome - https://fontawesome.com License - https://fontawesome.com/license (Commercial License) Copyright 2022 Fonticons, Inc.--><path d="M240 111.1v12.12c0 19.29-15.78 32.07-32.23 32.07-7.862 0-15.88-2.917-22.4-9.436l-8.57-7.654c-3.1-3.2-7.2-4.7-11.3-4.7-9.139 0-16 7.473-16 15.1 0 4.094 1.562 8.187 4.688 11.31l8.576 8.577C169.3 175.9 172.2 183.9 172.2 191.8c0 16.45-12.77 32.23-32.06 32.23H128c-8.844 0-16 7.156-16 16s7.156 16 16 16h12.12c19.29 0 32.06 15.78 32.06 32.23 0 7.862-2.918 15.88-9.436 22.4l-8.544 8.54a15.946 15.946 0 0 0-4.688 11.31c0 8.527 6.865 15.1 16 15.1 4.094 0 8.188-1.562 11.31-4.688l8.576-8.576c6.519-6.519 14.53-9.436 22.39-9.436 16.45 0 32.23 12.77 32.23 32.06v12.12c0 8.844 7.156 16 16 16s16-7.156 16-16v-12.12c0-19.29 15.78-32.06 32.23-32.06 7.862 0 15.88 2.917 22.4 9.436l8.576 8.576a15.948 15.948 0 0 0 11.31 4.688c9.139 0 16-7.473 16-15.1 0-4.094-1.562-8.187-4.688-11.31l-8.576-8.576c-6.519-6.519-9.436-14.53-9.436-22.4 0-16.45 12.77-32.23 32.06-32.23h12.12c8.844 0 16-7.156 16-16s-7.156-16-16-16h-12.12c-19.29 0-32.06-15.78-32.06-32.23 0-7.862 2.918-15.88 9.436-22.4l8.576-8.577a15.946 15.946 0 0 0 4.688-11.31c0-8.527-6.865-15.1-16-15.1a15.933 15.933 0 0 0-11.31 4.688L326.6 146.7c-6.519 6.519-14.53 9.436-22.4 9.436-16.45 0-32.23-12.77-32.23-32.07V111.1c0-8.844-7.156-16-16-16s-15.97 8.1-15.97 16zm-16 112c-8.836 0-15.1-7.165-15.1-16 0-8.838 7.164-16 16-16s15.1 7.163 15.1 16c0 9.7-7.2 16-16 16zm64 32c8.836 0 16 7.161 16 15.1 0 8.836-7.164 15.1-16 15.1s-16-7.162-16-15.1c0-7 7.2-15.1 16-15.1zM466.5 83.68l-192-80.01C269.6 1.641 261.4 0 256.1 0s-13.6 1.641-18.5 3.672l-192 80.01c-17.89 7.393-29.59 24.89-29.59 44.3C16 385.2 205.2 512 255.9 512 307.92 512 496 383.8 496 128c0-19.4-11.7-36.93-29.5-44.32zM256.1 48.02s.1.01 0 0zm-1 415.98C163.5 425.5 64.06 303.9 64.06 128.1c0-.05 0 .05 0 0l190.8-79.64c.33-.1.737-.3 1.268-.4l191.9 79.96C448 330.5 322.4 436.3 255.1 464z"/></svg>