<svg xmlns="http://www.w3.org/2000/svg" viewBox="0 0 512 512"><!--! Font Awesome Pro 6.1.1 by @fontawesome - https://fontawesome.com License - https://fontawesome.com/license (Commercial License) Copyright 2022 Fonticons, Inc.--><path d="m288 208 64-64v128c0 53-43 96-96.9 96-53 0-96-43-96-96V144l64 64H288zm-72.9 80c9.7 0 16-7.2 16-16s-6.3-16-16-16c-7.9 0-16 7.2-16 16s8.1 16 16 16zm80.9-32c-8.8 0-16 7.2-16 16s7.2 16 16 16 16-7.2 16-16-7.2-16-16-16zM16.56 118.1c.72-13 8.27-22.83 19.48-27.57L240.4 4.066a32.18 32.18 0 0 1 15.9-4.073c5.6-.044 11 1.393 15.8 4.073L476.5 90.53c11.2 4.74 18.7 14.57 19.4 27.57 5.7 95.5-29.2 303.8-223.4 389.6-4.9 2.8-11.4 4.4-16.2 4.3-5.8.1-11.4-1.5-17.2-4.3C45.8 421.9 10.95 213.6 16.57 118.1h-.01zM256.3 462.4c158.2-71.9 194.3-241.6 192.1-331.6L256.3 49.47 64.08 130.8c-2.16 90 33.96 259.7 192.22 331.6z"/></svg>