<svg xmlns="http://www.w3.org/2000/svg" viewBox="0 0 576 512"><!--! Font Awesome Pro 6.1.1 by @fontawesome - https://fontawesome.com License - https://fontawesome.com/license (Commercial License) Copyright 2022 Fonticons, Inc.--><path d="M301.4 2.912 489.7 82.79c22 9.33 38.5 31.01 38.3 56.31-.5 100.1-41.2 281.6-213.6 364.1-16.6 7.9-36.1 7.9-52.8 0C89.29 420.7 48.49 239.2 48 139.1c-.13-25.3 16.32-46.98 38.3-56.31L274.7 2.912c4.1-1.905 8.7-2.921 13.3-2.92 4.7-.001 9.2 1.015 13.4 2.92zM96 139.7c.09 18 1.62 38.4 5.1 60.3H264V59.57L105 126.1c-5.89 3.4-9.02 8.6-9 13.6zM111.7 248c21 73.9 65.9 153.7 152.3 202.3V248H111.7zm200.3 0v202.4c86.4-48.6 131.4-129.3 152.3-202.4H312zm162.9-48c3.5-21.9 5-42.3 5.1-60.3.1-5-3.1-10.2-9.9-13.6L312 59.56V200h162.9z"/></svg>