<svg xmlns="http://www.w3.org/2000/svg" viewBox="0 0 640 512"><!--! Font Awesome Pro 6.1.1 by @fontawesome - https://fontawesome.com License - https://fontawesome.com/license (Commercial License) Copyright 2022 Fonticons, Inc.--><path d="M639.1 487.1c0-7.118-3.152-14.16-9.189-18.89l-134.3-105.3C533.4 303.5 560 225.5 560 127.1c0-19.38-11.75-36.91-29.5-44.28l-192-80C332.6 1.203 326.3 0 320.1 0s-12.6 1.203-18.5 3.703L128.9 75.68 38.81 5.109A23.96 23.96 0 0 0 24.03 0C10.2 0 0 11.29 0 24c0 7.118 3.153 14.16 9.19 18.89l591.1 463.1c5.31 4.31 10.51 6.01 14.81 6.01 14.7 0 24-11.4 24-24.9zM458.3 333.9 172.1 109.6 320 48l192 80c0 80.8-21.5 150.3-53.7 205.9zM320 464c-82.64-34.43-162.9-130.4-185.5-261.9l-53.33-41.8C96.42 398.1 273.1 512 319.9 512c36.99 0 102.6-57.92 117.3-72.57l-37.7-29.54C374.3 434.3 346.1 452.8 320 464z"/></svg>