<svg xmlns="http://www.w3.org/2000/svg" viewBox="0 0 512 512"><!--! Font Awesome Pro 6.1.1 by @fontawesome - https://fontawesome.com License - https://fontawesome.com/license (Commercial License) Copyright 2022 Fonticons, Inc.--><path d="m466.5 83.71-192-80c-5.875-2.5-12.16-3.703-18.44-3.703S243.5 1.203 237.6 3.703L45.61 83.71C27.73 91.08 16 108.6 16 127.1 16 385.4 205.4 512 255.9 512 305.2 512 496 387.3 496 127.1c0-18.5-11.7-36.02-29.5-43.39zM256 464C158.5 423.4 64 297.3 64 128l192-80 192 80c0 173.8-98.4 297-192 336zm-55.9-217c-3.8-4.7-10-7.9-16.1-7.9-13.71 0-24 11.21-24 24 0 7 2.3 13.2 7 17l48 48c4.5 5.4 10.7 7 17 7 2.595 0 11.46-.496 18.22-8.375l96-112a23.93 23.93 0 0 0 5.781-15.62c0-7.405-5.79-23.99-23.98-23.99-6.756 0-13.48 2.831-18.24 8.362L230.7 276.7 200.1 247z"/></svg>