<svg xmlns="http://www.w3.org/2000/svg" viewBox="0 0 512 512"><!--! Font Awesome Pro 6.1.1 by @fontawesome - https://fontawesome.com License - https://fontawesome.com/license (Commercial License) Copyright 2022 Fonticons, Inc.--><path d="m466.5 83.69-192-80.01C269.6 1.656 261.3 0 256.1 0c-5.3 0-13.6 1.656-18.5 3.688l-192 80.01C27.69 91.08 16 108.6 16 127.1 16 385.2 205.2 512 255.1 512c52 0 240.9-128.2 240.9-384.9 0-18.5-11.7-36.02-29.5-43.41zM256.1 48.03c0-.01.1 0 0 0zm-1 415.97C163.5 425.5 64.06 303.9 64.06 128.1c0-.05 0 .05 0 0l190.8-79.64c.332-.102.742-.302 1.275-.4L448 127.1c0 203.4-125.6 309.2-192.9 336.9zM200 208c0 22.3 13.13 41.4 32 50.41V328c0 13.3 10.8 24 24 24s24-10.75 24-24v-69.6c18.87-9.008 32-28.11 32-50.41 0-30.93-25.07-56-56-56S200 177.1 200 208z"/></svg>