<svg xmlns="http://www.w3.org/2000/svg" viewBox="0 0 512 512"><!--! Font Awesome Pro 6.1.1 by @fontawesome - https://fontawesome.com License - https://fontawesome.com/license (Commercial License) Copyright 2022 Fonticons, Inc.--><path d="m466.5 83.69-192-80.01C269.6 1.656 261.3 0 256.1 0c-5.3 0-13.6 1.656-18.5 3.688l-192 80.01C27.69 91.08 16 108.6 16 127.1 16 385.2 205.2 512 255.1 512c52 0 240.9-128.2 240.9-384.9 0-18.5-11.7-36.02-29.5-43.41zM256.1 48.03c0-.01.1 0 0 0zm-1 415.97C163.5 425.5 64.06 303.9 64.06 128.1c0-.05 0 .05 0 0l190.8-79.64c.332-.102.742-.302 1.275-.4L448 127.1c0 203.4-125.6 309.2-192.9 336.9zm-47-289c-3.8-4.7-10-7-16.1-7-13.7 0-24 11.2-24 24a23.93 23.93 0 0 0 7.031 16.97L222.1 256 175 303c-4.7 4.7-7 10.9-7 17 0 12.82 10.32 24 24 24a23.93 23.93 0 0 0 16.97-7.031L256 289.9l47.03 47.03C307.7 341.7 313.9 344 320 344c12.8 0 24-10.3 24-24a23.93 23.93 0 0 0-7.031-16.97L289.9 256l47.03-47.03C341.7 204.3 344 198.1 344 192c0-12.79-10.3-24-24-24a23.93 23.93 0 0 0-16.97 7.031L256 222.1 208.1 175z"/></svg>