<svg xmlns="http://www.w3.org/2000/svg" viewBox="0 0 512 512"><!--! Font Awesome Pro 6.1.1 by @fontawesome - https://fontawesome.com License - https://fontawesome.com/license (Commercial License) Copyright 2022 Fonticons, Inc.--><path d="M496 139.1c-.5 100.1-41.2 281.6-213.6 364.1-16.6 7.9-36.1 7.9-52.8 0C57.29 420.7 16.49 239.2 16 139.1c-.13-25.3 16.32-46.98 38.3-56.31L242.7 2.912c4.1-1.905 8.7-2.921 13.3-2.92 4.7-.001 9.2 1.015 13.4 2.92L457.7 82.79c22 9.33 38.5 31.01 38.3 56.31zM232 59.57 73.04 126.1c-5.94 3.4-9.06 8.6-9.04 13.6.44 87.6 35.22 236 168 310.6V59.57zm48 390.83c132.8-74.7 167.6-223.1 168-310.7.1-5-3.1-10.2-9.9-13.6L280 59.56V450.4z"/></svg>