<svg xmlns="http://www.w3.org/2000/svg" viewBox="0 0 640 512"><!--! Font Awesome Pro 6.1.1 by @fontawesome - https://fontawesome.com License - https://fontawesome.com/license (Commercial License) Copyright 2022 Fonticons, Inc.--><path d="M639.1 170.9c0-16.6-7.23-32.64-21.13-43.64l-135-106.6C466.9 7.359 445.6 0 423.1 0h-24C386.7 0 376 10.75 376 24c0 30.88-25.12 56-56 56s-56-25.12-56-56c0-13.25-10.7-24-24-24h-24c-21.6 0-42.9 7.359-59.8 20.72L21.13 127.3C7.228 138.3 0 154.4 0 170.9c0 12.6 4.296 24.73 12.35 34.68l49.97 61.63c11.03 13.61 27.3 20.7 43.71 20.7 12.22 0 24.52-3.93 34.79-12.03L160 260.8V440c0 39.7 32.31 72 72 72h175.1c39.69 0 72-32.3 72-72V260.8l19.19 15.14c10.26 8.127 22.57 12.07 34.8 12.07 16.41 0 32.69-7.1 43.7-20.73l49.97-61.63c8.94-9.95 12.34-22.05 12.34-34.75zm-47.1-.8c0 1.447-.466 2.978-1.649 4.439l-50.02 61.69c-.502.621-3.187 2.943-6.563 2.943-1.528 0-3.196-.475-4.868-1.799l-71.01-56.03c-3.032-2.392-6.475-3.469-9.838-3.469-8.278 0-16.07 6.525-16.07 16.03V440c0 13.25-10.75 24-24 24H232c-13.25 0-24-10.75-24-24V194.7c0-9.505-7.797-16.03-16.07-16.03-3.366 0-6.811 1.079-9.844 3.474L111.1 238.2c-1.6 1.3-3.3.9-4.9.9-3.003 0-5.61-1.728-6.612-2.965L49.65 175.4c-1.1-1.3-1.66-3-1.66-4.6 0-2.144.959-4.282 2.88-5.8l134.1-106.6C194.4 51.71 205.1 48 216 48h2.795C229.7 93.81 270.9 128 320 128s90.34-34.19 101.2-80h2.764c10.92 0 21.64 3.705 30.13 10.39l134.1 106.6C590.6 166.1 592 168.4 592 170.1z"/></svg>