<svg xmlns="http://www.w3.org/2000/svg" viewBox="0 0 384 512"><!--! Font Awesome Pro 6.1.1 by @fontawesome - https://fontawesome.com License - https://fontawesome.com/license (Commercial License) Copyright 2022 Fonticons, Inc.--><path d="M336 112V24c0-13.26-10.7-24-24-24s-24 10.74-24 24v40c0 53.02-42.98 96-96 96s-96-43-96-96V24C96 10.74 85.25 0 72 0S48 10.74 48 24v88c0 97.4-48 128.6-48 153.9V464c0 26.5 21.49 48 48 48h288c26.51 0 48-21.49 48-48V265.9c0-25.3-48-57-48-153.9zm0 352H48V271.2c20.1-31.8 35.54-67.6 42.77-104.9C116.8 192.1 152.6 208 192 208s75.21-15.93 101.2-41.69C300.5 203.6 315 239.4 336 271.2V464z"/></svg>