<svg xmlns="http://www.w3.org/2000/svg" viewBox="0 0 640 512"><!--! Font Awesome Pro 6.1.1 by @fontawesome - https://fontawesome.com License - https://fontawesome.com/license (Commercial License) Copyright 2022 Fonticons, Inc.--><path d="M622.7 181.9 551.67 55.1C532.6 21.09 496.6 0 457.7 0H400c-13.25 0-24 10.75-24 24 0 30.88-25.12 56-56 56s-56-25.12-56-56c0-13.25-10.7-24-24-24h-57.7c-38.9 0-74.9 21.09-93.92 55.05L17.34 181.9C5.999 202.1 0 225.1 0 248.3V392c0 30.9 25.12 56 56 56h32c30.88 0 56-25.12 56-56V267.8l16-25.2V456c0 30.9 25.1 56 56 56h208c30.88 0 56-25.12 56-56V242.1l16 25.03V392c0 30.88 25.12 56 56 56h32c30.88 0 56-25.12 56-56V248.3c0-23.2-6.9-46.2-17.3-66.4zM592 392c0 4.406-3.594 8-8 8h-32c-4.406 0-8-3.594-8-8V260.1a23.97 23.97 0 0 0-3.781-12.92l-64-100.1a24.018 24.018 0 0 0-20.23-11.07C438 136 432 152.1 432 160v296c0 4.406-3.594 8-8 8H216c-4.406 0-8-3.594-8-8V160c0-7.719-6.009-24-24-24-8.062 0-15.78 4.078-20.25 11.14l-64 100.8A23.93 23.93 0 0 0 96 260.8V392c0 4.406-3.594 8-8 8H56c-4.406 0-8-3.594-8-8V248.3c0-15.03 3.875-29.89 11.22-42.98l71.03-126.8C140.8 59.69 160.8 48 182.3 48h36.47C229.7 93.81 270.9 128 320 128s90.34-34.19 101.2-80h36.47c21.56 0 41.5 11.69 52.06 30.52l71.03 126.8A88.133 88.133 0 0 1 592 248.3V392z"/></svg>