<svg xmlns="http://www.w3.org/2000/svg" viewBox="0 0 640 512"><!--! Font Awesome Pro 6.1.1 by @fontawesome - https://fontawesome.com License - https://fontawesome.com/license (Commercial License) Copyright 2022 Fonticons, Inc.--><path d="m76.92 34.98 5.44-9.96A47.956 47.956 0 0 1 124.5.001h391c17.6 0 33.7 9.595 42.1 25.019l77.7 142.38c3.1 5.7 4.7 12 4.7 18.4 0 21.1-17.1 38.2-38.2 38.2H576v202.2l54.8 42.9c10.4 8.2 12.3 23.3 4.1 33.7-8.2 10.4-23.3 12.3-33.7 4.1L9.196 42.89C-1.236 34.71-3.065 19.63 5.112 9.196 13.29-1.236 28.37-3.065 38.81 5.112L76.92 34.98zM115.2 65l141.6 111h328.5L515.5 48h-391l-9.3 17zm202.9 159L528 388.5V224H318.1zM0 185.8c0-6.4 1.606-12.7 4.67-18.4L30.52 120l38.24 30.2L54.68 176h46.82l61 48h-51.4v96h173.2l99.7 78.5V472c0 22.1-17.9 40-40 40H103.1c-21.19 0-40-17.9-40-40V224H38.25C17.12 224 0 206.9 0 185.8zM336 464v-96H112v96h224z"/></svg>