<svg xmlns="http://www.w3.org/2000/svg" viewBox="0 0 640 512"><!--! Font Awesome Pro 6.1.1 by @fontawesome - https://fontawesome.com License - https://fontawesome.com/license (Commercial License) Copyright 2022 Fonticons, Inc.--><path d="M0 185.8c0-6.4 1.606-12.7 4.671-18.4L82.36 25.02A47.955 47.955 0 0 1 124.5 0h391c17.6 0 33.7 9.595 42.1 25.02l77.7 142.38c3.1 5.7 4.7 12 4.7 18.4 0 12.3-5.9 23.3-14.9 30.3-9.7-16.7-23.4-30.6-40-40.5L515.5 48h-391L54.68 176H470.3c-18.8 11.3-34 28-43.5 48H384v248c0 22.1-17.9 40-40 40H103.1c-21.19 0-40-17.9-40-40V224H38.25C17.12 224 0 206.9 0 185.8zM112 224v96h224v-96H112zm224 240v-96H112v96h224zm192-272c44.2 0 80 35.8 80 80v48c17.7 0 32 14.3 32 32v128c0 17.7-14.3 32-32 32H448c-17.7 0-32-14.3-32-32V352c0-17.7 14.3-32 32-32v-48c0-44.2 35.8-80 80-80zm0 48c-17.7 0-32 14.3-32 32v48h64v-48c0-17.7-14.3-32-32-32z"/></svg>