<svg xmlns="http://www.w3.org/2000/svg" viewBox="0 0 512 512"><!--! Font Awesome Pro 6.1.1 by @fontawesome - https://fontawesome.com License - https://fontawesome.com/license (Commercial License) Copyright 2022 Fonticons, Inc.--><path d="M502.7 89.5 422.45 9.25C416.2 3.125 408.1 0 399.1 0s-16.25 3.125-22.37 9.25l-31.62 31.63c-16.75 16.75-25.87 39.25-25.87 62.5 0 20.5 6.875 35.25 11.37 43.25l-124.2 124.3-51.91-52.73c-6.1-6.2-14.4-9.3-23.4-9.3-8.25 0-16.37 3.125-22.62 9.375L39.74 287.9c-50.1 50.88-46.12 184.4-23.12 207.5 10.12 10 41.12 16.6 77.24 16.6 46.62 0 101.6-11 130.2-39.75l69.62-69.62c12.5-12.5 12.5-32.75 0-45.13l-52.58-52.7 124.4-124.3c17.75 9.875 34.12 11.38 43.25 11.38 24.62 0 48.12-11.63 65.62-29.12l28.37-28.38C515.1 122 515.1 102 502.7 89.5zM190.2 438.4c-15.3 15.4-54.1 25.6-96.34 25.6-19.5 0-33.87-2.25-41.87-4.25-7.875-29.38-5.375-111.1 21.62-138l58.25-58.38L248.5 380l-58.3 58.4zm250.3-309.6c-9.625 9.625-21.12 15.12-32.75 15.12-34.1 0-53.12-43.75-27.75-69.13l19.1-20L457.2 112l-16.7 16.8z"/></svg>