<svg xmlns="http://www.w3.org/2000/svg" viewBox="0 0 512 512"><!--! Font Awesome Pro 6.1.1 by @fontawesome - https://fontawesome.com License - https://fontawesome.com/license (Commercial License) Copyright 2022 Fonticons, Inc.--><path d="m503.3 72.22-63.5-63.5c-11.75-11.63-30.75-11.63-42.5 0l-24.5 24.5c-14.13 14.25-21.88 33.25-21.88 53 0 4.875.5 9.751 1.5 14.75 1.375 6.5 3.625 12.63 6.375 18.38l-96.75 96.88L220.5 174.7c-9.8-9.8-23.4-14.6-35.3-14.6-10.75 0-21.5 3.375-30.5 10.38L19.4 274.9c-23.75 18.38-26.13 53.5-4.75 74.88l147.6 147.6C172.1 507.3 184.9 512 197.6 512c14.75 0 29.62-6.625 39.5-19.38l104.5-135.3c15.38-19.88 13.63-48.13-4.25-65.75L295.9 250.1l96.88-96.88c5.75 2.875 11.88 5.125 18.38 6.5 24.63 4.875 49.88-2.75 67.63-20.5l24.5-24.5c11.61-12.62 11.61-30.75.01-42.5zM303.4 325.5c.75.75.875 1.75.25 2.5l-104.5 135.3c-.125.125-.375.375-1.25.375-.375 0-1-.125-1.625-.375L48.65 315.7l.125-2.875 135.3-104.5c.225-.125.625-1.225 1.225-1.225l1.375.625L303.4 325.5zm141.4-220.3c-6.375 6.5-15.5 9.126-24.25 7.375-10.75-2.125-19-10.38-21.13-21.13-1.625-8.876 1-17.88 7.375-24.25l11.75-11.88 38.13 38.13L444.8 105.2zm-291 160.5-32 32c-9.5 9.376-9.5 24.5 0 33.88 4.625 4.625 10.75 7 17 7 6.125 0 12.25-2.375 17-7l32-32c9.375-9.376 9.375-24.63 0-33.88-9.5-9.5-24.6-9.5-34 0zm26.6 124.5c4.75 4.75 10.88 7 17 7 6.25 0 12.38-2.25 17-7l32-32c9.375-9.376 9.375-24.5 0-33.88-9.375-9.251-24.63-9.376-33.88 0L180.5 356.4c-9.5 9.3-9.5 24.5-.1 33.8z"/></svg>