<svg xmlns="http://www.w3.org/2000/svg" viewBox="0 0 384 512"><!--! Font Awesome Pro 6.1.1 by @fontawesome - https://fontawesome.com License - https://fontawesome.com/license (Commercial License) Copyright 2022 Fonticons, Inc.--><path d="M360 208h-8v-16c0-80-59.21-145.9-136-157.6V24c0-13.26-10.7-24-24-24s-24 10.74-24 24v10.43C91.21 46.12 32 111.1 32 192v16h-8c-13.25 0-24 10.7-24 24s10.75 24 24 24h336c13.3 0 24-10.7 24-24s-10.7-24-24-24zm-56 0H80v-16c0-61.75 50.25-112 112-112s112 50.25 112 112v16zM69.26 290.9c-2.375-3.703-8.148-3.703-10.52 0C54.28 297.8 32 333.3 32 349.8c0 18.95 14.35 34.31 31.1 34.31S96 368.7 96 349.8c0-16.5-22.28-52-26.74-58.9zm128.04 0c-2.375-3.703-8.148-3.703-10.52 0-4.48 6.9-26.78 42.4-26.78 58.9 0 18.95 14.35 34.31 31.1 34.31S224 368.7 224 349.8c0-16.5-22.3-52-26.7-58.9zm117.4 0c-4.4 6.9-26.7 42.4-26.7 58.9 0 18.95 14.35 34.31 31.1 34.31S352 368.7 352 349.8c0-16.5-22.28-51.92-26.74-58.88-2.36-3.72-8.16-3.72-10.56-.02zm-64 127.9c-4.4 6.9-26.7 42.3-26.7 58.9 0 18.9 14.4 34.3 32 34.3s32-15.4 32-34.3c0-16.5-22.28-51.93-26.74-58.88-2.36-3.72-8.16-3.72-10.56-.02zm-128 0c-4.4 6.9-26.7 42.3-26.7 58.9 0 18.9 14.3 34.3 31.1 34.3s32.9-15.4 32.9-34.3c0-16.5-22.28-51.93-26.74-58.88-2.36-3.72-8.16-3.72-10.56-.02z"/></svg>