<svg xmlns="http://www.w3.org/2000/svg" viewBox="0 0 512 512"><!--! Font Awesome Pro 6.1.1 by @fontawesome - https://fontawesome.com License - https://fontawesome.com/license (Commercial License) Copyright 2022 Fonticons, Inc.--><path d="M344.1 87.03c-9.375-9.375-24.56-9.375-33.94 0l.04.81-7.031-7.031C281.3 58.94 252.7 48 224 48c-21.57 0-43.13 6.211-61.8 18.6l-16.9-14.07A88.647 88.647 0 0 0 88.61 32C39.75 32 0 71.75 0 120.6V456c0 13.3 10.75 24 24 24s24-10.75 24-24V120.6C48 98.22 66.22 80 88.61 80c9.469 0 18.7 3.344 26 9.406l14.29 11.91c-26.67 43.18-21.54 100.4 15.9 137.9l7 6.984-.8.8c-9.375 9.375-9.375 24.56 0 33.94 4.7 4.76 10.9 7.06 17 7.06s12.28-2.344 16.97-7.031l160-160c9.33-9.369 9.33-24.559-.87-33.939zM185.8 212.3l-7.1-7c-24.95-24.95-24.95-65.55.002-90.51C190.8 102.7 206.9 96 224 96c17.09 0 33.17 6.656 45.26 18.75l7.031 7.029L185.8 212.3zM480 192c-17.67 0-32 14.33-32 32s14.33 32 32 32 32-14.33 32-32c0-17.7-14.3-32-32-32zM288 384c-17.67 0-32 14.33-32 32s14.33 32 32 32 32-14.33 32-32c0-17.7-14.3-32-32-32zm64-64c-17.67 0-32 14.33-32 32s14.33 32 32 32 32-14.33 32-32c0-17.7-14.3-32-32-32zm64-64c-17.67 0-32 14.33-32 32s14.33 32 32 32 32-14.33 32-32c0-17.7-14.3-32-32-32zm-128 64c0-17.67-14.33-32-32-32s-32 14.33-32 32 14.33 32 32 32 32-14.3 32-32zm32-96c-17.67 0-32 14.33-32 32s14.33 32 32 32 32-14.33 32-32c0-17.7-14.3-32-32-32zm64 0c17.67 0 32-14.33 32-32s-14.33-32-32-32-32 14.33-32 32c0 17.7 14.3 32 32 32z"/></svg>