<svg xmlns="http://www.w3.org/2000/svg" viewBox="0 0 512 512"><!--! Font Awesome Pro 6.1.1 by @fontawesome - https://fontawesome.com License - https://fontawesome.com/license (Commercial License) Copyright 2022 Fonticons, Inc.--><path d="M111.1 48h254.1L400 81.94V160h48V81.94A47.99 47.99 0 0 0 433.94 48L400 14.06A47.95 47.95 0 0 0 366.1 0h-255C85.49 0 64.01 21.48 64 47.98l.002 82.28c-.002 0 .002 0 0 0L64 160h48.01l-.91-112zM440 192H72c-39.7 0-72 32.3-72 72v96c0 13.3 10.75 24 24 24h16v104c0 13.3 10.75 24 23.1 24S88 501.3 88 488V384h48v104c0 13.3 10.7 24 23.1 24s24.9-10.7 24.9-24V384h48v104c0 13.3 10.8 24 24 24s24-10.75 24-23.1V384h48v104c0 13.3 10.8 24 24 24s24-10.75 24-23.1V384h48v104c0 13.3 10.8 24 24 24s24-10.75 24-23.1V384h16c13.25 0 24-10.75 24-24v-96c0-39.7-32.3-72-72-72zm24 144H48v-72c0-13.23 10.77-24 24-24h368c13.23 0 24 10.77 24 24v72z"/></svg>