<svg xmlns="http://www.w3.org/2000/svg" viewBox="0 0 512 512"><!--! Font Awesome Pro 6.1.1 by @fontawesome - https://fontawesome.com License - https://fontawesome.com/license (Commercial License) Copyright 2022 Fonticons, Inc.--><path d="M224 248c13.25 0 24-10.75 24-24 0-13.26-10.75-24-24-24s-24 10.7-24 24 10.7 24 24 24zm112-120H72c-13.22 0-24-10.8-24-24s10.78-24 24-24h352c13.3 0 24-10.75 24-24s-10.7-24-24-24H72C32.31 32 0 64.3 0 104c0 37.47 28.88 67.99 65.48 71.34C77.1 274.6 161.6 352 264 352h64c22.06 0 40 17.94 40 40 0 20.44-15.62 36.71-35.44 39.08l-64.91-36.06c-11.59-6.453-26.22-2.234-32.63 9.328-5.545 9.984-2.867 21.89 5.287 29.21C230.9 436.8 224 445.5 224 456c0 13.3 10.8 24 24 24h88c97.03 0 176-78.95 176-176s-79-176-176-176zm-40 176h-32c-75.66 0-138.6-55.55-150.1-128H296v128zm63.9 6.2c-5.1-2-10.4-3.6-15.9-4.6V176.8c39.6 2.502 74.32 22.71 96.06 53.19L359.9 310.2zm55.2 94.4c.6-4.1.9-8.3.9-12.6 0-19.69-6.727-37.7-17.69-52.37l62.68-62.68C462.9 285.7 464 294.7 464 304c0 40.8-19.1 77.1-48.9 100.6z"/></svg>