<svg xmlns="http://www.w3.org/2000/svg" viewBox="0 0 512 512"><!--! Font Awesome Pro 6.1.1 by @fontawesome - https://fontawesome.com License - https://fontawesome.com/license (Commercial License) Copyright 2022 Fonticons, Inc.--><path d="M471.9 191.1h-39.1v-72c0-22.12-17.87-39.1-39.1-39.1h-71.1V39.1C319.9 17.87 302.1 0 279.9 0h-35c-15.5 0-29.8 9.125-36.3 23.12L95.41 266.5l-64.38 64.47C10.34 351.66-.01 378.81-.01 405.07c0 60.06 48.87 106 106 106 27.11 0 54.23-10.32 75.01-31.04l64.42-64.47 243.3-113.2c14.12-6.5 23.25-20.75 23.25-36.25L512 232c-.1-22.1-18-40.9-40.1-40.9zm-88-64v62.37l-91.25 28.87 28.87-91.25h62.38zM85.02 344.7l20.87-20.87 82.12 82.12-20.87 20.87-82.12-82.12zM250.1 47.1h21.75v50.25L209.9 134.2l40.2-87.1zm10.9 112-26.2 84.1-70.8 69.9-25.75-25.75 36.35-77.05 86.4-51.2zM105.8 464c-21.92 0-57.74-17.12-57.74-57.79 0-13.8 4.879-27.61 14.6-38.59l81.62 81.62C132.1 459.2 119.3 464 105.8 464zm117.9-90.3-25.75-25.87 70.76-70.75 83.08-26.37-50.11 86.57-77.98 36.42zm240.2-112-86.3 40.2 35.1-61.87h50.25v21.67z"/></svg>