<svg xmlns="http://www.w3.org/2000/svg" viewBox="0 0 512 512"><!--! Font Awesome Pro 6.1.1 by @fontawesome - https://fontawesome.com License - https://fontawesome.com/license (Commercial License) Copyright 2022 Fonticons, Inc.--><path d="M129.9 308.7c-6.2-6.2-16.5-6.2-22.7.1l-22.5 22.5c-6.25 6.25-6.25 16.5 0 22.75l2.625 2.75-77.952 78c-12.5 12.5-12.5 32.76 0 45.26l22.62 22.62c12.5 12.5 32.76 12.5 45.26 0l78.07-78.13 2.75 2.75c6.252 6.25 16.38 6.25 22.63 0l22.63-22.62c6.252-6.25 6.247-16.39-.009-22.63L129.9 308.7zm381.5-155C500.7 100.6 446.4 0 318 0c-90.9 0-166.5 61.62-186.1 149.9-13.3 59.72 8.411 126.1 57.01 173.7l28.08 26.06c4.61 4.24 10.41 6.34 16.31 6.34a23.99 23.99 0 0 0 16.8-6.844l31.28-30.62c7.984-7.844 9.516-20.16 3.672-29.69-29.38-47.97-14.92-106.7 33.61-136.7 30.98-19.19 71.5-20.28 103.4-2.781 13.28 7.219 25.06 17.31 34.11 29.22 8.766 11.59 24.22 15.5 37.49 9.531C506.9 182.2 514.2 168 511.4 153.7zm-218-42.4C228.5 151.4 205 229.9 235 296.7l-2.1 2.1-10.9-10c-36.4-35.6-52.9-85.7-43.2-128.5C190.8 106.2 239.5 48 318.2 48c59.78 0 95.88 26.72 117.2 54.44-45-20.56-99.6-17.35-142 8.86z"/></svg>