<svg xmlns="http://www.w3.org/2000/svg" viewBox="0 0 640 512"><!--! Font Awesome Pro 6.1.1 by @fontawesome - https://fontawesome.com License - https://fontawesome.com/license (Commercial License) Copyright 2022 Fonticons, Inc.--><path d="M79.1 168c0 13.3-9.85 24-24 24-12.36 0-24-10.7-24-24v-40c0-53.02 43.88-96 96-96 53.9 0 96 42.98 96 96v7.9c0 22.2-.5 44.4-3.2 66.4l133-41.2c8.7-2.7 18.1-.3 24.4 6.3 6.3 5.7 8.4 16.1 5.3 24.7L354.1 272H416v24.6c-9.7 5.6-17.8 13.7-23.4 23.4h-73.5c-6.9 0-14.2-3.8-18.7-10.2-4.5-6.4-5.6-14.5-3-21.9l23.9-66.8-110.8 34.3-1 4.7c-13.4 56.2-34 110.1-63.7 159.5L129.1 446c-11.8 21.1-34.55 34-59.13 34C31.33 480 0 448.7 0 410v-74.8c0-38.6 25.13-72.7 61.98-84.1l107.02-34c4.7-26.2 7-53.7 7-81.2v-8.8c0-25.6-21.5-48-48-48s-48 22.4-48 48l-.9 40.9zm-32 167.2V410c0 12.2 10.74 22 22.87 22 7.72 0 14.87-4.9 18.84-10.7l15.89-26.4c23-38.4 40.7-79.8 52.4-123l-80.93 24.2c-16.75 6.1-29.07 21.6-29.07 39.1zm161 32.8H384v48H184.8c8.5-15.6 16.3-31.7 23.3-48zM528 192c44.2 0 80 35.8 80 80v48c17.7 0 32 14.3 32 32v128c0 17.7-14.3 32-32 32H448c-17.7 0-32-14.3-32-32V352c0-17.7 14.3-32 32-32v-48c0-44.2 35.8-80 80-80zm0 48c-17.7 0-32 14.3-32 32v48h64v-48c0-17.7-14.3-32-32-32z"/></svg>