<svg xmlns="http://www.w3.org/2000/svg" viewBox="0 0 640 512"><!--! Font Awesome Pro 6.1.1 by @fontawesome - https://fontawesome.com License - https://fontawesome.com/license (Commercial License) Copyright 2022 Fonticons, Inc.--><path d="M138.9 83.55C154.9 52.91 187 32 224 32c53 0 96 42.98 96 96v7.9c0 22.2-1.4 44.4-4.1 66.4l133-41.2c8.7-2.7 18.1-.3 24.4 6.3 6.3 5.7 8.4 16.1 5.3 24.7L450.1 272H552c13.3 0 24 10.7 24 24s-10.7 24-24 24H440.6l61.2 48H616c13.3 0 24 10.7 24 24s-10.7 24-24 24h-53l67.8 53.1c10.4 8.2 12.3 23.3 4.1 33.7-8.2 10.4-23.3 12.3-33.7 4.1L9.196 42.89C-1.236 34.71-3.065 19.63 5.112 9.196 13.29-1.236 28.37-3.065 38.81 5.112L138.9 83.55zM178 114.2l91.4 71.7c1.7-16.6 2.6-33.3 2.6-50V128c0-26.5-21.5-48-48-48-21.7 0-40.1 14.42-46 34.2zm165.5 129.7 51.3 40.2 22.5-63-73.8 22.8zm1.7 124.1 61 48H280.8c8.5-15.6 16.3-31.7 23.3-48h41.1zM157.1 251.1l28.8-8.6 45.8 36.1-59.5 17.5c-16.8 6.1-28.2 21.6-28.2 39.1V410c0 12.2 9.8 22 21.1 22 8.6 0 15.7-4.9 19.7-10.7l15.9-26.4c19.6-32.7 35.3-67.6 46.8-104.8l40 32.5a533.16 533.16 0 0 1-45.7 97L225.1 446c-11.8 21.1-34.5 34-60 34-37.8 0-69.1-31.3-69.1-70v-74.8c0-38.6 25.1-72.7 61.1-84.1zM64 410c0 2 .06 4 .17 6H24c-13.25 0-24-10.7-24-24s10.75-24 24-24h40v42z"/></svg>