<svg xmlns="http://www.w3.org/2000/svg" viewBox="0 0 512 512"><!--! Font Awesome Pro 6.1.1 by @fontawesome - https://fontawesome.com License - https://fontawesome.com/license (Commercial License) Copyright 2022 Fonticons, Inc.--><path d="M232 24c0-13.25 10.7-24 24-24s24 10.75 24 24v8h160.3c4.9 0 9.5 2.21 12.5 6l51.2 64c4.7 5.8 4.7 14.2 0 19.1l-51.2 64c-3 4.7-7.6 6.9-12.5 6.9H280v32h168c17.7 0 32 14.3 32 32v96c0 17.7-14.3 32-32 32H280v104c0 13.3-10.7 24-24 24s-24-10.7-24-24V384H71.69c-4.86 0-9.46-2.2-12.49-6.9l-51.204-64c-4.674-4.9-4.674-13.3 0-19.1L59.2 230c3.03-3.8 7.63-6 12.49-6H232v-32H64c-17.67 0-32-14.3-32-32V64c0-17.67 14.33-32 32-32h168v-8zM80 80v64h344.9l25.6-32-25.6-32H80zm352 192H87.07l-25.6 32 25.6 32H432v-64z"/></svg>