<svg xmlns="http://www.w3.org/2000/svg" viewBox="0 0 640 512"><!--! Font Awesome Pro 6.1.1 by @fontawesome - https://fontawesome.com License - https://fontawesome.com/license (Commercial License) Copyright 2022 Fonticons, Inc.--><path d="m630.8 469.1-71.49-56.04c71.14-102 64.16-248.3-21.45-341.3-8.961-9.781-24.18-10.38-33.95-1.406-9.76 8.969-10.4 24.16-1.424 33.91 69.97 76.01 75.69 194.9 18.55 278.8l-50.92-39.91c37.48-57.45 33.8-138.9-11.97-191-8.727-9.967-23.9-10.94-33.9-2.188-9.963 8.75-10.95 23.91-2.191 33.88 31.01 35.27 34.38 90.09 10.41 129.8L359.9 256.8c.006-.272.135-.5.135-.773 0-22.09-17.93-40-40.04-40-3.426 0-6.488 1.12-9.656 1.932L38.81 5.113C28.34-3.059 13.31-1.246 5.109 9.191c-8.172 10.44-6.344 25.53 4.078 33.7L601.2 506.9c4.4 3.4 9.6 5.1 13.9 5.1 7.125 0 14.17-3.156 18.91-9.187 9.09-10.413 7.19-25.513-3.21-33.713zM95.82 171.8l-39.13-30.7c-43.93 97.3-28.93 218.3 45.44 299.1 4.77 5.2 11.17 7.8 17.67 7.8 5.818 0 11.65-2.094 16.26-6.344 9.76-8.969 10.4-24.16 1.424-33.91C78.85 344 65.15 250 95.82 171.8zm96.58 75.7L150 214.3c-12.1 49.99-2.779 106.2 31.83 145.6 4.77 5.4 11.37 8.1 18.07 8.1 5.615 0 11.28-1.969 15.84-5.969 9.963-8.75 10.95-23.91 2.191-33.88C198.6 306.1 190.3 276.4 192.4 247.5z"/></svg>