<svg xmlns="http://www.w3.org/2000/svg" viewBox="0 0 640 512"><!--! Font Awesome Pro 6.1.1 by @fontawesome - https://fontawesome.com License - https://fontawesome.com/license (Commercial License) Copyright 2022 Fonticons, Inc.--><path d="M176 168c0 13.3-10.7 24-24 24s-24-10.7-24-24v-40c0-53.02 42.1-96 96-96 53 0 96 42.98 96 96v7.9c0 22.2-1.4 44.4-4.1 66.4l133-41.2c8.7-2.7 18.1-.3 24.4 6.3 6.3 5.7 8.4 16.1 5.3 24.7L450.1 272H552c13.3 0 24 10.7 24 24s-10.7 24-24 24H416c-7.8 0-15.1-3.8-19.6-10.2-4.5-6.4-5.6-14.5-3-21.9l23.9-66.8-110.8 34.3-1 4.7c-13.4 56.2-34 110.1-63.7 159.5L225.1 446c-11.8 21.1-34.5 34-60 34-37.8 0-69.1-31.3-69.1-70v-74.8c0-38.6 25.1-72.7 61.1-84.1l107.9-34c4.7-26.2 7-53.7 7-81.2v-8.8c0-25.6-21.5-48-48-48s-48 22.4-48 48V168zm-32 167.2V410c0 12.2 9.8 22 21.1 22 8.6 0 15.7-4.9 19.7-10.7l15.9-26.4c23-38.4 40.7-79.8 52.4-123l-80.9 24.2c-16.8 6.1-28.2 21.6-28.2 39.1zM64 410c0 2 .06 4 .17 6H24c-13.25 0-24-10.7-24-24s10.75-24 24-24h40v42zm216.8 6c8.5-15.6 16.3-31.7 23.3-48H616c13.3 0 24 10.7 24 24s-10.7 24-24 24H280.8z"/></svg>