<svg xmlns="http://www.w3.org/2000/svg" viewBox="0 0 640 512"><!--! Font Awesome Pro 6.1.1 by @fontawesome - https://fontawesome.com License - https://fontawesome.com/license (Commercial License) Copyright 2022 Fonticons, Inc.--><path d="M416 464h-32v-66.8l-48-37.62V480c0 17.67 14.33 32 32 32h64c17.67 0 32-14.33 32-32v-20.09l-48-37.61V464zM184 288v192c0 17.67 14.33 32 32 32h64c17.67 0 32-14.33 32-32V340.8l-105.7-83.7c-12.8 5-22.3 16.7-22.3 30.9zm48 16h32v160h-32V304zm-104 80H64c-17.67 0-32 14.33-32 32v64c0 17.67 14.33 32 32 32h64c17.67 0 32-14.33 32-32v-64c0-17.7-14.3-32-32-32zm-16 80H80v-32h32v32zm518.8 5.1L616 457.5V32c0-17.67-14.33-32-32-32h-64c-17.67 0-32 14.33-32 32v325.2l-24-18.81V160c0-17.67-14.33-32-32-32h-64c-17.67 0-32 14.33-32 32v78.04L38.81 5.111C28.34-3.061 13.32-1.249 5.12 9.189-3.052 19.63-1.234 34.72 9.187 42.89l591.1 463.1C605.6 510.3 610.8 512 615.1 512c7.125 0 14.16-3.161 18.89-9.193 9.11-10.407 7.21-25.507-3.19-33.707zM416 300.7l-32-25V176h32v124.7zm152 119.2-32-25.08V48h32v371.9z"/></svg>