<svg xmlns="http://www.w3.org/2000/svg" viewBox="0 0 640 512"><!--! Font Awesome Pro 6.1.1 by @fontawesome - https://fontawesome.com License - https://fontawesome.com/license (Commercial License) Copyright 2022 Fonticons, Inc.--><path d="M192 287.1c-13.25 0-24 10.75-24 24v176c0 13.25 10.75 23.1 24 23.1s24-8.9 24-22.2V312c0-13.2-10.7-24.9-24-24.9zm-128 96c-13.25 0-24 10.75-24 24v80c0 13.25 10.75 23.1 24 23.1s24-8.9 24-22.2v-80c0-13.2-10.75-24.9-24-24.9zM296 488c0 13.3 10.8 24 24 24s24-10.75 24-24V365.9l-48-37.62V488zm128 0c0 13.25 10.75 24 24 24s24-10.75 24-24v-21.82l-48-37.62V488zm206.8-18.9-30.8-25V24c0-13.25-10.75-24-24-24s-24 10.75-24 24v383.3l-80-62.7V120c0-13.2-10.7-24-24-24s-24 10.75-24 24v187l-80-62.7V216c0-13.2-10.7-24-24-24-10.4 0-19.9 6.7-22.4 15.1L38.81 5.111C28.35-3.061 13.32-1.249 5.121 9.189c-8.172 10.44-6.354 25.53 4.068 33.7l591.1 463.1c4.406 3.438 9.609 5.117 14.8 5.117 7.125 0 14.16-3.164 18.9-9.195C643.1 492.4 641.2 477.3 630.8 469.1z"/></svg>