<svg xmlns="http://www.w3.org/2000/svg" viewBox="0 0 448 512"><!--! Font Awesome Pro 6.1.1 by @fontawesome - https://fontawesome.com License - https://fontawesome.com/license (Commercial License) Copyright 2022 Fonticons, Inc.--><path d="M272 176h-65.5c-16.8 0-30.5 13.7-30.5 30.5V240h96v-64zm-96 129.5c0 16.8 13.7 30.5 30.5 30.5H240v-64h-64v33.5zm96 30.5h65.49c16.81 0 30.51-13.7 30.51-30.5V272h-96v64zm166.6-233.4L345.35 9.35C339.4 3.371 331.2 0 322.7 0H160c-35.2 0-64 28.8-64 64v288c0 35.2 28.8 64 64 64h224c35.2 0 64-28.8 64-64V125.3c0-8.5-3.4-16.7-9.4-22.7zM400 352c0 8.672-7.326 16-16 16H160c-8.672 0-16-7.328-16-16V64c0-8.674 7.328-16 16-16h156.1l83.9 83.9V352zm-96-112h64v-33.5c0-16.8-13.7-30.5-30.5-30.5H304v64zm24 272H120C53.83 512 0 458.2 0 392V120c0-13.2 10.75-24 24-24s24 10.8 24 24v272c0 39.7 32.3 72 72 72h208c13.25 0 24 10.75 24 24s-10.7 24-24 24z"/></svg>