<svg xmlns="http://www.w3.org/2000/svg" viewBox="0 0 448 512"><!--! Font Awesome Pro 6.1.1 by @fontawesome - https://fontawesome.com License - https://fontawesome.com/license (Commercial License) Copyright 2022 Fonticons, Inc.--><path d="M187.9 176.3c-12.8-2.1-25.4 5.8-27.6 19.8l-16 96c-2.1 13 5.8 25.4 19.8 27.6 1.3.2 2.6.3 3.9.3 11.53 0 21.69-8.312 23.66-20.06l16-96c2.14-13.04-6.66-25.44-19.76-27.64zm213 159.8-36.4-194.4c-5-26.5-28.1-45.7-55.1-45.7H138.6c-27 0-50.13 19.2-55.1 45.7L47.06 336.1C20.1 336.6 0 357.8 0 384v48c0 26.5 21.49 48 48 48h352c26.51 0 48-21.49 48-48v-48c0-26.2-21-47.4-47.1-47.9zM130.7 150.5c.7-3.7 4-6.5 7.9-6.5h170.9c3.844 0 7.156 2.75 7.875 6.5L352.1 336H95.92l34.78-185.5zM400 432H48v-48h352v48z"/></svg>