<svg xmlns="http://www.w3.org/2000/svg" viewBox="0 0 640 512"><!--! Font Awesome Pro 6.1.1 by @fontawesome - https://fontawesome.com License - https://fontawesome.com/license (Commercial License) Copyright 2022 Fonticons, Inc.--><path d="M112 224.1c0-13.25-10.75-23.99-24-23.99H24c-13.25 0-24 10.7-24 23.95s10.75 24.03 24 24.03h64c13.3.01 24-10.69 24-23.99zM90.75 108.2c7.125 5 16.38 5.874 24.25 1.999 7.9-3.799 13-11.499 13.5-20.249s-3.7-17.2-11.2-21.82l-48-32C62.13 31 52.88 30.25 45 34c-7.87 3.88-13 11.63-13.5 20.38s3.75 17.21 11.25 21.84l48 31.98zm445.25 4c4.75 0 9.375-1.372 13.25-3.997l48-31.98c7.375-4.625 11.62-13.09 11.12-21.84s-5.625-16.5-13.5-20.25c-7.75-3.75-17-3-24.12 1.875l-48 32c-8.875 5.875-12.75 17.08-9.625 27.2C516.1 105.2 525.5 112.2 536 112.2zm80 87.9h-64c-13.25 0-24 10.74-24 23.99s10.75 23.99 24 23.99h64c13.25 0 24-10.78 24-24.03s-10.7-23.95-24-23.95zm-119.1 136-36.4-194.4c-5-26.5-28.1-45.7-55.1-45.7H234.6c-27 0-50.1 19.2-55.1 45.7l-36.44 194.4C116.1 336.6 96 357.8 96 384v48c0 26.5 21.5 48 48 48h352c26.51 0 48-21.49 48-48v-48c0-26.2-21-47.4-47.1-47.9zM226.7 150.5c.7-3.7 4-6.5 7.9-6.5h170.9c3.844 0 7.156 2.75 7.875 6.5L448.1 336H191.9l34.8-185.5zM496 432H144v-48h352v48zM283.9 176.3c-12.8-2.1-25.4 5.8-27.6 19.8l-16 96c-2.1 13 5.8 25.4 19.8 27.6 1.3.2 2.6.3 3.9.3 11.53 0 21.69-8.312 23.66-20.06l16-96c2.14-13.04-6.66-25.44-19.76-27.64z"/></svg>