<svg xmlns="http://www.w3.org/2000/svg" viewBox="0 0 512 512"><!--! Font Awesome Pro 6.1.1 by @fontawesome - https://fontawesome.com License - https://fontawesome.com/license (Commercial License) Copyright 2022 Fonticons, Inc.--><path d="M200 448c13.3 0 24-10.7 24-24s-10.7-24-24-24-24 10.7-24 24 10.7 24 24 24zm112 0c13.25 0 24-10.75 24-24s-10.75-24-24-24-24 10.7-24 24 10.7 24 24 24zm176-288H280v-48h144c13.3 0 24-10.7 24-24s-10.7-24-24-24H280V24c0-13.25-10.7-24-24-24s-24 10.75-24 24v40H88c-13.25 0-24 10.75-24 24s10.75 24 24 24h144v48H24c-13.25 0-24 10.8-24 24s10.75 24 24 24h208v48H88c-13.25 0-24 10.8-24 24s10.75 24 24 24h144v32H126.5c-22.78 0-43.06 11.84-54.28 31.66-11.25 19.81-10.94 43.31.75 62.84l34.44 57.41C116.3 502.8 132.6 512 149.9 512H362c17.34 0 33.66-9.25 42.56-24.09L439 430.5c11.69-19.53 12-43.03.75-62.84C428.6 347.8 408.3 336 385.5 336H280v-32h144c13.3 0 24-10.7 24-24s-10.7-24-24-24H280v-48h208c13.3 0 24-10.7 24-24s-10.7-24-24-24zM385.5 384c7.562 0 11.28 5.094 12.53 7.312 1.25 2.188 3.719 8-.188 14.5L362.1 464l-213.5-.781-34.44-57.41c-3.906-6.5-1.438-12.31-.187-14.5C115.2 389.1 118.9 384 126.5 384h259z"/></svg>