<svg xmlns="http://www.w3.org/2000/svg" viewBox="0 0 512 512"><!--! Font Awesome Pro 6.1.1 by @fontawesome - https://fontawesome.com License - https://fontawesome.com/license (Commercial License) Copyright 2022 Fonticons, Inc.--><path d="M488 464h-8v-68.6c0-26.16-15.93-49.69-40.23-59.41l-118.8-47.47 70.18-258.1c.571-2.104.895-4.399.895-6.48 0-7.731-5.988-23.99-24.02-23.99-10.59 0-20.22 6.986-23.12 17.66l-4.116 14.58-206.389-.11c-30.51 0-56.77 21.54-62.76 51.44L1.264 435.5A64.818 64.818 0 0 0 0 448.2C0 482.6 27.99 512 64.02 512H488c13.25 0 24-10.74 24-23.99 0-13.21-10.7-24.01-24-24.01zM118.7 93.07c1.5-7.45 8.1-12.86 15.7-12.86h68.08L191.8 115.6c-17 56.9-55 105.2-105.7 136.1l32.6-158.63zM432 464H64.02C54.709 464 48 456.306 48 448.12c0-1.024.1-2.109.329-3.252l30.46-152.2c68.71-33.2 121.6-94.25 143.7-167.9L235.9 80.21h91.96l-30.45 111.9H240c-8.836 0-16 7.159-16 15.99 0 8 7.2 16 16 16h48.43l-18.37 63.97-62.06.03c-8.836 0-16 7.206-16 16.04 0 8.832 7.164 15.99 16 15.99h62.76l151.2 60.45C428.1 382.1 432 388.8 432 395.4V464z"/></svg>