<svg xmlns="http://www.w3.org/2000/svg" viewBox="0 0 640 512"><!--! Font Awesome Pro 6.1.1 by @fontawesome - https://fontawesome.com License - https://fontawesome.com/license (Commercial License) Copyright 2022 Fonticons, Inc.--><path d="M92.32 368.1c0 25.83 20.98 47.9 48.02 47.9H448c17.67 0 32-14.33 32-31.1v-72.3c0-17.02-9.014-32.77-23.69-41.39L376 224l55.09-193.4a24 24 0 0 0 .92-6.569C432 16.29 425.1 0 408 0c-10.49 0-20.11 6.895-23.11 17.44L380.8 32l-194.6.01c-15.2 0-28.3 10.69-31.35 25.59L93.32 358.4c-.68 3.3-1 6.5-1 9.7zM199.2 80h45.45l-3.15 10.75c-11.28 37.6-33.85 70.66-63.88 95.15L199.2 80zm-30.8 150.9c49.63-28.85 87.14-75.69 103.7-130.1l6-20.8h89.03l-22.83 80H304c-8.836 0-16 7.162-16 16 0 8.836 7.164 16 16 16h31.2l-9.113 32H288c-8.836 0-16 7.162-16 16 0 8.836 7.164 16 16 16h47.7l96.3 56.6V368H140.3l28.1-137.1zM616 384c-13.25 0-24 10.75-24 24 0 30.88-25.12 56-56 56H24c-13.25 0-24 10.8-24 24s10.75 24 24 24h512c57.34 0 104-46.66 104-104 0-13.2-10.7-24-24-24z"/></svg>