<svg xmlns="http://www.w3.org/2000/svg" viewBox="0 0 448 512"><!--! Font Awesome Pro 6.1.1 by @fontawesome - https://fontawesome.com License - https://fontawesome.com/license (Commercial License) Copyright 2022 Fonticons, Inc.--><path d="M207.1 136c0 13.3-9.8 24-24 24-12.4 0-24-10.7-24-24s11.6-24 24-24c14.2 0 24 10.7 24 24zm32 0c0-13.3 11.6-24 24-24 14.2 0 24 10.7 24 24s-9.8 24-24 24c-12.4 0-24-10.7-24-24zm24 152h-80c-30 0-56-25.1-56-56v-8.6c-28.56-24.3-48-57.5-48-95.4 0-70.69 65.4-128 144-128 80.4 0 144 57.31 144 128 0 37.9-17.6 71.1-48 95.4v8.6c0 30.9-24.2 56-56 56zm56-160c0-39.02-36.6-80-96-80-57.6 0-96 40.98-96 80 0 21.5 11.3 42.4 30.8 57.8l17.2 14.5V232c0 4.4 4.5 8 8 8h80c5.3 0 8-3.6 8-8v-31.7l19-14.5c19.5-15.4 29-36.3 29-57.8zM2.704 268.9c6.115-11.7 20.606-16.3 32.366-10.2l188.03 97.4 189.8-97.4c11.8-6.1 26.3-1.5 32.4 10.2 6.1 11.8 1.5 26.3-10.2 32.4L276 384l159.1 82.7c11.7 6.1 16.3 20.6 10.2 32.4-6.1 11.7-20.6 16.3-32.4 10.2l-189.8-98.2-188.03 98.2c-11.76 6.1-26.251 1.5-32.366-10.2-6.115-11.8-1.539-26.3 10.216-32.4L171.1 384 12.92 301.3c-11.755-6.1-16.331-20.6-10.216-32.4z"/></svg>