<svg xmlns="http://www.w3.org/2000/svg" viewBox="0 0 640 512"><!--! Font Awesome Pro 6.1.1 by @fontawesome - https://fontawesome.com License - https://fontawesome.com/license (Commercial License) Copyright 2022 Fonticons, Inc.--><path d="M256 224c-17.62 0-32 14.25-32 31.1 0 17.62 14.38 31.1 32 31.1s32-14.38 32-31.1c0-16.8-14.4-31.1-32-31.1zm128 0c-17.62 0-32 14.25-32 31.1 0 17.62 14.38 31.1 32 31.1s32-14.38 32-31.1c0-16.8-14.4-31.1-32-31.1zM603.3 4.701c-5.375-5.375-13.71-6.123-19.96-2.124-6.375 4.125-8.882 12.05-6.257 19.18 6.125 15.1 19.59 67.58 2.84 91.7C573.1 123.2 561.4 128.1 544 128.1l-72.99-.169a64.019 64.019 0 0 0-55.03-31.92H224c-22.8.149-43.7 12.389-55.1 31.989l-72.9.1c-17.38 0-29.12-4.918-35.88-14.67C43.38 89.42 56.5 38.95 63 21.58c2.625-6.1 0-14.96-6.25-18.96-6.375-4.125-14.63-3.166-20 1.958C12.1 27.83 0 60.29 0 95.79c0 70.5 57.38 128.2 128 128.2l32-.018v80.07c.125 31.75 23.25 58.5 54.62 62.1l34.75 121.7C253.2 502.5 265.8 512 280.1 512h79.63c14.37 0 26.87-9.499 30.75-23.25l34.88-121.6C456.6 362.5 479.9 335.8 480 304.1V224l32-.045c70.5 0 128-57.63 128-128.1 0-35.515-13-68.035-36.7-91.154zM432 304c0 7.874-5.875 14.62-13.62 15.62l-30.62 4.5-40 139.9H292.1L252.2 324.1l-30.6-4.5c-7.7-1.1-13.6-7.7-13.6-15.6V160.1c0-8.874 7.125-15.1 16-15.1h192c8.875 0 16 7.125 16 15.1V304z"/></svg>