<svg xmlns="http://www.w3.org/2000/svg" viewBox="0 0 512 512"><!--! Font Awesome Pro 6.1.1 by @fontawesome - https://fontawesome.com License - https://fontawesome.com/license (Commercial License) Copyright 2022 Fonticons, Inc.--><path d="M224 256c0 30.9-25.1 56-56 56s-56-25.1-56-56 25.1-56 56-56 56 25.1 56 56zm64 0c0-30.9 25.1-56 56-56s56 25.1 56 56-25.1 56-56 56-56-25.1-56-56zm127.1 142.9c0 .4.9.7.9 1.1v64c0 26.5-21.5 48-48 48H144c-26.5 0-48-21.5-48-48v-64c0-.4 0-.7.01-1.1C37.48 357.8 0 294.7 0 224 0 100.3 114.6 0 256 0s256 100.3 256 224c0 70.7-37.5 133.8-96.9 174.9zm-47.1.2c-.4-15.2 7.3-30.3 20.4-39.5C436.1 326.2 464 276.9 464 224c0-91.4-86.9-176-208.9-176-120.2 0-208 84.6-208 176 0 52.9 28.83 102.2 76.5 135.6 13.1 9.2 20.8 24.3 19.5 39.5V464h48v-24c0-13.3 11.6-24 24-24 14.2 0 24 10.7 24 24v24H272v-24c0-13.3 10.7-24 24-24s24 10.7 24 24v24h48v-64.9z"/></svg>