<svg xmlns="http://www.w3.org/2000/svg" viewBox="0 0 640 512"><!--! Font Awesome Pro 6.1.1 by @fontawesome - https://fontawesome.com License - https://fontawesome.com/license (Commercial License) Copyright 2022 Fonticons, Inc.--><path d="m64 32 .62.01c5.16.05 10.29.32 15.38.82 53.7 5.25 102.5 35.12 131.4 81.47l18.9 30.2c30.9 48.6 85.1 79.5 143.4 79.5 23.4 0 42.3-18.9 42.3-42.3V136c0-22.1 17.9-40 40-40h128c13.3 0 24 10.7 24 24s-10.7 24-24 24h-24v112c0 68-53.9 123.6-120 127.8V432h120c17.7 0 32-14.3 32-32v-16c0-13.3 10.7-24 24-24s24 10.7 24 24v16c0 44.2-35.8 80-80 80H56c-13.25 0-24-10.7-24-24s10.75-24 24-24h80v-50.2C76.78 370.5 32 318.5 32 256V80h-8C10.75 80 0 69.25 0 56s10.75-24 24-24h40zm328 400v-48H184v48h208zm120-176V144h-48v37.7c0 49.9-40.4 90.3-90.3 90.3-74.8 0-144.4-38.6-184.1-102.9l-18.9-29.4c-20.2-32.3-53.5-53.53-91.6-58.55V256c0 44.2 36.7 80 80 80H432c44.2 0 80-35.8 80-80z"/></svg>