<svg xmlns="http://www.w3.org/2000/svg" viewBox="0 0 512 512"><!--! Font Awesome Pro 6.1.1 by @fontawesome - https://fontawesome.com License - https://fontawesome.com/license (Commercial License) Copyright 2022 Fonticons, Inc.--><path d="M96 0c13.3 0 24 10.75 24 24v59.66c32.5 10.2 56 40.54 56 76.34 0 35.8-23.5 66.1-56 76.3V488c0 13.3-10.7 24-24 24-13.25 0-24-10.7-24-24V236.3c-32.46-10.2-56-40.5-56-76.3s23.54-66.14 56-76.34V24C72 10.75 82.75 0 96 0zm0 192c17.7 0 32-14.3 32-32s-14.3-32-32-32c-17.67 0-32 14.3-32 32s14.33 32 32 32zm240 160c0 35.8-23.5 66.1-56 76.3V488c0 13.3-10.7 24-24 24s-24-10.7-24-24v-59.7c-32.5-10.2-56-40.5-56-76.3s23.5-66.1 56-76.3V24c0-13.25 10.7-24 24-24s24 10.75 24 24v251.7c32.5 10.2 56 40.5 56 76.3zm-80 32c17.7 0 32-14.3 32-32s-14.3-32-32-32-32 14.3-32 32 14.3 32 32 32zm184 104c0 13.3-10.7 24-24 24s-24-10.7-24-24V268.3c-32.5-10.2-56-40.5-56-76.3s23.5-66.1 56-76.3V24c0-13.25 10.7-24 24-24s24 10.75 24 24v91.7c32.5 10.2 56 40.5 56 76.3s-23.5 66.1-56 76.3V488zm-24-328c-17.7 0-32 14.3-32 32s14.3 32 32 32 32-14.3 32-32-14.3-32-32-32z"/></svg>