<svg xmlns="http://www.w3.org/2000/svg" viewBox="0 0 640 512"><!--! Font Awesome Pro 6.1.1 by @fontawesome - https://fontawesome.com License - https://fontawesome.com/license (Commercial License) Copyright 2022 Fonticons, Inc.--><path d="M592 128c-26.5 0-48 21.5-48 48 0 17.72 9.713 33.03 24 41.34V424c0 22.06-17.94 40-40 40h-80v-48c35.35 0 64-28.65 64-64V160c0-35.35-28.65-64-64-64V64c0-35.35-28.65-64-64-64H128C92.65 0 64 28.65 64 64v32c-35.35 0-64 28.7-64 64v192c0 35.35 28.65 64 64 64v32c0 35.35 28.65 64 64 64h400c48.53 0 88-39.47 88-88V217.3c14.3-8.3 24-23.6 24-41.3 0-26.5-21.5-48-48-48zM112 64c0-8.822 7.178-16 16-16h256c8.822 0 16 7.178 16 16v32H112V64zM64 368c-8.822 0-16-7.178-16-16V160c0-8.822 7.178-16 16-16h384c8.822 0 16 7.178 16 16v192c0 8.822-7.178 16-16 16H64zm336 80c0 8.836-7.164 16-16 16H128c-8.836 0-16-7.164-16-16v-32h288v32zM168 176h-56c-13.25 0-24 10.75-24 24s10.75 24 24 24h21.94l-28.54 79.9c-4.469 12.47 2.031 26.22 14.53 30.66 2.67 1.04 5.37 1.44 8.07 1.44 9.844 0 19.09-6.125 22.59-15.94l40-112a23.951 23.951 0 0 0-2.969-21.88C183.1 179.8 175.8 176 168 176zm240 0h-56c-13.25 0-24 10.75-24 24s10.8 24 24 24h21.94l-28.53 79.94c-4.469 12.47 2.031 26.22 14.53 30.66 2.66 1 5.36 1.4 8.06 1.4 9.844 0 19.09-6.125 22.59-15.94l40-112a23.951 23.951 0 0 0-2.969-21.88C423.1 179.8 415.8 176 408 176zm-120 0h-56c-13.2 0-24 10.8-24 24s10.8 24 24 24h21.94l-28.54 79.9c-4.469 12.47 2.031 26.22 14.53 30.66 2.67 1.04 5.37 1.44 8.07 1.44 9.844 0 19.09-6.125 22.59-15.94l40-112a23.951 23.951 0 0 0-2.969-21.88C303.1 179.8 295.8 176 288 176z"/></svg>