<svg xmlns="http://www.w3.org/2000/svg" viewBox="0 0 640 512"><!--! Font Awesome Pro 6.1.1 by @fontawesome - https://fontawesome.com License - https://fontawesome.com/license (Commercial License) Copyright 2022 Fonticons, Inc.--><path d="M616 368H88c-13.2 0-24 10.8-24 23.1S74.8 416 87.1 416h528c13.2 0 24-10.8 24-23.1S629.2 368 616 368zm-480 96H23.1C10.8 464 0 474.8 0 487.1S10.8 512 23.1 512H136c13.2 0 24-10.8 24-24s-10.8-24-24-24zm416 0H231.1c-12.3 0-23.1 10.8-23.1 23.1s10.8 24.9 23.1 24.9H552c13.2 0 24-10.8 24-23.1S565.2 464 552 464zM144 288h113c28 21 60.8 32 95 32s67.13-11 95-32h65c70.63 0 128-57.38 128-128S582.62 32 512 32c-17.75 0-35.38 3.75-51.75 11C430.8 15.5 392.2 0 352 0c-40.13 0-77.75 14.88-106.9 41.5C218.4 15.25 182.2 0 144 0 64.62 0 0 64.62 0 144s64.62 144 144 144zm0-240c25.38 0 49.25 9.75 67.25 27.75l32.5 32L277.4 77c20.5-18.75 47-29 74.6-29 27.88 0 54.75 10.75 75.63 30.12l23.13 21.63 29-12.88C490.1 82.25 500.9 80 512 80c44.13 0 80 35.88 80 80s-35.9 80-80 80h-81l-12.75 9.625C398.4 264.5 376.1 272 352 272s-46.4-7.5-66.2-22.4L273 240H144c-52.88 0-96-43.12-96-96s43.12-96 96-96z"/></svg>