<svg xmlns="http://www.w3.org/2000/svg" viewBox="0 0 640 512"><!--! Font Awesome Pro 6.1.1 by @fontawesome - https://fontawesome.com License - https://fontawesome.com/license (Commercial License) Copyright 2022 Fonticons, Inc.--><path d="M640 248c0-83.8-68.2-152-152-152-14.38 0-28.38 2.75-42 6.75C418.2 60.25 370.5 32 316 32c-19.8 0-39.2 3.88-58.1 11.75C229.6 15.75 191.9 0 152 0 68.25 0 0 68.25 0 152c0 37.8 14.25 72 37.38 98.5C14.38 278.2 0 313.2 0 352c0 88.25 71.75 160 160 160h352c70.63 0 128-57.38 128-128 0-23.75-7-45.88-18.38-65.13C633.1 297.8 640 273.8 640 248zm-48 0c0 11.25-2.125 22.12-5.5 32.25C565.5 265.1 539.9 256 512 256c-21.62 0-42.38 5.375-61.13 15.88C423.8 241.5 385.2 224 344 224c-24.1 0-47.2 6.1-68.4 17.8-6.8-7.4-14.6-13.7-22.7-19.6 15.9-27.4 44.2-46.2 79.1-46.2 15.62 0 30.75 4.25 45.25 12.5l17.63 10.12 12.88-15.87C427.9 158.2 457.1 144 488 144c57.3 0 104 46.8 104 104zM152 48c31.62 0 61.25 14.62 81.25 40L246 104.12l17.88-10C280.6 84.75 298.2 80 316 80c35.25 0 66.38 17.25 86.13 43.62-6.375 4.5-12.88 9.125-18.5 14.62C367 131.4 349.8 128 332 128c-52.8 0-98.2 29.6-122.1 72.9-16-5.4-32.7-8.9-49.9-8.9-32.2 0-62.25 9.8-87.5 26.2-15.25-18-24.5-41-24.5-66.2C48 94.75 94.75 48 152 48zm360 416H160c-61.75 0-112-50.25-112-112s50.25-112 112-112c36 0 70.12 17.75 91.25 47.38l14.5 20.38 19.75-15.36C302.8 279.1 323 272 344 272c33.13 0 63.38 17 81.25 45.38l14.5 23.38 21.12-17.63C471.2 314.4 488.5 304.1 512 304.1c44.13 0 80 35.88 80 80S556.1 464 512 464z"/></svg>