<svg xmlns="http://www.w3.org/2000/svg" viewBox="0 0 640 512"><!--! Font Awesome Pro 6.1.1 by @fontawesome - https://fontawesome.com License - https://fontawesome.com/license (Commercial License) Copyright 2022 Fonticons, Inc.--><path d="M503.8 141.6C479.8 125 464 99.25 464 70.25V23.1C464 10.8 453.2 0 440 0s-24 10.8-24 23.1v51.28c0 43.75 24.62 81.62 60.25 106.7C498.8 196.8 512 222.2 512 249.8v14.25c0 13.15 10.8 23.95 24 23.95s24-10.8 24-23.1v-15.1c0-43.4-21-83.6-56.2-108.2zm49.5-54.47c-5.7-3.88-9.3-10-9.3-16.88V24c0-13.2-10.8-24-24-24s-24 10.8-24 23.1v47.15c0 22 10.25 43.5 28.62 55.5C566.8 153 592 199.5 592 249.8v14.25c0 13.15 10.8 23.95 24 23.95s24-10.8 24-24v-14.2c0-65.6-32.4-126.3-86.7-162.67zM616 352c-13.2 0-24 10.8-24 23.1v112c0 14.1 10.8 24.9 24 24.9s24-10.8 24-23.1V375.1c0-12.3-10.8-23.1-24-23.1zm-80 0c-13.2 0-24 10.8-24 24v112c0 13.2 10.8 24 24 24s24-10.8 24-23.1V375.1c0-12.3-10.8-23.1-24-23.1zm-80 0H48c-26.5 0-48 21.5-48 48v64c0 26.5 21.5 48 48 48h408c13.25 0 24-10.75 24-24V376c0-13.2-10.8-24-24-24zm-24 112H224v-64h208v64z"/></svg>