<svg xmlns="http://www.w3.org/2000/svg" viewBox="0 0 448 512"><!--! Font Awesome Pro 6.1.1 by @fontawesome - https://fontawesome.com License - https://fontawesome.com/license (Commercial License) Copyright 2022 Fonticons, Inc.--><path d="M199.1 224h-160c-12.35 0-24 10.8-24 24s11.65 24 24 24h112.6L4.6 473.8c-5.344 7.281-6.156 16.97-2.063 25.03C6.684 506.9 14.96 512 23.1 512h160c13.25 0 24-10.75 24-24s-9.9-24-24-24H71.37l147.1-201.8c5.344-7.281 6.156-16.97 2.063-25.03C217.3 229.1 209 224 199.1 224zm246.4 13.3c-4.1-8.2-12.4-13.3-22.4-13.3h-96c-13.25 0-23.1 10.75-23.1 24s10.75 24 23.1 24h48l-67.19 89.59a23.957 23.957 0 0 0-2.281 25.12C310.6 394.9 318.9 400 327.1 400h88c13.25 0 24-10.75 24-24s-9.9-24-24-24h-40l67.19-89.59c6.41-7.31 7.21-17.01 3.21-25.11zM311.1 152c0-13.25-10.75-24-23.1-24h-40l67.19-89.59a23.957 23.957 0 0 0 2.281-25.12C313.4 5.125 305.1 0 295.1 0h-96c-12.4 0-24 10.75-24 24s11.6 24 24 24h48l-66.3 89.6a23.957 23.957 0 0 0-2.281 25.12C182.6 170.9 190.9 176 199.1 176h88c14.1 0 24-10.7 24-24z"/></svg>