<svg xmlns="http://www.w3.org/2000/svg" viewBox="0 0 640 512"><!--! Font Awesome Pro 6.1.1 by @fontawesome - https://fontawesome.com License - https://fontawesome.com/license (Commercial License) Copyright 2022 Fonticons, Inc.--><path d="m544 97.94 23.03 23.03C571.7 125.7 577.9 128 584 128s12.28-2.344 16.97-7.031c9.375-9.375 9.375-24.56 0-33.94L577.9 64l23.03-23.03c9.375-9.375 9.375-24.56 0-33.94s-24.56-9.375-33.94 0L544 30.06 520.97 7.03c-9.375-9.375-24.56-9.375-33.94 0s-9.375 24.56 0 33.94L510.1 64l-23.03 23.03c-9.375 9.375-9.375 24.56 0 33.94C491.7 125.7 497.9 128 504 128s12.28-2.344 16.97-7.031L544 97.94zM609.9 256l23.03-23.03c9.375-9.375 9.375-24.56 0-33.94s-24.56-9.375-33.94 0L576 222.1l-23.03-23.03c-9.375-9.375-24.56-9.375-33.94 0s-9.375 24.56 0 33.94L542.1 256l-23.03 23.03c-9.375 9.375-9.375 24.56 0 33.94C523.7 317.7 529.9 320 536 320s12.28-2.344 16.97-7.031L576 289.9l23.03 23.03C603.7 317.7 609.9 320 616 320s12.28-2.344 16.97-7.031c9.375-9.375 9.375-24.56 0-33.94L609.9 256zm-192.1-20.4c2.094.563 4.187.813 6.25.813 10.59 0 20.28-7.063 23.16-17.78 3.453-12.78-4.141-25.97-16.94-29.41l-29.4-7.905 31.02-17.97c11.47-6.656 15.37-21.34 8.734-32.81-6.656-11.5-21.36-15.31-32.8-8.75l-30.85 17.87 7.865-29.46c3.422-12.81-4.187-25.97-16.1-29.38-12.89-3.53-25.95 4.157-29.37 17L318.2 173.7l-71.1 40.6v-84.4l56.97-56.97c9.375-9.375 9.375-24.56 0-33.94s-24.56-9.375-33.94 0L247.1 62.06V24c0-13.25-9.9-24-23.1-24s-24 10.75-24 24v38.06l-23.9-23.03c-9.375-9.375-24.56-9.375-33.94 0-9.375 9.375-9.375 24.56 0 33.94l56.97 56.97v84.41L129.8 173.7l-20.2-75.89c-3.406-12.84-16.67-20.56-29.37-17-12.85 3.41-20.46 16.57-17.04 29.39l7.87 29.5-30.85-17.9c-11.41-6.6-26.13-2.8-32.799 8.7-6.64 11.5-2.734 26.2 8.739 32.8l31.02 17.97-29.4 7.93C4.97 192.638-2.62 205.82.83 218.61 3.708 229.3 13.4 236.4 23.99 236.4c2.062 0 4.156-.25 6.25-.813l75.56-20.31L176.1 256l-70.29 40.72-75.57-20.32c-12.81-3.4-25.969 4.2-29.407 17-3.453 12.78 4.141 25.97 16.94 29.41l29.4 7.904-31.02 17.97c-11.47 6.656-15.37 21.34-8.734 32.81 4.453 7.688 12.5 11.97 20.78 11.97 4.094 0 8.234-1.031 12.02-3.219L71.06 372.3l-7.865 29.46c-3.422 12.81 4.187 25.97 16.1 29.38 2.975.66 5.055.86 7.095.86 10.61 0 20.31-7.062 23.17-17.81l20.26-75.88 70.17-40.65v84.41l-56.97 56.97c-9.375 9.375-9.375 24.56 0 33.94 9.375 9.375 24.56 9.375 33.94 0l23.03-23.03V488c.01 13.3 10.81 24 24.01 24s23.1-10.75 23.1-24v-38.06l23.03 23.03c5.57 4.73 11.77 7.03 16.97 7.03s12.28-2.344 16.97-7.031c9.375-9.375 9.375-24.56 0-33.94l-56.97-56.97V297.7l70.17 40.65 20.26 75.88C341.3 424.9 350.1 432 361.6 432c2.047 0 4.141-.25 6.203-.813 12.81-3.406 20.42-16.56 16.1-29.38l-7.865-29.46 30.85 17.87a23.915 23.915 0 0 0 12.02 3.22c8.281 0 16.33-4.281 20.78-11.97 6.64-11.47 2.734-26.16-8.734-32.81l-31.02-17.97 29.4-7.904c12.8-3.438 20.39-16.62 16.94-29.41-3.422-12.78-16.53-20.34-29.41-16.97l-75.56 20.31L271.9 256l70.29-40.72 75.61 20.32z"/></svg>