<svg xmlns="http://www.w3.org/2000/svg" viewBox="0 0 512 512"><!--! Font Awesome Pro 6.1.1 by @fontawesome - https://fontawesome.com License - https://fontawesome.com/license (Commercial License) Copyright 2022 Fonticons, Inc.--><path d="M255.1 288.1c-8.751 0-16 7.254-16 16.01s7.251 16.01 16 16.01c8.751 0 16-7.254 16-16.01s-6.4-16.01-16-16.01zm0-64c-8.751 0-16 7.254-16 16.01s7.251 16.01 16 16.01c8.751 0 16-7.254 16-16.01s-6.4-16.01-16-16.01zm-32-136.06c-8.751 0-16 7.254-16 16.01s7.251 16.01 16 16.01 16-7.254 16-16.01-6.4-16.01-16-16.01zm32 264.16c-8.751 0-16 7.254-16 16.01s7.251 16.01 16 16.01c8.751 0 16-7.254 16-16.01s-6.4-16.01-16-16.01zm255.8-167.9-5.875-14.51c-3.25-8.004-12.63-11.88-20.75-8.629l-28.25 11.51V143.7c0-8.629-7.251-15.63-16-15.63h-16c-8.751 0-16 7.003-16 15.63v46.9c0 .5.25 1 .25 1.501l-26.13 10.76c-3.75-9.255-8.126-18.38-13.75-26.64 7.626-16.38 11.63-34.14 11.63-52.15C379.1 55.65 324.4 0 255.1 0s-124 55.65-124 124.1c0 18.01 4 35.77 11.63 52.15-5.75 8.379-10.13 17.38-13.75 26.64l-26.13-10.76c0-.5.25-1 .25-1.501V143.7c0-8.629-7.251-15.63-16-15.63H71.96c-8.751 0-16 7.003-16 15.63v29.01L27.83 161.2c-8.13-4.1-17.51.6-20.756 8.6l-5.876 14.51c-3.375 8.004.625 17.13 8.876 20.38l110.1 44.9c0 .75-.25 1.626-.25 2.376 0 7.128.75 14.38 2.125 22.01-18.25 26.89-27.88 57.9-27.88 90.79 0 55.4 28.25 106.2 75.38 136.2C181.1 508.2 195.2 512 210.7 512h90.01c17 0 33.38-5.002 47.38-14.88 52.75-36.64 78.51-98.8 67.01-162.3-3.875-21.39-12.5-42.02-25.13-60.65 1.375-7.754 2.125-15.13 2.125-22.26 0-.75-.25-1.501-.25-2.376l110.1-44.9C510.1 201.6 514.1 192.5 510.9 184.3zM320.7 457.1c-6.001 4.002-13 6.253-20.13 6.253H210.7c-4.5 0-10.75-.625-15.5-3.752-33.25-21.01-53-56.78-53-95.55 0-25.89 8.376-50.27 24.38-70.53l7.251-9.254L170.1 273.6c-2.125-8.254-3.125-15.13-3.125-21.64 0-26.89 12.13-46.27 22.25-57.78l12-13.76-9.876-15.13C184.1 152.8 179.8 138.6 179.8 123.9c0-41.9 34.13-76.04 76.01-76.04S331.82 82 331.82 123.9c0 14.51-4.25 28.89-12.25 41.4l-9.876 15.13 12 13.76c10.13 11.51 22.13 31.02 22.13 57.78 0 6.628-1 13.51-3.125 21.76l-2.875 11.51 7.376 9.255c11.5 14.76 19.38 31.64 22.5 48.9 8.2 44.905-9.8 88.705-47 113.705zM287.1 88.04c-8.751 0-16 7.254-16 16.01s7.251 16.01 16 16.01c8.751 0 16-7.254 16-16.01s-6.4-16.01-16-16.01zm-32 40.06c-8.751 0-16 7.254-16 16.01s16 32.02 16 32.02 16-23.26 16-32.02-6.4-16.01-16-16.01z"/></svg>