<svg xmlns="http://www.w3.org/2000/svg" viewBox="0 0 640 512"><!--! Font Awesome Pro 6.1.1 by @fontawesome - https://fontawesome.com License - https://fontawesome.com/license (Commercial License) Copyright 2022 Fonticons, Inc.--><path d="M344 159c-6.609-11.47-21.34-15.41-32.78-8.781L294.1 160.1l.682-2.545c2.859-10.69-3.47-21.66-14.14-24.5C270 130.2 259.1 136.5 256.2 147.2l-11 41.2-45.2 26v-58.1l30.14-30.13c7.812-7.812 7.812-20.5 0-28.31s-20.47-7.812-28.28 0L200 99.71V88c0-13.25-10.7-24-24-24s-24 10.75-24 24v11.71l-1.9-1.87c-7.812-7.812-20.47-7.812-28.28 0s-7.812 20.5 0 28.31L152 156.3v58.15l-50.4-29.05-10.99-41.2c-2.86-10.7-13.78-17-24.48-14.2-10.67 2.844-17 13.81-14.14 24.5l.685 2.559L42.5 151.2c-11.44-6.6-26.17-2.7-32.78 8.8-6.625 11.5-2.704 26.2 8.78 32.8l10.18 5.875-2.57.625c-10.66 2.844-16.98 13.81-14.12 24.5 2.391 8.938 10.47 14.81 19.3 14.81 1.719 0 3.469-.219 5.203-.688l41.15-11.04L128 255.1l-48.63 29L38.22 273c-10.56-2.8-21.64 3.5-24.5 14.2-2.859 10.69 3.469 21.66 14.12 24.5l2.566.688L20.23 318.2c-11.48 6.625-15.41 21.31-8.781 32.78 4.438 7.688 12.52 12 20.8 12 4.078 0 8.203-1.031 11.98-3.219l10.17-5.871-.685 2.559c-2.86 10.69 3.469 21.66 14.14 24.5 1.733.469 3.468.688 5.187.688 8.829 0 16.91-5.875 19.3-14.81l11.04-41.21L152 297.6v50.15l-30.14 30.13c-7.812 7.812-7.812 20.5 0 28.31s20.47 7.812 28.28 0l1.86-1.89V424c0 13.3 10.8 24 24 24s24-10.75 24-24v-19.71l1.859 1.861C205.8 410.1 210.9 412 216 412s10.23-1.938 14.14-5.844c7.812-7.812 7.812-20.5 0-28.31L200 347.7v-50.1l43.43 25.07 11.04 41.21c2.391 8.938 10.47 14.81 19.3 14.81a19.81 19.81 0 0 0 5.188-.688c10.67-2.844 17-13.81 14.14-24.5l-.684-2.555 17.09 9.867C313.3 362.1 317.4 364 321.5 364c8.281 0 16.36-4.312 20.8-12 6.625-11.47 2.704-26.16-8.78-32.78l-17.12-9.92 2.572-.69c10.66-2.844 16.98-13.81 14.12-24.5-2.859-10.66-13.78-17-24.5-14.12L267.4 281.1l-44.3-26 45.17-26.08 41.17 11.05c1.734.469 3.484.688 5.203.688 8.828 0 16.91-5.876 19.3-14.81 2.859-10.69-3.469-21.66-14.12-24.5l-1.723.252 17.1-9.871C346.7 185.2 350.6 170.5 344 159zm64 81h144c48.5 0 88-39.5 88-88s-39.5-88-88-88h-16c-13.2 0-24 10.75-24 24s10.75 24 24 24h16c22.06 0 40 17.94 40 40s-17.9 40-40 40H408c-13.2 0-24 10.8-24 24s10.8 24 24 24zm144 32H408c-13.2 0-24 10.8-24 24s10.8 24 24 24h144c22.06 0 40 17.94 40 40s-17.94 40-40 40h-16c-13.25 0-24 10.75-24 24s10.8 24 24 24h16c48.53 0 88-39.47 88-88s-39.5-88-88-88z"/></svg>