<svg xmlns="http://www.w3.org/2000/svg" viewBox="0 0 448 512"><!--! Font Awesome Pro 6.1.1 by @fontawesome - https://fontawesome.com License - https://fontawesome.com/license (Commercial License) Copyright 2022 Fonticons, Inc.--><path d="M152 288c-13.2 0-24.9 10.7-24.9 23.9 0 13.3 11.5 24.1 24.9 24.1 13.09 0 23.93-10.84 23.93-24.07C175.1 298.8 165.3 288 152 288zm143.9 0c-13.09 0-23.93 10.7-23.93 23.93S282.67 336 295.9 336c13.37 0 24.21-10.84 24.07-24.07C319.1 298.8 309.3 288 295.9 288zM224 352c-17.75 0-31.1 14.25-31.1 32s32 64 32 64 32-46.25 32-64-15.1-32-32.9-32zm224-144c0-8.836-7.164-16-16-16h-64V48c0-26.4-21.6-48-48-48H128c-26.4 0-48 21.6-48 48v144H16c-8.836 0-16 7.164-16 16 0 26.51 21.49 48 48 48h10.38C41.87 284.3 32 316.9 32 352c0 57.28 25.11 108.7 64.89 143.8C108.7 506.3 123.1 512 139.8 512h168.5c15.54 0 30.68-5.508 42.35-15.76 49.72-43.66 76.71-112.6 60.8-186.7C407.3 290.4 399.8 272.5 390.1 256h9.934C426.5 256 448 234.5 448 208zm-320-64h192v48H128v-48zm190.1 316.2c-1.9 2.4-5.8 3.8-9.8 3.8H139.8c-4.119 0-8.049-1.471-11.07-4.145C97.74 432.5 80 393.2 80 352c0-25.12 6.672-49.27 19.83-71.79L113.1 256h220.4l14.28 24.31c7.74 13.18 13.07 26.39 15.83 39.26C375.9 372.6 358.8 425.1 318.1 460.2z"/></svg>