<svg xmlns="http://www.w3.org/2000/svg" viewBox="0 0 576 512"><!--! Font Awesome Pro 6.1.1 by @fontawesome - https://fontawesome.com License - https://fontawesome.com/license (Commercial License) Copyright 2022 Fonticons, Inc.--><path d="M480 0h-96c-35.35 0-64 28.65-64 64v196.3l-51.75 50c-43.72 34.88-57.06 97.34-31.03 145.3C256.4 490.9 290.8 512 329.4 512c23.33 0 45.44-7.844 63.94-22.69l97.98-78.25C524.3 384.8 544 343.1 544 299.5V64c0-35.35-28.7-64-64-64zm16 299.5c0 29.1-12.93 56.77-34.63 74.05l-98.07 78.32c-10 8.03-21.4 12.13-33.9 12.13-20.99 0-39.21-11.4-50.01-31.31-14.84-27.34-6.594-64.61 18.78-84.85l1.781-1.42L368 280.7V144h128v155.5zM496 96H368V64c0-8.822 7.178-16 16-16h96c8.822 0 16 7.178 16 16v32zM195.6 432.5l-24.29 19.4c-10.01 8-21.41 12.1-33.91 12.1-20.99 0-39.21-11.4-50.01-31.31-14.84-27.34-6.594-64.61 18.78-84.85l1.781-1.42 68.04-65.74V144H288V96H176.1l-.1-32c0-8.822 7.178-16 16-16h96c.55 0 1.018.26 1.553.315 2.766-16.67 9.881-31.7 20.07-44.3C302.9 1.56 295.6 0 288 0h-96c-35.35 0-63.97 28.65-63.97 64v196.3l-51.75 50c-43.72 34.88-57.06 97.34-31.03 145.3C64.39 490.9 98.96 512 137.5 512c23.33 0 45.34-7.844 63.84-22.69l12.85-10.26c-1.719-2.734-3.586-5.322-5.15-8.205C202.5 458.7 198.4 445.7 195.6 432.5z"/></svg>