<svg xmlns="http://www.w3.org/2000/svg" viewBox="0 0 384 512"><!--! Font Awesome Pro 6.1.1 by @fontawesome - https://fontawesome.com License - https://fontawesome.com/license (Commercial License) Copyright 2022 Fonticons, Inc.--><path d="M320 128v8c0 6.8-.8 13.3-2.4 19.6 38.3 11.1 66.4 46.5 66.4 88.4 0 34.9-19.4 65.2-48 80.8V352c0 17.7-14.3 32-32 32h-1.8l-11 99.5c-1.8 16.2-15.5 28.5-31.8 28.5H124.6c-16.3 0-29.96-12.3-31.76-28.5L81.78 384H80c-17.67 0-32-14.3-32-32v-27.2C19.4 309.2 0 278.9 0 244c0-41.7 27.68-76.8 65.65-88.2C64.57 150.7 64 145.4 64 140c0-41.97 34.03-76 76-76h37.3c2.8 0 6.7-3.9 6.7-6.7 0-1.33-.4-2.62-1.1-3.72L172 37.31c-4.9-7.36-5.3-16.83-1.2-24.63A24.028 24.028 0 0 1 192 0c70.7 0 128 57.31 128 128zm-28 160c24.3 0 44-19.7 44-44s-19.7-44-44-44h-76c-13.3 0-24.9-10.7-24.9-24s11.6-24 24.9-24h51.7c2.8-4.7 4.3-10.2 4.3-16v-8c0-29.62-16.1-55.48-40.9-69.31.1 29.57-24.1 53.31-53.8 53.31h-38.2c-14.6 0-28 12.5-28 28 0 4.4 1 8.5 3.7 12.2 11.9 1.3 20.3 11.5 20.3 23.8 0 13.3-9.8 24-24 24h-20c-23.4 0-44 19.7-44 44s20.6 44 44 44H292z"/></svg>