<svg xmlns="http://www.w3.org/2000/svg" viewBox="0 0 640 512"><!--! Font Awesome Pro 6.1.1 by @fontawesome - https://fontawesome.com License - https://fontawesome.com/license (Commercial License) Copyright 2022 Fonticons, Inc.--><path d="M575.4 25.72C572.4 10.78 559.2 0 543.1 0H96C80.75 0 67.61 10.78 64.62 25.72l-63.1 320c-1.891 9.406.547 19.16 6.625 26.56S22.41 384 32 384h263.1v80h-79.5c-13.25 0-24 10.74-24 24 0 13.25 10.75 24 24 24H424c13.25 0 24-10.75 24-24 0-13.26-10.75-24-24-24h-80.04v-80h264c9.594 0 18.67-4.312 24.75-11.72s8.516-17.16 6.625-26.56l-63.935-320zM553.3 160H437.8L427.13 48h103.7l22.47 112zm-163.6 0H250.4l10.67-112h117.9l10.73 112zM109.1 48h103.7l-10.6 112H86.72L109.1 48zM77.12 208h120.5l-12.19 128H51.52l25.6-128zM233.6 336l12.19-128h148.4l12.19 128H233.6zm221 0-12.19-128h120.5l25.6 128H454.6z"/></svg>