<svg xmlns="http://www.w3.org/2000/svg" viewBox="0 0 512 512"><!--! Font Awesome Pro 6.1.1 by @fontawesome - https://fontawesome.com License - https://fontawesome.com/license (Commercial License) Copyright 2022 Fonticons, Inc.--><path d="M0 256C0 114.6 114.6 0 256 0s256 114.6 256 256-114.6 256-256 256S0 397.4 0 256zM256 48c-16.5 0-32.5 1.91-47.8 5.52C245.4 66.75 272 102.3 272 144c0 53-43 96-96 96-52.7 0-95.41-42.4-95.99-94.9C59.73 177.2 48 215.2 48 256c0 12.8 1.15 25.2 3.35 37.4.48.1.97.3 1.46.5C87.74 306.5 147.6 328 256 328c108.4 0 168.3-21.5 203.2-34.1.5-.2 1-.4 1.5-.5 2.2-12.2 3.3-24.6 3.3-37.4 0-114.9-93.1-208-208-208zm185.3 302.7C402.1 362.7 343 376 256 376c-87.1 0-146.1-13.3-185.26-25.3C105.2 417.9 175.2 464 256 464s150.8-46.1 185.3-113.3zM176 192c26.5 0 48-21.5 48-48s-21.5-48-48-48-48 21.5-48 48 21.5 48 48 48z"/></svg>