<svg xmlns="http://www.w3.org/2000/svg" viewBox="0 0 512 512"><!--! Font Awesome Pro 6.1.1 by @fontawesome - https://fontawesome.com License - https://fontawesome.com/license (Commercial License) Copyright 2022 Fonticons, Inc.--><path d="M272 144c0 53-43 96-96.9 96-51.8 0-94.51-42.4-95.09-94.9C59.73 177.2 47.1 215.2 47.1 256c0 12.8 2.05 25.2 4.24 37.4l1.47.5C87.73 306.5 147.6 328 255.1 328c109.3 0 169.2-21.5 204.1-34.1l-.1-.3c3.6-12 4.9-24.2 4.9-36.5V256c0-13.3 10.7-24 24-24s24 10.7 24 24v1.1c0 20.1-2.8 40.1-8.3 59.3l-.6 2.2c-2.2 7.6-8 13.7-15.5 16.2-3.7 1.2-8 2.7-12.7 4.4-35.7 12.9-102 36.8-219.8 36.8-86.2 0-145.2-13.3-184.36-25.3C105.2 417.9 175.2 464 255.1 464c67 0 125-30.8 164-78.9 8.2-10.4 23.3-13 33.7-3.9 10.4 8.2 11.3 23.3 3.9 33.7C409.9 474 337.4 512 256 512 114.6 512 0 397.4 0 256S114.6 0 256 0c89.2 0 167.7 45.65 213.5 114.7 4.9 7.4 5.4 16.9 1.2 24.7-4.2 7.7-12.3 12.6-21.2 12.6H368c-13.3 0-24-10.7-24-24s10.7-24 24-24h29.1C360.8 69.24 310.9 48 256 48c-16.5 0-32.5 1.91-47.8 5.52C245.4 66.75 272 102.3 272 144zm-96.9-48c-25.6 0-48 21.5-48 48s22.4 48 48 48c27.4 0 48-21.5 48-48s-20.6-48-48-48zM424 184c13.3 0 24 10.7 24 24s-10.7 24-24 24h-48c-13.3 0-24-10.7-24-24s10.7-24 24-24h48z"/></svg>