<svg xmlns="http://www.w3.org/2000/svg" viewBox="0 0 512 512"><!--! Font Awesome Pro 6.1.1 by @fontawesome - https://fontawesome.com License - https://fontawesome.com/license (Commercial License) Copyright 2022 Fonticons, Inc.--><path d="M233.5 9.74c12-12.987 32.9-12.987 45.9 0L472.2 209.5c55.9 58 52.9 153.9-9 207.8-50.7 42.6-122.8 39.2-173 .2-3.5-2.7-6.9-5.6-10.2-8.7V464h48c13.3 0 24 10.7 24 24s-10.7 24-24 24H184c-13.3 0-24-10.7-24-24s10.7-24 24-24h48v-55.3c-3.1 2.9-6.4 5.7-9.8 8.4-50.4 39.3-123.43 42.9-172.5.2-62.93-53.9-65.92-149.8-9.99-207.8L233.5 9.74zM437.6 242.9 256.4 55.03 74.24 242.9h-.03c-37 38.4-34.9 102.3 6.73 138l.27.2c31.99 27 85.99 25.1 119.89-11l20.6-19.8c9.2-9.7 22-15.1 35.4-14.9 13.3.1 26 5.9 34.9 15.8l18.3 20.2c34.3 34.4 87.3 38 121.7 9.4 40.6-35.7 42.6-99.6 5.6-137.9z"/></svg>