<svg xmlns="http://www.w3.org/2000/svg" viewBox="0 0 640 512"><!--! Font Awesome Pro 6.1.1 by @fontawesome - https://fontawesome.com License - https://fontawesome.com/license (Commercial License) Copyright 2022 Fonticons, Inc.--><path d="M624.5 347.7c-32.63-12.38-57.38 4.366-75.38 16.49-17.12 11.5-23.13 14.37-31.38 11.37-8.125-3.125-10.75-9.358-15.88-29.36-3.375-13.12-7.375-29.47-18-42.72 2.25-3 4.5-5.875 6.375-8.625C500.5 304.5 513.8 312 532 312c33.1 0 50.88-25.75 61.1-42.88C604.6 253 609 248 616 248c13.3 0 24-10.8 24-24s-10.75-24-24-24c-34 0-50.87 25.75-62 42.88C543.4 259 539 264 532 264c-17.88 0-39.63-66.75-103.9-106.5l15-30c1.7.1 3.3.4 4.9.4 35.38 0 64-28.54 64-63.92S483.4 0 448 0s-64 28.6-64 63.97c0 16.25 6.25 30.78 16.12 42.15l-15.88 31.63C365.2 131.8 344.1 128 320 128s-45.2 3.8-64.2 9.8l-15.9-31.7c9.9-11.35 16.1-25.88 16.1-42.13C256 28.6 227.4 0 192 0s-64 28.6-64 63.97 28.62 63.92 64 63.92c1.625 0 3.25-.267 4.875-.392L212 157.5C148.4 196.9 125.5 264 108 264c-6.875 0-11.44-5-21.94-21.12C74.81 225.8 57.1 200 24 200c-13.25 0-24 10.8-24 24s10.75 24 24 24c7 0 11.38 5 21.1 21.12C57.13 286.2 73.1 312 108 312c18.25 0 31.5-7.5 41.75-17.12 1.85 2.72 4.15 5.62 6.35 8.62-10.5 13.25-14.62 29.59-18 42.72-5 20-7.75 26.23-15.88 29.36-8.125 3-14.37.131-31.37-11.37-18-12.12-42.75-28.87-75.38-16.49-12.38 4.75-18.62 18.61-13.88 30.98 4.785 12.4 18.66 18.6 30.91 13.9 8.25-3 14.38-.2 31.5 11.3 13.5 9.125 30.75 20.86 52.38 20.86 7.125 0 14.87-1.248 23-4.373 32.62-12.5 40-41.34 45.25-62.46 2.25-8.75 4-14.49 6-18.86 16.62 13.62 36.88 25.86 61.63 34.23C242.3 410.3 220.1 464 192 464c-13.25 0-24 10.74-24 23.99S178.8 512 192 512c66.75 0 97-88.55 107.4-129.1 6.7.7 13.5 1.1 20.6 1.1s13.88-.47 20.62-1.096C351 423.4 381.2 512 448 512c13.25 0 24-10.74 24-23.99S461.2 464 448 464c-28 0-50.25-53.62-60.25-90.74 24.75-8.25 45-20.56 61.63-34.19 2 4.375 3.75 10.11 6 18.86 5.25 21.12 12.62 49.96 45.25 62.46 8.125 3.125 15.88 4.373 23 4.373 21.62 0 38.96-11.74 52.46-20.86 17.12-11.5 23.17-14.49 31.42-11.37 12.38 4.75 26.12-1.492 30.88-13.87C643.1 366.3 636.9 352.5 624.5 347.7zM448 47.98c8.75 0 16 7.118 16 15.99s-7.25 16-16 16c-8.875 0-16-7.125-16-16s7.1-15.99 16-15.99zM192 79.97c-8.75 0-16-7.125-16-16s7.2-15.99 16-15.99c8.875 0 16 7.118 16 15.99s-7.1 16-16 16zM320 336c-80.62 0-122.1-52.13-138.5-80 15.6-28 58-80 138.5-80 80.63 0 122.1 52.12 138.5 80-17.4 28-58 80-138.5 80z"/></svg>