<svg xmlns="http://www.w3.org/2000/svg" viewBox="0 0 640 512"><!--! Font Awesome Pro 6.1.1 by @fontawesome - https://fontawesome.com License - https://fontawesome.com/license (Commercial License) Copyright 2022 Fonticons, Inc.--><path d="M456 160c22.09 0 40-17.91 40-40s-17.9-40-40-40-40 17.91-40 40 17.9 40 40 40zM576 0H336c-35.35 0-64 28.65-64 64v384c0 35.35 28.65 64 64 64h240c35.35 0 64-28.65 64-64V64c0-35.35-28.7-64-64-64zm16 448c0 8.822-7.178 16-16 16H336c-8.822 0-16-7.178-16-16V64c0-8.822 7.178-16 16-16h240c8.822 0 16 7.178 16 16v384zM456 224c-57.4 0-104 46.6-104 104s46.56 104 104 104 104-46.56 104-104-46.6-104-104-104zm0 160c-30.88 0-56-25.12-56-56s25.12-56 56-56 56 25.1 56 56-25.1 56-56 56zM184 80c-22.1 0-40 17.91-40 40s17.9 40 40 40 40-17.9 40-40-17.9-40-40-40zm0 192c15.7 0 29.8 6.5 40 16.9v-56.6c-12.3-5.2-25.8-8.3-40-8.3-57.4 0-104 46.6-104 104s46.56 104 104 104c14.24 0 27.67-3.115 40-8.346v-56.58C213.8 377.5 199.7 384 184 384c-30.9 0-56-25.1-56-56s25.1-56 56-56zM264.1 0H64C28.65 0 0 28.65 0 64v384c0 35.35 28.65 64 64 64h200.1c-11.94-13.24-20.25-29.67-23.35-48H64c-8.822 0-16-7.178-16-16V64c0-8.822 7.178-16 16-16h177.6c3.1-18.33 11.4-34.76 22.5-48z"/></svg>