<svg xmlns="http://www.w3.org/2000/svg" viewBox="0 0 384 512"><!--! Font Awesome Pro 6.1.1 by @fontawesome - https://fontawesome.com License - https://fontawesome.com/license (Commercial License) Copyright 2022 Fonticons, Inc.--><path d="M320 0H64C28.65 0 0 28.65 0 64v384c0 35.35 28.65 64 64 64h256c35.35 0 64-28.65 64-64V64c0-35.35-28.7-64-64-64zm16 448c0 8.822-7.178 16-16 16H64c-8.822 0-16-7.178-16-16V64c0-8.822 7.178-16 16-16h256c8.822 0 16 7.178 16 16v384zM192 160c22.09 0 40-17.91 40-40s-17.9-40-40-40-40 17.91-40 40 17.9 40 40 40zm0 64c-57.44 0-104 46.56-104 104s46.6 104 104 104 104-46.56 104-104-46.6-104-104-104zm0 160c-30.88 0-56-25.12-56-56 0-30.9 25.1-56 56-56s56 25.12 56 56c0 30.9-25.1 56-56 56z"/></svg>