<svg xmlns="http://www.w3.org/2000/svg" viewBox="0 0 576 512"><!--! Font Awesome Pro 6.1.1 by @fontawesome - https://fontawesome.com License - https://fontawesome.com/license (Commercial License) Copyright 2022 Fonticons, Inc.--><path d="M569.3 279.4c-9.186-9.533-24.37-9.877-33.94-.688l-183 175.7-87.37-87.38c-9.375-9.375-24.56-9.375-33.94 0s-9.375 24.56 0 33.94l103.1 104a23.9 23.9 0 0 0 16.97 7.04c6 0 11.97-2.226 16.62-6.695l199.1-192C578.2 304.1 578.5 288.9 569.3 279.4zM280 256h92c41.9 0 76-34.1 76-76 0-24.6-11.94-46.28-30.12-60.18C426.7 107.4 432 92.35 432 76c0-41.91-34.1-76-76-76h-76c-13.2 0-24 10.75-24 24v208c0 13.3 10.8 24 24 24zm24-208h52c15.4 0 28 12.56 28 28s-12.6 28-28 28h-52V48zm0 104h68c15.44 0 28 12.56 28 28s-12.6 28-28 28h-68v-56zm-81.9 70.7-87.99-208c-7.5-17.75-36.68-17.75-44.18 0l-87.99 208c-5.211 12.1.505 26.2 12.72 31.4 12.13 5.3 26.28-.5 31.44-12.8L56.82 216h110.4l10.72 25.34C181.8 250.5 190.7 256 199.1 256c4 0 7.2-.6 10.2-1.9 12.3-5.2 18-19.3 12.8-31.4zM77.13 168 112 85.59 146.9 168H77.13z"/></svg>