<svg xmlns="http://www.w3.org/2000/svg" viewBox="0 0 576 512"><!--! Font Awesome Pro 6.1.1 by @fontawesome - https://fontawesome.com License - https://fontawesome.com/license (Commercial License) Copyright 2022 Fonticons, Inc.--><path d="M569.3 239.5c-58.99-62.25-102.6-138.1-126.2-221.1-3.6-13.392-16.2-20.892-29-17.642-82.49 20.75-169.7 20.75-252.2 0-12.9-3.125-25.4 4.25-29 16.752-23.62 82.1-67.24 159.7-126.2 221.1-8.874 9.25-8.874 23.75 0 32.1 58.99 62.25 102.6 138.1 126.2 221.1 3.625 12.5 16.12 19.87 28.1 16.75 82.49-20.75 169.7-20.75 252.2 0 2.9 3.24 4.9 3.44 5.9 3.44 10.5 0 20.12-6.875 23.12-17.5 23.62-82.1 67.24-159.7 126.2-221.1 9.78-10.1 9.78-24.6.88-33.9zm-68.7-7.5h-45.99c-27.75-31.87-48.87-69.5-61.87-110.2l22.5-39.12C436.2 136.4 464.1 186.8 500.6 232zm-254 0-64.04-.04c12.25-17.75 22.87-36.5 31.75-56.25L246.6 232zm7.5-83.2c22.5 2.25 45.25 2.25 67.74 0l-34.74 59-33-59zM246.6 280l-32.17 56.2c-8.999-19.62-19.62-38.5-31.87-56.25l64.04.05zm40.5 24.3 33.87 58.99c-10.37-1.19-21.57-1.79-32.97-1.79s-22.62.625-33.87 1.75l32.97-58.95zm42.3-24.3 64.04-.046c-12.25 17.75-22.87 36.62-31.87 56.25L329.4 280zm0-48 32.33-56.28c8.874 19.75 19.5 38.5 31.75 56.25l-64.08.03zm45.2-175.12-21.9 38a290.327 290.327 0 0 1-129.5 0l-21.8-38a566.36 566.36 0 0 0 173.2 0zM160.8 82.63l22.5 39.12c-12.1 40.75-34.12 78.37-61.87 110.2H75.4c35.6-45.15 64.4-95.55 85.4-149.32zM75.4 280h45.1c27.75 31.87 48.87 69.5 61.87 110.2l-21.57 39.3c-21-53.9-49.8-104.2-85.4-149.5zm126 175.1 21.87-37.1c42.62-9.75 86.87-9.75 129.5 0l21.87 37.1c-28.74-4.3-58.54-7.3-86.64-7.3s-57.9 3-86.6 7.3zm213.8-25.6-22.5-39.25c12.1-40.75 34.12-78.37 61.87-110.2h45.99C464.1 325.3 436.2 375.6 415.2 429.5z"/></svg>