<svg xmlns="http://www.w3.org/2000/svg" viewBox="0 0 576 512"><!--! Font Awesome Pro 6.1.1 by @fontawesome - https://fontawesome.com License - https://fontawesome.com/license (Commercial License) Copyright 2022 Fonticons, Inc.--><path d="m566.7 407.1-31.1-94.81a23.947 23.947 0 0 0-13.84-14.59l-104.3-41.71 104.3-41.72a23.968 23.968 0 0 0 13.91-14.78l31.1-97.31c4.125-12.59-2.719-26.15-15.31-30.31-12.72-4.123-26.16 2.75-30.31 15.31l-28.5 86.68-70.14 28.06 44.65-59.53a23.988 23.988 0 0 0 4.188-19.81l-24-103.1c-2.969-12.91-15.84-21.06-28.78-17.97-12.91 2.969-20.97 15.84-17.97 28.78l21.47 93.12-38.09 50.8V160.1c0-29.98-13.64-59.27-36.49-78.34a47.997 47.997 0 0 0-59.73-1.419A47.216 47.216 0 0 0 268.3 71.4a47.966 47.966 0 0 0-41.799 11.316c-21.6 19.42-34.5 48.34-34.5 77.34v13.3L153.9 122.6l21.47-93.12c3-12.94-5.062-25.81-17.97-28.78-12.75-3.062-25.81 5.029-28.78 17.97l-24 103.1c-1.62 7.73-.02 15.03 4.18 20.63l44.65 59.53-70.13-28.03-28.5-86.68C50.67 74.65 37.26 67.78 24.51 71.9 11.92 76.06 5.076 89.62 9.201 102.2l31.1 97.31a23.94 23.94 0 0 0 13.91 14.78l104.3 41.72L55.11 297.7c-6.54 2.6-11.6 8-13.85 14.6l-31.1 94.81c-4.219 12.56 2.531 26.19 15.06 30.44a24.559 24.559 0 0 0 7.686 1.25c10.03 0 19.38-6.312 22.75-16.31l28.44-84.34 70.28-28.11-44.66 59.54a23.996 23.996 0 0 0-4.188 19.81l24 103.1C131.2 504.5 141.1 512 151.1 512c1.781 0 3.625-.188 5.438-.625 12.91-2.969 20.97-15.84 17.97-28.78l-21.47-93.12 10.17-13.56C182.3 427.1 230.7 464 288 464s105.7-36.94 123.9-88.1l10.17 13.56-21.47 93.12c-3 12.94 5.062 25.81 17.97 28.78 1.83.44 3.63.64 5.43.64 10.9 0 20.78-7.5 23.34-18.59l24-103.1a23.981 23.981 0 0 0-4.188-19.81l-44.66-59.54 70.28 28.11 28.44 84.34c3.375 9.998 12.72 16.31 22.75 16.31a24.58 24.58 0 0 0 7.688-1.25c12.55-5.17 18.45-18.77 15.05-31.37zM288 416c-46.31 0-83.1-37.68-83.1-83.99 0-23.75 9.97-45.81 28.12-62.15l2.625-2.375a16.015 16.015 0 0 0 5.25-11.87v-95.58c0-15.75 7.438-31.62 18.59-41.65l14.87 32.34C276.1 156.4 281.8 160 288 160c6.281-.063 12.09-3.781 14.62-9.531l14.12-31.97c11.53 9.625 19.25 25.43 19.25 41.5v95.58c0 4.531 1.906 8.843 5.25 11.87l2.656 2.375c18.12 16.34 28.09 38.4 28.09 62.15C371.1 378.3 334.3 416 288 416zm32.1-128h-64.2c-6.7 0-10.4 7.5-6.4 12.8l25.6 35.2-26.46 35.25c-3.14 5.25.56 12.75 7.26 12.75h64.2c6.65 0 10.41-7.5 6.395-12.75L300 336l26.46-35.25c4.04-5.25.34-12.75-6.36-12.75z"/></svg>