<svg xmlns="http://www.w3.org/2000/svg" viewBox="0 0 512 512"><!--! Font Awesome Pro 6.1.1 by @fontawesome - https://fontawesome.com License - https://fontawesome.com/license (Commercial License) Copyright 2022 Fonticons, Inc.--><path d="m87.81 451.9-9.16-47.1 67.05-13c8.5-1.7 17.2-2.5 25.9-2.5h8.4c32.3 0 63.4 11.4 88 32.3l45 38.2c3.2 2.7 7.2 4.1 11.4 4.1 10.1 0 18.1-8.5 17.5-18.6l-3.1-50.6c-2-33.1 13-65 39.8-84.5l82.5-60.2c1.8-1.3 2.9-3.5 2.9-5.8 0-3-1.9-5.7-4.7-6.7l-58.2-21.2c-39.1-14.3-68.8-46.7-79.5-86.9l-18.7-69.6c-1.8-6.93-8.1-11.74-15.3-11.74-4.9 0-9.5 2.25-12.5 6.1l-31.4 40.28c-27.6 34.66-71.1 55.06-116 52.16l-71.74-4.7c-1.83-.1-3.64.4-5.08 1.6-3.07 2.4-3.81 6.7-1.71 9.9l44.48 69.2c12.05 18.7 18.45 40.5 18.45 62.8 0 20.2-5.3 40.1-15.31 57.6l-8.98 108.9zm-32.7-132.7c5.88-10.3 8.98-21.9 8.98-33.8 0-13.1-3.76-25.8-10.82-36.8L8.796 179.4c-15.534-24.2-10.063-56.2 12.614-73.8a55.402 55.402 0 0 1 37.66-11.59l71.73 4.65c29 1.84 56.3-10.75 75.1-33.73l31.4-40.27C249.4 9.133 267.9.057 287.6.057c28.9 0 54.2 19.413 61.7 47.323l18.6 68.72c6.7 26 25.3 46.2 49.7 55.1l58.2 21.2c21.7 7.9 36.2 28.6 36.2 51.8 0 17.6-8.4 34.2-22.6 44.6l-82.5 59.3c-13.6 10.8-21.2 26-20.2 43.7l3.1 50.6c2.3 37.7-27.6 69.5-65.4 69.5-15.6 0-30.6-5.5-43.3-15.5l-45-38.2c-15-13.5-35.2-20.9-56.1-20.9h-8.4c-6.5 0-11.2.5-16.8 1.6l-66.99 13c-23.99 4.7-48.28-6.4-60.4-27.6-10.02-17.6-10.02-39.1 0-56.6l27.7-48.5zM96.79 343l-27.71 48.5c-1.58 2.8-1.58 6.2 0 8.9 1.92 3.4 5.77 5.2 9.57 4.4l9.16 47.1L96.79 343zm-8.98 108.9L96.79 343l-8.98 108.9zm-59.28-28.3 40.55-23.2-40.55 23.2zm-.83-55.8 41.38 23.7z"/></svg>