<svg xmlns="http://www.w3.org/2000/svg" viewBox="0 0 512 512"><!--! Font Awesome Pro 6.1.1 by @fontawesome - https://fontawesome.com License - https://fontawesome.com/license (Commercial License) Copyright 2022 Fonticons, Inc.--><path d="M17.95 296.7c2.04-15.8 4.95-31.6 8.85-47.4 8.23-33.2 20.89-65.8 39.24-95.7 6.67-10.9 14.06-21.4 22.24-31.4 9.98-13.1 21.12-23.72 33.52-34.35 24.1-20.7 53-38.04 87.1-50.7 12.7-4.73 26.2-8.79 40.3-12.12 15-3.54 30.8-6.27 47.4-8.12 0 0 0-.01 0 0 46.4-5.18 99.1-3.58 158.6 5.9 2.1.33 4.2.67 6.3 1.02 4.9.81 9.4 2.73 13.3 5.48.8.58 1.5 1.19 2.3 1.83 5.2 4.51 9 10.7 10.5 17.78 17.5 84.78 18.6 211.28-42.5 309.48-29.8 50-76 92-142 116.5-65.5 24.3-148.7 30.6-252.59 13.3-5.47-.9-10.47-4.1-14.63-6.5-5.75-4.6-9.89-11.1-11.44-18.6-.53-2.6-1.05-5.3-1.56-7.9-8.56-45.4-12.31-101.5-4.93-158.5zM446.1 98.98l-68.9 69.82c20.5 16.4 44 29.1 69.6 36.3 4.5-35.9 3.9-72.7-.7-106.12zM438 253.5c-35.3-10.3-67.5-27.7-94.9-50.6l-53.2 52.2 99.7 100.5c5.6-7.1 10.7-15.5 15.4-22.3 15.1-24.6 25.8-51.8 33-79.8zm-81.9 136.6-101-100.2-52.2 53.2c23.3 27 40.9 60.7 50.2 96.6 12.3-2.8 23.1-6.1 33.3-9.9 27.3-10.1 50.4-23.6 69.7-39.7zm-149.8 57.7c-8.1-26-20.9-49.9-37.5-70.6l-69.36 69.3c39.86 4.3 75.36 4.5 106.86 1.3zM65.05 413l69.75-69.8c-20.5-16.4-44.02-29.1-69.63-38.1-4.49 37.7-3.91 74.5-.12 107.9zM74 258.5c35.3 10.3 67.5 27.7 94.9 50.6l53.2-54-99.7-98.7c-5.6 7.1-10.7 14.6-16.3 22.3-14.24 24.6-24.94 51.8-33 79.8h.9zm81.9-136.6 99.2 100.2 54-53.2c-23.3-27.9-40.9-60.7-51.1-96.62-11.4 2.79-22.2 6.1-32.4 9.87-27.3 10.12-50.3 23.65-69.7 39.75zm149.8-57.69c8.1 25.98 20.9 49.89 37.5 70.59l69.4-69.31c-39.9-4.32-75.4-5.39-106.9-1.28z"/></svg>