<svg xmlns="http://www.w3.org/2000/svg" viewBox="0 0 512 512"><!--! Font Awesome Pro 6.1.1 by @fontawesome - https://fontawesome.com License - https://fontawesome.com/license (Commercial License) Copyright 2022 Fonticons, Inc.--><path d="M192 0c17.7 0 32 14.33 32 32v96H96V32c0-17.67 14.3-32 32-32h64zM96 336c0-35.3 28.7-64 64-64s64 28.7 64 64-28.7 64-64 64-64-28.7-64-64zM0 256c0-53.9 42.98-96 96-96h128c53 0 96 42.1 96 96v192c0 35.3-28.7 64-64 64H64c-35.35 0-64-28.7-64-64V256zm48 0v192c0 8.8 7.16 16 16 16h192c8.8 0 16-7.2 16-16V256c0-26.5-21.5-48-48-48H96c-26.51 0-48 21.5-48 48zM352 64l-12.4 29.78C338.1 95 337.4 96 336 96s-3-1-3.6-2.22L320 64l-29.8-12.42c-2.1-.61-2.2-2.22-2.2-3.58 0-1.38.1-2.97 2.2-3.58L320 32l12.4-29.781C333 1 334.6 0 336 0s2.1 1 3.6 2.219L352 32l29.8 12.42c1.2.61 2.2 2.2 2.2 3.58 0 1.36-1 2.97-2.2 3.58L352 64zm66.2-12.42c-2.1-.61-2.2-2.22-2.2-3.58 0-1.38.1-2.97 2.2-3.58L448 32l12.4-29.781C461 1 462.6 0 464 0s2.1 1 3.6 2.219L480 32l29.8 12.42c1.2.61 2.2 2.2 2.2 3.58 0 1.36-1 2.97-2.2 3.58L480 64l-12.4 29.78C466.1 95 465.4 96 464 96s-3-1-3.6-2.22L448 64l-29.8-12.42zm91.6 184.82c1.2.6 2.2 2.2 2.2 3.6s-1 2.1-2.2 3.6L480 256l-12.4 29.8c-1.5 1.2-2.2 2.2-3.6 2.2s-3-1-3.6-2.2L448 256l-29.8-12.4c-2.1-1.5-2.2-2.2-2.2-3.6s.1-3 2.2-3.6L448 224l12.4-29.8c.6-1.2 2.2-2.2 3.6-2.2s2.1 1 3.6 2.2L480 224l29.8 12.4zM416 160l-12.4 29.8c-1.5 1.2-2.2 2.2-3.6 2.2s-3-1-3.6-2.2L384 160l-29.8-12.4c-2.1-1.5-2.2-2.2-2.2-3.6s.1-3 2.2-3.6L384 128l12.4-29.78C397 97 398.6 96 400 96s2.1 1 3.6 2.22L416 128l29.8 12.4c1.2.6 2.2 2.2 2.2 3.6s-1 2.1-2.2 3.6L416 160z"/></svg>