<svg xmlns="http://www.w3.org/2000/svg" viewBox="0 0 512 512"><!--! Font Awesome Pro 6.1.1 by @fontawesome - https://fontawesome.com License - https://fontawesome.com/license (Commercial License) Copyright 2022 Fonticons, Inc.--><path d="M192 0c17.7 0 32 14.33 32 32v96H96V32c0-17.67 14.3-32 32-32h64zm32 336c0 35.3-28.7 64-64 64s-64-28.7-64-64 28.7-64 64-64 64 28.7 64 64zm0-176c53 0 96 42.1 96 96v184c0 39.8-32.2 72-72 72H72c-39.76 0-72-32.2-72-72V256c0-53.9 42.98-96 96-96h128zm0 48H96c-26.51 0-48 21.5-48 48v184c0 13.3 10.75 24 24 24h176c13.3 0 24-10.7 24-24V256c0-26.5-21.5-48-48-48zm96-144c0 17.67-14.3 32-32 32s-32-14.33-32-32 14.3-32 32-32 32 14.33 32 32zm32 0c0-17.67 14.3-32 32-32s32 14.33 32 32-14.3 32-32 32-32-14.33-32-32zm160 0c0 17.67-14.3 32-32 32s-32-14.33-32-32 14.3-32 32-32 32 14.33 32 32zm-64 96c0-17.7 14.3-32 32-32s32 14.3 32 32-14.3 32-32 32-32-14.3-32-32zm64 96c0 17.7-14.3 32-32 32s-32-14.3-32-32 14.3-32 32-32 32 14.3 32 32zm-160-96c0-17.7 14.3-32 32-32s32 14.3 32 32-14.3 32-32 32-32-14.3-32-32z"/></svg>