<svg xmlns="http://www.w3.org/2000/svg" viewBox="0 0 512 512"><!--! Font Awesome Pro 6.1.1 by @fontawesome - https://fontawesome.com License - https://fontawesome.com/license (Commercial License) Copyright 2022 Fonticons, Inc.--><path d="M24 104c-13.25 0-24 10.8-24 24s10.75 24 24 24 24-10.7 24-24-10.75-24-24-24zm0 104c-13.25 0-24 10.8-24 24s10.75 24 24 24 24-10.7 24-24-10.75-24-24-24zM88 96c13.3 0 24-10.75 24-24s-10.7-24-24-24-24 10.75-24 24 10.75 24 24 24zm272 56c13.3 0 24-10.7 24-24s-10.75-24-24-24-24 10.8-24 24 10.8 24 24 24zM24 0C10.75 0 0 10.75 0 24s10.75 24 24 24 24-10.75 24-24S37.25 0 24 0zm128 152c13.3 0 24-10.7 24-24s-10.7-24-24-24-24 10.8-24 24 10.8 24 24 24zM488 48c13.3 0 24-10.75 24-24S501.3 0 488 0s-24 10.75-24 24 10.8 24 24 24zm0 160c-13.25 0-24 10.75-24 24s10.8 24 24 24 24-10.7 24-24-10.7-24-24-24zm0-104c-13.25 0-24 10.75-24 24s10.75 24 24 24 24-10.7 24-24-10.7-24-24-24zm-64-56c-13.25 0-24 10.75-24 24s10.8 24 24 24 24-10.75 24-24-10.7-24-24-24zm0 112c-13.25 0-24 10.75-24 24s10.75 24 24 24 24-10.7 24-24-10.7-24-24-24zm-312 24c0-13.2-10.7-24-24-24s-24 10.8-24 24 10.75 24 24 24 24-10.7 24-24zm286.3 72H280V88c0-13.26-10.75-24-24-24s-24 10.74-24 24v168H113.8c-6.7 0-12.9 3.8-15.92 9.9-3 6-2.375 13.12 1.75 18.62l67.5 78.13L192 387.5V496c0 8.8 7.2 16 16 16h96c8.836 0 16-7.164 16-16V387.5l24.88-24.88 67.5-78.13c4.125-5.5 4.75-12.62 1.75-18.62-3.03-6.07-9.23-9.87-15.83-9.87zM272 367.6V464h-32v-96.38L179.9 304h152.3L272 367.6z"/></svg>