<svg xmlns="http://www.w3.org/2000/svg" viewBox="0 0 384 512"><!--! Font Awesome Pro 6.1.1 by @fontawesome - https://fontawesome.com License - https://fontawesome.com/license (Commercial License) Copyright 2022 Fonticons, Inc.--><path d="M88 384c-13.25 0-24 10.8-24 24 0 13.21 10.82 24 24 24s24-10.69 24-24c0-13.2-10.8-24-24-24zm-64 64c-13.25 0-24 10.8-24 24s10.82 24 24 24 24-10.79 24-24c0-13.2-10.75-24-24-24zm112 0c-13.25 0-24 10.75-24 24s10.82 24 24 24 24-10.8 24-24-10.8-24-24-24zM72 232c0 13.2 10.75 24 24 24h192c13.25 0 24-10.75 24-24s-10.8-24-24-24h-72V56c0-13.25-10.8-24-24-24s-24 10.75-24 24v152H96c-13.25 0-24 10.8-24 24zM19.52 119.6 128 140.3V91.39L48 76.13V0H0v96c0 11.5 8.193 21.4 19.52 23.6zM224 344c0 13.21 10.75 24 24 24s24-10.79 24-24c0-13.25-10.75-24-24-24s-24 10.8-24 24zm136 104c-13.25 0-24 10.78-24 24 0 13.21 10.75 24 24 24s24-10.8 24-24-10.8-24-24-24zM336 0v76.13l-80 15.26v48.86l108.5-20.67C375.8 117.4 384 107.5 384 96V0h-48zm-40 384c-13.25 0-24 10.78-24 24 0 13.31 10.75 24 24 24s24-10.7 24-24-10.8-24-24-24zm-160-64c-13.25 0-24 10.75-24 24s10.82 24 24 24 24-10.8 24-24-10.8-24-24-24zm112 128c-13.2 0-24 10.8-24 24 0 13.21 10.75 24 24 24s24-10.79 24-24c0-13.2-10.8-24-24-24zm-56-64c-13.25 0-24 10.75-24 24s10.8 24 24 24 24-10.69 24-24c0-13.2-10.8-24-24-24z"/></svg>