<svg xmlns="http://www.w3.org/2000/svg" viewBox="0 0 448 512"><!--! Font Awesome Pro 6.1.1 by @fontawesome - https://fontawesome.com License - https://fontawesome.com/license (Commercial License) Copyright 2022 Fonticons, Inc.--><path d="M384 32H64C28.65 32 0 60.65 0 96v320c0 35.35 28.65 64 64 64h320c35.35 0 64-28.65 64-64V96c0-35.35-28.7-64-64-64zm16 384c0 8.822-7.178 16-16 16H64c-8.822 0-16-7.178-16-16V96c0-8.822 7.178-16 16-16h320c8.822 0 16 7.178 16 16v320zm-112-80h-40V152c0-8.844-4.875-16.97-12.67-21.16a23.92 23.92 0 0 0-24.64 1.188l-52 34.66C147.7 174 144.7 188.9 152 199.1c7.328 11 22.23 13.97 33.28 6.656L200 196.8V336h-40c-13.25 0-24 10.75-24 24s10.8 24 24 24h128c13.25 0 24-10.75 24-24s-10.7-24-24-24z"/></svg>