<svg xmlns="http://www.w3.org/2000/svg" viewBox="0 0 448 512"><!--! Font Awesome Pro 6.1.1 by @fontawesome - https://fontawesome.com License - https://fontawesome.com/license (Commercial License) Copyright 2022 Fonticons, Inc.--><path d="M384 32H64C28.65 32 0 60.65 0 96v320c0 35.35 28.65 64 64 64h320c35.35 0 64-28.65 64-64V96c0-35.35-28.7-64-64-64zm16 384c0 8.822-7.178 16-16 16H64c-8.822 0-16-7.178-16-16V96c0-8.822 7.178-16 16-16h320c8.822 0 16 7.178 16 16v320zM224 128c-70.6 0-128 57.4-128 128s57.42 128 128 128 128-57.42 128-128-57.4-128-128-128zm0 208c-44.11 0-80-35.89-80-80s35.9-80 80-80 80 35.89 80 80-35.9 80-80 80z"/></svg>