<svg xmlns="http://www.w3.org/2000/svg" viewBox="0 0 448 512"><!--! Font Awesome Pro 6.1.1 by @fontawesome - https://fontawesome.com License - https://fontawesome.com/license (Commercial License) Copyright 2022 Fonticons, Inc.--><path d="M384 32H64C28.65 32 0 60.65 0 96v320c0 35.35 28.65 64 64 64h320c35.35 0 64-28.65 64-64V96c0-35.35-28.7-64-64-64zm16 384c0 8.822-7.178 16-16 16H64c-8.822 0-16-7.178-16-16V96c0-8.822 7.178-16 16-16h320c8.822 0 16 7.178 16 16v320zM278.9 198.5c9.361 9.482 24.55 9.514 33.95.156 9.426-9.389 9.488-24.65.156-34.1-48.06-48.7-131.1-48.7-179.1 0-49.46 50.11-49.46 131.7 0 181.7C157.1 370.6 189.1 384 223.1 384c.016 0 0 0 0 0 33.1 0 65.97-13.41 89.99-37.74 9.332-9.482 9.27-24.74-.156-34.1-9.395-9.42-24.62-9.293-33.95.125-14.94 15.17-34.78 23.49-55.88 23.49s-40.94-8.352-55.86-23.49c-30.98-31.37-30.98-82.42 0-113.8C197.1 168.2 249.1 168.2 278.9 198.5z"/></svg>