<svg xmlns="http://www.w3.org/2000/svg" viewBox="0 0 576 512"><!--! Font Awesome Pro 6.1.1 by @fontawesome - https://fontawesome.com License - https://fontawesome.com/license (Commercial License) Copyright 2022 Fonticons, Inc.--><path d="M48 96v320c0 8.8 7.16 16 16 16h256v48H64c-35.35 0-64-28.7-64-64V96c0-35.35 28.65-64 64-64h320c35.3 0 64 28.65 64 64v65.1c-17.7 2.6-34 9.2-48 19V96c0-8.84-7.2-16-16-16H64c-8.84 0-16 7.16-16 16zm197.8 45.9 82.4 178.7c-6.1 9.3-8.2 20-8.2 31.4v32c-9.1 0-17.7-5.2-21.8-13.9l-12-27H161.8l-12 27c-5.6 12-20.7 17.2-31.9 11.7-12-5.6-17.2-20.7-11.7-31.9l96-208c3.9-8.5 12.4-13.9 21.8-13.9s17.9 5.4 21.8 13.9zm-62.7 153.2H264l-40-85.8-40.9 85.8zM464 192c44.2 0 80 35.8 80 80v48c17.7 0 32 14.3 32 32v128c0 17.7-14.3 32-32 32H384c-17.7 0-32-14.3-32-32V352c0-17.7 14.3-32 32-32v-48c0-44.2 35.8-80 80-80zm0 48c-17.7 0-32 14.3-32 32v48h64v-48c0-17.7-14.3-32-32-32z"/></svg>