<svg xmlns="http://www.w3.org/2000/svg" viewBox="0 0 448 512"><!--! Font Awesome Pro 6.1.1 by @fontawesome - https://fontawesome.com License - https://fontawesome.com/license (Commercial License) Copyright 2022 Fonticons, Inc.--><path d="m136.2 150.3 96 88c5 4.6 7.8 11 7.8 17.7 0 6.7-2.8 13.1-7.8 17.7l-96 88c-9.8 8.9-24.9 7.4-33.9-1.5-8.95-9.8-8.29-24.9 1.5-33.9l76.7-70.3-76.7-70.3c-9.79-9-10.45-24.1-1.5-33.9 9-9.8 24.1-10.4 33.9-1.5zM328 336c13.3 0 24 10.7 24 24s-10.7 24-24 24H216c-13.3 0-24-10.7-24-24s10.7-24 24-24h112zm56-304c35.3 0 64 28.65 64 64v320c0 35.3-28.7 64-64 64H64c-35.35 0-64-28.7-64-64V96c0-35.35 28.65-64 64-64h320zm0 48H64c-8.84 0-16 7.16-16 16v320c0 8.8 7.16 16 16 16h320c8.8 0 16-7.2 16-16V96c0-8.84-7.2-16-16-16z"/></svg>