<svg xmlns="http://www.w3.org/2000/svg" viewBox="0 0 448 512"><!--! Font Awesome Pro 6.1.1 by @fontawesome - https://fontawesome.com License - https://fontawesome.com/license (Commercial License) Copyright 2022 Fonticons, Inc.--><path d="M240.9 135.7c-4.6-4.9-11-7.7-17.7-7.7-7.7.3-14.1 2.9-17.7 7.8l-87.25 96c-6.45 7.1-8.05 17.2-4.15 25.9s12.4 14.3 21 14.3h56l.9 88c0 13.3 10.8 24 24 24h16c13.25 0 24-10.75 24-24l-.9-88h56c9.531 0 18.16-5.656 22-14.38a24.025 24.025 0 0 0-4.375-25.91L240.9 135.7zM384 32H64C28.65 32 0 60.66 0 96v320c0 35.34 28.65 64 64 64h320c35.35 0 64-28.66 64-64V96c0-35.34-28.7-64-64-64zm16 384c0 8.82-7.178 16-16 16H64c-8.822 0-16-7.18-16-16V96c0-8.82 7.178-16 16-16h320c8.822 0 16 7.18 16 16v320z"/></svg>