<svg xmlns="http://www.w3.org/2000/svg" viewBox="0 0 448 512"><!--! Font Awesome Pro 6.1.1 by @fontawesome - https://fontawesome.com License - https://fontawesome.com/license (Commercial License) Copyright 2022 Fonticons, Inc.--><path d="M384 32H64C28.65 32 0 60.65 0 96v320c0 35.35 28.65 64 64 64h320c35.35 0 64-28.65 64-64V96c0-35.35-28.7-64-64-64zm16 384c0 8.822-7.178 16-16 16H64c-8.822 0-16-7.178-16-16V96c0-8.822 7.178-16 16-16h320c8.822 0 16 7.178 16 16v320zM224 128c-52.9 0-96 43.1-96 96v64c0 52.94 43.06 96 96 96s96-43.06 96-96v-64c0-52.9-43.1-96-96-96zm48 160c0 26.47-21.53 48-48 48s-48-21.5-48-48v-64c0-26.47 21.53-48 48-48s48 21.53 48 48v64z"/></svg>