<svg xmlns="http://www.w3.org/2000/svg" viewBox="0 0 448 512"><!--! Font Awesome Pro 6.1.1 by @fontawesome - https://fontawesome.com License - https://fontawesome.com/license (Commercial License) Copyright 2022 Fonticons, Inc.--><path d="M64 480h320c35.35 0 64-28.65 64-64V96c0-35.35-28.65-64-64-64H64C28.65 32 0 60.65 0 96v320c0 35.3 28.65 64 64 64zM48 96c0-8.822 7.178-16 16-16h320c8.822 0 16 7.178 16 16v320c0 8.822-7.178 16-16 16H64c-8.822 0-16-7.178-16-16V96zm176 288c52.94 0 96-43.06 96-96 0-43.86-29.73-80.53-69.98-91.96l29.76-25.94c9.969-8.719 11.03-23.88 2.312-33.88C277.3 130.8 270.7 128 264 128a23.958 23.958 0 0 0-15.78 5.906L168.3 203.6C155.5 214.7 128 246.7 128 288c0 52.9 43.1 96 96 96zm-46.9-109.7C184 254.1 202.9 240 224 240c26.47 0 48 21.53 48 48s-21.53 48-48 48-48-21.5-48-48c0-4.7.7-9.3 1.1-13.7z"/></svg>