<svg xmlns="http://www.w3.org/2000/svg" viewBox="0 0 448 512"><!--! Font Awesome Pro 6.1.1 by @fontawesome - https://fontawesome.com License - https://fontawesome.com/license (Commercial License) Copyright 2022 Fonticons, Inc.--><path d="M48 96v32H0V96c0-35.35 28.65-64 64-64h320c35.3 0 64 28.65 64 64v32h-48V96c0-8.84-7.2-16-16-16H64c-8.84 0-16 7.16-16 16zm0 320c0 8.8 7.16 16 16 16h320c8.8 0 16-7.2 16-16v-32h48v32c0 35.3-28.7 64-64 64H64c-35.35 0-64-28.7-64-64v-32h48v32zm9.05-255c10.12-3.9 21.05.9 26.92 9.7l52.03 78v-65.6c0-12.4 10.7-24 24-24s24 11.6 24 24V328c0 10.6-6.9 19.9-17.9 22.1-9.3 3.9-20.2 0-26.1-8.8l-52-78V328c0 13.3-10.75 24-24 24s-24-10.7-24-24V184c0-10.6 6.92-19.9 17.05-23zM216 184c0-13.3 10.7-24 24-24h64c13.3 0 24 10.7 24 24s-10.7 24-24 24h-40v16h40c13.3 0 24 10.7 24 24s-10.7 24-24 24h-40v56c0 13.3-10.7 24-24 24s-24-10.7-24-24V184zm192 144c0 13.3-10.7 24-24 24s-24-10.7-24-24V184c0-13.3 10.7-24 24-24s24 10.7 24 24v144z"/></svg>