<svg xmlns="http://www.w3.org/2000/svg" viewBox="0 0 448 512"><!--! Font Awesome Pro 6.1.1 by @fontawesome - https://fontawesome.com License - https://fontawesome.com/license (Commercial License) Copyright 2022 Fonticons, Inc.--><path d="M248.2 150.2c-7.1-6.4-18.1-8-25.9-4.1s-14.3 12.4-14.3 21v56l-88 .9c-13.2 0-24 10.8-24 24v16c0 13.3 10.8 24 24 24l88-.9v56c0 9.531 5.656 18.16 14.38 22a24.025 24.025 0 0 0 25.91-4.375l96-88.75C349.2 268.3 352 261.9 352 255.2c-.313-7.781-2.875-13.25-7.844-17.75L248.2 150.2zM384 32H64C28.66 32 0 60.66 0 96v320c0 35.34 28.66 64 64 64h320c35.34 0 64-28.66 64-64V96c0-35.34-28.7-64-64-64zm16 384c0 8.82-7.18 16-16 16H64c-8.82 0-16-7.18-16-16V96c0-8.82 7.18-16 16-16h320c8.82 0 16 7.18 16 16v320z"/></svg>