<svg xmlns="http://www.w3.org/2000/svg" viewBox="0 0 448 512"><!--! Font Awesome Pro 6.1.1 by @fontawesome - https://fontawesome.com License - https://fontawesome.com/license (Commercial License) Copyright 2022 Fonticons, Inc.--><path d="M384 32H64C28.65 32 0 60.65 0 96v320c0 35.35 28.65 64 64 64h320c35.35 0 64-28.65 64-64V96c0-35.35-28.7-64-64-64zm16 384c0 8.822-7.178 16-16 16H64c-8.822 0-16-7.178-16-16V96c0-8.822 7.178-16 16-16h320c8.822 0 16 7.178 16 16v320zM296 128H152c-13.2 0-24 10.8-24 24s10.8 24 24 24h103.8l-92.94 172.6c-6.281 11.66-1.938 26.22 9.75 32.5 3.69 2 7.49 2.9 10.49 2.9 8.562 0 16.81-4.562 21.16-12.62l112-208c4-7.438 3.812-16.44-.531-23.69C312.3 132.4 304.4 128 296 128z"/></svg>