<svg xmlns="http://www.w3.org/2000/svg" viewBox="0 0 448 512"><!--! Font Awesome Pro 6.1.1 by @fontawesome - https://fontawesome.com License - https://fontawesome.com/license (Commercial License) Copyright 2022 Fonticons, Inc.--><path d="M352 260v88c0 31.8-24.7 57.8-56 59.9v.1c-.7 0-1.5-.9-2.2-.9-.6 0-1.2.9-1.8.9-5.7 0-11.1-.8-16.3-2.2-19.6-4.4-37.5-15.1-50.7-30.7l-44.6-52.7-39.3 73c-6.3 11.6-20.8 16-32.5 9.7-11.65-6.3-16.02-20.8-9.73-32.5l56.03-104c3.7-7 10.7-12.5 18.6-12.5 7.9-.8 15.7 2.3 20.8 8.4L232 309v-49c0-33.1 26.9-60 60-60s60 26.9 60 60zm-64.2 99.2c1.8.4 3.7.6 5.6.7 6-.7 10.6-5.7 10.6-11.9v-88c0-6.6-5.4-12-12-12s-12 5.4-12 12v88c0 5.2 3.3 9.6 7.8 11.3v-.1zM160 160c0-26.5 21.5-48 48-48s48 21.5 48 48-21.5 48-48 48-48-21.5-48-48zM0 96c0-35.35 28.65-64 64-64h320c35.3 0 64 28.65 64 64v320c0 35.3-28.7 64-64 64H64c-35.35 0-64-28.7-64-64V96zm48 0v320c0 8.8 7.16 16 16 16h320c8.8 0 16-7.2 16-16V96c0-8.84-7.2-16-16-16H64c-8.84 0-16 7.16-16 16z"/></svg>