<svg xmlns="http://www.w3.org/2000/svg" viewBox="0 0 448 512"><!--! Font Awesome Pro 6.1.1 by @fontawesome - https://fontawesome.com License - https://fontawesome.com/license (Commercial License) Copyright 2022 Fonticons, Inc.--><path d="M384 32H64C28.65 32 0 60.65 0 96v320c0 35.35 28.65 64 64 64h320c35.35 0 64-28.65 64-64V96c0-35.35-28.7-64-64-64zm16 384c0 8.822-7.178 16-16 16H64c-8.822 0-16-7.178-16-16V96c0-8.822 7.178-16 16-16h320c8.822 0 16 7.178 16 16v320zm-72-176h-80c-13.2 0-24 10.8-24 24s10.8 24 24 24h50.47c-4.219 8.578-10.31 16.97-17.91 24.58-30.19 30.22-82.94 30.22-113.1 0-31.19-31.2-31.19-81.95 0-113.2C197.7 169.2 248.1 167.8 280 196.4c9.812 8.859 25 8.078 33.88-1.859 8.844-9.875 8-25.05-1.875-33.89-50.53-45.3-130.6-43.06-178.5 4.875-49.91 49.91-49.91 131.1 0 181C157.7 370.7 189.8 384 224 384s66.34-13.31 90.5-37.48c19.53-19.56 32.72-43.44 37.09-67.27.31-1.45.41-2.85.41-4.35V264c0-13.2-10.7-24-24-24z"/></svg>