<svg xmlns="http://www.w3.org/2000/svg" viewBox="0 0 448 512"><!--! Font Awesome Pro 6.1.1 by @fontawesome - https://fontawesome.com License - https://fontawesome.com/license (Commercial License) Copyright 2022 Fonticons, Inc.--><path d="M384 32H64C28.65 32 0 60.65 0 96v320c0 35.35 28.65 64 64 64h320c35.35 0 64-28.65 64-64V96c0-35.35-28.7-64-64-64zm16 384c0 8.822-7.178 16-16 16H64c-8.822 0-16-7.178-16-16V96c0-8.822 7.178-16 16-16h320c8.822 0 16 7.178 16 16v320zm-104-80h-98.2l117.9-170.3a23.94 23.94 0 0 0 1.531-24.8C313.1 132.1 304.9 128 296 128H152c-13.2 0-24 10.8-24 24s10.8 24 24 24h98.19l-117.9 170.3a23.94 23.94 0 0 0-1.531 24.8C134.9 379 143.1 384 152 384h144c13.25 0 24-10.75 24-24s-10.7-24-24-24z"/></svg>