<svg xmlns="http://www.w3.org/2000/svg" viewBox="0 0 448 512"><!--! Font Awesome Pro 6.1.1 by @fontawesome - https://fontawesome.com License - https://fontawesome.com/license (Commercial License) Copyright 2022 Fonticons, Inc.--><path d="M257.1 128h-52c-38.1 0-69.1 31-69.1 70 0 13 11 24 24 24s24-11 24-24c0-12 9.1-22 21.1-22h52c12 0 22.9 10 22.9 22 0 8-4 15-11 19l-57 34c-8 5-12 13-12 21v16c0 13 11 24 24 24s24-11 24-24v-2l45.1-28c21.9-13 34.9-36 34.9-60 0-39-31-70-70.9-70zM224 336c-18 0-32 14-32 32s13.1 32 32 32c17.1 0 32-14 32-32s-14.9-32-32-32zM384 32H64C28.65 32 0 60.65 0 96v320c0 35.35 28.65 64 64 64h320c35.35 0 64-28.65 64-64V96c0-35.35-28.7-64-64-64zm16 384c0 8.822-7.178 16-16 16H64c-8.822 0-16-7.178-16-16V96c0-8.822 7.178-16 16-16h320c8.822 0 16 7.178 16 16v320z"/></svg>