<svg xmlns="http://www.w3.org/2000/svg" viewBox="0 0 448 512"><!--! Font Awesome Pro 6.1.1 by @fontawesome - https://fontawesome.com License - https://fontawesome.com/license (Commercial License) Copyright 2022 Fonticons, Inc.--><path d="M384 32H64C28.65 32 0 60.65 0 96v320c0 35.35 28.65 64 64 64h320c35.35 0 64-28.65 64-64V96c0-35.35-28.7-64-64-64zm16 384c0 8.822-7.178 16-16 16H64c-8.822 0-16-7.178-16-16V96c0-8.822 7.178-16 16-16h320c8.822 0 16 7.178 16 16v320zm-72.5-282.3c-10.11-8.578-25.28-7.297-33.83 2.828L224 218.8l-69.7-82.3c-8.5-10.1-23.7-11.4-33.8-2.8-10.1 8.5-11.4 23.7-2.8 33.8l74.9 88.5-74.88 88.5c-8.562 10.11-7.297 25.27 2.828 33.83C125 382.1 130.5 384 135.1 384c6.812 0 13.59-2.891 18.34-8.5L224 293.2l69.67 82.34C298.4 381.1 305.2 384 312 384c5.469 0 10.98-1.859 15.48-5.672 10.12-8.562 11.39-23.72 2.828-33.83L255.4 256l74.88-88.5c8.62-10.1 7.32-25.3-2.78-33.8z"/></svg>