<svg xmlns="http://www.w3.org/2000/svg" viewBox="0 0 448 512"><!--! Font Awesome Pro 6.1.1 by @fontawesome - https://fontawesome.com License - https://fontawesome.com/license (Commercial License) Copyright 2022 Fonticons, Inc.--><path d="M192.4 269.7 151 311c-6.859 6.875-8.922 17.19-5.203 26.16S158.3 352 168 352h128c13.25 0 24-10.75 24-24V200c0-9.719-5.844-18.47-14.81-22.19A24.424 24.424 0 0 0 296 176a23.995 23.995 0 0 0-16.97 7.031l-41.37 41.38L173.1 159.8c-9.369-9.371-24.57-9.37-33.94.001L127.8 171.1c-9.3 9.4-9.3 24.6 0 34l64.6 64.6zM64 480h320c35.35 0 64-28.66 64-64V96c0-35.34-28.65-64-64-64H64C28.65 32 0 60.66 0 96v320c0 35.3 28.65 64 64 64zM48 96c0-8.82 7.178-16 16-16h320c8.822 0 16 7.18 16 16v320c0 8.82-7.178 16-16 16H64c-8.822 0-16-7.18-16-16V96z"/></svg>