<svg xmlns="http://www.w3.org/2000/svg" viewBox="0 0 448 512"><!--! Font Awesome Pro 6.1.1 by @fontawesome - https://fontawesome.com License - https://fontawesome.com/license (Commercial License) Copyright 2022 Fonticons, Inc.--><path d="M384 32H64C28.65 32 0 60.65 0 96v320c0 35.35 28.65 64 64 64h320c35.35 0 64-28.65 64-64V96c0-35.35-28.7-64-64-64zm16 384c0 8.822-7.178 16-16 16H64c-8.822 0-16-7.178-16-16V96c0-8.822 7.178-16 16-16h320c8.822 0 16 7.178 16 16v320zm-104-80h-81.8l63.06-57.19c17-16.69 26.38-38.91 26.38-62.56s-9.375-45.88-26.38-62.56c-34.8-34.19-91.45-34.19-126.3 0L140 164.5c-9.5 9.2-9.6 24.4-.3 33.9 9.312 9.469 24.48 9.656 33.94.313L184.6 187.9c16.27-15.94 42.78-15.94 59.02 0 7.734 7.594 12 17.66 12 28.31s-4.266 20.72-11.31 27.66l-108.4 98.31a23.982 23.982 0 0 0-6.266 26.41A23.926 23.926 0 0 0 152 384h144c13.25 0 24-10.75 24-24s-10.7-24-24-24z"/></svg>