<svg xmlns="http://www.w3.org/2000/svg" viewBox="0 0 448 512"><!--! Font Awesome Pro 6.1.1 by @fontawesome - https://fontawesome.com License - https://fontawesome.com/license (Commercial License) Copyright 2022 Fonticons, Inc.--><path d="m250.2 226.4-61.8-7.2 8.2-43.2H280c13.25 0 24-10.75 24-24s-10.7-24-24-24H176.7c-11.5 0-21.4 8.2-23.5 19.5l-16.73 88c-1.27 6.6.23 13.3 4.13 18.7a24.05 24.05 0 0 0 16.56 9.656l87.39 10.28C260.2 275.9 272 289.2 272 304.9c0 17.2-13.9 31.1-31.9 31.1h-48.7c-7.547 0-14.2-4.812-16.59-11.97-4.21-12.53-18.71-19.23-30.41-15.23-12.58 4.188-19.38 17.78-15.19 30.38C138.2 366 163.1 384 191.4 384h49.59c43.51 0 79.01-35.5 79.01-79.1 0-40.1-30.9-73.8-69.8-78.5zM384 32H64C28.65 32 0 60.65 0 96v320c0 35.35 28.65 64 64 64h320c35.35 0 64-28.65 64-64V96c0-35.35-28.7-64-64-64zm16 384c0 8.822-7.178 16-16 16H64c-8.822 0-16-7.178-16-16V96c0-8.822 7.178-16 16-16h320c8.822 0 16 7.178 16 16v320z"/></svg>