<svg xmlns="http://www.w3.org/2000/svg" viewBox="0 0 576 512"><!--! Font Awesome Pro 6.1.1 by @fontawesome - https://fontawesome.com License - https://fontawesome.com/license (Commercial License) Copyright 2022 Fonticons, Inc.--><path d="M562.1 241c-9.188-9.438-24.38-9.719-33.94-.438l-48.57 47.26-47.24-48.57c-9.25-9.5-24.44-9.719-33.94-.5-9.531 9.25-9.719 24.44-.5 33.94l47.28 48.6-48.59 47.27c-9.5 9.22-9.688 24.44-.438 33.94a23.955 23.955 0 0 0 17.19 7.25c6.032 0 12.06-2.25 16.75-6.812l48.55-47.24 47.26 48.58C531.5 409.2 537.8 411.6 544 411.6c6.031 0 12.06-2.25 16.72-6.781 9.531-9.25 9.719-24.44.5-33.94l-47.29-48.62 48.6-47.29C572 265.8 572.2 250.5 562.1 241zM576 24c0-13.25-10.7-24-24-24L320 .01c-11.09 0-20.72 7.584-23.34 18.37L200.8 415.7l-83-177.9c-4-8.4-12.5-13.8-21.8-13.8H24c-13.25 0-24 10.8-24 24s10.75 24 24 24h56.72l105.5 226.2a24.01 24.01 0 0 0 21.74 13.85c.781 0 1.604-.041 2.417-.135 10.12-1 18.53-8.344 20.94-18.25L338.9 48H552c13.3 0 24-10.75 24-24z"/></svg>