<svg xmlns="http://www.w3.org/2000/svg" viewBox="0 0 448 512"><!--! Font Awesome Pro 6.1.1 by @fontawesome - https://fontawesome.com License - https://fontawesome.com/license (Commercial License) Copyright 2022 Fonticons, Inc.--><path d="M384 32H64C28.65 32 0 60.65 0 96v320c0 35.35 28.65 64 64 64h320c35.35 0 64-28.65 64-64V96c0-35.35-28.7-64-64-64zm16 384c0 8.822-7.178 16-16 16H64c-8.822 0-16-7.178-16-16V96c0-8.822 7.178-16 16-16h320c8.822 0 16 7.178 16 16v320zM222.4 128H152c-13.2 0-24 10.8-24 24v208c0 13.3 10.8 24 24 24h70.41C293.9 384 352 326.6 352 256s-58.1-128-129.6-128zm0 208H176V176h46.41c44.99 0 81.59 35.9 81.59 80s-36.6 80-81.6 80z"/></svg>