<svg xmlns="http://www.w3.org/2000/svg" viewBox="0 0 448 512"><!--! Font Awesome Pro 6.1.1 by @fontawesome - https://fontawesome.com License - https://fontawesome.com/license (Commercial License) Copyright 2022 Fonticons, Inc.--><path d="M88 32h16c13.3 0 24 10.75 24 24s-10.7 24-24 24H88c-22.09 0-40 17.91-40 40v16c0 13.3-10.75 24-24 24S0 149.3 0 136v-16c0-48.6 39.4-88 88-88zM48 216v80c0 13.3-10.75 24-24 24S0 309.3 0 296v-80c0-13.3 10.75-24 24-24s24 10.7 24 24zm400 0v80c0 13.3-10.7 24-24 24s-24-10.7-24-24v-80c0-13.3 10.7-24 24-24s24 10.7 24 24zm-48-80v-16c0-22.09-17.9-40-40-40h-16c-13.3 0-24-10.75-24-24s10.7-24 24-24h16c48.6 0 88 39.4 88 88v16c0 13.3-10.7 24-24 24s-24-10.7-24-24zm48 256c0 48.6-39.4 88-88 88h-16c-13.3 0-24-10.7-24-24s10.7-24 24-24h16c22.1 0 40-17.9 40-40v-16c0-13.3 10.7-24 24-24s24 10.7 24 24v16zm-400 0c0 22.1 17.91 40 40 40h16c13.3 0 24 10.7 24 24s-10.7 24-24 24H88c-48.6 0-88-39.4-88-88v-16c0-13.3 10.75-24 24-24s24 10.7 24 24v16zm136 88c-13.3 0-24-10.7-24-24s10.7-24 24-24h80c13.3 0 24 10.7 24 24s-10.7 24-24 24h-80zm0-448h80c13.3 0 24 10.75 24 24s-10.7 24-24 24h-80c-13.3 0-24-10.75-24-24s10.7-24 24-24z"/></svg>