<svg xmlns="http://www.w3.org/2000/svg" viewBox="0 0 448 512"><!--! Font Awesome Pro 6.1.1 by @fontawesome - https://fontawesome.com License - https://fontawesome.com/license (Commercial License) Copyright 2022 Fonticons, Inc.--><path d="M384 32H64C28.65 32 0 60.65 0 96v320c0 35.35 28.65 64 64 64h320c35.35 0 64-28.65 64-64V96c0-35.35-28.7-64-64-64zm16 384c0 8.822-7.178 16-16 16H64c-8.822 0-16-7.178-16-16V96c0-8.822 7.178-16 16-16h320c8.822 0 16 7.178 16 16v320zm-64.6-286.8c-9.953-3.25-20.75.313-26.84 8.781L224 255l-84.5-117.9c-6.1-7.6-17-11.2-26.9-7.9-9.9 3.2-16.6 12.4-16.6 22.8v208c0 13.3 10.8 24 24 24s24-10.75 24-24V226.2l60.55 83.83c9.031 12.5 29.88 12.5 38.91 0L304 226.2V360c0 13.25 10.75 24 24 24s24-10.7 24-24V152c0-10.4-6.7-19.6-16.6-22.8z"/></svg>