<svg xmlns="http://www.w3.org/2000/svg" viewBox="0 0 448 512"><!--! Font Awesome Pro 6.1.1 by @fontawesome - https://fontawesome.com License - https://fontawesome.com/license (Commercial License) Copyright 2022 Fonticons, Inc.--><path d="M352 176c0 26.5-21.5 48-48 48-9.8 0-18.9-2.9-26.5-7.9L197.7 256l79.8 39.9c7.6-5 16.7-7.9 26.5-7.9 26.5 0 48 21.5 48 48s-21.5 48-48 48c-25.5 0-46.4-20-47.9-45.1l-85.6-42.8c-7.6 5-16.7 7.9-26.5 7.9-26.5 0-48-21.5-48-48s21.5-48 48-48c9.8 0 18.9 2.9 26.5 7.9l85.6-42.8c1.5-26 22.4-45.1 47.9-45.1 26.5 0 48 21.5 48 48zM0 96c0-35.35 28.65-64 64-64h320c35.3 0 64 28.65 64 64v320c0 35.3-28.7 64-64 64H64c-35.35 0-64-28.7-64-64V96zm48 0v320c0 8.8 7.16 16 16 16h320c8.8 0 16-7.2 16-16V96c0-8.84-7.2-16-16-16H64c-8.84 0-16 7.16-16 16z"/></svg>