<svg xmlns="http://www.w3.org/2000/svg" viewBox="0 0 448 512"><!--! Font Awesome Pro 6.1.1 by @fontawesome - https://fontawesome.com License - https://fontawesome.com/license (Commercial License) Copyright 2022 Fonticons, Inc.--><path d="M340.1 154.1c15.7 15.6 15.7 40.9 0 56.6l-21.4 21.4-70.9-71 21.4-21.4c15.6-15.6 40.9-15.6 56.6 0l14.3 14.4zm-220.2 134 105.2-104.3 71 70.9-105.2 105.2c-4.1 4.1-9.3 7-14.9 8.4l-60.1 15.1c-5.5 1.3-11.2-.3-15.2-4.2-3.99-4-5.58-9.8-4.22-16.1l15.02-59.3c1.4-5.6 4.3-10.7 8.4-15.7zM0 96c0-35.35 28.65-64 64-64h320c35.3 0 64 28.65 64 64v320c0 35.3-28.7 64-64 64H64c-35.35 0-64-28.7-64-64V96zm48 0v320c0 8.8 7.16 16 16 16h320c8.8 0 16-7.2 16-16V96c0-8.84-7.2-16-16-16H64c-8.84 0-16 7.16-16 16z"/></svg>