<svg xmlns="http://www.w3.org/2000/svg" viewBox="0 0 448 512"><!--! Font Awesome Pro 6.1.1 by @fontawesome - https://fontawesome.com License - https://fontawesome.com/license (Commercial License) Copyright 2022 Fonticons, Inc.--><path d="M328 224h-88v-56c0-9.531-5.656-18.16-14.38-22-8.72-3.8-18.92-2.1-25.92 4.4l-96 88.75A24.027 24.027 0 0 0 96 256.8c.313 7.781 2.875 13.25 7.844 17.75l96 87.25c7.031 6.406 17.19 8.031 25.88 4.188S240 353.5 240 344v-56h88c13.3 0 24-10.7 24-24v-16c0-13.2-10.7-24-24-24zm56-192H64C28.66 32 0 60.66 0 96v320c0 35.34 28.66 64 64 64h320c35.34 0 64-28.66 64-64V96c0-35.34-28.7-64-64-64zm16 384c0 8.82-7.18 16-16 16H64c-8.82 0-16-7.18-16-16V96c0-8.82 7.18-16 16-16h320c8.82 0 16 7.18 16 16v320z"/></svg>