<svg xmlns="http://www.w3.org/2000/svg" viewBox="0 0 448 512"><!--! Font Awesome Pro 6.1.1 by @fontawesome - https://fontawesome.com License - https://fontawesome.com/license (Commercial License) Copyright 2022 Fonticons, Inc.--><path d="M384 32H64C28.65 32 0 60.65 0 96v320c0 35.35 28.65 64 64 64h320c35.35 0 64-28.65 64-64V96c0-35.35-28.7-64-64-64zm16 384c0 8.822-7.178 16-16 16H64c-8.822 0-16-7.178-16-16V96c0-8.822 7.178-16 16-16h320c8.822 0 16 7.178 16 16v320zm-86.9-280.8c-9.266-9.422-24.48-9.547-33.94-.25L176 236.5V152c0-13.2-10.7-24-24-24s-24 10.8-24 24v208c0 13.3 10.8 24 24 24s24-10.75 24-24v-56.1l30.89-30.42 69.38 100.2C280.9 380.4 288.4 384 296 384a23.8 23.8 0 0 0 13.64-4.266c10.91-7.547 13.62-22.5 6.078-33.39l-72-104c-.732-1.057-1.805-1.662-2.666-2.564l71.78-70.69c9.468-9.29 9.568-24.49.268-33.89z"/></svg>