<svg xmlns="http://www.w3.org/2000/svg" viewBox="0 0 448 512"><!--! Font Awesome Pro 6.1.1 by @fontawesome - https://fontawesome.com License - https://fontawesome.com/license (Commercial License) Copyright 2022 Fonticons, Inc.--><path d="M312 240h-56v-88c0-13.2-10.7-24-24-24h-16c-13.2 0-24 10.8-24 24v88h-56c-9.531 0-18.16 5.656-22 14.38-3.8 8.72-2.1 18.92 4.4 25.92l88.75 96c4.55 4.9 10.95 7.7 17.65 7.7 7.781-.313 13.25-2.875 17.75-7.844l87.25-96c6.406-7.031 8.031-17.19 4.188-25.88S321.5 240 312 240zm72-208H64C28.65 32 0 60.66 0 96v320c0 35.34 28.65 64 64 64h320c35.35 0 64-28.66 64-64V96c0-35.34-28.7-64-64-64zm16 384c0 8.82-7.178 16-16 16H64c-8.822 0-16-7.18-16-16V96c0-8.82 7.178-16 16-16h320c8.822 0 16 7.18 16 16v320z"/></svg>