<svg xmlns="http://www.w3.org/2000/svg" viewBox="0 0 448 512"><!--! Font Awesome Pro 6.1.1 by @fontawesome - https://fontawesome.com License - https://fontawesome.com/license (Commercial License) Copyright 2022 Fonticons, Inc.--><path d="M384 32H64C28.65 32 0 60.65 0 96v320c0 35.35 28.65 64 64 64h320c35.35 0 64-28.65 64-64V96c0-35.35-28.7-64-64-64zm16 384c0 8.822-7.178 16-16 16H64c-8.822 0-16-7.178-16-16V96c0-8.822 7.178-16 16-16h320c8.822 0 16 7.178 16 16v320zm-90.2-279.6L224 236.5l-85.8-100.1c-8.6-10.1-23.7-11.2-33.8-2.6-10.09 8.6-11.24 23.8-2.6 33.8L200 282.2V360c0 13.3 10.8 24 24 24s24-10.75 24-24v-77.8l98.22-114.6c8.625-10.06 7.469-25.22-2.594-33.84-10.126-8.66-25.226-7.46-33.826 2.64z"/></svg>