<svg xmlns="http://www.w3.org/2000/svg" viewBox="0 0 448 512"><!--! Font Awesome Pro 6.1.1 by @fontawesome - https://fontawesome.com License - https://fontawesome.com/license (Commercial License) Copyright 2022 Fonticons, Inc.--><path d="M328 232H181.1l67.21-62.41c9.719-9.062 10.25-24.22 1.25-33.94-9.031-9.688-24.22-10.25-33.94-1.25l-112 104C98.78 242.1 96 249.3 96 256s2.781 13.04 7.656 17.6l112 104c9.719 9 24.91 8.438 33.94-1.25 9-9.719 8.469-24.88-1.25-33.94L181.1 280H328c13.25 0 24-10.76 24-24.01 0-13.19-10.7-23.99-24-23.99zm56-200H64C28.66 32 0 60.66 0 96v320c0 35.34 28.66 64 64 64h320c35.34 0 64-28.66 64-64V96c0-35.34-28.7-64-64-64zm16 384c0 8.82-7.18 16-16 16H64c-8.82 0-16-7.18-16-16V96c0-8.82 7.18-16 16-16h320c8.82 0 16 7.18 16 16v320z"/></svg>