<svg xmlns="http://www.w3.org/2000/svg" viewBox="0 0 448 512"><!--! Font Awesome Pro 6.1.1 by @fontawesome - https://fontawesome.com License - https://fontawesome.com/license (Commercial License) Copyright 2022 Fonticons, Inc.--><path d="M83.99 258.9c-4.49 4.5-5.28 11.4-1.92 16.8l23.73 37.96c3.432 5.5 10.39 7.82 16.48 5.398l47.43-18.97c5.605-2.219 9.062-7.951 8.422-13.91L175.2 256.2c31.6-10.79 66.05-10.79 97.64-.01l-2.979 29.97a13.54 13.54 0 0 0 8.4 13.9L325.7 319.1c6.121 2.391 13.07.11 16.52-5.428l23.72-37.95c3.365-5.355 2.582-12.24-1.904-16.73C286.8 181.7 161.2 181.7 83.99 258.9zM384 32H64C28.65 32 0 60.66 0 96v320c0 35.34 28.65 64 64 64h320c35.35 0 64-28.66 64-64V96c0-35.34-28.7-64-64-64zm16 384c0 8.82-7.178 16-16 16H64c-8.822 0-16-7.18-16-16V96c0-8.82 7.178-16 16-16h320c8.822 0 16 7.18 16 16v320z"/></svg>