<svg xmlns="http://www.w3.org/2000/svg" viewBox="0 0 448 512"><!--! Font Awesome Pro 6.1.1 by @fontawesome - https://fontawesome.com License - https://fontawesome.com/license (Commercial License) Copyright 2022 Fonticons, Inc.--><path d="M224 121c6.1 0 11.7 3.5 14.3 8.9l31.3 63.3 69.9 10.2c6 .9 11 5.1 12.9 10.9 1.9 5.8.3 12.1-4.1 16.4l-50.5 48.4 11.9 70.5c1 6-1.4 12-6.3 15.6-5 3.6-11.5 4.1-16.9 1.2L224 333.6l-62.5 32.8c-5.4 2.9-11.9 2.4-16.9-1.2-4.9-3.6-7.3-9.6-6.3-15.6l11.9-70.5-50.54-48.4c-4.36-4.3-5.93-10.6-4.05-16.4 1.88-5.8 6.89-10 12.89-10.9l69.9-10.2 31.3-63.3c2.6-5.4 8.2-8.9 14.3-8.9zM0 96c0-35.35 28.65-64 64-64h320c35.3 0 64 28.65 64 64v320c0 35.3-28.7 64-64 64H64c-35.35 0-64-28.7-64-64V96zm48 0v320c0 8.8 7.16 16 16 16h320c8.8 0 16-7.2 16-16V96c0-8.84-7.2-16-16-16H64c-8.84 0-16 7.16-16 16z"/></svg>