<svg xmlns="http://www.w3.org/2000/svg" viewBox="0 0 448 512"><!--! Font Awesome Pro 6.1.1 by @fontawesome - https://fontawesome.com License - https://fontawesome.com/license (Commercial License) Copyright 2022 Fonticons, Inc.--><path d="M384 32H64C28.65 32 0 60.65 0 96v320c0 35.35 28.65 64 64 64h320c35.35 0 64-28.65 64-64V96c0-35.35-28.7-64-64-64zm16 384c0 8.822-7.178 16-16 16H64c-8.822 0-16-7.178-16-16V96c0-8.822 7.178-16 16-16h320c8.822 0 16 7.178 16 16v320zm-88-288c-13.2 0-24 10.8-24 24v122.9c0 33.7-28.7 61.1-64 61.1s-64-27.4-64-61.1V152c0-13.2-10.7-24-24-24s-24 10.8-24 24v122.9c0 60.2 50.3 109.1 112 109.1s112-48.94 112-109.1V152c0-13.2-10.7-24-24-24z"/></svg>