<svg xmlns="http://www.w3.org/2000/svg" viewBox="0 0 448 512"><!--! Font Awesome Pro 6.1.1 by @fontawesome - https://fontawesome.com License - https://fontawesome.com/license (Commercial License) Copyright 2022 Fonticons, Inc.--><path d="M320.2 205.1c9.369-9.371 9.369-24.57 0-33.94l-11.3-11.36c-9.369-9.371-24.57-9.372-33.94-.001L210.3 224.4 168.1 183c-3.7-4.6-9.9-7-16.1-7-3.094 0-6.219.594-9.188 1.812C133.8 181.5 128 190.3 128 200v128c0 13.3 10.8 24 24 24h128c9.703 0 18.45-5.844 22.17-14.81s1.656-19.28-5.203-26.16l-41.37-41.38L320.2 205.1zM448 416V96c0-35.34-28.65-64-64-64H64C28.65 32 0 60.66 0 96v320c0 35.34 28.65 64 64 64h320c35.3 0 64-28.7 64-64zm-48 0c0 8.82-7.178 16-16 16H64c-8.822 0-16-7.18-16-16V96c0-8.82 7.178-16 16-16h320c8.822 0 16 7.18 16 16v320z"/></svg>