<svg xmlns="http://www.w3.org/2000/svg" viewBox="0 0 448 512"><!--! Font Awesome Pro 6.1.1 by @fontawesome - https://fontawesome.com License - https://fontawesome.com/license (Commercial License) Copyright 2022 Fonticons, Inc.--><path d="M120 152h32v-16c0-13.3 10.7-24 24-24s24 10.7 24 24v16h128c13.3 0 24 10.7 24 24s-10.7 24-24 24H200v16c0 13.3-10.7 24-24 24s-24-10.7-24-24v-16h-32c-13.3 0-24-10.7-24-24s10.7-24 24-24zm0 208c-13.3 0-24-10.7-24-24s10.7-24 24-24h128v-16c0-13.3 10.7-24 24-24s24 10.7 24 24v16h32c13.3 0 24 10.7 24 24s-10.7 24-24 24h-32v16c0 13.3-10.7 24-24 24s-24-10.7-24-24v-16H120zM0 96c0-35.35 28.65-64 64-64h320c35.3 0 64 28.65 64 64v320c0 35.3-28.7 64-64 64H64c-35.35 0-64-28.7-64-64V96zm64 336h320c8.8 0 16-7.2 16-16V96c0-8.84-7.2-16-16-16H64c-8.84 0-16 7.16-16 16v320c0 8.8 7.16 16 16 16z"/></svg>