<svg xmlns="http://www.w3.org/2000/svg" viewBox="0 0 448 512"><!--! Font Awesome Pro 6.1.1 by @fontawesome - https://fontawesome.com License - https://fontawesome.com/license (Commercial License) Copyright 2022 Fonticons, Inc.--><path d="M384 32H64C28.65 32 0 60.65 0 96v320c0 35.35 28.65 64 64 64h320c35.35 0 64-28.65 64-64V96c0-35.35-28.7-64-64-64zm16 384c0 8.822-7.178 16-16 16H64c-8.822 0-16-7.178-16-16V96c0-8.822 7.178-16 16-16h320c8.822 0 16 7.178 16 16v320zM224 128c-52.9 0-96 43.1-96 96 0 43.86 29.73 80.53 69.98 91.96l-29.76 25.94c-9.969 8.719-11.03 23.88-2.312 33.88C170.7 381.2 177.3 384 184 384c5.594 0 11.22-1.938 15.78-5.906l79.94-69.69C292.5 297.3 320 265.3 320 224c0-52.9-43.1-96-96-96zm46 109.7c-6 20.2-24.9 34.3-46 34.3-26.5 0-48-21.5-48-48s21.5-48 48-48 48 21.53 48 48c0 4.7-.7 9.3-2 13.7z"/></svg>