<svg xmlns="http://www.w3.org/2000/svg" viewBox="0 0 448 512"><!--! Font Awesome Pro 6.1.1 by @fontawesome - https://fontawesome.com License - https://fontawesome.com/license (Commercial License) Copyright 2022 Fonticons, Inc.--><path d="M121 112c-13.1-.8-24.42 9.8-24.98 23-.55 13.3 9.78 24.4 22.98 24.1 106.4 4.469 196.6 94.66 201 201 .6 13.8 11.2 23.9 23.1 23.9.344 0 .672 0 1.016-.031 13.25-.532 23.53-11.72 22.98-24.97C362.5 228.3 251.7 117.5 121 112zm.6 96.1c-13.11-.438-24.66 9.125-25.52 22.38-.86 13.22 9.172 24.66 22.39 25.5 54.69 3.562 102.1 50.94 105.6 105.6C224.9 374.3 235.4 384 247.1 384c.531 0 1.062-.031 1.594-.063 13.22-.843 23.25-12.28 22.39-25.5C266.9 280.6 199.4 213.1 121.6 208.1zM128 320c-8.189 0-16.38 3.121-22.63 9.371-12.5 12.5-12.5 32.76 0 45.26C111.6 380.9 119.8 384 128 384s16.38-3.121 22.63-9.371c12.5-12.5 12.5-32.76 0-45.26C144.4 323.1 136.2 320 128 320zM384 32H64C28.65 32 0 60.66 0 96v320c0 35.34 28.65 64 64 64h320c35.35 0 64-28.66 64-64V96c0-35.34-28.7-64-64-64zm16 384c0 8.82-7.178 16-16 16H64c-8.822 0-16-7.18-16-16V96c0-8.82 7.178-16 16-16h320c8.822 0 16 7.18 16 16v320z"/></svg>