<svg xmlns="http://www.w3.org/2000/svg" viewBox="0 0 448 512"><!--! Font Awesome Pro 6.1.1 by @fontawesome - https://fontawesome.com License - https://fontawesome.com/license (Commercial License) Copyright 2022 Fonticons, Inc.--><path d="M384 32H64C28.65 32 0 60.65 0 96v320c0 35.35 28.65 64 64 64h320c35.35 0 64-28.65 64-64V96c0-35.35-28.7-64-64-64zm16 384c0 8.822-7.178 16-16 16H64c-8.822 0-16-7.178-16-16V96c0-8.822 7.178-16 16-16h320c8.822 0 16 7.178 16 16v320zm-64-208c0-44.1-35.9-80-80-80H152c-13.2 0-24 10.8-24 24v208c0 13.3 10.8 24 24 24s24-10.75 24-24v-72h45.97l62.63 86.11c4.7 6.49 12 9.89 19.4 9.89 4.875 0 9.812-1.484 14.09-4.594 10.72-7.797 13.09-22.8 5.281-33.52l-44.77-61.55C311.7 274.5 336 244.2 336 208zm-80 32h-80v-64h80c17.66 0 32 14.36 32 32s-14.3 32-32 32z"/></svg>