<svg xmlns="http://www.w3.org/2000/svg" viewBox="0 0 640 512"><!--! Font Awesome Pro 6.1.1 by @fontawesome - https://fontawesome.com License - https://fontawesome.com/license (Commercial License) Copyright 2022 Fonticons, Inc.--><path d="M107.7 59.11C119.3 42.71 138.4 32 159.1 32H480c35.3 0 64 28.65 64 64v305.1l86.8 68c10.4 8.2 12.3 23.3 4.1 33.7-8.2 10.4-23.3 12.3-33.7 4.1L9.196 42.89C-1.236 34.71-3.065 19.63 5.112 9.196 13.29-1.236 28.37-3.065 38.81 5.112L107.7 59.11zm38 29.76 86.5 67.83c1.6-16.1 15.3-28.7 30.9-28.7H344c53 0 96 42.1 96 96 0 28.1-12.1 53.4-31.4 70.1l87.4 69.4V96c0-8.84-7.2-16-16-16H159.1c-5.4 0-10.8 3.61-13.4 8.87zM369.8 264.5C383.1 255.1 392 241 392 224c0-26.5-21.5-48-48-48h-64.9v18.2l90.7 70.3zm-138.7 14.3 48 37.8V360c0 13.3-9.8 24-24 24-12.4 0-24-10.7-24-24v-81.2zm-88-69.3V416c0 8.8 8.1 16 16 16h267.4l60.4 47.6c-2.3.3-4.6.4-6.9.4H159.1c-34.4 0-64-28.7-64-64V171.6l48 37.9z"/></svg>