<svg xmlns="http://www.w3.org/2000/svg" viewBox="0 0 448 512"><!--! Font Awesome Pro 6.1.1 by @fontawesome - https://fontawesome.com License - https://fontawesome.com/license (Commercial License) Copyright 2022 Fonticons, Inc.--><path d="M296 160c-30.93 0-56 25.07-56 56s25.07 56 56 56c2.74 0 5.365-.426 8-.807V280c0 13.23-10.77 24-24 24-13.2 0-24 10.8-24 24s10.8 24 24 24c39.7 0 72-32.3 72-72v-64c0-30.9-25.1-56-56-56zm-144 0c-30.9 0-56 25.1-56 56s25.1 56 56 56c2.7 0 5.4-.4 8-.8v8.8c0 13.2-10.8 24-24 24-13.25 0-24 10.75-24 24s10.8 24 24 24c39.7 0 72-32.3 72-72v-64c0-30.9-25.1-56-56-56zM384 32H64C28.65 32 0 60.65 0 96v320c0 35.35 28.65 64 64 64h320c35.35 0 64-28.65 64-64V96c0-35.35-28.7-64-64-64zm16 384c0 8.822-7.178 16-16 16H64c-8.822 0-16-7.178-16-16V96c0-8.822 7.178-16 16-16h320c8.822 0 16 7.178 16 16v320z"/></svg>