<svg xmlns="http://www.w3.org/2000/svg" viewBox="0 0 448 512"><!--! Font Awesome Pro 6.1.1 by @fontawesome - https://fontawesome.com License - https://fontawesome.com/license (Commercial License) Copyright 2022 Fonticons, Inc.--><path d="M384 32H64C28.65 32 0 60.65 0 96v320c0 35.35 28.65 64 64 64h320c35.35 0 64-28.65 64-64V96c0-35.35-28.7-64-64-64zm16 384c0 8.822-7.178 16-16 16H64c-8.822 0-16-7.178-16-16V96c0-8.822 7.178-16 16-16h320c8.822 0 16 7.178 16 16v320zm-61.3-285.5c-11.86-5.891-26.27-1.125-32.2 10.73L224 306.3l-82.5-165c-6-11.9-20.3-16.7-32.2-10.8-11.89 6-16.69 20.4-10.77 32.2l104 208C206.6 378.9 214.9 384 224 384s17.41-5.141 21.47-13.27l104-208c5.93-11.83 1.13-26.23-10.77-32.23z"/></svg>