<svg xmlns="http://www.w3.org/2000/svg" viewBox="0 0 512 512"><!--! Font Awesome Pro 6.1.1 by @fontawesome - https://fontawesome.com License - https://fontawesome.com/license (Commercial License) Copyright 2022 Fonticons, Inc.--><path d="M285.3 339.8c-1.2 1.2-2.2 2.7-2.9 4.3-.6 1.6-1 3.4-1 5.1 0 1.8.4 3.5 1 5.2.7 1.6 1.7 3.1 2.9 4.3l35.9 35.9c1.5 1.5 3.2 2.6 5.2 3.5 1.9.8 4 1.2 6.1 1.2 2.1 0 4.2-.4 6.2-1.2 1.9-.9 3.7-2 5.2-3.5l60.8-60.4c4.5-4.5 9.8-8.1 15.7-10.5 5.9-2.4 12.3-3.6 18.6-3.5 6.4 0 12.7 1.3 18.6 3.9 5.8 2.5 11.1 6.1 15.6 10.7l34.7 38.6.2-.3c2.6 3.9 3 7.8 3.8 11.8-.2 3.9-1.8 7.7-4.6 10.6-16.4 16.5-38.4 26.4-61.6 27.7-23.3 1.3-46.3-6.1-64.4-20.7l-14.9 14.7c-4.5 4.5-9.8 8.1-15.6 10.5-6.7 2.4-12.1 3.6-18.4 3.6-2.3 0-2.9-.2-4.4-.2-11.7-1.3-22.6-6.6-30.8-16l-31.4-30.6c-3.3-3.3-8.7-5.2-12.6-5.2-2.3 0-4.6.5-6.7 1.4-2.1.8-4.1 2.1-5.7 3.8l-.4.3c-3.3 3.4-5.2 7.9-5.2 12.6 0 4.7 1.9 9.2 5.2 12.5l20.3 20.3c9 9 14 21.2 14 33.9 0 12.8-5 25-14 34l-8.8 8.7c-3.3 3.3-7.7 4.3-12.3 5.2-3.1-.1-6.2-1.2-8.7-3.1-2.8-1.3-3.5-3.1-4.7-5.1-1.1-2-1.8-4.3-2-6.6-1.1-2.3.1-4.6.9-6.8s2.1-4.2 3.7-5.9l9.4-9.3c3-3 4.7-7.1 4.7-11.3 0-4.3-1.7-8.3-4.7-11.3l-39.5-39.5c-1.6-1.6-3.4-2.9-5.5-3.7-2.1-.9-4.3-1.4-6.6-1.4-3 .1-6 .8-9.5 2.3-1.8 1.4-4.1 3.5-5.8 6l-22.9 29.2c-3 4.2-4.5 9.3-4.2 14.4.4 5.2 2.6 10 6.2 13.7 2 2 4.3 3.6 6.9 4.7 2.6 1.1 5.4.8 8.3 1.7h9.6c3.9-.1 7.7 1.2 10.7 3.6 3 2.5 5.1 5.9 5.9 9.7.4 2.3.3 3.8-.4 6.9-.6 2.3-1.7 4.3-3.2 6.1-1.5 1.8-3.3 3.2-5.5 4.2-2.1 1-4.4 1.5-6.7 1.5h-10.6c-14 .1-27.5-5.4-37.6-15.3-9-9.2-14.5-21.3-15.4-34.2-.8-12.9 2.9-25.6 10.7-36l22.4-28.8c2.3-3.3 3.7-7.2 3.9-11.3.3-4-.5-8.1-3.3-11.7-1-3.6-3.8-6.6-7.3-8.7-3.5-2.1-7.5-3.2-11.6-3.2-4.5 0-9 1.4-12.8 4l-28.61 22.4c-9.32 7-20.66 10.8-32.32 10.8-7.02 0-13.99-1.3-20.49-4.9-6.5-1.8-12.4-5.7-17.37-10.7-4.97-5-8.912-10.9-11.59-17.4-2.679-6.4-4.045-13.4-4.02-20.4V336c0-4.2 1.686-8.3 4.687-11.3 3-3 7.073-5.6 11.313-5.6.9.9 1.8 1.1 2.69 1.3 3.81.7 7.24 2.8 9.67 5.8 2.44 3.1 3.72 6.9 3.64 9.9v10.5c-.01 4 1.1 7.9 3.19 11.3 2.1 3.4 5.1 6.1 8.68 7.9 3.57 1.8 7.57 2.5 11.54 1.3 3.98.5 7.77-1 10.96-3.4l29.18-22.8c2.23-1.5 4.1-3.4 5.55-5.6 1.4-2.3 2.2-4.8 2.5-7.4.3-2.6.1-5.3-.8-7.8-1.7-2.5-2.2-4.8-4.05-6.7L59.3 273.1c-3-3-7.07-3.8-11.32-3.8-4.24 0-8.31.8-11.31 3.8l-9.34 10.2c-1.65.8-3.64 2.9-5.83 3.7-2.19.8-4.52 1.2-6.85.1-2.32.7-4.57 0-6.594-1.2-2.022-1.2-3.767-2.7-5.112-4.7-2.16-3.2-3.111-7.1-2.684-11 .427-3.8 2.205-7.4 5.02-10.1l8.77-8.8c9-9 21.21-14 33.93-14 12.73 0 24.94 5 33.94 14l20.28 20.2c3.3 3.3 7.8 5.2 12.6 5.2 2.3 0 4.6-.4 6.7-1.3 2.2-.9 4.1-2.2 5.7-3.8l.4-.4c3.3-3.3 5.2-7.8 5.2-12.5 0-5.6-1.9-9.3-5.2-12.6l-31.44-31.4c-8.5-8.2-13.86-19.1-15.17-30.8-.65-7.1.26-14.1 2.66-20.8 2.4-6.6 6.23-12.6 11.23-17.6l14.72-14.9c-15.5-18.2-21.98-41.09-20.68-64.37A94.018 94.018 0 0 1 116.7 4.576c1.4-1.455 3.2-2.609 5.1-3.394 1.9-.785 3.9-1.187 5.9-1.182 3.9.045 7.5 1.427 10.4 3.904l.6.224 38.5 34.782c4.6 4.43 8.3 9.72 10.8 15.58 2.5 5.85 3.9 12.15 3.9 18.53-.8 6.37-1.1 12.7-3.5 18.6-3.3 5.9-6 11.28-10.5 15.78l-60.4 60.8c-1.5 1.5-2.7 3.2-3.5 5.2-.8 1.9-1.2 4-1.2 6.1 0 2.1.4 4.2 1.2 6.2.8 1.9 2 3.7 3.5 5.2l35.8 35.8c2.5 2.5 5.9 3.9 9.5 3.9 3.5 0 6.9-1.4 9.4-3.9 1.3-1.3 2.3-2.8 3-4.5.7-1.7 1-3.6 1-5.4-.1-12.3 1.8-24.6 4.9-36.3 7.6-20.4 18.4-37.4 32.5-52.5 18.2-18.1 37.9-34.65 58.9-49.38l-16-58.43c-.6-2.47-.7-5.07-.1-7.57.5-2.5 1.7-4.832 3.3-6.796 1.5-1.814 3.4-3.276 5.5-4.282C267.3.535 269.6.009 272 0l99.8 7.616c11.6 1.053 23 3.494 34 7.264C435.1 6.159 465.4 1.16 496 0a16.023 16.023 0 0 1 16 16c-1.2 30.56-6.2 60.86-14.9 90.2 3.8 11 6.2 22.4 7.3 34l7.6 98.6c.2 2.5-.3 5.1-1.3 7.5-1 2.3-2.6 4.4-4.6 6-1.9.8-4.3 2.8-6.8 3.4-2.5.6-5.1.5-7.6-.2l-58.4-16c-14.7 21-31.2 40.8-49.3 58.9-15.9 14.2-32.9 25-52.4 31.8-11.4 3.8-23.4 4.9-35.4 5.8h-1c-3.6-.1-7.2 1.3-9.9 3.8zm-90-48.5c3-3 4.7-7.1 4.7-12.2 0-2.3-.9-5.4-2.7-8-1.8-2.6-4.3-4.7-7.2-5.9-2.9-1.2-7-1.5-9.2-.9-3.1.6-6 2.1-8.2 4.4-2.3 2.2-3.8 5.1-4.4 8.2-.6 2.2-.3 6.3.9 9.2 1.2 2.9 3.3 5.4 5.9 7.2 2.6 1.8 5.7 1.8 8.9 1.8 4.2 0 8.3-.8 11.3-3.8zm48 48c3-3 4.7-7.1 4.7-11.3 0-3.2-.9-6.3-2.7-8.9-1.8-2.6-4.3-4.7-7.2-5.9-2.9-1.2-7-1.5-9.2-.9-3.1.6-6 2.1-8.2 4.4-2.3 2.2-3.8 5.1-4.4 8.2-.6 2.2-.3 6.3.9 9.2 1.2 2.9 3.3 5.4 5.9 7.2 2.6 1.8 5.7 2.7 8.9 2.7 4.2 0 8.3-1.7 11.3-4.7zm26.2-58c8.4 4 17.6 6.3 26.9 5.8 20.2-1 39.3-8.5 53.7-22.6 57.8-57.8 96.3-132.1 110.1-212.69A395.257 395.257 0 0 0 247.5 161.9c-7.3 6.4-13.1 14.3-17.2 23.1-4 8.9-6 18.5-6 28.2s2 19.3 6 28.2c4.1 8.8 9.9 16.7 17.2 23.1 6.1 7 13.6 12.7 22 16.8z"/></svg>