<svg xmlns="http://www.w3.org/2000/svg" viewBox="0 0 512 512"><!--! Font Awesome Pro 6.1.1 by @fontawesome - https://fontawesome.com License - https://fontawesome.com/license (Commercial License) Copyright 2022 Fonticons, Inc.--><path d="M479.1 256c17.62 0 31.1-14.38 31.1-32v-32c0-58.5-37.12-105.9-87.99-117.4V48c0-13.25-10.75-24-23.1-24-55.37 0-88.74 42.75-106.5 73.25C264.1 43 206.1 0 147.7 0 66.25 0 0 66.25 0 147.8c0 69 47.62 127.1 111.7 143.2l-8.8 18.4c-18.62 48.87-11.5 100.1 22.62 142.8C156.9 491.4 205.1 512 256.2 512h239.7c8.249 0 15.65-6.25 16.02-14.38C512.8 479.1 498.2 464 479.1 464h-29c12.75-18.38 21.87-40.5 21.87-64 0-51.38-29.1-89.63-75.87-100.8l7-43.2h76zm-125.9 88c20.5 0 40.87 7.125 55.37 21.62 41.87 41.88-13.37 93-26.1 98.38H242.5c-56.12 0-101.6-45.63-101.6-101.6 0-11.75 2.25-23.88 6.125-34.13l38.1-80.75H151.2c-50.75 0-95.99-36.38-102.4-86.62C40.1 100 88.37 48 147.7 48c54.87 0 115.2 60.25 115.2 115.2h.375L208.1 293.9c-3.375 8.125.5 17.5 8.624 20.88L232.5 321c8.124 3.375 17.5-.5 20.87-8.75L325.5 138.8c15.1-32 32.37-52 50.5-61V120h23.1c35.87 0 63.1 31.62 63.1 72v16h-99.99l-24.75 136h15.74zm45.9-168c9.7 0 16-7.1 16-16s-7.094-16-15.97-16c-8.874 0-16.01 7.125-16.01 16s7.98 16 15.98 16z"/></svg>