<svg xmlns="http://www.w3.org/2000/svg" viewBox="0 0 384 512"><!--! Font Awesome Pro 6.1.1 by @fontawesome - https://fontawesome.com License - https://fontawesome.com/license (Commercial License) Copyright 2022 Fonticons, Inc.--><path d="M222.5 48H296c48.6 0 88 39.4 88 88s-39.4 88-88 88h-48v-48h48c22.1 0 40-17.9 40-40s-17.9-40-40-40h-75.9l-6 192H240c44.2 0 80 35.8 80 80s-35.8 80-80 80v-48c17.7 0 32-14.3 32-32s-14.3-32-32-32h-26.5l-5 160c-.3 8.9-7.6 16-17.4 16-8 0-15.3-7.1-15.6-16l-2.4-48h-54c-12.4 0-24-10.7-24-24s11.6-24 24-24h53.4l-2-64H144c-44.18 0-80-35.8-80-80 0-41.5 31.57-75.6 72-79.6V225c-13.8 3.6-24 16.1-24 31 0 17.7 14.3 32 32 32h25l-6-192h-35.6c.4 2.61.6 5.3.6 8 0 30.9-25.1 56-56 56H56c-30.93 0-56-25.1-56-56 0-30.93 25.07-56 56-56h105.5l-1.4-16.02v-1.93C161.5 13.43 175.1 0 192 0s30.5 13.43 31 30.05v1.93L222.5 48zM79.1 96c0-8.84-6.26-16-16-16-7.94 0-16 7.16-16 16 0 8.8 8.06 16 16 16 9.74 0 16-7.2 16-16z"/></svg>