<svg xmlns="http://www.w3.org/2000/svg" viewBox="0 0 512 512"><!--! Font Awesome Pro 6.1.1 by @fontawesome - https://fontawesome.com License - https://fontawesome.com/license (Commercial License) Copyright 2022 Fonticons, Inc.--><path d="M342.6 137.5c-7.4 15.4-14.6 31.4-14.6 47.6 0 39.6 31.4 70.9 70 70.9h18c53 0 96 42.1 96 96v8c0 30.9-25.1 56-56 56H56c-30.93 0-56-25.1-56-56v-8c0-53.9 42.98-96 96-96h17.1c39.6 0 70.9-31.3 70.9-70.9 0-16.2-7.2-32.2-14.6-47.6-6-12.6-9.4-26.6-9.4-41.5 0-53.02 42.1-96 96-96 53 0 96 42.98 96 96 0 14.9-3.4 28.9-9.4 41.5zM304 96c0-26.51-21.5-48-48-48s-48 21.49-48 48c0 7.5 1.7 14.5 4.7 20.7l-.6.6c7 14.6 19.9 39.6 19.9 67.8 0 66.1-52.8 118.9-118.9 118.9H96c-26.51 0-48 21.5-48 48v8c0 4.4 3.58 8 8 8h400c4.4 0 8-3.6 8-8v-8c0-26.5-21.5-48-48-48h-18c-65.2 0-118-52.8-118-118.9 0-28.2 12-53.2 19-67.8l.3-.6c3-6.2 4.7-13.2 4.7-20.7zM32 480c0-17.7 14.33-32 32-32h384c17.7 0 32 14.3 32 32s-14.3 32-32 32H64c-17.67 0-32-14.3-32-32z"/></svg>