<svg xmlns="http://www.w3.org/2000/svg" viewBox="0 0 576 512"><!--! Font Awesome Pro 6.1.1 by @fontawesome - https://fontawesome.com License - https://fontawesome.com/license (Commercial License) Copyright 2022 Fonticons, Inc.--><path d="M512 32H64C28.65 32 0 60.65 0 96v320c0 35.35 28.65 64 64 64h448c35.35 0 64-28.65 64-64V96c0-35.35-28.7-64-64-64zm16 384c0 8.822-7.178 16-16 16H64c-8.822 0-16-7.178-16-16V96c0-8.822 7.178-16 16-16h448c8.822 0 16 7.178 16 16v320zM384 160h-56c-13.25 0-24 10.75-24 24v144c0 13.25 10.75 24 24 24h56c52.94 0 96-43.06 96-96s-43.1-96-96-96zm0 144h-32v-96h32c26.47 0 48 21.53 48 48s-21.5 48-48 48zm-186.7-69.4-7.2-1.8c-33.5-8.7-32.6-13.4-31.8-17.5 1.469-7.688 19.25-13.72 45-10.19 8.2 1.09 17.8 3.79 24.3 5.79 11.7 3.6 23.9-3.1 27.5-14.6 3.5-11.7-3.1-24-14.7-27.5-8-2.4-19.8-5.8-31.1-7.3-50.4-7-87.4 10.8-94.2 45.3-9.7 49.5 41.9 62.9 64 68.6l7.469 1.906c35.25 8.875 40.44 13 39.16 19.45-1.5 7.688-19.12 13.81-45.09 10.17C170.9 305.6 158.1 301.9 148.4 298.5l-5.9-1.8c-11.7-4.6-23.9 2.8-27.5 14.4-3.625 11.59 2.875 23.92 14.47 27.53l5.656 1.797c12.28 3.891 26.19 8.281 39.59 10.06 7.25 1 14.3 1.484 20.96 1.484 39.56 0 67.42-17.28 73.2-46.81C278.7 255.1 227.8 242.3 197.3 234.6z"/></svg>