<svg xmlns="http://www.w3.org/2000/svg" viewBox="0 0 576 512"><!--! Font Awesome Pro 6.1.1 by @fontawesome - https://fontawesome.com License - https://fontawesome.com/license (Commercial License) Copyright 2022 Fonticons, Inc.--><path d="M71.1 255.1c0-7.9 8.06-16 16-16 9.74 0 16 8.1 16 16 0 9.7-6.26 16-16 16-7.94 0-16-6.3-16-16zm64-96c0 9.7-6.3 16-16 16-7.9 0-16-6.3-16-16 0-7.9 8.1-16 16-16 9.7 0 16 8.1 16 16zm-32 192.9c0-8.8 8.1-16 16-16 9.7 0 16 7.2 16 16s-6.3 16-16 16c-7.9 0-16-7.2-16-16zm452.5 23.9-57 22.2C507 409.9 512 424.4 512 440c0 39.8-32.2 72-72 72h-72c-22.3 0-43.3-10.3-57-28l-9.9-12.8C275.9 477 250 480 224 480 100.3 480 0 379.7 0 256S100.3 32 224 32c42.3 0 84.2 7.87 123.6 23.2l208 80.9c12.3 4.7 20.4 16.6 20.4 29.8v180.2c0 13.2-8.1 25.1-20.4 29.8zM223.1 79.1c-96.3 0-176 79.7-176 176 0 98.1 79.7 176.9 176 176.9 15.7 0 30-1.8 43.7-5.2l-59.7-76.1c-44.5-7.7-80-47.1-80-95.6 0-53 43-96 96-96 53.9 0 96.9 43 96.9 96 0 2.2-.9 3.6-.1 4.9l60 77.7c12.8-24.4 20.1-52.2 20.1-82.6 0-96.3-78.8-176-176.9-176zM440 368c1.1 0 2.2 0 3.4.1l84.6-32.9v-56.1h-81.3c-3.4 32.7-13.4 62.5-28.7 88.9h22zm88-136.9v-54.3l-118.2-45.9c19.9 29.5 33 63.9 36.9 100.2H528zm-304.9-24c-25.6 0-48 22.4-48 48 0 27.4 22.4 48 48 48 27.4 0 48-20.6 48-48 0-25.6-20.6-48-48-48zM368 464h72c13.3 0 24-10.7 24-24s-10.7-24-24-24h-60.2l-79.1-102.3c-9.7 12.9-22.6 22.4-37.5 30l85.8 111c4.6 5.9 11.6 9.3 19 9.3z"/></svg>