<svg xmlns="http://www.w3.org/2000/svg" viewBox="0 0 512 512"><!--! Font Awesome Pro 6.1.1 by @fontawesome - https://fontawesome.com License - https://fontawesome.com/license (Commercial License) Copyright 2022 Fonticons, Inc.--><path d="m259.7 86 49.66 20.63 20.62 49.67c1.125 2.25 3.498 3.707 5.998 3.707s4.876-1.457 6.001-3.707l20.62-49.67L412.219 86c2.375-1.125 3.748-3.502 3.748-6.002s-1.374-4.874-3.748-5.999L362.6 53.38 341.98 3.75C340.9 1.375 338.5 0 336 0c-2.5 0-4.872 1.375-5.997 3.75l-20.62 49.63-49.66 20.63c-2.25 1.125-3.712 3.499-3.712 5.999S257.5 84.88 259.7 86zM509 219.3l-39.62-16.63-16.62-39.63c-.875-1.875-2.751-3.003-4.751-3.003-1.1 0-3.874 1.128-4.749 3.003l-16.62 39.63L387 219.3c-1.875.875-3.002 2.746-3.002 4.746s1.127 3.879 3.002 4.754l39.62 16.63 16.62 39.63c.875 1.875 2.749 2.995 4.749 2.995 1.1 0 3.876-1.12 4.751-2.995l16.62-39.63 39.62-16.63c1.92-.9 3.02-2.8 3.02-4.8s-1.1-3.9-3-4.7zm-144.8 47.9-104.8-15.28-46.8-95.22c-3.9-7.9-11.9-12.9-20.7-12.8-8.7-.1-16.8 4.9-20.5 12.8l-46.9 94.4-104.79 16.1c-18.753 1.9-26.452 26-12.703 39.3l75.87 74-17.1 104.6C62.25 499.1 74.14 512 87.52 512c3.75 0 7.436-.83 10.69-2.705l93.79-49.38 93.74 49.38c7.75 4.125 17.25 3.386 24.25-1.739 7.125-5.125 10.62-13.79 9.119-22.41L301.2 380.5l75.92-74c13.48-13.2 5.98-37.4-12.92-39.3zm-114.7 96.6 13.62 79.5L192 405.8l-71.37 37.5 13.75-79.5-57.74-56.3 79.75-11.62L192 223.8l35.6 72.1 79.75 11.62-57.85 56.28z"/></svg>