<svg xmlns="http://www.w3.org/2000/svg" viewBox="0 0 640 512"><!--! Font Awesome Pro 6.1.1 by @fontawesome - https://fontawesome.com License - https://fontawesome.com/license (Commercial License) Copyright 2022 Fonticons, Inc.--><path d="M528 256c0 44.2-35.8 80-80 80s-80-35.8-80-80 35.8-80 80-80 80 35.8 80 80zm-80-32c-17.7 0-32 14.3-32 32s14.3 32 32 32 32-14.3 32-32-14.3-32-32-32zM0 96c0-35.35 28.65-64 64-64h128c35.3 0 64 28.65 64 64 0 35.3-28.7 64-64 64h-27.2l37.7 26.1 70.2-8.4C302.6 110.7 369.9 64 448 64c106 0 192 85.1 192 192 0 106-86 192-192 192-78.1 0-145.4-46.7-175.3-113.7l-70.2-8.4-37.7 26.1H192c35.3 0 64 28.7 64 64s-28.7 64-64 64H64c-35.35 0-64-28.7-64-64s28.65-64 64-64h16.5l50.1-34.7-13.7-1.7C86.72 312 64 286.4 64 256c0-30.4 22.72-56.9 52.9-59.6l13.7-1.7L80.5 160H64c-35.35 0-64-28.7-64-64zm64-16c-8.84 0-16 7.16-16 16 0 8.8 7.16 16 16 16h128c8.8 0 16-7.2 16-16 0-8.84-7.2-16-16-16H64zm48 176c0 6.1 4.6 11.3 10.6 11.1l135.5 17.1c-1.4-9.2-2.1-18.6-2.1-28.2 0-9.6.7-19.9 2.1-28.2L122.6 244c-6 .7-11.5 5.9-11.5 12h.9zM64 432h128c8.8 0 16-7.2 16-16s-7.2-16-16-16H64c-8.84 0-16 7.2-16 16s7.16 16 16 16zm384-32c79.5 0 144-64.5 144-144s-64.5-144-144-144-144 64.5-144 144 64.5 144 144 144z"/></svg>