<svg xmlns="http://www.w3.org/2000/svg" viewBox="0 0 640 512"><!--! Font Awesome Pro 6.1.1 by @fontawesome - https://fontawesome.com License - https://fontawesome.com/license (Commercial License) Copyright 2022 Fonticons, Inc.--><path d="M352 256v48c0 8.8-7.2 16-16 16h-32c-8.8 0-16-7.2-16-16v-48c0-17.7 14.3-32 32-32s32 14.3 32 32zM254.4 35.04C256.9 15.02 273.1 0 294.1 0h51.8c20.1 0 37.2 15.02 39.7 35.04l25.8 206.36c4-.9 8.3-1.4 12.6-1.4h32c30.9 0 56 25.1 56 56v56h56V168c-13.3 0-24-10.7-24-24s10.7-24 24-24V96c0-13.25 10.7-24 24-24s24 10.75 24 24v24c13.3 0 24 10.7 24 24s-10.7 24-24 24v280c0 13.3-10.7 24-24 24s-24-10.7-24-24v-2.7l-88 29.4v5.3c0 17.7-14.3 32-32 32s-32-14.3-32-32v-.6c-8.8-1.2-17-4.6-24-10.3-9.1 7.2-20.1 10.9-32 10.9h-80c-11.9 0-22.9-3.7-32-10.9-7 5.7-15.2 9.1-24 10.3v.6c0 17.7-14.3 32-32 32s-32-14.3-32-32v-5.3l-88-29.4v2.7c0 13.3-10.75 24-24 24s-24-10.7-24-24V168c-13.25 0-24-10.7-24-24s10.75-24 24-24V96c0-13.25 10.75-24 24-24s24 10.75 24 24v24c13.25 0 24 10.7 24 24s-10.75 24-24 24v184h56v-56c0-30.9 25.1-56 56-56h32c4.3 0 8.6.5 12.6 1.4l25.8-206.36zM368 424V281.5L338.8 48h-37.6l-30.1 233.5V424c0 4.4 4.5 8 8 8H360c4.4 0 8-3.6 8-8zm48-128v128c0 4.4 3.6 8 8 8h32c4.4 0 8-3.6 8-8V296c0-4.4-3.6-8-8-8h-32c-4.4 0-8 3.6-8 8zm-232-8c-4.4 0-8 3.6-8 8v128c0 4.4 3.6 8 8 8h32c4.4 0 8-3.6 8-8V296c0-4.4-3.6-8-8-8h-32z"/></svg>