<svg xmlns="http://www.w3.org/2000/svg" viewBox="0 0 512 512"><!--! Font Awesome Pro 6.1.1 by @fontawesome - https://fontawesome.com License - https://fontawesome.com/license (Commercial License) Copyright 2022 Fonticons, Inc.--><path d="m364.2 267.2-104.8-15.28-46.8-95.22c-3.9-7.9-11.9-12.8-20.7-12.8-8.748 0-16.69 4.913-20.56 12.79l-46.87 95.25L19.73 267.2C.858 269.1-6.742 293.1 7.006 306.5l75.874 74-17.1 104.6c-1.125 6.625.67 13.51 5.045 18.63C74.3 509 80.76 512 87.51 512c3.748 0 7.34-.956 10.72-2.706l93.77-49.38 93.75 49.38c3.375 1.75 6.903 2.685 10.65 2.685 6.748 0 13.2-2.98 17.57-8.23 4.375-5.125 6.274-11.98 5.149-18.61l-17.9-104.6 75.9-74C390.7 293.1 383.1 269.1 364.2 267.2zm-114.6 96.6 13.62 79.38-71.24-37.5-71.11 37.5 13.62-79.38-57.74-56.3 79.61-11.62 35.62-72.25 35.62 72.25 79.74 11.62-57.74 56.3zM311 200.1c4.7 5.6 10.9 7.9 17 7.9s12.28-2.344 16.97-7.031l160-160c9.375-9.375 9.375-24.56 0-33.94s-24.56-9.375-33.94 0l-160 160C301.7 176.4 301.7 191.6 311 200.1zM248 96a23.93 23.93 0 0 0 16.97-7.031l48-48c9.375-9.375 9.375-24.56 0-33.94s-24.56-9.375-33.94 0l-48 48c-9.375 9.375-9.375 24.56 0 33.94C235.7 93.66 241.9 96 248 96zm223 103-48 48c-9.375 9.375-9.375 24.56 0 33.94 4.7 4.76 10.9 7.06 17 7.06s12.28-2.344 16.97-7.031l48-48c9.375-9.375 9.375-24.56 0-33.94S480.4 189.7 471 199z"/></svg>