<svg xmlns="http://www.w3.org/2000/svg" viewBox="0 0 512 512"><!--! Font Awesome Pro 6.1.1 by @fontawesome - https://fontawesome.com License - https://fontawesome.com/license (Commercial License) Copyright 2022 Fonticons, Inc.--><path d="M259.7.286C271.4 2.103 280 12.17 280 24v352c0 7.4-3.4 14.4-9.3 18.9l-144 112c-8.3 6.5-19.8 6.8-28.43.8-8.62-6-12.33-17-9.14-27l50.97-160L9.267 218.9c-8.093-6.2-11.294-17-7.967-26.7A23.99 23.99 0 0 1 24 176h158.5l50.6-159.27c3.6-11.281 14-18.259 26.6-16.444zM232 178.6l-9.1 28.7c-3.2 9.9-12.4 16.7-22.9 16.7H93.95l88.75 69.1c8 6.1 11.2 16.6 8.2 26.2l-32.6 102.3 73.7-57.3V178.6z"/></svg>