<svg xmlns="http://www.w3.org/2000/svg" viewBox="0 0 512 512"><!--! Font Awesome Pro 6.1.1 by @fontawesome - https://fontawesome.com License - https://fontawesome.com/license (Commercial License) Copyright 2022 Fonticons, Inc.--><path d="m487.8 224.8-121.9-30.49 60.75-75.36c7.75-9.748 7.125-23.24-1.75-31.99-8.75-8.748-22.12-9.373-32-1.75l-75.5 60.49-30.25-121.5C283.5 9.998 270.8 0 256 0s-27.62 9.998-31.12 24.24l-30.5 121.1L119 85.48c-9.75-7.748-23.25-7.123-32 1.75-8.75 8.75-9.5 22.07-1.75 31.97l60.5 75.48-121.5 30.12C9.999 228.4 0 241.2 0 255.1c0 15.6 9.999 28.3 24.25 32l121.9 30.49-60.75 75.36c-7.75 9.748-7.125 23.24 1.75 31.99 4.625 4.749 10.75 7.123 16.75 7.123 5.375 0 10.62-1.875 15.12-5.374l75.5-60.49 30.38 121.5C228.4 502 241.2 512 255.9 512c14.75 0 27.62-9.997 31.25-24.37l30.5-121.7 75.38 60.73c4.5 3.499 9.75 5.374 15.12 5.374 6.125 0 12.12-2.374 16.75-7.123 8.875-8.748 9.5-22.24 1.75-31.99l-60.38-75.48 121.5-30.37C501.1 283.4 512 270.7 512 255.1c0-13.9-10.9-26.7-24.2-30.3zm-200.2 62.8L256 414l-31.6-126.4-126.5-31.62 126.5-31.62L256 97.85l31.62 126.5 126.5 31.62L287.6 287.6z"/></svg>