<svg xmlns="http://www.w3.org/2000/svg" viewBox="0 0 640 512"><!--! Font Awesome Pro 6.1.1 by @fontawesome - https://fontawesome.com License - https://fontawesome.com/license (Commercial License) Copyright 2022 Fonticons, Inc.--><path d="M118.5 7.624c9-9.689 24.2-10.213 33.9-1.169 9.7 9.045 10.2 24.235 1.1 33.925L50.15 151.2c-1.38 1.4-3.05 3.4-3.05 5.4v37.5l138.8-25.4C214.4 124.9 263.8 96 319.1 96c57.1 0 106.5 28.9 135 72.7L592 194.1v-37.5c0-2-.8-4-2.2-5.4L486.5 40.38c-9.1-9.69-8.6-24.88 1.1-33.925 9.7-9.044 24.9-8.52 33.9 1.169L624.9 118.4c9.7 10.4 15.1 24 15.1 38.2v198.8c0 14.2-5.4 27.8-15.1 38.2L521.5 504.4c-9 9.7-24.2 10.2-33.9 1.1-9.7-9-10.2-24.2-1.1-33.9l103.3-110.8c1.4-1.4 2.2-3.4 2.2-5.4V317l-137.9 26.3c-28.5 43.8-77.9 72.7-135 72.7-55.3 0-104.7-28.9-133.2-72.7L47.1 317v38.4c0 2 1.67 4 3.05 5.4L153.5 471.6c9.1 9.7 8.6 24.9-1.1 33.9-9.7 9.1-24.9 8.6-33.9-1.1L15.06 393.6C5.382 383.2 0 369.6 0 355.4V156.6c0-14.2 5.383-27.8 15.06-38.2L118.5 7.624zM48 268.1l115.7 22.1c-2.4-11-3.7-22.5-3.7-34.2 0-11.7 1.3-23.2 3.7-34.2L48 243.9v24.2zM480 256c0 11.7-1.3 23.2-3.7 34.2L592 268.1v-24.2l-115.7-22.1c2.4 11 3.7 22.5 3.7 34.2zm-204.1 66.7-23 23c14.7 11 32.1 18.5 51.1 21.2v-32.5c-10.2-2.1-19.7-6.1-28.1-11.7zM241.6 272h-32.5c2.7 18.1 10.2 36.4 21.2 51.1l23-23c-5.6-8.4-9.6-17.9-11.7-28.1zm11.7-60.1-23-23c-11 14.7-18.5 32.1-21.2 51.1h32.5c2.1-10.2 6.1-19.7 11.7-28.1zm50.7-34.3v-32.5c-19 2.7-36.4 10.2-51.1 21.2l23 23c8.4-5.6 17.9-9.6 27.2-11.7h.9zm32 189.3c18.1-2.7 36.4-10.2 51.1-21.2l-23-23c-8.4 5.6-17.9 9.6-28.1 11.7v32.5zm62.4-94.9c-2.1 10.2-6.1 19.7-11.7 28.1l23 23c11-14.7 18.5-33 21.2-51.1h-32.5zm32.5-32c-2.7-19-10.2-36.4-21.2-51.1l-23 23c5.6 8.4 9.6 17.9 11.7 28.1h32.5zM336 177.6c10.2 2.1 19.7 6.1 28.1 11.7l23-23c-14.7-11-33-18.5-51.1-21.2v32.5zm6.8 55.9-.3-.3c-5.7-5.6-13.6-9.1-22.3-9.2h-.4c-8.7.1-16.6 3.6-22.3 9.2l-.3.3c-5.7 5.8-9.2 13.7-9.2 22.5 0 17.7 14.3 32 32 32s32-14.3 32-32c0-8.8-3.5-16.7-9.2-22.5z"/></svg>