<svg xmlns="http://www.w3.org/2000/svg" viewBox="0 0 512 512"><!--! Font Awesome Pro 6.1.1 by @fontawesome - https://fontawesome.com License - https://fontawesome.com/license (Commercial License) Copyright 2022 Fonticons, Inc.--><path d="m435.6 256 55.1-89.38c14.87-24.25-3.62-54.61-33.12-54.61l-110.6-.005-57.87-93.1C281.7 6.003 268.9 0 256 0s-25.7 6.003-33.1 18L165 112H54.39c-29.62 0-47.99 30.37-33.12 54.62L76.37 256l-55.1 89.38c-14.871 24.22 3.5 53.72 33.12 53.72h110.6l57.87 93.1C230.3 505.1 243.1 512 256 512s25.74-6.002 33.12-18l57.83-93.1h110.7c29.62 0 47.99-30.36 33.12-54.61L435.6 256zm.5-96-29.4 49.1-30.2-49.1h59.6zm-58.2 96-59.12 96H193.3l-59.2-96 59.12-96h125.5l59.18 96zM256 58.12 289.2 112h-66.4L256 58.12zM75.01 160h60.5l-30.21 49.1L75.01 160zm0 192 30.29-49.1 30.2 49.1H75.01zM256 453.9 222.8 400h66.49L256 453.9zM376.5 352l30.25-49.13L436.1 352h-59.6z"/></svg>