<svg xmlns="http://www.w3.org/2000/svg" viewBox="0 0 576 512"><!--! Font Awesome Pro 6.1.1 by @fontawesome - https://fontawesome.com License - https://fontawesome.com/license (Commercial License) Copyright 2022 Fonticons, Inc.--><path d="M24 32c13.25 0 24 10.75 24 24v137.7l105.8-24.9C182.4 124.1 231.8 96 288 96c56.2 0 105.6 28.1 134.2 72.8L528 193.7V56c0-13.25 10.7-24 24-24s24 10.75 24 24v400c0 13.3-10.7 24-24 24s-24-10.7-24-24V318.3l-105.8 24.9C393.6 387 344.2 416 288 416c-56.2 0-105.6-29-134.2-72.8L48 318.3V456c0 13.3-10.75 24-24 24S0 469.3 0 456V56c0-13.25 10.75-24 24-24zm420.7 256.6 83.3-20.5V243l-83.3-19.6c2.2 10.5 3.3 21.4 3.3 32.6 0 11.2-1.1 22.1-3.3 32.6zm-313.4 0c-2.2-10.5-3.3-21.4-3.3-32.6 0-11.2 1.1-22.1 3.3-32.6L48 243v25.1l83.3 20.5zM272 366.9v-32.5c-10.2-2.1-19.7-6.1-28.1-11.7l-23 23c14.7 11 32.1 18.5 51.1 21.2zm-73.7-43.8 23-23c-5.6-8.4-9.6-17.9-11.7-28.1h-32.5c2.7 18.1 10.2 36.4 21.2 51.1zM177.1 240h32.5c2.1-10.2 6.1-19.7 11.7-28.1l-23-23c-11 14.7-18.5 32.1-21.2 51.1zm43.8-73.7 23 23c8.4-5.6 17.9-9.6 27.2-11.7v-32.5c-18.1 2.7-35.5 10.2-50.2 21.2zm111.2 156.4c-8.4 5.6-17.9 9.6-28.1 11.7v32.5c18.1-2.7 36.4-10.2 51.1-21.2l-23-23zm45.6.4c11-14.7 18.5-33 21.2-51.1h-32.5c-2.1 10.2-6.1 19.7-11.7 28.1l23 23zm-23-111.2c5.6 8.4 9.6 17.9 11.7 28.1h32.5c-2.7-19-10.2-36.4-21.2-51.1l-23 23zm.4-45.6c-14.7-11-33-18.5-51.1-21.2v32.5c10.2 2.1 19.7 6.1 28.1 11.7l23-23zm-44.5 112.3c5.8-5.8 9.4-13.8 9.4-22.6s-3.5-16.7-9.2-22.5l-.3-.3c-5.7-5.6-13.6-9.1-22.3-9.2h-.4c-8.7.1-16.6 3.6-22.3 9.2l-.3.3c-5.7 5.8-9.2 13.7-9.2 22.5 0 17.7 14.3 32 32 32 8.8 0 16.8-3.6 22.6-9.4z"/></svg>