<svg xmlns="http://www.w3.org/2000/svg" viewBox="0 0 576 512"><!--! Font Awesome Pro 6.1.1 by @fontawesome - https://fontawesome.com License - https://fontawesome.com/license (Commercial License) Copyright 2022 Fonticons, Inc.--><path d="M368.9 96c-27.38 0-51.88 23.71-62.63 60.33-6.25 21.38-26.75 106.2-173.1 169.1-82.13 35.75-9.75 88.54 95.75 88.54 72.75 0 161.3-25.21 225.5-98.33 38.13-43.5 32.75-125.9-11.62-176.5C417.9 111.6 391.6 96 368.9 96zM384 255.9c-17.63 0-32-14.25-32-32 0-17.63 14.38-32 32-32s32 14.38 32 32c0 17.7-14.4 32-32 32zM514.9 76.63C467.9 23.13 416.3 0 368.9 0 298.27 0 237 51.13 214.1 129.4 164.97 269.4 1.3 212.41 0 351.7-1.117 467.5 126.3 512 239.2 512c5.625 0 11.3-.108 16.8-.358 87.75-3.375 187.4-37.08 270.5-131.8C596.8 299.7 591.6 164 514.9 76.63zM490.4 348.1c-79.88 91-172.5 113.1-236.3 115.6-4.8.2-9.8.3-14.8.3-71.63 0-135.8-19.75-167.4-51.63-16.25-16.5-24.13-36.25-23.88-60.25.375-39.5 15-47.63 65.88-69.88 48.5-21.14 115-50.04 145.5-137.04l.375-1.125.375-1.25C277 85.25 319.8 48 368.9 48c37.25 0 75.38 20.88 110 60.38C539 176.9 544.4 286.8 490.4 348.1z"/></svg>