<svg xmlns="http://www.w3.org/2000/svg" viewBox="0 0 320 512"><!--! Font Awesome Pro 6.1.1 by @fontawesome - https://fontawesome.com License - https://fontawesome.com/license (Commercial License) Copyright 2022 Fonticons, Inc.--><path d="M96 224h136c13.3 0 24 10.7 24 24s-10.7 24-24 24H96v63.4c0 25.4-6.38 50.4-18.56 72.7L64.43 432H296c13.3 0 24 10.7 24 24s-10.7 24-24 24H24c-8.47 0-16.314-4.5-20.637-11.8-4.324-8.1-4.488-16.3-.432-23.7L35.3 385.2A104.1 104.1 0 0 0 48 335.4V272H24c-13.25 0-24-10.7-24-24s10.75-24 24-24h24v-64.8C48 88.97 104.1 32 175.2 32c13.7 0 27.3 2.2 40.3 6.53l80.1 26.7c12.6 4.19 18.5 17.79 15.2 30.36-4.2 12.61-18.7 18.51-30.4 15.21l-80.1-26.73c-8.1-2.7-16.5-4.07-25.1-4.07-43.7 0-79.2 35.5-79.2 79.2V224z"/></svg>