<svg xmlns="http://www.w3.org/2000/svg" viewBox="0 0 576 512"><!--! Font Awesome Pro 6.1.1 by @fontawesome - https://fontawesome.com License - https://fontawesome.com/license (Commercial License) Copyright 2022 Fonticons, Inc.--><path d="M480 128c-35.35 0-64 28.65-64 63.1 0 26.84 16.56 49.75 40 59.25V344c0 66.16-53.83 120-120 120-64.28 0-116.5-50.93-119.4-114.5C293.1 337.6 352 271.8 352 191.1v-134c0-9.094-5.141-17.41-13.27-21.47l-68-34c-11.83-5.007-26.23-.226-32.23 11.65-5.9 11.84-1.1 26.25 10.8 32.19L304 72.84V192c0 61.75-50.25 112-112 112S80 253.8 80 192V72.84l54.73-27.38c11.87-5.93 16.67-20.34 10.77-32.18-5.9-11.876-20.3-16.657-32.2-10.751l-68 34C37.14 40.59 32 48.9 32 57.1v134c0 80.2 59.51 146.2 136.6 157.6 3 90.9 76.7 163.3 167.4 163.3 92.64 0 168-75.38 168-168v-92.7c23.4-9.5 40-32.5 40-59.3 0-35.3-28.7-64-64-64zm0 80c-8.822 0-16-7.178-16-16s7.178-16 16-16 16 7.178 16 16-7.2 16-16 16z"/></svg>