<svg xmlns="http://www.w3.org/2000/svg" viewBox="0 0 384 512"><!--! Font Awesome Pro 6.1.1 by @fontawesome - https://fontawesome.com License - https://fontawesome.com/license (Commercial License) Copyright 2022 Fonticons, Inc.--><path d="M304.1 302.9c0 37.5-18.63 72.38-49.89 93.25l-81.9 54.5c-53.64 35.75-99.78-5.625-110.9-22.25-24.51-36.8-14.63-86.4 22.25-111l60.44-40.1V128H96.02v123.5l-39.01 26C-1.76 316.75-17.76 396.3 21.51 455c24.76 37 65.25 57 106.69 57 24.38 0 49.13-7 70.89-21.5L280.8 436c44.52-29.75 71.14-79.5 71.14-133.1L351.9 128h-47.8v174.9zM351.1 0H96.01c-17.6 0-32 14.4-32 32v32c0 17.6 14.4 32 32 32h255.1C369.6 96 384 81.6 384 64V32c0-17.6-14.4-32-32.9-32z"/></svg>