<svg xmlns="http://www.w3.org/2000/svg" viewBox="0 0 512 512"><!--! Font Awesome Pro 6.1.1 by @fontawesome - https://fontawesome.com License - https://fontawesome.com/license (Commercial License) Copyright 2022 Fonticons, Inc.--><path d="M397.9 96.75c-56.3-6-105.7 25.05-128.4 71.25H256c-39.8 0-72-32.2-72-72V23.1c0-13.25-10.75-24-23.1-24S136 10.75 136 23.1V96c0 66.27 53.73 120 120 120h.75c-.15 2.8-.75 5.2-.75 7.1v63.1c0 41.6-32.2 73.8-72 73.8h-64C53.73 360 0 413.7 0 479.1v8.003C0 501.3 10.75 512 23.1 512S48 501.3 48 488v-9.125c0-51.69 59.98-80.25 100.1-47.66l41.14 33.41c28.42 23.08 62.02 39.93 98.25 45.22C408.1 527.4 512 434 512 316.8v-87.06c0-66.44-48.1-125.94-114.1-132.99zM316.8 464c-33.7 0-66.7-11.8-92.8-33l-29-23.5c46.63-4.25 85.38-35.25 101.2-77.5l.25.75c24.25-9.125 54.38-5.75 73 8.375 20.12 15.25 46.75 23.12 73.5 23.12 4.5 0 9-.625 13.38-1.125C437.5 420.5 382.4 464 316.8 464zM464 311.1c-22.75 6-48.75 2.5-65.5-10.25-25.4-19.05-61-26.65-94.5-21.35V224c0-44.12 35.88-80 80-80s80 35.88 80 80v87.1z"/></svg>