<svg xmlns="http://www.w3.org/2000/svg" viewBox="0 0 448 512"><!--! Font Awesome Pro 6.1.1 by @fontawesome - https://fontawesome.com License - https://fontawesome.com/license (Commercial License) Copyright 2022 Fonticons, Inc.--><path d="M236 256c0-28.7 23.3-52 52-52s52 23.3 52 52v96c0 28.7-23.3 52-52 52s-52-23.3-52-52v-96zm52-12c-6.6 0-12 5.4-12 12v96c0 6.6 5.4 12 12 12s12-5.4 12-12v-96c0-6.6-5.4-12-12-12zm-133.9 10.3c-2.6 10.5-13.9 16.2-24.4 11.8-10.5-2.6-16.2-13.9-12.7-24.4l.6-1.8c7.2-21.4 27.2-36.8 49.9-36.8 29 0 52.5 24.4 52.5 53.4v2.3c0 13.4-4.9 26.3-13.8 36.4l-39.1 43.9c-6.2 7-10 15.7-10.9 24.9H200c11 0 20 8.1 20 20 0 11-9 20-20 20h-64c-11.9 0-20-9-20-20v-15.7c0-20.5 7.6-40.4 21.2-55.8l39.1-43.9c2.4-2.7 3.7-6.2 3.7-9.8v-2.3c0-6.9-5.6-13.4-12.5-13.4-5.4 0-10.2 4.4-11.9 9.5l-1.5 1.7zM280 0c13.3 0 24 10.75 24 24s-10.7 24-24 24h-32v49.37c43.4 5.03 82.8 23.33 113.8 50.83L391 119c9.4-9.3 24.6-9.3 33.1 0 10.2 9.4 10.2 24.6 0 33.1L393.9 184c24 33.9 38.1 75.3 38.1 120 0 114.9-93.1 208-208 208S16 418.9 16 304c0-106.8 80.43-194.7 184-206.63V48h-32c-13.3 0-24-10.75-24-24s10.7-24 24-24h112zm-56 144c-88.4 0-160 71.6-160 160s71.6 160 160 160 160-71.6 160-160-71.6-160-160-160z"/></svg>