<svg xmlns="http://www.w3.org/2000/svg" viewBox="0 0 576 512"><!--! Font Awesome Pro 6.1.1 by @fontawesome - https://fontawesome.com License - https://fontawesome.com/license (Commercial License) Copyright 2022 Fonticons, Inc.--><path d="M483.4 224c-19.6 0-37.6-6.5-52.1-17.2-4.8-3.5-9.1-7.4-13-11.8-3.9 4.3-8.2 8.2-12.9 11.7-14.5 10.8-32.6 17.3-52.3 17.3-19.6 0-37.5-6.4-52-17.9-4.8-2.7-9.2-6.7-13.2-11.1-4 4.4-8.4 8.4-13.2 11.1-14.5 11.5-32.4 17.9-52 17.9-19.5 0-37.5-6.4-52-17.9-4.8-2.7-9.2-6.7-13.1-11.1-4 4.4-8.5 8.4-13.3 11.1-14.4 11.5-33.2 17-51.89 17.9h-.05c-4.06 0-8.15-.3-12.12-.8-55.32-7.4-81.495-72.6-51.91-119.4l57.33-90.67C90.76 4.979 99.87 0 109.6 0h356.8c9.7 0 18.8 4.978 23.9 13.13l57.3 90.67c29.7 46.9 3.4 112-52.1 119.4-3.9.5-7.9-.1-12 .8h-.1zM455.6 48H120.4l-51.49 81.5c-5.79 9.1-6.34 20.4-2.26 30.1 3.92 9.2 11.02 14.8 19.91 16 2.01.3 3.98.4 5.8.4 11.84 0 22.24-5.1 29.54-13.2 9.1-10 21.2-15.8 35.7-15.8 13.5 0 26.5 5.8 35.6 15.8 7.3 8.1 17.7 13.2 29.5 13.2 11.9 0 21.4-5.1 29.6-13.2 9.1-10 22-15.8 35.6-15.8 13.6 0 26.5 5.8 35.6 15.8 7.3 8.1 17.8 13.2 29.6 13.2s22.2-5.1 29.5-13.2c9.1-10 22-15.8 35.6-15.8 13.5 0 26.5 5.7 35.6 15.8 7.4 8.1 17.9 13.2 29.6 13.2 2 0 3.9-.1 5.9-.4 9-1.2 16.1-6.8 20-16 4.1-10.5 3.6-20.9-2.2-30.1L455.6 48zm8.4 288v-81.6c6.3 1.1 12.8 1.6 19.4 1.6 5.6 0 11-.4 16.3-1.1 3.4-.5 8.3-1.3 12.3-2.3V448c0 35.3-28.7 64-64 64H128c-35.34 0-64-28.7-64-64V252.6c3.87 1 7.86 1.8 11.97 2.3h.12c5.26.7 10.74 1.1 16.27 1.1 6.7 0 13.24-.6 19.64-1.6V336h352zm0 48H112v64c0 8.8 7.2 16 16 16h320c8.8 0 16-7.2 16-16v-64z"/></svg>