<svg xmlns="http://www.w3.org/2000/svg" viewBox="0 0 640 512"><!--! Font Awesome Pro 6.1.1 by @fontawesome - https://fontawesome.com License - https://fontawesome.com/license (Commercial License) Copyright 2022 Fonticons, Inc.--><path d="m94.92 49.09 22.78-35.96C122.8 4.98 131.9.001 141.6.001h356.8c9.7 0 18.8 4.978 23.9 13.129l57.3 90.67c29.7 46.9 3.4 112-52.1 119.4-3.9.5-7.9.8-12.1.8-19.6 0-37.6-6.5-52.1-17.2-4.8-3.5-9.1-7.4-13-11.8-3.9 4.3-8.2 8.2-12.9 11.7-14.5 10.8-32.6 17.3-52.3 17.3-19.6 0-37.5-6.4-52-17.9-4.8-2.7-9.2-6.7-13.2-11.1-4 4.4-8.4 8.4-13.2 11.1-1.8 2.2-3.7 3.5-5.5 4.6L460.1 336H496v-81.6c6.3 1.1 12.8 1.6 19.4 1.6 5.6 0 11-.4 16.3-1.1 3.4-.5 8.3-1.3 12.3-2.3v148.5l86.8 68c10.4 8.2 12.3 23.3 4.1 33.7-8.2 10.4-23.3 12.3-33.7 4.1L9.196 42.89C-1.236 34.71-3.065 19.63 5.112 9.196 13.29-1.236 28.37-3.065 38.81 5.112L94.92 49.09zm37.98 29.77 123.9 97.04c11-.5 20.6-5.5 27.5-13.1 9.1-10 22-15.8 35.6-15.8 13.6 0 26.5 5.8 35.6 15.8 7.3 8.1 17.8 13.2 29.6 13.2s22.2-5.1 29.5-13.2c9.1-10 22-15.8 35.6-15.8 13.5 0 26.5 5.7 35.6 15.8 7.4 8.1 17.9 13.2 29.6 13.2 2 0 3.9-.1 5.9-.4 9-1.2 16.1-6.8 20-16 4.1-10.5 3.6-20.9-2.2-30.1L487.6 48H152.4l-19.5 30.86zm-84 55.64 106.4 83.9c-9.6 3.6-20 5.6-30.9 5.6-4.1 0-8.2-.3-12.2-.8-43.84-5.9-69.38-48.1-63.3-88.7zM144 384v64c0 8.8 7.2 16 16 16h307.1l47.8 37.7c-10.1 6.5-22 10.3-34.9 10.3H160c-35.3 0-64-28.7-64-64V252.6c3.87 1 7.9 1.8 11.1 2.3h1c5.2.7 10.7 1.1 16.3 1.1 6.7 0 13.2-.5 19.6-1.6V336h160.6l60.9 48H144z"/></svg>