<svg xmlns="http://www.w3.org/2000/svg" viewBox="0 0 512 512"><!--! Font Awesome Pro 6.1.1 by @fontawesome - https://fontawesome.com License - https://fontawesome.com/license (Commercial License) Copyright 2022 Fonticons, Inc.--><path d="M206.1 290c-17.82 0-38.41 20.75-38.41 38.41 0 6.051 3.156 14.97 14.97 14.97 17.83 0 38.41-20.74 38.41-38.41.03-11.77-7.97-14.97-14.97-14.97zm-81.3 30.9c-17.82 0-38.4 20.74-38.4 38.4 0 11.82 8.91 14.97 14.97 14.97 17.8 0 38.4-20.72 38.4-38.4-.07-5.97-3.17-14.97-14.97-14.97zm4.8-31.4c17.81 0 38.4-20.73 38.4-38.4 0-11.82-8.908-14.97-14.97-14.97-17.81 0-38.4 20.73-38.4 38.4-.03 5.97 3.17 14.97 14.97 14.97zm28.3-84.9c17.8 0 38.4-20.72 38.4-38.4 0-6.039-3.139-14.97-14.97-14.97-17.8 0-38.4 20.72-38.4 38.41-.03 11.86 8.87 14.96 14.97 14.96zm56.6 56.6c17.82 0 38.4-20.74 38.4-38.4 0-6.039-3.139-14.97-14.97-14.97-17.81 0-38.4 20.73-38.4 38.4-.03 11.77 8.87 14.97 14.97 14.97zm-38.8 110.6c-17.82 0-38.41 20.75-38.41 38.41 0 11.82 8.908 14.97 14.97 14.97 17.8 0 38.4-20.72 38.4-38.41-.06-11.77-8.96-14.97-14.96-14.97zm123.7-254.4C273.2 90.67 235.5 64 189.7 64 108.6 64 0 155 0 328.7 0 469.7 34.14 512 183.3 512 357.5 512 448 402.7 448 322.3c0-45.81-26.67-83.47-53.4-109.7l-95.2-95.2zM183.3 464C53.8 464 48.2 434.21 48.2 326.9 48.19 192 128.9 112 189.7 112c30.69 0 58.01 21.23 75.81 39.34l95.45 95.45c28.92 28.43 39.15 53.66 39.15 75.85C400.1 363.4 345.5 464 183.3 464zm162.1-148.7c-17.8 0-38.4 20.72-38.4 38.41 0 11.81 8.904 14.97 14.97 14.97 17.82 0 38.4-20.74 38.4-38.4-.07-6.08-3.17-14.98-14.97-14.98zm-56.6-56.6c-17.8 0-38.41 20.72-38.41 38.41 0 6.051 3.156 14.97 14.97 14.97 17.82 0 38.41-20.74 38.41-38.4.03-6.08-3.17-14.98-14.97-14.98zm-28.3 84.9c-17.81 0-38.4 20.73-38.4 38.4 0 6.037 3.139 14.97 14.97 14.97 17.81 0 38.4-20.73 38.4-38.4.03-6.07-3.07-14.97-14.97-14.97zm186.9-234.7c26.14-27.63 48.64-64.69 48.64-84.88 0-13.35-10.89-24.05-24.11-24.05-32.46 0-16.75 44.21-66.63 82.54C403.6 43.24 373.6 0 360.3 0 347.8 0 320 38.39 320 78.36c0 1.779.047 3.584.144 5.416.057 3.66.844 6.91 1.26 10.38.278.281.569.514.846.797l94.97 94.98c.235.23.43.473.662.703 3.355.39 6.5 1.164 10.02 1.209 1.898-.745 3.798.155 5.598.155 37.6 0 78.5-27.1 78.5-40.4 0-11.8-34.9-36.2-64.6-42.7z"/></svg>