<svg xmlns="http://www.w3.org/2000/svg" viewBox="0 0 512 512"><!--! Font Awesome Pro 6.1.1 by @fontawesome - https://fontawesome.com License - https://fontawesome.com/license (Commercial License) Copyright 2022 Fonticons, Inc.--><path d="M184 72c0-39.76 32.2-72 72-72s72 32.24 72 72c0 39.8-32.2 72-72 72s-72-32.2-72-72zm72 24c13.3 0 24-10.75 24-24s-10.7-24-24-24-24 10.75-24 24 10.7 24 24 24zM144 240c0-44.2 35.8-80 80-80h64c44.2 0 80 35.8 80 80v40c0 22.5-15.4 41.3-36.3 46.6l-6.2 55.6c-3.1 28.3-27.1 49.8-55.6 49.8h-27.8c-28.5 0-52.5-21.5-55.6-49.8l-6.2-55.6c-20.9-5.3-36.3-24.1-36.3-47.5V240zm80.3 48.1 9.9 88.8c.4 4 3.8 7.1 7.9 7.1h27.8c3.2 0 7.5-3.1 7.9-7.1l9.9-88.8 31.4-8.1.9-40c0-17.7-14.3-32-32-32h-64c-17.7 0-32 14.3-32 32v40l32.3 8.1zM63.27 414.7c-3.18 1.6-5.8 3.1-7.94 4.5-3.63 2.4-3.61 7.2.01 9.6 8.81 5.8 23.14 11.8 42.99 17.3C137.7 456.1 193.5 464 256 464c62.5 0 118.3-7.9 157.7-17.9 19.8-5.5 34.2-11.5 43-17.3 3.6-2.4 3.6-7.2 0-9.6-2.2-1.4-4.8-2.9-8-4.5-15.3-8.6-38.8-14.9-69-20.5-13.1-2.4-21.7-14.9-19.3-27.9 2.4-13 14.9-21.7 27.9-19.3 32.5 5.9 60.9 14.2 82 24.8 10.5 5.3 20.3 11.7 27.7 19.6 7.6 8.1 14 19.1 14 32.6 0 21.4-15.5 36.1-29.1 45-14.7 9.6-34.3 17.3-56.5 23.4C381.8 504.7 321.6 512 256 512c-65.6 0-125.8-7.3-170.43-19.6-22.13-6.1-41.78-13.8-56.45-23.4C15.46 460.1 0 445.4 0 424c0-13.5 6.376-24.5 13.96-32.6 7.48-7.9 17.28-14.3 27.76-19.6 21.03-10.6 49.52-18.9 81.98-24.8 13-2.4 25.5 6.3 27.9 19.3 1.5 13-6.2 25.5-19.3 27.9-30.2 5.6-53.73 11.9-69.03 20.5z"/></svg>