<svg xmlns="http://www.w3.org/2000/svg" viewBox="0 0 512 512"><!--! Font Awesome Pro 6.1.1 by @fontawesome - https://fontawesome.com License - https://fontawesome.com/license (Commercial License) Copyright 2022 Fonticons, Inc.--><path d="M256 16C123.5 16 16 123.5 16 256s107.5 240 240 240 240-107.5 240-240S388.5 16 256 16zm0 432c-105.9 0-192-86.13-192-192S150.13 64 256 64s192 86.13 192 192-86.1 192-192 192zm160.1-225c-8.2-9-22.5-9.1-31.9-.7L353.9 192l15.03-15.03c9.375-9.375 9.375-24.56 0-33.94s-24.56-9.375-33.94 0L320 158.1l-30.26-30.26c8.369-9.426 8.258-23.74-.773-32.77-9.067-9.13-23.567-9.22-32.967-.68-9.4-8.54-23.9-8.45-33 .64-9.9 9.07-9.1 23.37-.7 32.77L192 158.1 176.1 143c-9.375-9.375-24.56-9.375-33.94 0s-9.375 24.56 0 33.94L158.1 192l-30.3 30.3c-9.4-8.4-23.7-8.3-32.77.7-9.09 9.1-9.18 23.6-.64 33-8.54 9.4-8.45 23.9.64 32.1 4.69 5.6 10.87 7.9 16.97 7.9 5.689 0 11.27-2.232 15.8-6.258L158.1 320l-15.03 15.03c-9.375 9.375-9.375 24.56 0 33.94C147.7 373.7 153.9 376 160 376s12.28-2.344 16.97-7.031L192 353.9l30.26 30.26c-8.369 9.426-8.258 23.74.773 32.77C227.7 421.7 233.9 424 240 424c5.766 0 11.44-2.256 16-6.389 4.6 4.089 10.2 6.389 16 6.389a23.93 23.93 0 0 0 16.97-7.031c9.031-9.031 9.143-23.35.773-32.77L320 353.9l15.03 15.03C339.7 373.7 345.9 376 352 376s12.28-2.344 16.97-7.031c9.375-9.375 9.375-24.56 0-33.94L353.9 320l30.26-30.26C388.7 293.8 394.3 296 400 296a23.93 23.93 0 0 0 16.97-7.031c9.13-9.069 9.13-23.569.63-32.969 8.5-9.4 8.5-23.9-1.5-33zM192 286.1 161.9 256l30.1-30.1 30.1 30.1-30.1 30.1zm64 64L225.9 320l30.1-30.1 30.1 30.1-30.1 30.1zm0-128L225.9 192l30.1-30.1 30.1 30.1-30.1 30.1zm64 64L289.9 256l30.1-30.1 30.1 30.1-30.1 30.1z"/></svg>