<svg xmlns="http://www.w3.org/2000/svg" viewBox="0 0 512 512"><!--! Font Awesome Pro 6.1.1 by @fontawesome - https://fontawesome.com License - https://fontawesome.com/license (Commercial License) Copyright 2022 Fonticons, Inc.--><path d="M176 320h48v48c0 8.8 7.2 16 16 16h32c8.836 0 16-7.164 16-16v-48h48c8.836 0 16-7.164 16-16v-32c0-8.8-7.2-16-16-16h-48v-48c0-8.8-7.2-16-16-16h-32c-8.8 0-16 7.2-16 16v48h-48c-8.8 0-16 7.2-16 16v32c0 8.8 7.2 16 16 16zM448 96h-64V64c0-35.35-28.65-64-64-64H192c-35.3 0-64 28.65-64 64v32H64c-35.35 0-64 28.7-64 64v256c0 35.35 28.65 64 64 64h384c35.35 0 64-28.65 64-64V160c0-35.3-28.7-64-64-64zM176 64c0-8.838 7.164-16 16-16h128c8.836 0 16 7.162 16 16v32H176V64zM80 432H64c-8.801 0-16-7.201-16-16V160c0-8.801 7.199-16 16-16h16v288zm304 0H128V144h256v288zm80-16c0 8.799-7.199 16-16 16h-16V144h16c8.801 0 16 7.199 16 16v256z"/></svg>