<svg xmlns="http://www.w3.org/2000/svg" viewBox="0 0 448 512"><!--! Font Awesome Pro 6.1.1 by @fontawesome - https://fontawesome.com License - https://fontawesome.com/license (Commercial License) Copyright 2022 Fonticons, Inc.--><path d="M296.2 336h-144c-13.2 0-24 10.8-24 24s10.8 24 24 24h144c13.2 0 24-10.8 24-24s-10.8-24-24-24zm0-112h-144c-13.2 0-24 10.8-24 24s10.8 24 24 24h144c13.2 0 24-10.8 24-24s-10.8-24-24-24zm55.9-96h-32.07l.012-80c0-26.51-21.49-48-48-48h-96c-26.51 0-48 21.49-48 48L128 128H96.12c-35.35 0-64 28.65-64 64v224c0 35.35 28.58 64 63.93 64 0 17.67 14.4 32 32.07 32s31.94-14.33 31.94-32h128c0 17.67 14.39 32 32.06 32s31.93-14.33 31.93-32c35.35 0 64.07-28.65 64.07-64V192c-.02-35.3-28.62-64-64.02-64zm-176-80h96v80h-96V48zm192.1 368c0 8.836-7.164 16-16 16h-256c-8.836 0-16-7.164-16-16V192c0-8.838 7.164-16 16-16h256c8.836 0 16 7.162 16 16v224z"/></svg>