<svg xmlns="http://www.w3.org/2000/svg" viewBox="0 0 640 512"><!--! Font Awesome Pro 6.1.1 by @fontawesome - https://fontawesome.com License - https://fontawesome.com/license (Commercial License) Copyright 2022 Fonticons, Inc.--><path d="M87.1 336h320c13.2 0 24-10.8 24-23.1 0-13.2-10.8-23.1-24-23.1h-320C74.8 288 64 298.8 64 312s10.8 24 23.1 24zM616 288H504c-13.2 0-24 10.8-24 23.1s10.8 23.1 24 23.1h112c13.2 0 24-10.8 24-23.1S629.2 288 616 288zM200 464H87.1C74.8 464 64 474.8 64 488s10.8 24 23.1 24h112c14.1 0 24.9-10.8 24.9-24s-10.8-24-24-24zm416 0H296c-13.2 0-24 10.8-24 23.1s10.8 24.9 24 24.9h320c13.2 0 24-10.8 24-23.1S629.2 464 616 464zm-40-64c0-13.2-10.8-23.1-24-23.1H24C10.8 376 0 386.8 0 400c0 13.2 10.8 23.1 23.1 23.1h528c14.1.9 24.9-9.9 24.9-23.1zM194.8 203.5l-17.7-91.2 91 17.62L320 53.03l51.88 76.87 91-17.62-17.63 91.12 54 36.62h73.5c-3-7.25-7.875-13.62-14.5-18.12l-59.75-40.5 13.75-70.1c2.5-13.12-1.625-26.75-11.12-36.37-9.625-9.499-23.25-13.75-36.25-11.12L394 77.56l-40.37-59.87c-15.12-22.37-51.87-22.37-67 0L246.2 76.65 175.4 62.9c-13.25-2.625-26.75 1.625-36.25 11.12-9.55 9.63-13.75 23.13-11.15 36.28l13.75 70.1-59.87 41.4c-6.63 4.5-11.38 11-14.38 18.1h73.38l53.92-36.4zm22.8 36.5h49c6.9-23 28.2-40 53.4-40s46.5 16.1 53.38 39.1h49C414.6 190.3 371.9 152 320 152s-94.6 38.3-102.4 88z"/></svg>