<svg xmlns="http://www.w3.org/2000/svg" viewBox="0 0 512 512"><!--! Font Awesome Pro 6.1.1 by @fontawesome - https://fontawesome.com License - https://fontawesome.com/license (Commercial License) Copyright 2022 Fonticons, Inc.--><path d="m400.8 62.9-70.88 13.75-40.42-59.87c-15.12-22.37-51.88-22.37-67 0l-40.4 59.87-70.8-13.75C97.1 60.4 84.5 64.53 75 74.15c-9.5 9.63-13.75 23.13-11.12 36.25l13.75 70.1L17.75 221C6.625 229.5 0 242 0 255.5s6.75 25.1 17.75 33.5l59.88 40.5-13.75 70.1c-2.63 14.2 1.62 27.7 11.12 37.2l38.38-38.12 17.38-91.12-76.88-52.06 76.88-51.1-17.66-92.1 91 17.62L256 53.03l51.88 76.87 91-17.62-.125 1 38.75-38.75c-.25-.25-.25-.375-.375-.5-9.63-9.5-23.33-13.63-36.33-11.13zM256 200c15.38 0 29.38 6.25 39.63 16.38l33.88-33.87C310.8 163.8 284.8 152 256 152c-57.25 0-104 46.75-104 103.1 0 28.75 11.75 54.75 30.5 73.49l33.88-33.87C206.3 285.4 200 271.4 200 256c0-30.9 25.1-56 56-56zm-96 248c-17.75 0-32 14.25-32 32s14.25 32 32 32 32-14.25 32-32-14.2-32-32-32zm320-256c17.75 0 32-14.25 32-32s-14.25-32-32-32-32 14.25-32 32 14.3 32 32 32zm-160 96c-17.75 0-32 14.25-32 32s14.25 32 32 32 32-14.25 32-32-14.2-32-32-32zm80-80c-17.75 0-32 14.25-32 32s14.25 32 32 32 32-14.25 32-32-14.2-32-32-32zM240 368c-17.75 0-32 14.25-32 32s14.25 32 32 32 32-14.25 32-32-14.2-32-32-32zm240 80c-17.75 0-32 14.25-32 32s14.25 32 32 32 32-14.25 32-32-14.2-32-32-32zm-80-80c-17.75 0-32 14.25-32 32s14.25 32 32 32 32-14.25 32-32-14.2-32-32-32zm-80 80c-17.75 0-32 14.25-32 32s14.25 32 32 32 32-14.25 32-32-14.2-32-32-32zm160-160c-17.75 0-32 14.25-32 32s14.25 32 32 32 32-14.25 32-32-14.2-32-32-32z"/></svg>