<svg xmlns="http://www.w3.org/2000/svg" viewBox="0 0 640 512"><!--! Font Awesome Pro 6.1.1 by @fontawesome - https://fontawesome.com License - https://fontawesome.com/license (Commercial License) Copyright 2022 Fonticons, Inc.--><path d="M191.1 159.1c0 18.6-13.4 32-32 32-16.8 0-32-13.4-32-32 0-16.8 15.2-32 32-32 18.6 0 32 15.2 32 32zM160-.156c8.5 0 16.2 4.398 20.6 11.596l24.3 40.23 45.6-11.27c8.2-2.02 16.8.38 22.7 6.33 6 5.94 8.4 14.56 6.4 22.72l-11.3 45.65 40.2 24.3c7.2 4.3 11.6 12.1 11.6 20.5s-4.4 16.2-11.6 20.6l-40.2 24.3 11.3 45.6c2 8.1-.4 16.8-6.4 22.7-5.9 6-14.5 8.4-22.7 6.3l-45.6-11.2-24.3 40.2c-4.4 7.2-12.1 10.7-20.6 10.7-8.4 0-16.2-3.5-20.5-10.7l-24.3-40.2-45.61 11.2c-8.16 2.1-16.78-.3-22.72-6.3-5.95-5.9-8.35-14.6-6.33-22.7l11.27-45.6-40.23-24.3C4.386 176.1-.012 168.3-.012 159.9c0-8.4 4.398-16.2 11.592-20.5l40.23-24.3-11.27-45.65c-2.02-8.16.38-16.78 6.33-22.72a23.963 23.963 0 0 1 22.72-6.33l45.61 11.27 24.3-40.23C143.8 4.242 151.6-.156 160-.156zm0 70.436-12.8 21.33c-5.5 8.99-16.1 13.39-26.3 10.89l-24.23-5.97 5.93 24.17c2.6 10.2-1.8 20.9-10.85 26.3l-21.34 12.9 21.34 12.9c9.05 5.4 13.45 16.1 10.85 26.3l-5.93 24.2 24.23-6c10.2-2.5 20.8 1.9 26.3 10.9l12.8 21.4 12.9-21.4c5.5-9 16.1-13.4 26.3-10.9l24.2 6-6-24.2c-2.5-10.2 1.9-20.9 10.9-26.3l21.4-12.9-21.4-12.9c-9-5.4-13.4-16.1-10.9-26.3l6-24.17-24.2 5.97c-10.2 2.5-20.8-1.9-26.3-10.89L160 70.28zM504 463.1h112c13.3 0 24 11.6 24 24 0 14.2-10.7 24-24 24H23.1c-12.36 0-23.101-9.8-23.101-24 0-12.4 10.741-24 23.101-24H456v-192c0-16.8-14.3-32-32-32s-32 15.2-32 32v22.3c14.8 7.7 24 23.1 24 44.6 0 19.3-21.5 52.1-48 77.1-26.5-25-48.9-57.5-48.9-77.1 0-21.5 10.1-36.9 24.9-44.6v-22.3c0-43.3 35.8-80 80-80 11.4 0 22.2 3.3 32 7.6v-23.6c0-43.3 35.8-80 80-80s80 36.7 80 80v54.3c14.8 7.7 24 23.1 24 44.6 0 19.3-21.5 52.1-48 77.1-26.5-25-48-57.5-48-77.1 0-21.5 9.2-36.9 24-44.6v-54.3c0-16.8-14.3-32-32-32s-32 15.2-32 32v288z"/></svg>