<svg xmlns="http://www.w3.org/2000/svg" viewBox="0 0 576 512"><!--! Font Awesome Pro 6.1.1 by @fontawesome - https://fontawesome.com License - https://fontawesome.com/license (Commercial License) Copyright 2022 Fonticons, Inc.--><path d="m551.1 463.1-59.6.9 29.38-44.75c7.375-11.12 8.75-25.25 3.625-37.75-5.25-12.38-16.12-21.5-29.25-24.25l-70.75-14.5L410 272c-2.75-13.25-11.75-24.25-24.25-29.38a39.864 39.864 0 0 0-37.63 3.625L287.8 286l-60.2-39.9c-22.5-14.88-56.5-.875-61.88 25.62l-14.5 70.88L80.63 357c-13.38 2.75-24.12 11.75-29.38 24.25-5 12.5-3.75 26.5 3.75 37.75l29.75 45-60.75-.006C10.8 463.1 0 474.8 0 487.1S10.8 512 24 512h527.1c14.1 0 24.9-10.8 24.9-24.9s-10.8-24-24.9-24zm-316.5.9c4.625-15.62 16-29 32.13-35.75 28.5-11.75 61.5 1.875 73.25 30.38.75 1.75 1.125 3.625 1.625 5.375H234.6zm199.4 0h-43.25c-1.25-8-3.125-16-6.375-23.75-21.88-53-82.88-78.25-135.9-56.38C213.8 398.3 191.1 429.4 185.8 464h-43.5l-40.88-62.13 90.88-18.62 18.5-90.88 77.38 51.25 77.25-51.13 18.75 90.88 90.75 18.75L434 464zM224.1 120.1 264 81.94V200c0 13.3 10.8 24 24 24s24-10.75 24-24V81.94l39.03 39.03C355.7 125.7 361.9 128 368 128s12.28-2.344 16.97-7.031c9.375-9.375 9.375-24.56 0-33.94l-80-80c-9.375-9.375-24.56-9.375-33.94 0l-80 80c-9.375 9.375-9.375 24.56 0 33.94s24.57 9.331 33.07-.869z"/></svg>