<svg xmlns="http://www.w3.org/2000/svg" viewBox="0 0 576 512"><!--! Font Awesome Pro 6.1.1 by @fontawesome - https://fontawesome.com License - https://fontawesome.com/license (Commercial License) Copyright 2022 Fonticons, Inc.--><path d="M551.1 463.1h-59.6l29.38-44.75c7.375-11.12 8.75-25.25 3.625-37.75-5.25-12.38-16.12-21.5-29.25-24.25l-70.75-14.5L409.1 272c-2.75-13.25-11.75-24.25-24.25-29.38a39.864 39.864 0 0 0-37.63 3.625L287.8 286l-60.2-39.9c-22.5-14.88-56.5-.875-61.88 25.62l-14.5 70.87-70.59 13.51c-13.38 2.75-24.12 11.75-29.38 24.25-5 12.5-3.75 26.5 3.75 37.75l29.75 45-60.75-.005C10.8 463.1 0 474.8 0 487.1c0 14.1 10.8 24 24 24h527.1c14.1 0 24.9-9.9 24.9-24 0-12.3-10.8-24-24.9-24zm-316.5 0c4.625-15.62 16-29 32.13-35.75 28.5-11.75 61.5 1.875 73.25 30.38.75 1.75 1.125 3.625 1.625 5.375H234.6zm198.5 0h-43.25c-1.25-8-3.125-16-6.375-23.75-21.88-53-82.88-78.25-135.9-56.38-34.75 14.38-57.38 45.5-62.75 80.13h-43.5l-40.88-62.13 90.88-18.62 18.5-90.87 77.38 51.25 77.25-51.12 18.75 90.87 90.75 18.75L433.1 463.1zM271 216.1c9.375 9.375 24.56 9.375 33.94 0l80-80c9.375-9.375 9.375-24.56 0-33.94s-24.56-9.375-33.94 0l-39 39.94V24c0-13.25-10.7-24-24-24s-24 10.75-24 24v118.1L224.1 103c-3.8-4.66-10-7-16.1-7s-12.3 2.34-17 7c-9.375 9.375-9.375 24.56 0 33.94l80 79.16z"/></svg>