<svg xmlns="http://www.w3.org/2000/svg" viewBox="0 0 448 512"><!--! Font Awesome Pro 6.1.1 by @fontawesome - https://fontawesome.com License - https://fontawesome.com/license (Commercial License) Copyright 2022 Fonticons, Inc.--><path d="M224 32c123.7 0 224 50.14 224 112v224c0 61.9-100.3 112-224 112S0 429.9 0 368V144C0 82.14 100.3 32 224 32zm130.1 201.8C319 248.2 272.7 256 224 256c-48.7 0-95.9-7.8-130.96-22.2-16-6.4-31.86-15.7-45.04-26.1V368c0 2.1 3.64 18.5 39.07 36.3C119.6 420.5 167.1 432 224 432c56 0 104.4-11.5 136.9-27.7 35.5-17.8 39.1-34.2 39.1-36.3V207.7c-13.2 10.4-29.9 19.7-45.9 26.1zm-273.01-61c20.41-23.2 45.01-40.4 70.31-52.7 20.1-10.1 40.2-17.2 57.5-21.91-1.7-5.82-3.8-11.75-3.8-17.75C125.7 84.18 64 111.2 64 144c0 10.4 6.16 20.1 17.09 28.8zm36.01 19.1c29.1 10 66.2 16.1 106.9 16.1 30.9 0 59.8-3.5 84.2-9.6-35.3-13.5-63.8-36-82-63.4-16 3.9-36.3 10.6-56.8 20.9-18.6 9.3-36.6 21.2-52.3 36zM245.8 80.59c9.3 42.41 53.3 85.31 122.8 90.81 9.9-8.3 15.4-17.6 15.4-27.4 0-32.4-60.1-59.15-138.2-63.41z"/></svg>