<svg xmlns="http://www.w3.org/2000/svg" viewBox="0 0 576 512"><!--! Font Awesome Pro 6.1.1 by @fontawesome - https://fontawesome.com License - https://fontawesome.com/license (Commercial License) Copyright 2022 Fonticons, Inc.--><path d="m524.5 302.9-102.8-34.1 85.9-145.4c24.9 26.2 42.7 58.7 49.8 97.2l7.7 46c5.4 24-17.5 44-40.6 36.3zM393.7 65.63c33 4.33 63.7 17.09 89.4 36.27l-92.5 156.5-67.5-22.4c-8.7-2.9-17.6-4.8-26.6-5.8l97.2-164.57zM258.3 231.8c-5.9.3-11.7 2.8-17.4 4.7l-121 41.9L246.6 64h110.9l-99.2 167.8zM207.3 64h2.2L73.17 294.6l-21.08 6.5c-23.21 8-46.456-12-41.93-35.3l8.48-45.2C35.66 129.8 114.1 64 207.3 64zM59.09 333.4 80 326.1V352c0 26.5 21.5 48 48 48 8.7 0 16.8-2.3 23.8-6.3 17.5-10 38.9-10 56.4 0 7 4 15.1 6.3 23.8 6.3 9.5 0 18.2-2.7 25.6-7.4 18.6-11.7 42.2-11.7 60.8 0 7.4 4.7 16.1 7.4 25.6 7.4 8.7 0 16.8-2.3 23.8-6.3 17.5-10 38.9-10 56.4 0 7 4 15.1 6.3 23.8 6.3 26.5 0 48-21.5 48-48v-24.9l21.8 7.3c8.8 2.9 17.7 3.8 26.2 3V352c0 53-43 96-96 96-17.3 0-33.6-4.6-47.6-12.6-2.7-1.6-6.1-1.6-8.8 0-14 8-30.3 12.6-47.6 12.6-18.8 0-36.4-5.4-51.2-14.8-2.9-1.8-6.7-1.8-9.6 0-14.8 9.4-32.4 14.8-51.2 14.8-17.3 0-33.6-4.6-47.6-12.6-2.7-1.6-6.1-1.6-8.8 0-14 8-30.3 12.6-47.6 12.6-53.02 0-96-43-96-96v-15.3c8.77.8 17.94-.1 27.09-3.3z"/></svg>