<svg xmlns="http://www.w3.org/2000/svg" viewBox="0 0 512 512"><!--! Font Awesome Pro 6.1.1 by @fontawesome - https://fontawesome.com License - https://fontawesome.com/license (Commercial License) Copyright 2022 Fonticons, Inc.--><path d="M88 400c0-13.3 10.75-24 24-24 13.3 0 24 10.7 24 24s-10.7 24-24 24c-13.25 0-24-10.7-24-24zM0 64C0 28.65 28.65 0 64 0h96c35.3 0 64 28.65 64 64v62.1l50.7-50.79c25-24.99 65.6-24.99 90.6 0l71.4 71.39c25 25 25 65.6 0 90.6L385.9 288H448c35.3 0 64 28.7 64 64v96c0 35.3-28.7 64-64 64H112C50.14 512 0 461.9 0 400V64zm464 384v-96c0-8.8-7.2-16-16-16H337.9l-128 128H448c8.8 0 16-7.2 16-16zm-61.3-267.3-71.4-71.4c-6.2-6.3-16.4-6.3-22.6 0L224 193.9v188.2l178.7-178.8c5.4-6.2 5.4-16.4 0-22.6zM112 464c35.3 0 64-28.7 64-64v-96H48v96c0 35.3 28.65 64 64 64zM48 256h128v-80H48v80zm0-128h128V64c0-8.84-7.2-16-16-16H64c-8.84 0-16 7.16-16 16v64z"/></svg>