<svg xmlns="http://www.w3.org/2000/svg" viewBox="0 0 640 512"><!--! Font Awesome Pro 6.1.1 by @fontawesome - https://fontawesome.com License - https://fontawesome.com/license (Commercial License) Copyright 2022 Fonticons, Inc.--><path d="M136.8 8.787C125.5 20.04 125.1 38.28 136 50.03l215.1 235.2V167.8L178 7.9c-11.7-10.862-29.9-10.487-41.2.887zM623.1 393 410.4 181.5c-4.5-4.499-11.37-5.874-17.37-3.375-5.999 2.5-9.874 8.249-9.874 14.75l.003 159.5c0 4.249 1.688 8.312 4.687 11.31l132.3 132.2c21.37 21.37 55.87 21.37 77.25 0l25.75-25.75C645.4 448.9 645.4 414.4 623.1 393zm-192-53.9v-70.2l70.24 70.24-35.12 35.12-35.12-35.16zm133.3 123c-1.25 1.125-2.1 1.875-4.75 1.875-1.75 0-3.375-.75-4.625-1.875l-65.24-65.24 10.51-10.44 69.86 69.81-5.755 5.87zm25.7-25.7-5.874 5.749-69.86-69.81 10.49-10.56 65.24 65.24c2.504 2.481 2.504 6.681.004 9.381zm-175.5-289 89.37-97.36c10.87-11.75 10.5-29.1-.75-41.24-11.37-11.37-29.5-11.75-41.25-.875l-118.4 108.7 35.87 32.87c6.374-3.125 13.5-4.624 20.62-4.624 5.04.029 9.04.929 14.54 2.529zm-174 63.9-39.75 36.62-24.35-24.42a7.922 7.922 0 0 0-11.25 0l-11.35 11.3c-3.125 3.125-3.125 8.249 0 11.37l4.5 4.499L16 392.869c-21.37 21.37-21.36 55.1.015 77.37l25.75 25.75c21.37 21.37 55.87 21.37 77.24 0l142.4-142.5 5.627 5.755c3.125 3.125 8.249 3.125 11.37 0l11.25-11.25c3.125-3.125 3.125-8.249 0-11.37L264.1 311.1l34.12-37.12-57.62-62.68zM85.02 461.1c-2.5 2.625-6.749 2.625-9.374.125l-25.75-25.87c-2.5-2.5-2.5-6.749 0-9.249l63.24-63.24 35.12 35.12L85.02 461.1zm74.48-73.6-35.1-35.1 11.37-11.25 35.12 35.12-11.39 11.23zm22.6-22.6-35.12-35.12 11.37-11.25 35.12 35.12-11.37 11.25zm22.7-22.7-35.2-35.1 11.37-11.25 35.12 35.12-11.29 11.23z"/></svg>