<svg xmlns="http://www.w3.org/2000/svg" viewBox="0 0 512 512"><!--! Font Awesome Pro 6.1.1 by @fontawesome - https://fontawesome.com License - https://fontawesome.com/license (Commercial License) Copyright 2022 Fonticons, Inc.--><path d="m507.2 462.1-59.25-59.26 31.62-59.01a15.917 15.917 0 0 0-2.75-18.88L459.2 307.4c-6.249-6.25-16.37-6.25-22.62 0l-16.63 16.63L112 16.04 18.26.16C8.261-1.215-1.36 6.26.14 18.29l15.87 93.75 307.1 308-16.71 16.71a15.894 15.894 0 0 0 0 22.54l17.58 17.63c4.999 5 12.62 6.125 18.87 2.75l58.1-31.63 59.25 59.26c6.249 6.25 16.5 6.25 22.75 0l22.5-22.5c8.05-6.2 8.05-16.5 1.75-22.7zm-150.1-76L60.77 88.91l-5.749-33.88L88.9 60.78l297.2 297.3-29 28.02zm66-325.32 33.87-5.75-5.749 33.88-110.5 110.5 33.87 34 121.3-121.4 15.87-93.75c1.375-10-6.999-19.63-18.12-18.13l-93.74 15.88-121.4 121.4 33.1 33.88L423.1 60.78zM199.5 340.8l-45.37 45.38-28.12-28.13 45.37-45.38-33.98-33.97-45.37 45.38L75.3 307.3a15.892 15.892 0 0 0-22.54 0l-17.62 17.58a15.919 15.919 0 0 0-2.75 18.88l31.62 59.01L4.768 462.1c-6.249 6.25-6.249 16.5 0 22.75l22.5 22.5c6.249 6.25 16.5 6.25 22.75 0l59.25-59.26 58.1 31.63a15.903 15.903 0 0 0 18.87-2.75l17.5-17.63a15.894 15.894 0 0 0 0-22.54l-16.62-16.71 45.37-45.38L199.5 340.8z"/></svg>