<svg xmlns="http://www.w3.org/2000/svg" viewBox="0 0 512 512"><!--! Font Awesome Pro 6.1.1 by @fontawesome - https://fontawesome.com License - https://fontawesome.com/license (Commercial License) Copyright 2022 Fonticons, Inc.--><path d="M176.5 223.5a7.922 7.922 0 0 0-11.25 0l-11.35 11.3c-3.125 3.125-3.125 8.249 0 11.37l4.499 4.499-142.4 142.4c-21.37 21.37-21.37 55.87 0 77.24l25.75 25.75c21.37 21.37 55.87 21.37 77.24 0l142.4-142.4 5.615 5.63c3.125 3.125 8.249 3.125 11.37 0l11.25-11.25c3.125-3.125 3.125-8.249 0-11.37L176.5 223.5zM85.02 461.1c-2.5 2.625-6.749 2.625-9.249.125l-25.75-25.87c-2.625-2.5-2.625-6.749 0-9.249l63.12-63.24 35.12 35.12L85.02 461.1zm74.58-73.6-35.12-35.12 11.25-11.25 35.12 35.12-11.25 11.25zm22.7-22.6-35.2-35.2 11.25-11.25 35.12 35.12-11.17 11.33zm22.6-22.7-35.1-35.1 11.25-11.25 35.12 35.12-11.27 11.23zM503.2 8.787c-11.25-11.37-29.5-11.75-41.24-.875L224.4 226.1l61.49 61.49 218.2-237.6c10.01-11.71 10.51-29.95-.89-41.203z"/></svg>