<svg xmlns="http://www.w3.org/2000/svg" viewBox="0 0 512 512"><!--! Font Awesome Pro 6.1.1 by @fontawesome - https://fontawesome.com License - https://fontawesome.com/license (Commercial License) Copyright 2022 Fonticons, Inc.--><path d="M511.8 18.28C513.175 8.53 505.551.02 495.93.02c-.75 0-1.5.001-2.25.126l-93.74 15.88L148.5 267.5l-38.7-38.9c-6.249-6.125-16.37-6.125-22.62 0L68.4 247.4c-5.38 5.4-6.13 13.8-1.88 20.1l53.12 79.75L66.4 400.5 37.28 386c-1.25-.625-9.249-4.25-15.1 2.5L4.031 405.8c-5.374 5.375-5.374 14.12 0 19.62L86.64 508c2.75 2.6 6.25 4 9.88 4 3.5 0 6.999-1.375 9.749-4l17.25-17.25c4.124-4.25 5.249-10.63 2.5-16l-14.5-29.13 53.24-53.25 79.74 53.13c6.374 4.25 14.75 3.5 20.12-1.875l18.75-18.75c6.124-6.25 6.124-16.38 0-22.63L244.5 363.5 496 112l15.8-93.72zm-60.6 70.6L210.6 329.5l-28.1-28.1L423.1 60.75 456.97 55l-5.77 33.88z"/></svg>