<svg xmlns="http://www.w3.org/2000/svg" viewBox="0 0 512 512"><!--! Font Awesome Pro 6.1.1 by @fontawesome - https://fontawesome.com License - https://fontawesome.com/license (Commercial License) Copyright 2022 Fonticons, Inc.--><path d="m119 495.1 211.5-212.7c9.999-9.999 2.875-27.25-11.37-27.25L159.6 256c-4.249 0-8.349 1.621-11.35 4.621l-132.2 132.4c-21.37 21.37-21.37 55.87 0 77.24l25.75 25.75C63.15 517.3 97.65 517.3 119 495.1zm53.9-192h70.24l-70.24 70.24-35.12-35.12 35.12-35.12zm-123 133.1c-2.5-2.5-2.5-6.749 0-9.249l65.24-65.24 10.5 10.49-69.87 69.87-5.87-5.871zm25.75 24.9-5.749-5.749 69.87-69.87 10.49 10.5-65.24 65.12c-2.501 3.499-6.751 3.499-9.371-.001zM503.2 8.787c-11.25-11.37-29.5-11.75-41.24-.875L226.8 224h117.5L504.2 50.9c9.9-12.62 10.4-30.86-1-42.113z"/></svg>