<svg xmlns="http://www.w3.org/2000/svg" viewBox="0 0 512 512"><!--! Font Awesome Pro 6.1.1 by @fontawesome - https://fontawesome.com License - https://fontawesome.com/license (Commercial License) Copyright 2022 Fonticons, Inc.--><path d="M200-.002c13.3 0 24 10.742 24 23.102 0 14.15-10.7 24-24 24H24c-13.25 0-24-9.85-24-24C0 10.74 10.75-.002 24-.002h176zm0 79.102c13.3 0 24 11.64 24 24 0 14.2-10.7 24-24 24h-64v72c0 14.2-10.7 24-24 24-13.25 0-24-9.8-24-24v-72H24c-13.25 0-24-9.8-24-24 0-12.36 10.75-24 24-24h176zm152-3.43V207.1c0 27.4-28.7 48-64 48s-64-20.6-64-48c0-25.6 28.7-48 64-48 5.5 0 10.9 1.4 16 2.4V69.12c0-19.07 13.5-35.49 32.2-39.23l128-25.598C488.9-.658 512 18.27 512 43.52V175.1c0 27.4-28.7 48-64 48s-64-20.6-64-48c0-25.6 28.7-48 64-48 5.5 0 10.9 1.4 16 2.4V53.27l-112 22.4zM352 320c0 17.7-14.3 32-32 32s-32-14.3-32-32 14.3-32 32-32 32 14.3 32 32zm152.1-25c10.2 9.4 10.2 24.6 0 33.1l-176 176c-8.5 10.2-23.7 10.2-33.1 0-9.3-8.5-9.3-23.7 0-33.1l176-176c9.4-9.3 24.6-9.3 33.1 0zM448 480c0-17.7 14.3-32 32-32s32 14.3 32 32-14.3 32-32 32-32-14.3-32-32zM85.12 256c36.98 0 66.88 29.9 66.88 66.9 0 20.7-9.6 40.3-26.1 53l-7.9 6 26.4 23.8 40.6-32.4c10.4-9.2 25.5-6.6 33.7 3.7 8.3 10.4 6.6 25.5-4.6 33.7l-33.5 27.6 35.5 31.9c9.8 8.8 10.6 24 1.7 33.9-9.7 9.8-24 10.6-33.9 1.7l-41.3-37.2-36.3 29.1C94.74 506.9 80.32 512 65.46 512 29.31 512 0 482.7 0 446.5v-1.4c0-20.8 9.645-40.3 26.1-53L43.07 379l-4.47-4C24.18 362 16 343.5 16 324.2c0-37.4 30.31-69.1 68-69.1l1.12.9zM104 322.9c0-10.4-8.45-18.9-18.88-18.9H84c-10.91 0-20 9-20 20.2 0 4.9 2.48 11.3 6.71 15.2l11.05 9.9 14.87-11.4c4.67-3.6 7.37-9.2 7.37-15zM48 445.1v1.4c0 9.7 7.82 17.5 17.46 17.5 3.96 0 7.81-1.4 10.9-3.8l30.14-24.1-27.15-24.4-23.98 18.4c-4.65 3.6-7.37 9.2-7.37 15z"/></svg>