<svg xmlns="http://www.w3.org/2000/svg" viewBox="0 0 640 512"><!--! Font Awesome Pro 6.1.1 by @fontawesome - https://fontawesome.com License - https://fontawesome.com/license (Commercial License) Copyright 2022 Fonticons, Inc.--><path d="m342.8 152.4 32.3-.3c6.2 0 10.1 6.7 7 12.1l-16.4 26.9 16.4 28.7c3.1 5.4-.8 12.1-7 12.1l-32.3-.3-16.7 28.1c-2.2 5.4-10 5.4-13.1 0l-15.8-28.1-32.3.3c-6.2 0-10.1-6.7-7-12.1l16.4-28.7-16.4-26.9c-3.1-5.4.8-12.1 7-12.1l32.3.3 15.8-28.1c3.1-5.4 10.9-5.4 13.1 0l16.7 28.1zM305.1 5.163c8.7-6.884 21.1-6.884 29.8 0L462.5 105.9c21.2 16.7 33.5 42.2 33.5 69.1v63.1l31-31.1c9.4-9.3 24.6-9.3 33.1 0l63.5 62.7c10.5 10.5 16.4 24.7 16.4 39.6V440c0 39.8-32.2 72-72 72H72c-39.76 0-72-32.2-72-72V309.3c0-14.9 5.9-29.1 16.4-39.6L79.03 207c9.37-9.3 24.57-9.3 33.07 0l31.9 31.1V175c0-26.9 12.3-52.4 33.5-69.1L305.1 5.163zM568 464c13.3 0 24-10.7 24-24V309.3c0-2.2-.8-4.2-2.3-5.7L544 257.9l-45.7 45.7c-1.5 1.5-2.3 3.5-2.3 5.7V464h72zM432.8 143.6 319.1 54.58 207.2 143.6c-9.6 7.6-16.1 19.2-16.1 31.4v289h64v-80c0-35.3 29.6-64 64-64 36.2 0 64.9 28.7 64.9 64v80h64V175c0-12.2-5.6-23.8-15.2-31.4zm-291.1 160-46.6-45.7-44.76 45.7c-1.5 1.5-3.24 3.5-3.24 5.7V440c0 13.3 11.64 24 24 24h72V309.3c0-2.2.1-4.2-1.4-5.7z"/></svg>