<svg xmlns="http://www.w3.org/2000/svg" viewBox="0 0 512 512"><!--! Font Awesome Pro 6.1.1 by @fontawesome - https://fontawesome.com License - https://fontawesome.com/license (Commercial License) Copyright 2022 Fonticons, Inc.--><path d="m504.1 71.03-64-64c-9.375-9.375-24.56-9.375-33.94 0s-9.375 24.56 0 33.94L422.1 56 384 94.06l-55.03-55.03c-9.375-9.375-24.56-9.375-33.94 0-8.467 8.467-8.873 21.47-2.047 30.86L71.03 291.8a24.01 24.01 0 0 0-7.03 17v105.3L7.03 471.07c-9.375 9.375-9.375 24.56 0 33.94C11.72 509.7 17.86 512 24 512s12.28-2.344 16.97-7.031L97.94 448h105.3c6.359 0 12.47-2.531 16.97-7.031l221.9-221.1C446.3 222.1 451.1 224 456 224a23.93 23.93 0 0 0 16.97-7.031c9.375-9.375 9.375-24.56 0-33.94L417.9 128 456 89.94l15.03 15.03C475.7 109.7 481.9 112 488 112s12.28-2.344 16.97-7.031c9.33-9.379 9.33-24.559-.87-33.939zM193.3 400H112v-81.2l28.06-28.06 24.62 24.62C167.8 318.4 171.9 320 176 320s8.188-1.562 11.31-4.688c6.25-6.25 6.25-16.38 0-22.62L162.7 268.1l41.38-41.38 24.62 24.62c3.1 3.06 7.2 4.66 11.3 4.66s8.188-1.562 11.31-4.688c6.25-6.25 6.25-16.38 0-22.62L226.7 204.1l41.38-41.38 24.62 24.62c3.1 3.06 7.2 4.66 11.3 4.66s8.188-1.562 11.31-4.688c6.25-6.25 6.25-16.38 0-22.62l-24.62-24.62 35.72-35.72 81.25 81.25L193.3 400z"/></svg>