<svg xmlns="http://www.w3.org/2000/svg" viewBox="0 0 512 512"><!--! Font Awesome Pro 6.1.1 by @fontawesome - https://fontawesome.com License - https://fontawesome.com/license (Commercial License) Copyright 2022 Fonticons, Inc.--><path d="M33.84 414.8c-5.094 12.25.719 26.28 12.97 31.34 3 1.26 6.13 1.86 9.19 1.86 9.406 0 18.34-5.562 22.16-14.81L125.1 320H73.16l-39.32 94.8zM438.8 320h-51.93l46.93 113.2c3.9 9.2 12.8 14.8 22.2 14.8 3.062 0 6.188-.594 9.188-1.844 12.25-5.062 18.06-19.09 12.97-31.34L438.8 320zm49.2-80h-82.33L352.6 112H424c13.3 0 24-10.7 24-24 0-13.26-10.7-24-24-24H88c-13.25 0-24 10.74-24 24 0 13.3 10.75 24 24 24h71.4l-53.07 128H24c-13.25 0-24 10.7-24 24s10.75 24 24 24h464c13.3 0 24-10.7 24-24s-10.7-24-24-24zm-329.7 0 53.07-128h89.34l53.07 128H158.3z"/></svg>