<svg xmlns="http://www.w3.org/2000/svg" viewBox="0 0 448 512"><!--! Font Awesome Pro 6.1.1 by @fontawesome - https://fontawesome.com License - https://fontawesome.com/license (Commercial License) Copyright 2022 Fonticons, Inc.--><path d="M439.3 164.4c5.375-2.625 8.75-8.125 8.75-14.25V73.9c0-6.125-3.375-11.63-8.75-14.25l-23.25-11.62c0-26.5-21.5-48-47.1-48h-288c-26.5 0-48 21.5-48 48L8.799 59.63C3.424 62.25.049 67.75.049 73.88v76.25c0 6.125 3.375 11.63 8.75 14.25L32.05 176v16L8.8 203.6c-5.375 2.7-8.75 8.2-8.75 14.3v76.25c0 6.125 3.375 11.63 8.75 14.25l23.25 11.62v16L8.8 347.64c-5.375 2.625-8.75 8.125-8.75 14.25v76.25c0 6.125 3.375 11.63 8.75 14.25l23.25 11.62c0 26.5 21.5 48 48 48h288c26.5 0 47.1-21.5 47.1-48l23.25-11.62c5.375-2.625 8.75-8.125 8.75-14.25v-76.25c0-6.125-3.375-11.63-8.75-14.25l-23.25-11.62v-16l23.25-11.62c5.375-2.625 8.75-8.125 8.75-14.25V217.9c0-6.125-3.375-11.63-8.75-14.25l-23.25-11.62v-16l24.15-11.63zM368.2 448c0 8.75-7.25 16-16 16h-256c-8.75 0-16-7.25-16-16V64c0-8.75 7.25-16 16-16h256c8.75 0 16 7.25 16 16v384z"/></svg>