<svg xmlns="http://www.w3.org/2000/svg" viewBox="0 0 512 512"><!--! Font Awesome Pro 6.1.1 by @fontawesome - https://fontawesome.com License - https://fontawesome.com/license (Commercial License) Copyright 2022 Fonticons, Inc.--><path d="M415.1 320c-52.99 0-95.99 42.1-95.99 95.1 0 52.1 42.99 95.99 95.99 95.99 52.1 0 95.99-42.1 95.99-95.99.01-52.1-42.99-95.1-95.99-95.1zm.9 144c-26.46 0-47.99-21.53-47.99-47.1 0-26.47 21.53-48 47.99-48s47.99 21.53 47.99 48C464 442.5 442.5 464 416 464zM93.19 175.1l201.6 201.7c5.268-16.2 13.54-30.86 24.38-43.52l-193.6-193.6 33.05-36.25C195.2 66.68 244 47.81 291.9 47.81c102.9 0 171.8 84.73 171.8 173.6 0 24.01-4.91 48.28-15.05 71.36 15.88 4.215 30.48 11.27 43.31 20.81 13.34-29.78 19.8-61.17 19.8-92.2C511.8 107.6 423 0 292.3 0c-60.6 0-122.2 23.77-168.4 70.2l-70.96 76.9c-20.14 22.8-28.46 47.97-28.46 72.63 0 36.24 17.97 71.38 42.84 96.31l15.13 16.06-64.57 56C13.7 392.6 0 406.1 0 428.5c0 13.88 5.521 27.35 15.31 37.23l30.72 30.85c15.2 15.26 32.93 15.41 38.55 15.41 11.2 0 26.91-5.087 38.21-17.98l56.51-64.77 14.41 14.45c25.05 25.1 58.82 38.92 94.24 38.92 5.027 0 10.09-.278 15.16-.842l-.906-8.34c-6.172-12.18-10.39-25.36-12.39-39.38a95.8 95.8 0 0 1-1.525.012c-22.8 0-44.57-8.229-60.57-24.26l-50.73-50.9L86.64 462.4c-.242.276-1.702 1.69-3.558 1.69-.946 0-1.995-.367-3.038-1.44l-30.66-30.76c-.488-.488-1.385-1.905-1.385-3.534 0-1.102.41-2.301 1.635-3.377l102.9-90.63L101.3 283c-13.26-13.3-28.74-36.9-28.74-62.2 0-13.55 4.452-27.57 16.08-40.73l4.55-4.97z"/></svg>