<svg xmlns="http://www.w3.org/2000/svg" viewBox="0 0 640 512"><!--! Font Awesome Pro 6.1.1 by @fontawesome - https://fontawesome.com License - https://fontawesome.com/license (Commercial License) Copyright 2022 Fonticons, Inc.--><path d="M593.1 46.85c-62.38-62.38-163.8-62.51-226.3 0s-62.5 163.8 0 226.3c62.5 62.38 163.8 62.51 226.3 0s62.5-163.95 0-226.3zM385.8 99.71l154.5 154.5C439.8 318.7 321 200.5 385.8 99.71zM574.3 220.2 419.8 65.7C520.3 1.078 639 119.5 574.3 220.2zm-415.2-29.1C71.61 191.1 0 263.6 0 351.1S71.61 512 159.1 512 320 440.4 320 351.1s-71.6-160-160.9-160zm-108.35 184h218.5c-25.65 117-192.87 117.6-218.5 0zm0-48c25.62-116.9 192.9-116.9 218.5 0H50.75z"/></svg>