<svg xmlns="http://www.w3.org/2000/svg" viewBox="0 0 640 512"><!--! Font Awesome Pro 6.1.1 by @fontawesome - https://fontawesome.com License - https://fontawesome.com/license (Commercial License) Copyright 2022 Fonticons, Inc.--><path d="M576 64H64C28.65 64 0 92.65 0 128v256c0 35.35 28.65 64 64 64h512c35.35 0 64-28.65 64-64V128c0-35.35-28.7-64-64-64zm16 320c0 8.822-7.178 16-16 16H64c-8.822 0-16-7.178-16-16V128c0-8.822 7.178-16 16-16h512c8.822 0 16 7.178 16 16v256zM336 144H112c-17.67 0-32 14.33-32 32v32c0 17.67 14.33 32 32 32h224c17.67 0 32-14.33 32-32v-32c0-17.7-14.3-32-32-32zm16 192H96c-8.844 0-16 7.156-16 16s7.16 16 16 16h256c8.844 0 16-7.156 16-16s-7.2-16-16-16zm192 0H416c-8.844 0-16 7.156-16 16s7.156 16 16 16h128c8.844 0 16-7.156 16-16s-7.2-16-16-16zM88 304h16a8 8 0 0 0 8-8v-16a8 8 0 0 0-8-8H88c-4.42 0-8 3.6-8 8v16c0 4.4 3.58 8 8 8zm80 0a8 8 0 0 0 8-8v-16a8 8 0 0 0-8-8h-16c-4.4 0-8 3.6-8 8v16a8 8 0 0 0 8 8h16zm64 0a8 8 0 0 0 8-8v-16a8 8 0 0 0-8-8h-16c-4.4 0-8 3.6-8 8v16a8 8 0 0 0 8 8h16zm64 0a8 8 0 0 0 8-8v-16a8 8 0 0 0-8-8h-16c-4.4 0-8 3.6-8 8v16a8 8 0 0 0 8 8h16zm64-32h-16a8 8 0 0 0-8 8v16a8 8 0 0 0 8 8h16a8 8 0 0 0 8-8v-16c0-4.4-3.6-8-8-8z"/></svg>