<svg xmlns="http://www.w3.org/2000/svg" viewBox="0 0 640 512"><!--! Font Awesome Pro 6.1.1 by @fontawesome - https://fontawesome.com License - https://fontawesome.com/license (Commercial License) Copyright 2022 Fonticons, Inc.--><path d="M127.1 40c14.2 0 24 10.75 24 24v222.7l80-26.7V64c0-13.25 11.6-24 24-24 14.2 0 24 10.75 24 24v180l80.9-26.6V64c0-13.25 10.7-24 24-24s24 10.75 24 24v137.4l80-26.7V64c0-13.25 10.7-24 24-24s24 10.75 24 24v94.7l64.4-21.5c11.7-4.2 26.2 2.6 30.4 15.2 3.3 11.7-2.6 26.2-15.2 30.4L536 209.3V448c0 13.3-10.7 24-24 24s-24-10.7-24-24V225.3l-80 25.8V448c0 13.3-10.7 24-24 24s-24-10.7-24-24V267.1l-80.9 27.5V448c0 13.3-9.8 24-24 24-12.4 0-24-10.7-24-24V310.6l-80 26.7V448c0 13.3-9.8 24-24 24-12.4 0-24-10.7-24-24v-94.7l-63.51 21.5c-12.58 3.3-26.17-2.6-30.359-15.2C5.04 347 11.84 333.4 24.41 329.2l78.69-26.5V64c0-13.25 11.6-24 24-24z"/></svg>