<svg xmlns="http://www.w3.org/2000/svg" viewBox="0 0 448 512"><!--! Font Awesome Pro 6.1.1 by @fontawesome - https://fontawesome.com License - https://fontawesome.com/license (Commercial License) Copyright 2022 Fonticons, Inc.--><path d="M56 448c0 13.3-10.75 24-24 24S8 461.3 8 448V64c0-13.25 10.75-24 24-24s24 10.75 24 24v384zm128 0c0 13.3-10.7 24-24 24s-24-10.7-24-24V64c0-13.25 10.7-24 24-24s24 10.75 24 24v384zM288 40c13.3 0 24 10.75 24 24v384c0 13.3-10.7 24-24 24s-24-10.7-24-24V64c0-13.25 10.7-24 24-24zm152 408c0 13.3-10.7 24-24 24s-24-10.7-24-24V64c0-13.25 10.7-24 24-24s24 10.75 24 24v384z"/></svg>