<svg xmlns="http://www.w3.org/2000/svg" viewBox="0 0 320 512"><!--! Font Awesome Pro 6.1.1 by @fontawesome - https://fontawesome.com License - https://fontawesome.com/license (Commercial License) Copyright 2022 Fonticons, Inc.--><path d="M312 256c0-8.838-7.164-16-16-16H24c-8.836 0-16 7.162-16 16 0 8.836 7.164 16 16 16h106.1l-31.41 39.1c-1.818 2.729-2.629 5.891-2.629 8.938C96.06 328.1 103.2 336 112 336c5.156 0 10.22-2.5 13.31-7.125L160 284.8l34.75 44.03c3.05 4.67 8.15 7.17 13.35 7.17 8.7 0 15.9-7.9 15.9-15.9 0-3.047-.809-6.209-2.629-8.938L189.9 272H296c8.8 0 16-7.2 16-16zm-16 48h-42.71c1.81 5.1 2.71 10.5 2.71 16.1 0 3.18-.346 6.275-.94 9.283l15.53 111.8c-5.098 3.404-13.7 7.348-25.21 10.1l-9.119-93.54C228.3 364.5 218.6 368 208.1 368c-1.057 0-2.049-.303-3.094-.371l8.959 91.96C202.6 461.5 189.9 462.9 176 463.5V356.4c-2.533-2.285-4.918-4.764-6.947-7.594l-9.031-11.44-9.004 11.43C148.1 350.8 146.6 353.3 144 355.6v107.9c-13.89-.64-26.6-2.021-37.92-3.945l8.959-91.95C114 367.7 113 368 112 368c-10.6 0-20.31-3.566-28.25-9.41l-9.123 93.59c-11.51-3.648-20.12-7.592-25.21-10.1l15.56-112.1c-.563-2.934-.914-5.943-.914-9.039 0-5.545.922-10.96 2.709-16.06H24c-1.352 0-2.623-.29-3.945-.398L0 448c0 35.35 71.63 64 160 64s160-28.65 160-64l-20.05-144.4c-1.35.1-2.55.4-3.95.4zM24 208h44.46L49.41 70.82c5.188-3.465 13.96-7.49 25.78-11.19L92.83 208h32.21L106.5 52.35c11.2-1.89 23.8-3.25 37.5-3.88V208h32V48.47c13.71.633 26.27 1.992 37.48 3.879L194.1 208h32.21l17.65-148.4c11.82 3.699 20.59 7.725 25.78 11.19L251.5 208H296c1.352 0 2.623.29 3.945.398L320 64c0-35.35-71.63-64-160-64S0 28.65 0 64l20.05 144.4c1.33-.1 2.6-.4 3.95-.4z"/></svg>