<svg xmlns="http://www.w3.org/2000/svg" viewBox="0 0 576 512"><!--! Font Awesome Pro 6.1.1 by @fontawesome - https://fontawesome.com License - https://fontawesome.com/license (Commercial License) Copyright 2022 Fonticons, Inc.--><path d="M223.1 100c0-24.05 34.6-70.07 53.1-93.51 6.1-7.716 17.5-7.716 23.6 0C318.3 29.93 352 75.95 352 100c0 33.1-28.7 60-64.9 60-34.4 0-64-26.9-64-60zm-160 28h134.4c7 19.8 20.2 36.6 37.4 48H63.1c-7.94 0-16 7.2-16 16v256c0 8.8 8.06 16 16 16H416v-80c0-17.7 14.3-32 32-32h80V192c0-8.8-7.2-16-16-16H341.1c17.2-11.4 30.4-28.2 37.4-48H512c35.3 0 64 28.7 64 64v172.1c0 12.7-5.1 25-14.1 34l-99.8 99.8c-9 9-21.3 14.1-34 14.1H64c-35.35 0-64-28.7-64-64V192c0-35.3 28.65-64 64-64h-.9zm16 112c0-17.7 15.23-32 32-32 18.6 0 32 14.3 32 32s-13.4 32-32 32c-16.77 0-32-14.3-32-32z"/></svg>