<svg xmlns="http://www.w3.org/2000/svg" viewBox="0 0 640 512"><!--! Font Awesome Pro 6.1.1 by @fontawesome - https://fontawesome.com License - https://fontawesome.com/license (Commercial License) Copyright 2022 Fonticons, Inc.--><path d="M72 376h120v48H80v32c0 13.3-10.75 24-24 24s-24-10.7-24-24v-44.1C12.7 398.1 0 376.1 0 352V118.2c0-22.02 4.597-51.92 28.76-71.39C58.65 22.73 111.5 0 192 0c84.9 0 135.8 22.09 164.5 46.62 11.2 9.61 18 21.48 22 33.64-25.7 2.49-46.3 22.34-49.9 47.74H216v80h36.9l-13.7 48H48v96c0 13.3 10.75 24 24 24zM192 48C126.6 48 86.16 64.83 64.46 80H321.4c-19.3-14.7-57.9-32-130.3-32h.9zm-24 160v-80H48v80h120zm-40 104c0 13.3-10.7 24-24 24-13.25 0-24-10.7-24-24s10.75-24 24-24c13.3 0 24 10.7 24 24zm232 48c0 13.3-10.7 24-24 24s-24-10.7-24-24 10.7-24 24-24 24 10.7 24 24zm144 0c0-13.3 10.7-24 24-24s24 10.7 24 24-10.7 24-24 24-24-10.7-24-24zM368 144c0-17.7 14.3-32 32-32h64c17.7 0 32 14.3 32 32v16h6.2c30.4 0 57.5 19.1 66.9 47.8l29.5 80.1c.2.5.3 1 .5 1.4 24.7 17.4 40.9 46.2 40.9 78.7v120c0 13.3-10.7 24-24 24s-24-10.7-24-24v-40H272v40c0 13.3-10.7 24-24 24s-24-10.7-24-24V368c0-32.5 16.2-61.3 40.9-78.7.2-.4.3-.9.5-1.4l28.6-80.1c10.3-28.7 37.4-47.8 67.8-47.8h6.2v-16zm-28.8 79.9L322.1 272h219.8l-17.1-48.1c-3.4-9.5-12.5-15.9-22.6-15.9H361.8c-10.1 0-19.2 6.4-22.6 15.9zM272 368v32h320v-32c0-26.5-21.5-48-48-48H320c-26.5 0-48 21.5-48 48z"/></svg>