<svg xmlns="http://www.w3.org/2000/svg" viewBox="0 0 576 512"><!--! Font Awesome Pro 6.1.1 by @fontawesome - https://fontawesome.com License - https://fontawesome.com/license (Commercial License) Copyright 2022 Fonticons, Inc.--><path d="M521.3 308.1c-2.508-.83-5.037-1.16-7.561-1.734 5.521-6.844 11.09-13.63 16.18-21.05 25.03-36.4 15.78-86.22-20.62-111.2-24.11-16.55-53.99-17.8-78.79-6.361C431 162.5 432 157.4 432 152v-.002c0-6.656-.83-13.11-2.055-19.44C450.3 119.1 464 97.74 464 72c0-39.77-32.2-72-72-72-32.14 0-58.94 21.22-68.12 50.32C311.1 48.83 299.1 48 288 48c-11.98 0-23.96.83-35.88 2.316C242.9 21.22 216.1 0 184 0c-39.8 0-72 32.23-72 72 0 25.74 13.71 47.96 34.05 60.6-1.25 6.3-2.05 12.8-2.05 19.4v.002c0 5.363.982 10.44 1.496 15.66C120.7 156.2 90.8 157.5 66.71 174.1c-36.4 25-45.65 74.8-20.62 111.2 5.098 7.42 10.67 14.21 16.19 21.05-2.53.55-5.06.95-7.57 1.75-41.9 13.97-64.55 59.28-50.59 101.2l15.1 47.1c11.81 32.7 42.37 55.6 76.8 55.6h383.1c34.43 0 64.99-22.03 75.9-54.69l15.1-47.1c15.68-42.81-6.92-88.11-48.82-102.11zM392 48c13.2 0 24 10.77 24 24 0 6.414-2.609 12.19-6.723 16.5-10.11-12.31-23.12-21.88-38.17-27.63C375.2 53.32 382.9 48 392 48zm-165.9 56c20.2-5.29 41.1-8 61.9-8s41.67 2.707 61.91 8.045C369.1 109.3 384 129.1 384 152c0 14.38-2.723 28.09-7.621 40.55C362.1 168.3 328.8 152 288 152s-74.1 16.3-88.4 40.6c-4.9-12.5-7.6-26.2-7.6-40.6 0-22.9 14-42.7 34.1-48zM288 216c17.67 0 32-10.75 32-24 0-1.162-.668-2.158-.88-3.275C338.6 194.9 352 206.5 352 220c0 19.9-28.7 36-64 36s-64-16.1-64-36c0-13.49 13.35-25.11 32.88-31.28-.18 1.08-.88 2.08-.88 3.28 0 13.3 14.3 24 32 24zM184 48c9.145 0 16.85 5.32 20.89 12.86-15.06 5.758-28.06 15.32-38.17 27.63C162.6 84.19 160 78.41 160 72c0-13.23 10.8-24 24-24zM93.88 213.6c14.59-10.03 34.47-6.312 44.5 8.25C174.3 274.1 225.2 304 278.2 304h19.56c53 0 103.1-29.94 139.8-82.13 10.06-14.56 30-18.28 44.5-8.25 14.56 10.03 18.25 29.94 8.25 44.5C461.6 299.1 424.8 330.8 384 349.1v.746C370.1 336.4 351.4 328 330.7 328h-85.4c-20.7 0-39.4 8.4-53.3 21.8v-.746c-40.81-18.25-77.63-49.11-106.4-90.94-9.97-14.514-6.29-34.414 8.28-44.514zM208 464H96c-13.78 0-26-8.812-30.34-21.88l-16-48c-5.594-16.78 3.469-34.91 20.22-40.47 16.93-5.65 34.92 3.45 40.42 20.25l8.8 26.1h29.16c9.25 0 18.47 2.188 26.75 6.312C195.3 416.5 208 437 208 459.8v4.2zm112-4.2v4.2h-64v-4.219c0-28.93-11.5-55.65-31.03-75.43C230.3 379.2 237.4 376 245.3 376h85.31c7.934 0 15.09 3.225 20.37 8.352C331.5 404.1 320 430.9 320 459.8zm206.3-65.7-16 48C506 455.2 493.8 464 480 464H368v-4.219c0-22.78 12.66-43.28 33.03-53.47C409.3 402.2 418.5 400 427.8 400h29.16l8.719-26.12c5.594-16.75 23.53-25.88 40.47-20.22C522.9 359.2 531.9 377.3 526.3 394.1zM240 160c8.8 0 16-7.2 16-16s-7.2-16-16-16-16 7.2-16 16 7.2 16 16 16zm96 0c8.8 0 16-7.2 16-16s-7.2-16-16-16-16 7.2-16 16 7.2 16 16 16z"/></svg>