<svg xmlns="http://www.w3.org/2000/svg" viewBox="0 0 576 512"><!--! Font Awesome Pro 6.1.1 by @fontawesome - https://fontawesome.com License - https://fontawesome.com/license (Commercial License) Copyright 2022 Fonticons, Inc.--><path d="M480 32H96C42.98 32 0 74.98 0 128v256c0 53.02 42.98 96 96 96h384c53.02 0 96-42.98 96-96V128c0-53.02-43-96-96-96zm48 352c0 26.47-21.53 48-48 48H96c-26.47 0-48-21.53-48-48v-21.46C63.94 385.2 90.27 400 120 400c21.26 0 40.78-7.574 56-20.17C191.2 392.4 210.7 400 232 400s40.78-7.574 56-20.17C303.2 392.4 322.7 400 344 400s40.78-7.574 56-20.17C415.2 392.4 434.7 400 456 400c29.73 0 56.06-14.82 72-37.46V384zM93.33 288h53.33c7.44 0 13.34 5.9 13.34 13.3V312c0 22.1-17.9 40-40 40s-40-17.9-40-40v-10.7c0-7.4 5.94-13.3 13.33-13.3zM80 242.7v-16c0-22.08 17.92-40 40-40s40 17.9 40 40v16c0 7.4-5.9 13.3-13.3 13.3H93.33C85.94 256 80 250.1 80 242.7zM205.3 288h53.33c7.47 0 13.37 5.9 13.37 13.3V312c0 22.1-17.9 40-40 40s-40-17.9-40-40v-10.7c0-7.4 5.9-13.3 13.3-13.3zM192 244.6V200c0-22.1 17.9-40 40-40s40 17.9 40 40v44.57c0 6.33-5.1 11.43-11.4 11.43h-57.2c-6.3 0-11.4-5.1-11.4-11.4zM317.3 288h53.33c7.47 0 13.37 5.9 13.37 13.3V312c0 22.08-17.92 40-40 40s-40-17.92-40-40v-10.7c0-7.4 5.9-13.3 13.3-13.3zM304 244.6V200c0-22.1 17.9-40 40-40s40 17.9 40 40v44.57c0 6.33-5.1 11.43-11.4 11.43h-57.14c-6.36 0-11.46-5.1-11.46-11.4zM429.3 288h53.33c7.47 0 13.37 5.9 13.37 13.3V312c0 22.08-17.92 40-40 40s-40-17.9-40-40v-10.7c0-7.4 5.9-13.3 13.3-13.3zM416 242.7v-16c0-22.08 17.92-40 40-40s40 17.92 40 40v16c0 7.4-5.9 13.3-13.3 13.3h-53.33c-7.47 0-13.37-5.9-13.37-13.3zm112-66.6c-15.94-22.64-42.27-37.46-72-37.46-14.64 0-28.45 3.592-40.61 9.939C399.4 126.4 373.4 112 344 112c-21.26 0-40.77 7.574-56 20.17C272.8 119.6 253.3 112 232 112c-29.36 0-55.4 14.45-71.39 36.61-12.11-6.31-26.01-9.91-40.61-9.91-29.73 0-56.06 14.82-72 37.46V128c0-26.47 21.53-48 48-48h384c26.47 0 48 21.53 48 48v48.1z"/></svg>