<svg xmlns="http://www.w3.org/2000/svg" viewBox="0 0 576 512"><!--! Font Awesome Pro 6.1.1 by @fontawesome - https://fontawesome.com License - https://fontawesome.com/license (Commercial License) Copyright 2022 Fonticons, Inc.--><path d="M480 0H96C42.98 0 0 42.98 0 96v96c0 35.35 28.65 64 64 64h448c35.35 0 64-28.65 64-64V96c0-53.02-43-96-96-96zM160 194.7c0 7.4-5.9 13.3-13.3 13.3H93.33C85.94 208 80 202.1 80 194.7v-16c0-22.08 17.92-40 40-40s40 17.9 40 40v16zm112 1.9c0 6.3-5.1 11.4-11.4 11.4h-57.2c-6.3 0-11.4-5.1-11.4-11.4V152c0-22.1 17.9-40 40-40s40 17.9 40 40v44.6zm112 0c0 6.3-5.1 11.4-11.4 11.4h-57.14c-6.36 0-11.46-5.1-11.46-11.4V152c0-22.05 17.95-40 40-40s40 17.9 40 40v44.6zm112-1.9c0 7.4-5.9 13.3-13.3 13.3h-53.33c-7.47 0-13.37-5.9-13.37-13.3v-16c0-22.08 17.92-40 40-40s40 17.92 40 40v16zm32-66.4c-15.93-22.72-42.21-37.68-72-37.68-14.64 0-28.45 3.592-40.61 9.939C399.4 78.45 373.4 64 344 64c-21.3 0-40.8 7.57-56 20.17C272.8 71.57 253.3 64 232 64c-29.4 0-55.4 14.45-71.4 36.6-12.2-6.34-26-9.93-40.6-9.93-29.79 0-56.07 14.96-72 37.68V96c0-26.47 21.53-48 48-48h384c26.47 0 48 21.53 48 48v32.3zM512 288H64c-35.35 0-64 28.65-64 64v64c0 53.02 42.98 96 96 96h384c53.02 0 96-42.98 96-96v-64c0-35.3-28.7-64-64-64zm-96 61.3c0-7.4 5.9-13.3 13.3-13.3h53.33c7.47 0 13.37 5.9 13.37 13.3V360c0 22.08-17.92 40-40 40s-40-17.9-40-40v-10.7zm-112 0c0-7.4 5.9-13.3 13.3-13.3h53.33c7.47 0 13.37 5.9 13.37 13.3V360c0 22.08-17.92 40-40 40s-40-17.92-40-40v-10.7zm-112 0c0-7.4 5.9-13.3 13.3-13.3h53.33c7.47 0 13.37 5.9 13.37 13.3V360c0 22.08-17.92 40-40 40s-40-17.9-40-40v-10.7zm-112 0c0-7.4 5.94-13.3 13.33-13.3h53.33c7.44 0 13.34 5.9 13.34 13.3V360c0 22.08-17.92 40-40 40s-40-17.9-40-40v-10.7zM528 416c0 26.47-21.53 48-48 48H96c-26.47 0-48-21.53-48-48v-5.68C63.93 433 90.21 448 120 448c21.26 0 40.77-7.574 56-20.17C191.2 440.4 210.7 448 232 448s40.77-7.574 56-20.17C303.2 440.4 322.7 448 344 448s40.77-7.574 56-20.17C415.2 440.4 434.7 448 456 448c29.79 0 56.07-14.96 72-37.68V416z"/></svg>