<svg xmlns="http://www.w3.org/2000/svg" viewBox="0 0 576 512"><!--! Font Awesome Pro 6.1.1 by @fontawesome - https://fontawesome.com License - https://fontawesome.com/license (Commercial License) Copyright 2022 Fonticons, Inc.--><path d="M268.5 304.9c5.098-12.9 11.32-25.43 19.53-37.09l-.004-7.058L223.1 223.1l64.87-36.73.03-55.27-88.9 51.3v-58.1l30.14-30.13c7.812-7.812 7.812-20.5 0-28.31s-20.47-7.812-28.28 0l-1.86 1.85V56c0-13.25-10.75-24-24-24s-24 10.75-24 24v11.71l-1.8-1.87c-7.812-7.812-20.47-7.812-28.28 0s-7.812 20.5 0 28.31l30.14 30.13v58.15L100.8 153.4l-11.05-41.2c-2.86-10.7-13.78-17.01-24.48-14.17-10.67 2.844-17 13.81-14.14 24.5l.685 2.559L41.64 119.2c-11.44-6.6-26.17-2.7-32.781 8.8-6.625 11.5-2.703 26.2 8.781 32.8l10.18 5.875-2.57.625c-10.66 2.844-16.98 13.81-14.12 24.5 2.391 8.938 10.47 14.81 19.3 14.81 1.719 0 3.469-.219 5.203-.688L76.78 194.9l50.32 28.2-48.59 29L37.36 241c-10.56-2.8-21.64 3.5-24.5 14.2-2.86 10.6 3.47 21.6 14.12 24.5l2.566.688L19.38 286.2c-11.489 6.6-15.411 21.3-8.79 32.8 4.438 7.688 12.52 12 20.8 12 4.078 0 8.203-1.031 11.98-3.219l10.17-5.871-.685 2.559C50 335.2 56.33 346.1 67 348.1c1.734.469 3.469.688 5.188.688 8.828 0 16.91-5.875 19.3-14.81l11.04-41.21 48.62-28.07v50.15L121 345.8c-7.812 7.812-7.812 20.5 0 28.31s20.47 7.812 28.28 0l1.859-1.861V392c0 13.25 10.75 24 24 24s24-10.75 24-24v-19.71L201 374.2c3.9 3.9 9 5.8 14.1 5.8s10.23-1.938 14.14-5.844c7.812-7.812 7.812-20.5 0-28.31L199.1 315.7v-50.1l69.4 39.3zM544 278.5V112C544 50.13 493.88 0 432.9 0S321.8 50.13 321.8 112v166.5c-19.75 24.62-31.1 55.5-31.1 89.5 0 79.5 64.5 143.1 143.1 143.1S576 447.5 576 368c0-34-12.2-64.9-32-89.5zM432 464c-52.88 0-96-43.13-96-96 0-27 11.75-47.25 21.5-59.5l10.5-13.1V112c0-35.25 28.75-64 64-64s64 28.75 64 64v183.3l10.5 13.12C516.3 320.8 528 341 528 368c0 52.9-43.1 96-96 96zm16-141.1V304c0-8.75-7.251-16-16-16s-15.1 7.25-15.1 16v18.88c-18.62 6.625-32 24.25-32 45.13 0 26.5 21.5 48 47.1 48s48-21.5 48-48c0-20.91-13.4-38.51-32-45.11z"/></svg>