<svg xmlns="http://www.w3.org/2000/svg" viewBox="0 0 512 512"><!--! Font Awesome Pro 6.1.1 by @fontawesome - https://fontawesome.com License - https://fontawesome.com/license (Commercial License) Copyright 2022 Fonticons, Inc.--><path d="M256 112C256 50.12 205.87 0 144 0S32 50.13 32 112v166.5C12.25 303.12 0 334 0 368c0 79.5 64.5 143.1 144 143.1S288 446.6 288 368c0-33.1-12.25-64.88-32-89.5V112zM144 464c-52.88 0-96-43.13-96-96 0-27 11.75-47.25 21.5-59.5L80 295.4V112c0-35.25 28.75-64 64-64s64 28.75 64 64v183.2l10.5 13.13C228.3 320.8 240 341 240 368c0 52.9-43.1 96-96 96zm16-141.1V160c0-8.75-7.25-16-16-16s-16 7.2-16 16v162.9c-18.6 6.6-32 24.2-32 45.1 0 26.5 21.5 48 48 48s48-21.5 48-48c0-20.9-13.4-38.5-32-45.1zM488 32H344c-13.3 0-24 10.75-24 23.1S330.7 80 343.1 80H488c13.3 0 24-10.75 24-24s-10.7-24-24-24zm0 256H376c-13.3 0-24 10.7-24 23.1s10.7 24.9 23.1 24.9H488c13.25 0 24-10.75 24-23.1S501.3 288 488 288zm0-128H344c-13.3 0-24 10.7-24 23.1s10.7 24.9 23.1 24.9H488c13.3 0 24-10.7 24-24s-10.7-24-24-24z"/></svg>