<svg xmlns="http://www.w3.org/2000/svg" viewBox="0 0 512 512"><!--! Font Awesome Pro 6.1.1 by @fontawesome - https://fontawesome.com License - https://fontawesome.com/license (Commercial License) Copyright 2022 Fonticons, Inc.--><path d="M192 368c0 26.5-21.5 48.08-48 48.08S96 394.5 96 368c0-20.88 13.38-38.5 32-45.13v-18.92c0-8.75 7.25-15.99 15.1-15.99s15.1 7.24 15.1 15.99v18.92C178.6 329.5 192 347.1 192 368zm63.1-89.5c19.75 24.62 32 55.5 32 89.5 0 79.5-64.5 144-143.1 144S0 447.5 0 368c0-34 12.25-64.88 32-89.5V112C32 50.13 82.13 0 144 0s111.1 50.13 111.1 112v166.5zM240 368c0-27-11.75-47.25-21.5-59.63L208 295.3V112c0-35.25-28.75-64-64-64s-64 28.75-64 64v183.4l-10.5 13.1C59.75 320.8 48 341 48 368c0 52.88 43.13 96 96 96s96-43.1 96-96zm264.1-9.8c-9.844-8.844-24.98-8.062-33.91 1.781L440 393.5V56c0-13.25-10.7-24-24-24s-24 10.75-24 24v337.5l-30.16-33.52c-8.891-9.844-24.05-10.62-33.91-1.781-9.844 8.875-10.64 24.03-1.781 33.91l72 80C402.7 477.1 409.2 480 416 480s13.28-2.875 17.84-7.938l72-80C514.7 382.2 513.9 367 504.1 358.2z"/></svg>