<svg xmlns="http://www.w3.org/2000/svg" viewBox="0 0 512 512"><!--! Font Awesome Pro 6.1.1 by @fontawesome - https://fontawesome.com License - https://fontawesome.com/license (Commercial License) Copyright 2022 Fonticons, Inc.--><path d="M400 0c-44.1 0-80 35.88-80 80s35.9 80 80 80 80-35.9 80-80-35.9-80-80-80zm0 112c-17.75 0-32-14.25-32-32s14.25-32 32-32 32 14.25 32 32-14.2 32-32 32zm-112 0C288 50.12 237.9 0 176 0S64 50.12 64 112v166.5C44.25 303.1 32 334 32 368c0 79.5 64.5 144 144 144s144-64.5 144-144c0-33.1-12.25-64.88-32-89.5V112zM176 464c-52.88 0-96-43.13-96-96 0-27 11.75-47.25 21.5-59.5l10.5-13.1V112c0-35.25 28.75-64 64-64s64 28.75 64 64v183.2l10.5 13.13C260.3 320.8 272 341 272 368c0 52.9-43.1 96-96 96zm16-141.1V112c0-8.7-7.2-16-16-16s-16 7.2-16 16v210.9c-18.6 6.6-32 24.2-32 45.1 0 26.5 21.5 48 48 48s48-21.5 48-48c0-20.9-13.4-38.5-32-45.1z"/></svg>