<svg xmlns="http://www.w3.org/2000/svg" viewBox="0 0 640 512"><!--! Font Awesome Pro 6.1.1 by @fontawesome - https://fontawesome.com License - https://fontawesome.com/license (Commercial License) Copyright 2022 Fonticons, Inc.--><path d="M607.1 278.5V112c0-61.88-50.13-112-112-112s-112 50.13-112 112v166.5c-18.9 24.6-32 55.5-32 89.5 0 79.5 64.51 144 144 144S640 447.5 640 368c0-34-12.3-64.9-32.9-89.5zM496 464c-52.88 0-96-43.13-96-96 0-27 11.75-47.25 21.5-59.5l10.5-13.1V112c0-35.25 28.75-64 64-64s64 28.75 64 64v183.3l10.5 13.12C580.3 320.8 592 341 592 368c0 52.9-43.1 96-96 96zM223.1 160c-34.4 0-64 28.8-64 64s28.75 64 64 64 64-28.75 64-64-27.9-64-64-64zm55-68.75L237.6 8.375c-5.625-11.12-21.63-11.12-27.25 0L168.1 91.25l-87-29.37C69.22 58 57.97 69.25 61.85 81.13L91.22 169 8.344 210.4c-11.12 5.625-11.12 21.5 0 27.12L91.22 279l-29.38 87.88C57.85 378.8 69.22 390 81.1 386.1l87.88-29.38 41.38 82.88c5.625 11.12 21.63 11.12 27.13 0l41.38-82.88L320 370.34c0-.75-.125-1.625-.125-2.5.125-35.75 11.12-70.13 32.13-100V112c0-16.88 3.5-33 8.875-48.13L278.1 91.25zm13.8 200.65c-37.38 37.38-98.25 37.38-135.8 0s-37.38-98.38 0-135.8 98.25-37.38 135.8 0c37.3 37.4 37.3 98.4 0 135.8zm219.2 31V112c0-8.75-7.251-16-16-16s-16 7.25-16 16v210.9c-17.7 6.6-32 24.2-32 45.1 0 26.5 21.5 48 48 48s48-21.5 48-48c0-20.9-12.5-38.5-32-45.1z"/></svg>