<svg xmlns="http://www.w3.org/2000/svg" viewBox="0 0 512 512"><!--! Font Awesome Pro 6.1.1 by @fontawesome - https://fontawesome.com License - https://fontawesome.com/license (Commercial License) Copyright 2022 Fonticons, Inc.--><path d="M255.1-.003c-141.4 0-256 114.6-256 256s114.6 256 256 256 256-114.6 256-256-113.7-256-256-256zM215 52.1c-1.2 51.5-25.3 101.8-70.6 133.5-28.2 19.72-60.37 29.49-92.4 30.16C68.16 133.6 132.9 68.58 215 52.1zM48.4 263.9c136.7-.05 214.9-114.7 215.2-215.5 108.7 3.93 196 91.41 199.1 200.1-.016 0 0 0 0 0s-.003 0 0 0c.011 0 0 0 0 0s.016 0 0 0c-137.1 0-214.8 114.8-215 215.2-107.8-4-195.19-91.3-199.3-199.8zm248.6 196c1.199-51.49 25.3-101.8 70.63-133.5 28.17-19.7 59.47-29.3 92.37-30-16.2 82.1-80.9 147-163 163.5z"/></svg>