<svg xmlns="http://www.w3.org/2000/svg" viewBox="0 0 576 512"><!--! Font Awesome Pro 6.1.1 by @fontawesome - https://fontawesome.com License - https://fontawesome.com/license (Commercial License) Copyright 2022 Fonticons, Inc.--><path d="M209.8 111.9c8.9 9.9 8.1 24.2-1.7 33.9l-80 72c-9.2 8.3-23 8.3-32.16 0l-80-72c-9.847-9.7-10.646-24-1.78-33.9 8.87-9.8 24.04-10.6 33.9-1.7L88 146.1V24c0-13.25 10.75-24 24-24 13.3 0 24 10.75 24 24v122.1l39.9-35.9c9.9-8.9 24.2-8.1 33.9 1.7zm352 0c8.9 9.9 8.1 24.2-1.7 33.9l-80 72c-9.2 8.3-23 8.3-32.2 0l-80-72c-9.8-9.7-10.6-24-1.7-33.9 8.8-9.8 24-10.6 33.9-1.7l39.9 35.9V24c0-13.25 10.7-24 24-24s24 10.75 24 24v122.1l39.9-35.9c9.9-8.9 24.2-8.1 33.9 1.7zm-93.4 181.2c11.5 8 19.1 21.9 21.2 36.4l16.9 118.6c4.9 33.7-21.3 63.9-55.4 63.9H124.9c-34.08 0-60.26-30.2-55.44-63.9L86.4 329.5c2.07-14.5 9.67-28.4 21.2-36.4L273.3 165c7.8-6.7 20.7-6.7 29.4 0l165.7 128.1zm-334.5 43.1-17.8 118.7c.2 4.8 3.9 9.1 8.8 9.1H264V232.9L136.1 331c-.8 1.3-1.9 3.2-2.2 5.2zM374.4 464h76.7c4 0 8.6-4.3 7.9-9.1l-16.9-118.7c-.3-2-1.4-3.9-3.1-5.2l-127-98.1V360l62.4 104z"/></svg>