<svg xmlns="http://www.w3.org/2000/svg" viewBox="0 0 576 512"><!--! Font Awesome Pro 6.1.1 by @fontawesome - https://fontawesome.com License - https://fontawesome.com/license (Commercial License) Copyright 2022 Fonticons, Inc.--><path d="M274.4 4.243c8.2-5.657 19-5.657 27.2 0L521.5 155.9c12.6 9.3 22.2 24 23.9 40.2l26.7 254c3.5 33.1-22.4 61.9-55.6 61.9H59.55C26.3 512 .373 483.2 3.853 450.1l26.737-254c1.71-16.2 10.44-30.9 23.9-40.2L274.4 4.243zm250 450.957-26.7-254.1c-.3-2.3-1.5-4.4-3.4-5.7L312 69.71V279.3L413.6 464h102.9c4.7 0 8.4-4.1 7.9-8.8zM264 69.71 81.74 195.4a7.888 7.888 0 0 0-3.41 5.7L51.59 455.2c-.5 4.7 3.21 8.8 7.96 8.8H264V69.71z"/></svg>