<svg xmlns="http://www.w3.org/2000/svg" viewBox="0 0 640 512"><!--! Font Awesome Pro 6.1.1 by @fontawesome - https://fontawesome.com License - https://fontawesome.com/license (Commercial License) Copyright 2022 Fonticons, Inc.--><path d="M595.1 124.6c12.3 8.9 20.5 22.6 22.5 37.7l17.2 126.1c4.6 33.7-21.5 63.6-55.5 63.6H461.5l-6.2-41.5c-1.2-2.2-.8-4.4-2.2-6.5h126.2c4.9 0 8.6-4.3 8-9.1l-17.2-126.1c-.3-2.2-1.5-4.1-3.3-5.4L416 53.68 278.9 153.4l-16.1-12.3c-9.2-7-20.7-11.2-30.7-12.6 1.5-1.4 3.1-2.7 4.8-3.9l165-120.01c8.4-6.12 19.8-6.12 28.2 0l165 120.01zM404.4 293.1c11.5 8 19.1 21.9 21.2 36.4l16.9 118.6c4.9 33.7-21.3 63.9-55.4 63.9H60.9c-34.08 0-60.26-30.2-55.44-63.9l16.95-118.6c2.06-14.5 9.66-28.4 21.19-36.4L209.3 165c7.8-6.7 20.7-6.7 29.4 0l165.7 128.1zM69.92 336.2 52.98 454.9c-.69 4.8 3.05 9.1 7.92 9.1H200V232.9L72.95 331a8.233 8.233 0 0 0-3.03 5.2zM310.4 464h76.7c4 0 8.6-4.3 7.9-9.1l-16.9-118.7c-.3-2-1.4-3.9-3.1-5.2l-127-98.1V360l62.4 104z"/></svg>