<svg xmlns="http://www.w3.org/2000/svg" viewBox="0 0 640 512"><!--! Font Awesome Pro 6.1.1 by @fontawesome - https://fontawesome.com License - https://fontawesome.com/license (Commercial License) Copyright 2022 Fonticons, Inc.--><path d="M241.8 111.9c8.9 9.9 8.1 24.2-1.7 33.9l-80 72c-9.2 8.3-23 8.3-32.2 0l-79.96-72c-9.85-9.7-10.65-24-1.78-33.9 8.87-9.8 24.04-10.6 33.89-1.7l39.05 35.9V24c0-13.25 11.6-24 24-24 14.2 0 24 10.75 24 24v122.1l40.8-35.9c9.9-8.9 24.2-8.1 33.9 1.7zM369.3 133c7.8-6.7 20.7-6.7 29.4 0l166.5 128.7c10.7 8.2 18 20.1 20.7 33.3l33.8 169.3C631.2 466.1 640 476 640 488c0 13.3-10.7 24-24 24H24c-13.25 0-24-10.7-24-24s10.75-24 24-24h124.3l33.8-169c2.7-13.2 10-25.1 20.7-33.3L369.3 133zm-172 331H360V200.9l-127.9 98.8c-1.5 1.2-2.5 2.8-2.9 4.7L197.3 464zm274.7 0h98.7l-31.9-159.6c-.4-1.9-1.4-3.5-2.9-4.7L408 200.9V336l64 128z"/></svg>