<svg xmlns="http://www.w3.org/2000/svg" viewBox="0 0 576 512"><!--! Font Awesome Pro 6.1.1 by @fontawesome - https://fontawesome.com License - https://fontawesome.com/license (Commercial License) Copyright 2022 Fonticons, Inc.--><path d="M6.338 72.25c-8.975-9.75-8.342-24.94 1.413-33.91 9.759-8.98 24.939-9.24 33.909 1.41L225.7 239.8c8.4 9.1 8.4 23.3 0 32.4l-184.04 200c-8.97 9.8-24.15 10.4-33.909 1.5-9.755-9-10.387-24.2-1.413-33.9L175.4 256 6.338 72.25zM552 432c13.3 0 24 10.7 24 24s-10.7 24-24 24H248c-13.3 0-24-10.7-24-24s10.7-24 24-24h304z"/></svg>