<svg xmlns="http://www.w3.org/2000/svg" viewBox="0 0 448 512"><!--! Font Awesome Pro 6.1.1 by @fontawesome - https://fontawesome.com License - https://fontawesome.com/license (Commercial License) Copyright 2022 Fonticons, Inc.--><path d="M424 32H24C10.75 32 0 42.75 0 56v64c0 13.3 10.75 24 24 24s24-10.7 24-24V80h152v160h-32c-13.2 0-24 10.8-24 24s10.8 24 24 24h112c13.25 0 24-10.75 24-24s-10.7-24-24-24h-32V80h152v40c0 13.25 10.75 24 24 24s24-10.7 24-24V56c0-13.25-10.7-24-24-24zm-55.9 263c-9.375-9.375-24.56-9.375-33.94 0s-9.375 24.56 0 33.94L366.1 360H81.94l31.03-31.03c9.375-9.375 9.375-24.56 0-33.94s-24.56-9.375-33.94 0l-72 72c-9.375 9.375-9.375 24.56 0 33.94l72 72C83.72 477.7 89.84 480 96 480s12.28-2.351 16.97-7.039c9.375-9.375 9.375-24.56 0-33.94L81.94 408h284.1l-31.03 31.03c-9.375 9.375-9.375 24.56 0 33.94C339.7 477.7 345.8 480 352 480s12.28-2.351 16.97-7.039l72-72c9.375-9.375 9.375-24.56 0-33.94L368.1 295z"/></svg>