<svg xmlns="http://www.w3.org/2000/svg" viewBox="0 0 640 512"><!--! Font Awesome Pro 6.1.1 by @fontawesome - https://fontawesome.com License - https://fontawesome.com/license (Commercial License) Copyright 2022 Fonticons, Inc.--><path d="M630.8 469.1 346.5 246.3 381.2 80H528v56c0 13.3 10.8 24 24 24s24-10.7 24-24V56c0-13.25-10.7-24-24-24H152c-13.2 0-24 10.75-24 24v19.01L38.81 5.13C34.41 1.692 29.19 0 24.03 0 16.91 0 9.834 3.166 5.115 9.197c-8.188 10.44-6.365 25.52 4.073 33.69l591.1 463.1c10.5 8.203 25.57 6.339 33.7-4.068C643.1 492.4 641.2 477.3 630.8 469.1zM176 80h156.1l-27.7 133.3L176 112.6V80zm208 376c0 13.25-10.75 24-24 24H216c-13.2 0-24-10.7-24-24s10.75-24 24-24h42.81l24.12-115.8 42.16 33.04L307.9 432H360c13.3 0 24 10.8 24 24z"/></svg>