<svg xmlns="http://www.w3.org/2000/svg" viewBox="0 0 576 512"><!--! Font Awesome Pro 6.1.1 by @fontawesome - https://fontawesome.com License - https://fontawesome.com/license (Commercial License) Copyright 2022 Fonticons, Inc.--><path d="M296 32H24C10.75 32 0 42.75 0 56v80c0 13.3 10.75 24 24 24s24-10.7 24-24V80h88v352H88c-13.25 0-24 10.8-24 24s10.75 24 24 24h144c13.3 0 24-10.7 24-24s-10.7-24-24-24h-48V80h88v56c0 13.3 10.8 24 24 24s24-10.7 24-24V56c0-13.25-10.7-24-24-24zm239 335-31 31.1V113.9l31.03 31.03C539.7 149.7 545.8 152 552 152s12.28-2.344 16.97-7.031c9.375-9.375 9.375-24.56 0-33.94l-72-72c-9.375-9.375-24.56-9.375-33.94 0l-72 72c-9.375 9.375-9.375 24.56 0 33.94s24.56 9.375 33.94 0L456 113.9V398l-31.03-31.03c-9.375-9.375-24.56-9.375-33.94 0s-9.375 24.56 0 33.94l72 72C467.7 477.7 473.8 480 480 480s12.28-2.351 16.97-7.039l72-72c9.375-9.375 9.375-24.56 0-33.94S544.4 357.7 535 367z"/></svg>