<svg xmlns="http://www.w3.org/2000/svg" viewBox="0 0 512 512"><!--! Font Awesome Pro 6.1.1 by @fontawesome - https://fontawesome.com License - https://fontawesome.com/license (Commercial License) Copyright 2022 Fonticons, Inc.--><path d="M476.7 20.35C439.2-10.28 381.21-5.91 344.8 30.6L105.2 271.8c-5.84 6-9.18 14.1-9.18 22.6v87.71L7.03 471.13c-9.374 9.377-9.374 24.63 0 33.88 9.374 9.377 24.62 9.377 33.87 0l88.99-89.02h86.64c8.468 0 16.59-3.355 22.59-9.332l244.9-243.1C518.9 127.8 526.2 61.11 476.7 20.35zM450.1 128.6 210 368h-66v-67.1l35-35.27 33.67 33.67c3.13 3.1 7.23 4.7 11.33 4.7s8.188-1.562 11.31-4.688c6.25-6.25 6.25-16.38 0-22.62L201.6 242.9l41.21-41.54 33.92 33.92C279.8 238.4 283.9 240 288 240s8.188-1.562 11.31-4.688c6.25-6.25 6.25-16.38 0-22.62l-34.01-34.01 41.21-41.54 34.17 34.17C343.8 174.4 347.9 176 352 176s8.188-1.562 11.31-4.688c6.25-6.25 6.25-16.38 0-22.62l-34.25-34.25 49.69-50.07c19.12-19.13 48.75-22.13 67.37-7C471.6 78.36 467.2 111.5 450.1 128.6z"/></svg>