<svg xmlns="http://www.w3.org/2000/svg" viewBox="0 0 384 512"><!--! Font Awesome Pro 6.1.1 by @fontawesome - https://fontawesome.com License - https://fontawesome.com/license (Commercial License) Copyright 2022 Fonticons, Inc.--><path d="M168 352H32c-9.85 0-19.16-4.5-25.222-12.3a32.092 32.092 0 0 1-5.822-27.5l6.246-24.9C17.51 246 42.58 211.5 75.93 188.9L86.77 48H56c-4.44 0-8.59-1.2-12.16-3.3C36.76 40.53 32 32.82 32 24 32 10.75 42.75 0 56 0h272c13.3 0 24 10.75 24 24 0 8.82-4.8 16.53-11.8 20.7-3.6 2.1-7.8 3.3-12.2 3.3h-30.8l10.9 140.9c33.3 22.6 58.4 57.1 68.7 98.4l6.2 24.9c2.4 9.6.3 19.7-5.8 27.5-6 7.8-15.3 12.3-25.2 12.3H216v136c0 13.3-10.7 24-24.9 24-12.4 0-24-10.7-24-24l.9-136zm-46-136.3-19.1 13c-23.89 16.1-41.77 40.7-49.13 70.2l-1.28 5.1H168v-88c0-13.3 10.7-24 24-24s24 10.7 24 24v88h115.5l-1.3-5.1c-7.3-29.5-26.1-54.1-49.1-70.2l-20-13-12-167.7H134.9L122 215.7z"/></svg>