<svg xmlns="http://www.w3.org/2000/svg" viewBox="0 0 640 512"><!--! Font Awesome Pro 6.1.1 by @fontawesome - https://fontawesome.com License - https://fontawesome.com/license (Commercial License) Copyright 2022 Fonticons, Inc.--><path d="M512 112c0 8.8-7.2 16-16 16s-16-7.2-16-16 7.2-16 16-16 16 7.2 16 16zm0 64c0 8.8-7.2 16-16 16s-16-7.2-16-16 7.2-16 16-16 16 7.2 16 16zm-32 64c0-8.8 7.2-16 16-16s16 7.2 16 16-7.2 16-16 16-16-7.2-16-16zm32 64c0 8.8-7.2 16-16 16s-16-7.2-16-16 7.2-16 16-16 16 7.2 16 16zM288.4 176l-23.1-69.5c-1.8-5.2 2.1-10.5 7.6-10.5h30.2c9.4 0 17.3 4.5 21.6 11.9l39.7 68.1h40.3c16 0 31.4 6.4 42.8 17.7 7.9 7.9 7.9 20.7 0 28.6-11.4 11.3-26.8 17.7-42.8 17.7h-40.3l-39.7 68.1c-4.3 7.4-12.2 11.9-21.6 11.9h-30.2c-5.5 0-9.4-5.3-7.6-10.5l23.1-69.5h-42.6l-19.2 25.6c-3.1 4-7.8 6.4-12.8 6.4H200c-5.2 0-9.9-4.9-7.8-9.9l12.6-50.2c.6-2.6.6-5.2 0-7.8l-12.6-50.2c-2.1-5 2.6-9.9 7.8-9.9h13.8c5 0 9.7 2.4 12.8 6.4l19.2 25.6h42.6zM640 96v72c-22.1 0-40 17.9-40 40s17.9 40 40 40v72c0 35.3-28.7 64-64 64H160c-35.3 0-64-28.7-64-64V96c0-35.35 28.7-64 64-64h416c35.3 0 64 28.65 64 64zM144 320c0 8.8 7.2 16 16 16h416c8.8 0 16-7.2 16-16v-38.2c-24.1-15.7-40-42.9-40-73.8s15.9-58.1 40-73.8V96c0-8.84-7.2-16-16-16H160c-8.8 0-16 7.16-16 16v224zM24 96c13.25 0 24 10.7 24 24v240c0 39.8 32.24 72 72 72h400c13.3 0 24 10.7 24 24s-10.7 24-24 24H120C53.73 480 0 426.3 0 360V120c0-13.3 10.75-24 24-24z"/></svg>