<svg xmlns="http://www.w3.org/2000/svg" viewBox="0 0 640 512"><!--! Font Awesome Pro 6.1.1 by @fontawesome - https://fontawesome.com License - https://fontawesome.com/license (Commercial License) Copyright 2022 Fonticons, Inc.--><path d="M416 160c0-8.8 7.2-16 16-16s16 7.2 16 16-7.2 16-16 16-16-7.2-16-16zm0 64c0-8.8 7.2-16 16-16s16 7.2 16 16-7.2 16-16 16-16-7.2-16-16zm32 64c0 8.8-7.2 16-16 16s-16-7.2-16-16 7.2-16 16-16 16 7.2 16 16zm-32 64c0-8.8 7.2-16 16-16s16 7.2 16 16-7.2 16-16 16-16-7.2-16-16zM186.7 224l-23.2-69.5c-1.7-5.2 2.1-10.5 7.6-10.5h31.1c8.6 0 16.4 4.5 20.7 11.9l39.8 68.1h40.2c15.2 0 31.5 6.4 42.8 17.7 7.9 7.9 7.9 20.7 0 28.6-11.3 11.3-27.6 17.7-42.8 17.7h-40.2l-39.8 68.1c-4.3 7.4-12.1 11.9-20.7 11.9h-31.1c-5.5 0-9.3-5.4-7.6-10.5l23.2-69.5h-43.6l-18.3 25.6c-3 4-7.8 6.4-13.7 6.4H98.25c-5.21 0-9.03-4.9-7.77-9.9L103 259.9c.7-2.6.7-5.2 0-7.8l-12.52-50.2c-1.26-5 2.56-9.9 7.77-9.9h12.85c5.9 0 10.7 2.4 13.7 6.4l18.3 25.6h43.6zM0 128c0-35.35 28.65-64 64-64h512c35.3 0 64 28.65 64 64v61.3c0 11.2-12.8 18.7-24 18.7-26.5 0-48 21.5-48 48s21.5 48 48 48c11.2 0 24 7.5 24 18.7V384c0 35.3-28.7 64-64 64H64c-35.35 0-64-28.7-64-64V128zm64-16c-8.84 0-16 7.2-16 16v256c0 8.8 7.16 16 16 16h512c8.8 0 16-7.2 16-16v-35.9c-41.4-9.8-72-47.4-72-92.1 0-44.7 30.6-82.3 72-93v-35c0-8.8-7.2-16-16-16H64z"/></svg>