<svg xmlns="http://www.w3.org/2000/svg" viewBox="0 0 640 512"><!--! Font Awesome Pro 6.1.1 by @fontawesome - https://fontawesome.com License - https://fontawesome.com/license (Commercial License) Copyright 2022 Fonticons, Inc.--><path d="M208 96c0 35.8-23.5 66.1-56 76.3V232h176v-59.7c-32.5-10.2-56-40.5-56-76.3 0-44.18 35.8-80 80-80s80 35.82 80 80c0 35.8-23.5 66.1-56 76.3V232h178.6l-58.9-54.4c-10.6-9-10.3-24.1-1.3-33.9 9-10.6 24.1-10.3 33.9-1.3l103.9 95.9c.2.1.3.3.4.4.3-.6.6.6.9.9 4 4.3 6.5 10.1 6.5 16.4 0 6.3-2.5 12.1-6.5 16.4l-.9.9c-.1.1-.2.3-.4.4l-103.9 95.9c-9.8 9-24.9 8.4-33.9-1.3-9-9.8-9.3-24.9 1.3-33.9l58.9-54.4H248v59.7c32.5 10.2 56 40.5 56 76.3 0 44.2-35.8 80-80 80s-80-35.8-80-80c0-35.8 23.5-66.1 56-76.3V280H24c-13.25 0-24-10.7-24-24s10.75-24 24-24h80v-59.7C71.54 162.1 48 131.8 48 96c0-44.18 35.82-80 80-80 44.2 0 80 35.82 80 80zm-80-32c-17.7 0-32 14.33-32 32 0 17.7 14.3 32 32 32s32-14.3 32-32c0-17.67-14.3-32-32-32zm96 384c17.7 0 32-14.3 32-32s-14.3-32-32-32-32 14.3-32 32 14.3 32 32 32zm128-320c17.7 0 32-14.3 32-32 0-17.67-14.3-32-32-32s-32 14.33-32 32c0 17.7 14.3 32 32 32z"/></svg>