<svg xmlns="http://www.w3.org/2000/svg" viewBox="0 0 640 512"><!--! Font Awesome Pro 6.1.1 by @fontawesome - https://fontawesome.com License - https://fontawesome.com/license (Commercial License) Copyright 2022 Fonticons, Inc.--><path d="M152 232h336v-59.7c-32.5-10.2-56-40.5-56-76.3 0-44.18 35.8-80 80-80s80 35.82 80 80c0 35.8-23.5 66.1-56 76.3V232h80c13.3 0 24 10.7 24 24s-10.7 24-24 24H344v59.7c32.5 10.2 56 40.5 56 76.3 0 44.2-35.8 80-80 80s-80-35.8-80-80c0-35.8 23.5-66.1 56-76.3V280H24c-13.25 0-24-10.7-24-24s10.75-24 24-24h80v-59.7C71.54 162.1 48 131.8 48 96c0-44.18 35.82-80 80-80 44.2 0 80 35.82 80 80 0 35.8-23.5 66.1-56 76.3V232zm-24-104c17.7 0 32-14.3 32-32 0-17.67-14.3-32-32-32S96 78.33 96 96c0 17.7 14.3 32 32 32zm192 256c-17.7 0-32 14.3-32 32s14.3 32 32 32 32-14.3 32-32-14.3-32-32-32zM512 64c-17.7 0-32 14.33-32 32 0 17.7 14.3 32 32 32s32-14.3 32-32c0-17.67-14.3-32-32-32z"/></svg>