<svg xmlns="http://www.w3.org/2000/svg" viewBox="0 0 512 512"><!--! Font Awesome Pro 6.1.1 by @fontawesome - https://fontawesome.com License - https://fontawesome.com/license (Commercial License) Copyright 2022 Fonticons, Inc.--><path d="M448 24v30.46c0 24.93 4 49.74 11.9 73.34l2.5 7.5c5 15 11.9 29.6 19.7 45.4 17.2 34.8 32.4 80.2 26.7 131.7-5.5 49.8-30 102.2-84.8 154.1V496c0 8.8-7.2 16-16 16h-16c-8.8 0-16-7.2-16-16v-16h-48v16c0 8.8-7.2 16-16 16h-16c-8.8 0-16-7.2-16-16v-16h-48v16c0 8.8-7.2 16-16 16h-16c-8.8 0-16-7.2-16-16v-16h-48v16c0 8.8-7.2 16-16 16h-16c-8.84 0-16-7.2-16-16v-29.5C33.23 414.6 8.66 362.2 3.19 312.4c-5.664-51.5 9.52-96.9 26.71-131.7 7.78-15.8 14.71-30.4 19.71-45.4l2.49-7.5C59.98 104.2 64 79.39 64 54.46V24C64 10.75 74.75 0 88 0c13.3 0 24 10.75 24 24v30.46c0 30.09-4.9 60.04-14.37 88.54l-2.48 7.4c-6.14 18.5-14.4 35.7-22.2 51.5-15.02 30.5-26.33 66.3-22.05 105.3 4.04 36.7 22.28 79.2 70.5 124.8h269.2c48.2-45.6 66.5-88.1 70.5-124.8 4.3-39-7-74.8-22-105.3-7.9-15.8-17-33-22.2-51.5l-2.5-7.4c-9.5-28.6-14.4-58.45-14.4-88.54V24c0-13.25 10.7-24 24-24s24 10.75 24 24zM256 96c13.3 0 24 10.7 24 24v112c0 13.3-10.7 24-24 24s-24-10.7-24-24V120c0-13.3 10.7-24 24-24zm32 224c0 17.7-14.3 32-32 32s-32-14.3-32-32 14.3-32 32-32 32 14.3 32 32z"/></svg>