<svg xmlns="http://www.w3.org/2000/svg" viewBox="0 0 512 512"><!--! Font Awesome Pro 6.1.1 by @fontawesome - https://fontawesome.com License - https://fontawesome.com/license (Commercial License) Copyright 2022 Fonticons, Inc.--><path d="M424 288c0 92.8-75.2 168-168.9 168-91.9 0-168-75.2-168-168s76.1-168 168-168c93.7 0 168.9 75.2 168.9 168zm-79.4-80.9-24.2 33.4c9.8 13.3 15.6 29.7 15.6 47.5l-.9.9 40.1 12.7c.5-4.4.8-9 .8-13.6 0-31.2-11.9-59.6-31.4-80.9zm-65.5 157.3v41.2c35.3-7 64.4-28.7 81.3-58.3l-39.3-12.8c-10 14-24.4 24.6-42 29.9zm-88.2-29.9-39.3 12.8c16.9 29.6 46 51.3 79.5 58.3v-41.3c-15.9-5.2-30.2-15.9-40.2-29.8zM135.1 288c0 4.6 1.2 9.2 1.7 13.6l39.2-12.7-.9-.9c0-17.8 6.7-34.2 16.5-47.5l-24.2-33.4c-19.5 21.3-32.3 49.7-32.3 80.9zm146.5-75.8 24.2-33.4c-15.2-6.9-32-10.8-50.7-10.8-16.9 0-33.7 3.9-48.9 10.8l24.2 33.4c8-2.7 16.7-4.2 24.7-4.2 9 0 18.5 1.5 26.5 4.2zM255.1 256c-16.8 0-32 14.3-32 32s15.2 32 32 32c18.6 0 32.9-14.3 32.9-32s-14.3-32-32.9-32zM512 288c0 38.1-8.3 74.2-23.2 106.7-1.1 2.2-1 4.8.1 7l17.6 35.4c3.6 7.2 5.5 15.1 5.5 23.1 0 28.6-23.2 51.8-51.8 51.8H51.78C23.18 512 0 488.8 0 460.2c0-8 1.871-15.9 5.466-23.1l17.664-35.4c1.11-2.2 1.12-4.8.09-7C8.314 362.2 0 326.1 0 288 0 146.6 114.6 32 256 32s256 114.6 256 256zM255.1 80c-114 0-208 93.1-208 208 0 31 7.66 60.3 19.75 86.7 6.93 15.1 7 32.9-.78 48.5L48.4 458.5c-.26.6-1.3 1.1-1.3 1.7 0 2.1 2.59 3.8 4.68 3.8H460.2c2.1 0 3.8-1.7 3.8-3.8 0-.6-.1-1.1-.4-1.7l-17.7-35.3c-7.8-15.6-7.7-33.4-.7-48.5 12-26.4 18.8-55.7 18.8-86.7 0-114.9-93.1-208-208.9-208z"/></svg>