<svg xmlns="http://www.w3.org/2000/svg" viewBox="0 0 512 512"><!--! Font Awesome Pro 6.1.1 by @fontawesome - https://fontawesome.com License - https://fontawesome.com/license (Commercial License) Copyright 2022 Fonticons, Inc.--><path d="M88 256c0-92.8 75.2-168 168-168s168 75.2 168 168-75.2 168-168 168S88 348.8 88 256zm287.2 13.6c.5-4.4.8-9 .8-13.6 0-31.2-11.9-59.6-31.4-80.9l-24.2 33.4c9.8 13.3 15.6 29.7 15.6 47.5 0 .3-.9.6-.9.9l40.1 12.7zm-54.1 32.9c-10 14-24.4 24.6-42 29.9v41.2c35.3-7 64.4-28.7 81.3-58.3l-39.3-12.8zm-90 71.1v-41.3c-15.9-5.2-30.2-15.9-40.2-29.8l-39.3 12.8c16.9 29.6 46 51.3 79.5 58.3zM176 256.9v-.9c0-17.8 5.8-34.2 15.6-47.5l-24.2-33.4C147.9 196.4 136 224.8 136 256c0 4.6.3 9.2.8 13.6l39.2-12.7zm54.4-76.7c8-2.7 16.7-4.2 25.6-4.2 8.1 0 17.6 1.5 25.6 4.2l24.2-33.4c-15.2-6.9-32-10.8-49.8-10.8-17.8 0-34.6 3.9-49.8 10.8l24.2 33.4zM256 224c-17.7 0-32 14.3-32 32s14.3 32 32 32 32-14.3 32-32-14.3-32-32-32zm256 32c0 141.4-114.6 256-256 256S0 397.4 0 256 114.6 0 256 0s256 114.6 256 256zM256 48C141.1 48 48 141.1 48 256s93.1 208 208 208 208-93.1 208-208S370.9 48 256 48z"/></svg>