<svg xmlns="http://www.w3.org/2000/svg" viewBox="0 0 576 512"><!--! Font Awesome Pro 6.1.1 by @fontawesome - https://fontawesome.com License - https://fontawesome.com/license (Commercial License) Copyright 2022 Fonticons, Inc.--><path d="M192 160c53 0 96 42.1 96 96 0 53-43 96-96 96-53.9 0-96-43-96-96 0-53.9 42.1-96 96-96zm-48 96c0 26.5 21.5 48 48 48s48-21.5 48-48-21.5-48-48-48-48 21.5-48 48zm240 192H192C85.96 448 0 362 0 256 0 149.1 85.96 64 192 64h192c106 0 192 85.1 192 192 0 106-86 192-192 192zm0-336H192c-79.5 0-144 64.5-144 144s64.5 144 144 144h192c79.5 0 144-64.5 144-144s-64.5-144-144-144z"/></svg>