<svg xmlns="http://www.w3.org/2000/svg" viewBox="0 0 640 512"><!--! Font Awesome Pro 6.1.1 by @fontawesome - https://fontawesome.com License - https://fontawesome.com/license (Commercial License) Copyright 2022 Fonticons, Inc.--><path d="m630.8 469.1-54.8-43V192C576 86.1 525.76 0 464 0H176c-29.7 0-56.5 20.18-76.57 52.62L38.81 5.109A23.96 23.96 0 0 0 24.03 0C16.905 0 9.84 3.156 5.12 9.187c-8.188 10.44-6.375 25.53 4.062 33.7l591.1 463.1c10.5 8.203 25.56 6.328 33.69-4.078C643.1 492.4 641.2 477.3 630.8 469.1zM351.1 192c0 22.68 2.881 43.97 7.125 64.16L137.4 82.39C149.6 60.48 164.2 48 176 48h214.2c-23.4 35.21-39.1 86.6-39.1 144zM528 388.5l-23.32-18.28c8.22-5.52 16.12-12.32 23.32-20.92v39.2zM463.1 336c-1.43 0-3.014-.826-4.516-1.182L433.7 314.6c-18-24.2-34.6-67.3-34.6-122.6 0-86.63 38.5-144 64-144 26.4 0 64.9 57.4 64.9 144s-38.5 144-64.9 144zM240 464v-80h126.6l-61.3-48H176c-25.5 0-64-57.4-64-144 0-2.518.332-4.752.397-7.219L66.91 149.1C65.07 162.9 64 177.2 64 192c0 105.9 50.24 192 112 192h16v96c0 17.67 14.33 32 32 32h305.9l-61.24-48H240zm223.1-320c-13.25 0-23.1 21.5-23.1 48s10.75 48 23.1 48c13.25 0 24-21.5 24-48s-9.9-48-24-48z"/></svg>