<svg xmlns="http://www.w3.org/2000/svg" viewBox="0 0 640 512"><!--! Font Awesome Pro 6.1.1 by @fontawesome - https://fontawesome.com License - https://fontawesome.com/license (Commercial License) Copyright 2022 Fonticons, Inc.--><path d="m630.8 469.1-113.2-88.74c51.53-17.26 90.42-95.02 90.42-188.4C607.1 85.1 557.9 0 495.1 0h-320c-28.9 0-55.7 20.15-75.74 52.57L38.81 5.11A23.955 23.955 0 0 0 24.03 0C16.905 0 9.84 3.156 5.12 9.187c-8.188 10.44-6.375 25.53 4.062 33.7l591.1 463.1c10.5 8.203 25.56 6.328 33.69-4.078C643.1 492.4 641.2 477.3 630.8 469.1zm-247.7-278-.005 83.65L137.4 82.38C149.6 60.47 164.2 48 175.1 48h246.1c-22.5 35.25-38.1 86.6-38.1 143.1zm112 144.9c-25.5 0-64-57.38-64-144s38.5-144 64-144 64 57.38 64 144-37.6 144-64 144zM365.4 464H92.6c12.5-37.5 19.38-62.25 19.38-99.88V192c0-2.523.332-4.764.397-7.236L66.88 149.1c-1.84 13.8-2.9 28.1-2.9 42v172.1c0 41.13-9.75 62.75-31.13 126.9-3.5 10.25 4.25 20.1 15.13 20.1L376.9 512c13.88 0 26-8.75 30.38-21.88 6.768-20.15 12.98-39.33 17.59-60.46l-42.82-33.56c-2.95 24.7-9.95 45.1-16.65 67.9zm129.7-320c-13.25 0-23.1 21.5-23.1 48s10.75 48 23.1 48c14.1 0 24.9-21.5 24.9-48s-10.8-48-24.9-48z"/></svg>