<svg xmlns="http://www.w3.org/2000/svg" viewBox="0 0 448 512"><!--! Font Awesome Pro 6.1.1 by @fontawesome - https://fontawesome.com License - https://fontawesome.com/license (Commercial License) Copyright 2022 Fonticons, Inc.--><path d="M176 80h-48c-8.8 0-16 7.16-16 16s7.2 16 16 16h48c8.8 0 16-7.2 16-16s-7.2-16-16-16zm248-32c13.3 0 24-10.75 24-24S437.3 0 424 0H24C10.75 0 0 10.75 0 24s10.75 24 24 24h8v164.1C17.04 224.8 8 239 8 256c0 51.01 24.52 97.21 64 130.6V472c0 22.1 17.94 40 40 40h224c22.06 0 40-17.94 40-40v-85.44c39.48-33.36 64-79.55 64-130.6 0-16.96-9.035-31.15-24-43.04V48h8zM80 48h288v140.4c-40.6-13.8-93.2-20.4-144-20.4s-103.4 6.6-144 20.4V48zm248 416H120v-46.82C150.9 431.7 186.3 440 224 440s73.12-8.309 104-22.82V464zm-104-72c-62.26 0-116.1-27.88-145.1-68.72C119.7 337.3 172.8 344 224 344s104.3-6.717 145.1-20.72C340.1 364.1 286.3 392 224 392zm0-96c-107.5 0-164.1-29.17-167.9-39.54-.002-.105 0 .105 0 0C59.75 245.2 116.4 216 224 216c106.6 0 163.2 28.53 167.9 40-4.7 11.5-61.3 40-167.9 40z"/></svg>