<svg xmlns="http://www.w3.org/2000/svg" viewBox="0 0 512 512"><!--! Font Awesome Pro 6.1.1 by @fontawesome - https://fontawesome.com License - https://fontawesome.com/license (Commercial License) Copyright 2022 Fonticons, Inc.--><path d="M399.1 144c-13.25 0-23.1 21.5-23.1 48s10.75 48 23.1 48c13.25 0 24-21.5 24-48s-9.9-48-24-48zm0-144H112C50.24 0 0 86.13 0 192s50.24 192 112 192h16v96c0 17.67 14.33 32 32 32h320c17.67 0 32-14.33 32-32V192C512 86.13 461.8 0 399.1 0zM112 336c-25.5 0-64.01-57.38-64.01-144S86.5 48 112 48h214.2c-23.34 35.21-38.16 86.64-38.16 144s14.82 108.8 38.16 144H112zm352 128H176v-80h223.1c23.8 0 45.84-12.88 64-34.66V464zm-64.9-128c-25.5 0-64-57.38-64-144s38.5-144 64-144c26.4 0 64.9 57.4 64.9 144s-38.5 144-64.9 144zm-224-144c-7.9 0-16 7.2-16 15.1 0 8.828 7.164 15.99 15.99 15.99 8.83 0 15.1-7.168 15.1-15.1.91-8.79-5.39-15.99-15.09-15.99zm64 0c-8.83 0-15.1 7.167-15.1 15.1s7.2 16.9 15.1 16.9 15.1-7.167 15.1-15.1-5.4-16.9-15.1-16.9zm-128 0c-8.834 0-16 7.167-16 15.1 0 8.834 7.166 16 16 16s16-7.166 16-15.1c0-8.8-6.3-16-16-16z"/></svg>