<svg xmlns="http://www.w3.org/2000/svg" viewBox="0 0 576 512"><!--! Font Awesome Pro 6.1.1 by @fontawesome - https://fontawesome.com License - https://fontawesome.com/license (Commercial License) Copyright 2022 Fonticons, Inc.--><path d="M463.1 144c-13.25 0-23.1 21.5-23.1 48s10.75 48 23.1 48 24-21.5 24-48-9.9-48-24-48zm0-144h-320C82.1 0 31.98 86 31.98 192v172.1c0 41.12-9.751 62.75-31.13 126.9-3.5 10.2 4.251 21 15.13 21h328.9c13.88 0 26-8.75 30.38-21.88 11.25-33.5 21.63-63.5 24.13-106.1h64.63C525.9 384 576 298 576 192 576 86 525.9 0 463.1 0zm-112 192-.004 172.1c0 41-8 68-18.63 99.88H60.6c12.5-37.5 19.38-62.25 19.38-99.88V192c0-86.62 38.5-144 64-144h246.1c-23.38 35.25-38.98 86.6-38.98 144zm112 144c-25.5 0-64-57.38-64-144s38.5-144 64-144 64 57.38 64 144-37.6 144-64 144z"/></svg>