<svg xmlns="http://www.w3.org/2000/svg" viewBox="0 0 576 512"><!--! Font Awesome Pro 6.1.1 by @fontawesome - https://fontawesome.com License - https://fontawesome.com/license (Commercial License) Copyright 2022 Fonticons, Inc.--><path d="M552 432H400V280c0-13.2-10.7-24-24-24s-24 10.8-24 24v152h-32V280c0-13.2-10.7-24-24-24s-24 10.8-24 24v152h-32V280c0-13.2-10.7-24-24-24s-24 10.8-24 24v152h-32V280c0-13.2-10.7-24-24-24s-24 10.8-24 24v152H80V280c0-13.2-10.75-24-24-24s-24 10.8-24 24v152h-8c-13.25 0-24 10.8-24 24s10.75 24 24 24h528c13.25 0 24-10.75 24-24s-10.7-24-24-24zM64 224h352c33.7 0 62.87-26.15 63.93-59.84 1.979-62.51-40.76-118.3-98.67-131.8-1.06-.24-2.26-.36-4.16-.36-8.928 0-16.88 8.168-15.38 17.33C366 70.56 350.4 96 325.5 96H67.34C35.46 96 5.953 117.8.867 149.3-5.617 189.4 25.11 224 64 224zm3.34-80h258.2c24.44 0 47.72-10.9 63.87-29.9a90.975 90.975 0 0 0 12.43-19.06c19.09 16.03 30.1 41.08 30.16 67.61-.3 7.15-7.7 13.35-16 13.35H64c-6.449 0-10.42-3.529-12.21-5.635-2.19-2.565-4.58-6.965-3.54-13.465 1.14-7 9.88-12.9 19.09-12.9z"/></svg>