<svg xmlns="http://www.w3.org/2000/svg" viewBox="0 0 448 512"><!--! Font Awesome Pro 6.1.1 by @fontawesome - https://fontawesome.com License - https://fontawesome.com/license (Commercial License) Copyright 2022 Fonticons, Inc.--><path d="M387.7 195.9c-43.47-50-67.41-77.53 20.13-153.8a23.951 23.951 0 0 0 6.688-26.5C410.1 6.219 401.1 0 391.1 0L24.16.031c-13 0-23.66 10.38-24 23.38C-4.626 206.1 99.07 261.4 182.4 305.8c74.44 39.72 133.3 71.09 121.2 179.5a24.01 24.01 0 0 0 13.44 24.28A23.42 23.42 0 0 0 327.4 512c6.219 0 12.34-2.406 16.94-7C414.1 435.5 447.1 375 448 320c0-54.7-32.9-91.5-60.3-124.1zm-325.69-68c-7.859-22.31-12.83-48.43-13.82-79.91L334.8 48c-24.65 30.33-34.01 56.62-34.23 79.94H62.01zM192 256.5c-40.1-21.6-78-44.1-104.88-80.6h226.1c10.08 18.96 24.63 35.82 38.24 51.47 8.291 9.547 16.34 18.93 23.52 28.53H192v.6zm81 47.4h125.3c1 5.2 1.7 10.5 1.7 15.2-.031 30.88-16.12 66-49 106.6-8.3-57.9-39.9-94.3-78-121.8z"/></svg>