<svg xmlns="http://www.w3.org/2000/svg" viewBox="0 0 576 512"><!--! Font Awesome Pro 6.1.1 by @fontawesome - https://fontawesome.com License - https://fontawesome.com/license (Commercial License) Copyright 2022 Fonticons, Inc.--><path d="M288 64c-35.35 0-64 28.65-64 63.1 0 26.84 16.56 49.75 40 59.25v300.7c0 13.25 10.75 24 24 24s24-10.75 24-24V187.3c23.4-9.5 40-32.4 40-59.3 0-35.33-28.7-64-64-64zM64.33 3.002C52.77-3.373 38.13.783 31.7 12.38 10.97 49.85 0 92.41 0 135.4c0 37.22 7.875 73.09 23.39 106.7 4.06 8.7 12.74 13.9 21.8 13.9a24.03 24.03 0 0 0 10.06-2.219c12.03-5.562 17.27-19.84 11.7-31.87C54.38 194.8 48 165.7 48 135.4c0-34.91 8.891-69.44 25.7-99.81 6.43-11.56 2.22-26.182-9.37-32.588zM160.9 59.01c-11.6-6.41-26.2-2.25-32.6 9.38C117.6 87.6 112 109.4 112 131.4c0 19.03 4.031 37.44 11.98 54.62 4.047 8.781 12.73 13.93 21.8 13.93 3.375 0 6.797-.719 10.05-2.219C167.9 192.2 173.1 177.1 167.5 165.9c-5-10.8-7.5-22.4-7.5-34.5 0-13.94 3.547-27.68 10.25-39.81 6.45-11.55 2.25-26.17-9.35-32.58zm391.7-45.1c-5.578-11.1-19.88-17.25-31.86-11.69-12.03 5.562-17.27 19.84-11.7 31.87C521.6 61.25 528 90.35 528 120.6c0 34.91-8.891 69.44-25.7 99.81-6.422 11.59-2.219 26.22 9.375 32.62 3.688 2.031 7.672 3 11.61 3 8.438 0 16.64-4.469 21.02-12.37C565 206.2 576 163.6 576 120.6c0-37.25-7.9-73.13-23.4-106.69zM420.2 58.23c-12.03 5.562-17.28 19.81-11.72 31.84C413.5 100.9 416 112.5 416 124.6c0 13.94-3.547 27.69-10.25 39.81-6.422 11.59-2.219 26.22 9.375 32.62 3.688 2.031 7.672 3 11.61 3 8.438 0 16.64-4.466 21.02-12.37C458.4 168.4 464 146.6 464 124.6c0-19.03-4.031-37.43-11.98-54.62-5.52-12.09-19.92-17.28-31.82-11.75z"/></svg>