<svg xmlns="http://www.w3.org/2000/svg" viewBox="0 0 512 512"><!--! Font Awesome Pro 6.1.1 by @fontawesome - https://fontawesome.com License - https://fontawesome.com/license (Commercial License) Copyright 2022 Fonticons, Inc.--><path d="M245.7 2.331a23.921 23.921 0 0 1 20.6 0l168 79.999c12 5.7 17.1 20.07 11.4 31.97-5.4 11.2-18.3 16.4-29.7 12.3V200c0 27.2-19.4 49.9-45.2 54.1L405.7 464H488c13.3 0 24 10.7 24 24s-10.7 24-24 24H24c-13.25 0-24-10.7-24-24s10.75-24 24-24h82.3l34.9-209.9C115.4 249.9 96 227.2 96 200v-73.4c-11.44 4.1-24.33-1.1-29.67-12.3-5.7-11.9-.62-26.27 11.35-31.97L245.7 2.331zM144 103.9V128h224v-24.1L256 50.58 144 103.9zm0 72.1v24c0 4.4 3.6 8 8 8h208c4.4 0 8-3.6 8-8v-24H144zm186.8 288L256 400.7 181.2 464h149.6zM185.9 278.5l70.1 59.3 70.1-59.3-3.8-22.5H189.7l-3.8 22.5zm-9.2 55.1-13.8 83 55.9-47.4-42.1-35.6zm116.5 35.6 55.9 47.4-13.8-83-42.1 35.6z"/></svg>