<svg xmlns="http://www.w3.org/2000/svg" viewBox="0 0 448 512"><!--! Font Awesome Pro 6.1.1 by @fontawesome - https://fontawesome.com License - https://fontawesome.com/license (Commercial License) Copyright 2022 Fonticons, Inc.--><path d="M160 24c0-13.25 10.7-24 24-24h80c13.3 0 24 10.75 24 24s-10.7 24-24 24h-16v48h40c17.7 0 32 14.3 32 32h93.2c21.5 0 36.9 20.7 30.7 41.2l-41.2 137.3c7.9 3.9 13.3 12.1 13.3 21.5 0 13.3-10.7 24-24 24h-24v136c0 13.3-10.7 24-24 24s-24-10.7-24-24V352H128v136c0 13.3-10.7 24-24 24-13.25 0-24-10.7-24-24V352H56c-13.25 0-24-10.7-24-24 0-9.4 5.42-17.6 13.3-21.5L4.103 169.2C-2.056 148.7 13.32 128 34.75 128H128c0-17.7 14.3-32 32-32h40V48h-16c-13.3 0-24-10.75-24-24zm-32 280V176H56.26l38.4 128H128zm48 0h96V176h-96v128zm144-128v128h33.3l38.4-128H320z"/></svg>