<svg xmlns="http://www.w3.org/2000/svg" viewBox="0 0 320 512"><!--! Font Awesome Pro 6.1.1 by @fontawesome - https://fontawesome.com License - https://fontawesome.com/license (Commercial License) Copyright 2022 Fonticons, Inc.--><path d="M112 376c0-26.5 21.5-48 48-48s48 21.5 48 48-21.5 48-48 48-48-21.5-48-48zm48 16c8.8 0 16-7.2 16-16s-7.2-16-16-16-16 7.2-16 16 7.2 16 16 16zm48-136c0 26.5-21.5 48-48 48s-48-21.5-48-48 21.5-48 48-48 48 21.5 48 48zm-48-16c-8.8 0-16 7.2-16 16s7.2 16 16 16 16-7.2 16-16-7.2-16-16-16zm48-104c0 26.5-21.5 48-48 48s-48-21.5-48-48 21.5-48 48-48 48 21.5 48 48zM0 64C0 28.65 28.65 0 64 0h192c35.3 0 64 28.65 64 64v288c0 88.4-71.6 160-160 160C71.63 512 0 440.4 0 352V64zm48 0v288c0 61.9 50.14 112 112 112 61.9 0 112-50.1 112-112V64c0-8.84-7.2-16-16-16H64c-8.84 0-16 7.16-16 16z"/></svg>