<svg xmlns="http://www.w3.org/2000/svg" viewBox="0 0 640 512"><!--! Font Awesome Pro 6.1.1 by @fontawesome - https://fontawesome.com License - https://fontawesome.com/license (Commercial License) Copyright 2022 Fonticons, Inc.--><path d="M136 112c13.3 0 24 10.7 24 24v96c0 13.3-10.7 24-24 24s-24-10.7-24-24v-96c0-13.3 10.7-24 24-24zm96 0c13.3 0 24 10.7 24 24v96c0 13.3-10.7 24-24 24s-24-10.7-24-24v-96c0-13.3 10.7-24 24-24zm96 0c13.3 0 24 10.7 24 24v144c0 13.3-10.7 24-24 24s-24-10.7-24-24V136c0-13.3 10.7-24 24-24zm96 0c13.3 0 24 10.7 24 24v144c0 13.3-10.7 24-24 24s-24-10.7-24-24V136c0-13.3 10.7-24 24-24zM192 480c-53.9 0-96-43-96-96H64c-35.35 0-64-28.7-64-64V96c0-35.35 28.65-64 64-64h432c35.3 0 64 28.65 64 64v240h56c13.3 0 24 10.7 24 24s-10.7 24-24 24H288c0 53-43 96-96 96zM64 80c-8.84 0-16 7.16-16 16v224c0 8.8 7.16 16 16 16h44.8c16.6-28.7 47.7-48 83.2-48s66.6 19.3 83.2 48H512V96c0-8.84-7.2-16-16-16H64zm128 256c-26.5 0-48 21.5-48 48s21.5 48 48 48 48-21.5 48-48-21.5-48-48-48z"/></svg>