<svg xmlns="http://www.w3.org/2000/svg" viewBox="0 0 512 512"><!--! Font Awesome Pro 6.1.1 by @fontawesome - https://fontawesome.com License - https://fontawesome.com/license (Commercial License) Copyright 2022 Fonticons, Inc.--><path d="M256 48C141.1 48 48 141.1 48 256v232c0 13.3-10.75 24-24 24S0 501.3 0 488V256C0 114.6 114.6 0 256 0s256 114.6 256 256v232c0 13.3-10.7 24-24 24s-24-10.7-24-24V256c0-114.9-93.1-208-208-208zm-32 304c0 13.3-10.7 24-24 24s-24-10.7-24-24 10.7-24 24-24 24 10.7 24 24zm64 0c0-13.3 10.7-24 24-24s24 10.7 24 24-10.7 24-24 24-24-10.7-24-24zM112 208c0-44.2 35.8-80 80-80h128c44.2 0 80 35.8 80 80v160c0 27.7-14.1 52.2-35.5 66.5l35.6 36.5c10.2 9.4 10.2 24.6 0 33.1-8.5 10.2-23.7 10.2-33.1 0L310.1 448H201.9l-57.8 56.1c-8.5 10.2-23.7 10.2-33.1 0-9.3-8.5-9.3-23.7 0-33.1l36.5-36.5C126.1 420.2 112 395.7 112 368V208zm168 48h72v-48c0-17.7-14.3-32-32-32h-40v80zm-48-80h-40c-17.7 0-32 14.3-32 32v48h72v-80zm-72 128v64c0 17.7 14.3 32 32 32h128c17.7 0 32-14.3 32-32v-64H160z"/></svg>