<svg xmlns="http://www.w3.org/2000/svg" viewBox="0 0 448 512"><!--! Font Awesome Pro 6.1.1 by @fontawesome - https://fontawesome.com License - https://fontawesome.com/license (Commercial License) Copyright 2022 Fonticons, Inc.--><path d="M184 352c0 13.3-10.7 24-24 24s-24-10.7-24-24 10.7-24 24-24 24 10.7 24 24zm80 0c0-13.3 10.7-24 24-24s24 10.7 24 24-10.7 24-24 24-24-10.7-24-24zM42.74 78.99c-8.28 10.35-23.38 12.03-33.733 3.75-10.35-8.28-12.028-23.38-3.748-33.73L18.04 33.03A87.999 87.999 0 0 1 86.76 0H361.2c25.9 0 52.1 12.15 67.9 33.03l13.6 15.98c8.3 10.35 6.6 25.45-4.6 33.73-9.5 8.28-24.6 6.6-32.8-3.75l-12.8-15.98A40.064 40.064 0 0 0 361.2 48H248v48h40c53 0 96 42.1 96 96v160c0 26-10.3 49.6-27.2 66.9l51.3 52.1c10.2 9.4 10.2 24.6 0 33.1-8.5 10.2-23.7 10.2-33.1 0l-60.6-59.8c-8.4 2.4-17.2 3.7-26.4 3.7H159.1c-8.3 0-18-1.3-25.5-3.7l-60.63 59.8c-9.37 10.2-24.57 10.2-33.94 0-9.37-8.5-9.37-23.7 0-33.1l52.12-52.1C74.35 401.6 63.1 378 63.1 352V192c0-53.9 43-96 96-96h40V48H86.76a40.02 40.02 0 0 0-31.24 15.01L42.74 78.99zM112 192v48h224v-48c0-26.5-21.5-48-48-48H160c-26.5 0-48 21.5-48 48zm0 96v64c0 26.5 21.5 48 48 48h128c26.5 0 48-21.5 48-48v-64H112z"/></svg>