<svg xmlns="http://www.w3.org/2000/svg" viewBox="0 0 576 512"><!--! Font Awesome Pro 6.1.1 by @fontawesome - https://fontawesome.com License - https://fontawesome.com/license (Commercial License) Copyright 2022 Fonticons, Inc.--><path d="M211.1 96h153.8l-11.5-31.87c-4.5-12.47 2-26.22 14.5-30.71 12.4-4.49 26.2 1.98 30.7 14.45L415.9 96H464c13.3 0 24 10.7 24 24s-10.7 24-24 24h-30.8l27.9 80H504c13.3 0 24 10.7 24 24s-10.7 24-24 24h-24.7l28.8 80H544c13.3 0 24 10.7 24 24s-10.7 24-24 24h-18.6l17.2 47.9c4.5 12.4-2 26.2-14.5 30.7-12.4 4.5-26.2-2-30.7-14.5L474.3 400H101.7l-23.12 64.1c-4.49 12.5-18.24 19-30.71 14.5-12.47-4.5-18.94-18.3-14.45-30.7L50.65 400H32c-13.25 0-24-10.7-24-24s10.75-24 24-24h35.93l28.8-80H72c-13.25 0-24-10.7-24-24s10.75-24 24-24h42l28.8-80H112c-13.25 0-24-10.7-24-24s10.75-24 24-24h48.1l17.3-48.13c4.5-12.47 18.3-18.94 30.7-14.45 12.5 4.49 19 18.24 14.5 30.71L211.1 96zm-17.3 48L165 224h245.1l-27.9-80H193.8zm234.5 128H147.7l-28.8 80h338.2l-28.8-80z"/></svg>