<svg xmlns="http://www.w3.org/2000/svg" viewBox="0 0 384 512"><!--! Font Awesome Pro 6.1.1 by @fontawesome - https://fontawesome.com License - https://fontawesome.com/license (Commercial License) Copyright 2022 Fonticons, Inc.--><path d="M64 128h96c8.836 0 16-7.164 16-16 0-8.8-7.2-16-16-16H64c-8.84 0-16 7.2-16 16s7.16 16 16 16zm160-64h96c8.836 0 16-7.164 16-16 0-8.84-7.2-16-16-16h-24v-8c0-13.26-10.7-24-24-24s-24 10.74-24 24v8h-24c-8.836 0-16 7.162-16 16 0 8.84 7.2 16 16 16zm0 64h96c8.836 0 16-7.164 16-16 0-8.8-7.2-16-16-16h-96c-8.836 0-16 7.162-16 16 0 8.8 7.2 16 16 16zm160 64v-16c0-8.8-7.2-16-16-16H16c-8.836 0-16 7.2-16 16v16c0 8.836 7.164 16 16 16v256c-8.836 0-16 7.2-16 16v16c0 8.8 7.164 16 16 16h352c8.836 0 16-7.164 16-16v-16c0-8.838-7.164-16-16-16V208c8.8 0 16-7.2 16-16zm-64 272H64V208h256v256zM64 64h96c8.836 0 16-7.164 16-16 0-8.84-7.2-16-16-16h-24v-8c0-13.26-10.7-24-24-24S88 10.74 88 24v8H64c-8.84 0-16 7.16-16 16s7.16 16 16 16zm67.1 284h41.79l-28.83 67.27c-2.203 5.145-.54 11.13 3.984 14.43 3.056 1.5 5.456 2.3 7.056 2.3 2.836 0 5.648-.996 7.898-2.965l96-83.1a11.98 11.98 0 0 0 3.33-13.25 11.993 11.993 0 0 0-11.23-7.781h-41.79l28.83-67.27c2.203-5.145.54-11.13-3.984-14.43-4.57-3.316-10.76-3.023-14.95.668l-96 83.99a11.98 11.98 0 0 0-3.33 13.25C122.5 344.9 127 348 131.1 348z"/></svg>