<svg xmlns="http://www.w3.org/2000/svg" viewBox="0 0 512 512"><!--! Font Awesome Pro 6.1.1 by @fontawesome - https://fontawesome.com License - https://fontawesome.com/license (Commercial License) Copyright 2022 Fonticons, Inc.--><path d="M488 0h-80c-13.2 0-24 10.75-24 24s10.75 24 24 24h22.06l-79.52 79.52C323.1 107.9 291.5 96 256 96s-68 11.9-94.5 31.5L145.9 112l15.03-15.03c9.375-9.375 9.375-24.56 0-33.94s-24.56-9.375-33.94 0L112 78.06 81.94 48H104c13.3 0 24-10.75 24-24S117.3 0 104 0H24C10.75 0 0 10.75 0 24v80c0 13.3 10.75 24 24 24s24-10.7 24-24V81.94L78.06 112l-15.03 15c-9.375 9.375-9.375 24.56 0 33.94C67.72 165.7 73.84 168 80 168s12.28-2.344 16.97-7.031L112 145.9l15.52 15.52C107.9 188 96 220.5 96 256c0 80.14 59.11 145.9 136 157.6V432h-24c-13.25 0-24 10.75-24 23.1s10.75 24 24 24l24 .9v8c0 13.3 10.8 24 24 24s24-10.75 24-24v-8h24c13.25 0 24-10.75 24-24s-10.75-23.1-24-23.1l-24-.9v-18.42C356.9 401.9 416 336.1 416 256c0-35.51-11.95-67.1-31.52-94.54L464 81.94V104c0 13.3 10.8 24 24 24s24-10.7 24-24V24c0-13.25-10.7-24-24-24zM256 368c-61.76 0-112-50.24-112-112 0-30.66 12.43-58.44 32.45-78.69.15-.11.35-.21-.35-1.21s1.1.5 1.2.4c20.3-20.1 48-32.5 78.7-32.5s58.44 12.42 78.69 32.45c.148.156.191.367.346.521s.365.198.521.346C355.6 197.6 368 225.3 368 256c0 61.8-50.2 112-112 112z"/></svg>