<svg xmlns="http://www.w3.org/2000/svg" viewBox="0 0 512 512"><!--! Font Awesome Pro 6.1.1 by @fontawesome - https://fontawesome.com License - https://fontawesome.com/license (Commercial License) Copyright 2022 Fonticons, Inc.--><path d="M120 288c7.375 0 14.25-3.375 18.88-9.125L192 211.3V320h-16c-8.8 0-16 7.2-16 16s7.2 16 16 16h160c8.844 0 16-7.156 16-16s-7.2-16-16-16h-16V211.3l53.13 67.63c8.25 10.38 23.25 12.12 33.75 4 10.38-8.25 12.12-23.25 4-33.75L332.5 149.4c-10.6-13.5-26.9-21.4-44.1-21.4h-64.9a56.034 56.034 0 0 0-44 21.38l-78.4 99.72c-5.72 7.3-6.72 17.2-2.72 25.4S110.8 288 120 288zm216 96H176c-8.8 0-16 7.2-16 16s7.2 16 16 16h160c8.844 0 16-7.156 16-16s-7.2-16-16-16zM256 96c26.5 0 48-21.5 48-48S282.5 0 256 0s-48 21.5-48 48 21.5 48 48 48zM93.75 364.4 64 352l-12.38-29.75C50.88 320.9 49.5 320 48 320s-2.875.875-3.625 2.25L32 352 2.25 364.38C.875 365.1 0 366.5 0 368s.875 2.875 2.25 3.625L32 384l12.38 29.75C45.13 415.1 46.5 416 48 416s2.875-.875 3.625-2.25L64 384l29.75-12.38C95.13 370.9 96 369.5 96 368s-.87-2.9-2.25-3.6zm416.05-192L480 160l-12.38-29.75c-.72-1.35-2.12-2.25-3.62-2.25s-2.875.875-3.625 2.25L448 160l-29.75 12.38c-1.35.72-2.25 2.12-2.25 3.62s.875 2.875 2.25 3.625L448 192l12.38 29.75c.72 1.35 2.12 2.25 3.62 2.25s2.875-.875 3.625-2.25L480 192l29.75-12.38c1.35-.72 2.25-2.12 2.25-3.62s-.9-2.9-2.2-3.6zM392 464h-40c0-8.844-7.156-16-16-16H176c-8.8 0-16 7.2-16 16h-40c-13.3 0-24 10.7-24 24s10.7 24 24 24h272c13.25 0 24-10.75 24-24 0-13.3-10.7-24-24-24z"/></svg>