<svg xmlns="http://www.w3.org/2000/svg" viewBox="0 0 512 512"><!--! Font Awesome Pro 6.1.1 by @fontawesome - https://fontawesome.com License - https://fontawesome.com/license (Commercial License) Copyright 2022 Fonticons, Inc.--><path d="M256 96c26.5 0 48-21.5 48-48S282.5 0 256 0s-48 21.5-48 48 21.5 48 48 48zM93.75 108.4 64 96 51.63 66.25C50.88 64.88 49.5 64 48 64s-2.87.88-3.62 2.25L32 96 2.25 108.4C.875 109.1 0 110.5 0 112s.875 2.875 2.25 3.625L32 128l12.38 29.75C45.13 159.1 46.5 160 48 160s2.875-.875 3.625-2.25L64 128l29.75-12.38C95.13 114.9 96 113.5 96 112s-.87-2.9-2.25-3.6zM509.8 44.38 480 32 467.62 2.25C466.9.875 465.5 0 464 0s-2.875.875-3.625 2.25L448 32l-29.75 12.38C416.9 45.13 416 46.5 416 48s.875 2.875 2.25 3.625L448 64l12.38 29.75C461.1 95.13 462.5 96 464 96s2.875-.875 3.625-2.25L480 64l29.75-12.38C511.1 50.88 512 49.5 512 48s-.9-2.87-2.2-3.62zM392 464h-72V211.3l53.13 67.63c8.25 10.38 23.25 12.12 33.75 4 10.38-8.25 12.12-23.25 4-33.75L332.5 149.4a55.921 55.921 0 0 0-44-21.4h-65c-17.2 0-33.4 7.9-44 21.4l-78.4 99.7c-8.25 10.5-6.375 25.5 4 33.75 10.5 8.125 25.5 6.375 33.75-4L192 211.3V464h-72c-13.3 0-24 10.7-24 24s10.7 24 24 24h272c13.25 0 24-10.75 24-24 0-13.3-10.7-24-24-24zm-128 0h-16V320h16v144z"/></svg>