<svg xmlns="http://www.w3.org/2000/svg" viewBox="0 0 512 512"><!--! Font Awesome Pro 6.1.1 by @fontawesome - https://fontawesome.com License - https://fontawesome.com/license (Commercial License) Copyright 2022 Fonticons, Inc.--><path d="M392 464H120c-13.3 0-24 10.7-24 24s10.7 24 24 24h272c13.25 0 24-10.75 24-24 0-13.3-10.7-24-24-24zM93.75 172.4 64 160l-12.37-29.7c-.75-1.4-2.13-2.3-3.63-2.3s-2.87.9-3.62 2.3L32 160 2.25 172.4C.875 173.1 0 174.5 0 176s.875 2.875 2.25 3.625L32 192l12.38 29.75C45.13 223.1 46.5 224 48 224s2.875-.875 3.625-2.25L64 192l29.75-12.38C95.13 178.9 96 177.5 96 176s-.87-2.9-2.25-3.6zM176 160h160c8.8 0 16-7.2 16-16s-7.2-16-16-16H176c-8.8 0-16 7.2-16 16s7.2 16 16 16zm48-128h64c8.844 0 16-7.156 16-16s-7.2-16-16-16h-64c-8.8 0-16 7.156-16 16s7.2 16 16 16zm285.8 12.38L480 32 467.62 2.25C466.9.875 465.5 0 464 0s-2.875.875-3.625 2.25L448 32l-29.75 12.38C416.9 45.13 416 46.5 416 48s.875 2.875 2.25 3.625L448 64l12.38 29.75C461.1 95.13 462.5 96 464 96s2.875-.875 3.625-2.25L480 64l29.75-12.38C511.1 50.88 512 49.5 512 48s-.9-2.87-2.2-3.62zM336 416c8.844 0 16-7.156 16-16s-7.2-16-16-16H176c-8.8 0-16 7.2-16 16s7.2 16 16 16h160zm64-160H112c-8.8 0-16 7.2-16 16s7.2 16 16 16h288c8.8 0 16-7.2 16-16s-7.2-16-16-16z"/></svg>