<svg xmlns="http://www.w3.org/2000/svg" viewBox="0 0 512 512"><!--! Font Awesome Pro 6.1.1 by @fontawesome - https://fontawesome.com License - https://fontawesome.com/license (Commercial License) Copyright 2022 Fonticons, Inc.--><path d="M144 224h224c8.8 0 16-7.2 16-16s-7.2-16-16-16H144c-8.8 0-16 7.2-16 16s7.2 16 16 16zM93.75 396.4 64 384l-12.38-29.75C50.88 352.9 49.5 352 48 352s-2.875.875-3.625 2.25L32 384 2.25 396.38C.875 397.1 0 398.5 0 400s.875 2.875 2.25 3.625L32 416l12.38 29.75C45.13 447.1 46.5 448 48 448s2.875-.875 3.625-2.25L64 416l29.75-12.38C95.13 402.9 96 401.5 96 400s-.87-2.9-2.25-3.6zM176 160h160c8.8 0 16-7.2 16-16s-7.2-16-16-16H176c-8.8 0-16 7.2-16 16s7.2 16 16 16zm48-128h64c8.844 0 16-7.156 16-16s-7.2-16-16-16h-64c-8.8 0-16 7.156-16 16s7.2 16 16 16zm0 64h64c8.844 0 16-7.156 16-16s-7.2-16-16-16h-64c-8.8 0-16 7.16-16 16s7.2 16 16 16zm-48 320h160c8.844 0 16-7.156 16-16s-7.2-16-16-16H176c-8.8 0-16 7.2-16 16s7.2 16 16 16zm216 48h-40c0-8.844-7.156-16-16-16H176c-8.8 0-16 7.2-16 16h-40c-13.3 0-24 10.7-24 24s10.7 24 24 24h272c13.25 0 24-10.75 24-24 0-13.3-10.7-24-24-24zm8-208H112c-8.8 0-16 7.2-16 16s7.2 16 16 16h288c8.8 0 16-7.2 16-16s-7.2-16-16-16zm109.8-83.6L480 160l-12.38-29.75c-.72-1.35-2.12-2.25-3.62-2.25s-2.875.875-3.625 2.25L448 160l-29.75 12.38c-1.35.72-2.25 2.12-2.25 3.62s.875 2.875 2.25 3.625L448 192l12.38 29.75c.72 1.35 2.12 2.25 3.62 2.25s2.875-.875 3.625-2.25L480 192l29.75-12.38c1.35-.72 2.25-2.12 2.25-3.62s-.9-2.9-2.2-3.6zM176 352h160c8.844 0 16-7.156 16-16s-7.2-16-16-16H176c-8.8 0-16 7.2-16 16s7.2 16 16 16z"/></svg>