<svg xmlns="http://www.w3.org/2000/svg" viewBox="0 0 512 512"><!--! Font Awesome Pro 6.1.1 by @fontawesome - https://fontawesome.com License - https://fontawesome.com/license (Commercial License) Copyright 2022 Fonticons, Inc.--><path d="M112 288h288c8.8 0 16-7.2 16-16s-7.2-16-16-16H112c-8.8 0-16 7.2-16 16s7.2 16 16 16zm220.5-138.6c-10.6-13.5-26.9-21.4-44-21.4h-64.9c-17.2 0-33.5 7.9-44.1 21.4L120.9 224h270.3l-58.7-74.6zM256 96c26.5 0 48-21.5 48-48S282.5 0 256 0s-48 21.5-48 48 21.5 48 48 48zm80 224H176c-8.8 0-16 7.2-16 16s7.2 16 16 16h160c8.844 0 16-7.156 16-16s-7.2-16-16-16zm56 144h-40c0-8.844-7.156-16-16-16H176c-8.8 0-16 7.2-16 16h-40c-13.3 0-24 10.7-24 24s10.7 24 24 24h272c13.25 0 24-10.75 24-24 0-13.3-10.7-24-24-24zm117.8-99.6L480 352l-12.38-29.75c-.72-1.35-2.12-2.25-3.62-2.25s-2.875.875-3.625 2.25L448 352l-29.75 12.38c-1.35.72-2.25 2.12-2.25 3.62s.875 2.875 2.25 3.625L448 384l12.38 29.75c.72 1.35 2.12 2.25 3.62 2.25s2.875-.875 3.625-2.25L480 384l29.75-12.38c1.35-.72 2.25-2.12 2.25-3.62s-.9-2.9-2.2-3.6zM93.75 44.38 64 32 51.63 2.25C50.88.875 49.5 0 48 0s-2.87.875-3.62 2.25L32 32 2.25 44.38C.875 45.13 0 46.5 0 48s.875 2.875 2.25 3.625L32 64l12.38 29.75C45.13 95.13 46.5 96 48 96s2.875-.875 3.625-2.25L64 64l29.75-12.38C95.13 50.88 96 49.5 96 48s-.87-2.87-2.25-3.62zM336 384H176c-8.8 0-16 7.2-16 16s7.2 16 16 16h160c8.844 0 16-7.156 16-16s-7.2-16-16-16z"/></svg>