<svg xmlns="http://www.w3.org/2000/svg" viewBox="0 0 512 512"><!--! Font Awesome Pro 6.1.1 by @fontawesome - https://fontawesome.com License - https://fontawesome.com/license (Commercial License) Copyright 2022 Fonticons, Inc.--><path d="M144 224h224c8.8 0 16-7.2 16-16s-7.2-16-16-16H144c-8.8 0-16 7.2-16 16s7.2 16 16 16zm32-64h160c8.8 0 16-7.2 16-16s-7.2-16-16-16H176c-8.8 0-16 7.2-16 16s7.2 16 16 16zm-82.25-19.6L64 128 51.63 98.25C50.88 96.88 49.5 96 48 96s-2.87.88-3.62 2.25L32 128 2.25 140.4C.875 141.1 0 142.5 0 144s.875 2.875 2.25 3.625L32 160l12.38 29.75C45.13 191.1 46.5 192 48 192s2.875-.875 3.625-2.25L64 160l29.75-12.38C95.13 146.9 96 145.5 96 144s-.87-2.9-2.25-3.6zM256 96c26.5 0 48-21.5 48-48S282.5 0 256 0s-48 21.5-48 48 21.5 48 48 48zm253.8-51.62L480 32 467.62 2.25C466.9.875 465.5 0 464 0s-2.875.875-3.625 2.25L448 32l-29.75 12.38C416.9 45.13 416 46.5 416 48s.875 2.875 2.25 3.625L448 64l12.38 29.75C461.1 95.13 462.5 96 464 96s2.875-.875 3.625-2.25L480 64l29.75-12.38C511.1 50.88 512 49.5 512 48s-.9-2.87-2.2-3.62zM392 464h-40c0-8.844-7.156-16-16-16H176c-8.8 0-16 7.2-16 16h-40c-13.3 0-24 10.7-24 24s10.7 24 24 24h272c13.25 0 24-10.75 24-24 0-13.3-10.7-24-24-24zm8-208H112c-8.8 0-16 7.2-16 16s7.2 16 16 16h288c8.8 0 16-7.2 16-16s-7.2-16-16-16zm-224 96h160c8.844 0 16-7.156 16-16s-7.2-16-16-16H176c-8.8 0-16 7.2-16 16s7.2 16 16 16zm0 64h160c8.844 0 16-7.156 16-16s-7.2-16-16-16H176c-8.8 0-16 7.2-16 16s7.2 16 16 16z"/></svg>