<svg xmlns="http://www.w3.org/2000/svg" viewBox="0 0 448 512"><!--! Font Awesome Pro 6.1.1 by @fontawesome - https://fontawesome.com License - https://fontawesome.com/license (Commercial License) Copyright 2022 Fonticons, Inc.--><path d="M143 207c9.4-9.3 24.6-9.3 33.1 0l47 47.1L271 207c9.4-9.3 24.6-9.3 33.1 0 10.2 9.4 10.2 24.6 0 33.1l-46.2 47 46.2 47.9c10.2 9.4 10.2 24.6 0 33.1-8.5 10.2-23.7 10.2-33.1 0l-47.9-46.2-47 46.2c-8.5 10.2-23.7 10.2-33.1 0-9.3-8.5-9.3-23.7 0-33.1l47.1-47.9-47.1-47c-9.3-8.5-9.3-23.7 0-33.1zM317.5 24.94 354.2 80H424c13.3 0 24 10.75 24 24 0 13.3-10.7 24-24 24h-8v304c0 44.2-35.8 80-80 80H112c-44.18 0-80-35.8-80-80V128h-8c-13.25 0-24-10.7-24-24 0-13.25 10.75-24 24-24h69.82l36.68-55.06C140.9 9.357 158.4 0 177.1 0h93.8c18.7 0 36.2 9.358 46.6 24.94zM151.5 80h145l-19-28.44c-1.5-2.22-4-3.56-6.6-3.56h-93.8c-2.6 0-6 1.34-6.6 3.56L151.5 80zM80 432c0 17.7 14.33 32 32 32h224c17.7 0 32-14.3 32-32V128H80v304z"/></svg>