<svg xmlns="http://www.w3.org/2000/svg" viewBox="0 0 448 512"><!--! Font Awesome Pro 6.1.1 by @fontawesome - https://fontawesome.com License - https://fontawesome.com/license (Commercial License) Copyright 2022 Fonticons, Inc.--><path d="M225.9 192.1c8.8 9 8 25-2 33.8L199.1 248H240c48.6 0 88 39.4 88 88v24c0 13.3-10.7 24-24 24s-24-10.7-24-24v-24c0-22.1-17.9-40-40-40h-40.9l24.8 22.1c10 8.8 10.8 23.9 2 33.8-8.8 10-24.8 10.8-33.8 2l-72-64c-5.2-4.5-8.1-11-8.1-18.8 0-6 2.9-12.5 8.1-17l72-64c9-8.8 25-8 33.8 2zm91.6-167.16L354.2 80H424c13.3 0 24 10.75 24 24 0 13.3-10.7 24-24 24h-8v304c0 44.2-35.8 80-80 80H112c-44.18 0-80-35.8-80-80V128h-8c-13.25 0-24-10.7-24-24 0-13.25 10.75-24 24-24h69.82l36.68-55.06C140.9 9.357 158.4 0 177.1 0h93.8c18.7 0 36.2 9.358 46.6 24.94zM151.5 80h145l-19-28.44c-1.5-2.22-4-3.56-6.6-3.56h-93.8c-2.6 0-6 1.34-6.6 3.56L151.5 80zM80 432c0 17.7 14.33 32 32 32h224c17.7 0 32-14.3 32-32V128H80v304z"/></svg>