<svg xmlns="http://www.w3.org/2000/svg" viewBox="0 0 640 512"><!--! Font Awesome Pro 6.1.1 by @fontawesome - https://fontawesome.com License - https://fontawesome.com/license (Commercial License) Copyright 2022 Fonticons, Inc.--><path d="M134.4 80h55.4l36.7-55.06C236.9 9.358 254.4 0 273.1 0h93.8c18.7 0 36.2 9.358 46.6 24.94L450.2 80h68.9c14.2 0 24 10.75 24 24 0 13.3-9.8 24-24 24h-8v247.1l119.7 94c10.4 8.2 12.3 23.3 4.1 33.7-8.2 10.4-23.3 12.3-33.7 4.1L9.196 42.89C-1.236 34.71-3.065 19.63 5.112 9.196 13.29-1.236 28.37-3.065 38.81 5.112L134.4 80zm61.2 48 107.5 84.1V192c0-8.8 8.1-16 16-16 9.7 0 16 7.2 16 16v46l48 37.7V192c0-8.8 8.1-16 16-16 9.7 0 16 7.2 16 16v108.7l48 37.7V128H195.6zm77.5-80c-2.7 0-6 1.34-6.6 3.56L247.5 80h145l-19-28.44c-1.5-2.22-4-3.56-6.6-3.56h-93.8zm158 464h-224c-43.3 0-80-35.8-80-80V196.9l48 37.8V432c0 17.7 15.2 32 32 32h224c9 0 18-3.7 23.8-9.6l37.8 29.8c-15.6 17-36.4 27.8-61.6 27.8zm-176-214.3V400c0 8.8-6.3 16-16 16-7.9 0-16-7.2-16-16V272.5l32 25.2zm80 63V400c0 8.8-6.3 16-16 16-7.9 0-16-7.2-16-16v-64.5l32 25.2z"/></svg>