<svg xmlns="http://www.w3.org/2000/svg" viewBox="0 0 576 512"><!--! Font Awesome Pro 6.1.1 by @fontawesome - https://fontawesome.com License - https://fontawesome.com/license (Commercial License) Copyright 2022 Fonticons, Inc.--><path d="M317.5 24.94 354.2 80H424c13.3 0 24 10.75 24 24 0 13.3-10.7 24-24 24h-8v64.7c-16.8 1.5-32.9 5.4-48 10.4V128H79.1v304c0 17.7 15.23 32 32 32h173.4c12.2 18.8 28 35.1 46.3 48H112c-44.18 0-80-35.8-80-80V128h-8c-13.25 0-24-10.7-24-24 0-13.25 10.75-24 24-24h69.82l36.68-55.06C140.9 9.357 158.4 0 177.1 0h93.8c18.7 0 36.2 9.358 46.6 24.94zM151.5 80h145l-19-28.44c-1.5-2.22-4-3.56-6.6-3.56h-93.8c-2.6 0-6 1.34-6.6 3.56L151.5 80zM320 192v40.2c-12.1 10.1-22.9 21.7-32.9 34.6V192c0-8.8 8.1-16 16.9-16 8.8 0 16 7.2 16 16zM159.1 400c0 8.8-6.3 16-16 16-7.9 0-16-7.2-16-16V192c0-8.8 8.1-16 16-16 9.7 0 16 7.2 16 16v208zm80 0c0 8.8-6.3 16-16 16-7.9 0-16-7.2-16-16V192c0-8.8 8.1-16 16-16 9.7 0 16 7.2 16 16v208zM576 368c0 79.5-64.5 144-144 144s-144.9-64.5-144.9-144S352.5 224 432 224s144 64.5 144 144zm-160.9-64v64c0 8.8 8.1 16 16 16H480c8.8 0 16-7.2 16-16s-7.2-16-16-16h-32.9v-48c0-8.8-6.3-16-16-16-7.9 0-16 7.2-16 16z"/></svg>