<svg xmlns="http://www.w3.org/2000/svg" viewBox="0 0 640 512"><!--! Font Awesome Pro 6.1.1 by @fontawesome - https://fontawesome.com License - https://fontawesome.com/license (Commercial License) Copyright 2022 Fonticons, Inc.--><path d="M160 176c8.8 0 16 7.2 16 16v208c0 8.8-7.2 16-16 16s-16-7.2-16-16V192c0-8.8 7.2-16 16-16zm96 0c8.8 0 16 7.2 16 16v208c0 8.8-7.2 16-16 16s-16-7.2-16-16V192c0-8.8 7.2-16 16-16zm136-96c13.3 0 24 10.75 24 24 0 13.3-10.7 24-24 24h-8v304c0 44.2-35.8 80-80 80H112c-44.18 0-80-35.8-80-80V128h-8c-13.25 0-24-10.7-24-24 0-13.25 10.75-24 24-24h53.82l36.68-55.06C124.9 9.357 142.4 0 161.1 0h93.8c18.7 0 36.2 9.358 46.6 24.94L338.2 80H392zM161.1 48c-2.6 0-6 1.34-6.6 3.56L135.5 80h145l-19-28.44c-1.5-2.22-4-3.56-6.6-3.56h-93.8zM336 128H80v304c0 17.7 14.33 32 32 32h192c17.7 0 32-14.3 32-32V128zm280 0c13.3 0 24 10.7 24 24s-10.7 24-24 24H472c-13.3 0-24-10.7-24-24s10.7-24 24-24h144zm-32 128c13.3 0 24 10.7 24 24s-10.7 24-24 24H472c-13.3 0-24-10.7-24-24s10.7-24 24-24h112zM448 408c0-13.3 10.7-24 24-24h48c13.3 0 24 10.7 24 24s-10.7 24-24 24h-48c-13.3 0-24-10.7-24-24z"/></svg>