<svg xmlns="http://www.w3.org/2000/svg" viewBox="0 0 640 512"><!--! Font Awesome Pro 6.1.1 by @fontawesome - https://fontawesome.com License - https://fontawesome.com/license (Commercial License) Copyright 2022 Fonticons, Inc.--><path d="M134.4 80h55.4l36.7-55.06C236.9 9.358 254.4 0 273.1 0h93.8c18.7 0 36.2 9.358 46.6 24.94L450.2 80H520c13.3 0 24 10.75 24 24 0 13.3-10.7 24-24 24h-11.6l-17.1 231.8 139.5 109.3c10.4 8.2 12.3 23.3 4.1 33.7-8.2 10.4-23.3 12.3-33.7 4.1L9.196 42.89C-1.236 34.71-3.065 19.63 5.112 9.196 13.29-1.236 28.37-3.065 38.81 5.112L134.4 80zm61.2 48 250.2 196.1L460.3 128H195.6zm77.5-80c-2.6 0-6 1.34-6.6 3.56L247.5 80h145l-19-28.44c-1.5-2.22-4-3.56-6.6-3.56h-93.8zM155.6 452.7l-18.4-248.6 51.1 40.3 15.2 204.8c.6 8.3 7.6 14.8 15.9 14.8h201.2c8.3 0 15.3-6.5 15.9-14.8l.7-8.8 42 33.2c-9.9 22.7-32.5 38.4-58.6 38.4H219.4c-33.5 0-61.3-25.8-63.8-59.3z"/></svg>