<svg xmlns="http://www.w3.org/2000/svg" viewBox="0 0 640 512"><!--! Font Awesome Pro 6.1.1 by @fontawesome - https://fontawesome.com License - https://fontawesome.com/license (Commercial License) Copyright 2022 Fonticons, Inc.--><path d="M285.5 24.94 322.2 80H392c13.3 0 24 10.75 24 24 0 13.3-10.7 24-24 24h-11.6l-24 324.7c-2.5 33.4-30.3 59.3-63.8 59.3H123.4c-33.48 0-61.31-25.9-63.79-59.3L35.56 128H24c-13.25 0-24-10.7-24-24 0-13.25 10.75-24 24-24h69.82l36.68-55.06C140.9 9.357 158.4 0 177.1 0h61.8c18.7 0 36.2 9.358 46.6 24.94zM151.5 80h113l-19-28.44c-1.5-2.22-4-3.56-6.6-3.56h-61.8c-2.6 0-6 1.34-6.6 3.56L151.5 80zm-44 369.2c.6 8.3 7.6 14.8 15.9 14.8h169.2c8.3 0 15.3-6.5 15.9-14.8L332.3 128H83.69l23.81 321.2zM616 128c13.3 0 24 10.7 24 24s-10.7 24-24 24H472c-13.3 0-24-10.7-24-24s10.7-24 24-24h144zm-32 128c13.3 0 24 10.7 24 24s-10.7 24-24 24H472c-13.3 0-24-10.7-24-24s10.7-24 24-24h112zM448 408c0-13.3 10.7-24 24-24h48c13.3 0 24 10.7 24 24s-10.7 24-24 24h-48c-13.3 0-24-10.7-24-24z"/></svg>