<svg xmlns="http://www.w3.org/2000/svg" viewBox="0 0 640 512"><!--! Font Awesome Pro 6.1.1 by @fontawesome - https://fontawesome.com License - https://fontawesome.com/license (Commercial License) Copyright 2022 Fonticons, Inc.--><path d="m626.6 357.9-35.73-41.22c6.686-4.938 12.17-11.53 15.84-19.47 8.295-17.88 5.514-38.34-7.295-53.53l-31.02-36.44a44.532 44.532 0 0 0 10.84-15.03c6.92-15.75 3.873-33.53-7.936-46.38l-120.4-130.8C442.1 5.469 429.4 0 416 0s-26.13 5.5-34.88 15.03l-39.35 42.78 32.34 35.14 41.48-45.42 114 123.9h-54.71l85.54 107.2h-66.11l95.99 110.8c2.422 2.781 1.625 5.75.938 7.25C590.2 398.8 588.6 400 586.3 400H447.4c1.816-15.02-2.506-30.18-12.83-42.09l-35.73-41.22c6.686-4.938 12.17-11.53 15.84-19.47 8.295-17.88 5.514-38.34-7.295-53.53l-31.02-36.44a44.532 44.532 0 0 0 10.84-15.03c6.92-15.75 3.873-33.53-7.936-46.38L258.9 15.03C250.1 5.469 237.4 0 224 0s-26.1 5.5-34.9 15.03L68.81 145.8c-11.8 12.9-14.83 30.7-7.91 46.4 2.53 5.8 6.23 10.9 10.8 15l-31.15 36.6c-12.75 15.1-15.51 35.6-7.22 53.4 3.688 7.938 9.154 14.56 15.82 19.47l-35.69 41.22c-14.21 16.38-17.43 38.84-8.404 58.63C13.91 435.9 32.52 448 53.62 448h146.6l.04 40.03C200.3 501.3 211.1 512 224.3 512c0 0-.016 0 0 0 13.25 0 23.99-10.78 23.98-24.03l.02-39.97h144l.006 40.03C392.3 501.3 403.1 512 416.3 512c0 0-.016 0 0 0 13.25 0 23.99-10.78 23.98-24.03l.02-39.97h146.1c21.1 0 39.72-12.06 48.58-31.47 8.12-19.83 5.82-42.23-8.38-58.63zM248.2 400l-.021-22.25 40.77-40.78c9.372-9.375 9.372-24.56 0-33.94-9.372-9.375-24.55-9.375-33.93 0l-6.919 6.87-1-126.8c0-12.4-9.9-23.1-24-23.1 0 0 .016 0 0 0-12.4 0-24 10.8-23.1 24l.045 46.08L192.1 223c-9.373-9.375-24.56-9.375-33.93 0s-9.373 24.56 0 33.94l41.07 41.08.86 101.98H53.62c-2.234 0-3.875-1.125-4.906-3.375-.685-1.5-1.467-4.438 1-7.281l95.99-110.8H79.58l85.63-107.2H110.5L223.6 47.53l114 123.9h-54.7l85.54 107.2H302.3l95.99 110.8c2.422 2.781 1.625 5.75.938 7.25C398.2 398.8 396.6 400 394.3 400H248.2z"/></svg>