<svg xmlns="http://www.w3.org/2000/svg" viewBox="0 0 640 512"><!--! Font Awesome Pro 6.1.1 by @fontawesome - https://fontawesome.com License - https://fontawesome.com/license (Commercial License) Copyright 2022 Fonticons, Inc.--><path d="M336 488c0 13.3-10.7 24-24 24s-24-10.7-24-24V56c0-30.93 25.1-56 56-56h112c30.9 0 56 25.07 56 56v136h32v-72c0-13.3 10.7-24 24-24s24 10.7 24 24v72.6c27.1 3.8 48 27.2 48 55.4v240c0 13.3-10.7 24-24 24s-24-10.7-24-24V248c0-4.4-3.6-8-8-8H464V56c0-4.42-3.6-8-8-8H344c-4.4 0-8 3.58-8 8v432zm32-392c0-8.84 7.2-16 16-16h32c8.8 0 16 7.16 16 16v32c0 8.8-7.2 16-16 16h-32c-8.8 0-16-7.2-16-16V96zm48 80c8.8 0 16 7.2 16 16v32c0 8.8-7.2 16-16 16h-32c-8.8 0-16-7.2-16-16v-32c0-8.8 7.2-16 16-16h32zm-48 112c0-8.8 7.2-16 16-16h32c8.8 0 16 7.2 16 16v32c0 8.8-7.2 16-16 16h-32c-8.8 0-16-7.2-16-16v-32zm176-16c8.8 0 16 7.2 16 16v32c0 8.8-7.2 16-16 16h-32c-8.8 0-16-7.2-16-16v-32c0-8.8 7.2-16 16-16h32zm-48 112c0-8.8 7.2-16 16-16h32c8.8 0 16 7.2 16 16v32c0 8.8-7.2 16-16 16h-32c-8.8 0-16-7.2-16-16v-32zM224 160c0 6-1 11-2 16 20 14 34 38 34 64 0 45-36 80-80 80h-16v160c0 18-15 32-32 32-18 0-32-14-32-32V320H80c-45 0-80-35-80-80 0-26 13-50 33-64-1-5-1-10-1-16 0-53 42-96 96-96 53 0 96 43 96 96z"/></svg>