<svg xmlns="http://www.w3.org/2000/svg" viewBox="0 0 512 512"><!--! Font Awesome Pro 6.1.1 by @fontawesome - https://fontawesome.com License - https://fontawesome.com/license (Commercial License) Copyright 2022 Fonticons, Inc.--><path d="M232 256.1c-13.25 0-24 10.75-24 24s10.75 24 24 24 24-10.75 24-24-10.7-24-24-24zm270.1 178.8-66.5-87c10.62-4.75 19.38-13.25 24.25-24.38 7.75-17.38 4.375-37.63-8.375-51.63l-129.4-143.5-11.8 5.926-17.11 34.07 122.8 135.7h-74.37l122.4 160H48l122.4-160H96l122.8-135.7-17.1-34.086-11.8-5.9L60.5 271.9c-12.75 14-16.12 34.25-8.375 51.63 4.875 11.12 13.62 19.62 24.25 24.38l-66.5 87c-11.12 14.5-13 34.13-4.875 50.5S29.75 512 48 512h415.1c18.25 0 34.88-10.38 43-26.62 9-16.38 7.1-35.98-4-50.48zM336 376.1c0-13.25-10.75-24-24-24s-24 10.75-24 24 10.75 24 24 24 24-10.7 24-24zM181 88.15l44.48 22.35 22.35 44.48c1.67 3.32 4.97 5.02 7.27 5.02s6.465-1.677 8.149-5.027L286.5 110.5l44.48-22.35c6.701-3.365 6.701-12.93 0-16.3L286.5 49.51 264.15 5.03c-3.367-6.701-12.93-6.701-16.3 0L225.5 49.51 181 71.85c-6.7 3.37-6.7 12.93 0 16.3z"/></svg>