<svg xmlns="http://www.w3.org/2000/svg" viewBox="0 0 448 512"><!--! Font Awesome Pro 6.1.1 by @fontawesome - https://fontawesome.com License - https://fontawesome.com/license (Commercial License) Copyright 2022 Fonticons, Inc.--><path d="m434.7 357.9-35.73-41.22c6.688-4.938 12.17-11.53 15.84-19.47 8.297-17.88 5.516-38.34-7.297-53.53l-31.03-36.44a44.505 44.505 0 0 0 10.84-15.03c6.922-15.75 3.875-33.53-7.938-46.38l-120.4-130.8C250.1 5.469 237.4 0 224 0s-26.1 5.5-34.9 15.03L68.77 145.8c-11.8 12.9-14.83 30.7-7.91 46.4 2.53 5.8 6.23 10.9 10.8 15L40.5 243.8c-12.75 15.1-15.52 35.6-7.22 53.4 3.69 8 9.16 14.6 15.83 19.5l-35.7 41.22C-.81 374.3-4.03 396.76 5.004 416.55 13.86 435.9 32.47 448 53.58 448h146.7l.04 40.03C200.3 501.3 210.9 512 224.1 512c0 0-.016 0 0 0 13.25 0 24.2-10.78 24.18-24.03l.02-39.97h146.1c21.11 0 39.73-12.06 48.59-31.47 9.01-19.83 5.81-42.23-8.29-58.63zm-35.4 38.7c-1 2.2-2.7 3.4-4.9 3.4H248.2l-.021-22.25 40.78-40.78c9.374-9.375 9.374-24.56 0-33.94s-24.56-9.375-33.94 0l-6.909 6.908L248 183.1c-.016-13.25-10.75-23.97-24-23.97 0 0 .016 0 0 0-13.25 0-24.01 10.79-23.1 24.04l.045 46.08L192.1 223c-9.375-9.375-24.56-9.375-33.94 0s-9.375 24.56 0 33.94L200.1 298l.1 102H53.58c-2.234 0-3.875-1.125-4.906-3.375-.688-1.5-1.469-4.438 1-7.281l96.02-110.8H79.55l85.66-107.2H110.4L223.6 47.53l114 123.9h-54.72l85.56 107.2h-66.13l96.02 110.8c2.47 2.67 1.67 5.67.97 7.17z"/></svg>