<svg xmlns="http://www.w3.org/2000/svg" viewBox="0 0 576 512"><!--! Font Awesome Pro 6.1.1 by @fontawesome - https://fontawesome.com License - https://fontawesome.com/license (Commercial License) Copyright 2022 Fonticons, Inc.--><path d="M416.7 63.1c-39.37 0-74.1 11.75-102.1 30.5C295.1 40.13 233.4 0 159.3 0 78.63 0 11.89 47.25.263 108.9c-1.875 9.8 6.5 18.2 17.747 18.2H64L96.01 80l33.5 66.87c-3.625 3.125-7.375 5.75-10.75 9.125C61.76 212.1 48.01 293.6 83.38 345.4c5.75 8.375 18.12 9 26.12 1l124.9-124.9c2.125 99.12-20.87 196.2-32.87 239.1-6.1 25.12 11.62 50.5 38.12 50.5h90.37c19.62.125 36.25-14.12 39.37-33.5 16.87-104.9-1.75-217.1-17.5-286.5h64.12l31.1-47.1 31.1 47.1h77.1c11.25 0 19.62-9.25 17.75-19.12C564.1 111.2 497.4 63.1 416.7 63.1zm-94.6 400h-72.5c14.37-54.5 37.75-163.7 30.25-271.1h21.75c15.6 61.6 35.9 171.9 20.5 271.1z"/></svg>