<svg xmlns="http://www.w3.org/2000/svg" viewBox="0 0 512 512"><!--! Font Awesome Pro 6.1.1 by @fontawesome - https://fontawesome.com License - https://fontawesome.com/license (Commercial License) Copyright 2022 Fonticons, Inc.--><path d="M493.3 216c-6.641-9.656-18.14-19.12-28.06-26.25 3.547-12.28 4.422-24.84 2.578-37.53-2.891-19.91-11.28-37.28-24.95-51.63-13.53-14.19-30.17-23.69-49.47-28.22-10.94-2.625-21.89-3.25-32.89-1.781-6.141-16.25-16.25-30.59-30.23-42.81C309.1 9.344 284.2 0 256 0s-53.1 9.344-74.2 27.81c-14 12.22-24.1 26.57-30.3 42.82-11-1.44-21.9-.85-32.9 1.78-19.27 4.53-35.91 14.03-49.44 28.19-13.68 13.5-22.07 31.7-24.96 51.7-1.781 12.22-.953 24.25 2.422 36C35.67 195.7 26.34 204.9 18.72 216 6.297 234.1 0 254.3 0 276c0 29.97 11 55.78 32.69 76.75C54.14 373.5 80.48 384 111 384h121.2l.092 104c.008 13.3 10.608 24 23.808 24 0 0-.016 0 0 0 13.25 0 24.21-10.78 24.19-24.03L280.2 384H401c30.52 0 56.86-10.5 78.31-31.25C501 331.8 512 305.1 512 276c0-21.7-6.3-41.9-18.7-60zm-47.4 102.3c-12.3 11.9-27 17.7-44.9 17.7H280.2l-.006-6.219 56.81-56.81c9.375-9.375 9.375-24.56 0-33.94s-24.56-9.375-33.94 0l-22.93 22.93L280 151.1c-.016-13.25-10.76-23.97-24.01-23.97 0 0 .016 0 0 0-13.25 0-24.01 10.79-23.99 24.04l.055 62.09L208.1 191c-9.375-9.375-24.56-9.375-33.94 0s-9.375 24.56 0 33.94l57.08 57.08.96 53.98H111c-17.89 0-32.58-5.812-44.94-17.75C53.91 306.5 48 292.7 48 276c0-12 3.359-22.72 10.28-32.78 6.875-10 16.05-17.19 28-21.91l26.47-10.44-14.77-24.37c-5.56-9.1-7.62-18.1-6.28-27.4 1.453-10 5.438-18.28 12.2-25.38 7.1-7.42 15.5-12.22 25.8-14.62a44.068 44.068 0 0 1 10.25-1.219c6.453 0 12.95 1.406 19.66 4.281l29.75 12.72 3.547-32.16C194.6 87.19 201.3 74.5 213.3 63.94c24.53-21.44 60.78-21.44 85.31 0 12.08 10.56 18.78 23.25 20.48 38.81l3.547 32.16 29.75-12.72c10.27-4.375 20.06-5.375 29.91-3.062 10.23 2.406 18.66 7.188 25.75 14.62 6.766 7.094 10.75 15.38 12.2 25.38 1.375 9.5-.531 18.72-5.812 28.19l-11.44 20.5 20.27 11.91c11.53 6.75 26.5 17.81 30.41 23.5C460.6 253.3 464 264 464 276c0 16.7-5.9 30.5-18.1 42.3z"/></svg>