<svg xmlns="http://www.w3.org/2000/svg" viewBox="0 0 512 512"><!--! Font Awesome Pro 6.1.1 by @fontawesome - https://fontawesome.com License - https://fontawesome.com/license (Commercial License) Copyright 2022 Fonticons, Inc.--><path d="m500.2 432.6-46.49-53.75a48.271 48.271 0 0 0 21.5-21.75c7.999-16.5 5.874-36.25-5.499-50.63L413.6 235c9.873-4.1 17.87-13.25 22.5-23.88 7.624-17.62 3.999-38-9.248-52l-135.1-144C281.7 5.375 269.3 0 256 0c-13.25 0-25.77 5.375-34.89 15L86.01 159c-13.25 13.88-16.87 34.38-9.248 52 4.624 10.62 12.62 18.88 22.5 23.88L42.29 306.4c-11.5 14.4-13.5 34.1-5.5 50.6 4.749 9.625 12.37 17.25 21.5 21.75l-46.5 53.75a48.026 48.026 0 0 0-7.499 51.38C12.17 501 29.29 512 48.04 512h415.9c18.75 0 35.87-11 43.74-28.12 7.82-17.08 4.92-37.08-7.48-51.28zM48.04 464l110.9-128H80.03L193.1 192H120L256 48l135.1 144h-73.11l113.1 144h-78.86l110.9 128H48.04z"/></svg>