<svg xmlns="http://www.w3.org/2000/svg" viewBox="0 0 512 512"><!--! Font Awesome Pro 6.1.1 by @fontawesome - https://fontawesome.com License - https://fontawesome.com/license (Commercial License) Copyright 2022 Fonticons, Inc.--><path d="m500.2 432.6-46.49-53.75a48.271 48.271 0 0 0 21.5-21.75c7.998-16.5 5.873-36.25-5.5-50.63l-56.11-71.5c9.873-5 17.87-13.25 22.49-23.88 7.625-17.62 4-38-9.248-52l-135.1-144C281.7 5.375 269.3 0 256 0s-25.7 5.375-34.9 15L86 159c-13.25 13.88-16.87 34.38-9.248 52 4.623 10.62 12.62 18.88 22.49 23.88l-56.11 71.5c-11.5 14.38-13.5 34.13-5.5 50.63 4.75 9.625 12.37 17.25 21.5 21.75L11.79 432.5a48.024 48.024 0 0 0-7.498 51.38C12.17 501 29.29 512 48.04 512h415.9c18.75 0 35.87-11 43.74-28.12 7.82-17.08 4.92-37.08-7.48-51.28zM48.04 464l110.9-128H80.03L193.1 192h-73.11L256 48l135.1 144h-73.11l113.1 144h-78.86l110.9 128H48.04zM192 264c-13.25 0-23.1 10.74-23.1 24 0 13.25 10.74 24 23.1 24s23.1-10.75 23.1-24c0-13.3-9.8-24-23.1-24zm128 128c-13.25 0-23.1 10.74-23.1 24 0 13.25 10.74 24 23.1 24s23.1-10.75 23.1-24c0-13.3-9.8-24-23.1-24zm-8.9-232c0-13.26-10.74-24-23.1-24s-23.1 10.74-23.1 24c0 13.25 10.74 24 23.1 24s23.1-10.7 23.1-24z"/></svg>