<svg xmlns="http://www.w3.org/2000/svg" viewBox="0 0 640 512"><!--! Font Awesome Pro 6.1.1 by @fontawesome - https://fontawesome.com License - https://fontawesome.com/license (Commercial License) Copyright 2022 Fonticons, Inc.--><path d="M324 215.1c15.5 0 27.1-12.5 27.1-27.1s-11.6-28.9-27.1-28.9-28 13.4-28 28 12.5 28 28 28zm-18.6 141.3-83-53.7-29.75 108.1a16.33 16.33 0 0 0-.59 4.339c0 5.207 3.846 15.91 15.97 15.91 7.25 0 13.5-4.875 15.37-11.75l18.25-66.1 46.37 29.1v32.75c0 8.875 7.118 15.88 15.99 15.88 8.874 0 16-7.002 16-15.88v-32.75C320 372.4 314.5 362.2 305.4 356.4zm135-9.3-13.1 20.87-68.12-41.1-10.5-52.75c-3.75-18.62-18.12-33.25-35.5-37.12l-25.58-8.1c-3.5-.8-7-1.2-10.5-1.2-14.86 0-29.13 6.92-38.24 19.17L227.3 262.2c-2.2 2.9-3.3 6.4-3.3 9.8 0 8.456 6.174 12.58 7.616 13.46l174.7 107.6-21.67-.002c-8.004 0-15.11 4.97-17.95 12.5l-9.125 26.37h163.9l-54.37-84.62c-2.875-4.5-7.875-7.25-13.25-7.375C448.5 339.1 443.4 342.6 440.4 347.1zm190.7 80.8L367.4 25.25C356.78 9.5 339.02 0 320.02 0S283.3 9.5 272.6 25.25L8.903 427.9C2.987 436.7 0 446.1 0 457.2c0 8.788 2.205 17.59 6.653 25.56C16.47 500.8 35.44 512 55.94 512h528.2C599 512 640 499.9 640 457.3c0-10.3-3-20.6-8.9-29.4zm-40 29.3c0 3.198-3.167 6.82-8.221 6.82H56.28c-4.98 0-8.178-3.515-8.178-6.736a5.83 5.83 0 0 1 .928-3.139L312.8 51.5c1.7-2.25 4.5-4.4 7.2-4.4 2.875 0 5.5 1.25 7.25 3.5l263.7 402.7c.75 1.8.15 2.8.15 3.9z"/></svg>