<svg xmlns="http://www.w3.org/2000/svg" viewBox="0 0 512 512"><!--! Font Awesome Pro 6.1.1 by @fontawesome - https://fontawesome.com License - https://fontawesome.com/license (Commercial License) Copyright 2022 Fonticons, Inc.--><path d="M255.1 263.9c-24.75-.375-46.1 15.47-54.75 39.09-7.624 23.62.875 49.5 21.12 63.87 20.25 14.5 47.5 13.1 67.24-1.125 19.87-14.1 27.5-41.13 18.1-64.5l196.3-196.3c9.352-9.352 9.393-24.5.094-33.91-9.314-9.419-24.6-9.461-33.97-.094l-196.3 196.3C268.7 265.1 262.4 264 255.1 263.9zm242.7 104.2-80.4-130.3-34.89 34.81L457 393.31c8.999 14.5 9.374 31.25 1.125 46.12-8.624 15.25-24.87 24.62-42.25 24.5H96.14c-17.37.125-33.5-9.25-42.12-24.37-8.374-14.87-7.999-31.75 1-46.25L214.9 134.4c8.749-14.25 24.37-22.75 41.12-22.62 17.25 0 32.25 8.25 41.12 22.62l24.87 40.37 34.87-34.87-19.78-30.6C325 88.05 303.23 72.71 280 66.71V23.95C279.1 10.73 269.2 0 255.1 0S232 10.73 232 23.95v42.79c-24.12 6-45.01 21.44-58.01 42.56L14.19 368.1c-18.12 28.87-19.06 65.19-2.187 94.81 16.75 29.1 49.1 49.06 84.09 49.06h319.8c34.87.125 67.13-18.75 84.13-49.12C516.7 432.1 516 397.5 497.8 368.1z"/></svg>