<svg xmlns="http://www.w3.org/2000/svg" viewBox="0 0 512 512"><!--! Font Awesome Pro 6.1.1 by @fontawesome - https://fontawesome.com License - https://fontawesome.com/license (Commercial License) Copyright 2022 Fonticons, Inc.--><path d="M296 240c0 22.1-17.9 40-40 40s-40-17.9-40-40 17.9-40 40-40 40 17.9 40 40zM235.3 16.24c11.7-10.992 29.7-10.992 41.5 0 12.1 11.33 33.1 32.52 50.3 58.82 18.7 25.94 35.1 58.04 35.1 93.34 0 7.4-.8 14.5-3.1 21.5 8.1 2.2 15.2 5.3 22.1 9.2 29.9 17.2 50.4 47.6 64.2 76 13.9 28.6 21.8 57.3 25.7 73.4 3.7 15.9-5.5 31.5-21 36.2-15.9 4.7-44.9 12.2-76.8 14.5-31.5 2.4-68.3 0-98.2-17.2-7-4.9-13.4-8.7-20-14-4.9 5.3-11.3 10-18.3 14-29.9 17.2-66.7 19.6-98.2 17.3-31.9-2.4-60.85-9.9-76.84-14.6-15.5-4.7-24.7-20.3-20.93-36.2 3.84-16.1 11.82-44.8 25.72-73.4 13.73-28.3 34.25-58.8 64.15-76 6.9-3.9 14.1-7 21.4-9.3-1.5-6.9-2.3-14.1-2.3-21.4 0-35.3 16.4-67.4 34.3-93.34 18-26.3 39-47.49 51.2-58.82zM335.7 233.5c-9.9-1.2-18.6-7-23.6-15.6-5.1-8.6-5.8-19-2.1-28.2 2.7-6.6 4.2-14.6 4.2-21.3 0-20.1-10-43.2-25.8-66.2-10.5-15.29-23.3-28.83-32.4-39.08-9.9 10.25-21.8 23.79-32.4 39.08-15.8 23-25.8 46.1-25.8 66.2 0 6.7 1.5 14.7 3.3 21.3 4.6 9.2 3 19.6-2 28.2-4.2 8.6-12.9 14.4-22.8 15.6-7.4.9-14.8 3.3-21.7 7.3-17.6 10.1-32.8 30.3-44.9 55.2-8 16.6-13.83 33.5-17.8 47.1 13.9 3.4 31.7 6 50.3 8.3 27.9 2.1 53.1-.9 70.7-11 7.1-4.1 12.9-9.3 17.5-15.4 6-8.9 15.5-12.7 24.7-12.7 10.9 0 20.4 3.8 26.4 12.7 4.6 6.1 10.4 11.3 16.6 15.4 18.5 10.1 43.7 13 71.6 11 18.6-2.3 36.4-4.9 50.3-8.3-4-13.6-9.8-30.5-17.8-47.1-12.1-25-27.3-45.1-44.9-55.2-6.9-4-14.2-6.4-21.6-7.3zM132.8 123.4c-3 11.8-5.7 24.1-5.7 36.6 0 6.2 1.3 12.3 2.2 18.3-7.8 1.8-15.4 6.1-22.7 10.4-9.93 5.7-18.88 12.6-26.98 20.2-28.67-26.2-42.05-51.3-47.64-64.6-5.81-13.8 2.98-29 17.87-30.9 14.71-1.9 44.36-2.8 82.95 10zm249.9 55c.9-6 1.3-12.2 1.3-18.4 0-12.5-1.8-24.8-4.8-36.6 38.6-12.8 68.2-11.9 82.9-10 14.9 1.9 23.7 17.1 17.9 30.9-5.6 13.3-19 38.4-47.7 63.8-8.1-6.8-17.1-13.7-27-19.4-8.2-4.3-14.9-7.7-22.6-10.3zM237.1 497.1c-8.4-12.6-22.9-38.2-31-74.3 9.8-3.1 19.3-7.2 28.5-12.4 7.7-4.5 14.9-9.7 21.3-15.5 6.5 5.8 13.6 11 21.4 15.5 9.1 5.3 18.8 9.4 28.6 12.5-8.2 35.2-22.6 61.6-31 74.2-9.1 13.7-28.7 13.7-37.8 0z"/></svg>