<svg xmlns="http://www.w3.org/2000/svg" viewBox="0 0 512 512"><!--! Font Awesome Pro 6.1.1 by @fontawesome - https://fontawesome.com License - https://fontawesome.com/license (Commercial License) Copyright 2022 Fonticons, Inc.--><path d="M240.8 4.779C250.3 10.61 256 20.91 256 32v72h89c3.6-13.8 16.1-24 31-24h88c26.5 0 48 21.5 48 48s-21.5 48-48 48h-88c-14.9 0-27.4-10.2-31-24h-89v72c0 11.1-5.7 21.4-15.2 27.2-9.4 5.9-21.2 6.4-31.1 1.4l-192.01-96C6.848 151.2 0 140.1 0 128c0-12.1 6.848-23.2 17.69-28.62L209.7 3.378c9.9-4.959 21.7-4.429 31.1 1.401zM336 224h128c26.5 0 48 21.5 48 48v104c0 1.3-.1 2.7-.2 4 .1 1.3.2 2.7.2 4v80c0 26.5-21.5 48-48 48H48c-26.51 0-48-21.5-48-48v-80c0-26.5 21.49-48 48-48h240v-64c0-26.5 21.5-48 48-48zm-80 160v80h208v-80H256zm-48 0H48v80h160v-80zm256-112H336v64h128v-64z"/></svg>