<svg xmlns="http://www.w3.org/2000/svg" viewBox="0 0 640 512"><!--! Font Awesome Pro 6.1.1 by @fontawesome - https://fontawesome.com License - https://fontawesome.com/license (Commercial License) Copyright 2022 Fonticons, Inc.--><path d="M352 88c0-48.6 39.4-88 88-88h176c13.3 0 24 10.75 24 24s-10.7 24-24 24H440c-22.1 0-40 17.91-40 40v272.7l25.7-7 .3-.1c17.7-38.7 56.7-65.6 102-65.6 61.9 0 112 50.1 112 112s-50.1 112-112 112c-59.8 0-108.7-46.9-111.8-106L30.31 511.2c-12.79 3.4-25.981-4.1-29.466-16.9-3.484-12.8 4.058-26 16.846-29.5l334.31-91V88zm176 248c-35.3 0-64 28.7-64 64s28.7 64 64 64 64-28.7 64-64-28.7-64-64-64zM23.11 207.7c-4.57-17.1 5.56-34.6 22.63-39.2l46.36-12.4 20.7 77.3c2.3 8.5 11.1 12.7 19.6 11.3l30.9-8.3c8.5-2.3 13.6-11.1 11.3-19.6l-20.7-77.3 46.4-12.4c17.1-4.6 34.6 5.6 39.2 22.6l41.4 154.6c4.6 17.1-5.6 34.6-22.6 39.2l-154.6 41.4c-17.06 4.6-34.6-5.6-39.18-22.6L23.11 207.7z"/></svg>