<svg xmlns="http://www.w3.org/2000/svg" viewBox="0 0 640 512"><!--! Font Awesome Pro 6.1.1 by @fontawesome - https://fontawesome.com License - https://fontawesome.com/license (Commercial License) Copyright 2022 Fonticons, Inc.--><path d="M424 191.1c30.9 0 56 26 56 56V336h32V207.1c0-5.1 2.2-10.8 6.2-15.2l80-88c9-9.85 24.1-10.57 33.9-1.7 9 9 10.6 24.1 1.7 33.9L560 217.3v141.4l73.8 81.2c8.9 9.8 7.3 24.9-1.7 33.9-9.8 8.9-24.9 7.3-33.9-1.7l-80-88-.1-.1H464c0 53-43 96-96 96-53.9 0-96-43-96-96h-48c0 53-43 96-96 96-53.02 0-96-43-96-96v-.8C13.74 379.5 0 363.4 0 344v-96c0-30.9 25.07-56 56-56h72V88c0-30.93 25.1-56 56-56h86.1c19.5 0 37.6 10.15 47.7 26.8l78.7 128.7c.9 1.4 1.6 3 2.1 4.5l25.4-.9zm-240.9-112c-3.5 0-8 4.48-8 8v104h167L276.9 83.83c-1.5-2.38-4.1-4.73-6.8-4.73h-87zM432 312.4v-65.3c0-3.5-3.6-8-8-8H55.1c-3.52 0-8 4.5-8 8v83.8c18.1-25.9 47.51-43.8 80-43.8 36.4 0 67.5 20.2 84.1 48.9h73.6c16.6-28.7 47.7-48.9 83.2-48.9 24.6 0 47 10.1 64 25.3zM127.1 336c-25.6 0-48 21.5-48 48s22.4 48 48 48c27.4 0 48-21.5 48-48s-20.6-48-48-48zM368 432c26.5 0 48-21.5 48-48s-21.5-48-48-48-48.9 21.5-48.9 48 22.4 48 48.9 48z"/></svg>