<svg xmlns="http://www.w3.org/2000/svg" viewBox="0 0 640 512"><!--! Font Awesome Pro 6.1.1 by @fontawesome - https://fontawesome.com License - https://fontawesome.com/license (Commercial License) Copyright 2022 Fonticons, Inc.--><path d="M368 120c0-13.3 10.7-24 24-24h66.7c14.9 0 29.1 5.9 39.6 16.4l93.3 93.3c10.5 10.5 16.4 24.7 16.4 39.6V368h8c13.3 0 24 10.7 24 24s-10.7 24-24 24h-40c0 53-43 96-96 96-53.9 0-96-43-96-96H256c0 53-43 96-96 96-53.9 0-96-43-96-96H24c-13.25 0-24-10.7-24-24s10.75-24 24-24h52.84c16.6-28.7 47.66-48 83.16-48s66.6 19.3 83.2 48H368V120zm96.4 26.3c-1.5-1.5-3.5-2.3-5.7-2.3H416v96h142l-.2-.2-.1-.2-93.3-93.3zM159.1 368c-25.6 0-48 21.5-48 48s22.4 48 48 48c27.4 0 48-21.5 48-48s-20.6-48-48-48zM480 464c26.5 0 48-21.5 48-48s-21.5-48-48-48-48 21.5-48 48 21.5 48 48 48z"/></svg>