<svg xmlns="http://www.w3.org/2000/svg" viewBox="0 0 640 512"><!--! Font Awesome Pro 6.1.1 by @fontawesome - https://fontawesome.com License - https://fontawesome.com/license (Commercial License) Copyright 2022 Fonticons, Inc.--><path d="M251.2 87.47C244.3 67.55 231.7 49.7 224 49c-10 2-32 38-32 64v68L48 291v33.1L192 270v114l-64 48v26.1l96-28 42.3 13.2c5.5 10.8 12.8 20.3 21.7 28.2V488c0 4.1.4 8.2 1.3 12L224 480.1l-82.6 25c-14.5 4.2-30.1 1.4-42.2-7.7-12.09-9.1-19.2-23.3-19.2-39.3V432c0-15.1 7.11-29.3 19.2-38.4L144 360v-20.3l-78.87 30.1c-14.76 5.7-31.34 3.7-44.35-5.3C7.77 355.6 0 340.8 0 324.1V291c0-15 6.974-29.1 18.86-38.1L144 157.3V113c0-24.29 9.5-47.97 18-63.81 4.6-8.47 10.1-16.95 16.3-24.17 3-3.58 7-7.71 11.8-11.48 4-3.2 12.5-9.212 24.5-11.608a47.55 47.55 0 0 1 13.7-.735c13 1.178 22.5 6.782 26.8 10.343 6.5 3.92 11 8.35 14.3 12.12 6.8 7.57 11.7 16.47 17.1 25.11 8.3 15.57 16.5 37.48 17.4 60.13-25.8 14.9-44.8 41.5-47.3 72.5l-.6-.4v-68c0-8.1-1.9-17.01-4.8-25.53zm.1-.18.1-.08s0 .03-.1.08zM384 361.4c5.8 2 10.5 6.2 13.3 11.5 1.7 3.3 2.7 7.1 2.7 11.1 0 13.3-10.7 24-24 24s-24-10.7-24-24c0-9.1 5.1-17.1 12.6-21.1 3.4-1.9 7.3-2.9 11.4-2.9 2.8 0 5.5.5 8 1.4zM528 384c0-13.3 10.7-24 24-24s24 10.7 24 24-10.7 24-24 24-24-10.7-24-24zM328.4 506.3c-5.1-4.4-8.4-11-8.4-18.3v-32.6c-16.8-9.7-28.8-26.9-31.5-47-.3-2.7-.5-5.5-.5-8.4V191.1c0-15.3 6-30.2 16-41.4 11.7-13.3 28.9-22.6 48-22.6h224c35.3 0 64 29.6 64 64V400c0 23.7-12.9 44.4-32 55.4V488c0 13.3-10.7 24-24 24s-24-10.7-24-24v-24H368v24c0 13.3-10.7 24-24 24-5.9 0-11.4-2.2-15.6-5.7zm10-322.8c-1.5 2.5-2.4 5.4-2.4 7.6v105.4l14.6-45.4.4-1.2c3.6-9.4 9.4-18 17-25 3.8-3.5 8-6.6 12.6-9.1 9-4.9 19.3-7.8 30.6-7.8h105.6c28.8 0 51.4 18.7 59.3 41.9l1.3 1.2 14.6 45.4V192c0-8.8-7.2-16-16-16H352c-5.7 0-10.8 3-13.6 7.6v-.1zm72.8 71.6c-6.9 0-12.8 5.4-15.3 11l-11.9 37h160l-11.9-37c-2.4-5.6-8.4-11-15.3-11H411.2zM360 352c-4.9 0-9.5 1.5-13.3 4-6.5 4.3-10.7 11.7-10.7 20v24c0 8.3 6.3 15.1 14.4 15.9.5-.8 1 .1 1.6.1h224c8.8 0 16-7.2 16-16v-24c0-13.3-10.7-24-24-24H360z"/></svg>