<svg xmlns="http://www.w3.org/2000/svg" viewBox="0 0 640 512"><!--! Font Awesome Pro 6.1.1 by @fontawesome - https://fontawesome.com License - https://fontawesome.com/license (Commercial License) Copyright 2022 Fonticons, Inc.--><path d="M320 192c0 61.9-50.1 112-112 112S96 253.9 96 192 146.1 80 208 80s112 50.1 112 112zm-128-48v48c0 8.8 7.2 16 16 16h32c8.8 0 16-7.2 16-16s-7.2-16-16-16h-16v-32c0-8.8-7.2-16-16-16s-16 7.2-16 16zm288 368c-53.9 0-96-43-96-96H256c0 53-43 96-96 96-53.9 0-96-43-96-96-35.35 0-64-28.7-64-64V64C0 28.65 28.65 0 64 0h288c35.3 0 64 28.65 64 64v32h42.7c14.9 0 29.1 5.9 39.6 16.4l93.3 93.3c10.5 10.5 16.4 24.7 16.4 39.6V368h8c13.3 0 24 10.7 24 24s-10.7 24-24 24h-40c0 53-43 96-96 96zM48 64v288c0 8.8 7.16 16 16 16h12.84c16.6-28.7 47.66-48 83.16-48s66.6 19.3 83.2 48H352c8.8 0 16-7.2 16-16V64c0-8.84-7.2-16-16-16H64c-8.84 0-16 7.16-16 16zm510 176c-.1-.1-.2-.3-.3-.4l-93.3-93.3c-1.5-1.5-3.5-2.3-5.7-2.3H416v96h142zM160 464c26.5 0 48-21.5 48-48s-21.5-48-48-48-48 21.5-48 48 21.5 48 48 48zm320-96c-26.5 0-48 21.5-48 48s21.5 48 48 48 48-21.5 48-48-21.5-48-48-48z"/></svg>