<svg xmlns="http://www.w3.org/2000/svg" viewBox="0 0 640 512"><!--! Font Awesome Pro 6.1.1 by @fontawesome - https://fontawesome.com License - https://fontawesome.com/license (Commercial License) Copyright 2022 Fonticons, Inc.--><path d="M0 256v-96c0-11.8 6.435-22.2 16-27.7V96c0-35.35 28.65-64 64-64h256c29.8 0 54.9 20.4 61.1 48h38.6c21.7 0 41.4 12.53 50.7 32.2l52.3 111.1-.6.7h5.9c35.3 0 64 28.7 64 64v48h8c13.3 0 24 10.7 24 24s-10.7 24-24 24h-40c0 53-43 96-96 96-53.9 0-96-43-96-96H256c0 53-43 96-96 96-53.9 0-96-43-96-96H16v-1.4C6.678 379.3 0 370.5 0 360c0-10.5 6.678-19.3 16-22.6v-53.7C6.435 278.2 0 267.8 0 256zM336 80H80c-8.84 0-16 7.16-16 16v240h12.84c16.6-28.7 47.66-48 83.16-48s66.6 19.3 83.2 48H352V96c0-8.84-7.2-16-16-16zM208 384c0-26.5-21.5-48-48-48s-48 21.5-48 48 21.5 48 48 48 48-21.5 48-48zm234.9-251.4c-1.3-2.8-4.1-4.6-7.2-4.6H400v96h85.9l-43-91.4zM432 384c0 26.5 21.5 48 48 48s48-21.5 48-48-21.5-48-48-48-48 21.5-48 48z"/></svg>