<svg xmlns="http://www.w3.org/2000/svg" viewBox="0 0 640 512"><!--! Font Awesome Pro 6.1.1 by @fontawesome - https://fontawesome.com License - https://fontawesome.com/license (Commercial License) Copyright 2022 Fonticons, Inc.--><path d="M520 112c48.6 0 88 39.4 88 88v30.3c6.1 5.1 11.1 10.6 17.5 16.4 9.1 9.7 8.6 24.9-1 34-9.7 9.1-24.9 8.6-34-1C562.8 250.3 523.6 232 480 232c-53.3 0-100.3 27.5-127.4 69.1-4.5 6.8-12 10.9-20.1 10.9h-25c-8.1 0-15.6-4.1-20.1-10.9C260.3 259.5 213.3 232 160 232c-43.6 0-82.8 18.3-110.55 47.7-9.1 9.6-24.29 10.1-33.93 1-9.634-9.1-10.071-24.3-.97-34 5.48-5.8 11.31-11.3 17.45-16.4V200c0-48.6 39.4-88 88-88h104V56c0-30.93 25.1-56 56-56h88.2c17.4 0 33.8 8.076 44.4 21.86L481.1 112H520zM279.1 48c-3.5 0-8 3.58-8 8v56h150.3l-46.8-60.88c-1.5-1.97-3.9-3.12-6.4-3.12h-89.1zM560 200.6v-.6c0-22.1-17.9-40-40-40H119.1c-21.19 0-40 17.9-40 40v.6c25.4-10.7 52.5-16.6 80-16.6 66.4 0 124.4 31.5 160 79.1C356.5 215.5 414.5 184 480 184c28.4 0 55.5 5.9 80 16.6zM167.1 256c13 0 23 8.9 24.7 20.6 7.6 2.2 14.9 5.3 21.7 9 9.4-7.1 22.8-6.3 31.4 2.2l11.3 11.3c8.5 8.6 9.3 22 2.2 31.4 3.7 6.8 6.8 14.1 9 21.7 11.7 1.7 19.7 11.7 19.7 23.8v16c0 12.1-8 22.1-19.7 23.8-2.2 7.6-5.3 14.9-9 21.7 7.1 9.4 6.3 22.8-2.2 31.4l-11.3 11.3c-8.6 8.5-22 9.3-31.4 2.2-6.8 3.7-14.1 6.8-21.7 9-1.7 11.7-11.7 20.6-24.7 20.6h-16c-11.2 0-21.2-8.9-22.9-20.6-7.6-2.2-14.9-5.3-21.7-9-9.41 7.1-22.8 6.3-31.35-2.2l-11.32-11.3c-8.55-8.6-9.3-22-2.25-31.4-3.73-6.8-6.77-14.1-9.01-21.7-11.63-1.7-21.47-11.7-21.47-23.8v-16c0-12.1 9.84-22.1 21.47-23.8 2.24-7.6 5.28-14.9 9.01-21.7-7.05-9.4-6.3-22.8 2.25-31.4l11.32-11.3c8.55-8.5 21.94-9.3 31.35-2.2 6.8-3.7 14.1-6.8 21.7-9 1.7-11.7 11.7-21.5 22.9-21.5l16 .9zm-8 176c27.4 0 48-21.5 48-48s-20.6-48-48-48c-25.6 0-48 21.5-48 48s22.4 48 48 48zM488 256c12.1 0 22.1 8.9 23.8 20.6 7.6 2.2 14.9 5.3 21.7 9 9.4-7.1 22.8-6.3 31.4 2.2l11.3 11.3c8.5 8.6 9.3 22 2.2 31.4 3.7 6.8 6.8 14.1 9 21.7 11.7 1.7 20.6 11.7 20.6 23.8v16c0 12.1-8.9 22.1-20.6 23.8-2.2 7.6-5.3 14.9-9 21.7 7.1 9.4 6.3 22.8-2.2 31.4l-11.3 11.3c-8.6 8.5-22 9.3-31.4 2.2-6.8 3.7-14.1 6.8-21.7 9-1.7 11.7-11.7 20.6-23.8 20.6h-16c-12.1 0-22.1-8.9-23.8-20.6-7.6-2.2-14.9-5.3-21.7-9-9.4 7.1-22.8 6.3-31.4-2.2l-11.3-11.3c-8.5-8.6-9.3-22-2.2-31.4-3.8-6.8-6.8-14.1-9-21.7-11.7-1.7-20.6-11.7-20.6-23.8v-16c0-12.1 8.9-22.1 20.6-23.8 2.2-7.6 5.2-14.9 9-21.7-7.1-9.4-6.3-22.8 2.2-31.4l11.3-11.3c8.6-8.5 22-9.3 31.4-2.2 6.8-3.7 14.1-6.8 21.7-9 1.7-11.7 11.7-21.5 23.8-21.5l16 .9zm-8 176c26.5 0 48-21.5 48-48s-21.5-48-48-48-48 21.5-48 48 21.5 48 48 48z"/></svg>