<svg xmlns="http://www.w3.org/2000/svg" viewBox="0 0 640 512"><!--! Font Awesome Pro 6.1.1 by @fontawesome - https://fontawesome.com License - https://fontawesome.com/license (Commercial License) Copyright 2022 Fonticons, Inc.--><path d="M352 88c0-48.6 39.4-88 88-88h176c13.3 0 24 10.75 24 24s-10.7 24-24 24H440c-22.1 0-40 17.91-40 40v272.7l25.7-7 .3-.1c17.7-38.7 56.7-65.6 102-65.6 61.9 0 112 50.1 112 112s-50.1 112-112 112c-59.8 0-108.7-46.9-111.8-106L30.31 511.2c-12.79 3.4-25.981-4.1-29.466-16.9-3.484-12.8 4.058-26 16.846-29.5l334.31-91V88zm176 248c-35.3 0-64 28.7-64 64s28.7 64 64 64 64-28.7 64-64-28.7-64-64-64zM294.5 209.2c8.7-2.4 17.4-2.2 25.5.1v125.5L33.98 411.5l-20.71-77.3c-6.858-25.6 8.34-51.9 33.94-58.8 25.61-6.9 51.93 8.3 58.79 34l4.1 15.4 154.6-41.4-4.1-15.5c-6.9-25.6 8.3-51.9 33.9-58.7zM8.023 252.8c-9.148-34.2 11.117-69.3 45.257-78.4l185.42-49.7c34.2-9.1 68.4 11.1 78.4 44.4l1.7 7.3c-10.5-1.6-21.6-1.1-32.6 1.8-37.4 10.1-61.4 45-59.2 82.2L131.2 286c-16.6-33.3-54.88-51.5-92.27-41.5-10.99 2.9-20.83 8-29.185 14.7l-1.722-6.4z"/></svg>