<svg xmlns="http://www.w3.org/2000/svg" viewBox="0 0 640 512"><!--! Font Awesome Pro 6.1.1 by @fontawesome - https://fontawesome.com License - https://fontawesome.com/license (Commercial License) Copyright 2022 Fonticons, Inc.--><path d="M352 48H128c-8.8 0-16 7.16-16 16v32h128c8.8 0 16 7.2 16 16s-7.2 16-16 16H16c-8.836 0-16-7.2-16-16s7.164-16 16-16h48V64c0-35.35 28.65-64 64-64h224c35.3 0 64 28.65 64 64v32h42.7c14.9 0 29.1 5.9 39.6 16.4l93.3 93.3c10.5 10.5 16.4 24.7 16.4 39.6V368h8c13.3 0 24 10.7 24 24s-10.7 24-24 24h-40c0 53-43 96-96 96-53.9 0-96-43-96-96H256c0 53-43 96-96 96-53.9 0-96-43-96-96V288h48v44.8c14.1-8.1 30.5-12.8 48-12.8 35.5 0 66.6 19.3 83.2 48H352c8.8 0 16-7.2 16-16V64c0-8.84-7.2-16-16-16zm112.4 98.3c-1.5-1.5-3.5-2.3-5.7-2.3H416v96h142l-.2-.2-.1-.2-93.3-93.3zM160 368c-26.5 0-48 21.5-48 48s21.5 48 48 48 48-21.5 48-48-21.5-48-48-48zm320 96c26.5 0 48-21.5 48-48s-21.5-48-48-48-48 21.5-48 48 21.5 48 48 48zM272 160c8.8 0 16 7.2 16 16s-7.2 16-16 16H48c-8.84 0-16-7.2-16-16s7.16-16 16-16h224zm-32 64c8.8 0 16 7.2 16 16s-7.2 16-16 16H16c-8.836 0-16-7.2-16-16s7.164-16 16-16h224z"/></svg>