<svg xmlns="http://www.w3.org/2000/svg" viewBox="0 0 640 512"><!--! Font Awesome Pro 6.1.1 by @fontawesome - https://fontawesome.com License - https://fontawesome.com/license (Commercial License) Copyright 2022 Fonticons, Inc.--><path d="M208 480c-26.2 0-49.4-12.6-64-32-14.6 19.4-37.8 32-64 32-44.18 0-80-35.8-80-80V104c0-39.76 32.24-72 72-72h336c39.8 0 72 32.24 72 72v40h48.8c16.8 0 32.7 7.5 43.4 20.5l57.9 71.9c6.7 7.1 9.9 16.1 9.9 25.3V368c0 17.7-14.3 32-32 32 0 44.2-35.8 80-80 80s-80-35.8-80-80H288c0 44.2-35.8 80-80 80zM48 104v222.7c9.8-4.3 20.62-6.7 32-6.7 26.2 0 49.4 12.6 64 31.1 14.6-18.5 37.8-31.1 64-31.1 26.2 0 49.4 12.6 64 32h160V104c0-13.25-10.7-24-24-24H72c-13.25 0-24 10.75-24 24zm480.8 88H480v64h104.1L535 194.9a8.14 8.14 0 0 0-6.2-2.9zm-.8 240c17.7 0 32-14.3 32-32s-14.3-32-32-32-32 14.3-32 32 14.3 32 32 32zm-320-64c-17.7 0-32 14.3-32 32s14.3 32 32 32 32-14.3 32-32-14.3-32-32-32zM80 432c17.67 0 32-14.3 32-32s-14.33-32-32-32-32 14.3-32 32 14.33 32 32 32z"/></svg>