<svg xmlns="http://www.w3.org/2000/svg" viewBox="0 0 512 512"><!--! Font Awesome Pro 6.1.1 by @fontawesome - https://fontawesome.com License - https://fontawesome.com/license (Commercial License) Copyright 2022 Fonticons, Inc.--><path d="M160 320c0 17.7-14.3 32-32 32s-32-14.3-32-32 14.3-32 32-32 32 14.3 32 32zm192 0c0-17.7 14.3-32 32-32s32 14.3 32 32-14.3 32-32 32-32-14.3-32-32zM0 80C0 35.82 35.82 0 80 0h352c44.2 0 80 35.82 80 80v288c0 26.2-12.6 49.4-32 64v56c0 13.3-10.7 24-24 24s-24-10.7-24-24v-40H80v40c0 13.3-10.75 24-24 24s-24-10.7-24-24v-56c-19.43-14.6-32-37.8-32-64V80zm48 0v151.1c4.23-2.3 8.67-5.2 13.3-7.8l40-85.7c11.9-25.4 37.3-41.6 65.3-41.6h178.8c28 0 53.4 16.2 65.3 41.6l40 85.7c4.6 2.6 9.1 5.5 13.3 7.8V80c0-17.67-14.3-32-32-32H79.1c-16.77 0-32 14.33-32 32h.9zm0 248v40c0 17.7 14.33 32 32 32h352c17.7 0 32-14.3 32-32v-40c0-39.8-32.2-72-72-72H120c-39.76 0-72 32.2-72 72zm73.4-120h269.2l-23.4-50.1c-4-8.5-12.4-13.9-21.8-13.9H166.6c-9.4 0-17.8 5.4-21.8 13.9L121.4 208z"/></svg>