<svg xmlns="http://www.w3.org/2000/svg" viewBox="0 0 640 512"><!--! Font Awesome Pro 6.1.1 by @fontawesome - https://fontawesome.com License - https://fontawesome.com/license (Commercial License) Copyright 2022 Fonticons, Inc.--><path d="M412.6 53.62 507.7 176H552c30.9 0 56 25.1 56 56v88h8c13.3 0 24 10.7 24 24s-10.7 24-24 24h-57.3c.8 5.2 1.3 10.5 1.3 16 0 53-43 96-96 96-53.9 0-96-43-96-96 0-5.5.5-10.8 1.3-16h-98.6c.8 5.2 1.3 10.5 1.3 16 0 53-43 96-96 96-53.9 0-96-43-96-96 0-5.5.45-10.8 1.33-16H24c-13.25 0-24-10.7-24-24s10.75-24 24-24h8v-88c0-30.9 25.07-56 56-56h136V88c0-30.93 25.1-56 56-56h88.3c17.3 0 33.6 7.98 44.3 21.62zM272 176h174.9l-72.2-92.91c-1.6-1.95-3.9-3.09-6.4-3.09h-89.2c-3.5 0-8 3.58-8 8l.9 88zM104.4 320c17.6-19.6 43.2-32 71.6-32 28.4 0 53.1 12.4 71.6 32h144.8c17.6-19.6 43.2-32 71.6-32 28.4 0 53.1 12.4 71.6 32H560v-88c0-4.4-3.6-8-8-8H88c-4.42 0-8 3.6-8 8v88h24.4zm71.6 16c-26.5 0-48 21.5-48 48s21.5 48 48 48 48-21.5 48-48-21.5-48-48-48zm288 96c26.5 0 48-21.5 48-48s-21.5-48-48-48-48 21.5-48 48 21.5 48 48 48z"/></svg>