<svg xmlns="http://www.w3.org/2000/svg" viewBox="0 0 640 512"><!--! Font Awesome Pro 6.1.1 by @fontawesome - https://fontawesome.com License - https://fontawesome.com/license (Commercial License) Copyright 2022 Fonticons, Inc.--><path d="M608 48c-10.75 0-20.75 5.25-26.62 14.25-.5.625-45.13 66.37-112.6 101.1-14.5 7.625-32 11.75-50.38 11.75H400v-8c0-13.26-10.75-23.1-24-23.1s-24 10.7-24 23.1v7.1h-40v-7.1c0-13.26-10.75-23.1-24-23.1s-24 10.7-24 23.1v7.1h-40v-7.1c0-13.26-10.75-23.1-24-23.1s-24 10.7-24 23.1v7.1H48v-7.1c0-13.26-10.75-23.1-24-23.1S0 154.7 0 167.1v143.1c0 13.25 10.75 23.1 24 23.1s24-8.1 24-22.2v-8h32.63c-20.63 32-22.13 73.5-3.88 106 18.13 34.3 52.35 55 91.25 54h240c30.62.625 60-12.62 79.75-36.12 19.88-23.37 28.12-54.37 22.5-84.62 43.63 34.37 70.75 73.1 71.13 74.5 5.92 9.74 15.92 14.24 26.62 14.24 10.25 0 32-7.75 32-31.1V79.1c0-9.23-7.7-31.1-32-31.1zM176 415.1l-7.994.01c-30.88 0-56.01-25.13-56.01-56.01s25.12-55.1 56-55.1H176v111.1zm88 0h-40v-112h40v112zm88 0h-40v-112h40v112zm56 0h-8v-112h8c30.88 0 56 25.12 56 55.1s-25.1 56.9-56 56.9zm184-60.6c-22.75-25.37-57.63-58.37-100.8-81.12-21.5-11.37-46.67-17.37-72.8-17.37L48 256v-32.9l370.5.008c26.12 0 51.3-6.008 72.8-17.38C534.8 183.6 569.5 150.9 592 125.6v228.9z"/></svg>