<svg xmlns="http://www.w3.org/2000/svg" viewBox="0 0 640 512"><!--! Font Awesome Pro 6.1.1 by @fontawesome - https://fontawesome.com License - https://fontawesome.com/license (Commercial License) Copyright 2022 Fonticons, Inc.--><path d="m480.3 320.3-98.2-42.08c-21.4-9.279-46.64-3.107-61.2 14.95l-27.44 33.5C248.7 300.9 211.2 263.4 185.4 218.6l33.55-27.48c17.95-14.62 24.15-39.72 14.15-61.02l-41.4-98.57c-10.1-23.2-35.3-35.856-59.8-30.184L40.61 22.41C16.7 27.86 0 48.83 0 73.39 0 315.3 196.7 512 438.6 512c24.56 0 45.53-16.69 51-40.53l21.06-91.34c5.74-24.63-7.06-49.83-30.36-59.83zm-16.4 49-21.09 91.41c-.51 1.99-2.11 3.29-4.21 3.29C223.2 464 47.1 288.8 47.1 73.39c0-2.094 1.297-3.734 3.344-4.203L142.7 48.11c.313-.078.64-.11.953-.11 1.734 0 3.36 1.048 4.047 2.61l42.14 98.33c.76 1.76.26 3.86-1.24 5.06l-48.78 39.97c-8.62 7.03-11.32 19.13-6.42 29.13 33.01 67.23 88.26 122.5 155.5 155.5 9.998 4.906 22.09 2.281 29.15-6.344l40.02-48.88c1.109-1.406 3.186-1.938 4.92-1.125l98.26 42.09c1.95.859 3.05 2.959 2.65 4.959zM396 64h39.1c6.625 0 11.1-5.375 11.1-12V12c0-6.625-5.374-12-11.1-12H396c-6.623 0-11.1 5.375-11.1 12v40c-.9 6.63 4.5 12 11.1 12zm-96 0h39.1c6.623 0 11.1-5.375 11.1-12V12c0-6.625-5.376-12-11.1-12H300c-6.625 0-11.1 5.375-11.1 12v40c-.9 6.63 4.5 12 11.1 12zm0 96h39.1c6.623 0 11.1-5.375 11.1-12v-40c0-6.625-5.375-12-11.1-12H300c-6.625 0-11.1 5.375-11.1 12v40c-.8 6.6 4.5 12 11.1 12zM532 0h-39.1c-6.625 0-11.1 5.375-11.1 12v40c0 6.625 5.374 12 11.1 12H532c6.623 0 11.1-5.375 11.1-12V12c.9-6.625-4.5-12-11.1-12zm96 0h-40c-6.625 0-11.1 5.375-11.1 12v40c0 6.625 5.374 12 11.1 12h39.1c7.5 0 12.9-5.37 12.9-12V12c0-6.625-5.4-12-12-12zm-96 96H396.9c-6.623 0-11.1 5.375-11.1 12v40c0 6.625 5.375 12 11.1 12H532c6.625 0 11.1-5.375 11.1-12v-40c.9-6.6-4.5-12-11.1-12zm96 0h-39.1c-6.625 0-11.1 5.375-11.1 12v40c0 6.625 5.373 12 11.1 12H628c6.6 0 12-5.4 12-12v-40c0-6.6-5.4-12-12-12z"/></svg>