<svg xmlns="http://www.w3.org/2000/svg" viewBox="0 0 512 512"><!--! Font Awesome Pro 6.1.1 by @fontawesome - https://fontawesome.com License - https://fontawesome.com/license (Commercial License) Copyright 2022 Fonticons, Inc.--><path d="M371.1 416h-232c-6.623 0-11.1 5.375-11.1 12v40c0 6.625 5.375 12 11.1 12h231.1c6.625 0 11.1-5.375 11.1-12v-40c2.6-6.6-2.7-12-10.2-12zm-232-32h39.1c6.625 0 11.1-5.375 11.1-12v-40c0-6.625-5.38-12-12-12h-39.1c-6.623 0-11.99 5.375-11.99 12v40c.89 6.6 7.19 12 12.89 12zm-55.13-64h-40c-6.625 0-11.98 5.375-11.98 12v40c0 6.625 5.373 12 11.1 12h39.1c6.623 0 11.1-5.375 11.1-12v-40c2.69-6.6-2.7-12-9.32-12zm.01 96H43.99c-6.625 0-11.1 5.375-11.1 12v40c0 6.625 5.373 12 11.1 12h39.1c6.623 0 11.1-5.375 11.1-12v-40c1.79-6.6-3.58-12-10.21-12zm191.12-32c6.623 0 11.1-5.375 11.1-12v-40c0-6.625-5.375-12-11.1-12H236c-6.625 0-11.1 5.375-11.1 12v40c0 6.625 5.373 12 11.1 12h39.1zm192-64H428c-6.625 0-12.01 5.375-12.01 12v40c0 6.625 5.373 12 11.1 12h39.1c6.623 0 11.1-5.375 11.1-12v-40c2.61-6.6-2.69-12-10.19-12zm.8 96h-40c-6.625 0-11.1 5.375-11.1 12v40c0 6.625 5.373 12 11.1 12H467c6.623 0 11.1-5.375 11.1-12v-40c1.8-6.6-3.5-12-10.2-12zm-96.8-96H332c-6.623 0-12 5.375-12 12v40c0 6.625 5.375 12 11.1 12h39.1c6.625 0 11.1-5.375 11.1-12v-40c2.6-6.6-2.7-12-10.2-12zm127.4-187.5C433.9 67.72 347.7 32 256 32S78.15 67.69 13.47 132.5C-1.7 147.69-4.34 171 7.017 189.16l38.2 61.22c11.67 18.78 35.15 26.5 55.92 18.34l76.52-30.66c18.76-7.562 30.45-26.94 28.44-47.06l-2.897-28.6c34.56-8.594 71.02-8.594 105.6 0l-2.828 28.38c-2.188 20.31 9.561 39.78 28.5 47.31l76.46 30.66a46.038 46.038 0 0 0 16.94 3.25c15.42 0 30.28-7.812 38.84-21.56l38.21-61.25C516.3 171 513.7 147.7 498.5 132.5zm-69.7 91.7-75.02-28.44 4.812-48.34c1.109-11.09-5.562-21.47-16.11-25.09-55.74-19.06-117.1-19.06-172.8 0-10.55 3.625-17.22 14-16.11 25.09l6.217 46.16L85.94 225l-38.51-58.6C103.1 110.7 177.1 80 256 80c78.32 0 151.9 30.25 207.4 85.25l-34.6 58.95z"/></svg>