<svg xmlns="http://www.w3.org/2000/svg" viewBox="0 0 384 512"><!--! Font Awesome Pro 6.1.1 by @fontawesome - https://fontawesome.com License - https://fontawesome.com/license (Commercial License) Copyright 2022 Fonticons, Inc.--><path d="M360 32c13.3 0 24 10.75 24 24s-10.7 24-24 24H216v113.3l98.2-24.6c12.8-3.2 25.9 4.6 29.1 17.5 3.2 12.8-4.6 25.9-17.5 29.1L216 242.7v46.6l98.2-24.6c12.8-3.2 25.9 4.6 29.1 17.5 3.2 12.8-4.6 25.9-17.5 29.1L216 338.7V456c0 13.3-10.7 24-24 24s-24-10.7-24-24V350.7l-98.18 24.6c-12.86 3.2-25.89-4.6-29.1-17.5-3.22-13.7 4.6-25.9 17.46-29.1L168 301.3v-46.6l-98.18 24.6c-12.86 3.2-25.89-4.6-29.1-17.5-3.22-13.7 4.6-25.9 17.46-29.1L168 205.3V80H24C10.75 80 0 69.25 0 56s10.75-24 24-24h336z"/></svg>