<svg xmlns="http://www.w3.org/2000/svg" viewBox="0 0 384 512"><!--! Font Awesome Pro 6.1.1 by @fontawesome - https://fontawesome.com License - https://fontawesome.com/license (Commercial License) Copyright 2022 Fonticons, Inc.--><path d="M87.1 32c14.2 0 24 10.75 24 24v56.2l138.3-39.28c12.8-3.64 26 3.74 29.7 16.49 3.6 12.79-3.8 25.99-16.5 29.69l-151.5 43v46.1l138.3-39.3c12.8-3.6 26 3.8 29.7 16.5 3.6 12.8-3.8 26-16.5 29.7l-151.5 43V432h72.7c81.3 0 147.3-63.9 151.9-145.1l.3-8c.6-13.2 11.8-23.5 25.1-22.9 13.2.6 23.5 11.8 22 25.1l.5 8C378.8 395.9 290.7 480 183.8 480H87.1c-12.36 0-24-10.7-24-24V271.8l-24.51 7.3c-12.74 3.6-26.03-3.8-29.668-16.5-3.642-12.8 3.738-26 16.478-29.7l37.7-11v-46.1l-24.51 7.3c-12.74 3.6-26.03-3.8-29.668-16.5-3.642-12.8 3.738-26 16.478-29.7l37.7-11V56c0-13.25 11.64-24 24-24z"/></svg>