<svg xmlns="http://www.w3.org/2000/svg" viewBox="0 0 640 512"><!--! Font Awesome Pro 6.1.1 by @fontawesome - https://fontawesome.com License - https://fontawesome.com/license (Commercial License) Copyright 2022 Fonticons, Inc.--><path d="M497.4 242.5c-4.795 7.451-9.084 15.05-12.86 22.38C511.8 305 528 348.5 528 384c0 50.63-39.25 80-240 80-.002 0 .002 0 0 0-200.7 0-240-29.38-240-80 0-89.81 103.4-230.7 228.3-239.2 15.42-4.74 28.58-6.27 41.32-7.611 17.66-1.859 35.92-3.781 66.97-16.2 1.266-.506 2.35-1.094 3.588-1.615-31.24-14.51-64.88-23.39-100.2-23.39-.002 0 .002 0 0 0C129 95.99 0 269.1 0 383.1S129 512 288 512c.002 0-.002 0 0 0 158.1 0 288-13.13 288-128 0-49.29-23.89-109.2-63.56-161.7-4.94 5.8-9.94 12.4-15.04 20.2zM567 79.17c22.36-35.88-4.801-80.21-47.22-79.15C485.17.852 460 34 469.67 66.95c4.186 14.03 1.635 27.03-7.676 39.75-11.92 16.24-35.21 31.87-65.59 44.02-66.18 26.47-83.76 11.11-127.2 30.85-79.51 35.62-84.45 131.8-34.34 182.5 61.28 62.72 176.6 39.49 199.2-58.72 2.746-11.95 15.26-47.25 36.42-80.14 10.94-17.01 22.29-30.44 33.75-39.9 13.58-11.22 32.77-21.38 54.5-11.94 33.53 14.06 77.12 4.482 81.04-41.23C643.1 92.95 603.4 64.79 567 79.17z"/></svg>