<svg xmlns="http://www.w3.org/2000/svg" viewBox="0 0 576 512"><!--! Font Awesome Pro 6.1.1 by @fontawesome - https://fontawesome.com License - https://fontawesome.com/license (Commercial License) Copyright 2022 Fonticons, Inc.--><path d="M512 32H64C28.63 32 0 60.63 0 96v320c0 35.38 28.62 64 64 64h448c35.38 0 64-28.62 64-64V96c0-35.37-28.6-64-64-64zm16 384c0 8.822-7.178 16-16 16H64c-8.822 0-16-7.178-16-16V96c0-8.822 7.178-16 16-16h448c8.822 0 16 7.178 16 16v320zM224 112c-79.5 0-144 64.5-144 144s64.46 144 144 144 144-64.46 144-144-64.5-144-144-144zm0 176c-17.6 0-32-14.4-32-32s14.38-32 32-32 32 14.38 32 32-14.4 32-32 32zm248-176c-13.2 0-24 10.8-24 24v143.8a8.05 8.05 0 0 1-.969 3.828l-44.09 80.84c-6.359 11.62-2.062 26.2 9.578 32.55C416.2 399.1 420.1 400 423.1 400c8.5 0 16.73-4.516 21.08-12.52l44.09-80.81c5.33-8.17 7.73-17.47 7.73-26.87V136c0-13.2-10.7-24-24-24z"/></svg>