<svg xmlns="http://www.w3.org/2000/svg" viewBox="0 0 640 512"><!--! Font Awesome Pro 6.1.1 by @fontawesome - https://fontawesome.com License - https://fontawesome.com/license (Commercial License) Copyright 2022 Fonticons, Inc.--><path d="M520 464H120c-13.3 0-24 10.7-24 24s10.7 24 24 24h400c13.25 0 24-10.75 24-24 0-13.3-10.7-24-24-24zM576 0H64C28.65 0 0 28.65 0 64v288c0 35.35 28.65 64 64 64h512c35.35 0 64-28.65 64-64V64c0-35.35-28.7-64-64-64zm16 352c0 8.822-7.178 16-16 16H64c-8.822 0-16-7.178-16-16V64c0-8.822 7.178-16 16-16h512c8.822 0 16 7.178 16 16v288zM395.3 96.75 267.3 144c-6.8 2.1-11.3 8.3-11.3 15.3v98.75c-5.2-1.25-10.6-2.05-16-2.05-26.5 0-48 14.4-48 32s21.5 32 48 32 48-14.4 48-32v-84.9l96-37.5v60.38c-5.2-1.18-10.6-1.98-16-1.98-26.5 0-48 14.4-48 32s21.5 32 48 32 48-14.4 48-32V112c0-5.125-2.375-9.875-6.5-12.88s-9.5-3.87-14.2-2.37z"/></svg>