<svg xmlns="http://www.w3.org/2000/svg" viewBox="0 0 512 512"><!--! Font Awesome Pro 6.1.1 by @fontawesome - https://fontawesome.com License - https://fontawesome.com/license (Commercial License) Copyright 2022 Fonticons, Inc.--><path d="M432 96H322l55.03-55.03c9.375-9.375 9.375-24.56 0-33.94s-24.56-9.375-33.94 0l-87.05 86.95L169 7.031c-9.375-9.375-24.56-9.375-33.94 0s-9.375 24.56 0 33.94L190.1 96H80c-44.18 0-80 35.8-80 80v256c0 44.2 35.82 80 80 80h352c44.18 0 80-35.82 80-80V176c0-44.2-35.8-80-80-80zm32 344c0 13.25-10.75 24-24 24H72c-13.25 0-24-10.75-24-24V168c0-13.25 10.75-24 24-24h368c13.25 0 24 10.75 24 24v272zm-48-240c-13.25 0-24 10.74-24 24 0 13.25 10.75 24 24 24s24-10.7 24-24-10.7-24-24-24zm-115.2-8H147.2c-28.3 0-51.2 22.3-51.2 49.8v124.4c0 27.5 22.9 49.8 51.2 49.8h153.6c28.3 0 51.2-22.3 51.2-49.8V241.8c0-27.5-22.9-49.8-51.2-49.8zM416 280c-13.25 0-24 10.74-24 24 0 13.25 10.75 24 24 24s24-10.75 24-24c0-13.3-10.7-24-24-24z"/></svg>