<svg xmlns="http://www.w3.org/2000/svg" viewBox="0 0 640 512"><!--! Font Awesome Pro 6.1.1 by @fontawesome - https://fontawesome.com License - https://fontawesome.com/license (Commercial License) Copyright 2022 Fonticons, Inc.--><path d="M520 464H120c-13.3 0-24 10.7-24 24s10.7 24 24 24h400c13.25 0 24-10.75 24-24 0-13.3-10.7-24-24-24zM576 0H64C28.65 0 0 28.65 0 64v288c0 35.35 28.65 64 64 64h512c35.35 0 64-28.65 64-64V64c0-35.35-28.7-64-64-64zm16 352c0 8.822-7.178 16-16 16H64c-8.822 0-16-7.178-16-16V64c0-8.822 7.178-16 16-16h512c8.822 0 16 7.178 16 16v288z"/></svg>