<svg xmlns="http://www.w3.org/2000/svg" viewBox="0 0 512 512"><!--! Font Awesome Pro 6.1.1 by @fontawesome - https://fontawesome.com License - https://fontawesome.com/license (Commercial License) Copyright 2022 Fonticons, Inc.--><path d="M356 356h16c6.6 0 12-5.4 12-12v-16c0-6.6-5.4-12-12-12h-16c-6.6 0-12 5.4-12 12v16c0 6.6 5.4 12 12 12zm-144 0h16c6.6 0 12-5.4 12-12v-16c0-6.6-5.4-12-12-12h-16c-6.6 0-12 5.4-12 12v16c0 6.6 5.4 12 12 12zm72 0h16c6.6 0 12-5.4 12-12v-16c0-6.6-5.4-12-12-12h-16c-6.6 0-12 5.4-12 12v16c0 6.6 5.4 12 12 12zm-144 0h16c6.6 0 12-5.4 12-12v-16c0-6.6-5.4-12-12-12h-16c-6.6 0-12 5.4-12 12v16c0 6.6 5.4 12 12 12zm4 76h224c8.875 0 16-7.125 16-16v-16c0-8.875-7.125-16-16-16H144c-8.9 0-16 7.1-16 16v16c0 8.9 7.1 16 16 16zm336-240H365.2c-8.5 0-16.62 3.375-22.62 9.375l-13.25 13.25A31.74 31.74 0 0 1 306.8 224H205.3c-8.5 0-16.62-3.375-22.62-9.375L169.4 201.4c-6-6-14.1-9.4-22.6-9.4H32c-17.62 0-32 14.4-32 32v32c0 17.62 14.38 32 32 32v160c0 35.38 28.62 64 64 64h320c35.38 0 64-28.62 64-64V288c17.62 0 32-14.38 32-32v-32c0-17.6-14.4-32-32-32zm-48 256c0 8.875-7.125 16-16 16H96c-8.875 0-16-7.125-16-16V288h352v160zM127.1 48h222.1L384 81.94V160h48V81.94A47.99 47.99 0 0 0 417.94 48L384 14.06A47.95 47.95 0 0 0 350.1 0h-223C101.5 0 80.01 21.48 80 47.98l.004 82.28C80 130.3 80 160 80 160h48.01l-.91-112z"/></svg>