<svg xmlns="http://www.w3.org/2000/svg" viewBox="0 0 576 512"><!--! Font Awesome Pro 6.1.1 by @fontawesome - https://fontawesome.com License - https://fontawesome.com/license (Commercial License) Copyright 2022 Fonticons, Inc.--><path d="M48.99 126.9c23.95-14.8 55.61-26.6 91.71-35.19C165.7 36.33 224.3 0 288 0c63.7 0 122.3 36.33 147.3 91.71 36.1 8.59 67.8 20.39 91.7 35.19 26.1 16.2 49 39.7 49 71 0 22.9-12.6 41.9-28.9 56.2-16.3 14.4-38.6 26.2-64.1 35.7-51.9 18.9-120.9 29.3-195.9 29.3-74.1 0-143.1-10.4-194.14-29.3-25.45-9.5-47.72-21.3-64.06-35.7C12.6 239.8 0 220.8 0 197.9c0-31.3 22.92-54.8 48.99-71zm103.51 36.4-16.9 17.1c-4-4-6.5-9.3-7-14.9-1.5-7-.8-14-.5-20.7-22 6.7-40.22 14.5-53.87 23-21.68 13.4-27.13 24.4-27.13 30.1 0 4.1 3.07 11 13.49 20.1 10.38 9.2 26.77 18.5 49.11 26.8 44.5 16.5 107.5 27.2 177.4 27.2 71.7 0 134.7-10.7 179.2-27.2 22.3-8.3 38.7-17.6 49.1-26.8 10.4-9.1 12.6-16 12.6-20.1 0-5.7-4.5-16.7-26.2-30.1-13.7-8.5-31.9-16.3-53.9-23 .3 6.7.1 13.7-.5 20.7-.5 5.6-3 10.9-7 14.9l-16.9-17.1 16.9 17.1h-.1v.1l-.1.1-.3.2-.7.7c-.6-.4-1.3 1.1-2.1 1.8-1.8 1.5-4.2 3.4-7.4 5.5-6.2 4.4-15.3 9.7-27.6 15-24.7 10.4-61.8 19.3-114.1 19.3s-89.4-8.9-114.1-19.3c-12.3-5.3-21.4-10.6-27.6-15-3.2-2.1-5.6-4-7.4-5.5-.8-.7-1.5-2.2-2.1-1.8l-.7-.7-.3-.2-.1-.1v-.1h-.1l16.9-17.1zm246.6-13.2C399.4 93.51 349.7 48 288 48c-61.7 0-111.4 45.51-112 102.1 3.8 3.3 9.3 6.3 16.7 9.5 18.4 7.8 49.1 16.4 95.3 16.4 46.2 0 76.9-8.6 95.3-16.4 7.4-3.2 12.9-6.2 15.8-9.5zM45.21 499.2c-6.2 11.7-20.72 16.2-32.44 10-11.714-6.2-16.183-20.7-9.981-32.4l72.001-136c6.2-11.7 20.72-16.2 32.41-10 11.7 5.3 16.2 20.7 10 32.4l-71.99 136zm527.99-22.4c6.2 11.7 1.7 26.2-10 32.4-11.7 6.2-27.1 1.7-32.4-10l-72-136c-6.2-11.7-1.7-27.1 10-32.4 11.7-6.2 26.2-1.7 32.4 10l72 136z"/></svg>