<svg xmlns="http://www.w3.org/2000/svg" viewBox="0 0 640 512"><!--! Font Awesome Pro 6.1.1 by @fontawesome - https://fontawesome.com License - https://fontawesome.com/license (Commercial License) Copyright 2022 Fonticons, Inc.--><path d="M152 312c0 13.3-10.7 24-24 24s-24-10.7-24-24 10.7-24 24-24 24 10.7 24 24zm192 40c0 13.3-10.7 24-24 24s-24-10.7-24-24 10.7-24 24-24 24 10.7 24 24zm144-40c0-13.3 10.7-24 24-24s24 10.7 24 24-10.7 24-24 24-24-10.7-24-24zm99.2-88.9c29.4 19.8 52.8 47.1 52.8 81.4 0 25.2-12.7 46.8-30.7 63.9-17.9 17.1-42.5 31.4-71 42.9C481.2 434.3 404 448 320 448c-84.9 0-161.2-13.7-218.3-36.7-28.46-11.5-53.1-25.8-71.01-42.9C12.72 351.3 0 329.7 0 304.5c0-34.3 23.36-61.6 52.8-81.4 27.77-18.6 65.1-33.5 107.8-44C183.2 110.9 247.4 64 320 64c72.6 0 136.8 46.9 159.4 115.1 42.7 10.5 80 25.4 107.8 44zm-410.6 23.2-17.5 16.5c-3.7-4-6-9.1-6.5-14.4-.4-5.9-.7-11.6-.6-17.3-30.9 8.9-54.59 19-72.46 31C55.43 279.1 48 293.9 48 304.5c0 7.9 3.84 17.7 15.83 29.2 12.05 11.5 30.75 22.9 55.87 33.1 50 19.3 120.9 33.2 200.3 33.2s150.3-13.9 200.3-33.2c25.1-10.2 43.8-21.6 55.9-33.1 12-11.5 15.8-21.3 15.8-29.2 0-10.6-7.4-25.4-31.5-42.4-17.9-12-42.5-22.1-73.4-31 1 5.7.7 11.4.3 17.3-.5 5.3-2.8 10.4-6.5 14.4l-17.5-16.5c17.5 16.5 17.5 16.4 17.5 16.5l-.1.1-.1-.8-.2 1.1c-.2.2-.5.5-.7-.1-.6 1.4-1.3 2.1-2.2 2.9-1.9 1.6-4.4 3.7-7.7 6.2-6.5 4.8-16.1 10.9-29.1 15.9-26.1 12.8-65.3 23-120.8 23s-94.7-10.2-120.8-23c-13-5-22.6-11.1-29.1-15.9-3.3-2.5-5.8-4.6-7.7-6.2-.9-.8-1.6-1.5-2.2-2.9-1.1.6-.5.3-.7.1l-.2-1.1-.1.8-.1-.1c0-.1 0 0 17.5-16.5zm262.5-11.7c1.7-69.9-55-122.6-119.1-122.6-65 0-120.8 52.7-120 122.6 4.1 2.9 10.4 6.8 19.1 10.7 19.6 9 52 18.7 100.9 18.7 48.9 0 81.3-9.7 100.9-18.7 8.7-3.9 15-7.8 18.2-10.7z"/></svg>