<svg xmlns="http://www.w3.org/2000/svg" viewBox="0 0 640 512"><!--! Font Awesome Pro 6.1.1 by @fontawesome - https://fontawesome.com License - https://fontawesome.com/license (Commercial License) Copyright 2022 Fonticons, Inc.--><path d="M443.5 17.94C409.8 5.608 375.3 0 341.4 0c-91.3 0-176.8 41.44-234.3 112.1-6.752 8.349-2.752 21.07 7.375 24.68C303.1 203.8 447.4 258.3 618.4 319.1c1.75.623 3.623.997 5.5.997 8.25 0 15.88-6.355 16-15.08C643 180.7 567.2 62.8 443.5 17.94zM177.1 108.4c42.88-36.51 97.76-58.07 154.5-60.19-4.5 3.738-36.88 28.41-70.25 90.72L177.1 108.4zm275.5 99.7-145.2-52.7c14.25-25.17 30.63-47.23 48.13-63.8 25.38-23.93 50.13-34.02 67.51-27.66 17.5 6.355 29.75 29.78 33.75 64.42 2.81 24.04 1.11 51.24-4.19 79.74zm45.2 16.3c7.375-34.89 12.13-76.76 4.125-117.9 45.75 38.13 77.13 91.34 86.88 150.9l-91.005-33zM576 488.1c0 13.2-10.7 23.9-24 23.9l-528.01-1.6c-13.25 0-24-10.72-24-23.93 0-13.21 10.75-23.93 24-23.93l228 .69 78.35-214.8 45.06 16.5-72.38 198.4 248.1.75C565.3 464.1 576 474.9 576 488.1z"/></svg>