<svg xmlns="http://www.w3.org/2000/svg" viewBox="0 0 576 512"><!--! Font Awesome Pro 6.1.1 by @fontawesome - https://fontawesome.com License - https://fontawesome.com/license (Commercial License) Copyright 2022 Fonticons, Inc.--><path d="M287.1 300.9c-6.088 0-12.11 1.76-24 17.8V440c0 13.22-10.78 24-24 24s-24-10.78-24-24c0-13.25-10.75-24-23.1-24-13.25 0-24 10.75-24 24 0 39.69 32.32 72 72 72s72-32.31 72-72V318.1c-8.5-11-16.7-17.2-24.9-17.2zm288-40.6c-22.97-100-100.2-176.1-206.7-203.5-17.01-4.379-35.38-7.01-56.44-8.117V24c0-13.26-10.75-23.1-24-23.1S263.1 10.74 263.1 24v24.63c-21 1.1-38.5 3.73-55.5 8.09C101.6 83.97 24.33 160.1.923 260.1c-3.469 14.5 3.062 30 15.907 37.7 12.81 7.6 28.78 5.9 41.25-5.3 18.25-17.66 35.63-25.69 50.69-23.72 18.69 2.281 38.63 19.66 57.53 50.03 6.6 10.79 17.6 17.19 29.4 17.19 11.94 0 23-6.438 29.5-17.03 20.25-32.47 36.25-50.06 62.75-50.06 30.97 0 51.63 29.62 62.63 49.84C357.2 329.5 368.2 335.1 380.2 336c11.88 0 22.91-6.438 29.41-17.03 18.94-30.41 38.88-47.69 57.63-50 15.38-2.062 32.53 6 51.44 24.22 11.78 10.53 27.72 12.31 40.53 4.625C571.1 290.1 578.5 274.7 575.1 260.3zm-113.8-39c-29.22 3.625-56.22 21.94-80.53 54.66-24.47-35.66-56.88-55.06-92.82-55.06-46.63 0-74.82 30.38-92.38 55.59-24.37-33.19-52.47-51.69-80.97-55.39-3.5-.4-7.1-.6-11.5-.6-14.41 0-28.75 3.625-42.78 10.72 28.16-62.53 84.91-109.1 158.3-127.1C238.7 98.28 260.4 96 287.1 96c27.56 0 49.31 2.312 68.5 7.25 73.91 19.03 130.8 65.69 158.7 128.2-16.9-8.95-34.8-12.35-53-10.15z"/></svg>