<svg xmlns="http://www.w3.org/2000/svg" viewBox="0 0 640 512"><!--! Font Awesome Pro 6.1.1 by @fontawesome - https://fontawesome.com License - https://fontawesome.com/license (Commercial License) Copyright 2022 Fonticons, Inc.--><path d="M632 64H526.6l-15.25-18.62c16.36-5.121 28.97-18.63 32.48-35.73 1.022-4.977-2.857-9.643-7.938-9.643L400 0c-68.5 0-125.9 48-140.5 112H176c-38.13 0-71.75 19.25-92 48.38C37.38 162.5 0 200.9 0 248v48c0 13.3 10.75 24 24 24s24-10.75 24-23.1V248c0-13.25 6.875-24.38 16.75-31.62-.125 2.5-.751 5.002-.751 7.627 0 30.12 11.88 58.12 32.13 78.62l-12.88 43.75a77.76 77.76 0 0 0-1.125 40.75l24.13 100.4C109.8 501.9 122.6 512 137.4 512h74.7c20.85 0 36.13-19.62 31.01-39.84l-25.51-100.8 8.5-23.75 29.88 8.625V480c0 17.6 14.4 32 32 32h80c17.6 0 32-14.4 32-32V324.4C420.6 301.2 432 271.5 432 240v-5.6c21 7 38.38.75 40.88-.125l31.05-10.6c23.97-8.181 40.08-30.7 40.08-56.03v-52.25l92.38-36.75C643 74.25 639.9 64 632 64zM488.5 178.2l-31 10.5c-1.625.5-9.75 3-16.5-3.75L416 160h-32v80c0 26.12-12.63 49-32 63.63V464h-48V320l-107.9-30.9-28.6 79.9 24 95H150l-21.13-87.88c-1.27-5.32-1.07-10.92.43-16.12l22.75-76.75C128.5 273.8 112 250.9 112 224c0-35.38 28.63-64 64-64h128v-16c0-53 42.88-96 96-96h51.25L496 102.25v65.38c0 4.77-3 8.97-7.5 10.57zM432 80c-8.875 0-16 7.125-16 16s7.125 16 16 16 16-7.125 16-16-7.1-16-16-16z"/></svg>