<svg xmlns="http://www.w3.org/2000/svg" viewBox="0 0 640 512"><!--! Font Awesome Pro 6.1.1 by @fontawesome - https://fontawesome.com License - https://fontawesome.com/license (Commercial License) Copyright 2022 Fonticons, Inc.--><path d="M464 320H176c-8.8 0-16 7.2-16 16s7.2 16 16 16h114.1l-46.9 70.4c-1.967 2.95-3.105 6.244-3.105 9.652C240.1 444.6 251.6 448 256 448c5.156 0 10.22-2.5 13.31-7.125L320 364.8l50.69 76.03C373.8 445.5 378.8 448 384 448c4.379 0 15.94-3.497 15.94-15.94 0-3.408-1.138-6.702-3.105-9.652L349.9 352H464c8.836 0 16-7.164 16-16 0-8.8-7.2-16-16-16zm-32 136c0 4.406-3.594 8-8 8H216c-4.406 0-8-3.594-8-8v-72h-48v72c0 30.9 25.1 56 56 56h208c30.88 0 56-25.12 56-56v-72h-48v72zm190.7-274.1L551.67 55.1C532.6 21.09 496.6 0 457.7 0H400c-9 0-17.22 5.031-21.34 13.03L323.1 119.4 260.7 11.83C256.4 4.5 248.5 0 240 0h-57.7c-38.9 0-74.9 21.09-93.92 55.05L17.34 181.9C5.1 202.1 0 225.1 0 248.3V392c0 30.9 25.12 56 56 56h32c30.88 0 56-25.12 56-56V267.8l16-25.2V288h48V160c0-7.719-6.009-24-24-24-8.062 0-15.78 4.078-20.25 11.14l-64 100.8A23.93 23.93 0 0 0 96 260.8V392c0 4.406-3.594 8-8 8H56c-4.406 0-8-3.594-8-8V248.3c0-15.03 3.875-29.89 11.22-42.98l71.03-126.8C140.8 59.69 160.8 48 182.3 48h43.97l71.69 121.9L237.2 288h53.97l123.4-240h43.03c21.56 0 41.5 11.69 52.06 30.52l71.03 126.8C588.1 218.4 592 233.3 592 248.3V392c0 4.406-3.594 8-8 8h-32c-4.406 0-8-3.594-8-8V260.1a23.97 23.97 0 0 0-3.781-12.92l-64-100.1c-4.5-7.031-12.23-11.07-20.25-11.07C438 136 432 152 432 160v128h48v-45.9l16 25.03V392c0 30.88 25.12 56 56 56h32c30.88 0 56-25.12 56-56V248.3c0-23.2-6.9-46.2-17.3-66.4z"/></svg>