<svg xmlns="http://www.w3.org/2000/svg" viewBox="0 0 512 512"><!--! Font Awesome Pro 6.1.1 by @fontawesome - https://fontawesome.com License - https://fontawesome.com/license (Commercial License) Copyright 2022 Fonticons, Inc.--><path d="M256 176c22.09 0 40-17.91 40-40s-17.9-40-40-40-40 17.9-40 40 17.9 40 40 40zm105.4.9-59.25 16.94a167.931 167.931 0 0 1-92.31 0L150.6 176.9c-12.7-3.7-26 3.8-29.7 16.5s3.734 26.03 16.48 29.66l59.25 16.97c3.77 1.07 7.57 1.57 11.37 2.37v46.29l-30.64 87.34c-4.391 12.5 2.188 26.19 14.69 30.59 2.65.98 5.35 1.38 7.95 1.38 9.906 0 19.19-6.188 22.64-16.06l25.85-70.65c2.562-7.002 12.46-7.002 15.03 0l25.85 70.65C292.8 401.8 302.1 408 312 408c2.641 0 5.312-.438 7.953-1.344 12.5-4.406 19.08-18.09 14.69-30.59L304 288.7v-46.3c3.8-.8 7.6-1.3 11.3-2.4l59.25-16.94c12.75-3.625 20.12-16.91 16.48-29.66-3.63-12.7-16.93-20.2-29.63-16.5zM256 0C114.6 0 0 114.6 0 256s114.6 256 256 256 256-114.6 256-256S397.4 0 256 0zm0 464c-114.7 0-208-93.31-208-208S141.3 48 256 48s208 93.31 208 208-93.3 208-208 208z"/></svg>