<svg xmlns="http://www.w3.org/2000/svg" viewBox="0 0 448 512"><!--! Font Awesome Pro 6.1.1 by @fontawesome - https://fontawesome.com License - https://fontawesome.com/license (Commercial License) Copyright 2022 Fonticons, Inc.--><path d="M192 376c-13.3 0-24-10.7-24-24s10.7-24 24-24h64c13.3 0 24 10.7 24 24s-10.7 24-24 24h-64zm32-328c-44.2 0-80 35.82-80 80v64h240c35.3 0 64 28.7 64 64v192c0 35.3-28.7 64-64 64H64c-35.35 0-64-28.7-64-64V256c0-35.3 28.65-64 64-64h32v-64C96 57.31 153.3 0 224 0c56.1 0 105.2 37.22 121.8 88.62 4.1 12.58-3.7 26.18-15.4 30.18-12.7 4.1-26.2-3.7-30.3-15.4-10.3-32.18-40.5-55.4-77-55.4h.9zM64 240c-8.84 0-16 7.2-16 16v192c0 8.8 7.16 16 16 16h320c8.8 0 16-7.2 16-16V256c0-8.8-7.2-16-16-16H64z"/></svg>