<svg xmlns="http://www.w3.org/2000/svg" viewBox="0 0 448 512"><!--! Font Awesome Pro 6.1.1 by @fontawesome - https://fontawesome.com License - https://fontawesome.com/license (Commercial License) Copyright 2022 Fonticons, Inc.--><path d="m259.9 48.11 128 143.99c12.5 14.1 15.6 34.3 7.9 51.6C388 260.9 370.9 272 352 272h-48v56c0 30.9-25.1 56-56 56h-48.9c-30 0-56-25.1-56-56v-56h-48c-18 0-35.14-11.1-42.89-28.3-7.74-17.3-4.64-37.5 7.91-51.6L188.1 48.11c9.1-10.25 22.2-16.11 35-16.11 14.6 0 27.7 5.86 36.8 16.11zM95.1 224h96v104c0 4.4 4.5 8 8 8H248c4.4 0 8-3.6 8-8V224h96L223.1 80l-128 144zM0 448c0-17.7 14.33-32 32-32s32 14.3 32 32-14.33 32-32 32-32-14.3-32-32zm160 0c0 17.7-14.3 32-32 32s-32-14.3-32-32 14.3-32 32-32 32 14.3 32 32zm32 0c0-17.7 14.3-32 32-32s32 14.3 32 32-14.3 32-32 32-32-14.3-32-32zm160 0c0 17.7-14.3 32-32 32s-32-14.3-32-32 14.3-32 32-32 32 14.3 32 32zm32 0c0-17.7 14.3-32 32-32s32 14.3 32 32-14.3 32-32 32-32-14.3-32-32z"/></svg>