<svg xmlns="http://www.w3.org/2000/svg" viewBox="0 0 448 512"><!--! Font Awesome Pro 6.1.1 by @fontawesome - https://fontawesome.com License - https://fontawesome.com/license (Commercial License) Copyright 2022 Fonticons, Inc.--><path d="M424 320c13.3 0 24 10.7 24 24v72c0 53-43 96-96 96H96c-53.02 0-96-43-96-96v-72c0-13.3 10.74-24 24-24 13.25 0 24 10.7 24 24v72c0 26.4 21.6 48 48 48h256c26.4 0 48-21.6 48-48v-72c0-13.3 10.7-24 24-24zM224.5 0c6.9 0 13.4 2.938 17.9 8.062L375.5 160.5c5.6 6.2 7.6 14.2 7.6 22.2 0 4.7-.1 9.5-2.1 13.9-5.3 11.8-17 19.4-29.7 19.4h-56.2v120c0 22.1-17.1 40-40 40h-64c-21.2 0-40-17.9-40-40V216H96.67c-12.75 0-24.4-7.6-29.72-19.4-5.4-12.1-3.28-26.3 5.47-36.1L206.6 8.062C211.1 2.937 217.6 0 224.5 0zm0 60.16L129.1 168h70v160h48V168H318L224.5 60.16z"/></svg>