<svg xmlns="http://www.w3.org/2000/svg" viewBox="0 0 384 512"><!--! Font Awesome Pro 6.1.1 by @fontawesome - https://fontawesome.com License - https://fontawesome.com/license (Commercial License) Copyright 2022 Fonticons, Inc.--><path d="m249.4 128-70.1 70.1L336 354.8l-45.26 45.25L134.1 243.3l-70.06 70.05V128H249.4zm37.7-48h-240C29.43 80 16 94.31 16 111.1L15.1 352c0 12.94 7.797 24.62 19.75 29.56a31.53 31.53 0 0 0 12.26 2.48c8.313 0 16.48-3.281 22.61-9.418l63.43-63.43 122.7 122.7C266.2 443.3 278.5 448 290.7 448c12.28 0 24.57-4.688 33.94-14.06l45.25-45.25c18.75-18.75 18.74-49.14 0-67.88L247.2 198.1l63.43-63.43a32.003 32.003 0 0 0 6.938-34.88C312.6 87.78 300.9 80 287.1 80z"/></svg>