<svg xmlns="http://www.w3.org/2000/svg" viewBox="0 0 384 512"><!--! Font Awesome Pro 6.1.1 by @fontawesome - https://fontawesome.com License - https://fontawesome.com/license (Commercial License) Copyright 2022 Fonticons, Inc.--><path d="M320 128v185.4l-70.06-70.05L93.25 400 48 354.75l156.7-156.7L134.6 128H320zm16-48H96a31.973 31.973 0 0 0-29.56 19.75c-4.96 11.95-2.22 25.75 6.94 34.85l63.42 63.5L14.1 320.9c-18.74 18.74-18.75 49.14 0 67.88l45.25 45.25C68.69 443.3 80.97 448 93.25 448s24.57-4.684 33.94-14.06l122.7-122.7 63.43 63.43c6.127 6.137 14.3 9.418 22.61 9.418 4.131 0 8.295-.809 12.26-2.48C360.2 376.6 368 364.9 368 352V112c0-17.69-14.3-32-32-32z"/></svg>