<svg xmlns="http://www.w3.org/2000/svg" viewBox="0 0 448 512"><!--! Font Awesome Pro 6.1.1 by @fontawesome - https://fontawesome.com License - https://fontawesome.com/license (Commercial License) Copyright 2022 Fonticons, Inc.--><path d="m259.9 144.1 128 144c12.5 14.1 15.6 34.3 7.9 51.6C388 356.9 370.9 368 352 368h-48v56c0 30.9-25.1 56-56 56h-48.9c-30 0-56-25.1-56-56v-56h-48c-18 0-35.14-11.1-42.89-28.3-7.74-17.3-4.64-37.5 7.91-51.6l127.98-144c9.1-10.2 22.2-16.1 35-16.1 14.6 0 27.7 5.9 36.8 16.1zM95.1 320h96v104c0 4.4 4.5 8 8 8H248c4.4 0 8-3.6 8-8V320h96L223.1 176l-128 144zM448 64c0 17.67-14.3 32-32 32s-32-14.33-32-32 14.3-32 32-32 32 14.33 32 32zm-160 0c0-17.67 14.3-32 32-32s32 14.33 32 32-14.3 32-32 32-32-14.33-32-32zm-32 0c0 17.67-14.3 32-32 32s-32-14.33-32-32 14.3-32 32-32 32 14.33 32 32zM96 64c0-17.67 14.3-32 32-32s32 14.33 32 32-14.3 32-32 32-32-14.33-32-32zm-32 0c0 17.67-14.33 32-32 32S0 81.67 0 64s14.33-32 32-32 32 14.33 32 32z"/></svg>