<svg xmlns="http://www.w3.org/2000/svg" viewBox="0 0 640 512"><!--! Font Awesome Pro 6.1.1 by @fontawesome - https://fontawesome.com License - https://fontawesome.com/license (Commercial License) Copyright 2022 Fonticons, Inc.--><path d="M416 96H64c-35.35 0-64 28.65-64 64v192c0 35.35 28.65 64 64 64h352c17.67 0 32-14.33 32-32V128c0-17.7-14.3-32-32-32zm-16 272H64c-8.822 0-16-7.178-16-16V160c0-8.822 7.178-16 16-16h336v224zm208-240H480v256h128c17.67 0 32-14.33 32-32V160c0-17.7-14.3-32-32-32zm-24 184c0 8.875-7.125 16-16 16h-16c-8.875 0-16-7.125-16-16v-16c0-8.875 7.125-16 16-16h16c8.875 0 16 7.125 16 16v16zm0-96c0 8.875-7.125 16-16 16h-16c-8.875 0-16-7.125-16-16v-16c0-8.875 7.125-16 16-16h16c8.875 0 16 7.125 16 16v16z"/></svg>