<svg xmlns="http://www.w3.org/2000/svg" viewBox="0 0 448 512"><!--! Font Awesome Pro 6.1.1 by @fontawesome - https://fontawesome.com License - https://fontawesome.com/license (Commercial License) Copyright 2022 Fonticons, Inc.--><path d="M96 128C96 57.31 153.3 0 224 0s128 57.31 128 128c0 70.7-57.3 128-128 128S96 198.7 96 128zm208 0c0-44.18-35.8-80-80-80s-80 35.82-80 80c0 44.2 35.8 80 80 80s80-35.8 80-80zm-94.9 231.2L176 304h96l-33.1 55.2 15.9 59.2 48.8-97.5c81.1 8.4 144.4 77 144.4 160.4 0 16.9-13.8 30.7-30.7 30.7H30.72C13.75 512 0 498.2 0 481.3c0-83.4 63.28-152 144.4-160.4l48.8 97.5 15.9-59.2zm120.4 17.1L285.7 464h113c-6.1-39.8-33-72.9-69.2-87.7zM49.31 464H162.3l-43.8-87.7c-36.22 14.8-63.09 47.9-69.19 87.7z"/></svg>