<svg xmlns="http://www.w3.org/2000/svg" viewBox="0 0 448 512"><!--! Font Awesome Pro 6.1.1 by @fontawesome - https://fontawesome.com License - https://fontawesome.com/license (Commercial License) Copyright 2022 Fonticons, Inc.--><path d="M97.07 183.5c-.25 2.9-.87 5.6-.87 8.5 0 70.75 57.22 128 127.9 128 70.71 0 127.9-57.25 127.9-128 0-2.75-.625-5.375-.75-8.125 69.09-30 93.58-77.88 95.08-80.88 3.498-7.125 1.125-15.88-5.621-20.25-6.623-4.5-15.62-3.25-20.87 2.75-1.873 1.875-22.49 20.62-76.09 33.63C333.1 69 312.2 0 278.2 0c-10.37 0-19.68 4.5-27.43 10.5-15.24 11.88-36.77 11.88-52.02 0C191 4.5 181.8 0 171.4 0c-34 0-54.8 69.38-65.5 119.5-55.22-13-75.59-31.88-75.96-31.88C25.61 80 15.87 77.25 8.119 81.63c-7.621 4.25-10.37 14-6.121 21.75 1.5 2.92 26.862 50.12 95.072 80.12zM224.1 208c26.61.125 53.22-2.75 79.21-8.625C299.5 240 265.7 272 224.1 272s-75.46-32-79.21-72.75c26.01 6.05 52.61 8.85 79.21 8.75zm90.6 144H133.3C59.7 352 0 411.7 0 485.3 0 500.1 11.94 512 26.66 512H421.3c14.8 0 26.7-11.9 26.7-26.7 0-73.6-59.7-133.3-133.3-133.3zm-264 112c9.498-36.76 42.95-64 82.64-64h181.3c39.69 0 73.14 27.24 82.64 64H50.7z"/></svg>