<svg xmlns="http://www.w3.org/2000/svg" viewBox="0 0 448 512"><!--! Font Awesome Pro 6.1.1 by @fontawesome - https://fontawesome.com License - https://fontawesome.com/license (Commercial License) Copyright 2022 Fonticons, Inc.--><path d="M78.54 102.4v44.04C119.1 164.9 169.4 176 223.1 176s104.9-11.08 145.5-29.55V102.4l21.96-22.3c4.564-4.635 7.129-10.93 7.129-17.48 0-11.35-7.602-21.24-18.44-23.99L230.949.96a31.486 31.486 0 0 0-15.52 0l-148.3 37.67C57.06 41.39 49.46 51.28 49.46 62.62c0 6.555 2.564 12.85 7.129 17.48l21.951 22.3zM191.1 61.08l30-12.5c.8-.32 2.1-.58 2.9-.58.828 0 2.122.256 2.884.572l30 12.5a7.498 7.498 0 0 1 4.609 6.92C261.5 107.1 232.1 128 223.1 128c-7 0-36.6-19.8-36.6-60.9 0-2.14 1.8-4.87 4.6-6.02zM224 272c-41.23 0-74.9-31.51-79.15-71.64-16.75-3.26-32.85-7.56-48.4-12.86-.05 1.6-.45 3-.45 4.5 0 70.69 57.31 128 127.1 128s127.1-57.31 127.1-128c0-1.525-.358-2.941-.41-4.453C336 192.8 319.9 197.1 303.2 200.4c-4.3 40.1-38 71.6-79.2 71.6zm96 80h-32l-64 64-64-64h-32C57.31 352 0 409.31 0 480c0 17.67 14.33 32 32 32h384c17.67 0 32-14.33 32-32 0-70.7-57.3-128-128-128zM49.61 464c7.43-36.5 39.76-64 78.39-64h12.12l64 64H49.61zm305.99 0 10.98-10.67c2.844-2.76 1.27-7.58-2.648-8.146L342.1 442l-9.764-19.76c-1.748-3.521-6.816-3.566-8.582 0L313.9 442l-21.85 3.18c-3.918.566-5.492 5.387-2.648 8.146L300.4 464h-56.54l64-64H320c38.63 0 70.96 27.53 78.39 64H355.6z"/></svg>