<svg xmlns="http://www.w3.org/2000/svg" viewBox="0 0 640 512"><!--! Font Awesome Pro 6.1.1 by @fontawesome - https://fontawesome.com License - https://fontawesome.com/license (Commercial License) Copyright 2022 Fonticons, Inc.--><path d="M268.4 274c6.3-1.3 12.9-2 19.6-2h64c6.7 0 13.3.7 19.6 2 1.1.2 2.2.5 3.3.7 23.6 5.8 43.8 20.3 56.9 39.9.3 1.8 2.3 3.6 3.4 4.5 8.1 15 12.8 31.4 12.8 48.9 0 17.7-14.3 32-32 32H224c-17.7 0-32-14.3-32-32 0-17.5 4.7-33.9 12.8-48.9 13-21.4 34.6-38.1 60.3-44.4 1.1-.2 2.2-.5 3.3-.7zm128.9 78c-6.6-18.6-24.4-32-45.3-32h-64c-20.9 0-38.7 13.4-45.3 32h154.6zM248 168c0-39.8 32.2-72 72-72s72 32.2 72 72c0 22.9-10.7 43.4-27.4 56.5-3.9 3.1-8.1 5.8-12.6 8-9.6 4.8-20.5 7.5-32 7.5s-22.4-2.7-32-7.5c-4.5-2.2-8.7-4.9-12.6-8-16.7-13.1-27.4-33.6-27.4-56.5zm72 24c13.3 0 24-10.7 24-24s-10.7-24-24-24-24 10.7-24 24 10.7 24 24 24zm-96.2-32c0 26.5-21.5 48-48 48s-48-21.5-48-48 21.5-48 48-48 48 21.5 48 48zM96 293.3c0-29.4 23.9-53.3 53.3-53.3h69.4c9.7 0 18.9 2.6 26.8 7.2-34.7 12.2-62.5 38.9-76.2 72.8h-46.6c-14.8 0-26.7-11.9-26.7-26.7zm298.5-46.1c7.9-4.6 17.1-7.2 26.8-7.2h69.4c29.4 0 53.3 23.9 53.3 53.3 0 14.8-11.9 26.7-26.7 26.7h-46.6c-14.6-33.9-41.5-60.6-76.2-72.8zM512 160c0 26.5-21.5 48-48 48s-48-21.5-48-48 21.5-48 48-48 48 21.5 48 48zM552 0c48.6 0 88 39.4 88 88v336c0 48.6-39.4 88-88 88H88c-48.6 0-88-39.4-88-88V88C0 39.4 39.4 0 88 0h464zM48 424c0 22.1 17.91 40 40 40h464c22.1 0 40-17.9 40-40V88c0-22.09-17.9-40-40-40H88c-22.09 0-40 17.91-40 40v336z"/></svg>