<svg xmlns="http://www.w3.org/2000/svg" viewBox="0 0 640 512"><!--! Font Awesome Pro 6.1.1 by @fontawesome - https://fontawesome.com License - https://fontawesome.com/license (Commercial License) Copyright 2022 Fonticons, Inc.--><path d="M224 256c70.69 0 128-57.31 128-128S294.69 0 224 0 96 57.31 96 128c0 70.7 57.3 128 128 128zm0-208c44.11 0 80 35.89 80 80s-35.89 80-80 80-80-35.9-80-80c0-44.11 35.9-80 80-80zm99.6 416H48.99c7.9-63.1 61.81-112 127.01-112h96c27.91 0 53.46 9.367 74.51 24.59 11.15-11.85 25.33-21.48 41.8-28.44C357.3 320.8 316.6 304 272 304h-96C78.8 304 0 382.8 0 480c0 17.67 14.33 32 32 32h323.2c-15.4-13.1-26.4-29.5-31.6-48zm278.1-303.4-96 19.2c-14.9 3-25.7 15.3-25.7 31.4v161.2c-10.1-2.7-20.7-4.4-32-4.4-53.02 0-96 32.23-96 72 0 39.76 42.98 72 96 72s96-32.24 96-72V300.2l70.28-14.05C629.2 283.1 640 269.1 640 254.7V192c0-20.2-18.5-35.3-38.3-31.4z"/></svg>