<svg xmlns="http://www.w3.org/2000/svg" viewBox="0 0 640 512"><!--! Font Awesome Pro 6.1.1 by @fontawesome - https://fontawesome.com License - https://fontawesome.com/license (Commercial License) Copyright 2022 Fonticons, Inc.--><path d="M48.71 464c6.67-62.9 59.99-112 124.59-112h101.4c29.74 0 56.82 10.75 78.34 28.12-.568-4.26-1.246-8.498-1.246-12.87v-44.1C328.5 310.7 302.4 304 274.7 304H173.3C77.57 304 0 381.65 0 477.4 0 496.5 15.52 512 34.66 512h378.7c11.86 0 21.82-6.339 28.07-15.43L408.8 464H48.71zM224 256c70.7 0 128-57.31 128-128S294.7 0 224 0 96 57.31 96 128s57.3 128 128 128zm0-208c44.11 0 80 35.89 80 80s-35.89 80-80 80c-44.1 0-80-35.9-80-80 0-44.11 35.9-80 80-80zm406.6 316.8-90.3-90c-12-12-28.3-18.8-45.3-18.8h-79.23a31.894 31.894 0 0 0-31.99 32l.015 79.2c0 17 6.645 33.15 18.65 45.15l90.31 90.27c12.5 12.5 32.74 12.5 45.24 0l92.49-92.5c12.615-12.52 12.615-32.82.115-45.32zm-182.8-20.9c-13.25 0-24-10.62-24-24 0-13.25 10.75-24 24-24 13.38 0 24 10.75 24 24s-10.7 24-24 24z"/></svg>