<svg xmlns="http://www.w3.org/2000/svg" viewBox="0 0 640 512"><!--! Font Awesome Pro 6.1.1 by @fontawesome - https://fontawesome.com License - https://fontawesome.com/license (Commercial License) Copyright 2022 Fonticons, Inc.--><path d="M512 160c44.18 0 80-35.82 80-80S556.2 0 512 0c-44.18 0-80 35.82-80 80s35.8 80 80 80zm112 220h-44v-44c0-8.838-7.164-16-16-16h-40c-8.836 0-16 7.162-16 16v44h-44c-8.836 0-16 7.162-16 16v40c0 8.836 7.164 16 16 16h44v44c0 8.836 7.164 16 16 16h40c8.836 0 16-7.164 16-16v-44h44c8.836 0 16-7.164 16-16v-40c0-8.8-7.2-16-16-16zM490.1 192c-12.8 0-24.88 3.037-35.86 8.24.56 5.26 1.56 10.36 1.56 15.76 0 33.71-12.78 64.21-33.16 88h63.7c8.06-9.7 20.06-16 33.66-16h48c13.57 0 25.58 6.309 33.65 16h20.73c9.72 0 17.62-8.4 17.62-18.7 0-51.5-39.4-93.3-88.1-93.3h-61.8zM319.9 320c57.41 0 103.1-46.56 103.1-104s-46.54-104-103.1-104c-57.41 0-103.1 46.56-103.1 104-.9 57.4 45.7 104 103.1 104zm0-160c30.85 0 55.96 25.12 55.96 56s-25.16 56-55.96 56-56-25.1-56-56 25.1-56 56-56zM476 484h-16c-15.4 0-28.93-7.984-36.79-20H178.1c10.47-36.76 47.36-64 91.14-64H369.9c16.76 0 32.47 4.049 46.11 11.04V392c0-10.1 4.199-20.94 10.89-28.66-17.5-7.24-36.7-11.34-57-11.34h-99.8C191.6 352 128 411.7 128 485.3c0 14.8 12.7 26.7 28.4 26.7h321.5c-1.1-3.8-1.9-7.8-1.9-12v-16zM183.9 216c0-5.449.982-10.63 1.609-15.91C174.6 194.1 162.6 192 149.9 192H88.08C39.44 192 0 233.8 0 285.3 0 295.6 7.887 304 17.62 304h199.5c-20.42-23.8-33.22-54.3-33.22-88zM128 160c44.18 0 80-35.82 80-80S172.2 0 128 0C83.82 0 48 35.82 48 80s35.82 80 80 80z"/></svg>