<svg xmlns="http://www.w3.org/2000/svg" viewBox="0 0 448 512"><!--! Font Awesome Pro 6.1.1 by @fontawesome - https://fontawesome.com License - https://fontawesome.com/license (Commercial License) Copyright 2022 Fonticons, Inc.--><path d="M249.1 232h20c28.5 0 50.9-21.5 50.9-48v-6.4c0-5.3-4.5-9.6-10.9-9.6h-20c-26.7 0-49.1 21.5-49.1 48v6.4c0 5.3 4.5 9.6 9.1 9.6zm-52 0c6.4 0 10.9-4.3 10.9-9.6V216c0-26.5-22.4-48-50-48h-20c-5.5 0-10 4.3-10 9.6v6.4c0 26.5 22.4 48 49.1 48h20zm133.3 121.6c-17.22 17.38-34.78 33.04-50.98 46.41h35.24c39.69 0 73.14 27.24 82.64 64H50.7c9.498-36.76 42.95-64 82.64-64h35.25c-16.2-13.37-33.76-29.03-50.98-46.41C51.47 361.5 0 417.1 0 485.3 0 500.1 11.94 512 26.66 512H421.3c14.8 0 26.7-11.9 26.7-26.7 0-68.2-51.5-123.8-117.6-131.7zm-121 38c4.3 2.5 9.4 5 14.6 5s10.33-1.656 14.64-4.984c46.14-35.52 153.5-127.4 153.5-213C392.1 73.45 322.1 0 224 0S55.88 73.45 55.88 178.6c0 85.7 107.32 177.5 153.52 213zM224 48c72.97 0 120.1 51.28 120.1 130.6 0 40.64-46.64 103.7-120.1 163.4-73.5-59.7-120.1-122.7-120.1-163.4C103.9 99.28 151 48 224 48z"/></svg>