<svg xmlns="http://www.w3.org/2000/svg" viewBox="0 0 640 512"><!--! Font Awesome Pro 6.1.1 by @fontawesome - https://fontawesome.com License - https://fontawesome.com/license (Commercial License) Copyright 2022 Fonticons, Inc.--><path d="M616 0c13.3 0 24 10.75 24 24s-10.7 24-24 24H24C10.75 48 0 37.25 0 24S10.75 0 24 0h592zm0 464c13.3 0 24 10.7 24 24s-10.7 24-24 24H24c-13.25 0-24-10.7-24-24s10.75-24 24-24h592zM261.1 288.8c4.1-.5 8.3-.8 12.5-.8h96c4.2 0 8.4.3 12.5.8 47.1 5.3 83.5 46.4 83.5 95.2 0 17.7-14.3 32-32 32h-224c-17.7 0-32-14.3-32-32 0-11.2 1.9-22 5.5-32 10.5-29.7 35.2-52.8 66-60.9 3.9-1 7.9-1.8 12-2.3zm131.6 53.1c-6.9-3.8-15.6-5.9-23.1-5.9h-96c-20.9 0-38.7 13.4-45.3 32h186.6c-2.6-7.3-7.8-13.8-12.5-19.9-3.7-.8-7-3.3-9.7-6.2zM241.6 176c0-44.2 35.8-80 80-80s80 35.8 80 80c0 26.2-12.6 49.4-32 64-13.4 10-30 16-48 16s-35.5-6-48-16c-19.4-14.6-32-37.8-32-64zm80 32c17.7 0 32-14.3 32-32s-14.3-32-32-32-32 14.3-32 32 14.3 32 32 32zM83.2 160c0-35.3 28.7-64 64-64s64 28.7 64 64-28.7 64-64 64-64-28.7-64-64zM192 256c12.2 0 23.7 3.4 33.4 9.4-37.2 15.1-65.6 47.2-75.8 86.6H64c-17.67 0-32-14.3-32-32 0-35.3 28.65-64 64-64h96zm384 96h-82.4c-10.4-40.1-40.5-72.6-77.7-87.4 9.4-5.5 20.4-8.6 32.1-8.6h96c35.3 0 64 28.7 64 64 0 17.7-14.3 32-32 32zM435.2 160c0-35.3 28.7-64 64-64s64 28.7 64 64-28.7 64-64 64-64-28.7-64-64z"/></svg>