<svg xmlns="http://www.w3.org/2000/svg" viewBox="0 0 448 512"><!--! Font Awesome Pro 6.1.1 by @fontawesome - https://fontawesome.com License - https://fontawesome.com/license (Commercial License) Copyright 2022 Fonticons, Inc.--><path d="M224 272c70.75 0 128-57.25 128-128V0l-64 32-64-32-64 32L96 0v144c0 70.8 57.3 128 128 128zm-80-144h160v16c0 44.1-35.9 80-80 80s-80-35.9-80-80v-16zm128 176h-96C78.8 304 0 382.8 0 480c0 17.67 14.33 32 32 32h384c17.67 0 32-14.33 32-32 0-97.2-78.8-176-176-176zM48.99 464c7.9-63.1 61.81-112 127.01-112h96c65.16 0 119.1 48.95 127 112H48.99z"/></svg>