<svg xmlns="http://www.w3.org/2000/svg" viewBox="0 0 448 512"><!--! Font Awesome Pro 6.1.1 by @fontawesome - https://fontawesome.com License - https://fontawesome.com/license (Commercial License) Copyright 2022 Fonticons, Inc.--><path d="M352 128v16c0 70.7-57.3 128-128 128S96 214.7 96 144v-16C96 57.31 153.3 0 224 0s128 57.31 128 128zm-48 16v-16c0-11.4-2.4-22.2-6.7-32H296c-20.5 0-38.7-9.6-50.4-24.54C231.9 95.67 205.8 112 176 112h-30.4c-1 5.2-1.6 10.5-1.6 16v16c0 44.2 35.8 80 80 80s80-35.8 80-80zM30.72 512C13.75 512 0 498.2 0 481.3c0-83.4 63.28-152 144.4-160.4l48.8 97.5 15.9-59.2-34-55.2h96l-32.2 55.2 15.9 59.2 48.8-97.5c81.1 8.4 144.4 77 144.4 160.4 0 16.9-13.8 30.7-30.7 30.7H30.72zM329.5 376.3 285.7 464h113c-6.1-39.8-33-72.9-69.2-87.7zM49.31 464H162.3l-43.8-87.7c-36.22 14.8-63.09 47.9-69.19 87.7z"/></svg>