<svg xmlns="http://www.w3.org/2000/svg" viewBox="0 0 448 512"><!--! Font Awesome Pro 6.1.1 by @fontawesome - https://fontawesome.com License - https://fontawesome.com/license (Commercial License) Copyright 2022 Fonticons, Inc.--><path d="M96 128C96 57.31 153.3 0 224 0s128 57.31 128 128v10.1c0 34.8 13.5 67.4 37.5 91.4l3.9 3.9c4.2 4.2 6.6 10 6.6 16 0 12.5-10.1 22.6-22.6 22.6H70.63c-12.5 0-23.53-10.1-23.53-22.6 0-6 3.28-11.8 7.53-16l3.88-3.9c24-24 36.59-56.6 36.59-91.4L96 128zm201.3-32H296c-20.5 0-38.7-9.6-50.4-24.54C231.9 95.67 205.8 112 176 112h-30.4c-1 5.2-1.6 10.5-1.6 16v16c0 44.2 35.8 80 80 80s80-35.8 80-80v-16c0-11.4-2.4-22.2-6.7-32zM448 477.9c0 17.7-14.3 32-32 32H32c-17.67 0-32-14.3-32-32v-8C0 386.1 61.33 316.7 141.6 304L224 413.9 306.4 304C386.7 316.7 448 386.1 448 469.9v8zM122.6 358.8c-41.4 16.9-71.26 56.4-74.34 103.1H199.1l-76.5-103.1zm202.8 0L248 461.9h151.7c-3-46.7-32.9-86.2-74.3-103.1z"/></svg>