<svg xmlns="http://www.w3.org/2000/svg" viewBox="0 0 640 512"><!--! Font Awesome Pro 6.1.1 by @fontawesome - https://fontawesome.com License - https://fontawesome.com/license (Commercial License) Copyright 2022 Fonticons, Inc.--><path d="M496 224c-79.63 0-144 64.38-144 144s64.38 144 144 144 144-64.38 144-144-64.4-144-144-144zm48 160h-54.25c-5.35 0-9.75-4.4-9.75-9.7V304c0-8.836 7.164-16 16-16 8.838 0 16 7.164 16 16v48h32c8.838 0 16 7.164 16 15.1s-7.2 16.9-16 16.9zM224 256c70.69 0 128-57.31 128-128S294.69 0 224 0 96 57.31 96 128c0 70.7 57.3 128 128 128zm0-208c44.11 0 80 35.89 80 80s-35.89 80-80 80-80-35.9-80-80c0-44.11 35.9-80 80-80zm171 464H32c-17.67 0-32-14.33-32-32 0-97.2 78.8-176 176-176h96c19.87 0 38.89 3.441 56.7 9.508-4.963 15.24-7.787 31.41-8.383 48.17C305.4 355.5 289.1 352 272 352h-96c-65.16 0-119.1 48.95-127 112h299.6c12.3 18.8 28 35.1 46.4 48z"/></svg>