<svg xmlns="http://www.w3.org/2000/svg" viewBox="0 0 448 512"><!--! Font Awesome Pro 6.1.1 by @fontawesome - https://fontawesome.com License - https://fontawesome.com/license (Commercial License) Copyright 2022 Fonticons, Inc.--><path d="M319.7 352.5 224 416l-95.7-63.49C57.05 355.2 0 413.4 0 485.3 0 500.1 11.94 512 26.66 512H421.3c14.8 0 26.7-11.9 26.7-26.7 0-71.9-57.9-130.1-128.3-132.8zM50.69 464c8.043-31.21 33.37-55.43 65.56-61.89L209.5 464H50.69zm187.81 0 93.28-61.89c32.19 6.461 57.52 30.68 65.56 61.89H238.5zM78.54 102.4v44.04C119.1 164.9 169.4 176 224 176s104.9-11.08 145.5-29.55V102.4l21.96-22.3c4.564-4.635 7.129-10.93 7.129-17.48 0-11.35-7.602-21.24-18.44-23.99L231.849.96a31.486 31.486 0 0 0-15.52 0l-148.3 37.67C57.06 41.39 49.46 51.28 49.46 62.62c0 6.555 2.564 12.85 7.129 17.48l21.951 22.3zm83.16-29.55c3.969-7.875 13.56-11.09 21.47-7.156L224 86.13l40.84-20.44c7.938-3.969 17.5-.75 21.47 7.156 3.938 7.906.75 17.5-7.156 21.47l-48 23.1C228.9 119.4 226.4 120 224 120s-4.9-.6-7.2-1.7l-48-23.1c-7.9-4.85-11-14.45-7.1-22.35zM224 272c-41.23 0-74.9-31.51-79.15-71.64-16.75-3.26-32.85-7.56-48.4-12.86-.05 1.6-.45 3-.45 4.5 0 70.69 57.31 128 127.1 128s127.1-57.31 127.1-128c0-1.525-.358-2.941-.41-4.453C336 192.8 319.9 197.1 303.2 200.4c-4.3 40.1-38 71.6-79.2 71.6z"/></svg>