<svg xmlns="http://www.w3.org/2000/svg" viewBox="0 0 448 512"><!--! Font Awesome Pro 6.1.1 by @fontawesome - https://fontawesome.com License - https://fontawesome.com/license (Commercial License) Copyright 2022 Fonticons, Inc.--><path d="M96 128C96 57.31 153.3 0 224 0s128 57.31 128 128v10.1c0 34.8 13.5 67.4 37.5 91.4l3.9 3.9c4.2 4.2 6.6 10 6.6 16 0 12.5-10.1 22.6-22.6 22.6H70.63c-12.5 0-23.53-10.1-23.53-22.6 0-6 3.28-11.8 7.53-16l3.88-3.9c24-24 36.59-56.6 36.59-91.4L96 128zm201.3-32H296c-20.5 0-38.7-9.6-50.4-24.54C231.9 95.67 205.8 112 176 112h-30.4c-1 5.2-1.6 10.5-1.6 16v16c0 44.2 35.8 80 80 80s80-35.8 80-80v-16c0-11.4-2.4-22.2-6.7-32zM0 481.3C0 392.2 72.21 320 161.3 320h125.4c89.1 0 161.3 72.2 161.3 161.3 0 16.9-13.8 30.7-30.7 30.7H30.72C13.75 512 0 498.2 0 481.3zM398.7 464c-8.3-54.4-55.3-96-112-96H161.3c-56.7 0-103.67 41.6-111.99 96H398.7z"/></svg>