<svg xmlns="http://www.w3.org/2000/svg" viewBox="0 0 640 512"><!--! Font Awesome Pro 6.1.1 by @fontawesome - https://fontawesome.com License - https://fontawesome.com/license (Commercial License) Copyright 2022 Fonticons, Inc.--><path d="m496.7 295.3 72.01 72.01-125.3 125.3a17.998 17.998 0 0 1-9.195 4.922l-71.42 14.29c-6.297 1.258-11.85-4.297-10.59-10.59l14.28-71.41a17.995 17.995 0 0 1 4.924-9.203L496.7 295.3zm132.8-39.6-21.1-21.11c-14.06-14.06-36.85-14.06-50.91 0l-38.13 38.14 72.01 72.01 38.13-38.13c14-14.11 14-36.91 0-50.91zM360.1 512a9.18 9.18 0 0 0 1.797-.18c-1.18.237-2.273.026-3.361-.177 1.364.057 1.864.357 1.564.357zM96 128C96 57.31 153.31 0 223.1 0s128 57.31 128 128-57.31 128-128 128S96 198.7 96 128zm48 0c0 44.11 35.89 80 80 80s80-35.89 80-80-35.89-80-80-80-80 35.89-80 80zm182.1 336H49c7.89-63.1 61.8-112 127-112h96c33.96 0 64.67 13.49 87.6 35.14l34.1-34.1C362.1 322.7 319.3 304 272 304h-96C78.8 304 0 382.8 0 480c0 17.67 14.33 32 32 32h289.1c-1.246-5.531-1.43-11.31-.283-17.04L326.1 464z"/></svg>