<svg xmlns="http://www.w3.org/2000/svg" viewBox="0 0 640 512"><!--! Font Awesome Pro 6.1.1 by @fontawesome - https://fontawesome.com License - https://fontawesome.com/license (Commercial License) Copyright 2022 Fonticons, Inc.--><path d="M7.029 7.029c9.371-9.372 24.571-9.372 33.941 0L112.1 79.03c10.2 9.37 10.2 24.57 0 33.07-8.5 10.2-23.7 10.2-33.07 0L7.029 40.97c-9.372-9.37-9.372-24.57 0-33.941zM632.1 40.97l-72 71.13c-8.5 10.2-23.7 10.2-33.1 0-9.3-8.5-9.3-23.7 0-33.07l72-72.001c9.4-9.372 24.6-9.372 33.1 0 10.2 9.371 10.2 24.571 0 33.941zM40.97 504.1c-9.37 10.2-24.57 10.2-33.941 0-9.372-8.5-9.372-23.7 0-33.1l72.001-72c9.37-9.3 24.57-9.3 33.07 0 10.2 9.4 10.2 24.6 0 33.1l-71.13 72zm591.13 0c-8.5 10.2-23.7 10.2-33.1 0l-72-72c-9.3-8.5-9.3-23.7 0-33.1 9.4-9.3 24.6-9.3 33.1 0l72 72c10.2 9.4 10.2 24.6 0 33.1zM268.4 290c6.3-1.3 12.9-2 19.6-2h64c6.7 0 13.3.7 19.6 2 1.1.2 2.2.5 3.3.7 23.6 5.8 43.8 20.3 56.9 39.9.3 1.8 2.3 3.6 3.4 5.4 8.1 14.1 12.8 30.5 12.8 48 0 17.7-14.3 32-32 32H224c-17.7 0-32-14.3-32-32 0-17.5 4.7-33.9 12.8-48 13-22.3 34.6-39 60.3-45.3 1.1-.2 2.2-.5 3.3-.7zm128.9 78c-6.6-18.6-24.4-32-45.3-32h-64c-20.9 0-38.7 13.4-45.3 32h154.6zM248 184c0-39.8 32.2-72 72-72s72 32.2 72 72c0 22.9-10.7 43.4-27.4 56.5-3.9 3.1-8.1 5.8-12.6 8-9.6 4.8-20.5 7.5-32 7.5s-22.4-2.7-32-7.5c-4.5-2.2-8.7-4.9-12.6-8-16.7-13.1-27.4-33.6-27.4-56.5zm72 24c13.3 0 24-10.7 24-24s-10.7-24-24-24-24 10.7-24 24 10.7 24 24 24zm-96.2-32c0 26.5-21.5 48-48 48s-48-21.5-48-48 21.5-48 48-48 48 21.5 48 48zM96 309.3c0-29.4 23.9-53.3 53.3-53.3h69.4c9.7 0 18.9 2.6 26.8 7.2-34.7 12.2-62.5 38.9-76.2 72.8h-46.6c-14.8 0-26.7-11.9-26.7-26.7zm298.5-46.1c7.9-4.6 17.1-7.2 26.8-7.2h69.4c29.4 0 53.3 23.9 53.3 53.3 0 14.8-11.9 26.7-26.7 26.7h-46.6c-14.6-33.9-41.5-60.6-76.2-72.8zM512 176c0 26.5-21.5 48-48 48s-48-21.5-48-48 21.5-48 48-48 48 21.5 48 48z"/></svg>