<svg xmlns="http://www.w3.org/2000/svg" viewBox="0 0 448 512"><!--! Font Awesome Pro 6.1.1 by @fontawesome - https://fontawesome.com License - https://fontawesome.com/license (Commercial License) Copyright 2022 Fonticons, Inc.--><path d="M224 256c70.7 0 128-57.31 128-128S294.7 0 224 0 96 57.31 96 128s57.3 128 128 128zm73.2-160h-77l44.07-36.72C278.7 67.8 290.4 80.51 297.2 96zM224 48c1.158 0 2.236.293 3.383.342L170.2 96h-19.4c12.4-28.2 40.5-48 73.2-48zm80 80c0 44.11-35.89 80-80 80s-80-35.9-80-80h160zm-29.3 176H173.3C77.61 304 0 381.6 0 477.3 0 496.5 15.52 512 34.66 512h378.7c19.14 0 34.64-15.5 34.64-34.7 0-95.7-77.6-173.3-173.3-173.3zM96 464H48.71c3.64-34.4 21.53-64.3 47.29-84.6V464zm203.1 0h-37.8l-32-48H272c17.67 0 32 14.33 32 32 0 5.1-2.1 11.2-4.9 16zm34.6 0c1.4-5.1 2.3-10.4 2.3-16 0-35.29-28.71-64-64-64h-64l-21.33-32h87.1c64.61 0 117.1 49.13 124.6 112H333.7z"/></svg>