<svg xmlns="http://www.w3.org/2000/svg" viewBox="0 0 640 512"><!--! Font Awesome Pro 6.1.1 by @fontawesome - https://fontawesome.com License - https://fontawesome.com/license (Commercial License) Copyright 2022 Fonticons, Inc.--><path d="M274.7 304H173.3C77.61 304 0 381.6 0 477.3 0 496.5 15.52 512 34.66 512h378.7c19.14 0 34.64-15.5 34.64-34.7 0-95.7-77.6-173.3-173.3-173.3zM48.71 464c6.67-62.9 59.99-112 124.59-112h101.4c64.61 0 117.1 49.13 124.6 112H48.71zM224 256c70.7 0 128-57.31 128-128S294.7 0 224 0 96 57.31 96 128s57.3 128 128 128zm0-208c44.11 0 80 35.89 80 80s-35.89 80-80 80c-44.1 0-80-35.9-80-80 0-44.11 35.9-80 80-80zm392 152H472c-13.2 0-24 10.8-24 24s10.75 24 24 24h144c13.3 0 24-10.7 24-24s-10.7-24-24-24z"/></svg>