<svg xmlns="http://www.w3.org/2000/svg" viewBox="0 0 448 512"><!--! Font Awesome Pro 6.1.1 by @fontawesome - https://fontawesome.com License - https://fontawesome.com/license (Commercial License) Copyright 2022 Fonticons, Inc.--><path d="M208 176c0 17.7-14.3 32-32 32s-32-14.3-32-32 14.3-32 32-32 32 14.3 32 32zm32 0c0-17.7 14.3-32 32-32s32 14.3 32 32-14.3 32-32 32-32-14.3-32-32zm0-112h64c44.2 0 80 35.82 80 80v96c0 44.2-35.8 80-80 80H144c-44.18 0-80-35.8-80-80v-96c0-44.18 35.82-80 80-80h64V16c0-8.836 7.2-16 16-16s16 7.164 16 16v48zm96 80c0-17.7-14.3-32-32-32H144c-17.7 0-32 14.3-32 32v96c0 17.7 14.3 32 32 32v-16c0-8.8 7.2-16 16-16s16 7.2 16 16v16h32v-16c0-8.8 7.2-16 16-16s16 7.2 16 16v16h32v-16c0-8.8 7.2-16 16-16s16 7.2 16 16v16c17.7 0 32-14.3 32-32v-96zM48 512c-26.51 0-48-21.5-48-48v-16c0-53.9 42.98-96 96-96h256c53 0 96 42.1 96 96v16c0 26.5-21.5 48-48 48H48zm352-64c0-26.5-21.5-48-48-48H96c-26.51 0-48 21.5-48 48v16h96v-32c0-8.8 7.2-16 16-16s16 7.2 16 16v32h32v-32c0-8.8 7.2-16 16-16s16 7.2 16 16v32h32v-32c0-8.8 7.2-16 16-16s16 7.2 16 16v32h96v-16zM32 144v96c0 8.8-7.16 16-16 16-8.836 0-16-7.2-16-16v-96c0-8.8 7.164-16 16-16 8.84 0 16 7.2 16 16zm416 96c0 8.8-7.2 16-16 16s-16-7.2-16-16v-96c0-8.8 7.2-16 16-16s16 7.2 16 16v96z"/></svg>