<svg xmlns="http://www.w3.org/2000/svg" viewBox="0 0 640 512"><!--! Font Awesome Pro 6.1.1 by @fontawesome - https://fontawesome.com License - https://fontawesome.com/license (Commercial License) Copyright 2022 Fonticons, Inc.--><path d="M352 128c0 70.7-57.3 128-128 128S96 198.7 96 128C96 57.31 153.3 0 224 0s128 57.31 128 128zm-208 0c0 44.2 35.8 80 80 80s80-35.8 80-80c0-44.18-35.8-80-80-80s-80 35.82-80 80zm32 224c-5.4 0-10.8.3-16 .1v50.2c23.1 6.9 40 28.3 40 53.7 0 30.9-25.1 56-56 56s-56-25.1-56-56c0-25.4 16.9-46.8 40-53.7v-41c-46.91 19-80 65-80 118.7v8c0 13.3-10.75 24-24 24S0 501.3 0 488v-8c0-97.2 78.8-176 176-176h96c97.2 0 176 78.8 176 176v8c0 13.3-10.7 24-24 24s-24-10.7-24-24v-8c0-53.7-33.1-99.7-80-118.7v41c23.1 6.9 40 28.3 40 53.7v32c0 8.8-7.2 16-16 16s-16-7.2-16-16v-32c0-13.3-10.7-24-24-24s-24 10.7-24 24v32c0 8.8-7.2 16-16 16s-16-7.2-16-16v-32c0-25.4 16.9-46.8 40-53.7v-50.2c-5.2.2-10.6-.1-16-.1h-96zm-32 80c-13.3 0-24 10.7-24 24s10.7 24 24 24 24-10.7 24-24-10.7-24-24-24zM592 0c26.5 0 48 21.49 48 48v128c0 26.5-21.5 48-48 48h-48l-83.2 62.4c-2.4 1.8-5.7 2.1-8.4.8-2.7-1.4-4.4-4.2-4.4-7.2v-56h-16c-26.5 0-48-21.5-48-48V48c0-26.51 21.5-48 48-48h160z"/></svg>