<svg xmlns="http://www.w3.org/2000/svg" viewBox="0 0 448 512"><!--! Font Awesome Pro 6.1.1 by @fontawesome - https://fontawesome.com License - https://fontawesome.com/license (Commercial License) Copyright 2022 Fonticons, Inc.--><path d="M96 128C96 57.31 153.3 0 224 0s128 57.31 128 128v16c0 70.7-57.3 128-128 128S96 214.7 96 144v-16zm201.3-32H296c-20.5 0-38.7-9.6-50.4-24.54C231.9 95.67 205.8 112 176 112h-30.4c-1 5.2-1.6 10.5-1.6 16v16c0 44.2 35.8 80 80 80s80-35.8 80-80v-16c0-11.4-2.4-22.2-6.7-32zM448 480c0 17.7-14.3 32-32 32H32c-17.67 0-32-14.3-32-32v-8c0-83.8 61.33-153.2 141.6-165.9L224 416l82.4-109.9C386.7 318.8 448 388.2 448 472v8zM122.6 360.9C81.2 377.8 51.34 417.3 48.26 464H199.1l-76.5-103.1zm202.8 0L248 464h151.7c-3-46.7-32.9-86.2-74.3-103.1z"/></svg>