<svg xmlns="http://www.w3.org/2000/svg" viewBox="0 0 448 512"><!--! Font Awesome Pro 6.1.1 by @fontawesome - https://fontawesome.com License - https://fontawesome.com/license (Commercial License) Copyright 2022 Fonticons, Inc.--><path d="m378.8 339.7 35.26-82.28c3.188-7.422 2.406-15.94-2.031-22.67S400.1 224 392 224h-44.54c2.664-10.29 4.534-20.88 4.534-32 0-9.492-1.19-18.68-3.151-27.58C389.9 155.6 416 142.6 416 128c0-16.08-31.75-30.28-80.31-38.99C323.8 45.15 304.9 0 277.4 0c-10.38 0-19.62 4.5-27.38 10.5-15.25 11.88-36.75 11.88-52 0C190.3 4.5 181.1 0 170.7 0c-27.5 0-46.3 45.16-58.2 88.98C63.83 97.68 32 111.9 32 128c0 14.58 26.1 27.62 67.15 36.42C97.19 173.3 96 182.6 96 192.1c0 11.1 1.86 21.6 4.5 31.9H56c-8.06 0-15.59 4-20.03 10.8s-5.22 15.2-2.03 22.7l35.26 82.28C27.41 371.3 0 420.9 0 477.3 0 496.5 15.52 512 34.66 512H413.3c19.2 0 34.7-15.5 34.7-34.7 0-56.4-27.4-106-69.2-137.6zM224 272c-34.41 0-63.56-21.96-74.83-52.52 5.23 2.62 10.93 4.52 17.23 4.52h12.33c16.46 0 30.29-10.39 35.63-24.99 1.54-4.11 5.24-7.01 9.64-7.01s8.105 2.887 9.615 7.008C238.1 213.6 252.8 224 269.3 224h12.33c6.299 0 11.1-1.857 17.25-4.516C287.6 250 258.4 272 224 272zM48.71 464c4.765-44.31 35.35-77.19 40.66-77.19l16.56 38.64C109.8 434.6 118.7 440 128 440c3.156 0 6.375-.625 9.469-1.938 12.16-5.219 17.81-19.33 12.59-31.52L92.41 272h32.41c14.68 18.2 34.08 32.2 56.68 40.2L208 352l-32 112H48.71zM272 464l-32-112 26.53-39.79C289.1 304.2 308.5 290.2 323.2 272h32.41l-57.66 134.5c-5.219 12.19.438 26.3 12.59 31.52 3.06 1.38 6.26 1.98 9.46 1.98 9.312 0 18.16-5.453 22.06-14.55l16.56-38.64c5.776 0 35.94 33.25 40.66 77.19H272z"/></svg>