<svg xmlns="http://www.w3.org/2000/svg" viewBox="0 0 640 512"><!--! Font Awesome Pro 6.1.1 by @fontawesome - https://fontawesome.com License - https://fontawesome.com/license (Commercial License) Copyright 2022 Fonticons, Inc.--><path d="m622.3 271.1-115.1-45.01c-4.125-1.629-12.62-3.754-22.25 0L369.8 271.1c-10.8 4.1-17.8 14-17.8 24 0 111.6 68.75 188.8 132.9 213.9 9.625 3.75 18 1.625 22.25 0C558.4 489.9 640 420.5 640 295.1c0-10-7-19.9-17.7-24zM496 462.4V273.2l95.5 37.38C585.9 397.8 530.6 446 496 462.4zM224 256c70.69 0 128-57.31 128-128S294.69 0 224 0 96 57.31 96 128c0 70.7 57.3 128 128 128zm0-208c44.11 0 80 35.89 80 80s-35.89 80-80 80-80-35.9-80-80c0-44.11 35.9-80 80-80zm198.8 462.6c-2.3.5-4.4 1.4-6.8 1.4H32c-17.67 0-32-14.33-32-32 0-97.2 78.8-176 176-176h96c16.88 0 33.14 2.514 48.59 6.947.979 19.24 3.695 37.58 8.059 54.86C311.5 357.3 292.4 352 272 352h-96c-65.16 0-119.1 48.95-127 112h327.2c14.1 18.3 29.9 33.9 46.6 46.6z"/></svg>