<svg xmlns="http://www.w3.org/2000/svg" viewBox="0 0 640 512"><!--! Font Awesome Pro 6.1.1 by @fontawesome - https://fontawesome.com License - https://fontawesome.com/license (Commercial License) Copyright 2022 Fonticons, Inc.--><path d="M83.2 96c0-35.35 28.7-64 64-64s64 28.65 64 64c0 35.3-28.7 64-64 64s-64-28.7-64-64zM192 192c24.7 0 46.1 13.1 56.8 34.4-36.8 7.2-67.9 30.2-86.1 61.6H64c-17.67 0-32-14.3-32-32 0-35.3 28.65-64 64-64h96zm384 96h-95.5c-18.7-32.2-50.9-55.6-89-62.1 10.8-20.2 32-33.9 56.5-33.9h96c35.3 0 64 28.7 64 64 0 17.7-14.3 32-32 32zm-110.4 64c0 17.7-14.3 32-32 32h-224c-17.7 0-32-14.3-32-32 0-24.6 9.2-47.9 24.4-64 13.9-15.5 32.7-26.4 53.1-30.4 2.5-.3 4.3-.6 6-.8 4.1-.5 8.3-.8 12.5-.8h96c4.2 0 8.4.3 12.5.8.7.1 1.3-.7 1.9.3 22.6 3.4 42.6 14.6 57.2 30.9 15.2 16.1 24.4 39.4 24.4 64zm-50.7-16c-6.6-18.6-24.4-32-45.3-32h-96c-20.9 0-38.7 13.4-45.3 32h186.6zm20.3-240c0-35.35 28.7-64 64-64s64 28.65 64 64c0 35.3-28.7 64-64 64s-64-28.7-64-64zm-193.6 48c0-44.18 35.8-80 80-80s80 35.82 80 80c0 26.2-12.6 49.4-32 64-13.4 10-30 16-48 16s-35.5-6-48-16c-19.4-14.6-32-37.8-32-64zm80 32c17.7 0 32-14.3 32-32s-14.3-32-32-32-32 14.3-32 32 14.3 32 32 32zM0 456c0-13.3 10.75-24 24-24h592c13.3 0 24 10.7 24 24s-10.7 24-24 24H24c-13.25 0-24-10.7-24-24z"/></svg>