<svg xmlns="http://www.w3.org/2000/svg" viewBox="0 0 640 512"><!--! Font Awesome Pro 6.1.1 by @fontawesome - https://fontawesome.com License - https://fontawesome.com/license (Commercial License) Copyright 2022 Fonticons, Inc.--><path d="M610.5 373.3c2.625-14 2.625-28.5 0-42.5l25.75-15c3-1.625 4.375-5.125 3.375-8.5-6.751-21.5-18.25-41.13-33.25-57.38-2.25-2.5-6-3.125-9-1.375l-25.75 14.88c-10.88-9.25-23.37-16.5-36.88-21.25V212.3c0-3.375-2.5-6.375-5.75-7-22.25-5-45-4.875-66.25 0-3.25.625-5.625 3.625-5.625 7v29.88c-13.5 4.75-26 12-36.88 21.25L394.4 248.5c-2.875-1.75-6.625-1.125-9 1.375-15 16.25-26.5 35.88-33.13 57.38-1 3.375.375 6.875 3.25 8.5l25.75 15c-2.5 14-2.5 28.5 0 42.5l-25.75 15c-3 1.625-4.25 5.125-3.25 8.5 6.626 21.5 18.12 41 33.13 57.38 2.375 2.5 6 3.125 9 1.375l25.88-14.88c10.88 9.25 23.37 16.5 36.88 21.25v29.88c0 3.375 2.375 6.375 5.625 7 22.38 5 45 4.875 66.25 0 3.25-.625 5.75-3.625 5.75-7v-29.88c13.5-4.75 26-12 36.88-21.25l25.75 14.88c2.875 1.75 6.75 1.125 9-1.375 15-16.25 26.5-35.88 33.25-57.38 1-3.375-.375-6.875-3.375-8.5L610.5 373.3zM496 400.5c-26.75 0-48.5-21.75-48.5-48.5s21.75-48.5 48.5-48.5 48.5 21.8 48.5 48.5-21.7 48.5-48.5 48.5zm-70.9 91.3c0 6.148 1.867 11.77 4.433 17.01C425.4 510.7 420.9 512 416 512H32c-17.67 0-32-14.3-32-32 0-97.2 78.8-176 176-176h95.1c16.68 0 32.78 2.473 48.07 6.811.426 13.5 7.556 25.94 19.68 32.8l7.655 4.461c-.068 2.619-.068 5.24 0 7.859l-8.018 4.669c-3.125 1.689-5.664 4.06-8.111 6.507C313.5 357.7 293.5 352 272 352h-96c-65.17 0-119.1 48.95-127 112h303.2c3.102 3.998 6.18 8.001 9.604 11.74 7.842 8.26 18.25 12.75 28.97 12.75 6.917 0 13.75-1.85 19.75-5.352l7.818-4.493a149.547 149.547 0 0 0 6.809 3.93v9.225zM224 256c70.7 0 128-57.31 128-128S294.7 0 224 0 96 57.31 96 128c0 70.7 57.3 128 128 128zm0-208c44.1 0 80 35.89 80 80s-35.89 80-80.01 80S144 172.1 144 128c0-44.11 35.9-80 80-80z"/></svg>