<svg xmlns="http://www.w3.org/2000/svg" viewBox="0 0 448 512"><!--! Font Awesome Pro 6.1.1 by @fontawesome - https://fontawesome.com License - https://fontawesome.com/license (Commercial License) Copyright 2022 Fonticons, Inc.--><path d="M352 128v10.1c0 34.8 13.5 67.4 37.5 91.4l3.9 3.9c4.2 4.2 6.6 10 6.6 16 0 12.5-10.1 22.6-22.6 22.6H70.63c-12.5 0-23.53-10.1-23.53-22.6 0-6 3.28-11.8 7.53-16l3.88-3.9c24-24 36.59-56.6 36.59-91.4V128c0-70.69 58.2-128 128-128C294.7 0 352 57.31 352 128zm-48 16v-16c0-11.4-2.4-22.2-6.7-32H296c-20.5 0-38.7-9.6-50.4-24.54C231.9 95.67 205.8 112 176 112h-30.4c-1 5.2-1.6 10.5-1.6 16v16c0 44.2 35.8 80 80 80s80-35.8 80-80zM30.72 511.1C13.75 511.1 0 498.2 0 481.3c0-83.4 63.28-152 144.4-160.4l48.8 97.5 15.9-59.2L176 304h96l-33.1 55.2 15.9 59.2 48.8-97.5c81.1 8.4 144.4 77 144.4 160.4 0 16.9-13.8 30.7-30.7 30.7l-386.58-.9zM329.5 376.3l-43.8 86.8h113c-6.1-38.9-33-72-69.2-86.8zM49.31 463.1H162.3l-43.8-86.8c-36.22 14.8-63.09 47.9-69.19 86.8z"/></svg>