<svg xmlns="http://www.w3.org/2000/svg" viewBox="0 0 448 512"><!--! Font Awesome Pro 6.1.1 by @fontawesome - https://fontawesome.com License - https://fontawesome.com/license (Commercial License) Copyright 2022 Fonticons, Inc.--><path d="M274.7 304H173.3C77.61 304 0 381.6 0 477.3 0 496.5 15.52 512 34.66 512H413.3c19.2 0 34.7-15.5 34.7-34.7 0-95.7-77.6-173.3-173.3-173.3zm-226 160c6.68-62.9 60-112 124.6-112h101.3c64.61 0 117.1 49.13 124.6 112H48.7zM88 192c5.836 0 11.36-1.197 16.53-3.104C122.8 237.4 169.2 272 224 272s101.2-34.65 119.5-83.1c5.1 1.9 10.7 3.1 16.5 3.1 26.51 0 48-21.49 48-48v-32c0-26.51-21.49-48-48-48-8.203 0-15.86 2.156-22.61 5.783C316.2 28.47 273.6 0 224 0s-92.2 28.47-113.4 69.78C103.9 66.16 96.2 64 88 64c-26.51 0-48 21.49-48 48v32c0 26.5 21.49 48 48 48zm56-64c0-7.029 1.201-13.73 2.912-20.23C153.6 110.2 160.5 112 168 112c24.29 0 45.16-13.69 56-33.62C234.8 98.31 255.7 112 280 112c7.502 0 14.45-1.781 21.09-4.229C302.8 114.3 304 120.1 304 128v16c0 44.1-35.9 80-80 80s-80-35.9-80-80v-16z"/></svg>