<svg xmlns="http://www.w3.org/2000/svg" viewBox="0 0 448 512"><!--! Font Awesome Pro 6.1.1 by @fontawesome - https://fontawesome.com License - https://fontawesome.com/license (Commercial License) Copyright 2022 Fonticons, Inc.--><path d="M329.9 326.2C314.4 312.6 294.3 304 272 304h-96c-22.26 0-42.38 8.57-57.89 22.24C50.2 344.7 0 406.3 0 480c0 17.7 14.33 32 32 32h384c17.67 0 32-14.29 32-31.96 0-73.74-50.2-135.34-118.1-153.84zm-154.8 25.7h96.04c19.72 0 36.14 14.45 39.39 33.23C289.2 376.4 258.8 368 224 368s-65.22 8.422-87.41 17.12c3.21-18.82 19.71-33.22 38.51-33.22zM240 464c0-8.838-7.164-16-16-16s-16 7.162-16 16H49.14c3.98-27.7 18.36-51.9 38.86-69.1V424c0 8.828 4.875 16.91 12.62 21.09a24.17 24.17 0 0 0 24.62-1.078c.367-.254 35.4-22.65 82.94-27.08C208.7 425.3 215.5 432 224 432s15.3-6.689 15.81-15.06c47.54 4.428 82.57 26.82 82.88 27.03C326.7 446.6 331.3 448 336 448a23.81 23.81 0 0 0 11.31-2.844C355.1 440.1 360 432.8 360 424v-29.13c20.5 17.2 34.88 41.4 38.86 69.13H240zm16-320c8.836 0 16-7.164 16-16 0-8.838-7.164-16-16-16s-16 7.2-16 16 7.2 16 16 16zm-64 0c8.836 0 16-7.164 16-16 0-8.838-7.164-16-16-16s-16 7.2-16 16 7.2 16 16 16zm-4 60c14.34 0 27.78-7.316 36-12.91 8.2 5.61 21.7 12.91 36 12.91 6.625 0 12-5.377 12-12.01 0-6.627-5.375-12-12-12-10.91 0-23.94-9.379-28.06-12.99-4.5-4-11.38-4-15.88 0-4.16 3.6-17.16 12.1-28.06 12.1-6.625 0-12 5.377-12 12 0 7.5 5.4 12.9 12 12.9zm-78.7 68h53.98c18.12 9.9 38.62 16 60.72 16s42.62-6.123 60.77-16h53.98c24.95 0 45.25-20.3 45.25-45.3 0-12-4.768-23.51-13.25-32-12.05-12-18.75-28.2-18.75-45.2V128C352 57.31 294.69 0 224 0S96 57.31 96 128v21.49c0 16.97-6.742 33.25-18.75 45.25A45.144 45.144 0 0 0 64 226.7c0 25 20.26 45.3 45.3 45.3zM144 128c0-44.11 35.89-80 80-80s80 35.89 80 80v32c0 40-29.6 72.94-68 78.79V224c0-6.625-5.375-12-12-12s-12 5.4-12 12v14.79C173.6 232.9 144 200 144 160v-32z"/></svg>