<svg xmlns="http://www.w3.org/2000/svg" viewBox="0 0 640 512"><!--! Font Awesome Pro 6.1.1 by @fontawesome - https://fontawesome.com License - https://fontawesome.com/license (Commercial License) Copyright 2022 Fonticons, Inc.--><path d="M630.8 469.1 353.7 251.2c54.69-14.56 95.18-63.95 95.18-123.2C447.1 57.31 390.7 0 319.1 0c-68.9 0-125.4 55.93-126.8 125.4L38.9 5.1C34.41 1.672 29.19 0 24.03 0 16.91 0 9.845 3.156 5.127 9.187-3.061 19.62-1.248 34.72 9.189 42.89L601.2 506.9c10.5 8.203 25.56 6.328 33.69-4.078 8.21-10.422 6.31-25.522-4.09-33.722zm-340.7-267L255.6 175c-9.7-13.2-15.6-29.4-15.6-47 0-44.11 35.89-80 80-80s80 35.89 80 80-35.89 80-80 80c-10.6 0-20.6-2.2-29.9-5.9zM144.1 464c8.8-63.1 62.7-112 127.9-112h53.75l-60.85-47.7C170.1 307.1 96 385.2 96 480c0 17.67 14.33 32 32 32h384c4.938 0 9.477-1.324 13.65-3.322L468.6 464H144.1z"/></svg>