<svg xmlns="http://www.w3.org/2000/svg" viewBox="0 0 448 512"><!--! Font Awesome Pro 6.1.1 by @fontawesome - https://fontawesome.com License - https://fontawesome.com/license (Commercial License) Copyright 2022 Fonticons, Inc.--><path d="M96 128C96 57.31 153.3 0 224 0s128 57.31 128 128c0 70.7-57.3 128-128 128S96 198.7 96 128zm208 0c0-44.18-35.8-80-80-80s-80 35.82-80 80c0 44.2 35.8 80 80 80s80-35.8 80-80zm144 351.1c0 18.6-14.3 32-32 32H32c-17.67 0-32-13.4-32-32v-8c0-82.9 61.33-152.3 141.6-165L224 416l82.4-109.9c80.3 12.7 141.6 82.1 141.6 165v8zM122.6 360.9c-41.4 16.9-71.26 56.4-74.34 102.2H199.1l-76.5-102.2zm202.8 0L248 463.1h151.7c-3-45.8-32.9-85.3-74.3-102.2z"/></svg>