<svg xmlns="http://www.w3.org/2000/svg" viewBox="0 0 448 512"><!--! Font Awesome Pro 6.1.1 by @fontawesome - https://fontawesome.com License - https://fontawesome.com/license (Commercial License) Copyright 2022 Fonticons, Inc.--><path d="M358.6 328.8c20.5-20.2 36.5-45 46.2-72.8H416c8.75 0 16-7.25 16-16v-96c0-8.8-7.2-16-16-16h-11.25C378.5 53.5 307.6 0 224 0S69.5 53.5 43.25 128H32c-8.75 0-16 7.2-16 16v96c0 8.8 7.25 16 16 16h11.25c9.75 27.75 25.63 52.63 46.13 72.75C37.38 347.2 0 396.1 0 454.4V488c0 13.2 10.75 24 24 24s24-10.75 24-24v-33.63C48 406.8 86.75 368 134.4 368h13c23.5 10.2 49.4 16 76.6 16s53.13-5.75 76.63-16h13c47.57 0 86.37 38.8 86.37 86.4V488c0 13.25 10.75 24 24 24s24-10.75 24-24v-33.63c0-58.27-37.4-107.17-89.4-125.57zM224 336c-79.38 0-144-64.63-144-144S144.6 48 224 48s144 64.62 144 144-64.6 144-144 144zm80 80H144c-17.75 0-32 14.25-32 32v64h48v-48c0-8.8 7.3-16 16-16s16 7.2 16 16v48h144v-64c0-17.8-14.2-32-32-32zm-32 64c-8.75 0-16-7.25-16-16s7.25-16 16-16 16 7.25 16 16-7.2 16-16 16zm16-352H160c-26.5 0-48 21.5-48 48v16c0 53 43 96 96 96h32c53 0 96-43 96-96v-16c0-26.5-21.5-48-48-48zm-84 92-12 36-12-36-36-12 36-12 12-36 12 36 36 12-36 12z"/></svg>