<svg xmlns="http://www.w3.org/2000/svg" viewBox="0 0 512 512"><!--! Font Awesome Pro 6.1.1 by @fontawesome - https://fontawesome.com License - https://fontawesome.com/license (Commercial License) Copyright 2022 Fonticons, Inc.--><path d="M480 464c2.742-87.55-59.6-160.1-142.2-176L256 397.1 174.2 288C91.6 303 29.6 376.45 32.3 464c0 26.51 21.18 48 47.69 48h352c26.51 0 48.01-21.5 48.01-48zm-399.66 0-.047-1.504c-1.656-52.91 28.88-99.34 75.41-119.2L246.2 464H80.34zm351.36 0H265.8l90.51-120.7c46.53 19.83 77.06 66.26 75.41 119.2l-.02 1.5zM45.63 79.75l6.37 1.5v58.5C45 143.9 40 151.3 40 160c0 8.375 4.625 15.38 11.12 19.75L35.5 242c-1.75 6.9 2.13 14 7.63 14h41.75c5.5 0 9.375-7.125 7.625-13.1L76.88 179.8C83.38 175.4 88 168.4 88 160c0-8.75-5-16.12-12-20.25V87.13l52 12.5V144c0 70.75 57.25 127.1 128 127.1S384 214.8 384 144V99.62l82.25-19.87c18.25-4.375 18.25-27 0-31.5l-190.4-46C269.4.75 262.7 0 256.1 0s-13.3.75-19.8 2.25l-190.6 46c-18.2 4.38-18.2 27.13-.07 31.5zM176 111.2l60.08 14.52c13 3 26.62 3 39.63 0L336 111.2V144c0 44.1-35.9 80-80 80s-80-35.9-80-80v-32.8z"/></svg>