<svg xmlns="http://www.w3.org/2000/svg" viewBox="0 0 448 512"><!--! Font Awesome Pro 6.1.1 by @fontawesome - https://fontawesome.com License - https://fontawesome.com/license (Commercial License) Copyright 2022 Fonticons, Inc.--><path d="M314.7 352H133.3C59.7 352 0 411.7 0 485.3 0 500.1 11.94 512 26.66 512H421.3c14.8 0 26.7-11.9 26.7-26.7 0-73.6-59.7-133.3-133.3-133.3zm-264 112c9.498-36.76 42.95-64 82.64-64h181.3c39.69 0 73.14 27.24 82.64 64H50.7zM224 112c44.11 0 80 35.89 80 80 0 19.39-7.217 36.96-18.74 50.82a63.8 63.8 0 0 1 10.1 13.13l8.64.05c17.11 0 32.02-9.09 40.52-22.6C349 220.3 352 206.6 352 192c0-70.58-57.42-128-128-128S96 121.42 96 192c0 40.41 19.12 76.03 48.37 99.49-.07-1.19-.37-2.29-.37-3.49 0-17.62 7.164-33.6 18.73-45.19C151.2 228.9 144 211.4 144 192c0-44.1 35.9-80 80-80zM48 224c8.88 0 16-7.1 16-16v-16c0-88.25 71.75-160 160-160s160 71.75 160 160v16c0 44.1-35.9 80-80 80h-32c0-17.62-14.38-32-32-32h-32c-17.62 0-32 14.38-32 32s14.38 32 32 32h96c61.88-.125 111.9-50.13 112-112v-16C416 86.1 329.87 0 224 0S32 86.13 32 192v16c0 8.9 7.13 16 16 16z"/></svg>