<svg xmlns="http://www.w3.org/2000/svg" viewBox="0 0 448 512"><!--! Font Awesome Pro 6.1.1 by @fontawesome - https://fontawesome.com License - https://fontawesome.com/license (Commercial License) Copyright 2022 Fonticons, Inc.--><path d="M78.54 102.4v44.04C119.1 164.9 169.4 176 223.1 176s104.9-11.08 145.5-29.55V102.4l21.96-22.3c4.564-4.635 7.129-10.93 7.129-17.48 0-11.35-7.602-21.24-18.44-23.99L230.949.96a31.486 31.486 0 0 0-15.52 0l-148.3 37.67C57.06 41.39 49.46 51.28 49.46 62.62c0 6.555 2.564 12.85 7.129 17.48l21.951 22.3zM191.1 61.08l30-12.5c.8-.32 2.1-.58 2.9-.58.828 0 2.122.256 2.884.572l30 12.5a7.498 7.498 0 0 1 4.609 6.92C261.5 107.1 232.1 128 223.1 128c-7 0-36.6-19.8-36.6-60.9 0-2.14 1.8-4.87 4.6-6.02zM224 272c-41.23 0-74.9-31.51-79.15-71.64-16.75-3.26-32.85-7.56-48.4-12.86-.05 1.6-.45 3-.45 4.5 0 70.69 57.31 128 127.1 128s127.1-57.31 127.1-128c0-1.525-.358-2.941-.41-4.453C336 192.8 319.9 197.1 303.2 200.4c-4.3 40.1-38 71.6-79.2 71.6zm95.7 80.5-66.63 111L240 408l32-56h-96l32 56-13.07 55.55-66.63-111C57.05 355.2 0 413.4 0 485.3 0 500.1 11.94 512 26.66 512H421.3c14.8 0 26.7-11.9 26.7-26.7 0-71.9-57.9-130.1-128.3-132.8zM50.69 464c7.002-27.17 27.1-49.04 53.43-58.51L139.2 464H50.69zm258.11 0 35.11-58.51c26.33 9.469 46.43 31.34 53.43 58.51H308.8z"/></svg>