<svg xmlns="http://www.w3.org/2000/svg" viewBox="0 0 448 512"><!--! Font Awesome Pro 6.1.1 by @fontawesome - https://fontawesome.com License - https://fontawesome.com/license (Commercial License) Copyright 2022 Fonticons, Inc.--><path d="M96 128C96 57.31 153.3 0 224 0s128 57.31 128 128v10.1c0 34.8 13.5 67.4 37.5 91.4l3.9 3.9c4.2 4.2 6.6 10 6.6 16 0 12.5-10.1 22.6-22.6 22.6H70.63c-12.5 0-23.53-10.1-23.53-22.6 0-6 3.28-11.8 7.53-16l3.88-3.9c24-24 36.59-56.6 36.59-91.4L96 128zm201.3-32H296c-20.5 0-38.7-9.6-50.4-24.54C231.9 95.67 205.8 112 176 112h-30.4c-1 5.2-1.6 10.5-1.6 16v16c0 44.2 35.8 80 80 80s80-35.8 80-80v-16c0-11.4-2.4-22.2-6.7-32zM176 352c-5.4 0-10.8.3-16 .1v50.2c23.1 6.9 40 28.3 40 53.7 0 30.9-25.1 56-56 56s-56-25.1-56-56c0-25.4 16.9-46.8 40-53.7v-41c-46.91 19-80 65-80 118.7v8c0 13.3-10.75 24-24 24S0 501.3 0 488v-8c0-97.2 78.8-176 176-176h96c97.2 0 176 78.8 176 176v8c0 13.3-10.7 24-24 24s-24-10.7-24-24v-8c0-53.7-33.1-99.7-80-118.7v41c23.1 6.9 40 28.3 40 53.7v32c0 8.8-7.2 16-16 16s-16-7.2-16-16v-32c0-13.3-10.7-24-24-24s-24 10.7-24 24v32c0 8.8-7.2 16-16 16s-16-7.2-16-16v-32c0-25.4 16.9-46.8 40-53.7v-50.2c-5.2.2-10.6-.1-16-.1h-96zm-32 80c-13.3 0-24 10.7-24 24s10.7 24 24 24 24-10.7 24-24-10.7-24-24-24z"/></svg>