<svg xmlns="http://www.w3.org/2000/svg" viewBox="0 0 640 512"><!--! Font Awesome Pro 6.1.1 by @fontawesome - https://fontawesome.com License - https://fontawesome.com/license (Commercial License) Copyright 2022 Fonticons, Inc.--><path d="M630.8 469.1 381.3 273.6c48.66-23.06 82.65-72.14 82.65-129.6C463.95 64.47 399.48.9 320.85.9c-69.57 0-127.6 49.34-141.1 114.9L38.81 5.109A23.96 23.96 0 0 0 24.03 0C16.91 0 9.845 3.156 5.127 9.187-3.061 19.62-1.248 34.72 9.189 42.89L601.2 506.9c10.5 8.203 25.56 6.328 33.69-4.078 8.21-10.422 6.31-25.522-4.09-33.722zM224.7 150.8c-.2-2.3-.7-4.5-.7-6.8 0-52.94 43.07-96 96-96 52.94 0 96 43.06 96 96 0 47.32-34.49 86.51-79.61 94.34L224.7 150.8zM113.1 464c7.787-54.21 54.54-96 110.9-96h122.2l-61.26-47.1h-60.9c-88.36 0-160 71.63-160 159.1-.94 17.7 14.29 32 31.06 32l433.9-.005L468.6 464H113.1z"/></svg>