<svg xmlns="http://www.w3.org/2000/svg" viewBox="0 0 448 512"><!--! Font Awesome Pro 6.1.1 by @fontawesome - https://fontawesome.com License - https://fontawesome.com/license (Commercial License) Copyright 2022 Fonticons, Inc.--><path d="M96 93.06V176c0 70.75 57.25 128 128 128s128-57.25 128-128V93.06c18.6-6.61 32-24.19 32-45.06 0-26.51-21.5-48-48-48-14.42 0-27.2 6.488-36 16.55C291.2 6.488 278.4 0 264 0c-16.7 0-31.4 8.564-40 21.53C215.4 8.564 200.7 0 184 0c-14.4 0-27.2 6.488-36 16.55C139.2 6.488 126.4 0 112 0 85.49 0 64 21.49 64 48c0 20.87 13.4 38.45 32 45.06zM144 160h160v16c0 44.1-35.9 80-80 80s-80-35.9-80-80v-16zm128 256c-8.836 0-16 7.162-16 16 0 8.836 7.164 16 16 16s16-7.164 16-16c0-8.8-7.2-16-16-16zm80-59.5v-26.28c0-5.205-4.891-9.023-9.939-7.762L224 352l-118.1-29.52c-5-1.28-9.9 2.52-9.9 7.72v26.28C41.07 370.71.27 420.05 0 479.38-.08 497.3 14.1 512 32 512h384c17.9 0 32.08-14.7 32-32.59-.3-59.31-41.1-108.61-96-122.91zM128 432v32H49.64c6.053-29.22 28.38-53.23 58.4-61.01L144 393.7v-12.2l46.77 11.69-53.39 24.27C131.7 420 128 425.7 128 432zm32 32v-21.7l100.1-45.5a256.376 256.376 0 0 1 43.89-15.32v12.2l35.96 9.314C369.1 410.8 392.3 434.8 398.4 464H160z"/></svg>