<svg xmlns="http://www.w3.org/2000/svg" viewBox="0 0 448 512"><!--! Font Awesome Pro 6.1.1 by @fontawesome - https://fontawesome.com License - https://fontawesome.com/license (Commercial License) Copyright 2022 Fonticons, Inc.--><path d="M237.4 271.3c-5.3.5-8.9.7-13.4.7s-9-.2-13.4-.7l-18.5 16.8c-4.6 6.3-12.3 8.8-19.9 7.6-7.7-1.2-15.1-6.1-17.7-13l-6.1-12.2-19.5 7.8c-9.2 2.8-19.8 1.3-26.6-6-6.71-7.4-8.22-18.1-3.77-27 8.47-17.1 10.97-22.3 12.17-27.1.7-2.9 1.1-5.9 1.2-12.4-10.1-18.3-16.8-39.4-16.8-61.8v-16c0-7.1 1.47-14 2.57-20.7C91.8 102.9 87.1 95.88 87.1 88c0-13.25 11.64-24 24-24h2c22.2-38.26 63.5-64 110-64 48.3 0 89.6 25.74 111.8 64h1.1c13.3 0 24 10.75 24 24 0 7.88-3.8 14.9-9.7 19.3 1.1 6.7 1.7 13.6 1.7 20.7v16c0 22.4-5.8 43.5-15.9 61.8.1 6.5.5 9.5 1.2 12.4 1.2 4.8 2.8 10 12.2 27.1 4.4 8.9 2.9 19.6-3.8 27-6.8 7.3-17.4 8.8-26.6 6l-19.5-7.8-6.1 12.2c-3.5 6.9-10 11.8-17.7 13-7.6 1.2-15.3-1.3-20.8-7.6l-17.6-16.8zm64.9-159.9c-30.7-3.2-58.5-17.93-78.3-40.62a120.383 120.383 0 0 1-78.3 40.62c-1.1 5.3-1.7 10.9-1.7 16.6v16c0 18 5.1 34.6 16 48 14.6 19.4 37.8 32 64 32 26.2 0 49.4-12.6 64-32 10-13.4 16-30 16-48v-16c0-5.7-.6-11.3-1.7-16.6zM0 483.6C0 393.2 73.23 320 163.6 320h120.8c90.4 0 163.6 73.2 163.6 163.6 0 15.7-12.7 28.4-28.4 28.4H28.44C12.74 512 0 499.3 0 483.6zM398.4 464c-9.3-54.5-56.8-96-114-96H163.6c-57.2 0-104.66 41.5-113.95 96H398.4z"/></svg>