<svg xmlns="http://www.w3.org/2000/svg" viewBox="0 0 640 512"><!--! Font Awesome Pro 6.1.1 by @fontawesome - https://fontawesome.com License - https://fontawesome.com/license (Commercial License) Copyright 2022 Fonticons, Inc.--><path d="m104 178.2 144 113V488c0 6.4-2.5 12.5-7.9 16.1-3.6 5.4-9.7 7.9-16.1 7.9-6.4 0-12.5-2.5-17-7.9-4.5-3.6-7-9.7-7-16.1V271.1h-8c-23.3 0-45.7-8.4-62.2-24.9S104 207.3 104 183.1v-4.9zm535.8 306.9c.8 6.3-1 12.7-4.9 17.7-4.8 5-9.7 8.3-16 9-6.3.8-12.7-1-17.7-4.9L544 462.1l-48-37.8L9.184 42.88A24.002 24.002 0 0 1 5.26 9.293a23.995 23.995 0 0 1 15.92-9A24.02 24.02 0 0 1 38.82 5.12L104 56.19V24c0-6.37 2.5-12.47 7-16.971A24.01 24.01 0 0 1 128 0c6.4 0 12.5 2.529 16.1 7.029C149.5 11.53 152 17.63 152 24v69.82l48 37.68V25.6c0-6.37 2.5-12.47 7-16.971A24.01 24.01 0 0 1 224 1.6c6.4 0 12.5 2.529 16.1 7.029C245.5 13.13 248 19.23 248 25.6V144h48V24c0-6.37 2.5-12.47 7-16.971A24.01 24.01 0 0 1 320 0c6.4 0 12.5 2.529 16.1 7.029C341.5 11.53 344 17.63 344 24v160c0 17.3-5.1 34.3-14.8 48.7l54.1 42.5.7-101.4c-.9-36.9 11.1-73 31.8-103.52 20.6-30.57 50-54.24 84.3-67.944A31.51 31.51 0 0 1 512 0c8.5 0 16.6 3.372 22.6 9.372C540.6 15.37 544 23.51 544 32v369.1l86.8 68c5 3.9 8.3 9.7 9 16zM496 58.08c-19.6 12.25-35.8 29.31-47.9 49.52-10.3 20.3-16.2 43.1-16.1 66.2l-.8 113.3c0 5.1 1.7 9.2 4.7 12.2s6.2 3.8 11.3 3.8H495l1-245.02z"/></svg>