<svg xmlns="http://www.w3.org/2000/svg" viewBox="0 0 448 512"><!--! Font Awesome Pro 6.1.1 by @fontawesome - https://fontawesome.com License - https://fontawesome.com/license (Commercial License) Copyright 2022 Fonticons, Inc.--><path d="M448 71.3V488c0 6.4-2.5 12.5-7.9 16.1-3.6 5.4-9.7 7.9-16.1 7.9-6.4 0-12.5-2.5-17-7.9-4.5-3.6-7-9.7-7-16.1V352h-48.8c-8.4 0-16.8-1.7-24.6-4.9-7.7-3.3-14.8-8-20.8-14-5.9-6-10.6-13.1-14.7-20.9-2.3-7.8-3.9-16.2-3.9-24.6l.8-113.8c-.9-36.9 11.1-73 31.7-103.52 20.7-30.57 50.1-54.24 84.4-67.944A31.52 31.52 0 0 1 416 0c8.5 0 16.6 3.372 22.6 9.373C444.6 15.37 448 23.51 448 32v39.3zm-48-13.22c-19.6 12.25-35.8 29.31-47.9 49.52-10.3 20.3-16.2 43.1-16.1 66.2l-.8 114.2c0 4.2 1.7 8.3 4.7 11.3s6.2 4.7 11.3 4.7H399l1-245.92zM240.1 7.029C245.5 11.53 248 17.63 248 24v160c-.9 23.3-9.3 45.7-25.8 62.2S183.3 271.1 160 272h-8v216c0 6.4-2.5 12.5-7.9 16.1-3.6 5.4-9.7 7.9-16.1 7.9-6.4 0-12.5-2.5-17-7.9-4.5-3.6-7-9.7-7-16.1V272h-8c-23.33-.9-45.71-9.3-62.21-25.8A88.103 88.103 0 0 1 8 184V24A23.997 23.997 0 0 1 32 0a23.997 23.997 0 0 1 24 24v120h48V25.6c0-6.37 2.5-12.47 7-16.971A24.01 24.01 0 0 1 128 1.6c6.4 0 12.5 2.529 16.1 7.029C149.5 13.13 152 19.23 152 25.6V144h48V24c0-6.37 2.5-12.47 7-16.971A24.01 24.01 0 0 1 224 0c6.4 0 12.5 2.529 16.1 7.029zM184.9 214.9c7-5.9 11.8-14.8 13.5-22.9H57.6c1.72 8.1 6.48 17 13.48 22.9 7 5.8 15.81 9 24.92 9.1h64c9.1-.1 17.9-3.3 24.9-9.1z"/></svg>