<svg xmlns="http://www.w3.org/2000/svg" viewBox="0 0 640 512"><!--! Font Awesome Pro 6.1.1 by @fontawesome - https://fontawesome.com License - https://fontawesome.com/license (Commercial License) Copyright 2022 Fonticons, Inc.--><path d="M640 120C639.9 53.75 586.3.125 520 0H309.6C253.4 0 204 39.88 192.2 94.88L130.2 384H96c-53 0-96 43-96 96v16c0 8.9 7.125 16 16 16h208c17.62 0 32-14.38 32-32v-64c0-17.62-14.38-32-32-32h-44.6l59.8-279.1c7.3-33.15 36.6-56.78 70.4-56.9H520c33.5-.125 62.5 22.88 70.13 55.5 7.625 32.5-8.25 66-38.38 80.75C515.9 148.1 467 127.9 416 128h-32c-17.62 0-32 14.38-32 32v171.2c15-7.3 31.4-11.1 48-11.2V176h16c79.38 0 144 64.62 144 144v128c0 8.875-7.125 16-16 16h-37.25c-5.25 18.12-15.13 34.63-28.5 48H544c35.38 0 64-28.62 64-64V320c0-34.5-9.375-68.25-27-97.88 35.1-20.72 59-58.32 59-102.12zM208 432v32H50.75c6.75-19.12 24.87-32 45.25-32h112zm192-80c-44.13 0-80 35.88-80 80s35.88 80 80 80 80-35.88 80-80-35.9-80-80-80zm0 96c-8.875 0-16-7.125-16-16s7.125-16 16-16 16 7.125 16 16-7.1 16-16 16z"/></svg>