<svg xmlns="http://www.w3.org/2000/svg" viewBox="0 0 512 512"><!--! Font Awesome Pro 6.1.1 by @fontawesome - https://fontawesome.com License - https://fontawesome.com/license (Commercial License) Copyright 2022 Fonticons, Inc.--><path d="M139.3 308.7c-6.25-6.25-16.38-6.25-22.63 0s-6.25 16.38 0 22.63l64 64c3.125 3.125 7.219 4.688 11.31 4.688s8.188-1.563 11.31-4.688c6.25-6.25 6.25-16.38 0-22.63l-63.99-64zm96-96c-6.25-6.25-16.38-6.25-22.63 0s-6.25 16.38 0 22.63l64 64c3.13 3.07 7.23 3.77 11.33 3.77s8.188-1.563 11.31-4.688c6.25-6.25 6.25-16.38 0-22.63L235.3 212.7zm-80 16c-6.25-6.25-16.38-6.25-22.62 0s-6.25 16.38 0 22.63l128 128c3.125 3.125 7.219 4.688 11.31 4.688s8.188-1.563 11.31-4.688c6.25-6.25 6.25-16.38 0-22.63l-128-128zM256 96c-42.8 0-83.1 16.7-113.3 47.1-9.4 9.3-9.4 24.6 0 33.9 9.406 9.344 24.59 9.344 33.94-.063C197.8 155.7 225.1 144 256 144c61.75 0 112 50.25 112 112 0 30-11.7 58.16-32.94 79.34-9.391 9.375-9.422 24.56-.063 33.94C339.7 374 345.8 376.3 352 376.3c6.125 0 12.27-2.344 16.94-7C399.3 339.1 416 298.8 416 256c0-88.2-71.8-160-160-160zm0-96C114.6 0 0 114.6 0 256s114.6 256 256 256 256-114.6 256-256S397.4 0 256 0zm0 464c-114.7 0-208-93.31-208-208S141.3 48 256 48s208 93.31 208 208-93.3 208-208 208z"/></svg>