<svg xmlns="http://www.w3.org/2000/svg" viewBox="0 0 640 512"><!--! Font Awesome Pro 6.1.1 by @fontawesome - https://fontawesome.com License - https://fontawesome.com/license (Commercial License) Copyright 2022 Fonticons, Inc.--><path d="M640 320c0 35.3-28.7 64-64 64 0 53-43 96-96 96-53.9 0-96-43-96-96H256c0 53-43 96-96 96-53.9 0-96-43-96-96-35.35 0-64-28.7-64-64V96c0-35.35 28.65-64 64-64h401.2c16.4 0 32 7.21 42.7 19.73L626.7 191.5c8.6 10.1 13.3 23 13.3 36.3V320zM48 192h128V80H64c-8.84 0-16 7.16-16 16v96zm0 48v80c0 8.8 7.16 16 16 16h12.84c16.6-28.7 47.66-48 83.16-48s66.6 19.3 83.2 48h153.6c16.6-28.7 47.7-48 83.2-48s66.6 19.3 83.2 48H576c8.8 0 16-7.2 16-16v-80H48zm176-48h112V80H224v112zm160 0h180.1L471.3 82.82c-1.5-1.79-3.8-2.82-6.1-2.82H384v112zm96 144c-26.5 0-48 21.5-48 48s21.5 48 48 48 48-21.5 48-48-21.5-48-48-48zm-320 96c26.5 0 48-21.5 48-48s-21.5-48-48-48-48 21.5-48 48 21.5 48 48 48z"/></svg>