<svg xmlns="http://www.w3.org/2000/svg" viewBox="0 0 640 512"><!--! Font Awesome Pro 6.1.1 by @fontawesome - https://fontawesome.com License - https://fontawesome.com/license (Commercial License) Copyright 2022 Fonticons, Inc.--><path d="M456 232H184c-13.2 0-24 10.8-24 24s10.75 24 24 24h272c13.2 0 24-10.8 24-24s-10.8-24-24-24zm0 72H184c-13.2 0-24 10.8-24 24s10.8 24 24 24h272c13.25 0 24-10.75 24-24s-10.8-24-24-24zm152-144h-32v-32c0-35.36-28.64-64-64-64H128c-35.36 0-64 28.64-64 64v32H32c-17.66 0-32 14.3-32 32v128c0 17.66 14.34 32 32 32h32v32c0 35.36 28.64 64 64 64h384c35.36 0 64-28.64 64-64v-32h32c17.66 0 32-14.34 32-32V192c0-17.7-14.3-32-32-32zm-80 224c0 8.832-7.168 16-16 16H128c-8.832 0-16-7.168-16-16V128c0-8.832 7.168-16 16-16h384c8.832 0 16 7.168 16 16v256zm-72-224H184c-13.2 0-24 10.8-24 24s10.8 24 24 24h272c13.2 0 24-10.8 24-24s-10.8-24-24-24z"/></svg>