<svg xmlns="http://www.w3.org/2000/svg" viewBox="0 0 640 512"><!--! Font Awesome Pro 6.1.1 by @fontawesome - https://fontawesome.com License - https://fontawesome.com/license (Commercial License) Copyright 2022 Fonticons, Inc.--><path d="M248 392h-48v-41.82C285.8 338.4 352 265 352 176 352 78.8 273.2 0 176 0S0 78.8 0 176c0 89.04 66.18 162.4 152 174.2V392h-48c-13.25 0-24 10.75-24 24s10.75 24 24 24h48v48c0 13.3 10.8 24 24 24s24-10.75 24-24v-48h48c13.25 0 24-10.75 24-24s-10.7-24-24-24zm-72-88c-70.58 0-128-57.42-128-128S105.42 48 176 48s128 57.42 128 128-57.4 128-128 128zM616 0H504c-13.2 0-24 10.75-24 24s10.75 24 24 24h54.06l-52.29 52.29c-31.3-23.72-68.42-36.26-105.8-36.26-15.19 0-30.15 2.657-44.93 6.565 8.125 13.74 14.89 28.38 19.71 43.9C382.9 112.9 391.4 112 400 112c34.19 0 66.33 13.31 90.51 37.49 49.91 49.91 49.91 131.1 0 181C466.3 354.7 434.2 368 400 368c-32.98 0-63.89-12.64-87.75-35.22-12.23 10.64-25.65 19.9-40.12 27.49 1.252 1.33 2.115 2.881 3.416 4.182C309.9 398.8 354.1 416 400 416c45.04 0 90.09-17.18 124.5-51.55 62.92-62.92 67.54-161.2 15.26-230.2L592 81.94V136c0 13.3 10.8 24 24 24s24-10.7 24-24V24c0-13.25-10.7-24-24-24z"/></svg>