<svg xmlns="http://www.w3.org/2000/svg" viewBox="0 0 640 512"><!--! Font Awesome Pro 6.1.1 by @fontawesome - https://fontawesome.com License - https://fontawesome.com/license (Commercial License) Copyright 2022 Fonticons, Inc.--><path d="M624 176C624 78.8 545.2 0 448 0c-39.02 0-74.95 12.85-104.1 34.34 10.98 11.76 20.64 24.74 28.68 38.8C393.8 57.53 419.7 48 448 48c70.58 0 128 57.42 128 128s-57.42 128-128 128c-28.3 0-54.23-9.531-75.45-25.14-8.041 14.06-17.7 27.04-28.68 38.8 23.07 16.98 50.44 28.26 80.13 32.38V392h-48c-13.2 0-24 10.8-24 24s10.75 24 24 24h48v48c0 13.25 10.75 24 24 24s24-10.75 24-24v-48h48c13.25 0 24-10.75 24-24s-10.75-24-24-24h-48v-41.82C557.8 338.4 624 265 624 176zm-256 0C368 78.8 289.2 0 192 0S16 78.8 16 176c0 89.04 66.18 162.4 152 174.2V392h-48c-13.2 0-24 10.8-24 24s10.75 24 24 24h48v48c0 13.3 10.8 24 24 24s24-10.75 24-24v-48h48c13.3 0 24-10.7 24-24s-10.75-24-24-24h-48v-41.82C301.8 338.4 368 265 368 176zM192 304c-70.58 0-128-57.42-128-128S121.42 48 192 48s128 57.42 128 128-57.4 128-128 128z"/></svg>