<svg xmlns="http://www.w3.org/2000/svg" viewBox="0 0 448 512"><!--! Font Awesome Pro 6.1.1 by @fontawesome - https://fontawesome.com License - https://fontawesome.com/license (Commercial License) Copyright 2022 Fonticons, Inc.--><path d="M438.9 251.6 400 185.5V56c0-28.14-20.93-51.27-48-55.19V0h-38.84c-9.447 0-17.73 5.65-21.61 14.12l-9.863 6.57c-35.03 23.38-80.28 23.38-115.4 0l-9.887-6.57C152.6 5.65 144.3 0 134.8 0H96v.809C68.93 4.73 48 27.86 48 56v129.5L10.09 250C3.5 259.5 0 270.6 0 282.1V456c0 30.9 25.13 56 56 56h336c30.88 0 56-25.12 56-56V282.1c0-11.5-3.5-22.6-9.1-30.5zm-245.5 36.3c-.9 2.6-1.4 5.4-1.4 8.1v168H56c-4.406 0-8-3.594-8-8V282.1c0-1.625.531-3.25 2.469-6.188l42.22-71.75A24.03 24.03 0 0 0 96 192V56c0-4.41 3.59-8 8-8h13.94l80.59 225.6-5.13 14.3zM180.2 79.77c14.3 4.31 29.1 6.48 43.8 6.48s29.49-2.168 43.76-6.479L224 202.3 180.2 79.77zM400 456c0 4.406-3.594 8-8 8H240V300.2L330.1 48H344c4.4 0 8 3.59 8 8v136c0 4.281 1.156 8.469 3.312 12.16l43.22 73.31c.968 1.33 1.468 3.03 1.468 4.63V456zm-57.5-169.5-5.051.037.037-5.057c.072-12.8-9.268-24.26-22.06-25.42-14.68-1.31-27.07 10.22-27.21 24.62L288 329.3c-.9 3.7 2.1 6.7 6.7 6.7l48.53-.215c14.43-.11 25.98-12.47 24.67-27.17-1.2-12.815-12.6-22.115-25.4-22.115zM112 360c-22.09 0-40 17.91-40 40s17.91 40 40 40 40-17.91 40-40-17.9-40-40-40zm-27.31-99.3c-6.25 6.25-6.25 16.38 0 22.62L97.38 296l-12.69 12.7c-6.25 6.25-6.25 16.38 0 22.62C87.81 334.4 91.91 336 96 336s8.188-1.562 11.31-4.688L120 318.6l12.69 12.69C135.8 334.4 139.9 336 144 336s8.188-1.562 11.31-4.688c6.25-6.25 6.25-16.38 0-22.62L142.6 296l12.69-12.69c6.25-6.25 6.25-16.38 0-22.62s-16.38-6.25-22.62 0L120 273.4l-12.7-12.7c-6.2-6.3-16.36-6.3-22.61 0z"/></svg>