<svg xmlns="http://www.w3.org/2000/svg" viewBox="0 0 512 512"><!--! Font Awesome Pro 6.1.1 by @fontawesome - https://fontawesome.com License - https://fontawesome.com/license (Commercial License) Copyright 2022 Fonticons, Inc.--><path d="M504.1 183 328.1 7c-3.8-4.656-10-7-16.1-7a24 24 0 0 0-16.97 7.031c-9.375 9.375-9.375 24.56 0 33.94l15.16 15.16-277.3 276.5c-38.75 38.75-45.13 102-9.375 143.5C44.08 500 72.76 512 101.5 512h.447c26.38 0 52.75-9.1 72.88-30.12l281-280.1 15.19 15.19C475.7 221.7 481.8 224 488 224s12.28-2.344 16.97-7.031c9.33-9.369 9.33-24.569-.87-33.969zm-170.7 73H177.7L344 90.1l77.82 77.73L333.4 256z"/></svg>