<svg xmlns="http://www.w3.org/2000/svg" viewBox="0 0 640 512"><!--! Font Awesome Pro 6.1.1 by @fontawesome - https://fontawesome.com License - https://fontawesome.com/license (Commercial License) Copyright 2022 Fonticons, Inc.--><path d="M630.8 469.1 448 325.8v-126l112-51.33V344c0 13.25 10.75 24 24 24s24-10.7 24-24V136c0-13.69-6.875-26.27-18.39-33.67-11.53-7.406-25.88-8.391-38.28-2.688L448 147v-19c0-35.35-28.65-64-64-64l-270.1-.9L38.81 5.111C28.35-3.061 13.32-1.249 5.121 9.189-3.051 19.63-1.233 34.72 9.189 42.89l591.1 463.1C605.6 510.3 610.8 512 615.1 512c7.125 0 14.16-3.161 18.9-9.193 9.1-10.407 7.2-25.507-3.2-33.707zM400 288.2 175.2 112H384c8.836 0 16 7.162 16 16v160.2zM384 400H96c-8.822 0-16-7.178-16-16V158.9l-47.37-37.1c-.21 2.1-.63 4.1-.63 6.2v256c0 35.35 28.65 64 64 64h288c16.68 0 31.74-6.537 43.13-16.99l-40.29-31.58c-.94.17-1.84.57-2.84.57z"/></svg>