<svg xmlns="http://www.w3.org/2000/svg" viewBox="0 0 640 512"><!--! Font Awesome Pro 6.1.1 by @fontawesome - https://fontawesome.com License - https://fontawesome.com/license (Commercial License) Copyright 2022 Fonticons, Inc.--><path d="m481.7 127.2-1.7-.5v39.7l4.2 4.8c27.2 31.5 62.5 55.1 102 68.2l4.9 1.7c1.6.5 3.1 1.1 4.6 1.9 3.1 1.8 5.8 4.2 7.8 6.1 2 3.7 3.4 6.9 4.1 10.5.5 2.7.6 5.5.1 8.2-.5 2.8-1.4 5.5-3.6 7.9-.9 3.1-3.3 5.8-6.1 7.8s-6.9 3.4-9.6 4.1c-1.6.3-3.3.4-5 .4H544v36.6l6.2 10.7c17.2 29.6 43.4 52.9 73.9 66.4 9.7 3.6 15.9 12.2 15.9 22.3 0 13.3-10.7 24-24 24h-40v40c0 13.3-10.7 24-24 24s-24-10.7-24-24v-40H344v40c0 13.3-10.7 24-24 24s-24-10.7-24-24v-40H112v40c0 13.3-10.7 24-24 24-13.25 0-24-10.7-24-24v-40H24c-13.25 0-24-10.7-24-24 0-10.1 6.213-18.7 15.02-22.3 31.4-13.5 57.61-36.8 74.78-66.4l6.2-10.7V288H56.55c-1.68 0-3.35-.1-4.98-.4-3.53-.7-6.79-2.1-9.6-4.1-2.81-2-5.2-4.7-6.95-7.8-1.33-2.4-2.26-5.1-2.71-7.9-.46-2.7-.41-5.5.1-8.2.66-3.6 2.09-6.8 4.12-10.5 2.02-1.9 4.66-4.3 7.81-6.1 1.44-.8 2.98-1.4 4.6-1.9l4.83-1.7c39.53-13.1 74.83-36.7 102.03-68.2l4.2-4.8v-39.7l-1.7.5c-12.8 3.4-26-4.1-29.5-16.9-3.4-12.77 4.1-25.96 16.9-29.45l23.5-6.43c40-10.9 77.8-28.62 110.9-52.39l25.7-17.369c1.3-.946 2.6-1.753 4.1-2.415C313.1.731 316.6-.003 320 0c3.4-.003 6.9.73 10.1 2.246 1.5.663 2.8 1.47 4.1 2.415L359 22.03c33.1 23.77 71.8 41.49 111.8 52.39l23.5 6.43c12.8 3.49 20.3 16.68 16.9 29.45-3.5 12.8-16.7 20.3-29.5 16.9zM208 112.7V160h224v-47.3c-35.7-12.4-69.5-29.65-100.5-51.35L320 53.3l-11.5 8.05c-31 21.7-64.8 38.95-100.5 51.35zM496 320v-32H144v32h352zm-343.2-80h334.4c-12.3-9.6-23.9-20.3-34.5-32H187.3c-10.6 11.7-22.2 22.4-34.5 32zm-52.3 160h439c-9.5-9.8-18-20.5-26.4-32H126c-7.5 11.5-16.9 22.2-25.5 32z"/></svg>