<svg xmlns="http://www.w3.org/2000/svg" viewBox="0 0 640 512"><!--! Font Awesome Pro 6.1.1 by @fontawesome - https://fontawesome.com License - https://fontawesome.com/license (Commercial License) Copyright 2022 Fonticons, Inc.--><path d="M519.1 48.01c13.25 0 24-10.75 24-24s-10.75-24-24-24-24 10.75-24 24 11.6 24 24 24zm-48 48c13.25 0 24-10.75 24-24s-10.75-24-24-24-24 10.75-24 24 11.6 24 24 24zm10 96.79L635.2 38.7c6.251-6.25 6.251-16.38 0-22.63L623.95 4.82c-6.251-6.25-16.38-6.25-22.63 0l-154.3 154.1c-15.38-12.88-33-23-52.5-27.5-18.75-4.375-64.06-10-98.07 24-3.65 3.58-6.45 7.88-9.25 11.98 6.6 48.9-40.8 85.5-86 68.2-16.1 5.2-29.3 13.2-41 24.9-42.5 42.38-41.9 113.6-3.274 171.3l-21.86 14.5c-4 2.75-6.642 6.996-7.017 11.75-.5 4.75 1.12 9.503 4.62 12.88l36.39 36.38c3.375 3.5 8.124 5.114 12.87 4.614 4.75-.375 9.001-3.011 11.75-7.011l14.38-21.74c28.25 19 59.84 28.73 89.59 28.73 31 0 60.19-10.5 81.82-32.13 11.75-11.63 19.75-25.75 24.88-41-17.25-45 19.25-92.38 68-85.88 4.125-2.875 8.5-5.75 12.25-9.5 24.88-25 32.38-61.56 24-97.94C504.1 225.8 493.1 208.3 481.1 192.8zm-26.2 111.6c-61.38 5-113.4 62.75-101.1 130.8-5 8.75-20.63 28.75-56.01 28.75-21.38 0-43.25-7.375-62.88-20.63l4.727-7.194a15.95 15.95 0 0 0-2.001-20.16l-13.45-13.47c-5.501-5.375-13.82-6.251-20.2-2l-7.211 4.829c-13.25-19.75-20.75-41.75-20.75-63 0-26.25 11.63-46.13 28.88-56 68.51 12.38 126-39.63 130.9-101.4 10-7.25 21.75-8.875 30.38-8.875 6.001 0 11.88.75 17.63 2.125 11 2.5 21 8.5 29.25 15l-88.26 88.25c-6.251 6.25-6.251 16.38 0 22.63l11.25 11.25c6.251 6.25 16.38 6.25 22.63 0l88.38-88.25c6.376 8.375 12.38 18.25 14.88 29.25C466.2 275.2 463.6 292.4 454.9 304.4zM615.1 96.01c-13.25 0-24 10.75-24 24s10.75 24 24 24C629.3 144 640 133.3 640 120s-10.7-23.99-24.9-23.99zm-48 47.99c-13.25 0-24 10.75-24 24s10.75 24 24 24 24-10.75 24-24-9.9-24-24-24zM345 7.031c-9.376-9.375-24.56-9.375-33.94 0L7.032 311c-9.376 9.375-9.376 24.56 0 33.94 4.688 4.688 10.83 7.031 16.97 7.031s12.28-2.344 16.97-7.031l304-304c9.428-9.35 9.428-24.53.028-33.909z"/></svg>