<svg xmlns="http://www.w3.org/2000/svg" viewBox="0 0 640 512"><!--! Font Awesome Pro 6.1.1 by @fontawesome - https://fontawesome.com License - https://fontawesome.com/license (Commercial License) Copyright 2022 Fonticons, Inc.--><path d="M320 401.1c-19.11-26.68-50.43-44.12-85.75-44.12-5.643 0-11.22.455-16.7 1.348 3.096-18.87 1.018-38.63-6.658-57.16C203.2 282.6 190.7 267.2 175.1 255.1c4.793-3.434 9.178-7.404 13.34-11.62L150 214.3c-9.5 7.9-21.5 13.3-36.9 13.3H92.44c-15.72 0-28.45 12.72-28.45 28.45s12.72 28.44 28.45 28.44h21.55c50.68 0 76.06 61.28 40.23 97.11l-15.25 15.25c-11.11 11.11-11.11 29.11 0 40.22a28.346 28.346 0 0 0 20.11 8.332c7.276 0 14.55-2.779 20.11-8.334l15.24-15.25c11.59-11.59 25.84-16.77 39.82-16.77 29.25 0 57.3 22.71 57.3 56.1v21.55c0 15.72 12.72 28.45 28.45 28.45s28.45-12.72 28.45-28.45v-21.55c0-29.95 21.41-51.05 46.31-55.92l-42.91-33.63C339.4 379.9 328.4 389.4 320 401.1zm310.8 68L469.6 342.7c-.514-29.6 21.73-58.3 56.41-58.3h21.55c15.72 0 28.45-12.72 28.45-28.44s-12.72-28.45-28.45-28.45h-21.55c-50.68 0-76.06-61.28-40.23-97.11l15.25-15.25c11.11-11.11 11.11-29.11.001-40.22-5.555-5.555-12.83-8.333-20.11-8.333s-14.56 2.779-20.11 8.333l-15.24 15.24c-11.59 11.59-25.84 16.78-39.81 16.78-29.25 0-57.3-22.71-57.3-57V28.44C348.4 12.72 335.7 0 319.1 0s-27.5 12.72-27.5 28.44v21.55c0 34.29-27.91 56.99-57.16 56.99-13.98 0-28.37-5.175-39.96-16.76L179.2 74.97c-5.557-5.555-12.83-8.333-20.11-8.333S144.5 69.42 138.1 74.97c-.8 1.68-1.9 3.62-3.1 5.56L38.81 5.112A23.963 23.963 0 0 0 24.03 0C16.91 0 9.845 3.159 5.126 9.19c-8.187 10.44-6.375 25.53 4.063 33.7l591.1 463.1c10.5 8.203 25.56 6.328 33.69-4.078C643.1 492.4 641.2 477.3 630.8 469.1zM429.1 301.2c-1.059 2.557-1.756 5.18-2.602 7.777L229.6 154.6c1.574.072 3.107.379 4.691.379 35.32 0 66.63-17.43 85.74-44.12 19.11 26.69 50.43 44.12 85.74 44.12 5.643 0 11.22-.455 16.7-1.35-3.096 18.87-1.018 38.63 6.658 57.16 7.691 18.57 20.23 34.04 35.8 45.19C449.3 267.2 436.8 282.6 429.1 301.2z"/></svg>