<svg xmlns="http://www.w3.org/2000/svg" viewBox="0 0 640 512"><!--! Font Awesome Pro 6.1.1 by @fontawesome - https://fontawesome.com License - https://fontawesome.com/license (Commercial License) Copyright 2022 Fonticons, Inc.--><path d="M224 192c-8.8 0-16 7.2-16 16s7.2 16 16 16 16-7.164 16-16-7.2-16-16-16zm-48-40c-13.26 0-24 10.75-24 24s10.7 24 24 24 24-10.7 24-24-10.7-24-24-24zm448 200h-12.12c-28.51 0-42.79-34.47-22.63-54.63l8.576-8.576c6.25-6.25 6.25-16.37 0-22.62-3.125-3.125-7.219-4.691-11.31-4.691s-8.188 1.562-11.31 4.688l-8.576 8.576c-6.518 6.518-14.53 9.436-22.39 9.436C527.8 284.2 512 271.4 512 252.1V240c0-8.8-7.2-16-16-16s-16 7.2-16 16v12.12c0 19.29-15.78 32.06-32.23 32.06-7.863 0-15.88-2.916-22.4-9.436l-8.576-8.576c-3.125-3.125-7.219-4.688-11.31-4.688s-8.184 1.559-11.31 4.684c-6.25 6.25-6.253 16.38-.003 22.63l8.576 8.576C422.9 317.5 408.6 352 380.1 352H368c-8.844 0-16 7.156-16 16s7.156 16 16 16h12.12c28.51 0 42.79 34.47 22.63 54.63l-8.576 8.576c-6.25 6.25-6.253 16.37-.003 22.62 3.125 3.125 7.222 4.691 11.32 4.691s8.188-1.562 11.31-4.688l8.576-8.576c6.518-6.518 14.53-9.436 22.4-9.436C464.2 451.8 480 464.6 480 483.9V496c0 8.844 7.156 16 16 16s16-7.156 16-16v-12.12c0-19.29 15.78-32.06 32.23-32.06 7.863 0 15.88 2.916 22.39 9.436l8.576 8.576c3.125 3.125 7.219 4.688 11.31 4.688s8.184-1.559 11.31-4.684c6.25-6.25 6.253-16.38.003-22.63l-8.576-8.576C569.1 418.5 583.4 384 611.9 384H624c8.844 0 16-7.156 16-16s-7.2-16-16-16zm-160 40c-13.25 0-24-10.75-24-24 0-13.26 10.75-24 24-24s24 10.74 24 24c0 13.3-10.7 24-24 24zM346.5 213.3h16.16c11.84 0 21.34-9.5 21.34-21.3s-9.541-21.33-21.33-21.33h-16.16c-38.01 0-57.05-45.96-30.17-72.84l11.44-11.44c8.332-8.334 8.331-21.83-.001-30.17-4.168-4.166-9.624-6.247-15.08-6.247s-10.92 2.083-15.08 6.249L286.2 67.66c-8.7 8.69-19.4 12.59-29.9 12.59-21.94 0-42.97-17.03-42.97-42.75V21.33C213.3 9.54 203.8 0 192 0s-21.3 9.54-21.3 21.33v16.16c0 25.72-21.04 42.75-42.97 42.75-10.48 0-21.17-3.889-29.86-12.58L86.4 56.23c-4.168-4.166-9.625-6.249-15.08-6.249s-10.91 2.081-15.08 6.247c-8.332 8.334-8.333 21.83-.001 30.17L67.66 97.83c26.88 26.88 7.842 72.84-30.17 72.84H21.33C9.541 170.7 0 180.2 0 192s9.541 21.33 21.33 21.33h16.16c38.01 0 57.05 45.96 30.17 72.84L56.23 297.6c-8.332 8.334-8.328 21.83.004 30.17 4.168 4.166 9.621 6.248 15.08 6.248s10.92-2.084 15.08-6.25L97.83 316.3c8.691-8.691 19.38-12.58 29.86-12.58 21.94 0 42.97 17.03 42.97 42.75v16.16C170.7 374.5 180.2 384 192 384s21.33-9.541 21.33-21.33v-16.16c0-25.72 21.04-42.75 42.97-42.75 10.48 0 21.17 3.889 29.86 12.58l11.43 11.43c4.168 4.166 9.625 6.25 15.08 6.25s10.91-2.082 15.08-6.248c8.332-8.334 8.333-21.83.001-30.17L316.3 286.2c-26.8-26.9-7.8-72.9 30.2-72.9zm-83.8 8c-4.6 11.2-6.9 22.9-6.9 34.5-24.9.1-47.4 10.2-63.8 26.6-16.4-16.4-38.9-26.5-63.8-26.6 0-11.6-2.3-23.3-6.9-34.5-4.7-11.2-12.2-21.1-19.5-29.3 8.176-8.229 14.84-18.11 19.48-29.3 4.62-11.2 6.92-22.9 6.92-34.5 24.9-.1 47.4-11.1 63.8-26.6 16.36 16.33 38.91 26.48 63.79 26.62.01 11.58 2.31 23.28 6.91 34.48 4.7 11.2 11.3 21.1 19.5 29.3-8.2 8.2-14.8 18.1-19.5 29.3z"/></svg>