<svg xmlns="http://www.w3.org/2000/svg" viewBox="0 0 512 512"><!--! Font Awesome Pro 6.1.1 by @fontawesome - https://fontawesome.com License - https://fontawesome.com/license (Commercial License) Copyright 2022 Fonticons, Inc.--><path d="M256 224c0 17.7-14.3 32-32 32s-32-14.3-32-32 14.3-32 32-32 32 14.3 32 32zm24 80c0-13.3 10.7-24 24-24s24 10.7 24 24-10.7 24-24 24-24-10.7-24-24zM120.2 74.98l8.2 8.17c35.3 35.25 95.6 10.29 95.6-39.6V32c0-17.67 14.3-32 32-32s32 14.33 32 32v11.55c0 49.89 60.3 74.85 95.6 39.6l8.2-8.17c12.5-12.5 32.7-12.5 45.2 0s12.5 32.72 0 45.22l-8.1 8.2c-35.3 35.3-10.3 95.6 39.6 95.6H480c17.7 0 32 14.3 32 32s-14.3 32-32 32h-11.5c-49.9 0-74.9 60.3-39.6 95.6l8.1 8.2c12.5 12.5 12.5 32.7 0 45.2s-32.7 12.5-45.2 0l-8.2-8.1c-35.3-35.3-95.6-10.3-95.6 39.6V480c0 17.7-14.3 32-32 32s-32-14.3-32-32v-11.5c0-49.9-60.3-74.9-95.6-39.6l-8.2 8.1c-12.5 12.5-32.72 12.5-45.22 0s-12.5-32.7 0-45.2l8.17-8.2c35.25-35.3 10.29-95.6-39.6-95.6H32c-17.67 0-32-14.3-32-32s14.33-32 32-32h11.55c49.89 0 74.85-60.3 39.6-95.6l-8.17-8.2c-12.5-12.5-12.5-32.72 0-45.22s32.72-12.5 45.22 0zM256 105.3c-23.7 33.6-66.9 51.1-106.5 44.2 6.9 39.6-10.6 82.8-44.2 106.5 33.6 23.7 51.1 66 44.2 106.5 39.6-6.9 82.8 10.6 105.6 44.2 24.6-33.6 66.9-51.1 107.4-44.2-6.9-40.5 10.6-82.8 44.2-106.5-33.6-23.7-51.1-66.9-44.2-106.5-40.5 6.9-82.8-10.6-107.4-44.2h.9z"/></svg>