<svg xmlns="http://www.w3.org/2000/svg" viewBox="0 0 512 512"><!--! Font Awesome Pro 6.1.1 by @fontawesome - https://fontawesome.com License - https://fontawesome.com/license (Commercial License) Copyright 2022 Fonticons, Inc.--><path d="M159.1 144c12.88 0 24.75-3.875 34.75-10.38L223.1 192h64l29.25-58.38C327.3 140.1 339.1 144 352 144c35.25 0 64-28.75 64-64s-28.75-64-64-64c-15.75 0-30 5.875-41.25 15.38C299.6 12.75 279.4 0 255.1 0s-42.7 12.75-53.9 31.38C189.1 21.88 175.7 16 159.1 16c-35.25 0-64 28.75-64 64s29.6 64 64 64zm346.4 316.8L329.7 236.3c-6.2-7.8-15.4-12.3-25.3-12.3h-96.8c-9.9 0-19.1 4.5-25.2 12.3L6.5 460.8C-9.396 481.9 5.727 512 32.1 512H480c26.3 0 41.4-30.1 25.5-51.2zM64.91 464l116.6-148.8C192 304 209.4 302.5 224.2 302.3c17.12-1.5 33.5 7 44.75 20l31.63 36.88c9.75 11.38 29.13 11.38 39 0l13.26-15.46L447.1 464H64.91z"/></svg>