<svg xmlns="http://www.w3.org/2000/svg" viewBox="0 0 640 512"><!--! Font Awesome Pro 6.1.1 by @fontawesome - https://fontawesome.com License - https://fontawesome.com/license (Commercial License) Copyright 2022 Fonticons, Inc.--><path d="m630.8 469.1-88.78-69.59C583.9 362.8 608 310.9 608 256c0-57.12-25.84-111.1-70.88-147.1a23.967 23.967 0 0 0-15.2-5.416c-6.934 0-13.82 2.979-18.58 8.76-8.406 10.25-6.906 25.38 3.344 33.78C540.6 172.9 560 213.3 560 256c0 42.69-19.44 83.09-53.31 110.9-1.047.86-1.597 2.027-2.46 3.013l-44.33-34.74c.508.033.967.325 1.477.325 5.344 0 10.75-1.781 15.19-5.406C499.1 311.6 512 284.7 512 256c0-28.65-12.91-55.62-35.44-74.06a24.057 24.057 0 0 0-15.2-5.4c-6.949 0-13.83 2.994-18.55 8.807-8.406 10.25-6.906 25.38 3.375 33.78C457.5 228.4 464 241.8 464 256s-6.5 27.62-17.81 36.88c-7.723 6.314-10.49 16.41-7.824 25.39L384 275.7V64c0-12.59-7.337-24.01-18.84-29.16A32.122 32.122 0 0 0 352 31.999a31.994 31.994 0 0 0-21.27 8.1L214.9 143.1 38.81 5.111C28.34-3.061 13.32-1.249 5.12 9.189-3.051 19.63-1.234 34.72 9.188 42.89l591.1 463.1C605.6 510.3 610.8 512 615.1 512c7.125 0 14.16-3.161 18.9-9.193 9.1-10.407 7.2-25.507-3.2-33.707zM336 238l-82.7-64.8L336 99.64V238zm0 174.4L214.1 304H112v-95.1h30.02l-53.27-42.6C74.06 174.5 64 189.1 64 208v96c0 26.51 21.49 47.1 48 47.1h83.84L330.74 471c5.96 6.2 13.56 9 21.26 9 4.438 0 8.959-.931 13.16-2.837C376.7 472 384 460.6 384 448v-50.34l-48-37.62v52.36z"/></svg>