<svg xmlns="http://www.w3.org/2000/svg" viewBox="0 0 576 512"><!--! Font Awesome Pro 6.1.1 by @fontawesome - https://fontawesome.com License - https://fontawesome.com/license (Commercial License) Copyright 2022 Fonticons, Inc.--><path d="M333.2 34.84a32.122 32.122 0 0 0-13.16-2.841 31.994 31.994 0 0 0-21.27 8.1L163.8 160H80c-26.51 0-48 21.49-48 47.1v95.1c0 26.51 21.49 47.1 48 47.1h83.84l134.9 119.9c5.96 8 13.56 10.8 21.26 10.8 4.438 0 8.959-.931 13.16-2.837C344.7 472 352 460.6 352 448V64c0-12.59-7.3-24.9-18.8-29.16zM304 412.4 182.1 304H80v-95.1h102.1L304 99.64V412.4zm140.6-230.5a24.058 24.058 0 0 0-15.2-5.401c-6.949 0-13.83 2.994-18.55 8.807-8.406 10.25-6.906 25.37 3.375 33.78C425.5 228.4 432 241.8 432 256s-6.5 27.62-17.81 36.87c-10.28 8.406-11.78 23.53-3.375 33.78 4.719 5.812 11.62 8.812 18.56 8.812 5.344 0 10.75-1.781 15.19-5.406C467.1 311.6 480 284.7 480 256c0-28.7-12.9-55.6-35.4-74.1zm60.5-73.9a23.968 23.968 0 0 0-15.2-5.417c-6.934 0-13.82 2.979-18.58 8.761-8.406 10.25-6.906 25.37 3.344 33.78C508.6 172.9 528 213.3 528 256c0 42.69-19.44 83.09-53.31 110.9-10.25 8.406-11.75 23.53-3.344 33.78a23.953 23.953 0 0 0 18.56 8.781 23.93 23.93 0 0 0 15.22-5.437C550.2 367.1 576 313.1 576 256c0-57.1-25.8-111.1-70.9-148z"/></svg>