<svg xmlns="http://www.w3.org/2000/svg" viewBox="0 0 448 512"><!--! Font Awesome Pro 6.1.1 by @fontawesome - https://fontawesome.com License - https://fontawesome.com/license (Commercial License) Copyright 2022 Fonticons, Inc.--><path d="M412.6 181.9a24.054 24.054 0 0 0-15.2-5.401c-6.949 0-13.83 2.994-18.55 8.807-8.406 10.25-6.906 25.37 3.375 33.78C393.5 228.4 400 241.8 400 256c0 14.19-6.5 27.62-17.81 36.87-10.28 8.406-11.78 23.53-3.375 33.78 4.719 5.812 11.62 8.812 18.56 8.812 5.344 0 10.75-1.781 15.19-5.406C435.1 311.6 448 284.7 448 256c0-28.7-12.9-55.6-35.4-74.1zM301.2 34.84a32.124 32.124 0 0 0-13.16-2.842 31.99 31.99 0 0 0-21.27 8.101L131.8 160H48c-26.51 0-48 21.49-48 47.1v95.1c0 26.51 21.49 47.1 48 47.1h83.84l134.9 119.9c5.96 8 13.56 10.8 21.26 10.8 4.438 0 8.959-.931 13.16-2.837C312.7 472 320 460.6 320 448V64c0-12.59-7.3-24.9-18.8-29.16zM272 412.4 150.1 304H48v-95.1h102.1L272 99.64V412.4z"/></svg>