<svg xmlns="http://www.w3.org/2000/svg" viewBox="0 0 576 512"><!--! Font Awesome Pro 6.1.1 by @fontawesome - https://fontawesome.com License - https://fontawesome.com/license (Commercial License) Copyright 2022 Fonticons, Inc.--><path d="M408 480c-.219 0-.438 0-.656-.016-10.34-.265-19.36-7.172-22.33-17.09L288 139.5l-97.9 323.4c-2.969 9.922-11.98 16.83-22.33 17.09-10.33.156-19.72-6.109-23.23-15.86l-144-400c-4.5-12.47 1.984-26.22 14.45-30.7 13.35-4.54 27.09 1.95 31.59 14.45L165.9 379.4 265 49.11c3.1-10.16 12.4-17.1 23-17.1s19.94 6.943 22.98 17.1l99.09 330.3 119.3-331.5c4.484-12.5 18.22-18.98 30.7-14.45 12.47 4.484 18.95 18.23 14.45 30.7l-144 400A23.88 23.88 0 0 1 408 480z"/></svg>