<svg xmlns="http://www.w3.org/2000/svg" viewBox="0 0 512 512"><!--! Font Awesome Pro 6.1.1 by @fontawesome - https://fontawesome.com License - https://fontawesome.com/license (Commercial License) Copyright 2022 Fonticons, Inc.--><path d="M511.7 225.4c-4.1-34.9-15.2-67.6-31.7-96.7v-.7h-.385a255.37 255.37 0 0 0-95.61-95.55v-.44h-.83c-29.19-16.47-61.91-27.57-97.02-31.67a47.232 47.232 0 0 0-5.573-.328c-8.629 0-17.13 2.339-24.59 6.675C248.5 2.345 240 0 231.4 0l.427 48.17 8.146 4.598L240 128h-80V69.94c21.9-11.2 45.9-18.95 71.6-21.95L231.4 0c-1.8 0-3.7.11-5.6.334-35.1 4.098-67.8 15.206-97 31.676h-.8v.443A255.265 255.265 0 0 0 32.39 128h-.38v.691c-16.47 29.11-27.58 61.74-31.69 96.74-1.221 10.55 1.096 21.1 6.359 30.12C1.414 264.6-.902 275.1.319 285.7c0 0 0-.016 0 0 4.08 34.79 15.25 67.24 31.69 96.25V384h1.161c22.75 39.29 55.49 71.93 94.84 94.46V480h2.525c32.23 17.97 68.7 29.23 107.5 31.91.865-.81 1.765.09 2.665.09 4.4 0 10.4-1.3 15.3-3.4 4.9 2.1 10 3.4 15.3 3.4.875 0 1.75-.031 2.625-.094C312.8 509.2 349.2 497.1 381.5 480h2.537v-1.551C423.3 455.9 456.1 423.3 478.8 384h1.2v-2.092c16.44-29.01 27.6-61.45 31.68-96.23 1.221-10.54-1.094-21.08-6.357-30.11C510.6 246.5 512.9 235.1 511.7 225.4zM128 420.2c-13.6-10.6-26.9-22.6-36.66-36.2h36.67l-.01 36.2zm0-68.2H70.53c-11.49-22.06-19.39-46.33-22.38-72.26l4.39-7.74 75.46-.001V352zm0-112H53.22l-5.23-9c2.992-25.47 10.69-49.3 21.83-71.03l58.18-.002V240zm0-112-37.64.002A207.563 207.563 0 0 1 128 90.432V128zm112 335.3-1.328.545c-28.27-2.307-54.66-10.72-78.67-23.14L160 384h79.1l.9 79.3zm0-111.3h-80v-80h79.1l.9 80zm0-112h-80v-80h79.1l.9 80zm112 200.8c-24.04 12.43-50.44 20.83-78.67 23.06l-1.33-.523V384h79.1l.9 56.8zm0-88.8h-79.1l-.002-80h80v80zm0-112h-80l.002-79.1h79.1V240zm0-112h-79.1l.003-75 8.586-4.994c25.62 2.99 49.58 10.73 71.41 21.92L352 128zm32-37.55a206.64 206.64 0 0 1 37.54 37.56l-37.55-.002.01-37.558zm0 69.55 58.03.002c11.16 21.82 18.86 45.76 21.82 71.38l-4.896 8.613-74.96-.001V160zm0 260.3V384h36.83c-10.73 13.7-23.13 25.7-36.83 36.3zm57.6-68.3-57.65-.001v-80l75.3.001 4.711 8.082C460.1 305.9 453.1 330 441.6 352z"/></svg>