<svg xmlns="http://www.w3.org/2000/svg" viewBox="0 0 640 512"><!--! Font Awesome Pro 6.1.1 by @fontawesome - https://fontawesome.com License - https://fontawesome.com/license (Commercial License) Copyright 2022 Fonticons, Inc.--><path d="M569.8 4.093c45.9-3.058 79.9 41.807 64.6 85.157L567.8 277.1c5 5.3 8.2 11.7 8.2 18.9 0 12.9-10.2 23.5-23.9 23.1l-9.7.9c20.7 20.3 33.6 48.7 33.6 80 0 61.9-50.1 112-112 112-56.4 0-103.1-41.7-110.9-96h-66.2c-7.8 54.3-54.5 96-110.9 96-61.9 0-112-50.1-112-112 0-31.3 12.87-59.7 33.62-80h-10.6C74.22 319.5 64 308.9 64 296c0-7.2 3.17-13.6 8.18-18.9L5.579 89.25C-9.722 45.9 24.32 1.035 70.19 4.093L189.9 12.07c21.6 1.44 41 10.62 55.5 24.74 13-12.87 30.9-21.71 50.6-21.71h48c19.7 0 37.6 8.84 50.6 21.71 14.5-14.11 33.9-23.3 55.5-24.74l119.7-7.977zm19.4 69.187c2.9-10.84-4.7-22.06-16.2-21.29l-119.7 7.97c-21 1.41-37.3 18.86-37.3 39.92V272h103l70.2-198.72zM66.99 51.99c-11.46-.77-19.97 10.45-16.15 21.29L120.1 271.1H224V99.88c0-21.06-16.3-38.51-37.3-39.92L66.99 51.99zM368 87.1c0-12.36-10.7-24-24-24h-48c-13.3 0-24 11.64-24 24v184h96v-184zM114 416c5.8 22.5 23.5 40.2 46 45.1V416h-46zm46-78c-22.5 5.8-40.2 23.5-46 46h46v-46zm32 123.1c22.5-4.9 40.2-22.6 45.1-45.1H192v45.1zm0-77.1h45.1c-4.9-22.5-22.6-40.2-45.1-46v46zm256 77.1V416h-46c5.8 22.5 23.5 40.2 46 45.1zM402 384h46v-46c-22.5 5.8-40.2 23.5-46 46zm78 32v45.1c22.5-4.9 40.2-22.6 45.1-45.1H480zm45.1-32c-4.9-22.5-22.6-40.2-45.1-46v46h45.1z"/></svg>