<svg xmlns="http://www.w3.org/2000/svg" viewBox="0 0 384 512"><!--! Font Awesome Pro 6.1.1 by @fontawesome - https://fontawesome.com License - https://fontawesome.com/license (Commercial License) Copyright 2022 Fonticons, Inc.--><path d="M352 96h-32V80c0-8.84-7.2-16-16-16h-32c-8.8 0-16 7.16-16 16v16h-32V80c0-8.84-7.2-16-16-16h-32c-8.8 0-16 7.16-16 16v16h-48V23.1C112 10.75 101.3 0 88 0S64 10.75 64 23.1V96H32c-17.6 0-32 14.4-32 32v178.7c0 8.489 3.368 16.62 9.371 22.62L32 352v112c0 26.5 21.49 48 48 48h224c26.51 0 48-21.49 48-48V352l22.63-22.63c5.97-5.97 9.37-14.17 9.37-22.67V128c0-17.6-14.4-32-32-32zm-16 204.1-32 32V464H80V332.1l-32-32V144h288v156.1zM128 240h128c8.875 0 16-7.125 16-16v-16c0-8.9-7.1-16-16-16H128c-8.9 0-16 7.1-16 16v16c0 8.9 7.1 16 16 16zm0 80h128c8.875 0 16-7.125 16-16v-16c0-8.875-7.125-16-16-16H128c-8.9 0-16 7.1-16 16v16c0 8.9 7.1 16 16 16z"/></svg>