<svg xmlns="http://www.w3.org/2000/svg" viewBox="0 0 512 512"><!--! Font Awesome Pro 6.1.1 by @fontawesome - https://fontawesome.com License - https://fontawesome.com/license (Commercial License) Copyright 2022 Fonticons, Inc.--><path d="M431.1 192c8.873 0 15.1-7.129 15.1-16v-34.1l53.99-59.88c13.88-15.25 13.25-38.5-1.248-53.13l-17.75-17.62c-14.5-14.5-37.75-15-52.99-1.375L157.3 256H112c-8.875 0-15.1 7.125-15.1 16v39.25l-78.49 70.88c-10.62 9.75-17.12 23.62-17.5 38s5.375 28.62 15.5 38.75l37.62 37.63c8.98 9.89 22.6 15.49 36.6 15.49 22.12 0 35.5-13.38 39.25-17.5L402.7 192h28.4zM94.26 462.4c-.875.875-4.25 3.25-7.25.125L49.51 425c-3-3-.75-6.375.125-7.25L455.5 51.62l4.873 4.875L94.26 462.4zM3.682 149.1l49.638 21.6 20.7 49.6c1.016 2.043 3.698 3.696 5.977 3.696.008 0-.008 0 0 0 2.273-.896 4.933-1.696 5.943-3.696l20.72-49.63 49.62-20.71c2.023-1.008 3.68-3.681 3.691-5.947C159.1 141.7 158.3 139 156.3 138l-49.4-20.6-.4-.4-20.56-49.3c-1.01-2.04-3.67-3.68-5.94-3.7-.008 0 .008 0 0 0-2.279 0-4.966 1.649-5.981 3.692L53.32 117.3 3.682 138C1.652 139.1 0 141.7 0 144s1.652 4.9 3.682 5.1zM511.1 368c-.004-2.273-1.657-4.95-3.687-5.966l-49.57-20.67-20.77-49.67C436.9 289.7 434.3 288 432 288c-2.281 0-4.948 1.652-5.964 3.695l-20.7 49.63-49.64 20.71c-2.027 1.016-3.684 3.683-3.687 5.956.004 2.262 1.662 4.954 3.687 5.966l49.57 20.67 20.77 49.67C427.1 446.3 429.7 448 432 448c2.277 0 4.944-1.656 5.96-3.699l20.69-49.63 49.65-20.71c2-1.061 2.8-3.661 2.8-5.961zm-304-304 12.42 29.78C221 95.01 222.6 96 223.1 96s2.965-.992 3.575-2.219L239.1 64l29.78-12.42c1.219-.61 2.215-2.219 2.215-3.578 0-1.367-.996-2.969-2.215-3.578L239.1 32 227.6 2.219C226.1.992 225.4 0 223.1 0s-2.1.992-2.7 2.219L207.1 32l-28.9 12.42c-2.1.61-2.2 2.21-2.2 3.58 0 1.359.993 2.969 2.21 3.578L207.1 64z"/></svg>