<svg xmlns="http://www.w3.org/2000/svg" viewBox="0 0 640 512"><!--! Font Awesome Pro 6.1.1 by @fontawesome - https://fontawesome.com License - https://fontawesome.com/license (Commercial License) Copyright 2022 Fonticons, Inc.--><path d="M323 51.12c-1.9-.78-4.1-.78-6.9 0L62.98 154.1C53.93 157.8 48 166.6 48 176.3V488c0 13.3-10.75 24-24 24S0 501.3 0 488V176.3c0-29.3 17.78-55.7 44.95-66.7L298.1 6.634c14.4-5.47 29.4-5.47 42.9 0L595 109.6c27.2 11 45 37.4 45 66.7V488c0 13.3-10.7 24-24 24s-24-10.7-24-24V176.3c0-9.7-5.9-18.5-15-22.2L323 51.12zM143.1 240v248c0 13.3-9.8 24-24 24-12.4 0-24-10.7-24-24V232c0-22.1 18.8-40 40-40H504c22.1 0 40 17.9 40 40v256c0 13.3-10.7 24-24 24s-24-10.7-24-24V240H143.1zM440 416c13.3 0 24 10.7 24 24v48c0 13.3-10.7 24-24 24h-64c-13.3 0-24-10.7-24-24v-48c0-13.3 10.7-24 24-24h64zM175.1 312c0-13.3 11.6-24 24-24h96c14.2 0 24 10.7 24 24v48c0 13.3-9.8 24-24 24h-96c-12.4 0-24-10.7-24-24v-48zm120 104c14.2 0 24 10.7 24 24v48c0 13.3-9.8 24-24 24h-96c-12.4 0-24-10.7-24-24v-48c0-13.3 11.6-24 24-24h96z"/></svg>