<svg xmlns="http://www.w3.org/2000/svg" viewBox="0 0 384 512"><!--! Font Awesome Pro 6.1.1 by @fontawesome - https://fontawesome.com License - https://fontawesome.com/license (Commercial License) Copyright 2022 Fonticons, Inc.--><path d="M160 256c0-17.7 14.3-32 32-32s32 14.3 32 32-14.3 32-32 32-32-14.3-32-32zm96 72c0 13.3-10.7 24-24 24s-24-10.7-24-24 10.7-24 24-24 24 10.7 24 24zm-128 0c0-13.3 10.7-24 24-24s24 10.7 24 24-10.7 24-24 24-24-10.7-24-24zm128-144c0 13.3-10.7 24-24 24s-24-10.7-24-24 10.7-24 24-24 24 10.7 24 24zm-128 0c0-13.3 10.7-24 24-24s24 10.7 24 24-10.7 24-24 24-24-10.7-24-24zm16 72c0 13.3-10.7 24-24 24s-24-10.7-24-24 10.7-24 24-24 24 10.7 24 24zm96 0c0-13.3 10.7-24 24-24s24 10.7 24 24-10.7 24-24 24-24-10.7-24-24zM271.7 0C298.4 0 320 21.63 320 48.32V65.6c36.5 7.41 64 39.7 64 78.4v224c0 38.7-27.5 70.1-64 78.4V464c0 26.5-21.5 48-48 48H112c-26.51 0-48-21.5-48-48v-17.6C27.48 438.1 0 406.7 0 368V144c0-38.7 27.48-70.99 64-78.4V48.32C64 21.63 85.63 0 112.3 0h159.4zM304 112H80c-17.67 0-32 14.3-32 32v224c0 17.7 14.33 32 32 32h224c17.7 0 32-14.3 32-32V144c0-17.7-14.3-32-32-32z"/></svg>