<svg xmlns="http://www.w3.org/2000/svg" viewBox="0 0 384 512"><!--! Font Awesome Pro 6.1.1 by @fontawesome - https://fontawesome.com License - https://fontawesome.com/license (Commercial License) Copyright 2022 Fonticons, Inc.--><path d="m216 243.2 37.3 24.8c11 7.4 14 22.3 5.8 33.3-6.5 11-21.4 14-32.4 5.8l-48-32c-6.7-3.6-10.7-11.1-10.7-20v-80c0-12.4 10.7-24 24-24s24 11.6 24 24v68.1zM272 0c26.5 0 48 21.49 48 48v64h-1.9c40.8 35.2 65.9 86.7 65.9 144s-25.1 108.8-65.9 144h1.9v64c0 26.5-21.5 48-48 48H112c-26.51 0-48-21.5-48-48v-64h1C25.14 364.8 0 313.3 0 256s25.14-108.8 65-144h-1V48c0-26.51 21.49-48 48-48h160zm-80 112c-79.5 0-144 64.5-144 144s64.5 144 144 144 144-64.5 144-144-64.5-144-144-144z"/></svg>