<svg xmlns="http://www.w3.org/2000/svg" viewBox="0 0 576 512"><!--! Font Awesome Pro 6.1.1 by @fontawesome - https://fontawesome.com License - https://fontawesome.com/license (Commercial License) Copyright 2022 Fonticons, Inc.--><path d="M556.2 400.2c-20.89-3.732-41.84-15.52-59-33.22-9.031-9.312-25.38-9.312-34.41 0C442.6 387.9 413.8 399.8 384 399.8s-58.56-11.98-78.8-32.85c-9.031-9.312-25.38-9.312-34.41 0C250.6 387.9 221.8 399.8 192 399.8c-32.36 0-68.04-13.52-86.79-32.85-9.031-9.312-25.38-9.312-34.41 0-19.14 19.76-31.66 29.78-51 33.22C6.75 402.49-1.95 415 .38 428.09c2.312 13.08 14.66 21.83 27.83 19.49 26.19-4.672 44.73-16.76 61-31.44 28 19.74 66.05 31.81 102.8 31.81 34.89 0 68.76-11.54 95.95-32.19 54.31 41.25 137.4 41.31 191.8.158 20.61 16.37 44.16 27.41 68 31.65 1.422.252 2.844.377 4.234.377 11.41 0 21.53-8.199 23.59-19.87C577.1 415 569.2 402.5 556.2 400.2zm0-144c-20.89-3.732-41.84-15.52-59-33.22-9.031-9.312-25.38-9.312-34.41 0C442.6 243.9 413.8 255.8 384 255.8s-58.56-11.98-78.8-32.85c-9.031-9.312-25.38-9.312-34.41 0C250.6 243.9 221.8 255.8 192 255.8c-32.36 0-68.04-13.52-86.79-32.85-9.031-9.312-25.38-9.312-34.41 0-19.14 19.76-31.66 29.78-51 33.22C6.75 258.49-1.95 271 .38 284.09c2.312 13.08 14.66 21.83 27.83 19.49 26.19-4.672 44.73-16.76 61-31.44 28 19.74 66 31.69 102.8 31.69 34.89 0 68.81-11.42 95.99-32.07 54.31 41.25 137.4 41.31 191.8.158 20.61 16.37 44.16 27.41 68 31.65 1.422.252 2.844.377 4.234.377 11.41 0 21.53-8.199 23.59-19.87C577.1 271 569.2 258.5 556.2 256.2zM28.21 159.6c26.19-4.672 44.73-16.76 61-31.44 28 19.74 66 31.69 102.8 31.69 34.89 0 68.81-11.42 95.99-32.07 54.31 41.25 137.4 41.31 191.8.158 20.61 16.37 44.16 27.41 68 31.65 1.422.252 2.844.377 4.234.377 11.41 0 21.53-8.199 23.59-19.87 2.328-13.09-6.375-25.6-19.42-27.92-20.89-3.732-41.84-15.52-59-33.22-9.031-9.312-25.38-9.312-34.41 0-20.23 20.87-48.88 32.94-78.72 32.94s-58.64-12.07-78.87-32.94c-9.031-9.312-25.38-9.312-34.41 0C250.6 99.85 221.9 111.9 192.1 111.9c-32.36 0-68.12-13.61-86.87-32.94-9.031-9.312-25.38-9.312-34.41 0-19.14 19.76-31.66 29.78-51 33.22C6.77 114.5-1.93 127.01.4 140.1c2.289 13.1 14.63 21 27.81 19.5z"/></svg>