<svg xmlns="http://www.w3.org/2000/svg" viewBox="0 0 576 512"><!--! Font Awesome Pro 6.1.1 by @fontawesome - https://fontawesome.com License - https://fontawesome.com/license (Commercial License) Copyright 2022 Fonticons, Inc.--><path d="M556.2 464.2c-20.89-3.732-41.84-15.52-59-33.22-9.031-9.312-25.38-9.312-34.41 0C442.6 451.9 413.8 463.8 384 463.8s-58.56-11.98-78.8-32.85c-9.031-9.312-25.38-9.312-34.41 0C250.6 451.9 221.8 463.8 192 463.8c-32.36 0-68.04-13.52-86.79-32.85-9.031-9.312-25.38-9.312-34.41 0-19.14 19.76-31.66 29.78-51 33.22C6.75 466.49-1.95 479 .38 492.09c2.312 13.08 14.66 21.83 27.83 19.49 26.19-4.672 44.73-16.76 61-31.44 28 19.74 66.05 31.81 102.8 31.81 34.89 0 68.76-11.54 95.95-32.19 54.31 41.25 137.4 41.31 191.8.158 20.61 16.37 44.16 27.41 68 31.65 1.422.252 2.844.377 4.234.377 11.41 0 21.53-8.199 23.59-19.87C577.1 479 569.2 466.5 556.2 464.2zM28.21 367.6c26.19-4.672 44.73-16.76 61-31.44 28 19.74 66.11 31.78 102.9 31.78 34.89 0 68.7-11.51 95.89-32.16 54.31 41.25 137.4 41.31 191.8.158 20.61 16.37 44.16 27.41 68 31.65 1.422.252 2.844.377 4.234.377 11.41 0 21.53-8.199 23.59-19.87 2.328-13.09-6.375-25.6-19.42-27.92-20.89-3.732-41.84-15.52-59-33.22-9.031-9.312-25.38-9.312-34.41 0-20.23 20.87-48.96 32.84-78.8 32.84s-58.56-11.97-78.79-32.84c-9.031-9.312-25.38-9.312-34.41 0-20.23 20.87-48.96 32.84-78.8 32.84-32.36 0-68.04-13.51-86.79-32.84-9.031-9.312-25.38-9.312-34.41 0-19.14 19.76-31.66 29.78-51 33.22-13.05 2.32-21.75 14.83-19.42 27.92C2.689 361.2 15.03 369.1 28.21 367.6zM271 216.1c4.7 5.6 10.9 7.9 17 7.9s12.28-2.344 16.97-7.031l80-80c9.375-9.375 9.375-24.56 0-33.94s-24.56-9.375-33.94 0L312 142.1V24c0-13.25-10.8-24-24.9-24S264 10.75 264 24v118.1L224.1 103c-9.375-9.375-24.56-9.375-33.94 0s-9.375 24.56 0 33.94L271 216.1z"/></svg>