<svg xmlns="http://www.w3.org/2000/svg" viewBox="0 0 576 512"><!--! Font Awesome Pro 6.1.1 by @fontawesome - https://fontawesome.com License - https://fontawesome.com/license (Commercial License) Copyright 2022 Fonticons, Inc.--><path d="M575.1 455.9c0-11.45-8.176-21.6-19.8-23.67-46.6-8.53-53-40.23-76.2-40.23-22.91 0-33.8 39.83-95.1 39.83-62.23 0-73.08-39.83-96-39.83s-33.77 39.83-96 39.83c-69.59 0-81.1-39.83-103.1-39.83-21.95 0-30.18 33.43-68.2 40.21C9.08 434.277.9 444.43.9 455.88c0 12.1 9.506 24.12 23.94 24.12 7.637 0 35.43-4.889 65.27-31.81 28 19.74 66.04 31.81 102.8 31.81 34.89 0 68.77-11.54 95.96-32.19 27.19 20.65 61.6 30.98 96.01 30.98 34.32 0 68.63-10.27 95.78-30.82 30.59 24.3 63.21 32.03 72.23 32.03 10.21-.9 22.21-9.6 22.21-24.1zM480 32c-52.9 0-96 43.06-96 96v96H176v-96c0-26.47 21.53-48 48-48s48 21.5 48 48v8c0 13.3 10.8 24 24 24s24-10.7 24-24v-8c0-52.94-43.06-95.1-96-95.1s-96 42.16-96 95.1v232c0 13.3 10.8 24 24 24s24-10.75 24-24v-88h208v88c0 13.25 10.75 24 24 24s24-10.75 24-24V128c0-26.47 21.53-48 48-48s48 21.53 48 48v8c0 13.3 10.8 24 24 24s24-10.7 24-24v-8c0-52.94-43.1-96-96-96z"/></svg>