<svg xmlns="http://www.w3.org/2000/svg" viewBox="0 0 640 512"><!--! Font Awesome Pro 6.1.1 by @fontawesome - https://fontawesome.com License - https://fontawesome.com/license (Commercial License) Copyright 2022 Fonticons, Inc.--><path d="M320 0c-13.3 0-24 10.75-24 23.1V488c0 13.3 10.7 24 23.1 24s24.9-10.7 24.9-24V23.1C344 10.75 333.3 0 320 0zm-96 96c-13.3 0-24 10.7-24 23.1v272c0 14.2 10.7 24.9 23.1 24.9s24.9-10.7 24.9-24V119.1c0-12.4-10.7-23.1-24-23.1zm192 32c-13.3 0-24 10.7-24 23.1v208c0 14.2 10.7 24.9 23.1 24.9s24.9-10.7 24.9-24V151.1c0-12.4-10.7-23.1-24-23.1zm96-64c-13.25 0-24 10.75-24 23.1V424c0 13.3 10.7 24 23.1 24 14.2 0 24.9-10.7 24.9-24V87.1c0-12.35-10.7-23.1-24-23.1zM128 192c-13.3 0-24 10.7-24 23.1V296c0 13.3 10.7 24 23.1 24s24.9-10.7 24.9-24v-80.9c0-12.4-10.7-23.1-24-23.1zm-96 32c-13.25 0-24 10.7-24 23.1V264c0 13.3 10.75 24 23.1 24S56 277.3 56 264v-16.9c0-12.4-10.75-23.1-24-23.1zm576 0c-13.25 0-24 10.75-24 23.1V264c0 13.3 10.7 24 24 24s24-10.75 24-23.1v-17.8c0-12.4-10.7-23.1-24-23.1z"/></svg>