<svg xmlns="http://www.w3.org/2000/svg" viewBox="0 0 640 512"><!--! Font Awesome Pro 6.1.1 by @fontawesome - https://fontawesome.com License - https://fontawesome.com/license (Commercial License) Copyright 2022 Fonticons, Inc.--><path d="M638.9 278.2c-6 19.1-62.2 185.8-171.7 185.8-95.24 0-135.1-106.3-170.2-200.1-29.67-79.28-63.31-169.1-124.2-169.1-56.09 0-105.5 91.25-125 152.6-3.875 12.26-15.06 16.61-23.46 16.61-2.531 0-4.978-.37-6.679-.945C11.14 261.2 5.834 257 2.729 251.3c-2.951-5.477-3.527-11.72-1.639-17.54C7.135 214.7 63.32 48 172.8 48c95.24 0 135.1 106.3 170.2 200.1 29.67 79.28 63.31 169.1 124.2 169.1 56.08 0 105.5-91.27 125-152.6 3.869-12.23 15.12-16.58 23.58-16.58 2.473 0 4.863.352 6.562.912 6.424 1.77 11.86 6.043 14.93 11.73C640.2 266.2 640.8 272.4 638.9 278.2z"/></svg>