<svg xmlns="http://www.w3.org/2000/svg" viewBox="0 0 512 512"><!--! Font Awesome Pro 6.1.1 by @fontawesome - https://fontawesome.com License - https://fontawesome.com/license (Commercial License) Copyright 2022 Fonticons, Inc.--><path d="m510.5 443-64.9-272c-6.1-25.3-28.5-43-54.6-43h-57.01c6.127-12 10-25.5 10-40C344 39.38 304.6 0 256 0c-48.6 0-88.9 39.38-88.9 88 0 14.5 3.875 28 10 40h-57c-25.16 0-47.58 17.7-53.66 43L1.55 443c-4 16.75-.172 34.13 10.52 47.63C22.77 504.2 38.8 512 56.08 512h399.8c17.28 0 33.31-7.781 44.02-21.34 10.7-13.46 14.6-30.86 10.6-47.66zM215.1 88c0-22 18-40 40-40s40 18 40 40-17.1 40-39.1 40-40.9-18-40.9-40zm247.2 372.9c-.9 1.2-3 3.1-6.4 3.1H56.08c-3.406 0-5.438-1.938-6.344-3.062-.89-1.125-2.281-3.531-1.5-6.781l64.89-271.1C113.1 178.5 117.2 176 120.1 176h270c3.75 0 6.984 2.531 7.859 6.156l64.89 272c1.651 3.244.351 5.644-.549 6.744z"/></svg>