<svg xmlns="http://www.w3.org/2000/svg" viewBox="0 0 640 512"><!--! Font Awesome Pro 6.1.1 by @fontawesome - https://fontawesome.com License - https://fontawesome.com/license (Commercial License) Copyright 2022 Fonticons, Inc.--><path d="M488 128h-64.34c-57.78 0-112.1 22.51-152.1 63.37l-151.7 151.7C114.5 347.6 112 353.6 112 360c0 6.408 2.496 12.44 7.031 16.97C123.6 381.5 129.6 384 136 384s12.44-2.498 16.97-7.031l151.7-151.7C336.4 193.5 378.7 176 423.7 176H488c57.34 0 103.1 46.65 103.1 104v96c0 39.7-32.3 72-72 72H164.2C100.1 448 48 395.9 48 331.8c0-27.7 9.938-54.55 27.98-75.61l47.71-55.66 62.36 22.32c3.75.85 6.35 1.15 9.05 1.15 10.54 0 20.88-4.289 28.36-11.77l57.52-57.52c6.22-6.31 8.52-15.51 5.92-24.01-2.5-8.5-9.6-14.8-18.3-16.6l-78.5-16.17-16.2-78.59C171.7 8.164 161.7 0 150.2 0c-6.4 0-12.4 2.502-16.9 7.045L75.77 64.57c-9.547 9.549-13.65 23.11-10.97 36.28l23.85 66.85L39.52 225A164.218 164.218 0 0 0 0 331.8C.002 422.4 73.64 496 164.2 496h354.9c66.17 0 120-53.83 120-120v-96c0-83.8-67.3-152-151.1-152zM135.8 72.41l13.67 66.14 66.12 13.65-22.29 22.3-58.8-21-21-58.78 22.3-22.31zM408 304c0-13.26-10.75-24-24-24s-24 10.74-24 24c0 13.25 10.75 24 24 24s24-10.7 24-24z"/></svg>