<svg xmlns="http://www.w3.org/2000/svg" viewBox="0 0 512 512"><!--! Font Awesome Pro 6.1.1 by @fontawesome - https://fontawesome.com License - https://fontawesome.com/license (Commercial License) Copyright 2022 Fonticons, Inc.--><path d="M460.9 152.5c-3.125-3.25 2.233-.242 18.11-15.12 26.63-28.88 34.75-75.06 32.63-120.1-.875-19.75-24-17.25-30.63-17.25-34.25 0-76.95 6.375-105.7 33.13-18.5 18.63-11.66 21.93-16.16 17.3l-39.63-39.5c-6.25-6.25-16.38-6.25-22.5 0l-34.13 34C250.3 57.6 242.3 72.98 238.2 89.11c-11.2-8.25-20.4 1.12-20.5 1.25l-33.8 33.74c-12.6 12.6-20.5 27-24.6 44-11.3-9-20.4 1.1-20.6 1.4l-33.9 33.9c-37.5 37.5-37.5 98.38 0 135.9l17 17L7 471.1c-9.375 9.375-9.375 24.63 0 34 4.78 4.5 10.91 6.9 17.03 6.9 6.125 0 12.25-2.375 17-7l114.6-114.9 16.88 17c37.5 37.5 98.25 37.5 135.8 0l34-34.13c5.75-5.625 6-14.38 1.375-20.63 16.13-4.125 31.38-12.13 44-24.75l33.63-33.75c5.625-5.625 6-14.25 1.375-20.5 16.13-4.125 31.38-12.13 44-24.75l33.75-33.88c6.25-6.25 6.25-16.38 0-22.63L460.9 152.5zm-294 158.4-11.25 11.38-16.95-17.08c-18.75-18.75-18.75-49.13 0-67.88l11.2-12.22 17 17c9.1 10 14.1 22 14.1 34 0 13.8-5 25.8-14.1 34.8zM296.8 78.98l11.5-11.5 17 17c18.63 18.75 18.75 49.13 0 68l-11.5 11.38-17-16.88c-18.8-18.78-18.8-49.12 0-68zm-79 79.12 11.13-11.13 17 17c18.75 18.75 18.75 49.13 0 67.88L234.8 242.1l-17-17c-18.8-17.9-18.8-48.2 0-67zm56.6 215c-18.75 18.88-49.13 18.88-67.88 0l-17-16.88 11.63-11.63c18.75-18.75 49-18.63 67.75.125l16.88 16.88L274.4 373.1zm79.4-79.4c-18.75 18.75-49.13 18.75-67.88 0l-17-17 11.13-11.13c18.75-18.75 49.13-18.75 67.88 0l16.88 17-11.01 11.13zm78.9-79.1c-18.75 18.88-49.13 18.88-67.88 0l-16.88-16.88 11.25-11.38c18.75-18.75 49.13-18.75 67.88 0l16.88 17-11.25 11.26zM390 121.1c1.625-20 6.75-41.63 18.75-54.25 11.5-10.25 30.5-16.75 54.5-18.88-2 23.88-8.375 43-18.25 54.63-11.8 11.1-31 17.5-55 18.5z"/></svg>