<svg xmlns="http://www.w3.org/2000/svg" viewBox="0 0 512 512"><!--! Font Awesome Pro 6.1.1 by @fontawesome - https://fontawesome.com License - https://fontawesome.com/license (Commercial License) Copyright 2022 Fonticons, Inc.--><path d="M366.1 179.7c9.4 1.1 18.7 3.1 27.7 5.4l76.9-77c9.4-8.5 24.6-8.5 34 0 9.4 10.2 9.4 25.4 0 34.8l-68.1 67.2c2 2.6 4 4.5 5.9 6.4l22.6 22.6c6.2 6.2 6.2 16.3 0 22.6l-33.9 33.9c-12.5 12.5-27.5 20.8-43.4 25 4.3 6.2 3.6 14.8-1.9 20.3L352 374.8c-12.4 12.4-27.5 20.8-43.3 24.9 4.2 5.4 3.6 14.8-1.9 20.4l-34 33c-37.4 38.4-98.2 38.4-135.7 0l-22.6-21.7-73.53 73.5c-9.37 9.4-24.57 9.4-33.941 0-9.372-9.4-9.372-24.6 0-34.8l73.511-72.7-22.6-22.6c-37.48-37.5-37.48-98.3 0-135.7l33.92-34c5.52-5.5 14.04-7 20.34-1.9 4.2-15.9 12.5-30.9 24.9-43.3l33.9-34.8c5.6-4.7 14.1-5.3 20.3-1.1 4.2-15.8 12.5-30.86 25-43.31l33.9-33.92c6.2-6.25 16.4-6.25 22.6 0l22.6 22.6c1.9 1.9 3.8 3.86 5.5 5.85l67.2-68.05c10.2-9.373 25.4-9.373 34.8 0 9.4 9.37 9.4 24.57 0 33.94l-77 76.99c3.1 9 5.2 18.3 6.2 27.7L470.7 7.17c9.4-9.373 24.6-9.373 34 0 9.4 9.37 9.4 24.57 0 33.94L366.1 179.7zm-115.9 2.8 21.5 20.6c20.5-30.2 17.1-72.4-10.2-99.8l-11.3 11.3c-18.7 18.8-18.7 49.2 0 67.9zm-79.1 79.2 21.4 21.5c20.6-31.1 17.2-73.3-10.2-100.7l-11.2 11.3c-18.8 18.8-18.8 48.3 0 67.9zm-21.5 136.9L171 420c18.8 18.8 49.2 18.8 67.9 0l11.3-11.3c-27.4-27.3-69.6-30.7-100.6-10.1zm-46.4-136.9-11.32 10.4c-18.74 19.6-18.74 50 0 68.8l21.42 21.4c20.6-31 17.2-73.2-10.1-100.6zm125.5 57.7 21.5 21.4c18.7 18.8 49.1 18.8 67.9 0l11.3-11.2c-27.4-27.4-69.6-30.8-100.7-10.2zm79.2-79.2 21.5 21.5c18.7 18.7 49.1 18.7 67.8 0l11.3-11.3c-27.3-27.4-70.4-30.7-100.6-10.2z"/></svg>