<svg xmlns="http://www.w3.org/2000/svg" viewBox="0 0 640 512"><!--! Font Awesome Pro 6.1.1 by @fontawesome - https://fontawesome.com License - https://fontawesome.com/license (Commercial License) Copyright 2022 Fonticons, Inc.--><path d="M366.2 179.7c9.4 1.1 18.7 3.1 27.7 5.4l77-77c9.4-8.5 24.6-8.5 33.9 0 9.4 10.2 9.4 25.4 0 34.8l-55.2 55.3c-24.9 5.9-47.5 18.8-66.7 34.9-24.2-10.1-52.4-7.7-74.8 7.1l21.4 21.5c5.3 4.4 11.6 9.1 18.3 11.4-10.3 15.9-18 33.6-22.6 52.4-27.4-23.6-66.9-25.6-96.3-6.1l21.4 21.4c18.8 18.8 49.2 18.8 67.9 0l4.7-4.6c-2.8 10.3-2.9 20.9-2.9 31.8 0 9.2.7 18.3 2.1 27.2-4.3 1.8-8.8 3.4-13.3 4.5 4.3 5.4 3.6 14.8-1.9 20.4l-34.8 33c-36.6 38.4-97.4 38.4-134.9 0l-22.6-21.7-73.49 73.5c-9.37 9.4-24.56 9.4-33.937 0-9.371-9.4-9.371-24.6 0-34.8l73.517-72.7-22.6-22.6c-37.49-37.5-37.49-98.3 0-135.7l33.91-34c5.53-5.5 14.1-7 20.3-1.9 4.2-15.9 12.5-30.9 25-43.3l33.9-34.8c5.5-4.7 14.1-5.3 20.3-1.1 4.2-15.8 11.6-30.86 24.9-43.31l33.9-33.92c6.3-6.25 16.4-6.25 21.8 0l23.5 22.6c1.9 1.9 3.7 3.86 5.5 5.85l68-68.05c9.4-9.373 24.6-9.373 33.9 0 9.4 9.37 9.4 24.57 0 33.94l-76.9 76.99c3.1 9 5.1 18.3 6.2 27.7L470.9 7.17c9.4-9.373 24.6-9.373 33.9 0 9.4 9.37 9.4 24.57 0 33.94L366.2 179.7zm-115.8 2.8 21.4 20.6c20.6-30.2 16.3-72.4-10.1-99.8l-11.3 11.3c-18.8 18.8-18.8 49.2 0 67.9zm-79.2 79.2 21.5 21.5c20.5-31.1 17.1-73.3-10.2-100.7l-11.3 11.3c-18.7 18.8-18.7 48.3 0 67.9zm-21.5 136.9 21.5 21.4c18.7 18.8 49.1 18.8 67.8 0l11.3-11.3c-28.2-27.3-69.5-30.7-100.6-10.1zm-46.4-136.9-11.27 10.4c-18.75 19.6-18.75 50 0 68.8l21.47 21.4c20.5-31 17.1-73.2-10.2-100.6zM352 368c0-79.5 64.5-144.9 144-144.9S640 288.5 640 368s-64.5 144-144 144-144-64.5-144-144zm144 96c13.3 0 24-10.7 24-24s-10.7-24-24-24-24 10.7-24 24 10.7 24 24 24zm-16.9-176.9V368c0 8.8 8.1 16 16 16 9.7 0 16-7.2 16-16v-80.9c0-7.9-6.3-16-16-16-7.9 0-16 8.1-16 16z"/></svg>