<svg xmlns="http://www.w3.org/2000/svg" viewBox="0 0 640 512"><!--! Font Awesome Pro 6.1.1 by @fontawesome - https://fontawesome.com License - https://fontawesome.com/license (Commercial License) Copyright 2022 Fonticons, Inc.--><path d="M630.8 469.1 451 328.2l2.297-2.307c3.053-3.053 4.559-6.99 4.559-10.95 0-3.338-1.068-6.693-3.184-9.551 16.13-4.125 31.38-12.12 44-24.75l33.75-33.88c3.125-3.125 4.688-7.219 4.688-11.31s-1.562-8.189-4.688-11.31l-25.28-25.32 61.82-61.82C573.7 132.3 576 126.1 576 120c0-13.7-11.2-24-24-24a23.93 23.93 0 0 0-16.97 7.031L473.2 164.8l-14.05-14.07 109.8-109.8C573.7 36.28 576 30.14 576 24c0-13.71-11.2-24-24-24a23.93 23.93 0 0 0-16.97 7.031l-109.8 109.8-14.05-14.07 61.76-61.76C477.7 36.28 480 30.14 480 24c0-13.71-11.2-24-24-24a23.93 23.93 0 0 0-16.97 7.031l-61.73 61.73-25.75-25.79c-3.125-3.125-7.219-4.688-11.3-4.688s-8.141 1.562-11.2 4.688l-34.13 34C282.3 89.6 274.3 104.1 270.2 121.1c-3.4-2.5-6.6-3.4-9.5-3.4-6.469 0-10.96 4.555-11.05 4.643L222.7 149.3 38.81 5.109A23.96 23.96 0 0 0 24.03 0C16.91 0 9.845 3.156 5.127 9.187c-8.188 10.44-6.375 25.53 4.062 33.7l591.1 463.1c10.5 8.203 25.56 6.328 33.69-4.078C643.1 492.4 641.2 477.3 630.8 469.1zM357.3 184.5l-11.5 11.38-17-16.88c-9.4-9.4-14.1-21.7-14.1-34s4.689-24.61 14.06-34.05l11.5-11.5 17 17c9.328 9.391 14.02 21.7 14.02 34.02.02 12.33-4.58 24.63-13.98 34.03zm39.5 62.1-16.88-16.88 11.25-11.38c9.375-9.375 21.66-14.06 33.94-14.06 12.28 0 24.56 4.688 33.94 14.06l16.88 17-11.23 11.26c-9.375 9.438-21.66 14.16-33.94 14.16-12.26.04-24.56-4.76-33.96-14.16zm-242.4-28.9-17.6 17.7c-18.8 18.7-28.1 43.3-28.1 67.9 0 24.6 9.377 49.19 28.13 67.94l17 17-82.8 81.86c-4.69 5.6-7.03 11.7-7.03 17s2.344 12.31 7.031 17c4.749 5.5 10.879 7.9 16.999 7.9 6.125 0 12.25-2.375 17-7l82.63-82.88 16.88 17c18.75 18.75 43.31 28.13 67.88 28.13 24.56 0 49.13-9.377 67.88-28.13l34-34.13c3.102-3.035 4.602-6.977 4.602-10.95 0-.185-.17-.344-.176-.53L154.4 217.7zm44.5 125.2-11.25 11.38-17-17c-9.375-9.375-14.06-21.66-14.06-33.94 0-12.28 4.688-24.56 14.06-33.94l11.25-11.38 17 17C208 284.1 213 296.1 213 308.1c0 13.8-5 25.8-14.1 34.8zm107.5 62.2c-9.4 9.5-21.6 14.2-33.9 14.2-12.28 0-24.56-4.719-33.94-14.16l-17-16.88 11.62-11.62c9.346-9.346 21.54-14 33.75-14 12.29 0 24.59 4.719 34 14.13l16.88 16.88-11.41 11.45z"/></svg>