<svg xmlns="http://www.w3.org/2000/svg" viewBox="0 0 448 512"><!--! Font Awesome Pro 6.1.1 by @fontawesome - https://fontawesome.com License - https://fontawesome.com/license (Commercial License) Copyright 2022 Fonticons, Inc.--><path d="M416 48c0 26.51-21.5 48-48 48s-48-21.49-48-48 21.5-48 48-48 48 21.49 48 48zm-207.4 65c-8-3.3-17.2-2.1-24.1 3.2l-49.8 38.7c-10.4 8.2-25.5 6.3-33.6-4.2-8.18-10.4-6.3-25.5 4.2-33.6l49.8-38.79c20.5-15.98 48.1-19.63 72.1-9.52l84.2 35.51c35.7 15 45.8 60.9 18.7 89.4L288.6 240H424c7.6 0 14.7 3.6 19.3 9.7 4.5 6.1 5.9 13.9 2.8 21.2l-48 160c-2.9 12.7-16.3 19.9-29 15.2-12.7-2.9-19.9-16.3-16.1-29L391.7 288h-85c8.6 19.6 13.3 41.2 13.3 64 0 88.4-71.6 160-160 160C71.63 512 0 440.4 0 352s71.63-160 160-160h3.7l68.9-68.9-24-10.1zm84.2 35.5-20.4-8.6-60.7 60.6c11.8 4.1 23 9.4 33.3 15.9l50.6-55.1c3.8-4.1 2.3-10.7-2.8-12.8zM160 464c61.9 0 112-50.1 112-112s-50.1-112-112-112c-61.86 0-112 50.1-112 112s50.14 112 112 112z"/></svg>