<svg xmlns="http://www.w3.org/2000/svg" viewBox="0 0 512 512"><!--! Font Awesome Pro 6.1.1 by @fontawesome - https://fontawesome.com License - https://fontawesome.com/license (Commercial License) Copyright 2022 Fonticons, Inc.--><path d="M291.3 394.8c-11.7-6.219-26.22-1.859-32.48 9.859C239.3 441.3 201.4 464 160 464c-61.75 0-112-50.25-112-112 0-47.11 29.77-89.47 74.06-105.4 12.47-4.484 18.95-18.23 14.45-30.7-4.484-12.5-18.25-18.97-30.7-14.45C42.52 224.2 0 284.7 0 352c0 88.22 71.78 160 160 160 59.19 0 113.3-32.45 141.2-84.69 6.3-11.71 1.8-26.21-9.9-32.51zM192 96c26.51 0 48-21.49 48-48S218.5 0 192 0s-48 21.49-48 48 21.5 48 48 48zm318.8 336.4c-4.172-12.56-17.75-19.41-30.36-15.17l-27.2 9.062-47.22-107.9C402.2 309.6 393.5 304 383.1 304H244l-14.5-80H344c13.25 0 24-10.75 24-24s-10.75-24-24-24H220.8l-5.2-28.3c-2.4-13-14.9-21.8-27.9-19.3-13 2.4-21.7 14.9-19.3 27.9l32 176c2.1 11.4 12 19.7 23.6 19.7h144.3l49.72 113.6c3.88 9 12.68 14.4 21.08 14.4 2.516 0 5.078-.39 7.594-1.234l47.1-16C508.2 458.6 514.9 444.1 510.8 432.4z"/></svg>