<svg xmlns="http://www.w3.org/2000/svg" viewBox="0 0 640 512"><!--! Font Awesome Pro 6.1.1 by @fontawesome - https://fontawesome.com License - https://fontawesome.com/license (Commercial License) Copyright 2022 Fonticons, Inc.--><path d="m627.7 326.8-288-224C307.5 78.43 267.4 64 224 64c-38.9 0-74.9 11.63-105.2 31.46C107.7 76.7 87.41 64 63.1 64 28.65 64 0 92.65 0 128c0 28.46 18.7 52.31 44.4 60.62C36.51 209.6 31.1 232.3 31.1 256c0 106 85.96 192 192 192 63.65 0 119.9-31.1 154.8-78.8l150.9 75.43c5.5 2.27 10.3 3.37 15.2 3.37 8.281 0 16.47-3.219 22.63-9.375l64-64c6.5-6.5 9.875-15.44 9.312-24.62C639.4 340.8 634.9 332.4 627.7 326.8zM69.03 142.1c-1.61 1.4-3.25 1.9-5.93 1.9-7.92 0-16-7.2-16-16s7.178-16 16-16 16 7.2 16 16c0 .594-.275 1.094-.338 1.668A113.069 113.069 0 0 1 69.03 142.1zM540.8 396.5 364 308.11l-23.95 32.7c-3.82 5.217-7.986 10.05-12.35 14.63-1.783 1.861-3.668 3.566-5.549 5.328-5.066 4.793-10.37 9.242-16 13.2-.772.54-1.461 1.172-2.244 1.697-6.9 4.656-14.26 8.488-21.83 11.85-1.279.566-2.531 1.145-3.83 1.674-7.707 3.15-15.67 5.656-23.89 7.418-1.256.27-2.531.435-3.799.674C241.9 398.9 233.1 400 224 400c-79.53 0-144-64.48-144-144 0-79.53 64.47-144 144-144 31.96 0 61.21 10.76 85.1 28.38.5.32 1 .42 1.5.82l80.65 62.47-10.44 13.92c-7.953 10.61-5.797 25.66 4.797 33.61 4.293 3.2 8.493 4.8 13.493 4.8 7.297 0 14.5-3.312 19.22-9.594l9.938-13.25 154.7 120.3L540.8 396.5zM224 208c-26.5 0-48 21.5-48 48 0 26.51 21.49 47.1 47.1 47.1 26.51 0 48-21.49 48-47.1.9-26.5-20.6-48-47.1-48z"/></svg>