<svg xmlns="http://www.w3.org/2000/svg" viewBox="0 0 640 512"><!--! Font Awesome Pro 6.1.1 by @fontawesome - https://fontawesome.com License - https://fontawesome.com/license (Commercial License) Copyright 2022 Fonticons, Inc.--><path d="M6.629 184.5c9.062 9.594 24.31 10 33.91.844C94.93 133.7 168.1 99.22 248 86.11V56c0-6.48 1.139-12.65 2.754-18.62C157.4 50.66 71.18 90.01 7.473 150.6c-9.625 9.2-10 24.3-.844 33.9zM118.7 320.6c9.219 9.625 24.41 9.844 33.94.688C179.4 295.6 212 276.1 248 266.4v-49.5c-48.6 11.8-92.9 35.4-128.6 69.8-9.6 9.2-9.9 24.4-.7 33.9zM392 216.9v49.5c35.96 10.63 68.61 29.2 95.37 54.95C492 325.8 497.1 328 503.1 328c6.281 0 12.59-2.469 17.31-7.375 9.188-9.531 8.875-24.72-.688-33.94C484.9 252.3 440.6 228.7 392 216.9zm240.5-66.3C568.79 89.98 482.6 50.64 389.2 37.3c1.7 6.05 2.8 12.22 2.8 18.7v30.11c79.86 13.11 153.1 47.55 207.5 99.27 4.6 4.42 10.6 6.62 15.6 6.62 6.344 0 12.69-2.5 17.38-7.469 10.02-9.631 9.72-24.731.02-33.931zM320 392c-22.09 0-40 17.91-40 40s17.91 40 40 40 40-17.91 40-40-17.9-40-40-40zm0-56c17.69 0 32-14.33 32-32V64c0-17.67-14.31-32-32-32s-32 14.33-32 32v240c0 17.7 14.3 32 32 32z"/></svg>