<svg xmlns="http://www.w3.org/2000/svg" viewBox="0 0 640 512"><!--! Font Awesome Pro 6.1.1 by @fontawesome - https://fontawesome.com License - https://fontawesome.com/license (Commercial License) Copyright 2022 Fonticons, Inc.--><path d="M319.1 368c-30 0-55.1 25.1-55.1 56s25.07 56 55.1 56 56.9-25.1 56.9-56-25.1-56-56.9-56zm201.5-81.3C467.9 235.9 396.6 208 320 208s-147.9 27.94-200.6 78.69c-9.6 9.21-9.9 24.41-.7 33.91 9.219 9.625 24.41 9.844 33.94.688C196.4 279.2 255.8 256 320 256s123.6 23.19 167.4 65.31c4.6 4.49 9.7 6.69 15.7 6.69 6.281 0 12.59-2.469 17.31-7.375 10.09-9.525 9.79-24.725.19-33.925z"/></svg>