<svg xmlns="http://www.w3.org/2000/svg" viewBox="0 0 640 512"><!--! Font Awesome Pro 6.1.1 by @fontawesome - https://fontawesome.com License - https://fontawesome.com/license (Commercial License) Copyright 2022 Fonticons, Inc.--><path d="M319.1 367.1c-30 0-55.1 26-55.1 56.9s25.07 56 55.1 56 56.9-25.1 56.9-56-25.1-56.9-56.9-56.9zm313.4-216.5C553.3 75.22 439.4 32 320 32S86.72 75.22 7.473 150.6c-9.625 9.125-10 24.31-.844 33.91 9.062 9.594 24.31 10 33.91.844C110.1 118.4 212.8 80 320 80s209 38.41 279.5 105.4c4.6 4.4 10.6 6.6 15.6 6.6 6.344 0 12.69-2.5 17.38-7.469 10.02-9.631 9.72-24.731.02-33.931zM320 207.9c-76.63 0-147.9 28-200.6 78.75-9.6 9.25-9.9 24.45-.7 33.95 9.219 9.625 24.41 9.844 33.94.688C196.4 279.2 255.8 256 320 256s123.6 23.19 167.4 65.31c4.6 4.49 9.7 6.69 15.7 6.69 6.281 0 12.59-2.469 17.31-7.375 9.188-9.531 8.875-24.72-.688-33.94C467.9 235.9 396.6 207.9 320 207.9z"/></svg>