<svg xmlns="http://www.w3.org/2000/svg" viewBox="0 0 640 512"><!--! Font Awesome Pro 6.1.1 by @fontawesome - https://fontawesome.com License - https://fontawesome.com/license (Commercial License) Copyright 2022 Fonticons, Inc.--><path d="M119.4 286.7c-9.6 9.2-9.9 24.4-.7 33.9 9.219 9.625 24.41 9.844 33.94.688C173.1 300.8 199.1 284.8 226.6 273.8l-42.5-33.3c-23.6 12.2-45.4 27.6-64.7 46.2zM7.473 150.6c-9.625 9.125-10 24.31-.844 33.91 9.062 9.594 24.31 10 33.91.844C51.66 174.8 63.8 165.2 76.39 156.1l-39.3-30.8c-10.3 8-20.24 16.4-29.617 25.3zM319.1 367.1c-30 0-55.1 26-55.1 56.9s25.07 56 55.99 56S376 454.9 376 424s-25.1-56.9-56.9-56.9zm44.7-107.3c47.1 8.098 89.97 29.15 123.6 61.48 4.6 4.52 9.7 6.72 15.7 6.72 6.281 0 12.59-2.469 17.31-7.375 9.188-9.531 8.875-24.72-.688-33.94C467.9 235.9 396.6 208 320 208c-6.939 0-13.65.98-20.49 1.438L169 107.2C216 89.66 267.3 80 320 80c107.2 0 209 38.41 279.5 105.4 4.6 4.4 10.6 6.6 15.6 6.6 6.344 0 12.69-2.5 17.38-7.469 9.156-9.594 8.781-24.78-.844-33.91C553.3 75.22 439.4 32 319.1 32c-67.7 0-134.2 14.59-193.6 41.07L38.81 5.111C28.34-3.061 13.32-1.249 5.121 9.189c-8.172 10.44-6.354 25.53 4.068 33.7L601.2 506.9c4.4 3.4 9.6 5.1 13.9 5.1 7.125 0 14.16-3.161 18.89-9.193 8.172-10.44 6.354-25.53-4.068-33.7L363.8 259.8z"/></svg>