<svg xmlns="http://www.w3.org/2000/svg" viewBox="0 0 512 512"><!--! Font Awesome Pro 6.1.1 by @fontawesome - https://fontawesome.com License - https://fontawesome.com/license (Commercial License) Copyright 2022 Fonticons, Inc.--><path d="M360 464h-32.52l-.852-25.54-49.99-58.88L279.5 464h-47l4.373-131.2-20.773-23.5c-3.6-5.6-9.5-8.8-15.7-9.5l-10.4-1.1-5.5 165.3H152c-13.3 0-24 10.7-24 24s10.7 24 24 24h208c13.25 0 24-10.75 24-24 0-13.3-10.7-24-24-24zm38.7-38.2-88.35-182.3c-5.928-13.6-6.191-28.1-.73-42.79l73.28-179.1c3.217-8.111-.75-17.29-8.861-20.51a15.804 15.804 0 0 0-18.64 5.443L241.3 163.2c-8.7 12-21.8 20.1-36.5 22.4L13.32 215.9c-7.799 1.3-13.485 8.1-13.317 16 .18 7.93 6.214 14.69 14.1 15.54l189.7 20.53c14.75 1.594 28.26 8.1 37.53 20.58l130.3 153.5c4.963 6.189 13.74 7.742 20.53 3.629C398.1 441.6 401.8 433 398.7 425.8zM255.1 248c-13.26 0-24-10.74-24-23.1 0-13.26 10.74-23.1 24-23.1 13.25 0 23.1 10.74 23.1 23.1.9 12.4-8.9 23.1-23.1 23.1z"/></svg>