<svg xmlns="http://www.w3.org/2000/svg" viewBox="0 0 640 512"><!--! Font Awesome Pro 6.1.1 by @fontawesome - https://fontawesome.com License - https://fontawesome.com/license (Commercial License) Copyright 2022 Fonticons, Inc.--><path d="M208 384c17.7 0 32-14.3 32-32 0-17.67-14.33-32-32-32s-32 14.33-32 32c0 17.7 14.3 32 32 32zm114.1-16.7C292.5 398.7 251.7 416 208 416c-88.22 0-160-71.78-160-160S119.78 96 208 96c72.19 0 135.8 48.63 154.5 118.3 3.469 12.81 16.62 20.41 29.44 16.94 12.78-3.469 20.38-16.62 16.94-29.44C384.4 111.2 301.8 48 208 48 93.31 48 0 141.3 0 256s93.31 208 208 208c56.78 0 109.9-22.47 149.4-63.28 9.25-9.531 9-24.72-.5-33.94s-24.7-8.98-34.8.52zM208 288c13.25 0 24-10.75 24-24V152c0-13.2-10.7-24-24-24s-24 10.8-24 24v112c0 13.3 10.8 24 24 24zm264-64h72c52.94 0 96-43.06 96-96s-43.06-96-96-96h-40c-13.2 0-24 10.75-24 24s10.75 24 24 24h40c26.47 0 48 21.53 48 48s-21.5 48-48 48h-72c-13.2 0-24 10.8-24 24s10.8 24 24 24zm64 48H328c-13.2 0-24 10.8-24 24s10.8 24 24 24h208c30.88 0 56 25.12 56 56s-25.12 56-56 56h-64c-13.25 0-24 10.75-24 24s10.8 24 24 24h64c57.34 0 104-46.66 104-104s-46.7-104-104-104z"/></svg>