<svg xmlns="http://www.w3.org/2000/svg" viewBox="0 0 320 512"><!--! Font Awesome Pro 6.1.1 by @fontawesome - https://fontawesome.com License - https://fontawesome.com/license (Commercial License) Copyright 2022 Fonticons, Inc.--><path d="M247.1 464h-63.99V348.5C256.6 336 310.3 269.8 303.4 192.6L287.5 14.5C286.8 6.25 279.9 0 271.8 0H48.23C40.1 0 33.22 6.25 32.47 14.5L16.6 192.6C9.72 269.8 63.35 336 135.1 348.5V464H72c-13.25 0-23.1 10.75-23.1 24s9.85 24 23.1 24h175.1c13.25 0 23.1-10.75 23.1-24s-9-24-23.1-24zM64.38 197.1 77.7 48h164.6l13.3 149.2c5 56.5-37.8 106.8-95.6 106.8-57.9 0-100.62-50.4-95.62-106.9z"/></svg>