<svg xmlns="http://www.w3.org/2000/svg" viewBox="0 0 512 512"><!--! Font Awesome Pro 6.1.1 by @fontawesome - https://fontawesome.com License - https://fontawesome.com/license (Commercial License) Copyright 2022 Fonticons, Inc.--><path d="m504.1 87.03-80-80c-9.375-9.375-24.56-9.375-33.94 0-6.418 6.418-8.104 15.5-5.732 23.64l-77.14 77.13c-49.08-14.42-102.3-1.203-139.1 35.64L24.19 288.3C8.594 303.9 0 324.6 0 346.7c0 22.03 8.594 42.77 24.19 58.36l82.78 82.78C122.5 503.4 143.3 512 165.3 512c22.03 0 42.77-8.594 58.36-24.19l144.9-144.9c36.84-36.84 50.03-89.97 35.63-139.1l77.12-77.13c2.19.62 4.39 1.32 6.69 1.32a23.93 23.93 0 0 0 16.97-7.031c9.33-9.369 9.33-24.559-.87-33.939zM140.9 453.9l-82.78-82.78C51.59 364.6 48 355.9 48 346.7s3.594-17.89 10.12-24.42l20.06-20.06 131.6 131.6-20.06 20.06c-13.02 13.02-36.62 13.02-48.82.02zM348.1 192l6.312 14.89c14.86 35.11 7.094 75.19-19.8 102.1l-12.81 12.81L190.2 190.2l12.8-12.8c26.92-26.89 67.03-34.61 102.1-19.81l14.89 6.312 96.1-96.99 28.14 28.14L348.1 192z"/></svg>