<svg xmlns="http://www.w3.org/2000/svg" viewBox="0 0 320 512"><!--! Font Awesome Pro 6.1.1 by @fontawesome - https://fontawesome.com License - https://fontawesome.com/license (Commercial License) Copyright 2022 Fonticons, Inc.--><path d="M248 464h-63.99V348.5C256.6 336 310.3 269.8 303.4 192.6L287.52 14.5C286.8 6.25 279.9 0 271.8 0H48.23C40.1 0 33.22 6.25 32.47 14.5L16.6 192.6C9.72 269.8 63.35 336 135.1 348.5V464H72c-13.25 0-24 10.75-24 24s10.75 24 24 24h176c13.25 0 24-10.75 24-24s-10.7-24-24-24zM64.35 197 77.73 48H152l8 16-64 64 96 96-32-96 64-48-8-32h26.27l13.38 149c4.95 56.5-37.85 107-95.65 107-57.9 0-100.64-50.5-95.65-107z"/></svg>