<svg xmlns="http://www.w3.org/2000/svg" viewBox="0 0 512 512"><!--! Font Awesome Pro 6.1.1 by @fontawesome - https://fontawesome.com License - https://fontawesome.com/license (Commercial License) Copyright 2022 Fonticons, Inc.--><path d="M128.9 255.1h54.4l49.4-204.7C235.3 39.61 244.9 32 256 32c11.1 0 20.7 7.61 23.3 18.4l49.4 204.7h54.4l57.8-205.57c3.6-12.76 16.8-20.21 29.6-16.64 12.7 3.57 20.2 16.82 16.6 29.58L432.9 256H488c13.3 0 24 10.7 24 24s-10.7 24-24 24h-68.5l-44.4 158.5c-2.9 9.6-12.6 17.7-23.5 16.6-11 .7-20.4-6.9-22.9-17.5L290.8 304h-69.6l-37.9 157.6c-2.5 10.6-11.9 18.2-22.9 17.5-10.9 1.1-20.6-7-23.5-16.6L92.52 304H24c-13.25 0-24-10.7-24-24s10.75-24 24-24h55.08L24.89 62.47c-3.58-12.76 3.87-26.01 16.64-29.58 12.76-3.57 26.01 3.88 29.58 16.64L128.9 255.1zm13.5 48 15.8 57.5 13.6-57.5h-29.4zm90.3-48h46.6L256 158.8l-23.3 96.3zm107.5 48 13.6 57.5 15.8-57.5h-29.4z"/></svg>