<svg xmlns="http://www.w3.org/2000/svg" viewBox="0 0 512 512"><!--! Font Awesome Pro 6.1.1 by @fontawesome - https://fontawesome.com License - https://fontawesome.com/license (Commercial License) Copyright 2022 Fonticons, Inc.--><path d="M352 96c0-13.25 10.7-24 24-24s24 10.75 24 24c0 13.3-10.7 24-24 24s-24-10.7-24-24zm-176.9 80c16.8 0 32.1 2.6 46.4 7.3 27.7 9.3 51.6 25.8 69 49.4 5.1 6.6 9.6 13.8 13.5 20.4 10.2 20.6 16 43.1 16 66.9v48c0 8.8 7.2 16 16 16s16-7.2 16-16V192h-16c-6.3 0-12.5-.6-18.5-1.8-27.6-5.4-51-22.6-64.7-47.1-8.1-13.2-12.8-29.6-12.8-47.1 0-53.02 42.1-96 96-96h48c53 0 96 42.98 96 96v272c0 79.5-64.5 144-144 144-55.7 0-104.1-31.7-128-78-10.2-19.7-16-42.2-16-66v-48c0-8.8-7.2-16-16-16s-16 7.2-16 16v128c0 35.3-28.7 64-64 64-35.35 0-64-28.7-64-64V320c0-79.5 64.47-144 144-144h-.9zM400 368c0 35.3-28.7 64-64 64s-64-28.7-64-64v-48c0-53.9-43-96-96.9-96-53 0-96 42.1-96 96v128c0 8.8 8.06 16 16 16 9.7 0 16-7.2 16-16V320c0-35.3 29.6-64 64-64 36.2 0 64 28.7 64 64v48c0 53 43 96 96.9 96 53 0 96-43 96-96V96c0-26.51-21.5-48-48-48h-48c-26.5 0-48 21.49-48 48 0 26.5 21.5 48 48 48h64v224z"/></svg>