<svg xmlns="http://www.w3.org/2000/svg" viewBox="0 0 640 512"><!--! Font Awesome Pro 6.1.1 by @fontawesome - https://fontawesome.com License - https://fontawesome.com/license (Commercial License) Copyright 2022 Fonticons, Inc.--><path d="M616 32c13.3 0 24 10.75 24 24s-10.7 24-24 24H24C10.75 80 0 69.25 0 56s10.75-24 24-24h592zm0 400c13.3 0 24 10.7 24 24s-10.7 24-24 24H24c-13.25 0-24-10.7-24-24s10.75-24 24-24h592zM40.97 167 96 222.1l55-55.1c9.4-9.3 24.6-9.3 33.1 0 10.2 9.4 10.2 24.6 0 33.1L129.9 256l54.2 55c10.2 9.4 10.2 24.6 0 33.1-8.5 10.2-23.7 10.2-33.1 0l-55-54.2-55.03 54.2c-9.37 10.2-24.57 10.2-33.941 0-9.372-8.5-9.372-23.7 0-33.1l55.031-55-55.031-55.9c-9.372-8.5-9.372-23.7 0-33.1 9.371-9.3 24.571-9.3 33.941 0zM320 222.1l55-55.1c9.4-9.3 24.6-9.3 33.1 0 10.2 9.4 10.2 24.6 0 33.1L353.9 256l54.2 55c10.2 9.4 10.2 24.6 0 33.1-8.5 10.2-23.7 10.2-33.1 0l-55-54.2-55.9 54.2c-8.5 10.2-23.7 10.2-33.1 0-9.3-8.5-9.3-23.7 0-33.1l55.1-55-55.1-55.9c-9.3-8.5-9.3-23.7 0-33.1 9.4-9.3 24.6-9.3 33.1 0l55.9 55.1zM455 167c9.4-9.3 24.6-9.3 33.1 0l55.9 55.1 55-55.1c9.4-9.3 24.6-9.3 33.1 0 10.2 9.4 10.2 24.6 0 33.1L577.9 256l54.2 55c10.2 9.4 10.2 24.6 0 33.1-8.5 10.2-23.7 10.2-33.1 0l-55-54.2-55.9 54.2c-8.5 10.2-23.7 10.2-33.1 0-9.3-8.5-9.3-23.7 0-33.1l55.1-55-55.1-55.9c-9.3-8.5-9.3-23.7 0-33.1z"/></svg>