<svg xmlns="http://www.w3.org/2000/svg" viewBox="0 0 448 512"><!--! Font Awesome Pro 6.1.1 by @fontawesome - https://fontawesome.com License - https://fontawesome.com/license (Commercial License) Copyright 2022 Fonticons, Inc.--><path d="M224 222.1 407 39.03c9.4-9.37 24.6-9.37 33.1 0 10.2 9.37 10.2 24.57 0 33.94L257.9 256l182.2 183c10.2 9.4 10.2 24.6 0 33.1-8.5 10.2-23.7 10.2-33.1 0L224 289.9 40.97 472.1c-9.37 10.2-24.57 10.2-33.941 0-9.372-8.5-9.372-23.7 0-33.1L190.1 256 7.029 72.97c-9.372-9.37-9.372-24.57 0-33.94 9.371-9.37 24.571-9.37 33.941 0L224 222.1z"/></svg>