<svg xmlns="http://www.w3.org/2000/svg" viewBox="0 0 576 512"><!--! Font Awesome Pro 6.1.1 by @fontawesome - https://fontawesome.com License - https://fontawesome.com/license (Commercial License) Copyright 2022 Fonticons, Inc.--><path d="M96 408h384c13.25 0 24-10.75 24-24 0-13.26-10.75-24-24-24V96c0-35.35-28.65-64-64-64H160c-35.3 0-64 28.65-64 64v264c-13.25 0-24 10.74-24 24 0 13.3 10.75 24 24 24zm48-312c0-8.836 7.164-16 16-16h256c8.836 0 16 7.164 16 16v264H144V96zm380.6 192c-13.25 0-24 10.75-24 24s10.75 24 24 24c1.9 0 3.4 1.5 3.4 3.4V424c0 4.406-3.594 8-8 8H56c-4.406 0-8-3.594-8-8v-84.58c0-1.92 1.53-3.42 3.41-3.42 13.25 0 24-10.75 24-24s-10.75-24-24-24C23.06 288 0 311.1 0 339.4V424c0 30.9 25.13 56 56 56h464c30.88 0 56-25.12 56-56v-84.58c0-28.32-23.1-51.42-51.4-51.42zM368.1 135c-9.375-9.375-24.56-9.375-33.94 0L288 182.1 240.1 135c-9.375-9.375-24.56-9.375-33.94 0s-9.375 24.56 0 33.94L254.1 216 207 263c-9.375 9.375-9.375 24.56 0 33.94 9.373 9.371 24.56 9.379 33.94 0L288 249.9l47.03 47.03c9.373 9.371 24.56 9.379 33.94 0 9.375-9.375 9.375-24.56 0-33.94L321.9 216l47.03-47.03c9.37-9.37 9.37-24.57-.83-33.97z"/></svg>