<svg xmlns="http://www.w3.org/2000/svg" viewBox="0 0 320 512"><!--! Font Awesome Pro 6.1.1 by @fontawesome - https://fontawesome.com License - https://fontawesome.com/license (Commercial License) Copyright 2022 Fonticons, Inc.--><path d="M160 213.3 276.2 42.5c7.4-10.96 22.3-13.8 33.3-6.35 11 7.46 13.8 22.39 6.3 33.35L210.8 224H280c13.3 0 24 10.7 24 24s-10.7 24-24 24h-96v48h96c13.3 0 24 10.7 24 24s-10.7 24-24 24h-96v88c0 13.3-10.7 24-24 24s-24-10.7-24-24v-88H40c-13.25 0-24-10.7-24-24s10.75-24 24-24h96v-48H40c-13.25 0-24-10.7-24-24s10.75-24 24-24h69.2L4.156 69.5c-7.453-10.96-4.61-25.89 6.354-33.35 10.96-7.45 25.89-4.61 33.34 6.35L160 213.3z"/></svg>