<svg xmlns="http://www.w3.org/2000/svg" viewBox="0 0 512 512"><!--! Font Awesome Pro 6.1.1 by @fontawesome - https://fontawesome.com License - https://fontawesome.com/license (Commercial License) Copyright 2022 Fonticons, Inc.--><path d="M256 336c-17.67 0-32 14.33-32 32s14.33 32 32 32 32-14.33 32-32-14.3-32-32-32zm0-160c17.67 0 32-14.33 32-32s-14.33-32-32-32-32 14.33-32 32 14.3 32 32 32zm0-176C114.6 0 0 114.6 0 256s114.6 256 256 256 256-114.6 256-256S397.4 0 256 0zM123.1 416.6C77.61 378.4 48 320.6 48 256c0-114.7 93.31-208 208-208 50.72 0 92 41.28 92 92s-41.3 92-92 92c-77.19 0-140 62.81-140 140 0 15.7 3.2 30.5 7.1 44.6zM256 464c-50.72 0-92-41.28-92-92s41.3-92 92-92c77.19 0 140-62.81 140-140 0-15.67-3.178-30.5-7.953-44.58C434.4 133.6 464 191.4 464 256c0 114.7-93.3 208-208 208z"/></svg>