<svg data-name="Layer 1" xmlns="http://www.w3.org/2000/svg" viewBox="0 0 512 512"><path d="M512 440.78c-6.99-15.76-18.41-27.28-31.26-35.77 18.94-14.66 26.15-31.95 26.15-31.95-33.62-13.81-66.94-7.36-90.36 1.38V138.37h-.01V88.19c-.05-14.94-11.97-27.03-26.69-27.1H93.26c-14.74.06-26.65 12.16-26.69 27.09v57.06h.12C62.21 245.92.05 311.04.02 311.07c55.74-.49 82.91-38.74 82.91-38.74-1.44 34.39-40.03 75.54-40.03 75.54 11.84-2.86 21.91-6.81 30.51-11.45v91.3c.05 12.8 10.3 23.16 22.93 23.19h297.24c10.64-.03 19.56-7.36 22.17-17.3 48.3 34.16 96.25 7.17 96.25 7.17ZM79.61 379.34V332.8c41.72-26.31 43.33-69.19 43.33-69.19 15.74 51.81-6.65 70.7-6.65 70.7 95.78-28.66 95.71-171.78 95.35-189.08h198.68v234.1H79.61ZM0 311.07h.02H0Zm304.77 5.89 4.21 6.41c-19.03 12.43-40.96 15.74-41.86 15.88l-.27.03h-60.3v-7.64h59.72c2.46-.41 21.99-3.9 38.5-14.68ZM372.14 202c-2.04 3.7-5.47 6.39-9.5 7.44l-85.21 16.51h-3.8l-1.9-5.83 3.81-.32-.32-5.67-7.36-10.43-1.56-6.03 4.16-.91 19.64 14.63 61.13-12.95s11.09-3.22 20.91 3.57Zm-22.86 13.64c.45 2.28.67 4.59.67 6.91.03 18.39-13.61 33.85-31.61 35.81s-34.56-10.2-38.38-28.17h-.01l69.33-14.55Z"/></svg>